<svg width="290" height="670" viewBox="0 0 290 670" fill="none" xmlns="http://www.w3.org/2000/svg">
<rect x="0.5" y="0.5" width="289" height="132" rx="3.5" fill="white"/>
<path d="M34 67H256V129C256 131.209 254.209 133 252 133H38C35.7909 133 34 131.209 34 129V67Z" fill="white"/>
<path d="M57.65 107.5V93.1H59.12V99.9L65.69 93.1H67.57L60.86 100.05L68.12 107.5H66.2L59.12 100.3V107.5H57.65ZM67.7242 107.5V106.21C68.1242 106.283 68.4276 106.267 68.6342 106.16C68.8476 106.047 69.0042 105.86 69.1042 105.6C69.2042 105.333 69.2876 105.003 69.3542 104.61C69.4609 103.957 69.5576 103.237 69.6442 102.45C69.7309 101.663 69.8076 100.797 69.8742 99.85C69.9476 98.8967 70.0209 97.8467 70.0942 96.7H77.4342V107.5H75.9742V98.11H71.4542C71.4076 98.8167 71.3542 99.52 71.2942 100.22C71.2342 100.92 71.1709 101.593 71.1042 102.24C71.0442 102.88 70.9776 103.47 70.9042 104.01C70.8309 104.55 70.7542 105.017 70.6742 105.41C70.5542 106.003 70.3942 106.477 70.1942 106.83C70.0009 107.183 69.7109 107.417 69.3242 107.53C68.9376 107.643 68.4042 107.633 67.7242 107.5ZM88.8081 96.7V107.5H87.3781V99.09L81.4581 107.5H80.2181V96.7H81.6481V105.04L87.5781 96.7H88.8081ZM96.1848 107.8C95.1315 107.8 94.2182 107.567 93.4448 107.1C92.6782 106.633 92.0815 105.977 91.6548 105.13C91.2282 104.283 91.0148 103.29 91.0148 102.15C91.0148 100.97 91.2248 99.95 91.6448 99.09C92.0648 98.23 92.6548 97.5667 93.4148 97.1C94.1815 96.6333 95.0848 96.4 96.1248 96.4C97.1915 96.4 98.1015 96.6467 98.8548 97.14C99.6082 97.6267 100.178 98.3267 100.565 99.24C100.952 100.153 101.128 101.243 101.095 102.51H99.5948V101.99C99.5682 100.59 99.2648 99.5333 98.6848 98.82C98.1115 98.1067 97.2715 97.75 96.1648 97.75C95.0048 97.75 94.1148 98.1267 93.4948 98.88C92.8815 99.6333 92.5748 100.707 92.5748 102.1C92.5748 103.46 92.8815 104.517 93.4948 105.27C94.1148 106.017 94.9915 106.39 96.1248 106.39C96.8982 106.39 97.5715 106.213 98.1448 105.86C98.7248 105.5 99.1815 104.983 99.5148 104.31L100.885 104.84C100.458 105.78 99.8282 106.51 98.9948 107.03C98.1682 107.543 97.2315 107.8 96.1848 107.8ZM92.0548 102.51V101.28H100.305V102.51H92.0548ZM103.304 107.5V96.7H104.774V101.39H110.864V96.7H112.334V107.5H110.864V102.8H104.774V107.5H103.304ZM118.06 107.5V98.06H114.23V96.7H123.36V98.06H119.53V107.5H118.06ZM125.277 107.5L125.257 96.7H126.737V100.77H128.617C128.931 100.77 129.237 100.777 129.537 100.79C129.837 100.803 130.107 100.83 130.347 100.87C130.881 100.977 131.354 101.157 131.767 101.41C132.181 101.663 132.507 102.013 132.747 102.46C132.987 102.9 133.107 103.457 133.107 104.13C133.107 105.057 132.867 105.787 132.387 106.32C131.907 106.853 131.304 107.2 130.577 107.36C130.304 107.42 130.007 107.46 129.687 107.48C129.367 107.493 129.054 107.5 128.747 107.5H125.277ZM126.737 106.24H128.687C128.907 106.24 129.157 106.233 129.437 106.22C129.717 106.207 129.964 106.17 130.177 106.11C130.537 106.01 130.861 105.81 131.147 105.51C131.441 105.203 131.587 104.743 131.587 104.13C131.587 103.523 131.447 103.067 131.167 102.76C130.887 102.447 130.514 102.24 130.047 102.14C129.834 102.093 129.607 102.063 129.367 102.05C129.134 102.037 128.907 102.03 128.687 102.03H126.737V106.24ZM134.397 107.5V96.7H135.867V107.5H134.397ZM142.66 107.5L142.67 96.7H144.15V101.9L148.97 96.7H150.93L145.87 102.1L151.59 107.5H149.45L144.15 102.3V107.5H142.66ZM156.906 107.8C155.833 107.8 154.916 107.557 154.156 107.07C153.396 106.583 152.813 105.91 152.406 105.05C151.999 104.19 151.796 103.203 151.796 102.09C151.796 100.957 152.003 99.9633 152.416 99.11C152.829 98.2567 153.416 97.5933 154.176 97.12C154.943 96.64 155.853 96.4 156.906 96.4C157.986 96.4 158.906 96.6433 159.666 97.13C160.433 97.61 161.016 98.28 161.416 99.14C161.823 99.9933 162.026 100.977 162.026 102.09C162.026 103.223 161.823 104.22 161.416 105.08C161.009 105.933 160.423 106.6 159.656 107.08C158.889 107.56 157.973 107.8 156.906 107.8ZM156.906 106.39C158.106 106.39 158.999 105.993 159.586 105.2C160.173 104.4 160.466 103.363 160.466 102.09C160.466 100.783 160.169 99.7433 159.576 98.97C158.989 98.1967 158.099 97.81 156.906 97.81C156.099 97.81 155.433 97.9933 154.906 98.36C154.386 98.72 153.996 99.2233 153.736 99.87C153.483 100.51 153.356 101.25 153.356 102.09C153.356 103.39 153.656 104.433 154.256 105.22C154.856 106 155.739 106.39 156.906 106.39ZM164.222 107.5V96.7H165.532L169.742 105.54L173.962 96.7H175.262V107.5H173.842V99.84L170.212 107.5H169.282L165.652 99.84V107.5H164.222ZM178.05 107.5V96.7H186.64V107.5H185.17V98.11H179.52V107.5H178.05ZM192.537 107.8C191.724 107.8 191.04 107.653 190.487 107.36C189.94 107.067 189.53 106.677 189.257 106.19C188.984 105.703 188.847 105.173 188.847 104.6C188.847 104.013 188.964 103.513 189.197 103.1C189.437 102.68 189.76 102.337 190.167 102.07C190.58 101.803 191.057 101.6 191.597 101.46C192.144 101.327 192.747 101.21 193.407 101.11C194.074 101.003 194.724 100.913 195.357 100.84C195.997 100.76 196.557 100.683 197.037 100.61L196.517 100.93C196.537 99.8633 196.33 99.0733 195.897 98.56C195.464 98.0467 194.71 97.79 193.637 97.79C192.897 97.79 192.27 97.9567 191.757 98.29C191.25 98.6233 190.894 99.15 190.687 99.87L189.257 99.45C189.504 98.4833 190 97.7333 190.747 97.2C191.494 96.6667 192.464 96.4 193.657 96.4C194.644 96.4 195.48 96.5867 196.167 96.96C196.86 97.3267 197.35 97.86 197.637 98.56C197.77 98.8733 197.857 99.2233 197.897 99.61C197.937 99.9967 197.957 100.39 197.957 100.79V107.5H196.647V104.79L197.027 104.95C196.66 105.877 196.09 106.583 195.317 107.07C194.544 107.557 193.617 107.8 192.537 107.8ZM192.707 106.53C193.394 106.53 193.994 106.407 194.507 106.16C195.02 105.913 195.434 105.577 195.747 105.15C196.06 104.717 196.264 104.23 196.357 103.69C196.437 103.343 196.48 102.963 196.487 102.55C196.494 102.13 196.497 101.817 196.497 101.61L197.057 101.9C196.557 101.967 196.014 102.033 195.427 102.1C194.847 102.167 194.274 102.243 193.707 102.33C193.147 102.417 192.64 102.52 192.187 102.64C191.88 102.727 191.584 102.85 191.297 103.01C191.01 103.163 190.774 103.37 190.587 103.63C190.407 103.89 190.317 104.213 190.317 104.6C190.317 104.913 190.394 105.217 190.547 105.51C190.707 105.803 190.96 106.047 191.307 106.24C191.66 106.433 192.127 106.53 192.707 106.53ZM200.55 107.5V96.7H202.02V101.39H208.11V96.7H209.58V107.5H208.11V102.8H202.02V107.5H200.55ZM220.957 96.7V107.5H219.527V99.09L213.607 107.5H212.367V96.7H213.797V105.04L219.727 96.7H220.957ZM232.343 96.7V107.5H230.913V99.09L224.993 107.5H223.753V96.7H225.183V105.04L231.113 96.7H232.343Z" fill="#344351"/>
<circle cx="100" cy="48" r="29.5" fill="white" stroke="#344351"/>
<ellipse cx="100" cy="40.5" rx="7" ry="7.5" fill="#F88C28"/>
<path d="M111.678 62H88.3218C87.6586 62 87.1815 61.3671 87.4115 60.745C88.9677 56.5346 93.0526 50 100 50C106.947 50 111.032 56.5346 112.589 60.745C112.818 61.3671 112.341 62 111.678 62Z" fill="#F88C28" stroke="#F88C28"/>
<circle cx="145" cy="48" r="29.5" fill="white" stroke="#344351"/>
<ellipse cx="145" cy="40.5" rx="7" ry="7.5" fill="#F88C28"/>
<path d="M156.678 62H133.322C132.659 62 132.182 61.3671 132.411 60.745C133.968 56.5346 138.053 50 145 50C151.947 50 156.032 56.5346 157.589 60.745C157.818 61.3671 157.341 62 156.678 62Z" fill="#F88C28" stroke="#F88C28"/>
<circle cx="190" cy="48" r="29.5" fill="white" stroke="#344351"/>
<ellipse cx="190" cy="40.5" rx="7" ry="7.5" fill="#F88C28"/>
<path d="M201.678 62H178.322C177.659 62 177.182 61.3671 177.411 60.745C178.968 56.5346 183.053 50 190 50C196.947 50 201.032 56.5346 202.589 60.745C202.818 61.3671 202.341 62 201.678 62Z" fill="#F88C28" stroke="#F88C28"/>
<rect x="0.5" y="0.5" width="289" height="132" rx="3.5" stroke="#344351"/>
<rect x="0.5" y="537.5" width="289" height="132" rx="3.5" fill="white"/>
<path d="M34 604H256V666C256 668.209 254.209 670 252 670H38C35.7909 670 34 668.209 34 666V604Z" fill="white"/>
<path d="M57.65 644.5V630.1H59.12V636.9L65.69 630.1H67.57L60.86 637.05L68.12 644.5H66.2L59.12 637.3V644.5H57.65ZM67.7242 644.5V643.21C68.1242 643.283 68.4276 643.267 68.6342 643.16C68.8476 643.047 69.0042 642.86 69.1042 642.6C69.2042 642.333 69.2876 642.003 69.3542 641.61C69.4609 640.957 69.5576 640.237 69.6442 639.45C69.7309 638.663 69.8076 637.797 69.8742 636.85C69.9476 635.897 70.0209 634.847 70.0942 633.7H77.4342V644.5H75.9742V635.11H71.4542C71.4076 635.817 71.3542 636.52 71.2942 637.22C71.2342 637.92 71.1709 638.593 71.1042 639.24C71.0442 639.88 70.9776 640.47 70.9042 641.01C70.8309 641.55 70.7542 642.017 70.6742 642.41C70.5542 643.003 70.3942 643.477 70.1942 643.83C70.0009 644.183 69.7109 644.417 69.3242 644.53C68.9376 644.643 68.4042 644.633 67.7242 644.5ZM88.8081 633.7V644.5H87.3781V636.09L81.4581 644.5H80.2181V633.7H81.6481V642.04L87.5781 633.7H88.8081ZM96.1848 644.8C95.1315 644.8 94.2182 644.567 93.4448 644.1C92.6782 643.633 92.0815 642.977 91.6548 642.13C91.2282 641.283 91.0148 640.29 91.0148 639.15C91.0148 637.97 91.2248 636.95 91.6448 636.09C92.0648 635.23 92.6548 634.567 93.4148 634.1C94.1815 633.633 95.0848 633.4 96.1248 633.4C97.1915 633.4 98.1015 633.647 98.8548 634.14C99.6082 634.627 100.178 635.327 100.565 636.24C100.952 637.153 101.128 638.243 101.095 639.51H99.5948V638.99C99.5682 637.59 99.2648 636.533 98.6848 635.82C98.1115 635.107 97.2715 634.75 96.1648 634.75C95.0048 634.75 94.1148 635.127 93.4948 635.88C92.8815 636.633 92.5748 637.707 92.5748 639.1C92.5748 640.46 92.8815 641.517 93.4948 642.27C94.1148 643.017 94.9915 643.39 96.1248 643.39C96.8982 643.39 97.5715 643.213 98.1448 642.86C98.7248 642.5 99.1815 641.983 99.5148 641.31L100.885 641.84C100.458 642.78 99.8282 643.51 98.9948 644.03C98.1682 644.543 97.2315 644.8 96.1848 644.8ZM92.0548 639.51V638.28H100.305V639.51H92.0548ZM103.304 644.5V633.7H104.774V638.39H110.864V633.7H112.334V644.5H110.864V639.8H104.774V644.5H103.304ZM118.06 644.5V635.06H114.23V633.7H123.36V635.06H119.53V644.5H118.06ZM125.277 644.5L125.257 633.7H126.737V637.77H128.617C128.931 637.77 129.237 637.777 129.537 637.79C129.837 637.803 130.107 637.83 130.347 637.87C130.881 637.977 131.354 638.157 131.767 638.41C132.181 638.663 132.507 639.013 132.747 639.46C132.987 639.9 133.107 640.457 133.107 641.13C133.107 642.057 132.867 642.787 132.387 643.32C131.907 643.853 131.304 644.2 130.577 644.36C130.304 644.42 130.007 644.46 129.687 644.48C129.367 644.493 129.054 644.5 128.747 644.5H125.277ZM126.737 643.24H128.687C128.907 643.24 129.157 643.233 129.437 643.22C129.717 643.207 129.964 643.17 130.177 643.11C130.537 643.01 130.861 642.81 131.147 642.51C131.441 642.203 131.587 641.743 131.587 641.13C131.587 640.523 131.447 640.067 131.167 639.76C130.887 639.447 130.514 639.24 130.047 639.14C129.834 639.093 129.607 639.063 129.367 639.05C129.134 639.037 128.907 639.03 128.687 639.03H126.737V643.24ZM134.397 644.5V633.7H135.867V644.5H134.397ZM142.66 644.5L142.67 633.7H144.15V638.9L148.97 633.7H150.93L145.87 639.1L151.59 644.5H149.45L144.15 639.3V644.5H142.66ZM156.906 644.8C155.833 644.8 154.916 644.557 154.156 644.07C153.396 643.583 152.813 642.91 152.406 642.05C151.999 641.19 151.796 640.203 151.796 639.09C151.796 637.957 152.003 636.963 152.416 636.11C152.829 635.257 153.416 634.593 154.176 634.12C154.943 633.64 155.853 633.4 156.906 633.4C157.986 633.4 158.906 633.643 159.666 634.13C160.433 634.61 161.016 635.28 161.416 636.14C161.823 636.993 162.026 637.977 162.026 639.09C162.026 640.223 161.823 641.22 161.416 642.08C161.009 642.933 160.423 643.6 159.656 644.08C158.889 644.56 157.973 644.8 156.906 644.8ZM156.906 643.39C158.106 643.39 158.999 642.993 159.586 642.2C160.173 641.4 160.466 640.363 160.466 639.09C160.466 637.783 160.169 636.743 159.576 635.97C158.989 635.197 158.099 634.81 156.906 634.81C156.099 634.81 155.433 634.993 154.906 635.36C154.386 635.72 153.996 636.223 153.736 636.87C153.483 637.51 153.356 638.25 153.356 639.09C153.356 640.39 153.656 641.433 154.256 642.22C154.856 643 155.739 643.39 156.906 643.39ZM164.222 644.5V633.7H165.532L169.742 642.54L173.962 633.7H175.262V644.5H173.842V636.84L170.212 644.5H169.282L165.652 636.84V644.5H164.222ZM178.05 644.5V633.7H186.64V644.5H185.17V635.11H179.52V644.5H178.05ZM192.537 644.8C191.724 644.8 191.04 644.653 190.487 644.36C189.94 644.067 189.53 643.677 189.257 643.19C188.984 642.703 188.847 642.173 188.847 641.6C188.847 641.013 188.964 640.513 189.197 640.1C189.437 639.68 189.76 639.337 190.167 639.07C190.58 638.803 191.057 638.6 191.597 638.46C192.144 638.327 192.747 638.21 193.407 638.11C194.074 638.003 194.724 637.913 195.357 637.84C195.997 637.76 196.557 637.683 197.037 637.61L196.517 637.93C196.537 636.863 196.33 636.073 195.897 635.56C195.464 635.047 194.71 634.79 193.637 634.79C192.897 634.79 192.27 634.957 191.757 635.29C191.25 635.623 190.894 636.15 190.687 636.87L189.257 636.45C189.504 635.483 190 634.733 190.747 634.2C191.494 633.667 192.464 633.4 193.657 633.4C194.644 633.4 195.48 633.587 196.167 633.96C196.86 634.327 197.35 634.86 197.637 635.56C197.77 635.873 197.857 636.223 197.897 636.61C197.937 636.997 197.957 637.39 197.957 637.79V644.5H196.647V641.79L197.027 641.95C196.66 642.877 196.09 643.583 195.317 644.07C194.544 644.557 193.617 644.8 192.537 644.8ZM192.707 643.53C193.394 643.53 193.994 643.407 194.507 643.16C195.02 642.913 195.434 642.577 195.747 642.15C196.06 641.717 196.264 641.23 196.357 640.69C196.437 640.343 196.48 639.963 196.487 639.55C196.494 639.13 196.497 638.817 196.497 638.61L197.057 638.9C196.557 638.967 196.014 639.033 195.427 639.1C194.847 639.167 194.274 639.243 193.707 639.33C193.147 639.417 192.64 639.52 192.187 639.64C191.88 639.727 191.584 639.85 191.297 640.01C191.01 640.163 190.774 640.37 190.587 640.63C190.407 640.89 190.317 641.213 190.317 641.6C190.317 641.913 190.394 642.217 190.547 642.51C190.707 642.803 190.96 643.047 191.307 643.24C191.66 643.433 192.127 643.53 192.707 643.53ZM200.55 644.5V633.7H202.02V638.39H208.11V633.7H209.58V644.5H208.11V639.8H202.02V644.5H200.55ZM220.957 633.7V644.5H219.527V636.09L213.607 644.5H212.367V633.7H213.797V642.04L219.727 633.7H220.957ZM232.343 633.7V644.5H230.913V636.09L224.993 644.5H223.753V633.7H225.183V642.04L231.113 633.7H232.343Z" fill="#344351"/>
<circle cx="100" cy="585" r="29.5" fill="white" stroke="#344351"/>
<ellipse cx="100" cy="577.5" rx="7" ry="7.5" fill="#F88C28"/>
<path d="M111.678 599H88.3218C87.6586 599 87.1815 598.367 87.4115 597.745C88.9677 593.535 93.0526 587 100 587C106.947 587 111.032 593.535 112.589 597.745C112.818 598.367 112.341 599 111.678 599Z" fill="#F88C28" stroke="#F88C28"/>
<circle cx="145" cy="585" r="29.5" fill="white" stroke="#344351"/>
<ellipse cx="145" cy="577.5" rx="7" ry="7.5" fill="#F88C28"/>
<path d="M156.678 599H133.322C132.659 599 132.182 598.367 132.411 597.745C133.968 593.535 138.053 587 145 587C151.947 587 156.032 593.535 157.589 597.745C157.818 598.367 157.341 599 156.678 599Z" fill="#F88C28" stroke="#F88C28"/>
<circle cx="190" cy="585" r="29.5" fill="white" stroke="#344351"/>
<ellipse cx="190" cy="577.5" rx="7" ry="7.5" fill="#F88C28"/>
<path d="M201.678 599H178.322C177.659 599 177.182 598.367 177.411 597.745C178.968 593.535 183.053 587 190 587C196.947 587 201.032 593.535 202.589 597.745C202.818 598.367 202.341 599 201.678 599Z" fill="#F88C28" stroke="#F88C28"/>
<rect x="0.5" y="537.5" width="289" height="132" rx="3.5" stroke="#344351"/>
<path d="M145.5 138C145.5 137.724 145.276 137.5 145 137.5C144.724 137.5 144.5 137.724 144.5 138L145.5 138ZM144.646 177.354C144.842 177.549 145.158 177.549 145.354 177.354L148.536 174.172C148.731 173.976 148.731 173.66 148.536 173.464C148.34 173.269 148.024 173.269 147.828 173.464L145 176.293L142.172 173.464C141.976 173.269 141.66 173.269 141.464 173.464C141.269 173.66 141.269 173.976 141.464 174.172L144.646 177.354ZM144.5 138L144.5 177L145.5 177L145.5 138L144.5 138Z" fill="#F88C28"/>
<path d="M145.5 493C145.5 492.724 145.276 492.5 145 492.5C144.724 492.5 144.5 492.724 144.5 493L145.5 493ZM144.646 532.354C144.842 532.549 145.158 532.549 145.354 532.354L148.536 529.172C148.731 528.976 148.731 528.66 148.536 528.464C148.34 528.269 148.024 528.269 147.828 528.464L145 531.293L142.172 528.464C141.976 528.269 141.66 528.269 141.464 528.464C141.269 528.66 141.269 528.976 141.464 529.172L144.646 532.354ZM144.5 493L144.5 532L145.5 532L145.5 493L144.5 493Z" fill="#F88C28"/>
<path d="M0 188C0 185.791 1.79086 184 4 184H286C288.209 184 290 185.791 290 188V250H0V188Z" fill="white"/>
<path d="M61.6477 213V200.04H66.6517C67.3777 200.04 68.0107 200.19 68.5507 200.49C69.0907 200.79 69.5107 201.195 69.8107 201.705C70.1107 202.209 70.2607 202.767 70.2607 203.379C70.2607 204.075 70.0747 204.696 69.7027 205.242C69.3307 205.782 68.8327 206.157 68.2087 206.367L68.1907 205.926C69.0307 206.166 69.6907 206.586 70.1707 207.186C70.6507 207.786 70.8907 208.512 70.8907 209.364C70.8907 210.114 70.7317 210.762 70.4137 211.308C70.0957 211.848 69.6487 212.265 69.0727 212.559C68.4967 212.853 67.8277 213 67.0657 213H61.6477ZM62.9797 211.731H66.7417C67.2697 211.731 67.7437 211.638 68.1637 211.452C68.5837 211.26 68.9137 210.99 69.1537 210.642C69.3997 210.294 69.5227 209.874 69.5227 209.382C69.5227 208.902 69.4117 208.47 69.1897 208.086C68.9677 207.702 68.6647 207.396 68.2807 207.168C67.9027 206.934 67.4707 206.817 66.9847 206.817H62.9797V211.731ZM62.9797 205.566H66.6427C67.0567 205.566 67.4347 205.473 67.7767 205.287C68.1187 205.095 68.3887 204.834 68.5867 204.504C68.7907 204.174 68.8927 203.793 68.8927 203.361C68.8927 202.749 68.6797 202.251 68.2537 201.867C67.8337 201.483 67.2967 201.291 66.6427 201.291H62.9797V205.566ZM75.4678 213.27C74.7358 213.27 74.1208 213.138 73.6228 212.874C73.1308 212.61 72.7618 212.259 72.5158 211.821C72.2698 211.383 72.1468 210.906 72.1468 210.39C72.1468 209.862 72.2518 209.412 72.4618 209.04C72.6778 208.662 72.9688 208.353 73.3348 208.113C73.7068 207.873 74.1358 207.69 74.6218 207.564C75.1138 207.444 75.6568 207.339 76.2508 207.249C76.8508 207.153 77.4358 207.072 78.0058 207.006C78.5818 206.934 79.0858 206.865 79.5178 206.799L79.0498 207.087C79.0678 206.127 78.8818 205.416 78.4918 204.954C78.1018 204.492 77.4238 204.261 76.4578 204.261C75.7918 204.261 75.2278 204.411 74.7658 204.711C74.3098 205.011 73.9888 205.485 73.8028 206.133L72.5158 205.755C72.7378 204.885 73.1848 204.21 73.8568 203.73C74.5288 203.25 75.4018 203.01 76.4758 203.01C77.3638 203.01 78.1168 203.178 78.7348 203.514C79.3588 203.844 79.7998 204.324 80.0578 204.954C80.1778 205.236 80.2558 205.551 80.2918 205.899C80.3278 206.247 80.3458 206.601 80.3458 206.961V213H79.1668V210.561L79.5088 210.705C79.1788 211.539 78.6658 212.175 77.9698 212.613C77.2738 213.051 76.4398 213.27 75.4678 213.27ZM75.6208 212.127C76.2388 212.127 76.7788 212.016 77.2408 211.794C77.7028 211.572 78.0748 211.269 78.3568 210.885C78.6388 210.495 78.8218 210.057 78.9058 209.571C78.9778 209.259 79.0168 208.917 79.0228 208.545C79.0288 208.167 79.0318 207.885 79.0318 207.699L79.5358 207.96C79.0858 208.02 78.5968 208.08 78.0688 208.14C77.5468 208.2 77.0308 208.269 76.5208 208.347C76.0168 208.425 75.5608 208.518 75.1528 208.626C74.8768 208.704 74.6098 208.815 74.3518 208.959C74.0938 209.097 73.8808 209.283 73.7128 209.517C73.5508 209.751 73.4698 210.042 73.4698 210.39C73.4698 210.672 73.5388 210.945 73.6768 211.209C73.8208 211.473 74.0488 211.692 74.3608 211.866C74.6788 212.04 75.0988 212.127 75.6208 212.127ZM82.6797 213V203.28H83.9667V211.776H87.6117V203.28H88.8987V211.776H92.5347V203.28H93.8217V213H82.6797ZM102.587 213V204.504H99.1404V203.28H107.357V204.504H103.91V213H102.587ZM113.186 213.27C112.238 213.27 111.416 213.06 110.72 212.64C110.03 212.22 109.493 211.629 109.109 210.867C108.725 210.105 108.533 209.211 108.533 208.185C108.533 207.123 108.722 206.205 109.1 205.431C109.478 204.657 110.009 204.06 110.693 203.64C111.383 203.22 112.196 203.01 113.132 203.01C114.092 203.01 114.911 203.232 115.589 203.676C116.267 204.114 116.78 204.744 117.128 205.566C117.476 206.388 117.635 207.369 117.605 208.509H116.255V208.041C116.231 206.781 115.958 205.83 115.436 205.188C114.92 204.546 114.164 204.225 113.168 204.225C112.124 204.225 111.323 204.564 110.765 205.242C110.213 205.92 109.937 206.886 109.937 208.14C109.937 209.364 110.213 210.315 110.765 210.993C111.323 211.665 112.112 212.001 113.132 212.001C113.828 212.001 114.434 211.842 114.95 211.524C115.472 211.2 115.883 210.735 116.183 210.129L117.416 210.606C117.032 211.452 116.465 212.109 115.715 212.577C114.971 213.039 114.128 213.27 113.186 213.27ZM109.469 208.509V207.402H116.894V208.509H109.469ZM119.594 213L119.603 203.28H120.935V207.96L125.273 203.28H127.037L122.483 208.14L127.631 213H125.705L120.935 208.32V213H119.594ZM129.918 217.32L131.799 212.217L131.826 213.729L127.569 203.28H128.973L132.465 212.019H131.889L135.111 203.28H136.461L131.241 217.32H129.918ZM149.104 214.683V213H138.016V203.28H139.303V211.776H142.948V203.28H144.235V211.776H147.871V203.28H149.158V211.776H150.427V214.683H149.104ZM159.581 203.28V213H158.294V205.431L152.966 213H151.85V203.28H153.137V210.786L158.474 203.28H159.581ZM166.139 202.128C165.713 202.128 165.323 202.023 164.969 201.813C164.615 201.603 164.333 201.324 164.123 200.976C163.919 200.622 163.817 200.232 163.817 199.806H164.915C164.915 200.142 165.035 200.43 165.275 200.67C165.515 200.91 165.803 201.03 166.139 201.03C166.481 201.03 166.769 200.91 167.003 200.67C167.243 200.43 167.363 200.142 167.363 199.806H168.461C168.461 200.232 168.356 200.622 168.146 200.976C167.942 201.324 167.663 201.603 167.309 201.813C166.955 202.023 166.565 202.128 166.139 202.128ZM169.829 203.28V213H168.542V205.431L163.214 213H162.098V203.28H163.385V210.786L168.722 203.28H169.829ZM175.949 213V203.28H177.272V207.501H182.753V203.28H184.076V213H182.753V208.77H177.272V213H175.949ZM190.652 213.27C189.686 213.27 188.861 213.051 188.177 212.613C187.493 212.175 186.968 211.569 186.602 210.795C186.236 210.021 186.053 209.133 186.053 208.131C186.053 207.111 186.239 206.217 186.611 205.449C186.983 204.681 187.511 204.084 188.195 203.658C188.885 203.226 189.704 203.01 190.652 203.01C191.624 203.01 192.452 203.229 193.136 203.667C193.826 204.099 194.351 204.702 194.711 205.476C195.077 206.244 195.26 207.129 195.26 208.131C195.26 209.151 195.077 210.048 194.711 210.822C194.345 211.59 193.817 212.19 193.127 212.622C192.437 213.054 191.612 213.27 190.652 213.27ZM190.652 212.001C191.732 212.001 192.536 211.644 193.064 210.93C193.592 210.21 193.856 209.277 193.856 208.131C193.856 206.955 193.589 206.019 193.055 205.323C192.527 204.627 191.726 204.279 190.652 204.279C189.926 204.279 189.326 204.444 188.852 204.774C188.384 205.098 188.033 205.551 187.799 206.133C187.571 206.709 187.457 207.375 187.457 208.131C187.457 209.301 187.727 210.24 188.267 210.948C188.807 211.65 189.602 212.001 190.652 212.001ZM197.236 213V203.28H198.415L202.204 211.236L206.002 203.28H207.172V213H205.894V206.106L202.627 213H201.79L198.523 206.106V213H197.236ZM213.804 213.27C212.856 213.27 212.034 213.06 211.338 212.64C210.648 212.22 210.111 211.629 209.727 210.867C209.343 210.105 209.151 209.211 209.151 208.185C209.151 207.123 209.34 206.205 209.718 205.431C210.096 204.657 210.627 204.06 211.311 203.64C212.001 203.22 212.814 203.01 213.75 203.01C214.71 203.01 215.529 203.232 216.207 203.676C216.885 204.114 217.398 204.744 217.746 205.566C218.094 206.388 218.253 207.369 218.223 208.509H216.873V208.041C216.849 206.781 216.576 205.83 216.054 205.188C215.538 204.546 214.782 204.225 213.786 204.225C212.742 204.225 211.941 204.564 211.383 205.242C210.831 205.92 210.555 206.886 210.555 208.14C210.555 209.364 210.831 210.315 211.383 210.993C211.941 211.665 212.73 212.001 213.75 212.001C214.446 212.001 215.052 211.842 215.568 211.524C216.09 211.2 216.501 210.735 216.801 210.129L218.034 210.606C217.65 211.452 217.083 212.109 216.333 212.577C215.589 213.039 214.746 213.27 213.804 213.27ZM210.087 208.509V207.402H217.512V208.509H210.087ZM224.585 213.27C223.691 213.27 222.935 213.045 222.317 212.595C221.699 212.139 221.231 211.524 220.913 210.75C220.595 209.97 220.436 209.097 220.436 208.131C220.436 207.147 220.595 206.271 220.913 205.503C221.237 204.729 221.711 204.12 222.335 203.676C222.959 203.232 223.727 203.01 224.639 203.01C225.527 203.01 226.289 203.235 226.925 203.685C227.561 204.135 228.047 204.747 228.383 205.521C228.725 206.295 228.896 207.165 228.896 208.131C228.896 209.103 228.725 209.976 228.383 210.75C228.041 211.524 227.549 212.139 226.907 212.595C226.265 213.045 225.491 213.27 224.585 213.27ZM220.211 217.32V203.28H221.399V210.597H221.543V217.32H220.211ZM224.45 212.037C225.128 212.037 225.692 211.866 226.142 211.524C226.592 211.182 226.928 210.717 227.15 210.129C227.378 209.535 227.492 208.869 227.492 208.131C227.492 207.399 227.381 206.739 227.159 206.151C226.937 205.563 226.598 205.098 226.142 204.756C225.692 204.414 225.119 204.243 224.423 204.243C223.745 204.243 223.181 204.408 222.731 204.738C222.287 205.068 221.954 205.527 221.732 206.115C221.51 206.697 221.399 207.369 221.399 208.131C221.399 208.881 221.51 209.553 221.732 210.147C221.954 210.735 222.29 211.197 222.74 211.533C223.19 211.869 223.76 212.037 224.45 212.037Z" fill="#344351"/>
<path d="M97.8715 238.513C97.3208 237.883 96.8471 237.178 96.4505 236.399C96.0585 235.624 95.7551 234.81 95.5405 233.956C95.3305 233.102 95.2278 232.243 95.2325 231.38C95.2278 230.517 95.3305 229.658 95.5405 228.804C95.7551 227.945 96.0585 227.129 96.4505 226.354C96.8471 225.579 97.3208 224.877 97.8715 224.247L98.6275 224.835C98.0861 225.484 97.6335 226.165 97.2695 226.879C96.9055 227.588 96.6325 228.321 96.4505 229.077C96.2731 229.833 96.1821 230.601 96.1775 231.38C96.1821 232.15 96.2755 232.918 96.4575 233.683C96.6441 234.444 96.9171 235.183 97.2765 235.902C97.6405 236.616 98.0908 237.286 98.6275 237.911L97.8715 238.513ZM99.0929 237.68V235.118C99.5222 235.118 99.8302 234.98 100.017 234.705C100.204 234.425 100.355 233.979 100.472 233.368C100.551 232.971 100.617 232.544 100.668 232.087C100.719 231.63 100.764 231.107 100.801 230.519C100.838 229.926 100.873 229.233 100.906 228.44H105.904V235.118H106.632V237.68H105.638V236H100.08V237.68H99.0929ZM100.836 235.118H104.882V229.322H101.858C101.844 229.677 101.823 230.052 101.795 230.449C101.772 230.846 101.741 231.242 101.704 231.639C101.671 232.036 101.632 232.409 101.585 232.759C101.543 233.104 101.492 233.408 101.431 233.669C101.361 234.005 101.284 234.292 101.2 234.53C101.121 234.768 100.999 234.964 100.836 235.118ZM107.334 236V235.097C107.614 235.148 107.826 235.137 107.971 235.062C108.12 234.983 108.23 234.852 108.3 234.67C108.37 234.483 108.428 234.252 108.475 233.977C108.549 233.52 108.617 233.016 108.678 232.465C108.738 231.914 108.792 231.308 108.839 230.645C108.89 229.978 108.941 229.243 108.993 228.44H114.131V236H113.109V229.427H109.945C109.912 229.922 109.875 230.414 109.833 230.904C109.791 231.394 109.746 231.865 109.7 232.318C109.658 232.766 109.611 233.179 109.56 233.557C109.508 233.935 109.455 234.262 109.399 234.537C109.315 234.952 109.203 235.284 109.063 235.531C108.927 235.778 108.724 235.942 108.454 236.021C108.183 236.1 107.81 236.093 107.334 236ZM120.825 236V233.151H119.061C118.856 233.151 118.644 233.144 118.424 233.13C118.21 233.111 118.009 233.086 117.822 233.053C117.29 232.95 116.838 232.717 116.464 232.353C116.096 231.984 115.911 231.476 115.911 230.827C115.911 230.192 116.084 229.684 116.429 229.301C116.775 228.914 117.192 228.662 117.682 228.545C117.906 228.494 118.133 228.463 118.361 228.454C118.595 228.445 118.795 228.44 118.963 228.44H121.854L121.861 236H120.825ZM115.666 236L117.773 232.829H118.914L116.793 236H115.666ZM119.005 232.269H120.825V229.322H119.005C118.893 229.322 118.737 229.327 118.536 229.336C118.336 229.345 118.147 229.376 117.969 229.427C117.815 229.474 117.661 229.555 117.507 229.672C117.358 229.784 117.232 229.936 117.129 230.127C117.027 230.314 116.975 230.542 116.975 230.813C116.975 231.191 117.078 231.494 117.283 231.723C117.493 231.947 117.755 232.101 118.067 232.185C118.235 232.222 118.403 232.246 118.571 232.255C118.739 232.264 118.884 232.269 119.005 232.269ZM126.62 236V228.44H129.735C129.894 228.44 130.085 228.449 130.309 228.468C130.538 228.487 130.75 228.522 130.946 228.573C131.371 228.685 131.712 228.914 131.968 229.259C132.23 229.604 132.36 230.02 132.36 230.505C132.36 230.776 132.318 231.018 132.234 231.233C132.155 231.443 132.041 231.625 131.891 231.779C131.821 231.858 131.744 231.928 131.66 231.989C131.576 232.045 131.495 232.092 131.415 232.129C131.565 232.157 131.726 232.222 131.898 232.325C132.169 232.484 132.374 232.698 132.514 232.969C132.654 233.235 132.724 233.559 132.724 233.942C132.724 234.46 132.601 234.882 132.353 235.209C132.106 235.536 131.775 235.76 131.359 235.881C131.173 235.932 130.97 235.965 130.75 235.979C130.536 235.993 130.333 236 130.141 236H126.62ZM127.656 235.125H130.092C130.19 235.125 130.314 235.118 130.463 235.104C130.613 235.085 130.746 235.062 130.862 235.034C131.138 234.964 131.338 234.824 131.464 234.614C131.595 234.399 131.66 234.166 131.66 233.914C131.66 233.583 131.562 233.312 131.366 233.102C131.175 232.887 130.918 232.757 130.596 232.71C130.489 232.687 130.377 232.673 130.26 232.668C130.144 232.663 130.039 232.661 129.945 232.661H127.656V235.125ZM127.656 231.779H129.77C129.892 231.779 130.027 231.772 130.176 231.758C130.33 231.739 130.463 231.709 130.575 231.667C130.818 231.583 130.995 231.438 131.107 231.233C131.224 231.028 131.282 230.804 131.282 230.561C131.282 230.295 131.219 230.062 131.093 229.861C130.972 229.66 130.788 229.52 130.54 229.441C130.372 229.38 130.19 229.345 129.994 229.336C129.803 229.327 129.682 229.322 129.63 229.322H127.656V231.779ZM133.28 236L136.234 232.178L133.343 228.44H134.575L136.836 231.387L139.076 228.44H140.308L137.417 232.178L140.378 236H139.139L136.836 232.969L134.519 236H133.28ZM144.386 236.21C143.635 236.21 142.993 236.04 142.461 235.699C141.929 235.358 141.521 234.887 141.236 234.285C140.951 233.683 140.809 232.992 140.809 232.213C140.809 231.42 140.954 230.724 141.243 230.127C141.532 229.53 141.943 229.065 142.475 228.734C143.012 228.398 143.649 228.23 144.386 228.23C145.142 228.23 145.786 228.4 146.318 228.741C146.855 229.077 147.263 229.546 147.543 230.148C147.828 230.745 147.97 231.434 147.97 232.213C147.97 233.006 147.828 233.704 147.543 234.306C147.258 234.903 146.848 235.37 146.311 235.706C145.774 236.042 145.133 236.21 144.386 236.21ZM144.386 235.223C145.226 235.223 145.851 234.945 146.262 234.39C146.673 233.83 146.878 233.104 146.878 232.213C146.878 231.298 146.67 230.57 146.255 230.029C145.844 229.488 145.221 229.217 144.386 229.217C143.821 229.217 143.355 229.345 142.986 229.602C142.622 229.854 142.349 230.206 142.167 230.659C141.99 231.107 141.901 231.625 141.901 232.213C141.901 233.123 142.111 233.853 142.531 234.404C142.951 234.95 143.569 235.223 144.386 235.223ZM148.954 237.68V235.118C149.384 235.118 149.692 234.98 149.878 234.705C150.065 234.425 150.217 233.979 150.333 233.368C150.413 232.971 150.478 232.544 150.529 232.087C150.581 231.63 150.625 231.107 150.662 230.519C150.7 229.926 150.735 229.233 150.767 228.44H155.765V235.118H156.493V237.68H155.499V236H149.941V237.68H148.954ZM150.697 235.118H154.743V229.322H151.719C151.705 229.677 151.684 230.052 151.656 230.449C151.633 230.846 151.603 231.242 151.565 231.639C151.533 232.036 151.493 232.409 151.446 232.759C151.404 233.104 151.353 233.408 151.292 233.669C151.222 234.005 151.145 234.292 151.061 234.53C150.982 234.768 150.861 234.964 150.697 235.118ZM162.634 236V233.151H160.87C160.665 233.151 160.452 233.144 160.233 233.13C160.018 233.111 159.818 233.086 159.631 233.053C159.099 232.95 158.646 232.717 158.273 232.353C157.904 231.984 157.72 231.476 157.72 230.827C157.72 230.192 157.893 229.684 158.238 229.301C158.583 228.914 159.001 228.662 159.491 228.545C159.715 228.494 159.941 228.463 160.17 228.454C160.403 228.445 160.604 228.44 160.772 228.44H163.663L163.67 236H162.634ZM157.475 236L159.582 232.829H160.723L158.602 236H157.475ZM160.814 232.269H162.634V229.322H160.814C160.702 229.322 160.546 229.327 160.345 229.336C160.144 229.345 159.955 229.376 159.778 229.427C159.624 229.474 159.47 229.555 159.316 229.672C159.167 229.784 159.041 229.936 158.938 230.127C158.835 230.314 158.784 230.542 158.784 230.813C158.784 231.191 158.887 231.494 159.092 231.723C159.302 231.947 159.563 232.101 159.876 232.185C160.044 232.222 160.212 232.246 160.38 232.255C160.548 232.264 160.693 232.269 160.814 232.269ZM174.25 237.309V236H165.626V228.44H166.627V235.048H169.462V228.44H170.463V235.048H173.291V228.44H174.292V235.048H175.279V237.309H174.25ZM182.399 228.44V236H181.398V230.113L177.254 236H176.386V228.44H177.387V234.278L181.538 228.44H182.399ZM183.524 236L186.478 232.178L183.587 228.44H184.819L187.08 231.387L189.32 228.44H190.552L187.661 232.178L190.622 236H189.383L187.08 232.969L184.763 236H183.524ZM192.132 238.513L191.376 237.911C191.912 237.286 192.36 236.616 192.72 235.902C193.084 235.183 193.357 234.444 193.539 233.683C193.725 232.918 193.821 232.15 193.826 231.38C193.821 230.601 193.728 229.833 193.546 229.077C193.368 228.321 193.098 227.588 192.734 226.879C192.37 226.165 191.917 225.484 191.376 224.835L192.132 224.247C192.682 224.877 193.154 225.579 193.546 226.354C193.942 227.129 194.246 227.945 194.456 228.804C194.67 229.658 194.775 230.517 194.771 231.38C194.775 232.243 194.67 233.102 194.456 233.956C194.246 234.81 193.942 235.624 193.546 236.399C193.154 237.178 192.682 237.883 192.132 238.513Z" fill="#9CA5AC"/>
<rect x="0.5" y="182.5" width="289" height="67" rx="3.5" stroke="#344351"/>
<path d="M0 426C0 423.791 1.79086 422 4 422H286C288.209 422 290 423.791 290 426V488H0V426Z" fill="white"/>
<path d="M58.3254 451V438.04H63.3294C64.0554 438.04 64.6884 438.19 65.2284 438.49C65.7684 438.79 66.1884 439.195 66.4884 439.705C66.7884 440.209 66.9384 440.767 66.9384 441.379C66.9384 442.075 66.7524 442.696 66.3804 443.242C66.0084 443.782 65.5104 444.157 64.8864 444.367L64.8684 443.926C65.7084 444.166 66.3684 444.586 66.8484 445.186C67.3284 445.786 67.5684 446.512 67.5684 447.364C67.5684 448.114 67.4094 448.762 67.0914 449.308C66.7734 449.848 66.3264 450.265 65.7504 450.559C65.1744 450.853 64.5054 451 63.7434 451H58.3254ZM59.6574 449.731H63.4194C63.9474 449.731 64.4214 449.638 64.8414 449.452C65.2614 449.26 65.5914 448.99 65.8314 448.642C66.0774 448.294 66.2004 447.874 66.2004 447.382C66.2004 446.902 66.0894 446.47 65.8674 446.086C65.6454 445.702 65.3424 445.396 64.9584 445.168C64.5804 444.934 64.1484 444.817 63.6624 444.817H59.6574V449.731ZM59.6574 443.566H63.3204C63.7344 443.566 64.1124 443.473 64.4544 443.287C64.7964 443.095 65.0664 442.834 65.2644 442.504C65.4684 442.174 65.5704 441.793 65.5704 441.361C65.5704 440.749 65.3574 440.251 64.9314 439.867C64.5114 439.483 63.9744 439.291 63.3204 439.291H59.6574V443.566ZM72.1455 451.27C71.4135 451.27 70.7985 451.138 70.3005 450.874C69.8085 450.61 69.4395 450.259 69.1935 449.821C68.9475 449.383 68.8245 448.906 68.8245 448.39C68.8245 447.862 68.9295 447.412 69.1395 447.04C69.3555 446.662 69.6465 446.353 70.0125 446.113C70.3845 445.873 70.8135 445.69 71.2995 445.564C71.7915 445.444 72.3345 445.339 72.9285 445.249C73.5285 445.153 74.1135 445.072 74.6835 445.006C75.2595 444.934 75.7635 444.865 76.1955 444.799L75.7275 445.087C75.7455 444.127 75.5595 443.416 75.1695 442.954C74.7795 442.492 74.1015 442.261 73.1355 442.261C72.4695 442.261 71.9055 442.411 71.4435 442.711C70.9875 443.011 70.6665 443.485 70.4805 444.133L69.1935 443.755C69.4155 442.885 69.8625 442.21 70.5345 441.73C71.2065 441.25 72.0795 441.01 73.1535 441.01C74.0415 441.01 74.7945 441.178 75.4125 441.514C76.0365 441.844 76.4775 442.324 76.7355 442.954C76.8555 443.236 76.9335 443.551 76.9695 443.899C77.0055 444.247 77.0235 444.601 77.0235 444.961V451H75.8445V448.561L76.1865 448.705C75.8565 449.539 75.3435 450.175 74.6475 450.613C73.9515 451.051 73.1175 451.27 72.1455 451.27ZM72.2985 450.127C72.9165 450.127 73.4565 450.016 73.9185 449.794C74.3805 449.572 74.7525 449.269 75.0345 448.885C75.3165 448.495 75.4995 448.057 75.5835 447.571C75.6555 447.259 75.6945 446.917 75.7005 446.545C75.7065 446.167 75.7095 445.885 75.7095 445.699L76.2135 445.96C75.7635 446.02 75.2745 446.08 74.7465 446.14C74.2245 446.2 73.7085 446.269 73.1985 446.347C72.6945 446.425 72.2385 446.518 71.8305 446.626C71.5545 446.704 71.2875 446.815 71.0295 446.959C70.7715 447.097 70.5585 447.283 70.3905 447.517C70.2285 447.751 70.1475 448.042 70.1475 448.39C70.1475 448.672 70.2165 448.945 70.3545 449.209C70.4985 449.473 70.7265 449.692 71.0385 449.866C71.3565 450.04 71.7765 450.127 72.2985 450.127ZM79.3574 451V441.28H80.6444V449.776H84.2894V441.28H85.5764V449.776H89.2124V441.28H90.4994V451H79.3574ZM96.6192 451V441.28H97.9422V445.501H103.423V441.28H104.746V451H103.423V446.77H97.9422V451H96.6192ZM111.322 451.27C110.356 451.27 109.531 451.051 108.847 450.613C108.163 450.175 107.638 449.569 107.272 448.795C106.906 448.021 106.723 447.133 106.723 446.131C106.723 445.111 106.909 444.217 107.281 443.449C107.653 442.681 108.181 442.084 108.865 441.658C109.555 441.226 110.374 441.01 111.322 441.01C112.294 441.01 113.122 441.229 113.806 441.667C114.496 442.099 115.021 442.702 115.381 443.476C115.747 444.244 115.93 445.129 115.93 446.131C115.93 447.151 115.747 448.048 115.381 448.822C115.015 449.59 114.487 450.19 113.797 450.622C113.107 451.054 112.282 451.27 111.322 451.27ZM111.322 450.001C112.402 450.001 113.206 449.644 113.734 448.93C114.262 448.21 114.526 447.277 114.526 446.131C114.526 444.955 114.259 444.019 113.725 443.323C113.197 442.627 112.396 442.279 111.322 442.279C110.596 442.279 109.996 442.444 109.522 442.774C109.054 443.098 108.703 443.551 108.469 444.133C108.241 444.709 108.127 445.375 108.127 446.131C108.127 447.301 108.397 448.24 108.937 448.948C109.477 449.65 110.272 450.001 111.322 450.001ZM117.906 451V441.28H119.085L122.874 449.236L126.672 441.28H127.842V451H126.564V444.106L123.297 451H122.46L119.193 444.106V451H117.906ZM134.474 451.27C133.526 451.27 132.704 451.06 132.008 450.64C131.318 450.22 130.781 449.629 130.397 448.867C130.013 448.105 129.821 447.211 129.821 446.185C129.821 445.123 130.01 444.205 130.388 443.431C130.766 442.657 131.297 442.06 131.981 441.64C132.671 441.22 133.484 441.01 134.42 441.01C135.38 441.01 136.199 441.232 136.877 441.676C137.555 442.114 138.068 442.744 138.416 443.566C138.764 444.388 138.923 445.369 138.893 446.509H137.543V446.041C137.519 444.781 137.246 443.83 136.724 443.188C136.208 442.546 135.452 442.225 134.456 442.225C133.412 442.225 132.611 442.564 132.053 443.242C131.501 443.92 131.225 444.886 131.225 446.14C131.225 447.364 131.501 448.315 132.053 448.993C132.611 449.665 133.4 450.001 134.42 450.001C135.116 450.001 135.722 449.842 136.238 449.524C136.76 449.2 137.171 448.735 137.471 448.129L138.704 448.606C138.32 449.452 137.753 450.109 137.003 450.577C136.259 451.039 135.416 451.27 134.474 451.27ZM130.757 446.509V445.402H138.182V446.509H130.757ZM145.255 451.27C144.361 451.27 143.605 451.045 142.987 450.595C142.369 450.139 141.901 449.524 141.583 448.75C141.265 447.97 141.106 447.097 141.106 446.131C141.106 445.147 141.265 444.271 141.583 443.503C141.907 442.729 142.381 442.12 143.005 441.676C143.629 441.232 144.397 441.01 145.309 441.01C146.197 441.01 146.959 441.235 147.595 441.685C148.231 442.135 148.717 442.747 149.053 443.521C149.395 444.295 149.566 445.165 149.566 446.131C149.566 447.103 149.395 447.976 149.053 448.75C148.711 449.524 148.219 450.139 147.577 450.595C146.935 451.045 146.161 451.27 145.255 451.27ZM140.881 455.32V441.28H142.069V448.597H142.213V455.32H140.881ZM145.12 450.037C145.798 450.037 146.362 449.866 146.812 449.524C147.262 449.182 147.598 448.717 147.82 448.129C148.048 447.535 148.162 446.869 148.162 446.131C148.162 445.399 148.051 444.739 147.829 444.151C147.607 443.563 147.268 443.098 146.812 442.756C146.362 442.414 145.789 442.243 145.093 442.243C144.415 442.243 143.851 442.408 143.401 442.738C142.957 443.068 142.624 443.527 142.402 444.115C142.18 444.697 142.069 445.369 142.069 446.131C142.069 446.881 142.18 447.553 142.402 448.147C142.624 448.735 142.96 449.197 143.41 449.533C143.86 449.869 144.43 450.037 145.12 450.037ZM154.543 453.16V449.731C155.047 449.731 155.452 449.605 155.758 449.353C156.064 449.095 156.298 448.753 156.46 448.327C156.622 447.901 156.745 447.424 156.829 446.896C156.913 446.362 156.985 445.822 157.045 445.276C157.129 444.478 157.195 443.707 157.243 442.963C157.297 442.219 157.342 441.448 157.378 440.65C157.42 439.852 157.468 438.979 157.522 438.031L165.514 438.04V449.731H166.441V453.16H165.127V451H155.866V453.16H154.543ZM157.072 449.731H164.191V439.309L158.755 439.3C158.719 440.032 158.683 440.74 158.647 441.424C158.611 442.108 158.569 442.798 158.521 443.494C158.473 444.19 158.41 444.916 158.332 445.672C158.266 446.362 158.188 446.965 158.098 447.481C158.008 447.997 157.882 448.438 157.72 448.804C157.564 449.17 157.348 449.479 157.072 449.731ZM172.53 451.27C171.582 451.27 170.76 451.06 170.064 450.64C169.374 450.22 168.837 449.629 168.453 448.867C168.069 448.105 167.877 447.211 167.877 446.185C167.877 445.123 168.066 444.205 168.444 443.431C168.822 442.657 169.353 442.06 170.037 441.64C170.727 441.22 171.54 441.01 172.476 441.01C173.436 441.01 174.255 441.232 174.933 441.676C175.611 442.114 176.124 442.744 176.472 443.566C176.82 444.388 176.979 445.369 176.949 446.509H175.599V446.041C175.575 444.781 175.302 443.83 174.78 443.188C174.264 442.546 173.508 442.225 172.512 442.225C171.468 442.225 170.667 442.564 170.109 443.242C169.557 443.92 169.281 444.886 169.281 446.14C169.281 447.364 169.557 448.315 170.109 448.993C170.667 449.665 171.456 450.001 172.476 450.001C173.172 450.001 173.778 449.842 174.294 449.524C174.816 449.2 175.227 448.735 175.527 448.129L176.76 448.606C176.376 449.452 175.809 450.109 175.059 450.577C174.315 451.039 173.472 451.27 172.53 451.27ZM168.813 446.509V445.402H176.238V446.509H168.813ZM178.047 451V449.839C178.407 449.905 178.68 449.89 178.866 449.794C179.058 449.692 179.199 449.524 179.289 449.29C179.379 449.05 179.454 448.753 179.514 448.399C179.61 447.811 179.697 447.163 179.775 446.455C179.853 445.747 179.922 444.967 179.982 444.115C180.048 443.257 180.114 442.312 180.18 441.28H186.786V451H185.472V442.549H181.404C181.362 443.185 181.314 443.818 181.26 444.448C181.206 445.078 181.149 445.684 181.089 446.266C181.035 446.842 180.975 447.373 180.909 447.859C180.843 448.345 180.774 448.765 180.702 449.119C180.594 449.653 180.45 450.079 180.27 450.397C180.096 450.715 179.835 450.925 179.487 451.027C179.139 451.129 178.659 451.12 178.047 451ZM193.359 451.27C192.393 451.27 191.568 451.051 190.884 450.613C190.2 450.175 189.675 449.569 189.309 448.795C188.943 448.021 188.76 447.133 188.76 446.131C188.76 445.111 188.946 444.217 189.318 443.449C189.69 442.681 190.218 442.084 190.902 441.658C191.592 441.226 192.411 441.01 193.359 441.01C194.331 441.01 195.159 441.229 195.843 441.667C196.533 442.099 197.058 442.702 197.418 443.476C197.784 444.244 197.967 445.129 197.967 446.131C197.967 447.151 197.784 448.048 197.418 448.822C197.052 449.59 196.524 450.19 195.834 450.622C195.144 451.054 194.319 451.27 193.359 451.27ZM193.359 450.001C194.439 450.001 195.243 449.644 195.771 448.93C196.299 448.21 196.563 447.277 196.563 446.131C196.563 444.955 196.296 444.019 195.762 443.323C195.234 442.627 194.433 442.279 193.359 442.279C192.633 442.279 192.033 442.444 191.559 442.774C191.091 443.098 190.74 443.551 190.506 444.133C190.278 444.709 190.164 445.375 190.164 446.131C190.164 447.301 190.434 448.24 190.974 448.948C191.514 449.65 192.309 450.001 193.359 450.001ZM204.56 455.05V451.189C203.612 451.339 202.748 451.237 201.968 450.883C201.188 450.523 200.567 449.941 200.105 449.137C199.643 448.333 199.412 447.337 199.412 446.149C199.412 444.961 199.643 443.965 200.105 443.161C200.567 442.351 201.188 441.766 201.968 441.406C202.748 441.046 203.612 440.941 204.56 441.091V438.112H205.784V441.091C206.732 440.941 207.596 441.046 208.376 441.406C209.156 441.766 209.777 442.351 210.239 443.161C210.701 443.965 210.932 444.961 210.932 446.149C210.932 447.337 210.701 448.333 210.239 449.137C209.777 449.941 209.156 450.523 208.376 450.883C207.596 451.237 206.732 451.339 205.784 451.189V455.05H204.56ZM204.56 449.956V442.333C204.074 442.249 203.606 442.264 203.156 442.378C202.706 442.486 202.301 442.699 201.941 443.017C201.581 443.329 201.296 443.746 201.086 444.268C200.882 444.784 200.78 445.411 200.78 446.149C200.78 446.887 200.885 447.517 201.095 448.039C201.305 448.555 201.59 448.969 201.95 449.281C202.31 449.593 202.715 449.803 203.165 449.911C203.615 450.019 204.08 450.034 204.56 449.956ZM205.784 449.956C206.264 450.034 206.729 450.019 207.179 449.911C207.629 449.803 208.034 449.596 208.394 449.29C208.754 448.978 209.039 448.564 209.249 448.048C209.459 447.526 209.564 446.893 209.564 446.149C209.564 445.405 209.459 444.775 209.249 444.259C209.045 443.737 208.763 443.32 208.403 443.008C208.043 442.696 207.638 442.486 207.188 442.378C206.738 442.264 206.27 442.249 205.784 442.333V449.956ZM216.966 451.27C216 451.27 215.175 451.051 214.491 450.613C213.807 450.175 213.282 449.569 212.916 448.795C212.55 448.021 212.367 447.133 212.367 446.131C212.367 445.111 212.553 444.217 212.925 443.449C213.297 442.681 213.825 442.084 214.509 441.658C215.199 441.226 216.018 441.01 216.966 441.01C217.938 441.01 218.766 441.229 219.45 441.667C220.14 442.099 220.665 442.702 221.025 443.476C221.391 444.244 221.574 445.129 221.574 446.131C221.574 447.151 221.391 448.048 221.025 448.822C220.659 449.59 220.131 450.19 219.441 450.622C218.751 451.054 217.926 451.27 216.966 451.27ZM216.966 450.001C218.046 450.001 218.85 449.644 219.378 448.93C219.906 448.21 220.17 447.277 220.17 446.131C220.17 444.955 219.903 444.019 219.369 443.323C218.841 442.627 218.04 442.279 216.966 442.279C216.24 442.279 215.64 442.444 215.166 442.774C214.698 443.098 214.347 443.551 214.113 444.133C213.885 444.709 213.771 445.375 213.771 446.131C213.771 447.301 214.041 448.24 214.581 448.948C215.121 449.65 215.916 450.001 216.966 450.001ZM223.551 451V441.28H224.874V445.501H230.355V441.28H231.678V451H230.355V446.77H224.874V451H223.551Z" fill="#344351"/>
<path d="M93.7562 476.513C93.2056 475.883 92.7319 475.178 92.3352 474.399C91.9432 473.624 91.6399 472.81 91.4252 471.956C91.2152 471.102 91.1126 470.243 91.1172 469.38C91.1126 468.517 91.2152 467.658 91.4252 466.804C91.6399 465.945 91.9432 465.129 92.3352 464.354C92.7319 463.579 93.2056 462.877 93.7562 462.247L94.5122 462.835C93.9709 463.484 93.5182 464.165 93.1542 464.879C92.7902 465.588 92.5172 466.321 92.3352 467.077C92.1579 467.833 92.0669 468.601 92.0622 469.38C92.0669 470.15 92.1602 470.918 92.3422 471.683C92.5289 472.444 92.8019 473.183 93.1612 473.902C93.5252 474.616 93.9756 475.286 94.5122 475.911L93.7562 476.513ZM94.9776 475.68V473.118C95.407 473.118 95.715 472.98 95.9016 472.705C96.0883 472.425 96.24 471.979 96.3566 471.368C96.436 470.971 96.5013 470.544 96.5526 470.087C96.604 469.63 96.6483 469.107 96.6856 468.519C96.723 467.926 96.758 467.233 96.7906 466.44H101.789V473.118H102.517V475.68H101.523V474H95.9646V475.68H94.9776ZM96.7206 473.118H100.767V467.322H97.7426C97.7286 467.677 97.7076 468.052 97.6796 468.449C97.6563 468.846 97.626 469.242 97.5886 469.639C97.556 470.036 97.5163 470.409 97.4696 470.759C97.4276 471.104 97.3763 471.408 97.3156 471.669C97.2456 472.005 97.1686 472.292 97.0846 472.53C97.0053 472.768 96.884 472.964 96.7206 473.118ZM103.218 474V473.097C103.498 473.148 103.711 473.137 103.855 473.062C104.005 472.983 104.114 472.852 104.184 472.67C104.254 472.483 104.313 472.252 104.359 471.977C104.434 471.52 104.502 471.016 104.562 470.465C104.623 469.914 104.677 469.308 104.723 468.645C104.775 467.978 104.826 467.243 104.877 466.44H110.015V474H108.993V467.427H105.829C105.797 467.922 105.759 468.414 105.717 468.904C105.675 469.394 105.631 469.865 105.584 470.318C105.542 470.766 105.496 471.179 105.444 471.557C105.393 471.935 105.339 472.262 105.283 472.537C105.199 472.952 105.087 473.284 104.947 473.531C104.812 473.778 104.609 473.942 104.338 474.021C104.068 474.1 103.694 474.093 103.218 474ZM116.71 474V471.151H114.946C114.741 471.151 114.529 471.144 114.309 471.13C114.095 471.111 113.894 471.086 113.707 471.053C113.175 470.95 112.723 470.717 112.349 470.353C111.981 469.984 111.796 469.476 111.796 468.827C111.796 468.192 111.969 467.684 112.314 467.301C112.66 466.914 113.077 466.662 113.567 466.545C113.791 466.494 114.018 466.463 114.246 466.454C114.48 466.445 114.68 466.44 114.848 466.44H117.739L117.746 474H116.71ZM111.551 474L113.658 470.829H114.799L112.678 474H111.551ZM114.89 470.269H116.71V467.322H114.89C114.778 467.322 114.622 467.327 114.421 467.336C114.221 467.345 114.032 467.376 113.854 467.427C113.7 467.474 113.546 467.555 113.392 467.672C113.243 467.784 113.117 467.936 113.014 468.127C112.912 468.314 112.86 468.542 112.86 468.813C112.86 469.191 112.963 469.494 113.168 469.723C113.378 469.947 113.64 470.101 113.952 470.185C114.12 470.222 114.288 470.246 114.456 470.255C114.624 470.264 114.769 470.269 114.89 470.269ZM128.518 466.44V474H127.517V468.113L123.373 474H122.505V466.44H123.506V472.278L127.657 466.44H128.518ZM133.619 474.21C132.858 474.21 132.214 474.04 131.687 473.699C131.16 473.358 130.758 472.889 130.483 472.292C130.212 471.69 130.072 470.999 130.063 470.22C130.072 469.427 130.217 468.731 130.497 468.134C130.777 467.532 131.181 467.065 131.708 466.734C132.235 466.398 132.875 466.23 133.626 466.23C134.391 466.23 135.056 466.417 135.621 466.79C136.19 467.163 136.58 467.674 136.79 468.323L135.782 468.645C135.605 468.192 135.322 467.842 134.935 467.595C134.552 467.343 134.114 467.217 133.619 467.217C133.064 467.217 132.604 467.345 132.24 467.602C131.876 467.854 131.605 468.206 131.428 468.659C131.251 469.112 131.16 469.632 131.155 470.22C131.164 471.125 131.374 471.853 131.785 472.404C132.196 472.95 132.807 473.223 133.619 473.223C134.132 473.223 134.569 473.106 134.928 472.873C135.292 472.635 135.567 472.29 135.754 471.837L136.79 472.145C136.51 472.817 136.099 473.33 135.558 473.685C135.017 474.035 134.37 474.21 133.619 474.21ZM137.395 474L140.349 470.178L137.458 466.44H138.69L140.951 469.387L143.191 466.44H144.423L141.532 470.178L144.493 474H143.254L140.951 470.969L138.634 474H137.395ZM148.501 474.21C147.75 474.21 147.108 474.04 146.576 473.699C146.044 473.358 145.636 472.887 145.351 472.285C145.067 471.683 144.924 470.992 144.924 470.213C144.924 469.42 145.069 468.724 145.358 468.127C145.648 467.53 146.058 467.065 146.59 466.734C147.127 466.398 147.764 466.23 148.501 466.23C149.257 466.23 149.901 466.4 150.433 466.741C150.97 467.077 151.378 467.546 151.658 468.148C151.943 468.745 152.085 469.434 152.085 470.213C152.085 471.006 151.943 471.704 151.658 472.306C151.374 472.903 150.963 473.37 150.426 473.706C149.89 474.042 149.248 474.21 148.501 474.21ZM148.501 473.223C149.341 473.223 149.967 472.945 150.377 472.39C150.788 471.83 150.993 471.104 150.993 470.213C150.993 469.298 150.786 468.57 150.37 468.029C149.96 467.488 149.337 467.217 148.501 467.217C147.937 467.217 147.47 467.345 147.101 467.602C146.737 467.854 146.464 468.206 146.282 468.659C146.105 469.107 146.016 469.625 146.016 470.213C146.016 471.123 146.226 471.853 146.646 472.404C147.066 472.95 147.685 473.223 148.501 473.223ZM153.069 475.68V473.118C153.499 473.118 153.807 472.98 153.993 472.705C154.18 472.425 154.332 471.979 154.448 471.368C154.528 470.971 154.593 470.544 154.644 470.087C154.696 469.63 154.74 469.107 154.777 468.519C154.815 467.926 154.85 467.233 154.882 466.44H159.88V473.118H160.608V475.68H159.614V474H154.056V475.68H153.069ZM154.812 473.118H158.858V467.322H155.834C155.82 467.677 155.799 468.052 155.771 468.449C155.748 468.846 155.718 469.242 155.68 469.639C155.648 470.036 155.608 470.409 155.561 470.759C155.519 471.104 155.468 471.408 155.407 471.669C155.337 472.005 155.26 472.292 155.176 472.53C155.097 472.768 154.976 472.964 154.812 473.118ZM166.749 474V471.151H164.985C164.78 471.151 164.568 471.144 164.348 471.13C164.134 471.111 163.933 471.086 163.746 471.053C163.214 470.95 162.762 470.717 162.388 470.353C162.02 469.984 161.835 469.476 161.835 468.827C161.835 468.192 162.008 467.684 162.353 467.301C162.699 466.914 163.116 466.662 163.606 466.545C163.83 466.494 164.057 466.463 164.285 466.454C164.519 466.445 164.719 466.44 164.887 466.44H167.778L167.785 474H166.749ZM161.59 474L163.697 470.829H164.838L162.717 474H161.59ZM164.929 470.269H166.749V467.322H164.929C164.817 467.322 164.661 467.327 164.46 467.336C164.26 467.345 164.071 467.376 163.893 467.427C163.739 467.474 163.585 467.555 163.431 467.672C163.282 467.784 163.156 467.936 163.053 468.127C162.951 468.314 162.899 468.542 162.899 468.813C162.899 469.191 163.002 469.494 163.207 469.723C163.417 469.947 163.679 470.101 163.991 470.185C164.159 470.222 164.327 470.246 164.495 470.255C164.663 470.264 164.808 470.269 164.929 470.269ZM178.366 475.309V474H169.742V466.44H170.743V473.048H173.578V466.44H174.579V473.048H177.407V466.44H178.408V473.048H179.395V475.309H178.366ZM186.514 466.44V474H185.513V468.113L181.369 474H180.501V466.44H181.502V472.278L185.653 466.44H186.514ZM187.639 474L190.593 470.178L187.702 466.44H188.934L191.195 469.387L193.435 466.44H194.667L191.776 470.178L194.737 474H193.498L191.195 470.969L188.878 474H187.639ZM196.247 476.513L195.491 475.911C196.028 475.286 196.476 474.616 196.835 473.902C197.199 473.183 197.472 472.444 197.654 471.683C197.841 470.918 197.936 470.15 197.941 469.38C197.936 468.601 197.843 467.833 197.661 467.077C197.484 466.321 197.213 465.588 196.849 464.879C196.485 464.165 196.032 463.484 195.491 462.835L196.247 462.247C196.798 462.877 197.269 463.579 197.661 464.354C198.058 465.129 198.361 465.945 198.571 466.804C198.786 467.658 198.891 468.517 198.886 469.38C198.891 470.243 198.786 471.102 198.571 471.956C198.361 472.81 198.058 473.624 197.661 474.399C197.269 475.178 196.798 475.883 196.247 476.513Z" fill="#9CA5AC"/>
<rect x="0.5" y="420.5" width="289" height="67" rx="3.5" stroke="#344351"/>
<path d="M144.646 294.354C144.842 294.549 145.158 294.549 145.354 294.354L148.536 291.172C148.731 290.976 148.731 290.66 148.536 290.464C148.34 290.269 148.024 290.269 147.828 290.464L145 293.293L142.172 290.464C141.976 290.269 141.66 290.269 141.464 290.464C141.269 290.66 141.269 290.976 141.464 291.172L144.646 294.354ZM144.5 255L144.5 256.393L145.5 256.393L145.5 255L144.5 255ZM144.5 259.179L144.5 261.964L145.5 261.964L145.5 259.179L144.5 259.179ZM144.5 264.75L144.5 267.536L145.5 267.536L145.5 264.75L144.5 264.75ZM144.5 270.321L144.5 273.107L145.5 273.107L145.5 270.321L144.5 270.321ZM144.5 275.893L144.5 278.679L145.5 278.679L145.5 275.893L144.5 275.893ZM144.5 281.464L144.5 284.25L145.5 284.25L145.5 281.464L144.5 281.464ZM144.5 287.036L144.5 289.821L145.5 289.821L145.5 287.036L144.5 287.036ZM144.5 292.607L144.5 294L145.5 294L145.5 292.607L144.5 292.607Z" fill="#F88C28"/>
<path d="M155.987 279V271.44H162V279H160.971V272.427H157.016V279H155.987ZM167.163 279.21C166.426 279.21 165.787 279.047 165.245 278.72C164.709 278.393 164.291 277.934 163.992 277.341C163.694 276.748 163.544 276.053 163.544 275.255C163.544 274.429 163.691 273.715 163.985 273.113C164.279 272.511 164.692 272.047 165.224 271.72C165.761 271.393 166.393 271.23 167.121 271.23C167.868 271.23 168.505 271.403 169.032 271.748C169.56 272.089 169.959 272.579 170.229 273.218C170.5 273.857 170.624 274.62 170.6 275.507H169.55V275.143C169.532 274.163 169.319 273.423 168.913 272.924C168.512 272.425 167.924 272.175 167.149 272.175C166.337 272.175 165.714 272.439 165.28 272.966C164.851 273.493 164.636 274.245 164.636 275.22C164.636 276.172 164.851 276.912 165.28 277.439C165.714 277.962 166.328 278.223 167.121 278.223C167.663 278.223 168.134 278.099 168.535 277.852C168.941 277.6 169.261 277.238 169.494 276.767L170.453 277.138C170.155 277.796 169.714 278.307 169.13 278.671C168.552 279.03 167.896 279.21 167.163 279.21ZM164.272 275.507V274.646H170.047V275.507H164.272ZM175.549 279.21C174.853 279.21 174.265 279.035 173.785 278.685C173.304 278.33 172.94 277.852 172.693 277.25C172.445 276.643 172.322 275.964 172.322 275.213C172.322 274.448 172.445 273.766 172.693 273.169C172.945 272.567 173.313 272.093 173.799 271.748C174.284 271.403 174.881 271.23 175.591 271.23C176.281 271.23 176.874 271.405 177.369 271.755C177.863 272.105 178.241 272.581 178.503 273.183C178.769 273.785 178.902 274.462 178.902 275.213C178.902 275.969 178.769 276.648 178.503 277.25C178.237 277.852 177.854 278.33 177.355 278.685C176.855 279.035 176.253 279.21 175.549 279.21ZM172.147 282.36V271.44H173.071V277.131H173.183V282.36H172.147ZM175.444 278.251C175.971 278.251 176.41 278.118 176.76 277.852C177.11 277.586 177.371 277.224 177.544 276.767C177.721 276.305 177.81 275.787 177.81 275.213C177.81 274.644 177.723 274.13 177.551 273.673C177.378 273.216 177.114 272.854 176.76 272.588C176.41 272.322 175.964 272.189 175.423 272.189C174.895 272.189 174.457 272.317 174.107 272.574C173.761 272.831 173.502 273.188 173.33 273.645C173.157 274.098 173.071 274.62 173.071 275.213C173.071 275.796 173.157 276.319 173.33 276.781C173.502 277.238 173.764 277.598 174.114 277.859C174.464 278.12 174.907 278.251 175.444 278.251ZM183.638 279.21C182.901 279.21 182.261 279.047 181.72 278.72C181.183 278.393 180.766 277.934 180.467 277.341C180.168 276.748 180.019 276.053 180.019 275.255C180.019 274.429 180.166 273.715 180.46 273.113C180.754 272.511 181.167 272.047 181.699 271.72C182.236 271.393 182.868 271.23 183.596 271.23C184.343 271.23 184.98 271.403 185.507 271.748C186.034 272.089 186.433 272.579 186.704 273.218C186.975 273.857 187.098 274.62 187.075 275.507H186.025V275.143C186.006 274.163 185.794 273.423 185.388 272.924C184.987 272.425 184.399 272.175 183.624 272.175C182.812 272.175 182.189 272.439 181.755 272.966C181.326 273.493 181.111 274.245 181.111 275.22C181.111 276.172 181.326 276.912 181.755 277.439C182.189 277.962 182.803 278.223 183.596 278.223C184.137 278.223 184.609 278.099 185.01 277.852C185.416 277.6 185.736 277.238 185.969 276.767L186.928 277.138C186.629 277.796 186.188 278.307 185.605 278.671C185.026 279.03 184.371 279.21 183.638 279.21ZM180.747 275.507V274.646H186.522V275.507H180.747ZM190.655 279.21C190.085 279.21 189.607 279.107 189.22 278.902C188.837 278.697 188.55 278.424 188.359 278.083C188.167 277.742 188.072 277.371 188.072 276.97C188.072 276.559 188.153 276.209 188.317 275.92C188.485 275.626 188.711 275.386 188.996 275.199C189.285 275.012 189.619 274.87 189.997 274.772C190.379 274.679 190.802 274.597 191.264 274.527C191.73 274.452 192.185 274.389 192.629 274.338C193.077 274.282 193.469 274.228 193.805 274.177L193.441 274.401C193.455 273.654 193.31 273.101 193.007 272.742C192.703 272.383 192.176 272.203 191.425 272.203C190.907 272.203 190.468 272.32 190.109 272.553C189.754 272.786 189.504 273.155 189.36 273.659L188.359 273.365C188.531 272.688 188.879 272.163 189.402 271.79C189.924 271.417 190.603 271.23 191.439 271.23C192.129 271.23 192.715 271.361 193.196 271.622C193.681 271.879 194.024 272.252 194.225 272.742C194.318 272.961 194.379 273.206 194.407 273.477C194.435 273.748 194.449 274.023 194.449 274.303V279H193.532V277.103L193.798 277.215C193.541 277.864 193.142 278.358 192.601 278.699C192.059 279.04 191.411 279.21 190.655 279.21ZM190.774 278.321C191.254 278.321 191.674 278.235 192.034 278.062C192.393 277.889 192.682 277.654 192.902 277.355C193.121 277.052 193.263 276.711 193.329 276.333C193.385 276.09 193.415 275.824 193.42 275.535C193.424 275.241 193.427 275.022 193.427 274.877L193.819 275.08C193.469 275.127 193.088 275.173 192.678 275.22C192.272 275.267 191.87 275.32 191.474 275.381C191.082 275.442 190.727 275.514 190.41 275.598C190.195 275.659 189.987 275.745 189.787 275.857C189.586 275.964 189.42 276.109 189.29 276.291C189.164 276.473 189.101 276.699 189.101 276.97C189.101 277.189 189.154 277.402 189.262 277.607C189.374 277.812 189.551 277.983 189.794 278.118C190.041 278.253 190.368 278.321 190.774 278.321ZM195.711 280.68V278.118C196.14 278.118 196.448 277.98 196.635 277.705C196.822 277.425 196.973 276.979 197.09 276.368C197.169 275.971 197.235 275.544 197.286 275.087C197.337 274.63 197.382 274.107 197.419 273.519C197.456 272.926 197.491 272.233 197.524 271.44H202.522V278.118H203.25V280.68H202.256V279H196.698V280.68H195.711ZM197.454 278.118H201.5V272.322H198.476C198.462 272.677 198.441 273.052 198.413 273.449C198.39 273.846 198.359 274.242 198.322 274.639C198.289 275.036 198.25 275.409 198.203 275.759C198.161 276.104 198.11 276.408 198.049 276.669C197.979 277.005 197.902 277.292 197.818 277.53C197.739 277.768 197.617 277.964 197.454 278.118ZM208.047 279.21C207.352 279.21 206.764 279.035 206.283 278.685C205.802 278.33 205.438 277.852 205.191 277.25C204.944 276.643 204.82 275.964 204.82 275.213C204.82 274.448 204.944 273.766 205.191 273.169C205.443 272.567 205.812 272.093 206.297 271.748C206.782 271.403 207.38 271.23 208.089 271.23C208.78 271.23 209.372 271.405 209.867 271.755C210.362 272.105 210.74 272.581 211.001 273.183C211.267 273.785 211.4 274.462 211.4 275.213C211.4 275.969 211.267 276.648 211.001 277.25C210.735 277.852 210.352 278.33 209.853 278.685C209.354 279.035 208.752 279.21 208.047 279.21ZM204.645 282.36V271.44H205.569V277.131H205.681V282.36H204.645ZM207.942 278.251C208.469 278.251 208.908 278.118 209.258 277.852C209.608 277.586 209.869 277.224 210.042 276.767C210.219 276.305 210.308 275.787 210.308 275.213C210.308 274.644 210.222 274.13 210.049 273.673C209.876 273.216 209.613 272.854 209.258 272.588C208.908 272.322 208.462 272.189 207.921 272.189C207.394 272.189 206.955 272.317 206.605 272.574C206.26 272.831 206.001 273.188 205.828 273.645C205.655 274.098 205.569 274.62 205.569 275.213C205.569 275.796 205.655 276.319 205.828 276.781C206.001 277.238 206.262 277.598 206.612 277.859C206.962 278.12 207.405 278.251 207.942 278.251ZM216.136 279.21C215.399 279.21 214.759 279.047 214.218 278.72C213.681 278.393 213.264 277.934 212.965 277.341C212.666 276.748 212.517 276.053 212.517 275.255C212.517 274.429 212.664 273.715 212.958 273.113C213.252 272.511 213.665 272.047 214.197 271.72C214.734 271.393 215.366 271.23 216.094 271.23C216.841 271.23 217.478 271.403 218.005 271.748C218.532 272.089 218.931 272.579 219.202 273.218C219.473 273.857 219.596 274.62 219.573 275.507H218.523V275.143C218.504 274.163 218.292 273.423 217.886 272.924C217.485 272.425 216.897 272.175 216.122 272.175C215.31 272.175 214.687 272.439 214.253 272.966C213.824 273.493 213.609 274.245 213.609 275.22C213.609 276.172 213.824 276.912 214.253 277.439C214.687 277.962 215.301 278.223 216.094 278.223C216.635 278.223 217.107 278.099 217.508 277.852C217.914 277.6 218.234 277.238 218.467 276.767L219.426 277.138C219.127 277.796 218.686 278.307 218.103 278.671C217.524 279.03 216.869 279.21 216.136 279.21ZM213.245 275.507V274.646H219.02V275.507H213.245ZM224.262 279.21C223.502 279.21 222.858 279.04 222.33 278.699C221.803 278.358 221.402 277.889 221.126 277.292C220.856 276.69 220.716 275.999 220.706 275.22C220.716 274.427 220.86 273.731 221.14 273.134C221.42 272.532 221.824 272.065 222.351 271.734C222.879 271.398 223.518 271.23 224.269 271.23C225.035 271.23 225.7 271.417 226.264 271.79C226.834 272.163 227.223 272.674 227.433 273.323L226.425 273.645C226.248 273.192 225.966 272.842 225.578 272.595C225.196 272.343 224.757 272.217 224.262 272.217C223.707 272.217 223.247 272.345 222.883 272.602C222.519 272.854 222.249 273.206 222.071 273.659C221.894 274.112 221.803 274.632 221.798 275.22C221.808 276.125 222.018 276.853 222.428 277.404C222.839 277.95 223.45 278.223 224.262 278.223C224.776 278.223 225.212 278.106 225.571 277.873C225.935 277.635 226.211 277.29 226.397 276.837L227.433 277.145C227.153 277.817 226.743 278.33 226.201 278.685C225.66 279.035 225.014 279.21 224.262 279.21ZM231 279.21C230.431 279.21 229.953 279.107 229.565 278.902C229.183 278.697 228.896 278.424 228.704 278.083C228.513 277.742 228.417 277.371 228.417 276.97C228.417 276.559 228.499 276.209 228.662 275.92C228.83 275.626 229.057 275.386 229.341 275.199C229.631 275.012 229.964 274.87 230.342 274.772C230.725 274.679 231.147 274.597 231.609 274.527C232.076 274.452 232.531 274.389 232.974 274.338C233.422 274.282 233.814 274.228 234.15 274.177L233.786 274.401C233.8 273.654 233.656 273.101 233.352 272.742C233.049 272.383 232.522 272.203 231.77 272.203C231.252 272.203 230.814 272.32 230.454 272.553C230.1 272.786 229.85 273.155 229.705 273.659L228.704 273.365C228.877 272.688 229.225 272.163 229.747 271.79C230.27 271.417 230.949 271.23 231.784 271.23C232.475 271.23 233.061 271.361 233.541 271.622C234.027 271.879 234.37 272.252 234.57 272.742C234.664 272.961 234.724 273.206 234.752 273.477C234.78 273.748 234.794 274.023 234.794 274.303V279H233.877V277.103L234.143 277.215C233.887 277.864 233.488 278.358 232.946 278.699C232.405 279.04 231.756 279.21 231 279.21ZM231.119 278.321C231.6 278.321 232.02 278.235 232.379 278.062C232.739 277.889 233.028 277.654 233.247 277.355C233.467 277.052 233.609 276.711 233.674 276.333C233.73 276.09 233.761 275.824 233.765 275.535C233.77 275.241 233.772 275.022 233.772 274.877L234.164 275.08C233.814 275.127 233.434 275.173 233.023 275.22C232.617 275.267 232.216 275.32 231.819 275.381C231.427 275.442 231.073 275.514 230.755 275.598C230.541 275.659 230.333 275.745 230.132 275.857C229.932 275.964 229.766 276.109 229.635 276.291C229.509 276.473 229.446 276.699 229.446 276.97C229.446 277.189 229.5 277.402 229.607 277.607C229.719 277.812 229.897 277.983 230.139 278.118C230.387 278.253 230.713 278.321 231.119 278.321ZM243.113 280.309V279H236.61V271.44H237.639V278.013H241.594V271.44H242.623V278.048H244.142V280.309H243.113ZM251.263 271.44V279H250.262V273.113L246.118 279H245.25V271.44H246.251V277.278L250.402 271.44H251.263ZM257.967 279V276.151H256.203C255.998 276.151 255.785 276.144 255.566 276.13C255.351 276.111 255.151 276.086 254.964 276.053C254.432 275.95 253.979 275.717 253.606 275.353C253.237 274.984 253.053 274.476 253.053 273.827C253.053 273.192 253.226 272.684 253.571 272.301C253.916 271.914 254.334 271.662 254.824 271.545C255.048 271.494 255.274 271.463 255.503 271.454C255.736 271.445 255.937 271.44 256.105 271.44H258.996L259.003 279H257.967ZM252.808 279L254.915 275.829H256.056L253.935 279H252.808ZM256.147 275.269H257.967V272.322H256.147C256.035 272.322 255.879 272.327 255.678 272.336C255.477 272.345 255.288 272.376 255.111 272.427C254.957 272.474 254.803 272.555 254.649 272.672C254.5 272.784 254.374 272.936 254.271 273.127C254.168 273.314 254.117 273.542 254.117 273.813C254.117 274.191 254.22 274.494 254.425 274.723C254.635 274.947 254.896 275.101 255.209 275.185C255.377 275.222 255.545 275.246 255.713 275.255C255.881 275.264 256.026 275.269 256.147 275.269Z" fill="#9CA5AC"/>
<rect x="0.5" y="299.5" width="289" height="91" rx="3.5" fill="white" stroke="#344351"/>
<g clip-path="url(#clip0_7265_46102)">
<path d="M203.704 353.183V359.663H197.522V353.183H193.227V370.078H197.522V363.375H203.704V370.078H208V353.183H203.704Z" fill="#2B8FEB"/>
<path d="M184.61 353.245C183.268 353.007 181.889 353.114 180.596 353.557C178.706 354.214 177.114 355.564 176.116 357.353C175.119 359.143 174.787 361.248 175.181 363.274C175.576 365.299 176.67 367.106 178.258 368.354C179.847 369.602 181.82 370.205 183.807 370.051C185.794 369.896 187.659 368.994 189.05 367.515C190.441 366.035 191.263 364.079 191.362 362.015C191.46 359.951 190.829 357.921 189.585 356.306C188.342 354.691 186.573 353.602 184.61 353.245ZM184.289 366.102C183.156 366.372 181.967 366.175 180.972 365.553C179.976 364.932 179.252 363.933 178.953 362.769C178.654 361.604 178.802 360.365 179.367 359.312C179.932 358.258 180.869 357.474 181.981 357.123C182.771 356.898 183.606 356.898 184.396 357.123C185.363 357.387 186.218 357.978 186.823 358.803C187.429 359.628 187.752 360.64 187.739 361.677C187.727 362.714 187.381 363.716 186.756 364.526C186.13 365.335 185.262 365.904 184.289 366.143V366.102Z" fill="#2B8FEB"/>
<path d="M145.327 352.363V356.887C146.343 357.4 147.162 358.256 147.649 359.313C148.136 360.371 148.263 361.569 148.009 362.711C147.755 363.854 147.136 364.873 146.251 365.603C145.366 366.333 144.269 366.73 143.139 366.73C142.009 366.73 140.912 366.333 140.027 365.603C139.142 364.873 138.523 363.854 138.269 362.711C138.015 361.569 138.142 360.371 138.629 359.313C139.116 358.256 139.935 357.4 140.951 356.887V352.363C138.788 352.918 136.896 354.274 135.631 356.176C134.367 358.077 133.817 360.394 134.086 362.687C134.356 364.98 135.425 367.092 137.093 368.624C138.761 370.156 140.911 371.001 143.139 371.001C145.367 371.001 147.518 370.156 149.185 368.624C150.853 367.092 151.922 364.98 152.192 362.687C152.461 360.394 151.911 358.077 150.647 356.176C149.382 354.274 147.49 352.918 145.327 352.363Z" fill="#2B8FEB"/>
<path d="M140.364 362.035C140.458 362.568 140.69 363.065 141.034 363.472C141.378 363.88 141.823 364.183 142.32 364.35C142.817 364.517 143.348 364.542 143.857 364.421C144.367 364.301 144.835 364.04 145.213 363.666C145.591 363.292 145.865 362.819 146.004 362.297C146.144 361.775 146.146 361.223 146.008 360.7C145.87 360.178 145.599 359.704 145.222 359.328C144.846 358.952 144.379 358.689 143.87 358.566V352.079H142.532V358.538C141.809 358.717 141.181 359.177 140.777 359.823C140.372 360.468 140.222 361.25 140.357 362.007L140.364 362.035Z" fill="#2B8FEB"/>
<path d="M165.459 354.438V353.183H161.351V354.438C160.997 354.494 160.682 354.556 160.307 354.647C156.46 355.611 153.684 358.324 153.684 361.516C153.684 364.985 156.969 367.899 161.351 368.6V370.078H165.459V368.6C169.842 367.906 173.127 364.999 173.127 361.516C173.127 358.033 169.842 355.146 165.459 354.438ZM158.099 361.516C158.099 359.864 159.438 358.456 161.371 357.852V365.186C159.431 364.582 158.079 363.167 158.079 361.516H158.099ZM165.459 365.186V357.852C167.38 358.456 168.731 359.864 168.731 361.516C168.731 363.167 167.38 364.582 165.459 365.186Z" fill="#2B8FEB"/>
<path d="M92.297 347H82C82 348.832 83.2712 349.845 84.9172 350.4V366.358C83.2645 366.872 82 367.912 82 370.077H91.4808C94.2106 370.077 96.1108 369.73 97.188 369.023C98.8607 367.919 99.2688 366.247 99.2688 364.027V353.369C99.2688 349.082 97.2683 347 92.297 347ZM94.4247 363.361C94.4247 365.116 93.4077 365.997 91.3537 365.997C90.7649 365.997 90.0155 365.963 89.2528 365.949V351.059C90.1025 351.094 90.8652 351.059 91.4139 351.059C93.4702 351.059 94.4961 351.984 94.4916 353.834C94.4916 355.708 94.4247 361.571 94.4247 363.361Z" fill="#2B8FEB"/>
<path d="M109.257 353.279C103.871 353.279 101.402 357.782 101.402 361.862C101.402 366.892 104.42 370.049 109.685 370.049C111.602 370.094 113.509 369.75 115.299 369.036V365.644C113.702 366.127 112.045 366.361 110.381 366.337C108.133 366.337 106.133 365.352 106.006 363.278H116.015C116.124 362.624 116.177 361.963 116.175 361.3C116.175 357.324 114.275 353.279 109.257 353.279ZM105.992 359.857C106.119 358.539 106.942 356.596 108.976 356.596C111.198 356.596 111.706 358.636 111.706 359.857H105.992Z" fill="#2B8FEB"/>
<path d="M124.632 353.487C122.624 354.049 119.446 355.93 119.446 359.586V364.617C119.446 366.913 118.938 366.906 118.068 367.787C117.787 368.064 117.567 368.401 117.424 368.775C117.28 369.149 117.217 369.551 117.238 369.952H121.561C123.16 369.952 123.983 367.565 123.983 364.63V359.947C123.981 359.155 124.282 358.394 124.819 357.831C125.462 357.207 126.29 356.828 127.167 356.755H127.368V369.938H131.998V353.286H125.642C125.298 353.308 124.959 353.376 124.632 353.487Z" fill="#2B8FEB"/>
</g>
<path d="M112.09 335V325.907H108.569V324.92H116.64V325.907H113.119V335H112.09ZM119.977 335.21C119.24 335.21 118.6 335.047 118.059 334.72C117.522 334.393 117.105 333.934 116.806 333.341C116.507 332.748 116.358 332.053 116.358 331.255C116.358 330.429 116.505 329.715 116.799 329.113C117.093 328.511 117.506 328.047 118.038 327.72C118.575 327.393 119.207 327.23 119.935 327.23C120.682 327.23 121.319 327.403 121.846 327.748C122.373 328.089 122.772 328.579 123.043 329.218C123.314 329.857 123.437 330.62 123.414 331.507H122.364V331.143C122.345 330.163 122.133 329.423 121.727 328.924C121.326 328.425 120.738 328.175 119.963 328.175C119.151 328.175 118.528 328.439 118.094 328.966C117.665 329.493 117.45 330.245 117.45 331.22C117.45 332.172 117.665 332.912 118.094 333.439C118.528 333.962 119.142 334.223 119.935 334.223C120.476 334.223 120.948 334.099 121.349 333.852C121.755 333.6 122.075 333.238 122.308 332.767L123.267 333.138C122.968 333.796 122.527 334.307 121.944 334.671C121.365 335.03 120.71 335.21 119.977 335.21ZM117.086 331.507V330.646H122.861V331.507H117.086ZM124.267 335V334.097C124.547 334.148 124.76 334.137 124.904 334.062C125.054 333.983 125.163 333.852 125.233 333.67C125.303 333.483 125.362 333.252 125.408 332.977C125.483 332.52 125.551 332.016 125.611 331.465C125.672 330.914 125.726 330.308 125.772 329.645C125.824 328.978 125.875 328.243 125.926 327.44H131.064V335H130.042V328.427H126.878C126.846 328.922 126.808 329.414 126.766 329.904C126.724 330.394 126.68 330.865 126.633 331.318C126.591 331.766 126.545 332.179 126.493 332.557C126.442 332.935 126.388 333.262 126.332 333.537C126.248 333.952 126.136 334.284 125.996 334.531C125.861 334.778 125.658 334.942 125.387 335.021C125.117 335.1 124.743 335.093 124.267 335ZM136.219 335.21C135.482 335.21 134.842 335.047 134.301 334.72C133.764 334.393 133.347 333.934 133.048 333.341C132.749 332.748 132.6 332.053 132.6 331.255C132.6 330.429 132.747 329.715 133.041 329.113C133.335 328.511 133.748 328.047 134.28 327.72C134.817 327.393 135.449 327.23 136.177 327.23C136.924 327.23 137.561 327.403 138.088 327.748C138.615 328.089 139.014 328.579 139.285 329.218C139.556 329.857 139.679 330.62 139.656 331.507H138.606V331.143C138.587 330.163 138.375 329.423 137.969 328.924C137.568 328.425 136.98 328.175 136.205 328.175C135.393 328.175 134.77 328.439 134.336 328.966C133.907 329.493 133.692 330.245 133.692 331.22C133.692 332.172 133.907 332.912 134.336 333.439C134.77 333.962 135.384 334.223 136.177 334.223C136.718 334.223 137.19 334.099 137.591 333.852C137.997 333.6 138.317 333.238 138.55 332.767L139.509 333.138C139.21 333.796 138.769 334.307 138.186 334.671C137.607 335.03 136.952 335.21 136.219 335.21ZM133.328 331.507V330.646H139.103V331.507H133.328ZM144.793 338.15V335.147C144.056 335.264 143.384 335.184 142.777 334.909C142.171 334.629 141.688 334.176 141.328 333.551C140.969 332.926 140.789 332.151 140.789 331.227C140.789 330.303 140.969 329.528 141.328 328.903C141.688 328.273 142.171 327.818 142.777 327.538C143.384 327.258 144.056 327.176 144.793 327.293V324.976H145.745V327.293C146.483 327.176 147.155 327.258 147.761 327.538C148.368 327.818 148.851 328.273 149.21 328.903C149.57 329.528 149.749 330.303 149.749 331.227C149.749 332.151 149.57 332.926 149.21 333.551C148.851 334.176 148.368 334.629 147.761 334.909C147.155 335.184 146.483 335.264 145.745 335.147V338.15H144.793ZM144.793 334.188V328.259C144.415 328.194 144.051 328.205 143.701 328.294C143.351 328.378 143.036 328.544 142.756 328.791C142.476 329.034 142.255 329.358 142.091 329.764C141.933 330.165 141.853 330.653 141.853 331.227C141.853 331.801 141.935 332.291 142.098 332.697C142.262 333.098 142.483 333.42 142.763 333.663C143.043 333.906 143.358 334.069 143.708 334.153C144.058 334.237 144.42 334.249 144.793 334.188ZM145.745 334.188C146.119 334.249 146.48 334.237 146.83 334.153C147.18 334.069 147.495 333.908 147.775 333.67C148.055 333.427 148.277 333.105 148.44 332.704C148.604 332.298 148.685 331.806 148.685 331.227C148.685 330.648 148.604 330.158 148.44 329.757C148.282 329.351 148.062 329.027 147.782 328.784C147.502 328.541 147.187 328.378 146.837 328.294C146.487 328.205 146.123 328.194 145.745 328.259V334.188ZM154.443 335.21C153.691 335.21 153.05 335.04 152.518 334.699C151.986 334.358 151.577 333.887 151.293 333.285C151.008 332.683 150.866 331.992 150.866 331.213C150.866 330.42 151.01 329.724 151.3 329.127C151.589 328.53 152 328.065 152.532 327.734C153.068 327.398 153.705 327.23 154.443 327.23C155.199 327.23 155.843 327.4 156.375 327.741C156.911 328.077 157.32 328.546 157.6 329.148C157.884 329.745 158.027 330.434 158.027 331.213C158.027 332.006 157.884 332.704 157.6 333.306C157.315 333.903 156.904 334.37 156.368 334.706C155.831 335.042 155.189 335.21 154.443 335.21ZM154.443 334.223C155.283 334.223 155.908 333.945 156.319 333.39C156.729 332.83 156.935 332.104 156.935 331.213C156.935 330.298 156.727 329.57 156.312 329.029C155.901 328.488 155.278 328.217 154.443 328.217C153.878 328.217 153.411 328.345 153.043 328.602C152.679 328.854 152.406 329.206 152.224 329.659C152.046 330.107 151.958 330.625 151.958 331.213C151.958 332.123 152.168 332.853 152.588 333.404C153.008 333.95 153.626 334.223 154.443 334.223ZM159.564 335V327.44H160.593V330.723H164.856V327.44H165.885V335H164.856V331.71H160.593V335H159.564ZM173.848 327.44V335H172.847V329.113L168.703 335H167.835V327.44H168.836V333.278L172.987 327.44H173.848ZM180.552 335V332.151H178.788C178.583 332.151 178.37 332.144 178.151 332.13C177.936 332.111 177.736 332.086 177.549 332.053C177.017 331.95 176.564 331.717 176.191 331.353C175.822 330.984 175.638 330.476 175.638 329.827C175.638 329.192 175.811 328.684 176.156 328.301C176.501 327.914 176.919 327.662 177.409 327.545C177.633 327.494 177.859 327.463 178.088 327.454C178.321 327.445 178.522 327.44 178.69 327.44H181.581L181.588 335H180.552ZM175.393 335L177.5 331.829H178.641L176.52 335H175.393ZM178.732 331.269H180.552V328.322H178.732C178.62 328.322 178.464 328.327 178.263 328.336C178.062 328.345 177.873 328.376 177.696 328.427C177.542 328.474 177.388 328.555 177.234 328.672C177.085 328.784 176.959 328.936 176.856 329.127C176.753 329.314 176.702 329.542 176.702 329.813C176.702 330.191 176.805 330.494 177.01 330.723C177.22 330.947 177.481 331.101 177.794 331.185C177.962 331.222 178.13 331.246 178.298 331.255C178.466 331.264 178.611 331.269 178.732 331.269Z" fill="#344351"/>
<path d="M145 420L145 391" stroke="#F88C28" stroke-dasharray="3 3"/>
<defs>
<clipPath id="clip0_7265_46102">
<rect width="126" height="24" fill="white" transform="translate(82 347)"/>
</clipPath>
</defs>
</svg>
