<svg width="1110" height="143" viewBox="0 0 1110 143" fill="none" xmlns="http://www.w3.org/2000/svg">
<path d="M241 39C241 36.7909 242.791 35 245 35H439C441.209 35 443 36.7909 443 39V101H241V39Z" fill="white"/>
<path d="M258.648 66V53.04H263.652C264.378 53.04 265.011 53.19 265.551 53.49C266.091 53.79 266.511 54.195 266.811 54.705C267.111 55.209 267.261 55.767 267.261 56.379C267.261 57.075 267.075 57.696 266.703 58.242C266.331 58.782 265.833 59.157 265.209 59.367L265.191 58.926C266.031 59.166 266.691 59.586 267.171 60.186C267.651 60.786 267.891 61.512 267.891 62.364C267.891 63.114 267.732 63.762 267.414 64.308C267.096 64.848 266.649 65.265 266.073 65.559C265.497 65.853 264.828 66 264.066 66H258.648ZM259.98 64.731H263.742C264.27 64.731 264.744 64.638 265.164 64.452C265.584 64.26 265.914 63.99 266.154 63.642C266.4 63.294 266.523 62.874 266.523 62.382C266.523 61.902 266.412 61.47 266.19 61.086C265.968 60.702 265.665 60.396 265.281 60.168C264.903 59.934 264.471 59.817 263.985 59.817H259.98V64.731ZM259.98 58.566H263.643C264.057 58.566 264.435 58.473 264.777 58.287C265.119 58.095 265.389 57.834 265.587 57.504C265.791 57.174 265.893 56.793 265.893 56.361C265.893 55.749 265.68 55.251 265.254 54.867C264.834 54.483 264.297 54.291 263.643 54.291H259.98V58.566ZM272.468 66.27C271.736 66.27 271.121 66.138 270.623 65.874C270.131 65.61 269.762 65.259 269.516 64.821C269.27 64.383 269.147 63.906 269.147 63.39C269.147 62.862 269.252 62.412 269.462 62.04C269.678 61.662 269.969 61.353 270.335 61.113C270.707 60.873 271.136 60.69 271.622 60.564C272.114 60.444 272.657 60.339 273.251 60.249C273.851 60.153 274.436 60.072 275.006 60.006C275.582 59.934 276.086 59.865 276.518 59.799L276.05 60.087C276.068 59.127 275.882 58.416 275.492 57.954C275.102 57.492 274.424 57.261 273.458 57.261C272.792 57.261 272.228 57.411 271.766 57.711C271.31 58.011 270.989 58.485 270.803 59.133L269.516 58.755C269.738 57.885 270.185 57.21 270.857 56.73C271.529 56.25 272.402 56.01 273.476 56.01C274.364 56.01 275.117 56.178 275.735 56.514C276.359 56.844 276.8 57.324 277.058 57.954C277.178 58.236 277.256 58.551 277.292 58.899C277.328 59.247 277.346 59.601 277.346 59.961V66H276.167V63.561L276.509 63.705C276.179 64.539 275.666 65.175 274.97 65.613C274.274 66.051 273.44 66.27 272.468 66.27ZM272.621 65.127C273.239 65.127 273.779 65.016 274.241 64.794C274.703 64.572 275.075 64.269 275.357 63.885C275.639 63.495 275.822 63.057 275.906 62.571C275.978 62.259 276.017 61.917 276.023 61.545C276.029 61.167 276.032 60.885 276.032 60.699L276.536 60.96C276.086 61.02 275.597 61.08 275.069 61.14C274.547 61.2 274.031 61.269 273.521 61.347C273.017 61.425 272.561 61.518 272.153 61.626C271.877 61.704 271.61 61.815 271.352 61.959C271.094 62.097 270.881 62.283 270.713 62.517C270.551 62.751 270.47 63.042 270.47 63.39C270.47 63.672 270.539 63.945 270.677 64.209C270.821 64.473 271.049 64.692 271.361 64.866C271.679 65.04 272.099 65.127 272.621 65.127ZM279.68 66V56.28H280.967V64.776H284.612V56.28H285.899V64.776H289.535V56.28H290.822V66H279.68ZM299.587 66V57.504H296.14V56.28H304.357V57.504H300.91V66H299.587ZM310.186 66.27C309.238 66.27 308.416 66.06 307.72 65.64C307.03 65.22 306.493 64.629 306.109 63.867C305.725 63.105 305.533 62.211 305.533 61.185C305.533 60.123 305.722 59.205 306.1 58.431C306.478 57.657 307.009 57.06 307.693 56.64C308.383 56.22 309.196 56.01 310.132 56.01C311.092 56.01 311.911 56.232 312.589 56.676C313.267 57.114 313.78 57.744 314.128 58.566C314.476 59.388 314.635 60.369 314.605 61.509H313.255V61.041C313.231 59.781 312.958 58.83 312.436 58.188C311.92 57.546 311.164 57.225 310.168 57.225C309.124 57.225 308.323 57.564 307.765 58.242C307.213 58.92 306.937 59.886 306.937 61.14C306.937 62.364 307.213 63.315 307.765 63.993C308.323 64.665 309.112 65.001 310.132 65.001C310.828 65.001 311.434 64.842 311.95 64.524C312.472 64.2 312.883 63.735 313.183 63.129L314.416 63.606C314.032 64.452 313.465 65.109 312.715 65.577C311.971 66.039 311.128 66.27 310.186 66.27ZM306.469 61.509V60.402H313.894V61.509H306.469ZM316.594 66L316.603 56.28H317.935V60.96L322.273 56.28H324.037L319.483 61.14L324.631 66H322.705L317.935 61.32V66H316.594ZM326.918 70.32L328.799 65.217L328.826 66.729L324.569 56.28H325.973L329.465 65.019H328.889L332.111 56.28H333.461L328.241 70.32H326.918ZM346.104 67.683V66H335.016V56.28H336.303V64.776H339.948V56.28H341.235V64.776H344.871V56.28H346.158V64.776H347.427V67.683H346.104ZM356.581 56.28V66H355.294V58.431L349.966 66H348.85V56.28H350.137V63.786L355.474 56.28H356.581ZM363.139 55.128C362.713 55.128 362.323 55.023 361.969 54.813C361.615 54.603 361.333 54.324 361.123 53.976C360.919 53.622 360.817 53.232 360.817 52.806H361.915C361.915 53.142 362.035 53.43 362.275 53.67C362.515 53.91 362.803 54.03 363.139 54.03C363.481 54.03 363.769 53.91 364.003 53.67C364.243 53.43 364.363 53.142 364.363 52.806H365.461C365.461 53.232 365.356 53.622 365.146 53.976C364.942 54.324 364.663 54.603 364.309 54.813C363.955 55.023 363.565 55.128 363.139 55.128ZM366.829 56.28V66H365.542V58.431L360.214 66H359.098V56.28H360.385V63.786L365.722 56.28H366.829ZM372.949 66V56.28H374.272V60.501H379.753V56.28H381.076V66H379.753V61.77H374.272V66H372.949ZM387.652 66.27C386.686 66.27 385.861 66.051 385.177 65.613C384.493 65.175 383.968 64.569 383.602 63.795C383.236 63.021 383.053 62.133 383.053 61.131C383.053 60.111 383.239 59.217 383.611 58.449C383.983 57.681 384.511 57.084 385.195 56.658C385.885 56.226 386.704 56.01 387.652 56.01C388.624 56.01 389.452 56.229 390.136 56.667C390.826 57.099 391.351 57.702 391.711 58.476C392.077 59.244 392.26 60.129 392.26 61.131C392.26 62.151 392.077 63.048 391.711 63.822C391.345 64.59 390.817 65.19 390.127 65.622C389.437 66.054 388.612 66.27 387.652 66.27ZM387.652 65.001C388.732 65.001 389.536 64.644 390.064 63.93C390.592 63.21 390.856 62.277 390.856 61.131C390.856 59.955 390.589 59.019 390.055 58.323C389.527 57.627 388.726 57.279 387.652 57.279C386.926 57.279 386.326 57.444 385.852 57.774C385.384 58.098 385.033 58.551 384.799 59.133C384.571 59.709 384.457 60.375 384.457 61.131C384.457 62.301 384.727 63.24 385.267 63.948C385.807 64.65 386.602 65.001 387.652 65.001ZM394.236 66V56.28H395.415L399.204 64.236L403.002 56.28H404.172V66H402.894V59.106L399.627 66H398.79L395.523 59.106V66H394.236ZM410.804 66.27C409.856 66.27 409.034 66.06 408.338 65.64C407.648 65.22 407.111 64.629 406.727 63.867C406.343 63.105 406.151 62.211 406.151 61.185C406.151 60.123 406.34 59.205 406.718 58.431C407.096 57.657 407.627 57.06 408.311 56.64C409.001 56.22 409.814 56.01 410.75 56.01C411.71 56.01 412.529 56.232 413.207 56.676C413.885 57.114 414.398 57.744 414.746 58.566C415.094 59.388 415.253 60.369 415.223 61.509H413.873V61.041C413.849 59.781 413.576 58.83 413.054 58.188C412.538 57.546 411.782 57.225 410.786 57.225C409.742 57.225 408.941 57.564 408.383 58.242C407.831 58.92 407.555 59.886 407.555 61.14C407.555 62.364 407.831 63.315 408.383 63.993C408.941 64.665 409.73 65.001 410.75 65.001C411.446 65.001 412.052 64.842 412.568 64.524C413.09 64.2 413.501 63.735 413.801 63.129L415.034 63.606C414.65 64.452 414.083 65.109 413.333 65.577C412.589 66.039 411.746 66.27 410.804 66.27ZM407.087 61.509V60.402H414.512V61.509H407.087ZM421.585 66.27C420.691 66.27 419.935 66.045 419.317 65.595C418.699 65.139 418.231 64.524 417.913 63.75C417.595 62.97 417.436 62.097 417.436 61.131C417.436 60.147 417.595 59.271 417.913 58.503C418.237 57.729 418.711 57.12 419.335 56.676C419.959 56.232 420.727 56.01 421.639 56.01C422.527 56.01 423.289 56.235 423.925 56.685C424.561 57.135 425.047 57.747 425.383 58.521C425.725 59.295 425.896 60.165 425.896 61.131C425.896 62.103 425.725 62.976 425.383 63.75C425.041 64.524 424.549 65.139 423.907 65.595C423.265 66.045 422.491 66.27 421.585 66.27ZM417.211 70.32V56.28H418.399V63.597H418.543V70.32H417.211ZM421.45 65.037C422.128 65.037 422.692 64.866 423.142 64.524C423.592 64.182 423.928 63.717 424.15 63.129C424.378 62.535 424.492 61.869 424.492 61.131C424.492 60.399 424.381 59.739 424.159 59.151C423.937 58.563 423.598 58.098 423.142 57.756C422.692 57.414 422.119 57.243 421.423 57.243C420.745 57.243 420.181 57.408 419.731 57.738C419.287 58.068 418.954 58.527 418.732 59.115C418.51 59.697 418.399 60.369 418.399 61.131C418.399 61.881 418.51 62.553 418.732 63.147C418.954 63.735 419.29 64.197 419.74 64.533C420.19 64.869 420.76 65.037 421.45 65.037Z" fill="#344351"/>
<path d="M294.871 88.513C294.321 87.883 293.847 87.1783 293.45 86.399C293.058 85.6243 292.755 84.81 292.54 83.956C292.33 83.102 292.228 82.2433 292.232 81.38C292.228 80.5167 292.33 79.658 292.54 78.804C292.755 77.9453 293.058 77.1287 293.45 76.354C293.847 75.5793 294.321 74.877 294.871 74.247L295.627 74.835C295.086 75.4837 294.633 76.165 294.269 76.879C293.905 77.5883 293.632 78.321 293.45 79.077C293.273 79.833 293.182 80.6007 293.177 81.38C293.182 82.15 293.275 82.9177 293.457 83.683C293.644 84.4437 293.917 85.1833 294.276 85.902C294.64 86.616 295.091 87.2857 295.627 87.911L294.871 88.513ZM296.093 87.68V85.118C296.522 85.118 296.83 84.9803 297.017 84.705C297.204 84.425 297.355 83.9793 297.472 83.368C297.551 82.9713 297.617 82.5443 297.668 82.087C297.719 81.6297 297.764 81.107 297.801 80.519C297.838 79.9263 297.873 79.2333 297.906 78.44H302.904V85.118H303.632V87.68H302.638V86H297.08V87.68H296.093ZM297.836 85.118H301.882V79.322H298.858C298.844 79.6767 298.823 80.0523 298.795 80.449C298.772 80.8457 298.741 81.2423 298.704 81.639C298.671 82.0357 298.632 82.409 298.585 82.759C298.543 83.1043 298.492 83.4077 298.431 83.669C298.361 84.005 298.284 84.292 298.2 84.53C298.121 84.768 297.999 84.964 297.836 85.118ZM304.334 86V85.097C304.614 85.1483 304.826 85.1367 304.971 85.062C305.12 84.9827 305.23 84.852 305.3 84.67C305.37 84.4833 305.428 84.2523 305.475 83.977C305.549 83.5197 305.617 83.0157 305.678 82.465C305.738 81.9143 305.792 81.3077 305.839 80.645C305.89 79.9777 305.941 79.2427 305.993 78.44H311.131V86H310.109V79.427H306.945C306.912 79.9217 306.875 80.414 306.833 80.904C306.791 81.394 306.746 81.8653 306.7 82.318C306.658 82.766 306.611 83.179 306.56 83.557C306.508 83.935 306.455 84.2617 306.399 84.537C306.315 84.9523 306.203 85.2837 306.063 85.531C305.927 85.7783 305.724 85.9417 305.454 86.021C305.183 86.1003 304.81 86.0933 304.334 86ZM317.825 86V83.151H316.061C315.856 83.151 315.644 83.144 315.424 83.13C315.21 83.1113 315.009 83.0857 314.822 83.053C314.29 82.9503 313.838 82.717 313.464 82.353C313.096 81.9843 312.911 81.4757 312.911 80.827C312.911 80.1923 313.084 79.6837 313.429 79.301C313.775 78.9137 314.192 78.6617 314.682 78.545C314.906 78.4937 315.133 78.4633 315.361 78.454C315.595 78.4447 315.795 78.44 315.963 78.44H318.854L318.861 86H317.825ZM312.666 86L314.773 82.829H315.914L313.793 86H312.666ZM316.005 82.269H317.825V79.322H316.005C315.893 79.322 315.737 79.3267 315.536 79.336C315.336 79.3453 315.147 79.3757 314.969 79.427C314.815 79.4737 314.661 79.5553 314.507 79.672C314.358 79.784 314.232 79.9357 314.129 80.127C314.027 80.3137 313.975 80.5423 313.975 80.813C313.975 81.191 314.078 81.4943 314.283 81.723C314.493 81.947 314.755 82.101 315.067 82.185C315.235 82.2223 315.403 82.2457 315.571 82.255C315.739 82.2643 315.884 82.269 316.005 82.269ZM323.62 86V78.44H326.735C326.894 78.44 327.085 78.4493 327.309 78.468C327.538 78.4867 327.75 78.5217 327.946 78.573C328.371 78.685 328.712 78.9137 328.968 79.259C329.23 79.6043 329.36 80.0197 329.36 80.505C329.36 80.7757 329.318 81.0183 329.234 81.233C329.155 81.443 329.041 81.625 328.891 81.779C328.821 81.8583 328.744 81.9283 328.66 81.989C328.576 82.045 328.495 82.0917 328.415 82.129C328.565 82.157 328.726 82.2223 328.898 82.325C329.169 82.4837 329.374 82.6983 329.514 82.969C329.654 83.235 329.724 83.5593 329.724 83.942C329.724 84.46 329.601 84.8823 329.353 85.209C329.106 85.5357 328.775 85.7597 328.359 85.881C328.173 85.9323 327.97 85.965 327.75 85.979C327.536 85.993 327.333 86 327.141 86H323.62ZM324.656 85.125H327.092C327.19 85.125 327.314 85.118 327.463 85.104C327.613 85.0853 327.746 85.062 327.862 85.034C328.138 84.964 328.338 84.824 328.464 84.614C328.595 84.3993 328.66 84.166 328.66 83.914C328.66 83.5827 328.562 83.312 328.366 83.102C328.175 82.8873 327.918 82.7567 327.596 82.71C327.489 82.6867 327.377 82.6727 327.26 82.668C327.144 82.6633 327.039 82.661 326.945 82.661H324.656V85.125ZM324.656 81.779H326.77C326.892 81.779 327.027 81.772 327.176 81.758C327.33 81.7393 327.463 81.709 327.575 81.667C327.818 81.583 327.995 81.4383 328.107 81.233C328.224 81.0277 328.282 80.8037 328.282 80.561C328.282 80.295 328.219 80.0617 328.093 79.861C327.972 79.6603 327.788 79.5203 327.54 79.441C327.372 79.3803 327.19 79.3453 326.994 79.336C326.803 79.3267 326.682 79.322 326.63 79.322H324.656V81.779ZM330.28 86L333.234 82.178L330.343 78.44H331.575L333.836 81.387L336.076 78.44H337.308L334.417 82.178L337.378 86H336.139L333.836 82.969L331.519 86H330.28ZM341.386 86.21C340.635 86.21 339.993 86.0397 339.461 85.699C338.929 85.3583 338.521 84.887 338.236 84.285C337.951 83.683 337.809 82.9923 337.809 82.213C337.809 81.4197 337.954 80.7243 338.243 80.127C338.532 79.5297 338.943 79.0653 339.475 78.734C340.012 78.398 340.649 78.23 341.386 78.23C342.142 78.23 342.786 78.4003 343.318 78.741C343.855 79.077 344.263 79.546 344.543 80.148C344.828 80.7453 344.97 81.4337 344.97 82.213C344.97 83.0063 344.828 83.704 344.543 84.306C344.258 84.9033 343.848 85.37 343.311 85.706C342.774 86.042 342.133 86.21 341.386 86.21ZM341.386 85.223C342.226 85.223 342.851 84.9453 343.262 84.39C343.673 83.83 343.878 83.1043 343.878 82.213C343.878 81.2983 343.67 80.5703 343.255 80.029C342.844 79.4877 342.221 79.217 341.386 79.217C340.821 79.217 340.355 79.3453 339.986 79.602C339.622 79.854 339.349 80.2063 339.167 80.659C338.99 81.107 338.901 81.625 338.901 82.213C338.901 83.123 339.111 83.8533 339.531 84.404C339.951 84.95 340.569 85.223 341.386 85.223ZM345.954 87.68V85.118C346.384 85.118 346.692 84.9803 346.878 84.705C347.065 84.425 347.217 83.9793 347.333 83.368C347.413 82.9713 347.478 82.5443 347.529 82.087C347.581 81.6297 347.625 81.107 347.662 80.519C347.7 79.9263 347.735 79.2333 347.767 78.44H352.765V85.118H353.493V87.68H352.499V86H346.941V87.68H345.954ZM347.697 85.118H351.743V79.322H348.719C348.705 79.6767 348.684 80.0523 348.656 80.449C348.633 80.8457 348.603 81.2423 348.565 81.639C348.533 82.0357 348.493 82.409 348.446 82.759C348.404 83.1043 348.353 83.4077 348.292 83.669C348.222 84.005 348.145 84.292 348.061 84.53C347.982 84.768 347.861 84.964 347.697 85.118ZM359.634 86V83.151H357.87C357.665 83.151 357.452 83.144 357.233 83.13C357.018 83.1113 356.818 83.0857 356.631 83.053C356.099 82.9503 355.646 82.717 355.273 82.353C354.904 81.9843 354.72 81.4757 354.72 80.827C354.72 80.1923 354.893 79.6837 355.238 79.301C355.583 78.9137 356.001 78.6617 356.491 78.545C356.715 78.4937 356.941 78.4633 357.17 78.454C357.403 78.4447 357.604 78.44 357.772 78.44H360.663L360.67 86H359.634ZM354.475 86L356.582 82.829H357.723L355.602 86H354.475ZM357.814 82.269H359.634V79.322H357.814C357.702 79.322 357.546 79.3267 357.345 79.336C357.144 79.3453 356.955 79.3757 356.778 79.427C356.624 79.4737 356.47 79.5553 356.316 79.672C356.167 79.784 356.041 79.9357 355.938 80.127C355.835 80.3137 355.784 80.5423 355.784 80.813C355.784 81.191 355.887 81.4943 356.092 81.723C356.302 81.947 356.563 82.101 356.876 82.185C357.044 82.2223 357.212 82.2457 357.38 82.255C357.548 82.2643 357.693 82.269 357.814 82.269ZM371.25 87.309V86H362.626V78.44H363.627V85.048H366.462V78.44H367.463V85.048H370.291V78.44H371.292V85.048H372.279V87.309H371.25ZM379.399 78.44V86H378.398V80.113L374.254 86H373.386V78.44H374.387V84.278L378.538 78.44H379.399ZM380.524 86L383.478 82.178L380.587 78.44H381.819L384.08 81.387L386.32 78.44H387.552L384.661 82.178L387.622 86H386.383L384.08 82.969L381.763 86H380.524ZM389.132 88.513L388.376 87.911C388.912 87.2857 389.36 86.616 389.72 85.902C390.084 85.1833 390.357 84.4437 390.539 83.683C390.725 82.9177 390.821 82.15 390.826 81.38C390.821 80.6007 390.728 79.833 390.546 79.077C390.368 78.321 390.098 77.5883 389.734 76.879C389.37 76.165 388.917 75.4837 388.376 74.835L389.132 74.247C389.682 74.877 390.154 75.5793 390.546 76.354C390.942 77.1287 391.246 77.9453 391.456 78.804C391.67 79.658 391.775 80.5167 391.771 81.38C391.775 82.2433 391.67 83.102 391.456 83.956C391.246 84.81 390.942 85.6243 390.546 86.399C390.154 87.1783 389.682 87.883 389.132 88.513Z" fill="#9CA5AC"/>
<rect x="241.5" y="33.5" width="201" height="67" rx="3.5" stroke="#344351"/>
<path d="M667 39C667 36.7909 668.791 35 671 35H865C867.209 35 869 36.7909 869 39V101H667V39Z" fill="white"/>
<path d="M681.325 66V53.04H686.329C687.055 53.04 687.688 53.19 688.228 53.49C688.768 53.79 689.188 54.195 689.488 54.705C689.788 55.209 689.938 55.767 689.938 56.379C689.938 57.075 689.752 57.696 689.38 58.242C689.008 58.782 688.51 59.157 687.886 59.367L687.868 58.926C688.708 59.166 689.368 59.586 689.848 60.186C690.328 60.786 690.568 61.512 690.568 62.364C690.568 63.114 690.409 63.762 690.091 64.308C689.773 64.848 689.326 65.265 688.75 65.559C688.174 65.853 687.505 66 686.743 66H681.325ZM682.657 64.731H686.419C686.947 64.731 687.421 64.638 687.841 64.452C688.261 64.26 688.591 63.99 688.831 63.642C689.077 63.294 689.2 62.874 689.2 62.382C689.2 61.902 689.089 61.47 688.867 61.086C688.645 60.702 688.342 60.396 687.958 60.168C687.58 59.934 687.148 59.817 686.662 59.817H682.657V64.731ZM682.657 58.566H686.32C686.734 58.566 687.112 58.473 687.454 58.287C687.796 58.095 688.066 57.834 688.264 57.504C688.468 57.174 688.57 56.793 688.57 56.361C688.57 55.749 688.357 55.251 687.931 54.867C687.511 54.483 686.974 54.291 686.32 54.291H682.657V58.566ZM695.145 66.27C694.413 66.27 693.798 66.138 693.3 65.874C692.808 65.61 692.439 65.259 692.193 64.821C691.947 64.383 691.824 63.906 691.824 63.39C691.824 62.862 691.929 62.412 692.139 62.04C692.355 61.662 692.646 61.353 693.012 61.113C693.384 60.873 693.813 60.69 694.299 60.564C694.791 60.444 695.334 60.339 695.928 60.249C696.528 60.153 697.113 60.072 697.683 60.006C698.259 59.934 698.763 59.865 699.195 59.799L698.727 60.087C698.745 59.127 698.559 58.416 698.169 57.954C697.779 57.492 697.101 57.261 696.135 57.261C695.469 57.261 694.905 57.411 694.443 57.711C693.987 58.011 693.666 58.485 693.48 59.133L692.193 58.755C692.415 57.885 692.862 57.21 693.534 56.73C694.206 56.25 695.079 56.01 696.153 56.01C697.041 56.01 697.794 56.178 698.412 56.514C699.036 56.844 699.477 57.324 699.735 57.954C699.855 58.236 699.933 58.551 699.969 58.899C700.005 59.247 700.023 59.601 700.023 59.961V66H698.844V63.561L699.186 63.705C698.856 64.539 698.343 65.175 697.647 65.613C696.951 66.051 696.117 66.27 695.145 66.27ZM695.298 65.127C695.916 65.127 696.456 65.016 696.918 64.794C697.38 64.572 697.752 64.269 698.034 63.885C698.316 63.495 698.499 63.057 698.583 62.571C698.655 62.259 698.694 61.917 698.7 61.545C698.706 61.167 698.709 60.885 698.709 60.699L699.213 60.96C698.763 61.02 698.274 61.08 697.746 61.14C697.224 61.2 696.708 61.269 696.198 61.347C695.694 61.425 695.238 61.518 694.83 61.626C694.554 61.704 694.287 61.815 694.029 61.959C693.771 62.097 693.558 62.283 693.39 62.517C693.228 62.751 693.147 63.042 693.147 63.39C693.147 63.672 693.216 63.945 693.354 64.209C693.498 64.473 693.726 64.692 694.038 64.866C694.356 65.04 694.776 65.127 695.298 65.127ZM702.357 66V56.28H703.644V64.776H707.289V56.28H708.576V64.776H712.212V56.28H713.499V66H702.357ZM719.619 66V56.28H720.942V60.501H726.423V56.28H727.746V66H726.423V61.77H720.942V66H719.619ZM734.322 66.27C733.356 66.27 732.531 66.051 731.847 65.613C731.163 65.175 730.638 64.569 730.272 63.795C729.906 63.021 729.723 62.133 729.723 61.131C729.723 60.111 729.909 59.217 730.281 58.449C730.653 57.681 731.181 57.084 731.865 56.658C732.555 56.226 733.374 56.01 734.322 56.01C735.294 56.01 736.122 56.229 736.806 56.667C737.496 57.099 738.021 57.702 738.381 58.476C738.747 59.244 738.93 60.129 738.93 61.131C738.93 62.151 738.747 63.048 738.381 63.822C738.015 64.59 737.487 65.19 736.797 65.622C736.107 66.054 735.282 66.27 734.322 66.27ZM734.322 65.001C735.402 65.001 736.206 64.644 736.734 63.93C737.262 63.21 737.526 62.277 737.526 61.131C737.526 59.955 737.259 59.019 736.725 58.323C736.197 57.627 735.396 57.279 734.322 57.279C733.596 57.279 732.996 57.444 732.522 57.774C732.054 58.098 731.703 58.551 731.469 59.133C731.241 59.709 731.127 60.375 731.127 61.131C731.127 62.301 731.397 63.24 731.937 63.948C732.477 64.65 733.272 65.001 734.322 65.001ZM740.906 66V56.28H742.085L745.874 64.236L749.672 56.28H750.842V66H749.564V59.106L746.297 66H745.46L742.193 59.106V66H740.906ZM757.474 66.27C756.526 66.27 755.704 66.06 755.008 65.64C754.318 65.22 753.781 64.629 753.397 63.867C753.013 63.105 752.821 62.211 752.821 61.185C752.821 60.123 753.01 59.205 753.388 58.431C753.766 57.657 754.297 57.06 754.981 56.64C755.671 56.22 756.484 56.01 757.42 56.01C758.38 56.01 759.199 56.232 759.877 56.676C760.555 57.114 761.068 57.744 761.416 58.566C761.764 59.388 761.923 60.369 761.893 61.509H760.543V61.041C760.519 59.781 760.246 58.83 759.724 58.188C759.208 57.546 758.452 57.225 757.456 57.225C756.412 57.225 755.611 57.564 755.053 58.242C754.501 58.92 754.225 59.886 754.225 61.14C754.225 62.364 754.501 63.315 755.053 63.993C755.611 64.665 756.4 65.001 757.42 65.001C758.116 65.001 758.722 64.842 759.238 64.524C759.76 64.2 760.171 63.735 760.471 63.129L761.704 63.606C761.32 64.452 760.753 65.109 760.003 65.577C759.259 66.039 758.416 66.27 757.474 66.27ZM753.757 61.509V60.402H761.182V61.509H753.757ZM768.255 66.27C767.361 66.27 766.605 66.045 765.987 65.595C765.369 65.139 764.901 64.524 764.583 63.75C764.265 62.97 764.106 62.097 764.106 61.131C764.106 60.147 764.265 59.271 764.583 58.503C764.907 57.729 765.381 57.12 766.005 56.676C766.629 56.232 767.397 56.01 768.309 56.01C769.197 56.01 769.959 56.235 770.595 56.685C771.231 57.135 771.717 57.747 772.053 58.521C772.395 59.295 772.566 60.165 772.566 61.131C772.566 62.103 772.395 62.976 772.053 63.75C771.711 64.524 771.219 65.139 770.577 65.595C769.935 66.045 769.161 66.27 768.255 66.27ZM763.881 70.32V56.28H765.069V63.597H765.213V70.32H763.881ZM768.12 65.037C768.798 65.037 769.362 64.866 769.812 64.524C770.262 64.182 770.598 63.717 770.82 63.129C771.048 62.535 771.162 61.869 771.162 61.131C771.162 60.399 771.051 59.739 770.829 59.151C770.607 58.563 770.268 58.098 769.812 57.756C769.362 57.414 768.789 57.243 768.093 57.243C767.415 57.243 766.851 57.408 766.401 57.738C765.957 58.068 765.624 58.527 765.402 59.115C765.18 59.697 765.069 60.369 765.069 61.131C765.069 61.881 765.18 62.553 765.402 63.147C765.624 63.735 765.96 64.197 766.41 64.533C766.86 64.869 767.43 65.037 768.12 65.037ZM777.543 68.16V64.731C778.047 64.731 778.452 64.605 778.758 64.353C779.064 64.095 779.298 63.753 779.46 63.327C779.622 62.901 779.745 62.424 779.829 61.896C779.913 61.362 779.985 60.822 780.045 60.276C780.129 59.478 780.195 58.707 780.243 57.963C780.297 57.219 780.342 56.448 780.378 55.65C780.42 54.852 780.468 53.979 780.522 53.031L788.514 53.04V64.731H789.441V68.16H788.127V66H778.866V68.16H777.543ZM780.072 64.731H787.191V54.309L781.755 54.3C781.719 55.032 781.683 55.74 781.647 56.424C781.611 57.108 781.569 57.798 781.521 58.494C781.473 59.19 781.41 59.916 781.332 60.672C781.266 61.362 781.188 61.965 781.098 62.481C781.008 62.997 780.882 63.438 780.72 63.804C780.564 64.17 780.348 64.479 780.072 64.731ZM795.53 66.27C794.582 66.27 793.76 66.06 793.064 65.64C792.374 65.22 791.837 64.629 791.453 63.867C791.069 63.105 790.877 62.211 790.877 61.185C790.877 60.123 791.066 59.205 791.444 58.431C791.822 57.657 792.353 57.06 793.037 56.64C793.727 56.22 794.54 56.01 795.476 56.01C796.436 56.01 797.255 56.232 797.933 56.676C798.611 57.114 799.124 57.744 799.472 58.566C799.82 59.388 799.979 60.369 799.949 61.509H798.599V61.041C798.575 59.781 798.302 58.83 797.78 58.188C797.264 57.546 796.508 57.225 795.512 57.225C794.468 57.225 793.667 57.564 793.109 58.242C792.557 58.92 792.281 59.886 792.281 61.14C792.281 62.364 792.557 63.315 793.109 63.993C793.667 64.665 794.456 65.001 795.476 65.001C796.172 65.001 796.778 64.842 797.294 64.524C797.816 64.2 798.227 63.735 798.527 63.129L799.76 63.606C799.376 64.452 798.809 65.109 798.059 65.577C797.315 66.039 796.472 66.27 795.53 66.27ZM791.813 61.509V60.402H799.238V61.509H791.813ZM801.047 66V64.839C801.407 64.905 801.68 64.89 801.866 64.794C802.058 64.692 802.199 64.524 802.289 64.29C802.379 64.05 802.454 63.753 802.514 63.399C802.61 62.811 802.697 62.163 802.775 61.455C802.853 60.747 802.922 59.967 802.982 59.115C803.048 58.257 803.114 57.312 803.18 56.28H809.786V66H808.472V57.549H804.404C804.362 58.185 804.314 58.818 804.26 59.448C804.206 60.078 804.149 60.684 804.089 61.266C804.035 61.842 803.975 62.373 803.909 62.859C803.843 63.345 803.774 63.765 803.702 64.119C803.594 64.653 803.45 65.079 803.27 65.397C803.096 65.715 802.835 65.925 802.487 66.027C802.139 66.129 801.659 66.12 801.047 66ZM816.359 66.27C815.393 66.27 814.568 66.051 813.884 65.613C813.2 65.175 812.675 64.569 812.309 63.795C811.943 63.021 811.76 62.133 811.76 61.131C811.76 60.111 811.946 59.217 812.318 58.449C812.69 57.681 813.218 57.084 813.902 56.658C814.592 56.226 815.411 56.01 816.359 56.01C817.331 56.01 818.159 56.229 818.843 56.667C819.533 57.099 820.058 57.702 820.418 58.476C820.784 59.244 820.967 60.129 820.967 61.131C820.967 62.151 820.784 63.048 820.418 63.822C820.052 64.59 819.524 65.19 818.834 65.622C818.144 66.054 817.319 66.27 816.359 66.27ZM816.359 65.001C817.439 65.001 818.243 64.644 818.771 63.93C819.299 63.21 819.563 62.277 819.563 61.131C819.563 59.955 819.296 59.019 818.762 58.323C818.234 57.627 817.433 57.279 816.359 57.279C815.633 57.279 815.033 57.444 814.559 57.774C814.091 58.098 813.74 58.551 813.506 59.133C813.278 59.709 813.164 60.375 813.164 61.131C813.164 62.301 813.434 63.24 813.974 63.948C814.514 64.65 815.309 65.001 816.359 65.001ZM827.56 70.05V66.189C826.612 66.339 825.748 66.237 824.968 65.883C824.188 65.523 823.567 64.941 823.105 64.137C822.643 63.333 822.412 62.337 822.412 61.149C822.412 59.961 822.643 58.965 823.105 58.161C823.567 57.351 824.188 56.766 824.968 56.406C825.748 56.046 826.612 55.941 827.56 56.091V53.112H828.784V56.091C829.732 55.941 830.596 56.046 831.376 56.406C832.156 56.766 832.777 57.351 833.239 58.161C833.701 58.965 833.932 59.961 833.932 61.149C833.932 62.337 833.701 63.333 833.239 64.137C832.777 64.941 832.156 65.523 831.376 65.883C830.596 66.237 829.732 66.339 828.784 66.189V70.05H827.56ZM827.56 64.956V57.333C827.074 57.249 826.606 57.264 826.156 57.378C825.706 57.486 825.301 57.699 824.941 58.017C824.581 58.329 824.296 58.746 824.086 59.268C823.882 59.784 823.78 60.411 823.78 61.149C823.78 61.887 823.885 62.517 824.095 63.039C824.305 63.555 824.59 63.969 824.95 64.281C825.31 64.593 825.715 64.803 826.165 64.911C826.615 65.019 827.08 65.034 827.56 64.956ZM828.784 64.956C829.264 65.034 829.729 65.019 830.179 64.911C830.629 64.803 831.034 64.596 831.394 64.29C831.754 63.978 832.039 63.564 832.249 63.048C832.459 62.526 832.564 61.893 832.564 61.149C832.564 60.405 832.459 59.775 832.249 59.259C832.045 58.737 831.763 58.32 831.403 58.008C831.043 57.696 830.638 57.486 830.188 57.378C829.738 57.264 829.27 57.249 828.784 57.333V64.956ZM839.966 66.27C839 66.27 838.175 66.051 837.491 65.613C836.807 65.175 836.282 64.569 835.916 63.795C835.55 63.021 835.367 62.133 835.367 61.131C835.367 60.111 835.553 59.217 835.925 58.449C836.297 57.681 836.825 57.084 837.509 56.658C838.199 56.226 839.018 56.01 839.966 56.01C840.938 56.01 841.766 56.229 842.45 56.667C843.14 57.099 843.665 57.702 844.025 58.476C844.391 59.244 844.574 60.129 844.574 61.131C844.574 62.151 844.391 63.048 844.025 63.822C843.659 64.59 843.131 65.19 842.441 65.622C841.751 66.054 840.926 66.27 839.966 66.27ZM839.966 65.001C841.046 65.001 841.85 64.644 842.378 63.93C842.906 63.21 843.17 62.277 843.17 61.131C843.17 59.955 842.903 59.019 842.369 58.323C841.841 57.627 841.04 57.279 839.966 57.279C839.24 57.279 838.64 57.444 838.166 57.774C837.698 58.098 837.347 58.551 837.113 59.133C836.885 59.709 836.771 60.375 836.771 61.131C836.771 62.301 837.041 63.24 837.581 63.948C838.121 64.65 838.916 65.001 839.966 65.001ZM846.551 66V56.28H847.874V60.501H853.355V56.28H854.678V66H853.355V61.77H847.874V66H846.551Z" fill="#344351"/>
<path d="M716.756 88.513C716.206 87.883 715.732 87.1783 715.335 86.399C714.943 85.6243 714.64 84.81 714.425 83.956C714.215 83.102 714.113 82.2433 714.117 81.38C714.113 80.5167 714.215 79.658 714.425 78.804C714.64 77.9453 714.943 77.1287 715.335 76.354C715.732 75.5793 716.206 74.877 716.756 74.247L717.512 74.835C716.971 75.4837 716.518 76.165 716.154 76.879C715.79 77.5883 715.517 78.321 715.335 79.077C715.158 79.833 715.067 80.6007 715.062 81.38C715.067 82.15 715.16 82.9177 715.342 83.683C715.529 84.4437 715.802 85.1833 716.161 85.902C716.525 86.616 716.976 87.2857 717.512 87.911L716.756 88.513ZM717.978 87.68V85.118C718.407 85.118 718.715 84.9803 718.902 84.705C719.088 84.425 719.24 83.9793 719.357 83.368C719.436 82.9713 719.501 82.5443 719.553 82.087C719.604 81.6297 719.648 81.107 719.686 80.519C719.723 79.9263 719.758 79.2333 719.791 78.44H724.789V85.118H725.517V87.68H724.523V86H718.965V87.68H717.978ZM719.721 85.118H723.767V79.322H720.743C720.729 79.6767 720.708 80.0523 720.68 80.449C720.656 80.8457 720.626 81.2423 720.589 81.639C720.556 82.0357 720.516 82.409 720.47 82.759C720.428 83.1043 720.376 83.4077 720.316 83.669C720.246 84.005 720.169 84.292 720.085 84.53C720.005 84.768 719.884 84.964 719.721 85.118ZM726.218 86V85.097C726.498 85.1483 726.711 85.1367 726.855 85.062C727.005 84.9827 727.114 84.852 727.184 84.67C727.254 84.4833 727.313 84.2523 727.359 83.977C727.434 83.5197 727.502 83.0157 727.562 82.465C727.623 81.9143 727.677 81.3077 727.723 80.645C727.775 79.9777 727.826 79.2427 727.877 78.44H733.015V86H731.993V79.427H728.829C728.797 79.9217 728.759 80.414 728.717 80.904C728.675 81.394 728.631 81.8653 728.584 82.318C728.542 82.766 728.496 83.179 728.444 83.557C728.393 83.935 728.339 84.2617 728.283 84.537C728.199 84.9523 728.087 85.2837 727.947 85.531C727.812 85.7783 727.609 85.9417 727.338 86.021C727.068 86.1003 726.694 86.0933 726.218 86ZM739.71 86V83.151H737.946C737.741 83.151 737.529 83.144 737.309 83.13C737.095 83.1113 736.894 83.0857 736.707 83.053C736.175 82.9503 735.723 82.717 735.349 82.353C734.981 81.9843 734.796 81.4757 734.796 80.827C734.796 80.1923 734.969 79.6837 735.314 79.301C735.66 78.9137 736.077 78.6617 736.567 78.545C736.791 78.4937 737.018 78.4633 737.246 78.454C737.48 78.4447 737.68 78.44 737.848 78.44H740.739L740.746 86H739.71ZM734.551 86L736.658 82.829H737.799L735.678 86H734.551ZM737.89 82.269H739.71V79.322H737.89C737.778 79.322 737.622 79.3267 737.421 79.336C737.221 79.3453 737.032 79.3757 736.854 79.427C736.7 79.4737 736.546 79.5553 736.392 79.672C736.243 79.784 736.117 79.9357 736.014 80.127C735.912 80.3137 735.86 80.5423 735.86 80.813C735.86 81.191 735.963 81.4943 736.168 81.723C736.378 81.947 736.64 82.101 736.952 82.185C737.12 82.2223 737.288 82.2457 737.456 82.255C737.624 82.2643 737.769 82.269 737.89 82.269ZM751.518 78.44V86H750.517V80.113L746.373 86H745.505V78.44H746.506V84.278L750.657 78.44H751.518ZM756.619 86.21C755.858 86.21 755.214 86.0397 754.687 85.699C754.16 85.3583 753.758 84.8893 753.483 84.292C753.212 83.69 753.072 82.9993 753.063 82.22C753.072 81.4267 753.217 80.7313 753.497 80.134C753.777 79.532 754.181 79.0653 754.708 78.734C755.235 78.398 755.875 78.23 756.626 78.23C757.391 78.23 758.056 78.4167 758.621 78.79C759.19 79.1633 759.58 79.6743 759.79 80.323L758.782 80.645C758.605 80.1923 758.322 79.8423 757.935 79.595C757.552 79.343 757.114 79.217 756.619 79.217C756.064 79.217 755.604 79.3453 755.24 79.602C754.876 79.854 754.605 80.2063 754.428 80.659C754.251 81.1117 754.16 81.632 754.155 82.22C754.164 83.1253 754.374 83.8533 754.785 84.404C755.196 84.95 755.807 85.223 756.619 85.223C757.132 85.223 757.569 85.1063 757.928 84.873C758.292 84.635 758.567 84.2897 758.754 83.837L759.79 84.145C759.51 84.817 759.099 85.3303 758.558 85.685C758.017 86.035 757.37 86.21 756.619 86.21ZM760.395 86L763.349 82.178L760.458 78.44H761.69L763.951 81.387L766.191 78.44H767.423L764.532 82.178L767.493 86H766.254L763.951 82.969L761.634 86H760.395ZM771.501 86.21C770.75 86.21 770.108 86.0397 769.576 85.699C769.044 85.3583 768.636 84.887 768.351 84.285C768.067 83.683 767.924 82.9923 767.924 82.213C767.924 81.4197 768.069 80.7243 768.358 80.127C768.648 79.5297 769.058 79.0653 769.59 78.734C770.127 78.398 770.764 78.23 771.501 78.23C772.257 78.23 772.901 78.4003 773.433 78.741C773.97 79.077 774.378 79.546 774.658 80.148C774.943 80.7453 775.085 81.4337 775.085 82.213C775.085 83.0063 774.943 83.704 774.658 84.306C774.374 84.9033 773.963 85.37 773.426 85.706C772.89 86.042 772.248 86.21 771.501 86.21ZM771.501 85.223C772.341 85.223 772.967 84.9453 773.377 84.39C773.788 83.83 773.993 83.1043 773.993 82.213C773.993 81.2983 773.786 80.5703 773.37 80.029C772.96 79.4877 772.337 79.217 771.501 79.217C770.937 79.217 770.47 79.3453 770.101 79.602C769.737 79.854 769.464 80.2063 769.282 80.659C769.105 81.107 769.016 81.625 769.016 82.213C769.016 83.123 769.226 83.8533 769.646 84.404C770.066 84.95 770.685 85.223 771.501 85.223ZM776.069 87.68V85.118C776.499 85.118 776.807 84.9803 776.993 84.705C777.18 84.425 777.332 83.9793 777.448 83.368C777.528 82.9713 777.593 82.5443 777.644 82.087C777.696 81.6297 777.74 81.107 777.777 80.519C777.815 79.9263 777.85 79.2333 777.882 78.44H782.88V85.118H783.608V87.68H782.614V86H777.056V87.68H776.069ZM777.812 85.118H781.858V79.322H778.834C778.82 79.6767 778.799 80.0523 778.771 80.449C778.748 80.8457 778.718 81.2423 778.68 81.639C778.648 82.0357 778.608 82.409 778.561 82.759C778.519 83.1043 778.468 83.4077 778.407 83.669C778.337 84.005 778.26 84.292 778.176 84.53C778.097 84.768 777.976 84.964 777.812 85.118ZM789.749 86V83.151H787.985C787.78 83.151 787.568 83.144 787.348 83.13C787.134 83.1113 786.933 83.0857 786.746 83.053C786.214 82.9503 785.762 82.717 785.388 82.353C785.02 81.9843 784.835 81.4757 784.835 80.827C784.835 80.1923 785.008 79.6837 785.353 79.301C785.699 78.9137 786.116 78.6617 786.606 78.545C786.83 78.4937 787.057 78.4633 787.285 78.454C787.519 78.4447 787.719 78.44 787.887 78.44H790.778L790.785 86H789.749ZM784.59 86L786.697 82.829H787.838L785.717 86H784.59ZM787.929 82.269H789.749V79.322H787.929C787.817 79.322 787.661 79.3267 787.46 79.336C787.26 79.3453 787.071 79.3757 786.893 79.427C786.739 79.4737 786.585 79.5553 786.431 79.672C786.282 79.784 786.156 79.9357 786.053 80.127C785.951 80.3137 785.899 80.5423 785.899 80.813C785.899 81.191 786.002 81.4943 786.207 81.723C786.417 81.947 786.679 82.101 786.991 82.185C787.159 82.2223 787.327 82.2457 787.495 82.255C787.663 82.2643 787.808 82.269 787.929 82.269ZM801.366 87.309V86H792.742V78.44H793.743V85.048H796.578V78.44H797.579V85.048H800.407V78.44H801.408V85.048H802.395V87.309H801.366ZM809.514 78.44V86H808.513V80.113L804.369 86H803.501V78.44H804.502V84.278L808.653 78.44H809.514ZM810.639 86L813.593 82.178L810.702 78.44H811.934L814.195 81.387L816.435 78.44H817.667L814.776 82.178L817.737 86H816.498L814.195 82.969L811.878 86H810.639ZM819.247 88.513L818.491 87.911C819.028 87.2857 819.476 86.616 819.835 85.902C820.199 85.1833 820.472 84.4437 820.654 83.683C820.841 82.9177 820.936 82.15 820.941 81.38C820.936 80.6007 820.843 79.833 820.661 79.077C820.484 78.321 820.213 77.5883 819.849 76.879C819.485 76.165 819.032 75.4837 818.491 74.835L819.247 74.247C819.798 74.877 820.269 75.5793 820.661 76.354C821.058 77.1287 821.361 77.9453 821.571 78.804C821.786 79.658 821.891 80.5167 821.886 81.38C821.891 82.2433 821.786 83.102 821.571 83.956C821.361 84.81 821.058 85.6243 820.661 86.399C820.269 87.1783 819.798 87.883 819.247 88.513Z" fill="#9CA5AC"/>


<rect x="667.5" y="33.5" width="201" height="67" rx="3.5" stroke="#344351"/>
<path d="M357.987 138V130.44H364V138H362.971V131.427H359.016V138H357.987ZM369.163 138.21C368.426 138.21 367.787 138.047 367.245 137.72C366.709 137.393 366.291 136.934 365.992 136.341C365.694 135.748 365.544 135.053 365.544 134.255C365.544 133.429 365.691 132.715 365.985 132.113C366.279 131.511 366.692 131.047 367.224 130.72C367.761 130.393 368.393 130.23 369.121 130.23C369.868 130.23 370.505 130.403 371.032 130.748C371.56 131.089 371.959 131.579 372.229 132.218C372.5 132.857 372.624 133.62 372.6 134.507H371.55V134.143C371.532 133.163 371.319 132.423 370.913 131.924C370.512 131.425 369.924 131.175 369.149 131.175C368.337 131.175 367.714 131.439 367.28 131.966C366.851 132.493 366.636 133.245 366.636 134.22C366.636 135.172 366.851 135.912 367.28 136.439C367.714 136.962 368.328 137.223 369.121 137.223C369.663 137.223 370.134 137.099 370.535 136.852C370.941 136.6 371.261 136.238 371.494 135.767L372.453 136.138C372.155 136.796 371.714 137.307 371.13 137.671C370.552 138.03 369.896 138.21 369.163 138.21ZM366.272 134.507V133.646H372.047V134.507H366.272ZM377.549 138.21C376.853 138.21 376.265 138.035 375.785 137.685C375.304 137.33 374.94 136.852 374.693 136.25C374.445 135.643 374.322 134.964 374.322 134.213C374.322 133.448 374.445 132.766 374.693 132.169C374.945 131.567 375.313 131.093 375.799 130.748C376.284 130.403 376.881 130.23 377.591 130.23C378.281 130.23 378.874 130.405 379.369 130.755C379.863 131.105 380.241 131.581 380.503 132.183C380.769 132.785 380.902 133.462 380.902 134.213C380.902 134.969 380.769 135.648 380.503 136.25C380.237 136.852 379.854 137.33 379.355 137.685C378.855 138.035 378.253 138.21 377.549 138.21ZM374.147 141.36V130.44H375.071V136.131H375.183V141.36H374.147ZM377.444 137.251C377.971 137.251 378.41 137.118 378.76 136.852C379.11 136.586 379.371 136.224 379.544 135.767C379.721 135.305 379.81 134.787 379.81 134.213C379.81 133.644 379.723 133.13 379.551 132.673C379.378 132.216 379.114 131.854 378.76 131.588C378.41 131.322 377.964 131.189 377.423 131.189C376.895 131.189 376.457 131.317 376.107 131.574C375.761 131.831 375.502 132.188 375.33 132.645C375.157 133.098 375.071 133.62 375.071 134.213C375.071 134.796 375.157 135.319 375.33 135.781C375.502 136.238 375.764 136.598 376.114 136.859C376.464 137.12 376.907 137.251 377.444 137.251ZM385.638 138.21C384.901 138.21 384.261 138.047 383.72 137.72C383.183 137.393 382.766 136.934 382.467 136.341C382.168 135.748 382.019 135.053 382.019 134.255C382.019 133.429 382.166 132.715 382.46 132.113C382.754 131.511 383.167 131.047 383.699 130.72C384.236 130.393 384.868 130.23 385.596 130.23C386.343 130.23 386.98 130.403 387.507 130.748C388.034 131.089 388.433 131.579 388.704 132.218C388.975 132.857 389.098 133.62 389.075 134.507H388.025V134.143C388.006 133.163 387.794 132.423 387.388 131.924C386.987 131.425 386.399 131.175 385.624 131.175C384.812 131.175 384.189 131.439 383.755 131.966C383.326 132.493 383.111 133.245 383.111 134.22C383.111 135.172 383.326 135.912 383.755 136.439C384.189 136.962 384.803 137.223 385.596 137.223C386.137 137.223 386.609 137.099 387.01 136.852C387.416 136.6 387.736 136.238 387.969 135.767L388.928 136.138C388.629 136.796 388.188 137.307 387.605 137.671C387.026 138.03 386.371 138.21 385.638 138.21ZM382.747 134.507V133.646H388.522V134.507H382.747ZM392.655 138.21C392.085 138.21 391.607 138.107 391.22 137.902C390.837 137.697 390.55 137.424 390.359 137.083C390.167 136.742 390.072 136.371 390.072 135.97C390.072 135.559 390.153 135.209 390.317 134.92C390.485 134.626 390.711 134.386 390.996 134.199C391.285 134.012 391.619 133.87 391.997 133.772C392.379 133.679 392.802 133.597 393.264 133.527C393.73 133.452 394.185 133.389 394.629 133.338C395.077 133.282 395.469 133.228 395.805 133.177L395.441 133.401C395.455 132.654 395.31 132.101 395.007 131.742C394.703 131.383 394.176 131.203 393.425 131.203C392.907 131.203 392.468 131.32 392.109 131.553C391.754 131.786 391.504 132.155 391.36 132.659L390.359 132.365C390.531 131.688 390.879 131.163 391.402 130.79C391.924 130.417 392.603 130.23 393.439 130.23C394.129 130.23 394.715 130.361 395.196 130.622C395.681 130.879 396.024 131.252 396.225 131.742C396.318 131.961 396.379 132.206 396.407 132.477C396.435 132.748 396.449 133.023 396.449 133.303V138H395.532V136.103L395.798 136.215C395.541 136.864 395.142 137.358 394.601 137.699C394.059 138.04 393.411 138.21 392.655 138.21ZM392.774 137.321C393.254 137.321 393.674 137.235 394.034 137.062C394.393 136.889 394.682 136.654 394.902 136.355C395.121 136.052 395.263 135.711 395.329 135.333C395.385 135.09 395.415 134.824 395.42 134.535C395.424 134.241 395.427 134.022 395.427 133.877L395.819 134.08C395.469 134.127 395.088 134.173 394.678 134.22C394.272 134.267 393.87 134.32 393.474 134.381C393.082 134.442 392.727 134.514 392.41 134.598C392.195 134.659 391.987 134.745 391.787 134.857C391.586 134.964 391.42 135.109 391.29 135.291C391.164 135.473 391.101 135.699 391.101 135.97C391.101 136.189 391.154 136.402 391.262 136.607C391.374 136.812 391.551 136.983 391.794 137.118C392.041 137.253 392.368 137.321 392.774 137.321ZM397.711 139.68V137.118C398.14 137.118 398.448 136.98 398.635 136.705C398.822 136.425 398.973 135.979 399.09 135.368C399.169 134.971 399.235 134.544 399.286 134.087C399.337 133.63 399.382 133.107 399.419 132.519C399.456 131.926 399.491 131.233 399.524 130.44H404.522V137.118H405.25V139.68H404.256V138H398.698V139.68H397.711ZM399.454 137.118H403.5V131.322H400.476C400.462 131.677 400.441 132.052 400.413 132.449C400.39 132.846 400.359 133.242 400.322 133.639C400.289 134.036 400.25 134.409 400.203 134.759C400.161 135.104 400.11 135.408 400.049 135.669C399.979 136.005 399.902 136.292 399.818 136.53C399.739 136.768 399.617 136.964 399.454 137.118ZM410.047 138.21C409.352 138.21 408.764 138.035 408.283 137.685C407.802 137.33 407.438 136.852 407.191 136.25C406.944 135.643 406.82 134.964 406.82 134.213C406.82 133.448 406.944 132.766 407.191 132.169C407.443 131.567 407.812 131.093 408.297 130.748C408.782 130.403 409.38 130.23 410.089 130.23C410.78 130.23 411.372 130.405 411.867 130.755C412.362 131.105 412.74 131.581 413.001 132.183C413.267 132.785 413.4 133.462 413.4 134.213C413.4 134.969 413.267 135.648 413.001 136.25C412.735 136.852 412.352 137.33 411.853 137.685C411.354 138.035 410.752 138.21 410.047 138.21ZM406.645 141.36V130.44H407.569V136.131H407.681V141.36H406.645ZM409.942 137.251C410.469 137.251 410.908 137.118 411.258 136.852C411.608 136.586 411.869 136.224 412.042 135.767C412.219 135.305 412.308 134.787 412.308 134.213C412.308 133.644 412.222 133.13 412.049 132.673C411.876 132.216 411.613 131.854 411.258 131.588C410.908 131.322 410.462 131.189 409.921 131.189C409.394 131.189 408.955 131.317 408.605 131.574C408.26 131.831 408.001 132.188 407.828 132.645C407.655 133.098 407.569 133.62 407.569 134.213C407.569 134.796 407.655 135.319 407.828 135.781C408.001 136.238 408.262 136.598 408.612 136.859C408.962 137.12 409.405 137.251 409.942 137.251ZM418.136 138.21C417.399 138.21 416.759 138.047 416.218 137.72C415.681 137.393 415.264 136.934 414.965 136.341C414.666 135.748 414.517 135.053 414.517 134.255C414.517 133.429 414.664 132.715 414.958 132.113C415.252 131.511 415.665 131.047 416.197 130.72C416.734 130.393 417.366 130.23 418.094 130.23C418.841 130.23 419.478 130.403 420.005 130.748C420.532 131.089 420.931 131.579 421.202 132.218C421.473 132.857 421.596 133.62 421.573 134.507H420.523V134.143C420.504 133.163 420.292 132.423 419.886 131.924C419.485 131.425 418.897 131.175 418.122 131.175C417.31 131.175 416.687 131.439 416.253 131.966C415.824 132.493 415.609 133.245 415.609 134.22C415.609 135.172 415.824 135.912 416.253 136.439C416.687 136.962 417.301 137.223 418.094 137.223C418.635 137.223 419.107 137.099 419.508 136.852C419.914 136.6 420.234 136.238 420.467 135.767L421.426 136.138C421.127 136.796 420.686 137.307 420.103 137.671C419.524 138.03 418.869 138.21 418.136 138.21ZM415.245 134.507V133.646H421.02V134.507H415.245ZM426.262 138.21C425.502 138.21 424.858 138.04 424.33 137.699C423.803 137.358 423.402 136.889 423.126 136.292C422.856 135.69 422.716 134.999 422.706 134.22C422.716 133.427 422.86 132.731 423.14 132.134C423.42 131.532 423.824 131.065 424.351 130.734C424.879 130.398 425.518 130.23 426.269 130.23C427.035 130.23 427.7 130.417 428.264 130.79C428.834 131.163 429.223 131.674 429.433 132.323L428.425 132.645C428.248 132.192 427.966 131.842 427.578 131.595C427.196 131.343 426.757 131.217 426.262 131.217C425.707 131.217 425.247 131.345 424.883 131.602C424.519 131.854 424.249 132.206 424.071 132.659C423.894 133.112 423.803 133.632 423.798 134.22C423.808 135.125 424.018 135.853 424.428 136.404C424.839 136.95 425.45 137.223 426.262 137.223C426.776 137.223 427.212 137.106 427.571 136.873C427.935 136.635 428.211 136.29 428.397 135.837L429.433 136.145C429.153 136.817 428.743 137.33 428.201 137.685C427.66 138.035 427.014 138.21 426.262 138.21ZM433 138.21C432.431 138.21 431.953 138.107 431.565 137.902C431.183 137.697 430.896 137.424 430.704 137.083C430.513 136.742 430.417 136.371 430.417 135.97C430.417 135.559 430.499 135.209 430.662 134.92C430.83 134.626 431.057 134.386 431.341 134.199C431.631 134.012 431.964 133.87 432.342 133.772C432.725 133.679 433.147 133.597 433.609 133.527C434.076 133.452 434.531 133.389 434.974 133.338C435.422 133.282 435.814 133.228 436.15 133.177L435.786 133.401C435.8 132.654 435.656 132.101 435.352 131.742C435.049 131.383 434.522 131.203 433.77 131.203C433.252 131.203 432.814 131.32 432.454 131.553C432.1 131.786 431.85 132.155 431.705 132.659L430.704 132.365C430.877 131.688 431.225 131.163 431.747 130.79C432.27 130.417 432.949 130.23 433.784 130.23C434.475 130.23 435.061 130.361 435.541 130.622C436.027 130.879 436.37 131.252 436.57 131.742C436.664 131.961 436.724 132.206 436.752 132.477C436.78 132.748 436.794 133.023 436.794 133.303V138H435.877V136.103L436.143 136.215C435.887 136.864 435.488 137.358 434.946 137.699C434.405 138.04 433.756 138.21 433 138.21ZM433.119 137.321C433.6 137.321 434.02 137.235 434.379 137.062C434.739 136.889 435.028 136.654 435.247 136.355C435.467 136.052 435.609 135.711 435.674 135.333C435.73 135.09 435.761 134.824 435.765 134.535C435.77 134.241 435.772 134.022 435.772 133.877L436.164 134.08C435.814 134.127 435.434 134.173 435.023 134.22C434.617 134.267 434.216 134.32 433.819 134.381C433.427 134.442 433.073 134.514 432.755 134.598C432.541 134.659 432.333 134.745 432.132 134.857C431.932 134.964 431.766 135.109 431.635 135.291C431.509 135.473 431.446 135.699 431.446 135.97C431.446 136.189 431.5 136.402 431.607 136.607C431.719 136.812 431.897 136.983 432.139 137.118C432.387 137.253 432.713 137.321 433.119 137.321ZM445.113 139.309V138H438.61V130.44H439.639V137.013H443.594V130.44H444.623V137.048H446.142V139.309H445.113ZM453.263 130.44V138H452.262V132.113L448.118 138H447.25V130.44H448.251V136.278L452.402 130.44H453.263ZM459.967 138V135.151H458.203C457.998 135.151 457.785 135.144 457.566 135.13C457.351 135.111 457.151 135.086 456.964 135.053C456.432 134.95 455.979 134.717 455.606 134.353C455.237 133.984 455.053 133.476 455.053 132.827C455.053 132.192 455.226 131.684 455.571 131.301C455.916 130.914 456.334 130.662 456.824 130.545C457.048 130.494 457.274 130.463 457.503 130.454C457.736 130.445 457.937 130.44 458.105 130.44H460.996L461.003 138H459.967ZM454.808 138L456.915 134.829H458.056L455.935 138H454.808ZM458.147 134.269H459.967V131.322H458.147C458.035 131.322 457.879 131.327 457.678 131.336C457.477 131.345 457.288 131.376 457.111 131.427C456.957 131.474 456.803 131.555 456.649 131.672C456.5 131.784 456.374 131.936 456.271 132.127C456.168 132.314 456.117 132.542 456.117 132.813C456.117 133.191 456.22 133.494 456.425 133.723C456.635 133.947 456.896 134.101 457.209 134.185C457.377 134.222 457.545 134.246 457.713 134.255C457.881 134.264 458.026 134.269 458.147 134.269Z" fill="#9CA5AC"/>
<path d="M667 67H622" stroke="#F88C28" stroke-dasharray="3 3"/>
<path d="M342 119L342 101" stroke="#F88C28" stroke-dasharray="3 3"/>
<path d="M483.354 119.354C483.549 119.158 483.549 118.842 483.354 118.646L480.172 115.464C479.976 115.269 479.66 115.269 479.464 115.464C479.269 115.66 479.269 115.976 479.464 116.172L482.293 119L479.464 121.828C479.269 122.024 479.269 122.34 479.464 122.536C479.66 122.731 479.976 122.731 480.172 122.536L483.354 119.354ZM341.5 119.5H342.974V118.5H341.5V119.5ZM345.922 119.5H348.87V118.5H345.922V119.5ZM351.818 119.5H354.766V118.5H351.818V119.5ZM357.714 119.5H360.661V118.5H357.714V119.5ZM363.609 119.5H366.557V118.5H363.609V119.5ZM369.505 119.5H372.453V118.5H369.505V119.5ZM375.401 119.5H378.349V118.5H375.401V119.5ZM381.297 119.5H384.245V118.5H381.297V119.5ZM387.193 119.5H390.141V118.5H387.193V119.5ZM393.089 119.5H396.036V118.5H393.089V119.5ZM398.984 119.5H401.932V118.5H398.984V119.5ZM404.88 119.5H407.828V118.5H404.88V119.5ZM410.776 119.5H413.724V118.5H410.776V119.5ZM416.672 119.5H419.62V118.5H416.672V119.5ZM422.568 119.5H425.516V118.5H422.568V119.5ZM428.464 119.5H431.411V118.5H428.464V119.5ZM434.359 119.5H437.307V118.5H434.359V119.5ZM440.255 119.5H443.203V118.5H440.255V119.5ZM446.151 119.5H449.099V118.5H446.151V119.5ZM452.047 119.5H454.995V118.5H452.047V119.5ZM457.943 119.5H460.891V118.5H457.943V119.5ZM463.839 119.5H466.786V118.5H463.839V119.5ZM469.734 119.5H472.682V118.5H469.734V119.5ZM475.63 119.5H478.578V118.5H475.63V119.5ZM481.526 119.5H483V118.5H481.526V119.5Z" fill="#F88C28"/>
<rect x="914.5" y="0.5" width="195" height="132" rx="3.5" fill="white"/>
<path d="M914 67H1110V129C1110 131.209 1108.21 133 1106 133H918C915.791 133 914 131.209 914 129V67Z" fill="white"/>
<path d="M924.65 107.5V93.1H926.12V99.9L932.69 93.1H934.57L927.86 100.05L935.12 107.5H933.2L926.12 100.3V107.5H924.65ZM934.724 107.5V106.21C935.124 106.283 935.428 106.267 935.634 106.16C935.848 106.047 936.004 105.86 936.104 105.6C936.204 105.333 936.288 105.003 936.354 104.61C936.461 103.957 936.558 103.237 936.644 102.45C936.731 101.663 936.808 100.797 936.874 99.85C936.948 98.8967 937.021 97.8467 937.094 96.7H944.434V107.5H942.974V98.11H938.454C938.408 98.8167 938.354 99.52 938.294 100.22C938.234 100.92 938.171 101.593 938.104 102.24C938.044 102.88 937.978 103.47 937.904 104.01C937.831 104.55 937.754 105.017 937.674 105.41C937.554 106.003 937.394 106.477 937.194 106.83C937.001 107.183 936.711 107.417 936.324 107.53C935.938 107.643 935.404 107.633 934.724 107.5ZM955.808 96.7V107.5H954.378V99.09L948.458 107.5H947.218V96.7H948.648V105.04L954.578 96.7H955.808ZM963.185 107.8C962.132 107.8 961.218 107.567 960.445 107.1C959.678 106.633 959.082 105.977 958.655 105.13C958.228 104.283 958.015 103.29 958.015 102.15C958.015 100.97 958.225 99.95 958.645 99.09C959.065 98.23 959.655 97.5667 960.415 97.1C961.182 96.6333 962.085 96.4 963.125 96.4C964.192 96.4 965.102 96.6467 965.855 97.14C966.608 97.6267 967.178 98.3267 967.565 99.24C967.952 100.153 968.128 101.243 968.095 102.51H966.595V101.99C966.568 100.59 966.265 99.5333 965.685 98.82C965.112 98.1067 964.272 97.75 963.165 97.75C962.005 97.75 961.115 98.1267 960.495 98.88C959.882 99.6333 959.575 100.707 959.575 102.1C959.575 103.46 959.882 104.517 960.495 105.27C961.115 106.017 961.992 106.39 963.125 106.39C963.898 106.39 964.572 106.213 965.145 105.86C965.725 105.5 966.182 104.983 966.515 104.31L967.885 104.84C967.458 105.78 966.828 106.51 965.995 107.03C965.168 107.543 964.232 107.8 963.185 107.8ZM959.055 102.51V101.28H967.305V102.51H959.055ZM970.304 107.5V96.7H971.774V101.39H977.864V96.7H979.334V107.5H977.864V102.8H971.774V107.5H970.304ZM985.06 107.5V98.06H981.23V96.7H990.36V98.06H986.53V107.5H985.06ZM992.277 107.5L992.257 96.7H993.737V100.77H995.617C995.931 100.77 996.237 100.777 996.537 100.79C996.837 100.803 997.107 100.83 997.347 100.87C997.881 100.977 998.354 101.157 998.767 101.41C999.181 101.663 999.507 102.013 999.747 102.46C999.987 102.9 1000.11 103.457 1000.11 104.13C1000.11 105.057 999.867 105.787 999.387 106.32C998.907 106.853 998.304 107.2 997.577 107.36C997.304 107.42 997.007 107.46 996.687 107.48C996.367 107.493 996.054 107.5 995.747 107.5H992.277ZM993.737 106.24H995.687C995.907 106.24 996.157 106.233 996.437 106.22C996.717 106.207 996.964 106.17 997.177 106.11C997.537 106.01 997.861 105.81 998.147 105.51C998.441 105.203 998.587 104.743 998.587 104.13C998.587 103.523 998.447 103.067 998.167 102.76C997.887 102.447 997.514 102.24 997.047 102.14C996.834 102.093 996.607 102.063 996.367 102.05C996.134 102.037 995.907 102.03 995.687 102.03H993.737V106.24ZM1001.4 107.5V96.7H1002.87V107.5H1001.4ZM1009.66 107.5L1009.67 96.7H1011.15V101.9L1015.97 96.7H1017.93L1012.87 102.1L1018.59 107.5H1016.45L1011.15 102.3V107.5H1009.66ZM1023.91 107.8C1022.83 107.8 1021.92 107.557 1021.16 107.07C1020.4 106.583 1019.81 105.91 1019.41 105.05C1019 104.19 1018.8 103.203 1018.8 102.09C1018.8 100.957 1019 99.9633 1019.42 99.11C1019.83 98.2567 1020.42 97.5933 1021.18 97.12C1021.94 96.64 1022.85 96.4 1023.91 96.4C1024.99 96.4 1025.91 96.6433 1026.67 97.13C1027.43 97.61 1028.02 98.28 1028.42 99.14C1028.82 99.9933 1029.03 100.977 1029.03 102.09C1029.03 103.223 1028.82 104.22 1028.42 105.08C1028.01 105.933 1027.42 106.6 1026.66 107.08C1025.89 107.56 1024.97 107.8 1023.91 107.8ZM1023.91 106.39C1025.11 106.39 1026 105.993 1026.59 105.2C1027.17 104.4 1027.47 103.363 1027.47 102.09C1027.47 100.783 1027.17 99.7433 1026.58 98.97C1025.99 98.1967 1025.1 97.81 1023.91 97.81C1023.1 97.81 1022.43 97.9933 1021.91 98.36C1021.39 98.72 1021 99.2233 1020.74 99.87C1020.48 100.51 1020.36 101.25 1020.36 102.09C1020.36 103.39 1020.66 104.433 1021.26 105.22C1021.86 106 1022.74 106.39 1023.91 106.39ZM1031.22 107.5V96.7H1032.53L1036.74 105.54L1040.96 96.7H1042.26V107.5H1040.84V99.84L1037.21 107.5H1036.28L1032.65 99.84V107.5H1031.22ZM1045.05 107.5V96.7H1053.64V107.5H1052.17V98.11H1046.52V107.5H1045.05ZM1059.54 107.8C1058.72 107.8 1058.04 107.653 1057.49 107.36C1056.94 107.067 1056.53 106.677 1056.26 106.19C1055.98 105.703 1055.85 105.173 1055.85 104.6C1055.85 104.013 1055.96 103.513 1056.2 103.1C1056.44 102.68 1056.76 102.337 1057.17 102.07C1057.58 101.803 1058.06 101.6 1058.6 101.46C1059.14 101.327 1059.75 101.21 1060.41 101.11C1061.07 101.003 1061.72 100.913 1062.36 100.84C1063 100.76 1063.56 100.683 1064.04 100.61L1063.52 100.93C1063.54 99.8633 1063.33 99.0733 1062.9 98.56C1062.46 98.0467 1061.71 97.79 1060.64 97.79C1059.9 97.79 1059.27 97.9567 1058.76 98.29C1058.25 98.6233 1057.89 99.15 1057.69 99.87L1056.26 99.45C1056.5 98.4833 1057 97.7333 1057.75 97.2C1058.49 96.6667 1059.46 96.4 1060.66 96.4C1061.64 96.4 1062.48 96.5867 1063.17 96.96C1063.86 97.3267 1064.35 97.86 1064.64 98.56C1064.77 98.8733 1064.86 99.2233 1064.9 99.61C1064.94 99.9967 1064.96 100.39 1064.96 100.79V107.5H1063.65V104.79L1064.03 104.95C1063.66 105.877 1063.09 106.583 1062.32 107.07C1061.54 107.557 1060.62 107.8 1059.54 107.8ZM1059.71 106.53C1060.39 106.53 1060.99 106.407 1061.51 106.16C1062.02 105.913 1062.43 105.577 1062.75 105.15C1063.06 104.717 1063.26 104.23 1063.36 103.69C1063.44 103.343 1063.48 102.963 1063.49 102.55C1063.49 102.13 1063.5 101.817 1063.5 101.61L1064.06 101.9C1063.56 101.967 1063.01 102.033 1062.43 102.1C1061.85 102.167 1061.27 102.243 1060.71 102.33C1060.15 102.417 1059.64 102.52 1059.19 102.64C1058.88 102.727 1058.58 102.85 1058.3 103.01C1058.01 103.163 1057.77 103.37 1057.59 103.63C1057.41 103.89 1057.32 104.213 1057.32 104.6C1057.32 104.913 1057.39 105.217 1057.55 105.51C1057.71 105.803 1057.96 106.047 1058.31 106.24C1058.66 106.433 1059.13 106.53 1059.71 106.53ZM1067.55 107.5V96.7H1069.02V101.39H1075.11V96.7H1076.58V107.5H1075.11V102.8H1069.02V107.5H1067.55ZM1087.96 96.7V107.5H1086.53V99.09L1080.61 107.5H1079.37V96.7H1080.8V105.04L1086.73 96.7H1087.96ZM1099.34 96.7V107.5H1097.91V99.09L1091.99 107.5H1090.75V96.7H1092.18V105.04L1098.11 96.7H1099.34Z" fill="#344351"/>
<circle cx="967" cy="48" r="29.5" fill="white" stroke="#344351"/>
<ellipse cx="967" cy="40.5" rx="7" ry="7.5" fill="#F88C28"/>
<path d="M978.678 62H955.322C954.659 62 954.182 61.3671 954.411 60.745C955.968 56.5346 960.053 50 967 50C973.947 50 978.032 56.5346 979.589 60.745C979.818 61.3671 979.341 62 978.678 62Z" fill="#F88C28" stroke="#F88C28"/>
<circle cx="1012" cy="48" r="29.5" fill="white" stroke="#344351"/>
<ellipse cx="1012" cy="40.5" rx="7" ry="7.5" fill="#F88C28"/>
<path d="M1023.68 62H1000.32C999.659 62 999.182 61.3671 999.411 60.745C1000.97 56.5346 1005.05 50 1012 50C1018.95 50 1023.03 56.5346 1024.59 60.745C1024.82 61.3671 1024.34 62 1023.68 62Z" fill="#F88C28" stroke="#F88C28"/>
<circle cx="1057" cy="48" r="29.5" fill="white" stroke="#344351"/>
<ellipse cx="1057" cy="40.5" rx="7" ry="7.5" fill="#F88C28"/>
<path d="M1068.68 62H1045.32C1044.66 62 1044.18 61.3671 1044.41 60.745C1045.97 56.5346 1050.05 50 1057 50C1063.95 50 1068.03 56.5346 1069.59 60.745C1069.82 61.3671 1069.34 62 1068.68 62Z" fill="#F88C28" stroke="#F88C28"/>
<rect x="914.5" y="0.5" width="195" height="132" rx="3.5" stroke="#344351"/>
<rect x="0.5" y="0.5" width="195" height="132" rx="3.5" fill="white"/>
<path d="M0 67H196V129C196 131.209 194.209 133 192 133H4C1.79086 133 0 131.209 0 129V67Z" fill="white"/>
<path d="M10.65 107.5V93.1H12.12V99.9L18.69 93.1H20.57L13.86 100.05L21.12 107.5H19.2L12.12 100.3V107.5H10.65ZM20.7242 107.5V106.21C21.1242 106.283 21.4276 106.267 21.6342 106.16C21.8476 106.047 22.0042 105.86 22.1042 105.6C22.2042 105.333 22.2876 105.003 22.3542 104.61C22.4609 103.957 22.5576 103.237 22.6442 102.45C22.7309 101.663 22.8076 100.797 22.8742 99.85C22.9476 98.8967 23.0209 97.8467 23.0942 96.7H30.4342V107.5H28.9742V98.11H24.4542C24.4076 98.8167 24.3542 99.52 24.2942 100.22C24.2342 100.92 24.1709 101.593 24.1042 102.24C24.0442 102.88 23.9776 103.47 23.9042 104.01C23.8309 104.55 23.7542 105.017 23.6742 105.41C23.5542 106.003 23.3942 106.477 23.1942 106.83C23.0009 107.183 22.7109 107.417 22.3242 107.53C21.9376 107.643 21.4042 107.633 20.7242 107.5ZM41.8081 96.7V107.5H40.3781V99.09L34.4581 107.5H33.2181V96.7H34.6481V105.04L40.5781 96.7H41.8081ZM49.1848 107.8C48.1315 107.8 47.2182 107.567 46.4448 107.1C45.6782 106.633 45.0815 105.977 44.6548 105.13C44.2282 104.283 44.0148 103.29 44.0148 102.15C44.0148 100.97 44.2248 99.95 44.6448 99.09C45.0648 98.23 45.6548 97.5667 46.4148 97.1C47.1815 96.6333 48.0848 96.4 49.1248 96.4C50.1915 96.4 51.1015 96.6467 51.8548 97.14C52.6082 97.6267 53.1782 98.3267 53.5648 99.24C53.9515 100.153 54.1282 101.243 54.0948 102.51H52.5948V101.99C52.5682 100.59 52.2648 99.5333 51.6848 98.82C51.1115 98.1067 50.2715 97.75 49.1648 97.75C48.0048 97.75 47.1148 98.1267 46.4948 98.88C45.8815 99.6333 45.5748 100.707 45.5748 102.1C45.5748 103.46 45.8815 104.517 46.4948 105.27C47.1148 106.017 47.9915 106.39 49.1248 106.39C49.8982 106.39 50.5715 106.213 51.1448 105.86C51.7248 105.5 52.1815 104.983 52.5148 104.31L53.8848 104.84C53.4582 105.78 52.8282 106.51 51.9948 107.03C51.1682 107.543 50.2315 107.8 49.1848 107.8ZM45.0548 102.51V101.28H53.3048V102.51H45.0548ZM56.3041 107.5V96.7H57.7741V101.39H63.8641V96.7H65.3341V107.5H63.8641V102.8H57.7741V107.5H56.3041ZM71.0605 107.5V98.06H67.2305V96.7H76.3605V98.06H72.5305V107.5H71.0605ZM78.2772 107.5L78.2572 96.7H79.7372V100.77H81.6172C81.9305 100.77 82.2372 100.777 82.5372 100.79C82.8372 100.803 83.1072 100.83 83.3472 100.87C83.8805 100.977 84.3539 101.157 84.7672 101.41C85.1805 101.663 85.5072 102.013 85.7472 102.46C85.9872 102.9 86.1072 103.457 86.1072 104.13C86.1072 105.057 85.8672 105.787 85.3872 106.32C84.9072 106.853 84.3039 107.2 83.5772 107.36C83.3039 107.42 83.0072 107.46 82.6872 107.48C82.3672 107.493 82.0539 107.5 81.7472 107.5H78.2772ZM79.7372 106.24H81.6872C81.9072 106.24 82.1572 106.233 82.4372 106.22C82.7172 106.207 82.9639 106.17 83.1772 106.11C83.5372 106.01 83.8605 105.81 84.1472 105.51C84.4405 105.203 84.5872 104.743 84.5872 104.13C84.5872 103.523 84.4472 103.067 84.1672 102.76C83.8872 102.447 83.5139 102.24 83.0472 102.14C82.8339 102.093 82.6072 102.063 82.3672 102.05C82.1339 102.037 81.9072 102.03 81.6872 102.03H79.7372V106.24ZM87.3972 107.5V96.7H88.8672V107.5H87.3972ZM95.6595 107.5L95.6695 96.7H97.1495V101.9L101.97 96.7H103.93L98.8695 102.1L104.59 107.5H102.45L97.1495 102.3V107.5H95.6595ZM109.906 107.8C108.833 107.8 107.916 107.557 107.156 107.07C106.396 106.583 105.813 105.91 105.406 105.05C104.999 104.19 104.796 103.203 104.796 102.09C104.796 100.957 105.003 99.9633 105.416 99.11C105.829 98.2567 106.416 97.5933 107.176 97.12C107.943 96.64 108.853 96.4 109.906 96.4C110.986 96.4 111.906 96.6433 112.666 97.13C113.433 97.61 114.016 98.28 114.416 99.14C114.823 99.9933 115.026 100.977 115.026 102.09C115.026 103.223 114.823 104.22 114.416 105.08C114.009 105.933 113.423 106.6 112.656 107.08C111.889 107.56 110.973 107.8 109.906 107.8ZM109.906 106.39C111.106 106.39 111.999 105.993 112.586 105.2C113.173 104.4 113.466 103.363 113.466 102.09C113.466 100.783 113.169 99.7433 112.576 98.97C111.989 98.1967 111.099 97.81 109.906 97.81C109.099 97.81 108.433 97.9933 107.906 98.36C107.386 98.72 106.996 99.2233 106.736 99.87C106.483 100.51 106.356 101.25 106.356 102.09C106.356 103.39 106.656 104.433 107.256 105.22C107.856 106 108.739 106.39 109.906 106.39ZM117.222 107.5V96.7H118.532L122.742 105.54L126.962 96.7H128.262V107.5H126.842V99.84L123.212 107.5H122.282L118.652 99.84V107.5H117.222ZM131.05 107.5V96.7H139.64V107.5H138.17V98.11H132.52V107.5H131.05ZM145.537 107.8C144.724 107.8 144.04 107.653 143.487 107.36C142.94 107.067 142.53 106.677 142.257 106.19C141.984 105.703 141.847 105.173 141.847 104.6C141.847 104.013 141.964 103.513 142.197 103.1C142.437 102.68 142.76 102.337 143.167 102.07C143.58 101.803 144.057 101.6 144.597 101.46C145.144 101.327 145.747 101.21 146.407 101.11C147.074 101.003 147.724 100.913 148.357 100.84C148.997 100.76 149.557 100.683 150.037 100.61L149.517 100.93C149.537 99.8633 149.33 99.0733 148.897 98.56C148.464 98.0467 147.71 97.79 146.637 97.79C145.897 97.79 145.27 97.9567 144.757 98.29C144.25 98.6233 143.894 99.15 143.687 99.87L142.257 99.45C142.504 98.4833 143 97.7333 143.747 97.2C144.494 96.6667 145.464 96.4 146.657 96.4C147.644 96.4 148.48 96.5867 149.167 96.96C149.86 97.3267 150.35 97.86 150.637 98.56C150.77 98.8733 150.857 99.2233 150.897 99.61C150.937 99.9967 150.957 100.39 150.957 100.79V107.5H149.647V104.79L150.027 104.95C149.66 105.877 149.09 106.583 148.317 107.07C147.544 107.557 146.617 107.8 145.537 107.8ZM145.707 106.53C146.394 106.53 146.994 106.407 147.507 106.16C148.02 105.913 148.434 105.577 148.747 105.15C149.06 104.717 149.264 104.23 149.357 103.69C149.437 103.343 149.48 102.963 149.487 102.55C149.494 102.13 149.497 101.817 149.497 101.61L150.057 101.9C149.557 101.967 149.014 102.033 148.427 102.1C147.847 102.167 147.274 102.243 146.707 102.33C146.147 102.417 145.64 102.52 145.187 102.64C144.88 102.727 144.584 102.85 144.297 103.01C144.01 103.163 143.774 103.37 143.587 103.63C143.407 103.89 143.317 104.213 143.317 104.6C143.317 104.913 143.394 105.217 143.547 105.51C143.707 105.803 143.96 106.047 144.307 106.24C144.66 106.433 145.127 106.53 145.707 106.53ZM153.55 107.5V96.7H155.02V101.39H161.11V96.7H162.58V107.5H161.11V102.8H155.02V107.5H153.55ZM173.957 96.7V107.5H172.527V99.09L166.607 107.5H165.367V96.7H166.797V105.04L172.727 96.7H173.957ZM185.343 96.7V107.5H183.913V99.09L177.993 107.5H176.753V96.7H178.183V105.04L184.113 96.7H185.343Z" fill="#344351"/>
<circle cx="53" cy="48" r="29.5" fill="white" stroke="#344351"/>
<ellipse cx="53" cy="40.5" rx="7" ry="7.5" fill="#F88C28"/>
<path d="M64.6782 62H41.3218C40.6586 62 40.1815 61.3671 40.4115 60.745C41.9677 56.5346 46.0526 50 53 50C59.9474 50 64.0323 56.5346 65.5885 60.745C65.8185 61.3671 65.3414 62 64.6782 62Z" fill="#F88C28" stroke="#F88C28"/>
<circle cx="98" cy="48" r="29.5" fill="white" stroke="#344351"/>
<ellipse cx="98" cy="40.5" rx="7" ry="7.5" fill="#F88C28"/>
<path d="M109.678 62H86.3218C85.6586 62 85.1815 61.3671 85.4115 60.745C86.9677 56.5346 91.0526 50 98 50C104.947 50 109.032 56.5346 110.589 60.745C110.818 61.3671 110.341 62 109.678 62Z" fill="#F88C28" stroke="#F88C28"/>
<circle cx="143" cy="48" r="29.5" fill="white" stroke="#344351"/>
<ellipse cx="143" cy="40.5" rx="7" ry="7.5" fill="#F88C28"/>
<path d="M154.678 62H131.322C130.659 62 130.182 61.3671 130.411 60.745C131.968 56.5346 136.053 50 143 50C149.947 50 154.032 56.5346 155.589 60.745C155.818 61.3671 155.341 62 154.678 62Z" fill="#F88C28" stroke="#F88C28"/>
<rect x="0.5" y="0.5" width="195" height="132" rx="3.5" stroke="#344351"/>
<path d="M201 66.5C200.724 66.5 200.5 66.7239 200.5 67C200.5 67.2761 200.724 67.5 201 67.5L201 66.5ZM236.354 67.3536C236.549 67.1583 236.549 66.8417 236.354 66.6464L233.172 63.4645C232.976 63.2692 232.66 63.2692 232.464 63.4645C232.269 63.6597 232.269 63.9763 232.464 64.1716L235.293 67L232.464 69.8284C232.269 70.0237 232.269 70.3403 232.464 70.5355C232.66 70.7308 232.976 70.7308 233.172 70.5355L236.354 67.3536ZM201 67.5L236 67.5L236 66.5L201 66.5L201 67.5Z" fill="#F88C28"/>
<path d="M874 66.5C873.724 66.5 873.5 66.7239 873.5 67C873.5 67.2761 873.724 67.5 874 67.5L874 66.5ZM909.354 67.3536C909.549 67.1583 909.549 66.8417 909.354 66.6464L906.172 63.4645C905.976 63.2692 905.66 63.2692 905.464 63.4645C905.269 63.6597 905.269 63.9763 905.464 64.1716L908.293 67L905.464 69.8284C905.269 70.0237 905.269 70.3403 905.464 70.5355C905.66 70.7308 905.976 70.7308 906.172 70.5355L909.354 67.3536ZM874 67.5L909 67.5L909 66.5L874 66.5L874 67.5Z" fill="#F88C28"/>
<rect x="488.5" y="0.5" width="133" height="132" rx="3.5" fill="white" stroke="#344351"/>
<g clip-path="url(#clip0_7265_47281)">
<path d="M609.079 73.667V79.6074H603.436V73.667H599.516V89.1541H603.436V83.0102H609.079V89.1541H612.999V73.667H609.079Z" fill="#2B8FEB"/>
<path d="M591.652 73.7242C590.426 73.5065 589.168 73.6047 587.988 74.0104C586.263 74.6128 584.81 75.8504 583.9 77.4906C582.99 79.1307 582.686 81.0606 583.046 82.9175C583.406 84.7743 584.405 86.4303 585.854 87.5743C587.304 88.7182 589.105 89.2713 590.919 89.1296C592.733 88.988 594.434 88.1613 595.704 86.8049C596.974 85.4485 597.724 83.6559 597.814 81.7639C597.904 79.8719 597.327 78.0107 596.193 76.5303C595.058 75.0498 593.443 74.052 591.652 73.7242ZM591.359 85.5097C590.325 85.7573 589.239 85.5771 588.331 85.0071C587.422 84.4372 586.762 83.522 586.488 82.4546C586.215 81.3871 586.351 80.2509 586.866 79.2855C587.382 78.32 588.237 77.6009 589.252 77.2796C589.973 77.073 590.735 77.073 591.456 77.2796C592.339 77.5212 593.119 78.0632 593.672 78.8195C594.225 79.5758 594.519 80.503 594.508 81.4535C594.497 82.404 594.18 83.3233 593.61 84.0652C593.039 84.8071 592.247 85.329 591.359 85.5479V85.5097Z" fill="#2B8FEB"/>
<path d="M555.801 72.9165V77.0634C556.728 77.5338 557.475 78.3178 557.92 79.2874C558.365 80.2571 558.481 81.3551 558.249 82.4022C558.017 83.4493 557.451 84.3837 556.644 85.0528C555.837 85.7219 554.836 86.0861 553.804 86.0861C552.772 86.0861 551.771 85.7219 550.964 85.0528C550.156 84.3837 549.59 83.4493 549.359 82.4022C549.127 81.3551 549.243 80.2571 549.688 79.2874C550.132 78.3178 550.879 77.5338 551.807 77.0634V72.9165C549.833 73.4246 548.106 74.6676 546.952 76.411C545.797 78.1545 545.296 80.2777 545.541 82.3799C545.787 84.4821 546.763 86.4179 548.285 87.822C549.808 89.2261 551.771 90.0013 553.804 90.0013C555.837 90.0013 557.8 89.2261 559.322 87.822C560.844 86.4179 561.82 84.4821 562.066 82.3799C562.312 80.2777 561.81 78.1545 560.656 76.411C559.502 74.6676 557.775 73.4246 555.801 72.9165Z" fill="#2B8FEB"/>
<path d="M551.269 81.7822C551.355 82.2707 551.567 82.7258 551.881 83.0993C552.195 83.4728 552.601 83.7509 553.054 83.9041C553.508 84.0573 553.993 84.0799 554.458 83.9694C554.923 83.859 555.35 83.6197 555.695 83.2768C556.04 82.934 556.29 82.5003 556.417 82.0218C556.545 81.5433 556.546 81.0378 556.42 80.5587C556.295 80.0796 556.047 79.6448 555.704 79.3003C555.36 78.9559 554.933 78.7146 554.469 78.6021V72.6553H553.248V78.5766C552.589 78.7409 552.015 79.1624 551.646 79.7541C551.277 80.3459 551.14 81.0628 551.263 81.7567L551.269 81.7822Z" fill="#2B8FEB"/>
<path d="M574.173 74.8182V73.667H570.424V74.8182C570.1 74.8691 569.813 74.9263 569.471 75.009C565.96 75.8931 563.426 78.3799 563.426 81.3056C563.426 84.4857 566.424 87.157 570.424 87.7994V89.1541H574.173V87.7994C578.173 87.1634 581.172 84.4984 581.172 81.3056C581.172 78.1128 578.173 75.4669 574.173 74.8182ZM567.456 81.3056C567.456 79.7919 568.677 78.5008 570.442 77.9474V84.6702C568.671 84.1168 567.438 82.8193 567.438 81.3056H567.456ZM574.173 84.6702V77.9474C575.926 78.5008 577.16 79.7919 577.16 81.3056C577.16 82.8193 575.926 84.1168 574.173 84.6702Z" fill="#2B8FEB"/>
<path d="M507.398 68H498C498 69.6791 499.16 70.6077 500.662 71.1165V85.745C499.154 86.2157 498 87.1697 498 89.1541H506.653C509.145 89.1541 510.879 88.8361 511.862 88.1873C513.389 87.1761 513.761 85.6432 513.761 83.608V73.8387C513.761 69.9081 511.935 68 507.398 68ZM509.34 82.9974C509.34 84.6065 508.412 85.4143 506.537 85.4143C506 85.4143 505.316 85.3825 504.62 85.3698V71.7207C505.395 71.7525 506.091 71.7207 506.592 71.7207C508.469 71.7207 509.405 72.5688 509.401 74.2648C509.401 75.9821 509.34 81.3565 509.34 82.9974Z" fill="#2B8FEB"/>
<path d="M522.876 73.7559C517.96 73.7559 515.707 77.8836 515.707 81.6235C515.707 86.2346 518.461 89.1285 523.267 89.1285C525.017 89.1695 526.757 88.8541 528.39 88.1999V85.0898C526.933 85.5331 525.42 85.7474 523.902 85.7258C521.85 85.7258 520.024 84.8226 519.908 82.9209H529.044C529.143 82.3223 529.192 81.7158 529.19 81.1083C529.19 77.4639 527.456 73.7559 522.876 73.7559ZM519.896 79.7853C520.012 78.5769 520.763 76.796 522.62 76.796C524.647 76.796 525.111 78.6659 525.111 79.7853H519.896Z" fill="#2B8FEB"/>
<path d="M536.912 73.9471C535.08 74.4623 532.179 76.1859 532.179 79.5378V84.1489C532.179 86.2542 531.715 86.2478 530.921 87.0556C530.664 87.3094 530.464 87.6184 530.333 87.961C530.202 88.3036 530.144 88.6718 530.164 89.0399H534.109C535.568 89.0399 536.319 86.852 536.319 84.1617V79.8685C536.318 79.1424 536.593 78.4452 537.083 77.9286C537.669 77.3567 538.425 77.0091 539.226 76.9428H539.409V89.0272H543.635V73.7627H537.834C537.52 73.7827 537.21 73.8447 536.912 73.9471Z" fill="#2B8FEB"/>
</g>
<path d="M522.09 59V49.907H518.569V48.92H526.64V49.907H523.119V59H522.09ZM529.977 59.21C529.24 59.21 528.6 59.0467 528.059 58.72C527.522 58.3933 527.105 57.9337 526.806 57.341C526.507 56.7483 526.358 56.053 526.358 55.255C526.358 54.429 526.505 53.715 526.799 53.113C527.093 52.511 527.506 52.0467 528.038 51.72C528.575 51.3933 529.207 51.23 529.935 51.23C530.682 51.23 531.319 51.4027 531.846 51.748C532.373 52.0887 532.772 52.5787 533.043 53.218C533.314 53.8573 533.437 54.6203 533.414 55.507H532.364V55.143C532.345 54.163 532.133 53.4233 531.727 52.924C531.326 52.4247 530.738 52.175 529.963 52.175C529.151 52.175 528.528 52.4387 528.094 52.966C527.665 53.4933 527.45 54.2447 527.45 55.22C527.45 56.172 527.665 56.9117 528.094 57.439C528.528 57.9617 529.142 58.223 529.935 58.223C530.476 58.223 530.948 58.0993 531.349 57.852C531.755 57.6 532.075 57.2383 532.308 56.767L533.267 57.138C532.968 57.796 532.527 58.307 531.944 58.671C531.365 59.0303 530.71 59.21 529.977 59.21ZM527.086 55.507V54.646H532.861V55.507H527.086ZM534.267 59V58.097C534.547 58.1483 534.76 58.1367 534.904 58.062C535.054 57.9827 535.163 57.852 535.233 57.67C535.303 57.4833 535.362 57.2523 535.408 56.977C535.483 56.5197 535.551 56.0157 535.611 55.465C535.672 54.9143 535.726 54.3077 535.772 53.645C535.824 52.9777 535.875 52.2427 535.926 51.44H541.064V59H540.042V52.427H536.878C536.846 52.9217 536.808 53.414 536.766 53.904C536.724 54.394 536.68 54.8653 536.633 55.318C536.591 55.766 536.545 56.179 536.493 56.557C536.442 56.935 536.388 57.2617 536.332 57.537C536.248 57.9523 536.136 58.2837 535.996 58.531C535.861 58.7783 535.658 58.9417 535.387 59.021C535.117 59.1003 534.743 59.0933 534.267 59ZM546.219 59.21C545.482 59.21 544.842 59.0467 544.301 58.72C543.764 58.3933 543.347 57.9337 543.048 57.341C542.749 56.7483 542.6 56.053 542.6 55.255C542.6 54.429 542.747 53.715 543.041 53.113C543.335 52.511 543.748 52.0467 544.28 51.72C544.817 51.3933 545.449 51.23 546.177 51.23C546.924 51.23 547.561 51.4027 548.088 51.748C548.615 52.0887 549.014 52.5787 549.285 53.218C549.556 53.8573 549.679 54.6203 549.656 55.507H548.606V55.143C548.587 54.163 548.375 53.4233 547.969 52.924C547.568 52.4247 546.98 52.175 546.205 52.175C545.393 52.175 544.77 52.4387 544.336 52.966C543.907 53.4933 543.692 54.2447 543.692 55.22C543.692 56.172 543.907 56.9117 544.336 57.439C544.77 57.9617 545.384 58.223 546.177 58.223C546.718 58.223 547.19 58.0993 547.591 57.852C547.997 57.6 548.317 57.2383 548.55 56.767L549.509 57.138C549.21 57.796 548.769 58.307 548.186 58.671C547.607 59.0303 546.952 59.21 546.219 59.21ZM543.328 55.507V54.646H549.103V55.507H543.328ZM554.793 62.15V59.147C554.056 59.2637 553.384 59.1843 552.777 58.909C552.171 58.629 551.688 58.1763 551.328 57.551C550.969 56.9257 550.789 56.151 550.789 55.227C550.789 54.303 550.969 53.5283 551.328 52.903C551.688 52.273 552.171 51.818 552.777 51.538C553.384 51.258 554.056 51.1763 554.793 51.293V48.976H555.745V51.293C556.483 51.1763 557.155 51.258 557.761 51.538C558.368 51.818 558.851 52.273 559.21 52.903C559.57 53.5283 559.749 54.303 559.749 55.227C559.749 56.151 559.57 56.9257 559.21 57.551C558.851 58.1763 558.368 58.629 557.761 58.909C557.155 59.1843 556.483 59.2637 555.745 59.147V62.15H554.793ZM554.793 58.188V52.259C554.415 52.1937 554.051 52.2053 553.701 52.294C553.351 52.378 553.036 52.5437 552.756 52.791C552.476 53.0337 552.255 53.358 552.091 53.764C551.933 54.1653 551.853 54.653 551.853 55.227C551.853 55.801 551.935 56.291 552.098 56.697C552.262 57.0983 552.483 57.4203 552.763 57.663C553.043 57.9057 553.358 58.069 553.708 58.153C554.058 58.237 554.42 58.2487 554.793 58.188ZM555.745 58.188C556.119 58.2487 556.48 58.237 556.83 58.153C557.18 58.069 557.495 57.908 557.775 57.67C558.055 57.4273 558.277 57.1053 558.44 56.704C558.604 56.298 558.685 55.8057 558.685 55.227C558.685 54.6483 558.604 54.1583 558.44 53.757C558.282 53.351 558.062 53.0267 557.782 52.784C557.502 52.5413 557.187 52.378 556.837 52.294C556.487 52.2053 556.123 52.1937 555.745 52.259V58.188ZM564.443 59.21C563.691 59.21 563.05 59.0397 562.518 58.699C561.986 58.3583 561.577 57.887 561.293 57.285C561.008 56.683 560.866 55.9923 560.866 55.213C560.866 54.4197 561.01 53.7243 561.3 53.127C561.589 52.5297 562 52.0653 562.532 51.734C563.068 51.398 563.705 51.23 564.443 51.23C565.199 51.23 565.843 51.4003 566.375 51.741C566.911 52.077 567.32 52.546 567.6 53.148C567.884 53.7453 568.027 54.4337 568.027 55.213C568.027 56.0063 567.884 56.704 567.6 57.306C567.315 57.9033 566.904 58.37 566.368 58.706C565.831 59.042 565.189 59.21 564.443 59.21ZM564.443 58.223C565.283 58.223 565.908 57.9453 566.319 57.39C566.729 56.83 566.935 56.1043 566.935 55.213C566.935 54.2983 566.727 53.5703 566.312 53.029C565.901 52.4877 565.278 52.217 564.443 52.217C563.878 52.217 563.411 52.3453 563.043 52.602C562.679 52.854 562.406 53.2063 562.224 53.659C562.046 54.107 561.958 54.625 561.958 55.213C561.958 56.123 562.168 56.8533 562.588 57.404C563.008 57.95 563.626 58.223 564.443 58.223ZM569.564 59V51.44H570.593V54.723H574.856V51.44H575.885V59H574.856V55.71H570.593V59H569.564ZM583.848 51.44V59H582.847V53.113L578.703 59H577.835V51.44H578.836V57.278L582.987 51.44H583.848ZM590.552 59V56.151H588.788C588.583 56.151 588.37 56.144 588.151 56.13C587.936 56.1113 587.736 56.0857 587.549 56.053C587.017 55.9503 586.564 55.717 586.191 55.353C585.822 54.9843 585.638 54.4757 585.638 53.827C585.638 53.1923 585.811 52.6837 586.156 52.301C586.501 51.9137 586.919 51.6617 587.409 51.545C587.633 51.4937 587.859 51.4633 588.088 51.454C588.321 51.4447 588.522 51.44 588.69 51.44H591.581L591.588 59H590.552ZM585.393 59L587.5 55.829H588.641L586.52 59H585.393ZM588.732 55.269H590.552V52.322H588.732C588.62 52.322 588.464 52.3267 588.263 52.336C588.062 52.3453 587.873 52.3757 587.696 52.427C587.542 52.4737 587.388 52.5553 587.234 52.672C587.085 52.784 586.959 52.9357 586.856 53.127C586.753 53.3137 586.702 53.5423 586.702 53.813C586.702 54.191 586.805 54.4943 587.01 54.723C587.22 54.947 587.481 55.101 587.794 55.185C587.962 55.2223 588.13 55.2457 588.298 55.255C588.466 55.2643 588.611 55.269 588.732 55.269Z" fill="#344351"/>
<defs>
<clipPath id="clip0_7265_47281">
<rect width="115" height="22" fill="white" transform="translate(498 68)"/>
</clipPath>
</defs>
</svg>
