<svg width="35" height="35" viewBox="0 0 35 35" fill="none" xmlns="http://www.w3.org/2000/svg">
<circle cx="17.5" cy="17.5" r="17" stroke="#2B8FEB"/>
<path fill-rule="evenodd" clip-rule="evenodd" d="M12.9933 12.2846C12.798 12.0894 12.4814 12.0894 12.2862 12.2846C12.0909 12.4799 12.0909 12.7965 12.2862 12.9918L16.7944 17.5L12.2862 22.0082C12.0909 22.2035 12.0909 22.5201 12.2862 22.7153C12.4814 22.9106 12.798 22.9106 12.9933 22.7153L17.5015 18.2071L22.0094 22.7149C22.2046 22.9102 22.5212 22.9102 22.7165 22.7149C22.9117 22.5197 22.9117 22.2031 22.7165 22.0078L18.2086 17.5L22.7165 12.9922C22.9117 12.7969 22.9117 12.4803 22.7165 12.285C22.5212 12.0898 22.2046 12.0898 22.0094 12.285L17.5015 16.7929L12.9933 12.2846Z" fill="#2B8FEB"/>
</svg>
