<svg  fill="none" xmlns="http://www.w3.org/2000/svg">
<g clip-path="url(#clip0_2126_19780)">
<path d="M166.137 8.24316V16.8838H157.698V8.24316H151.834V30.7699H157.698V21.8332H166.137V30.7699H172.001V8.24316H166.137Z" fill="#2B8FEB"/>
<path d="M140.071 8.32632C138.238 8.00957 136.356 8.1525 134.59 8.74263C132.011 9.61881 129.837 11.4189 128.476 13.8046C127.115 16.1903 126.661 18.9974 127.199 21.6983C127.738 24.3992 129.231 26.8079 131.4 28.4718C133.568 30.1357 136.262 30.9403 138.974 30.7342C141.687 30.5281 144.232 29.3256 146.131 27.3527C148.03 25.3798 149.152 22.7724 149.287 20.0204C149.422 17.2683 148.559 14.5613 146.862 12.4079C145.165 10.2545 142.75 8.80304 140.071 8.32632ZM139.632 25.4689C138.086 25.829 136.462 25.5669 135.103 24.7378C133.745 23.9088 132.757 22.5776 132.348 21.025C131.939 19.4724 132.142 17.8197 132.913 16.4154C133.684 15.0111 134.963 13.9651 136.481 13.4978C137.56 13.1973 138.699 13.1973 139.778 13.4978C141.098 13.8491 142.265 14.6376 143.092 15.7377C143.919 16.8377 144.359 18.1863 144.342 19.5689C144.325 20.9514 143.853 22.2886 142.999 23.3677C142.146 24.4469 140.961 25.206 139.632 25.5244V25.4689Z" fill="#2B8FEB"/>
<path d="M86.4477 7.15137V13.1832C87.8351 13.8674 88.9525 15.0078 89.6175 16.4182C90.2826 17.8286 90.456 19.4257 90.1094 20.9488C89.7628 22.4718 88.9166 23.8309 87.7092 24.8041C86.5017 25.7773 85.0042 26.3072 83.461 26.3072C81.9179 26.3072 80.4204 25.7773 79.2129 24.8041C78.0055 23.8309 77.1593 22.4718 76.8127 20.9488C76.4661 19.4257 76.6395 17.8286 77.3046 16.4182C77.9696 15.0078 79.087 13.8674 80.4744 13.1832V7.15137C77.5221 7.89038 74.939 9.69846 73.2126 12.2343C71.4862 14.7702 70.736 17.8585 71.1035 20.9163C71.471 23.974 72.9308 26.7898 75.2074 28.8321C77.484 30.8744 80.4199 32.002 83.461 32.002C86.5022 32.002 89.4381 30.8744 91.7147 28.8321C93.9913 26.7898 95.4511 23.974 95.8186 20.9163C96.1861 17.8585 95.4359 14.7702 93.7095 12.2343C91.9831 9.69846 89.4 7.89038 86.4477 7.15137Z" fill="#2B8FEB"/>
<path d="M79.6705 20.047C79.7995 20.7575 80.1157 21.4195 80.5857 21.9628C81.0557 22.5061 81.662 22.9106 82.3404 23.1334C83.0188 23.3562 83.7441 23.3891 84.4395 23.2285C85.1348 23.0678 85.7743 22.7197 86.2903 22.221C86.8063 21.7223 87.1795 21.0916 87.3705 20.3956C87.5615 19.6996 87.5631 18.9642 87.3751 18.2673C87.1872 17.5705 86.8167 16.938 86.3029 16.437C85.7891 15.936 85.1511 15.5851 84.4564 15.4214V6.77148H82.6298V15.3844C81.644 15.6233 80.7865 16.2364 80.2341 17.0971C79.6818 17.9579 79.4768 19.0006 79.6614 20.01L79.6705 20.047Z" fill="#2B8FEB"/>
<path d="M113.93 9.91764V8.24316H108.322V9.91764C107.838 9.99165 107.409 10.0749 106.897 10.1952C101.645 11.4811 97.855 15.0983 97.855 19.3539C97.855 23.9795 102.339 27.865 108.322 28.7994V30.7699H113.93V28.7994C119.912 27.8743 124.397 23.998 124.397 19.3539C124.397 14.7098 119.912 10.8613 113.93 9.91764ZM103.883 19.3539C103.883 17.1521 105.71 15.2741 108.349 14.4692V24.2478C105.701 23.4429 103.856 21.5557 103.856 19.3539H103.883ZM113.93 24.2478V14.4692C116.551 15.2741 118.396 17.1521 118.396 19.3539C118.396 21.5557 116.551 23.4429 113.93 24.2478Z" fill="#2B8FEB"/>
<path d="M14.0563 0H0C0 2.44232 1.73534 3.793 3.98216 4.5331V25.8109C1.72621 26.4955 0 27.8832 0 30.7696H12.942C16.6684 30.7696 19.2623 30.307 20.7328 29.3634C23.0161 27.8925 23.5733 25.6629 23.5733 22.7025V8.49263C23.5733 2.77537 20.8424 0 14.0563 0ZM16.9607 21.8144C16.9607 24.155 15.5724 25.3299 12.7685 25.3299C11.9647 25.3299 10.9418 25.2836 9.90059 25.2651V5.41197C11.0605 5.45822 12.1017 5.41197 12.8507 5.41197C15.6577 5.41197 17.0581 6.64547 17.052 9.11246C17.052 11.6103 16.9607 19.4276 16.9607 21.8144Z" fill="#2B8FEB"/>
<path d="M37.2084 8.37207C29.8561 8.37207 26.4858 14.3761 26.4858 19.8158C26.4858 26.523 30.605 30.7323 37.793 30.7323C40.4097 30.7919 43.0128 30.3331 45.4559 29.3816V24.8578C43.2761 25.5025 41.0135 25.8144 38.7428 25.7829C35.674 25.7829 32.9431 24.4692 32.7696 21.7031H46.4331C46.5815 20.8323 46.6549 19.9501 46.6523 19.0665C46.6523 13.7655 44.0585 8.37207 37.2084 8.37207ZM32.7513 17.1422C32.9249 15.3845 34.0483 12.7942 36.8248 12.7942C39.8571 12.7942 40.5513 15.514 40.5513 17.1422H32.7513Z" fill="#2B8FEB"/>
<path d="M58.198 8.65012C55.458 9.39947 51.1196 11.9066 51.1196 16.7819V23.4891C51.1196 26.5512 50.4255 26.542 49.2381 27.7169C48.8541 28.0861 48.554 28.5355 48.3584 29.0339C48.1629 29.5323 48.0766 30.0678 48.1056 30.6033H54.0057C56.1886 30.6033 57.312 27.4209 57.312 23.5076V17.263C57.3105 16.2068 57.7208 15.1927 58.4537 14.4414C59.3312 13.6095 60.4614 13.1039 61.6595 13.0074H61.9335V30.5848H68.2538V8.38184H59.5771C59.1079 8.41098 58.6444 8.50115 58.198 8.65012Z" fill="#2B8FEB"/>
</g>
<defs>
<clipPath id="clip0_2126_19780">
<rect width="172" height="32" fill="white"/>
</clipPath>
</defs>
</svg>
