<svg width="111" height="20" viewBox="0 0 111 20" fill="none" xmlns="http://www.w3.org/2000/svg">
<g clip-path="url(#clip0_2126_20646)">
<path d="M107.216 5.15234V10.5527H101.77V5.15234H97.9861V19.2316H101.77V13.6461H107.216V19.2316H111.001V5.15234H107.216Z" fill="#2B8FEB"/>
<path d="M90.3942 5.2042C89.2114 5.00622 87.9972 5.09556 86.8577 5.46439C85.1933 6.012 83.79 7.13706 82.9117 8.62813C82.0333 10.1192 81.7404 11.8736 82.0878 13.5617C82.4353 15.2497 83.3992 16.7552 84.7985 17.7951C86.1978 18.8351 87.9361 19.3379 89.6868 19.2091C91.4374 19.0803 93.0798 18.3288 94.3053 17.0957C95.5308 15.8626 96.2551 14.233 96.342 12.513C96.4289 10.793 95.8724 9.10104 94.7772 7.75516C93.6819 6.40929 92.1233 5.50214 90.3942 5.2042ZM90.1113 15.9183C89.1136 16.1434 88.0657 15.9795 87.1887 15.4614C86.3117 14.9432 85.6742 14.1112 85.4104 13.1409C85.1467 12.1705 85.2774 11.1375 85.775 10.2599C86.2726 9.3822 87.0983 8.7284 88.0778 8.43635C88.7741 8.24857 89.5092 8.24857 90.2056 8.43635C91.0576 8.65596 91.8103 9.14873 92.344 9.83628C92.8777 10.5238 93.1617 11.3667 93.1508 12.2308C93.14 13.0949 92.8349 13.9306 92.2842 14.6051C91.7334 15.2795 90.9686 15.754 90.1113 15.953V15.9183Z" fill="#2B8FEB"/>
<path d="M55.7888 4.46973V8.2396C56.6841 8.66723 57.4053 9.37998 57.8344 10.2615C58.2636 11.143 58.3755 12.1412 58.1518 13.0931C57.9282 14.045 57.3821 14.8944 56.6029 15.5027C55.8236 16.111 54.8572 16.4421 53.8614 16.4421C52.8655 16.4421 51.8991 16.111 51.1198 15.5027C50.3406 14.8944 49.7946 14.045 49.5709 13.0931C49.3472 12.1412 49.4591 11.143 49.8883 10.2615C50.3175 9.37998 51.0386 8.66723 51.934 8.2396V4.46973C50.0287 4.93161 48.3617 6.06166 47.2475 7.64658C46.1334 9.23151 45.6492 11.1617 45.8864 13.0728C46.1236 14.9839 47.0657 16.7438 48.5349 18.0202C50.0041 19.2966 51.8988 20.0013 53.8614 20.0013C55.8239 20.0013 57.7186 19.2966 59.1879 18.0202C60.6571 16.7438 61.5992 14.9839 61.8363 13.0728C62.0735 11.1617 61.5893 9.23151 60.4752 7.64658C59.361 6.06166 57.694 4.93161 55.7888 4.46973Z" fill="#2B8FEB"/>
<path d="M51.4153 12.5296C51.4985 12.9737 51.7026 13.3874 52.0059 13.727C52.3092 14.0666 52.7005 14.3194 53.1383 14.4586C53.5761 14.5979 54.0442 14.6184 54.4929 14.518C54.9417 14.4176 55.3544 14.2001 55.6874 13.8884C56.0203 13.5767 56.2612 13.1825 56.3845 12.7475C56.5077 12.3125 56.5087 11.8529 56.3875 11.4173C56.2662 10.9818 56.0271 10.5865 55.6955 10.2734C55.3639 9.96027 54.9522 9.74093 54.5039 9.63861V4.23242H53.325V9.61548C52.6889 9.76478 52.1355 10.148 51.779 10.6859C51.4226 11.2239 51.2903 11.8756 51.4094 12.5065L51.4153 12.5296Z" fill="#2B8FEB"/>
<path d="M73.5245 6.19889V5.15234H69.9054V6.19889C69.593 6.24515 69.316 6.29718 68.9859 6.37235C65.5967 7.17605 63.1506 9.43682 63.1506 12.0965C63.1506 14.9876 66.0447 17.416 69.9054 18V19.2316H73.5245V18C77.3852 17.4218 80.2793 14.9991 80.2793 12.0965C80.2793 9.19397 77.3852 6.78865 73.5245 6.19889ZM67.0408 12.0965C67.0408 10.7204 68.2197 9.54668 69.9231 9.04364V15.1552C68.2138 14.6522 67.0231 13.4727 67.0231 12.0965H67.0408ZM73.5245 15.1552V9.04364C75.2161 9.54668 76.4068 10.7204 76.4068 12.0965C76.4068 13.4727 75.2161 14.6522 73.5245 15.1552Z" fill="#2B8FEB"/>
<path d="M9.07121 0H0C0 1.52645 1.1199 2.37063 2.56988 2.83319V16.1318C1.11401 16.5597 0 17.427 0 19.231H8.35211C10.757 19.231 12.4309 18.9419 13.3799 18.3521C14.8534 17.4328 15.213 16.0393 15.213 14.1891V5.30789C15.213 1.73461 13.4506 0 9.07121 0ZM10.9456 13.634C10.9456 15.0968 10.0496 15.8312 8.24012 15.8312C7.72143 15.8312 7.06128 15.8023 6.38934 15.7907V3.38248C7.1379 3.41139 7.80984 3.38248 8.29317 3.38248C10.1047 3.38248 11.0084 4.15342 11.0045 5.69529C11.0045 7.25643 10.9456 12.1422 10.9456 13.634Z" fill="#2B8FEB"/>
<path d="M24.0125 5.23242C19.2676 5.23242 17.0927 8.98495 17.0927 12.3848C17.0927 16.5767 19.7509 19.2076 24.3897 19.2076C26.0784 19.2448 27.7583 18.9581 29.3349 18.3634V15.536C27.9282 15.939 26.468 16.1338 25.0027 16.1142C23.0222 16.1142 21.2599 15.2931 21.1479 13.5643H29.9656C30.0614 13.0201 30.1087 12.4687 30.1071 11.9164C30.1071 8.60334 28.4331 5.23242 24.0125 5.23242ZM21.1361 10.7138C21.2481 9.61519 21.9731 7.99623 23.7649 7.99623C25.7218 7.99623 26.1697 9.69614 26.1697 10.7138H21.1361Z" fill="#2B8FEB"/>
<path d="M37.558 5.40596C35.7898 5.8743 32.99 7.44123 32.99 10.4884V14.6803C32.99 16.5942 32.5421 16.5884 31.7758 17.3227C31.528 17.5535 31.3343 17.8343 31.2081 18.1458C31.0819 18.4573 31.0262 18.792 31.0449 19.1267H34.8526C36.2613 19.1267 36.9863 17.1377 36.9863 14.6919V10.789C36.9853 10.1289 37.2501 9.49507 37.7231 9.0255C38.2893 8.50556 39.0188 8.18958 39.7919 8.12929H39.9688V19.1151H44.0476V5.23828H38.4481C38.1453 5.2565 37.8461 5.31285 37.558 5.40596Z" fill="#2B8FEB"/>
</g>
<defs>
<clipPath id="clip0_2126_20646">
<rect width="111" height="20" fill="white"/>
</clipPath>
</defs>
</svg>
