<svg width="25" height="25" viewBox="0 0 25 25" fill="none" xmlns="http://www.w3.org/2000/svg">
<path d="M12.5 25C19.4036 25 25 19.4036 25 12.5C25 5.59644 19.4036 0 12.5 0C5.59644 0 0 5.59644 0 12.5C0 19.4036 5.59644 25 12.5 25Z" fill="#2B8FEB"/>
<path d="M12.5 16.4062C15.1967 16.4062 17.3828 14.2201 17.3828 11.5234C17.3828 8.82673 15.1967 6.64062 12.5 6.64062C9.8033 6.64062 7.61719 8.82673 7.61719 11.5234C7.61719 14.2201 9.8033 16.4062 12.5 16.4062Z" stroke="white" stroke-miterlimit="10"/>
<path d="M4.6875 21.875C5.42081 20.2294 6.53877 18.8475 7.91763 17.8823C9.29649 16.9171 10.8825 16.4063 12.5 16.4063C14.1175 16.4062 15.7035 16.9171 17.0824 17.8823C18.4612 18.8475 19.5792 20.2294 20.3125 21.875" stroke="white" stroke-linecap="square" stroke-linejoin="bevel"/>
</svg>
