<svg width="481" height="402" viewBox="0 0 481 402" fill="none" xmlns="http://www.w3.org/2000/svg">
<path d="M436.301 163.566V180.524" stroke="#EFEFEF" stroke-width="2" stroke-linecap="round" stroke-linejoin="round"/>
<path d="M442.432 137.406V200.05" stroke="#EFEFEF" stroke-width="2" stroke-linecap="round" stroke-linejoin="round"/>
<path d="M405.658 139.151V201.795" stroke="#EFEFEF" stroke-width="2" stroke-linecap="round" stroke-linejoin="round"/>
<path d="M424.045 160.257V176.984" stroke="#EFEFEF" stroke-width="2" stroke-linecap="round" stroke-linejoin="round"/>
<path d="M307.604 160.257V176.984" stroke="#EFEFEF" stroke-width="2" stroke-linecap="round" stroke-linejoin="round"/>
<path d="M417.916 156.322V183.817" stroke="#EFEFEF" stroke-width="2" stroke-linecap="round" stroke-linejoin="round"/>
<path d="M430.174 160.175V187.669" stroke="#EFEFEF" stroke-width="2" stroke-linecap="round" stroke-linejoin="round"/>
<path d="M411.787 121.732V175.354" stroke="#EFEFEF" stroke-width="2" stroke-linecap="round" stroke-linejoin="round"/>
<path d="M399.531 160.257V176.951" stroke="#EFEFEF" stroke-width="2" stroke-linecap="round" stroke-linejoin="round"/>
<path d="M393.402 147.975V185.463" stroke="#EFEFEF" stroke-width="2" stroke-linecap="round" stroke-linejoin="round"/>
<path d="M344.375 163.287V190.781" stroke="#EFEFEF" stroke-width="2" stroke-linecap="round" stroke-linejoin="round"/>
<path d="M332.117 143.514V197.136" stroke="#EFEFEF" stroke-width="2" stroke-linecap="round" stroke-linejoin="round"/>
<path d="M319.861 170.514V187.208" stroke="#EFEFEF" stroke-width="2" stroke-linecap="round" stroke-linejoin="round"/>
<path d="M473.072 168.687V185.381" stroke="#EFEFEF" stroke-width="2" stroke-linecap="round" stroke-linejoin="round"/>
<path d="M313.732 163.171V200.659" stroke="#EFEFEF" stroke-width="2" stroke-linecap="round" stroke-linejoin="round"/>
<path d="M368.889 161.986V178.696" stroke="#EFEFEF" stroke-width="2" stroke-linecap="round" stroke-linejoin="round"/>
<path d="M356.631 159.681V187.192" stroke="#EFEFEF" stroke-width="2" stroke-linecap="round" stroke-linejoin="round"/>
<path d="M387.275 156.586V184.096" stroke="#EFEFEF" stroke-width="2" stroke-linecap="round" stroke-linejoin="round"/>
<path d="M350.502 148.14V201.762" stroke="#EFEFEF" stroke-width="2" stroke-linecap="round" stroke-linejoin="round"/>
<path d="M338.246 161.986V178.68" stroke="#EFEFEF" stroke-width="2" stroke-linecap="round" stroke-linejoin="round"/>
<path d="M325.988 149.704V187.192" stroke="#EFEFEF" stroke-width="2" stroke-linecap="round" stroke-linejoin="round"/>
<path d="M301.475 148.37V185.858" stroke="#EFEFEF" stroke-width="2" stroke-linecap="round" stroke-linejoin="round"/>
<path d="M381.145 165.015V194.337" stroke="#EFEFEF" stroke-width="2" stroke-linecap="round" stroke-linejoin="round"/>
<path d="M295.346 159.269V188.591" stroke="#EFEFEF" stroke-width="2" stroke-linecap="round" stroke-linejoin="round"/>
<path d="M460.814 156.438V173.165" stroke="#EFEFEF" stroke-width="2" stroke-linecap="round" stroke-linejoin="round"/>
<path d="M479.201 158.759V175.486" stroke="#EFEFEF" stroke-width="2" stroke-linecap="round" stroke-linejoin="round"/>
<path d="M289.219 158.364V175.091" stroke="#EFEFEF" stroke-width="2" stroke-linecap="round" stroke-linejoin="round"/>
<path d="M466.945 159.352V196.84" stroke="#EFEFEF" stroke-width="2" stroke-linecap="round" stroke-linejoin="round"/>
<path d="M454.688 144.551V182.039" stroke="#EFEFEF" stroke-width="2" stroke-linecap="round" stroke-linejoin="round"/>
<path d="M448.559 155.45V184.772" stroke="#EFEFEF" stroke-width="2" stroke-linecap="round" stroke-linejoin="round"/>
<path d="M375.018 132.5V184.607" stroke="#EFEFEF" stroke-width="2" stroke-linecap="round" stroke-linejoin="round"/>
<path d="M362.76 147.975V176.951" stroke="#EFEFEF" stroke-width="2" stroke-linecap="round" stroke-linejoin="round"/>
<path d="M43.8984 320.182V303.224" stroke="#EFEFEF" stroke-width="2" stroke-linecap="round" stroke-linejoin="round"/>
<path d="M37.7715 346.343V283.698" stroke="#EFEFEF" stroke-width="2" stroke-linecap="round" stroke-linejoin="round"/>
<path d="M74.541 344.597V281.953" stroke="#EFEFEF" stroke-width="2" stroke-linecap="round" stroke-linejoin="round"/>
<path d="M56.1562 323.491V306.764" stroke="#EFEFEF" stroke-width="2" stroke-linecap="round" stroke-linejoin="round"/>
<path d="M172.598 323.491V306.764" stroke="#EFEFEF" stroke-width="2" stroke-linecap="round" stroke-linejoin="round"/>
<path d="M62.2852 327.426V299.931" stroke="#EFEFEF" stroke-width="2" stroke-linecap="round" stroke-linejoin="round"/>
<path d="M50.0273 323.573V296.062" stroke="#EFEFEF" stroke-width="2" stroke-linecap="round" stroke-linejoin="round"/>
<path d="M68.4121 362.016V308.394" stroke="#EFEFEF" stroke-width="2" stroke-linecap="round" stroke-linejoin="round"/>
<path d="M80.6699 323.491V306.797" stroke="#EFEFEF" stroke-width="2" stroke-linecap="round" stroke-linejoin="round"/>
<path d="M86.7988 335.773V298.285" stroke="#EFEFEF" stroke-width="2" stroke-linecap="round" stroke-linejoin="round"/>
<path d="M135.826 320.462V292.967" stroke="#EFEFEF" stroke-width="2" stroke-linecap="round" stroke-linejoin="round"/>
<path d="M148.084 340.234V286.612" stroke="#EFEFEF" stroke-width="2" stroke-linecap="round" stroke-linejoin="round"/>
<path d="M160.34 313.234V296.54" stroke="#EFEFEF" stroke-width="2" stroke-linecap="round" stroke-linejoin="round"/>
<path d="M7.12891 315.062V298.367" stroke="#EFEFEF" stroke-width="2" stroke-linecap="round" stroke-linejoin="round"/>
<path d="M166.469 320.577V283.089" stroke="#EFEFEF" stroke-width="2" stroke-linecap="round" stroke-linejoin="round"/>
<path d="M111.312 321.762V305.052" stroke="#EFEFEF" stroke-width="2" stroke-linecap="round" stroke-linejoin="round"/>
<path d="M123.568 324.067V296.556" stroke="#EFEFEF" stroke-width="2" stroke-linecap="round" stroke-linejoin="round"/>
<path d="M92.9277 327.162V299.651" stroke="#EFEFEF" stroke-width="2" stroke-linecap="round" stroke-linejoin="round"/>
<path d="M129.697 335.608V281.986" stroke="#EFEFEF" stroke-width="2" stroke-linecap="round" stroke-linejoin="round"/>
<path d="M141.955 321.762V305.068" stroke="#EFEFEF" stroke-width="2" stroke-linecap="round" stroke-linejoin="round"/>
<path d="M154.213 334.044V296.556" stroke="#EFEFEF" stroke-width="2" stroke-linecap="round" stroke-linejoin="round"/>
<path d="M178.727 335.378V297.89" stroke="#EFEFEF" stroke-width="2" stroke-linecap="round" stroke-linejoin="round"/>
<path d="M99.0566 318.733V289.411" stroke="#EFEFEF" stroke-width="2" stroke-linecap="round" stroke-linejoin="round"/>
<path d="M184.855 324.479V295.157" stroke="#EFEFEF" stroke-width="2" stroke-linecap="round" stroke-linejoin="round"/>
<path d="M19.3848 327.31V310.583" stroke="#EFEFEF" stroke-width="2" stroke-linecap="round" stroke-linejoin="round"/>
<path d="M1 324.989V308.262" stroke="#EFEFEF" stroke-width="2" stroke-linecap="round" stroke-linejoin="round"/>
<path d="M190.982 325.384V308.657" stroke="#EFEFEF" stroke-width="2" stroke-linecap="round" stroke-linejoin="round"/>
<path d="M13.2559 324.396V286.909" stroke="#EFEFEF" stroke-width="2" stroke-linecap="round" stroke-linejoin="round"/>
<path d="M25.5137 339.197V301.709" stroke="#EFEFEF" stroke-width="2" stroke-linecap="round" stroke-linejoin="round"/>
<path d="M31.6426 328.298V298.976" stroke="#EFEFEF" stroke-width="2" stroke-linecap="round" stroke-linejoin="round"/>
<path d="M105.184 351.249V299.141" stroke="#EFEFEF" stroke-width="2" stroke-linecap="round" stroke-linejoin="round"/>
<path d="M117.441 335.773V306.797" stroke="#EFEFEF" stroke-width="2" stroke-linecap="round" stroke-linejoin="round"/>
<path d="M147.076 256.433L139.25 291.007L135 343.345C135 343.345 149.283 354.952 165.774 347.774C182.265 340.595 199.893 282.643 199.893 282.643" fill="#EFEFEF"/>
<path d="M147.076 256.433L139.25 291.007L135 343.345C135 343.345 149.283 354.952 165.774 347.774C182.265 340.595 199.893 282.643 199.893 282.643" stroke="#55626F" stroke-linecap="round" stroke-linejoin="round"/>
<path d="M139.25 272.897C142.532 273.954 145.732 275.253 148.822 276.782C156.779 280.635 167.899 287.599 175.033 298.629C181.408 308.508 184.604 321.679 179.497 338.653H196.763L201.293 203.157L176.186 172.567C164.654 179.153 155.198 195.073 152.067 213.117C148.937 231.161 139.25 272.897 139.25 272.897Z" fill="#57A8F3"/>
<path d="M139.25 272.897C142.532 273.954 145.732 275.253 148.822 276.782C156.779 280.635 167.899 287.599 175.033 298.629C181.408 308.508 184.604 321.679 179.497 338.653H196.763L201.293 203.157L176.186 172.567C164.654 179.153 155.198 195.073 152.067 213.117C148.937 231.161 139.25 272.897 139.25 272.897Z" stroke="#55626F" stroke-linecap="round" stroke-linejoin="round"/>
<path d="M152.15 299.387C138.592 276.618 109.136 259.973 89.7288 234.174C82.0682 224.016 89.2675 200.836 64.177 190.151C64.177 190.151 58.8887 191.929 56.8129 215.85C56.0872 226.229 58.4794 236.589 63.6828 245.6C93.0402 290.991 102.593 333.13 140.187 346.4" fill="#EFEFEF"/>
<path d="M152.15 299.387C138.592 276.618 109.136 259.973 89.7288 234.174C82.0682 224.016 89.2675 200.836 64.177 190.151C64.177 190.151 58.8887 191.929 56.8129 215.85C56.0872 226.229 58.4794 236.589 63.6828 245.6C93.0402 290.991 102.593 333.13 140.187 346.4" stroke="#55626F" stroke-linecap="round" stroke-linejoin="round"/>
<path d="M151.843 400.766C219.422 400.766 263.729 400.766 322.805 400.766C325.045 399.828 329.12 401.587 331.755 400.319C332.332 395.38 336.717 375.72 337.574 370.781C340.654 352.901 342.941 337.237 347.867 319.291C365 256.828 385.165 197.46 351.853 164.533C351.853 164.533 340.634 154.852 299.58 143.015C299.58 143.015 299.069 133.137 271.738 135.195C227.883 138.487 215.857 151.658 215.857 151.658C190.322 159.594 176.318 172.715 176.318 172.715L166.763 210.401C163.122 227.441 159.926 247.164 160.272 262.558C160.898 292.472 154.215 373.848 151.843 400.766Z" fill="#57A8F3"/>
<path d="M163.088 199.963C163.088 199.963 156.202 226.074 161.836 237.945" stroke="#55626F" stroke-linecap="round" stroke-linejoin="round"/>
<path d="M331.754 400.319C341.639 316.173 397.405 209.479 351.853 164.451C351.853 164.451 340.634 154.77 299.58 142.933C299.58 142.933 299.069 133.054 271.738 135.112C227.883 138.405 215.857 151.576 215.857 151.576C190.321 159.512 176.318 172.633 176.318 172.633" stroke="#55626F" stroke-linecap="round" stroke-linejoin="round"/>
<path d="M166.713 210.253C163.072 227.293 159.876 247.016 160.222 262.41C160.897 292.472 153.767 373.848 151.395 400.766" stroke="#55626F" stroke-linecap="round" stroke-linejoin="round"/>
<path d="M293.369 153.601C293.369 153.601 273.979 177.654 244.061 177.654C214.144 177.654 213.007 164.846 213.007 164.846" stroke="#55626F" stroke-linecap="round" stroke-linejoin="round"/>
<path d="M196.548 259.594C216.531 293.542 247.833 324.823 287.141 335.409" stroke="#55626F" stroke-linecap="round" stroke-linejoin="round"/>
<path d="M186.335 242.867C188.279 246.44 190.388 249.93 192.529 253.371" stroke="#55626F" stroke-linecap="round" stroke-linejoin="round"/>
<path d="M290.914 357.142C288.146 360.006 285.181 362.706 282.166 365.373" stroke="#55626F" stroke-linecap="round" stroke-linejoin="round"/>
<path d="M223.88 143.196C224.091 149.024 223.683 154.857 222.661 160.598C258.707 181.194 290.914 139.294 290.914 139.294C290.914 139.294 280.7 128.51 278.855 103.387C278.295 95.7149 287.257 63.6601 287.257 63.6601C287.257 63.6601 256.993 61.9149 240.436 81.2104C235.432 87.1801 231.019 93.62 227.257 100.44C222.347 109.214 218.208 118.397 214.885 127.885C221.326 128.51 223.451 135.722 223.88 143.196Z" fill="#EFEFEF" stroke="#55626F" stroke-linecap="round" stroke-linejoin="round"/>
<path d="M214.885 127.885C221.343 128.51 223.468 135.722 223.897 143.196C258.773 134.487 261.244 108.013 261.244 108.013L227.257 100.44C222.348 109.214 218.208 118.397 214.885 127.885Z" fill="#55626F"/>
<path d="M192.776 14.9111C192.776 14.9111 187.339 47.8385 198.08 64.9772C208.822 82.1158 223.418 11.8818 223.418 11.8818L192.776 14.9111Z" fill="#FCA14D"/>
<path d="M283.205 89.2447C286.164 85.3515 288.396 80.9566 289.794 76.2713C297.867 48.2831 294.144 7.38733 255.033 2.51409C229.844 -0.630475 199.663 17.068 192.562 51.51C190.816 59.9723 192.892 71.2664 192.892 71.2664C192.892 71.2664 191.887 83.7458 193.386 90.0185C199.218 114.237 209.103 135.656 214.358 136.479C236.879 139.986 259.234 124.954 261.64 120.015C262.813 117.747 263.794 115.384 264.572 112.952" fill="#EFEFEF"/>
<path d="M283.205 89.2447C286.164 85.3515 288.396 80.9566 289.794 76.2713C297.867 48.2831 294.144 7.38733 255.033 2.51409C229.844 -0.630475 199.663 17.068 192.562 51.51C190.816 59.9723 192.892 71.2664 192.892 71.2664C192.892 71.2664 191.887 83.7458 193.386 90.0185C199.218 114.237 209.103 135.656 214.358 136.479C236.879 139.986 259.234 124.954 261.64 120.015C262.813 117.747 263.794 115.384 264.572 112.952" stroke="#55626F" stroke-linecap="round" stroke-linejoin="round"/>
<path d="M225.213 60.6142C225.213 60.6142 240.189 57.7989 246.416 63.2154" stroke="#55626F" stroke-linecap="round" stroke-linejoin="round"/>
<path d="M206.021 58.2434C206.021 58.2434 196.483 54.9506 191.656 59.5605" stroke="#55626F" stroke-linecap="round" stroke-linejoin="round"/>
<path d="M209.859 63.3801C209.859 63.3801 211.078 73.2583 210.172 77.2096C209.266 81.1609 205.757 91.6482 205.23 96.044C204.373 103.074 220.485 99.1721 220.848 96.1757" stroke="#55626F" stroke-linecap="round" stroke-linejoin="round"/>
<path d="M233.137 76.2218C232.94 77.8682 233.73 79.2347 234.884 79.3828C236.037 79.531 237.141 78.3292 237.338 76.7322C237.536 75.1352 236.762 73.7193 235.691 73.5712C234.62 73.423 233.335 74.5754 233.137 76.2218Z" fill="#55626F"/>
<path d="M201.096 73.4561C200.899 75.1025 201.689 76.4689 202.843 76.6171C203.996 76.7653 205.1 75.5799 205.297 73.9665C205.495 72.353 204.721 70.9536 203.551 70.8219C202.381 70.6902 201.294 71.8591 201.096 73.4561Z" fill="#55626F"/>
<path d="M211.589 108.013C218.78 109.286 226.103 109.645 233.385 109.083C233.385 109.083 230.205 117.611 222.973 118.55C211.721 120.015 214.011 110.647 214.011 110.647" stroke="#55626F" stroke-linecap="round" stroke-linejoin="round"/>
<path d="M267.174 75.2011L258.673 72.4352C258.673 72.4352 261.292 58.6551 251.292 48.4477L255.79 30.1236C255.79 30.1236 213.648 17.9075 194.835 32.7742L192.742 14.9605C192.742 14.9605 211.672 -5.83307 259.777 1.6085C307.882 9.05008 298.821 76.2218 281.095 101.428L271.671 92.1916L267.174 75.2011Z" fill="#FCA14D"/>
<path d="M263.534 75.8762C263.534 75.8762 268.164 63.051 272.546 63.051C276.928 63.051 282.579 67.3316 281.574 72.2871C280.877 75.726 280.304 82.3573 279.392 87.0589C278.78 90.2182 276.463 92.5185 273.901 94.4667C272.018 95.8988 270.128 97.5646 269.482 98.7937C268.279 101.082 264.638 99.2052 265.116 97.032" fill="#EFEFEF"/>
<path d="M263.534 75.8762C263.534 75.8762 268.164 63.051 272.546 63.051C276.928 63.051 282.579 67.3316 281.574 72.2871C280.877 75.726 280.304 82.3573 279.392 87.0589C278.78 90.2182 276.463 92.5185 273.901 94.4667C272.018 95.8988 270.128 97.5646 269.482 98.7937C268.279 101.082 264.638 99.2052 265.116 97.032" stroke="#55626F" stroke-linecap="round" stroke-linejoin="round"/>
<path d="M90.9321 226.65L113.815 226.552C116.187 226.387 119.252 221.316 118.313 219.127L88.0326 149.271C87.4358 147.894 86.4257 146.736 85.1419 145.958C83.8582 145.179 82.3641 144.818 80.8663 144.925L56.3853 147.641C54.0295 147.806 49.4166 152.251 50.3557 154.424L83.7822 222.304C84.3782 223.678 85.3857 224.834 86.6661 225.612C87.9466 226.391 89.437 226.753 90.9321 226.65Z" fill="#EFEFEF" stroke="#55626F" stroke-miterlimit="10"/>
<path d="M88.1307 229.564L112.612 226.848C113.16 226.806 113.69 226.634 114.159 226.346C114.627 226.058 115.02 225.663 115.306 225.193C115.591 224.723 115.759 224.192 115.798 223.644C115.837 223.095 115.744 222.546 115.528 222.041L85.2147 152.169C84.6193 150.792 83.6089 149.635 82.3244 148.859C81.0399 148.082 79.5452 147.726 78.0484 147.839L53.5839 150.555C53.0361 150.595 52.5057 150.765 52.037 151.05C51.5683 151.336 51.1748 151.73 50.8894 152.199C50.604 152.668 50.4351 153.198 50.3965 153.746C50.358 154.293 50.451 154.842 50.6679 155.346L80.9644 225.218C81.5632 226.594 82.5737 227.75 83.857 228.528C85.1402 229.307 86.6332 229.669 88.1307 229.564Z" fill="#55626F"/>
<mask id="mask0_5133_24995" style="mask-type:luminance" maskUnits="userSpaceOnUse" x="50" y="147" width="66" height="83">
<path d="M88.1307 229.564L112.612 226.848C113.16 226.806 113.69 226.634 114.159 226.346C114.627 226.058 115.02 225.663 115.306 225.193C115.591 224.723 115.759 224.192 115.798 223.644C115.837 223.095 115.744 222.546 115.528 222.041L85.2147 152.169C84.6193 150.792 83.6089 149.635 82.3244 148.859C81.0399 148.082 79.5452 147.726 78.0484 147.839L53.5839 150.555C53.0361 150.595 52.5057 150.765 52.037 151.05C51.5683 151.336 51.1748 151.73 50.8894 152.199C50.604 152.668 50.4351 153.198 50.3965 153.746C50.358 154.293 50.451 154.842 50.6679 155.346L80.9644 225.218C81.5632 226.594 82.5737 227.75 83.857 228.528C85.1402 229.307 86.6332 229.669 88.1307 229.564Z" fill="white"/>
</mask>
<g mask="url(#mask0_5133_24995)">
<path d="M88.1307 229.564L112.612 226.848C113.16 226.806 113.69 226.634 114.159 226.346C114.627 226.058 115.02 225.663 115.306 225.193C115.591 224.723 115.759 224.192 115.798 223.644C115.837 223.095 115.744 222.546 115.528 222.041L85.2147 152.169C84.6193 150.792 83.6089 149.635 82.3244 148.859C81.0399 148.082 79.5452 147.726 78.0484 147.839L53.5839 150.555C53.0361 150.595 52.5057 150.765 52.037 151.05C51.5683 151.336 51.1748 151.73 50.8894 152.199C50.604 152.668 50.4351 153.198 50.3965 153.746C50.358 154.293 50.451 154.842 50.6679 155.346L80.9644 225.218C81.5632 226.594 82.5737 227.75 83.857 228.528C85.1402 229.307 86.6332 229.669 88.1307 229.564Z" fill="#55626F"/>
</g>
<path d="M88.1307 229.564L112.612 226.848C113.16 226.806 113.69 226.634 114.159 226.346C114.627 226.058 115.02 225.663 115.306 225.193C115.591 224.723 115.759 224.192 115.798 223.644C115.837 223.095 115.744 222.546 115.528 222.041L85.2147 152.169C84.6193 150.792 83.6089 149.635 82.3244 148.859C81.0399 148.082 79.5452 147.726 78.0484 147.839L53.5839 150.555C53.0361 150.595 52.5057 150.765 52.037 151.05C51.5683 151.336 51.1748 151.73 50.8894 152.199C50.604 152.668 50.435 153.198 50.3965 153.746C50.358 154.293 50.451 154.842 50.6679 155.346L80.9644 225.218C81.5632 226.594 82.5737 227.75 83.857 228.528C85.1402 229.307 86.6332 229.669 88.1307 229.564Z" stroke="#55626F" stroke-linecap="round" stroke-linejoin="round"/>
<path d="M81.5741 168.221L85.528 167.776C85.6168 167.771 85.7031 167.745 85.7792 167.699C85.8553 167.652 85.9189 167.588 85.9644 167.512C86.0099 167.436 86.036 167.349 86.0404 167.26C86.0447 167.172 86.0271 167.083 85.9892 167.003L81.0469 155.741C80.9518 155.519 80.7898 155.331 80.5832 155.204C80.3766 155.077 80.1356 155.018 79.8937 155.034L75.9399 155.478C75.8512 155.484 75.7653 155.512 75.6892 155.558C75.6131 155.604 75.5491 155.667 75.5024 155.743C75.4557 155.818 75.4277 155.904 75.4207 155.992C75.4137 156.081 75.4279 156.17 75.4621 156.252L80.4044 167.513C80.5004 167.739 80.665 167.929 80.8749 168.056C81.0849 168.183 81.3295 168.241 81.5741 168.221Z" fill="white" stroke="#55626F" stroke-linecap="round" stroke-linejoin="round"/>
<path d="M61.673 215.044C57.3896 205.264 61.4917 187.055 67.5873 184.981C73.6828 182.907 97.1259 191.007 97.1259 191.007C106.072 193.789 104.177 199.963 104.177 199.963C109.35 201.329 111.788 204.721 110.437 207.125C108.938 209.825 102.348 209.841 102.348 209.841C102.348 209.841 110.025 212.278 109.235 215.011C107.373 221.464 93.0897 218.583 93.0897 218.583C93.0897 218.583 101.558 220.822 101.459 221.876C100.767 228.462 87.1919 225.613 87.1919 225.613L80.6021 232.363C80.9227 233.296 81.0479 234.285 80.97 235.268C80.8921 236.251 80.6127 237.208 80.1492 238.079C79.6857 238.95 79.048 239.716 78.2757 240.33C77.5034 240.944 76.613 241.393 75.6598 241.649" fill="#EFEFEF"/>
<path d="M61.673 215.044C57.3896 205.264 61.4917 187.055 67.5873 184.981C73.6828 182.907 97.1259 191.007 97.1259 191.007C106.072 193.789 104.177 199.963 104.177 199.963C109.35 201.329 111.788 204.721 110.437 207.125C108.938 209.825 102.348 209.841 102.348 209.841C102.348 209.841 110.025 212.278 109.235 215.011C107.373 221.464 93.0897 218.583 93.0897 218.583C93.0897 218.583 101.558 220.822 101.459 221.876C100.767 228.462 87.1919 225.613 87.1919 225.613L80.6021 232.363C80.9227 233.296 81.0479 234.285 80.97 235.268C80.8921 236.251 80.6127 237.208 80.1492 238.079C79.6857 238.95 79.048 239.716 78.2757 240.33C77.5034 240.944 76.613 241.393 75.6598 241.649" stroke="#55626F" stroke-linecap="round" stroke-linejoin="round"/>
<path d="M104.127 199.963C104.127 199.963 82.9244 194.563 80.6344 195.024C78.3445 195.485 69.6789 196.423 69.6789 196.423" stroke="#55626F" stroke-linecap="round" stroke-linejoin="round"/>
<path d="M102.299 209.841C102.299 209.841 85.6926 207.306 83.1061 208.195C79.0729 209.065 74.9908 209.692 70.8821 210.071" stroke="#55626F" stroke-linecap="round" stroke-linejoin="round"/>
<path d="M92.9727 218.583C90.9225 217.96 88.8226 217.514 86.6959 217.25C85.0485 217.25 76.5641 220.658 76.5641 220.658" stroke="#55626F" stroke-linecap="round" stroke-linejoin="round"/>
<path d="M378.706 290.991C375.807 297.774 373.55 304.458 359.86 306.4C346.169 308.343 311.771 286.529 322.463 254.03C333.155 221.53 368.954 246.407 375.181 260.039C381.408 273.671 381.276 285.014 378.706 290.991Z" fill="#55626F" stroke="#55626F" stroke-linecap="round" stroke-linejoin="round"/>
<path d="M332.594 234.767L315.214 294.579L359.612 345.287C359.612 345.287 374.192 337.665 377.471 275.646" fill="#EFEFEF"/>
<path d="M332.594 234.767L315.214 294.579L359.612 345.287C359.612 345.287 374.192 337.665 377.471 275.646" stroke="#55626F" stroke-linecap="round" stroke-linejoin="round"/>
<path d="M351.853 164.451C351.853 164.451 373.665 177.177 377.471 196.802C381.276 216.426 384.703 271.399 378.706 290.99C378.706 290.99 372.808 272.782 361.392 262.41C349.975 252.037 322.463 254.03 322.463 254.03L328.229 228.297C328.229 228.297 328.36 203.206 352.199 183.845" fill="#57A8F3"/>
<path d="M351.853 164.451C351.853 164.451 373.665 177.177 377.471 196.802C381.276 216.426 384.703 271.399 378.706 290.99C378.706 290.99 372.808 272.782 361.392 262.41C349.975 252.037 322.463 254.03 322.463 254.03L328.229 228.297C328.229 228.297 328.36 203.206 352.199 183.845" stroke="#55626F" stroke-linecap="round" stroke-linejoin="round"/>
<path d="M366.449 334.948C359.069 354.063 338.047 358.343 309.975 329.318C296.598 315.488 249.333 198.185 249.333 198.185L273.435 183.729C273.435 183.729 316.416 251.428 336.466 269.637C341.999 274.667 347.077 280.176 351.639 286.101" fill="#EFEFEF"/>
<path d="M366.449 334.948C359.069 354.063 338.047 358.343 309.975 329.318C296.598 315.488 249.333 198.185 249.333 198.185L273.435 183.729C273.435 183.729 316.416 251.428 336.466 269.637C341.999 274.667 347.077 280.176 351.639 286.101" stroke="#55626F" stroke-linecap="round" stroke-linejoin="round"/>
<path d="M256.959 129.63C256.959 129.63 250.452 113.413 246.976 112.178C243.5 110.944 242.594 112.475 242.396 115.471C242.198 118.468 249.678 145.649 249.678 145.649L262.445 153.601L256.959 129.63Z" fill="#EFEFEF" stroke="#55626F" stroke-linecap="round" stroke-linejoin="round"/>
<path d="M250.65 201.346C246.33 198.38 242.362 194.934 238.821 191.073C231.325 183.417 232.149 164.945 230.847 164.862C225.032 164.55 225.098 150.769 227.091 145.649C229.085 140.529 230.847 140.891 230.847 140.891C232.89 133.532 238.821 133.532 238.821 133.532C238.821 133.532 241.325 128.593 244.933 129.696C248.913 131.243 252.768 133.093 256.465 135.228L254.439 123.094C254.439 123.094 249.958 113.084 248.327 108.079C246.696 103.074 250.93 102.317 250.93 102.317C250.93 102.317 261.473 115.241 263.434 118.501C265.394 121.76 269.183 137.516 269.183 137.516L273.961 188.405" fill="#EFEFEF"/>
<path d="M250.65 201.346C246.33 198.38 242.362 194.934 238.821 191.073C231.325 183.417 232.149 164.945 230.847 164.862C225.032 164.55 225.098 150.769 227.091 145.649C229.085 140.529 230.847 140.891 230.847 140.891C232.89 133.532 238.821 133.532 238.821 133.532C238.821 133.532 241.325 128.593 244.933 129.696C248.913 131.243 252.768 133.093 256.465 135.228L254.439 123.094C254.439 123.094 249.958 113.084 248.327 108.079C246.696 103.074 250.93 102.317 250.93 102.317C250.93 102.317 261.473 115.241 263.434 118.501C265.394 121.76 269.183 137.516 269.183 137.516L273.961 188.405" stroke="#55626F" stroke-linecap="round" stroke-linejoin="round"/>
<path d="M238.822 133.565L249.35 140.265" stroke="#55626F" stroke-linecap="round" stroke-linejoin="round"/>
<path d="M230.848 140.924C233.5 139.179 240.881 145.682 240.881 145.682" stroke="#55626F" stroke-linecap="round" stroke-linejoin="round"/>
<path d="M230.848 164.895L232.891 154.589C232.123 154.663 231.389 154.945 230.768 155.403C230.147 155.861 229.662 156.478 229.365 157.19" stroke="#55626F" stroke-linecap="round" stroke-linejoin="round"/>
<path d="M336.119 190.151C331.622 198.228 329.567 207.436 330.205 216.657" stroke="#55626F" stroke-linecap="round" stroke-linejoin="round"/>
<path d="M15.3203 401H458.39" stroke="#55626F" stroke-linecap="round" stroke-linejoin="round"/>
<path d="M66.627 128.277C66.6251 129.672 67.1184 131.021 68.0156 132.073C64.9234 130.992 61.5709 130.969 58.4643 132.005C55.8908 132.893 53.1573 133.192 50.458 132.88C47.7586 132.568 45.1596 131.654 42.8455 130.201C40.5314 128.748 38.5588 126.793 37.0679 124.475C35.577 122.156 34.6043 119.531 34.2189 116.785C33.8264 114.203 33.9628 111.566 34.6197 109.04C35.2766 106.515 36.4395 104.156 38.0351 102.113C39.6306 100.07 41.624 98.387 43.8892 97.1708C46.1544 95.9545 48.6421 95.2314 51.195 95.0471C53.748 94.8627 56.3106 95.2212 58.7209 96.0999C61.1312 96.9786 63.3367 98.3583 65.198 100.152C67.0592 101.945 68.5358 104.114 69.5342 106.52C70.5326 108.926 71.0312 111.517 70.9985 114.13C71.0051 117.998 69.84 121.774 67.6629 124.939C66.9924 125.918 66.6309 127.083 66.627 128.277Z" fill="#EFEFEF"/>
<path d="M95.373 118.277C95.3749 119.672 94.8816 121.021 93.9844 122.073C97.0766 120.992 100.429 120.969 103.536 122.005C106.109 122.893 108.843 123.192 111.542 122.88C114.241 122.568 116.84 121.654 119.155 120.201C121.469 118.748 123.441 116.793 124.932 114.475C126.423 112.156 127.396 109.531 127.781 106.785C128.174 104.203 128.037 101.566 127.38 99.0405C126.723 96.515 125.56 94.1561 123.965 92.113C122.369 90.0699 120.376 88.387 118.111 87.1708C115.846 85.9545 113.358 85.2314 110.805 85.0471C108.252 84.8627 105.689 85.2212 103.279 86.0999C100.869 86.9786 98.6633 88.3583 96.802 90.1518C94.9408 91.9454 93.4642 94.1137 92.4658 96.5197C91.4674 98.9257 90.9688 101.517 91.0015 104.13C90.9949 107.998 92.16 111.774 94.3371 114.939C95.0076 115.918 95.3691 117.083 95.373 118.277Z" fill="#EFEFEF"/>
<path d="M115.373 166.277C115.375 167.672 114.882 169.021 113.984 170.073C117.077 168.992 120.429 168.969 123.536 170.005C126.109 170.893 128.843 171.192 131.542 170.88C134.241 170.568 136.84 169.654 139.155 168.201C141.469 166.748 143.441 164.793 144.932 162.475C146.423 160.156 147.396 157.531 147.781 154.785C148.174 152.203 148.037 149.566 147.38 147.04C146.723 144.515 145.56 142.156 143.965 140.113C142.369 138.07 140.376 136.387 138.111 135.171C135.846 133.955 133.358 133.231 130.805 133.047C128.252 132.863 125.689 133.221 123.279 134.1C120.869 134.979 118.663 136.358 116.802 138.152C114.941 139.945 113.464 142.114 112.466 144.52C111.467 146.926 110.969 149.517 111.002 152.13C110.995 155.998 112.16 159.774 114.337 162.939C115.008 163.918 115.369 165.083 115.373 166.277Z" fill="#EFEFEF"/>
<path d="M53.0135 122V109.24L50.3035 110.87V109.22L53.0135 107.6H54.5035V122H53.0135Z" fill="#55626F"/>
<path d="M105.297 111.99L105.307 110.65L111.817 104.77C112.377 104.263 112.747 103.783 112.927 103.33C113.114 102.87 113.207 102.39 113.207 101.89C113.207 101.297 113.067 100.76 112.787 100.28C112.507 99.8 112.13 99.42 111.657 99.14C111.184 98.8533 110.654 98.71 110.067 98.71C109.454 98.71 108.907 98.8567 108.427 99.15C107.947 99.4433 107.567 99.83 107.287 100.31C107.014 100.79 106.88 101.313 106.887 101.88H105.387C105.387 101.007 105.594 100.223 106.007 99.53C106.42 98.8367 106.98 98.2933 107.687 97.9C108.394 97.5 109.194 97.3 110.087 97.3C110.96 97.3 111.744 97.5067 112.437 97.92C113.137 98.3267 113.687 98.88 114.087 99.58C114.494 100.273 114.697 101.047 114.697 101.9C114.697 102.5 114.624 103.03 114.477 103.49C114.337 103.943 114.114 104.367 113.807 104.76C113.507 105.147 113.124 105.547 112.657 105.96L106.877 111.18L106.647 110.58H114.697V111.99H105.297Z" fill="#55626F"/>
<path d="M129.743 160.29C129.029 160.29 128.373 160.163 127.773 159.91C127.173 159.657 126.656 159.297 126.223 158.83C125.789 158.357 125.473 157.793 125.273 157.14L126.673 156.72C126.913 157.433 127.306 157.973 127.853 158.34C128.406 158.707 129.029 158.883 129.723 158.87C130.363 158.857 130.913 158.713 131.373 158.44C131.839 158.167 132.196 157.787 132.443 157.3C132.689 156.813 132.813 156.25 132.813 155.61C132.813 154.63 132.526 153.843 131.953 153.25C131.386 152.65 130.636 152.35 129.703 152.35C129.443 152.35 129.169 152.387 128.883 152.46C128.596 152.527 128.329 152.623 128.083 152.75L127.343 151.58L132.943 146.41L133.183 147.01H125.843V145.6H134.163V147.03L129.283 151.69L129.263 151.11C130.263 150.983 131.143 151.097 131.903 151.45C132.663 151.803 133.256 152.343 133.683 153.07C134.116 153.79 134.333 154.637 134.333 155.61C134.333 156.53 134.133 157.343 133.733 158.05C133.339 158.75 132.796 159.3 132.103 159.7C131.409 160.093 130.623 160.29 129.743 160.29Z" fill="#55626F"/>
</svg>
