<svg width="104" height="54" viewBox="0 0 104 54" fill="none" xmlns="http://www.w3.org/2000/svg">
<path d="M104 16.7481C104 15.521 102.987 14.5263 101.743 14.5263C100.496 14.5263 99.4832 15.521 99.4832 16.7481V21.4217C99.4832 22.6554 100.496 23.6505 101.743 23.6505C102.987 23.6505 104 22.6554 104 21.4217V16.7481ZM91.584 10.6141C91.584 9.38745 90.5739 8.39088 89.2989 8.39088C88.0519 8.39088 87.0417 9.38745 87.0417 10.6141V21.4217C87.0417 22.6554 88.0519 23.6505 89.2989 23.6505C90.5739 23.6505 91.584 22.6554 91.584 21.4217V10.6141ZM79.1426 2.22223C79.1426 0.995143 78.1324 1.44218e-06 76.8859 1.44218e-06C75.6388 1.44218e-06 74.6287 0.995143 74.6287 2.22223V25.8628C74.6287 27.097 75.6388 28.0917 76.8859 28.0917C78.1324 28.0917 79.1426 27.097 79.1426 25.8628V2.22223ZM66.6982 10.6141C66.6982 9.38745 65.6885 8.39088 64.4415 8.39088C63.1973 8.39088 62.1843 9.38745 62.1843 10.6141V21.4217C62.1843 22.6554 63.1973 23.6505 64.4415 23.6505C65.6885 23.6505 66.6982 22.6554 66.6982 21.4217V10.6141ZM54.2567 16.7481C54.2567 15.521 53.247 14.5263 52.0072 14.5263C50.7602 14.5263 49.7433 15.521 49.7433 16.7481V21.4217C49.7433 22.6554 50.7602 23.6505 52.0072 23.6505C53.247 23.6505 54.2567 22.6554 54.2567 21.4217V16.7481ZM41.8354 10.6141C41.8354 9.38745 40.8181 8.39088 39.5715 8.39088C38.3245 8.39088 37.3071 9.38745 37.3071 10.6141V21.4217C37.3071 22.6554 38.3245 23.6505 39.5715 23.6505C40.8181 23.6505 41.8354 22.6554 41.8354 21.4217V10.6141ZM29.3997 2.22223C29.3997 0.995143 28.3824 1.44218e-06 27.1353 1.44218e-06C25.8888 1.44218e-06 24.8714 0.995143 24.8714 2.22223V25.8628C24.8714 27.097 25.8888 28.0917 27.1353 28.0917C28.3824 28.0917 29.3997 27.097 29.3997 25.8628V2.22223ZM16.9636 10.6141C16.9636 9.38745 15.9467 8.39088 14.6996 8.39088C13.4526 8.39088 12.4357 9.38745 12.4357 10.6141V21.4217C12.4357 22.6554 13.4526 23.6505 14.6996 23.6505C15.9467 23.6505 16.9636 22.6554 16.9636 21.4217V10.6141ZM4.52786 16.7481C4.52786 15.521 3.51096 14.5263 2.26392 14.5263C1.01833 14.5263 0 15.521 0 16.7481V21.4217C0 22.6554 1.01833 23.6505 2.26392 23.6505C3.51096 23.6505 4.52786 22.6554 4.52786 21.4217V16.7481ZM51.2682 36.1268C51.1324 36.0903 49.0432 35.5595 46.8231 35.5595C42.6198 35.5595 40.0891 37.7955 40.0891 41.1253C40.0891 44.0728 42.2062 45.5427 44.747 46.3334C45.0286 46.425 45.4437 46.553 45.72 46.6432C46.851 46.9937 47.7538 47.5145 47.7538 48.4167C47.7538 49.4256 46.7104 50.0787 44.4422 50.0787C42.4489 50.0787 40.5379 49.5171 40.1353 49.417V53.5138C40.3597 53.5608 42.6309 54 45.057 54C48.5468 54 52.5388 52.4978 52.5388 48.0258C52.5388 45.8567 51.1906 43.8598 48.231 42.933L46.9729 42.5383C46.2222 42.3049 44.8823 41.9269 44.8823 40.8431C44.8823 39.9869 45.8751 39.384 47.7033 39.384C49.2806 39.384 51.2003 39.9063 51.2682 39.9271V36.1268ZM89.8064 44.78C89.8064 47.3703 87.7924 49.4659 85.0898 49.4659C82.3844 49.4659 80.3756 47.3703 80.3756 44.78C80.3756 42.1949 82.3844 40.0984 85.0898 40.0984C87.7924 40.0984 89.8064 42.1949 89.8064 44.78ZM85.0898 35.5652C79.5316 35.5652 75.5454 39.6952 75.5454 44.78C75.5454 49.8729 79.5316 54 85.0898 54C90.6476 54 94.6395 49.8729 94.6395 44.78C94.6395 39.6952 90.6476 35.5652 85.0898 35.5652ZM23.1448 36.2032C22.7163 36.0779 21.1322 35.5652 18.9867 35.5652C13.4372 35.5652 9.36337 39.4632 9.36337 44.78C9.36337 50.5161 13.8604 54 18.9867 54C21.0234 54 22.5781 53.5247 23.1448 53.3663V48.5874C22.9489 48.6946 21.4582 49.5323 19.3137 49.5323C16.2755 49.5323 14.3159 47.4258 14.3159 44.78C14.3159 42.0535 16.3603 40.0315 19.3137 40.0315C21.4948 40.0315 22.9614 40.8876 23.1448 40.982V36.2032ZM70.7441 36.2032C70.3122 36.0779 68.7267 35.5652 66.5884 35.5652C61.0307 35.5652 56.9569 39.4632 56.9569 44.78C56.9569 50.5161 61.4592 54 66.5884 54C68.614 54 70.1711 53.5247 70.7441 53.3663V48.5874C70.5438 48.6946 69.0512 49.5323 66.9071 49.5323C63.8714 49.5323 61.9137 47.4258 61.9137 44.78C61.9137 42.0535 63.959 40.0315 66.9071 40.0315C69.0878 40.0315 70.5577 40.8876 70.7441 40.982V36.2032ZM33.9738 53.6831H29.4132V35.8806H33.9738V53.6831Z" fill="#049FD9"/>
</svg>
