<svg width="540" height="373" viewBox="0 0 540 373" fill="none" xmlns="http://www.w3.org/2000/svg">
<rect width="540" height="373" rx="12" fill="white"/>
<path d="M36.12 54V42.48H45.28V54H43.608V44.056H37.792V54H36.12ZM51.3583 54.24C50.4996 54.24 49.7449 54.0533 49.0943 53.68C48.4489 53.3013 47.9449 52.776 47.5822 52.104C47.2249 51.4267 47.0463 50.6427 47.0463 49.752C47.0463 48.808 47.2223 47.9893 47.5743 47.296C47.9316 46.6027 48.4276 46.0667 49.0623 45.688C49.6969 45.3093 50.4356 45.12 51.2783 45.12C52.1583 45.12 52.9076 45.3253 53.5263 45.736C54.1449 46.1413 54.6063 46.72 54.9103 47.472C55.2196 48.224 55.3423 49.1173 55.2783 50.152H53.6063V49.544C53.5956 48.5413 53.4036 47.8 53.0303 47.32C52.6623 46.84 52.0996 46.6 51.3423 46.6C50.5049 46.6 49.8756 46.864 49.4543 47.392C49.0329 47.92 48.8223 48.6827 48.8223 49.68C48.8223 50.6293 49.0329 51.3653 49.4543 51.888C49.8756 52.4053 50.4836 52.664 51.2783 52.664C51.8009 52.664 52.2516 52.5467 52.6303 52.312C53.0143 52.072 53.3129 51.7307 53.5263 51.288L55.1663 51.808C54.8303 52.5813 54.3209 53.1813 53.6383 53.608C52.9556 54.0293 52.1956 54.24 51.3583 54.24ZM48.2783 50.152V48.848H54.4462V50.152H48.2783ZM61.1291 54.24C60.3025 54.24 59.6091 54.04 59.0491 53.64C58.4891 53.2347 58.0651 52.688 57.7771 52C57.4891 51.312 57.3451 50.536 57.3451 49.672C57.3451 48.808 57.4865 48.032 57.7691 47.344C58.0571 46.656 58.4785 46.1147 59.0331 45.72C59.5931 45.32 60.2811 45.12 61.0971 45.12C61.9078 45.12 62.6065 45.32 63.1931 45.72C63.7851 46.1147 64.2411 46.656 64.5611 47.344C64.8811 48.0267 65.0411 48.8027 65.0411 49.672C65.0411 50.536 64.8811 51.3147 64.5611 52.008C64.2465 52.696 63.7958 53.24 63.2091 53.64C62.6278 54.04 61.9345 54.24 61.1291 54.24ZM57.0651 57.84V45.36H58.5531V51.576H58.7451V57.84H57.0651ZM60.8971 52.728C61.4305 52.728 61.8705 52.592 62.2171 52.32C62.5691 52.048 62.8305 51.6827 63.0011 51.224C63.1771 50.76 63.2651 50.2427 63.2651 49.672C63.2651 49.1067 63.1771 48.5947 63.0011 48.136C62.8305 47.6773 62.5665 47.312 62.2091 47.04C61.8518 46.768 61.3958 46.632 60.8411 46.632C60.3185 46.632 59.8865 46.76 59.5451 47.016C59.2091 47.272 58.9585 47.6293 58.7931 48.088C58.6331 48.5467 58.5531 49.0747 58.5531 49.672C58.5531 50.2693 58.6331 50.7973 58.7931 51.256C58.9531 51.7147 59.2065 52.0747 59.5531 52.336C59.8998 52.5973 60.3478 52.728 60.8971 52.728ZM70.6395 54.24C69.7808 54.24 69.0262 54.0533 68.3755 53.68C67.7302 53.3013 67.2262 52.776 66.8635 52.104C66.5062 51.4267 66.3275 50.6427 66.3275 49.752C66.3275 48.808 66.5035 47.9893 66.8555 47.296C67.2128 46.6027 67.7088 46.0667 68.3435 45.688C68.9782 45.3093 69.7168 45.12 70.5595 45.12C71.4395 45.12 72.1888 45.3253 72.8075 45.736C73.4262 46.1413 73.8875 46.72 74.1915 47.472C74.5008 48.224 74.6235 49.1173 74.5595 50.152H72.8875V49.544C72.8768 48.5413 72.6848 47.8 72.3115 47.32C71.9435 46.84 71.3808 46.6 70.6235 46.6C69.7862 46.6 69.1568 46.864 68.7355 47.392C68.3142 47.92 68.1035 48.6827 68.1035 49.68C68.1035 50.6293 68.3142 51.3653 68.7355 51.888C69.1568 52.4053 69.7648 52.664 70.5595 52.664C71.0822 52.664 71.5328 52.5467 71.9115 52.312C72.2955 52.072 72.5942 51.7307 72.8075 51.288L74.4475 51.808C74.1115 52.5813 73.6022 53.1813 72.9195 53.608C72.2368 54.0293 71.4768 54.24 70.6395 54.24ZM67.5595 50.152V48.848H73.7275V50.152H67.5595ZM78.6381 54.24C77.9981 54.24 77.4621 54.1227 77.0301 53.888C76.5981 53.648 76.2701 53.3333 76.0461 52.944C75.8275 52.5493 75.7181 52.1173 75.7181 51.648C75.7181 51.2107 75.7955 50.8267 75.9501 50.496C76.1048 50.1653 76.3341 49.8853 76.6381 49.656C76.9421 49.4213 77.3155 49.232 77.7581 49.088C78.1421 48.976 78.5768 48.8773 79.0621 48.792C79.5475 48.7067 80.0568 48.6267 80.5901 48.552C81.1288 48.4773 81.6621 48.4027 82.1901 48.328L81.5821 48.664C81.5928 47.9867 81.4488 47.4853 81.1501 47.16C80.8568 46.8293 80.3501 46.664 79.6301 46.664C79.1768 46.664 78.7608 46.7707 78.3821 46.984C78.0035 47.192 77.7395 47.5387 77.5901 48.024L76.0301 47.544C76.2435 46.8027 76.6488 46.2133 77.2461 45.776C77.8488 45.3387 78.6488 45.12 79.6461 45.12C80.4195 45.12 81.0915 45.2533 81.6621 45.52C82.2381 45.7813 82.6595 46.1973 82.9261 46.768C83.0648 47.0507 83.1501 47.3493 83.1821 47.664C83.2141 47.9787 83.2301 48.3173 83.2301 48.68V54H81.7501V52.024L82.0381 52.28C81.6808 52.9413 81.2248 53.4347 80.6701 53.76C80.1208 54.08 79.4435 54.24 78.6381 54.24ZM78.9341 52.872C79.4088 52.872 79.8168 52.7893 80.1581 52.624C80.4995 52.4533 80.7741 52.2373 80.9821 51.976C81.1901 51.7147 81.3261 51.4427 81.3901 51.16C81.4808 50.904 81.5315 50.616 81.5421 50.296C81.5581 49.976 81.5661 49.72 81.5661 49.528L82.1101 49.728C81.5821 49.808 81.1021 49.88 80.6701 49.944C80.2381 50.008 79.8461 50.072 79.4941 50.136C79.1475 50.1947 78.8381 50.2667 78.5661 50.352C78.3368 50.432 78.1315 50.528 77.9501 50.64C77.7741 50.752 77.6328 50.888 77.5261 51.048C77.4248 51.208 77.3741 51.4027 77.3741 51.632C77.3741 51.856 77.4301 52.064 77.5421 52.256C77.6541 52.4427 77.8248 52.592 78.0541 52.704C78.2835 52.816 78.5768 52.872 78.9341 52.872ZM84.6675 55.92V52.656C85.1422 52.656 85.4808 52.4987 85.6835 52.184C85.8915 51.864 86.0568 51.3227 86.1795 50.56C86.2542 50.096 86.3155 49.6027 86.3635 49.08C86.4168 48.5573 86.4622 47.992 86.4995 47.384C86.5368 46.7707 86.5742 46.096 86.6115 45.36H92.8035V52.656H93.6515V55.92H92.0675V54H86.2595V55.92H84.6675ZM87.0595 52.656H91.1235V46.704H88.0995C88.0782 47.056 88.0542 47.4187 88.0275 47.792C88.0062 48.1653 87.9795 48.536 87.9475 48.904C87.9208 49.272 87.8888 49.624 87.8515 49.96C87.8142 50.296 87.7715 50.6 87.7235 50.872C87.6595 51.2933 87.5822 51.6453 87.4915 51.928C87.4062 52.2107 87.2622 52.4533 87.0595 52.656ZM99.301 54.24C98.4743 54.24 97.781 54.04 97.221 53.64C96.661 53.2347 96.237 52.688 95.949 52C95.661 51.312 95.517 50.536 95.517 49.672C95.517 48.808 95.6583 48.032 95.941 47.344C96.229 46.656 96.6503 46.1147 97.205 45.72C97.765 45.32 98.453 45.12 99.269 45.12C100.08 45.12 100.778 45.32 101.365 45.72C101.957 46.1147 102.413 46.656 102.733 47.344C103.053 48.0267 103.213 48.8027 103.213 49.672C103.213 50.536 103.053 51.3147 102.733 52.008C102.418 52.696 101.968 53.24 101.381 53.64C100.8 54.04 100.106 54.24 99.301 54.24ZM95.237 57.84V45.36H96.725V51.576H96.917V57.84H95.237ZM99.069 52.728C99.6023 52.728 100.042 52.592 100.389 52.32C100.741 52.048 101.002 51.6827 101.173 51.224C101.349 50.76 101.437 50.2427 101.437 49.672C101.437 49.1067 101.349 48.5947 101.173 48.136C101.002 47.6773 100.738 47.312 100.381 47.04C100.024 46.768 99.5677 46.632 99.013 46.632C98.4903 46.632 98.0583 46.76 97.717 47.016C97.381 47.272 97.1303 47.6293 96.965 48.088C96.805 48.5467 96.725 49.0747 96.725 49.672C96.725 50.2693 96.805 50.7973 96.965 51.256C97.125 51.7147 97.3783 52.0747 97.725 52.336C98.0717 52.5973 98.5197 52.728 99.069 52.728ZM108.811 54.24C107.953 54.24 107.198 54.0533 106.547 53.68C105.902 53.3013 105.398 52.776 105.035 52.104C104.678 51.4267 104.499 50.6427 104.499 49.752C104.499 48.808 104.675 47.9893 105.027 47.296C105.385 46.6027 105.881 46.0667 106.515 45.688C107.15 45.3093 107.889 45.12 108.731 45.12C109.611 45.12 110.361 45.3253 110.979 45.736C111.598 46.1413 112.059 46.72 112.363 47.472C112.673 48.224 112.795 49.1173 112.731 50.152H111.059V49.544C111.049 48.5413 110.857 47.8 110.483 47.32C110.115 46.84 109.553 46.6 108.795 46.6C107.958 46.6 107.329 46.864 106.907 47.392C106.486 47.92 106.275 48.6827 106.275 49.68C106.275 50.6293 106.486 51.3653 106.907 51.888C107.329 52.4053 107.937 52.664 108.731 52.664C109.254 52.664 109.705 52.5467 110.083 52.312C110.467 52.072 110.766 51.7307 110.979 51.288L112.619 51.808C112.283 52.5813 111.774 53.1813 111.091 53.608C110.409 54.0293 109.649 54.24 108.811 54.24ZM105.731 50.152V48.848H111.899V50.152H105.731ZM118.222 54.24C117.337 54.24 116.585 54.0427 115.966 53.648C115.348 53.2533 114.873 52.712 114.542 52.024C114.217 51.336 114.052 50.5547 114.046 49.68C114.052 48.7893 114.222 48.0027 114.558 47.32C114.894 46.632 115.374 46.0933 115.998 45.704C116.622 45.3147 117.372 45.12 118.246 45.12C119.19 45.12 119.996 45.3547 120.662 45.824C121.334 46.2933 121.777 46.936 121.99 47.752L120.326 48.232C120.161 47.7467 119.889 47.3707 119.51 47.104C119.137 46.832 118.708 46.696 118.222 46.696C117.673 46.696 117.222 46.8267 116.87 47.088C116.518 47.344 116.257 47.696 116.086 48.144C115.916 48.592 115.828 49.104 115.822 49.68C115.828 50.5707 116.03 51.2907 116.43 51.84C116.836 52.3893 117.433 52.664 118.222 52.664C118.761 52.664 119.196 52.5413 119.526 52.296C119.862 52.0453 120.118 51.688 120.294 51.224L121.99 51.624C121.708 52.4667 121.241 53.1147 120.59 53.568C119.94 54.016 119.15 54.24 118.222 54.24ZM125.951 54.24C125.311 54.24 124.775 54.1227 124.343 53.888C123.911 53.648 123.583 53.3333 123.359 52.944C123.14 52.5493 123.031 52.1173 123.031 51.648C123.031 51.2107 123.108 50.8267 123.263 50.496C123.417 50.1653 123.647 49.8853 123.951 49.656C124.255 49.4213 124.628 49.232 125.071 49.088C125.455 48.976 125.889 48.8773 126.375 48.792C126.86 48.7067 127.369 48.6267 127.903 48.552C128.441 48.4773 128.975 48.4027 129.503 48.328L128.895 48.664C128.905 47.9867 128.761 47.4853 128.463 47.16C128.169 46.8293 127.663 46.664 126.943 46.664C126.489 46.664 126.073 46.7707 125.695 46.984C125.316 47.192 125.052 47.5387 124.903 48.024L123.343 47.544C123.556 46.8027 123.961 46.2133 124.559 45.776C125.161 45.3387 125.961 45.12 126.959 45.12C127.732 45.12 128.404 45.2533 128.975 45.52C129.551 45.7813 129.972 46.1973 130.239 46.768C130.377 47.0507 130.463 47.3493 130.495 47.664C130.527 47.9787 130.543 48.3173 130.543 48.68V54H129.063V52.024L129.351 52.28C128.993 52.9413 128.537 53.4347 127.983 53.76C127.433 54.08 126.756 54.24 125.951 54.24ZM126.247 52.872C126.721 52.872 127.129 52.7893 127.471 52.624C127.812 52.4533 128.087 52.2373 128.295 51.976C128.503 51.7147 128.639 51.4427 128.703 51.16C128.793 50.904 128.844 50.616 128.855 50.296C128.871 49.976 128.879 49.72 128.879 49.528L129.423 49.728C128.895 49.808 128.415 49.88 127.983 49.944C127.551 50.008 127.159 50.072 126.807 50.136C126.46 50.1947 126.151 50.2667 125.879 50.352C125.649 50.432 125.444 50.528 125.263 50.64C125.087 50.752 124.945 50.888 124.839 51.048C124.737 51.208 124.687 51.4027 124.687 51.632C124.687 51.856 124.743 52.064 124.855 52.256C124.967 52.4427 125.137 52.592 125.367 52.704C125.596 52.816 125.889 52.872 126.247 52.872ZM139.916 55.704V54H132.612V45.36H134.284V52.424H138.228V45.36H139.9V52.496H141.588V55.704H139.916ZM150.15 45.36V54H148.542V47.992L144.222 54H142.862V45.36H144.47V51.248L148.798 45.36H150.15ZM157.642 54V51H155.93C155.727 51 155.484 50.992 155.202 50.976C154.924 50.96 154.663 50.9307 154.418 50.888C153.772 50.7707 153.234 50.4907 152.802 50.048C152.37 49.6 152.154 48.984 152.154 48.2C152.154 47.4427 152.356 46.8347 152.762 46.376C153.172 45.912 153.692 45.6133 154.322 45.48C154.594 45.416 154.871 45.3813 155.154 45.376C155.442 45.3653 155.684 45.36 155.882 45.36H159.314L159.322 54H157.642ZM151.906 54L154.09 50.584H155.858L153.69 54H151.906ZM155.786 49.656H157.642V46.704H155.786C155.668 46.704 155.524 46.7093 155.354 46.72C155.183 46.7307 155.018 46.76 154.858 46.808C154.692 46.856 154.532 46.9413 154.378 47.064C154.228 47.1867 154.106 47.344 154.01 47.536C153.914 47.7227 153.866 47.9387 153.866 48.184C153.866 48.552 153.97 48.856 154.178 49.096C154.386 49.3307 154.634 49.4853 154.922 49.56C155.076 49.6027 155.231 49.6293 155.386 49.64C155.54 49.6507 155.674 49.656 155.786 49.656Z" fill="#344351"/>
<path d="M36.12 102V90.48H37.296V95.92L42.552 90.48H44.056L38.688 96.04L44.496 102H42.96L37.296 96.24V102H36.12ZM46.1332 105.84L47.8053 101.304L47.8293 102.648L44.0452 93.36H45.2933L48.3973 101.128H47.8853L50.7493 93.36H51.9493L47.3093 105.84H46.1332ZM52.3863 103.92V100.992C52.8769 100.992 53.2289 100.835 53.4423 100.52C53.6556 100.2 53.8289 99.6907 53.9622 98.992C54.0529 98.5387 54.1276 98.0507 54.1863 97.528C54.2449 97.0053 54.2956 96.408 54.3383 95.736C54.3809 95.0587 54.4209 94.2667 54.4583 93.36H60.1702V100.992H61.0023V103.92H59.8663V102H53.5143V103.92H52.3863ZM54.3783 100.992H59.0023V94.368H55.5463C55.5303 94.7733 55.5063 95.2027 55.4743 95.656C55.4476 96.1093 55.4129 96.5627 55.3703 97.016C55.3329 97.4693 55.2876 97.896 55.2343 98.296C55.1863 98.6907 55.1276 99.0373 55.0583 99.336C54.9783 99.72 54.8903 100.048 54.7943 100.32C54.7036 100.592 54.5649 100.816 54.3783 100.992ZM65.0764 102.24C64.4257 102.24 63.879 102.123 63.4364 101.888C62.999 101.653 62.671 101.341 62.4524 100.952C62.2337 100.563 62.1244 100.139 62.1244 99.68C62.1244 99.2107 62.2177 98.8107 62.4044 98.48C62.5964 98.144 62.855 97.8693 63.1804 97.656C63.511 97.4427 63.8924 97.28 64.3244 97.168C64.7617 97.0613 65.2444 96.968 65.7724 96.888C66.3057 96.8027 66.8257 96.7307 67.3324 96.672C67.8444 96.608 68.2924 96.5467 68.6764 96.488L68.2604 96.744C68.2764 95.8907 68.111 95.2587 67.7644 94.848C67.4177 94.4373 66.815 94.232 65.9564 94.232C65.3644 94.232 64.863 94.3653 64.4524 94.632C64.047 94.8987 63.7617 95.32 63.5964 95.896L62.4524 95.56C62.6497 94.7867 63.047 94.1867 63.6444 93.76C64.2417 93.3333 65.0177 93.12 65.9724 93.12C66.7617 93.12 67.431 93.2693 67.9804 93.568C68.535 93.8613 68.927 94.288 69.1564 94.848C69.263 95.0987 69.3324 95.3787 69.3644 95.688C69.3964 95.9973 69.4124 96.312 69.4124 96.632V102H68.3644V99.832L68.6684 99.96C68.375 100.701 67.919 101.267 67.3004 101.656C66.6817 102.045 65.9404 102.24 65.0764 102.24ZM65.2124 101.224C65.7617 101.224 66.2417 101.125 66.6524 100.928C67.063 100.731 67.3937 100.461 67.6444 100.12C67.895 99.7733 68.0577 99.384 68.1324 98.952C68.1964 98.6747 68.231 98.3707 68.2364 98.04C68.2417 97.704 68.2444 97.4533 68.2444 97.288L68.6924 97.52C68.2924 97.5733 67.8577 97.6267 67.3884 97.68C66.9244 97.7333 66.4657 97.7947 66.0124 97.864C65.5644 97.9333 65.159 98.016 64.7964 98.112C64.551 98.1813 64.3137 98.28 64.0844 98.408C63.855 98.5307 63.6657 98.696 63.5164 98.904C63.3724 99.112 63.3004 99.3707 63.3004 99.68C63.3004 99.9307 63.3617 100.173 63.4844 100.408C63.6124 100.643 63.815 100.837 64.0924 100.992C64.375 101.147 64.7484 101.224 65.2124 101.224ZM74.6901 102V93.36H75.8661V97.112H80.7381V93.36H81.9141V102H80.7381V98.24H75.8661V102H74.6901ZM86.6233 102.24C85.9726 102.24 85.4259 102.123 84.9833 101.888C84.5459 101.653 84.2179 101.341 83.9993 100.952C83.7806 100.563 83.6713 100.139 83.6713 99.68C83.6713 99.2107 83.7646 98.8107 83.9513 98.48C84.1433 98.144 84.4019 97.8693 84.7273 97.656C85.0579 97.4427 85.4393 97.28 85.8713 97.168C86.3086 97.0613 86.7913 96.968 87.3193 96.888C87.8526 96.8027 88.3726 96.7307 88.8793 96.672C89.3913 96.608 89.8393 96.5467 90.2233 96.488L89.8073 96.744C89.8233 95.8907 89.6579 95.2587 89.3113 94.848C88.9646 94.4373 88.3619 94.232 87.5033 94.232C86.9113 94.232 86.4099 94.3653 85.9993 94.632C85.5939 94.8987 85.3086 95.32 85.1432 95.896L83.9993 95.56C84.1966 94.7867 84.5939 94.1867 85.1913 93.76C85.7886 93.3333 86.5646 93.12 87.5193 93.12C88.3086 93.12 88.9779 93.2693 89.5273 93.568C90.0819 93.8613 90.4739 94.288 90.7033 94.848C90.8099 95.0987 90.8793 95.3787 90.9113 95.688C90.9433 95.9973 90.9593 96.312 90.9593 96.632V102H89.9113V99.832L90.2153 99.96C89.9219 100.701 89.4659 101.267 88.8473 101.656C88.2286 102.045 87.4873 102.24 86.6233 102.24ZM86.7593 101.224C87.3086 101.224 87.7886 101.125 88.1993 100.928C88.6099 100.731 88.9406 100.461 89.1913 100.12C89.4419 99.7733 89.6046 99.384 89.6793 98.952C89.7433 98.6747 89.7779 98.3707 89.7833 98.04C89.7886 97.704 89.7913 97.4533 89.7913 97.288L90.2393 97.52C89.8393 97.5733 89.4046 97.6267 88.9353 97.68C88.4713 97.7333 88.0126 97.7947 87.5593 97.864C87.1113 97.9333 86.7059 98.016 86.3433 98.112C86.0979 98.1813 85.8606 98.28 85.6313 98.408C85.4019 98.5307 85.2126 98.696 85.0633 98.904C84.9193 99.112 84.8473 99.3707 84.8473 99.68C84.8473 99.9307 84.9086 100.173 85.0312 100.408C85.1593 100.643 85.3619 100.837 85.6393 100.992C85.9219 101.147 86.2953 101.224 86.7593 101.224ZM93.0339 102V93.36H99.9059V102H98.7299V94.488H94.2099V102H93.0339ZM106.031 102.24C105.237 102.24 104.565 102.04 104.015 101.64C103.466 101.235 103.05 100.688 102.767 100C102.485 99.3067 102.343 98.5307 102.343 97.672C102.343 96.7973 102.485 96.0187 102.767 95.336C103.055 94.648 103.477 94.1067 104.031 93.712C104.586 93.3173 105.269 93.12 106.079 93.12C106.869 93.12 107.546 93.32 108.111 93.72C108.677 94.12 109.109 94.664 109.407 95.352C109.711 96.04 109.863 96.8133 109.863 97.672C109.863 98.536 109.711 99.312 109.407 100C109.103 100.688 108.666 101.235 108.095 101.64C107.525 102.04 106.837 102.24 106.031 102.24ZM102.143 105.84V93.36H103.199V99.864H103.327V105.84H102.143ZM105.911 101.144C106.514 101.144 107.015 100.992 107.415 100.688C107.815 100.384 108.114 99.9707 108.311 99.448C108.514 98.92 108.615 98.328 108.615 97.672C108.615 97.0213 108.517 96.4347 108.319 95.912C108.122 95.3893 107.821 94.976 107.415 94.672C107.015 94.368 106.506 94.216 105.887 94.216C105.285 94.216 104.783 94.3627 104.383 94.656C103.989 94.9493 103.693 95.3573 103.495 95.88C103.298 96.3973 103.199 96.9947 103.199 97.672C103.199 98.3387 103.298 98.936 103.495 99.464C103.693 99.9867 103.991 100.397 104.391 100.696C104.791 100.995 105.298 101.144 105.911 101.144ZM114.092 102.24C113.441 102.24 112.895 102.123 112.452 101.888C112.015 101.653 111.687 101.341 111.468 100.952C111.249 100.563 111.14 100.139 111.14 99.68C111.14 99.2107 111.233 98.8107 111.42 98.48C111.612 98.144 111.871 97.8693 112.196 97.656C112.527 97.4427 112.908 97.28 113.34 97.168C113.777 97.0613 114.26 96.968 114.788 96.888C115.321 96.8027 115.841 96.7307 116.348 96.672C116.86 96.608 117.308 96.5467 117.692 96.488L117.276 96.744C117.292 95.8907 117.127 95.2587 116.78 94.848C116.433 94.4373 115.831 94.232 114.972 94.232C114.38 94.232 113.879 94.3653 113.468 94.632C113.063 94.8987 112.777 95.32 112.612 95.896L111.468 95.56C111.665 94.7867 112.063 94.1867 112.66 93.76C113.257 93.3333 114.033 93.12 114.988 93.12C115.777 93.12 116.447 93.2693 116.996 93.568C117.551 93.8613 117.943 94.288 118.172 94.848C118.279 95.0987 118.348 95.3787 118.38 95.688C118.412 95.9973 118.428 96.312 118.428 96.632V102H117.38V99.832L117.684 99.96C117.391 100.701 116.935 101.267 116.316 101.656C115.697 102.045 114.956 102.24 114.092 102.24ZM114.228 101.224C114.777 101.224 115.257 101.125 115.668 100.928C116.079 100.731 116.409 100.461 116.66 100.12C116.911 99.7733 117.073 99.384 117.148 98.952C117.212 98.6747 117.247 98.3707 117.252 98.04C117.257 97.704 117.26 97.4533 117.26 97.288L117.708 97.52C117.308 97.5733 116.873 97.6267 116.404 97.68C115.94 97.7333 115.481 97.7947 115.028 97.864C114.58 97.9333 114.175 98.016 113.812 98.112C113.567 98.1813 113.329 98.28 113.1 98.408C112.871 98.5307 112.681 98.696 112.532 98.904C112.388 99.112 112.316 99.3707 112.316 99.68C112.316 99.9307 112.377 100.173 112.5 100.408C112.628 100.643 112.831 100.837 113.108 100.992C113.391 101.147 113.764 101.224 114.228 101.224ZM120.503 102V93.36H124.063C124.244 93.36 124.463 93.3707 124.719 93.392C124.98 93.4133 125.223 93.4533 125.447 93.512C125.932 93.64 126.321 93.9013 126.615 94.296C126.913 94.6907 127.063 95.1653 127.063 95.72C127.063 96.0293 127.015 96.3067 126.919 96.552C126.828 96.792 126.697 97 126.527 97.176C126.447 97.2667 126.359 97.3467 126.263 97.416C126.167 97.48 126.073 97.5333 125.983 97.576C126.153 97.608 126.337 97.6827 126.535 97.8C126.844 97.9813 127.079 98.2267 127.239 98.536C127.399 98.84 127.479 99.2107 127.479 99.648C127.479 100.24 127.337 100.723 127.055 101.096C126.772 101.469 126.393 101.725 125.919 101.864C125.705 101.923 125.473 101.96 125.223 101.976C124.977 101.992 124.745 102 124.527 102H120.503ZM121.687 101H124.471C124.583 101 124.724 100.992 124.895 100.976C125.065 100.955 125.217 100.928 125.351 100.896C125.665 100.816 125.895 100.656 126.039 100.416C126.188 100.171 126.263 99.904 126.263 99.616C126.263 99.2373 126.151 98.928 125.927 98.688C125.708 98.4427 125.415 98.2933 125.047 98.24C124.924 98.2133 124.796 98.1973 124.663 98.192C124.529 98.1867 124.409 98.184 124.303 98.184H121.687V101ZM121.687 97.176H124.103C124.241 97.176 124.396 97.168 124.567 97.152C124.743 97.1307 124.895 97.096 125.023 97.048C125.3 96.952 125.503 96.7867 125.631 96.552C125.764 96.3173 125.831 96.0613 125.831 95.784C125.831 95.48 125.759 95.2133 125.615 94.984C125.476 94.7547 125.265 94.5947 124.983 94.504C124.791 94.4347 124.583 94.3947 124.359 94.384C124.14 94.3733 124.001 94.368 123.943 94.368H121.687V97.176ZM128.273 102V100.968C128.593 101.027 128.836 101.013 129.001 100.928C129.172 100.837 129.297 100.688 129.377 100.48C129.457 100.267 129.524 100.003 129.577 99.688C129.662 99.1653 129.74 98.5893 129.809 97.96C129.878 97.3307 129.94 96.6373 129.993 95.88C130.052 95.1173 130.11 94.2773 130.169 93.36H136.041V102H134.873V94.488H131.257C131.22 95.0533 131.177 95.616 131.129 96.176C131.081 96.736 131.03 97.2747 130.977 97.792C130.929 98.304 130.876 98.776 130.817 99.208C130.758 99.64 130.697 100.013 130.633 100.328C130.537 100.803 130.409 101.181 130.249 101.464C130.094 101.747 129.862 101.933 129.553 102.024C129.244 102.115 128.817 102.107 128.273 102ZM143.692 102V98.744H141.676C141.442 98.744 141.199 98.736 140.948 98.72C140.703 98.6987 140.474 98.6693 140.26 98.632C139.652 98.5147 139.135 98.248 138.708 97.832C138.287 97.4107 138.076 96.8293 138.076 96.088C138.076 95.3627 138.274 94.7813 138.668 94.344C139.063 93.9013 139.54 93.6133 140.1 93.48C140.356 93.4213 140.615 93.3867 140.876 93.376C141.143 93.3653 141.372 93.36 141.564 93.36H144.868L144.876 102H143.692ZM137.796 102L140.204 98.376H141.508L139.084 102H137.796ZM141.612 97.736H143.692V94.368H141.612C141.484 94.368 141.306 94.3733 141.076 94.384C140.847 94.3947 140.631 94.4293 140.428 94.488C140.252 94.5413 140.076 94.6347 139.9 94.768C139.73 94.896 139.586 95.0693 139.468 95.288C139.351 95.5013 139.292 95.7627 139.292 96.072C139.292 96.504 139.41 96.8507 139.644 97.112C139.884 97.368 140.183 97.544 140.54 97.64C140.732 97.6827 140.924 97.7093 141.116 97.72C141.308 97.7307 141.474 97.736 141.612 97.736ZM149.464 102V94.448H146.4V93.36H153.704V94.448H150.64V102H149.464ZM155.237 102L155.221 93.36H156.405V96.616H158.429C158.68 96.616 158.925 96.6213 159.165 96.632C159.411 96.6427 159.627 96.664 159.813 96.696C160.24 96.776 160.619 96.9173 160.949 97.12C161.285 97.3227 161.547 97.6027 161.733 97.96C161.925 98.3173 162.021 98.7653 162.021 99.304C162.021 100.045 161.829 100.629 161.445 101.056C161.067 101.483 160.587 101.76 160.005 101.888C159.787 101.936 159.549 101.968 159.293 101.984C159.037 101.995 158.784 102 158.533 102H155.237ZM156.405 100.992H158.485C158.667 100.992 158.869 100.987 159.093 100.976C159.317 100.965 159.515 100.936 159.685 100.888C159.968 100.808 160.224 100.648 160.453 100.408C160.688 100.163 160.805 99.7947 160.805 99.304C160.805 98.8187 160.693 98.4533 160.469 98.208C160.245 97.9573 159.947 97.792 159.573 97.712C159.408 97.6747 159.229 97.6507 159.037 97.64C158.845 97.6293 158.661 97.624 158.485 97.624H156.405V100.992ZM170.091 102.24C169.222 102.24 168.462 102.051 167.811 101.672C167.166 101.288 166.657 100.757 166.283 100.08L167.227 99.48C167.542 100.013 167.934 100.419 168.403 100.696C168.873 100.973 169.411 101.112 170.019 101.112C170.654 101.112 171.163 100.965 171.547 100.672C171.931 100.379 172.123 99.976 172.123 99.464C172.123 99.112 172.041 98.832 171.875 98.624C171.715 98.416 171.47 98.2667 171.139 98.176C170.814 98.0853 170.406 98.04 169.915 98.04H168.891V97.032H169.899C170.497 97.032 170.977 96.9253 171.339 96.712C171.707 96.4933 171.891 96.152 171.891 95.688C171.891 95.1973 171.707 94.8347 171.339 94.6C170.977 94.36 170.542 94.24 170.035 94.24C169.523 94.24 169.038 94.3467 168.579 94.56C168.126 94.768 167.745 95.0373 167.435 95.368L166.683 94.576C167.115 94.1013 167.619 93.7413 168.195 93.496C168.777 93.2453 169.419 93.12 170.123 93.12C170.678 93.12 171.179 93.2187 171.627 93.416C172.081 93.608 172.438 93.8907 172.699 94.264C172.966 94.6373 173.099 95.0853 173.099 95.608C173.099 96.0987 172.979 96.5227 172.739 96.88C172.505 97.2373 172.171 97.5333 171.739 97.768L171.675 97.328C172.049 97.3973 172.358 97.5467 172.603 97.776C172.849 98.0053 173.03 98.28 173.147 98.6C173.265 98.92 173.323 99.2453 173.323 99.576C173.323 100.125 173.179 100.6 172.891 101C172.609 101.395 172.222 101.701 171.731 101.92C171.246 102.133 170.699 102.24 170.091 102.24ZM175.081 102V93.36H178.641C178.822 93.36 179.041 93.3707 179.297 93.392C179.558 93.4133 179.801 93.4533 180.025 93.512C180.51 93.64 180.899 93.9013 181.193 94.296C181.491 94.6907 181.641 95.1653 181.641 95.72C181.641 96.0293 181.593 96.3067 181.497 96.552C181.406 96.792 181.275 97 181.105 97.176C181.025 97.2667 180.937 97.3467 180.841 97.416C180.745 97.48 180.651 97.5333 180.561 97.576C180.731 97.608 180.915 97.6827 181.113 97.8C181.422 97.9813 181.657 98.2267 181.817 98.536C181.977 98.84 182.057 99.2107 182.057 99.648C182.057 100.24 181.915 100.723 181.633 101.096C181.35 101.469 180.971 101.725 180.497 101.864C180.283 101.923 180.051 101.96 179.801 101.976C179.555 101.992 179.323 102 179.105 102H175.081ZM176.265 101H179.049C179.161 101 179.302 100.992 179.473 100.976C179.643 100.955 179.795 100.928 179.929 100.896C180.243 100.816 180.473 100.656 180.617 100.416C180.766 100.171 180.841 99.904 180.841 99.616C180.841 99.2373 180.729 98.928 180.505 98.688C180.286 98.4427 179.993 98.2933 179.625 98.24C179.502 98.2133 179.374 98.1973 179.241 98.192C179.107 98.1867 178.987 98.184 178.881 98.184H176.265V101ZM176.265 97.176H178.681C178.819 97.176 178.974 97.168 179.145 97.152C179.321 97.1307 179.473 97.096 179.601 97.048C179.878 96.952 180.081 96.7867 180.209 96.552C180.342 96.3173 180.409 96.0613 180.409 95.784C180.409 95.48 180.337 95.2133 180.193 94.984C180.054 94.7547 179.843 94.5947 179.561 94.504C179.369 94.4347 179.161 94.3947 178.937 94.384C178.718 94.3733 178.579 94.368 178.521 94.368H176.265V97.176ZM187.259 102.24C186.401 102.24 185.667 102.045 185.059 101.656C184.451 101.267 183.985 100.728 183.659 100.04C183.334 99.352 183.171 98.5627 183.171 97.672C183.171 96.7653 183.337 95.9707 183.667 95.288C183.998 94.6053 184.467 94.0747 185.075 93.696C185.689 93.312 186.417 93.12 187.259 93.12C188.123 93.12 188.859 93.3147 189.467 93.704C190.081 94.088 190.547 94.624 190.867 95.312C191.193 95.9947 191.355 96.7813 191.355 97.672C191.355 98.5787 191.193 99.376 190.867 100.064C190.542 100.747 190.073 101.28 189.459 101.664C188.846 102.048 188.113 102.24 187.259 102.24ZM187.259 101.112C188.219 101.112 188.934 100.795 189.403 100.16C189.873 99.52 190.107 98.6907 190.107 97.672C190.107 96.6267 189.87 95.7947 189.395 95.176C188.926 94.5573 188.214 94.248 187.259 94.248C186.614 94.248 186.081 94.3947 185.659 94.688C185.243 94.976 184.931 95.3787 184.723 95.896C184.521 96.408 184.419 97 184.419 97.672C184.419 98.712 184.659 99.5467 185.139 100.176C185.619 100.8 186.326 101.112 187.259 101.112ZM193.112 102V93.36H194.288V97.112H199.16V93.36H200.336V102H199.16V98.24H194.288V102H193.112ZM206.181 102.24C205.322 102.24 204.589 102.045 203.981 101.656C203.373 101.267 202.906 100.728 202.581 100.04C202.256 99.352 202.093 98.5627 202.093 97.672C202.093 96.7653 202.258 95.9707 202.589 95.288C202.92 94.6053 203.389 94.0747 203.997 93.696C204.61 93.312 205.338 93.12 206.181 93.12C207.045 93.12 207.781 93.3147 208.389 93.704C209.002 94.088 209.469 94.624 209.789 95.312C210.114 95.9947 210.277 96.7813 210.277 97.672C210.277 98.5787 210.114 99.376 209.789 100.064C209.464 100.747 208.994 101.28 208.381 101.664C207.768 102.048 207.034 102.24 206.181 102.24ZM206.181 101.112C207.141 101.112 207.856 100.795 208.325 100.16C208.794 99.52 209.029 98.6907 209.029 97.672C209.029 96.6267 208.792 95.7947 208.317 95.176C207.848 94.5573 207.136 94.248 206.181 94.248C205.536 94.248 205.002 94.3947 204.581 94.688C204.165 94.976 203.853 95.3787 203.645 95.896C203.442 96.408 203.341 97 203.341 97.672C203.341 98.712 203.581 99.5467 204.061 100.176C204.541 100.8 205.248 101.112 206.181 101.112ZM212.034 102L212.042 93.36H213.226V97.52L217.082 93.36H218.65L214.602 97.68L219.178 102H217.466L213.226 97.84V102H212.034Z" fill="#344351"/>
<rect x="35" y="297" width="176" height="41" rx="5" fill="#9CA5AC"/>
<path d="M87.284 324.24C86.1373 324.24 85.1693 323.987 84.38 323.48C83.5907 322.968 82.9933 322.261 82.588 321.36C82.1827 320.459 81.98 319.419 81.98 318.24C81.98 317.061 82.1827 316.021 82.588 315.12C82.9933 314.219 83.5907 313.515 84.38 313.008C85.1693 312.496 86.1373 312.24 87.284 312.24C88.6227 312.24 89.716 312.584 90.564 313.272C91.412 313.955 91.9933 314.872 92.308 316.024L91.108 316.336C90.8627 315.424 90.4227 314.701 89.788 314.168C89.1533 313.635 88.3187 313.368 87.284 313.368C86.3827 313.368 85.6333 313.573 85.036 313.984C84.4387 314.395 83.988 314.968 83.684 315.704C83.3853 316.435 83.2307 317.28 83.22 318.24C83.2147 319.2 83.3613 320.045 83.66 320.776C83.964 321.507 84.4173 322.08 85.02 322.496C85.628 322.907 86.3827 323.112 87.284 323.112C88.3187 323.112 89.1533 322.845 89.788 322.312C90.4227 321.773 90.8627 321.051 91.108 320.144L92.308 320.456C91.9933 321.608 91.412 322.528 90.564 323.216C89.716 323.899 88.6227 324.24 87.284 324.24ZM97.6811 324.24C96.8225 324.24 96.0891 324.045 95.4811 323.656C94.8731 323.267 94.4065 322.728 94.0811 322.04C93.7558 321.352 93.5931 320.563 93.5931 319.672C93.5931 318.765 93.7585 317.971 94.0891 317.288C94.4198 316.605 94.8891 316.075 95.4971 315.696C96.1105 315.312 96.8385 315.12 97.6811 315.12C98.5451 315.12 99.2811 315.315 99.8891 315.704C100.502 316.088 100.969 316.624 101.289 317.312C101.614 317.995 101.777 318.781 101.777 319.672C101.777 320.579 101.614 321.376 101.289 322.064C100.964 322.747 100.494 323.28 99.8811 323.664C99.2678 324.048 98.5345 324.24 97.6811 324.24ZM97.6811 323.112C98.6411 323.112 99.3558 322.795 99.8251 322.16C100.294 321.52 100.529 320.691 100.529 319.672C100.529 318.627 100.292 317.795 99.8171 317.176C99.3478 316.557 98.6358 316.248 97.6811 316.248C97.0358 316.248 96.5025 316.395 96.0811 316.688C95.6651 316.976 95.3531 317.379 95.1451 317.896C94.9425 318.408 94.8411 319 94.8411 319.672C94.8411 320.712 95.0811 321.547 95.5611 322.176C96.0411 322.8 96.7478 323.112 97.6811 323.112ZM102.426 324L105.802 319.632L102.498 315.36H103.906L106.49 318.728L109.05 315.36H110.458L107.154 319.632L110.538 324H109.122L106.49 320.536L103.842 324H102.426ZM115.703 324.24C114.908 324.24 114.236 324.04 113.687 323.64C113.138 323.235 112.722 322.688 112.439 322C112.156 321.307 112.015 320.531 112.015 319.672C112.015 318.797 112.156 318.019 112.439 317.336C112.727 316.648 113.148 316.107 113.703 315.712C114.258 315.317 114.94 315.12 115.751 315.12C116.54 315.12 117.218 315.32 117.783 315.72C118.348 316.12 118.78 316.664 119.079 317.352C119.383 318.04 119.535 318.813 119.535 319.672C119.535 320.536 119.383 321.312 119.079 322C118.775 322.688 118.338 323.235 117.767 323.64C117.196 324.04 116.508 324.24 115.703 324.24ZM111.815 327.84V315.36H112.871V321.864H112.999V327.84H111.815ZM115.583 323.144C116.186 323.144 116.687 322.992 117.087 322.688C117.487 322.384 117.786 321.971 117.983 321.448C118.186 320.92 118.287 320.328 118.287 319.672C118.287 319.021 118.188 318.435 117.991 317.912C117.794 317.389 117.492 316.976 117.087 316.672C116.687 316.368 116.178 316.216 115.559 316.216C114.956 316.216 114.455 316.363 114.055 316.656C113.66 316.949 113.364 317.357 113.167 317.88C112.97 318.397 112.871 318.995 112.871 319.672C112.871 320.339 112.97 320.936 113.167 321.464C113.364 321.987 113.663 322.397 114.063 322.696C114.463 322.995 114.97 323.144 115.583 323.144ZM123.764 324.24C123.113 324.24 122.567 324.123 122.124 323.888C121.687 323.653 121.359 323.341 121.14 322.952C120.921 322.563 120.812 322.139 120.812 321.68C120.812 321.211 120.905 320.811 121.092 320.48C121.284 320.144 121.543 319.869 121.868 319.656C122.199 319.443 122.58 319.28 123.012 319.168C123.449 319.061 123.932 318.968 124.46 318.888C124.993 318.803 125.513 318.731 126.02 318.672C126.532 318.608 126.98 318.547 127.364 318.488L126.948 318.744C126.964 317.891 126.799 317.259 126.452 316.848C126.105 316.437 125.503 316.232 124.644 316.232C124.052 316.232 123.551 316.365 123.14 316.632C122.735 316.899 122.449 317.32 122.284 317.896L121.14 317.56C121.337 316.787 121.735 316.187 122.332 315.76C122.929 315.333 123.705 315.12 124.66 315.12C125.449 315.12 126.119 315.269 126.668 315.568C127.223 315.861 127.615 316.288 127.844 316.848C127.951 317.099 128.02 317.379 128.052 317.688C128.084 317.997 128.1 318.312 128.1 318.632V324H127.052V321.832L127.356 321.96C127.063 322.701 126.607 323.267 125.988 323.656C125.369 324.045 124.628 324.24 123.764 324.24ZM123.9 323.224C124.449 323.224 124.929 323.125 125.34 322.928C125.751 322.731 126.081 322.461 126.332 322.12C126.583 321.773 126.745 321.384 126.82 320.952C126.884 320.675 126.919 320.371 126.924 320.04C126.929 319.704 126.932 319.453 126.932 319.288L127.38 319.52C126.98 319.573 126.545 319.627 126.076 319.68C125.612 319.733 125.153 319.795 124.7 319.864C124.252 319.933 123.847 320.016 123.484 320.112C123.239 320.181 123.001 320.28 122.772 320.408C122.543 320.531 122.353 320.696 122.204 320.904C122.06 321.112 121.988 321.371 121.988 321.68C121.988 321.931 122.049 322.173 122.172 322.408C122.3 322.643 122.503 322.837 122.78 322.992C123.063 323.147 123.436 323.224 123.9 323.224ZM130.175 324V315.36H131.351V319.112H136.223V315.36H137.399V324H136.223V320.24H131.351V324H130.175ZM146.5 315.36V324H145.356V317.272L140.62 324H139.628V315.36H140.772V322.032L145.516 315.36H146.5ZM151.089 324V316.448H148.025V315.36H155.329V316.448H152.265V324H151.089ZM156.862 324L156.846 315.36H158.03V318.616H160.054C160.305 318.616 160.55 318.621 160.79 318.632C161.036 318.643 161.252 318.664 161.438 318.696C161.865 318.776 162.244 318.917 162.574 319.12C162.91 319.323 163.172 319.603 163.358 319.96C163.55 320.317 163.646 320.765 163.646 321.304C163.646 322.045 163.454 322.629 163.07 323.056C162.692 323.483 162.212 323.76 161.63 323.888C161.412 323.936 161.174 323.968 160.918 323.984C160.662 323.995 160.409 324 160.158 324H156.862ZM158.03 322.992H160.11C160.292 322.992 160.494 322.987 160.718 322.976C160.942 322.965 161.14 322.936 161.31 322.888C161.593 322.808 161.849 322.648 162.078 322.408C162.313 322.163 162.43 321.795 162.43 321.304C162.43 320.819 162.318 320.453 162.094 320.208C161.87 319.957 161.572 319.792 161.198 319.712C161.033 319.675 160.854 319.651 160.662 319.64C160.47 319.629 160.286 319.624 160.11 319.624H158.03V322.992Z" fill="white"/>
<path d="M247.784 324.24C246.637 324.24 245.669 323.987 244.88 323.48C244.091 322.968 243.493 322.261 243.088 321.36C242.683 320.459 242.48 319.419 242.48 318.24C242.48 317.061 242.683 316.021 243.088 315.12C243.493 314.219 244.091 313.515 244.88 313.008C245.669 312.496 246.637 312.24 247.784 312.24C248.936 312.24 249.904 312.496 250.688 313.008C251.477 313.515 252.075 314.219 252.48 315.12C252.891 316.021 253.096 317.061 253.096 318.24C253.096 319.419 252.891 320.459 252.48 321.36C252.075 322.261 251.477 322.968 250.688 323.48C249.904 323.987 248.936 324.24 247.784 324.24ZM247.784 323.112C248.685 323.112 249.437 322.907 250.04 322.496C250.643 322.085 251.093 321.515 251.392 320.784C251.696 320.048 251.848 319.2 251.848 318.24C251.848 317.28 251.696 316.435 251.392 315.704C251.093 314.973 250.643 314.403 250.04 313.992C249.437 313.581 248.685 313.373 247.784 313.368C246.883 313.368 246.133 313.573 245.536 313.984C244.939 314.395 244.488 314.968 244.184 315.704C243.885 316.435 243.733 317.28 243.728 318.24C243.723 319.2 243.869 320.045 244.168 320.776C244.472 321.501 244.925 322.072 245.528 322.488C246.131 322.899 246.883 323.107 247.784 323.112ZM257.042 324V316.448H253.978V315.36H261.282V316.448H258.218V324H257.042ZM262.8 324V315.36H263.848L267.216 322.432L270.592 315.36H271.632V324H270.496V317.872L267.592 324H266.848L263.944 317.872V324H262.8ZM277.526 324.24C276.683 324.24 275.953 324.053 275.334 323.68C274.721 323.307 274.243 322.781 273.902 322.104C273.561 321.427 273.39 320.632 273.39 319.72C273.39 318.776 273.558 317.96 273.894 317.272C274.23 316.584 274.702 316.053 275.31 315.68C275.923 315.307 276.646 315.12 277.478 315.12C278.331 315.12 279.059 315.317 279.662 315.712C280.265 316.101 280.721 316.661 281.03 317.392C281.339 318.123 281.481 318.995 281.454 320.008H280.254V319.592C280.233 318.472 279.99 317.627 279.526 317.056C279.067 316.485 278.395 316.2 277.51 316.2C276.582 316.2 275.87 316.501 275.374 317.104C274.883 317.707 274.638 318.565 274.638 319.68C274.638 320.768 274.883 321.613 275.374 322.216C275.87 322.813 276.571 323.112 277.478 323.112C278.097 323.112 278.635 322.971 279.094 322.688C279.558 322.4 279.923 321.987 280.19 321.448L281.286 321.872C280.945 322.624 280.441 323.208 279.774 323.624C279.113 324.035 278.363 324.24 277.526 324.24ZM274.222 320.008V319.024H280.822V320.008H274.222ZM283.221 324V315.36H284.397V319.112H289.269V315.36H290.445V324H289.269V320.24H284.397V324H283.221ZM299.547 315.36V324H298.403V317.272L293.667 324H292.675V315.36H293.819V322.032L298.563 315.36H299.547ZM304.136 324V316.448H301.072V315.36H308.376V316.448H305.312V324H304.136ZM309.909 324L309.893 315.36H311.077V318.616H313.101C313.352 318.616 313.597 318.621 313.837 318.632C314.083 318.643 314.299 318.664 314.485 318.696C314.912 318.776 315.291 318.917 315.621 319.12C315.957 319.323 316.219 319.603 316.405 319.96C316.597 320.317 316.693 320.765 316.693 321.304C316.693 322.045 316.501 322.629 316.117 323.056C315.739 323.483 315.259 323.76 314.677 323.888C314.459 323.936 314.221 323.968 313.965 323.984C313.709 323.995 313.456 324 313.205 324H309.909ZM311.077 322.992H313.157C313.339 322.992 313.541 322.987 313.765 322.976C313.989 322.965 314.187 322.936 314.357 322.888C314.64 322.808 314.896 322.648 315.125 322.408C315.36 322.163 315.477 321.795 315.477 321.304C315.477 320.819 315.365 320.453 315.141 320.208C314.917 319.957 314.619 319.792 314.245 319.712C314.08 319.675 313.901 319.651 313.709 319.64C313.517 319.629 313.333 319.624 313.157 319.624H311.077V322.992Z" fill="#9CA5AC"/>
<rect x="448" y="35" width="57" height="28" rx="14" fill="#F6F7F8"/>
<rect x="477" y="35" width="28" height="28" rx="14" fill="#9CA5AC"/>
<rect x="35" y="124" width="470" height="41" rx="5" fill="#F6F7F8"/>
<path d="M491.5 142.875L485.5 148.5L479.5 142.875" stroke="#5E6B77" stroke-linecap="round"/>
<path d="M50.98 150V139.92H54.872C55.4367 139.92 55.929 140.037 56.349 140.27C56.769 140.503 57.0957 140.818 57.329 141.215C57.5623 141.607 57.679 142.041 57.679 142.517C57.679 143.058 57.5343 143.541 57.245 143.966C56.9557 144.386 56.5683 144.678 56.083 144.841L56.069 144.498C56.7223 144.685 57.2357 145.011 57.609 145.478C57.9823 145.945 58.169 146.509 58.169 147.172C58.169 147.755 58.0453 148.259 57.798 148.684C57.5507 149.104 57.203 149.428 56.755 149.657C56.307 149.886 55.7867 150 55.194 150H50.98ZM52.016 149.013H54.942C55.3527 149.013 55.7213 148.941 56.048 148.796C56.3747 148.647 56.6313 148.437 56.818 148.166C57.0093 147.895 57.105 147.569 57.105 147.186C57.105 146.813 57.0187 146.477 56.846 146.178C56.6733 145.879 56.4377 145.641 56.139 145.464C55.845 145.282 55.509 145.191 55.131 145.191H52.016V149.013ZM52.016 144.218H54.865C55.187 144.218 55.481 144.146 55.747 144.001C56.013 143.852 56.223 143.649 56.377 143.392C56.5357 143.135 56.615 142.839 56.615 142.503C56.615 142.027 56.4493 141.64 56.118 141.341C55.7913 141.042 55.3737 140.893 54.865 140.893H52.016V144.218ZM59.5729 150L59.5589 142.44H60.5949V145.289H61.9109C62.1303 145.289 62.3449 145.294 62.5549 145.303C62.7649 145.312 62.9539 145.331 63.1219 145.359C63.4953 145.434 63.8266 145.56 64.1159 145.737C64.4053 145.914 64.6339 146.159 64.8019 146.472C64.9699 146.78 65.0539 147.17 65.0539 147.641C65.0539 148.29 64.8859 148.801 64.5499 149.174C64.2139 149.547 63.7916 149.79 63.2829 149.902C63.0916 149.944 62.8839 149.972 62.6599 149.986C62.4359 149.995 62.2166 150 62.0019 150H59.5729ZM60.5949 149.118H61.9599C62.1139 149.118 62.2889 149.113 62.4849 149.104C62.6809 149.095 62.8536 149.069 63.0029 149.027C63.2549 148.957 63.4813 148.817 63.6819 148.607C63.8873 148.392 63.9899 148.07 63.9899 147.641C63.9899 147.216 63.8919 146.897 63.6959 146.682C63.4999 146.463 63.2386 146.318 62.9119 146.248C62.7626 146.215 62.6039 146.194 62.4359 146.185C62.2726 146.176 62.1139 146.171 61.9599 146.171H60.5949V149.118ZM65.9569 150V142.44H66.9859V150H65.9569ZM71.9758 150.217C71.2712 150.212 70.6668 150.058 70.1628 149.755C69.6588 149.452 69.2668 148.999 68.9868 148.397C68.7115 147.795 68.5622 147.044 68.5388 146.143C68.5248 145.746 68.5342 145.315 68.5668 144.848C68.5995 144.377 68.6508 143.929 68.7208 143.504C68.7908 143.079 68.8748 142.734 68.9728 142.468C69.0942 142.123 69.2668 141.801 69.4908 141.502C69.7195 141.199 69.9832 140.951 70.2818 140.76C70.5712 140.564 70.8978 140.412 71.2618 140.305C71.6305 140.193 72.0132 140.107 72.4098 140.046C72.8112 139.985 73.2078 139.932 73.5998 139.885C73.9965 139.838 74.3628 139.78 74.6988 139.71L74.8108 140.641C74.5542 140.692 74.2508 140.739 73.9008 140.781C73.5508 140.823 73.1845 140.874 72.8018 140.935C72.4192 140.991 72.0528 141.068 71.7028 141.166C71.3528 141.264 71.0542 141.392 70.8068 141.551C70.4288 141.78 70.1372 142.125 69.9318 142.587C69.7312 143.049 69.6075 143.579 69.5608 144.176C69.8502 143.723 70.2328 143.383 70.7088 143.154C71.1895 142.925 71.7098 142.811 72.2698 142.811C72.9512 142.811 73.5368 142.967 74.0268 143.28C74.5215 143.593 74.9018 144.027 75.1678 144.582C75.4338 145.137 75.5668 145.774 75.5668 146.493C75.5668 147.244 75.4198 147.9 75.1258 148.46C74.8365 149.02 74.4235 149.454 73.8868 149.762C73.3502 150.065 72.7132 150.217 71.9758 150.217ZM72.0528 149.23C72.8462 149.23 73.4482 148.983 73.8588 148.488C74.2742 147.993 74.4818 147.335 74.4818 146.514C74.4818 145.674 74.2672 145.011 73.8378 144.526C73.4132 144.041 72.8135 143.798 72.0388 143.798C71.2642 143.798 70.6692 144.041 70.2538 144.526C69.8385 145.011 69.6308 145.674 69.6308 146.514C69.6308 147.354 69.8385 148.017 70.2538 148.502C70.6692 148.987 71.2688 149.23 72.0528 149.23ZM80.502 150.21C79.8066 150.21 79.2186 150.035 78.738 149.685C78.2573 149.33 77.8933 148.852 77.646 148.25C77.3986 147.643 77.275 146.964 77.275 146.213C77.275 145.448 77.3986 144.766 77.646 144.169C77.898 143.567 78.2666 143.093 78.752 142.748C79.2373 142.403 79.8346 142.23 80.544 142.23C81.2346 142.23 81.8273 142.405 82.322 142.755C82.8166 143.105 83.1946 143.581 83.456 144.183C83.722 144.785 83.855 145.462 83.855 146.213C83.855 146.969 83.722 147.648 83.456 148.25C83.19 148.852 82.8073 149.33 82.308 149.685C81.8086 150.035 81.2066 150.21 80.502 150.21ZM77.1 153.36V142.44H78.024V148.131H78.136V153.36H77.1ZM80.397 149.251C80.9243 149.251 81.363 149.118 81.713 148.852C82.063 148.586 82.3243 148.224 82.497 147.767C82.6743 147.305 82.763 146.787 82.763 146.213C82.763 145.644 82.6766 145.13 82.504 144.673C82.3313 144.216 82.0676 143.854 81.713 143.588C81.363 143.322 80.9173 143.189 80.376 143.189C79.8486 143.189 79.41 143.317 79.06 143.574C78.7146 143.831 78.4556 144.188 78.283 144.645C78.1103 145.098 78.024 145.62 78.024 146.213C78.024 146.796 78.1103 147.319 78.283 147.781C78.4556 148.238 78.717 148.598 79.067 148.859C79.417 149.12 79.8603 149.251 80.397 149.251ZM87.5551 150.21C86.9858 150.21 86.5074 150.107 86.1201 149.902C85.7374 149.697 85.4504 149.424 85.2591 149.083C85.0678 148.742 84.9721 148.371 84.9721 147.97C84.9721 147.559 85.0538 147.209 85.2171 146.92C85.3851 146.626 85.6114 146.386 85.8961 146.199C86.1854 146.012 86.5191 145.87 86.8971 145.772C87.2798 145.679 87.7021 145.597 88.1641 145.527C88.6308 145.452 89.0858 145.389 89.5291 145.338C89.9771 145.282 90.3691 145.228 90.7051 145.177L90.3411 145.401C90.3551 144.654 90.2104 144.101 89.9071 143.742C89.6038 143.383 89.0764 143.203 88.3251 143.203C87.8071 143.203 87.3684 143.32 87.0091 143.553C86.6544 143.786 86.4048 144.155 86.2601 144.659L85.2591 144.365C85.4318 143.688 85.7794 143.163 86.3021 142.79C86.8248 142.417 87.5038 142.23 88.3391 142.23C89.0298 142.23 89.6154 142.361 90.0961 142.622C90.5814 142.879 90.9244 143.252 91.1251 143.742C91.2184 143.961 91.2791 144.206 91.3071 144.477C91.3351 144.748 91.3491 145.023 91.3491 145.303V150H90.4321V148.103L90.6981 148.215C90.4414 148.864 90.0424 149.358 89.5011 149.699C88.9598 150.04 88.3111 150.21 87.5551 150.21ZM87.6741 149.321C88.1548 149.321 88.5748 149.235 88.9341 149.062C89.2934 148.889 89.5828 148.654 89.8021 148.355C90.0214 148.052 90.1638 147.711 90.2291 147.333C90.2851 147.09 90.3154 146.824 90.3201 146.535C90.3248 146.241 90.3271 146.022 90.3271 145.877L90.7191 146.08C90.3691 146.127 89.9888 146.173 89.5781 146.22C89.1721 146.267 88.7708 146.32 88.3741 146.381C87.9821 146.442 87.6274 146.514 87.3101 146.598C87.0954 146.659 86.8878 146.745 86.6871 146.857C86.4864 146.964 86.3208 147.109 86.1901 147.291C86.0641 147.473 86.0011 147.699 86.0011 147.97C86.0011 148.189 86.0548 148.402 86.1621 148.607C86.2741 148.812 86.4514 148.983 86.6941 149.118C86.9414 149.253 87.2681 149.321 87.6741 149.321ZM95.2224 150V143.392H92.5414V142.44H98.9324V143.392H96.2514V150H95.2224ZM100.274 150L100.26 142.44H101.296V145.289H103.067C103.286 145.289 103.501 145.294 103.711 145.303C103.926 145.312 104.115 145.331 104.278 145.359C104.651 145.429 104.983 145.553 105.272 145.73C105.566 145.907 105.795 146.152 105.958 146.465C106.126 146.778 106.21 147.17 106.21 147.641C106.21 148.29 106.042 148.801 105.706 149.174C105.375 149.547 104.955 149.79 104.446 149.902C104.255 149.944 104.047 149.972 103.823 149.986C103.599 149.995 103.377 150 103.158 150H100.274ZM101.296 149.118H103.116C103.275 149.118 103.452 149.113 103.648 149.104C103.844 149.095 104.017 149.069 104.166 149.027C104.413 148.957 104.637 148.817 104.838 148.607C105.043 148.392 105.146 148.07 105.146 147.641C105.146 147.216 105.048 146.897 104.852 146.682C104.656 146.463 104.395 146.318 104.068 146.248C103.923 146.215 103.767 146.194 103.599 146.185C103.431 146.176 103.27 146.171 103.116 146.171H101.296V149.118ZM110.541 150V142.44H111.57V145.723H115.833V142.44H116.862V150H115.833V146.71H111.57V150H110.541ZM121.977 150.21C121.226 150.21 120.584 150.04 120.052 149.699C119.52 149.358 119.112 148.887 118.827 148.285C118.542 147.683 118.4 146.992 118.4 146.213C118.4 145.42 118.545 144.724 118.834 144.127C119.123 143.53 119.534 143.065 120.066 142.734C120.603 142.398 121.24 142.23 121.977 142.23C122.733 142.23 123.377 142.4 123.909 142.741C124.446 143.077 124.854 143.546 125.134 144.148C125.419 144.745 125.561 145.434 125.561 146.213C125.561 147.006 125.419 147.704 125.134 148.306C124.849 148.903 124.439 149.37 123.902 149.706C123.365 150.042 122.724 150.21 121.977 150.21ZM121.977 149.223C122.817 149.223 123.442 148.945 123.853 148.39C124.264 147.83 124.469 147.104 124.469 146.213C124.469 145.298 124.261 144.57 123.846 144.029C123.435 143.488 122.812 143.217 121.977 143.217C121.412 143.217 120.946 143.345 120.577 143.602C120.213 143.854 119.94 144.206 119.758 144.659C119.581 145.107 119.492 145.625 119.492 146.213C119.492 147.123 119.702 147.853 120.122 148.404C120.542 148.95 121.16 149.223 121.977 149.223ZM127.098 150V142.44H128.015L130.962 148.628L133.916 142.44H134.826V150H133.832V144.638L131.291 150H130.64L128.099 144.638V150H127.098ZM139.984 150.21C139.246 150.21 138.607 150.047 138.066 149.72C137.529 149.393 137.111 148.934 136.813 148.341C136.514 147.748 136.365 147.053 136.365 146.255C136.365 145.429 136.512 144.715 136.806 144.113C137.1 143.511 137.513 143.047 138.045 142.72C138.581 142.393 139.214 142.23 139.942 142.23C140.688 142.23 141.325 142.403 141.853 142.748C142.38 143.089 142.779 143.579 143.05 144.218C143.32 144.857 143.444 145.62 143.421 146.507H142.371V146.143C142.352 145.163 142.14 144.423 141.734 143.924C141.332 143.425 140.744 143.175 139.97 143.175C139.158 143.175 138.535 143.439 138.101 143.966C137.671 144.493 137.457 145.245 137.457 146.22C137.457 147.172 137.671 147.912 138.101 148.439C138.535 148.962 139.148 149.223 139.942 149.223C140.483 149.223 140.954 149.099 141.356 148.852C141.762 148.6 142.081 148.238 142.315 147.767L143.274 148.138C142.975 148.796 142.534 149.307 141.951 149.671C141.372 150.03 140.716 150.21 139.984 150.21ZM137.093 146.507V145.646H142.868V146.507H137.093ZM148.369 150.21C147.674 150.21 147.086 150.035 146.605 149.685C146.124 149.33 145.76 148.852 145.513 148.25C145.266 147.643 145.142 146.964 145.142 146.213C145.142 145.448 145.266 144.766 145.513 144.169C145.765 143.567 146.134 143.093 146.619 142.748C147.104 142.403 147.702 142.23 148.411 142.23C149.102 142.23 149.694 142.405 150.189 142.755C150.684 143.105 151.062 143.581 151.323 144.183C151.589 144.785 151.722 145.462 151.722 146.213C151.722 146.969 151.589 147.648 151.323 148.25C151.057 148.852 150.674 149.33 150.175 149.685C149.676 150.035 149.074 150.21 148.369 150.21ZM144.967 153.36V142.44H145.891V148.131H146.003V153.36H144.967ZM148.264 149.251C148.791 149.251 149.23 149.118 149.58 148.852C149.93 148.586 150.191 148.224 150.364 147.767C150.541 147.305 150.63 146.787 150.63 146.213C150.63 145.644 150.544 145.13 150.371 144.673C150.198 144.216 149.935 143.854 149.58 143.588C149.23 143.322 148.784 143.189 148.243 143.189C147.716 143.189 147.277 143.317 146.927 143.574C146.582 143.831 146.323 144.188 146.15 144.645C145.977 145.098 145.891 145.62 145.891 146.213C145.891 146.796 145.977 147.319 146.15 147.781C146.323 148.238 146.584 148.598 146.934 148.859C147.284 149.12 147.727 149.251 148.264 149.251Z" fill="#9CA5AC"/>
</svg>
