<svg width="290" height="256" viewBox="0 0 290 256" fill="none" xmlns="http://www.w3.org/2000/svg">
<rect width="290" height="256" rx="12" fill="#F6F7F8"/>
<path d="M20 37.8571V37.2333C20.1622 37.2492 20.2963 37.2429 20.4025 37.2143C20.5086 37.1825 20.5941 37.1127 20.659 37.0048C20.7268 36.8968 20.7858 36.7365 20.8359 36.5238C20.8861 36.3079 20.9362 36.027 20.9863 35.681C21.0423 35.3063 21.0895 34.9333 21.1278 34.5619C21.1691 34.1905 21.2045 33.8143 21.234 33.4333C21.2664 33.0492 21.293 32.6556 21.3136 32.2524C21.3342 31.8492 21.3534 31.4317 21.3711 31H25.3915V37.8571H24.7414V31.6714H21.9992C21.9785 31.9984 21.9579 32.3333 21.9372 32.6762C21.9195 33.019 21.896 33.3698 21.8665 33.7286C21.8399 34.0873 21.806 34.4571 21.7647 34.8381C21.7264 35.2159 21.6778 35.6063 21.6188 36.0095C21.5716 36.3143 21.5156 36.5968 21.4507 36.8571C21.3888 37.1175 21.3003 37.3365 21.1853 37.5143C21.0733 37.6921 20.9214 37.8143 20.7298 37.881C20.5411 37.9476 20.2978 37.9397 20 37.8571Z" fill="#344351"/>
<path d="M28.6222 38C28.1475 38 27.742 37.8841 27.4059 37.6524C27.0697 37.4206 26.8117 37.1 26.6319 36.6905C26.452 36.281 26.3621 35.8111 26.3621 35.281C26.3621 34.7413 26.4535 34.2683 26.6363 33.8619C26.8191 33.4556 27.0786 33.1397 27.4147 32.9143C27.7538 32.6857 28.1563 32.5714 28.6222 32.5714C29.0999 32.5714 29.5068 32.6873 29.8429 32.919C30.182 33.1476 30.44 33.4667 30.6169 33.8762C30.7968 34.2825 30.8867 34.7508 30.8867 35.281C30.8867 35.8206 30.7968 36.2952 30.6169 36.7048C30.437 37.1111 30.1776 37.4286 29.8385 37.6571C29.4994 37.8857 29.094 38 28.6222 38ZM28.6222 37.3286C29.1529 37.3286 29.548 37.1397 29.8075 36.7619C30.067 36.381 30.1967 35.8873 30.1967 35.281C30.1967 34.6587 30.0655 34.1635 29.8031 33.7952C29.5436 33.427 29.15 33.2429 28.6222 33.2429C28.2654 33.2429 27.9705 33.3302 27.7376 33.5048C27.5076 33.6762 27.3351 33.9159 27.2201 34.2238C27.1081 34.5286 27.052 34.881 27.052 35.281C27.052 35.9 27.1847 36.3968 27.4501 36.7714C27.7155 37.1429 28.1062 37.3286 28.6222 37.3286Z" fill="#344351"/>
<path d="M31.8624 37.8571V32.7143H35.1353V33.3857H32.5125V37.8571H31.8624Z" fill="#344351"/>
<path d="M39.7692 32.7143V37.8571H39.1367V33.8524L36.5183 37.8571H35.9699V32.7143H36.6024V36.6857L39.2251 32.7143H39.7692Z" fill="#344351"/>
<path d="M41.0061 37.8571V32.7143H41.6563V34.9476H44.3498V32.7143H45V37.8571H44.3498V35.619H41.6563V37.8571H41.0061Z" fill="#344351"/>
<path d="M154 36V30H158.502V36H157.902V30.5875H154.6V36H154Z" fill="#344351"/>
<path d="M160.905 36.125C160.573 36.125 160.294 36.0639 160.068 35.9417C159.845 35.8194 159.678 35.6569 159.566 35.4542C159.454 35.2514 159.399 35.0306 159.399 34.7917C159.399 34.5472 159.446 34.3389 159.542 34.1667C159.639 33.9917 159.771 33.8486 159.937 33.7375C160.106 33.6264 160.301 33.5417 160.521 33.4833C160.744 33.4278 160.99 33.3792 161.26 33.3375C161.532 33.2931 161.797 33.2556 162.056 33.225C162.317 33.1917 162.545 33.1597 162.741 33.1292L162.529 33.2625C162.537 32.8181 162.453 32.4889 162.276 32.275C162.099 32.0611 161.792 31.9542 161.354 31.9542C161.052 31.9542 160.796 32.0236 160.586 32.1625C160.38 32.3014 160.234 32.5208 160.15 32.8208L159.566 32.6458C159.667 32.2431 159.869 31.9306 160.174 31.7083C160.479 31.4861 160.875 31.375 161.362 31.375C161.764 31.375 162.106 31.4528 162.386 31.6083C162.669 31.7611 162.869 31.9833 162.986 32.275C163.04 32.4056 163.076 32.5514 163.092 32.7125C163.108 32.8736 163.117 33.0375 163.117 33.2042V36H162.582V34.8708L162.737 34.9375C162.587 35.3236 162.355 35.6181 162.039 35.8208C161.724 36.0236 161.345 36.125 160.905 36.125ZM160.974 35.5958C161.254 35.5958 161.499 35.5444 161.709 35.4417C161.918 35.3389 162.087 35.1986 162.215 35.0208C162.343 34.8403 162.426 34.6375 162.464 34.4125C162.496 34.2681 162.514 34.1097 162.517 33.9375C162.519 33.7625 162.521 33.6319 162.521 33.5458L162.749 33.6667C162.545 33.6944 162.324 33.7222 162.084 33.75C161.847 33.7778 161.613 33.8097 161.382 33.8458C161.154 33.8819 160.947 33.925 160.762 33.975C160.637 34.0111 160.516 34.0625 160.399 34.1292C160.282 34.1931 160.185 34.2792 160.109 34.3875C160.035 34.4958 159.999 34.6306 159.999 34.7917C159.999 34.9222 160.03 35.0486 160.092 35.1708C160.158 35.2931 160.261 35.3944 160.403 35.475C160.547 35.5556 160.737 35.5958 160.974 35.5958Z" fill="#344351"/>
<path d="M166.158 36.125C165.753 36.125 165.41 36.0208 165.13 35.8125C164.85 35.6014 164.638 35.3167 164.493 34.9583C164.349 34.5972 164.277 34.1931 164.277 33.7458C164.277 33.2903 164.349 32.8847 164.493 32.5292C164.64 32.1708 164.855 31.8889 165.138 31.6833C165.421 31.4778 165.769 31.375 166.183 31.375C166.586 31.375 166.931 31.4792 167.22 31.6875C167.508 31.8958 167.728 32.1792 167.881 32.5375C168.036 32.8958 168.113 33.2986 168.113 33.7458C168.113 34.1958 168.036 34.6 167.881 34.9583C167.726 35.3167 167.503 35.6014 167.211 35.8125C166.92 36.0208 166.569 36.125 166.158 36.125ZM164.175 38V31.5H164.714V34.8875H164.779V38H164.175ZM166.097 35.5542C166.405 35.5542 166.66 35.475 166.865 35.3167C167.069 35.1583 167.221 34.9431 167.322 34.6708C167.425 34.3958 167.477 34.0875 167.477 33.7458C167.477 33.4069 167.426 33.1014 167.326 32.8292C167.225 32.5569 167.071 32.3417 166.865 32.1833C166.66 32.025 166.401 31.9458 166.085 31.9458C165.778 31.9458 165.522 32.0222 165.318 32.175C165.116 32.3278 164.965 32.5403 164.865 32.8125C164.764 33.0819 164.714 33.3931 164.714 33.7458C164.714 34.0931 164.764 34.4042 164.865 34.6792C164.965 34.9514 165.118 35.1653 165.322 35.3208C165.526 35.4764 165.784 35.5542 166.097 35.5542Z" fill="#344351"/>
<path d="M170.85 36.125C170.412 36.125 170.038 36.0236 169.728 35.8208C169.418 35.6181 169.18 35.3375 169.014 34.9792C168.848 34.6208 168.765 34.2097 168.765 33.7458C168.765 33.2736 168.849 32.8597 169.018 32.5042C169.186 32.1486 169.426 31.8722 169.736 31.675C170.049 31.475 170.42 31.375 170.85 31.375C171.291 31.375 171.666 31.4764 171.977 31.6792C172.29 31.8792 172.528 32.1583 172.691 32.5167C172.857 32.8722 172.94 33.2819 172.94 33.7458C172.94 34.2181 172.857 34.6333 172.691 34.9917C172.525 35.3472 172.285 35.625 171.973 35.825C171.66 36.025 171.286 36.125 170.85 36.125ZM170.85 35.5375C171.34 35.5375 171.705 35.3722 171.944 35.0417C172.183 34.7083 172.303 34.2764 172.303 33.7458C172.303 33.2014 172.182 32.7681 171.94 32.4458C171.7 32.1236 171.337 31.9625 170.85 31.9625C170.521 31.9625 170.249 32.0389 170.034 32.1917C169.822 32.3417 169.663 32.5514 169.556 32.8208C169.453 33.0875 169.401 33.3958 169.401 33.7458C169.401 34.2875 169.524 34.7222 169.769 35.05C170.014 35.375 170.374 35.5375 170.85 35.5375Z" fill="#344351"/>
<path d="M173.432 36V35.4625C173.595 35.4931 173.719 35.4861 173.803 35.4417C173.89 35.3944 173.954 35.3167 173.995 35.2083C174.036 35.0972 174.07 34.9597 174.097 34.7958C174.141 34.5236 174.18 34.2236 174.216 33.8958C174.251 33.5681 174.282 33.2069 174.309 32.8125C174.339 32.4153 174.369 31.9778 174.399 31.5H177.395V36H176.799V32.0875H174.954C174.935 32.3819 174.913 32.675 174.889 32.9667C174.864 33.2583 174.839 33.5389 174.811 33.8083C174.787 34.075 174.76 34.3208 174.73 34.5458C174.7 34.7708 174.669 34.9653 174.636 35.1292C174.587 35.3764 174.522 35.5736 174.44 35.7208C174.361 35.8681 174.243 35.9653 174.085 36.0125C173.927 36.0597 173.709 36.0556 173.432 36Z" fill="#344351"/>
<path d="M178.539 36L178.531 31.5H179.135V33.1958H180.168C180.295 33.1958 180.421 33.1986 180.543 33.2042C180.668 33.2097 180.778 33.2208 180.874 33.2375C181.091 33.2792 181.284 33.3528 181.453 33.4583C181.625 33.5639 181.758 33.7097 181.853 33.8958C181.951 34.0819 182 34.3153 182 34.5958C182 34.9819 181.902 35.2861 181.706 35.5083C181.513 35.7306 181.268 35.875 180.972 35.9417C180.86 35.9667 180.739 35.9833 180.608 35.9917C180.478 35.9972 180.348 36 180.221 36H178.539ZM179.135 35.475H180.196C180.289 35.475 180.392 35.4722 180.506 35.4667C180.621 35.4611 180.721 35.4458 180.808 35.4208C180.952 35.3792 181.083 35.2958 181.2 35.1708C181.32 35.0431 181.38 34.8514 181.38 34.5958C181.38 34.3431 181.323 34.1528 181.208 34.025C181.094 33.8944 180.942 33.8083 180.751 33.7667C180.667 33.7472 180.576 33.7347 180.478 33.7292C180.38 33.7236 180.286 33.7208 180.196 33.7208H179.135V35.475Z" fill="#344351"/>
<rect x="20" y="44" width="117" height="22" rx="3" fill="white"/>
<rect x="153" y="44" width="117" height="22" rx="3" fill="white"/>
<path d="M80.4863 96.4373H71.1416C62.5159 96.4373 60 100.756 60 108.674V213.044C60 223.121 61.4376 226 71.1416 226H216.342C225.687 226 230 222.041 230 213.044V186.051V175.255V108.674C230 99.3164 225.328 96.4373 216.342 96.4373H119.302H80.4863Z" fill="white" stroke="#344351"/>
<path d="M90.1903 86C79.0486 86 80.4863 89.2391 80.4863 96.437L80.4863 204.046C80.4863 211.604 83.3615 213.763 90.5497 213.763H110.317C117.146 213.763 119.302 210.164 119.302 204.046V96.437C119.302 87.0797 119.302 86 107.082 86H90.1903Z" fill="white" stroke="#344351"/>
<path d="M136.555 129.588C136.555 127.379 138.346 125.588 140.555 125.588H200.842C203.051 125.588 204.842 127.379 204.842 129.588V143.182C204.842 145.391 203.051 147.182 200.842 147.182H140.555C138.346 147.182 136.555 145.391 136.555 143.182V129.588Z" fill="#57A8F3"/>
<g clip-path="url(#clip0_6022_33666)">
<path d="M192.363 134.063V136.425H190.088V134.063H188.508V140.222H190.088V137.779H192.363V140.222H193.944V134.063H192.363Z" fill="white"/>
<path d="M185.334 134.086C184.84 133.999 184.332 134.038 183.857 134.2C183.161 134.439 182.575 134.931 182.208 135.584C181.841 136.236 181.719 137.004 181.864 137.742C182.009 138.481 182.412 139.139 182.996 139.594C183.581 140.049 184.307 140.269 185.038 140.213C185.769 140.156 186.455 139.828 186.967 139.288C187.479 138.749 187.782 138.036 187.818 137.283C187.854 136.531 187.622 135.791 187.164 135.202C186.707 134.613 186.056 134.216 185.334 134.086V134.086ZM185.216 138.773C184.799 138.872 184.361 138.8 183.995 138.573C183.629 138.347 183.362 137.983 183.252 137.558C183.142 137.133 183.196 136.682 183.404 136.298C183.612 135.914 183.957 135.628 184.366 135.5C184.657 135.418 184.964 135.418 185.255 135.5C185.611 135.596 185.925 135.811 186.148 136.112C186.371 136.413 186.49 136.782 186.485 137.16C186.481 137.538 186.353 137.903 186.123 138.199C185.893 138.494 185.574 138.701 185.216 138.788V138.773Z" fill="white"/>
<path d="M170.879 133.764V135.414C171.253 135.601 171.555 135.913 171.734 136.298C171.913 136.684 171.96 137.121 171.867 137.537C171.773 137.954 171.545 138.325 171.22 138.591C170.894 138.857 170.49 139.002 170.074 139.002C169.658 139.002 169.255 138.857 168.929 138.591C168.604 138.325 168.376 137.954 168.282 137.537C168.189 137.121 168.236 136.684 168.415 136.298C168.594 135.913 168.895 135.601 169.269 135.414V133.764C168.474 133.966 167.777 134.461 167.312 135.154C166.847 135.848 166.644 136.692 166.743 137.528C166.842 138.364 167.236 139.134 167.85 139.693C168.463 140.251 169.255 140.559 170.074 140.559C170.894 140.559 171.686 140.251 172.299 139.693C172.913 139.134 173.306 138.364 173.405 137.528C173.505 136.692 173.302 135.848 172.837 135.154C172.372 134.461 171.675 133.966 170.879 133.764Z" fill="white"/>
<path d="M169.055 137.29C169.09 137.485 169.175 137.666 169.302 137.814C169.429 137.963 169.592 138.073 169.775 138.134C169.958 138.195 170.154 138.204 170.341 138.16C170.528 138.116 170.701 138.021 170.84 137.885C170.979 137.749 171.08 137.576 171.131 137.386C171.183 137.195 171.183 136.994 171.132 136.804C171.082 136.613 170.982 136.44 170.843 136.303C170.705 136.166 170.533 136.07 170.346 136.026V133.66H169.853V136.015C169.587 136.081 169.356 136.248 169.207 136.484C169.058 136.719 169.003 137.004 169.053 137.28L169.055 137.29Z" fill="white"/>
<path d="M178.29 134.521V134.063H176.778V134.521C176.648 134.541 176.532 134.564 176.394 134.596C174.979 134.948 173.957 135.937 173.957 137.101C173.957 138.366 175.166 139.428 176.778 139.684V140.222H178.29V139.684C179.903 139.431 181.111 138.371 181.111 137.101C181.111 135.831 179.903 134.779 178.29 134.521ZM175.582 137.101C175.582 136.499 176.074 135.985 176.786 135.765V138.439C176.072 138.219 175.575 137.703 175.575 137.101H175.582ZM178.29 138.439V135.765C178.997 135.985 179.494 136.499 179.494 137.101C179.494 137.703 178.997 138.219 178.29 138.439Z" fill="white"/>
<path d="M151.367 131.809H147.578C147.578 132.477 148.046 132.846 148.652 133.048V138.867C148.043 139.054 147.578 139.433 147.578 140.222H151.067C152.071 140.222 152.77 140.096 153.167 139.838C153.782 139.436 153.932 138.826 153.932 138.017V134.131C153.932 132.568 153.196 131.809 151.367 131.809ZM152.15 137.774C152.15 138.414 151.776 138.735 151.02 138.735C150.803 138.735 150.528 138.722 150.247 138.717V133.289C150.56 133.301 150.84 133.289 151.042 133.289C151.799 133.289 152.176 133.626 152.175 134.301C152.175 134.984 152.15 137.121 152.15 137.774Z" fill="white"/>
<path d="M157.609 134.098C155.627 134.098 154.719 135.74 154.719 137.227C154.719 139.061 155.829 140.212 157.767 140.212C158.472 140.229 159.174 140.103 159.832 139.843V138.606C159.245 138.782 158.635 138.868 158.023 138.859C157.195 138.859 156.459 138.5 156.413 137.743H160.096C160.136 137.505 160.155 137.264 160.155 137.022C160.155 135.573 159.456 134.098 157.609 134.098ZM156.408 136.496C156.454 136.016 156.757 135.307 157.506 135.307C158.323 135.307 158.51 136.051 158.51 136.496H156.408Z" fill="white"/>
<path d="M163.265 134.174C162.526 134.379 161.357 135.065 161.357 136.398V138.232C161.357 139.069 161.17 139.066 160.85 139.388C160.746 139.489 160.665 139.612 160.613 139.748C160.56 139.884 160.537 140.031 160.544 140.177H162.135C162.723 140.177 163.026 139.307 163.026 138.237V136.529C163.026 136.24 163.136 135.963 163.334 135.758C163.57 135.53 163.875 135.392 164.198 135.366H164.272V140.172H165.976V134.101H163.637C163.51 134.109 163.385 134.133 163.265 134.174V134.174Z" fill="white"/>
</g>
<path d="M133.648 118.89H207.75C210.235 118.89 212.25 120.905 212.25 123.39V150.1C212.25 152.585 210.235 154.6 207.75 154.6H133.648C131.163 154.6 129.148 152.585 129.148 150.1V123.39C129.148 120.905 131.163 118.89 133.648 118.89Z" stroke="#344351"/>
<ellipse cx="134.399" cy="170.216" rx="4.31289" ry="4.319" fill="#F88C28"/>
<ellipse cx="206.282" cy="170.216" rx="4.31291" ry="4.319" fill="#F88C28"/>
<ellipse cx="134.399" cy="189.65" rx="4.31289" ry="4.319" fill="#F88C28"/>
<ellipse cx="206.282" cy="189.65" rx="4.31291" ry="4.319" fill="#F88C28"/>
<ellipse cx="134.399" cy="209.084" rx="4.31289" ry="4.31899" fill="#F88C28"/>
<ellipse cx="206.282" cy="209.084" rx="4.31291" ry="4.31899" fill="#F88C28"/>
<rect x="151.648" y="165.897" width="8.62579" height="8.638" rx="2" fill="#F88C28"/>
<rect x="151.648" y="185.331" width="8.62579" height="8.638" rx="2" fill="#F88C28"/>
<rect x="151.648" y="204.765" width="8.62579" height="8.63799" rx="2" fill="#F88C28"/>
<rect x="166.023" y="165.897" width="8.62583" height="8.638" rx="2" fill="#F88C28"/>
<rect x="166.023" y="185.331" width="8.62583" height="8.638" rx="2" fill="#F88C28"/>
<rect x="166.023" y="204.765" width="8.62583" height="8.63799" rx="2" fill="#F88C28"/>
<rect x="180.402" y="165.897" width="8.62579" height="8.638" rx="2" fill="#F88C28"/>
<rect x="180.402" y="185.331" width="8.62579" height="8.638" rx="2" fill="#F88C28"/>
<rect x="180.402" y="204.765" width="8.62579" height="8.63799" rx="2" fill="#F88C28"/>
<defs>
<clipPath id="clip0_6022_33666">
<rect width="46.3636" height="8.75" fill="white" transform="translate(147.578 131.809)"/>
</clipPath>
</defs>
</svg>
