<svg width="350" height="350" viewBox="0 0 350 350" fill="none" xmlns="http://www.w3.org/2000/svg">
<rect x="138.764" y="350" width="252.737" height="252.737" rx="126.368" transform="rotate(-123.302 138.764 350)" stroke="url(#paint0_linear_2126_19576)" stroke-linecap="round" stroke-dasharray="5 5"/>
<path d="M309.231 138.662C329.095 212.529 285.101 288.455 210.967 308.248C136.834 328.04 60.6341 284.204 40.7701 210.338C20.9061 136.471 64.9002 60.545 139.034 40.7525C213.167 20.9599 289.367 64.7957 309.231 138.662Z" stroke="url(#paint1_linear_2126_19576)" stroke-linecap="round" stroke-dasharray="5 5"/>
<rect x="61.0005" y="61" width="229" height="229" rx="114.5" fill="#F6F7F8"/>
<g filter="url(#filter0_d_2126_19576)">
<circle cx="66" cy="107" r="23.5" fill="white" stroke="#344351"/>
<ellipse cx="65.9999" cy="101" rx="5.6" ry="6" fill="#F88C28"/>
<path d="M75.0783 118.2H56.9219C56.2587 118.2 55.7824 117.568 56.0227 116.95C57.3329 113.579 60.576 108.6 66.0001 108.6C71.4242 108.6 74.6672 113.579 75.9775 116.95C76.2178 117.568 75.7415 118.2 75.0783 118.2Z" fill="#F88C28"/>
</g>
<circle cx="175" cy="294" r="23.5" fill="white" stroke="#344351"/>
<g filter="url(#filter1_d_2126_19576)">
<path d="M164.386 285.563H163.116C161.944 285.563 161.603 286.13 161.603 287.17V300.874C161.603 302.197 161.798 302.575 163.116 302.575H182.846C184.115 302.575 184.701 302.055 184.701 300.874V297.33V295.912V287.17C184.701 285.941 184.066 285.563 182.846 285.563H169.66H164.386Z" fill="white" stroke="#F88C28"/>
<path d="M165.705 284.193C164.191 284.193 164.386 284.618 164.386 285.563L164.386 299.693C164.386 300.685 164.777 300.968 165.754 300.968H168.439C169.367 300.968 169.66 300.496 169.66 299.693V285.563C169.66 284.335 169.66 284.193 168 284.193H165.705Z" fill="white" stroke="#F88C28"/>
<path d="M171.43 288.983C171.43 288.707 171.654 288.483 171.93 288.483H181.357C181.634 288.483 181.857 288.707 181.857 288.983V291.803C181.857 292.079 181.634 292.303 181.357 292.303H171.93C171.654 292.303 171.43 292.079 171.43 291.803V288.983Z" stroke="#F88C28"/>
<rect x="172.911" y="294.33" width="0.60497" height="0.567061" rx="0.283531" fill="#F88C28" stroke="#F88C28" stroke-width="0.567061"/>
<rect x="172.911" y="296.98" width="0.60497" height="0.567061" rx="0.283531" fill="#F88C28" stroke="#F88C28" stroke-width="0.567061"/>
<rect x="172.911" y="299.63" width="0.604971" height="0.56706" rx="0.28353" fill="#F88C28" stroke="#F88C28" stroke-width="0.56706"/>
<rect x="176.435" y="294.33" width="0.604974" height="0.567061" rx="0.283531" fill="#F88C28" stroke="#F88C28" stroke-width="0.567061"/>
<rect x="176.435" y="296.98" width="0.604974" height="0.567061" rx="0.283531" fill="#F88C28" stroke="#F88C28" stroke-width="0.567061"/>
<rect x="176.435" y="299.63" width="0.604975" height="0.56706" rx="0.28353" fill="#F88C28" stroke="#F88C28" stroke-width="0.56706"/>
<rect x="179.96" y="294.33" width="0.604968" height="0.567061" rx="0.283531" fill="#F88C28" stroke="#F88C28" stroke-width="0.567061"/>
<rect x="179.96" y="296.98" width="0.604968" height="0.567061" rx="0.283531" fill="#F88C28" stroke="#F88C28" stroke-width="0.567061"/>
<rect x="179.96" y="299.63" width="0.604969" height="0.56706" rx="0.28353" fill="#F88C28" stroke="#F88C28" stroke-width="0.56706"/>
<path d="M188.948 303.888C188.948 306.496 186.755 308.64 184.015 308.64C181.274 308.64 179.082 306.496 179.082 303.888C179.082 301.279 181.274 299.136 184.015 299.136C186.755 299.136 188.948 301.279 188.948 303.888Z" fill="white" stroke="#F88C28"/>
<path d="M186.284 302.575L183.114 305.201L181.53 303.888" stroke="#F88C28" stroke-linecap="round" stroke-linejoin="round"/>
</g>
<circle cx="235" cy="279" r="23.5" fill="white" stroke="#344351"/>
<g filter="url(#filter2_d_2126_19576)">
<rect x="221.424" y="269.863" width="26.9083" height="15.6121" rx="0.5" fill="white" stroke="#F88C28"/>
<rect x="233.384" y="285.811" width="2.98691" height="2.98691" fill="white" stroke="#F88C28"/>
<rect x="228.733" y="289.134" width="11.6252" height="1.65794" rx="0.5" fill="white" stroke="#F88C28"/>
<rect x="242.022" y="279.166" width="6.97381" height="12.9542" rx="0.5" fill="white" stroke="#F88C28"/>
<rect x="242.187" y="290.626" width="6.64484" height="1.32897" fill="#F88C28"/>
<rect x="244.844" y="291.291" width="1.32897" height="0.664484" rx="0.332242" fill="white"/>
</g>
<circle cx="115" cy="279" r="23.5" fill="white" stroke="#344351"/>
<g filter="url(#filter3_d_2126_19576)">
<path d="M128.85 285.048H101.962C101.575 285.048 101.22 284.825 101.069 284.47C98.4365 278.28 102.229 275.342 104.947 274.469C105.289 274.359 105.567 274.1 105.687 273.761C107.742 267.972 112.868 268.729 115.63 270.031C115.927 270.171 116.274 270.175 116.573 270.04C122.151 267.538 124.301 272.022 124.802 275.251C124.876 275.727 125.249 276.103 125.717 276.216C129.634 277.164 130.122 281.494 129.798 284.238C129.742 284.712 129.327 285.048 128.85 285.048Z" fill="white" stroke="#F88C28" stroke-linecap="round"/>
<path d="M108.873 281.426L110.744 275.631H111.947L113.818 281.426H112.951L111.228 276.138H111.443L109.741 281.426H108.873ZM109.844 280.119V279.33H112.851V280.119H109.844Z" fill="#F88C28"/>
<path d="M114.535 281.426V275.631H116.862C116.918 275.631 116.987 275.634 117.07 275.639C117.152 275.642 117.231 275.65 117.306 275.664C117.625 275.715 117.892 275.825 118.105 275.994C118.321 276.163 118.482 276.376 118.589 276.633C118.695 276.891 118.749 277.175 118.749 277.487C118.749 277.8 118.695 278.086 118.589 278.344C118.482 278.601 118.321 278.815 118.105 278.984C117.892 279.153 117.625 279.263 117.306 279.314C117.231 279.324 117.151 279.332 117.066 279.338C116.983 279.343 116.915 279.346 116.862 279.346H115.371V281.426H114.535ZM115.371 278.549H116.83C116.883 278.549 116.942 278.546 117.006 278.541C117.072 278.536 117.135 278.526 117.194 278.513C117.364 278.473 117.501 278.399 117.605 278.291C117.709 278.181 117.784 278.055 117.829 277.913C117.875 277.771 117.897 277.629 117.897 277.487C117.897 277.344 117.875 277.204 117.829 277.064C117.784 276.922 117.709 276.797 117.605 276.69C117.501 276.58 117.364 276.505 117.194 276.464C117.135 276.448 117.072 276.438 117.006 276.432C116.942 276.427 116.883 276.424 116.83 276.424H115.371V278.549Z" fill="#F88C28"/>
<path d="M119.628 281.426V275.631H120.463V281.426H119.628Z" fill="#F88C28"/>
</g>
<circle cx="66" cy="243" r="23.5" fill="white" stroke="#344351"/>
<g filter="url(#filter4_d_2126_19576)">
<rect x="52.0601" y="233.796" width="26.84" height="16.0133" rx="0.5" fill="white" stroke="#F88C28"/>
<rect x="63.6602" y="250.037" width="3.64" height="2.86667" fill="white" stroke="#F88C28"/>
<rect x="59.7935" y="253.13" width="11.3733" height="2.09333" rx="0.5" fill="white" stroke="#F88C28"/>
<path d="M59.6758 244.897C59.0916 244.897 58.5985 244.766 58.1963 244.505C57.7942 244.241 57.4899 243.877 57.2834 243.412C57.0769 242.947 56.9736 242.411 56.9736 241.803C56.9736 241.196 57.0769 240.659 57.2834 240.195C57.4899 239.73 57.7942 239.367 58.1963 239.106C58.5985 238.842 59.0916 238.71 59.6758 238.71C60.3578 238.71 60.9148 238.887 61.3468 239.242C61.7789 239.594 62.075 240.067 62.2353 240.661L61.624 240.822C61.499 240.351 61.2748 239.979 60.9515 239.704C60.6282 239.429 60.2029 239.292 59.6758 239.292C59.2166 239.292 58.8349 239.397 58.5305 239.609C58.2262 239.821 57.9966 240.116 57.8418 240.496C57.6896 240.873 57.6108 241.308 57.6054 241.803C57.6026 242.298 57.6774 242.734 57.8295 243.111C57.9844 243.487 58.2154 243.783 58.5224 243.997C58.8321 244.209 59.2166 244.315 59.6758 244.315C60.2029 244.315 60.6282 244.178 60.9515 243.903C61.2748 243.625 61.499 243.252 61.624 242.785L62.2353 242.946C62.075 243.54 61.7789 244.014 61.3468 244.369C60.9148 244.721 60.3578 244.897 59.6758 244.897Z" fill="#F88C28"/>
<path d="M63.1346 244.773V238.834H65.4007C65.4577 238.834 65.5216 238.836 65.5922 238.842C65.6656 238.845 65.7389 238.853 65.8123 238.867C66.1193 238.913 66.3788 239.022 66.5908 239.193C66.8054 239.36 66.9671 239.572 67.0758 239.828C67.1872 240.083 67.2429 240.367 67.2429 240.677C67.2429 241.126 67.126 241.515 66.8924 241.845C66.6587 242.174 66.3245 242.382 65.8897 242.467L65.6819 242.517H63.7337V244.773H63.1346ZM66.6886 244.773L65.5311 242.356L66.1058 242.133L67.3774 244.773H66.6886ZM63.7337 241.939H65.3844C65.4333 241.939 65.4903 241.937 65.5555 241.931C65.6208 241.926 65.6846 241.916 65.7471 241.902C65.9482 241.858 66.1125 241.774 66.2403 241.651C66.3707 241.527 66.4671 241.38 66.5296 241.209C66.5948 241.039 66.6274 240.862 66.6274 240.677C66.6274 240.493 66.5948 240.316 66.5296 240.145C66.4671 239.972 66.3707 239.824 66.2403 239.7C66.1125 239.576 65.9482 239.492 65.7471 239.448C65.6846 239.434 65.6208 239.426 65.5555 239.423C65.4903 239.418 65.4333 239.415 65.3844 239.415H63.7337V241.939Z" fill="#F88C28"/>
<path d="M68.2769 244.773V238.834H68.8272L71.134 243.828L73.4286 238.834H73.987V244.769H73.4164V240.187L71.3255 244.773H70.9384L68.8516 240.187V244.773H68.2769Z" fill="#F88C28"/>
<path d="M59.6758 244.897C59.0916 244.897 58.5985 244.766 58.1963 244.505C57.7942 244.241 57.4899 243.877 57.2834 243.412C57.0769 242.947 56.9736 242.411 56.9736 241.803C56.9736 241.196 57.0769 240.659 57.2834 240.195C57.4899 239.73 57.7942 239.367 58.1963 239.106C58.5985 238.842 59.0916 238.71 59.6758 238.71C60.3578 238.71 60.9148 238.887 61.3468 239.242C61.7789 239.594 62.075 240.067 62.2353 240.661L61.624 240.822C61.499 240.351 61.2748 239.979 60.9515 239.704C60.6282 239.429 60.2029 239.292 59.6758 239.292C59.2166 239.292 58.8349 239.397 58.5305 239.609C58.2262 239.821 57.9966 240.116 57.8418 240.496C57.6896 240.873 57.6108 241.308 57.6054 241.803C57.6026 242.298 57.6774 242.734 57.8295 243.111C57.9844 243.487 58.2154 243.783 58.5224 243.997C58.8321 244.209 59.2166 244.315 59.6758 244.315C60.2029 244.315 60.6282 244.178 60.9515 243.903C61.2748 243.625 61.499 243.252 61.624 242.785L62.2353 242.946C62.075 243.54 61.7789 244.014 61.3468 244.369C60.9148 244.721 60.3578 244.897 59.6758 244.897Z" stroke="#F88C28" stroke-width="0.5"/>
<path d="M63.1346 244.773V238.834H65.4007C65.4577 238.834 65.5216 238.836 65.5922 238.842C65.6656 238.845 65.7389 238.853 65.8123 238.867C66.1193 238.913 66.3788 239.022 66.5908 239.193C66.8054 239.36 66.9671 239.572 67.0758 239.828C67.1872 240.083 67.2429 240.367 67.2429 240.677C67.2429 241.126 67.126 241.515 66.8924 241.845C66.6587 242.174 66.3245 242.382 65.8897 242.467L65.6819 242.517H63.7337V244.773H63.1346ZM66.6886 244.773L65.5311 242.356L66.1058 242.133L67.3774 244.773H66.6886ZM63.7337 241.939H65.3844C65.4333 241.939 65.4903 241.937 65.5555 241.931C65.6208 241.926 65.6846 241.916 65.7471 241.902C65.9482 241.858 66.1125 241.774 66.2403 241.651C66.3707 241.527 66.4671 241.38 66.5296 241.209C66.5948 241.039 66.6274 240.862 66.6274 240.677C66.6274 240.493 66.5948 240.316 66.5296 240.145C66.4671 239.972 66.3707 239.824 66.2403 239.7C66.1125 239.576 65.9482 239.492 65.7471 239.448C65.6846 239.434 65.6208 239.426 65.5555 239.423C65.4903 239.418 65.4333 239.415 65.3844 239.415H63.7337V241.939Z" stroke="#F88C28" stroke-width="0.5"/>
<path d="M68.2769 244.773V238.834H68.8272L71.134 243.828L73.4286 238.834H73.987V244.769H73.4164V240.187L71.3255 244.773H70.9384L68.8516 240.187V244.773H68.2769Z" stroke="#F88C28" stroke-width="0.5"/>
</g>
<circle cx="284" cy="243" r="23.5" fill="white" stroke="#344351"/>
<g filter="url(#filter5_d_2126_19576)">
<path d="M291.89 256.96H277.189C275.809 256.96 274.689 255.84 274.689 254.46V233.018C274.689 231.637 275.809 230.518 277.189 230.518H287.837C288.545 230.518 289.219 230.817 289.693 231.342L293.745 235.829C294.16 236.288 294.39 236.886 294.39 237.505V254.46C294.39 255.84 293.271 256.96 291.89 256.96Z" fill="white" stroke="#F88C28"/>
<rect x="277.413" y="245.294" width="14.2532" height="9.02692" rx="1.5" stroke="#F88C28"/>
<path d="M277.186 248.489H291.894" stroke="#F88C28"/>
<path d="M277.458 251.127H287.128" stroke="#F88C28"/>
<path d="M286.481 248.488V245.058" stroke="#F88C28"/>
<path d="M286.804 254.6V251.042" stroke="#F88C28"/>
<path d="M281.952 254.6V251.042" stroke="#F88C28"/>
<path d="M282.599 248.488V245.058" stroke="#F88C28"/>
</g>
<g filter="url(#filter6_d_2126_19576)">
<circle cx="284" cy="107" r="23.5" fill="white" stroke="#344351"/>
<ellipse cx="284" cy="101" rx="5.6" ry="6" fill="#F88C28"/>
<path d="M293.078 118.2H274.922C274.259 118.2 273.782 117.568 274.023 116.95C275.333 113.579 278.576 108.6 284 108.6C289.424 108.6 292.667 113.579 293.977 116.95C294.218 117.568 293.742 118.2 293.078 118.2Z" fill="#F88C28"/>
</g>
<g filter="url(#filter7_d_2126_19576)">
<circle cx="115" cy="70" r="23.5" fill="white" stroke="#344351"/>
<ellipse cx="115" cy="64" rx="5.6" ry="6" fill="#F88C28"/>
<path d="M124.078 81.2001H105.922C105.259 81.2001 104.782 80.5679 105.023 79.9497C106.333 76.5791 109.576 71.6001 115 71.6001C120.424 71.6001 123.667 76.5791 124.977 79.9497C125.218 80.5679 124.742 81.2001 124.078 81.2001Z" fill="#F88C28"/>
</g>
<g filter="url(#filter8_d_2126_19576)">
<circle cx="235" cy="70" r="23.5" fill="white" stroke="#344351"/>
<ellipse cx="235" cy="64" rx="5.6" ry="6" fill="#F88C28"/>
<path d="M244.078 81.2001H225.922C225.259 81.2001 224.782 80.5679 225.023 79.9497C226.333 76.5791 229.576 71.6001 235 71.6001C240.424 71.6001 243.667 76.5791 244.977 79.9497C245.218 80.5679 244.742 81.2001 244.078 81.2001Z" fill="#F88C28"/>
</g>
<g filter="url(#filter9_d_2126_19576)">
<circle cx="175" cy="55" r="23.5" fill="white" stroke="#344351"/>
<ellipse cx="175" cy="49" rx="5.6" ry="6" fill="#F88C28"/>
<path d="M184.078 66.2001H165.922C165.259 66.2001 164.782 65.5679 165.023 64.9497C166.333 61.5791 169.576 56.6001 175 56.6001C180.424 56.6001 183.667 61.5791 184.977 64.9497C185.218 65.5679 184.742 66.2001 184.078 66.2001Z" fill="#F88C28"/>
</g>
<g filter="url(#filter10_d_2126_19576)">
<circle cx="175.5" cy="174.5" r="56.5" fill="white"/>
<circle cx="175.5" cy="174.5" r="56" stroke="#344351"/>
</g>
<path d="M181.858 148V160.864C184.811 162.324 187.19 164.756 188.605 167.764C190.021 170.772 190.39 174.178 189.652 177.426C188.915 180.675 187.113 183.573 184.543 185.649C181.973 187.724 178.785 188.855 175.5 188.855C172.215 188.855 169.027 187.724 166.457 185.649C163.887 183.573 162.085 180.675 161.348 177.426C160.61 174.178 160.979 170.772 162.395 167.764C163.81 164.756 166.189 162.324 169.142 160.864V148C162.858 149.576 157.359 153.432 153.684 158.841C150.009 164.249 148.412 170.836 149.194 177.357C149.977 183.879 153.084 189.884 157.93 194.24C162.777 198.595 169.026 201 175.5 201C181.974 201 188.223 198.595 193.07 194.24C197.916 189.884 201.023 183.879 201.806 177.357C202.588 170.836 200.991 164.249 197.316 158.841C193.641 153.432 188.142 149.576 181.858 148Z" fill="#5E6B77"/>
<path d="M167.641 175.671C167.902 177.152 168.541 178.532 169.492 179.665C170.443 180.797 171.67 181.64 173.042 182.105C174.415 182.569 175.882 182.637 177.289 182.303C178.696 181.968 179.99 181.242 181.034 180.203C182.078 179.163 182.833 177.849 183.219 176.398C183.606 174.947 183.609 173.414 183.229 171.962C182.848 170.509 182.099 169.191 181.059 168.147C180.02 167.102 178.729 166.371 177.324 166.03V148H173.628V165.953C171.634 166.45 169.899 167.728 168.781 169.523C167.663 171.317 167.249 173.49 167.622 175.594L167.641 175.671Z" fill="#5E6B77"/>
<path d="M140.198 235C138.883 238.467 136.182 241.214 134.995 244.776C134.905 245.044 134.593 245.832 134.698 245.57C134.979 244.866 135.753 244.05 136.372 243.647C136.938 243.278 137.173 243.041 136.573 243.791C135.957 244.561 135.41 245.336 134.689 246.019C134.091 246.586 134.386 243.113 134 242.92" stroke="#344351" stroke-linecap="round"/>
<path d="M209 235C210.315 238.467 213.016 241.214 214.204 244.776C214.293 245.044 214.605 245.832 214.5 245.57C214.219 244.866 213.445 244.05 212.826 243.647C212.26 243.278 212.025 243.041 212.625 243.791C213.242 244.561 213.788 245.336 214.51 246.019C215.107 246.586 214.812 243.113 215.198 242.92" stroke="#344351" stroke-linecap="round"/>
<path d="M175.16 243C175.16 245.851 175.446 248.683 175.514 251.532C175.577 254.148 176.039 256.986 175.591 259.586C175.362 260.911 175.353 259.696 175.065 258.936C174.783 258.194 174.37 257.421 174.041 256.698C173.834 256.241 174.457 259.108 174.854 259.108C176.425 259.108 176.169 256.61 177.226 256.258" stroke="#344351" stroke-linecap="round"/>
<path d="M249.452 133C247.447 135.005 244.995 136.718 242.661 138.328C242.55 138.404 241.356 139.306 241.226 139.16C241.045 138.956 241.828 138.082 241.962 137.917C242.792 136.903 241.224 139.414 241.016 139.753C240.798 140.107 242.979 139.675 243.244 139.629C243.819 139.529 245.559 139.371 244.976 139.371" stroke="#344351" stroke-linecap="round"/>
<path d="M102 133C104.005 135.005 106.457 136.718 108.791 138.328C108.902 138.404 110.096 139.306 110.226 139.16C110.407 138.956 109.625 138.082 109.49 137.917C108.661 136.903 110.228 139.414 110.437 139.753C110.654 140.107 108.473 139.675 108.208 139.629C107.633 139.529 105.893 139.371 106.477 139.371" stroke="#344351" stroke-linecap="round"/>
<path d="M217.198 103C215.883 106.467 213.182 109.214 211.995 112.776C211.905 113.044 211.593 113.832 211.698 113.57C211.979 112.866 212.753 112.05 213.372 111.647C213.938 111.278 214.173 111.041 213.573 111.791C212.957 112.561 212.41 113.336 211.689 114.019C211.091 114.586 211.386 111.113 211 110.92" stroke="#344351" stroke-linecap="round"/>
<path d="M134 103C135.315 106.467 138.016 109.214 139.204 112.776C139.293 113.044 139.605 113.832 139.5 113.57C139.219 112.866 138.445 112.05 137.826 111.647C137.26 111.278 137.025 111.041 137.625 111.791C138.242 112.561 138.788 113.336 139.51 114.019C140.107 114.586 139.812 111.113 140.198 110.92" stroke="#344351" stroke-linecap="round"/>
<path d="M176.066 89C176.066 91.8509 175.781 94.6827 175.712 97.5323C175.649 100.148 175.187 102.986 175.636 105.586C175.864 106.911 175.874 105.696 176.162 104.936C176.443 104.194 176.857 103.421 177.185 102.698C177.393 102.241 176.769 105.108 176.372 105.108C174.802 105.108 175.057 102.61 174 102.258" stroke="#344351" stroke-linecap="round"/>
<path d="M110.452 212C108.447 214.005 105.995 215.718 103.661 217.328C103.55 217.404 102.356 218.306 102.226 218.16C102.045 217.956 102.828 217.082 102.962 216.917C103.792 215.903 102.224 218.414 102.016 218.753C101.798 219.107 103.979 218.675 104.244 218.629C104.819 218.529 106.559 218.371 105.976 218.371" stroke="#344351" stroke-linecap="round"/>
<path d="M241 212C243.005 214.005 245.457 215.718 247.791 217.328C247.902 217.404 249.096 218.306 249.226 218.16C249.407 217.956 248.625 217.082 248.49 216.917C247.661 215.903 249.228 218.414 249.437 218.753C249.654 219.107 247.473 218.675 247.208 218.629C246.633 218.529 244.893 218.371 245.477 218.371" stroke="#344351" stroke-linecap="round"/>
<defs>
<filter id="filter0_d_2126_19576" x="32" y="73" width="68" height="68" filterUnits="userSpaceOnUse" color-interpolation-filters="sRGB">
<feFlood flood-opacity="0" result="BackgroundImageFix"/>
<feColorMatrix in="SourceAlpha" type="matrix" values="0 0 0 0 0 0 0 0 0 0 0 0 0 0 0 0 0 0 127 0" result="hardAlpha"/>
<feOffset/>
<feGaussianBlur stdDeviation="5"/>
<feColorMatrix type="matrix" values="0 0 0 0 0.27375 0 0 0 0 0.382789 0 0 0 0 0.47625 0 0 0 0.14 0"/>
<feBlend mode="normal" in2="BackgroundImageFix" result="effect1_dropShadow_2126_19576"/>
<feBlend mode="normal" in="SourceGraphic" in2="effect1_dropShadow_2126_19576" result="shape"/>
</filter>
<filter id="filter1_d_2126_19576" x="131.4" y="250.4" width="92" height="90.7998" filterUnits="userSpaceOnUse" color-interpolation-filters="sRGB">
<feFlood flood-opacity="0" result="BackgroundImageFix"/>
<feColorMatrix in="SourceAlpha" type="matrix" values="0 0 0 0 0 0 0 0 0 0 0 0 0 0 0 0 0 0 127 0" result="hardAlpha"/>
<feOffset/>
<feGaussianBlur stdDeviation="14"/>
<feColorMatrix type="matrix" values="0 0 0 0 0.27375 0 0 0 0 0.382789 0 0 0 0 0.47625 0 0 0 0.14 0"/>
<feBlend mode="normal" in2="BackgroundImageFix" result="effect1_dropShadow_2126_19576"/>
<feBlend mode="normal" in="SourceGraphic" in2="effect1_dropShadow_2126_19576" result="shape"/>
</filter>
<filter id="filter2_d_2126_19576" x="191.4" y="233" width="93.2002" height="93.2002" filterUnits="userSpaceOnUse" color-interpolation-filters="sRGB">
<feFlood flood-opacity="0" result="BackgroundImageFix"/>
<feColorMatrix in="SourceAlpha" type="matrix" values="0 0 0 0 0 0 0 0 0 0 0 0 0 0 0 0 0 0 127 0" result="hardAlpha"/>
<feOffset/>
<feGaussianBlur stdDeviation="14"/>
<feColorMatrix type="matrix" values="0 0 0 0 0.27375 0 0 0 0 0.382789 0 0 0 0 0.47625 0 0 0 0.14 0"/>
<feBlend mode="normal" in2="BackgroundImageFix" result="effect1_dropShadow_2126_19576"/>
<feBlend mode="normal" in="SourceGraphic" in2="effect1_dropShadow_2126_19576" result="shape"/>
</filter>
<filter id="filter3_d_2126_19576" x="70.2002" y="230.6" width="95.6001" height="95.6001" filterUnits="userSpaceOnUse" color-interpolation-filters="sRGB">
<feFlood flood-opacity="0" result="BackgroundImageFix"/>
<feColorMatrix in="SourceAlpha" type="matrix" values="0 0 0 0 0 0 0 0 0 0 0 0 0 0 0 0 0 0 127 0" result="hardAlpha"/>
<feOffset/>
<feGaussianBlur stdDeviation="14"/>
<feColorMatrix type="matrix" values="0 0 0 0 0.27375 0 0 0 0 0.382789 0 0 0 0 0.47625 0 0 0 0.14 0"/>
<feBlend mode="normal" in2="BackgroundImageFix" result="effect1_dropShadow_2126_19576"/>
<feBlend mode="normal" in="SourceGraphic" in2="effect1_dropShadow_2126_19576" result="shape"/>
</filter>
<filter id="filter4_d_2126_19576" x="22.3999" y="199.4" width="90.7998" height="90.7998" filterUnits="userSpaceOnUse" color-interpolation-filters="sRGB">
<feFlood flood-opacity="0" result="BackgroundImageFix"/>
<feColorMatrix in="SourceAlpha" type="matrix" values="0 0 0 0 0 0 0 0 0 0 0 0 0 0 0 0 0 0 127 0" result="hardAlpha"/>
<feOffset/>
<feGaussianBlur stdDeviation="14"/>
<feColorMatrix type="matrix" values="0 0 0 0 0.27375 0 0 0 0 0.382789 0 0 0 0 0.47625 0 0 0 0.14 0"/>
<feBlend mode="normal" in2="BackgroundImageFix" result="effect1_dropShadow_2126_19576"/>
<feBlend mode="normal" in="SourceGraphic" in2="effect1_dropShadow_2126_19576" result="shape"/>
</filter>
<filter id="filter5_d_2126_19576" x="244" y="195.8" width="95.6001" height="95.6001" filterUnits="userSpaceOnUse" color-interpolation-filters="sRGB">
<feFlood flood-opacity="0" result="BackgroundImageFix"/>
<feColorMatrix in="SourceAlpha" type="matrix" values="0 0 0 0 0 0 0 0 0 0 0 0 0 0 0 0 0 0 127 0" result="hardAlpha"/>
<feOffset/>
<feGaussianBlur stdDeviation="14"/>
<feColorMatrix type="matrix" values="0 0 0 0 0.27375 0 0 0 0 0.382789 0 0 0 0 0.47625 0 0 0 0.14 0"/>
<feBlend mode="normal" in2="BackgroundImageFix" result="effect1_dropShadow_2126_19576"/>
<feBlend mode="normal" in="SourceGraphic" in2="effect1_dropShadow_2126_19576" result="shape"/>
</filter>
<filter id="filter6_d_2126_19576" x="250" y="73" width="68" height="68" filterUnits="userSpaceOnUse" color-interpolation-filters="sRGB">
<feFlood flood-opacity="0" result="BackgroundImageFix"/>
<feColorMatrix in="SourceAlpha" type="matrix" values="0 0 0 0 0 0 0 0 0 0 0 0 0 0 0 0 0 0 127 0" result="hardAlpha"/>
<feOffset/>
<feGaussianBlur stdDeviation="5"/>
<feColorMatrix type="matrix" values="0 0 0 0 0.27375 0 0 0 0 0.382789 0 0 0 0 0.47625 0 0 0 0.14 0"/>
<feBlend mode="normal" in2="BackgroundImageFix" result="effect1_dropShadow_2126_19576"/>
<feBlend mode="normal" in="SourceGraphic" in2="effect1_dropShadow_2126_19576" result="shape"/>
</filter>
<filter id="filter7_d_2126_19576" x="81" y="36" width="68" height="68" filterUnits="userSpaceOnUse" color-interpolation-filters="sRGB">
<feFlood flood-opacity="0" result="BackgroundImageFix"/>
<feColorMatrix in="SourceAlpha" type="matrix" values="0 0 0 0 0 0 0 0 0 0 0 0 0 0 0 0 0 0 127 0" result="hardAlpha"/>
<feOffset/>
<feGaussianBlur stdDeviation="5"/>
<feColorMatrix type="matrix" values="0 0 0 0 0.27375 0 0 0 0 0.382789 0 0 0 0 0.47625 0 0 0 0.14 0"/>
<feBlend mode="normal" in2="BackgroundImageFix" result="effect1_dropShadow_2126_19576"/>
<feBlend mode="normal" in="SourceGraphic" in2="effect1_dropShadow_2126_19576" result="shape"/>
</filter>
<filter id="filter8_d_2126_19576" x="201" y="36" width="68" height="68" filterUnits="userSpaceOnUse" color-interpolation-filters="sRGB">
<feFlood flood-opacity="0" result="BackgroundImageFix"/>
<feColorMatrix in="SourceAlpha" type="matrix" values="0 0 0 0 0 0 0 0 0 0 0 0 0 0 0 0 0 0 127 0" result="hardAlpha"/>
<feOffset/>
<feGaussianBlur stdDeviation="5"/>
<feColorMatrix type="matrix" values="0 0 0 0 0.27375 0 0 0 0 0.382789 0 0 0 0 0.47625 0 0 0 0.14 0"/>
<feBlend mode="normal" in2="BackgroundImageFix" result="effect1_dropShadow_2126_19576"/>
<feBlend mode="normal" in="SourceGraphic" in2="effect1_dropShadow_2126_19576" result="shape"/>
</filter>
<filter id="filter9_d_2126_19576" x="141" y="21" width="68" height="68" filterUnits="userSpaceOnUse" color-interpolation-filters="sRGB">
<feFlood flood-opacity="0" result="BackgroundImageFix"/>
<feColorMatrix in="SourceAlpha" type="matrix" values="0 0 0 0 0 0 0 0 0 0 0 0 0 0 0 0 0 0 127 0" result="hardAlpha"/>
<feOffset/>
<feGaussianBlur stdDeviation="5"/>
<feColorMatrix type="matrix" values="0 0 0 0 0.27375 0 0 0 0 0.382789 0 0 0 0 0.47625 0 0 0 0.14 0"/>
<feBlend mode="normal" in2="BackgroundImageFix" result="effect1_dropShadow_2126_19576"/>
<feBlend mode="normal" in="SourceGraphic" in2="effect1_dropShadow_2126_19576" result="shape"/>
</filter>
<filter id="filter10_d_2126_19576" x="91" y="90" width="169" height="169" filterUnits="userSpaceOnUse" color-interpolation-filters="sRGB">
<feFlood flood-opacity="0" result="BackgroundImageFix"/>
<feColorMatrix in="SourceAlpha" type="matrix" values="0 0 0 0 0 0 0 0 0 0 0 0 0 0 0 0 0 0 127 0" result="hardAlpha"/>
<feOffset/>
<feGaussianBlur stdDeviation="14"/>
<feColorMatrix type="matrix" values="0 0 0 0 0.27375 0 0 0 0 0.382789 0 0 0 0 0.47625 0 0 0 0.14 0"/>
<feBlend mode="normal" in2="BackgroundImageFix" result="effect1_dropShadow_2126_19576"/>
<feBlend mode="normal" in="SourceGraphic" in2="effect1_dropShadow_2126_19576" result="shape"/>
</filter>
<linearGradient id="paint0_linear_2126_19576" x1="154.723" y1="545.089" x2="393.781" y2="421.652" gradientUnits="userSpaceOnUse">
<stop stop-color="#CED2D4"/>
<stop offset="1" stop-color="#E9EBED"/>
</linearGradient>
<linearGradient id="paint1_linear_2126_19576" x1="53.5546" y1="249.818" x2="316.108" y2="113.76" gradientUnits="userSpaceOnUse">
<stop stop-color="#CED2D4"/>
<stop offset="1" stop-color="#E9EBED"/>
</linearGradient>
</defs>
</svg>
