<svg width="135" height="21" viewBox="0 0 135 21" fill="none" xmlns="http://www.w3.org/2000/svg">
<mask id="mask0_6590_41779" style="mask-type:luminance" maskUnits="userSpaceOnUse" x="0" y="0" width="135" height="21">
<path d="M0.00390625 -3.97355e-07H134.999V21H0.00390625V-3.97355e-07Z" fill="white"/>
</mask>
<g mask="url(#mask0_6590_41779)">
<path d="M132.114 18.6181C131.038 19.7762 129.819 20.4667 128.289 20.782C127.256 20.9958 126.352 21.0407 125.302 20.9292C123.912 20.7828 122.764 20.3252 121.644 19.4675C120.728 18.7687 120.073 18.0124 119.5 16.9991C119.058 16.2146 118.8 15.4808 118.657 14.5873C118.457 13.3477 118.51 12.257 118.828 11.0448C119.556 8.28774 121.581 6.33349 124.311 5.75196C125.87 5.42001 127.256 5.45412 128.798 5.86177C129.895 6.15212 130.767 6.64131 131.597 7.4325C132.121 7.93 132.493 8.43001 132.823 9.07726C133.214 9.84266 133.372 10.5864 133.327 11.4483H128.458C128.352 10.7803 128.04 10.2478 127.514 9.8385C126.833 9.30688 125.955 9.26445 125.227 9.72535C124.73 10.0423 124.403 10.4733 124.227 11.0448C123.808 12.4067 123.789 13.6738 124.163 15.049C124.322 15.6272 124.589 16.0806 125.016 16.4933C125.503 16.9692 126.11 17.1647 126.776 17.064C127.189 17.0024 127.524 16.8177 127.802 16.4974C128.094 16.1672 128.261 15.8127 128.337 15.3743C128.391 15.0656 128.421 14.8044 128.437 14.4916H133.57C133.672 16.0765 133.182 17.4683 132.114 18.6181Z" fill="#0056A8"/>
</g>
<path d="M112.488 3.94873H117.813V0.0967584H112.488V3.94873Z" fill="#0056A8"/>
<path d="M112.488 20.5107H117.813V5.92902H112.488V20.5107Z" fill="#0056A8"/>
<path d="M101.457 7.46796C102.157 6.84067 102.825 6.39807 103.67 5.9979C105.045 5.34731 106.421 5.24166 107.876 5.67677C109.436 6.14515 110.561 7.26912 111.053 8.85731C111.29 9.62021 111.392 10.2974 111.392 11.0978V20.5088H105.736V12.0454C105.736 11.7625 105.703 11.5229 105.62 11.2517C105.476 10.7658 105.162 10.4081 104.704 10.2101C103.701 9.77413 102.561 10.1602 102.011 11.1219C101.782 11.5229 101.677 11.9181 101.677 12.384V20.5088H96.1992V5.92635H101.338L101.457 7.46796Z" fill="#0056A8"/>
<path d="M38.4761 7.46698C39.1764 6.83969 39.8442 6.39709 40.6875 5.99692C42.0638 5.34634 43.4401 5.24068 44.8944 5.67579C46.4559 6.14418 47.5803 7.26814 48.0726 8.85634C48.3091 9.61924 48.4114 10.2964 48.4114 11.0968V20.5078H42.756V12.0444C42.756 11.7615 42.7211 11.5219 42.6406 11.2507C42.4944 10.7648 42.1808 10.4071 41.7218 10.2091C40.72 9.77315 39.5802 10.1592 39.031 11.1209C38.8002 11.5219 38.6954 11.9171 38.6954 12.383V20.5078H33.2188V5.92538H38.3566L38.4761 7.46698Z" fill="#0056A8"/>
<mask id="mask1_6590_41779" style="mask-type:luminance" maskUnits="userSpaceOnUse" x="0" y="0" width="135" height="21">
<path d="M0.00390625 -3.97355e-07H134.999V21H0.00390625V-3.97355e-07Z" fill="white"/>
</mask>
<g mask="url(#mask1_6590_41779)">
<path d="M72.0436 15.15C72.4514 15.2207 72.7927 15.3081 73.1842 15.442C73.5117 15.5518 73.7367 15.8114 73.8082 16.155C73.8862 16.5302 73.783 16.8863 73.5198 17.1567C73.2525 17.4337 72.9478 17.5934 72.5725 17.6533C72.0704 17.7357 71.6252 17.6933 71.1466 17.5152C70.9151 17.4304 70.7315 17.3231 70.5414 17.1625C70.2968 16.9512 70.1392 16.7091 70.0442 16.3963C69.9645 16.1309 69.9329 15.8963 69.9377 15.6184H64.7227V15.9295C64.7227 16.432 64.799 16.858 64.9713 17.328C65.2329 18.0352 65.5912 18.5818 66.1322 19.0976C66.8383 19.774 67.5751 20.1958 68.5038 20.4678C70.4317 21.0302 72.1679 21.1417 74.1494 20.8306C75.0789 20.685 75.8458 20.4287 76.6818 19.9853C77.0498 19.7898 77.3448 19.5876 77.6624 19.3147C79.0712 18.1034 79.5936 16.2548 79.0306 14.462C78.8177 13.7864 78.4814 13.2656 77.9573 12.7997C77.2391 12.1625 76.512 11.7565 75.5988 11.4836C75.399 11.4245 75.2284 11.3746 75.0269 11.318C73.9098 11.0002 72.9503 10.7906 71.8031 10.6159C71.496 10.5693 71.2376 10.5185 70.9346 10.4461C70.7949 10.412 70.6787 10.3721 70.5487 10.3114C70.2278 10.1633 70.0856 9.77642 70.2302 9.44863C70.2383 9.43116 70.2456 9.41536 70.2546 9.39872C70.4268 9.08341 70.6819 8.87792 71.0183 8.77725C71.6138 8.60088 72.1622 8.61585 72.7463 8.81968C73.3069 9.01519 73.6587 9.54181 73.6343 10.1483H78.6593C78.6544 9.51602 78.5602 8.98191 78.3522 8.3879C78.1393 7.78556 77.816 7.32716 77.3245 6.93032C76.8971 6.58256 76.4917 6.34629 75.9823 6.14412C75.4867 5.94695 75.0496 5.82382 74.5256 5.72981C73.2801 5.51018 72.2085 5.44612 70.9476 5.52266C70.227 5.56509 69.6192 5.6566 68.914 5.82549C67.9651 6.05427 67.2006 6.42948 66.4337 7.04513C65.7821 7.56842 65.3555 8.17991 65.0826 8.98025C64.9583 9.34298 64.899 9.66494 64.8827 10.0468C64.8543 10.6866 64.9445 11.2315 65.176 11.8264C65.5903 12.8912 66.3264 13.6458 67.368 14.071C67.8952 14.2864 68.3575 14.4279 68.914 14.5443C70.0108 14.7764 70.9395 14.957 72.0436 15.15Z" fill="#0056A8"/>
</g>
<path d="M9.70382 14.2209H6.04945V9.43635H8.42422C8.87512 9.43635 9.25697 9.42554 9.70788 9.39975C10.3326 9.3648 10.8518 9.07861 11.2239 8.56364C11.4213 8.28992 11.5326 8.01372 11.5797 7.67594C11.6187 7.39142 11.6244 7.14849 11.5968 6.86396C11.4953 5.79906 10.6341 5.00039 9.59007 5.00039H6.04945V20.5088H0V0.0943733H9.88824C10.2815 0.0943733 10.6138 0.10186 11.0062 0.124323C13.6295 0.268251 15.7906 1.75994 16.9021 4.19756C17.4805 5.46628 17.6771 6.68592 17.5285 8.07861C17.2148 11.0104 15.2122 13.2908 12.3987 13.9222C11.466 14.1319 10.6584 14.2209 9.70382 14.2209Z" fill="#0056A8"/>
<path d="M89.1222 5.64913C88.5592 5.55761 88.0782 5.52018 87.5087 5.52018C86.9384 5.52018 86.4582 5.55761 85.8944 5.64913C84.2597 5.91119 82.9354 6.58424 81.742 7.75729C80.4648 9.01437 79.7653 10.5019 79.6052 12.3081C79.5078 13.4171 79.5914 14.373 79.8831 15.4454C80.3299 17.091 81.1692 18.3622 82.4935 19.4004C83.3652 20.0868 84.2321 20.4978 85.3062 20.7374C86.069 20.9088 86.7279 20.9795 87.5087 20.9795C88.2886 20.9795 88.9483 20.9088 89.712 20.7374C90.7853 20.4978 91.6521 20.0868 92.5239 19.4004L89.4642 15.9861C88.9776 17.0926 87.7102 17.586 86.6288 17.0876C86.1308 16.858 85.7774 16.4969 85.5523 15.9861C85.3452 15.5144 85.2241 15.0918 85.1494 14.5793C84.9982 13.5552 85.0153 12.6658 85.2111 11.6483C85.311 11.12 85.4833 10.6891 85.7709 10.239C86.3997 9.25647 87.6866 8.98192 88.6477 9.62502C88.8988 9.79391 89.0824 9.98193 89.2457 10.239C89.5341 10.6891 89.7063 11.12 89.8063 11.6483C89.9996 12.6658 90.0191 13.5552 89.868 14.5793C89.7925 15.0918 89.6714 15.5144 89.4642 15.9861L92.5239 19.4004C93.849 18.3622 94.6882 17.091 95.1343 15.4454C95.4259 14.373 95.5088 13.4171 95.4121 12.3081C95.2521 10.5019 94.5542 9.01437 93.2762 7.75729C92.0819 6.58258 90.7585 5.91119 89.1222 5.64913Z" fill="#0056A8"/>
<mask id="mask2_6590_41779" style="mask-type:luminance" maskUnits="userSpaceOnUse" x="0" y="0" width="135" height="21">
<path d="M0.00390625 -3.97355e-07H134.999V21H0.00390625V-3.97355e-07Z" fill="white"/>
</mask>
<g mask="url(#mask2_6590_41779)">
<path d="M64.14 19.3672C64.0604 18.1659 64.0157 17.1484 63.9922 15.9429C63.9613 14.3589 63.9426 13.0228 63.932 11.4396C63.9255 10.5851 63.8337 9.86384 63.6249 9.03688C63.3512 7.95285 62.7313 7.12922 61.7766 6.5818C61.1998 6.25151 60.6709 6.04852 60.0258 5.90542C57.972 5.45534 56.1594 5.4179 54.0901 5.78562C53.5084 5.88878 53.0274 6.03188 52.4815 6.26316C51.2206 6.79727 50.3521 7.77065 49.9475 9.10427C49.7923 9.61426 49.7509 10.0768 49.8102 10.6084C49.8215 10.7058 49.8451 10.7881 49.8882 10.8772L54.68 10.997C54.6678 10.6841 54.7076 10.4196 54.8108 10.1259C54.9676 9.67832 55.2763 9.36051 55.7134 9.19745C56.356 8.95535 56.9751 8.9462 57.6267 9.16417C58.0548 9.3081 58.3587 9.62424 58.4919 10.0643C58.5756 10.3397 58.5342 10.6109 58.3717 10.8464C58.2303 11.0544 58.0556 11.1941 57.8241 11.2848C57.6811 11.3406 57.5592 11.3813 57.413 11.4213C56.7468 11.6051 56.1781 11.7316 55.4981 11.8472C54.9594 11.9379 54.5061 12.0236 53.9723 12.1351C53.2468 12.2823 52.6407 12.4454 51.938 12.6783C51.2945 12.8913 50.7875 13.1941 50.2903 13.6625C49.6436 14.2682 49.274 14.9862 49.1505 15.8772C49.0692 16.4712 49.0879 16.9887 49.2163 17.5735C49.5518 19.0943 50.5828 20.2191 52.046 20.6551C53.6676 21.1368 55.1894 21.0577 56.7549 20.4105C57.517 20.0968 58.0971 19.6617 58.6211 19.0145L58.2831 16.5078C58.0418 16.8905 57.742 17.1517 57.3366 17.3348C56.9564 17.507 56.6128 17.5977 56.1992 17.6409C55.8547 17.6759 55.5558 17.6501 55.2218 17.5544C54.9505 17.4779 54.7384 17.3481 54.5459 17.1384C54.3834 16.9587 54.2867 16.7657 54.2372 16.5261C54.1616 16.1584 54.2794 15.8048 54.5597 15.561C54.7474 15.3972 54.931 15.2873 55.1609 15.2008C55.7174 14.9912 56.1927 14.8339 56.7622 14.6684C57.4512 14.4695 58.0215 14.254 58.6715 13.9479C58.7357 14.4812 58.7324 14.9379 58.6601 15.4687C58.6073 15.8581 58.4919 16.1784 58.2831 16.5078L58.6211 19.0145C58.7259 19.3705 58.8226 19.6684 58.9412 20.017C59.0086 20.2125 59.0964 20.3639 59.2296 20.5161H64.5081C64.283 20.1542 64.1685 19.7965 64.14 19.3672Z" fill="#0056A8"/>
<path d="M32.1716 19.3672C32.092 18.1659 32.0473 17.1484 32.0237 15.9429C31.992 14.3589 31.9742 13.0228 31.9636 11.4396C31.9579 10.5851 31.8661 9.86384 31.6565 9.03688C31.3827 7.95285 30.7636 7.12922 29.8082 6.5818C29.2314 6.25151 28.7025 6.04852 28.0574 5.90542C26.0035 5.45534 24.191 5.4179 22.1209 5.78562C21.5408 5.88878 21.0582 6.03188 20.513 6.26316C19.2521 6.79727 18.3836 7.77065 17.979 9.10427C17.8247 9.61426 17.7824 10.0768 17.8425 10.6084C17.8531 10.7058 17.8767 10.7881 17.9197 10.8772L22.7115 10.997C22.7001 10.6841 22.7391 10.4196 22.8423 10.1259C22.9991 9.67832 23.3078 9.36051 23.7449 9.19745C24.3884 8.95535 25.0067 8.9462 25.6574 9.16417C26.0864 9.3081 26.3911 9.62424 26.5251 10.0643C26.6072 10.3397 26.5657 10.6109 26.4032 10.8464C26.2611 11.0544 26.0864 11.1941 25.8557 11.2848C25.7127 11.3406 25.5908 11.3813 25.4437 11.4213C24.7784 11.6051 24.2088 11.7316 23.5296 11.8472C22.9918 11.9379 22.5376 12.0236 22.0031 12.1351C21.2784 12.2823 20.6731 12.4454 19.9687 12.6783C19.3269 12.8913 18.8199 13.1941 18.3219 13.6625C17.6752 14.2682 17.3063 14.9862 17.182 15.8772C17.1 16.4712 17.1195 16.9887 17.2486 17.5735C17.5826 19.0943 18.6152 20.2191 20.0767 20.6551C21.7 21.1368 23.2201 21.0577 24.7865 20.4105C25.5477 20.0968 26.1294 19.6617 26.6535 19.0145L26.3155 16.5078C26.0742 16.8905 25.7736 17.1517 25.3674 17.3348C24.988 17.507 24.6435 17.5977 24.2316 17.6409C23.8855 17.6759 23.5881 17.6501 23.2534 17.5544C22.982 17.4779 22.77 17.3481 22.5783 17.1384C22.415 16.9587 22.3183 16.7657 22.2687 16.5261C22.194 16.1584 22.311 15.8048 22.5913 15.561C22.7781 15.3972 22.9617 15.2873 23.1925 15.2008C23.749 14.9912 24.2251 14.8339 24.7946 14.6684C25.4836 14.4695 26.0531 14.254 26.7038 13.9479C26.7672 14.4812 26.764 14.9379 26.6917 15.4687C26.6388 15.8581 26.5227 16.1784 26.3155 16.5078L26.6535 19.0145C26.7575 19.3705 26.8541 19.6684 26.9736 20.017C27.0402 20.2125 27.1279 20.3639 27.2612 20.5161H32.5396C32.3146 20.1542 32.2008 19.7965 32.1716 19.3672Z" fill="#0056A8"/>
</g>
</svg>
