<svg width="540" height="476" viewBox="0 0 540 476" fill="none" xmlns="http://www.w3.org/2000/svg">
<rect width="540" height="476" rx="12" fill="#F6F7F8"/>
<path d="M103.173 435.24C102.303 435.24 101.567 435.045 100.965 434.656C100.362 434.267 99.9034 433.731 99.5888 433.048C99.2794 432.36 99.1194 431.571 99.1088 430.68C99.1194 429.773 99.2848 428.979 99.6048 428.296C99.9248 427.608 100.386 427.075 100.989 426.696C101.591 426.312 102.322 426.12 103.181 426.12C104.055 426.12 104.815 426.333 105.461 426.76C106.111 427.187 106.557 427.771 106.797 428.512L105.645 428.88C105.442 428.363 105.119 427.963 104.677 427.68C104.239 427.392 103.738 427.248 103.173 427.248C102.538 427.248 102.013 427.395 101.597 427.688C101.181 427.976 100.871 428.379 100.669 428.896C100.466 429.413 100.362 430.008 100.357 430.68C100.367 431.715 100.607 432.547 101.077 433.176C101.546 433.8 102.245 434.112 103.173 434.112C103.759 434.112 104.258 433.979 104.669 433.712C105.085 433.44 105.399 433.045 105.613 432.528L106.797 432.88C106.477 433.648 106.007 434.235 105.389 434.64C104.77 435.04 104.031 435.24 103.173 435.24ZM111.822 435.24C110.963 435.24 110.23 435.045 109.622 434.656C109.014 434.267 108.547 433.728 108.222 433.04C107.896 432.352 107.734 431.563 107.734 430.672C107.734 429.765 107.899 428.971 108.23 428.288C108.56 427.605 109.03 427.075 109.638 426.696C110.251 426.312 110.979 426.12 111.822 426.12C112.686 426.12 113.422 426.315 114.03 426.704C114.643 427.088 115.11 427.624 115.43 428.312C115.755 428.995 115.918 429.781 115.918 430.672C115.918 431.579 115.755 432.376 115.43 433.064C115.104 433.747 114.635 434.28 114.022 434.664C113.408 435.048 112.675 435.24 111.822 435.24ZM111.822 434.112C112.782 434.112 113.496 433.795 113.966 433.16C114.435 432.52 114.67 431.691 114.67 430.672C114.67 429.627 114.432 428.795 113.958 428.176C113.488 427.557 112.776 427.248 111.822 427.248C111.176 427.248 110.643 427.395 110.222 427.688C109.806 427.976 109.494 428.379 109.286 428.896C109.083 429.408 108.982 430 108.982 430.672C108.982 431.712 109.222 432.547 109.702 433.176C110.182 433.8 110.888 434.112 111.822 434.112ZM117.675 435V426.36H121.235C121.416 426.36 121.635 426.371 121.891 426.392C122.152 426.413 122.395 426.453 122.619 426.512C123.104 426.64 123.493 426.901 123.787 427.296C124.085 427.691 124.235 428.165 124.235 428.72C124.235 429.029 124.187 429.307 124.091 429.552C124 429.792 123.869 430 123.699 430.176C123.619 430.267 123.531 430.347 123.435 430.416C123.339 430.48 123.245 430.533 123.155 430.576C123.325 430.608 123.509 430.683 123.707 430.8C124.016 430.981 124.251 431.227 124.411 431.536C124.571 431.84 124.651 432.211 124.651 432.648C124.651 433.24 124.509 433.723 124.227 434.096C123.944 434.469 123.565 434.725 123.091 434.864C122.877 434.923 122.645 434.96 122.395 434.976C122.149 434.992 121.917 435 121.699 435H117.675ZM118.859 434H121.643C121.755 434 121.896 433.992 122.067 433.976C122.237 433.955 122.389 433.928 122.523 433.896C122.837 433.816 123.067 433.656 123.211 433.416C123.36 433.171 123.435 432.904 123.435 432.616C123.435 432.237 123.323 431.928 123.099 431.688C122.88 431.443 122.587 431.293 122.219 431.24C122.096 431.213 121.968 431.197 121.835 431.192C121.701 431.187 121.581 431.184 121.475 431.184H118.859V434ZM118.859 430.176H121.275C121.413 430.176 121.568 430.168 121.739 430.152C121.915 430.131 122.067 430.096 122.195 430.048C122.472 429.952 122.675 429.787 122.803 429.552C122.936 429.317 123.003 429.061 123.003 428.784C123.003 428.48 122.931 428.213 122.787 427.984C122.648 427.755 122.437 427.595 122.155 427.504C121.963 427.435 121.755 427.395 121.531 427.384C121.312 427.373 121.173 427.368 121.115 427.368H118.859V430.176ZM126.237 435V426.36H127.285L130.653 433.432L134.029 426.36H135.069V435H133.933V428.872L131.029 435H130.285L127.381 428.872V435H126.237ZM140.964 435.24C140.121 435.24 139.39 435.053 138.772 434.68C138.158 434.307 137.681 433.781 137.34 433.104C136.998 432.427 136.828 431.632 136.828 430.72C136.828 429.776 136.996 428.96 137.332 428.272C137.668 427.584 138.14 427.053 138.748 426.68C139.361 426.307 140.084 426.12 140.916 426.12C141.769 426.12 142.497 426.317 143.1 426.712C143.702 427.101 144.158 427.661 144.468 428.392C144.777 429.123 144.918 429.995 144.892 431.008H143.692V430.592C143.67 429.472 143.428 428.627 142.964 428.056C142.505 427.485 141.833 427.2 140.948 427.2C140.02 427.2 139.308 427.501 138.812 428.104C138.321 428.707 138.076 429.565 138.076 430.68C138.076 431.768 138.321 432.613 138.812 433.216C139.308 433.813 140.009 434.112 140.916 434.112C141.534 434.112 142.073 433.971 142.532 433.688C142.996 433.4 143.361 432.987 143.628 432.448L144.724 432.872C144.382 433.624 143.878 434.208 143.212 434.624C142.55 435.035 141.801 435.24 140.964 435.24ZM137.66 431.008V430.024H144.26V431.008H137.66ZM150.251 435.24C149.382 435.24 148.646 435.045 148.043 434.656C147.44 434.267 146.982 433.731 146.667 433.048C146.358 432.36 146.198 431.571 146.187 430.68C146.198 429.773 146.363 428.979 146.683 428.296C147.003 427.608 147.464 427.075 148.067 426.696C148.67 426.312 149.4 426.12 150.259 426.12C151.134 426.12 151.894 426.333 152.539 426.76C153.19 427.187 153.635 427.771 153.875 428.512L152.723 428.88C152.52 428.363 152.198 427.963 151.755 427.68C151.318 427.392 150.816 427.248 150.251 427.248C149.616 427.248 149.091 427.395 148.675 427.688C148.259 427.976 147.95 428.379 147.747 428.896C147.544 429.413 147.44 430.008 147.435 430.68C147.446 431.715 147.686 432.547 148.155 433.176C148.624 433.8 149.323 434.112 150.251 434.112C150.838 434.112 151.336 433.979 151.747 433.712C152.163 433.44 152.478 433.045 152.691 432.528L153.875 432.88C153.555 433.648 153.086 434.235 152.467 434.64C151.848 435.04 151.11 435.24 150.251 435.24ZM157.667 435V427.448H154.603V426.36H161.907V427.448H158.843V435H157.667ZM170.297 426.36V435H169.153V428.272L164.417 435H163.425V426.36H164.569V433.032L169.313 426.36H170.297ZM172.534 435V426.36H173.582L176.95 433.432L180.326 426.36H181.366V435H180.23V428.872L177.326 435H176.582L173.678 428.872V435H172.534ZM187.212 435.24C186.354 435.24 185.62 435.045 185.012 434.656C184.404 434.267 183.938 433.728 183.612 433.04C183.287 432.352 183.124 431.563 183.124 430.672C183.124 429.765 183.29 428.971 183.62 428.288C183.951 427.605 184.42 427.075 185.028 426.696C185.642 426.312 186.37 426.12 187.212 426.12C188.076 426.12 188.812 426.315 189.42 426.704C190.034 427.088 190.5 427.624 190.82 428.312C191.146 428.995 191.308 429.781 191.308 430.672C191.308 431.579 191.146 432.376 190.82 433.064C190.495 433.747 190.026 434.28 189.412 434.664C188.799 435.048 188.066 435.24 187.212 435.24ZM187.212 434.112C188.172 434.112 188.887 433.795 189.356 433.16C189.826 432.52 190.06 431.691 190.06 430.672C190.06 429.627 189.823 428.795 189.348 428.176C188.879 427.557 188.167 427.248 187.212 427.248C186.567 427.248 186.034 427.395 185.612 427.688C185.196 427.976 184.884 428.379 184.676 428.896C184.474 429.408 184.372 430 184.372 430.672C184.372 431.712 184.612 432.547 185.092 433.176C185.572 433.8 186.279 434.112 187.212 434.112ZM199.86 435.24C198.991 435.24 198.255 435.045 197.652 434.656C197.05 434.267 196.591 433.731 196.276 433.048C195.967 432.36 195.807 431.571 195.796 430.68C195.807 429.773 195.972 428.979 196.292 428.296C196.612 427.608 197.074 427.075 197.676 426.696C198.279 426.312 199.01 426.12 199.868 426.12C200.743 426.12 201.503 426.333 202.148 426.76C202.799 427.187 203.244 427.771 203.484 428.512L202.332 428.88C202.13 428.363 201.807 427.963 201.364 427.68C200.927 427.392 200.426 427.248 199.86 427.248C199.226 427.248 198.7 427.395 198.284 427.688C197.868 427.976 197.559 428.379 197.356 428.896C197.154 429.413 197.05 430.008 197.044 430.68C197.055 431.715 197.295 432.547 197.764 433.176C198.234 433.8 198.932 434.112 199.86 434.112C200.447 434.112 200.946 433.979 201.356 433.712C201.772 433.44 202.087 433.045 202.3 432.528L203.484 432.88C203.164 433.648 202.695 434.235 202.076 434.64C201.458 435.04 200.719 435.24 199.86 435.24ZM210.811 435L207.483 423.48H208.707L211.403 432.992L214.083 423.488L215.315 423.48L218.011 432.992L220.691 423.48H221.923L218.603 435H217.419L214.699 425.552L211.995 435H210.811ZM223.155 424.72V423.4H224.331V424.72H223.155ZM223.155 435V426.36H224.331V435H223.155ZM232.969 435V430.592C232.969 430.112 232.924 429.672 232.833 429.272C232.743 428.867 232.596 428.515 232.393 428.216C232.196 427.912 231.937 427.677 231.617 427.512C231.303 427.347 230.919 427.264 230.465 427.264C230.049 427.264 229.681 427.336 229.361 427.48C229.047 427.624 228.78 427.832 228.561 428.104C228.348 428.371 228.185 428.696 228.073 429.08C227.961 429.464 227.905 429.901 227.905 430.392L227.073 430.208C227.073 429.323 227.228 428.579 227.537 427.976C227.847 427.373 228.273 426.917 228.817 426.608C229.361 426.299 229.985 426.144 230.689 426.144C231.207 426.144 231.657 426.224 232.041 426.384C232.431 426.544 232.759 426.76 233.025 427.032C233.297 427.304 233.516 427.616 233.681 427.968C233.847 428.315 233.967 428.685 234.041 429.08C234.116 429.469 234.153 429.859 234.153 430.248V435H232.969ZM226.721 435V426.36H227.785V428.488H227.905V435H226.721ZM239.535 435.24C238.729 435.24 238.041 435.04 237.471 434.64C236.9 434.235 236.463 433.688 236.159 433C235.855 432.312 235.703 431.536 235.703 430.672C235.703 429.813 235.852 429.04 236.151 428.352C236.455 427.664 236.889 427.12 237.455 426.72C238.02 426.32 238.697 426.12 239.487 426.12C240.297 426.12 240.98 426.317 241.535 426.712C242.089 427.107 242.508 427.648 242.791 428.336C243.079 429.019 243.223 429.797 243.223 430.672C243.223 431.531 243.081 432.307 242.799 433C242.516 433.688 242.1 434.235 241.551 434.64C241.001 435.04 240.329 435.24 239.535 435.24ZM239.655 434.144C240.268 434.144 240.775 433.995 241.175 433.696C241.575 433.397 241.873 432.987 242.071 432.464C242.268 431.936 242.367 431.339 242.367 430.672C242.367 429.995 242.268 429.397 242.071 428.88C241.873 428.357 241.575 427.949 241.175 427.656C240.78 427.363 240.281 427.216 239.679 427.216C239.06 427.216 238.548 427.368 238.143 427.672C237.737 427.976 237.436 428.389 237.239 428.912C237.047 429.435 236.951 430.021 236.951 430.672C236.951 431.328 237.049 431.92 237.247 432.448C237.449 432.971 237.751 433.384 238.151 433.688C238.551 433.992 239.052 434.144 239.655 434.144ZM242.367 435V428.496H242.239V423.48H243.423V435H242.367ZM249.275 435.24C248.416 435.24 247.683 435.045 247.075 434.656C246.467 434.267 246 433.728 245.675 433.04C245.35 432.352 245.187 431.563 245.187 430.672C245.187 429.765 245.352 428.971 245.683 428.288C246.014 427.605 246.483 427.075 247.091 426.696C247.704 426.312 248.432 426.12 249.275 426.12C250.139 426.12 250.875 426.315 251.483 426.704C252.096 427.088 252.563 427.624 252.883 428.312C253.208 428.995 253.371 429.781 253.371 430.672C253.371 431.579 253.208 432.376 252.883 433.064C252.558 433.747 252.088 434.28 251.475 434.664C250.862 435.048 250.128 435.24 249.275 435.24ZM249.275 434.112C250.235 434.112 250.95 433.795 251.419 433.16C251.888 432.52 252.123 431.691 252.123 430.672C252.123 429.627 251.886 428.795 251.411 428.176C250.942 427.557 250.23 427.248 249.275 427.248C248.63 427.248 248.096 427.395 247.675 427.688C247.259 427.976 246.947 428.379 246.739 428.896C246.536 429.408 246.435 430 246.435 430.672C246.435 431.712 246.675 432.547 247.155 433.176C247.635 433.8 248.342 434.112 249.275 434.112ZM256.663 435L254.023 426.352L255.199 426.36L257.247 433.072L259.303 426.36H260.375L262.431 433.072L264.495 426.36H265.663L263.023 435H261.999L259.839 428.12L257.687 435H256.663ZM270.016 435.232C269.003 435.232 268.168 435.013 267.512 434.576C266.861 434.139 266.461 433.531 266.312 432.752L267.512 432.552C267.64 433.043 267.931 433.435 268.384 433.728C268.843 434.016 269.408 434.16 270.08 434.16C270.736 434.16 271.253 434.024 271.632 433.752C272.011 433.475 272.2 433.099 272.2 432.624C272.2 432.357 272.139 432.141 272.016 431.976C271.899 431.805 271.656 431.648 271.288 431.504C270.92 431.36 270.371 431.189 269.64 430.992C268.856 430.779 268.243 430.565 267.8 430.352C267.357 430.139 267.043 429.893 266.856 429.616C266.669 429.333 266.576 428.989 266.576 428.584C266.576 428.093 266.715 427.664 266.992 427.296C267.269 426.923 267.653 426.635 268.144 426.432C268.635 426.224 269.205 426.12 269.856 426.12C270.507 426.12 271.088 426.227 271.6 426.44C272.117 426.648 272.533 426.941 272.848 427.32C273.163 427.699 273.349 428.139 273.408 428.64L272.208 428.856C272.128 428.349 271.875 427.949 271.448 427.656C271.027 427.357 270.491 427.203 269.84 427.192C269.227 427.176 268.728 427.293 268.344 427.544C267.96 427.789 267.768 428.117 267.768 428.528C267.768 428.757 267.837 428.955 267.976 429.12C268.115 429.28 268.365 429.432 268.728 429.576C269.096 429.72 269.619 429.877 270.296 430.048C271.091 430.251 271.715 430.464 272.168 430.688C272.621 430.912 272.944 431.176 273.136 431.48C273.328 431.784 273.424 432.16 273.424 432.608C273.424 433.424 273.12 434.067 272.512 434.536C271.909 435 271.077 435.232 270.016 435.232ZM275.038 436.672L275.11 436.088C275.323 436.104 275.478 436.061 275.574 435.96C275.67 435.859 275.729 435.723 275.75 435.552C275.771 435.381 275.777 435.197 275.766 435H275.038V433.312H276.406V435.32C276.406 435.811 276.281 436.179 276.03 436.424C275.785 436.669 275.454 436.752 275.038 436.672ZM282.811 435V423.48H283.987V433.872H289.459V435H282.811ZM290.983 424.72V423.4H292.159V424.72H290.983ZM290.983 435V426.36H292.159V435H290.983ZM300.798 435V430.592C300.798 430.112 300.752 429.672 300.662 429.272C300.571 428.867 300.424 428.515 300.222 428.216C300.024 427.912 299.766 427.677 299.446 427.512C299.131 427.347 298.747 427.264 298.294 427.264C297.878 427.264 297.51 427.336 297.19 427.48C296.875 427.624 296.608 427.832 296.39 428.104C296.176 428.371 296.014 428.696 295.902 429.08C295.79 429.464 295.734 429.901 295.734 430.392L294.902 430.208C294.902 429.323 295.056 428.579 295.366 427.976C295.675 427.373 296.102 426.917 296.646 426.608C297.19 426.299 297.814 426.144 298.518 426.144C299.035 426.144 299.486 426.224 299.87 426.384C300.259 426.544 300.587 426.76 300.854 427.032C301.126 427.304 301.344 427.616 301.51 427.968C301.675 428.315 301.795 428.685 301.87 429.08C301.944 429.469 301.982 429.859 301.982 430.248V435H300.798ZM294.55 435V426.36H295.614V428.488H295.734V435H294.55ZM307.362 435.216C306.844 435.216 306.391 435.136 306.002 434.976C305.618 434.816 305.29 434.6 305.018 434.328C304.751 434.056 304.535 433.747 304.37 433.4C304.204 433.048 304.084 432.677 304.01 432.288C303.935 431.893 303.898 431.501 303.898 431.112V426.36H305.082V430.768C305.082 431.243 305.127 431.683 305.218 432.088C305.308 432.493 305.452 432.848 305.65 433.152C305.852 433.451 306.111 433.683 306.426 433.848C306.746 434.013 307.132 434.096 307.586 434.096C308.002 434.096 308.367 434.024 308.682 433.88C309.002 433.736 309.268 433.531 309.482 433.264C309.7 432.992 309.866 432.664 309.978 432.28C310.09 431.891 310.146 431.453 310.146 430.968L310.977 431.152C310.977 432.037 310.823 432.781 310.514 433.384C310.204 433.987 309.778 434.443 309.234 434.752C308.69 435.061 308.066 435.216 307.362 435.216ZM310.266 435V432.872H310.146V426.36H311.322V435H310.266ZM312.598 435L315.974 430.632L312.67 426.36H314.078L316.661 429.728L319.222 426.36H320.63L317.326 430.632L320.71 435H319.294L316.661 431.536L314.014 435H312.598ZM332.062 426.36V435H330.918V428.272L326.182 435H325.19V426.36H326.334V433.032L331.078 426.36H332.062ZM347.815 435L347.823 429.328C347.823 428.661 347.636 428.139 347.263 427.76C346.895 427.376 346.425 427.184 345.855 427.184C345.529 427.184 345.212 427.259 344.903 427.408C344.593 427.557 344.337 427.797 344.135 428.128C343.937 428.459 343.839 428.891 343.839 429.424L343.143 429.224C343.127 428.605 343.247 428.064 343.503 427.6C343.764 427.136 344.121 426.776 344.575 426.52C345.033 426.259 345.551 426.128 346.127 426.128C346.996 426.128 347.692 426.397 348.215 426.936C348.737 427.469 348.999 428.192 348.999 429.104L348.991 435H347.815ZM337.503 435V426.36H338.559V428.488H338.687V435H337.503ZM342.671 435L342.679 429.408C342.679 428.72 342.495 428.179 342.127 427.784C341.764 427.384 341.284 427.184 340.687 427.184C340.089 427.184 339.607 427.389 339.239 427.8C338.871 428.205 338.687 428.747 338.687 429.424L337.983 429.04C337.983 428.485 338.113 427.989 338.375 427.552C338.636 427.109 338.993 426.763 339.447 426.512C339.9 426.256 340.415 426.128 340.991 426.128C341.54 426.128 342.028 426.245 342.455 426.48C342.887 426.715 343.225 427.056 343.471 427.504C343.716 427.952 343.839 428.496 343.839 429.136L343.831 435H342.671ZM353.545 435.24C352.894 435.24 352.348 435.123 351.905 434.888C351.468 434.653 351.14 434.341 350.921 433.952C350.702 433.563 350.593 433.139 350.593 432.68C350.593 432.211 350.686 431.811 350.873 431.48C351.065 431.144 351.324 430.869 351.649 430.656C351.98 430.443 352.361 430.28 352.793 430.168C353.23 430.061 353.713 429.968 354.241 429.888C354.774 429.803 355.294 429.731 355.801 429.672C356.313 429.608 356.761 429.547 357.145 429.488L356.729 429.744C356.745 428.891 356.58 428.259 356.233 427.848C355.886 427.437 355.284 427.232 354.425 427.232C353.833 427.232 353.332 427.365 352.921 427.632C352.516 427.899 352.23 428.32 352.065 428.896L350.921 428.56C351.118 427.787 351.516 427.187 352.113 426.76C352.71 426.333 353.486 426.12 354.441 426.12C355.23 426.12 355.9 426.269 356.449 426.568C357.004 426.861 357.396 427.288 357.625 427.848C357.732 428.099 357.801 428.379 357.833 428.688C357.865 428.997 357.881 429.312 357.881 429.632V435H356.833V432.832L357.137 432.96C356.844 433.701 356.388 434.267 355.769 434.656C355.15 435.045 354.409 435.24 353.545 435.24ZM353.681 434.224C354.23 434.224 354.71 434.125 355.121 433.928C355.532 433.731 355.862 433.461 356.113 433.12C356.364 432.773 356.526 432.384 356.601 431.952C356.665 431.675 356.7 431.371 356.705 431.04C356.71 430.704 356.713 430.453 356.713 430.288L357.161 430.52C356.761 430.573 356.326 430.627 355.857 430.68C355.393 430.733 354.934 430.795 354.481 430.864C354.033 430.933 353.628 431.016 353.265 431.112C353.02 431.181 352.782 431.28 352.553 431.408C352.324 431.531 352.134 431.696 351.985 431.904C351.841 432.112 351.769 432.371 351.769 432.68C351.769 432.931 351.83 433.173 351.953 433.408C352.081 433.643 352.284 433.837 352.561 433.992C352.844 434.147 353.217 434.224 353.681 434.224ZM363.548 435.24C362.678 435.24 361.942 435.045 361.34 434.656C360.737 434.267 360.278 433.731 359.964 433.048C359.654 432.36 359.494 431.571 359.484 430.68C359.494 429.773 359.66 428.979 359.98 428.296C360.3 427.608 360.761 427.075 361.364 426.696C361.966 426.312 362.697 426.12 363.556 426.12C364.43 426.12 365.19 426.333 365.836 426.76C366.486 427.187 366.932 427.771 367.172 428.512L366.02 428.88C365.817 428.363 365.494 427.963 365.052 427.68C364.614 427.392 364.113 427.248 363.548 427.248C362.913 427.248 362.388 427.395 361.972 427.688C361.556 427.976 361.246 428.379 361.044 428.896C360.841 429.413 360.737 430.008 360.732 430.68C360.742 431.715 360.982 432.547 361.452 433.176C361.921 433.8 362.62 434.112 363.548 434.112C364.134 434.112 364.633 433.979 365.044 433.712C365.46 433.44 365.774 433.045 365.988 432.528L367.172 432.88C366.852 433.648 366.382 434.235 365.764 434.64C365.145 435.04 364.406 435.24 363.548 435.24ZM373.487 435.24C372.34 435.24 371.372 434.987 370.583 434.48C369.794 433.968 369.196 433.261 368.791 432.36C368.386 431.459 368.183 430.419 368.183 429.24C368.183 428.061 368.386 427.021 368.791 426.12C369.196 425.219 369.794 424.515 370.583 424.008C371.372 423.496 372.34 423.24 373.487 423.24C374.639 423.24 375.607 423.496 376.391 424.008C377.18 424.515 377.778 425.219 378.183 426.12C378.594 427.021 378.799 428.061 378.799 429.24C378.799 430.419 378.594 431.459 378.183 432.36C377.778 433.261 377.18 433.968 376.391 434.48C375.607 434.987 374.639 435.24 373.487 435.24ZM373.487 434.112C374.388 434.112 375.14 433.907 375.743 433.496C376.346 433.085 376.796 432.515 377.095 431.784C377.399 431.048 377.551 430.2 377.551 429.24C377.551 428.28 377.399 427.435 377.095 426.704C376.796 425.973 376.346 425.403 375.743 424.992C375.14 424.581 374.388 424.373 373.487 424.368C372.586 424.368 371.836 424.573 371.239 424.984C370.642 425.395 370.191 425.968 369.887 426.704C369.588 427.435 369.436 428.28 369.431 429.24C369.426 430.2 369.572 431.045 369.871 431.776C370.175 432.501 370.628 433.072 371.231 433.488C371.834 433.899 372.586 434.107 373.487 434.112ZM384.401 435.24C383.596 435.24 382.871 435.107 382.225 434.84C381.585 434.568 381.055 434.184 380.633 433.688C380.217 433.192 379.945 432.603 379.817 431.92L381.017 431.72C381.209 432.467 381.615 433.053 382.233 433.48C382.852 433.901 383.591 434.112 384.449 434.112C385.015 434.112 385.521 434.024 385.969 433.848C386.417 433.667 386.769 433.411 387.025 433.08C387.281 432.749 387.409 432.357 387.409 431.904C387.409 431.605 387.356 431.352 387.249 431.144C387.143 430.931 387.001 430.755 386.825 430.616C386.649 430.477 386.457 430.363 386.249 430.272C386.041 430.176 385.839 430.099 385.641 430.04L382.721 429.168C382.369 429.067 382.044 428.939 381.745 428.784C381.447 428.624 381.185 428.435 380.961 428.216C380.743 427.992 380.572 427.731 380.449 427.432C380.327 427.133 380.265 426.792 380.265 426.408C380.265 425.757 380.436 425.195 380.777 424.72C381.119 424.245 381.585 423.88 382.177 423.624C382.769 423.368 383.444 423.243 384.201 423.248C384.969 423.248 385.655 423.384 386.257 423.656C386.865 423.928 387.367 424.317 387.761 424.824C388.156 425.325 388.417 425.92 388.545 426.608L387.313 426.832C387.233 426.331 387.049 425.896 386.761 425.528C386.473 425.16 386.105 424.877 385.657 424.68C385.215 424.477 384.727 424.373 384.193 424.368C383.676 424.368 383.215 424.456 382.809 424.632C382.409 424.803 382.092 425.037 381.857 425.336C381.623 425.635 381.505 425.976 381.505 426.36C381.505 426.749 381.612 427.061 381.825 427.296C382.044 427.531 382.311 427.715 382.625 427.848C382.945 427.981 383.255 428.091 383.553 428.176L385.809 428.84C386.044 428.904 386.319 428.997 386.633 429.12C386.953 429.237 387.263 429.408 387.561 429.632C387.865 429.851 388.116 430.139 388.313 430.496C388.511 430.853 388.609 431.307 388.609 431.856C388.609 432.389 388.503 432.867 388.289 433.288C388.081 433.709 387.785 434.064 387.401 434.352C387.023 434.64 386.577 434.859 386.065 435.008C385.559 435.163 385.004 435.24 384.401 435.24ZM397.6 437.872C396.97 437.152 396.429 436.347 395.976 435.456C395.528 434.571 395.181 433.64 394.936 432.664C394.696 431.688 394.578 430.707 394.584 429.72C394.578 428.733 394.696 427.752 394.936 426.776C395.181 425.795 395.528 424.861 395.976 423.976C396.429 423.091 396.97 422.288 397.6 421.568L398.464 422.24C397.845 422.981 397.328 423.76 396.912 424.576C396.496 425.387 396.184 426.224 395.976 427.088C395.773 427.952 395.669 428.829 395.664 429.72C395.669 430.6 395.776 431.477 395.984 432.352C396.197 433.221 396.509 434.067 396.92 434.888C397.336 435.704 397.85 436.469 398.464 437.184L397.6 437.872ZM402.748 435L399.42 423.48H400.644L403.34 432.992L406.02 423.488L407.252 423.48L409.948 432.992L412.628 423.48H413.86L410.54 435H409.356L406.636 425.552L403.932 435H402.748ZM415.093 424.72V423.4H416.269V424.72H415.093ZM415.093 435V426.36H416.269V435H415.093ZM424.907 435V430.592C424.907 430.112 424.862 429.672 424.771 429.272C424.68 428.867 424.534 428.515 424.331 428.216C424.134 427.912 423.875 427.677 423.555 427.512C423.24 427.347 422.856 427.264 422.403 427.264C421.987 427.264 421.619 427.336 421.299 427.48C420.984 427.624 420.718 427.832 420.499 428.104C420.286 428.371 420.123 428.696 420.011 429.08C419.899 429.464 419.843 429.901 419.843 430.392L419.011 430.208C419.011 429.323 419.166 428.579 419.475 427.976C419.784 427.373 420.211 426.917 420.755 426.608C421.299 426.299 421.923 426.144 422.627 426.144C423.144 426.144 423.595 426.224 423.979 426.384C424.368 426.544 424.696 426.76 424.963 427.032C425.235 427.304 425.454 427.616 425.619 427.968C425.784 428.315 425.904 428.685 425.979 429.08C426.054 429.469 426.091 429.859 426.091 430.248V435H424.907ZM418.659 435V426.36H419.723V428.488H419.843V435H418.659ZM431.776 435.24C430.933 435.24 430.203 435.053 429.584 434.68C428.971 434.307 428.493 433.781 428.152 433.104C427.811 432.427 427.64 431.632 427.64 430.72C427.64 429.776 427.808 428.96 428.144 428.272C428.48 427.584 428.952 427.053 429.56 426.68C430.173 426.307 430.896 426.12 431.728 426.12C432.581 426.12 433.309 426.317 433.912 426.712C434.515 427.101 434.971 427.661 435.28 428.392C435.589 429.123 435.731 429.995 435.704 431.008H434.504V430.592C434.483 429.472 434.24 428.627 433.776 428.056C433.317 427.485 432.645 427.2 431.76 427.2C430.832 427.2 430.12 427.501 429.624 428.104C429.133 428.707 428.888 429.565 428.888 430.68C428.888 431.768 429.133 432.613 429.624 433.216C430.12 433.813 430.821 434.112 431.728 434.112C432.347 434.112 432.885 433.971 433.344 433.688C433.808 433.4 434.173 432.987 434.44 432.448L435.536 432.872C435.195 433.624 434.691 434.208 434.024 434.624C433.363 435.035 432.613 435.24 431.776 435.24ZM428.472 431.008V430.024H435.072V431.008H428.472ZM437.279 437.872L436.415 437.184C437.028 436.469 437.54 435.704 437.951 434.888C438.367 434.067 438.679 433.221 438.887 432.352C439.1 431.477 439.209 430.6 439.215 429.72C439.209 428.829 439.103 427.952 438.895 427.088C438.692 426.224 438.383 425.387 437.967 424.576C437.551 423.76 437.033 422.981 436.415 422.24L437.279 421.568C437.908 422.288 438.447 423.091 438.895 423.976C439.348 424.861 439.695 425.795 439.935 426.776C440.18 427.752 440.3 428.733 440.295 429.72C440.3 430.707 440.18 431.688 439.935 432.664C439.695 433.64 439.348 434.571 438.895 435.456C438.447 436.347 437.908 437.152 437.279 437.872Z" fill="#5E6B77"/>
<path d="M39.184 54V43.608H35.16V42.48H44.384V43.608H40.36V54H39.184ZM48.1979 54.24C47.3552 54.24 46.6245 54.0533 46.0059 53.68C45.3925 53.3067 44.9152 52.7813 44.5739 52.104C44.2325 51.4267 44.0619 50.632 44.0619 49.72C44.0619 48.776 44.2299 47.96 44.5659 47.272C44.9019 46.584 45.3739 46.0533 45.9819 45.68C46.5952 45.3067 47.3179 45.12 48.1499 45.12C49.0032 45.12 49.7312 45.3173 50.3339 45.712C50.9365 46.1013 51.3925 46.6613 51.7019 47.392C52.0112 48.1227 52.1525 48.9947 52.1259 50.008H50.9259V49.592C50.9045 48.472 50.6619 47.6267 50.1979 47.056C49.7392 46.4853 49.0672 46.2 48.1819 46.2C47.2539 46.2 46.5419 46.5013 46.0459 47.104C45.5552 47.7067 45.3099 48.5653 45.3099 49.68C45.3099 50.768 45.5552 51.6133 46.0459 52.216C46.5419 52.8133 47.2432 53.112 48.1499 53.112C48.7685 53.112 49.3072 52.9707 49.7659 52.688C50.2299 52.4 50.5952 51.9867 50.8619 51.448L51.9579 51.872C51.6165 52.624 51.1125 53.208 50.4459 53.624C49.7845 54.0347 49.0352 54.24 48.1979 54.24ZM44.8939 50.008V49.024H51.4939V50.008H44.8939ZM53.1013 54V52.968C53.4213 53.0267 53.6639 53.0133 53.8293 52.928C53.9999 52.8373 54.1253 52.688 54.2053 52.48C54.2853 52.2667 54.3519 52.0027 54.4053 51.688C54.4906 51.1653 54.5679 50.5893 54.6373 49.96C54.7066 49.3307 54.7679 48.6373 54.8213 47.88C54.8799 47.1173 54.9386 46.2773 54.9973 45.36H60.8693V54H59.7013V46.488H56.0853C56.0479 47.0533 56.0053 47.616 55.9573 48.176C55.9093 48.736 55.8586 49.2747 55.8053 49.792C55.7573 50.304 55.7039 50.776 55.6453 51.208C55.5866 51.64 55.5253 52.0133 55.4613 52.328C55.3653 52.8027 55.2373 53.1813 55.0773 53.464C54.9226 53.7467 54.6906 53.9333 54.3813 54.024C54.0719 54.1147 53.6453 54.1067 53.1013 54ZM66.7604 54.24C65.9177 54.24 65.187 54.0533 64.5684 53.68C63.955 53.3067 63.4777 52.7813 63.1364 52.104C62.795 51.4267 62.6244 50.632 62.6244 49.72C62.6244 48.776 62.7924 47.96 63.1284 47.272C63.4644 46.584 63.9364 46.0533 64.5444 45.68C65.1577 45.3067 65.8804 45.12 66.7124 45.12C67.5657 45.12 68.2937 45.3173 68.8964 45.712C69.499 46.1013 69.955 46.6613 70.2644 47.392C70.5737 48.1227 70.715 48.9947 70.6884 50.008H69.4884V49.592C69.467 48.472 69.2244 47.6267 68.7604 47.056C68.3017 46.4853 67.6297 46.2 66.7444 46.2C65.8164 46.2 65.1044 46.5013 64.6084 47.104C64.1177 47.7067 63.8724 48.5653 63.8724 49.68C63.8724 50.768 64.1177 51.6133 64.6084 52.216C65.1044 52.8133 65.8057 53.112 66.7124 53.112C67.331 53.112 67.8697 52.9707 68.3284 52.688C68.7924 52.4 69.1577 51.9867 69.4244 51.448L70.5204 51.872C70.179 52.624 69.675 53.208 69.0084 53.624C68.347 54.0347 67.5977 54.24 66.7604 54.24ZM63.4564 50.008V49.024H70.0564V50.008H63.4564ZM76.5598 57.6V54.168C75.7171 54.3013 74.9491 54.2107 74.2558 53.896C73.5624 53.576 73.0104 53.0587 72.5998 52.344C72.1891 51.6293 71.9838 50.744 71.9838 49.688C71.9838 48.632 72.1891 47.7467 72.5998 47.032C73.0104 46.312 73.5624 45.792 74.2558 45.472C74.9491 45.152 75.7171 45.0587 76.5598 45.192V42.544H77.6478V45.192C78.4904 45.0587 79.2584 45.152 79.9518 45.472C80.6451 45.792 81.1971 46.312 81.6078 47.032C82.0184 47.7467 82.2238 48.632 82.2238 49.688C82.2238 50.744 82.0184 51.6293 81.6078 52.344C81.1971 53.0587 80.6451 53.576 79.9518 53.896C79.2584 54.2107 78.4904 54.3013 77.6478 54.168V57.6H76.5598ZM76.5598 53.072V46.296C76.1278 46.2213 75.7118 46.2347 75.3118 46.336C74.9118 46.432 74.5518 46.6213 74.2318 46.904C73.9118 47.1813 73.6584 47.552 73.4718 48.016C73.2904 48.4747 73.1998 49.032 73.1998 49.688C73.1998 50.344 73.2931 50.904 73.4798 51.368C73.6664 51.8267 73.9198 52.1947 74.2398 52.472C74.5598 52.7493 74.9198 52.936 75.3198 53.032C75.7198 53.128 76.1331 53.1413 76.5598 53.072ZM77.6478 53.072C78.0744 53.1413 78.4878 53.128 78.8878 53.032C79.2878 52.936 79.6478 52.752 79.9678 52.48C80.2878 52.2027 80.5411 51.8347 80.7278 51.376C80.9144 50.912 81.0078 50.3493 81.0078 49.688C81.0078 49.0267 80.9144 48.4667 80.7278 48.008C80.5464 47.544 80.2958 47.1733 79.9757 46.896C79.6558 46.6187 79.2958 46.432 78.8958 46.336C78.4958 46.2347 78.0798 46.2213 77.6478 46.296V53.072ZM87.5874 54.24C86.7287 54.24 85.9954 54.0453 85.3874 53.656C84.7794 53.2667 84.3127 52.728 83.9874 52.04C83.662 51.352 83.4994 50.5627 83.4994 49.672C83.4994 48.7653 83.6647 47.9707 83.9954 47.288C84.326 46.6053 84.7954 46.0747 85.4034 45.696C86.0167 45.312 86.7447 45.12 87.5874 45.12C88.4514 45.12 89.1874 45.3147 89.7954 45.704C90.4087 46.088 90.8754 46.624 91.1954 47.312C91.5207 47.9947 91.6834 48.7813 91.6834 49.672C91.6834 50.5787 91.5207 51.376 91.1954 52.064C90.87 52.7467 90.4007 53.28 89.7874 53.664C89.174 54.048 88.4407 54.24 87.5874 54.24ZM87.5874 53.112C88.5474 53.112 89.262 52.7947 89.7314 52.16C90.2007 51.52 90.4354 50.6907 90.4354 49.672C90.4354 48.6267 90.198 47.7947 89.7234 47.176C89.254 46.5573 88.542 46.248 87.5874 46.248C86.942 46.248 86.4087 46.3947 85.9874 46.688C85.5714 46.976 85.2594 47.3787 85.0514 47.896C84.8487 48.408 84.7474 49 84.7474 49.672C84.7474 50.712 84.9874 51.5467 85.4674 52.176C85.9474 52.8 86.654 53.112 87.5874 53.112ZM93.4401 54V45.36H94.6161V49.112H99.4881V45.36H100.664V54H99.4881V50.24H94.6161V54H93.4401Z" fill="#344351"/>
<path d="M126.832 54H125.648V44.552L119.304 54H118.12V42.48H119.304V51.92L125.648 42.48H126.832V54ZM132.657 54.24C131.788 54.24 131.052 54.0453 130.449 53.656C129.846 53.2667 129.388 52.7307 129.073 52.048C128.764 51.36 128.604 50.5707 128.593 49.68C128.604 48.7733 128.769 47.9787 129.089 47.296C129.409 46.608 129.87 46.0747 130.473 45.696C131.076 45.312 131.806 45.12 132.665 45.12C133.54 45.12 134.3 45.3333 134.945 45.76C135.596 46.1867 136.041 46.7707 136.281 47.512L135.129 47.88C134.926 47.3627 134.604 46.9627 134.161 46.68C133.724 46.392 133.222 46.248 132.657 46.248C132.022 46.248 131.497 46.3947 131.081 46.688C130.665 46.976 130.356 47.3787 130.153 47.896C129.95 48.4133 129.846 49.008 129.841 49.68C129.852 50.7147 130.092 51.5467 130.561 52.176C131.03 52.8 131.729 53.112 132.657 53.112C133.244 53.112 133.742 52.9787 134.153 52.712C134.569 52.44 134.884 52.0453 135.097 51.528L136.281 51.88C135.961 52.648 135.492 53.2347 134.873 53.64C134.254 54.04 133.516 54.24 132.657 54.24ZM140.073 54V46.448H137.009V45.36H144.313V46.448H141.249V54H140.073ZM149.291 54.24C148.432 54.24 147.699 54.0453 147.091 53.656C146.483 53.2667 146.016 52.728 145.691 52.04C145.365 51.352 145.203 50.5627 145.203 49.672C145.203 48.7653 145.368 47.9707 145.699 47.288C146.029 46.6053 146.499 46.0747 147.107 45.696C147.72 45.312 148.448 45.12 149.291 45.12C150.155 45.12 150.891 45.3147 151.499 45.704C152.112 46.088 152.579 46.624 152.899 47.312C153.224 47.9947 153.387 48.7813 153.387 49.672C153.387 50.5787 153.224 51.376 152.899 52.064C152.573 52.7467 152.104 53.28 151.491 53.664C150.877 54.048 150.144 54.24 149.291 54.24ZM149.291 53.112C150.251 53.112 150.965 52.7947 151.435 52.16C151.904 51.52 152.139 50.6907 152.139 49.672C152.139 48.6267 151.901 47.7947 151.427 47.176C150.957 46.5573 150.245 46.248 149.291 46.248C148.645 46.248 148.112 46.3947 147.691 46.688C147.275 46.976 146.963 47.3787 146.755 47.896C146.552 48.408 146.451 49 146.451 49.672C146.451 50.712 146.691 51.5467 147.171 52.176C147.651 52.8 148.357 53.112 149.291 53.112ZM159.031 54.24C158.237 54.24 157.565 54.04 157.015 53.64C156.466 53.2347 156.05 52.688 155.767 52C155.485 51.3067 155.343 50.5307 155.343 49.672C155.343 48.7973 155.485 48.0187 155.767 47.336C156.055 46.648 156.477 46.1067 157.031 45.712C157.586 45.3173 158.269 45.12 159.079 45.12C159.869 45.12 160.546 45.32 161.111 45.72C161.677 46.12 162.109 46.664 162.407 47.352C162.711 48.04 162.863 48.8133 162.863 49.672C162.863 50.536 162.711 51.312 162.407 52C162.103 52.688 161.666 53.2347 161.095 53.64C160.525 54.04 159.837 54.24 159.031 54.24ZM155.143 57.84V45.36H156.199V51.864H156.327V57.84H155.143ZM158.911 53.144C159.514 53.144 160.015 52.992 160.415 52.688C160.815 52.384 161.114 51.9707 161.311 51.448C161.514 50.92 161.615 50.328 161.615 49.672C161.615 49.0213 161.517 48.4347 161.319 47.912C161.122 47.3893 160.821 46.976 160.415 46.672C160.015 46.368 159.506 46.216 158.887 46.216C158.285 46.216 157.783 46.3627 157.383 46.656C156.989 46.9493 156.693 47.3573 156.495 47.88C156.298 48.3973 156.199 48.9947 156.199 49.672C156.199 50.3387 156.298 50.936 156.495 51.464C156.693 51.9867 156.991 52.3973 157.391 52.696C157.791 52.9947 158.298 53.144 158.911 53.144ZM171.484 45.36V54H170.34V47.272L165.604 54H164.612V45.36H165.756V52.032L170.5 45.36H171.484ZM179.145 54V50.744H177.129C176.895 50.744 176.652 50.736 176.401 50.72C176.156 50.6987 175.927 50.6693 175.713 50.632C175.105 50.5147 174.588 50.248 174.161 49.832C173.74 49.4107 173.529 48.8293 173.529 48.088C173.529 47.3627 173.727 46.7813 174.121 46.344C174.516 45.9013 174.993 45.6133 175.553 45.48C175.809 45.4213 176.068 45.3867 176.329 45.376C176.596 45.3653 176.825 45.36 177.017 45.36H180.321L180.329 54H179.145ZM173.249 54L175.657 50.376H176.961L174.537 54H173.249ZM177.065 49.736H179.145V46.368H177.065C176.937 46.368 176.759 46.3733 176.529 46.384C176.3 46.3947 176.084 46.4293 175.881 46.488C175.705 46.5413 175.529 46.6347 175.353 46.768C175.183 46.896 175.039 47.0693 174.921 47.288C174.804 47.5013 174.745 47.7627 174.745 48.072C174.745 48.504 174.863 48.8507 175.097 49.112C175.337 49.368 175.636 49.544 175.993 49.64C176.185 49.6827 176.377 49.7093 176.569 49.72C176.761 49.7307 176.927 49.736 177.065 49.736ZM188.888 54.24C188.019 54.24 187.259 54.0507 186.608 53.672C185.963 53.288 185.454 52.7573 185.08 52.08L186.024 51.48C186.339 52.0133 186.731 52.4187 187.2 52.696C187.67 52.9733 188.208 53.112 188.816 53.112C189.451 53.112 189.96 52.9653 190.344 52.672C190.728 52.3787 190.92 51.976 190.92 51.464C190.92 51.112 190.838 50.832 190.672 50.624C190.512 50.416 190.267 50.2667 189.936 50.176C189.611 50.0853 189.203 50.04 188.712 50.04H187.688V49.032H188.696C189.294 49.032 189.774 48.9253 190.136 48.712C190.504 48.4933 190.688 48.152 190.688 47.688C190.688 47.1973 190.504 46.8347 190.136 46.6C189.774 46.36 189.339 46.24 188.832 46.24C188.32 46.24 187.835 46.3467 187.376 46.56C186.923 46.768 186.542 47.0373 186.232 47.368L185.48 46.576C185.912 46.1013 186.416 45.7413 186.992 45.496C187.574 45.2453 188.216 45.12 188.92 45.12C189.475 45.12 189.976 45.2187 190.424 45.416C190.878 45.608 191.235 45.8907 191.496 46.264C191.763 46.6373 191.896 47.0853 191.896 47.608C191.896 48.0987 191.776 48.5227 191.536 48.88C191.302 49.2373 190.968 49.5333 190.536 49.768L190.472 49.328C190.846 49.3973 191.155 49.5467 191.4 49.776C191.646 50.0053 191.827 50.28 191.944 50.6C192.062 50.92 192.12 51.2453 192.12 51.576C192.12 52.1253 191.976 52.6 191.688 53C191.406 53.3947 191.019 53.7013 190.528 53.92C190.043 54.1333 189.496 54.24 188.888 54.24ZM193.878 54V45.36H197.438C197.619 45.36 197.838 45.3707 198.094 45.392C198.355 45.4133 198.598 45.4533 198.822 45.512C199.307 45.64 199.696 45.9013 199.99 46.296C200.288 46.6907 200.438 47.1653 200.438 47.72C200.438 48.0293 200.39 48.3067 200.294 48.552C200.203 48.792 200.072 49 199.902 49.176C199.822 49.2667 199.734 49.3467 199.638 49.416C199.542 49.48 199.448 49.5333 199.358 49.576C199.528 49.608 199.712 49.6827 199.91 49.8C200.219 49.9813 200.454 50.2267 200.614 50.536C200.774 50.84 200.854 51.2107 200.854 51.648C200.854 52.24 200.712 52.7227 200.43 53.096C200.147 53.4693 199.768 53.7253 199.294 53.864C199.08 53.9227 198.848 53.96 198.598 53.976C198.352 53.992 198.12 54 197.902 54H193.878ZM195.062 53H197.846C197.958 53 198.099 52.992 198.27 52.976C198.44 52.9547 198.592 52.928 198.726 52.896C199.04 52.816 199.27 52.656 199.414 52.416C199.563 52.1707 199.638 51.904 199.638 51.616C199.638 51.2373 199.526 50.928 199.302 50.688C199.083 50.4427 198.79 50.2933 198.422 50.24C198.299 50.2133 198.171 50.1973 198.038 50.192C197.904 50.1867 197.784 50.184 197.678 50.184H195.062V53ZM195.062 49.176H197.478C197.616 49.176 197.771 49.168 197.942 49.152C198.118 49.1307 198.27 49.096 198.398 49.048C198.675 48.952 198.878 48.7867 199.006 48.552C199.139 48.3173 199.206 48.0613 199.206 47.784C199.206 47.48 199.134 47.2133 198.99 46.984C198.851 46.7547 198.64 46.5947 198.358 46.504C198.166 46.4347 197.958 46.3947 197.734 46.384C197.515 46.3733 197.376 46.368 197.318 46.368H195.062V49.176ZM206.056 54.24C205.197 54.24 204.464 54.0453 203.856 53.656C203.248 53.2667 202.781 52.728 202.456 52.04C202.131 51.352 201.968 50.5627 201.968 49.672C201.968 48.7653 202.133 47.9707 202.464 47.288C202.795 46.6053 203.264 46.0747 203.872 45.696C204.485 45.312 205.213 45.12 206.056 45.12C206.92 45.12 207.656 45.3147 208.264 45.704C208.877 46.088 209.344 46.624 209.664 47.312C209.989 47.9947 210.152 48.7813 210.152 49.672C210.152 50.5787 209.989 51.376 209.664 52.064C209.339 52.7467 208.869 53.28 208.256 53.664C207.643 54.048 206.909 54.24 206.056 54.24ZM206.056 53.112C207.016 53.112 207.731 52.7947 208.2 52.16C208.669 51.52 208.904 50.6907 208.904 49.672C208.904 48.6267 208.667 47.7947 208.192 47.176C207.723 46.5573 207.011 46.248 206.056 46.248C205.411 46.248 204.877 46.3947 204.456 46.688C204.04 46.976 203.728 47.3787 203.52 47.896C203.317 48.408 203.216 49 203.216 49.672C203.216 50.712 203.456 51.5467 203.936 52.176C204.416 52.8 205.123 53.112 206.056 53.112ZM211.909 54V45.36H213.085V49.112H217.957V45.36H219.133V54H217.957V50.24H213.085V54H211.909ZM221.362 54L221.37 45.36H222.554V49.52L226.41 45.36H227.978L223.93 49.68L228.506 54H226.794L222.554 49.84V54H221.362ZM232.759 54.24C231.901 54.24 231.167 54.0453 230.559 53.656C229.951 53.2667 229.485 52.728 229.159 52.04C228.834 51.352 228.671 50.5627 228.671 49.672C228.671 48.7653 228.837 47.9707 229.167 47.288C229.498 46.6053 229.967 46.0747 230.575 45.696C231.189 45.312 231.917 45.12 232.759 45.12C233.623 45.12 234.359 45.3147 234.967 45.704C235.581 46.088 236.047 46.624 236.367 47.312C236.693 47.9947 236.855 48.7813 236.855 49.672C236.855 50.5787 236.693 51.376 236.367 52.064C236.042 52.7467 235.573 53.28 234.959 53.664C234.346 54.048 233.613 54.24 232.759 54.24ZM232.759 53.112C233.719 53.112 234.434 52.7947 234.903 52.16C235.373 51.52 235.607 50.6907 235.607 49.672C235.607 48.6267 235.37 47.7947 234.895 47.176C234.426 46.5573 233.714 46.248 232.759 46.248C232.114 46.248 231.581 46.3947 231.159 46.688C230.743 46.976 230.431 47.3787 230.223 47.896C230.021 48.408 229.919 49 229.919 49.672C229.919 50.712 230.159 51.5467 230.639 52.176C231.119 52.8 231.826 53.112 232.759 53.112ZM238.612 54V45.36H242.172C242.353 45.36 242.572 45.3707 242.828 45.392C243.089 45.4133 243.332 45.4533 243.556 45.512C244.041 45.64 244.431 45.9013 244.724 46.296C245.023 46.6907 245.172 47.1653 245.172 47.72C245.172 48.0293 245.124 48.3067 245.028 48.552C244.937 48.792 244.807 49 244.636 49.176C244.556 49.2667 244.468 49.3467 244.372 49.416C244.276 49.48 244.183 49.5333 244.092 49.576C244.263 49.608 244.447 49.6827 244.644 49.8C244.953 49.9813 245.188 50.2267 245.348 50.536C245.508 50.84 245.588 51.2107 245.588 51.648C245.588 52.24 245.447 52.7227 245.164 53.096C244.881 53.4693 244.503 53.7253 244.028 53.864C243.815 53.9227 243.583 53.96 243.332 53.976C243.087 53.992 242.855 54 242.636 54H238.612ZM239.796 53H242.58C242.692 53 242.833 52.992 243.004 52.976C243.175 52.9547 243.327 52.928 243.46 52.896C243.775 52.816 244.004 52.656 244.148 52.416C244.297 52.1707 244.372 51.904 244.372 51.616C244.372 51.2373 244.26 50.928 244.036 50.688C243.817 50.4427 243.524 50.2933 243.156 50.24C243.033 50.2133 242.905 50.1973 242.772 50.192C242.639 50.1867 242.519 50.184 242.412 50.184H239.796V53ZM239.796 49.176H242.212C242.351 49.176 242.505 49.168 242.676 49.152C242.852 49.1307 243.004 49.096 243.132 49.048C243.409 48.952 243.612 48.7867 243.74 48.552C243.873 48.3173 243.94 48.0613 243.94 47.784C243.94 47.48 243.868 47.2133 243.724 46.984C243.585 46.7547 243.375 46.5947 243.092 46.504C242.9 46.4347 242.692 46.3947 242.468 46.384C242.249 46.3733 242.111 46.368 242.052 46.368H239.796V49.176Z" fill="#9CA5AC"/>
<path d="M263.12 54V42.48H264.296V47.92L269.552 42.48H271.056L265.688 48.04L271.496 54H269.96L264.296 48.24V54H263.12ZM275.587 54.24C274.729 54.24 273.995 54.0453 273.387 53.656C272.779 53.2667 272.313 52.728 271.987 52.04C271.662 51.352 271.499 50.5627 271.499 49.672C271.499 48.7653 271.665 47.9707 271.995 47.288C272.326 46.6053 272.795 46.0747 273.403 45.696C274.017 45.312 274.745 45.12 275.587 45.12C276.451 45.12 277.187 45.3147 277.795 45.704C278.409 46.088 278.875 46.624 279.195 47.312C279.521 47.9947 279.683 48.7813 279.683 49.672C279.683 50.5787 279.521 51.376 279.195 52.064C278.87 52.7467 278.401 53.28 277.787 53.664C277.174 54.048 276.441 54.24 275.587 54.24ZM275.587 53.112C276.547 53.112 277.262 52.7947 277.731 52.16C278.201 51.52 278.435 50.6907 278.435 49.672C278.435 48.6267 278.198 47.7947 277.723 47.176C277.254 46.5573 276.542 46.248 275.587 46.248C274.942 46.248 274.409 46.3947 273.987 46.688C273.571 46.976 273.259 47.3787 273.051 47.896C272.849 48.408 272.747 49 272.747 49.672C272.747 50.712 272.987 51.5467 273.467 52.176C273.947 52.8 274.654 53.112 275.587 53.112ZM281.44 54V45.36H282.616V49.112H287.488V45.36H288.664V54H287.488V50.24H282.616V54H281.44ZM293.245 54V46.448H290.181V45.36H297.485V46.448H294.421V54H293.245ZM301.155 54.24C300.504 54.24 299.957 54.1227 299.515 53.888C299.077 53.6533 298.749 53.3413 298.531 52.952C298.312 52.5627 298.203 52.1387 298.203 51.68C298.203 51.2107 298.296 50.8107 298.483 50.48C298.675 50.144 298.933 49.8693 299.259 49.656C299.589 49.4427 299.971 49.28 300.403 49.168C300.84 49.0613 301.323 48.968 301.851 48.888C302.384 48.8027 302.904 48.7307 303.411 48.672C303.923 48.608 304.371 48.5467 304.755 48.488L304.339 48.744C304.355 47.8907 304.189 47.2587 303.843 46.848C303.496 46.4373 302.893 46.232 302.035 46.232C301.443 46.232 300.941 46.3653 300.531 46.632C300.125 46.8987 299.84 47.32 299.674 47.896L298.531 47.56C298.728 46.7867 299.125 46.1867 299.723 45.76C300.32 45.3333 301.096 45.12 302.051 45.12C302.84 45.12 303.509 45.2693 304.059 45.568C304.613 45.8613 305.005 46.288 305.235 46.848C305.341 47.0987 305.411 47.3787 305.443 47.688C305.475 47.9973 305.491 48.312 305.491 48.632V54H304.443V51.832L304.747 51.96C304.453 52.7013 303.997 53.2667 303.379 53.656C302.76 54.0453 302.019 54.24 301.155 54.24ZM301.291 53.224C301.84 53.224 302.32 53.1253 302.731 52.928C303.141 52.7307 303.472 52.4613 303.723 52.12C303.973 51.7733 304.136 51.384 304.211 50.952C304.275 50.6747 304.309 50.3707 304.315 50.04C304.32 49.704 304.323 49.4533 304.323 49.288L304.771 49.52C304.371 49.5733 303.936 49.6267 303.467 49.68C303.003 49.7333 302.544 49.7947 302.091 49.864C301.643 49.9333 301.237 50.016 300.875 50.112C300.629 50.1813 300.392 50.28 300.163 50.408C299.933 50.5307 299.744 50.696 299.595 50.904C299.451 51.112 299.379 51.3707 299.379 51.68C299.379 51.9307 299.44 52.1733 299.562 52.408C299.691 52.6427 299.893 52.8373 300.171 52.992C300.453 53.1467 300.827 53.224 301.291 53.224ZM307.565 54L307.573 45.36H308.757V49.52L312.613 45.36H314.181L310.133 49.68L314.709 54H312.997L308.757 49.84V54H307.565ZM317.855 54V46.448H314.791V45.36H322.095V46.448H319.031V54H317.855ZM323.628 54L323.612 45.36H324.796V48.616H326.3C326.551 48.616 326.796 48.6213 327.036 48.632C327.276 48.6427 327.492 48.664 327.684 48.696C328.111 48.7813 328.489 48.9253 328.82 49.128C329.151 49.3307 329.412 49.6107 329.604 49.968C329.796 50.32 329.892 50.7653 329.892 51.304C329.892 52.0453 329.7 52.6293 329.316 53.056C328.932 53.4827 328.449 53.76 327.868 53.888C327.649 53.936 327.412 53.968 327.156 53.984C326.9 53.9947 326.649 54 326.404 54H323.628ZM324.796 52.992H326.356C326.532 52.992 326.732 52.9867 326.956 52.976C327.18 52.9653 327.377 52.936 327.548 52.888C327.836 52.808 328.095 52.648 328.324 52.408C328.559 52.1627 328.676 51.7947 328.676 51.304C328.676 50.8187 328.564 50.4533 328.34 50.208C328.116 49.9573 327.817 49.792 327.444 49.712C327.273 49.6747 327.092 49.6507 326.9 49.64C326.713 49.6293 326.532 49.624 326.356 49.624H324.796V52.992ZM330.924 54V45.36H332.1V54H330.924Z" fill="#9CA5AC"/>
<path d="M35 118C35 115.239 37.2386 113 40 113H189.564V168H35V118Z" fill="white"/>
<path d="M111.909 147V136.792L109.741 138.096V136.776L111.909 135.48H113.101V147H111.909Z" fill="#5E6B77"/>
<rect width="154.564" height="55" transform="translate(35 171)" fill="white"/>
<path d="M113.473 205V202.768H108.081V201.648L111.937 193.48H113.257L109.401 201.648H113.473V198.288H114.657V201.648H115.913V202.768H114.657V205H113.473Z" fill="#5E6B77"/>
<rect width="154.564" height="55" transform="translate(35 229)" fill="white"/>
<path d="M109.517 263L113.757 252.624H108.421V251.48H115.013V252.624L110.781 263H109.517Z" fill="#5E6B77"/>
<path d="M35 287H189.564V342H40C37.2386 342 35 339.761 35 337V287Z" fill="white"/>
<path d="M110.861 314.768L109.981 314.128L111.245 312.496L109.269 311.896L109.605 310.864L111.549 311.552L111.501 309.48H112.589L112.541 311.552L114.477 310.864L114.813 311.896L112.845 312.496L114.093 314.128L113.213 314.768L112.045 313.072L110.861 314.768Z" fill="#5E6B77"/>
<rect width="154.564" height="55" transform="translate(192.719 113)" fill="white"/>
<path d="M265.8 146.992L265.808 145.92L271.016 141.216C271.464 140.811 271.76 140.427 271.904 140.064C272.053 139.696 272.128 139.312 272.128 138.912C272.128 138.437 272.016 138.008 271.792 137.624C271.568 137.24 271.267 136.936 270.888 136.712C270.509 136.483 270.085 136.368 269.616 136.368C269.125 136.368 268.688 136.485 268.304 136.72C267.92 136.955 267.616 137.264 267.392 137.648C267.173 138.032 267.067 138.451 267.072 138.904H265.872C265.872 138.205 266.037 137.579 266.368 137.024C266.699 136.469 267.147 136.035 267.712 135.72C268.277 135.4 268.917 135.24 269.632 135.24C270.331 135.24 270.957 135.405 271.512 135.736C272.072 136.061 272.512 136.504 272.832 137.064C273.157 137.619 273.32 138.237 273.32 138.92C273.32 139.4 273.261 139.824 273.144 140.192C273.032 140.555 272.853 140.893 272.608 141.208C272.368 141.517 272.061 141.837 271.688 142.168L267.064 146.344L266.88 145.864H273.32V146.992H265.8Z" fill="#5E6B77"/>
<rect width="154.564" height="55" transform="translate(192.719 171)" fill="white"/>
<path d="M269.52 205.24C268.923 205.24 268.371 205.117 267.864 204.872C267.357 204.627 266.925 204.288 266.568 203.856C266.211 203.424 265.955 202.928 265.8 202.368L266.928 202.064C267.029 202.48 267.213 202.84 267.48 203.144C267.747 203.443 268.059 203.675 268.416 203.84C268.779 204.005 269.157 204.088 269.552 204.088C270.064 204.088 270.523 203.965 270.928 203.72C271.339 203.469 271.664 203.139 271.904 202.728C272.144 202.317 272.264 201.867 272.264 201.376C272.264 200.869 272.139 200.413 271.888 200.008C271.637 199.597 271.307 199.272 270.896 199.032C270.485 198.792 270.037 198.672 269.552 198.672C269.008 198.672 268.539 198.792 268.144 199.032C267.749 199.267 267.435 199.563 267.2 199.92L266.128 199.472L266.48 193.48H272.632V194.608H267L267.584 194.056L267.272 199.168L266.976 198.776C267.307 198.397 267.707 198.101 268.176 197.888C268.645 197.675 269.139 197.568 269.656 197.568C270.365 197.568 271.005 197.739 271.576 198.08C272.147 198.416 272.6 198.872 272.936 199.448C273.272 200.024 273.44 200.667 273.44 201.376C273.44 202.08 273.261 202.725 272.904 203.312C272.547 203.893 272.072 204.36 271.48 204.712C270.888 205.064 270.235 205.24 269.52 205.24Z" fill="#5E6B77"/>
<rect width="154.564" height="55" transform="translate(192.719 229)" fill="white"/>
<path d="M269.632 263.24C268.912 263.24 268.275 263.096 267.72 262.808C267.171 262.52 266.739 262.117 266.424 261.6C266.115 261.077 265.96 260.467 265.96 259.768C265.96 259.053 266.133 258.419 266.48 257.864C266.827 257.304 267.355 256.88 268.064 256.592L268.048 257.056C267.456 256.837 267.005 256.48 266.696 255.984C266.387 255.488 266.232 254.939 266.232 254.336C266.232 253.696 266.379 253.147 266.672 252.688C266.965 252.224 267.365 251.867 267.872 251.616C268.384 251.365 268.971 251.24 269.632 251.24C270.293 251.24 270.88 251.365 271.392 251.616C271.904 251.867 272.307 252.224 272.6 252.688C272.893 253.147 273.04 253.696 273.04 254.336C273.04 254.939 272.891 255.485 272.592 255.976C272.299 256.467 271.848 256.827 271.24 257.056L271.2 256.592C271.909 256.875 272.44 257.296 272.792 257.856C273.149 258.416 273.328 259.053 273.328 259.768C273.328 260.467 273.171 261.077 272.856 261.6C272.541 262.117 272.107 262.52 271.552 262.808C270.997 263.096 270.357 263.24 269.632 263.24ZM269.632 262.112C270.357 262.112 270.947 261.912 271.4 261.512C271.853 261.107 272.08 260.525 272.08 259.768C272.08 259 271.856 258.419 271.408 258.024C270.96 257.624 270.368 257.424 269.632 257.424C268.896 257.424 268.307 257.624 267.864 258.024C267.421 258.419 267.2 259 267.2 259.768C267.2 260.525 267.424 261.107 267.872 261.512C268.32 261.912 268.907 262.112 269.632 262.112ZM269.632 256.288C270.272 256.288 270.792 256.125 271.192 255.8C271.592 255.469 271.792 254.981 271.792 254.336C271.792 253.691 271.592 253.208 271.192 252.888C270.792 252.563 270.272 252.4 269.632 252.4C268.992 252.4 268.472 252.563 268.072 252.888C267.677 253.208 267.48 253.691 267.48 254.336C267.48 254.981 267.677 255.469 268.072 255.8C268.472 256.125 268.992 256.288 269.632 256.288Z" fill="#5E6B77"/>
<rect width="154.564" height="55" transform="translate(192.719 287)" fill="white"/>
<path d="M269.88 321.24C269.171 321.24 268.531 321.075 267.96 320.744C267.395 320.413 266.947 319.965 266.616 319.4C266.285 318.829 266.12 318.189 266.12 317.48V313C266.12 312.291 266.285 311.653 266.616 311.088C266.947 310.517 267.395 310.067 267.96 309.736C268.531 309.405 269.171 309.24 269.88 309.24C270.589 309.24 271.227 309.405 271.792 309.736C272.363 310.067 272.813 310.517 273.144 311.088C273.475 311.653 273.64 312.291 273.64 313V317.48C273.64 318.189 273.475 318.829 273.144 319.4C272.813 319.965 272.363 320.413 271.792 320.744C271.227 321.075 270.589 321.24 269.88 321.24ZM269.88 320.104C270.355 320.104 270.787 319.989 271.176 319.76C271.565 319.525 271.875 319.213 272.104 318.824C272.333 318.435 272.448 318.005 272.448 317.536V312.944C272.448 312.469 272.333 312.037 272.104 311.648C271.875 311.259 271.565 310.949 271.176 310.72C270.787 310.485 270.355 310.368 269.88 310.368C269.405 310.368 268.973 310.485 268.584 310.72C268.195 310.949 267.885 311.259 267.656 311.648C267.427 312.037 267.312 312.469 267.312 312.944V317.536C267.312 318.005 267.427 318.435 267.656 318.824C267.885 319.213 268.195 319.525 268.584 319.76C268.973 319.989 269.405 320.104 269.88 320.104Z" fill="#5E6B77"/>
<path d="M350.436 113H499.999C502.761 113 504.999 115.239 504.999 118V168H350.436V113Z" fill="white"/>
<path d="M427.433 147.232C426.862 147.232 426.337 147.131 425.857 146.928C425.377 146.725 424.963 146.437 424.617 146.064C424.27 145.685 424.017 145.235 423.857 144.712L424.977 144.376C425.169 144.947 425.483 145.379 425.921 145.672C426.363 145.965 426.862 146.107 427.417 146.096C427.929 146.085 428.369 145.971 428.737 145.752C429.11 145.533 429.395 145.229 429.593 144.84C429.79 144.451 429.889 144 429.889 143.488C429.889 142.704 429.659 142.075 429.201 141.6C428.747 141.12 428.147 140.88 427.401 140.88C427.193 140.88 426.974 140.909 426.745 140.968C426.515 141.021 426.302 141.099 426.105 141.2L425.513 140.264L429.993 136.128L430.185 136.608H424.313V135.48H430.969V136.624L427.065 140.352L427.049 139.888C427.849 139.787 428.553 139.877 429.161 140.16C429.769 140.443 430.243 140.875 430.585 141.456C430.931 142.032 431.105 142.709 431.105 143.488C431.105 144.224 430.945 144.875 430.625 145.44C430.31 146 429.875 146.44 429.321 146.76C428.766 147.075 428.137 147.232 427.433 147.232Z" fill="#5E6B77"/>
<rect width="154.564" height="55" transform="translate(350.436 171)" fill="white"/>
<path d="M427.733 205.24C427.013 205.24 426.357 205.067 425.765 204.72C425.178 204.368 424.709 203.893 424.357 203.296C424.01 202.693 423.837 202.016 423.837 201.264V197.272C423.837 196.499 424.01 195.811 424.357 195.208C424.703 194.6 425.175 194.123 425.773 193.776C426.375 193.424 427.058 193.248 427.821 193.248C428.477 193.248 429.085 193.392 429.645 193.68C430.21 193.968 430.671 194.371 431.029 194.888L430.125 195.632C429.879 195.248 429.554 194.941 429.149 194.712C428.743 194.483 428.301 194.368 427.821 194.368C427.282 194.368 426.802 194.499 426.381 194.76C425.959 195.021 425.629 195.365 425.389 195.792C425.149 196.213 425.029 196.672 425.029 197.168V199.68L424.733 199.344C425.069 198.816 425.509 198.389 426.053 198.064C426.602 197.739 427.199 197.576 427.845 197.576C428.559 197.576 429.202 197.747 429.773 198.088C430.343 198.424 430.797 198.88 431.133 199.456C431.469 200.032 431.637 200.677 431.637 201.392C431.637 202.101 431.458 202.747 431.101 203.328C430.749 203.909 430.277 204.373 429.685 204.72C429.098 205.067 428.447 205.24 427.733 205.24ZM427.733 204.096C428.234 204.096 428.69 203.976 429.101 203.736C429.517 203.496 429.845 203.171 430.085 202.76C430.33 202.349 430.453 201.893 430.453 201.392C430.453 200.891 430.33 200.435 430.085 200.024C429.845 199.608 429.519 199.28 429.109 199.04C428.698 198.795 428.242 198.672 427.741 198.672C427.239 198.672 426.783 198.795 426.373 199.04C425.962 199.28 425.634 199.608 425.389 200.024C425.149 200.435 425.029 200.891 425.029 201.392C425.029 201.888 425.149 202.341 425.389 202.752C425.629 203.163 425.954 203.491 426.365 203.736C426.775 203.976 427.231 204.096 427.733 204.096Z" fill="#5E6B77"/>
<rect width="154.564" height="55" transform="translate(350.436 229)" fill="white"/>
<path d="M427.629 251.248C428.354 251.248 429.01 251.424 429.597 251.776C430.189 252.123 430.658 252.597 431.005 253.2C431.351 253.797 431.525 254.469 431.525 255.216V259.216C431.525 259.984 431.351 260.672 431.005 261.28C430.658 261.888 430.183 262.368 429.581 262.72C428.983 263.067 428.303 263.24 427.541 263.24C426.885 263.24 426.277 263.096 425.717 262.808C425.162 262.515 424.703 262.112 424.341 261.6L425.237 260.856C425.482 261.235 425.807 261.539 426.213 261.768C426.623 261.997 427.066 262.112 427.541 262.112C428.085 262.112 428.565 261.984 428.981 261.728C429.402 261.467 429.733 261.125 429.973 260.704C430.218 260.277 430.341 259.816 430.341 259.32V256.808L430.629 257.144C430.298 257.672 429.858 258.099 429.309 258.424C428.765 258.749 428.167 258.912 427.517 258.912C426.807 258.912 426.165 258.741 425.589 258.4C425.018 258.059 424.565 257.6 424.229 257.024C423.898 256.448 423.733 255.805 423.733 255.096C423.733 254.387 423.909 253.741 424.261 253.16C424.613 252.573 425.085 252.109 425.677 251.768C426.269 251.421 426.919 251.248 427.629 251.248ZM427.629 252.384C427.127 252.384 426.671 252.507 426.261 252.752C425.85 252.992 425.522 253.317 425.277 253.728C425.037 254.139 424.917 254.595 424.917 255.096C424.917 255.597 425.037 256.053 425.277 256.464C425.517 256.875 425.842 257.203 426.253 257.448C426.663 257.688 427.119 257.808 427.621 257.808C428.122 257.808 428.578 257.688 428.989 257.448C429.405 257.203 429.733 256.875 429.973 256.464C430.218 256.053 430.341 255.597 430.341 255.096C430.341 254.6 430.218 254.147 429.973 253.736C429.733 253.325 429.407 252.997 428.997 252.752C428.586 252.507 428.13 252.384 427.629 252.384Z" fill="#5E6B77"/>
<path d="M350.436 287H504.999V337C504.999 339.761 502.761 342 499.999 342H350.436V287Z" fill="white"/>
<path d="M423.505 320.992L424.433 317.528H421.177L421.473 316.4H424.737L425.417 313.832H422.161L422.465 312.704H425.729L426.585 309.48H427.761L426.889 312.704H429.569L430.425 309.48H431.601L430.729 312.704H433.985L433.681 313.832H430.433L429.737 316.4H432.993L432.689 317.528H429.441L428.513 320.992H427.345L428.265 317.528H425.601L424.673 320.992H423.505ZM425.905 316.4H428.577L429.257 313.832H426.593L425.905 316.4Z" fill="#5E6B77"/>
<rect x="35" y="67" width="470" height="41" rx="5" fill="white"/>
<path d="M46.44 94V82.48H47.616V94H46.44Z" fill="#5E6B77"/>
<rect x="35" y="349" width="154.564" height="55" rx="5" fill="#9CA5AC"/>
<path d="M112.281 389C119.185 389 124.781 383.404 124.781 376.5C124.781 369.596 119.185 364 112.281 364C105.378 364 99.7812 369.596 99.7812 376.5C99.7812 383.404 105.378 389 112.281 389Z" fill="white"/>
<path d="M112.281 380.406C114.978 380.406 117.164 378.22 117.164 375.523C117.164 372.827 114.978 370.641 112.281 370.641C109.585 370.641 107.398 372.827 107.398 375.523C107.398 378.22 109.585 380.406 112.281 380.406Z" stroke="#9CA5AC" stroke-miterlimit="10"/>
<path d="M104.469 385.875C105.202 384.229 106.32 382.848 107.699 381.882C109.078 380.917 110.664 380.406 112.281 380.406C113.899 380.406 115.485 380.917 116.864 381.882C118.242 382.848 119.36 384.229 120.094 385.875" stroke="#9CA5AC" stroke-linecap="square" stroke-linejoin="bevel"/>
<rect x="193" y="349" width="312" height="55" rx="5" fill="#9CA5AC"/>
<path d="M309.12 383V371.48H317.944V383H316.768V372.608H310.296V383H309.12ZM323.791 383.24C322.932 383.24 322.199 383.045 321.591 382.656C320.983 382.267 320.516 381.728 320.191 381.04C319.865 380.352 319.703 379.563 319.703 378.672C319.703 377.765 319.868 376.971 320.199 376.288C320.529 375.605 320.999 375.075 321.607 374.696C322.22 374.312 322.948 374.12 323.791 374.12C324.655 374.12 325.391 374.315 325.999 374.704C326.612 375.088 327.079 375.624 327.399 376.312C327.724 376.995 327.887 377.781 327.887 378.672C327.887 379.579 327.724 380.376 327.399 381.064C327.073 381.747 326.604 382.28 325.991 382.664C325.377 383.048 324.644 383.24 323.791 383.24ZM323.791 382.112C324.751 382.112 325.465 381.795 325.935 381.16C326.404 380.52 326.639 379.691 326.639 378.672C326.639 377.627 326.401 376.795 325.927 376.176C325.457 375.557 324.745 375.248 323.791 375.248C323.145 375.248 322.612 375.395 322.191 375.688C321.775 375.976 321.463 376.379 321.255 376.896C321.052 377.408 320.951 378 320.951 378.672C320.951 379.712 321.191 380.547 321.671 381.176C322.151 381.8 322.857 382.112 323.791 382.112ZM332.607 383.24C331.738 383.24 330.978 383.051 330.327 382.672C329.682 382.288 329.172 381.757 328.799 381.08L329.743 380.48C330.058 381.013 330.45 381.419 330.919 381.696C331.388 381.973 331.927 382.112 332.535 382.112C333.17 382.112 333.679 381.965 334.063 381.672C334.447 381.379 334.639 380.976 334.639 380.464C334.639 380.112 334.556 379.832 334.391 379.624C334.231 379.416 333.986 379.267 333.655 379.176C333.33 379.085 332.922 379.04 332.431 379.04H331.407V378.032H332.415C333.012 378.032 333.492 377.925 333.855 377.712C334.223 377.493 334.407 377.152 334.407 376.688C334.407 376.197 334.223 375.835 333.855 375.6C333.492 375.36 333.058 375.24 332.551 375.24C332.039 375.24 331.554 375.347 331.095 375.56C330.642 375.768 330.26 376.037 329.951 376.368L329.199 375.576C329.631 375.101 330.135 374.741 330.711 374.496C331.292 374.245 331.935 374.12 332.639 374.12C333.194 374.12 333.695 374.219 334.143 374.416C334.596 374.608 334.954 374.891 335.215 375.264C335.482 375.637 335.615 376.085 335.615 376.608C335.615 377.099 335.495 377.523 335.255 377.88C335.02 378.237 334.687 378.533 334.255 378.768L334.191 378.328C334.564 378.397 334.874 378.547 335.119 378.776C335.364 379.005 335.546 379.28 335.663 379.6C335.78 379.92 335.839 380.245 335.839 380.576C335.839 381.125 335.695 381.6 335.407 382C335.124 382.395 334.738 382.701 334.247 382.92C333.762 383.133 333.215 383.24 332.607 383.24ZM337.596 383V374.36H341.156C341.338 374.36 341.556 374.371 341.812 374.392C342.074 374.413 342.316 374.453 342.54 374.512C343.026 374.64 343.415 374.901 343.708 375.296C344.007 375.691 344.156 376.165 344.156 376.72C344.156 377.029 344.108 377.307 344.012 377.552C343.922 377.792 343.791 378 343.62 378.176C343.54 378.267 343.452 378.347 343.356 378.416C343.26 378.48 343.167 378.533 343.076 378.576C343.247 378.608 343.431 378.683 343.628 378.8C343.938 378.981 344.172 379.227 344.332 379.536C344.492 379.84 344.572 380.211 344.572 380.648C344.572 381.24 344.431 381.723 344.148 382.096C343.866 382.469 343.487 382.725 343.012 382.864C342.799 382.923 342.567 382.96 342.316 382.976C342.071 382.992 341.839 383 341.62 383H337.596ZM338.78 382H341.564C341.676 382 341.818 381.992 341.988 381.976C342.159 381.955 342.311 381.928 342.444 381.896C342.759 381.816 342.988 381.656 343.132 381.416C343.282 381.171 343.356 380.904 343.356 380.616C343.356 380.237 343.244 379.928 343.02 379.688C342.802 379.443 342.508 379.293 342.14 379.24C342.018 379.213 341.89 379.197 341.756 379.192C341.623 379.187 341.503 379.184 341.396 379.184H338.78V382ZM338.78 378.176H341.196C341.335 378.176 341.49 378.168 341.66 378.152C341.836 378.131 341.988 378.096 342.116 378.048C342.394 377.952 342.596 377.787 342.724 377.552C342.858 377.317 342.924 377.061 342.924 376.784C342.924 376.48 342.852 376.213 342.708 375.984C342.57 375.755 342.359 375.595 342.076 375.504C341.884 375.435 341.676 375.395 341.452 375.384C341.234 375.373 341.095 375.368 341.036 375.368H338.78V378.176ZM349.775 383.24C348.916 383.24 348.183 383.045 347.575 382.656C346.967 382.267 346.5 381.728 346.175 381.04C345.85 380.352 345.687 379.563 345.687 378.672C345.687 377.765 345.852 376.971 346.183 376.288C346.514 375.605 346.983 375.075 347.591 374.696C348.204 374.312 348.932 374.12 349.775 374.12C350.639 374.12 351.375 374.315 351.983 374.704C352.596 375.088 353.063 375.624 353.383 376.312C353.708 376.995 353.871 377.781 353.871 378.672C353.871 379.579 353.708 380.376 353.383 381.064C353.058 381.747 352.588 382.28 351.975 382.664C351.362 383.048 350.628 383.24 349.775 383.24ZM349.775 382.112C350.735 382.112 351.45 381.795 351.919 381.16C352.388 380.52 352.623 379.691 352.623 378.672C352.623 377.627 352.386 376.795 351.911 376.176C351.442 375.557 350.73 375.248 349.775 375.248C349.13 375.248 348.596 375.395 348.175 375.688C347.759 375.976 347.447 376.379 347.239 376.896C347.036 377.408 346.935 378 346.935 378.672C346.935 379.712 347.175 380.547 347.655 381.176C348.135 381.8 348.842 382.112 349.775 382.112ZM355.628 383V374.36H356.804V378.112H361.676V374.36H362.852V383H361.676V379.24H356.804V383H355.628ZM371.953 374.36V383H370.809V376.272L366.073 383H365.081V374.36H366.225V381.032L370.969 374.36H371.953ZM376.542 383V375.448H373.478V374.36H380.782V375.448H377.718V383H376.542ZM382.316 383L382.3 374.36H383.484V377.616H385.508C385.758 377.616 386.004 377.621 386.244 377.632C386.489 377.643 386.705 377.664 386.892 377.696C387.318 377.776 387.697 377.917 388.028 378.12C388.364 378.323 388.625 378.603 388.812 378.96C389.004 379.317 389.1 379.765 389.1 380.304C389.1 381.045 388.908 381.629 388.524 382.056C388.145 382.483 387.665 382.76 387.084 382.888C386.865 382.936 386.628 382.968 386.372 382.984C386.116 382.995 385.862 383 385.612 383H382.316ZM383.484 381.992H385.564C385.745 381.992 385.948 381.987 386.172 381.976C386.396 381.965 386.593 381.936 386.764 381.888C387.046 381.808 387.302 381.648 387.532 381.408C387.766 381.163 387.884 380.795 387.884 380.304C387.884 379.819 387.772 379.453 387.548 379.208C387.324 378.957 387.025 378.792 386.652 378.712C386.486 378.675 386.308 378.651 386.116 378.64C385.924 378.629 385.74 378.624 385.564 378.624H383.484V381.992Z" fill="white"/>
</svg>
