<svg width="128" height="31" viewBox="0 0 128 31" fill="none" xmlns="http://www.w3.org/2000/svg">
<path d="M1.02606 25.3331C1.0279 25.2981 1.04267 25.265 1.06753 25.2402C1.09238 25.2155 1.12557 25.2007 1.16067 25.1989C3.03248 25.2647 4.90429 25.2647 6.84467 25.2647H12.1934C14.2659 25.2647 15.6704 24.9989 16.4069 24.533C17.1434 24.0672 17.5422 23.0646 17.5422 21.6646C17.5343 21.2396 17.4902 20.8161 17.4101 20.3987C17.3269 20.0032 17.1423 19.636 16.8742 19.3328C16.5435 19.0204 16.1578 18.7715 15.7364 18.5986C15.0933 18.3624 14.4173 18.2275 13.7325 18.1986L7.3831 17.5986C6.2249 17.5183 5.09166 17.2247 4.04077 16.7327C3.18795 16.3216 2.4349 15.7308 1.83371 15.001C1.26855 14.3083 0.837899 13.5167 0.563825 12.6667C0.294451 11.8037 0.159128 10.9046 0.162545 10.0008V9.06656C0.162545 6.53481 0.965109 4.53472 2.63628 3.06884C4.30744 1.60295 6.98182 0.93457 10.794 0.93457H16.0767C17.8825 0.93457 19.8229 1.0004 22.0274 1.06875C22.096 1.06875 22.162 1.13458 22.162 1.26876L21.2934 5.8006C21.2905 5.83523 21.2754 5.86771 21.2508 5.89228C21.2261 5.91685 21.1935 5.93191 21.1588 5.93478C19.7543 5.86643 18.4844 5.86643 17.4152 5.86643H10.1692C8.36345 5.86643 7.09357 6.13479 6.42561 6.60064C5.68908 7.06648 5.35383 7.93487 5.35383 9.13239C5.35882 9.55762 5.40389 9.98144 5.48844 10.3983C5.55639 10.7602 5.74527 11.0886 6.02432 11.33C6.35833 11.6204 6.74319 11.847 7.1596 11.9983C7.80743 12.2206 8.48227 12.3551 9.16602 12.3984L15.3173 12.9984C16.9225 13.13 18.1949 13.4642 19.1981 14.0642C20.1127 14.5294 20.8946 15.2174 21.4712 16.0643C21.9767 16.8138 22.3392 17.6497 22.5404 18.5303C22.7204 19.362 22.8056 20.2112 22.7944 21.062V21.8595C22.7944 24.528 21.9258 26.5939 20.12 28.0598C18.3143 29.5257 15.5739 30.2599 11.8277 30.2599H6.29608C4.28967 30.2599 0.20064 30.194 0.20064 30.194C0.1486 30.1905 0.0996069 30.1683 0.062723 30.1315C0.025839 30.0948 0.00356036 30.0459 0 29.994L1.02606 25.3331Z" fill="#87888A"/>
<path d="M69.0196 30.8003C69.0166 30.8524 68.9945 30.9015 68.9575 30.9384C68.9205 30.9753 68.8712 30.9973 68.819 31.0003C67.3529 30.9578 65.8958 30.7567 64.4734 30.4003C62.9641 30.0382 61.5928 29.2465 60.5266 28.1217C59.5234 27.0558 58.7894 25.6558 58.2535 23.8557C57.7862 22.0556 57.5195 19.8581 57.5195 17.1238V14.0679C57.5195 11.3337 57.7862 9.13609 58.2535 7.33601C58.7208 5.53594 59.4574 4.13588 60.5266 3.07001C61.5425 2.00161 62.8683 1.26993 64.4734 0.791431C65.8958 0.435058 67.3529 0.233869 68.819 0.191406C68.8712 0.194423 68.9205 0.216465 68.9575 0.25334C68.9945 0.290215 69.0166 0.339355 69.0196 0.391417V4.92579C69.0196 4.99161 68.9536 5.05743 68.8875 5.12579C68.1903 5.16342 67.4967 5.25228 66.8125 5.39163C65.9686 5.53925 65.208 5.9895 64.6741 6.65751C64.1382 7.32589 63.8029 8.19175 63.6023 9.3918C63.3904 10.9598 63.3012 12.5419 63.3356 14.1236V17.1896C63.3356 19.1897 63.4042 20.7898 63.6023 21.924C63.8029 23.124 64.1382 23.9899 64.6741 24.6557C65.2074 25.3245 65.9683 25.7749 66.8125 25.9216C67.4979 26.0511 68.1911 26.1357 68.8875 26.1748C68.9536 26.1748 69.0196 26.2406 69.0196 26.3748V30.775V30.8003Z" fill="#87888A"/>
<path d="M71.8296 30.9431C71.7773 30.9401 71.728 30.918 71.691 30.8812C71.654 30.8443 71.6319 30.7952 71.6289 30.7431V26.2112C71.6289 26.1454 71.6949 26.0771 71.7635 26.0112C72.4598 25.9724 73.1525 25.8835 73.836 25.7454C74.6805 25.5993 75.4416 25.1488 75.9744 24.4795C76.5103 23.8137 76.8456 22.9605 77.0462 21.7478C77.2551 20.1787 77.3401 18.5957 77.3002 17.0134V13.9322C77.3002 11.9322 77.2342 10.3321 77.0462 9.20039C76.8456 8.00034 76.5103 7.13448 75.9744 6.4661C75.441 5.79755 74.6801 5.34718 73.836 5.20022C73.1519 5.06522 72.4596 4.9764 71.7635 4.93439C71.6949 4.93439 71.6289 4.86603 71.6289 4.73438V0.200011C71.6319 0.147949 71.654 0.0988091 71.691 0.061934C71.728 0.0250589 71.7773 0.00301679 71.8296 0C73.2956 0.0424631 74.7527 0.243652 76.1751 0.600024C77.6844 0.962127 79.0557 1.75377 80.1219 2.8786C81.1378 3.94447 81.8591 5.34453 82.4077 7.14461C82.875 8.94469 83.1442 11.1422 83.1442 13.8765V16.9425C83.1442 19.6768 82.875 21.8743 82.4077 23.6744C81.9404 25.4745 81.2038 26.8746 80.1219 27.9404C79.1187 29.0088 77.7802 29.7405 76.1751 30.219C74.9738 30.6849 73.5007 30.8849 71.8296 30.9507V30.9431Z" fill="#87888A"/>
<path d="M121.786 30.0647C121.734 30.0616 121.684 30.0396 121.647 30.0027C121.61 29.9658 121.588 29.9167 121.585 29.8646V10.6663C121.585 9.73213 121.519 8.93463 121.453 8.20042C121.395 7.55137 121.164 6.92969 120.783 6.40034C120.348 5.88267 119.765 5.51058 119.111 5.33448C118.375 5.06611 117.374 5.00028 116.102 5.00028C115.133 4.98403 114.166 5.09641 113.227 5.33448C112.596 5.49124 112.02 5.81287 111.556 6.26616C111.129 6.69681 110.869 7.26323 110.819 7.86623C110.677 8.56867 110.61 9.28403 110.618 10.0005V30.0014C110.615 30.0534 110.593 30.1026 110.556 30.1394C110.519 30.1763 110.47 30.1983 110.418 30.2014H105.27C105.218 30.1978 105.169 30.1756 105.132 30.1388C105.095 30.1021 105.073 30.0532 105.069 30.0014V10.7347C105.069 9.80302 105.003 9.00299 104.934 8.26878C104.878 7.61989 104.647 6.99813 104.266 6.4687C103.832 5.95165 103.248 5.57969 102.595 5.40283C101.859 5.137 100.856 5.06864 99.5857 5.06864C98.5722 5.04941 97.5605 5.16175 96.5761 5.40283C95.9344 5.60476 95.3577 5.97251 94.9049 6.4687C94.5245 6.99845 94.293 7.61992 94.2344 8.26878C94.1684 9.00299 94.1023 9.80302 94.1023 10.7347V29.9305C94.0993 29.9825 94.0772 30.0317 94.0402 30.0685C94.0032 30.1054 93.9539 30.1274 93.9017 30.1305H88.685C88.6328 30.1274 88.5835 30.1054 88.5465 30.0685C88.5095 30.0317 88.4874 29.9825 88.4844 29.9305V9.53212C88.4844 6.06615 89.4215 3.66605 91.2934 2.19003C93.1652 0.789975 95.9081 0.0583023 99.5196 0.0583023C101.21 0.024548 102.89 0.318619 104.467 0.924158C105.938 1.52418 107.007 2.32422 107.743 3.32426C108.48 2.32422 109.549 1.52418 111.02 0.924158C112.598 0.318421 114.279 0.024348 115.97 0.0583023C119.579 0.0583023 122.319 0.789975 124.193 2.19003C126.068 3.59009 127.002 6.05602 127.002 9.53212V29.8646C126.999 29.9167 126.977 29.9658 126.94 30.0027C126.903 30.0396 126.854 30.0616 126.802 30.0647H121.786Z" fill="#87888A"/>
<path d="M46.6816 30.0656C46.6294 30.0625 46.5801 30.0405 46.5431 30.0036C46.5061 29.9668 46.484 29.9176 46.481 29.8655V10.6673C46.481 9.73304 46.4149 8.93554 46.3464 8.20133C46.2465 7.54017 45.9692 6.9182 45.5438 6.40125C45.0261 5.85201 44.3481 5.47911 43.606 5.33539C42.7374 5.06702 41.5335 5.00119 39.9284 5.00119C38.6942 4.98407 37.4616 5.09608 36.2508 5.33539C35.3797 5.58856 34.7117 5.93541 34.3104 6.40125C33.886 6.9188 33.6088 7.54048 33.5078 8.20133C33.3903 9.01776 33.3452 9.84294 33.3732 10.6673V29.8655C33.3703 29.9172 33.3485 29.966 33.3121 30.0028C33.2756 30.0396 33.2269 30.062 33.1751 30.0656H27.9585C27.906 30.0631 27.8564 30.0412 27.8193 30.0042C27.7822 29.9673 27.7603 29.9178 27.7578 29.8655V9.53303C27.7578 6.13542 28.7737 3.73532 30.6989 2.26943C32.624 0.803545 35.7149 0.0693359 39.8598 0.0693359C44.0047 0.0693359 47.0829 0.801013 49.0233 2.26943C50.9637 3.73785 51.9643 6.13542 51.9643 9.53303V29.8655C51.9613 29.9176 51.9392 29.9668 51.9022 30.0036C51.8652 30.0405 51.8159 30.0625 51.7637 30.0656H46.6816Z" fill="#87888A"/>
</svg>
