<svg width="608" height="518" viewBox="0 0 608 518" fill="none" xmlns="http://www.w3.org/2000/svg">
<g clip-path="url(#clip0_3489_14303)">
<rect width="467.306" height="467.279" rx="233.64" transform="matrix(-0.548991 -0.835828 0.835756 -0.549101 237.406 582.984)" stroke="url(#paint0_linear_3489_14303)" stroke-linecap="round" stroke-dasharray="2 4"/>
<path d="M551.757 192.945C588.363 329.577 507.291 470.018 370.678 506.628C234.066 543.239 93.6451 462.155 57.0399 325.523C20.4347 188.891 101.507 48.4504 238.119 11.84C374.732 -24.7704 515.152 56.3131 551.757 192.945Z" stroke="url(#paint1_linear_3489_14303)" stroke-linecap="round" stroke-dasharray="2 4"/>
<rect x="93.2876" y="48.0928" width="423.348" height="423.409" rx="211.674" fill="#F1F2F2"/>
<rect x="123.062" y="90.2583" width="358.17" height="349.213" rx="11.5" fill="white" stroke="#344351"/>
<path d="M123.062 97.7583C123.062 93.6162 126.42 90.2583 130.562 90.2583H473.733C477.875 90.2583 481.233 93.6162 481.233 97.7583V135.428H123.062V97.7583Z" fill="#F6F7F8" stroke="#344351"/>
<path d="M353.742 108.523V113.575H348.634V108.523H345.084V121.694H348.634V116.469H353.742V121.694H357.292V108.523H353.742Z" fill="#5E6B77"/>
<path d="M337.962 108.572C336.852 108.387 335.713 108.47 334.645 108.815C333.083 109.328 331.767 110.38 330.943 111.775C330.119 113.17 329.844 114.811 330.17 116.39C330.496 117.97 331.4 119.378 332.713 120.351C334.026 121.324 335.656 121.794 337.298 121.674C338.941 121.553 340.481 120.85 341.631 119.697C342.78 118.543 343.46 117.018 343.541 115.409C343.623 113.8 343.101 112.217 342.073 110.958C341.046 109.699 339.584 108.851 337.962 108.572ZM337.697 118.595C336.761 118.806 335.778 118.652 334.955 118.168C334.132 117.683 333.534 116.905 333.287 115.997C333.04 115.089 333.162 114.123 333.629 113.301C334.096 112.48 334.87 111.869 335.789 111.596C336.442 111.42 337.132 111.42 337.785 111.596C338.584 111.801 339.29 112.262 339.791 112.905C340.292 113.548 340.558 114.337 340.548 115.145C340.538 115.954 340.251 116.736 339.735 117.367C339.218 117.997 338.501 118.441 337.697 118.627V118.595Z" fill="#5E6B77"/>
<path d="M305.501 107.885V111.412C306.341 111.812 307.018 112.479 307.42 113.303C307.823 114.128 307.928 115.062 307.718 115.952C307.508 116.843 306.996 117.637 306.265 118.207C305.534 118.776 304.627 119.085 303.693 119.085C302.759 119.085 301.853 118.776 301.122 118.207C300.391 117.637 299.878 116.843 299.669 115.952C299.459 115.062 299.564 114.128 299.966 113.303C300.369 112.479 301.045 111.812 301.885 111.412V107.885C300.098 108.317 298.534 109.374 297.489 110.857C296.444 112.34 295.99 114.145 296.212 115.933C296.435 117.721 297.319 119.368 298.697 120.562C300.075 121.756 301.852 122.415 303.693 122.415C305.534 122.415 307.311 121.756 308.69 120.562C310.068 119.368 310.952 117.721 311.174 115.933C311.396 114.145 310.942 112.34 309.897 110.857C308.852 109.374 307.288 108.317 305.501 107.885Z" fill="#5E6B77"/>
<path d="M301.4 115.425C301.478 115.841 301.669 116.228 301.954 116.546C302.238 116.863 302.605 117.1 303.016 117.23C303.427 117.36 303.866 117.38 304.287 117.286C304.707 117.192 305.095 116.988 305.407 116.697C305.719 116.405 305.945 116.036 306.061 115.629C306.176 115.222 306.177 114.792 306.064 114.385C305.95 113.977 305.726 113.608 305.415 113.315C305.104 113.022 304.717 112.817 304.297 112.721V107.663H303.191V112.699C302.594 112.839 302.075 113.197 301.741 113.701C301.406 114.204 301.282 114.814 301.394 115.404L301.4 115.425Z" fill="#5E6B77"/>
<path d="M322.139 109.502V108.523H318.744V109.502C318.451 109.546 318.191 109.594 317.881 109.665C314.702 110.416 312.408 112.531 312.408 115.02C312.408 117.724 315.122 119.996 318.744 120.542V121.694H322.139V120.542C325.76 120.001 328.475 117.735 328.475 115.02C328.475 112.304 325.76 110.054 322.139 109.502ZM316.057 115.02C316.057 113.732 317.163 112.634 318.761 112.164V117.881C317.157 117.41 316.04 116.307 316.04 115.02H316.057ZM322.139 117.881V112.164C323.726 112.634 324.842 113.732 324.842 115.02C324.842 116.307 323.726 117.41 322.139 117.881Z" fill="#5E6B77"/>
<path d="M261.679 103.704H253.17C253.17 105.132 254.22 105.921 255.581 106.354V118.795C254.215 119.195 253.17 120.007 253.17 121.694H261.004C263.26 121.694 264.831 121.424 265.721 120.872C267.103 120.012 267.44 118.709 267.44 116.978V108.669C267.44 105.326 265.787 103.704 261.679 103.704ZM263.437 116.458C263.437 117.827 262.597 118.514 260.899 118.514C260.413 118.514 259.794 118.487 259.163 118.476V106.868C259.866 106.895 260.496 106.868 260.949 106.868C262.648 106.868 263.496 107.589 263.493 109.032C263.493 110.492 263.437 115.063 263.437 116.458Z" fill="#5E6B77"/>
<path d="M275.695 108.599C271.244 108.599 269.204 112.11 269.204 115.29C269.204 119.212 271.698 121.673 276.049 121.673C277.633 121.708 279.209 121.44 280.688 120.883V118.238C279.368 118.615 277.999 118.798 276.624 118.779C274.766 118.779 273.113 118.011 273.008 116.394H281.279C281.369 115.885 281.414 115.369 281.412 114.852C281.412 111.753 279.842 108.599 275.695 108.599ZM272.997 113.727C273.102 112.699 273.782 111.185 275.463 111.185C277.299 111.185 277.719 112.775 277.719 113.727H272.997Z" fill="#5E6B77"/>
<path d="M288.4 108.761C286.742 109.199 284.115 110.665 284.115 113.516V117.437C284.115 119.228 283.695 119.222 282.977 119.909C282.744 120.125 282.562 120.388 282.444 120.679C282.326 120.971 282.273 121.284 282.291 121.597H285.863C287.184 121.597 287.864 119.736 287.864 117.448V113.797C287.863 113.179 288.112 112.587 288.555 112.147C289.086 111.661 289.771 111.365 290.496 111.309H290.662V121.586H294.488V108.604H289.235C288.951 108.621 288.671 108.674 288.4 108.761Z" fill="#5E6B77"/>
<rect x="169.5" y="179.5" width="264" height="57" rx="4.5" stroke="#F88C28"/>
<rect x="169.5" y="261.5" width="264" height="57" rx="4.5" stroke="#F88C28"/>
<rect x="169.5" y="343.5" width="264" height="57" rx="4.5" stroke="#F88C28"/>
<path d="M302 198.059C310.317 198.059 317.059 191.317 317.059 183C317.059 174.683 310.317 167.941 302 167.941C293.683 167.941 286.941 174.683 286.941 183C286.941 191.317 293.683 198.059 302 198.059Z" fill="white" stroke="#F88C28" stroke-linecap="round" stroke-linejoin="round"/>
<path d="M301.94 187.706V179.366L300.118 180.431V179.353L301.94 178.294H302.941V187.706H301.94Z" fill="#F88C28" stroke="#F88C28" stroke-width="0.5"/>
<path d="M302 279.205C310.383 279.205 317.179 272.621 317.179 264.5C317.179 256.379 310.383 249.795 302 249.795C293.616 249.795 286.82 256.379 286.82 264.5C286.82 272.621 293.616 279.205 302 279.205Z" fill="white" stroke="#F88C28" stroke-linecap="round" stroke-linejoin="round"/>
<path d="M298.527 269.66L298.534 268.701L303.342 264.495C303.755 264.132 304.028 263.789 304.161 263.464C304.299 263.135 304.368 262.792 304.368 262.434C304.368 262.01 304.265 261.626 304.058 261.282C303.851 260.939 303.573 260.667 303.223 260.467C302.874 260.262 302.483 260.159 302.049 260.159C301.596 260.159 301.193 260.264 300.838 260.474C300.484 260.684 300.203 260.961 299.996 261.304C299.795 261.647 299.696 262.022 299.701 262.427H298.593C298.593 261.802 298.746 261.242 299.051 260.746C299.356 260.25 299.77 259.861 300.292 259.58C300.814 259.294 301.404 259.151 302.064 259.151C302.709 259.151 303.287 259.298 303.799 259.594C304.316 259.885 304.723 260.281 305.018 260.782C305.318 261.278 305.468 261.831 305.468 262.441C305.468 262.871 305.414 263.25 305.306 263.579C305.203 263.903 305.038 264.206 304.811 264.487C304.59 264.764 304.307 265.05 303.962 265.346L299.694 269.08L299.524 268.651H305.468V269.66H298.527Z" fill="#F88C28" stroke="#F88C28" stroke-width="0.5"/>
<path d="M302 361.205C310.383 361.205 317.179 354.621 317.179 346.5C317.179 338.379 310.383 331.795 302 331.795C293.616 331.795 286.82 338.379 286.82 346.5C286.82 354.621 293.616 361.205 302 361.205Z" fill="white" stroke="#F88C28" stroke-linecap="round" stroke-linejoin="round"/>
<path d="M301.81 351.874C301.283 351.874 300.799 351.784 300.355 351.602C299.912 351.421 299.531 351.164 299.211 350.83C298.891 350.491 298.657 350.088 298.509 349.621L299.543 349.32C299.72 349.831 300.011 350.217 300.415 350.479C300.823 350.742 301.283 350.868 301.795 350.858C302.268 350.849 302.674 350.746 303.014 350.551C303.359 350.355 303.622 350.083 303.804 349.735C303.986 349.387 304.077 348.984 304.077 348.526C304.077 347.825 303.866 347.262 303.442 346.838C303.024 346.409 302.47 346.194 301.781 346.194C301.589 346.194 301.387 346.22 301.175 346.273C300.963 346.32 300.767 346.39 300.584 346.48L300.038 345.643L304.173 341.945L304.351 342.374H298.93V341.365H305.074V342.388L301.471 345.722L301.456 345.307C302.194 345.216 302.844 345.297 303.405 345.55C303.967 345.803 304.405 346.189 304.72 346.709C305.04 347.224 305.2 347.83 305.2 348.526C305.2 349.184 305.052 349.766 304.757 350.272C304.466 350.773 304.065 351.166 303.553 351.452C303.041 351.734 302.46 351.874 301.81 351.874Z" fill="#F88C28" stroke="#F88C28" stroke-width="0.5"/>
<path d="M243 219V210H250.129V219H248.828V211.231H244.301V219H243Z" fill="#5E6B77"/>
<path d="M254.798 219.188C254.125 219.188 253.542 219.035 253.048 218.731C252.554 218.427 252.172 218.008 251.902 217.475C251.637 216.938 251.504 216.319 251.504 215.619C251.504 214.915 251.641 214.296 251.915 213.763C252.189 213.225 252.573 212.808 253.067 212.512C253.561 212.213 254.138 212.063 254.798 212.063C255.47 212.063 256.053 212.215 256.547 212.519C257.041 212.823 257.423 213.242 257.693 213.775C257.963 214.308 258.098 214.923 258.098 215.619C258.098 216.323 257.961 216.944 257.687 217.481C257.417 218.015 257.035 218.433 256.541 218.737C256.047 219.037 255.466 219.188 254.798 219.188ZM254.798 217.956C255.441 217.956 255.921 217.74 256.236 217.306C256.556 216.869 256.715 216.306 256.715 215.619C256.715 214.915 256.554 214.352 256.23 213.931C255.91 213.506 255.433 213.294 254.798 213.294C254.362 213.294 254.003 213.394 253.721 213.594C253.438 213.79 253.229 214.062 253.092 214.412C252.955 214.758 252.886 215.16 252.886 215.619C252.886 216.327 253.048 216.894 253.372 217.319C253.696 217.744 254.171 217.956 254.798 217.956Z" fill="#5E6B77"/>
<path d="M258.968 220.5V217.95C259.337 217.95 259.601 217.827 259.759 217.581C259.92 217.331 260.049 216.908 260.145 216.313C260.203 215.95 260.25 215.565 260.288 215.156C260.329 214.748 260.365 214.306 260.394 213.831C260.423 213.352 260.452 212.825 260.481 212.25H265.3V217.95H265.96V220.5H264.727V219H260.207V220.5H258.968ZM260.83 217.95H263.993V213.3H261.639C261.622 213.575 261.604 213.858 261.583 214.15C261.566 214.442 261.546 214.731 261.521 215.019C261.5 215.306 261.475 215.581 261.446 215.844C261.417 216.106 261.384 216.344 261.346 216.556C261.297 216.885 261.236 217.16 261.166 217.381C261.099 217.602 260.987 217.792 260.83 217.95Z" fill="#5E6B77"/>
<path d="M267.194 219L267.2 212.25H268.52V215.5L271.16 212.25H272.817L270.027 215.625L273.103 219H271.335L268.52 215.75V219H267.194Z" fill="#5E6B77"/>
<path d="M272.986 219V217.894C273.236 217.94 273.424 217.933 273.553 217.875C273.686 217.813 273.783 217.7 273.846 217.537C273.912 217.375 273.968 217.165 274.014 216.906C274.084 216.527 274.145 216.096 274.194 215.612C274.248 215.125 274.296 214.598 274.338 214.031C274.379 213.465 274.416 212.871 274.45 212.25H279.281V219H277.974V213.481H275.62C275.595 213.81 275.566 214.16 275.533 214.531C275.504 214.898 275.471 215.263 275.433 215.625C275.396 215.988 275.357 216.327 275.315 216.644C275.274 216.96 275.23 217.231 275.184 217.456C275.101 217.906 274.979 218.265 274.817 218.531C274.659 218.794 274.435 218.962 274.145 219.037C273.854 219.117 273.468 219.104 272.986 219Z" fill="#5E6B77"/>
<path d="M286.706 219.188C286.15 219.188 285.654 219.071 285.218 218.837C284.786 218.604 284.433 218.271 284.159 217.837C283.885 217.4 283.711 216.881 283.636 216.281H282.322V219H281.021V212.25H282.322V214.969H283.63C283.705 214.356 283.881 213.833 284.159 213.4C284.437 212.967 284.794 212.635 285.23 212.406C285.67 212.177 286.168 212.063 286.724 212.063C287.393 212.063 287.972 212.215 288.462 212.519C288.951 212.823 289.331 213.244 289.601 213.781C289.871 214.315 290.006 214.925 290.006 215.612C290.006 216.317 289.869 216.938 289.595 217.475C289.325 218.012 288.943 218.433 288.449 218.737C287.955 219.037 287.374 219.188 286.706 219.188ZM286.687 217.956C287.339 217.956 287.824 217.74 288.144 217.306C288.464 216.873 288.624 216.31 288.624 215.619C288.624 214.906 288.462 214.342 288.138 213.925C287.818 213.504 287.337 213.294 286.693 213.294C286.067 213.294 285.593 213.504 285.274 213.925C284.954 214.342 284.794 214.904 284.794 215.612C284.794 216.325 284.954 216.894 285.274 217.319C285.597 217.744 286.069 217.956 286.687 217.956Z" fill="#5E6B77"/>
<path d="M295.355 219V216.65C295.127 216.767 294.859 216.862 294.552 216.938C294.245 217.008 293.921 217.044 293.58 217.044C292.891 217.044 292.337 216.89 291.918 216.581C291.503 216.269 291.233 215.819 291.109 215.231C291.075 215.056 291.05 214.877 291.034 214.694C291.017 214.506 291.007 214.335 291.003 214.181C291.003 214.027 291.003 213.913 291.003 213.838V212.25H292.323V213.838C292.323 213.946 292.327 214.09 292.335 214.269C292.343 214.444 292.366 214.615 292.404 214.781C292.483 215.156 292.64 215.435 292.877 215.619C293.113 215.798 293.448 215.887 293.879 215.887C294.191 215.887 294.471 215.848 294.72 215.769C294.973 215.685 295.185 215.579 295.355 215.45V212.25H296.669V219H295.355Z" fill="#5E6B77"/>
<path d="M304.084 212.25V219H302.832V214.306L299.47 219H298.411V212.25H299.663V216.85L303.031 212.25H304.084Z" fill="#5E6B77"/>
<path d="M307.561 219V213.425H305.263V212.25H311.16V213.425H308.862V219H307.561Z" fill="#5E6B77"/>
<path d="M315.324 219.188C314.656 219.188 314.069 219.042 313.562 218.75C313.06 218.454 312.668 218.044 312.385 217.519C312.107 216.99 311.968 216.377 311.968 215.681C311.968 214.944 312.105 214.304 312.379 213.763C312.657 213.221 313.043 212.802 313.537 212.506C314.031 212.21 314.606 212.063 315.262 212.063C315.947 212.063 316.53 212.223 317.012 212.544C317.493 212.86 317.852 213.313 318.089 213.9C318.33 214.488 318.425 215.185 318.375 215.994H317.074V215.519C317.066 214.735 316.916 214.156 316.626 213.781C316.339 213.406 315.901 213.219 315.312 213.219C314.66 213.219 314.17 213.425 313.842 213.838C313.514 214.25 313.35 214.846 313.35 215.625C313.35 216.367 313.514 216.942 313.842 217.35C314.17 217.754 314.643 217.956 315.262 217.956C315.669 217.956 316.02 217.865 316.314 217.681C316.613 217.494 316.846 217.227 317.012 216.881L318.288 217.288C318.026 217.892 317.63 218.36 317.099 218.694C316.567 219.023 315.976 219.188 315.324 219.188ZM312.927 215.994V214.975H317.728V215.994H312.927Z" fill="#5E6B77"/>
<path d="M322.259 219V212.25H323.56V215.006H326.842V212.25H328.143V219H326.842V216.237H323.56V219H322.259Z" fill="#5E6B77"/>
<path d="M332.81 219.188C332.138 219.188 331.555 219.035 331.061 218.731C330.567 218.427 330.185 218.008 329.915 217.475C329.649 216.938 329.516 216.319 329.516 215.619C329.516 214.915 329.653 214.296 329.927 213.763C330.201 213.225 330.585 212.808 331.079 212.512C331.573 212.213 332.15 212.063 332.81 212.063C333.483 212.063 334.066 212.215 334.56 212.519C335.054 212.823 335.436 213.242 335.706 213.775C335.975 214.308 336.11 214.923 336.11 215.619C336.11 216.323 335.973 216.944 335.699 217.481C335.429 218.015 335.048 218.433 334.554 218.737C334.06 219.037 333.479 219.188 332.81 219.188ZM332.81 217.956C333.454 217.956 333.933 217.74 334.249 217.306C334.568 216.869 334.728 216.306 334.728 215.619C334.728 214.915 334.566 214.352 334.242 213.931C333.923 213.506 333.445 213.294 332.81 213.294C332.374 213.294 332.015 213.394 331.733 213.594C331.451 213.79 331.241 214.062 331.104 214.412C330.967 214.758 330.899 215.16 330.899 215.619C330.899 216.327 331.061 216.894 331.384 217.319C331.708 217.744 332.183 217.956 332.81 217.956Z" fill="#5E6B77"/>
<path d="M337.472 219V212.25H338.562L341.046 217.2L343.524 212.25H344.62V219H343.362V214.925L341.339 219H340.747L338.724 214.925V219H337.472Z" fill="#5E6B77"/>
<path d="M349.351 219.188C348.682 219.188 348.095 219.042 347.589 218.75C347.086 218.454 346.694 218.044 346.412 217.519C346.134 216.99 345.995 216.377 345.995 215.681C345.995 214.944 346.132 214.304 346.406 213.763C346.684 213.221 347.07 212.802 347.564 212.506C348.058 212.21 348.632 212.063 349.288 212.063C349.973 212.063 350.556 212.223 351.038 212.544C351.519 212.86 351.879 213.313 352.115 213.9C352.356 214.488 352.451 215.185 352.402 215.994H351.1V215.519C351.092 214.735 350.942 214.156 350.652 213.781C350.366 213.406 349.928 213.219 349.338 213.219C348.686 213.219 348.197 213.425 347.869 213.838C347.541 214.25 347.377 214.846 347.377 215.625C347.377 216.367 347.541 216.942 347.869 217.35C348.197 217.754 348.67 217.956 349.288 217.956C349.695 217.956 350.046 217.865 350.341 217.681C350.639 217.494 350.872 217.227 351.038 216.881L352.314 217.288C352.053 217.892 351.656 218.36 351.125 218.694C350.594 219.023 350.002 219.188 349.351 219.188ZM346.953 215.994V214.975H351.754V215.994H346.953Z" fill="#5E6B77"/>
<path d="M356.955 219.188C356.312 219.188 355.772 219.031 355.336 218.719C354.901 218.402 354.571 217.975 354.346 217.438C354.122 216.9 354.01 216.294 354.01 215.619C354.01 214.944 354.12 214.338 354.34 213.8C354.564 213.263 354.892 212.84 355.324 212.531C355.76 212.219 356.295 212.063 356.93 212.063C357.561 212.063 358.105 212.219 358.562 212.531C359.022 212.84 359.377 213.263 359.626 213.8C359.875 214.333 360 214.94 360 215.619C360 216.294 359.875 216.902 359.626 217.444C359.382 217.981 359.031 218.406 358.574 218.719C358.122 219.031 357.582 219.188 356.955 219.188ZM353.792 222V212.25H354.95V217.106H355.1V222H353.792ZM356.775 218.006C357.19 218.006 357.532 217.9 357.802 217.688C358.076 217.475 358.279 217.19 358.412 216.831C358.549 216.469 358.618 216.065 358.618 215.619C358.618 215.177 358.549 214.777 358.412 214.419C358.279 214.06 358.074 213.775 357.796 213.562C357.518 213.35 357.163 213.244 356.731 213.244C356.324 213.244 355.988 213.344 355.722 213.544C355.461 213.744 355.266 214.023 355.137 214.381C355.013 214.74 354.95 215.152 354.95 215.619C354.95 216.085 355.013 216.498 355.137 216.856C355.262 217.215 355.459 217.496 355.729 217.7C355.998 217.904 356.347 218.006 356.775 218.006Z" fill="#5E6B77"/>
<path d="M229 301.523V298.834C229.322 298.834 229.588 298.758 229.796 298.606C230.005 298.45 230.171 298.239 230.293 297.972C230.419 297.702 230.515 297.394 230.58 297.049C230.649 296.705 230.702 296.342 230.736 295.96C230.789 295.443 230.832 294.938 230.867 294.446C230.906 293.95 230.941 293.437 230.972 292.908C231.006 292.378 231.043 291.802 231.082 291.178L237.101 291.185V298.834H237.8V301.523H236.429V300.046H230.364V301.523H229ZM231.239 298.834H235.737V292.397L232.342 292.391C232.312 292.842 232.286 293.271 232.264 293.677C232.242 294.083 232.214 294.493 232.179 294.908C232.149 295.318 232.11 295.759 232.062 296.231C232.014 296.682 231.964 297.066 231.912 297.382C231.859 297.693 231.781 297.964 231.677 298.194C231.576 298.424 231.431 298.637 231.239 298.834Z" fill="#5E6B77"/>
<path d="M242.292 300.231C241.587 300.231 240.976 300.081 240.458 299.782C239.94 299.482 239.54 299.07 239.257 298.545C238.978 298.015 238.839 297.406 238.839 296.717C238.839 296.024 238.982 295.414 239.27 294.889C239.557 294.36 239.96 293.95 240.477 293.658C240.995 293.363 241.6 293.215 242.292 293.215C242.997 293.215 243.609 293.365 244.127 293.665C244.645 293.964 245.045 294.376 245.328 294.902C245.611 295.427 245.752 296.032 245.752 296.717C245.752 297.41 245.609 298.022 245.321 298.551C245.038 299.076 244.638 299.488 244.12 299.788C243.602 300.083 242.993 300.231 242.292 300.231ZM242.292 299.018C242.967 299.018 243.469 298.805 243.8 298.378C244.135 297.948 244.303 297.394 244.303 296.717C244.303 296.024 244.133 295.47 243.794 295.055C243.459 294.637 242.958 294.428 242.292 294.428C241.835 294.428 241.459 294.526 241.163 294.723C240.867 294.916 240.647 295.185 240.504 295.529C240.36 295.87 240.288 296.266 240.288 296.717C240.288 297.414 240.458 297.972 240.797 298.391C241.137 298.809 241.635 299.018 242.292 299.018Z" fill="#5E6B77"/>
<path d="M250.085 300.237C249.415 300.233 248.845 300.095 248.375 299.825C247.905 299.554 247.537 299.164 247.272 298.655C247.01 298.143 246.858 297.525 246.815 296.803C246.793 296.454 246.795 296.069 246.821 295.646C246.847 295.219 246.895 294.807 246.965 294.409C247.039 294.011 247.132 293.679 247.245 293.412C247.372 293.117 247.544 292.846 247.761 292.6C247.979 292.35 248.218 292.141 248.479 291.972C248.758 291.792 249.067 291.652 249.406 291.554C249.746 291.451 250.1 291.371 250.47 291.314C250.845 291.256 251.221 291.207 251.6 291.166C251.983 291.121 252.355 291.066 252.716 291L252.847 292.151C252.607 292.204 252.324 292.247 251.998 292.28C251.676 292.313 251.341 292.35 250.993 292.391C250.649 292.432 250.32 292.489 250.007 292.563C249.694 292.637 249.422 292.742 249.191 292.877C248.864 293.066 248.614 293.341 248.44 293.702C248.27 294.063 248.168 294.454 248.133 294.877C248.403 294.491 248.747 294.214 249.165 294.046C249.583 293.874 250.016 293.788 250.464 293.788C251.091 293.788 251.63 293.927 252.083 294.206C252.54 294.485 252.89 294.865 253.134 295.345C253.378 295.825 253.499 296.368 253.499 296.975C253.499 297.632 253.356 298.206 253.069 298.698C252.786 299.187 252.387 299.568 251.874 299.843C251.36 300.114 250.764 300.245 250.085 300.237ZM250.157 299.025C250.784 299.025 251.256 298.842 251.574 298.477C251.896 298.112 252.057 297.626 252.057 297.018C252.057 296.395 251.891 295.905 251.561 295.548C251.23 295.191 250.762 295.012 250.157 295.012C249.543 295.012 249.073 295.191 248.747 295.548C248.425 295.905 248.264 296.395 248.264 297.018C248.264 297.65 248.427 298.143 248.753 298.495C249.08 298.848 249.548 299.025 250.157 299.025Z" fill="#5E6B77"/>
<path d="M256.93 300.231C256.408 300.231 255.97 300.141 255.618 299.96C255.265 299.775 254.998 299.533 254.815 299.234C254.636 298.93 254.547 298.598 254.547 298.237C254.547 297.901 254.61 297.605 254.737 297.351C254.863 297.096 255.05 296.881 255.298 296.705C255.546 296.524 255.851 296.378 256.212 296.268C256.525 296.182 256.88 296.106 257.276 296.04C257.672 295.974 258.088 295.913 258.523 295.855C258.962 295.798 259.398 295.741 259.828 295.683L259.332 295.942C259.341 295.421 259.224 295.035 258.98 294.785C258.74 294.53 258.327 294.403 257.739 294.403C257.37 294.403 257.03 294.485 256.721 294.649C256.412 294.809 256.197 295.076 256.075 295.449L254.802 295.08C254.976 294.51 255.307 294.056 255.794 293.72C256.286 293.384 256.939 293.215 257.753 293.215C258.384 293.215 258.932 293.318 259.398 293.523C259.868 293.724 260.211 294.044 260.429 294.483C260.542 294.701 260.612 294.93 260.638 295.172C260.664 295.414 260.677 295.675 260.677 295.954V300.046H259.469V298.526L259.704 298.723C259.413 299.232 259.041 299.611 258.588 299.862C258.14 300.108 257.587 300.231 256.93 300.231ZM257.172 299.178C257.559 299.178 257.892 299.115 258.17 298.988C258.449 298.856 258.673 298.69 258.843 298.489C259.012 298.288 259.123 298.079 259.176 297.862C259.25 297.665 259.291 297.443 259.3 297.197C259.313 296.951 259.319 296.754 259.319 296.606L259.763 296.76C259.332 296.822 258.941 296.877 258.588 296.926C258.236 296.975 257.916 297.025 257.629 297.074C257.346 297.119 257.093 297.174 256.871 297.24C256.684 297.302 256.517 297.375 256.369 297.462C256.225 297.548 256.11 297.652 256.023 297.775C255.94 297.898 255.899 298.048 255.899 298.225C255.899 298.397 255.944 298.557 256.036 298.705C256.127 298.848 256.266 298.963 256.453 299.049C256.641 299.135 256.88 299.178 257.172 299.178Z" fill="#5E6B77"/>
<path d="M262.366 300.046V293.4H265.467C265.671 293.4 265.876 293.412 266.08 293.437C266.285 293.457 266.465 293.488 266.622 293.529C266.979 293.624 267.284 293.812 267.536 294.095C267.789 294.374 267.915 294.748 267.915 295.215C267.915 295.482 267.871 295.708 267.784 295.892C267.697 296.073 267.577 296.229 267.425 296.36C267.355 296.417 267.281 296.469 267.203 296.514C267.125 296.559 267.046 296.594 266.968 296.618C267.129 296.643 267.288 296.696 267.445 296.778C267.684 296.897 267.88 297.07 268.032 297.295C268.189 297.517 268.267 297.814 268.267 298.188C268.267 298.635 268.152 299.01 267.921 299.314C267.691 299.613 267.364 299.818 266.942 299.929C266.777 299.974 266.59 300.005 266.381 300.022C266.176 300.038 265.972 300.046 265.767 300.046H262.366ZM263.75 299.031H265.682C265.773 299.031 265.878 299.023 265.995 299.006C266.113 298.99 266.217 298.967 266.309 298.938C266.505 298.881 266.644 298.776 266.727 298.625C266.814 298.473 266.857 298.311 266.857 298.138C266.857 297.905 266.792 297.718 266.661 297.578C266.531 297.435 266.365 297.343 266.165 297.302C266.078 297.273 265.982 297.256 265.878 297.252C265.773 297.248 265.684 297.246 265.61 297.246H263.75V299.031ZM263.75 296.212H265.277C265.404 296.212 265.532 296.206 265.663 296.194C265.793 296.177 265.906 296.151 266.002 296.114C266.172 296.052 266.298 295.95 266.381 295.806C266.463 295.658 266.505 295.498 266.505 295.326C266.505 295.137 266.459 294.969 266.368 294.822C266.276 294.674 266.139 294.571 265.956 294.514C265.83 294.473 265.684 294.45 265.519 294.446C265.358 294.438 265.256 294.434 265.212 294.434H263.75V296.212Z" fill="#5E6B77"/>
<path d="M269.57 300.046V293.4H270.941V295.708H272.331C272.531 295.708 272.745 295.712 272.971 295.72C273.202 295.728 273.4 295.749 273.565 295.782C273.944 295.855 274.27 295.978 274.544 296.151C274.823 296.323 275.038 296.553 275.19 296.84C275.343 297.123 275.419 297.472 275.419 297.886C275.419 298.465 275.258 298.926 274.936 299.271C274.618 299.611 274.187 299.841 273.643 299.96C273.469 299.997 273.262 300.022 273.023 300.034C272.788 300.042 272.573 300.046 272.377 300.046H269.57ZM270.941 299.012H272.455C272.564 299.012 272.688 299.008 272.827 299C272.967 298.992 273.095 298.973 273.212 298.945C273.421 298.887 273.608 298.77 273.774 298.594C273.939 298.417 274.022 298.182 274.022 297.886C274.022 297.583 273.939 297.341 273.774 297.16C273.613 296.979 273.408 296.863 273.16 296.809C273.043 296.781 272.923 296.762 272.801 296.754C272.679 296.746 272.564 296.742 272.455 296.742H270.941V299.012Z" fill="#5E6B77"/>
<path d="M278.678 300.046V294.557H276.269V293.4H282.451V294.557H280.042V300.046H278.678Z" fill="#5E6B77"/>
<path d="M286.818 300.231C286.117 300.231 285.501 300.087 284.97 299.8C284.444 299.509 284.032 299.105 283.737 298.588C283.445 298.067 283.299 297.464 283.299 296.778C283.299 296.052 283.443 295.423 283.73 294.889C284.022 294.356 284.426 293.944 284.944 293.652C285.462 293.361 286.065 293.215 286.753 293.215C287.471 293.215 288.082 293.373 288.587 293.689C289.092 294.001 289.468 294.446 289.716 295.025C289.969 295.603 290.069 296.29 290.017 297.086H288.652V296.618C288.644 295.847 288.487 295.277 288.182 294.908C287.882 294.538 287.423 294.354 286.805 294.354C286.121 294.354 285.608 294.557 285.264 294.963C284.92 295.369 284.748 295.956 284.748 296.723C284.748 297.453 284.92 298.019 285.264 298.422C285.608 298.819 286.104 299.018 286.753 299.018C287.179 299.018 287.547 298.928 287.856 298.748C288.169 298.563 288.413 298.301 288.587 297.96L289.925 298.36C289.651 298.955 289.235 299.416 288.678 299.745C288.121 300.069 287.501 300.231 286.818 300.231ZM284.304 297.086V296.083H289.338V297.086H284.304Z" fill="#5E6B77"/>
<path d="M297.111 300.231C296.389 300.231 295.775 300.079 295.27 299.775C294.765 299.472 294.378 299.055 294.108 298.526C293.843 297.997 293.708 297.396 293.703 296.723C293.708 296.038 293.847 295.433 294.121 294.908C294.395 294.378 294.787 293.964 295.296 293.665C295.805 293.365 296.417 293.215 297.131 293.215C297.901 293.215 298.558 293.396 299.102 293.757C299.651 294.118 300.012 294.612 300.186 295.24L298.828 295.609C298.693 295.236 298.471 294.947 298.162 294.742C297.857 294.532 297.507 294.428 297.111 294.428C296.663 294.428 296.295 294.528 296.008 294.729C295.721 294.926 295.507 295.197 295.368 295.542C295.229 295.886 295.157 296.28 295.153 296.723C295.157 297.408 295.322 297.962 295.649 298.385C295.98 298.807 296.467 299.018 297.111 299.018C297.551 299.018 297.905 298.924 298.175 298.735C298.449 298.543 298.658 298.268 298.802 297.911L300.186 298.218C299.955 298.867 299.574 299.365 299.043 299.714C298.512 300.058 297.868 300.231 297.111 300.231Z" fill="#5E6B77"/>
<path d="M304.386 300.231C303.681 300.231 303.07 300.081 302.552 299.782C302.034 299.482 301.633 299.07 301.351 298.545C301.072 298.015 300.933 297.406 300.933 296.717C300.933 296.024 301.076 295.414 301.364 294.889C301.651 294.36 302.053 293.95 302.571 293.658C303.089 293.363 303.694 293.215 304.386 293.215C305.091 293.215 305.703 293.365 306.221 293.665C306.739 293.964 307.139 294.376 307.422 294.902C307.705 295.427 307.846 296.032 307.846 296.717C307.846 297.41 307.702 298.022 307.415 298.551C307.132 299.076 306.732 299.488 306.214 299.788C305.696 300.083 305.087 300.231 304.386 300.231ZM304.386 299.018C305.061 299.018 305.563 298.805 305.894 298.378C306.229 297.948 306.397 297.394 306.397 296.717C306.397 296.024 306.227 295.47 305.888 295.055C305.553 294.637 305.052 294.428 304.386 294.428C303.929 294.428 303.553 294.526 303.257 294.723C302.961 294.916 302.741 295.185 302.597 295.529C302.454 295.87 302.382 296.266 302.382 296.717C302.382 297.414 302.552 297.972 302.891 298.391C303.231 298.809 303.729 299.018 304.386 299.018Z" fill="#5E6B77"/>
<path d="M310.949 300.046V294.557H308.54V293.4H314.722V294.557H312.313V300.046H310.949Z" fill="#5E6B77"/>
<path d="M319.272 300.231C318.597 300.231 318.031 300.077 317.574 299.769C317.117 299.457 316.771 299.037 316.536 298.508C316.301 297.978 316.184 297.382 316.184 296.717C316.184 296.052 316.299 295.455 316.53 294.926C316.765 294.397 317.109 293.981 317.561 293.677C318.018 293.369 318.58 293.215 319.245 293.215C319.907 293.215 320.477 293.369 320.956 293.677C321.439 293.981 321.811 294.397 322.072 294.926C322.333 295.451 322.464 296.048 322.464 296.717C322.464 297.382 322.333 297.981 322.072 298.514C321.815 299.043 321.448 299.462 320.969 299.769C320.495 300.077 319.929 300.231 319.272 300.231ZM315.955 303V293.4H317.17V298.182H317.326V303H315.955ZM319.082 299.068C319.517 299.068 319.877 298.963 320.159 298.754C320.447 298.545 320.66 298.264 320.799 297.911C320.943 297.554 321.015 297.156 321.015 296.717C321.015 296.282 320.943 295.888 320.799 295.535C320.66 295.183 320.444 294.902 320.153 294.692C319.861 294.483 319.489 294.378 319.037 294.378C318.61 294.378 318.258 294.477 317.979 294.674C317.705 294.871 317.5 295.146 317.365 295.498C317.235 295.851 317.17 296.257 317.17 296.717C317.17 297.176 317.235 297.583 317.365 297.935C317.496 298.288 317.703 298.565 317.986 298.766C318.268 298.967 318.634 299.068 319.082 299.068Z" fill="#5E6B77"/>
<path d="M324.603 303L325.968 299.498L325.987 300.532L322.913 293.4H324.336L326.634 298.908H326.216L328.409 293.4H329.793L325.902 303H324.603Z" fill="#5E6B77"/>
<path d="M330.039 301.523V299.012C330.426 299.012 330.702 298.891 330.868 298.649C331.037 298.403 331.172 297.987 331.272 297.4C331.333 297.043 331.383 296.664 331.423 296.262C331.466 295.859 331.503 295.425 331.534 294.957C331.564 294.485 331.595 293.966 331.625 293.4H336.678V299.012H337.37V301.523H336.077V300.046H331.338V301.523H330.039ZM331.991 299.012H335.307V294.434H332.839C332.822 294.705 332.802 294.984 332.78 295.271C332.763 295.558 332.741 295.843 332.715 296.126C332.693 296.409 332.667 296.68 332.637 296.938C332.606 297.197 332.572 297.431 332.532 297.64C332.48 297.964 332.417 298.235 332.343 298.452C332.273 298.67 332.156 298.856 331.991 299.012Z" fill="#5E6B77"/>
<path d="M338.664 300.046V293.4H340.028V296.114H343.468V293.4H344.833V300.046H343.468V297.326H340.028V300.046H338.664Z" fill="#5E6B77"/>
<path d="M352.605 293.4V300.046H351.293V295.425L347.768 300.046H346.658V293.4H347.97V297.929L351.502 293.4H352.605Z" fill="#5E6B77"/>
<path d="M354.423 300.046L354.429 293.4H355.813V296.6L358.581 293.4H360.318L357.393 296.723L360.618 300.046H358.764L355.813 296.846V300.046H354.423Z" fill="#5E6B77"/>
<path d="M364.211 300.231C363.506 300.231 362.894 300.081 362.376 299.782C361.858 299.482 361.458 299.07 361.175 298.545C360.896 298.015 360.757 297.406 360.757 296.717C360.757 296.024 360.901 295.414 361.188 294.889C361.475 294.36 361.878 293.95 362.396 293.658C362.914 293.363 363.519 293.215 364.211 293.215C364.916 293.215 365.527 293.365 366.045 293.665C366.563 293.964 366.963 294.376 367.246 294.902C367.529 295.427 367.671 296.032 367.671 296.717C367.671 297.41 367.527 298.022 367.24 298.551C366.957 299.076 366.556 299.488 366.038 299.788C365.521 300.083 364.911 300.231 364.211 300.231ZM364.211 299.018C364.885 299.018 365.388 298.805 365.719 298.378C366.054 297.948 366.221 297.394 366.221 296.717C366.221 296.024 366.052 295.47 365.712 295.055C365.377 294.637 364.876 294.428 364.211 294.428C363.754 294.428 363.377 294.526 363.081 294.723C362.785 294.916 362.566 295.185 362.422 295.529C362.278 295.87 362.206 296.266 362.206 296.717C362.206 297.414 362.376 297.972 362.716 298.391C363.055 298.809 363.553 299.018 364.211 299.018Z" fill="#5E6B77"/>
<path d="M369.099 300.046V293.4H372.199C372.404 293.4 372.609 293.412 372.813 293.437C373.018 293.457 373.198 293.488 373.355 293.529C373.712 293.624 374.016 293.812 374.269 294.095C374.521 294.374 374.647 294.748 374.647 295.215C374.647 295.482 374.604 295.708 374.517 295.892C374.43 296.073 374.31 296.229 374.158 296.36C374.088 296.417 374.014 296.469 373.936 296.514C373.858 296.559 373.779 296.594 373.701 296.618C373.862 296.643 374.021 296.696 374.177 296.778C374.417 296.897 374.613 297.07 374.765 297.295C374.922 297.517 375 297.814 375 298.188C375 298.635 374.885 299.01 374.654 299.314C374.423 299.613 374.097 299.818 373.675 299.929C373.509 299.974 373.322 300.005 373.113 300.022C372.909 300.038 372.704 300.046 372.5 300.046H369.099ZM370.483 299.031H372.415C372.506 299.031 372.611 299.023 372.728 299.006C372.846 298.99 372.95 298.967 373.042 298.938C373.237 298.881 373.377 298.776 373.459 298.625C373.546 298.473 373.59 298.311 373.59 298.138C373.59 297.905 373.525 297.718 373.394 297.578C373.264 297.435 373.098 297.343 372.898 297.302C372.811 297.273 372.715 297.256 372.611 297.252C372.506 297.248 372.417 297.246 372.343 297.246H370.483V299.031ZM370.483 296.212H372.01C372.136 296.212 372.265 296.206 372.395 296.194C372.526 296.177 372.639 296.151 372.735 296.114C372.904 296.052 373.031 295.95 373.113 295.806C373.196 295.658 373.237 295.498 373.237 295.326C373.237 295.137 373.192 294.969 373.1 294.822C373.009 294.674 372.872 294.571 372.689 294.514C372.563 294.473 372.417 294.45 372.252 294.446C372.091 294.438 371.988 294.434 371.945 294.434H370.483V296.212Z" fill="#5E6B77"/>
<path d="M270.014 383.079H268.701V376.562L264.312 383.079H263V374.316H264.312V380.828L268.701 374.316H270.014V383.079Z" fill="#5E6B77"/>
<path d="M274.602 383.262C273.917 383.262 273.335 383.112 272.856 382.811C272.377 382.511 272.01 382.099 271.754 381.576C271.502 381.053 271.374 380.458 271.37 379.793C271.374 379.116 271.506 378.517 271.766 377.998C272.026 377.475 272.398 377.065 272.881 376.769C273.364 376.473 273.943 376.325 274.62 376.325C275.351 376.325 275.974 376.503 276.49 376.86C277.01 377.217 277.352 377.706 277.517 378.327L276.23 378.692C276.102 378.323 275.891 378.037 275.598 377.834C275.309 377.627 274.977 377.523 274.602 377.523C274.177 377.523 273.828 377.623 273.555 377.822C273.283 378.016 273.081 378.284 272.949 378.625C272.817 378.966 272.749 379.355 272.745 379.793C272.749 380.471 272.905 381.018 273.215 381.436C273.529 381.854 273.991 382.063 274.602 382.063C275.018 382.063 275.355 381.97 275.611 381.783C275.871 381.592 276.069 381.32 276.205 380.968L277.517 381.272C277.299 381.913 276.938 382.406 276.434 382.751C275.931 383.091 275.32 383.262 274.602 383.262Z" fill="#5E6B77"/>
<path d="M278.772 383.079V376.507H284.412V383.079H283.118V377.706H280.066V383.079H278.772Z" fill="#5E6B77"/>
<path d="M289.045 383.262C288.377 383.262 287.797 383.114 287.306 382.817C286.815 382.521 286.435 382.114 286.167 381.594C285.902 381.071 285.77 380.469 285.77 379.787C285.77 379.101 285.907 378.499 286.179 377.98C286.451 377.456 286.833 377.051 287.324 376.763C287.815 376.471 288.389 376.325 289.045 376.325C289.714 376.325 290.294 376.473 290.785 376.769C291.276 377.065 291.655 377.473 291.924 377.992C292.192 378.511 292.326 379.11 292.326 379.787C292.326 380.473 292.19 381.077 291.918 381.6C291.649 382.12 291.27 382.527 290.778 382.824C290.287 383.116 289.71 383.262 289.045 383.262ZM289.045 382.063C289.685 382.063 290.162 381.852 290.475 381.43C290.793 381.004 290.952 380.456 290.952 379.787C290.952 379.101 290.791 378.554 290.469 378.144C290.151 377.73 289.677 377.523 289.045 377.523C288.612 377.523 288.255 377.621 287.974 377.815C287.694 378.006 287.485 378.272 287.349 378.613C287.213 378.949 287.145 379.341 287.145 379.787C287.145 380.477 287.306 381.028 287.628 381.442C287.949 381.856 288.422 382.063 289.045 382.063Z" fill="#5E6B77"/>
<path d="M293.067 383.079V382.002C293.315 382.047 293.503 382.041 293.631 381.984C293.763 381.923 293.86 381.813 293.922 381.655C293.988 381.497 294.043 381.292 294.089 381.041C294.159 380.671 294.219 380.252 294.268 379.781C294.322 379.306 294.369 378.793 294.411 378.241C294.452 377.69 294.489 377.112 294.522 376.507H299.326V383.079H298.026V377.706H295.686C295.661 378.026 295.632 378.367 295.599 378.728C295.57 379.085 295.537 379.44 295.5 379.793C295.463 380.146 295.424 380.477 295.383 380.785C295.341 381.093 295.298 381.357 295.253 381.576C295.17 382.014 295.048 382.363 294.887 382.623C294.731 382.878 294.508 383.043 294.219 383.116C293.93 383.193 293.546 383.181 293.067 383.079Z" fill="#5E6B77"/>
<path d="M301.056 383.079V376.507H302.356V378.789H303.674C303.864 378.789 304.066 378.793 304.281 378.801C304.5 378.809 304.687 378.83 304.844 378.862C305.203 378.935 305.513 379.057 305.773 379.227C306.037 379.398 306.241 379.625 306.386 379.909C306.53 380.189 306.602 380.533 306.602 380.943C306.602 381.515 306.45 381.972 306.144 382.312C305.843 382.649 305.434 382.876 304.919 382.994C304.753 383.03 304.557 383.055 304.33 383.067C304.108 383.075 303.903 383.079 303.718 383.079H301.056ZM302.356 382.057H303.792C303.895 382.057 304.013 382.053 304.145 382.045C304.277 382.037 304.399 382.018 304.51 381.99C304.708 381.933 304.886 381.817 305.042 381.643C305.199 381.469 305.278 381.235 305.278 380.943C305.278 380.643 305.199 380.404 305.042 380.225C304.89 380.047 304.696 379.931 304.46 379.878C304.349 379.85 304.236 379.832 304.12 379.824C304.004 379.815 303.895 379.811 303.792 379.811H302.356V382.057Z" fill="#5E6B77"/>
<path d="M310.349 383.262C309.701 383.262 309.119 383.126 308.603 382.854C308.092 382.582 307.687 382.207 307.39 381.728L308.418 381.065C308.657 381.381 308.933 381.627 309.247 381.801C309.565 381.976 309.922 382.063 310.318 382.063C310.731 382.063 311.057 381.972 311.296 381.789C311.54 381.602 311.661 381.353 311.661 381.041C311.661 380.793 311.591 380.611 311.451 380.493C311.315 380.371 311.125 380.292 310.881 380.256C310.642 380.219 310.37 380.201 310.064 380.201H309.47V379.178H310.064C310.469 379.178 310.801 379.124 311.061 379.014C311.325 378.901 311.457 378.688 311.457 378.375C311.457 378.071 311.344 377.852 311.117 377.718C310.894 377.584 310.628 377.517 310.318 377.517C309.971 377.517 309.635 377.59 309.309 377.736C308.983 377.878 308.698 378.055 308.455 378.266L307.7 377.396C308.054 377.059 308.459 376.797 308.913 376.611C309.371 376.42 309.862 376.325 310.386 376.325C310.815 376.325 311.212 376.4 311.575 376.55C311.942 376.696 312.235 376.913 312.454 377.201C312.677 377.489 312.788 377.844 312.788 378.266C312.788 378.594 312.714 378.895 312.565 379.166C312.417 379.438 312.19 379.686 311.884 379.909L311.847 379.477C312.099 379.554 312.309 379.677 312.479 379.848C312.648 380.018 312.774 380.219 312.856 380.45C312.943 380.677 312.986 380.919 312.986 381.174C312.986 381.617 312.867 381.994 312.627 382.306C312.392 382.619 312.074 382.856 311.674 383.018C311.274 383.181 310.832 383.262 310.349 383.262Z" fill="#5E6B77"/>
<path d="M315.253 386L316.547 382.538L316.566 383.56L313.65 376.507H315L317.179 381.953H316.783L318.863 376.507H320.175L316.485 386H315.253Z" fill="#5E6B77"/>
<path d="M324.129 375.753C323.802 375.753 323.503 375.673 323.231 375.515C322.963 375.357 322.748 375.146 322.587 374.882C322.426 374.619 322.346 374.325 322.346 374H323.373C323.373 374.203 323.448 374.377 323.596 374.523C323.745 374.669 323.922 374.742 324.129 374.742C324.339 374.742 324.516 374.669 324.661 374.523C324.809 374.377 324.884 374.203 324.884 374H325.911C325.911 374.325 325.831 374.619 325.67 374.882C325.509 375.146 325.292 375.357 325.02 375.515C324.752 375.673 324.455 375.753 324.129 375.753ZM326.778 376.507V383.079H325.534V378.509L322.191 383.079H321.139V376.507H322.383V380.986L325.732 376.507H326.778Z" fill="#5E6B77"/>
<path d="M330.235 383.079V377.651H327.951V376.507H333.813V377.651H331.529V383.079H330.235Z" fill="#5E6B77"/>
<path d="M337.954 383.262C337.289 383.262 336.706 383.12 336.202 382.836C335.703 382.548 335.313 382.148 335.032 381.637C334.756 381.122 334.617 380.525 334.617 379.848C334.617 379.13 334.753 378.507 335.026 377.98C335.302 377.452 335.686 377.045 336.177 376.757C336.668 376.469 337.24 376.325 337.892 376.325C338.573 376.325 339.153 376.481 339.632 376.793C340.11 377.101 340.467 377.542 340.703 378.114C340.942 378.686 341.037 379.365 340.987 380.152H339.693V379.69C339.685 378.927 339.537 378.363 339.248 377.998C338.963 377.633 338.528 377.45 337.942 377.45C337.294 377.45 336.807 377.651 336.481 378.053C336.155 378.454 335.992 379.034 335.992 379.793C335.992 380.515 336.155 381.075 336.481 381.473C336.807 381.866 337.277 382.063 337.892 382.063C338.296 382.063 338.645 381.974 338.938 381.795C339.235 381.613 339.466 381.353 339.632 381.016L340.901 381.412C340.641 382 340.246 382.456 339.718 382.781C339.19 383.101 338.602 383.262 337.954 383.262ZM335.571 380.152V379.16H340.343V380.152H335.571Z" fill="#5E6B77"/>
</g>
<defs>
<linearGradient id="paint0_linear_3489_14303" x1="29.5077" y1="360.696" x2="471.511" y2="132.456" gradientUnits="userSpaceOnUse">
<stop stop-color="#CED2D4"/>
<stop offset="1" stop-color="#E9EBED"/>
</linearGradient>
<linearGradient id="paint1_linear_3489_14303" x1="80.5991" y1="398.551" x2="565.197" y2="148.365" gradientUnits="userSpaceOnUse">
<stop stop-color="#CED2D4"/>
<stop offset="1" stop-color="#E9EBED"/>
</linearGradient>
<clipPath id="clip0_3489_14303">
<rect width="608" height="518" fill="white"/>
</clipPath>
</defs>
</svg>
