<svg width="540" height="535" viewBox="0 0 540 535" fill="none" xmlns="http://www.w3.org/2000/svg">
<rect width="540" height="535" rx="12" fill="white"/>
<path d="M35.536 55.92V52.424C35.9307 52.424 36.256 52.3253 36.512 52.128C36.768 51.9253 36.9707 51.6507 37.12 51.304C37.2747 50.952 37.392 50.552 37.472 50.104C37.5573 49.656 37.6213 49.184 37.664 48.688C37.728 48.016 37.7813 47.36 37.824 46.72C37.872 46.0747 37.9147 45.408 37.952 44.72C37.9947 44.032 38.04 43.2827 38.088 42.472L45.464 42.48V52.424H46.32V55.92H44.64V54H37.208V55.92H35.536ZM38.28 52.424H43.792V44.056L39.632 44.048C39.5947 44.6347 39.5627 45.192 39.536 45.72C39.5093 46.248 39.4747 46.7813 39.432 47.32C39.3947 47.8533 39.3467 48.4267 39.288 49.04C39.2293 49.6267 39.168 50.1253 39.104 50.536C39.04 50.9413 38.944 51.2933 38.816 51.592C38.6933 51.8907 38.5147 52.168 38.28 52.424ZM51.8251 54.24C50.9611 54.24 50.2118 54.0453 49.5771 53.656C48.9425 53.2667 48.4518 52.7307 48.1051 52.048C47.7638 51.36 47.5931 50.568 47.5931 49.672C47.5931 48.7707 47.7691 47.9787 48.1211 47.296C48.4731 46.608 48.9665 46.0747 49.6011 45.696C50.2358 45.312 50.9771 45.12 51.8251 45.12C52.6891 45.12 53.4385 45.3147 54.0731 45.704C54.7078 46.0933 55.1985 46.6293 55.5451 47.312C55.8918 47.9947 56.0651 48.7813 56.0651 49.672C56.0651 50.5733 55.8891 51.368 55.5371 52.056C55.1905 52.7387 54.6998 53.2747 54.0651 53.664C53.4305 54.048 52.6838 54.24 51.8251 54.24ZM51.8251 52.664C52.6518 52.664 53.2678 52.3867 53.6731 51.832C54.0838 51.272 54.2891 50.552 54.2891 49.672C54.2891 48.7707 54.0811 48.0507 53.6651 47.512C53.2545 46.968 52.6411 46.696 51.8251 46.696C51.2651 46.696 50.8038 46.824 50.4411 47.08C50.0785 47.3307 49.8091 47.68 49.6331 48.128C49.4571 48.5707 49.3691 49.0853 49.3691 49.672C49.3691 50.5787 49.5771 51.304 49.9931 51.848C50.4091 52.392 51.0198 52.664 51.8251 52.664ZM61.3751 54.248C60.5538 54.2427 59.8551 54.064 59.2791 53.712C58.7031 53.36 58.2525 52.8533 57.9271 52.192C57.6071 51.5253 57.4205 50.7227 57.3671 49.784C57.3405 49.3307 57.3431 48.8293 57.3751 48.28C57.4071 47.7253 57.4658 47.1893 57.5511 46.672C57.6418 46.1547 57.7565 45.7227 57.8951 45.376C58.0498 44.992 58.2605 44.64 58.5271 44.32C58.7938 43.9947 59.0871 43.7227 59.4071 43.504C59.7485 43.2693 60.1271 43.088 60.5431 42.96C60.9591 42.8267 61.3938 42.7227 61.8471 42.648C62.3058 42.5733 62.7671 42.5093 63.2311 42.456C63.7005 42.3973 64.1565 42.3253 64.5991 42.24L64.7591 43.736C64.4658 43.8053 64.1191 43.8613 63.7191 43.904C63.3245 43.9467 62.9138 43.9947 62.4871 44.048C62.0658 44.1013 61.6631 44.176 61.2791 44.272C60.8951 44.368 60.5618 44.504 60.2791 44.68C59.8791 44.9253 59.5725 45.2827 59.3591 45.752C59.1511 46.2213 59.0258 46.7307 58.9831 47.28C59.3138 46.7787 59.7351 46.4187 60.2471 46.2C60.7591 45.976 61.2898 45.864 61.8391 45.864C62.6071 45.864 63.2685 46.0453 63.8231 46.408C64.3831 46.7707 64.8125 47.264 65.1111 47.888C65.4098 48.512 65.5591 49.2187 65.5591 50.008C65.5591 50.8613 65.3831 51.608 65.0311 52.248C64.6845 52.8827 64.1965 53.3787 63.5671 53.736C62.9378 54.088 62.2071 54.2587 61.3751 54.248ZM61.4631 52.672C62.2311 52.672 62.8098 52.4347 63.1991 51.96C63.5938 51.4853 63.7911 50.8533 63.7911 50.064C63.7911 49.2533 63.5885 48.616 63.1831 48.152C62.7778 47.688 62.2045 47.456 61.4631 47.456C60.7111 47.456 60.1351 47.688 59.7351 48.152C59.3405 48.616 59.1431 49.2533 59.1431 50.064C59.1431 50.8853 59.3431 51.5253 59.7431 51.984C60.1431 52.4427 60.7165 52.672 61.4631 52.672ZM69.7631 54.24C69.1231 54.24 68.5871 54.1227 68.1551 53.888C67.7231 53.648 67.3951 53.3333 67.1711 52.944C66.9525 52.5493 66.8431 52.1173 66.8431 51.648C66.8431 51.2107 66.9205 50.8267 67.0751 50.496C67.2298 50.1653 67.4591 49.8853 67.7631 49.656C68.0671 49.4213 68.4405 49.232 68.8831 49.088C69.2671 48.976 69.7018 48.8773 70.1871 48.792C70.6725 48.7067 71.1818 48.6267 71.7151 48.552C72.2538 48.4773 72.7871 48.4027 73.3151 48.328L72.7071 48.664C72.7178 47.9867 72.5738 47.4853 72.2751 47.16C71.9818 46.8293 71.4751 46.664 70.7551 46.664C70.3018 46.664 69.8858 46.7707 69.5071 46.984C69.1285 47.192 68.8645 47.5387 68.7151 48.024L67.1551 47.544C67.3685 46.8027 67.7738 46.2133 68.3711 45.776C68.9738 45.3387 69.7738 45.12 70.7711 45.12C71.5445 45.12 72.2165 45.2533 72.7871 45.52C73.3631 45.7813 73.7845 46.1973 74.0511 46.768C74.1898 47.0507 74.2751 47.3493 74.3071 47.664C74.3391 47.9787 74.3551 48.3173 74.3551 48.68V54H72.8751V52.024L73.1631 52.28C72.8058 52.9413 72.3498 53.4347 71.7951 53.76C71.2458 54.08 70.5685 54.24 69.7631 54.24ZM70.0591 52.872C70.5338 52.872 70.9418 52.7893 71.2831 52.624C71.6245 52.4533 71.8991 52.2373 72.1071 51.976C72.3151 51.7147 72.4511 51.4427 72.5151 51.16C72.6058 50.904 72.6565 50.616 72.6671 50.296C72.6831 49.976 72.6911 49.72 72.6911 49.528L73.2351 49.728C72.7071 49.808 72.2271 49.88 71.7951 49.944C71.3631 50.008 70.9711 50.072 70.6191 50.136C70.2725 50.1947 69.9631 50.2667 69.6911 50.352C69.4618 50.432 69.2565 50.528 69.0751 50.64C68.8991 50.752 68.7578 50.888 68.6511 51.048C68.5498 51.208 68.4991 51.4027 68.4991 51.632C68.4991 51.856 68.5551 52.064 68.6671 52.256C68.7791 52.4427 68.9498 52.592 69.1791 52.704C69.4085 52.816 69.7018 52.872 70.0591 52.872ZM76.4245 54V45.36H80.2245C80.4752 45.36 80.7258 45.376 80.9765 45.408C81.2272 45.4347 81.4485 45.4747 81.6405 45.528C82.0778 45.6507 82.4512 45.896 82.7605 46.264C83.0698 46.6267 83.2245 47.112 83.2245 47.72C83.2245 48.0667 83.1712 48.36 83.0645 48.6C82.9578 48.8347 82.8112 49.0373 82.6245 49.208C82.5392 49.2827 82.4485 49.3493 82.3525 49.408C82.2565 49.4667 82.1605 49.512 82.0645 49.544C82.2618 49.576 82.4565 49.6453 82.6485 49.752C82.9418 49.9067 83.1818 50.1307 83.3685 50.424C83.5605 50.712 83.6565 51.0987 83.6565 51.584C83.6565 52.1653 83.5152 52.6533 83.2325 53.048C82.9498 53.4373 82.5498 53.704 82.0325 53.848C81.8298 53.9067 81.6005 53.9467 81.3445 53.968C81.0938 53.9893 80.8432 54 80.5925 54H76.4245ZM78.1205 52.68H80.4885C80.6005 52.68 80.7285 52.6693 80.8725 52.648C81.0165 52.6267 81.1445 52.5973 81.2565 52.56C81.4965 52.4853 81.6672 52.3493 81.7685 52.152C81.8752 51.9547 81.9285 51.744 81.9285 51.52C81.9285 51.216 81.8485 50.9733 81.6885 50.792C81.5285 50.6053 81.3258 50.4853 81.0805 50.432C80.9738 50.3947 80.8565 50.3733 80.7285 50.368C80.6005 50.3627 80.4912 50.36 80.4005 50.36H78.1205V52.68ZM78.1205 49.016H79.9925C80.1472 49.016 80.3045 49.008 80.4645 48.992C80.6245 48.9707 80.7632 48.936 80.8805 48.888C81.0885 48.808 81.2432 48.6747 81.3445 48.488C81.4458 48.296 81.4965 48.088 81.4965 47.864C81.4965 47.6187 81.4405 47.4 81.3285 47.208C81.2165 47.016 81.0485 46.8827 80.8245 46.808C80.6698 46.7547 80.4912 46.7253 80.2885 46.72C80.0912 46.7093 79.9658 46.704 79.9125 46.704H78.1205V49.016ZM84.4606 54V52.584C84.7806 52.6427 85.0233 52.6347 85.1886 52.56C85.3593 52.48 85.4846 52.336 85.5646 52.128C85.65 51.92 85.722 51.6507 85.7806 51.32C85.8713 50.8347 85.9486 50.2827 86.0126 49.664C86.082 49.04 86.1433 48.3653 86.1966 47.64C86.25 46.9147 86.298 46.1547 86.3406 45.36H92.5486V54H90.8686V46.936H87.8446C87.8126 47.3573 87.7753 47.8053 87.7326 48.28C87.6953 48.7493 87.6526 49.216 87.6046 49.68C87.5566 50.144 87.506 50.5787 87.4526 50.984C87.3993 51.3893 87.3433 51.736 87.2846 52.024C87.178 52.6 87.0206 53.0587 86.8126 53.4C86.61 53.736 86.322 53.952 85.9486 54.048C85.5753 54.1493 85.0793 54.1333 84.4606 54ZM98.6239 54.24C97.7652 54.24 97.0105 54.0533 96.3599 53.68C95.7145 53.3013 95.2105 52.776 94.8479 52.104C94.4905 51.4267 94.3119 50.6427 94.3119 49.752C94.3119 48.808 94.4879 47.9893 94.8399 47.296C95.1972 46.6027 95.6932 46.0667 96.3279 45.688C96.9625 45.3093 97.7012 45.12 98.5439 45.12C99.4239 45.12 100.173 45.3253 100.792 45.736C101.411 46.1413 101.872 46.72 102.176 47.472C102.485 48.224 102.608 49.1173 102.544 50.152H100.872V49.544C100.861 48.5413 100.669 47.8 100.296 47.32C99.9279 46.84 99.3652 46.6 98.6079 46.6C97.7705 46.6 97.1412 46.864 96.7199 47.392C96.2985 47.92 96.0879 48.6827 96.0879 49.68C96.0879 50.6293 96.2985 51.3653 96.7199 51.888C97.1412 52.4053 97.7492 52.664 98.5439 52.664C99.0665 52.664 99.5172 52.5467 99.8959 52.312C100.28 52.072 100.579 51.7307 100.792 51.288L102.432 51.808C102.096 52.5813 101.587 53.1813 100.904 53.608C100.221 54.0293 99.4612 54.24 98.6239 54.24ZM95.5439 50.152V48.848H101.712V50.152H95.5439ZM104.331 54V45.36H106.003V48.888H110.219V45.36H111.891V54H110.219V50.464H106.003V54H104.331ZM121.416 45.36V54H119.808V47.992L115.488 54H114.128V45.36H115.736V51.248L120.064 45.36H121.416ZM127.483 54.24C126.625 54.24 125.87 54.0533 125.219 53.68C124.574 53.3013 124.07 52.776 123.707 52.104C123.35 51.4267 123.171 50.6427 123.171 49.752C123.171 48.808 123.347 47.9893 123.699 47.296C124.057 46.6027 124.553 46.0667 125.187 45.688C125.822 45.3093 126.561 45.12 127.403 45.12C128.283 45.12 129.033 45.3253 129.651 45.736C130.27 46.1413 130.731 46.72 131.035 47.472C131.345 48.224 131.467 49.1173 131.403 50.152H129.731V49.544C129.721 48.5413 129.529 47.8 129.155 47.32C128.787 46.84 128.225 46.6 127.467 46.6C126.63 46.6 126.001 46.864 125.579 47.392C125.158 47.92 124.947 48.6827 124.947 49.68C124.947 50.6293 125.158 51.3653 125.579 51.888C126.001 52.4053 126.609 52.664 127.403 52.664C127.926 52.664 128.377 52.5467 128.755 52.312C129.139 52.072 129.438 51.7307 129.651 51.288L131.291 51.808C130.955 52.5813 130.446 53.1813 129.763 53.608C129.081 54.0293 128.321 54.24 127.483 54.24ZM124.403 50.152V48.848H130.571V50.152H124.403ZM136.393 54V45.36H138.065V48.888H142.281V45.36H143.953V54H142.281V50.464H138.065V54H136.393ZM149.95 54.24C149.086 54.24 148.337 54.0453 147.702 53.656C147.067 53.2667 146.577 52.7307 146.23 52.048C145.889 51.36 145.718 50.568 145.718 49.672C145.718 48.7707 145.894 47.9787 146.246 47.296C146.598 46.608 147.091 46.0747 147.726 45.696C148.361 45.312 149.102 45.12 149.95 45.12C150.814 45.12 151.563 45.3147 152.198 45.704C152.833 46.0933 153.323 46.6293 153.67 47.312C154.017 47.9947 154.19 48.7813 154.19 49.672C154.19 50.5733 154.014 51.368 153.662 52.056C153.315 52.7387 152.825 53.2747 152.19 53.664C151.555 54.048 150.809 54.24 149.95 54.24ZM149.95 52.664C150.777 52.664 151.393 52.3867 151.798 51.832C152.209 51.272 152.414 50.552 152.414 49.672C152.414 48.7707 152.206 48.0507 151.79 47.512C151.379 46.968 150.766 46.696 149.95 46.696C149.39 46.696 148.929 46.824 148.566 47.08C148.203 47.3307 147.934 47.68 147.758 48.128C147.582 48.5707 147.494 49.0853 147.494 49.672C147.494 50.5787 147.702 51.304 148.118 51.848C148.534 52.392 149.145 52.664 149.95 52.664ZM155.94 54V45.36H157.34L160.532 51.696L163.716 45.36H165.124V54H163.508V48.784L160.908 54H160.148L157.548 48.784V54H155.94ZM171.202 54.24C170.343 54.24 169.589 54.0533 168.938 53.68C168.293 53.3013 167.789 52.776 167.426 52.104C167.069 51.4267 166.89 50.6427 166.89 49.752C166.89 48.808 167.066 47.9893 167.418 47.296C167.775 46.6027 168.271 46.0667 168.906 45.688C169.541 45.3093 170.279 45.12 171.122 45.12C172.002 45.12 172.751 45.3253 173.37 45.736C173.989 46.1413 174.45 46.72 174.754 47.472C175.063 48.224 175.186 49.1173 175.122 50.152H173.45V49.544C173.439 48.5413 173.247 47.8 172.874 47.32C172.506 46.84 171.943 46.6 171.186 46.6C170.349 46.6 169.719 46.864 169.298 47.392C168.877 47.92 168.666 48.6827 168.666 49.68C168.666 50.6293 168.877 51.3653 169.298 51.888C169.719 52.4053 170.327 52.664 171.122 52.664C171.645 52.664 172.095 52.5467 172.474 52.312C172.858 52.072 173.157 51.7307 173.37 51.288L175.01 51.808C174.674 52.5813 174.165 53.1813 173.482 53.608C172.799 54.0293 172.039 54.24 171.202 54.24ZM168.122 50.152V48.848H174.29V50.152H168.122ZM180.973 54.24C180.146 54.24 179.453 54.04 178.893 53.64C178.333 53.2347 177.909 52.688 177.621 52C177.333 51.312 177.189 50.536 177.189 49.672C177.189 48.808 177.33 48.032 177.613 47.344C177.901 46.656 178.322 46.1147 178.877 45.72C179.437 45.32 180.125 45.12 180.941 45.12C181.752 45.12 182.45 45.32 183.037 45.72C183.629 46.1147 184.085 46.656 184.405 47.344C184.725 48.0267 184.885 48.8027 184.885 49.672C184.885 50.536 184.725 51.3147 184.405 52.008C184.09 52.696 183.64 53.24 183.053 53.64C182.472 54.04 181.778 54.24 180.973 54.24ZM176.909 57.84V45.36H178.397V51.576H178.589V57.84H176.909ZM180.741 52.728C181.274 52.728 181.714 52.592 182.061 52.32C182.413 52.048 182.674 51.6827 182.845 51.224C183.021 50.76 183.109 50.2427 183.109 49.672C183.109 49.1067 183.021 48.5947 182.845 48.136C182.674 47.6773 182.41 47.312 182.053 47.04C181.696 46.768 181.24 46.632 180.685 46.632C180.162 46.632 179.73 46.76 179.389 47.016C179.053 47.272 178.802 47.6293 178.637 48.088C178.477 48.5467 178.397 49.0747 178.397 49.672C178.397 50.2693 178.477 50.7973 178.637 51.256C178.797 51.7147 179.05 52.0747 179.397 52.336C179.744 52.5973 180.192 52.728 180.741 52.728ZM189.091 54.24C188.451 54.24 187.915 54.1227 187.483 53.888C187.051 53.648 186.723 53.3333 186.499 52.944C186.281 52.5493 186.171 52.1173 186.171 51.648C186.171 51.2107 186.249 50.8267 186.403 50.496C186.558 50.1653 186.787 49.8853 187.091 49.656C187.395 49.4213 187.769 49.232 188.211 49.088C188.595 48.976 189.03 48.8773 189.515 48.792C190.001 48.7067 190.51 48.6267 191.043 48.552C191.582 48.4773 192.115 48.4027 192.643 48.328L192.035 48.664C192.046 47.9867 191.902 47.4853 191.603 47.16C191.31 46.8293 190.803 46.664 190.083 46.664C189.63 46.664 189.214 46.7707 188.835 46.984C188.457 47.192 188.193 47.5387 188.043 48.024L186.483 47.544C186.697 46.8027 187.102 46.2133 187.699 45.776C188.302 45.3387 189.102 45.12 190.099 45.12C190.873 45.12 191.545 45.2533 192.115 45.52C192.691 45.7813 193.113 46.1973 193.379 46.768C193.518 47.0507 193.603 47.3493 193.635 47.664C193.667 47.9787 193.683 48.3173 193.683 48.68V54H192.203V52.024L192.491 52.28C192.134 52.9413 191.678 53.4347 191.123 53.76C190.574 54.08 189.897 54.24 189.091 54.24ZM189.387 52.872C189.862 52.872 190.27 52.7893 190.611 52.624C190.953 52.4533 191.227 52.2373 191.435 51.976C191.643 51.7147 191.779 51.4427 191.843 51.16C191.934 50.904 191.985 50.616 191.995 50.296C192.011 49.976 192.019 49.72 192.019 49.528L192.563 49.728C192.035 49.808 191.555 49.88 191.123 49.944C190.691 50.008 190.299 50.072 189.947 50.136C189.601 50.1947 189.291 50.2667 189.019 50.352C188.79 50.432 188.585 50.528 188.403 50.64C188.227 50.752 188.086 50.888 187.979 51.048C187.878 51.208 187.827 51.4027 187.827 51.632C187.827 51.856 187.883 52.064 187.995 52.256C188.107 52.4427 188.278 52.592 188.507 52.704C188.737 52.816 189.03 52.872 189.387 52.872Z" fill="#344351"/>
<path d="M38.128 99V88.792L35.96 90.096V88.776L38.128 87.48H39.32V99H38.128ZM41.9378 99V97.632H43.3058V99H41.9378ZM48.9794 99V87.48H57.8034V99H56.6274V88.608H50.1554V99H48.9794ZM63.6499 99.24C62.7912 99.24 62.0579 99.0453 61.4499 98.656C60.8419 98.2667 60.3752 97.728 60.0499 97.04C59.7245 96.352 59.5619 95.5627 59.5619 94.672C59.5619 93.7653 59.7272 92.9707 60.0579 92.288C60.3885 91.6053 60.8579 91.0747 61.4659 90.696C62.0792 90.312 62.8072 90.12 63.6499 90.12C64.5139 90.12 65.2499 90.3147 65.8579 90.704C66.4712 91.088 66.9379 91.624 67.2579 92.312C67.5832 92.9947 67.7459 93.7813 67.7459 94.672C67.7459 95.5787 67.5832 96.376 67.2579 97.064C66.9325 97.7467 66.4632 98.28 65.8499 98.664C65.2365 99.048 64.5032 99.24 63.6499 99.24ZM63.6499 98.112C64.6099 98.112 65.3245 97.7947 65.7939 97.16C66.2632 96.52 66.4979 95.6907 66.4979 94.672C66.4979 93.6267 66.2605 92.7947 65.7859 92.176C65.3165 91.5573 64.6045 91.248 63.6499 91.248C63.0045 91.248 62.4712 91.3947 62.0499 91.688C61.6339 91.976 61.3219 92.3787 61.1139 92.896C60.9112 93.408 60.8099 94 60.8099 94.672C60.8099 95.712 61.0499 96.5467 61.5299 97.176C62.0099 97.8 62.7165 98.112 63.6499 98.112ZM68.8706 100.92V97.992C69.3613 97.992 69.7133 97.8347 69.9266 97.52C70.14 97.2 70.3133 96.6907 70.4466 95.992C70.5373 95.5387 70.612 95.0507 70.6706 94.528C70.7293 94.0053 70.78 93.408 70.8226 92.736C70.8653 92.0587 70.9053 91.2667 70.9426 90.36H76.6546V97.992H77.4866V100.92H76.3506V99H69.9986V100.92H68.8706ZM70.8626 97.992H75.4866V91.368H72.0306C72.0146 91.7733 71.9906 92.2027 71.9586 92.656C71.932 93.1093 71.8973 93.5627 71.8546 94.016C71.8173 94.4693 71.772 94.896 71.7186 95.296C71.6706 95.6907 71.612 96.0373 71.5426 96.336C71.4626 96.72 71.3746 97.048 71.2786 97.32C71.188 97.592 71.0493 97.816 70.8626 97.992ZM79.0808 99L79.0888 90.36H80.2728V94.52L84.1288 90.36H85.6968L81.6488 94.68L86.2248 99H84.5128L80.2728 94.84V99H79.0808ZM86.07 99V97.968C86.39 98.0267 86.6327 98.0133 86.798 97.928C86.9687 97.8373 87.094 97.688 87.174 97.48C87.254 97.2667 87.3207 97.0027 87.374 96.688C87.4593 96.1653 87.5367 95.5893 87.606 94.96C87.6753 94.3307 87.7367 93.6373 87.79 92.88C87.8487 92.1173 87.9073 91.2773 87.966 90.36H93.838V99H92.67V91.488H89.054C89.0167 92.0533 88.974 92.616 88.926 93.176C88.878 93.736 88.8273 94.2747 88.774 94.792C88.726 95.304 88.6727 95.776 88.614 96.208C88.5553 96.64 88.494 97.0133 88.43 97.328C88.334 97.8027 88.206 98.1813 88.046 98.464C87.8913 98.7467 87.6593 98.9333 87.35 99.024C87.0407 99.1147 86.614 99.1067 86.07 99ZM102.873 99.24C102.11 99.24 101.446 99.0773 100.881 98.752C100.316 98.4213 99.8651 97.96 99.5291 97.368C99.1985 96.7707 98.9985 96.0693 98.9291 95.264H97.2411V99H96.0651V90.36H97.2411V94.096H98.9211C98.9905 93.28 99.1931 92.576 99.5291 91.984C99.8705 91.3867 100.324 90.928 100.889 90.608C101.46 90.2827 102.124 90.12 102.881 90.12C103.74 90.12 104.473 90.3147 105.081 90.704C105.694 91.0933 106.161 91.6293 106.481 92.312C106.806 92.9947 106.969 93.7787 106.969 94.664C106.969 95.5707 106.804 96.368 106.473 97.056C106.148 97.744 105.678 98.28 105.065 98.664C104.457 99.048 103.726 99.24 102.873 99.24ZM102.849 98.112C103.82 98.112 104.54 97.7973 105.009 97.168C105.484 96.5333 105.721 95.7013 105.721 94.672C105.721 93.6213 105.481 92.7893 105.001 92.176C104.526 91.5573 103.812 91.248 102.857 91.248C101.945 91.248 101.246 91.552 100.761 92.16C100.276 92.7627 100.033 93.5973 100.033 94.664C100.033 95.7093 100.27 96.5467 100.745 97.176C101.225 97.8 101.926 98.112 102.849 98.112ZM114.017 99V95.784C113.729 95.928 113.375 96.0533 112.953 96.16C112.532 96.2667 112.079 96.32 111.593 96.32C110.719 96.32 110.009 96.1253 109.465 95.736C108.921 95.3467 108.567 94.784 108.401 94.048C108.348 93.8293 108.311 93.5973 108.289 93.352C108.273 93.1067 108.263 92.8853 108.257 92.688C108.252 92.4907 108.249 92.3493 108.249 92.264V90.36H109.433V92.264C109.433 92.44 109.439 92.64 109.449 92.864C109.46 93.088 109.484 93.3067 109.521 93.52C109.628 94.1013 109.868 94.5413 110.241 94.84C110.62 95.1387 111.151 95.288 111.833 95.288C112.26 95.288 112.663 95.2347 113.041 95.128C113.425 95.016 113.751 94.8667 114.017 94.68V90.36H115.193V99H114.017ZM124.297 90.36V99H123.153V92.272L118.417 99H117.425V90.36H118.569V97.032L123.313 90.36H124.297ZM128.886 99V91.448H125.822V90.36H133.126V91.448H130.062V99H128.886ZM134.659 99L134.643 90.36H135.827V93.616H137.851C138.102 93.616 138.347 93.6213 138.587 93.632C138.833 93.6427 139.049 93.664 139.235 93.696C139.662 93.776 140.041 93.9173 140.371 94.12C140.707 94.3227 140.969 94.6027 141.155 94.96C141.347 95.3173 141.443 95.7653 141.443 96.304C141.443 97.0453 141.251 97.6293 140.867 98.056C140.489 98.4827 140.009 98.76 139.427 98.888C139.209 98.936 138.971 98.968 138.715 98.984C138.459 98.9947 138.206 99 137.955 99H134.659ZM135.827 97.992H137.907C138.089 97.992 138.291 97.9867 138.515 97.976C138.739 97.9653 138.937 97.936 139.107 97.888C139.39 97.808 139.646 97.648 139.875 97.408C140.11 97.1627 140.227 96.7947 140.227 96.304C140.227 95.8187 140.115 95.4533 139.891 95.208C139.667 94.9573 139.369 94.792 138.995 94.712C138.83 94.6747 138.651 94.6507 138.459 94.64C138.267 94.6293 138.083 94.624 137.907 94.624H135.827V97.992ZM149.113 97.712L148.369 96.976L151.417 93.96L148.369 90.944L149.113 90.208L152.873 93.96L149.113 97.712Z" fill="#344351"/>
<path d="M176.8 98.992L176.808 97.92L182.016 93.216C182.464 92.8107 182.76 92.4267 182.904 92.064C183.053 91.696 183.128 91.312 183.128 90.912C183.128 90.4373 183.016 90.008 182.792 89.624C182.568 89.24 182.267 88.936 181.888 88.712C181.509 88.4827 181.085 88.368 180.616 88.368C180.125 88.368 179.688 88.4853 179.304 88.72C178.92 88.9547 178.616 89.264 178.392 89.648C178.173 90.032 178.067 90.4507 178.072 90.904H176.872C176.872 90.2053 177.037 89.5787 177.368 89.024C177.699 88.4693 178.147 88.0347 178.712 87.72C179.277 87.4 179.917 87.24 180.632 87.24C181.331 87.24 181.957 87.4053 182.512 87.736C183.072 88.0613 183.512 88.504 183.832 89.064C184.157 89.6187 184.32 90.2373 184.32 90.92C184.32 91.4 184.261 91.824 184.144 92.192C184.032 92.5547 183.853 92.8933 183.608 93.208C183.368 93.5173 183.061 93.8373 182.688 94.168L178.064 98.344L177.88 97.864H184.32V98.992H176.8ZM186.469 99V97.632H187.837V99H186.469ZM193.511 99V87.48H194.687V92.672H201.055V87.48H202.223V99H201.055V93.8H194.687V99H193.511ZM206.936 99.24C206.285 99.24 205.738 99.1227 205.296 98.888C204.858 98.6533 204.53 98.3413 204.312 97.952C204.093 97.5627 203.984 97.1387 203.984 96.68C203.984 96.2107 204.077 95.8107 204.264 95.48C204.456 95.144 204.714 94.8693 205.04 94.656C205.37 94.4427 205.752 94.28 206.184 94.168C206.621 94.0613 207.104 93.968 207.632 93.888C208.165 93.8027 208.685 93.7307 209.192 93.672C209.704 93.608 210.152 93.5467 210.536 93.488L210.12 93.744C210.136 92.8907 209.97 92.2587 209.624 91.848C209.277 91.4373 208.674 91.232 207.816 91.232C207.224 91.232 206.722 91.3653 206.312 91.632C205.906 91.8987 205.621 92.32 205.456 92.896L204.312 92.56C204.509 91.7867 204.906 91.1867 205.504 90.76C206.101 90.3333 206.877 90.12 207.832 90.12C208.621 90.12 209.29 90.2693 209.84 90.568C210.394 90.8613 210.786 91.288 211.016 91.848C211.122 92.0987 211.192 92.3787 211.224 92.688C211.256 92.9973 211.272 93.312 211.272 93.632V99H210.224V96.832L210.528 96.96C210.234 97.7013 209.778 98.2667 209.16 98.656C208.541 99.0453 207.8 99.24 206.936 99.24ZM207.072 98.224C207.621 98.224 208.101 98.1253 208.512 97.928C208.922 97.7307 209.253 97.4613 209.504 97.12C209.754 96.7733 209.917 96.384 209.992 95.952C210.056 95.6747 210.09 95.3707 210.096 95.04C210.101 94.704 210.104 94.4533 210.104 94.288L210.552 94.52C210.152 94.5733 209.717 94.6267 209.248 94.68C208.784 94.7333 208.325 94.7947 207.872 94.864C207.424 94.9333 207.018 95.016 206.656 95.112C206.41 95.1813 206.173 95.28 205.944 95.408C205.714 95.5307 205.525 95.696 205.376 95.904C205.232 96.112 205.16 96.3707 205.16 96.68C205.16 96.9307 205.221 97.1733 205.344 97.408C205.472 97.6427 205.674 97.8373 205.952 97.992C206.234 98.1467 206.608 98.224 207.072 98.224ZM216.938 99.24C216.069 99.24 215.333 99.0453 214.73 98.656C214.128 98.2667 213.669 97.7307 213.354 97.048C213.045 96.36 212.885 95.5707 212.874 94.68C212.885 93.7733 213.05 92.9787 213.37 92.296C213.69 91.608 214.152 91.0747 214.754 90.696C215.357 90.312 216.088 90.12 216.946 90.12C217.821 90.12 218.581 90.3333 219.226 90.76C219.877 91.1867 220.322 91.7707 220.562 92.512L219.41 92.88C219.208 92.3627 218.885 91.9627 218.442 91.68C218.005 91.392 217.504 91.248 216.938 91.248C216.304 91.248 215.778 91.3947 215.362 91.688C214.946 91.976 214.637 92.3787 214.434 92.896C214.232 93.4133 214.128 94.008 214.122 94.68C214.133 95.7147 214.373 96.5467 214.842 97.176C215.312 97.8 216.01 98.112 216.938 98.112C217.525 98.112 218.024 97.9787 218.434 97.712C218.85 97.44 219.165 97.0453 219.378 96.528L220.562 96.88C220.242 97.648 219.773 98.2347 219.154 98.64C218.536 99.04 217.797 99.24 216.938 99.24ZM224.355 99V91.448H221.291V90.36H228.595V91.448H225.531V99H224.355ZM234 99.24C233.205 99.24 232.533 99.04 231.984 98.64C231.435 98.2347 231.019 97.688 230.736 97C230.453 96.3067 230.312 95.5307 230.312 94.672C230.312 93.7973 230.453 93.0187 230.736 92.336C231.024 91.648 231.445 91.1067 232 90.712C232.555 90.3173 233.237 90.12 234.048 90.12C234.837 90.12 235.515 90.32 236.08 90.72C236.645 91.12 237.077 91.664 237.376 92.352C237.68 93.04 237.832 93.8133 237.832 94.672C237.832 95.536 237.68 96.312 237.376 97C237.072 97.688 236.635 98.2347 236.064 98.64C235.493 99.04 234.805 99.24 234 99.24ZM230.112 102.84V90.36H231.168V96.864H231.296V102.84H230.112ZM233.88 98.144C234.483 98.144 234.984 97.992 235.384 97.688C235.784 97.384 236.083 96.9707 236.28 96.448C236.483 95.92 236.584 95.328 236.584 94.672C236.584 94.0213 236.485 93.4347 236.288 92.912C236.091 92.3893 235.789 91.976 235.384 91.672C234.984 91.368 234.475 91.216 233.856 91.216C233.253 91.216 232.752 91.3627 232.352 91.656C231.957 91.9493 231.661 92.3573 231.464 92.88C231.267 93.3973 231.168 93.9947 231.168 94.672C231.168 95.3387 231.267 95.936 231.464 96.464C231.661 96.9867 231.96 97.3973 232.36 97.696C232.76 97.9947 233.267 98.144 233.88 98.144ZM243.197 99.24C242.338 99.24 241.605 99.0453 240.997 98.656C240.389 98.2667 239.922 97.728 239.597 97.04C239.271 96.352 239.109 95.5627 239.109 94.672C239.109 93.7653 239.274 92.9707 239.605 92.288C239.935 91.6053 240.405 91.0747 241.013 90.696C241.626 90.312 242.354 90.12 243.197 90.12C244.061 90.12 244.797 90.3147 245.405 90.704C246.018 91.088 246.485 91.624 246.805 92.312C247.13 92.9947 247.293 93.7813 247.293 94.672C247.293 95.5787 247.13 96.376 246.805 97.064C246.479 97.7467 246.01 98.28 245.397 98.664C244.783 99.048 244.05 99.24 243.197 99.24ZM243.197 98.112C244.157 98.112 244.871 97.7947 245.341 97.16C245.81 96.52 246.045 95.6907 246.045 94.672C246.045 93.6267 245.807 92.7947 245.333 92.176C244.863 91.5573 244.151 91.248 243.197 91.248C242.551 91.248 242.018 91.3947 241.597 91.688C241.181 91.976 240.869 92.3787 240.661 92.896C240.458 93.408 240.357 94 240.357 94.672C240.357 95.712 240.597 96.5467 241.077 97.176C241.557 97.8 242.263 98.112 243.197 98.112ZM255.922 90.36V99H254.778V92.272L250.042 99H249.05V90.36H250.194V97.032L254.938 90.36H255.922ZM260.511 99V91.448H257.447V90.36H264.751V91.448H261.687V99H260.511ZM266.284 99L266.268 90.36H267.452V93.616H269.476C269.727 93.616 269.972 93.6213 270.212 93.632C270.458 93.6427 270.674 93.664 270.86 93.696C271.287 93.776 271.666 93.9173 271.996 94.12C272.332 94.3227 272.594 94.6027 272.78 94.96C272.972 95.3173 273.068 95.7653 273.068 96.304C273.068 97.0453 272.876 97.6293 272.492 98.056C272.114 98.4827 271.634 98.76 271.052 98.888C270.834 98.936 270.596 98.968 270.34 98.984C270.084 98.9947 269.831 99 269.58 99H266.284ZM267.452 97.992H269.532C269.714 97.992 269.916 97.9867 270.14 97.976C270.364 97.9653 270.562 97.936 270.732 97.888C271.015 97.808 271.271 97.648 271.5 97.408C271.735 97.1627 271.852 96.7947 271.852 96.304C271.852 95.8187 271.74 95.4533 271.516 95.208C271.292 94.9573 270.994 94.792 270.62 94.712C270.455 94.6747 270.276 94.6507 270.084 94.64C269.892 94.6293 269.708 94.624 269.532 94.624H267.452V97.992ZM280.738 97.712L279.994 96.976L283.042 93.96L279.994 90.944L280.738 90.208L284.498 93.96L280.738 97.712Z" fill="#9CA5AC"/>
<rect x="199" y="130" width="306" height="41" rx="5" fill="#F6F7F8"/>
<rect x="199" y="201" width="306" height="41" rx="5" fill="#F6F7F8"/>
<rect x="199" y="257" width="306" height="41" rx="5" fill="#F6F7F8"/>
<rect x="199" y="313" width="306" height="41" rx="5" fill="#F6F7F8"/>
<rect x="199" y="369" width="155" height="41" rx="5" fill="#F6F7F8"/>
<path d="M217.598 154.159V151.401H214.84V150.519H217.598V147.761H218.48V150.519H221.231V151.401H218.48V154.159H217.598ZM223.585 156L227.295 146.921H222.626V145.92H228.394V146.921L224.691 156H223.585Z" fill="#9CA5AC"/>
<path d="M35.98 156V145.92H43.701V156H42.672V146.907H37.009V156H35.98ZM48.8167 156.21C48.0654 156.21 47.4237 156.04 46.8917 155.699C46.3597 155.358 45.9514 154.887 45.6667 154.285C45.382 153.683 45.2397 152.992 45.2397 152.213C45.2397 151.42 45.3844 150.724 45.6737 150.127C45.963 149.53 46.3737 149.065 46.9057 148.734C47.4424 148.398 48.0794 148.23 48.8167 148.23C49.5727 148.23 50.2167 148.4 50.7487 148.741C51.2854 149.077 51.6937 149.546 51.9737 150.148C52.2584 150.745 52.4007 151.434 52.4007 152.213C52.4007 153.006 52.2584 153.704 51.9737 154.306C51.689 154.903 51.2784 155.37 50.7417 155.706C50.205 156.042 49.5634 156.21 48.8167 156.21ZM48.8167 155.223C49.6567 155.223 50.282 154.945 50.6927 154.39C51.1034 153.83 51.3087 153.104 51.3087 152.213C51.3087 151.298 51.101 150.57 50.6857 150.029C50.275 149.488 49.652 149.217 48.8167 149.217C48.252 149.217 47.7854 149.345 47.4167 149.602C47.0527 149.854 46.7797 150.206 46.5977 150.659C46.4204 151.107 46.3317 151.625 46.3317 152.213C46.3317 153.123 46.5417 153.853 46.9617 154.404C47.3817 154.95 48 155.223 48.8167 155.223ZM53.3848 157.68V155.118C53.8142 155.118 54.1222 154.98 54.3088 154.705C54.4955 154.425 54.6472 153.979 54.7638 153.368C54.8432 152.971 54.9085 152.544 54.9598 152.087C55.0112 151.63 55.0555 151.107 55.0928 150.519C55.1302 149.926 55.1652 149.233 55.1978 148.44H60.1958V155.118H60.9238V157.68H59.9298V156H54.3718V157.68H53.3848ZM55.1278 155.118H59.1738V149.322H56.1498C56.1358 149.677 56.1148 150.052 56.0868 150.449C56.0635 150.846 56.0332 151.242 55.9958 151.639C55.9632 152.036 55.9235 152.409 55.8768 152.759C55.8348 153.104 55.7835 153.408 55.7228 153.669C55.6528 154.005 55.5758 154.292 55.4918 154.53C55.4125 154.768 55.2912 154.964 55.1278 155.118ZM62.3187 156L62.3257 148.44H63.3617V152.08L66.7357 148.44H68.1077L64.5657 152.22L68.5697 156H67.0717L63.3617 152.36V156H62.3187ZM68.4343 156V155.097C68.7143 155.148 68.9266 155.137 69.0713 155.062C69.2206 154.983 69.3303 154.852 69.4003 154.67C69.4703 154.483 69.5286 154.252 69.5753 153.977C69.65 153.52 69.7176 153.016 69.7783 152.465C69.839 151.914 69.8926 151.308 69.9393 150.645C69.9906 149.978 70.042 149.243 70.0933 148.44H75.2313V156H74.2093V149.427H71.0453C71.0126 149.922 70.9753 150.414 70.9333 150.904C70.8913 151.394 70.847 151.865 70.8003 152.318C70.7583 152.766 70.7116 153.179 70.6603 153.557C70.609 153.935 70.5553 154.262 70.4993 154.537C70.4153 154.952 70.3033 155.284 70.1633 155.531C70.028 155.778 69.825 155.942 69.5543 156.021C69.2836 156.1 68.9103 156.093 68.4343 156ZM83.137 156.21C82.4697 156.21 81.8887 156.068 81.394 155.783C80.8994 155.494 80.505 155.09 80.211 154.572C79.9217 154.049 79.7467 153.436 79.686 152.731H78.209V156H77.18V148.44H78.209V151.709H79.679C79.7397 150.995 79.917 150.379 80.211 149.861C80.5097 149.338 80.9064 148.937 81.401 148.657C81.9004 148.372 82.4814 148.23 83.144 148.23C83.8954 148.23 84.537 148.4 85.069 148.741C85.6057 149.082 86.014 149.551 86.294 150.148C86.5787 150.745 86.721 151.431 86.721 152.206C86.721 152.999 86.5764 153.697 86.287 154.299C86.0024 154.901 85.5917 155.37 85.055 155.706C84.523 156.042 83.8837 156.21 83.137 156.21ZM83.116 155.223C83.9654 155.223 84.5954 154.948 85.006 154.397C85.4214 153.842 85.629 153.114 85.629 152.213C85.629 151.294 85.419 150.566 84.999 150.029C84.5837 149.488 83.9584 149.217 83.123 149.217C82.325 149.217 81.7137 149.483 81.289 150.015C80.8644 150.542 80.652 151.273 80.652 152.206C80.652 153.121 80.8597 153.853 81.275 154.404C81.695 154.95 82.3087 155.223 83.116 155.223ZM92.8883 156V153.186C92.6363 153.312 92.3259 153.422 91.9573 153.515C91.5886 153.608 91.1919 153.655 90.7673 153.655C90.0019 153.655 89.3813 153.485 88.9053 153.144C88.4293 152.803 88.1189 152.311 87.9743 151.667C87.9276 151.476 87.8949 151.273 87.8763 151.058C87.8623 150.843 87.8529 150.65 87.8483 150.477C87.8436 150.304 87.8413 150.181 87.8413 150.106V148.44H88.8773V150.106C88.8773 150.26 88.8819 150.435 88.8913 150.631C88.9006 150.827 88.9216 151.018 88.9543 151.205C89.0476 151.714 89.2576 152.099 89.5843 152.36C89.9156 152.621 90.3799 152.752 90.9772 152.752C91.3506 152.752 91.7029 152.705 92.0343 152.612C92.3703 152.514 92.6549 152.383 92.8883 152.22V148.44H93.9173V156H92.8883ZM98.0395 156.21C97.4702 156.21 96.9918 156.107 96.6045 155.902C96.2218 155.697 95.9348 155.424 95.7435 155.083C95.5522 154.742 95.4565 154.371 95.4565 153.97C95.4565 153.559 95.5382 153.209 95.7015 152.92C95.8695 152.626 96.0958 152.386 96.3805 152.199C96.6698 152.012 97.0035 151.87 97.3815 151.772C97.7642 151.679 98.1865 151.597 98.6485 151.527C99.1152 151.452 99.5702 151.389 100.013 151.338C100.461 151.282 100.853 151.228 101.189 151.177L100.825 151.401C100.839 150.654 100.695 150.101 100.391 149.742C100.088 149.383 99.5608 149.203 98.8095 149.203C98.2915 149.203 97.8528 149.32 97.4935 149.553C97.1388 149.786 96.8892 150.155 96.7445 150.659L95.7435 150.365C95.9162 149.688 96.2638 149.163 96.7865 148.79C97.3092 148.417 97.9882 148.23 98.8235 148.23C99.5142 148.23 100.1 148.361 100.58 148.622C101.066 148.879 101.409 149.252 101.609 149.742C101.703 149.961 101.763 150.206 101.791 150.477C101.819 150.748 101.833 151.023 101.833 151.303V156H100.916V154.103L101.182 154.215C100.926 154.864 100.527 155.358 99.9855 155.699C99.4442 156.04 98.7955 156.21 98.0395 156.21ZM98.1585 155.321C98.6392 155.321 99.0592 155.235 99.4185 155.062C99.7778 154.889 100.067 154.654 100.286 154.355C100.506 154.052 100.648 153.711 100.713 153.333C100.769 153.09 100.8 152.824 100.804 152.535C100.809 152.241 100.811 152.022 100.811 151.877L101.203 152.08C100.853 152.127 100.473 152.173 100.062 152.22C99.6565 152.267 99.2552 152.32 98.8585 152.381C98.4665 152.442 98.1118 152.514 97.7945 152.598C97.5798 152.659 97.3722 152.745 97.1715 152.857C96.9708 152.964 96.8052 153.109 96.6745 153.291C96.5485 153.473 96.4855 153.699 96.4855 153.97C96.4855 154.189 96.5392 154.402 96.6465 154.607C96.7585 154.812 96.9358 154.983 97.1785 155.118C97.4258 155.253 97.7525 155.321 98.1585 155.321ZM106.855 156.21C106.117 156.21 105.478 156.047 104.937 155.72C104.4 155.393 103.982 154.934 103.684 154.341C103.385 153.748 103.236 153.053 103.236 152.255C103.236 151.429 103.383 150.715 103.677 150.113C103.971 149.511 104.384 149.047 104.916 148.72C105.452 148.393 106.085 148.23 106.813 148.23C107.559 148.23 108.196 148.403 108.724 148.748C109.251 149.089 109.65 149.579 109.921 150.218C110.191 150.857 110.315 151.62 110.292 152.507H109.242V152.143C109.223 151.163 109.011 150.423 108.605 149.924C108.203 149.425 107.615 149.175 106.841 149.175C106.029 149.175 105.406 149.439 104.972 149.966C104.542 150.493 104.328 151.245 104.328 152.22C104.328 153.172 104.542 153.912 104.972 154.439C105.406 154.962 106.019 155.223 106.813 155.223C107.354 155.223 107.825 155.099 108.227 154.852C108.633 154.6 108.952 154.238 109.186 153.767L110.145 154.138C109.846 154.796 109.405 155.307 108.822 155.671C108.243 156.03 107.587 156.21 106.855 156.21ZM103.964 152.507V151.646H109.739V152.507H103.964ZM111.633 156V148.44H112.55L115.497 154.628L118.451 148.44H119.361V156H118.367V150.638L115.826 156H115.175L112.634 150.638V156H111.633ZM121.327 156L121.313 148.44H122.349V151.289H123.665C123.884 151.289 124.099 151.294 124.309 151.303C124.519 151.312 124.708 151.331 124.876 151.359C125.249 151.434 125.581 151.56 125.87 151.737C126.159 151.914 126.388 152.159 126.556 152.472C126.724 152.78 126.808 153.17 126.808 153.641C126.808 154.29 126.64 154.801 126.304 155.174C125.968 155.547 125.546 155.79 125.037 155.902C124.846 155.944 124.638 155.972 124.414 155.986C124.19 155.995 123.971 156 123.756 156H121.327ZM122.349 155.118H123.714C123.868 155.118 124.043 155.113 124.239 155.104C124.435 155.095 124.608 155.069 124.757 155.027C125.009 154.957 125.235 154.817 125.436 154.607C125.641 154.392 125.744 154.07 125.744 153.641C125.744 153.216 125.646 152.897 125.45 152.682C125.254 152.463 124.993 152.318 124.666 152.248C124.517 152.215 124.358 152.194 124.19 152.185C124.027 152.176 123.868 152.171 123.714 152.171H122.349V155.118ZM127.711 156V148.44H128.74V156H127.711ZM133.835 147.544C133.503 147.544 133.2 147.462 132.925 147.299C132.649 147.136 132.43 146.919 132.267 146.648C132.108 146.373 132.029 146.069 132.029 145.738H132.883C132.883 145.999 132.976 146.223 133.163 146.41C133.349 146.597 133.573 146.69 133.835 146.69C134.101 146.69 134.325 146.597 134.507 146.41C134.693 146.223 134.787 145.999 134.787 145.738H135.641C135.641 146.069 135.559 146.373 135.396 146.648C135.237 146.919 135.02 147.136 134.745 147.299C134.469 147.462 134.166 147.544 133.835 147.544ZM136.705 148.44V156H135.704V150.113L131.56 156H130.692V148.44H131.693V154.278L135.844 148.44H136.705ZM141.465 156V148.44H142.494V151.723H146.757V148.44H147.786V156H146.757V152.71H142.494V156H141.465ZM152.901 156.21C152.149 156.21 151.508 156.04 150.976 155.699C150.444 155.358 150.035 154.887 149.751 154.285C149.466 153.683 149.324 152.992 149.324 152.213C149.324 151.42 149.468 150.724 149.758 150.127C150.047 149.53 150.458 149.065 150.99 148.734C151.526 148.398 152.163 148.23 152.901 148.23C153.657 148.23 154.301 148.4 154.833 148.741C155.369 149.077 155.778 149.546 156.058 150.148C156.342 150.745 156.485 151.434 156.485 152.213C156.485 153.006 156.342 153.704 156.058 154.306C155.773 154.903 155.362 155.37 154.826 155.706C154.289 156.042 153.647 156.21 152.901 156.21ZM152.901 155.223C153.741 155.223 154.366 154.945 154.777 154.39C155.187 153.83 155.393 153.104 155.393 152.213C155.393 151.298 155.185 150.57 154.77 150.029C154.359 149.488 153.736 149.217 152.901 149.217C152.336 149.217 151.869 149.345 151.501 149.602C151.137 149.854 150.864 150.206 150.682 150.659C150.504 151.107 150.416 151.625 150.416 152.213C150.416 153.123 150.626 153.853 151.046 154.404C151.466 154.95 152.084 155.223 152.901 155.223ZM158.022 156V148.44H158.939L161.886 154.628L164.84 148.44H165.75V156H164.756V150.638L162.215 156H161.564L159.023 150.638V156H158.022ZM170.908 156.21C170.17 156.21 169.531 156.047 168.99 155.72C168.453 155.393 168.035 154.934 167.737 154.341C167.438 153.748 167.289 153.053 167.289 152.255C167.289 151.429 167.436 150.715 167.73 150.113C168.024 149.511 168.437 149.047 168.969 148.72C169.505 148.393 170.138 148.23 170.866 148.23C171.612 148.23 172.249 148.403 172.777 148.748C173.304 149.089 173.703 149.579 173.974 150.218C174.244 150.857 174.368 151.62 174.345 152.507H173.295V152.143C173.276 151.163 173.064 150.423 172.658 149.924C172.256 149.425 171.668 149.175 170.894 149.175C170.082 149.175 169.459 149.439 169.025 149.966C168.595 150.493 168.381 151.245 168.381 152.22C168.381 153.172 168.595 153.912 169.025 154.439C169.459 154.962 170.072 155.223 170.866 155.223C171.407 155.223 171.878 155.099 172.28 154.852C172.686 154.6 173.005 154.238 173.239 153.767L174.198 154.138C173.899 154.796 173.458 155.307 172.875 155.671C172.296 156.03 171.64 156.21 170.908 156.21ZM168.017 152.507V151.646H173.792V152.507H168.017ZM179.293 156.21C178.598 156.21 178.01 156.035 177.529 155.685C177.048 155.33 176.684 154.852 176.437 154.25C176.19 153.643 176.066 152.964 176.066 152.213C176.066 151.448 176.19 150.766 176.437 150.169C176.689 149.567 177.058 149.093 177.543 148.748C178.028 148.403 178.626 148.23 179.335 148.23C180.026 148.23 180.618 148.405 181.113 148.755C181.608 149.105 181.986 149.581 182.247 150.183C182.513 150.785 182.646 151.462 182.646 152.213C182.646 152.969 182.513 153.648 182.247 154.25C181.981 154.852 181.598 155.33 181.099 155.685C180.6 156.035 179.998 156.21 179.293 156.21ZM175.891 159.36V148.44H176.815V154.131H176.927V159.36H175.891ZM179.188 155.251C179.715 155.251 180.154 155.118 180.504 154.852C180.854 154.586 181.115 154.224 181.288 153.767C181.465 153.305 181.554 152.787 181.554 152.213C181.554 151.644 181.468 151.13 181.295 150.673C181.122 150.216 180.859 149.854 180.504 149.588C180.154 149.322 179.708 149.189 179.167 149.189C178.64 149.189 178.201 149.317 177.851 149.574C177.506 149.831 177.247 150.188 177.074 150.645C176.901 151.098 176.815 151.62 176.815 152.213C176.815 152.796 176.901 153.319 177.074 153.781C177.247 154.238 177.508 154.598 177.858 154.859C178.208 155.12 178.651 155.251 179.188 155.251Z" fill="#5E6B77"/>
<path d="M35.28 227V226.083C35.5367 226.106 35.749 226.097 35.917 226.055C36.085 226.008 36.2203 225.906 36.323 225.747C36.4303 225.588 36.5237 225.353 36.603 225.04C36.6823 224.723 36.7617 224.31 36.841 223.801C36.9297 223.25 37.0043 222.702 37.065 222.156C37.1303 221.61 37.1863 221.057 37.233 220.497C37.2843 219.932 37.3263 219.354 37.359 218.761C37.3917 218.168 37.422 217.555 37.45 216.92H43.813V227H42.784V217.907H38.444C38.4113 218.388 38.3787 218.88 38.346 219.384C38.318 219.888 38.2807 220.404 38.234 220.931C38.192 221.458 38.1383 222.002 38.073 222.562C38.0123 223.117 37.9353 223.691 37.842 224.284C37.7673 224.732 37.6787 225.147 37.576 225.53C37.478 225.913 37.338 226.235 37.156 226.496C36.9787 226.757 36.7383 226.937 36.435 227.035C36.1363 227.133 35.7513 227.121 35.28 227ZM48.9261 227.21C48.1747 227.21 47.5331 227.04 47.0011 226.699C46.4691 226.358 46.0607 225.887 45.7761 225.285C45.4914 224.683 45.3491 223.992 45.3491 223.213C45.3491 222.42 45.4937 221.724 45.7831 221.127C46.0724 220.53 46.4831 220.065 47.0151 219.734C47.5517 219.398 48.1887 219.23 48.9261 219.23C49.6821 219.23 50.3261 219.4 50.8581 219.741C51.3947 220.077 51.8031 220.546 52.0831 221.148C52.3677 221.745 52.5101 222.434 52.5101 223.213C52.5101 224.006 52.3677 224.704 52.0831 225.306C51.7984 225.903 51.3877 226.37 50.8511 226.706C50.3144 227.042 49.6727 227.21 48.9261 227.21ZM48.9261 226.223C49.7661 226.223 50.3914 225.945 50.8021 225.39C51.2127 224.83 51.4181 224.104 51.4181 223.213C51.4181 222.298 51.2104 221.57 50.7951 221.029C50.3844 220.488 49.7614 220.217 48.9261 220.217C48.3614 220.217 47.8947 220.345 47.5261 220.602C47.1621 220.854 46.8891 221.206 46.7071 221.659C46.5297 222.107 46.4411 222.625 46.4411 223.213C46.4411 224.123 46.6511 224.853 47.0711 225.404C47.4911 225.95 48.1094 226.223 48.9261 226.223ZM54.0542 227V219.44H59.2342V220.427H55.0832V227H54.0542ZM66.568 219.44V227H65.567V221.113L61.423 227H60.555V219.44H61.556V225.278L65.707 219.44H66.568ZM68.5257 227V219.44H69.5547V222.723H73.8177V219.44H74.8467V227H73.8177V223.71H69.5547V227H68.5257Z" fill="#5E6B77"/>
<path d="M35.98 283V272.92H43.701V283H42.672V273.907H37.009V283H35.98ZM47.8227 283.21C47.2534 283.21 46.775 283.107 46.3877 282.902C46.005 282.697 45.718 282.424 45.5267 282.083C45.3354 281.742 45.2397 281.371 45.2397 280.97C45.2397 280.559 45.3214 280.209 45.4847 279.92C45.6527 279.626 45.879 279.386 46.1637 279.199C46.453 279.012 46.7867 278.87 47.1647 278.772C47.5474 278.679 47.9697 278.597 48.4317 278.527C48.8984 278.452 49.3534 278.389 49.7967 278.338C50.2447 278.282 50.6367 278.228 50.9727 278.177L50.6087 278.401C50.6227 277.654 50.478 277.101 50.1747 276.742C49.8714 276.383 49.344 276.203 48.5927 276.203C48.0747 276.203 47.636 276.32 47.2767 276.553C46.922 276.786 46.6724 277.155 46.5277 277.659L45.5267 277.365C45.6994 276.688 46.047 276.163 46.5697 275.79C47.0924 275.417 47.7714 275.23 48.6067 275.23C49.2974 275.23 49.883 275.361 50.3637 275.622C50.849 275.879 51.192 276.252 51.3927 276.742C51.486 276.961 51.5467 277.206 51.5747 277.477C51.6027 277.748 51.6167 278.023 51.6167 278.303V283H50.6997V281.103L50.9657 281.215C50.709 281.864 50.31 282.358 49.7687 282.699C49.2274 283.04 48.5787 283.21 47.8227 283.21ZM47.9417 282.321C48.4224 282.321 48.8424 282.235 49.2017 282.062C49.561 281.889 49.8504 281.654 50.0697 281.355C50.289 281.052 50.4314 280.711 50.4967 280.333C50.5527 280.09 50.583 279.824 50.5877 279.535C50.5924 279.241 50.5947 279.022 50.5947 278.877L50.9867 279.08C50.6367 279.127 50.2564 279.173 49.8457 279.22C49.4397 279.267 49.0384 279.32 48.6417 279.381C48.2497 279.442 47.895 279.514 47.5777 279.598C47.363 279.659 47.1554 279.745 46.9547 279.857C46.754 279.964 46.5884 280.109 46.4577 280.291C46.3317 280.473 46.2687 280.699 46.2687 280.97C46.2687 281.189 46.3224 281.402 46.4297 281.607C46.5417 281.812 46.719 281.983 46.9617 282.118C47.209 282.253 47.5357 282.321 47.9417 282.321ZM56.834 283.21C56.1387 283.21 55.5507 283.035 55.07 282.685C54.5893 282.33 54.2253 281.852 53.978 281.25C53.7307 280.643 53.607 279.964 53.607 279.213C53.607 278.448 53.7307 277.766 53.978 277.169C54.23 276.567 54.5987 276.093 55.084 275.748C55.5693 275.403 56.1667 275.23 56.876 275.23C57.5667 275.23 58.1593 275.405 58.654 275.755C59.1487 276.105 59.5267 276.581 59.788 277.183C60.054 277.785 60.187 278.462 60.187 279.213C60.187 279.969 60.054 280.648 59.788 281.25C59.522 281.852 59.1393 282.33 58.64 282.685C58.1407 283.035 57.5387 283.21 56.834 283.21ZM53.432 286.36V275.44H54.356V281.131H54.468V286.36H53.432ZM56.729 282.251C57.2563 282.251 57.695 282.118 58.045 281.852C58.395 281.586 58.6563 281.224 58.829 280.767C59.0063 280.305 59.095 279.787 59.095 279.213C59.095 278.644 59.0087 278.13 58.836 277.673C58.6633 277.216 58.3997 276.854 58.045 276.588C57.695 276.322 57.2493 276.189 56.708 276.189C56.1807 276.189 55.742 276.317 55.392 276.574C55.0467 276.831 54.7877 277.188 54.615 277.645C54.4423 278.098 54.356 278.62 54.356 279.213C54.356 279.796 54.4423 280.319 54.615 280.781C54.7877 281.238 55.049 281.598 55.399 281.859C55.749 282.12 56.1923 282.251 56.729 282.251ZM64.8811 283.21C64.1298 283.21 63.4881 283.04 62.9561 282.699C62.4241 282.358 62.0158 281.887 61.7311 281.285C61.4465 280.683 61.3041 279.992 61.3041 279.213C61.3041 278.42 61.4488 277.724 61.7381 277.127C62.0275 276.53 62.4381 276.065 62.9701 275.734C63.5068 275.398 64.1438 275.23 64.8811 275.23C65.6371 275.23 66.2811 275.4 66.8131 275.741C67.3498 276.077 67.7581 276.546 68.0381 277.148C68.3228 277.745 68.4651 278.434 68.4651 279.213C68.4651 280.006 68.3228 280.704 68.0381 281.306C67.7535 281.903 67.3428 282.37 66.8061 282.706C66.2695 283.042 65.6278 283.21 64.8811 283.21ZM64.8811 282.223C65.7211 282.223 66.3465 281.945 66.7571 281.39C67.1678 280.83 67.3731 280.104 67.3731 279.213C67.3731 278.298 67.1655 277.57 66.7501 277.029C66.3395 276.488 65.7165 276.217 64.8811 276.217C64.3165 276.217 63.8498 276.345 63.4811 276.602C63.1171 276.854 62.8441 277.206 62.6621 277.659C62.4848 278.107 62.3961 278.625 62.3961 279.213C62.3961 280.123 62.6061 280.853 63.0261 281.404C63.4461 281.95 64.0645 282.223 64.8811 282.223ZM69.3093 283V282.097C69.5893 282.148 69.8016 282.137 69.9463 282.062C70.0956 281.983 70.2053 281.852 70.2753 281.67C70.3453 281.483 70.4036 281.252 70.4503 280.977C70.525 280.52 70.5926 280.016 70.6533 279.465C70.714 278.914 70.7676 278.308 70.8143 277.645C70.8656 276.978 70.917 276.243 70.9683 275.44H76.1063V283H75.0843V276.427H71.9203C71.8876 276.922 71.8503 277.414 71.8083 277.904C71.7663 278.394 71.722 278.865 71.6753 279.318C71.6333 279.766 71.5866 280.179 71.5353 280.557C71.484 280.935 71.4303 281.262 71.3743 281.537C71.2903 281.952 71.1783 282.284 71.0383 282.531C70.903 282.778 70.7 282.942 70.4293 283.021C70.1586 283.1 69.7853 283.093 69.3093 283ZM78.069 283L78.055 275.44H79.091V278.289H80.862C81.0814 278.289 81.296 278.294 81.506 278.303C81.7207 278.312 81.9097 278.331 82.073 278.359C82.4464 278.429 82.7777 278.553 83.067 278.73C83.361 278.907 83.5897 279.152 83.753 279.465C83.921 279.778 84.005 280.17 84.005 280.641C84.005 281.29 83.837 281.801 83.501 282.174C83.1697 282.547 82.7497 282.79 82.241 282.902C82.0497 282.944 81.842 282.972 81.618 282.986C81.394 282.995 81.1724 283 80.953 283H78.069ZM79.091 282.118H80.911C81.0697 282.118 81.247 282.113 81.443 282.104C81.639 282.095 81.8117 282.069 81.961 282.027C82.2084 281.957 82.4324 281.817 82.633 281.607C82.8384 281.392 82.941 281.07 82.941 280.641C82.941 280.216 82.843 279.897 82.647 279.682C82.451 279.463 82.1897 279.318 81.863 279.248C81.7184 279.215 81.562 279.194 81.394 279.185C81.226 279.176 81.065 279.171 80.911 279.171H79.091V282.118Z" fill="#5E6B77"/>
<path d="M40.061 339.21C39.0577 339.21 38.2107 338.988 37.52 338.545C36.8293 338.097 36.3067 337.479 35.952 336.69C35.5973 335.901 35.42 334.991 35.42 333.96C35.42 332.929 35.5973 332.019 35.952 331.23C36.3067 330.441 36.8293 329.825 37.52 329.382C38.2107 328.934 39.0577 328.71 40.061 328.71C41.2323 328.71 42.189 329.011 42.931 329.613C43.673 330.21 44.1817 331.013 44.457 332.021L43.407 332.294C43.1923 331.496 42.8073 330.864 42.252 330.397C41.6967 329.93 40.9663 329.697 40.061 329.697C39.2723 329.697 38.6167 329.877 38.094 330.236C37.5713 330.595 37.177 331.097 36.911 331.741C36.6497 332.38 36.5143 333.12 36.505 333.96C36.5003 334.8 36.6287 335.54 36.89 336.179C37.156 336.818 37.5527 337.32 38.08 337.684C38.612 338.043 39.2723 338.223 40.061 338.223C40.9663 338.223 41.6967 337.99 42.252 337.523C42.8073 337.052 43.1923 336.419 43.407 335.626L44.457 335.899C44.1817 336.907 43.673 337.712 42.931 338.314C42.189 338.911 41.2323 339.21 40.061 339.21ZM49.2005 339.21C48.4632 339.21 47.8238 339.047 47.2825 338.72C46.7458 338.393 46.3282 337.934 46.0295 337.341C45.7308 336.748 45.5815 336.053 45.5815 335.255C45.5815 334.429 45.7285 333.715 46.0225 333.113C46.3165 332.511 46.7295 332.047 47.2615 331.72C47.7982 331.393 48.4305 331.23 49.1585 331.23C49.9052 331.23 50.5422 331.403 51.0695 331.748C51.5968 332.089 51.9958 332.579 52.2665 333.218C52.5372 333.857 52.6608 334.62 52.6375 335.507H51.5875V335.143C51.5688 334.163 51.3565 333.423 50.9505 332.924C50.5492 332.425 49.9612 332.175 49.1865 332.175C48.3745 332.175 47.7515 332.439 47.3175 332.966C46.8882 333.493 46.6735 334.245 46.6735 335.22C46.6735 336.172 46.8882 336.912 47.3175 337.439C47.7515 337.962 48.3652 338.223 49.1585 338.223C49.6998 338.223 50.1712 338.099 50.5725 337.852C50.9785 337.6 51.2982 337.238 51.5315 336.767L52.4905 337.138C52.1918 337.796 51.7508 338.307 51.1675 338.671C50.5888 339.03 49.9332 339.21 49.2005 339.21ZM46.3095 335.507V334.646H52.0845V335.507H46.3095ZM57.5859 339.21C56.8906 339.21 56.3026 339.035 55.8219 338.685C55.3413 338.33 54.9773 337.852 54.7299 337.25C54.4826 336.643 54.3589 335.964 54.3589 335.213C54.3589 334.448 54.4826 333.766 54.7299 333.169C54.9819 332.567 55.3506 332.093 55.8359 331.748C56.3213 331.403 56.9186 331.23 57.6279 331.23C58.3186 331.23 58.9113 331.405 59.4059 331.755C59.9006 332.105 60.2786 332.581 60.5399 333.183C60.8059 333.785 60.9389 334.462 60.9389 335.213C60.9389 335.969 60.8059 336.648 60.5399 337.25C60.2739 337.852 59.8913 338.33 59.3919 338.685C58.8926 339.035 58.2906 339.21 57.5859 339.21ZM54.1839 342.36V331.44H55.1079V337.131H55.2199V342.36H54.1839ZM57.4809 338.251C58.0083 338.251 58.4469 338.118 58.7969 337.852C59.1469 337.586 59.4083 337.224 59.5809 336.767C59.7583 336.305 59.8469 335.787 59.8469 335.213C59.8469 334.644 59.7606 334.13 59.5879 333.673C59.4153 333.216 59.1516 332.854 58.7969 332.588C58.4469 332.322 58.0013 332.189 57.4599 332.189C56.9326 332.189 56.4939 332.317 56.1439 332.574C55.7986 332.831 55.5396 333.188 55.3669 333.645C55.1943 334.098 55.1079 334.62 55.1079 335.213C55.1079 335.796 55.1943 336.319 55.3669 336.781C55.5396 337.238 55.8009 337.598 56.1509 337.859C56.5009 338.12 56.9443 338.251 57.4809 338.251ZM62.4691 339V331.44H65.5841C65.7428 331.44 65.9341 331.449 66.1581 331.468C66.3868 331.487 66.5991 331.522 66.7951 331.573C67.2198 331.685 67.5604 331.914 67.8171 332.259C68.0784 332.604 68.2091 333.02 68.2091 333.505C68.2091 333.776 68.1671 334.018 68.0831 334.233C68.0038 334.443 67.8894 334.625 67.7401 334.779C67.6701 334.858 67.5931 334.928 67.5091 334.989C67.4251 335.045 67.3434 335.092 67.2641 335.129C67.4134 335.157 67.5744 335.222 67.7471 335.325C68.0178 335.484 68.2231 335.698 68.3631 335.969C68.5031 336.235 68.5731 336.559 68.5731 336.942C68.5731 337.46 68.4494 337.882 68.2021 338.209C67.9548 338.536 67.6234 338.76 67.2081 338.881C67.0214 338.932 66.8184 338.965 66.5991 338.979C66.3844 338.993 66.1814 339 65.9901 339H62.4691ZM63.5051 338.125H65.9411C66.0391 338.125 66.1628 338.118 66.3121 338.104C66.4614 338.085 66.5944 338.062 66.7111 338.034C66.9864 337.964 67.1871 337.824 67.3131 337.614C67.4438 337.399 67.5091 337.166 67.5091 336.914C67.5091 336.583 67.4111 336.312 67.2151 336.102C67.0238 335.887 66.7671 335.757 66.4451 335.71C66.3378 335.687 66.2258 335.673 66.1091 335.668C65.9924 335.663 65.8874 335.661 65.7941 335.661H63.5051V338.125ZM63.5051 334.779H65.6191C65.7404 334.779 65.8758 334.772 66.0251 334.758C66.1791 334.739 66.3121 334.709 66.4241 334.667C66.6668 334.583 66.8441 334.438 66.9561 334.233C67.0728 334.028 67.1311 333.804 67.1311 333.561C67.1311 333.295 67.0681 333.062 66.9421 332.861C66.8208 332.66 66.6364 332.52 66.3891 332.441C66.2211 332.38 66.0391 332.345 65.8431 332.336C65.6518 332.327 65.5304 332.322 65.4791 332.322H63.5051V334.779ZM73.1673 339.21C72.4299 339.21 71.7906 339.047 71.2493 338.72C70.7126 338.393 70.2949 337.934 69.9963 337.341C69.6976 336.748 69.5483 336.053 69.5483 335.255C69.5483 334.429 69.6953 333.715 69.9893 333.113C70.2833 332.511 70.6963 332.047 71.2283 331.72C71.7649 331.393 72.3973 331.23 73.1253 331.23C73.8719 331.23 74.5089 331.403 75.0363 331.748C75.5636 332.089 75.9626 332.579 76.2333 333.218C76.5039 333.857 76.6276 334.62 76.6043 335.507H75.5543V335.143C75.5356 334.163 75.3233 333.423 74.9173 332.924C74.5159 332.425 73.9279 332.175 73.1533 332.175C72.3413 332.175 71.7183 332.439 71.2843 332.966C70.8549 333.493 70.6403 334.245 70.6403 335.22C70.6403 336.172 70.8549 336.912 71.2843 337.439C71.7183 337.962 72.3319 338.223 73.1253 338.223C73.6666 338.223 74.1379 338.099 74.5393 337.852C74.9453 337.6 75.2649 337.238 75.4983 336.767L76.4573 337.138C76.1586 337.796 75.7176 338.307 75.1343 338.671C74.5556 339.03 73.8999 339.21 73.1673 339.21ZM70.2763 335.507V334.646H76.0513V335.507H70.2763ZM81.5527 339.21C80.8574 339.21 80.2694 339.035 79.7887 338.685C79.3081 338.33 78.9441 337.852 78.6967 337.25C78.4494 336.643 78.3257 335.964 78.3257 335.213C78.3257 334.448 78.4494 333.766 78.6967 333.169C78.9487 332.567 79.3174 332.093 79.8027 331.748C80.2881 331.403 80.8854 331.23 81.5947 331.23C82.2854 331.23 82.8781 331.405 83.3727 331.755C83.8674 332.105 84.2454 332.581 84.5067 333.183C84.7727 333.785 84.9057 334.462 84.9057 335.213C84.9057 335.969 84.7727 336.648 84.5067 337.25C84.2407 337.852 83.8581 338.33 83.3587 338.685C82.8594 339.035 82.2574 339.21 81.5527 339.21ZM78.1507 342.36V331.44H79.0747V337.131H79.1867V342.36H78.1507ZM81.4477 338.251C81.9751 338.251 82.4137 338.118 82.7637 337.852C83.1137 337.586 83.3751 337.224 83.5477 336.767C83.7251 336.305 83.8137 335.787 83.8137 335.213C83.8137 334.644 83.7274 334.13 83.5547 333.673C83.3821 333.216 83.1184 332.854 82.7637 332.588C82.4137 332.322 81.9681 332.189 81.4267 332.189C80.8994 332.189 80.4607 332.317 80.1107 332.574C79.7654 332.831 79.5064 333.188 79.3337 333.645C79.1611 334.098 79.0747 334.62 79.0747 335.213C79.0747 335.796 79.1611 336.319 79.3337 336.781C79.5064 337.238 79.7677 337.598 80.1177 337.859C80.4677 338.12 80.9111 338.251 81.4477 338.251Z" fill="#5E6B77"/>
<path d="M35.98 395V384.92H43.701V395H42.672V385.907H37.009V395H35.98ZM48.8167 395.21C48.0654 395.21 47.4237 395.04 46.8917 394.699C46.3597 394.358 45.9514 393.887 45.6667 393.285C45.382 392.683 45.2397 391.992 45.2397 391.213C45.2397 390.42 45.3844 389.724 45.6737 389.127C45.963 388.53 46.3737 388.065 46.9057 387.734C47.4424 387.398 48.0794 387.23 48.8167 387.23C49.5727 387.23 50.2167 387.4 50.7487 387.741C51.2854 388.077 51.6937 388.546 51.9737 389.148C52.2584 389.745 52.4007 390.434 52.4007 391.213C52.4007 392.006 52.2584 392.704 51.9737 393.306C51.689 393.903 51.2784 394.37 50.7417 394.706C50.205 395.042 49.5634 395.21 48.8167 395.21ZM48.8167 394.223C49.6567 394.223 50.282 393.945 50.6927 393.39C51.1034 392.83 51.3087 392.104 51.3087 391.213C51.3087 390.298 51.101 389.57 50.6857 389.029C50.275 388.488 49.652 388.217 48.8167 388.217C48.252 388.217 47.7854 388.345 47.4167 388.602C47.0527 388.854 46.7797 389.206 46.5977 389.659C46.4204 390.107 46.3317 390.625 46.3317 391.213C46.3317 392.123 46.5417 392.853 46.9617 393.404C47.3817 393.95 48 394.223 48.8167 394.223ZM57.3398 395.21C56.6445 395.21 56.0565 395.035 55.5758 394.685C55.0952 394.33 54.7312 393.852 54.4838 393.25C54.2365 392.643 54.1128 391.964 54.1128 391.213C54.1128 390.448 54.2365 389.766 54.4838 389.169C54.7358 388.567 55.1045 388.093 55.5898 387.748C56.0752 387.403 56.6725 387.23 57.3818 387.23C58.0725 387.23 58.6652 387.405 59.1598 387.755C59.6545 388.105 60.0325 388.581 60.2938 389.183C60.5598 389.785 60.6928 390.462 60.6928 391.213C60.6928 391.969 60.5598 392.648 60.2938 393.25C60.0278 393.852 59.6452 394.33 59.1458 394.685C58.6465 395.035 58.0445 395.21 57.3398 395.21ZM53.9378 398.36V387.44H54.8618V393.131H54.9738V398.36H53.9378ZM57.2348 394.251C57.7622 394.251 58.2008 394.118 58.5508 393.852C58.9008 393.586 59.1622 393.224 59.3348 392.767C59.5122 392.305 59.6008 391.787 59.6008 391.213C59.6008 390.644 59.5145 390.13 59.3418 389.673C59.1692 389.216 58.9055 388.854 58.5508 388.588C58.2008 388.322 57.7552 388.189 57.2138 388.189C56.6865 388.189 56.2478 388.317 55.8978 388.574C55.5525 388.831 55.2935 389.188 55.1208 389.645C54.9482 390.098 54.8618 390.62 54.8618 391.213C54.8618 391.796 54.9482 392.319 55.1208 392.781C55.2935 393.238 55.5548 393.598 55.9048 393.859C56.2548 394.12 56.6982 394.251 57.2348 394.251ZM64.281 395V388.392H61.6V387.44H67.991V388.392H65.31V395H64.281Z" fill="#5E6B77"/>
<rect x="35" y="459" width="176" height="41" rx="5" fill="#9CA5AC"/>
<path d="M92.584 487.92V484.872C93.032 484.872 93.392 484.76 93.664 484.536C93.936 484.307 94.144 484.003 94.288 483.624C94.432 483.245 94.5413 482.821 94.616 482.352C94.6907 481.877 94.7547 481.397 94.808 480.912C94.8827 480.203 94.9413 479.517 94.984 478.856C95.032 478.195 95.072 477.509 95.104 476.8C95.1413 476.091 95.184 475.315 95.232 474.472L102.336 474.48V484.872H103.16V487.92H101.992V486H93.76V487.92H92.584ZM94.832 484.872H101.16V475.608L96.328 475.6C96.296 476.251 96.264 476.88 96.232 477.488C96.2 478.096 96.1627 478.709 96.12 479.328C96.0773 479.947 96.0213 480.592 95.952 481.264C95.8933 481.877 95.824 482.413 95.744 482.872C95.664 483.331 95.552 483.723 95.408 484.048C95.2693 484.373 95.0773 484.648 94.832 484.872ZM107.389 486.24C106.738 486.24 106.192 486.123 105.749 485.888C105.312 485.653 104.984 485.341 104.765 484.952C104.546 484.563 104.437 484.139 104.437 483.68C104.437 483.211 104.53 482.811 104.717 482.48C104.909 482.144 105.168 481.869 105.493 481.656C105.824 481.443 106.205 481.28 106.637 481.168C107.074 481.061 107.557 480.968 108.085 480.888C108.618 480.803 109.138 480.731 109.645 480.672C110.157 480.608 110.605 480.547 110.989 480.488L110.573 480.744C110.589 479.891 110.424 479.259 110.077 478.848C109.73 478.437 109.128 478.232 108.269 478.232C107.677 478.232 107.176 478.365 106.765 478.632C106.36 478.899 106.074 479.32 105.909 479.896L104.765 479.56C104.962 478.787 105.36 478.187 105.957 477.76C106.554 477.333 107.33 477.12 108.285 477.12C109.074 477.12 109.744 477.269 110.293 477.568C110.848 477.861 111.24 478.288 111.469 478.848C111.576 479.099 111.645 479.379 111.677 479.688C111.709 479.997 111.725 480.312 111.725 480.632V486H110.677V483.832L110.981 483.96C110.688 484.701 110.232 485.267 109.613 485.656C108.994 486.045 108.253 486.24 107.389 486.24ZM107.525 485.224C108.074 485.224 108.554 485.125 108.965 484.928C109.376 484.731 109.706 484.461 109.957 484.12C110.208 483.773 110.37 483.384 110.445 482.952C110.509 482.675 110.544 482.371 110.549 482.04C110.554 481.704 110.557 481.453 110.557 481.288L111.005 481.52C110.605 481.573 110.17 481.627 109.701 481.68C109.237 481.733 108.778 481.795 108.325 481.864C107.877 481.933 107.472 482.016 107.109 482.112C106.864 482.181 106.626 482.28 106.397 482.408C106.168 482.531 105.978 482.696 105.829 482.904C105.685 483.112 105.613 483.371 105.613 483.68C105.613 483.931 105.674 484.173 105.797 484.408C105.925 484.643 106.128 484.837 106.405 484.992C106.688 485.147 107.061 485.224 107.525 485.224ZM113.008 486V484.968C113.328 485.027 113.57 485.013 113.736 484.928C113.906 484.837 114.032 484.688 114.112 484.48C114.192 484.267 114.258 484.003 114.312 483.688C114.397 483.165 114.474 482.589 114.544 481.96C114.613 481.331 114.674 480.637 114.728 479.88C114.786 479.117 114.845 478.277 114.904 477.36H120.776V486H119.608V478.488H115.992C115.954 479.053 115.912 479.616 115.864 480.176C115.816 480.736 115.765 481.275 115.712 481.792C115.664 482.304 115.61 482.776 115.552 483.208C115.493 483.64 115.432 484.013 115.368 484.328C115.272 484.803 115.144 485.181 114.984 485.464C114.829 485.747 114.597 485.933 114.288 486.024C113.978 486.115 113.552 486.107 113.008 486ZM126.667 486.24C125.824 486.24 125.093 486.053 124.475 485.68C123.861 485.307 123.384 484.781 123.043 484.104C122.701 483.427 122.531 482.632 122.531 481.72C122.531 480.776 122.699 479.96 123.035 479.272C123.371 478.584 123.843 478.053 124.451 477.68C125.064 477.307 125.787 477.12 126.619 477.12C127.472 477.12 128.2 477.317 128.803 477.712C129.405 478.101 129.861 478.661 130.171 479.392C130.48 480.123 130.621 480.995 130.595 482.008H129.395V481.592C129.373 480.472 129.131 479.627 128.667 479.056C128.208 478.485 127.536 478.2 126.651 478.2C125.723 478.2 125.011 478.501 124.515 479.104C124.024 479.707 123.779 480.565 123.779 481.68C123.779 482.768 124.024 483.613 124.515 484.216C125.011 484.813 125.712 485.112 126.619 485.112C127.237 485.112 127.776 484.971 128.235 484.688C128.699 484.4 129.064 483.987 129.331 483.448L130.427 483.872C130.085 484.624 129.581 485.208 128.915 485.624C128.253 486.035 127.504 486.24 126.667 486.24ZM123.363 482.008V481.024H129.963V482.008H123.363ZM136.026 486.24C135.183 486.24 134.453 486.053 133.834 485.68C133.221 485.307 132.743 484.781 132.402 484.104C132.061 483.427 131.89 482.632 131.89 481.72C131.89 480.776 132.058 479.96 132.394 479.272C132.73 478.584 133.202 478.053 133.81 477.68C134.423 477.307 135.146 477.12 135.978 477.12C136.831 477.12 137.559 477.317 138.162 477.712C138.765 478.101 139.221 478.661 139.53 479.392C139.839 480.123 139.981 480.995 139.954 482.008H138.754V481.592C138.733 480.472 138.49 479.627 138.026 479.056C137.567 478.485 136.895 478.2 136.01 478.2C135.082 478.2 134.37 478.501 133.874 479.104C133.383 479.707 133.138 480.565 133.138 481.68C133.138 482.768 133.383 483.613 133.874 484.216C134.37 484.813 135.071 485.112 135.978 485.112C136.597 485.112 137.135 484.971 137.594 484.688C138.058 484.4 138.423 483.987 138.69 483.448L139.786 483.872C139.445 484.624 138.941 485.208 138.274 485.624C137.613 486.035 136.863 486.24 136.026 486.24ZM132.722 482.008V481.024H139.322V482.008H132.722ZM147.645 484.712L146.901 483.976L149.949 480.96L146.901 477.944L147.645 477.208L151.405 480.96L147.645 484.712Z" fill="white"/>
<path d="M247.784 486.24C246.637 486.24 245.669 485.987 244.88 485.48C244.091 484.968 243.493 484.261 243.088 483.36C242.683 482.459 242.48 481.419 242.48 480.24C242.48 479.061 242.683 478.021 243.088 477.12C243.493 476.219 244.091 475.515 244.88 475.008C245.669 474.496 246.637 474.24 247.784 474.24C248.936 474.24 249.904 474.496 250.688 475.008C251.477 475.515 252.075 476.219 252.48 477.12C252.891 478.021 253.096 479.061 253.096 480.24C253.096 481.419 252.891 482.459 252.48 483.36C252.075 484.261 251.477 484.968 250.688 485.48C249.904 485.987 248.936 486.24 247.784 486.24ZM247.784 485.112C248.685 485.112 249.437 484.907 250.04 484.496C250.643 484.085 251.093 483.515 251.392 482.784C251.696 482.048 251.848 481.2 251.848 480.24C251.848 479.28 251.696 478.435 251.392 477.704C251.093 476.973 250.643 476.403 250.04 475.992C249.437 475.581 248.685 475.373 247.784 475.368C246.883 475.368 246.133 475.573 245.536 475.984C244.939 476.395 244.488 476.968 244.184 477.704C243.885 478.435 243.733 479.28 243.728 480.24C243.723 481.2 243.869 482.045 244.168 482.776C244.472 483.501 244.925 484.072 245.528 484.488C246.131 484.899 246.883 485.107 247.784 485.112ZM257.042 486V478.448H253.978V477.36H261.282V478.448H258.218V486H257.042ZM262.8 486V477.36H263.848L267.216 484.432L270.592 477.36H271.632V486H270.496V479.872L267.592 486H266.848L263.944 479.872V486H262.8ZM277.526 486.24C276.683 486.24 275.953 486.053 275.334 485.68C274.721 485.307 274.243 484.781 273.902 484.104C273.561 483.427 273.39 482.632 273.39 481.72C273.39 480.776 273.558 479.96 273.894 479.272C274.23 478.584 274.702 478.053 275.31 477.68C275.923 477.307 276.646 477.12 277.478 477.12C278.331 477.12 279.059 477.317 279.662 477.712C280.265 478.101 280.721 478.661 281.03 479.392C281.339 480.123 281.481 480.995 281.454 482.008H280.254V481.592C280.233 480.472 279.99 479.627 279.526 479.056C279.067 478.485 278.395 478.2 277.51 478.2C276.582 478.2 275.87 478.501 275.374 479.104C274.883 479.707 274.638 480.565 274.638 481.68C274.638 482.768 274.883 483.613 275.374 484.216C275.87 484.813 276.571 485.112 277.478 485.112C278.097 485.112 278.635 484.971 279.094 484.688C279.558 484.4 279.923 483.987 280.19 483.448L281.286 483.872C280.945 484.624 280.441 485.208 279.774 485.624C279.113 486.035 278.363 486.24 277.526 486.24ZM274.222 482.008V481.024H280.822V482.008H274.222ZM283.221 486V477.36H284.397V481.112H289.269V477.36H290.445V486H289.269V482.24H284.397V486H283.221ZM299.547 477.36V486H298.403V479.272L293.667 486H292.675V477.36H293.819V484.032L298.563 477.36H299.547ZM304.136 486V478.448H301.072V477.36H308.376V478.448H305.312V486H304.136ZM309.909 486L309.893 477.36H311.077V480.616H313.101C313.352 480.616 313.597 480.621 313.837 480.632C314.083 480.643 314.299 480.664 314.485 480.696C314.912 480.776 315.291 480.917 315.621 481.12C315.957 481.323 316.219 481.603 316.405 481.96C316.597 482.317 316.693 482.765 316.693 483.304C316.693 484.045 316.501 484.629 316.117 485.056C315.739 485.483 315.259 485.76 314.677 485.888C314.459 485.936 314.221 485.968 313.965 485.984C313.709 485.995 313.456 486 313.205 486H309.909ZM311.077 484.992H313.157C313.339 484.992 313.541 484.987 313.765 484.976C313.989 484.965 314.187 484.936 314.357 484.888C314.64 484.808 314.896 484.648 315.125 484.408C315.36 484.163 315.477 483.795 315.477 483.304C315.477 482.819 315.365 482.453 315.141 482.208C314.917 481.957 314.619 481.792 314.245 481.712C314.08 481.675 313.901 481.651 313.709 481.64C313.517 481.629 313.333 481.624 313.157 481.624H311.077V484.992Z" fill="#9CA5AC"/>
</svg>
