<svg width="144" height="30" viewBox="0 0 144 30" fill="none" xmlns="http://www.w3.org/2000/svg">
<path fill-rule="evenodd" clip-rule="evenodd" d="M6.99149 1.46618H0L10.6353 17.4362L10.0431 28.8949H16.511L17.1714 17.3686L17.1567 17.3449L28.9912 1.35322H22.0225L14.1287 12.4569L14.097 12.4058L6.99149 1.46618ZM106.39 8.07542H99.7955L98.6556 28.6821H105.283L106.104 14.1207C113.847 10.3762 113.574 15.8351 113.574 15.8351L112.954 28.6824H119.495L120.406 15.1585C120.406 15.1585 121.135 8.16584 115.122 7.57936C109.11 6.99289 106.286 10.4216 106.286 10.4216L106.39 8.07542ZM88.1937 0H94.9139L94.627 5.0977H87.9152L88.1937 0ZM94.4608 8.0526L93.297 28.7369H86.6243L87.7542 8.0526H94.4608ZM124.302 0.541973H130.067L129.344 15.1391L137.805 6.99261H144L135.101 15.6999L141.814 28.5566H135.847L131.239 18.8236L129.045 21.1781L128.68 28.5566H122.955L124.302 0.541973ZM76.1999 0H82.9201L81.3033 28.7369H74.6306L76.1999 0ZM67.2972 7.84979L67.121 10.3902C65.7818 8.58116 63.2258 6.69509 58.5063 7.3988C50.0345 8.66189 47.1194 17.7297 48.8958 22.9629C50.6722 28.1961 55.637 30.1358 59.3263 29.8651C62.9015 29.6026 64.6802 28.705 65.9889 26.7202L65.8397 28.8724H70.7587L72.3528 7.87061L67.2972 7.84979ZM60.0811 12.3159C63.5017 12.3159 66.1066 15.1339 65.8981 18.6091C65.6896 22.0843 62.7466 24.9023 59.3263 24.9023C55.906 24.9023 53.3007 22.0843 53.5092 18.6091C53.7175 15.1339 56.6605 12.3159 60.0811 12.3159ZM34.5168 6.22558C41.1443 6.22558 46.5186 11.5486 46.5186 18.1128C46.5186 18.9397 46.4331 19.747 46.2707 20.5263H41.4314L41.4467 20.4812H27.6872C28.624 23.3588 31.3502 25.4414 34.5669 25.4414C36.4187 25.4414 38.1076 24.7511 39.3863 23.6164H45.1561C43.151 27.4102 39.1389 30 34.5168 30C27.8893 30 22.515 24.6769 22.515 18.1128C22.515 11.5486 27.8893 6.22558 34.5168 6.22558ZM27.489 16.8272H41.6448C40.9657 13.5722 38.0543 11.1245 34.5669 11.1245C31.0795 11.1245 28.1681 13.5722 27.489 16.8272Z" fill="#015A39"/>
</svg>
