<svg width="546" height="339" viewBox="0 0 546 339" fill="none" xmlns="http://www.w3.org/2000/svg">
<path d="M472.223 332.208C472.223 332.208 441.706 267.169 448.337 265.295C454.968 263.421 468.871 273.776 468.871 273.776C468.871 273.776 428.075 164.433 438.637 155.952C449.2 147.471 468.92 190.875 468.92 190.875C468.92 190.875 447.856 123.901 450.334 98.4208C452.811 72.9404 479.569 97.484 479.569 97.484C479.569 97.484 458.135 6.05258 478.04 1.33123C497.945 -3.39012 497.28 105.953 497.28 105.953C497.28 105.953 503.812 27.7116 511.786 49.3953C519.761 71.0789 502.999 143.65 502.999 143.65C502.999 143.65 513.931 119.143 520.007 141.764C526.083 164.384 507.929 255.815 507.929 255.815C507.929 255.815 523.36 240.739 524.802 259.588C526.244 278.436 492.855 336.88 492.855 336.88L473.961 338.803L472.223 332.208Z" fill="#F6F7F8"/>
<path opacity="0.6" d="M472.223 332.208C472.223 332.208 441.706 267.169 448.337 265.295C454.968 263.421 468.871 273.776 468.871 273.776C468.871 273.776 428.075 164.433 438.637 155.952C449.2 147.471 468.92 190.875 468.92 190.875C468.92 190.875 447.856 123.901 450.334 98.4208C452.811 72.9404 479.569 97.484 479.569 97.484C479.569 97.484 458.135 6.05258 478.04 1.33123C497.945 -3.39012 497.28 105.953 497.28 105.953C497.28 105.953 503.812 27.7116 511.786 49.3953C519.761 71.0789 502.999 143.65 502.999 143.65C502.999 143.65 513.931 119.143 520.007 141.764C526.083 164.384 507.929 255.815 507.929 255.815C507.929 255.815 523.36 240.739 524.802 259.588C526.244 278.436 492.855 336.88 492.855 336.88L473.961 338.803L472.223 332.208Z" fill="#F6F7F8"/>
<path d="M478.744 335.104C478.744 335.104 453.305 289.863 458.013 281.37C462.721 272.876 476.858 292.686 476.858 292.686C476.858 292.686 444.813 212.559 449.533 205.027C454.254 197.495 469.327 230.483 469.327 230.483C469.327 230.483 463.67 120.203 473.086 123.963C482.503 127.723 483.415 180.459 483.415 180.459C483.415 180.459 477.77 55.1028 486.25 58.875C494.729 62.6471 493.793 202.143 493.793 202.143C493.793 202.143 510.752 148.408 513.574 172.915C516.397 197.421 491.907 263.409 491.907 263.409C491.907 263.409 515.46 211.561 518.332 238.952C521.203 266.343 499.437 317.131 499.437 317.131C499.437 317.131 507.917 296.397 507.917 307.701C507.917 319.005 501.323 333.157 501.323 333.157" stroke="#55626F" stroke-linecap="round" stroke-linejoin="round"/>
<path d="M408.747 194.87L443.073 269.795L421.479 275.897L396.016 244.191L408.747 194.87Z" fill="#57A8F3"/>
<path d="M408.747 194.87L443.073 269.795L421.479 275.897L396.016 244.191L408.747 194.87Z" stroke="#55626F" stroke-linecap="round" stroke-linejoin="round"/>
<path d="M340.469 174.012L295.766 194.599L319.615 291.343L312.022 332.035H396.831L388.425 287.817L409.021 194.87L362.148 175.627L340.469 174.012Z" fill="#57A8F3"/>
<path d="M340.469 174.012L295.766 194.599L319.615 291.343L312.022 332.035H396.831L388.425 287.817L409.021 194.87L362.148 175.627L340.469 174.012Z" stroke="#55626F" stroke-linecap="round" stroke-linejoin="round"/>
<path d="M295.763 194.598L260.551 270.867L283.032 275.626L308.495 243.92L295.763 194.598Z" fill="#57A8F3"/>
<path d="M295.763 194.598L260.551 270.867L283.032 275.626L308.495 243.92L295.763 194.598Z" stroke="#55626F" stroke-linecap="round" stroke-linejoin="round"/>
<path d="M284.66 264.235L329.092 314.913L320.465 324.663L264.472 280.063C264.472 280.063 256.794 276.365 261.403 268.845" fill="#57A8F3"/>
<path d="M284.66 264.235L329.092 314.913L320.465 324.663L264.472 280.063C264.472 280.063 256.794 276.365 261.403 268.845" stroke="#55626F" stroke-linecap="round" stroke-linejoin="round"/>
<path d="M321.954 313.002C323.187 312.312 344.62 307.183 344.916 309.809C345.212 312.435 351.596 315.332 354.505 315.332C357.413 315.332 360.322 313.002 360.901 316.491C361.481 319.979 358.289 320.275 355.676 320.559C353.063 320.842 344.041 317.945 344.041 317.945C344.041 317.945 335.61 324.922 332.122 326.661C328.634 328.399 322.262 327.893 319.921 326.081C317.579 324.269 314.411 317.07 321.954 313.002Z" fill="#F6F7F8" stroke="#55626F" stroke-linecap="round" stroke-linejoin="round"/>
<path d="M341.738 309.513C341.738 309.513 349.873 307.183 351.598 308.059C353.324 308.934 354.224 326.377 354.224 326.377C354.224 326.377 353.348 328.115 351.598 326.377C349.848 324.639 344.043 311.584 344.043 311.584" fill="#F6F7F8"/>
<path d="M341.738 309.513C341.738 309.513 349.873 307.183 351.598 308.059C353.324 308.934 354.224 326.377 354.224 326.377C354.224 326.377 353.348 328.115 351.598 326.377C349.848 324.639 344.043 311.584 344.043 311.584" stroke="#55626F" stroke-linecap="round" stroke-linejoin="round"/>
<path d="M337.659 310.093C337.659 310.093 346.089 308.059 347.839 311.251C349.589 314.444 353.94 328.694 350.452 329.286C346.964 329.878 345.805 325.206 345.805 325.206L340.284 315.036L336.5 314.456" fill="#F6F7F8"/>
<path d="M337.659 310.093C337.659 310.093 346.089 308.059 347.839 311.251C349.589 314.444 353.94 328.694 350.452 329.286C346.964 329.878 345.805 325.206 345.805 325.206L340.284 315.036L336.5 314.456" stroke="#55626F" stroke-linecap="round" stroke-linejoin="round"/>
<path d="M334.762 312.706C334.762 312.706 338.829 310.968 340.863 312.422C342.896 313.877 352.202 328.694 350.451 329.286C348.701 329.878 344.634 329.57 344.055 328.411C343.476 327.252 335.92 317.316 335.92 317.316" fill="#F6F7F8"/>
<path d="M334.762 312.706C334.762 312.706 338.829 310.968 340.863 312.422C342.896 313.877 352.202 328.694 350.451 329.286C348.701 329.878 344.634 329.57 344.055 328.411C343.476 327.252 335.92 317.316 335.92 317.316" stroke="#55626F" stroke-linecap="round" stroke-linejoin="round"/>
<path d="M331.816 317.649C331.816 317.649 335.588 314.161 337.621 315.332C339.655 316.503 348.085 327.536 346.348 328.694C344.61 329.853 343.439 328.694 341.701 326.377C340.455 324.814 338.984 323.443 337.338 322.309L333.85 323.468" fill="#F6F7F8"/>
<path d="M331.816 317.649C331.816 317.649 335.588 314.161 337.621 315.332C339.655 316.503 348.085 327.536 346.348 328.694C344.61 329.853 343.439 328.694 341.701 326.377C340.455 324.814 338.984 323.443 337.338 322.309L333.85 323.468" stroke="#55626F" stroke-linecap="round" stroke-linejoin="round"/>
<path d="M417.696 265.862L402.906 316.195L413.604 323.665L437.774 284.809C437.774 284.809 447.708 273.592 441.471 267.28" fill="#57A8F3"/>
<path d="M417.696 265.862L402.906 316.195L413.604 323.665L437.774 284.809C437.774 284.809 447.708 273.592 441.471 267.28" stroke="#55626F" stroke-linecap="round" stroke-linejoin="round"/>
<path d="M410.352 313.002C409.119 312.312 387.674 307.183 387.39 309.809C387.107 312.435 380.698 315.332 377.801 315.332C374.905 315.332 371.984 313.002 371.405 316.491C370.826 319.979 374.018 320.275 376.631 320.559C379.244 320.842 388.265 317.945 388.265 317.945C388.265 317.945 396.696 324.922 400.184 326.661C403.672 328.399 410.044 327.893 412.386 326.081C414.727 324.269 417.907 317.07 410.352 313.002Z" fill="#F6F7F8" stroke="#55626F" stroke-linecap="round" stroke-linejoin="round"/>
<path d="M390.582 309.513C390.582 309.513 382.448 307.183 380.722 308.059C378.997 308.934 378.109 326.377 378.109 326.377C378.109 326.377 378.984 328.115 380.722 326.377C382.46 324.639 388.29 311.584 388.29 311.584" fill="#F6F7F8"/>
<path d="M390.582 309.513C390.582 309.513 382.448 307.183 380.722 308.059C378.997 308.934 378.109 326.377 378.109 326.377C378.109 326.377 378.984 328.115 380.722 326.377C382.46 324.639 388.29 311.584 388.29 311.584" stroke="#55626F" stroke-linecap="round" stroke-linejoin="round"/>
<path d="M394.675 310.093C394.675 310.093 386.257 308.059 384.507 311.251C382.757 314.444 378.344 328.694 381.894 329.286C385.444 329.878 386.54 325.206 386.54 325.206L392.062 315.036L395.846 314.456" fill="#F6F7F8"/>
<path d="M394.675 310.093C394.675 310.093 386.257 308.059 384.507 311.251C382.757 314.444 378.344 328.694 381.894 329.286C385.444 329.878 386.54 325.206 386.54 325.206L392.062 315.036L395.846 314.456" stroke="#55626F" stroke-linecap="round" stroke-linejoin="round"/>
<path d="M397.556 312.706C397.556 312.706 393.489 310.968 391.455 312.422C389.422 313.877 380.116 328.694 381.866 329.286C383.617 329.878 387.671 329.57 388.263 328.411C388.855 327.252 396.398 317.316 396.398 317.316" fill="#F6F7F8"/>
<path d="M397.556 312.706C397.556 312.706 393.489 310.968 391.455 312.422C389.422 313.877 380.116 328.694 381.866 329.286C383.617 329.878 387.671 329.57 388.263 328.411C388.855 327.252 396.398 317.316 396.398 317.316" stroke="#55626F" stroke-linecap="round" stroke-linejoin="round"/>
<path d="M400.466 317.649C400.466 317.649 396.695 314.148 394.674 315.381C392.652 316.614 384.21 327.585 385.96 328.744C387.71 329.903 388.869 328.744 390.606 326.426C391.853 324.863 393.323 323.493 394.969 322.358L398.457 323.517" fill="#F6F7F8"/>
<path d="M400.466 317.649C400.466 317.649 396.695 314.148 394.674 315.381C392.652 316.614 384.21 327.585 385.96 328.744C387.71 329.903 388.869 328.744 390.606 326.426C391.853 324.863 393.323 323.493 394.969 322.358L398.457 323.517" stroke="#55626F" stroke-linecap="round" stroke-linejoin="round"/>
<path d="M343.722 168.847C343.722 168.847 336.685 171.016 333.702 175.356C330.72 179.695 334.245 213.287 334.245 213.287L356.738 200.824L380.303 215.727C380.303 215.727 378.134 181.322 376.236 176.44C374.338 171.559 362.42 165.876 358.352 166.418C354.285 166.961 343.722 168.847 343.722 168.847Z" fill="#57A8F3" stroke="#55626F" stroke-linecap="round" stroke-linejoin="round"/>
<path d="M340.469 150.159V181.322L355.37 221.423L368.114 180.508V149.887L340.469 150.159Z" fill="#F6F7F8" stroke="#55626F" stroke-linecap="round" stroke-linejoin="round"/>
<path d="M354.839 158.825C348.183 158.825 341.799 156.181 337.091 151.474C332.383 146.768 329.737 140.384 329.733 133.726L325.309 98.4211C325.309 90.5746 328.425 83.0494 333.972 77.5011C339.52 71.9527 347.044 68.8357 354.889 68.8357C362.734 68.8357 370.258 71.9527 375.805 77.5011C381.352 83.0494 384.469 90.5746 384.469 98.4211L379.884 133.677C379.89 136.973 379.248 140.238 377.993 143.286C376.738 146.333 374.895 149.104 372.569 151.439C370.243 153.774 367.481 155.628 364.439 156.895C361.397 158.163 358.135 158.818 354.839 158.825Z" fill="#F6F7F8" stroke="#55626F" stroke-linecap="round" stroke-linejoin="round"/>
<path d="M361.285 124.062C361.285 124.062 367.682 118.7 375.323 124.481" stroke="#55626F" stroke-linecap="round" stroke-linejoin="round"/>
<path d="M349.725 123.445C347.825 122.235 345.563 121.725 343.328 122.003" stroke="#55626F" stroke-linecap="round" stroke-linejoin="round"/>
<path d="M363.762 111.266C363.762 111.266 370.577 107.962 374.706 114.36" stroke="#55626F" stroke-linecap="round" stroke-linejoin="round"/>
<path d="M352.77 138.312C352.77 138.312 355.666 140.58 358.143 138.312" stroke="#55626F" stroke-linecap="round" stroke-linejoin="round"/>
<path d="M349.934 143.268C349.934 143.268 355.924 146.966 359.424 143.268" stroke="#55626F" stroke-linecap="round" stroke-linejoin="round"/>
<path d="M367.46 94.7229C367.46 94.7229 342.711 117.578 335.809 134.232C328.907 150.886 335.094 168.28 338.903 173.285C342.711 178.289 345.065 178.992 345.065 178.992C345.065 178.992 331.976 183.997 323.41 170.905C314.844 157.814 316.976 143.046 319.602 132.814C322.227 122.583 321.5 92.5779 327.453 82.5805C333.406 72.5831 341.972 65.1991 356.256 66.8632C370.541 68.5274 378.146 75.9115 382.669 85.1939C387.192 94.4764 385.048 110.194 386.477 117.097C387.907 124 394.094 144.71 395.524 157.087C396.954 169.463 380.081 178.277 377.419 179.473C375.609 180.234 373.674 180.652 371.712 180.706C371.712 180.706 377.419 152.143 378.614 135.711C379.81 119.279 379.884 109.516 379.884 109.516C379.884 109.516 368.655 95.4379 367.46 94.7229Z" fill="#FCA14D"/>
<path d="M322.867 110.674H319.219C317.204 110.674 315.57 112.308 315.57 114.323V128.931C315.57 130.946 317.204 132.58 319.219 132.58H322.867C324.882 132.58 326.515 130.946 326.515 128.931V114.323C326.515 112.308 324.882 110.674 322.867 110.674Z" fill="#F6F7F8" stroke="#55626F" stroke-linecap="round" stroke-linejoin="round"/>
<path d="M389.757 110.674H386.109C384.094 110.674 382.461 112.308 382.461 114.323V128.931C382.461 130.946 384.094 132.58 386.109 132.58H389.757C391.772 132.58 393.406 130.946 393.406 128.931V114.323C393.406 112.308 391.772 110.674 389.757 110.674Z" fill="#F6F7F8" stroke="#55626F" stroke-linecap="round" stroke-linejoin="round"/>
<path d="M388.88 110.674V98.7662C388.88 89.5498 385.219 80.7108 378.704 74.1938C372.188 67.6768 363.35 64.0156 354.136 64.0156C344.92 64.0156 336.081 67.6764 329.563 74.1931C323.045 80.7097 319.382 89.5486 319.379 98.7662V110.674" stroke="#55626F" stroke-width="2" stroke-linejoin="round"/>
<path d="M387.934 132.469C387.934 132.469 386.393 144.389 371.812 149.246" stroke="#55626F" stroke-linecap="round" stroke-linejoin="round"/>
<path d="M371.255 148.729C371.871 150.516 370.134 152.735 367.361 153.66C364.587 154.584 361.864 153.955 361.198 152.168C360.532 150.38 362.32 148.162 365.08 147.237C367.841 146.312 370.676 146.941 371.255 148.729Z" stroke="#55626F" stroke-linecap="round" stroke-linejoin="round"/>
<path d="M121.799 164.113L70.8594 188.385L85.5632 332.319H187.085L201.443 185.994L153.585 163.768L121.799 164.113Z" fill="#FCA14D" stroke="#55626F" stroke-linecap="round" stroke-linejoin="round"/>
<path d="M142.206 208.035C143.159 208.035 143.931 207.262 143.931 206.309C143.931 205.356 143.159 204.583 142.206 204.583C141.253 204.583 140.48 205.356 140.48 206.309C140.48 207.262 141.253 208.035 142.206 208.035Z" fill="#55626F"/>
<path d="M143.931 216.652C143.931 216.993 143.83 217.327 143.641 217.61C143.451 217.894 143.182 218.115 142.866 218.246C142.551 218.377 142.204 218.411 141.869 218.344C141.535 218.278 141.227 218.113 140.986 217.872C140.745 217.631 140.58 217.323 140.514 216.988C140.447 216.654 140.481 216.306 140.612 215.991C140.742 215.676 140.964 215.406 141.247 215.217C141.531 215.027 141.865 214.926 142.206 214.926C142.664 214.926 143.103 215.108 143.426 215.431C143.75 215.755 143.931 216.194 143.931 216.652Z" fill="#55626F"/>
<path d="M159.868 171.46L145.941 186.98L140.013 202.044L133.616 186.746L120.145 171.46V144.291H159.868V171.46Z" fill="#F6F7F8" stroke="#55626F" stroke-linecap="round" stroke-linejoin="round"/>
<path d="M144.525 68.2561H138.929C125.03 68.2561 113.762 79.5261 113.762 93.4284V133.726C113.762 147.629 125.03 158.899 138.929 158.899H144.525C158.425 158.899 169.693 147.629 169.693 133.726V93.4284C169.693 79.5261 158.425 68.2561 144.525 68.2561Z" fill="#F6F7F8" stroke="#55626F" stroke-linecap="round" stroke-linejoin="round"/>
<path d="M147.089 108.431L146.263 128.241C146.247 129.099 145.968 129.932 145.463 130.626C144.958 131.321 144.252 131.844 143.441 132.124C141.949 132.58 140.249 132.124 139.324 128.758" stroke="#55626F" stroke-linecap="round" stroke-linejoin="round"/>
<path d="M130.918 136.056H153.103C153.103 136.056 149.221 144.512 141.69 144.512C134.159 144.512 130.918 136.056 130.918 136.056Z" fill="#55626F" stroke="#55626F" stroke-linecap="round" stroke-linejoin="round"/>
<path d="M132.496 139.027H151.18C151.891 138.098 152.51 137.103 153.029 136.056H130.918C131.339 137.098 131.868 138.094 132.496 139.027Z" fill="#F6F7F8" stroke="#55626F" stroke-linecap="round" stroke-linejoin="round"/>
<path d="M130.645 117.343C131.53 117.343 132.247 115.654 132.247 113.571C132.247 111.488 131.53 109.799 130.645 109.799C129.76 109.799 129.043 111.488 129.043 113.571C129.043 115.654 129.76 117.343 130.645 117.343Z" fill="#55626F"/>
<path d="M154.618 117.343C155.503 117.343 156.22 115.654 156.22 113.571C156.22 111.488 155.503 109.799 154.618 109.799C153.733 109.799 153.016 111.488 153.016 113.571C153.016 115.654 153.733 117.343 154.618 117.343Z" fill="#55626F"/>
<path d="M149.602 103.635C149.602 103.635 155.074 100.208 161.249 105.694" stroke="#55626F" stroke-linecap="round" stroke-linejoin="round"/>
<path d="M141.727 68.2437C134.31 68.2437 127.197 71.1905 121.953 76.436C116.708 81.6815 113.762 88.796 113.762 96.2142V121.695H113.996H116.276V111.192C116.276 111.192 127.689 111.192 141.16 103.894C154.632 96.5964 158.033 84.6882 158.033 84.6882C158.033 84.6882 161.004 99.0742 164.196 101.811L167.4 104.547V121.904H169.68V96.2142C169.68 88.7981 166.736 81.6855 161.494 76.4404C156.252 71.1952 149.142 68.2469 141.727 68.2437Z" fill="#55626F" stroke="#55626F" stroke-linecap="round" stroke-linejoin="round"/>
<path d="M108.461 108.209H113.761V128.98H108.461C107.145 128.954 105.891 128.413 104.969 127.473C104.047 126.532 103.531 125.268 103.531 123.951V113.238C103.531 111.921 104.047 110.657 104.969 109.716C105.891 108.776 107.145 108.235 108.461 108.209Z" fill="#F6F7F8" stroke="#55626F" stroke-linecap="round" stroke-linejoin="round"/>
<path d="M174.585 128.98H169.347V108.209H174.585C175.245 108.209 175.899 108.339 176.509 108.592C177.119 108.844 177.673 109.215 178.14 109.682C178.607 110.149 178.978 110.703 179.23 111.314C179.483 111.924 179.613 112.578 179.613 113.238V123.975C179.607 125.305 179.074 126.578 178.132 127.516C177.189 128.454 175.914 128.98 174.585 128.98Z" fill="#F6F7F8" stroke="#55626F" stroke-linecap="round" stroke-linejoin="round"/>
<path d="M109.203 108.209V94.9569C109.203 86.3584 112.618 78.112 118.697 72.0319C124.776 65.9519 133.021 62.5361 141.618 62.5361C150.214 62.5394 158.457 65.9562 164.535 72.0356C170.613 78.1149 174.03 86.3594 174.033 94.9569V108.209" stroke="#55626F" stroke-width="2" stroke-linejoin="round"/>
<path d="M174.054 128.98C174.054 128.98 172.452 141.307 157.391 146.337" stroke="#55626F" stroke-linecap="round" stroke-linejoin="round"/>
<path d="M156.799 145.795C157.44 147.644 155.64 149.937 152.781 150.935C149.922 151.934 147.087 151.231 146.446 149.382C145.805 147.533 147.605 145.24 150.464 144.241C153.323 143.243 156.195 143.945 156.799 145.795Z" stroke="#55626F" stroke-linecap="round" stroke-linejoin="round"/>
<path d="M70.8719 187.99L30.1992 274.281L47.4171 290.344L79.5485 249.996L70.8719 187.99Z" fill="#FCA14D" stroke="#55626F" stroke-linecap="round" stroke-linejoin="round"/>
<path d="M201.442 185.994L242.46 277.61L217.156 288.557L194.602 252.315L201.442 185.994Z" fill="#FCA14D" stroke="#55626F" stroke-linecap="round" stroke-linejoin="round"/>
<path d="M51.0394 277.277L87.9529 311.806L77.6985 323.763L24.0352 290.48L32.6627 268.734" fill="#FCA14D"/>
<path d="M51.0394 277.277L87.9529 311.806L77.6985 323.763L24.0352 290.48L32.6627 268.734" stroke="#55626F" stroke-linecap="round" stroke-linejoin="round"/>
<path d="M81.801 309.747C83.3046 308.934 108.46 302.906 108.805 305.987C109.15 309.069 116.669 312.484 120.083 312.484C123.497 312.484 126.923 309.747 127.601 313.852C128.279 317.957 124.532 318.29 121.438 318.635C118.345 318.98 107.77 315.553 107.77 315.553C107.77 315.553 97.9098 323.763 93.7563 325.822C89.6027 327.881 82.1337 327.178 79.3976 325.132C76.6614 323.085 72.9146 314.53 81.801 309.747Z" fill="#F6F7F8" stroke="#55626F" stroke-linecap="round" stroke-linejoin="round"/>
<path d="M105.035 305.642C105.035 305.642 114.612 302.906 116.658 303.941C118.704 304.977 119.739 325.477 119.739 325.477C119.739 325.477 118.704 327.523 116.658 325.477C114.612 323.43 107.784 307.984 107.784 307.984" fill="#F6F7F8"/>
<path d="M105.035 305.642C105.035 305.642 114.612 302.906 116.658 303.941C118.704 304.977 119.739 325.477 119.739 325.477C119.739 325.477 118.704 327.523 116.658 325.477C114.612 323.43 107.784 307.984 107.784 307.984" stroke="#55626F" stroke-linecap="round" stroke-linejoin="round"/>
<path d="M100.267 306.333C100.267 306.333 110.127 303.941 112.222 307.701C114.317 311.461 119.407 328.214 115.303 328.892C111.199 329.57 109.831 324.109 109.831 324.109L103.335 312.139L98.8984 311.461" fill="#F6F7F8"/>
<path d="M100.267 306.333C100.267 306.333 110.127 303.941 112.222 307.701C114.317 311.461 119.407 328.214 115.303 328.892C111.199 329.57 109.831 324.109 109.831 324.109L103.335 312.139L98.8984 311.461" stroke="#55626F" stroke-linecap="round" stroke-linejoin="round"/>
<path d="M96.8398 309.402C96.8398 309.402 101.634 307.356 104.025 309.069C106.416 310.783 117.361 328.213 115.303 328.941C113.244 329.668 108.462 329.286 107.784 327.918C107.107 326.549 98.2079 314.925 98.2079 314.925" fill="#F6F7F8"/>
<path d="M96.8398 309.402C96.8398 309.402 101.634 307.356 104.025 309.069C106.416 310.783 117.361 328.213 115.303 328.941C113.244 329.668 108.462 329.286 107.784 327.918C107.107 326.549 98.2079 314.925 98.2079 314.925" stroke="#55626F" stroke-linecap="round" stroke-linejoin="round"/>
<path d="M93.4258 315.22C93.4258 315.22 97.8751 311.116 100.266 312.484C102.657 313.852 112.591 326.845 110.521 328.213C108.45 329.582 107.094 328.213 105.048 325.477C103.584 323.635 101.856 322.019 99.9211 320.681L95.8168 322.05" fill="#F6F7F8"/>
<path d="M93.4258 315.22C93.4258 315.22 97.8751 311.116 100.266 312.484C102.657 313.852 112.591 326.845 110.521 328.213C108.45 329.582 107.094 328.213 105.048 325.477C103.584 323.635 101.856 322.019 99.9211 320.681L95.8168 322.05" stroke="#55626F" stroke-linecap="round" stroke-linejoin="round"/>
<path d="M210.968 268.537L189.312 314.222L203.252 321.581L244.184 278.214L232.438 265.209" fill="#57A8F3"/>
<path d="M210.968 268.537L189.312 314.222L203.252 321.581L244.184 278.214L232.438 265.209" stroke="#55626F" stroke-linecap="round" stroke-linejoin="round"/>
<path d="M200.16 309.747C198.657 308.934 173.489 302.906 173.156 305.987C172.824 309.069 165.293 312.484 161.867 312.484C158.44 312.484 155.038 309.747 154.348 313.852C153.658 317.957 157.43 318.29 160.511 318.635C163.592 318.98 174.179 315.553 174.179 315.553C174.179 315.553 184.039 323.763 188.193 325.822C192.346 327.881 199.815 327.178 202.552 325.132C205.288 323.085 209.047 314.53 200.16 309.747Z" fill="#F6F7F8" stroke="#55626F" stroke-linecap="round" stroke-linejoin="round"/>
<path d="M176.915 305.642C176.915 305.642 167.338 302.906 165.292 303.941C163.246 304.977 162.211 325.477 162.211 325.477C162.211 325.477 163.234 327.523 165.292 325.477C167.35 323.43 174.179 307.984 174.179 307.984" fill="#F6F7F8"/>
<path d="M176.915 305.642C176.915 305.642 167.338 302.906 165.292 303.941C163.246 304.977 162.211 325.477 162.211 325.477C162.211 325.477 163.234 327.523 165.292 325.477C167.35 323.43 174.179 307.984 174.179 307.984" stroke="#55626F" stroke-linecap="round" stroke-linejoin="round"/>
<path d="M181.696 306.333C181.696 306.333 171.836 303.941 169.728 307.701C167.621 311.461 162.555 328.214 166.659 328.941C170.764 329.668 172.119 324.158 172.119 324.158L178.615 312.188L183.064 311.51" fill="#F6F7F8"/>
<path d="M181.696 306.333C181.696 306.333 171.836 303.941 169.728 307.701C167.621 311.461 162.555 328.214 166.659 328.941C170.764 329.668 172.119 324.158 172.119 324.158L178.615 312.188L183.064 311.51" stroke="#55626F" stroke-linecap="round" stroke-linejoin="round"/>
<path d="M185.149 309.402C185.149 309.402 180.367 307.356 177.976 309.069C175.585 310.783 164.603 328.213 166.662 328.941C168.72 329.668 173.49 329.286 174.18 327.918C174.87 326.549 183.744 314.925 183.744 314.925" fill="#F6F7F8"/>
<path d="M185.149 309.402C185.149 309.402 180.367 307.356 177.976 309.069C175.585 310.783 164.603 328.213 166.662 328.941C168.72 329.668 173.49 329.286 174.18 327.918C174.87 326.549 183.744 314.925 183.744 314.925" stroke="#55626F" stroke-linecap="round" stroke-linejoin="round"/>
<path d="M188.537 315.22C188.537 315.22 184.088 311.116 181.697 312.484C179.305 313.852 169.371 326.845 171.442 328.213C173.513 329.582 174.856 328.213 176.914 325.477C178.379 323.635 180.106 322.019 182.042 320.681L186.146 322.05" fill="#F6F7F8"/>
<path d="M188.537 315.22C188.537 315.22 184.088 311.116 181.697 312.484C179.305 313.852 169.371 326.845 171.442 328.213C173.513 329.582 174.856 328.213 176.914 325.477C178.379 323.635 180.106 322.019 182.042 320.681L186.146 322.05" stroke="#55626F" stroke-linecap="round" stroke-linejoin="round"/>
<path d="M264.842 16.0872H184.729C181.014 16.0872 177.452 17.5622 174.824 20.188C172.196 22.8139 170.718 26.3758 170.715 30.0909V53.5128C170.705 55.3575 171.06 57.1861 171.758 58.8935C172.456 60.601 173.485 62.1537 174.785 63.4628C176.084 64.7718 177.629 65.8113 179.332 66.5218C181.034 67.2322 182.86 67.5996 184.704 67.6028H194.564L181.117 85.1938L211.351 67.6028H264.842C266.682 67.598 268.503 67.2306 270.201 66.5218C271.9 65.8129 273.442 64.7764 274.74 63.4715C276.038 62.1665 277.066 60.6187 277.766 58.9163C278.465 57.2139 278.823 55.3904 278.818 53.5497V30.1279C278.825 26.4127 277.356 22.847 274.735 20.2141C272.115 17.5813 268.556 16.097 264.842 16.0872Z" fill="white" stroke="#55626F" stroke-miterlimit="10"/>
<path d="M428.505 328.608H279.199V334.636H428.505V328.608Z" fill="#F6F7F8" stroke="#55626F" stroke-linecap="round" stroke-linejoin="round"/>
<path d="M451.429 328.608H321.289V334.636H451.429V328.608Z" fill="#F6F7F8" stroke="#55626F" stroke-linecap="round" stroke-linejoin="round"/>
<path d="M453.957 317.896H329.449L342.871 222.828H467.379L453.957 317.896Z" fill="#F6F7F8" stroke="#55626F" stroke-linecap="round" stroke-linejoin="round"/>
<path d="M459.109 317.896H334.602L348.024 222.828H472.531L459.109 317.896Z" fill="#55626F" stroke="#55626F" stroke-linecap="round" stroke-linejoin="round"/>
<path d="M420.963 273.703L433.46 334.624H401.329L388.844 273.703H420.963ZM399.172 291.787C399.233 292.034 399.376 292.254 399.577 292.411C399.778 292.567 400.026 292.652 400.281 292.65L418.486 292.477C418.656 292.475 418.824 292.434 418.977 292.357C419.129 292.281 419.262 292.171 419.367 292.036C419.471 291.901 419.543 291.744 419.579 291.577C419.614 291.41 419.611 291.237 419.57 291.072L417.931 284.242C417.87 283.994 417.728 283.772 417.527 283.614C417.326 283.455 417.078 283.368 416.822 283.367L398.618 283.54C398.447 283.543 398.279 283.584 398.126 283.66C397.973 283.736 397.839 283.846 397.734 283.981C397.629 284.115 397.555 284.272 397.518 284.439C397.481 284.606 397.482 284.779 397.521 284.945L399.172 291.787Z" fill="#F6F7F8" stroke="#55626F" stroke-linecap="round" stroke-linejoin="round"/>
<path d="M207.665 328.608H58.3594V334.636H207.665V328.608Z" fill="#F6F7F8" stroke="#55626F" stroke-linecap="round" stroke-linejoin="round"/>
<path d="M230.601 328.608H100.461V334.636H230.601V328.608Z" fill="#F6F7F8" stroke="#55626F" stroke-linecap="round" stroke-linejoin="round"/>
<path d="M233.129 317.896H108.621L122.043 222.828H246.551L233.129 317.896Z" fill="#F6F7F8" stroke="#55626F" stroke-linecap="round" stroke-linejoin="round"/>
<path d="M238.281 317.896H113.773L127.195 222.828H251.703L238.281 317.896Z" fill="#55626F" stroke="#55626F" stroke-linecap="round" stroke-linejoin="round"/>
<path d="M200.135 273.703L212.621 334.624H180.489L168.004 273.703H200.135ZM178.332 291.787C178.395 292.033 178.538 292.252 178.739 292.408C178.94 292.564 179.187 292.649 179.442 292.65L197.646 292.477C197.817 292.474 197.985 292.433 198.137 292.357C198.29 292.281 198.424 292.171 198.53 292.036C198.635 291.902 198.708 291.745 198.745 291.578C198.782 291.411 198.781 291.238 198.743 291.072L197.091 284.242C197.032 283.993 196.891 283.77 196.689 283.611C196.488 283.452 196.238 283.366 195.982 283.367L177.778 283.54C177.607 283.542 177.439 283.583 177.287 283.66C177.134 283.736 177.001 283.846 176.896 283.981C176.792 284.116 176.72 284.273 176.685 284.44C176.649 284.607 176.652 284.779 176.693 284.945L178.332 291.787Z" fill="#F6F7F8" stroke="#55626F" stroke-linecap="round" stroke-linejoin="round"/>
<path d="M1.23438 335.302L544.769 335.302" stroke="#55626F" stroke-linecap="round" stroke-linejoin="round"/>
<path d="M198.34 51.3604C197.26 51.3604 196.304 51.1444 195.472 50.7124C194.648 50.2804 194 49.6764 193.528 48.9004C193.064 48.1164 192.832 47.2004 192.832 46.1524C192.832 45.0804 193.092 44.1284 193.612 43.2964C194.132 42.4564 194.924 41.8204 195.988 41.3884L195.964 42.0844C195.076 41.7564 194.4 41.2204 193.936 40.4764C193.472 39.7324 193.24 38.9084 193.24 38.0044C193.24 37.0444 193.46 36.2204 193.9 35.5324C194.34 34.8364 194.94 34.3004 195.7 33.9244C196.468 33.5484 197.348 33.3604 198.34 33.3604C199.332 33.3604 200.212 33.5484 200.98 33.9244C201.748 34.3004 202.352 34.8364 202.792 35.5324C203.232 36.2204 203.452 37.0444 203.452 38.0044C203.452 38.9084 203.228 39.7284 202.78 40.4644C202.34 41.2004 201.664 41.7404 200.752 42.0844L200.692 41.3884C201.756 41.8124 202.552 42.4444 203.08 43.2844C203.616 44.1244 203.884 45.0804 203.884 46.1524C203.884 47.2004 203.648 48.1164 203.176 48.9004C202.704 49.6764 202.052 50.2804 201.22 50.7124C200.388 51.1444 199.428 51.3604 198.34 51.3604ZM198.34 49.6684C199.428 49.6684 200.312 49.3684 200.992 48.7684C201.672 48.1604 202.012 47.2884 202.012 46.1524C202.012 45.0004 201.676 44.1284 201.004 43.5364C200.332 42.9364 199.444 42.6364 198.34 42.6364C197.236 42.6364 196.352 42.9364 195.688 43.5364C195.024 44.1284 194.692 45.0004 194.692 46.1524C194.692 47.2884 195.028 48.1604 195.7 48.7684C196.372 49.3684 197.252 49.6684 198.34 49.6684ZM198.34 40.9324C199.3 40.9324 200.08 40.6884 200.68 40.2004C201.28 39.7044 201.58 38.9724 201.58 38.0044C201.58 37.0364 201.28 36.3124 200.68 35.8324C200.08 35.3444 199.3 35.1004 198.34 35.1004C197.38 35.1004 196.6 35.3444 196 35.8324C195.408 36.3124 195.112 37.0364 195.112 38.0044C195.112 38.9724 195.408 39.7044 196 40.2004C196.6 40.6884 197.38 40.9324 198.34 40.9324Z" fill="#55626F"/>
<path d="M206.754 43.1164V41.6044H213.954V43.1164H206.754Z" fill="#55626F"/>
<path d="M222.34 51.3604C221.26 51.3604 220.304 51.1444 219.472 50.7124C218.648 50.2804 218 49.6764 217.528 48.9004C217.064 48.1164 216.832 47.2004 216.832 46.1524C216.832 45.0804 217.092 44.1284 217.612 43.2964C218.132 42.4564 218.924 41.8204 219.988 41.3884L219.964 42.0844C219.076 41.7564 218.4 41.2204 217.936 40.4764C217.472 39.7324 217.24 38.9084 217.24 38.0044C217.24 37.0444 217.46 36.2204 217.9 35.5324C218.34 34.8364 218.94 34.3004 219.7 33.9244C220.468 33.5484 221.348 33.3604 222.34 33.3604C223.332 33.3604 224.212 33.5484 224.98 33.9244C225.748 34.3004 226.352 34.8364 226.792 35.5324C227.232 36.2204 227.452 37.0444 227.452 38.0044C227.452 38.9084 227.228 39.7284 226.78 40.4644C226.34 41.2004 225.664 41.7404 224.752 42.0844L224.692 41.3884C225.756 41.8124 226.552 42.4444 227.08 43.2844C227.616 44.1244 227.884 45.0804 227.884 46.1524C227.884 47.2004 227.648 48.1164 227.176 48.9004C226.704 49.6764 226.052 50.2804 225.22 50.7124C224.388 51.1444 223.428 51.3604 222.34 51.3604ZM222.34 49.6684C223.428 49.6684 224.312 49.3684 224.992 48.7684C225.672 48.1604 226.012 47.2884 226.012 46.1524C226.012 45.0004 225.676 44.1284 225.004 43.5364C224.332 42.9364 223.444 42.6364 222.34 42.6364C221.236 42.6364 220.352 42.9364 219.688 43.5364C219.024 44.1284 218.692 45.0004 218.692 46.1524C218.692 47.2884 219.028 48.1604 219.7 48.7684C220.372 49.3684 221.252 49.6684 222.34 49.6684ZM222.34 40.9324C223.3 40.9324 224.08 40.6884 224.68 40.2004C225.28 39.7044 225.58 38.9724 225.58 38.0044C225.58 37.0364 225.28 36.3124 224.68 35.8324C224.08 35.3444 223.3 35.1004 222.34 35.1004C221.38 35.1004 220.6 35.3444 220 35.8324C219.408 36.3124 219.112 37.0364 219.112 38.0044C219.112 38.9724 219.408 39.7044 220 40.2004C220.6 40.6884 221.38 40.9324 222.34 40.9324Z" fill="#55626F"/>
<path d="M236.634 51.3604C235.57 51.3604 234.61 51.1124 233.754 50.6164C232.906 50.1204 232.234 49.4484 231.738 48.6004C231.242 47.7444 230.994 46.7844 230.994 45.7204V39.0004C230.994 37.9364 231.242 36.9804 231.738 36.1324C232.234 35.2764 232.906 34.6004 233.754 34.1044C234.61 33.6084 235.57 33.3604 236.634 33.3604C237.698 33.3604 238.654 33.6084 239.502 34.1044C240.358 34.6004 241.034 35.2764 241.53 36.1324C242.026 36.9804 242.274 37.9364 242.274 39.0004V45.7204C242.274 46.7844 242.026 47.7444 241.53 48.6004C241.034 49.4484 240.358 50.1204 239.502 50.6164C238.654 51.1124 237.698 51.3604 236.634 51.3604ZM236.634 49.6564C237.346 49.6564 237.994 49.4844 238.578 49.1404C239.162 48.7884 239.626 48.3204 239.97 47.7364C240.314 47.1524 240.486 46.5084 240.486 45.8044V38.9164C240.486 38.2044 240.314 37.5564 239.97 36.9724C239.626 36.3884 239.162 35.9244 238.578 35.5804C237.994 35.2284 237.346 35.0524 236.634 35.0524C235.922 35.0524 235.274 35.2284 234.69 35.5804C234.106 35.9244 233.642 36.3884 233.298 36.9724C232.954 37.5564 232.782 38.2044 232.782 38.9164V45.8044C232.782 46.5084 232.954 47.1524 233.298 47.7364C233.642 48.3204 234.106 48.7884 234.69 49.1404C235.274 49.4844 235.922 49.6564 236.634 49.6564Z" fill="#55626F"/>
<path d="M251.282 51.3604C250.218 51.3604 249.258 51.1124 248.402 50.6164C247.554 50.1204 246.882 49.4484 246.386 48.6004C245.89 47.7444 245.642 46.7844 245.642 45.7204V39.0004C245.642 37.9364 245.89 36.9804 246.386 36.1324C246.882 35.2764 247.554 34.6004 248.402 34.1044C249.258 33.6084 250.218 33.3604 251.282 33.3604C252.346 33.3604 253.302 33.6084 254.15 34.1044C255.006 34.6004 255.682 35.2764 256.178 36.1324C256.674 36.9804 256.922 37.9364 256.922 39.0004V45.7204C256.922 46.7844 256.674 47.7444 256.178 48.6004C255.682 49.4484 255.006 50.1204 254.15 50.6164C253.302 51.1124 252.346 51.3604 251.282 51.3604ZM251.282 49.6564C251.994 49.6564 252.642 49.4844 253.226 49.1404C253.81 48.7884 254.274 48.3204 254.618 47.7364C254.962 47.1524 255.134 46.5084 255.134 45.8044V38.9164C255.134 38.2044 254.962 37.5564 254.618 36.9724C254.274 36.3884 253.81 35.9244 253.226 35.5804C252.642 35.2284 251.994 35.0524 251.282 35.0524C250.57 35.0524 249.922 35.2284 249.338 35.5804C248.754 35.9244 248.29 36.3884 247.946 36.9724C247.602 37.5564 247.43 38.2044 247.43 38.9164V45.8044C247.43 46.5084 247.602 47.1524 247.946 47.7364C248.29 48.3204 248.754 48.7884 249.338 49.1404C249.922 49.4844 250.57 49.6564 251.282 49.6564Z" fill="#55626F"/>
</svg>
