<svg width="60" height="17" viewBox="0 0 60 17" fill="none" xmlns="http://www.w3.org/2000/svg">
<path d="M1.41921 16.2725C1.2687 16.504 0.959002 16.5697 0.727481 16.4192C0.49596 16.2687 0.430286 15.959 0.580794 15.7275L1.41921 16.2725ZM59.4978 13.1379C59.5235 13.4129 59.3213 13.6565 59.0464 13.6821L54.5658 14.0996C54.2908 14.1252 54.0472 13.9231 54.0216 13.6481C53.9959 13.3732 54.1981 13.1295 54.473 13.1039L58.4558 12.7328L58.0847 8.75008C58.0591 8.47513 58.2612 8.23147 58.5362 8.20585C58.8111 8.18024 59.0548 8.38236 59.0804 8.65731L59.4978 13.1379ZM1.44313 14.4678C1.60449 14.2437 1.91696 14.1929 2.14106 14.3542C2.36515 14.5156 2.41601 14.828 2.25465 15.0521L1.44313 14.4678ZM4.09393 12.7351C3.91237 12.9432 3.59651 12.9646 3.38846 12.7831C3.1804 12.6015 3.15892 12.2857 3.34048 12.0776L4.09393 12.7351ZM5.45045 9.87313C5.65031 9.68258 5.96681 9.69014 6.15735 9.89001C6.3479 10.0899 6.34034 10.4064 6.14048 10.5969L5.45045 9.87313ZM8.37427 8.65315C8.15796 8.82479 7.84345 8.78858 7.67181 8.57226C7.50016 8.35595 7.53638 8.04144 7.75269 7.8698L8.37427 8.65315ZM10.2257 6.08325C10.4566 5.9318 10.7666 5.99621 10.918 6.22711C11.0695 6.45801 11.0051 6.76798 10.7742 6.91943L10.2257 6.08325ZM13.3197 5.40916C13.0761 5.53923 12.7732 5.44721 12.6431 5.20362C12.513 4.96004 12.605 4.65712 12.8486 4.52705L13.3197 5.40916ZM15.6021 3.21232C15.8564 3.10466 16.1498 3.22354 16.2575 3.47783C16.3651 3.73213 16.2463 4.02554 15.992 4.1332L15.6021 3.21232ZM18.7678 3.1025C18.5049 3.18691 18.2233 3.0422 18.1389 2.77927C18.0545 2.51635 18.1992 2.23478 18.4621 2.15036L18.7678 3.1025ZM21.4038 1.349C21.6732 1.28836 21.9407 1.4576 22.0013 1.727C22.062 1.9964 21.8928 2.26395 21.6234 2.32459L21.4038 1.349ZM24.5415 1.80231C24.2678 1.83893 24.0162 1.64674 23.9796 1.37304C23.943 1.09934 24.1351 0.847768 24.4088 0.811141L24.5415 1.80231ZM27.4419 0.538668C27.7177 0.525837 27.9517 0.73905 27.9646 1.01489C27.9774 1.29074 27.7642 1.52476 27.4883 1.53759L27.4419 0.538668ZM30.4553 1.52561C30.1793 1.51513 29.9641 1.28294 29.9746 1.00699C29.9851 0.731049 30.2173 0.515847 30.4932 0.526328L30.4553 1.52561ZM33.5257 0.765971C33.7998 0.798818 33.9955 1.04771 33.9626 1.3219C33.9298 1.59608 33.6809 1.79172 33.4067 1.75887L33.5257 0.765971ZM36.3404 2.22793C36.0696 2.17382 35.894 1.91044 35.9481 1.63965C36.0022 1.36886 36.2656 1.19321 36.5364 1.24731L36.3404 2.22793ZM39.4922 1.95338C39.7582 2.02731 39.914 2.30294 39.8401 2.569C39.7661 2.83506 39.4905 2.9908 39.2244 2.91686L39.4922 1.95338ZM42.0556 3.81212C41.7953 3.71983 41.6592 3.43404 41.7514 3.17377C41.8437 2.9135 42.1295 2.77733 42.3898 2.86961L42.0556 3.81212ZM45.2222 3.9807C45.4759 4.08981 45.5931 4.3839 45.484 4.63757C45.3749 4.89125 45.0808 5.00844 44.8271 4.89933L45.2222 3.9807ZM47.5249 6.15981C47.2783 6.03542 47.1793 5.73472 47.3037 5.48818C47.4281 5.24164 47.7288 5.14261 47.9753 5.267L47.5249 6.15981ZM50.6397 6.70853C50.8788 6.84668 50.9606 7.15251 50.8224 7.39161C50.6843 7.6307 50.3785 7.71253 50.1394 7.57438L50.6397 6.70853ZM52.6765 9.13207C52.445 8.98152 52.3794 8.67181 52.5299 8.44032C52.6805 8.20883 52.9902 8.14322 53.2217 8.29377L52.6765 9.13207ZM55.7195 10.0078C55.9434 10.1695 55.9938 10.482 55.8321 10.7059C55.6704 10.9297 55.3579 10.9801 55.134 10.8184L55.7195 10.0078ZM57.5114 12.6201C57.2951 12.4484 57.2589 12.1339 57.4306 11.9176C57.6022 11.7013 57.9168 11.6651 58.133 11.8368L57.5114 12.6201ZM0.580794 15.7275C0.857396 15.302 1.14494 14.8819 1.44313 14.4678L2.25465 15.0521C1.96569 15.4534 1.68712 15.8604 1.41921 16.2725L0.580794 15.7275ZM3.34048 12.0776C4.00572 11.3153 4.70976 10.5793 5.45045 9.87313L6.14048 10.5969C5.4219 11.282 4.73903 11.9959 4.09393 12.7351L3.34048 12.0776ZM7.75269 7.8698C8.54473 7.24132 9.36974 6.64469 10.2257 6.08325L10.7742 6.91943C9.94347 7.46429 9.14285 8.04329 8.37427 8.65315L7.75269 7.8698ZM12.8486 4.52705C13.7396 4.05127 14.658 3.612 15.6021 3.21232L15.992 4.1332C15.0757 4.52109 14.1843 4.94742 13.3197 5.40916L12.8486 4.52705ZM18.4621 2.15036C19.421 1.84251 20.4021 1.57445 21.4038 1.349L21.6234 2.32459C20.6509 2.54348 19.6985 2.80368 18.7678 3.1025L18.4621 2.15036ZM24.4088 0.811141C25.4032 0.67808 26.4147 0.58645 27.4419 0.538668L27.4883 1.53759C26.49 1.58403 25.5073 1.67307 24.5415 1.80231L24.4088 0.811141ZM30.4932 0.526328C31.4918 0.564253 32.503 0.643462 33.5257 0.765971L33.4067 1.75887C32.4109 1.63957 31.4267 1.5625 30.4553 1.52561L30.4932 0.526328ZM36.5364 1.24731C37.5131 1.44249 38.4987 1.6773 39.4922 1.95338L39.2244 2.91686C38.2545 2.64731 37.2928 2.41823 36.3404 2.22793L36.5364 1.24731ZM42.3898 2.86961C43.3283 3.20238 44.2727 3.57231 45.2222 3.9807L44.8271 4.89933C43.8974 4.49943 42.9733 4.13749 42.0556 3.81212L42.3898 2.86961ZM47.9753 5.267C48.86 5.71334 49.7483 6.1935 50.6397 6.70853L50.1394 7.57438C49.2641 7.06865 48.3924 6.59749 47.5249 6.15981L47.9753 5.267ZM53.2217 8.29377C54.0524 8.83406 54.8852 9.40512 55.7195 10.0078L55.134 10.8184C54.3126 10.2251 53.4933 9.66331 52.6765 9.13207L53.2217 8.29377ZM58.133 11.8368C58.5282 12.1504 58.9236 12.4713 59.3192 12.7995L58.6808 13.5691C58.2907 13.2455 57.9008 12.9292 57.5114 12.6201L58.133 11.8368Z" fill="#F88C28"/>
</svg>
