<svg width="29" height="202" viewBox="0 0 29 202" fill="none" xmlns="http://www.w3.org/2000/svg">
<path d="M0.563728 1.24427C0.428823 1.00332 0.514785 0.698634 0.755732 0.563728C0.996678 0.428823 1.30137 0.514785 1.43627 0.755732L0.563728 1.24427ZM7.10925 201.465C6.85219 201.566 6.56203 201.44 6.46116 201.183L4.81736 196.994C4.71648 196.737 4.8431 196.446 5.10016 196.346C5.35722 196.245 5.64738 196.371 5.74825 196.628L7.20941 200.352L10.933 198.891C11.19 198.79 11.4802 198.917 11.5811 199.174C11.6819 199.431 11.5553 199.721 11.2983 199.822L7.10925 201.465ZM2.14374 2.02993C2.27692 2.27183 2.18879 2.5759 1.94689 2.70908C1.70498 2.84227 1.40092 2.75414 1.26773 2.51224L2.14374 2.02993ZM2.67974 5.12141C2.55006 4.8776 2.64259 4.57484 2.88639 4.44517C3.13019 4.3155 3.43295 4.40802 3.56262 4.65182L2.67974 5.12141ZM4.94841 7.30319C5.07456 7.54883 4.9777 7.85023 4.73206 7.97638C4.48641 8.10253 4.18501 8.00567 4.05886 7.76003L4.94841 7.30319ZM5.38374 10.3852C5.26106 10.1378 5.36216 9.83779 5.60955 9.71511C5.85695 9.59243 6.15695 9.69354 6.27963 9.94093L5.38374 10.3852ZM7.57879 12.6078C7.69798 12.8569 7.59267 13.1554 7.34358 13.2746C7.09448 13.3938 6.79593 13.2885 6.67674 13.0394L7.57879 12.6078ZM7.94021 15.7284C7.82453 15.4777 7.93403 15.1806 8.18478 15.0649C8.43553 14.9493 8.73257 15.0588 8.84824 15.3095L7.94021 15.7284ZM10.0746 18.0175C10.1868 18.2698 10.0731 18.5653 9.82079 18.6775C9.56845 18.7897 9.27297 18.676 9.16081 18.4237L10.0746 18.0175ZM10.3396 21.1261C10.231 20.8722 10.3487 20.5783 10.6025 20.4697C10.8564 20.361 11.1503 20.4788 11.259 20.7326L10.3396 21.1261ZM12.4153 23.4874C12.5204 23.7428 12.3986 24.035 12.1432 24.1401C11.8878 24.2452 11.5956 24.1234 11.4905 23.868L12.4153 23.4874ZM12.5943 26.6035C12.4927 26.3467 12.6186 26.0562 12.8754 25.9547C13.1321 25.8531 13.4226 25.9789 13.5242 26.2357L12.5943 26.6035ZM14.5977 29.0061C14.6957 29.2643 14.5658 29.553 14.3077 29.651C14.0495 29.749 13.7608 29.6191 13.6628 29.3609L14.5977 29.0061ZM14.6982 32.1473C14.6038 31.8878 14.7377 31.6009 14.9972 31.5065C15.2567 31.4121 15.5436 31.5459 15.638 31.8054L14.6982 32.1473ZM16.6296 34.5912C16.7204 34.852 16.5826 35.1371 16.3218 35.2279C16.061 35.3187 15.776 35.1809 15.6852 34.9201L16.6296 34.5912ZM16.6442 37.7375C16.5571 37.4755 16.6988 37.1924 16.9609 37.1053C17.2229 37.0181 17.506 37.1599 17.5931 37.4219L16.6442 37.7375ZM18.5071 40.2341C18.5906 40.4973 18.445 40.7784 18.1818 40.8619C17.9186 40.9455 17.6375 40.7998 17.554 40.5366L18.5071 40.2341ZM18.4322 43.3718C18.3523 43.1075 18.5018 42.8284 18.7662 42.7486C19.0305 42.6687 19.3096 42.8183 19.3894 43.0826L18.4322 43.3718ZM20.2276 45.9277C20.3038 46.1931 20.1504 46.4701 19.885 46.5463C19.6195 46.6225 19.3426 46.4691 19.2664 46.2036L20.2276 45.9277ZM20.064 49.0568C19.9915 48.7903 20.1488 48.5156 20.4152 48.4431C20.6817 48.3706 20.9565 48.5278 21.029 48.7943L20.064 49.0568ZM21.789 51.6665C21.8578 51.9339 21.6967 52.2065 21.4293 52.2752C21.1619 52.344 20.8893 52.183 20.8205 51.9155L21.789 51.6665ZM21.5377 54.7868C21.4726 54.5184 21.6375 54.2481 21.9058 54.1831C22.1742 54.118 22.4445 54.2829 22.5095 54.5512L21.5377 54.7868ZM23.1897 57.4454C23.251 57.7146 23.0824 57.9826 22.8132 58.0439C22.5439 58.1052 22.276 57.9366 22.2147 57.6674L23.1897 57.4454ZM22.8513 60.5568C22.7938 60.2867 22.9661 60.0211 23.2362 59.9636C23.5062 59.9061 23.7718 60.0784 23.8294 60.3484L22.8513 60.5568ZM24.4284 63.26C24.4821 63.5308 24.3062 63.794 24.0353 63.8477C23.7644 63.9015 23.5013 63.7255 23.4475 63.4546L24.4284 63.26ZM24.0035 66.3622C23.9535 66.0906 24.1332 65.83 24.4048 65.78C24.6764 65.73 24.937 65.9097 24.987 66.1813L24.0035 66.3622ZM25.504 69.106C25.5501 69.3783 25.3669 69.6364 25.0946 69.6826C24.8223 69.7287 24.5642 69.5454 24.518 69.2732L25.504 69.106ZM24.9931 72.1988C24.9507 71.9259 25.1376 71.6704 25.4105 71.628C25.6834 71.5857 25.9389 71.7726 25.9812 72.0455L24.9931 72.1988ZM26.4156 74.9795C26.4541 75.2529 26.2637 75.5058 25.9903 75.5443C25.7168 75.5829 25.4639 75.3924 25.4254 75.119L26.4156 74.9795ZM25.8191 78.0625C25.7844 77.7885 25.9784 77.5383 26.2523 77.5037C26.5263 77.469 26.7765 77.6629 26.8112 77.9369L25.8191 78.0625ZM27.1626 80.8764C27.1935 81.1508 26.9961 81.3983 26.7217 81.4291C26.4473 81.46 26.1998 81.2626 26.1689 80.9882L27.1626 80.8764ZM26.481 83.9495C26.454 83.6746 26.6548 83.43 26.9297 83.403C27.2045 83.3759 27.4492 83.5768 27.4762 83.8517L26.481 83.9495ZM27.7447 86.793C27.7678 87.0681 27.5636 87.31 27.2884 87.3332C27.0132 87.3564 26.7714 87.1521 26.7482 86.877L27.7447 86.793ZM26.977 89.8397C26.9577 89.5643 27.1653 89.3253 27.4408 89.3059C27.7163 89.2866 27.9552 89.4942 27.9746 89.7697L26.977 89.8397ZM28.1615 92.7256C28.177 93.0014 27.9661 93.2374 27.6904 93.2529C27.4147 93.2685 27.1786 93.0575 27.1631 92.7818L28.1615 92.7256ZM27.3089 95.7406C27.2972 95.4647 27.5114 95.2316 27.7873 95.2199C28.0632 95.2082 28.2963 95.4224 28.308 95.6983L27.3089 95.7406ZM28.4132 98.6709C28.421 98.947 28.2036 99.1771 27.9276 99.1849C27.6515 99.1928 27.4214 98.9754 27.4136 98.6994L28.4132 98.6709ZM27.4771 101.651C27.4731 101.375 27.6936 101.148 27.9697 101.144C28.2458 101.139 28.4729 101.36 28.477 101.636L27.4771 101.651ZM28.4999 104.626C28.5001 104.902 28.2765 105.126 28.0003 105.126C27.7242 105.126 27.5001 104.903 27.4999 104.626L28.4999 104.626ZM27.482 107.567C27.4856 107.291 27.7123 107.07 27.9884 107.074C28.2646 107.077 28.4855 107.304 28.4819 107.58L27.482 107.567ZM28.4229 110.563C28.4155 110.839 28.1858 111.057 27.9097 111.05C27.6337 111.042 27.4159 110.813 27.4232 110.536L28.4229 110.563ZM27.3244 113.487C27.3355 113.211 27.5682 112.996 27.8441 113.007C28.1201 113.019 28.3347 113.251 28.3236 113.527L27.3244 113.487ZM28.1838 116.494C28.1689 116.77 27.9333 116.981 27.6576 116.966C27.3818 116.952 27.1704 116.716 27.1852 116.44L28.1838 116.494ZM27.005 119.408C27.0236 119.132 27.262 118.924 27.5376 118.942C27.8131 118.961 28.0213 119.2 28.0027 119.475L27.005 119.408ZM27.7837 122.423C27.7614 122.698 27.5202 122.903 27.245 122.881C26.9697 122.858 26.7647 122.617 26.787 122.342L27.7837 122.423ZM26.5272 125.301C26.5532 125.026 26.7971 124.824 27.072 124.85C27.347 124.876 27.5487 125.12 27.5227 125.395L26.5272 125.301ZM27.2238 128.346C27.1942 128.621 26.9476 128.82 26.673 128.79C26.3985 128.76 26.2 128.514 26.2296 128.239L27.2238 128.346ZM25.893 131.174C25.9263 130.9 26.1755 130.705 26.4496 130.738C26.7237 130.771 26.919 131.021 26.8857 131.295L25.893 131.174ZM26.5052 134.264C26.4683 134.538 26.2166 134.73 25.9429 134.693C25.6692 134.656 25.4773 134.405 25.5142 134.131L26.5052 134.264ZM25.1029 137.039C25.1433 136.765 25.3976 136.577 25.6707 136.617C25.9439 136.658 26.1325 136.912 26.0921 137.185L25.1029 137.039ZM25.6369 140.127C25.5929 140.4 25.3362 140.585 25.0636 140.541C24.791 140.497 24.6056 140.241 24.6496 139.968L25.6369 140.127ZM24.1582 142.894C24.2057 142.622 24.4647 142.44 24.7367 142.487C25.0087 142.535 25.1907 142.794 25.1432 143.066L24.1582 142.894ZM24.6159 145.976C24.5649 146.247 24.3036 146.426 24.0322 146.375C23.7608 146.324 23.5821 146.063 23.6331 145.791L24.6159 145.976ZM23.0659 148.709C23.1203 148.438 23.3839 148.263 23.6546 148.318C23.9254 148.372 24.1007 148.636 24.0463 148.906L23.0659 148.709ZM23.4435 151.811C23.3857 152.081 23.1199 152.253 22.8499 152.195C22.5798 152.138 22.4078 151.872 22.4656 151.602L23.4435 151.811ZM21.8299 154.484C21.8911 154.214 22.159 154.046 22.4282 154.107C22.6975 154.168 22.8663 154.436 22.8051 154.705L21.8299 154.484ZM22.1246 157.618C22.0601 157.886 21.7901 158.052 21.5216 157.987C21.2531 157.923 21.0877 157.653 21.1522 157.384L22.1246 157.618ZM20.447 160.244C20.5147 159.976 20.7867 159.814 21.0544 159.882C21.3221 159.949 21.4842 160.221 21.4164 160.489L20.447 160.244ZM20.6709 163.361C20.5999 163.628 20.326 163.787 20.0591 163.716C19.7923 163.645 19.6335 163.371 19.7045 163.104L20.6709 163.361ZM18.9202 165.982C18.9944 165.716 19.2702 165.561 19.5362 165.635C19.8022 165.709 19.9576 165.985 19.8834 166.251L18.9202 165.982ZM19.0737 169.088C18.9963 169.353 18.7187 169.505 18.4536 169.428C18.1885 169.351 18.0363 169.073 18.1137 168.808L19.0737 169.088ZM17.2687 171.642C17.3491 171.378 17.6285 171.229 17.8926 171.309C18.1568 171.39 18.3057 171.669 18.2253 171.933L17.2687 171.642ZM17.3354 174.795C17.2519 175.058 16.9708 175.204 16.7076 175.12C16.4444 175.037 16.2987 174.755 16.3823 174.492L17.3354 174.795ZM15.4778 177.286C15.5644 177.024 15.8471 176.881 16.1094 176.968C16.3716 177.055 16.514 177.337 16.4275 177.6L15.4778 177.286ZM15.481 180.413C15.3915 180.674 15.1072 180.814 14.846 180.724C14.5847 180.635 14.4455 180.35 14.535 180.089L15.481 180.413ZM13.5515 182.907C13.644 182.647 13.9299 182.511 14.1901 182.603C14.4503 182.696 14.5862 182.982 14.4938 183.242L13.5515 182.907ZM13.4905 186.016C13.3951 186.275 13.1078 186.408 12.8486 186.313C12.5894 186.217 12.4566 185.93 12.552 185.671L13.4905 186.016ZM11.5165 188.438C11.6147 188.18 11.9035 188.05 12.1616 188.149C12.4197 188.247 12.5493 188.536 12.4512 188.794L11.5165 188.438ZM11.3718 191.585C11.2708 191.842 10.9805 191.969 10.7235 191.868C10.4665 191.767 10.3401 191.476 10.4411 191.219L11.3718 191.585ZM9.34864 193.956C9.45238 193.7 9.74394 193.577 9.99986 193.681C10.2558 193.784 10.3791 194.076 10.2754 194.332L9.34864 193.956ZM9.14862 197.07C9.04218 197.325 8.74934 197.445 8.49453 197.338C8.23973 197.232 8.11945 196.939 8.22589 196.684L9.14862 197.07ZM7.064 199.425C7.17311 199.171 7.46721 199.054 7.72088 199.163C7.97455 199.273 8.09174 199.567 7.98263 199.82L7.064 199.425ZM1.43627 0.755732C1.67017 1.17349 1.90605 1.59823 2.14374 2.02993L1.26773 2.51224C1.03121 2.08264 0.796481 1.65997 0.563728 1.24427L1.43627 0.755732ZM3.56262 4.65182C4.01991 5.51159 4.48224 6.39547 4.94841 7.30319L4.05886 7.76003C3.59492 6.85665 3.13481 5.97702 2.67974 5.12141L3.56262 4.65182ZM6.27963 9.94093C6.71074 10.8103 7.1441 11.6993 7.57879 12.6078L6.67674 13.0394C6.2441 12.1353 5.8128 11.2504 5.38374 10.3852L6.27963 9.94093ZM8.84824 15.3095C9.2569 16.1954 9.66594 17.0981 10.0746 18.0175L9.16081 18.4237C8.75406 17.5086 8.34694 16.6101 7.94021 15.7284L8.84824 15.3095ZM11.259 20.7326C11.6456 21.6361 12.0313 22.5544 12.4153 23.4874L11.4905 23.868C11.1083 22.9393 10.7244 22.0253 10.3396 21.1261L11.259 20.7326ZM13.5242 26.2357C13.8842 27.1461 14.2423 28.0696 14.5977 29.0061L13.6628 29.3609C13.309 28.4288 12.9527 27.5097 12.5943 26.6035L13.5242 26.2357ZM15.638 31.8054C15.9715 32.7224 16.3022 33.651 16.6296 34.5912L15.6852 34.9201C15.3593 33.9843 15.0302 33.0599 14.6982 32.1473L15.638 31.8054ZM17.5931 37.4219C17.9014 38.3487 18.2062 39.2861 18.5071 40.2341L17.554 40.5366C17.2545 39.5931 16.9511 38.66 16.6442 37.7375L17.5931 37.4219ZM19.3894 43.0826C19.673 44.0212 19.9525 44.9696 20.2276 45.9277L19.2664 46.2036C18.9926 45.25 18.7144 44.3061 18.4322 43.3718L19.3894 43.0826ZM21.029 48.7943C21.287 49.7426 21.5404 50.7001 21.789 51.6665L20.8205 51.9155C20.5731 50.9537 20.3209 50.0007 20.064 49.0568L21.029 48.7943ZM22.5095 54.5512C22.7413 55.5076 22.9682 56.4723 23.1897 57.4454L22.2147 57.6674C21.9942 56.6989 21.7684 55.7387 21.5377 54.7868L22.5095 54.5512ZM23.8294 60.3484C24.0345 61.3112 24.2342 62.2817 24.4284 63.26L23.4475 63.4546C23.2543 62.481 23.0554 61.515 22.8513 60.5568L23.8294 60.3484ZM24.987 66.1813C25.165 67.1489 25.3374 68.1239 25.504 69.106L24.518 69.2732C24.3523 68.2957 24.1807 67.3253 24.0035 66.3622L24.987 66.1813ZM25.9812 72.0455C26.132 73.0167 26.2768 73.9947 26.4156 74.9795L25.4254 75.119C25.2873 74.1389 25.1431 73.1655 24.9931 72.1988L25.9812 72.0455ZM26.8112 77.9369C26.9345 78.9104 27.0517 79.8902 27.1626 80.8764L26.1689 80.9882C26.0585 80.0067 25.9418 79.0314 25.8191 78.0625L26.8112 77.9369ZM27.4762 83.8517C27.5719 84.8262 27.6615 85.8066 27.7447 86.793L26.7482 86.877C26.6654 85.8952 26.5763 84.9194 26.481 83.9495L27.4762 83.8517ZM27.9746 89.7697C28.0434 90.7494 28.1057 91.7347 28.1615 92.7256L27.1631 92.7818C27.1076 91.7955 27.0455 90.8148 26.977 89.8397L27.9746 89.7697ZM28.308 95.6983C28.3497 96.6839 28.3848 97.6747 28.4132 98.6709L27.4136 98.6994C27.3854 97.7078 27.3504 96.7215 27.3089 95.7406L28.308 95.6983ZM28.477 101.636C28.4915 102.628 28.4992 103.624 28.4999 104.626L27.4999 104.626C27.4992 103.63 27.4915 102.638 27.4771 101.651L28.477 101.636ZM28.4819 107.58C28.4692 108.57 28.4495 109.564 28.4229 110.563L27.4232 110.536C27.4498 109.542 27.4693 108.552 27.482 107.567L28.4819 107.58ZM28.3236 113.527C28.2839 114.512 28.2374 115.501 28.1838 116.494L27.1852 116.44C27.2386 115.451 27.2849 114.467 27.3244 113.487L28.3236 113.527ZM28.0027 119.475C27.9366 120.453 27.8637 121.436 27.7837 122.423L26.787 122.342C26.8666 121.36 26.9392 120.381 27.005 119.408L28.0027 119.475ZM27.5227 125.395C27.4301 126.375 27.3305 127.359 27.2238 128.346L26.2296 128.239C26.3358 127.256 26.4349 126.276 26.5272 125.301L27.5227 125.395ZM26.8857 131.295C26.766 132.281 26.6392 133.271 26.5052 134.264L25.5142 134.131C25.6476 133.141 25.7738 132.156 25.893 131.174L26.8857 131.295ZM26.0921 137.185C25.9474 138.162 25.7957 139.143 25.6369 140.127L24.6496 139.968C24.8078 138.988 24.9588 138.011 25.1029 137.039L26.0921 137.185ZM25.1432 143.066C24.9744 144.032 24.7987 145.002 24.6159 145.976L23.6331 145.791C23.8151 144.822 23.9901 143.856 24.1582 142.894L25.1432 143.066ZM24.0463 148.906C23.8523 149.871 23.6514 150.84 23.4435 151.811L22.4656 151.602C22.6727 150.634 22.8728 149.67 23.0659 148.709L24.0463 148.906ZM22.8051 154.705C22.5853 155.673 22.3585 156.644 22.1246 157.618L21.1522 157.384C21.3852 156.414 21.6111 155.448 21.8299 154.484L22.8051 154.705ZM21.4164 160.489C21.1748 161.444 20.9263 162.401 20.6709 163.361L19.7045 163.104C19.9589 162.148 20.2064 161.194 20.447 160.244L21.4164 160.489ZM19.8834 166.251C19.6203 167.194 19.3504 168.14 19.0737 169.088L18.1137 168.808C18.3893 167.863 18.6581 166.921 18.9202 165.982L19.8834 166.251ZM18.2253 171.933C17.9356 172.885 17.639 173.838 17.3354 174.795L16.3823 174.492C16.6847 173.54 16.9801 172.589 17.2687 171.642L18.2253 171.933ZM16.4275 177.6C16.1187 178.535 15.8033 179.473 15.481 180.413L14.535 180.089C14.8561 179.152 15.1703 178.218 15.4778 177.286L16.4275 177.6ZM14.4938 183.242C14.1659 184.164 13.8315 185.089 13.4905 186.016L12.552 185.671C12.8918 184.747 13.2249 183.826 13.5515 182.907L14.4938 183.242ZM12.4512 188.794C12.0981 189.722 11.7383 190.652 11.3718 191.585L10.4411 191.219C10.8063 190.29 11.1647 189.363 11.5165 188.438L12.4512 188.794ZM10.2754 194.332C9.90629 195.242 9.53072 196.155 9.14862 197.07L8.22589 196.684C8.60663 195.773 8.98086 194.863 9.34864 193.956L10.2754 194.332ZM7.98263 199.82C7.78503 200.28 7.58579 200.74 7.38488 201.2L6.46834 200.8C6.66855 200.341 6.8671 199.883 7.064 199.425L7.98263 199.82Z" fill="#F88C28"/>
<path d="M3.64645 139.646C3.45118 139.842 3.45118 140.158 3.64645 140.354L6.82843 143.536C7.02369 143.731 7.34027 143.731 7.53553 143.536C7.7308 143.34 7.7308 143.024 7.53553 142.828L4.70711 140L7.53553 137.172C7.7308 136.976 7.7308 136.66 7.53553 136.464C7.34027 136.269 7.02369 136.269 6.82843 136.464L3.64645 139.646ZM25 140.5C25.2761 140.5 25.5 140.276 25.5 140C25.5 139.724 25.2761 139.5 25 139.5V140.5ZM5.3125 140.5C5.58864 140.5 5.8125 140.276 5.8125 140C5.8125 139.724 5.58864 139.5 5.3125 139.5V140.5ZM7.9375 139.5C7.66136 139.5 7.4375 139.724 7.4375 140C7.4375 140.276 7.66136 140.5 7.9375 140.5V139.5ZM10.5625 140.5C10.8386 140.5 11.0625 140.276 11.0625 140C11.0625 139.724 10.8386 139.5 10.5625 139.5V140.5ZM13.1875 139.5C12.9114 139.5 12.6875 139.724 12.6875 140C12.6875 140.276 12.9114 140.5 13.1875 140.5V139.5ZM15.8125 140.5C16.0886 140.5 16.3125 140.276 16.3125 140C16.3125 139.724 16.0886 139.5 15.8125 139.5V140.5ZM18.4375 139.5C18.1614 139.5 17.9375 139.724 17.9375 140C17.9375 140.276 18.1614 140.5 18.4375 140.5V139.5ZM21.0625 140.5C21.3386 140.5 21.5625 140.276 21.5625 140C21.5625 139.724 21.3386 139.5 21.0625 139.5V140.5ZM23.6875 139.5C23.4114 139.5 23.1875 139.724 23.1875 140C23.1875 140.276 23.4114 140.5 23.6875 140.5V139.5ZM4 140.5H5.3125V139.5H4V140.5ZM7.9375 140.5H10.5625V139.5H7.9375V140.5ZM13.1875 140.5H15.8125V139.5H13.1875V140.5ZM18.4375 140.5H21.0625V139.5H18.4375V140.5ZM23.6875 140.5H25V139.5H23.6875V140.5Z" fill="#F88C28"/>
<path d="M3.64645 76.6464C3.45118 76.8417 3.45118 77.1583 3.64645 77.3536L6.82843 80.5355C7.02369 80.7308 7.34027 80.7308 7.53553 80.5355C7.7308 80.3403 7.7308 80.0237 7.53553 79.8284L4.70711 77L7.53553 74.1716C7.7308 73.9763 7.7308 73.6597 7.53553 73.4645C7.34027 73.2692 7.02369 73.2692 6.82843 73.4645L3.64645 76.6464ZM26 77.5C26.2761 77.5 26.5 77.2761 26.5 77C26.5 76.7239 26.2761 76.5 26 76.5V77.5ZM5.375 77.5C5.65114 77.5 5.875 77.2761 5.875 77C5.875 76.7239 5.65114 76.5 5.375 76.5V77.5ZM8.125 76.5C7.84886 76.5 7.625 76.7239 7.625 77C7.625 77.2761 7.84886 77.5 8.125 77.5V76.5ZM10.875 77.5C11.1511 77.5 11.375 77.2761 11.375 77C11.375 76.7239 11.1511 76.5 10.875 76.5V77.5ZM13.625 76.5C13.3489 76.5 13.125 76.7239 13.125 77C13.125 77.2761 13.3489 77.5 13.625 77.5V76.5ZM16.375 77.5C16.6511 77.5 16.875 77.2761 16.875 77C16.875 76.7239 16.6511 76.5 16.375 76.5V77.5ZM19.125 76.5C18.8489 76.5 18.625 76.7239 18.625 77C18.625 77.2761 18.8489 77.5 19.125 77.5V76.5ZM21.875 77.5C22.1511 77.5 22.375 77.2761 22.375 77C22.375 76.7239 22.1511 76.5 21.875 76.5V77.5ZM24.625 76.5C24.3489 76.5 24.125 76.7239 24.125 77C24.125 77.2761 24.3489 77.5 24.625 77.5V76.5ZM4 77.5H5.375V76.5H4V77.5ZM8.125 77.5H10.875V76.5H8.125V77.5ZM13.625 77.5H16.375V76.5H13.625V77.5ZM19.125 77.5H21.875V76.5H19.125V77.5ZM24.625 77.5H26V76.5H24.625V77.5Z" fill="#F88C28"/>
</svg>
