<svg width="103" height="29" viewBox="0 0 103 29" fill="none" xmlns="http://www.w3.org/2000/svg">
<path d="M1.42325 28.2662C1.27624 28.4999 0.967567 28.5703 0.733811 28.4233C0.500054 28.2762 0.429735 27.9676 0.576747 27.7338L1.42325 28.2662ZM102.499 22.8935C102.52 23.1688 102.314 23.4091 102.038 23.4303L97.5514 23.7745C97.2761 23.7957 97.0358 23.5896 97.0147 23.3143C96.9935 23.0389 97.1996 22.7986 97.4749 22.7775L101.463 22.4714L101.157 18.4832C101.136 18.2078 101.342 17.9675 101.617 17.9464C101.893 17.9253 102.133 18.1313 102.154 18.4067L102.499 22.8935ZM1.41324 26.4426C1.56647 26.2129 1.87692 26.1508 2.10665 26.3041C2.33637 26.4573 2.39838 26.7678 2.24515 26.9975L1.41324 26.4426ZM3.99143 24.5251C3.82617 24.7464 3.51285 24.7918 3.29162 24.6265C3.07039 24.4612 3.02501 24.1479 3.19027 23.9267L3.99143 24.5251ZM5.09816 21.5088C5.27488 21.2966 5.59015 21.2679 5.80234 21.4446C6.01453 21.6213 6.04328 21.9366 5.86656 22.1488L5.09816 21.5088ZM7.86439 19.8744C7.67677 20.077 7.36042 20.0891 7.15781 19.9015C6.9552 19.7139 6.94305 19.3975 7.13068 19.1949L7.86439 19.8744ZM9.28171 16.9909C9.4797 16.7984 9.79625 16.8029 9.98875 17.0008C10.1813 17.1988 10.1768 17.5154 9.97883 17.7079L9.28171 16.9909ZM12.2038 15.655C11.996 15.8369 11.6801 15.8159 11.4982 15.6081C11.3163 15.4003 11.3374 15.0845 11.5451 14.9026L12.2038 15.655ZM13.9148 12.9356C14.1318 12.7649 14.4462 12.8024 14.6169 13.0194C14.7877 13.2365 14.7501 13.5508 14.5331 13.7216L13.9148 12.9356ZM16.9606 11.913C16.7349 12.0721 16.4229 12.0181 16.2638 11.7924C16.1047 11.5667 16.1587 11.2547 16.3844 11.0956L16.9606 11.913ZM18.9474 9.38808C19.1811 9.24109 19.4898 9.31143 19.6368 9.5452C19.7838 9.77897 19.7134 10.0876 19.4797 10.2346L18.9474 9.38808ZM22.0838 8.69175C21.8426 8.82616 21.5381 8.73958 21.4036 8.49837C21.2692 8.25714 21.3558 7.95263 21.597 7.81821L22.0838 8.69175ZM24.3262 6.391C24.5743 6.26959 24.8737 6.37222 24.9952 6.62024C25.1166 6.86826 25.0139 7.16775 24.7659 7.28916L24.3262 6.391ZM27.5188 6.03134C27.2647 6.13936 26.9711 6.02091 26.8631 5.76677C26.755 5.51263 26.8735 5.21904 27.1276 5.11102L27.5188 6.03134ZM29.9935 3.98237C30.253 3.88808 30.5399 4.02206 30.6341 4.28161C30.7284 4.54115 30.5945 4.82799 30.3349 4.92228L29.9935 3.98237ZM33.2064 3.96534C32.9422 4.04561 32.6629 3.89648 32.5826 3.63226C32.5024 3.36804 32.6515 3.08878 32.9157 3.00852L33.2064 3.96534ZM35.8861 2.19225C36.1542 2.12621 36.4251 2.29004 36.4911 2.55817C36.5572 2.82631 36.3933 3.0972 36.1252 3.16323L35.8861 2.19225ZM39.0832 2.51786C38.812 2.56952 38.5502 2.3915 38.4985 2.12023C38.4469 1.84896 38.6249 1.58718 38.8962 1.53551L39.0832 2.51786ZM41.9375 1.03942C42.2111 1.00218 42.4631 1.19381 42.5003 1.46743C42.5376 1.74105 42.3459 1.99305 42.0723 2.03028L41.9375 1.03942ZM45.082 1.7009C44.8068 1.72375 44.5652 1.51919 44.5424 1.24399C44.5195 0.968798 44.7241 0.727182 44.9993 0.70433L45.082 1.7009ZM48.0709 0.529226C48.3469 0.52062 48.5776 0.737394 48.5862 1.0134C48.5948 1.28941 48.3781 1.52014 48.1021 1.52874L48.0709 0.529226ZM51.1274 1.5116C50.8513 1.50617 50.6319 1.27795 50.6373 1.00186C50.6427 0.725771 50.871 0.506361 51.1471 0.511795L51.1274 1.5116ZM54.2202 0.649254C54.4957 0.668442 54.7035 0.907312 54.6843 1.18279C54.6651 1.45826 54.4262 1.66603 54.1507 1.64684L54.2202 0.649254ZM57.1657 1.9311C56.8915 1.89852 56.6956 1.64981 56.7282 1.3756C56.7608 1.10139 57.0095 0.905506 57.2837 0.938089L57.1657 1.9311ZM60.3316 1.37424C60.604 1.4198 60.7879 1.67753 60.7423 1.94989C60.6967 2.22224 60.439 2.40609 60.1666 2.36053L60.3316 1.37424ZM63.1488 2.93089C62.8789 2.8728 62.7071 2.60686 62.7652 2.3369C62.8233 2.06693 63.0892 1.89517 63.3592 1.95326L63.1488 2.93089ZM66.3477 2.66669C66.6148 2.73675 66.7746 3.01007 66.7045 3.27718C66.6345 3.54429 66.3612 3.70403 66.094 3.63398L66.3477 2.66669ZM69.0033 4.46458C68.7394 4.38312 68.5916 4.10319 68.6731 3.83933C68.7545 3.57548 69.0345 3.42762 69.2983 3.50909L69.0033 4.46458ZM72.2149 4.47668C72.4752 4.56901 72.6113 4.85484 72.519 5.11508C72.4267 5.37533 72.1408 5.51146 71.8806 5.41913L72.2149 4.47668ZM74.7249 6.49313C74.4686 6.39047 74.344 6.09944 74.4466 5.84309C74.5493 5.58673 74.8403 5.46214 75.0967 5.56479L74.7249 6.49313ZM77.927 6.76194C78.1792 6.87432 78.2926 7.16991 78.1802 7.42215C78.0678 7.67439 77.7722 7.78776 77.52 7.67537L77.927 6.76194ZM80.2605 8.95739C80.0126 8.83586 79.9101 8.53633 80.0316 8.28837C80.1531 8.0404 80.4527 7.93791 80.7006 8.05943L80.2605 8.95739ZM83.4362 9.46071C83.6798 9.59087 83.7717 9.89382 83.6415 10.1374C83.5114 10.3809 83.2084 10.4728 82.9649 10.3427L83.4362 9.46071ZM85.6288 11.825C85.3898 11.6867 85.3081 11.3809 85.4464 11.1419C85.5847 10.9028 85.8906 10.8212 86.1296 10.9595L85.6288 11.825ZM88.7477 12.5309C88.9822 12.6767 89.054 12.985 88.9082 13.2195C88.7624 13.454 88.454 13.5259 88.2195 13.38L88.7477 12.5309ZM90.7768 15.0259C90.5469 14.8729 90.4846 14.5625 90.6375 14.3326C90.7905 14.1027 91.1009 14.0403 91.3308 14.1933L90.7768 15.0259ZM93.8671 15.9353C94.0924 16.095 94.1456 16.407 93.986 16.6324C93.8264 16.8577 93.5143 16.9109 93.289 16.7513L93.8671 15.9353ZM95.7323 18.5343C95.5115 18.3684 95.467 18.055 95.6328 17.8342C95.7987 17.6134 96.1121 17.5689 96.3329 17.7347L95.7323 18.5343ZM98.7707 19.6176C98.987 19.7893 99.0231 20.1038 98.8514 20.3201C98.6797 20.5364 98.3652 20.5725 98.1489 20.4009L98.7707 19.6176ZM100.498 22.3153C100.286 22.1381 100.258 21.8228 100.435 21.611C100.612 21.3991 100.928 21.3709 101.14 21.5481L100.498 22.3153ZM0.576747 27.7338C0.849447 27.3002 1.12831 26.8697 1.41324 26.4426L2.24515 26.9975C1.96518 27.4172 1.69118 27.8402 1.42325 28.2662L0.576747 27.7338ZM3.19027 23.9267C3.80327 23.1061 4.43947 22.2997 5.09816 21.5088L5.86656 22.1488C5.21914 22.9261 4.59386 23.7187 3.99143 24.5251L3.19027 23.9267ZM7.13068 19.1949C7.82656 18.4435 8.5438 17.7084 9.28171 16.9909L9.97883 17.7079C9.25346 18.4132 8.54842 19.1357 7.86439 19.8744L7.13068 19.1949ZM11.5451 14.9026C12.3157 14.2281 13.1058 13.5721 13.9148 12.9356L14.5331 13.7216C13.7379 14.3472 12.9612 14.9921 12.2038 15.655L11.5451 14.9026ZM16.3844 11.0956C17.2211 10.5058 18.0756 9.93623 18.9474 9.38808L19.4797 10.2346C18.6229 10.7734 17.783 11.3332 16.9606 11.913L16.3844 11.0956ZM21.597 7.81821C22.4908 7.32015 23.4008 6.84405 24.3262 6.391L24.7659 7.28916C23.8564 7.73437 22.9622 8.20226 22.0838 8.69175L21.597 7.81821ZM27.1276 5.11102C28.0687 4.71105 29.0242 4.33448 29.9935 3.98237L30.3349 4.92228C29.3824 5.26827 28.4435 5.6383 27.5188 6.03134L27.1276 5.11102ZM32.9157 3.00852C33.8933 2.71155 34.8836 2.43913 35.8861 2.19225L36.1252 3.16323C35.1401 3.40584 34.167 3.67353 33.2064 3.96534L32.9157 3.00852ZM38.8962 1.53551C39.899 1.34451 40.913 1.17884 41.9375 1.03942L42.0723 2.03028C41.0654 2.16732 40.0688 2.33015 39.0832 2.51786L38.8962 1.53551ZM44.9993 0.70433C46.0139 0.620075 47.0379 0.56143 48.0709 0.529226L48.1021 1.52874C47.0863 1.56041 46.0795 1.61807 45.082 1.7009L44.9993 0.70433ZM51.1471 0.511795C52.1637 0.531807 53.1882 0.577375 54.2202 0.649254L54.1507 1.64684C53.1353 1.57611 52.1274 1.53129 51.1274 1.5116L51.1471 0.511795ZM57.2837 0.938089C58.2933 1.05806 59.3094 1.20321 60.3316 1.37424L60.1666 2.36053C59.16 2.19211 58.1595 2.04919 57.1657 1.9311L57.2837 0.938089ZM63.3592 1.95326C64.3503 2.1665 65.3465 2.40411 66.3477 2.66669L66.094 3.63398C65.1071 3.37514 64.1253 3.14098 63.1488 2.93089L63.3592 1.95326ZM69.2983 3.50909C70.2665 3.808 71.2388 4.13036 72.2149 4.47668L71.8806 5.41913C70.9173 5.07739 69.9581 4.75938 69.0033 4.46458L69.2983 3.50909ZM75.0967 5.56479C76.0369 5.94132 76.9805 6.34022 77.927 6.76194L77.52 7.67537C76.585 7.25879 75.6533 6.86487 74.7249 6.49313L75.0967 5.56479ZM80.7006 8.05943C81.6101 8.50517 82.522 8.97213 83.4362 9.46071L82.9649 10.3427C82.0609 9.85954 81.1594 9.39791 80.2605 8.95739L80.7006 8.05943ZM86.1296 10.9595C87.0005 11.4634 87.8733 11.987 88.7477 12.5309L88.2195 13.38C87.3541 12.8418 86.4904 12.3235 85.6288 11.825L86.1296 10.9595ZM91.3308 14.1933C92.1749 14.7549 93.0204 15.3355 93.8671 15.9353L93.289 16.7513C92.4502 16.1571 91.6128 15.582 90.7768 15.0259L91.3308 14.1933ZM96.3329 17.7347C97.1447 18.3444 97.9573 18.9719 98.7707 19.6176L98.1489 20.4009C97.3425 19.7606 96.5369 19.1385 95.7323 18.5343L96.3329 17.7347ZM101.14 21.5481C101.535 21.8784 101.93 22.2131 102.325 22.5522L101.675 23.3113C101.282 22.9749 100.89 22.6429 100.498 22.3153L101.14 21.5481Z" fill="#F88C28"/>
</svg>
