<svg width="340" height="104" viewBox="0 0 340 104" fill="none" xmlns="http://www.w3.org/2000/svg">
<path fill-rule="evenodd" clip-rule="evenodd" d="M44.5695 52.7019L44.2873 52.7476C44.3303 52.8214 44.355 52.9073 44.355 52.999C44.355 53.0873 44.3321 53.1702 44.292 53.2422L44.5617 53.2838C44.8345 53.3258 44.9505 53.5577 44.8209 53.8017C44.6912 54.0457 44.365 54.2094 44.0922 54.1674L42.6224 53.9408C42.3782 53.9032 42.2596 53.7134 42.3305 53.499H40.865C40.5889 53.499 40.365 53.2751 40.365 52.999C40.365 52.7229 40.5889 52.499 40.865 52.499H42.3305C42.2601 52.286 42.3766 52.0969 42.6186 52.0578L44.0923 51.8195C44.3641 51.7756 44.6912 51.9375 44.823 52.1812C44.9547 52.4248 44.8412 52.658 44.5695 52.7019ZM46.7864 51.8637C46.9182 52.1074 47.2453 52.2693 47.517 52.2254L50.4646 51.7488C50.7363 51.7049 50.8498 51.4718 50.718 51.2281C50.5863 50.9844 50.2592 50.8225 49.9874 50.8664L47.0399 51.343C46.7681 51.3869 46.6547 51.6201 46.7864 51.8637ZM52.6815 50.9106C52.8133 51.1543 53.1404 51.3162 53.4121 51.2723L56.3596 50.7957C56.6314 50.7518 56.7449 50.5187 56.6131 50.275C56.4813 50.0313 56.1542 49.8694 55.8825 49.9134L52.935 50.3899C52.6632 50.4338 52.5497 50.667 52.6815 50.9106ZM58.5766 49.9575C58.7083 50.2012 59.0354 50.3631 59.3072 50.3192L62.2547 49.8426C62.5265 49.7987 62.64 49.5656 62.5082 49.3219C62.3764 49.0782 62.0493 48.9163 61.7776 48.9603L58.83 49.4368C58.5583 49.4807 58.4448 49.7139 58.5766 49.9575ZM64.4717 49.0045C64.6034 49.2481 64.9305 49.41 65.2023 49.3661L68.1498 48.8896C68.4216 48.8456 68.535 48.6125 68.4033 48.3688C68.2715 48.1251 67.9444 47.9632 67.6727 48.0072L64.7251 48.4837C64.4534 48.5276 64.3399 48.7608 64.4717 49.0045ZM70.3667 48.0514C70.4985 48.295 70.8256 48.4569 71.0974 48.413L74.0449 47.9365C74.3166 47.8925 74.4301 47.6594 74.2984 47.4157C74.1666 47.172 73.8395 47.0101 73.5677 47.0541L70.6202 47.5306C70.3485 47.5746 70.235 47.8077 70.3667 48.0514ZM76.2618 47.0983C76.3936 47.3419 76.7207 47.5038 76.9924 47.4599L79.94 46.9834C80.2117 46.9394 80.3252 46.7063 80.1934 46.4626C80.0617 46.219 79.7346 46.057 79.4628 46.101L76.5153 46.5775C76.2435 46.6215 76.1301 46.8546 76.2618 47.0983ZM82.1569 46.1452C82.2887 46.3888 82.6158 46.5508 82.8875 46.5068L85.8351 46.0303C86.1068 45.9863 86.2203 45.7532 86.0885 45.5095C85.9568 45.2659 85.6297 45.1039 85.3579 45.1479L82.4104 45.6244C82.1386 45.6684 82.0251 45.9015 82.1569 46.1452ZM88.052 45.1921C88.1837 45.4357 88.5109 45.5977 88.7826 45.5537L91.7301 45.0772C92.0019 45.0332 92.1154 44.8001 91.9836 44.5564C91.8518 44.3128 91.5247 44.1509 91.253 44.1948L88.3055 44.6713C88.0337 44.7153 87.9202 44.9484 88.052 45.1921ZM93.9471 44.239C94.0788 44.4826 94.4059 44.6446 94.6777 44.6006L97.6252 44.1241C97.897 44.0801 98.0104 43.847 97.8787 43.6033C97.7469 43.3597 97.4198 43.1978 97.1481 43.2417L94.2005 43.7182C93.9288 43.7622 93.8153 43.9953 93.9471 44.239ZM99.8421 43.2859C99.9739 43.5296 100.301 43.6915 100.573 43.6475L103.52 43.171C103.792 43.1271 103.906 42.8939 103.774 42.6502C103.642 42.4066 103.315 42.2447 103.043 42.2886L100.096 42.7651C99.8239 42.8091 99.7104 43.0422 99.8421 43.2859ZM105.737 42.3328C105.869 42.5765 106.196 42.7384 106.468 42.6944L109.415 42.2179C109.687 42.174 109.801 41.9408 109.669 41.6971C109.537 41.4535 109.21 41.2916 108.938 41.3355L105.991 41.8121C105.719 41.856 105.605 42.0891 105.737 42.3328ZM111.632 41.3797C111.764 41.6234 112.091 41.7853 112.363 41.7413L115.31 41.2648C115.582 41.2209 115.696 40.9877 115.564 40.7441C115.432 40.5004 115.105 40.3385 114.833 40.3824L111.886 40.859C111.614 40.9029 111.501 41.136 111.632 41.3797ZM117.527 40.4266C117.659 40.6703 117.986 40.8322 118.258 40.7882L121.206 40.3117C121.477 40.2678 121.591 40.0346 121.459 39.791C121.327 39.5473 121 39.3854 120.728 39.4293L117.781 39.9059C117.509 39.9498 117.396 40.1829 117.527 40.4266ZM123.422 39.4735C123.554 39.7172 123.881 39.8791 124.153 39.8352L127.101 39.3586C127.372 39.3147 127.486 39.0815 127.354 38.8379C127.222 38.5942 126.895 38.4323 126.623 38.4762L123.676 38.9528C123.404 38.9967 123.291 39.2298 123.422 39.4735ZM129.318 38.5204C129.449 38.7641 129.776 38.926 130.048 38.8821L132.996 38.4055C133.267 38.3616 133.381 38.1284 133.249 37.8848C133.117 37.6411 132.79 37.4792 132.519 37.5231L129.571 37.9997C129.299 38.0436 129.186 38.2768 129.318 38.5204ZM135.213 37.5673C135.344 37.811 135.672 37.9729 135.943 37.929L138.891 37.4524C139.163 37.4085 139.276 37.1753 139.144 36.9317C139.012 36.688 138.685 36.5261 138.414 36.57L135.466 37.0466C135.194 37.0905 135.081 37.3237 135.213 37.5673ZM141.108 36.6142C141.239 36.8579 141.567 37.0198 141.838 36.9759L144.786 36.4993C145.058 36.4554 145.171 36.2222 145.039 35.9786C144.908 35.7349 144.58 35.573 144.309 35.6169L141.361 36.0935C141.089 36.1374 140.976 36.3706 141.108 36.6142ZM147.003 35.6611C147.135 35.9048 147.462 36.0667 147.733 36.0228L150.681 35.5462C150.953 35.5023 151.066 35.2692 150.934 35.0255C150.803 34.7818 150.476 34.6199 150.204 34.6638L147.256 35.1404C146.985 35.1843 146.871 35.4175 147.003 35.6611ZM152.898 34.708C153.03 34.9517 153.357 35.1136 153.629 35.0697L156.576 34.5931C156.848 34.5492 156.961 34.3161 156.829 34.0724C156.698 33.8287 156.371 33.6668 156.099 33.7107L153.151 34.1873C152.88 34.2312 152.766 34.4644 152.898 34.708ZM158.793 33.7549C158.925 33.9986 159.252 34.1605 159.524 34.1166L162.471 33.64C162.743 33.5961 162.856 33.363 162.725 33.1193C162.593 32.8756 162.266 32.7137 161.994 32.7577L159.046 33.2342C158.775 33.2781 158.661 33.5113 158.793 33.7549ZM164.688 32.8019C164.82 33.0455 165.147 33.2074 165.419 33.1635L168.366 32.6869C168.638 32.643 168.751 32.4099 168.62 32.1662C168.488 31.9225 168.161 31.7606 167.889 31.8046L164.942 32.2811C164.67 32.325 164.556 32.5582 164.688 32.8019ZM170.583 31.8488C170.715 32.0924 171.042 32.2543 171.314 32.2104L174.261 31.7339C174.533 31.6899 174.646 31.4568 174.515 31.2131C174.383 30.9694 174.056 30.8075 173.784 30.8515L170.837 31.328C170.565 31.372 170.451 31.6051 170.583 31.8488ZM176.478 30.8957C176.61 31.1393 176.937 31.3012 177.209 31.2573L180.156 30.7808C180.428 30.7368 180.542 30.5037 180.41 30.26C180.278 30.0164 179.951 29.8544 179.679 29.8984L176.732 30.3749C176.46 30.4189 176.346 30.652 176.478 30.8957ZM182.373 29.9426C182.505 30.1862 182.832 30.3481 183.104 30.3042L186.051 29.8277C186.323 29.7837 186.437 29.5506 186.305 29.3069C186.173 29.0633 185.846 28.9013 185.574 28.9453L182.627 29.4218C182.355 29.4658 182.242 29.6989 182.373 29.9426ZM188.268 28.9895C188.4 29.2331 188.727 29.3951 188.999 29.3511L191.947 28.8746C192.218 28.8306 192.332 28.5975 192.2 28.3538C192.068 28.1102 191.741 27.9482 191.469 27.9922L188.522 28.4687C188.25 28.5127 188.137 28.7458 188.268 28.9895ZM194.163 28.0364C194.295 28.28 194.622 28.442 194.894 28.398L197.842 27.9215C198.113 27.8775 198.227 27.6444 198.095 27.4007C197.963 27.1571 197.636 26.9952 197.364 27.0391L194.417 27.5156C194.145 27.5596 194.032 27.7927 194.163 28.0364ZM200.059 27.0833C200.19 27.327 200.517 27.4889 200.789 27.4449L203.737 26.9684C204.008 26.9245 204.122 26.6913 203.99 26.4476C203.858 26.204 203.531 26.0421 203.26 26.086L200.312 26.5625C200.04 26.6065 199.927 26.8396 200.059 27.0833ZM205.954 26.1302C206.085 26.3739 206.412 26.5358 206.684 26.4918L209.632 26.0153C209.904 25.9714 210.017 25.7382 209.885 25.4945C209.753 25.2509 209.426 25.089 209.155 25.1329L206.207 25.6095C205.935 25.6534 205.822 25.8865 205.954 26.1302ZM211.849 25.1771C211.98 25.4208 212.308 25.5827 212.579 25.5387L215.527 25.0622C215.799 25.0183 215.912 24.7851 215.78 24.5415C215.649 24.2978 215.321 24.1359 215.05 24.1798L212.102 24.6564C211.83 24.7003 211.717 24.9334 211.849 25.1771ZM217.744 24.224C217.876 24.4677 218.203 24.6296 218.474 24.5856L221.422 24.1091C221.694 24.0652 221.807 23.832 221.675 23.5884C221.544 23.3447 221.217 23.1828 220.945 23.2267L217.997 23.7033C217.725 23.7472 217.612 23.9803 217.744 24.224ZM223.639 23.2709C223.771 23.5146 224.098 23.6765 224.369 23.6326L227.317 23.156C227.589 23.1121 227.702 22.8789 227.57 22.6353C227.439 22.3916 227.112 22.2297 226.84 22.2736L223.892 22.7502C223.621 22.7941 223.507 23.0272 223.639 23.2709ZM229.534 22.3178C229.666 22.5615 229.993 22.7234 230.265 22.6795L231.738 22.4412C232.01 22.3973 232.124 22.1641 231.992 21.9204C231.86 21.6768 231.533 21.5149 231.261 21.5588L229.787 21.7971C229.516 21.841 229.402 22.0742 229.534 22.3178ZM0 52.999C0 52.7229 0.223858 52.499 0.5 52.499H1.995C2.27114 52.499 2.495 52.7229 2.495 52.999C2.495 53.2751 2.27114 53.499 1.995 53.499H0.5C0.223858 53.499 0 53.2751 0 52.999ZM4.485 52.999C4.485 52.7229 4.70886 52.499 4.985 52.499H7.975C8.25114 52.499 8.475 52.7229 8.475 52.999C8.475 53.2751 8.25114 53.499 7.975 53.499H4.985C4.70886 53.499 4.485 53.2751 4.485 52.999ZM10.465 52.999C10.465 52.7229 10.6889 52.499 10.965 52.499H13.955C14.2311 52.499 14.455 52.7229 14.455 52.999C14.455 53.2751 14.2311 53.499 13.955 53.499H10.965C10.6889 53.499 10.465 53.2751 10.465 52.999ZM16.445 52.999C16.445 52.7229 16.6689 52.499 16.945 52.499H19.935C20.2111 52.499 20.435 52.7229 20.435 52.999C20.435 53.2751 20.2111 53.499 19.935 53.499H16.945C16.6689 53.499 16.445 53.2751 16.445 52.999ZM22.425 52.999C22.425 52.7229 22.6489 52.499 22.925 52.499H25.915C26.1911 52.499 26.415 52.7229 26.415 52.999C26.415 53.2751 26.1911 53.499 25.915 53.499H22.925C22.6489 53.499 22.425 53.2751 22.425 52.999ZM28.405 52.999C28.405 52.7229 28.6289 52.499 28.905 52.499H31.895C32.1711 52.499 32.395 52.7229 32.395 52.999C32.395 53.2751 32.1711 53.499 31.895 53.499H28.905C28.6289 53.499 28.405 53.2751 28.405 52.999ZM34.385 52.999C34.385 52.7229 34.6089 52.499 34.885 52.499H37.875C38.1511 52.499 38.375 52.7229 38.375 52.999C38.375 53.2751 38.1511 53.499 37.875 53.499H34.885C34.6089 53.499 34.385 53.2751 34.385 52.999ZM46.345 52.999C46.345 52.7229 46.5689 52.499 46.845 52.499H49.835C50.1111 52.499 50.335 52.7229 50.335 52.999C50.335 53.2751 50.1111 53.499 49.835 53.499H46.845C46.5689 53.499 46.345 53.2751 46.345 52.999ZM52.325 52.999C52.325 52.7229 52.5489 52.499 52.825 52.499H55.815C56.0912 52.499 56.315 52.7229 56.315 52.999C56.315 53.2751 56.0912 53.499 55.815 53.499H52.825C52.5489 53.499 52.325 53.2751 52.325 52.999ZM58.305 52.999C58.305 52.7229 58.5289 52.499 58.805 52.499H61.795C62.0712 52.499 62.295 52.7229 62.295 52.999C62.295 53.2751 62.0712 53.499 61.795 53.499H58.805C58.5289 53.499 58.305 53.2751 58.305 52.999ZM64.285 52.999C64.285 52.7229 64.5089 52.499 64.785 52.499H67.775C68.0511 52.499 68.275 52.7229 68.275 52.999C68.275 53.2751 68.0511 53.499 67.775 53.499H64.785C64.5089 53.499 64.285 53.2751 64.285 52.999ZM70.265 52.999C70.265 52.7229 70.4889 52.499 70.765 52.499H73.755C74.0312 52.499 74.255 52.7229 74.255 52.999C74.255 53.2751 74.0312 53.499 73.755 53.499H70.765C70.4889 53.499 70.265 53.2751 70.265 52.999ZM76.245 52.999C76.245 52.7229 76.4689 52.499 76.745 52.499H79.735C80.0111 52.499 80.235 52.7229 80.235 52.999C80.235 53.2751 80.0111 53.499 79.735 53.499H76.745C76.4689 53.499 76.245 53.2751 76.245 52.999ZM82.225 52.999C82.225 52.7229 82.4489 52.499 82.725 52.499H85.715C85.9911 52.499 86.215 52.7229 86.215 52.999C86.215 53.2751 85.9911 53.499 85.715 53.499H82.725C82.4489 53.499 82.225 53.2751 82.225 52.999ZM88.205 52.999C88.205 52.7229 88.4289 52.499 88.705 52.499H91.695C91.9711 52.499 92.195 52.7229 92.195 52.999C92.195 53.2751 91.9711 53.499 91.695 53.499H88.705C88.4289 53.499 88.205 53.2751 88.205 52.999ZM94.185 52.999C94.185 52.7229 94.4089 52.499 94.685 52.499H97.675C97.9511 52.499 98.175 52.7229 98.175 52.999C98.175 53.2751 97.9511 53.499 97.675 53.499H94.685C94.4089 53.499 94.185 53.2751 94.185 52.999ZM100.165 52.999C100.165 52.7229 100.389 52.499 100.665 52.499H103.655C103.931 52.499 104.155 52.7229 104.155 52.999C104.155 53.2751 103.931 53.499 103.655 53.499H100.665C100.389 53.499 100.165 53.2751 100.165 52.999ZM106.145 52.999C106.145 52.7229 106.369 52.499 106.645 52.499H109.635C109.911 52.499 110.135 52.7229 110.135 52.999C110.135 53.2751 109.911 53.499 109.635 53.499H106.645C106.369 53.499 106.145 53.2751 106.145 52.999ZM112.125 52.999C112.125 52.7229 112.349 52.499 112.625 52.499H115.615C115.891 52.499 116.115 52.7229 116.115 52.999C116.115 53.2751 115.891 53.499 115.615 53.499H112.625C112.349 53.499 112.125 53.2751 112.125 52.999ZM118.105 52.999C118.105 52.7229 118.329 52.499 118.605 52.499H121.595C121.871 52.499 122.095 52.7229 122.095 52.999C122.095 53.2751 121.871 53.499 121.595 53.499H118.605C118.329 53.499 118.105 53.2751 118.105 52.999ZM124.085 52.999C124.085 52.7229 124.309 52.499 124.585 52.499H127.575C127.851 52.499 128.075 52.7229 128.075 52.999C128.075 53.2751 127.851 53.499 127.575 53.499H124.585C124.309 53.499 124.085 53.2751 124.085 52.999ZM130.065 52.999C130.065 52.7229 130.289 52.499 130.565 52.499H133.555C133.831 52.499 134.055 52.7229 134.055 52.999C134.055 53.2751 133.831 53.499 133.555 53.499H130.565C130.289 53.499 130.065 53.2751 130.065 52.999ZM136.045 52.999C136.045 52.7229 136.269 52.499 136.545 52.499H139.535C139.811 52.499 140.035 52.7229 140.035 52.999C140.035 53.2751 139.811 53.499 139.535 53.499H136.545C136.269 53.499 136.045 53.2751 136.045 52.999ZM142.025 52.999C142.025 52.7229 142.249 52.499 142.525 52.499H145.515C145.791 52.499 146.015 52.7229 146.015 52.999C146.015 53.2751 145.791 53.499 145.515 53.499H142.525C142.249 53.499 142.025 53.2751 142.025 52.999ZM148.005 52.999C148.005 52.7229 148.229 52.499 148.505 52.499H151.495C151.771 52.499 151.995 52.7229 151.995 52.999C151.995 53.2751 151.771 53.499 151.495 53.499H148.505C148.229 53.499 148.005 53.2751 148.005 52.999ZM153.985 52.999C153.985 52.7229 154.209 52.499 154.485 52.499H157.475C157.751 52.499 157.975 52.7229 157.975 52.999C157.975 53.2751 157.751 53.499 157.475 53.499H154.485C154.209 53.499 153.985 53.2751 153.985 52.999ZM159.965 52.999C159.965 52.7229 160.189 52.499 160.465 52.499H163.455C163.731 52.499 163.955 52.7229 163.955 52.999C163.955 53.2751 163.731 53.499 163.455 53.499H160.465C160.189 53.499 159.965 53.2751 159.965 52.999ZM165.945 52.999C165.945 52.7229 166.169 52.499 166.445 52.499H169.435C169.711 52.499 169.935 52.7229 169.935 52.999C169.935 53.2751 169.711 53.499 169.435 53.499H166.445C166.169 53.499 165.945 53.2751 165.945 52.999ZM171.925 52.999C171.925 52.7229 172.149 52.499 172.425 52.499H175.415C175.691 52.499 175.915 52.7229 175.915 52.999C175.915 53.2751 175.691 53.499 175.415 53.499H172.425C172.149 53.499 171.925 53.2751 171.925 52.999ZM177.905 52.999C177.905 52.7229 178.129 52.499 178.405 52.499H181.395C181.671 52.499 181.895 52.7229 181.895 52.999C181.895 53.2751 181.671 53.499 181.395 53.499H178.405C178.129 53.499 177.905 53.2751 177.905 52.999ZM183.885 52.999C183.885 52.7229 184.109 52.499 184.385 52.499H187.375C187.651 52.499 187.875 52.7229 187.875 52.999C187.875 53.2751 187.651 53.499 187.375 53.499H184.385C184.109 53.499 183.885 53.2751 183.885 52.999ZM189.865 52.999C189.865 52.7229 190.089 52.499 190.365 52.499H193.355C193.631 52.499 193.855 52.7229 193.855 52.999C193.855 53.2751 193.631 53.499 193.355 53.499H190.365C190.089 53.499 189.865 53.2751 189.865 52.999ZM195.845 52.999C195.845 52.7229 196.069 52.499 196.345 52.499H199.335C199.611 52.499 199.835 52.7229 199.835 52.999C199.835 53.2751 199.611 53.499 199.335 53.499H196.345C196.069 53.499 195.845 53.2751 195.845 52.999ZM201.825 52.999C201.825 52.7229 202.049 52.499 202.325 52.499H205.315C205.591 52.499 205.815 52.7229 205.815 52.999C205.815 53.2751 205.591 53.499 205.315 53.499H202.325C202.049 53.499 201.825 53.2751 201.825 52.999ZM207.805 52.999C207.805 52.7229 208.029 52.499 208.305 52.499H211.295C211.571 52.499 211.795 52.7229 211.795 52.999C211.795 53.2751 211.571 53.499 211.295 53.499H208.305C208.029 53.499 207.805 53.2751 207.805 52.999ZM213.785 52.999C213.785 52.7229 214.009 52.499 214.285 52.499H217.275C217.551 52.499 217.775 52.7229 217.775 52.999C217.775 53.2751 217.551 53.499 217.275 53.499H214.285C214.009 53.499 213.785 53.2751 213.785 52.999ZM219.765 52.999C219.765 52.7229 219.989 52.499 220.265 52.499H223.255C223.531 52.499 223.755 52.7229 223.755 52.999C223.755 53.2751 223.531 53.499 223.255 53.499H220.265C219.989 53.499 219.765 53.2751 219.765 52.999ZM225.745 52.999C225.745 52.7229 225.969 52.499 226.245 52.499H229.235C229.511 52.499 229.735 52.7229 229.735 52.999C229.735 53.2751 229.511 53.499 229.235 53.499H226.245C225.969 53.499 225.745 53.2751 225.745 52.999ZM231.725 52.999C231.725 52.7229 231.949 52.499 232.225 52.499H235.215C235.491 52.499 235.715 52.7229 235.715 52.999C235.715 53.2751 235.491 53.499 235.215 53.499H232.225C231.949 53.499 231.725 53.2751 231.725 52.999ZM237.705 52.999C237.705 52.7229 237.929 52.499 238.205 52.499H241.195C241.471 52.499 241.695 52.7229 241.695 52.999C241.695 53.2751 241.471 53.499 241.195 53.499H238.205C237.929 53.499 237.705 53.2751 237.705 52.999ZM243.685 52.999C243.685 52.7229 243.909 52.499 244.185 52.499H247.175C247.451 52.499 247.675 52.7229 247.675 52.999C247.675 53.2751 247.451 53.499 247.175 53.499H244.185C243.909 53.499 243.685 53.2751 243.685 52.999ZM249.665 52.999C249.665 52.7229 249.889 52.499 250.165 52.499H253.155C253.431 52.499 253.655 52.7229 253.655 52.999C253.655 53.2751 253.431 53.499 253.155 53.499H250.165C249.889 53.499 249.665 53.2751 249.665 52.999ZM255.645 52.999C255.645 52.7229 255.869 52.499 256.145 52.499H259.135C259.411 52.499 259.635 52.7229 259.635 52.999C259.635 53.2751 259.411 53.499 259.135 53.499H256.145C255.869 53.499 255.645 53.2751 255.645 52.999ZM261.625 52.999C261.625 52.7229 261.849 52.499 262.125 52.499H265.115C265.391 52.499 265.615 52.7229 265.615 52.999C265.615 53.2751 265.391 53.499 265.115 53.499H262.125C261.849 53.499 261.625 53.2751 261.625 52.999ZM267.605 52.999C267.605 52.7229 267.829 52.499 268.105 52.499H271.095C271.371 52.499 271.595 52.7229 271.595 52.999C271.595 53.2751 271.371 53.499 271.095 53.499H268.105C267.829 53.499 267.605 53.2751 267.605 52.999ZM273.585 52.999C273.585 52.7229 273.809 52.499 274.085 52.499H277.075C277.351 52.499 277.575 52.7229 277.575 52.999C277.575 53.2751 277.351 53.499 277.075 53.499H274.085C273.809 53.499 273.585 53.2751 273.585 52.999ZM279.565 52.999C279.565 52.7229 279.789 52.499 280.065 52.499H283.055C283.331 52.499 283.555 52.7229 283.555 52.999C283.555 53.2751 283.331 53.499 283.055 53.499H280.065C279.789 53.499 279.565 53.2751 279.565 52.999ZM285.545 52.999C285.545 52.7229 285.769 52.499 286.045 52.499H289.035C289.311 52.499 289.535 52.7229 289.535 52.999C289.535 53.2751 289.311 53.499 289.035 53.499H286.045C285.769 53.499 285.545 53.2751 285.545 52.999ZM291.525 52.999C291.525 52.7229 291.749 52.499 292.025 52.499H295.015C295.291 52.499 295.515 52.7229 295.515 52.999C295.515 53.2751 295.291 53.499 295.015 53.499H292.025C291.749 53.499 291.525 53.2751 291.525 52.999ZM297.505 52.999C297.505 52.7229 297.729 52.499 298.005 52.499H299.5C299.776 52.499 300 52.7229 300 52.999C300 53.2751 299.776 53.499 299.5 53.499H298.005C297.729 53.499 297.505 53.2751 297.505 52.999ZM47.5015 53.7369C47.2287 53.6949 46.9025 53.8586 46.7728 54.1026C46.6432 54.3466 46.7592 54.5785 47.032 54.6205L49.9717 55.0737C50.2444 55.1157 50.5707 54.952 50.7003 54.708C50.83 54.464 50.714 54.2321 50.4412 54.1901L47.5015 53.7369ZM53.3809 54.6432C53.1082 54.6012 52.7819 54.7649 52.6523 55.0089C52.5226 55.2529 52.6387 55.4848 52.9114 55.5268L55.8511 55.98C56.1239 56.022 56.4501 55.8583 56.5798 55.6143C56.7094 55.3703 56.5934 55.1384 56.3207 55.0964L53.3809 54.6432ZM59.2604 55.5495C58.9876 55.5075 58.6614 55.6712 58.5318 55.9152C58.4021 56.1592 58.5181 56.3911 58.7909 56.4331L61.7306 56.8862C62.0034 56.9283 62.3296 56.7646 62.4592 56.5206C62.5889 56.2766 62.4729 56.0447 62.2001 56.0026L59.2604 55.5495ZM65.1398 56.4558C64.8671 56.4137 64.5409 56.5775 64.4112 56.8215C64.2816 57.0655 64.3976 57.2973 64.6703 57.3394L67.6101 57.7925C67.8828 57.8346 68.209 57.6708 68.3387 57.4268C68.4683 57.1828 68.3523 56.951 68.0796 56.9089L65.1398 56.4558ZM71.0193 57.3621C70.7465 57.32 70.4203 57.4837 70.2907 57.7277C70.161 57.9717 70.277 58.2036 70.5498 58.2457L73.4895 58.6988C73.7623 58.7408 74.0885 58.5771 74.2181 58.3331C74.3478 58.0891 74.2318 57.8572 73.959 57.8152L71.0193 57.3621ZM76.8988 58.2683C76.626 58.2263 76.2998 58.39 76.1701 58.634C76.0405 58.878 76.1565 59.1099 76.4292 59.1519L79.369 59.6051C79.6417 59.6471 79.9679 59.4834 80.0976 59.2394C80.2272 58.9954 80.1112 58.7635 79.8385 58.7215L76.8988 58.2683ZM82.7782 59.1746C82.5054 59.1326 82.1792 59.2963 82.0496 59.5403C81.9199 59.7843 82.0359 60.0162 82.3087 60.0582L85.2484 60.5114C85.5212 60.5534 85.8474 60.3897 85.9771 60.1457C86.1067 59.9017 85.9907 59.6698 85.7179 59.6278L82.7782 59.1746ZM88.6577 60.0809C88.3849 60.0389 88.0587 60.2026 87.929 60.4466C87.7994 60.6906 87.9154 60.9225 88.1882 60.9645L91.1279 61.4176C91.4006 61.4597 91.7269 61.296 91.8565 61.052C91.9862 60.808 91.8701 60.5761 91.5974 60.534L88.6577 60.0809ZM94.5371 60.9872C94.2644 60.9451 93.9381 61.1089 93.8085 61.3529C93.6788 61.5969 93.7949 61.8287 94.0676 61.8708L97.0073 62.3239C97.2801 62.366 97.6063 62.2022 97.736 61.9582C97.8656 61.7143 97.7496 61.4824 97.4768 61.4403L94.5371 60.9872ZM100.417 61.8935C100.144 61.8514 99.8176 62.0151 99.688 62.2591C99.5583 62.5031 99.6743 62.735 99.9471 62.7771L102.887 63.2302C103.16 63.2722 103.486 63.1085 103.615 62.8645C103.745 62.6205 103.629 62.3886 103.356 62.3466L100.417 61.8935ZM106.296 62.7997C106.023 62.7577 105.697 62.9214 105.567 63.1654C105.438 63.4094 105.554 63.6413 105.827 63.6833L108.766 64.1365C109.039 64.1785 109.365 64.0148 109.495 63.7708C109.625 63.5268 109.509 63.2949 109.236 63.2529L106.296 62.7997ZM112.175 63.706C111.903 63.664 111.577 63.8277 111.447 64.0717C111.317 64.3157 111.433 64.5476 111.706 64.5896L114.646 65.0428C114.918 65.0848 115.245 64.9211 115.374 64.6771C115.504 64.4331 115.388 64.2012 115.115 64.1592L112.175 63.706ZM118.055 64.6123C117.782 64.5703 117.456 64.734 117.326 64.978C117.197 65.222 117.313 65.4539 117.585 65.4959L120.525 65.949C120.798 65.9911 121.124 65.8274 121.254 65.5834C121.383 65.3394 121.267 65.1075 120.995 65.0654L118.055 64.6123ZM123.934 65.5186C123.662 65.4765 123.335 65.6403 123.206 65.8843C123.076 66.1283 123.192 66.3601 123.465 66.4022L126.405 66.8553C126.677 66.8974 127.004 66.7336 127.133 66.4896C127.263 66.2457 127.147 66.0138 126.874 65.9717L123.934 65.5186ZM129.814 66.4249C129.541 66.3828 129.215 66.5465 129.085 66.7905C128.956 67.0345 129.072 67.2664 129.344 67.3085L132.284 67.7616C132.557 67.8036 132.883 67.6399 133.013 67.3959C133.142 67.1519 133.026 66.92 132.754 66.878L129.814 66.4249ZM135.693 67.3311C135.421 67.2891 135.094 67.4528 134.965 67.6968C134.835 67.9408 134.951 68.1727 135.224 68.2147L138.163 68.6679C138.436 68.7099 138.762 68.5462 138.892 68.3022C139.022 68.0582 138.906 67.8263 138.633 67.7843L135.693 67.3311ZM141.573 68.2374C141.3 68.1954 140.974 68.3591 140.844 68.6031C140.714 68.8471 140.83 69.079 141.103 69.121L144.043 69.5742C144.316 69.6162 144.642 69.4525 144.772 69.2085C144.901 68.9645 144.785 68.7326 144.512 68.6906L141.573 68.2374ZM147.452 69.1437C147.179 69.1017 146.853 69.2654 146.724 69.5094C146.594 69.7534 146.71 69.9853 146.983 70.0273L149.922 70.4804C150.195 70.5225 150.521 70.3588 150.651 70.1148C150.781 69.8708 150.665 69.6389 150.392 69.5968L147.452 69.1437ZM153.332 70.05C153.059 70.0079 152.733 70.1717 152.603 70.4156C152.473 70.6596 152.589 70.8915 152.862 70.9336L155.802 71.3867C156.075 71.4288 156.401 71.265 156.53 71.021C156.66 70.777 156.544 70.5452 156.271 70.5031L153.332 70.05ZM159.211 70.9563C158.938 70.9142 158.612 71.0779 158.482 71.3219C158.353 71.5659 158.469 71.7978 158.742 71.8399L161.681 72.293C161.954 72.335 162.28 72.1713 162.41 71.9273C162.54 71.6833 162.424 71.4514 162.151 71.4094L159.211 70.9563ZM165.091 71.8625C164.818 71.8205 164.492 71.9842 164.362 72.2282C164.232 72.4722 164.348 72.7041 164.621 72.7461L167.561 73.1993C167.834 73.2413 168.16 73.0776 168.289 72.8336C168.419 72.5896 168.303 72.3577 168.03 72.3157L165.091 71.8625ZM170.97 72.7688C170.697 72.7268 170.371 72.8905 170.241 73.1345C170.112 73.3785 170.228 73.6104 170.5 73.6524L173.44 74.1056C173.713 74.1476 174.039 73.9839 174.169 73.7399C174.298 73.4959 174.182 73.264 173.91 73.222L170.97 72.7688ZM176.849 73.6751C176.577 73.6331 176.25 73.7968 176.121 74.0408C175.991 74.2848 176.107 74.5167 176.38 74.5587L179.32 75.0118C179.592 75.0539 179.919 74.8902 180.048 74.6462C180.178 74.4022 180.062 74.1703 179.789 74.1282L176.849 73.6751ZM182.729 74.5814C182.456 74.5393 182.13 74.703 182 74.947C181.871 75.191 181.987 75.4229 182.259 75.465L185.199 75.9181C185.472 75.9602 185.798 75.7964 185.928 75.5524C186.057 75.3084 185.941 75.0766 185.669 75.0345L182.729 74.5814ZM188.608 75.4877C188.336 75.4456 188.009 75.6093 187.88 75.8533C187.75 76.0973 187.866 76.3292 188.139 76.3713L191.079 76.8244C191.351 76.8664 191.678 76.7027 191.807 76.4587C191.937 76.2147 191.821 75.9828 191.548 75.9408L188.608 75.4877ZM194.488 76.3939C194.215 76.3519 193.889 76.5156 193.759 76.7596C193.63 77.0036 193.746 77.2355 194.018 77.2775L196.958 77.7307C197.231 77.7727 197.557 77.609 197.687 77.365C197.816 77.121 197.7 76.8891 197.427 76.8471L194.488 76.3939ZM200.367 77.3002C200.094 77.2582 199.768 77.4219 199.639 77.6659C199.509 77.9099 199.625 78.1418 199.898 78.1838L202.837 78.637C203.11 78.679 203.436 78.5153 203.566 78.2713C203.696 78.0273 203.58 77.7954 203.307 77.7534L200.367 77.3002ZM206.247 78.2065C205.974 78.1645 205.648 78.3282 205.518 78.5722C205.388 78.8162 205.504 79.048 205.777 79.0901L208.717 79.5432C208.99 79.5853 209.316 79.4216 209.446 79.1776C209.575 78.9336 209.459 78.7017 209.186 78.6596L206.247 78.2065ZM212.126 79.1128C211.853 79.0707 211.527 79.2344 211.397 79.4784C211.268 79.7224 211.384 79.9543 211.657 79.9964L214.596 80.4495C214.869 80.4916 215.195 80.3278 215.325 80.0838C215.455 79.8398 215.339 79.608 215.066 79.5659L212.126 79.1128ZM218.006 80.0191C217.733 79.977 217.407 80.1407 217.277 80.3847C217.147 80.6287 217.263 80.8606 217.536 80.9026L220.476 81.3558C220.749 81.3978 221.075 81.2341 221.204 80.9901C221.334 80.7461 221.218 80.5142 220.945 80.4722L218.006 80.0191ZM223.885 80.9253C223.612 80.8833 223.286 81.047 223.156 81.291C223.027 81.535 223.143 81.7669 223.416 81.8089L226.355 82.2621C226.628 82.3041 226.954 82.1404 227.084 81.8964C227.214 81.6524 227.098 81.4205 226.825 81.3785L223.885 80.9253ZM229.764 81.8316C229.492 81.7896 229.165 81.9533 229.036 82.1973C228.906 82.4413 229.022 82.6732 229.295 82.7152L230.765 82.9418C231.038 82.9838 231.364 82.8201 231.494 82.5761C231.623 82.3321 231.507 82.1002 231.234 82.0582L229.764 81.8316Z" fill="#F88C28"/>
<circle cx="251" cy="20" r="19.5" fill="white" stroke="#344351"/>
<ellipse cx="251.001" cy="15" rx="4.66667" ry="5" fill="#F88C28"/>
<path d="M258.346 29.3333H243.656C242.993 29.3333 242.517 28.7012 242.767 28.087C243.909 25.2859 246.589 21.3333 251.001 21.3333C255.412 21.3333 258.093 25.2859 259.234 28.087C259.484 28.7012 259.009 29.3333 258.346 29.3333Z" fill="#F88C28" stroke="#F88C28"/>
<circle cx="251" cy="84" r="19.5" fill="white" stroke="#344351"/>
<ellipse cx="251.001" cy="79" rx="4.66667" ry="5" fill="#F88C28"/>
<path d="M258.346 93.3333H243.656C242.993 93.3333 242.517 92.7012 242.767 92.087C243.909 89.2859 246.589 85.3333 251.001 85.3333C255.412 85.3333 258.093 89.2859 259.234 92.087C259.484 92.7012 259.009 93.3333 258.346 93.3333Z" fill="#F88C28" stroke="#F88C28"/>
<circle cx="320" cy="52" r="19.5" fill="white" stroke="#344351"/>
<ellipse cx="320.001" cy="47" rx="4.66667" ry="5" fill="#F88C28"/>
<path d="M327.346 61.3333H312.656C311.993 61.3333 311.517 60.7012 311.767 60.087C312.909 57.2859 315.589 53.3333 320.001 53.3333C324.412 53.3333 327.093 57.2859 328.234 60.087C328.484 60.7012 328.009 61.3333 327.346 61.3333Z" fill="#F88C28" stroke="#F88C28"/>
</svg>
