<svg width="175" height="90" viewBox="0 0 175 90" fill="none" xmlns="http://www.w3.org/2000/svg">
<path fill-rule="evenodd" clip-rule="evenodd" d="M19.5938 42.9999C19.6644 42.9999 19.7317 43.0146 19.7927 43.041C19.8281 42.8673 19.9567 42.7195 20.1403 42.6672L21.5797 42.2579C21.8453 42.1824 22.1254 42.3355 22.2054 42.5998C22.2854 42.8641 22.135 43.1397 21.8694 43.2152L20.6082 43.5739L21.8805 43.9498C22.1452 44.028 22.2928 44.3051 22.2101 44.5686C22.1274 44.8322 21.8457 44.9824 21.581 44.9042L20.1354 44.4771C19.9053 44.4091 19.7638 44.191 19.7849 43.962C19.726 43.9864 19.6615 43.9999 19.5938 43.9999H16.6562C16.3801 43.9999 16.1562 43.776 16.1562 43.4999C16.1562 43.2237 16.3801 42.9999 16.6562 42.9999H19.5938ZM24.1225 42.0546C24.2025 42.319 24.4827 42.472 24.7482 42.3965L27.627 41.5779C27.8926 41.5023 28.0431 41.2268 27.9631 40.9625C27.8831 40.6981 27.6029 40.5451 27.3374 40.6206L24.4585 41.4393C24.193 41.5148 24.0425 41.7903 24.1225 42.0546ZM29.8802 40.4173C29.9602 40.6817 30.2403 40.8347 30.5059 40.7592L33.3847 39.9406C33.6503 39.865 33.8007 39.5895 33.7207 39.3252C33.6407 39.0608 33.3606 38.9078 33.095 38.9833L30.2162 39.8019C29.9506 39.8775 29.8002 40.153 29.8802 40.4173ZM35.6378 38.78C35.7178 39.0443 35.9979 39.1974 36.2635 39.1219L39.1423 38.3032C39.4079 38.2277 39.5583 37.9522 39.4783 37.6879C39.3983 37.4235 39.1182 37.2704 38.8526 37.346L35.9738 38.1646C35.7082 38.2401 35.5578 38.5157 35.6378 38.78ZM41.3954 37.1427C41.4754 37.407 41.7556 37.5601 42.0211 37.4846L44.9 36.6659C45.1655 36.5904 45.316 36.3149 45.236 36.0505C45.156 35.7862 44.8758 35.6331 44.6103 35.7087L41.7314 36.5273C41.4659 36.6028 41.3154 36.8783 41.3954 37.1427ZM47.1531 35.5054C47.2331 35.7697 47.5132 35.9228 47.7788 35.8473L50.6576 35.0286C50.9232 34.9531 51.0736 34.6776 50.9936 34.4132C50.9136 34.1489 50.6335 33.9958 50.3679 34.0713L47.4891 34.89C47.2235 34.9655 47.0731 35.241 47.1531 35.5054ZM52.9107 33.8681C52.9907 34.1324 53.2708 34.2855 53.5364 34.21L56.4152 33.3913C56.6808 33.3158 56.8312 33.0403 56.7513 32.7759C56.6713 32.5116 56.3911 32.3585 56.1255 32.434L53.2467 33.2527C52.9812 33.3282 52.8307 33.6037 52.9107 33.8681ZM58.6683 32.2307C58.7483 32.4951 59.0285 32.6482 59.2941 32.5726L62.1729 31.754C62.4384 31.6785 62.5889 31.4029 62.5089 31.1386C62.4289 30.8743 62.1488 30.7212 61.8832 30.7967L59.0044 31.6154C58.7388 31.6909 58.5884 31.9664 58.6683 32.2307ZM64.426 30.5934C64.506 30.8578 64.7861 31.0108 65.0517 30.9353L67.9305 30.1167C68.1961 30.0411 68.3465 29.7656 68.2665 29.5013C68.1865 29.2369 67.9064 29.0839 67.6408 29.1594L64.762 29.9781C64.4964 30.0536 64.346 30.3291 64.426 30.5934ZM70.1836 28.9561C70.2636 29.2205 70.5438 29.3735 70.8093 29.298L73.6881 28.4794C73.9537 28.4038 74.1042 28.1283 74.0242 27.864C73.9442 27.5996 73.664 27.4466 73.3985 27.5221L70.5196 28.3407C70.2541 28.4163 70.1036 28.6918 70.1836 28.9561ZM75.9413 27.3188C76.0213 27.5831 76.3014 27.7362 76.567 27.6607L79.4458 26.842C79.7114 26.7665 79.8618 26.491 79.7818 26.2267C79.7018 25.9623 79.4217 25.8092 79.1561 25.8848L76.2773 26.7034C76.0117 26.7789 75.8613 27.0545 75.9413 27.3188ZM81.6989 25.6815C81.7789 25.9458 82.059 26.0989 82.3246 26.0234L85.2034 25.2047C85.469 25.1292 85.6194 24.8537 85.5394 24.5893C85.4595 24.325 85.1793 24.1719 84.9137 24.2474L82.0349 25.0661C81.7694 25.1416 81.6189 25.4171 81.6989 25.6815ZM87.4565 24.0442C87.5365 24.3085 87.8167 24.4616 88.0822 24.3861L89.5216 23.9767C89.7872 23.9012 89.9377 23.6257 89.8577 23.3614C89.7777 23.097 89.4975 22.9439 89.232 23.0195L87.7926 23.4288C87.527 23.5043 87.3765 23.7798 87.4565 24.0442ZM0 43.4999C0 43.2237 0.223858 42.9999 0.5 42.9999H1.96875C2.24489 42.9999 2.46875 43.2237 2.46875 43.4999C2.46875 43.776 2.24489 43.9999 1.96875 43.9999H0.5C0.223858 43.9999 0 43.776 0 43.4999ZM4.40625 43.4999C4.40625 43.2237 4.63011 42.9999 4.90625 42.9999H7.84375C8.11989 42.9999 8.34375 43.2237 8.34375 43.4999C8.34375 43.776 8.11989 43.9999 7.84375 43.9999H4.90625C4.63011 43.9999 4.40625 43.776 4.40625 43.4999ZM10.2812 43.4999C10.2812 43.2237 10.5051 42.9999 10.7812 42.9999H13.7188C13.9949 42.9999 14.2188 43.2237 14.2188 43.4999C14.2188 43.776 13.9949 43.9999 13.7188 43.9999H10.7812C10.5051 43.9999 10.2812 43.776 10.2812 43.4999ZM22.0312 43.4999C22.0312 43.2237 22.2551 42.9999 22.5312 42.9999H25.4688C25.7449 42.9999 25.9688 43.2237 25.9688 43.4999C25.9688 43.776 25.7449 43.9999 25.4688 43.9999H22.5312C22.2551 43.9999 22.0312 43.776 22.0312 43.4999ZM27.9062 43.4999C27.9062 43.2237 28.1301 42.9999 28.4062 42.9999H31.3438C31.6199 42.9999 31.8438 43.2237 31.8438 43.4999C31.8438 43.776 31.6199 43.9999 31.3438 43.9999H28.4062C28.1301 43.9999 27.9062 43.776 27.9062 43.4999ZM33.7812 43.4999C33.7812 43.2237 34.0051 42.9999 34.2812 42.9999H37.2188C37.4949 42.9999 37.7188 43.2237 37.7188 43.4999C37.7188 43.776 37.4949 43.9999 37.2188 43.9999H34.2812C34.0051 43.9999 33.7812 43.776 33.7812 43.4999ZM39.6562 43.4999C39.6562 43.2237 39.8801 42.9999 40.1562 42.9999H43.0938C43.3699 42.9999 43.5938 43.2237 43.5938 43.4999C43.5938 43.776 43.3699 43.9999 43.0938 43.9999H40.1562C39.8801 43.9999 39.6562 43.776 39.6562 43.4999ZM45.5312 43.4999C45.5312 43.2237 45.7551 42.9999 46.0312 42.9999H48.9688C49.2449 42.9999 49.4688 43.2237 49.4688 43.4999C49.4688 43.776 49.2449 43.9999 48.9688 43.9999H46.0312C45.7551 43.9999 45.5312 43.776 45.5312 43.4999ZM51.4062 43.4999C51.4062 43.2237 51.6301 42.9999 51.9062 42.9999H54.8438C55.1199 42.9999 55.3438 43.2237 55.3438 43.4999C55.3438 43.776 55.1199 43.9999 54.8438 43.9999H51.9062C51.6301 43.9999 51.4062 43.776 51.4062 43.4999ZM57.2812 43.4999C57.2812 43.2237 57.5051 42.9999 57.7812 42.9999H60.7188C60.9949 42.9999 61.2188 43.2237 61.2188 43.4999C61.2188 43.776 60.9949 43.9999 60.7188 43.9999H57.7812C57.5051 43.9999 57.2812 43.776 57.2812 43.4999ZM63.1562 43.4999C63.1562 43.2237 63.3801 42.9999 63.6562 42.9999H66.5938C66.8699 42.9999 67.0938 43.2237 67.0938 43.4999C67.0938 43.776 66.8699 43.9999 66.5938 43.9999H63.6562C63.3801 43.9999 63.1562 43.776 63.1562 43.4999ZM69.0312 43.4999C69.0312 43.2237 69.2551 42.9999 69.5312 42.9999H72.4688C72.7449 42.9999 72.9688 43.2237 72.9688 43.4999C72.9688 43.776 72.7449 43.9999 72.4688 43.9999H69.5312C69.2551 43.9999 69.0312 43.776 69.0312 43.4999ZM74.9062 43.4999C74.9062 43.2237 75.1301 42.9999 75.4062 42.9999H78.3438C78.6199 42.9999 78.8438 43.2237 78.8438 43.4999C78.8438 43.776 78.6199 43.9999 78.3438 43.9999H75.4062C75.1301 43.9999 74.9062 43.776 74.9062 43.4999ZM80.7812 43.4999C80.7812 43.2237 81.0051 42.9999 81.2812 42.9999H84.2188C84.4949 42.9999 84.7188 43.2237 84.7188 43.4999C84.7188 43.776 84.4949 43.9999 84.2188 43.9999H81.2812C81.0051 43.9999 80.7812 43.776 80.7812 43.4999ZM86.6562 43.4999C86.6562 43.2237 86.8801 42.9999 87.1562 42.9999H90.0938C90.3699 42.9999 90.5938 43.2237 90.5938 43.4999C90.5938 43.776 90.3699 43.9999 90.0938 43.9999H87.1562C86.8801 43.9999 86.6562 43.776 86.6562 43.4999ZM92.5312 43.4999C92.5312 43.2237 92.7551 42.9999 93.0312 42.9999H95.9688C96.2449 42.9999 96.4688 43.2237 96.4688 43.4999C96.4688 43.776 96.2449 43.9999 95.9688 43.9999H93.0312C92.7551 43.9999 92.5312 43.776 92.5312 43.4999ZM98.4062 43.4999C98.4062 43.2237 98.6301 42.9999 98.9062 42.9999H101.844C102.12 42.9999 102.344 43.2237 102.344 43.4999C102.344 43.776 102.12 43.9999 101.844 43.9999H98.9062C98.6301 43.9999 98.4062 43.776 98.4062 43.4999ZM104.281 43.4999C104.281 43.2237 104.505 42.9999 104.781 42.9999H107.719C107.995 42.9999 108.219 43.2237 108.219 43.4999C108.219 43.776 107.995 43.9999 107.719 43.9999H104.781C104.505 43.9999 104.281 43.776 104.281 43.4999ZM110.156 43.4999C110.156 43.2237 110.38 42.9999 110.656 42.9999H113.594C113.87 42.9999 114.094 43.2237 114.094 43.4999C114.094 43.776 113.87 43.9999 113.594 43.9999H110.656C110.38 43.9999 110.156 43.776 110.156 43.4999ZM116.031 43.4999C116.031 43.2237 116.255 42.9999 116.531 42.9999H119.469C119.745 42.9999 119.969 43.2237 119.969 43.4999C119.969 43.776 119.745 43.9999 119.469 43.9999H116.531C116.255 43.9999 116.031 43.776 116.031 43.4999ZM121.906 43.4999C121.906 43.2237 122.13 42.9999 122.406 42.9999H125.344C125.62 42.9999 125.844 43.2237 125.844 43.4999C125.844 43.776 125.62 43.9999 125.344 43.9999H122.406C122.13 43.9999 121.906 43.776 121.906 43.4999ZM127.781 43.4999C127.781 43.2237 128.005 42.9999 128.281 42.9999H131.219C131.495 42.9999 131.719 43.2237 131.719 43.4999C131.719 43.776 131.495 43.9999 131.219 43.9999H128.281C128.005 43.9999 127.781 43.776 127.781 43.4999ZM133.656 43.4999C133.656 43.2237 133.88 42.9999 134.156 42.9999H137.094C137.37 42.9999 137.594 43.2237 137.594 43.4999C137.594 43.776 137.37 43.9999 137.094 43.9999H134.156C133.88 43.9999 133.656 43.776 133.656 43.4999ZM139.531 43.4999C139.531 43.2237 139.755 42.9999 140.031 42.9999H141.5C141.776 42.9999 142 43.2237 142 43.4999C142 43.776 141.776 43.9999 141.5 43.9999H140.031C139.755 43.9999 139.531 43.776 139.531 43.4999ZM24.7717 44.804C24.5069 44.7258 24.2253 44.8761 24.1426 45.1396C24.0599 45.4032 24.2074 45.6802 24.4722 45.7585L27.3633 46.6127C27.6281 46.6909 27.9097 46.5407 27.9925 46.2771C28.0752 46.0136 27.9276 45.7365 27.6629 45.6583L24.7717 44.804ZM30.554 46.5125C30.2893 46.4343 30.0076 46.5846 29.9249 46.8481C29.8422 47.1117 29.9898 47.3887 30.2545 47.467L33.1457 48.3212C33.4104 48.3994 33.6921 48.2492 33.7748 47.9856C33.8575 47.7221 33.71 47.445 33.4452 47.3668L30.554 46.5125ZM36.3364 48.221C36.0717 48.1428 35.79 48.2931 35.7073 48.5566C35.6246 48.8202 35.7721 49.0972 36.0369 49.1755L38.9281 50.0297C39.1928 50.1079 39.4745 49.9577 39.5572 49.6941C39.6399 49.4306 39.4923 49.1535 39.2276 49.0753L36.3364 48.221ZM42.1188 49.9295C41.854 49.8513 41.5723 50.0016 41.4896 50.2651C41.4069 50.5287 41.5545 50.8058 41.8192 50.884L44.7104 51.7382C44.9752 51.8164 45.2568 51.6662 45.3395 51.4026C45.4222 51.1391 45.2747 50.862 45.0099 50.7838L42.1188 49.9295ZM47.9011 51.6381C47.6364 51.5598 47.3547 51.7101 47.272 51.9736C47.1893 52.2372 47.3369 52.5143 47.6016 52.5925L50.4928 53.4467C50.7575 53.525 51.0392 53.3747 51.1219 53.1111C51.2046 52.8476 51.057 52.5705 50.7923 52.4923L47.9011 51.6381ZM53.6835 53.3466C53.4187 53.2683 53.1371 53.4186 53.0544 53.6821C52.9716 53.9457 53.1192 54.2228 53.384 54.301L56.2751 55.1552C56.5399 55.2335 56.8215 55.0832 56.9042 54.8197C56.9869 54.5561 56.8394 54.279 56.5746 54.2008L53.6835 53.3466ZM59.4658 55.0551C59.2011 54.9768 58.9194 55.1271 58.8367 55.3906C58.754 55.6542 58.9016 55.9313 59.1663 56.0095L62.0575 56.8637C62.3222 56.942 62.6039 56.7917 62.6866 56.5282C62.7693 56.2646 62.6217 55.9875 62.357 55.9093L59.4658 55.0551ZM65.2482 56.7636C64.9834 56.6853 64.7018 56.8356 64.6191 57.0991C64.5364 57.3627 64.6839 57.6398 64.9487 57.718L67.8398 58.5722C68.1046 58.6505 68.3862 58.5002 68.4689 58.2367C68.5517 57.9731 68.4041 57.696 68.1394 57.6178L65.2482 56.7636ZM71.0305 58.4721C70.7658 58.3938 70.4841 58.5441 70.4014 58.8076C70.3187 59.0712 70.4663 59.3483 70.731 59.4265L73.6222 60.2807C73.8869 60.359 74.1686 60.2087 74.2513 59.9452C74.334 59.6816 74.1864 59.4045 73.9217 59.3263L71.0305 58.4721ZM76.8129 60.1806C76.5481 60.1023 76.2665 60.2526 76.1838 60.5161C76.1011 60.7797 76.2486 61.0568 76.5134 61.135L79.4045 61.9892C79.6693 62.0675 79.951 61.9172 80.0337 61.6537C80.1164 61.3901 79.9688 61.113 79.7041 61.0348L76.8129 60.1806ZM82.5952 61.8891C82.3305 61.8108 82.0488 61.9611 81.9661 62.2246C81.8834 62.4882 82.031 62.7653 82.2957 62.8435L85.1869 63.6977C85.4516 63.776 85.7333 63.6257 85.816 63.3622C85.8987 63.0986 85.7512 62.8215 85.4864 62.7433L82.5952 61.8891ZM88.3776 63.5976C88.1128 63.5193 87.8312 63.6696 87.7485 63.9331C87.6658 64.1967 87.8133 64.4738 88.0781 64.552L89.5237 64.9791C89.7884 65.0573 90.0701 64.9071 90.1528 64.6435C90.2355 64.38 90.0879 64.1029 89.8232 64.0247L88.3776 63.5976Z" fill="#F88C28"/>
<circle cx="110" cy="20" r="19.5" fill="white" stroke="#344351"/>
<ellipse cx="109.999" cy="15" rx="4.66667" ry="5" fill="#F88C28"/>
<path d="M117.344 29.3334H102.654C101.991 29.3334 101.515 28.7013 101.766 28.0871C102.907 25.2859 105.587 21.3334 109.999 21.3334C114.41 21.3334 117.091 25.286 118.232 28.0871C118.482 28.7013 118.007 29.3334 117.344 29.3334Z" fill="#F88C28" stroke="#F88C28"/>
<circle cx="110" cy="70" r="19.5" fill="white" stroke="#344351"/>
<ellipse cx="109.999" cy="65" rx="4.66667" ry="5" fill="#F88C28"/>
<path d="M117.344 79.3334H102.654C101.991 79.3334 101.515 78.7013 101.766 78.0871C102.907 75.2859 105.587 71.3334 109.999 71.3334C114.41 71.3334 117.091 75.286 118.232 78.0871C118.482 78.7013 118.007 79.3334 117.344 79.3334Z" fill="#F88C28" stroke="#F88C28"/>
<circle cx="155" cy="44.771" r="19.5" fill="white" stroke="#344351"/>
<ellipse cx="154.999" cy="39.771" rx="4.66667" ry="5" fill="#F88C28"/>
<path d="M162.344 54.1044H147.654C146.991 54.1044 146.515 53.4722 146.766 52.8581C147.907 50.0569 150.587 46.1044 154.999 46.1044C159.41 46.1044 162.091 50.0569 163.232 52.8581C163.482 53.4722 163.007 54.1044 162.344 54.1044Z" fill="#F88C28" stroke="#F88C28"/>
</svg>
