<svg width="12" height="12" viewBox="0 0 12 12" fill="none" xmlns="http://www.w3.org/2000/svg">
<g clip-path="url(#clip0_3758_11042)">
<path d="M0.620264 12C0.462194 12 0.304125 11.9399 0.184028 11.8189C-0.0570701 11.5778 -0.0570701 11.1869 0.184028 10.9458L10.949 0.180823C11.1901 -0.0602744 11.581 -0.0602744 11.8221 0.180823C12.0632 0.421921 12.0632 0.8128 11.8221 1.05405L1.05725 11.8189C0.936253 11.9392 0.778183 12 0.620264 12Z" fill="#B4B4B4"/>
<path d="M11.386 12C11.228 12 11.07 11.9399 10.9498 11.8189L0.184028 1.05405C-0.0570701 0.8128 -0.0570701 0.421921 0.184028 0.180823C0.425126 -0.0602744 0.816005 -0.0602744 1.05725 0.180823L11.8221 10.9458C12.0632 11.1869 12.0632 11.5778 11.8221 11.8189C11.7011 11.9392 11.5432 12 11.386 12Z" fill="#B4B4B4"/>
</g>
<defs>
<clipPath id="clip0_3758_11042">
<rect width="12" height="12" fill="white"/>
</clipPath>
</defs>
</svg>
