<svg width="201" height="98" viewBox="0 0 201 98" fill="none" xmlns="http://www.w3.org/2000/svg">
<path fill-rule="evenodd" clip-rule="evenodd" d="M24.8786 46.4485C24.9408 46.6605 24.8562 46.8807 24.6843 47.0001H25.6852C25.9613 47.0001 26.1852 47.224 26.1852 47.5001C26.1852 47.7762 25.9613 48.0001 25.6852 48.0001H24.6626C24.8548 48.1155 24.9515 48.3505 24.8831 48.5746C24.8025 48.8387 24.5231 48.9875 24.259 48.9069L22.8541 48.4783C22.6216 48.4074 22.4785 48.1824 22.5025 47.9494C22.3365 47.868 22.2222 47.6974 22.2222 47.5001C22.2222 47.3028 22.3365 47.1322 22.5025 47.0508C22.4782 46.8157 22.6242 46.5893 22.8591 46.5204L24.258 46.1096C24.523 46.0318 24.8008 46.1836 24.8786 46.4485ZM26.7168 45.9088C26.7946 46.1738 27.0725 46.3255 27.3374 46.2477L30.1352 45.4263C30.4001 45.3485 30.5519 45.0706 30.4741 44.8057C30.3963 44.5407 30.1184 44.389 29.8535 44.4668L27.0557 45.2882C26.7908 45.366 26.639 45.6439 26.7168 45.9088ZM32.3123 44.266C32.3901 44.5309 32.6679 44.6826 32.9329 44.6049L35.7306 43.7834C35.9956 43.7056 36.1473 43.4278 36.0695 43.1628C35.9917 42.8979 35.7139 42.7461 35.4489 42.8239L32.6512 43.6454C32.3862 43.7231 32.2345 44.001 32.3123 44.266ZM37.9077 42.6231C37.9855 42.8881 38.2634 43.0398 38.5283 42.962L41.3261 42.1406C41.591 42.0628 41.7428 41.7849 41.665 41.52C41.5872 41.255 41.3093 41.1033 41.0444 41.1811L38.2466 42.0025C37.9817 42.0803 37.8299 42.3581 37.9077 42.6231ZM43.5032 40.9802C43.581 41.2452 43.8588 41.3969 44.1238 41.3191L46.9215 40.4977C47.1865 40.4199 47.3382 40.1421 47.2604 39.8771C47.1826 39.6121 46.9048 39.4604 46.6398 39.5382L43.8421 40.3596C43.5771 40.4374 43.4254 40.7153 43.5032 40.9802ZM49.0986 39.3374C49.1764 39.6023 49.4543 39.7541 49.7192 39.6763L52.517 38.8549C52.7819 38.7771 52.9337 38.4992 52.8559 38.2342C52.7781 37.9693 52.5002 37.8176 52.2353 37.8954L49.4375 38.7168C49.1726 38.7946 49.0208 39.0724 49.0986 39.3374ZM54.6941 37.6945C54.7719 37.9595 55.0497 38.1112 55.3147 38.0334L58.1124 37.212C58.3774 37.1342 58.5291 36.8563 58.4513 36.5914C58.3735 36.3264 58.0957 36.1747 57.8307 36.2525L55.033 37.0739C54.768 37.1517 54.6163 37.4296 54.6941 37.6945ZM60.2895 36.0517C60.3673 36.3166 60.6452 36.4684 60.9101 36.3906L63.7079 35.5691C63.9728 35.4913 64.1246 35.2135 64.0468 34.9485C63.969 34.6836 63.6911 34.5318 63.4262 34.6096L60.6284 35.4311C60.3635 35.5089 60.2118 35.7867 60.2895 36.0517ZM65.885 34.4088C65.9628 34.6738 66.2406 34.8255 66.5056 34.7477L69.3033 33.9263C69.5683 33.8485 69.72 33.5706 69.6422 33.3057C69.5644 33.0407 69.2866 32.889 69.0216 32.9668L66.2239 33.7882C65.9589 33.866 65.8072 34.1439 65.885 34.4088ZM71.4804 32.766C71.5582 33.0309 71.8361 33.1826 72.1011 33.1049L74.8988 32.2834C75.1637 32.2056 75.3155 31.9278 75.2377 31.6628C75.1599 31.3979 74.882 31.2461 74.6171 31.3239L71.8193 32.1454C71.5544 32.2231 71.4027 32.501 71.4804 32.766ZM77.0759 31.1231C77.1537 31.3881 77.4315 31.5398 77.6965 31.462L80.4942 30.6406C80.7592 30.5628 80.9109 30.2849 80.8331 30.02C80.7553 29.755 80.4775 29.6033 80.2125 29.6811L77.4148 30.5025C77.1498 30.5803 76.9981 30.8581 77.0759 31.1231ZM82.6713 29.4802C82.7491 29.7452 83.027 29.8969 83.292 29.8191L86.0897 28.9977C86.3546 28.9199 86.5064 28.6421 86.4286 28.3771C86.3508 28.1121 86.0729 27.9604 85.808 28.0382L83.0102 28.8596C82.7453 28.9374 82.5936 29.2153 82.6713 29.4802ZM88.2668 27.8374C88.3446 28.1023 88.6224 28.2541 88.8874 28.1763L91.6851 27.3549C91.9501 27.2771 92.1018 26.9992 92.024 26.7342C91.9462 26.4693 91.6684 26.3176 91.4034 26.3954L88.6057 27.2168C88.3407 27.2946 88.189 27.5724 88.2668 27.8374ZM93.8622 26.1945C93.94 26.4595 94.2179 26.6112 94.4828 26.5334L97.2806 25.712C97.5455 25.6342 97.6973 25.3563 97.6195 25.0914C97.5417 24.8264 97.2638 24.6747 96.9989 24.7525L94.2011 25.5739C93.9362 25.6517 93.7844 25.9296 93.8622 26.1945ZM99.4577 24.5517C99.5355 24.8166 99.8133 24.9684 100.078 24.8906L101.477 24.4799C101.742 24.4021 101.894 24.1242 101.816 23.8592C101.738 23.5943 101.46 23.4426 101.195 23.5204L99.7966 23.9311C99.5316 24.0089 99.3799 24.2867 99.4577 24.5517ZM0 47.5001C0 47.224 0.223858 47.0001 0.5 47.0001H1.98148C2.25762 47.0001 2.48148 47.224 2.48148 47.5001C2.48148 47.7762 2.25762 48.0001 1.98148 48.0001H0.5C0.223858 48.0001 0 47.7762 0 47.5001ZM4.44444 47.5001C4.44444 47.224 4.6683 47.0001 4.94444 47.0001H7.90741C8.18355 47.0001 8.40741 47.224 8.40741 47.5001C8.40741 47.7762 8.18355 48.0001 7.90741 48.0001H4.94444C4.6683 48.0001 4.44444 47.7762 4.44444 47.5001ZM10.3704 47.5001C10.3704 47.224 10.5942 47.0001 10.8704 47.0001H13.8333C14.1095 47.0001 14.3333 47.224 14.3333 47.5001C14.3333 47.7762 14.1095 48.0001 13.8333 48.0001H10.8704C10.5942 48.0001 10.3704 47.7762 10.3704 47.5001ZM16.2963 47.5001C16.2963 47.224 16.5202 47.0001 16.7963 47.0001H19.7593C20.0354 47.0001 20.2593 47.224 20.2593 47.5001C20.2593 47.7762 20.0354 48.0001 19.7593 48.0001H16.7963C16.5202 48.0001 16.2963 47.7762 16.2963 47.5001ZM28.1481 47.5001C28.1481 47.224 28.372 47.0001 28.6481 47.0001H31.6111C31.8873 47.0001 32.1111 47.224 32.1111 47.5001C32.1111 47.7762 31.8873 48.0001 31.6111 48.0001H28.6481C28.372 48.0001 28.1481 47.7762 28.1481 47.5001ZM34.0741 47.5001C34.0741 47.224 34.2979 47.0001 34.5741 47.0001H37.537C37.8132 47.0001 38.037 47.224 38.037 47.5001C38.037 47.7762 37.8132 48.0001 37.537 48.0001H34.5741C34.2979 48.0001 34.0741 47.7762 34.0741 47.5001ZM40 47.5001C40 47.224 40.2239 47.0001 40.5 47.0001H43.463C43.7391 47.0001 43.963 47.224 43.963 47.5001C43.963 47.7762 43.7391 48.0001 43.463 48.0001H40.5C40.2239 48.0001 40 47.7762 40 47.5001ZM45.9259 47.5001C45.9259 47.224 46.1498 47.0001 46.4259 47.0001H49.3889C49.665 47.0001 49.8889 47.224 49.8889 47.5001C49.8889 47.7762 49.665 48.0001 49.3889 48.0001H46.4259C46.1498 48.0001 45.9259 47.7762 45.9259 47.5001ZM51.8519 47.5001C51.8519 47.224 52.0757 47.0001 52.3519 47.0001H55.3148C55.591 47.0001 55.8148 47.224 55.8148 47.5001C55.8148 47.7762 55.591 48.0001 55.3148 48.0001H52.3519C52.0757 48.0001 51.8519 47.7762 51.8519 47.5001ZM57.7778 47.5001C57.7778 47.224 58.0016 47.0001 58.2778 47.0001H61.2407C61.5169 47.0001 61.7407 47.224 61.7407 47.5001C61.7407 47.7762 61.5169 48.0001 61.2407 48.0001H58.2778C58.0016 48.0001 57.7778 47.7762 57.7778 47.5001ZM63.7037 47.5001C63.7037 47.224 63.9276 47.0001 64.2037 47.0001H67.1667C67.4428 47.0001 67.6667 47.224 67.6667 47.5001C67.6667 47.7762 67.4428 48.0001 67.1667 48.0001H64.2037C63.9276 48.0001 63.7037 47.7762 63.7037 47.5001ZM69.6296 47.5001C69.6296 47.224 69.8535 47.0001 70.1296 47.0001H73.0926C73.3687 47.0001 73.5926 47.224 73.5926 47.5001C73.5926 47.7762 73.3687 48.0001 73.0926 48.0001H70.1296C69.8535 48.0001 69.6296 47.7762 69.6296 47.5001ZM75.5555 47.5001C75.5555 47.224 75.7794 47.0001 76.0555 47.0001H79.0185C79.2946 47.0001 79.5185 47.224 79.5185 47.5001C79.5185 47.7762 79.2946 48.0001 79.0185 48.0001H76.0555C75.7794 48.0001 75.5555 47.7762 75.5555 47.5001ZM81.4815 47.5001C81.4815 47.224 81.7053 47.0001 81.9815 47.0001H84.9444C85.2206 47.0001 85.4444 47.224 85.4444 47.5001C85.4444 47.7762 85.2206 48.0001 84.9444 48.0001H81.9815C81.7053 48.0001 81.4815 47.7762 81.4815 47.5001ZM87.4074 47.5001C87.4074 47.224 87.6312 47.0001 87.9074 47.0001H90.8703C91.1465 47.0001 91.3703 47.224 91.3703 47.5001C91.3703 47.7762 91.1465 48.0001 90.8703 48.0001H87.9074C87.6312 48.0001 87.4074 47.7762 87.4074 47.5001ZM93.3333 47.5001C93.3333 47.224 93.5572 47.0001 93.8333 47.0001H96.7962C97.0724 47.0001 97.2962 47.224 97.2962 47.5001C97.2962 47.7762 97.0724 48.0001 96.7962 48.0001H93.8333C93.5572 48.0001 93.3333 47.7762 93.3333 47.5001ZM99.2592 47.5001C99.2592 47.224 99.4831 47.0001 99.7592 47.0001H102.722C102.998 47.0001 103.222 47.224 103.222 47.5001C103.222 47.7762 102.998 48.0001 102.722 48.0001H99.7592C99.4831 48.0001 99.2592 47.7762 99.2592 47.5001ZM105.185 47.5001C105.185 47.224 105.409 47.0001 105.685 47.0001H108.648C108.924 47.0001 109.148 47.224 109.148 47.5001C109.148 47.7762 108.924 48.0001 108.648 48.0001H105.685C105.409 48.0001 105.185 47.7762 105.185 47.5001ZM111.111 47.5001C111.111 47.224 111.335 47.0001 111.611 47.0001H114.574C114.85 47.0001 115.074 47.224 115.074 47.5001C115.074 47.7762 114.85 48.0001 114.574 48.0001H111.611C111.335 48.0001 111.111 47.7762 111.111 47.5001ZM117.037 47.5001C117.037 47.224 117.261 47.0001 117.537 47.0001H120.5C120.776 47.0001 121 47.224 121 47.5001C121 47.7762 120.776 48.0001 120.5 48.0001H117.537C117.261 48.0001 117.037 47.7762 117.037 47.5001ZM122.963 47.5001C122.963 47.224 123.187 47.0001 123.463 47.0001H126.426C126.702 47.0001 126.926 47.224 126.926 47.5001C126.926 47.7762 126.702 48.0001 126.426 48.0001H123.463C123.187 48.0001 122.963 47.7762 122.963 47.5001ZM128.889 47.5001C128.889 47.224 129.113 47.0001 129.389 47.0001H132.352C132.628 47.0001 132.852 47.224 132.852 47.5001C132.852 47.7762 132.628 48.0001 132.352 48.0001H129.389C129.113 48.0001 128.889 47.7762 128.889 47.5001ZM134.815 47.5001C134.815 47.224 135.039 47.0001 135.315 47.0001H138.278C138.554 47.0001 138.778 47.224 138.778 47.5001C138.778 47.7762 138.554 48.0001 138.278 48.0001H135.315C135.039 48.0001 134.815 47.7762 134.815 47.5001ZM140.741 47.5001C140.741 47.224 140.965 47.0001 141.241 47.0001H144.204C144.48 47.0001 144.704 47.224 144.704 47.5001C144.704 47.7762 144.48 48.0001 144.204 48.0001H141.241C140.965 48.0001 140.741 47.7762 140.741 47.5001ZM146.667 47.5001C146.667 47.224 146.89 47.0001 147.167 47.0001H150.13C150.406 47.0001 150.63 47.224 150.63 47.5001C150.63 47.7762 150.406 48.0001 150.13 48.0001H147.167C146.89 48.0001 146.667 47.7762 146.667 47.5001ZM152.593 47.5001C152.593 47.224 152.816 47.0001 153.093 47.0001H156.056C156.332 47.0001 156.556 47.224 156.556 47.5001C156.556 47.7762 156.332 48.0001 156.056 48.0001H153.093C152.816 48.0001 152.593 47.7762 152.593 47.5001ZM158.518 47.5001C158.518 47.224 158.742 47.0001 159.018 47.0001H160.5C160.776 47.0001 161 47.224 161 47.5001C161 47.7762 160.776 48.0001 160.5 48.0001H159.018C158.742 48.0001 158.518 47.7762 158.518 47.5001ZM27.3605 48.8076C27.0964 48.727 26.8169 48.8758 26.7364 49.1399C26.6558 49.404 26.8046 49.6835 27.0687 49.7641L29.8784 50.6212C30.1426 50.7018 30.422 50.553 30.5026 50.2889C30.5832 50.0247 30.4344 49.7453 30.1702 49.6647L27.3605 48.8076ZM32.98 50.5219C32.7158 50.4413 32.4364 50.5901 32.3558 50.8542C32.2753 51.1183 32.4241 51.3978 32.6882 51.4783L35.4979 52.3355C35.762 52.4161 36.0415 52.2673 36.1221 52.0031C36.2026 51.739 36.0538 51.4596 35.7897 51.379L32.98 50.5219ZM38.5994 52.2361C38.3353 52.1556 38.0559 52.3044 37.9753 52.5685C37.8947 52.8326 38.0435 53.1121 38.3077 53.1926L41.1174 54.0498C41.3815 54.1303 41.661 53.9816 41.7415 53.7174C41.8221 53.4533 41.6733 53.1739 41.4092 53.0933L38.5994 52.2361ZM44.2189 53.9504C43.9548 53.8699 43.6754 54.0187 43.5948 54.2828C43.5142 54.5469 43.663 54.8263 43.9271 54.9069L46.7369 55.7641C47.001 55.8446 47.2804 55.6958 47.361 55.4317C47.4416 55.1676 47.2928 54.8882 47.0287 54.8076L44.2189 53.9504ZM49.8384 55.6647C49.5743 55.5841 49.2948 55.7329 49.2143 55.9971C49.1337 56.2612 49.2825 56.5406 49.5466 56.6212L52.3563 57.4783C52.6205 57.5589 52.8999 57.4101 52.9805 57.146C53.061 56.8819 52.9123 56.6024 52.6481 56.5219L49.8384 55.6647ZM55.4579 57.379C55.1937 57.2984 54.9143 57.4472 54.8337 57.7114C54.7532 57.9755 54.902 58.2549 55.1661 58.3355L57.9758 59.1926C58.2399 59.2732 58.5194 59.1244 58.5999 58.8603C58.6805 58.5962 58.5317 58.3167 58.2676 58.2361L55.4579 57.379ZM61.0773 59.0933C60.8132 59.0127 60.5338 59.1615 60.4532 59.4256C60.3726 59.6898 60.5214 59.9692 60.7855 60.0498L63.5953 60.9069C63.8594 60.9875 64.1388 60.8387 64.2194 60.5746C64.3 60.3104 64.1512 60.031 63.8871 59.9504L61.0773 59.0933ZM66.6968 60.8076C66.4327 60.727 66.1532 60.8758 66.0727 61.1399C65.9921 61.404 66.1409 61.6835 66.405 61.7641L69.2148 62.6212C69.4789 62.7018 69.7583 62.553 69.8389 62.2889C69.9195 62.0247 69.7707 61.7453 69.5065 61.6647L66.6968 60.8076ZM72.3163 62.5219C72.0522 62.4413 71.7727 62.5901 71.6921 62.8542C71.6116 63.1183 71.7604 63.3978 72.0245 63.4783L74.8342 64.3355C75.0984 64.4161 75.3778 64.2673 75.4584 64.0031C75.5389 63.739 75.3901 63.4596 75.126 63.379L72.3163 62.5219ZM77.9357 64.2361C77.6716 64.1556 77.3922 64.3044 77.3116 64.5685C77.231 64.8326 77.3798 65.1121 77.644 65.1926L80.4537 66.0498C80.7178 66.1303 80.9973 65.9816 81.0778 65.7174C81.1584 65.4533 81.0096 65.1739 80.7455 65.0933L77.9357 64.2361ZM83.5552 65.9504C83.2911 65.8699 83.0117 66.0187 82.9311 66.2828C82.8505 66.5469 82.9993 66.8263 83.2634 66.9069L86.0732 67.7641C86.3373 67.8446 86.6167 67.6958 86.6973 67.4317C86.7779 67.1676 86.6291 66.8881 86.365 66.8076L83.5552 65.9504ZM89.1747 67.6647C88.9106 67.5841 88.6311 67.7329 88.5506 67.9971C88.47 68.2612 88.6188 68.5406 88.8829 68.6212L91.6926 69.4783C91.9568 69.5589 92.2362 69.4101 92.3168 69.146C92.3973 68.8819 92.2486 68.6024 91.9844 68.5219L89.1747 67.6647ZM94.7942 69.379C94.53 69.2984 94.2506 69.4472 94.17 69.7114C94.0895 69.9755 94.2383 70.2549 94.5024 70.3355L97.3121 71.1926C97.5762 71.2732 97.8557 71.1244 97.9362 70.8603C98.0168 70.5962 97.868 70.3167 97.6039 70.2361L94.7942 69.379ZM100.414 71.0933C100.15 71.0127 99.8701 71.1615 99.7895 71.4256C99.7089 71.6898 99.8577 71.9692 100.122 72.0498L101.527 72.4783C101.791 72.5589 102.07 72.4101 102.151 72.146C102.231 71.8819 102.083 71.6024 101.819 71.5219L100.414 71.0933Z" fill="#F88C28"/>
<circle cx="121" cy="20" r="19.5" fill="white" stroke="#344351"/>
<ellipse cx="121.001" cy="15" rx="4.66667" ry="5" fill="#F88C28"/>
<path d="M128.346 29.3334H113.656C112.993 29.3334 112.517 28.7013 112.767 28.0871C113.909 25.2859 116.589 21.3334 121.001 21.3334C125.412 21.3334 128.093 25.286 129.234 28.0871C129.484 28.7013 129.009 29.3334 128.346 29.3334Z" fill="#F88C28" stroke="#F88C28"/>
<circle cx="121" cy="78" r="19.5" fill="white" stroke="#344351"/>
<ellipse cx="121.001" cy="73" rx="4.66667" ry="5" fill="#F88C28"/>
<path d="M128.346 87.3334H113.656C112.993 87.3334 112.517 86.7013 112.767 86.0871C113.909 83.2859 116.589 79.3334 121.001 79.3334C125.412 79.3334 128.093 83.286 129.234 86.0871C129.484 86.7013 129.009 87.3334 128.346 87.3334Z" fill="#F88C28" stroke="#F88C28"/>
<circle cx="181" cy="49" r="19.5" fill="white" stroke="#344351"/>
<ellipse cx="181.001" cy="44" rx="4.66667" ry="5" fill="#F88C28"/>
<path d="M188.346 58.3334H173.656C172.993 58.3334 172.517 57.7013 172.767 57.0871C173.909 54.2859 176.589 50.3334 181.001 50.3334C185.412 50.3334 188.093 54.286 189.234 57.0871C189.484 57.7013 189.009 58.3334 188.346 58.3334Z" fill="#F88C28" stroke="#F88C28"/>
</svg>
