<svg width="545" height="310" viewBox="0 0 545 310" fill="none" xmlns="http://www.w3.org/2000/svg">
<path d="M484.715 307.827V174.346" stroke="#55626F" stroke-linecap="round" stroke-linejoin="round"/>
<path d="M473.893 307.827V241.636" stroke="#55626F" stroke-linecap="round" stroke-linejoin="round"/>
<path d="M488.098 196.228C488.098 196.228 477.192 194.986 472.721 186.351C468.25 177.717 467.824 155.444 484.809 130.759C501.795 106.073 510.701 105.813 513.658 125.957C516.615 146.1 516.189 175.351 509.235 186.434C502.28 197.517 488.098 196.228 488.098 196.228Z" fill="#EFEFEF"/>
<path d="M491.965 149.732C493.976 142.871 496.377 136.721 499.168 132.51" stroke="#55626F" stroke-linecap="round" stroke-linejoin="round"/>
<path d="M483.52 194.75C485.016 181.174 487.387 167.71 490.616 154.439" stroke="#55626F" stroke-linecap="round" stroke-linejoin="round"/>
<path d="M494.592 239.555C494.592 239.555 487.59 234.125 488.158 226.319C488.726 218.512 497.715 202.958 519.727 193.093C541.739 183.229 548.02 186.73 541.633 201.846C535.246 216.963 522.708 236.964 513.245 241.695C503.783 246.427 494.592 239.555 494.592 239.555Z" fill="#EFEFEF"/>
<path d="M516.723 209.109C520.981 205.23 525.215 202.012 528.894 200.262" stroke="#55626F" stroke-linecap="round" stroke-linejoin="round"/>
<path d="M513.894 211.783C506.104 219.584 498.826 227.881 492.107 236.622C492.107 236.622 486.465 244.216 484.797 259.297" stroke="#55626F" stroke-linecap="round" stroke-linejoin="round"/>
<path d="M490.618 284.644C490.618 284.644 486.561 281.498 486.892 276.979C487.223 272.461 492.428 263.448 505.19 257.723C517.953 251.998 521.573 254.045 517.87 262.809C514.168 271.574 506.906 283.154 501.441 285.886C495.976 288.618 490.618 284.644 490.618 284.644Z" fill="#EFEFEF"/>
<path d="M503.402 267.056C505.512 265.019 507.902 263.294 510.499 261.934" stroke="#55626F" stroke-linecap="round" stroke-linejoin="round"/>
<path d="M501.771 268.605C497.259 273.119 493.044 277.919 489.151 282.976C489.151 282.976 485.874 287.376 484.904 296.117" stroke="#55626F" stroke-linecap="round" stroke-linejoin="round"/>
<path d="M474.827 221.505C474.827 221.505 481.817 216.076 481.261 208.269C480.705 200.463 471.704 184.909 449.68 175.044C427.656 165.179 421.399 168.68 427.786 183.797C434.173 198.913 446.711 218.915 456.173 223.646C465.636 228.377 474.827 221.505 474.827 221.505Z" fill="#EFEFEF"/>
<path d="M452.697 191.059C449.071 187.553 444.97 184.574 440.514 182.212" stroke="#55626F" stroke-linecap="round" stroke-linejoin="round"/>
<path d="M455.523 193.732C463.309 201.535 470.582 209.832 477.299 218.572C477.299 218.572 482.941 226.165 484.621 241.246" stroke="#55626F" stroke-linecap="round" stroke-linejoin="round"/>
<path d="M471.385 281.794C471.385 281.794 478.482 282.019 482.03 277.749C485.578 273.479 487.708 261.556 478.836 246.995C469.965 232.435 464.3 231.418 460.751 242.063C457.203 252.708 455.133 268.31 458.681 274.827C462.23 281.344 471.385 281.794 471.385 281.794Z" fill="#EFEFEF"/>
<path d="M472.496 270.935C472.603 272.389 472.674 273.844 472.709 275.287" stroke="#55626F" stroke-linecap="round" stroke-linejoin="round"/>
<path d="M467.055 241.364C469.467 249.937 471.184 258.691 472.188 267.54" stroke="#55626F" stroke-linecap="round" stroke-linejoin="round"/>
<path d="M375.504 186.671H438.867C438.867 186.671 404.566 271.018 411.036 308.691H346.82C346.82 308.691 358.802 212.362 375.504 186.671Z" fill="#EFEFEF" stroke="#55626F" stroke-linecap="round" stroke-linejoin="round"/>
<path d="M320.681 65.597C320.681 65.597 321.307 77.0112 342.563 83.6705C363.818 90.3297 385.393 83.6705 397.446 93.133C409.499 102.596 409.179 117.239 405.051 124.537C400.923 131.835 394.264 139.121 413.934 147.685C433.604 156.248 421.859 181.312 413.615 190.515C405.37 199.717 391.141 204.152 375.232 200.983C359.323 197.813 340.658 159.43 320.361 139.121C300.064 118.812 297.58 81.3521 310.532 70.6121C323.484 59.8721 320.681 65.597 320.681 65.597Z" fill="#FCA14D"/>
<path d="M317.417 24.5413C317.417 24.5413 326.169 20.7208 328.417 28.0898C330.664 35.4588 331.326 55.7086 331.326 55.7086L326.595 54.5849C326.595 54.5849 327.719 31.6856 322.55 28.0898C317.381 24.494 313.348 32.5845 313.348 32.5845L317.417 24.5413Z" fill="#EFEFEF" stroke="#55626F" stroke-linecap="round" stroke-linejoin="round"/>
<path d="M219.16 270.899L249.062 254.908C249.062 254.908 246.992 223.528 247.288 222.345C247.583 221.162 255.071 159.762 255.071 159.762L234.56 220.57L219.16 270.899Z" fill="#55626F" stroke="#55626F" stroke-linecap="round" stroke-linejoin="round"/>
<path d="M351.352 128.228C351.352 128.228 380.922 144.338 384.897 145.97C388.871 147.602 386.529 168.148 386.529 181.573C386.529 194.998 366.421 308.371 366.421 308.371H217.504C217.504 308.371 242.662 269.799 243.337 259.734C244.011 249.668 239.646 241.613 238.972 231.89C238.298 222.167 252.728 162.778 255.07 159.738C257.412 156.698 267.49 149.01 267.49 149.01L303.045 117.866L319.487 114.176L351.352 128.228Z" fill="#57A8F3" stroke="#55626F" stroke-linecap="round" stroke-linejoin="round"/>
<path d="M252.657 270.639L247.689 280.858" stroke="#55626F" stroke-linecap="round" stroke-linejoin="round"/>
<path d="M257.423 241.282C257.423 241.282 250.042 246.309 253.733 248.994C257.423 251.679 259.103 257.38 259.103 257.38L254.371 266.594" stroke="#55626F" stroke-linecap="round" stroke-linejoin="round"/>
<path d="M292.188 265.718C294.186 265.872 296.292 265.99 298.492 266.049" stroke="#55626F" stroke-linecap="round" stroke-linejoin="round"/>
<path d="M260.428 257.439C260.428 257.439 268.459 262.809 285.953 265.104" stroke="#55626F" stroke-linecap="round" stroke-linejoin="round"/>
<path d="M240.415 42.9461C239 43.6365 237.821 44.7283 237.024 46.0852C236.226 47.4421 235.847 49.0038 235.932 50.5752C235.932 56.4184 240.663 67.8562 240.663 67.8562L243.36 66.9691C243.36 66.9691 238.427 55.07 239.102 50.8C239.32 49.555 239.877 48.3942 240.712 47.4449C241.546 46.4956 242.626 45.7944 243.833 45.4181L242.934 42.4966L240.415 42.9461Z" fill="#EFEFEF" stroke="#55626F" stroke-linecap="round" stroke-linejoin="round"/>
<path d="M251.97 73.0016C253.153 78.9157 251.13 84.2502 247.535 84.948C243.939 85.6459 240.106 81.3996 238.971 75.4855C237.835 69.5714 239.811 64.2251 243.407 63.539C247.002 62.853 250.835 67.0993 251.97 73.0016Z" fill="#EFEFEF" stroke="#55626F" stroke-linecap="round" stroke-linejoin="round"/>
<path d="M262.888 71.097C265.123 78.6434 262.509 86.0834 257.045 87.6565C251.58 89.2297 245.335 84.4747 243.087 76.9283C240.84 69.3819 243.466 61.942 248.931 60.3688C254.395 58.7957 260.652 63.5506 262.888 71.097Z" fill="#55626F" stroke="#55626F" stroke-linecap="round" stroke-linejoin="round"/>
<path d="M283.15 112.236L288.461 129.505L271.003 151.505L268.093 168.503C268.093 168.503 265.195 216.998 266.851 224.474C268.507 231.949 268.507 234.007 268.507 234.007C268.507 234.007 304.583 192.135 322.408 166.433C340.233 140.73 344.373 124.963 344.373 124.963L326.962 115.5L318.682 76.9404L283.15 112.236Z" fill="#EFEFEF" stroke="#55626F" stroke-linecap="round" stroke-linejoin="round"/>
<path d="M310.675 95.5225L288.462 129.505L282.264 109.503L310.675 95.5225Z" fill="#55626F" stroke="#55626F" stroke-linecap="round" stroke-linejoin="round"/>
<path d="M268.247 167.544L268.081 168.503C268.081 168.503 265.183 216.998 266.839 224.474C268.495 231.949 268.495 234.007 268.495 234.007C268.495 234.007 304.571 192.135 322.396 166.433C323.792 164.422 325.093 162.47 326.335 160.578C304.015 168.219 281.258 168.349 268.247 167.544Z" fill="white" stroke="#55626F" stroke-linecap="round" stroke-linejoin="round"/>
<path d="M259.504 6.36155C259.504 6.36155 242.886 16.4628 241.088 31.7212C239.29 46.9796 245.583 63.3735 248.055 69.879C250.527 76.3845 259.055 101.756 263.538 106.7C268.021 111.644 282.617 119.037 285.089 120.385C287.561 121.734 292.044 121.284 295.864 118.587C299.685 115.891 315.393 96.8236 317.865 92.3289C320.337 87.8342 320.775 77.9576 320.775 77.9576C320.775 77.9576 320.325 58.2046 319.438 45.4183C318.551 32.632 319.213 20.2715 308.662 9.49603C298.112 -1.27946 269.83 -1.5042 259.504 6.36155Z" fill="#EFEFEF" stroke="#55626F" stroke-linecap="round" stroke-linejoin="round"/>
<path d="M291.796 69.2165C292.08 70.8607 291.476 72.351 290.435 72.5284C289.395 72.7059 288.33 71.523 288.07 69.8789C287.81 68.2348 288.389 66.7445 289.43 66.5552C290.471 66.3659 291.5 67.5724 291.796 69.2165Z" fill="#55626F" stroke="#55626F" stroke-linecap="round" stroke-linejoin="round"/>
<path d="M266.65 72.8001C266.945 74.456 266.342 75.9346 265.301 76.1238C264.26 76.3131 263.184 75.1184 262.936 73.4625C262.687 71.8065 263.243 70.3398 264.284 70.1506C265.325 69.9613 266.366 71.156 266.65 72.8001Z" fill="#55626F" stroke="#55626F" stroke-linecap="round" stroke-linejoin="round"/>
<path d="M281.494 59.1033C281.494 59.1033 288.91 53.2719 295.688 57.9796" stroke="#55626F" stroke-width="1.5" stroke-linecap="round" stroke-linejoin="round"/>
<path d="M266.459 62.2729C266.459 62.2729 257.707 58.0029 251.639 65.6439" stroke="#55626F" stroke-width="1.5" stroke-linecap="round" stroke-linejoin="round"/>
<path d="M266.33 62.145C266.33 62.145 273.268 65.5073 273.717 71.1139" stroke="#55626F" stroke-width="1.5" stroke-linecap="round" stroke-linejoin="round"/>
<path d="M274.764 86.4976C274.764 86.4976 277.236 88.2836 281.494 86.947" stroke="#55626F" stroke-width="1.5" stroke-linecap="round" stroke-linejoin="round"/>
<path d="M272.979 95.9248C278.01 95.7079 282.958 94.5651 287.575 92.5538C295.428 89.1827 298.575 84.4751 298.575 84.4751" stroke="#55626F" stroke-width="1.5" stroke-linecap="round" stroke-linejoin="round"/>
<path d="M276.787 95.6999C278.582 97.2874 280.896 98.1625 283.293 98.1602C287.338 98.1602 290.922 90.9805 290.922 90.9805C290.922 90.9805 280.596 95.4752 276.787 95.6999Z" stroke="#55626F" stroke-width="1.5" stroke-linecap="round" stroke-linejoin="round"/>
<path d="M247.535 80.0161C247.535 80.0161 247.606 103.341 253.662 105.364C259.718 107.387 276.337 103.341 276.337 103.341" stroke="#55626F" stroke-width="2" stroke-linecap="round" stroke-linejoin="round"/>
<path d="M284.865 103.246C284.865 105.044 282.653 106.499 279.921 106.499C277.188 106.499 274.988 105.044 274.988 103.246C274.988 101.448 277.2 99.9932 279.921 99.9932C282.641 99.9932 284.865 101.448 284.865 103.246Z" fill="#55626F" stroke="#55626F" stroke-linecap="round" stroke-linejoin="round"/>
<path d="M286.273 130.582C286.273 130.582 279.176 142.989 274.196 179.893C269.217 216.797 272.517 224.166 272.517 224.166L265.42 228.531C265.42 228.531 250.67 226.851 255.697 191.97C260.724 157.089 263.515 151.375 263.515 151.375L286.273 130.582Z" fill="#57A8F3" stroke="#55626F" stroke-linecap="round" stroke-linejoin="round"/>
<path d="M331.219 117.866C331.219 117.866 315.121 156.107 298.349 179.929C281.576 203.751 258.783 237.922 258.783 237.922C258.783 237.922 270.86 232.221 296.361 213.083C321.863 193.945 347.684 150.015 350.369 145.662C353.054 141.31 357.076 131.244 357.076 131.244L331.219 117.866Z" fill="#57A8F3" stroke="#55626F" stroke-linecap="round" stroke-linejoin="round"/>
<path d="M191.872 287.766C187.937 290.161 183.81 292.226 179.535 293.941C171.988 297.028 171.255 296.484 173.704 299.086C176.152 301.688 188.796 297.028 192.227 295.656C195.657 294.284 202.174 292.225 202.174 292.225C202.174 292.225 210.063 296.685 214.866 298.057C219.668 299.429 225.511 297.371 225.511 297.371C225.511 297.371 225.854 291.882 221.738 288.795C217.622 285.708 208.727 278.505 205.616 278.848C202.505 279.191 191.872 287.766 191.872 287.766Z" fill="#EFEFEF" stroke="#55626F" stroke-linecap="round" stroke-linejoin="round"/>
<path d="M189.813 279.534C189.813 279.534 185.697 278.505 182.953 280.563C180.209 282.621 177.122 289.138 176.779 290.853C176.436 292.568 177.122 293.597 179.866 291.196C182.61 288.795 187.412 285.365 187.412 285.365L191.529 283.993L189.813 279.534Z" fill="#EFEFEF" stroke="#55626F" stroke-linecap="round" stroke-linejoin="round"/>
<path d="M200.446 276.447C200.446 276.447 192.167 273.702 190.499 276.104C188.831 278.505 182.953 292.225 184.668 293.254C186.383 294.284 188.784 292.225 191.871 287.766C194.958 283.307 196.673 280.906 196.673 280.906L200.79 280.22L200.446 276.447Z" fill="#EFEFEF" stroke="#55626F" stroke-linecap="round" stroke-linejoin="round"/>
<path d="M215.15 279.522C215.15 279.522 204.422 271.136 201.737 273.146C199.052 275.157 190.335 288.239 189.329 290.889C188.324 293.538 193.02 292.237 196.698 288.878C200.377 285.519 204.753 281.781 204.753 281.781L213.14 286.146L215.15 279.522Z" fill="#EFEFEF" stroke="#55626F" stroke-linecap="round" stroke-linejoin="round"/>
<path d="M253.733 285.897C253.733 285.897 239.645 285.223 233.944 283.212C228.243 281.201 216.829 276.837 213.481 277.168C210.134 277.499 197.371 289.919 194.686 292.604C192.001 295.289 192.321 296.01 194.958 296.341C197.596 296.672 204.078 292.272 207.106 289.919C208.979 288.477 211.002 287.239 213.138 286.228C215.546 289.693 218.241 292.949 221.193 295.963C224.541 298.979 232.596 301.321 235.612 300.99C237.531 300.771 239.435 300.436 241.313 299.984L252.727 299.653L253.733 285.897Z" fill="#EFEFEF" stroke="#55626F" stroke-linecap="round" stroke-linejoin="round"/>
<path d="M351.682 188.942C351.682 188.942 339.274 203.36 339.948 208.399C340.622 213.438 340.953 218.453 340.953 218.453L331.893 273.135C331.893 273.135 324.181 269.445 324.181 272.461V275.489L251.686 282.87L251.012 308.359L366.408 308.691C366.408 308.691 372.109 302.327 372.783 299.973C373.457 297.619 386.196 257.037 389.555 214.432C392.915 171.827 391.235 152.712 389.555 149.377C387.876 146.041 368.087 139.654 368.087 139.654" fill="#57A8F3"/>
<path d="M351.682 188.942C351.682 188.942 339.274 203.36 339.948 208.399C340.622 213.438 340.953 218.453 340.953 218.453L331.893 273.135C331.893 273.135 324.181 269.445 324.181 272.461V275.489L251.686 282.87L251.012 308.359L366.408 308.691C366.408 308.691 372.109 302.327 372.783 299.973C373.457 297.619 386.196 257.037 389.555 214.432C392.915 171.827 391.235 152.712 389.555 149.377C387.876 146.041 368.087 139.654 368.087 139.654" stroke="#55626F" stroke-linecap="round" stroke-linejoin="round"/>
<path d="M334.578 272.815C334.578 272.815 345.306 279.853 351.682 281.533L334.578 272.815Z" fill="#EFEFEF"/>
<path d="M334.578 272.815C334.578 272.815 345.306 279.853 351.682 281.533" stroke="#55626F" stroke-linecap="round" stroke-linejoin="round"/>
<path d="M233.945 204.768L242.224 178.19C245.582 174.9 248.521 171.21 250.977 167.202C254.526 161.205 254.526 149.956 253.97 147.957C253.414 145.958 261.22 136.969 263.432 133.763C265.644 130.558 266.922 124.762 263.929 120.516C260.937 116.269 259.434 123.272 257.435 126.513C255.436 129.754 248.434 133.006 248.434 133.006L241.042 139.015C241.042 139.015 228.799 149.755 228.031 151.257C227.262 152.759 225.783 157.502 225.783 157.502L226.789 171.992L220.295 197.222L233.945 204.768Z" fill="#EFEFEF" stroke="#55626F" stroke-linecap="round" stroke-linejoin="round"/>
<path d="M235.99 130.274C235.99 130.274 241.987 120.811 243.738 117.783C245.488 114.755 248.232 102.797 249.983 103.589C251.734 104.382 253.531 108.321 252.987 113.584C252.443 118.848 246.233 130.818 246.233 130.818L235.99 130.274Z" fill="#EFEFEF" stroke="#55626F" stroke-linecap="round" stroke-linejoin="round"/>
<path d="M221.502 189.734L226.754 171.992L224.483 143.51L231.473 130.026L250.706 127.53C250.706 127.53 262.451 133.775 263.457 133.775C264.462 133.775 263.457 136.519 261.209 137.016C258.962 137.513 254.704 136.271 254.704 136.271L261.954 141.002C261.954 141.002 261.458 143.249 259.707 143.746C257.978 144.095 256.219 144.265 254.455 144.255C254.455 144.255 260.701 148.253 259.187 148.986C257.704 149.667 256.087 150.006 254.455 149.98H249.724L245.974 149.483L240.226 151.73C240.226 151.73 244.224 161.973 243.976 166.977C243.727 171.98 237.482 175.257 237.482 175.257" fill="#EFEFEF"/>
<path d="M221.502 189.734L226.754 171.992L224.483 143.51L231.473 130.026L250.706 127.53C250.706 127.53 262.451 133.775 263.457 133.775C264.462 133.775 263.457 136.519 261.209 137.016C258.962 137.513 254.704 136.271 254.704 136.271L261.954 141.002C261.954 141.002 261.458 143.249 259.707 143.746C257.978 144.095 256.219 144.265 254.455 144.255C254.455 144.255 260.701 148.253 259.187 148.986C257.704 149.667 256.087 150.006 254.455 149.98H249.724L245.974 149.483L240.226 151.73C240.226 151.73 244.224 161.973 243.976 166.977C243.727 171.98 237.482 175.257 237.482 175.257" stroke="#55626F" stroke-linecap="round" stroke-linejoin="round"/>
<path d="M254.727 136.271C254.727 136.271 250.729 133.018 248.482 133.018C246.234 133.018 232.502 135.514 232.502 135.514" stroke="#55626F" stroke-linecap="round" stroke-linejoin="round"/>
<path d="M254.479 144.267C254.479 144.267 247.985 140.718 245.986 140.718C243.987 140.718 228.244 144.716 228.244 144.716" stroke="#55626F" stroke-linecap="round" stroke-linejoin="round"/>
<path d="M221.82 184.163L242.105 197.825C242.105 197.825 233.069 246.32 232.181 250.472C231.294 254.624 224.789 265.565 221.536 268.829C218.283 272.094 214.439 271.491 205.556 269.125C196.673 266.759 188.997 259.662 189.269 250.472C189.541 241.281 221.82 184.163 221.82 184.163Z" fill="#57A8F3" stroke="#55626F" stroke-linecap="round" stroke-linejoin="round"/>
<path d="M321.203 45.2353C320.274 32.2365 320.971 19.6942 310.065 8.74978C299.158 -2.19469 269.923 -2.42296 259.249 5.56614C259.249 5.56614 242.07 15.8258 240.212 31.3235C239.136 40.3338 241.271 50.1452 243.411 57.7378C247.36 55.3351 260.301 46.8692 275.254 36.5735C293.118 24.2594 298.926 5.10963 298.926 5.10963C298.926 5.10963 301.004 3.96833 300.552 6.47919C300.1 8.99005 293.118 23.8029 290.575 26.0855L288.019 28.3561C288.019 28.3561 290.11 27.8996 299.623 39.0723C309.135 50.245 314.466 54.8102 317.254 56.1798C318.735 56.7056 320.29 57.0014 321.864 57.0568C321.68 52.9601 321.46 48.8274 321.203 45.2353Z" fill="#FCA14D"/>
<path d="M323.473 79.0816C329.175 79.0816 333.799 72.7004 333.799 64.8287C333.799 56.957 329.175 50.5757 323.473 50.5757C317.77 50.5757 313.146 56.957 313.146 64.8287C313.146 72.7004 317.77 79.0816 323.473 79.0816Z" fill="#55626F" stroke="#55626F" stroke-linecap="round" stroke-linejoin="round"/>
<path d="M327.848 73.2502C331.507 73.2502 334.472 68.3782 334.472 62.3683C334.472 56.3583 331.507 51.4863 327.848 51.4863C324.19 51.4863 321.225 56.3583 321.225 62.3683C321.225 68.3782 324.19 73.2502 327.848 73.2502Z" fill="#EFEFEF" stroke="#55626F" stroke-linecap="round" stroke-linejoin="round"/>
<path d="M116.974 301.699H111.084V303.509H116.974V301.699Z" fill="#EFEFEF" stroke="#55626F" stroke-linecap="round" stroke-linejoin="round"/>
<path d="M125.137 301.699H119.246V303.509H125.137V301.699Z" fill="#EFEFEF" stroke="#55626F" stroke-linecap="round" stroke-linejoin="round"/>
<path d="M133.297 301.699H127.406V303.509H133.297V301.699Z" fill="#EFEFEF" stroke="#55626F" stroke-linecap="round" stroke-linejoin="round"/>
<path d="M141.459 301.699H135.568V303.509H141.459V301.699Z" fill="#EFEFEF" stroke="#55626F" stroke-linecap="round" stroke-linejoin="round"/>
<path d="M149.621 301.699H143.73V303.509H149.621V301.699Z" fill="#EFEFEF" stroke="#55626F" stroke-linecap="round" stroke-linejoin="round"/>
<path d="M157.783 301.699H151.893V303.509H157.783V301.699Z" fill="#EFEFEF" stroke="#55626F" stroke-linecap="round" stroke-linejoin="round"/>
<path d="M165.955 301.699H160.064V303.509H165.955V301.699Z" fill="#EFEFEF" stroke="#55626F" stroke-linecap="round" stroke-linejoin="round"/>
<path d="M174.117 301.699H168.227V303.509H174.117V301.699Z" fill="#EFEFEF" stroke="#55626F" stroke-linecap="round" stroke-linejoin="round"/>
<path d="M182.279 301.699H176.389V303.509H182.279V301.699Z" fill="#EFEFEF" stroke="#55626F" stroke-linecap="round" stroke-linejoin="round"/>
<path d="M190.439 301.699H184.549V303.509H190.439V301.699Z" fill="#EFEFEF" stroke="#55626F" stroke-linecap="round" stroke-linejoin="round"/>
<path d="M198.601 301.699H192.711V303.509H198.601V301.699Z" fill="#EFEFEF" stroke="#55626F" stroke-linecap="round" stroke-linejoin="round"/>
<path d="M206.764 301.699H200.873V303.509H206.764V301.699Z" fill="#EFEFEF" stroke="#55626F" stroke-linecap="round" stroke-linejoin="round"/>
<path d="M214.935 301.699H209.045V303.509H214.935V301.699Z" fill="#EFEFEF" stroke="#55626F" stroke-linecap="round" stroke-linejoin="round"/>
<path d="M223.097 301.699H217.207V303.509H223.097V301.699Z" fill="#EFEFEF" stroke="#55626F" stroke-linecap="round" stroke-linejoin="round"/>
<path d="M231.26 301.699H225.369V303.509H231.26V301.699Z" fill="#EFEFEF" stroke="#55626F" stroke-linecap="round" stroke-linejoin="round"/>
<path d="M239.42 301.699H233.529V303.509H239.42V301.699Z" fill="#EFEFEF" stroke="#55626F" stroke-linecap="round" stroke-linejoin="round"/>
<path d="M253.638 303.13H107.689V308.264H253.638V303.13Z" fill="#EFEFEF" stroke="#55626F" stroke-linecap="round" stroke-linejoin="round"/>
<path d="M253.639 303.13H197.691V308.264H253.639V303.13Z" fill="#EFEFEF" stroke="#55626F" stroke-linecap="round" stroke-linejoin="round"/>
<path d="M153.24 258.172H38.4946L15.4414 136.152H130.187L153.24 258.172Z" fill="#55626F" stroke="#EFEFEF" stroke-linecap="round" stroke-linejoin="round"/>
<path d="M150 255H39.6874L18 139H128.324L150 255Z" fill="#55626F" stroke="#EFEFEF" stroke-linecap="round" stroke-linejoin="round"/>
<path d="M128.307 245.858H45.5568L29.2812 159.737H112.043L128.307 245.858Z" fill="#55626F" stroke="#EFEFEF" stroke-linecap="round" stroke-linejoin="round"/>
<path d="M29 160L18.5 139" stroke="#EFEFEF" stroke-linecap="round" stroke-linejoin="round"/>
<path d="M112.043 159.737L127.869 139.239" stroke="#EFEFEF" stroke-linecap="round" stroke-linejoin="round"/>
<path d="M128.307 245.858L149.739 255.084" stroke="#EFEFEF" stroke-linecap="round" stroke-linejoin="round"/>
<path d="M45.5569 245.858L40 254.5" stroke="#EFEFEF" stroke-linecap="round" stroke-linejoin="round"/>
<path d="M79.2076 220.073H60.3652L72.359 209.368H91.1895L79.2076 220.073Z" fill="#55626F" stroke="#EFEFEF" stroke-linecap="round" stroke-linejoin="round"/>
<path d="M142 300H73V309H142V300Z" fill="#55626F" stroke="#EFEFEF" stroke-linecap="round" stroke-linejoin="round"/>
<path d="M102.32 308.69H83.4894L60.3652 282.419H79.2076L102.32 308.69Z" fill="#55626F" stroke="#EFEFEF" stroke-linecap="round" stroke-linejoin="round"/>
<path d="M79.2076 220.499H60.3652V282.148H79.2076V220.499Z" fill="#55626F" stroke="#EFEFEF" stroke-linecap="round" stroke-linejoin="round"/>
<path d="M355.078 296.968C357.77 301.854 361.86 305.825 366.824 308.371L355.078 296.968Z" fill="#55626F"/>
<path d="M355.078 296.968C357.77 301.854 361.86 305.825 366.824 308.371" stroke="#55626F" stroke-linecap="round" stroke-linejoin="round"/>
<path d="M1 308.69H540.602" stroke="#55626F" stroke-linecap="round" stroke-linejoin="round"/>
</svg>
