<svg width="292" height="167" viewBox="0 0 292 167" fill="none" xmlns="http://www.w3.org/2000/svg">
<path d="M259.34 165.374V94.0977" stroke="#55626F" stroke-linecap="round" stroke-linejoin="round"/>
<path d="M253.559 165.373V130.029" stroke="#55626F" stroke-linecap="round" stroke-linejoin="round"/>
<path d="M261.147 105.782C261.147 105.782 255.322 105.118 252.935 100.508C250.547 95.8971 250.319 84.0041 259.391 70.8226C268.462 57.6411 273.219 57.5021 274.798 68.2583C276.377 79.0144 276.15 94.6339 272.435 100.552C268.721 106.47 261.147 105.782 261.147 105.782Z" fill="#EFEFEF"/>
<path d="M263.211 80.9539C264.285 77.2906 265.567 74.0063 267.058 71.7578" stroke="#55626F" stroke-linecap="round" stroke-linejoin="round"/>
<path d="M258.699 104.993C259.498 97.7437 260.765 90.5538 262.489 83.4678" stroke="#55626F" stroke-linecap="round" stroke-linejoin="round"/>
<path d="M264.614 128.917C264.614 128.917 260.874 126.018 261.178 121.849C261.481 117.681 266.282 109.375 278.038 104.108C289.794 98.8401 293.148 100.71 289.737 108.781C286.326 116.853 279.63 127.534 274.576 130.06C269.523 132.586 264.614 128.917 264.614 128.917Z" fill="#EFEFEF"/>
<path d="M276.434 112.661C278.708 110.589 280.969 108.87 282.934 107.936" stroke="#55626F" stroke-linecap="round" stroke-linejoin="round"/>
<path d="M274.923 114.088C270.762 118.254 266.875 122.684 263.287 127.351C263.287 127.351 260.274 131.406 259.383 139.459" stroke="#55626F" stroke-linecap="round" stroke-linejoin="round"/>
<path d="M262.492 152.994C262.492 152.994 260.326 151.314 260.502 148.902C260.679 146.489 263.459 141.676 270.275 138.619C277.091 135.562 279.024 136.655 277.047 141.335C275.07 146.015 271.191 152.198 268.272 153.657C265.354 155.116 262.492 152.994 262.492 152.994Z" fill="#EFEFEF"/>
<path d="M269.32 143.602C270.447 142.515 271.723 141.594 273.111 140.867" stroke="#55626F" stroke-linecap="round" stroke-linejoin="round"/>
<path d="M268.45 144.429C266.04 146.839 263.788 149.403 261.709 152.103C261.709 152.103 259.959 154.453 259.441 159.12" stroke="#55626F" stroke-linecap="round" stroke-linejoin="round"/>
<path d="M254.058 119.28C254.058 119.28 257.791 116.381 257.494 112.212C257.197 108.044 252.39 99.738 240.628 94.4704C228.865 89.2029 225.523 91.0724 228.935 99.1443C232.346 107.216 239.042 117.896 244.096 120.423C249.149 122.949 254.058 119.28 254.058 119.28Z" fill="#EFEFEF"/>
<path d="M242.237 103.023C240.301 101.15 238.111 99.559 235.73 98.2974" stroke="#55626F" stroke-linecap="round" stroke-linejoin="round"/>
<path d="M243.75 104.449C247.908 108.616 251.793 113.046 255.38 117.713C255.38 117.713 258.393 121.768 259.29 129.821" stroke="#55626F" stroke-linecap="round" stroke-linejoin="round"/>
<path d="M252.221 151.472C252.221 151.472 256.011 151.592 257.906 149.312C259.802 147.032 260.939 140.666 256.201 132.891C251.463 125.116 248.437 124.573 246.542 130.257C244.647 135.941 243.541 144.272 245.437 147.752C247.332 151.232 252.221 151.472 252.221 151.472Z" fill="#EFEFEF"/>
<path d="M252.812 145.674C252.869 146.451 252.907 147.228 252.926 147.999" stroke="#55626F" stroke-linecap="round" stroke-linejoin="round"/>
<path d="M249.906 129.883C251.195 134.461 252.111 139.135 252.648 143.861" stroke="#55626F" stroke-linecap="round" stroke-linejoin="round"/>
<path d="M201.01 100.678H234.851C234.851 100.678 216.531 145.718 219.987 165.834H185.691C185.691 165.834 192.091 114.397 201.01 100.678Z" fill="#EFEFEF" stroke="#55626F" stroke-linecap="round" stroke-linejoin="round"/>
<path d="M171.731 36.0278C171.731 36.0278 172.065 42.1227 183.417 45.6786C194.769 49.2345 206.291 45.6786 212.728 50.7314C219.165 55.7842 218.995 63.6034 216.79 67.5004C214.586 71.3974 211.029 75.288 221.534 79.8608C232.04 84.4336 225.767 97.8172 221.364 102.731C216.961 107.645 209.361 110.013 200.865 108.321C192.368 106.628 182.4 86.1326 171.56 75.288C160.72 64.4435 159.393 44.4407 166.31 38.7058C173.228 32.9708 171.731 36.0278 171.731 36.0278Z" fill="#FCA14D"/>
<path d="M169.989 14.1053C169.989 14.1053 174.664 12.0653 175.864 16.0001C177.065 19.935 177.418 30.748 177.418 30.748L174.892 30.148C174.892 30.148 175.492 17.9202 172.731 16.0001C169.971 14.0801 167.816 18.4002 167.816 18.4002L169.989 14.1053Z" fill="#EFEFEF" stroke="#55626F" stroke-linecap="round" stroke-linejoin="round"/>
<path d="M117.512 145.655L133.481 137.115C133.481 137.115 132.376 120.359 132.534 119.728C132.692 119.096 136.69 86.3096 136.69 86.3096L125.737 118.78L117.512 145.655Z" fill="#55626F" stroke="#55626F" stroke-linecap="round" stroke-linejoin="round"/>
<path d="M188.113 69.4712C188.113 69.4712 203.906 78.0736 206.028 78.9452C208.151 79.8168 206.9 90.7877 206.9 97.9563C206.9 105.125 196.161 165.664 196.161 165.664H116.629C116.629 165.664 130.065 145.067 130.425 139.692C130.785 134.318 128.454 130.016 128.094 124.825C127.734 119.633 135.441 87.9202 136.692 86.297C137.943 84.6738 143.325 80.5684 143.325 80.5684L162.314 63.9384L171.095 61.9678L188.113 69.4712Z" fill="#57A8F3" stroke="#55626F" stroke-linecap="round" stroke-linejoin="round"/>
<path d="M135.403 145.515L132.75 150.973" stroke="#55626F" stroke-linecap="round" stroke-linejoin="round"/>
<path d="M137.949 129.839C137.949 129.839 134.007 132.524 135.978 133.957C137.949 135.391 138.846 138.435 138.846 138.435L136.319 143.356" stroke="#55626F" stroke-linecap="round" stroke-linejoin="round"/>
<path d="M156.516 142.888C157.583 142.97 158.708 143.033 159.883 143.065" stroke="#55626F" stroke-linecap="round" stroke-linejoin="round"/>
<path d="M139.555 138.467C139.555 138.467 143.844 141.335 153.187 142.56" stroke="#55626F" stroke-linecap="round" stroke-linejoin="round"/>
<path d="M128.865 23.9319C128.11 24.3006 127.48 24.8836 127.054 25.6081C126.628 26.3327 126.426 27.1666 126.471 28.0057C126.471 31.1258 128.998 37.2334 128.998 37.2334L130.438 36.7597C130.438 36.7597 127.804 30.4058 128.164 28.1257C128.281 27.4609 128.578 26.8411 129.024 26.3342C129.47 25.8273 130.046 25.4529 130.691 25.2519L130.211 23.6919L128.865 23.9319Z" fill="#EFEFEF" stroke="#55626F" stroke-linecap="round" stroke-linejoin="round"/>
<path d="M135.036 39.9813C135.667 43.1393 134.587 45.9878 132.667 46.3604C130.746 46.7331 128.7 44.4656 128.093 41.3076C127.487 38.1496 128.542 35.2948 130.462 34.9285C132.382 34.5621 134.429 36.8296 135.036 39.9813Z" fill="#EFEFEF" stroke="#55626F" stroke-linecap="round" stroke-linejoin="round"/>
<path d="M140.868 38.9648C142.062 42.9944 140.665 46.9671 137.747 47.8072C134.828 48.6472 131.493 46.1081 130.293 42.0785C129.093 38.0489 130.495 34.0762 133.413 33.2361C136.332 32.3961 139.674 34.9351 140.868 38.9648Z" fill="#55626F" stroke="#55626F" stroke-linecap="round" stroke-linejoin="round"/>
<path d="M151.689 60.9314L154.525 70.1528L145.201 81.9006L143.647 90.9766C143.647 90.9766 142.1 116.872 142.984 120.864C143.868 124.856 143.868 125.955 143.868 125.955C143.868 125.955 163.135 103.596 172.655 89.8713C182.175 76.1467 184.386 67.7274 184.386 67.7274L175.087 62.6746L170.665 42.0845L151.689 60.9314Z" fill="#EFEFEF" stroke="#55626F" stroke-linecap="round" stroke-linejoin="round"/>
<path d="M166.388 52.0068L154.525 70.1527L151.215 59.4723L166.388 52.0068Z" fill="#55626F" stroke="#55626F" stroke-linecap="round" stroke-linejoin="round"/>
<path d="M143.728 90.4653L143.639 90.9768C143.639 90.9768 142.092 116.872 142.976 120.864C143.86 124.856 143.86 125.955 143.86 125.955C143.86 125.955 163.128 103.596 172.647 89.8715C173.393 88.7978 174.088 87.7557 174.751 86.7451C162.831 90.8253 150.677 90.8947 143.728 90.4653Z" fill="white" stroke="#55626F" stroke-linecap="round" stroke-linejoin="round"/>
<path d="M139.06 4.39701C139.06 4.39701 130.185 9.79088 129.225 17.9385C128.265 26.0862 131.625 34.8401 132.945 38.3139C134.266 41.7877 138.82 55.3356 141.215 57.9757C143.609 60.6157 151.404 64.5633 152.724 65.2833C154.045 66.0033 156.439 65.7633 158.479 64.3232C160.52 62.8832 168.909 52.7018 170.229 50.3017C171.549 47.9016 171.783 42.6278 171.783 42.6278C171.783 42.6278 171.543 32.0801 171.069 25.2525C170.595 18.4249 170.949 11.8246 165.314 6.07076C159.679 0.316881 144.575 0.196871 139.06 4.39701Z" fill="#EFEFEF" stroke="#55626F" stroke-linecap="round" stroke-linejoin="round"/>
<path d="M156.304 37.9606C156.456 38.8387 156.134 39.6346 155.578 39.7294C155.022 39.8241 154.453 39.1924 154.314 38.3144C154.175 37.4363 154.485 36.6403 155.041 36.5393C155.597 36.4382 156.146 37.0825 156.304 37.9606Z" fill="#55626F" stroke="#55626F" stroke-linecap="round" stroke-linejoin="round"/>
<path d="M142.874 39.8738C143.032 40.7582 142.71 41.5478 142.154 41.6489C141.598 41.75 141.023 41.112 140.891 40.2276C140.758 39.3432 141.055 38.5598 141.611 38.4588C142.167 38.3577 142.723 38.9957 142.874 39.8738Z" fill="#55626F" stroke="#55626F" stroke-linecap="round" stroke-linejoin="round"/>
<path d="M150.805 32.5602C150.805 32.5602 154.766 29.4459 158.385 31.9601" stroke="#55626F" stroke-linecap="round" stroke-linejoin="round"/>
<path d="M142.775 34.2529C142.775 34.2529 138.1 31.9724 134.859 36.0533" stroke="#55626F" stroke-linecap="round" stroke-linejoin="round"/>
<path d="M142.703 34.1836C142.703 34.1836 146.408 35.9793 146.648 38.9736" stroke="#55626F" stroke-linecap="round" stroke-linejoin="round"/>
<path d="M147.211 47.188C147.211 47.188 148.531 48.1419 150.805 47.428" stroke="#55626F" stroke-linecap="round" stroke-linejoin="round"/>
<path d="M146.254 52.2218C148.941 52.106 151.584 51.4958 154.049 50.4217C158.244 48.6217 159.924 46.1079 159.924 46.1079" stroke="#55626F" stroke-linecap="round" stroke-linejoin="round"/>
<path d="M148.289 52.1021C149.248 52.9499 150.484 53.4173 151.763 53.416C153.924 53.416 155.838 49.5815 155.838 49.5815C155.838 49.5815 150.323 51.982 148.289 52.1021Z" stroke="#55626F" stroke-linecap="round" stroke-linejoin="round"/>
<path d="M132.668 43.7271C132.668 43.7271 132.706 56.1822 135.94 57.2622C139.175 58.3423 148.05 56.1822 148.05 56.1822" stroke="#55626F" stroke-width="2" stroke-linecap="round" stroke-linejoin="round"/>
<path d="M152.603 56.1312C152.603 57.0914 151.422 57.8684 149.962 57.8684C148.503 57.8684 147.328 57.0914 147.328 56.1312C147.328 55.171 148.509 54.394 149.962 54.394C151.415 54.394 152.603 55.171 152.603 56.1312Z" fill="#55626F" stroke="#55626F" stroke-linecap="round" stroke-linejoin="round"/>
<path d="M153.356 70.7275C153.356 70.7275 149.566 77.353 146.907 97.059C144.247 116.765 146.01 120.7 146.01 120.7L142.219 123.03C142.219 123.03 134.342 122.133 137.027 103.508C139.711 84.8817 141.202 81.8311 141.202 81.8311L153.356 70.7275Z" fill="#57A8F3" stroke="#55626F" stroke-linecap="round" stroke-linejoin="round"/>
<path d="M177.362 63.9385C177.362 63.9385 168.764 84.3581 159.806 97.0785C150.849 109.799 138.676 128.046 138.676 128.046C138.676 128.046 145.126 125.002 158.745 114.782C172.365 104.563 186.155 81.1054 187.589 78.7811C189.023 76.4568 191.171 71.0819 191.171 71.0819L177.362 63.9385Z" fill="#57A8F3" stroke="#55626F" stroke-linecap="round" stroke-linejoin="round"/>
<path d="M102.939 154.661C100.838 155.94 98.634 157.043 96.3506 157.958C92.3203 159.607 91.9287 159.316 93.2363 160.706C94.544 162.095 101.297 159.607 103.129 158.874C104.961 158.141 108.442 157.042 108.442 157.042C108.442 157.042 112.655 159.423 115.22 160.156C117.784 160.889 120.905 159.79 120.905 159.79C120.905 159.79 121.088 156.859 118.89 155.211C116.692 153.562 111.941 149.716 110.28 149.899C108.618 150.082 102.939 154.661 102.939 154.661Z" fill="#EFEFEF" stroke="#55626F" stroke-linecap="round" stroke-linejoin="round"/>
<path d="M101.841 150.265C101.841 150.265 99.6425 149.715 98.177 150.814C96.7114 151.913 95.0627 155.393 94.8795 156.309C94.6963 157.225 95.0627 157.775 96.5282 156.492C97.9938 155.21 100.559 153.379 100.559 153.379L102.757 152.646L101.841 150.265Z" fill="#EFEFEF" stroke="#55626F" stroke-linecap="round" stroke-linejoin="round"/>
<path d="M107.518 148.616C107.518 148.616 103.097 147.151 102.206 148.433C101.315 149.715 98.1755 157.042 99.0915 157.591C100.007 158.141 101.29 157.042 102.939 154.661C104.587 152.28 105.503 150.997 105.503 150.997L107.702 150.631L107.518 148.616Z" fill="#EFEFEF" stroke="#55626F" stroke-linecap="round" stroke-linejoin="round"/>
<path d="M115.372 150.259C115.372 150.259 109.642 145.781 108.208 146.854C106.774 147.928 102.118 154.913 101.582 156.328C101.045 157.743 103.552 157.048 105.517 155.255C107.482 153.461 109.819 151.465 109.819 151.465L114.298 153.796L115.372 150.259Z" fill="#EFEFEF" stroke="#55626F" stroke-linecap="round" stroke-linejoin="round"/>
<path d="M135.977 153.662C135.977 153.662 128.453 153.302 125.408 152.229C122.364 151.155 116.268 148.824 114.48 149.001C112.692 149.178 105.876 155.81 104.442 157.244C103.008 158.677 103.179 159.063 104.587 159.239C105.996 159.416 109.458 157.067 111.075 155.81C112.075 155.04 113.155 154.379 114.297 153.839C115.582 155.689 117.022 157.428 118.599 159.037C120.386 160.648 124.688 161.899 126.299 161.722C127.324 161.605 128.341 161.426 129.344 161.185L135.44 161.008L135.977 153.662Z" fill="#EFEFEF" stroke="#55626F" stroke-linecap="round" stroke-linejoin="round"/>
<path d="M188.288 101.891C188.288 101.891 181.662 109.59 182.022 112.281C182.382 114.971 182.559 117.649 182.559 117.649L177.72 146.848C177.72 146.848 173.601 144.878 173.601 146.488V148.105L134.884 152.046L134.523 165.657L196.153 165.834C196.153 165.834 199.198 162.436 199.558 161.179C199.918 159.922 206.721 138.252 208.515 115.502C210.309 92.7518 209.412 82.5451 208.515 80.764C207.618 78.9829 197.499 74.5 197.499 74.5" fill="#57A8F3"/>
<path d="M188.288 101.891C188.288 101.891 181.662 109.59 182.022 112.281C182.382 114.971 182.559 117.649 182.559 117.649L177.72 146.848C177.72 146.848 173.601 144.878 173.601 146.488V148.105L134.884 152.046L134.523 165.657L196.153 165.834C196.153 165.834 199.198 162.436 199.558 161.179C199.918 159.922 206.721 138.252 208.515 115.502C210.309 92.7518 209.412 82.5451 208.515 80.764C207.618 78.9829 197.499 74.5 197.499 74.5" stroke="#55626F" stroke-linecap="round" stroke-linejoin="round"/>
<path d="M179.156 146.678C179.156 146.678 184.886 150.436 188.291 151.333L179.156 146.678Z" fill="#EFEFEF"/>
<path d="M179.156 146.678C179.156 146.678 184.886 150.436 188.291 151.333" stroke="#55626F" stroke-linecap="round" stroke-linejoin="round"/>
<path d="M125.407 110.342L129.829 96.1501C131.622 94.3934 133.192 92.4227 134.504 90.2826C136.399 87.0803 136.399 81.0738 136.102 80.0064C135.805 78.939 139.974 74.1389 141.156 72.4272C142.337 70.7156 143.019 67.6207 141.421 65.3533C139.823 63.0858 139.02 66.8249 137.953 68.5555C136.885 70.2861 133.146 72.023 133.146 72.023L129.197 75.2315C129.197 75.2315 122.659 80.9665 122.249 81.7686C121.838 82.5707 121.048 85.1034 121.048 85.1034L121.585 92.8405L118.117 106.313L125.407 110.342Z" fill="#EFEFEF" stroke="#55626F" stroke-linecap="round" stroke-linejoin="round"/>
<path d="M126.5 70.5639C126.5 70.5639 129.703 65.5111 130.638 63.8942C131.573 62.2773 133.038 55.8918 133.973 56.315C134.908 56.7382 135.868 58.8414 135.578 61.652C135.287 64.4627 131.971 70.8545 131.971 70.8545L126.5 70.5639Z" fill="#EFEFEF" stroke="#55626F" stroke-linecap="round" stroke-linejoin="round"/>
<path d="M118.762 102.314L121.567 92.84L120.354 77.631L124.087 70.4308L134.359 69.0981C134.359 69.0981 140.631 72.433 141.168 72.433C141.705 72.433 141.168 73.8983 139.968 74.1636C138.768 74.4288 136.494 73.7657 136.494 73.7657L140.366 76.2921C140.366 76.2921 140.101 77.4921 139.166 77.7574C138.243 77.9436 137.303 78.0346 136.361 78.029C136.361 78.029 139.697 80.1638 138.888 80.5554C138.096 80.9188 137.232 81.1001 136.361 81.0859H133.834L131.832 80.8206L128.762 82.0207C128.762 82.0207 130.897 87.4903 130.764 90.162C130.632 92.8337 127.296 94.5832 127.296 94.5832" fill="#EFEFEF"/>
<path d="M118.762 102.314L121.567 92.84L120.354 77.631L124.087 70.4308L134.359 69.0981C134.359 69.0981 140.631 72.433 141.168 72.433C141.705 72.433 141.168 73.8983 139.968 74.1636C138.768 74.4288 136.494 73.7657 136.494 73.7657L140.366 76.2921C140.366 76.2921 140.101 77.4921 139.166 77.7574C138.243 77.9436 137.303 78.0346 136.361 78.029C136.361 78.029 139.697 80.1638 138.888 80.5554C138.096 80.9188 137.232 81.1001 136.361 81.0859H133.834L131.832 80.8206L128.762 82.0207C128.762 82.0207 130.897 87.4903 130.764 90.162C130.632 92.8337 127.296 94.5832 127.296 94.5832" stroke="#55626F" stroke-linecap="round" stroke-linejoin="round"/>
<path d="M136.507 73.7665C136.507 73.7665 134.371 72.0293 133.171 72.0293C131.971 72.0293 124.637 73.3622 124.637 73.3622" stroke="#55626F" stroke-linecap="round" stroke-linejoin="round"/>
<path d="M136.375 78.0357C136.375 78.0357 132.906 76.1406 131.839 76.1406C130.771 76.1406 122.363 78.2758 122.363 78.2758" stroke="#55626F" stroke-linecap="round" stroke-linejoin="round"/>
<path d="M118.935 99.3398L129.769 106.635C129.769 106.635 124.943 132.53 124.469 134.747C123.995 136.964 120.521 142.807 118.784 144.55C117.046 146.293 114.993 145.971 110.249 144.708C105.505 143.444 101.405 139.655 101.551 134.747C101.696 129.84 118.935 99.3398 118.935 99.3398Z" fill="#57A8F3" stroke="#55626F" stroke-linecap="round" stroke-linejoin="round"/>
<path d="M172.011 25.1547C171.514 18.2136 171.886 11.5163 166.062 5.67219C160.237 -0.171916 144.623 -0.293808 138.923 3.9722C138.923 3.9722 129.748 9.45065 128.755 17.7261C128.181 22.5374 129.321 27.7764 130.464 31.8307C132.573 30.5477 139.484 26.0271 147.47 20.5294C157.011 13.954 160.113 3.72843 160.113 3.72843C160.113 3.72843 161.223 3.119 160.981 4.45975C160.74 5.80049 157.011 13.7102 155.653 14.9291L154.288 16.1415C154.288 16.1415 155.405 15.8978 160.485 21.8638C165.565 27.8298 168.412 30.2675 169.901 30.9988C170.692 31.2795 171.523 31.4375 172.363 31.4671C172.265 29.2796 172.148 27.0728 172.011 25.1547Z" fill="#FCA14D"/>
<path d="M173.222 43.2284C176.268 43.2284 178.737 39.8209 178.737 35.6176C178.737 31.4143 176.268 28.0068 173.222 28.0068C170.176 28.0068 167.707 31.4143 167.707 35.6176C167.707 39.8209 170.176 43.2284 173.222 43.2284Z" fill="#55626F" stroke="#55626F" stroke-linecap="round" stroke-linejoin="round"/>
<path d="M175.561 40.1136C177.515 40.1136 179.099 37.5121 179.099 34.3029C179.099 31.0937 177.515 28.4922 175.561 28.4922C173.607 28.4922 172.023 31.0937 172.023 34.3029C172.023 37.5121 173.607 40.1136 175.561 40.1136Z" fill="#EFEFEF" stroke="#55626F" stroke-linecap="round" stroke-linejoin="round"/>
<path d="M62.9389 162.101H59.793V163.067H62.9389V162.101Z" fill="#EFEFEF" stroke="#55626F" stroke-linecap="round" stroke-linejoin="round"/>
<path d="M67.2982 162.101H64.1523V163.067H67.2982V162.101Z" fill="#EFEFEF" stroke="#55626F" stroke-linecap="round" stroke-linejoin="round"/>
<path d="M71.6576 162.101H68.5117V163.067H71.6576V162.101Z" fill="#EFEFEF" stroke="#55626F" stroke-linecap="round" stroke-linejoin="round"/>
<path d="M76.017 162.101H72.8711V163.067H76.017V162.101Z" fill="#EFEFEF" stroke="#55626F" stroke-linecap="round" stroke-linejoin="round"/>
<path d="M80.3764 162.101H77.2305V163.067H80.3764V162.101Z" fill="#EFEFEF" stroke="#55626F" stroke-linecap="round" stroke-linejoin="round"/>
<path d="M84.7357 162.101H81.5898V163.067H84.7357V162.101Z" fill="#EFEFEF" stroke="#55626F" stroke-linecap="round" stroke-linejoin="round"/>
<path d="M89.099 162.101H85.9531V163.067H89.099V162.101Z" fill="#EFEFEF" stroke="#55626F" stroke-linecap="round" stroke-linejoin="round"/>
<path d="M93.4584 162.101H90.3125V163.067H93.4584V162.101Z" fill="#EFEFEF" stroke="#55626F" stroke-linecap="round" stroke-linejoin="round"/>
<path d="M97.8178 162.101H94.6719V163.067H97.8178V162.101Z" fill="#EFEFEF" stroke="#55626F" stroke-linecap="round" stroke-linejoin="round"/>
<path d="M102.177 162.101H99.0312V163.067H102.177V162.101Z" fill="#EFEFEF" stroke="#55626F" stroke-linecap="round" stroke-linejoin="round"/>
<path d="M106.537 162.101H103.391V163.067H106.537V162.101Z" fill="#EFEFEF" stroke="#55626F" stroke-linecap="round" stroke-linejoin="round"/>
<path d="M110.892 162.101H107.746V163.067H110.892V162.101Z" fill="#EFEFEF" stroke="#55626F" stroke-linecap="round" stroke-linejoin="round"/>
<path d="M115.259 162.101H112.113V163.067H115.259V162.101Z" fill="#EFEFEF" stroke="#55626F" stroke-linecap="round" stroke-linejoin="round"/>
<path d="M119.619 162.101H116.473V163.067H119.619V162.101Z" fill="#EFEFEF" stroke="#55626F" stroke-linecap="round" stroke-linejoin="round"/>
<path d="M123.978 162.101H120.832V163.067H123.978V162.101Z" fill="#EFEFEF" stroke="#55626F" stroke-linecap="round" stroke-linejoin="round"/>
<path d="M128.333 162.101H125.188V163.067H128.333V162.101Z" fill="#EFEFEF" stroke="#55626F" stroke-linecap="round" stroke-linejoin="round"/>
<path d="M135.927 162.865H57.9805V165.606H135.927V162.865Z" fill="#EFEFEF" stroke="#55626F" stroke-linecap="round" stroke-linejoin="round"/>
<path d="M135.927 162.865H106.047V165.606H135.927V162.865Z" fill="#EFEFEF" stroke="#55626F" stroke-linecap="round" stroke-linejoin="round"/>
<path d="M82.3089 138.858H21.0268L8.71484 73.7017H69.9969L82.3089 138.858Z" fill="#55626F" stroke="#EFEFEF" stroke-linecap="round" stroke-linejoin="round"/>
<path d="M80.5792 137.164H21.6646L10.082 75.2227H69.0029L80.5792 137.164Z" fill="#55626F" stroke="#EFEFEF" stroke-linecap="round" stroke-linejoin="round"/>
<path d="M68.9921 132.283H24.7978L16.1055 86.2964H60.3061L68.9921 132.283Z" fill="#55626F" stroke="#EFEFEF" stroke-linecap="round" stroke-linejoin="round"/>
<path d="M15.9554 86.4362L10.3477 75.2227" stroke="#EFEFEF" stroke-linecap="round" stroke-linejoin="round"/>
<path d="M60.3047 86.2957L68.7569 75.3501" stroke="#EFEFEF" stroke-linecap="round" stroke-linejoin="round"/>
<path d="M68.9922 132.282L80.4387 137.21" stroke="#EFEFEF" stroke-linecap="round" stroke-linejoin="round"/>
<path d="M24.7959 132.282L21.8281 136.897" stroke="#EFEFEF" stroke-linecap="round" stroke-linejoin="round"/>
<path d="M42.7701 118.515H32.707L39.1126 112.798H49.1693L42.7701 118.515Z" fill="#55626F" stroke="#EFEFEF" stroke-linecap="round" stroke-linejoin="round"/>
<path d="M76.3039 161.193H39.4531V166H76.3039V161.193Z" fill="#55626F" stroke="#EFEFEF" stroke-linecap="round" stroke-linejoin="round"/>
<path d="M55.1137 165.834H45.0569L32.707 151.806H42.7701L55.1137 165.834Z" fill="#55626F" stroke="#EFEFEF" stroke-linecap="round" stroke-linejoin="round"/>
<path d="M42.7701 118.742H32.707V151.661H42.7701V118.742Z" fill="#55626F" stroke="#EFEFEF" stroke-linecap="round" stroke-linejoin="round"/>
<path d="M190.102 159.574C191.539 162.183 193.723 164.303 196.374 165.663L190.102 159.574Z" fill="#55626F"/>
<path d="M190.102 159.574C191.539 162.183 193.723 164.303 196.374 165.663" stroke="#55626F" stroke-linecap="round" stroke-linejoin="round"/>
<path d="M1 165.972H291" stroke="#55626F" stroke-linecap="round" stroke-linejoin="round"/>
</svg>
