<svg width="132" height="25" viewBox="0 0 132 25" fill="none" xmlns="http://www.w3.org/2000/svg">
<g clip-path="url(#clip0_2126_21625)">
<path d="M127.501 6.43994V13.1904H121.024V6.43994H116.524V24.039H121.024V17.0572H127.501V24.039H132.001V6.43994H127.501Z" fill="#2B8FEB"/>
<path d="M107.496 6.505C106.089 6.25753 104.645 6.3692 103.29 6.83024C101.311 7.51476 99.6422 8.92108 98.5977 10.7849C97.5532 12.6488 97.2047 14.8418 97.6179 16.9519C98.0311 19.0619 99.1774 20.9438 100.841 22.2437C102.506 23.5436 104.573 24.1721 106.655 24.0111C108.736 23.8501 110.689 22.9107 112.147 21.3694C113.604 19.8281 114.466 17.791 114.569 15.641C114.672 13.491 114.01 11.376 112.708 9.69371C111.406 8.01137 109.552 6.87743 107.496 6.505ZM107.159 19.8976C105.973 20.1789 104.727 19.9742 103.684 19.3265C102.641 18.6788 101.883 17.6388 101.569 16.4258C101.256 15.2128 101.411 13.9217 102.003 12.8246C102.594 11.7275 103.576 10.9103 104.741 10.5452C105.569 10.3105 106.443 10.3105 107.272 10.5452C108.285 10.8197 109.18 11.4357 109.814 12.2951C110.449 13.1545 110.787 14.2081 110.774 15.2882C110.761 16.3684 110.398 17.413 109.743 18.2561C109.088 19.0992 108.179 19.6922 107.159 19.941V19.8976Z" fill="#2B8FEB"/>
<path d="M66.3434 5.58691V10.2993C67.4082 10.8338 68.2657 11.7247 68.7761 12.8266C69.2865 13.9285 69.4196 15.1762 69.1536 16.3661C68.8876 17.556 68.2382 18.6178 67.3116 19.3781C66.3849 20.1385 65.2356 20.5524 64.0514 20.5524C62.8671 20.5524 61.7179 20.1385 60.7912 19.3781C59.8645 18.6178 59.2152 17.556 58.9492 16.3661C58.6832 15.1762 58.8162 13.9285 59.3266 12.8266C59.837 11.7247 60.6946 10.8338 61.7593 10.2993V5.58691C59.4936 6.16427 57.5112 7.57683 56.1863 9.55799C54.8614 11.5391 54.2856 13.9519 54.5676 16.3407C54.8497 18.7296 55.97 20.9294 57.7172 22.525C59.4643 24.1205 61.7175 25.0014 64.0514 25.0014C66.3853 25.0014 68.6384 24.1205 70.3856 22.525C72.1327 20.9294 73.2531 18.7296 73.5351 16.3407C73.8171 13.9519 73.2414 11.5391 71.9165 9.55799C70.5915 7.57683 68.6091 6.16427 66.3434 5.58691Z" fill="#2B8FEB"/>
<path d="M61.1426 15.6618C61.2415 16.2169 61.4842 16.734 61.8449 17.1585C62.2056 17.583 62.6709 17.899 63.1915 18.0731C63.7122 18.2471 64.2688 18.2728 64.8024 18.1473C65.3361 18.0218 65.8268 17.7499 66.2228 17.3603C66.6188 16.9706 66.9053 16.4779 67.0518 15.9341C67.1984 15.3903 67.1996 14.8158 67.0554 14.2714C66.9111 13.727 66.6268 13.2329 66.2325 12.8415C65.8382 12.4501 65.3485 12.1759 64.8155 12.048V5.29028H63.4136V12.0191C62.6571 12.2057 61.999 12.6847 61.5751 13.3572C61.1512 14.0296 60.9938 14.8443 61.1355 15.6329L61.1426 15.6618Z" fill="#2B8FEB"/>
<path d="M87.4346 7.74812V6.43994H83.1308V7.74812C82.7593 7.80594 82.4299 7.87099 82.0374 7.96495C78.007 8.96957 75.0981 11.7955 75.0981 15.1202C75.0981 18.734 78.5397 21.7695 83.1308 22.4995V24.039H87.4346V22.4995C92.0257 21.7767 95.4673 18.7484 95.4673 15.1202C95.4673 11.492 92.0257 8.48533 87.4346 7.74812ZM79.7243 15.1202C79.7243 13.4 81.1262 11.9329 83.1519 11.3041V18.9436C81.1191 18.3148 79.7033 16.8403 79.7033 15.1202H79.7243ZM87.4346 18.9436V11.3041C89.4462 11.9329 90.8621 13.4 90.8621 15.1202C90.8621 16.8403 89.4462 18.3148 87.4346 18.9436Z" fill="#2B8FEB"/>
<path d="M10.7874 0H0C0 1.90807 1.33178 2.96328 3.05607 3.54149V20.1648C1.32477 20.6996 0 21.7837 0 24.0387H9.93224C12.7921 24.0387 14.7827 23.6774 15.9112 22.9402C17.6636 21.791 18.0911 20.0491 18.0911 17.7363V6.63486C18.0911 2.16826 15.9953 0 10.7874 0ZM13.0164 17.0425C13.0164 18.8711 11.9509 19.789 9.79906 19.789C9.18224 19.789 8.3972 19.7528 7.59813 19.7384V4.2281C8.48832 4.26424 9.28738 4.2281 9.86215 4.2281C12.0164 4.2281 13.0911 5.19177 13.0864 7.11911C13.0864 9.07054 13.0164 15.1778 13.0164 17.0425Z" fill="#2B8FEB"/>
<path d="M28.5554 6.54077C22.9128 6.54077 20.3264 11.2314 20.3264 15.4812C20.3264 20.7212 23.4876 24.0097 29.0039 24.0097C31.0122 24.0563 33.0099 23.6978 34.8848 22.9545V19.4202C33.2119 19.924 31.4755 20.1676 29.7329 20.143C27.3778 20.143 25.282 19.1167 25.1488 16.9556H35.6348C35.7486 16.2753 35.8049 15.5861 35.803 14.8958C35.803 10.7544 33.8124 6.54077 28.5554 6.54077ZM25.1348 13.3925C25.268 12.0192 26.1301 9.99553 28.261 9.99553C30.5881 9.99553 31.1208 12.1204 31.1208 13.3925H25.1348Z" fill="#2B8FEB"/>
<path d="M44.6636 6.75794C42.5608 7.34337 39.2313 9.30202 39.2313 13.1109V18.3509C39.2313 20.7432 38.6986 20.736 37.7874 21.6539C37.4927 21.9423 37.2624 22.2934 37.1123 22.6828C36.9622 23.0721 36.896 23.4905 36.9183 23.9088H41.4463C43.1215 23.9088 43.9837 21.4226 43.9837 18.3653V13.4868C43.9825 12.6616 44.2974 11.8693 44.8598 11.2824C45.5332 10.6324 46.4007 10.2375 47.3201 10.1621H47.5304V23.8944H52.3809V6.54834H45.722C45.3619 6.57111 45.0062 6.64156 44.6636 6.75794Z" fill="#2B8FEB"/>
</g>
<defs>
<clipPath id="clip0_2126_21625">
<rect width="132" height="25" fill="white"/>
</clipPath>
</defs>
</svg>
