<svg width="102" height="25" viewBox="0 0 102 25" fill="none" xmlns="http://www.w3.org/2000/svg">
<path d="M31.3375 5.11647C33.6336 5.11647 35.632 5.69884 37.0352 6.82196V1.99667C37.0352 0.873544 37.8856 0 39.0337 0C40.1817 0 41.0321 0.831947 41.0321 1.99667V15.0582C41.0321 20.7155 37.0352 25 31.0398 25C25.6398 25 21.0476 20.7571 21.0476 15.0582C21.0476 9.94176 25.0445 5.69884 29.8918 5.40765H30.4446C30.4871 5.40765 31.3375 5.11647 31.3375 5.11647ZM16.8381 22.421C14.542 24.376 11.9907 24.9584 9.99228 24.9584C4.54968 24.9584 0 20.4243 0 15.0166C0 9.60899 4.29455 5.07488 9.99228 5.07488C12.5435 5.07488 14.8396 5.90682 16.8381 7.61231C18.8365 9.60899 19.9846 12.1464 19.9846 14.975C19.9846 16.0982 19.1341 16.9717 17.9861 16.9717H9.69464C8.54659 16.9717 7.69618 16.1398 7.69618 14.975C7.14342 13.8519 8.24894 12.6872 9.39699 12.6872H15.3924C14.542 10.3993 12.5435 8.98503 9.99228 8.98503C7.44106 8.98503 5.4426 10.3993 4.5922 12.9368C4.29455 14.3511 4.29455 15.4742 4.5922 16.6389C5.4426 18.9268 7.44106 20.5907 9.99228 20.5907C10.545 20.5907 11.1403 20.5907 11.6931 20.2995C12.2459 20.0083 13.1388 19.7171 13.6915 19.4676C13.9892 19.4676 13.9892 19.1764 14.2443 19.1764C16.8381 17.5957 19.0916 20.4243 16.8381 22.421ZM58.7206 5.11647C59.8686 5.11647 60.719 5.94842 60.719 7.11315V16.7637C60.719 21.2978 56.1694 24.7088 51.8748 24.7088C47.5803 24.7088 42.7329 21.2978 42.7329 16.7637V7.36273C42.7329 6.2396 43.5833 5.36606 44.7314 5.36606C45.8794 5.36606 46.7298 6.198 46.7298 7.36273V17.0133C46.7298 19.3012 49.5787 20.7155 51.5772 20.7155C53.5756 20.7155 56.1268 19.01 56.1268 17.0133V7.36273C56.7221 6.2396 57.5725 5.11647 58.7206 5.11647ZM36.7801 15.3078C36.7801 15.0166 36.7801 15.0166 36.7801 15.3078C36.7801 12.4792 34.7816 10.1913 32.2304 9.65058H31.0824C30.5296 9.65058 29.9343 9.65058 29.3815 9.94176C27.0855 10.5241 25.3846 12.7704 25.3846 15.3494C25.3846 18.4692 27.9359 21.0067 31.0824 21.0067C34.484 20.7155 36.4824 18.4276 36.7801 15.3078Z" fill="#1D1D1F"/>
<path d="M97.7052 15.3489C97.7052 14.517 97.7052 13.6434 97.4076 13.0611C96.5572 10.7732 94.5587 9.35889 92.0075 9.35889C88.861 9.35889 86.3098 11.8963 86.3098 15.0161C86.3098 16.1393 86.6074 17.0128 87.1602 17.8448C87.4579 18.6767 88.3083 19.2591 88.861 19.5502C89.7114 20.1326 90.8595 20.3822 92.0075 20.6734C95.154 20.7566 97.7052 18.1775 97.7052 15.3489ZM86.6074 23.294C84.609 21.8797 83.2058 20.1742 82.6105 17.8864C82.3129 17.0544 82.3129 16.1809 82.3129 15.0577C82.3129 9.65008 86.8626 5.11597 92.3052 5.11597C94.3036 5.11597 96.0044 5.69833 97.7052 6.82146C101.107 9.10931 102 11.3556 102 14.1842V22.9612C102 24.0844 101.149 24.9579 100.001 24.9579C99.1509 24.9579 98.3005 24.1259 98.0029 23.2524C96.3021 24.3755 94.3036 24.9579 92.3052 24.9579C90.0091 24.9995 88.0531 24.4171 86.6074 23.294ZM72.0655 24.9995C66.6654 24.9995 62.0732 20.4654 62.0732 15.0577C62.0732 9.65008 66.3678 5.11597 72.0655 5.11597C75.4671 5.11597 78.9113 7.11264 80.6121 9.94126C81.1648 11.0644 80.9097 12.2291 79.7617 12.7699C78.6136 13.3522 77.4656 13.0611 76.9128 11.9379C75.7648 10.2324 74.0639 9.10931 72.0655 9.10931C68.919 9.10931 66.3678 11.6467 66.3678 14.7665C66.3678 17.8863 68.919 20.4238 72.0655 20.4238C74.0639 20.4238 75.7648 19.5918 76.9128 17.8864C77.4656 17.0544 78.9113 16.7632 79.7617 17.304C80.6121 17.8448 80.9097 19.3007 80.3144 20.1326C78.6136 23.294 75.5096 24.9995 72.0655 24.9995Z" fill="#DB6960"/>
</svg>
