<svg width="177" height="25" viewBox="0 0 177 25" fill="none" xmlns="http://www.w3.org/2000/svg">
<g clip-path="url(#clip0_2126_21376)">
<path d="M44.7183 6.60543C42.2423 6.64319 41.7753 7.52246 40.8308 10.314C40.2777 11.9458 40.1629 13.7205 39.7351 15.4117C38.8637 18.8478 37.2774 21.812 34.2379 23.5544C31.9446 24.8679 29.3904 25.375 26.7083 24.7088C24.9187 24.2962 23.304 23.3018 22.1008 21.8714C21.7199 21.4182 21.2946 21.251 20.7207 21.5369C20.0997 21.8471 19.377 21.8822 18.7796 22.2921C18.4717 22.5025 18.0882 22.8316 17.7229 22.4971C17.402 22.2004 17.462 21.7176 17.6055 21.3481C18.0569 20.1614 18.109 18.9045 18.2551 17.6665C18.2664 17.3506 18.371 17.0458 18.5547 16.7932C18.7385 16.5405 18.9927 16.3521 19.2831 16.2532C20.1936 15.9295 20.3032 15.2633 20.3893 14.3787C20.7259 10.8427 21.3312 7.36603 23.4497 4.39915C25.0333 2.18478 27.1023 0.733699 29.7113 0.178084C30.5905 -0.00802034 31.2767 0.277886 31.3002 1.22998C31.3262 2.59745 31.822 3.85162 31.9785 5.18672C32.0489 5.83134 31.9472 6.36807 31.3628 6.45978C28.4172 6.92369 28.1798 9.50757 27.4754 11.7112C27.0188 13.1487 27.2145 14.6511 27.2145 16.1264C27.2145 17.1486 27.5484 18.1007 28.5529 18.3516C29.6513 18.6213 30.8227 18.6213 31.6289 17.5074C32.8551 15.8 33.3039 13.8149 33.6874 11.7678C34.2744 8.63369 35.1041 5.5832 37.3922 3.21239C41.0787 -0.614882 46.4924 -1.07879 50.7164 2.13353C51.2799 2.56238 51.6713 2.30614 52.1383 2.08228C53.1245 1.61028 54.1028 1.12749 55.0969 0.67976C55.9239 0.307552 56.2579 0.679756 56.1405 1.53476C55.9683 2.86715 55.7596 4.19147 55.5561 5.51847C55.5225 5.78986 55.4208 6.04743 55.261 6.26557C55.1013 6.48371 54.8891 6.65482 54.6455 6.76186C53.6176 7.15834 53.4741 7.91894 53.5054 8.89802C53.657 12.7732 52.7278 16.6118 50.8285 19.9564C49.2631 22.7425 46.7742 24.2961 43.7295 24.9003C43.239 24.9974 42.9468 24.7708 42.7746 24.2395C42.2214 22.6212 42.1458 20.9058 41.8771 19.2308C41.7884 18.6725 42.138 18.4864 42.5684 18.4972C44.0843 18.5323 44.9609 17.4696 45.4175 16.2936C46.3985 13.7664 47.1472 11.1367 46.662 8.337C46.4532 7.13137 45.8427 6.46787 44.7183 6.60543Z" fill="#F2775A"/>
<path d="M59.4253 24.4876C57.9016 24.4876 56.6858 24.4876 55.47 24.4876C54.0951 24.4714 53.8263 24.1855 54.0324 22.8153C54.382 20.4769 54.8151 18.1546 55.1648 15.8189C55.6866 12.4232 56.1196 9.01395 56.7067 5.63171C56.9676 4.14017 57.2859 2.66482 57.4607 1.15441C57.5363 0.509792 58.0086 0.415394 58.5043 0.415394C61.3742 0.415394 64.2754 0.113317 67.0905 0.496314C71.0249 1.03575 73.4173 3.71133 74.0931 7.7301C74.7531 11.6545 73.887 15.39 72.1859 18.8721C70.7353 21.8848 68.1263 23.5031 64.9511 24.1855C63.0205 24.6089 61.0637 24.4552 59.4253 24.4876ZM67.5758 10.732C67.8367 7.40374 66.7644 6.57841 64.1371 6.61617C63.3935 6.61617 63.0596 7.04772 62.95 7.77056C62.4517 11.0827 61.956 14.3921 61.4055 17.6934C61.309 18.2706 61.442 18.4594 61.9273 18.4486C63.6179 18.4109 65.6869 17.9092 66.5191 15.8243C67.2027 14.1467 67.7271 12.4582 67.5758 10.7293V10.732Z" fill="#F2775A"/>
<path d="M166.355 0.40189C168.476 0.536748 170.819 0.172633 173.139 1.29735C176.4 2.87789 177.608 6.38419 176.713 9.84735C176.16 12.0051 175.075 13.8014 173.272 15.0583C172.606 15.5222 172.46 16.0185 172.729 16.7629C173.444 18.7345 174.117 20.7223 174.829 22.6966C175.231 23.8052 174.944 24.2745 173.757 24.2151C172.413 24.1477 171.062 24.1855 169.716 24.1963C168.904 24.1963 168.456 23.8402 168.218 23.0149C167.762 21.4263 167.227 19.8646 166.705 18.2976C166.563 17.8748 166.388 17.4644 166.183 17.0704C165.922 16.5822 165.471 16.6253 165.033 16.6766C164.594 16.7278 164.492 17.038 164.419 17.4237C164.114 19.042 163.691 20.636 163.616 22.3028C163.545 23.9211 163.211 24.1909 161.609 24.1909C160.435 24.1909 159.261 24.172 158.087 24.1909C157.234 24.2097 156.825 24.0263 157.015 22.9529C157.639 19.4465 158.155 15.9187 158.711 12.3989C159.22 9.18115 159.754 5.96613 160.227 2.74302C160.548 0.585295 160.696 0.396496 162.729 0.393799L166.355 0.40189ZM167.49 6.60536C166.008 5.81509 165.961 7.09085 165.8 8.21017C165.711 8.82512 165.646 9.44817 165.56 10.0658C165.489 10.5702 165.703 10.848 166.183 10.875C166.873 10.9299 167.566 10.9227 168.255 10.8534C169.47 10.6646 170.501 9.27016 170.342 8.04295C170.167 6.63773 169.082 6.66739 168.075 6.61885C167.949 6.59997 167.819 6.60536 167.49 6.60536Z" fill="#F2775A"/>
<path d="M13.6894 0.113253C14.8217 -0.00542226 16.1497 0.199561 17.4698 0.474672C18.3934 0.668867 18.9752 1.14357 18.8344 2.22513C18.7013 3.24465 18.6335 4.27768 18.4326 5.28372C18.2108 6.38955 17.7594 7.20949 16.3949 6.6323C14.2816 5.75033 12.2518 6.2493 10.2559 7.15015C9.00884 7.71116 8.31485 8.81969 7.78522 9.98217C6.96827 11.8234 6.64823 13.8588 6.85903 15.8728C6.90696 16.3426 7.05721 16.7952 7.2985 17.1965C7.53979 17.5977 7.86586 17.9373 8.25223 18.1896C9.24626 18.9098 10.1959 18.3892 10.5325 17.216C10.9578 15.7433 11.0543 14.2275 11.2448 12.7279C11.3909 11.6706 11.8448 11.1096 12.9458 11.1608C14.2503 11.2121 15.5548 11.1824 16.8593 11.1608C17.642 11.1608 18.049 11.3092 17.8768 12.326C17.329 15.5545 16.8959 18.7911 16.408 22.0088C16.3734 22.3696 16.2496 22.7152 16.0486 23.0123C15.8476 23.3093 15.576 23.548 15.26 23.7053C11.4274 25.5799 5.41625 25.677 2.215 21.9711C0.900957 20.4591 0.129922 18.5259 0.031264 16.4958C-0.211373 12.5067 0.576545 8.7145 2.8516 5.43745C4.98837 2.38966 7.85827 0.396455 11.6413 0.121344C12.2466 0.0754923 12.8571 0.113253 13.6894 0.113253Z" fill="#F2775A"/>
<path d="M100.59 24.1855C98.6334 24.1855 96.6766 24.1396 94.7225 24.2071C93.6632 24.2448 93.1128 23.9697 93.4363 22.7857C94.1694 20.1155 94.1772 17.3158 94.8425 14.6241C95.2286 13.0732 95.2 11.4144 95.5443 9.85008C96.1627 7.06391 96.2122 4.18604 96.9662 1.42145C97.1724 0.660851 97.488 0.388436 98.2134 0.391133C102.257 0.40372 106.3 0.40372 110.34 0.391133C111.271 0.391133 111.571 0.779524 111.334 1.73971C111.084 2.64543 110.95 3.58136 110.937 4.52319C110.966 5.89335 110.348 6.18464 109.179 6.14149C107.402 6.06596 105.615 6.16306 103.836 6.10642C102.823 6.07675 102.234 6.33568 102.351 7.51704C102.374 7.83184 102.336 8.14815 102.239 8.44756C101.978 9.27828 102.383 9.51024 103.079 9.51024C104.731 9.51024 106.382 9.5426 108.036 9.51024C108.845 9.49136 109.283 9.70174 109.124 10.6511C108.952 11.6626 108.879 12.6956 108.691 13.7043C108.482 14.8102 107.882 15.355 106.685 15.2687C105.213 15.1608 103.729 15.2687 102.249 15.2363C100.465 15.1851 101.049 16.7278 100.856 17.5828C100.621 18.6347 101.608 18.4325 102.208 18.4432C103.99 18.4729 105.772 18.4675 107.554 18.4432C108.425 18.4432 108.996 18.8235 108.704 19.7298C108.341 20.8518 108.31 22.017 108.088 23.1525C107.934 23.9616 107.567 24.1855 106.847 24.1801C104.762 24.1855 102.675 24.1855 100.59 24.1855Z" fill="#F2775A"/>
<path d="M148.051 24.1854C146.008 24.1854 143.962 24.1854 141.919 24.1854C140.967 24.1854 140.649 23.9858 140.959 22.8233C141.392 21.205 141.429 19.4653 141.692 17.7877C142.214 14.4432 142.799 11.1068 143.344 7.76505C143.667 5.78534 143.983 3.80292 144.275 1.81781C144.411 0.887292 144.797 0.372129 145.796 0.380221C149.665 0.410789 153.534 0.410789 157.404 0.380221C158.463 0.380221 158.818 0.857624 158.687 1.86097C158.648 2.17114 158.575 2.47592 158.515 2.78339C157.879 6.12248 157.879 6.12248 154.523 6.12248C153.391 6.12248 152.261 6.13597 151.132 6.12248C150.54 6.12248 150.226 6.32477 150.005 6.9613C149.146 9.41033 149.188 9.51551 151.664 9.51821C152.969 9.51821 154.273 9.51821 155.578 9.51821C156.36 9.51821 156.686 9.89582 156.548 10.7023C156.381 11.6705 156.162 12.6361 156.078 13.6152C155.969 14.8964 155.275 15.2713 154.148 15.2335C152.668 15.1957 151.189 15.2335 149.712 15.2335C149.159 15.2335 148.692 15.3117 148.484 15.9725C148.251 16.7169 148.105 17.4802 148.351 18.2112C148.471 18.5699 148.972 18.435 149.308 18.4377C151.22 18.4377 153.133 18.4566 155.048 18.4377C155.904 18.4377 156.29 18.613 156.125 19.6838C155.943 20.8733 155.486 22.0034 155.507 23.2441C155.523 24.0748 154.829 24.1719 154.182 24.1719L148.051 24.1854Z" fill="#F2775A"/>
<path d="M83.3707 24.4767C81.6147 24.6112 79.8498 24.4026 78.1684 23.8617C76.5091 23.3223 76.2925 22.8773 76.603 21.0944C76.783 20.0371 76.903 18.9664 76.9917 17.8956C77.0674 16.9678 77.3805 16.6657 78.2336 17.1728C80.1851 18.3379 82.3089 18.6427 84.5213 18.4485C85.304 18.3784 86.1493 18.3676 86.3659 17.3292C86.5981 16.2153 85.8441 15.9132 85.0614 15.5032C83.5772 14.7624 82.1425 13.9199 80.767 12.9814C78.878 11.649 77.8684 9.66656 78.1162 7.33081C78.3771 4.74693 79.4859 2.54874 81.9436 1.33772C85.7188 -0.520626 89.4836 -0.323737 93.2667 1.28377C94.0363 1.61283 94.4355 1.96616 94.1172 3.00456C93.7989 4.04297 93.7937 5.21354 93.7389 6.32747C93.6841 7.4414 93.2171 7.58704 92.2883 7.27417C90.9395 6.82914 89.6793 6.1063 88.2052 6.0092C87.479 5.96861 86.7507 6.00566 86.0319 6.11978C85.4005 6.20879 84.9387 6.47851 84.837 7.1501C84.7352 7.82169 85.1501 8.27482 85.6588 8.55802C86.6111 9.09745 87.6182 9.51821 88.5757 10.0415C90.5429 11.1203 92.4657 12.2127 93.1493 14.686C93.4166 15.6697 93.4909 16.6987 93.368 17.7126C93.245 18.7264 92.9273 19.7046 92.4333 20.5897C91.9394 21.4747 91.2793 22.2487 90.4918 22.8662C89.7043 23.4837 88.8054 23.9322 87.8478 24.1854C86.4441 24.5603 85.0066 24.5063 83.3707 24.4767Z" fill="#F2775A"/>
<path d="M117.014 24.1854C115.099 24.1854 113.186 24.1989 111.274 24.1854C110.009 24.1854 109.682 23.681 109.951 22.4134C110.836 18.2705 111.404 14.0764 111.986 9.87966C112.391 6.96942 112.999 4.09155 113.486 1.1921C113.596 0.544783 113.993 0.409924 114.507 0.407227C115.941 0.407227 117.376 0.407227 118.811 0.407227C119.719 0.407227 119.946 0.976328 119.805 1.75581C119.101 5.6586 118.699 9.61804 117.851 13.4966C117.59 14.6698 117.624 15.9051 117.423 17.0946C117.275 17.9765 117.59 18.2031 118.376 18.1896C120.158 18.1573 121.94 18.1896 123.722 18.1761C124.765 18.1626 125.449 18.222 124.901 19.6731C124.549 20.6036 124.596 21.6986 124.483 22.7235C124.371 23.7485 123.943 24.2474 122.881 24.2178C120.927 24.1557 118.968 24.1854 117.014 24.1854Z" fill="#F2775A"/>
<path d="M132.569 24.1855C130.526 24.1855 128.483 24.1855 126.44 24.1855C125.811 24.1855 125.556 24.0965 125.657 23.2712C126.233 18.8478 126.924 14.4425 127.729 10.0551C128.18 7.60605 128.431 5.11657 128.838 2.64867C129.195 0.474758 129.153 0.383057 131.329 0.383057C132.462 0.383057 133.591 0.383053 134.721 0.396539C135.334 0.396539 135.705 0.609616 135.559 1.3837C134.776 5.54812 134.09 9.72333 133.586 13.9336C133.464 14.9064 133.267 15.8678 132.999 16.8088C132.694 17.9038 133.153 18.1762 134.1 18.1574C135.793 18.1304 137.492 18.1412 139.185 18.1574C140.49 18.1574 140.891 18.5673 140.568 19.8728C140.307 20.9516 140.158 22.0628 139.947 23.1552C139.793 23.9401 139.404 24.1855 138.689 24.1774C136.654 24.1855 134.612 24.1855 132.569 24.1855Z" fill="#F2775A"/>
</g>
<defs>
<clipPath id="clip0_2126_21376">
<rect width="177" height="25" fill="white"/>
</clipPath>
</defs>
</svg>
