<svg width="233" height="165" viewBox="0 0 233 165" fill="none" xmlns="http://www.w3.org/2000/svg">
<path d="M179.004 99.8794H211.908C211.908 99.8794 194.096 144.031 197.456 163.752H164.109C164.109 163.752 170.331 113.327 179.004 99.8794Z" fill="#EFEFEF" stroke="#55626F" stroke-width="0.7" stroke-linecap="round" stroke-linejoin="round"/>
<path d="M180.761 163.444C180.761 163.444 192.299 109.337 195.388 99.7299C198.477 90.1232 191.014 85.7324 182.853 82.6257C174.691 79.5189 153.825 68.4983 153.825 68.4983L121.77 70.107C121.77 70.107 108.938 81.1388 103.941 84.1343C98.943 87.1298 88.7288 90.5154 88.9012 100.973C89.0735 111.43 86.3289 163.768 86.3289 163.768" fill="#57A8F3"/>
<path d="M180.761 163.444C180.761 163.444 192.299 109.337 195.388 99.7299C198.477 90.1232 191.014 85.7324 182.853 82.6257C174.691 79.5189 153.825 68.4983 153.825 68.4983L121.77 70.107C121.77 70.107 108.938 81.1388 103.941 84.1343C98.943 87.1298 88.7288 90.5154 88.9012 100.973C89.0735 111.43 86.3289 163.768 86.3289 163.768" stroke="#55626F" stroke-width="0.7" stroke-linejoin="round"/>
<path d="M170.258 94.5257L163.752 104.965" stroke="#55626F" stroke-width="0.7" stroke-linejoin="round"/>
<path d="M169.569 90.4879C169.569 90.4879 166.577 93.3703 165.876 99.8644" stroke="#55626F" stroke-width="0.7" stroke-linejoin="round"/>
<path d="M148.603 60.4694L153.783 68.4992C153.783 68.4992 149.593 76.8596 148.012 79.4146C146.43 81.9697 135.018 89.3606 134.304 89.7325C133.591 90.1044 129.651 80.6136 129.651 80.6136C129.651 80.6136 142.695 73.732 148.603 60.4694Z" fill="white" stroke="#55626F" stroke-width="0.7" stroke-linejoin="round"/>
<path d="M97.6954 124.582C96.7812 137.53 95.2218 157.435 93.8908 163.06" stroke="#55626F" stroke-width="0.7" stroke-linejoin="round"/>
<path d="M98.4654 113.036C98.4654 113.036 98.308 115.616 98.0381 119.622" stroke="#55626F" stroke-width="0.7" stroke-linejoin="round"/>
<path d="M126.37 78.3227L122.365 86.688C120.794 85.6052 119.47 84.2028 118.478 82.5724C117.487 80.9421 116.85 79.1205 116.611 77.2271C115.784 70.7501 121.285 65.7855 121.285 65.7855L126.37 78.3227Z" fill="white" stroke="#55626F" stroke-width="0.7" stroke-linejoin="round"/>
<path d="M119.055 60.5961C119.893 63.1311 120.597 65.708 121.166 68.3164C121.372 70.1137 122.511 73.7044 126.37 78.3226C130.23 82.9409 135.581 79.0752 139.988 73.2323C142.236 70.3768 144.228 67.3284 145.94 64.1226L144.72 47.8002C144.72 47.8002 134.155 58.5465 119.055 60.5961Z" fill="#EFEFEF" stroke="#55626F" stroke-width="0.7" stroke-linejoin="round"/>
<path d="M114.682 18.2513C114.682 18.2513 111.042 25.4581 110.89 27.9176C110.818 29.3577 110.842 30.8011 110.961 32.2381C110.983 33.5583 108.83 39.7962 108.92 45.2529C109.01 50.7096 110.262 58.2119 111.426 60.4176C112.59 62.6233 116.559 63.7183 119.749 63.0976C122.938 62.4768 128.725 60.3166 133.962 58.7257C139.199 57.1348 147.146 48.7285 147.146 48.7285C147.146 48.7285 151.268 47.9083 153.626 42.9795C154.304 41.4945 154.626 39.8718 154.567 38.2404C154.509 36.6089 154.07 35.0137 153.288 33.5814L149.282 30.262C149.282 30.262 144.17 28.2735 143.946 25.8362C143.721 23.3989 149.642 17.6511 142.613 13.4372C135.585 9.22335 118.897 11.4111 114.682 18.2513Z" fill="#EFEFEF" stroke="#55626F" stroke-width="0.7" stroke-linejoin="round"/>
<path d="M145.072 37.3101C145.072 37.3101 141.699 37.934 141.292 36.0599C140.885 34.1859 141.625 33.4214 140.851 32.1136C140.078 30.8059 134.229 29.2136 133.987 26.2084C133.746 23.2032 140.282 19.8942 138.364 18.045C136.446 16.1959 132.847 13.8142 125.523 15.4395C118.199 17.0648 118.636 19.3145 114.668 18.2515C110.699 17.1885 113.256 12.6725 113.256 12.6725C113.256 12.6725 108.793 15.5632 110.209 10.2738C111.626 4.98436 119.473 0.645366 123.607 0.577234C126.398 0.585902 129.179 0.918755 131.893 1.56911C131.893 1.56911 140.876 -0.835824 147.114 3.01493C153.353 6.86568 152.127 10.6394 151.572 11.4008C151.18 12.0609 150.887 12.7749 150.703 13.52C150.703 13.52 157.477 13.9686 158.713 20.5348C159.949 27.101 156.967 28.6548 156.227 29.3792C155.487 30.1037 155.159 32.9663 155.159 32.9663L154.463 36.3631C154.463 36.3631 149.696 32.4961 147.848 34.4073L145.072 37.3101Z" fill="#FCA14D"/>
<path d="M114.698 30.8565C114.698 30.8565 115.648 31.217 115.12 33.6666C114.593 36.1163 110.191 42.2152 110.97 43.8911C111.749 45.5669 118.455 46.7289 120.318 45.7618C122.182 44.7947 122.375 41.9344 122.375 41.9344" stroke="#55626F" stroke-width="0.7" stroke-linejoin="round"/>
<path d="M111.426 60.4417C110.418 58.4895 109.337 52.569 109.013 47.4683C110.092 46.4501 112.083 44.9688 112.083 44.9688C112.083 44.9688 115.975 45.7049 118.011 45.9835C119.232 46.1198 120.457 45.7658 121.418 44.999C121.418 44.999 126.331 46.1185 128.122 48.4979C129.602 50.4503 128.963 57.2875 128.321 60.5554C125.503 61.5565 122.634 62.4052 119.725 63.098C116.56 63.7424 112.591 62.6794 111.426 60.4417Z" fill="#FCA14D" stroke="#55626F" stroke-width="0.7" stroke-linejoin="round"/>
<path d="M115.989 46.5692C115.989 46.5692 125.062 47.7162 126.093 48.6196C127.124 49.523 126.721 53.2351 126.303 55.5469C125.885 57.8587 120.556 60.1714 119.527 59.356C118.498 58.5407 118.802 54.6541 118.332 54.2937C117.862 53.9333 115.36 53.0462 115.005 54.3485C114.651 55.6509 115.366 59.2405 114.718 59.2512C114.071 59.2619 112.465 56.9834 111.293 53.3053C110.121 49.6271 110.75 48.0401 112.125 47.4653C113.379 47.0356 114.674 46.7354 115.989 46.5692Z" fill="#EFEFEF" stroke="#55626F" stroke-width="0.7" stroke-linejoin="round"/>
<path d="M124.178 49.243C124.178 49.243 118.061 51.7448 112.499 49.5956" stroke="#55626F" stroke-width="0.7" stroke-linejoin="round"/>
<path d="M122.373 35.8757C122.387 36.7238 122.83 37.3967 123.365 37.3879C123.901 37.3791 124.33 36.6917 124.316 35.8436C124.302 34.9955 123.851 34.3307 123.315 34.3395C122.779 34.3484 122.358 35.0116 122.373 35.8757Z" fill="#55626F"/>
<path d="M113.088 35.9408C113.623 35.932 114.044 35.2407 114.03 34.3967C114.017 33.5527 113.572 32.8756 113.038 32.8844C112.503 32.8933 112.082 33.5846 112.096 34.4286C112.109 35.2726 112.554 35.9496 113.088 35.9408Z" fill="#55626F"/>
<path d="M118.895 32.099C121.921 31.6156 125.004 31.5972 128.036 32.0444C131.315 32.5426 132.585 33.442 132.585 33.442L131.887 39.5599C131.887 39.5599 130.98 40.3752 125.987 40.2094C120.993 40.0436 119.973 39.7563 118.939 38.6609C117.905 37.5655 118.895 32.099 118.895 32.099Z" stroke="#55626F" stroke-width="0.7" stroke-linejoin="round"/>
<path d="M115.103 32.1621C115.103 32.1621 115.244 30.5591 110.277 30.5049C106.965 30.4795 105.561 31.1669 105.561 31.1669L105.302 37.3176C105.302 37.3176 106.115 38.1045 111.023 38.9039C113.004 39.2234 113.4 37.5362 114.178 36.2429C115.594 33.8186 115.103 32.1621 115.103 32.1621Z" stroke="#55626F" stroke-width="0.7" stroke-linejoin="round"/>
<path d="M118.896 32.0994C118.896 32.0994 116.382 30.9403 115.106 32.1618" stroke="#55626F" stroke-width="0.7" stroke-linejoin="round"/>
<path d="M132.588 33.4422L147.11 34.6834L146.11 35.6283L136.503 35.5945L135.314 36.2624L132.354 36.2231L132.588 33.4422Z" fill="#55626F" stroke="#55626F" stroke-width="0.7" stroke-linejoin="round"/>
<path d="M130.149 31.0815C128.989 29.7818 127.458 28.871 125.763 28.4727C122.888 27.7838 120.5 28.4714 120.6 29.2061" stroke="#55626F" stroke-width="0.7" stroke-linejoin="round"/>
<path d="M115.157 29.3917C115.157 29.3917 113.825 27.1888 111.985 27.6833" stroke="#55626F" stroke-width="0.7" stroke-linejoin="round"/>
<path d="M149.546 35.996L155.829 45.4962C156.092 45.8928 156.196 46.3736 156.121 46.8433C156.045 47.313 155.796 47.7372 155.423 48.0319L134.531 64.5106C134.312 64.6838 134.057 64.8063 133.785 64.8694C133.513 64.9325 133.23 64.9347 132.957 64.8757C132.684 64.8167 132.427 64.6981 132.205 64.5283C131.983 64.3585 131.802 64.1417 131.673 63.8934L125.848 52.5609C125.64 52.1564 125.585 51.6911 125.69 51.2491C125.796 50.807 126.056 50.4174 126.424 50.1505L146.866 35.4959C147.074 35.3484 147.308 35.2442 147.557 35.1894C147.805 35.1347 148.062 35.1305 148.312 35.1771C148.562 35.2238 148.8 35.3203 149.012 35.461C149.224 35.6017 149.406 35.7836 149.546 35.996Z" fill="#57A8F3" stroke="#55626F" stroke-width="0.7" stroke-linejoin="round"/>
<path d="M142.711 82.9189C142.711 82.9189 142.502 77.4722 142.832 76.1623C143.162 74.8523 152.013 58.1079 152.243 57.5119C152.473 56.9158 150.515 53.1546 149.912 52.4523C149.308 51.7499 146.987 47.7626 146.726 46.4624C146.464 45.1622 144.715 46.2554 144.74 47.7996C144.766 49.3438 146.019 53.5888 146.623 54.2832C147.125 55.0834 147.498 55.9577 147.729 56.874L145.379 59.8819C145.379 59.8819 142.863 52.8085 142.767 52.3379C142.672 51.8673 138.572 49.678 137.615 48.8614C136.658 48.0449 136.416 47.9368 135.71 48.3006C135.215 48.6541 134.849 49.1606 134.67 49.7423C134.421 49.7138 134.168 49.7405 133.93 49.8205C133.693 49.9005 133.475 50.0318 133.294 50.2051C132.592 50.8089 132.742 51.6308 132.629 52.1128L132.712 53.2159C132.406 53.1538 132.092 53.1555 131.787 53.2212C131.483 53.2868 131.195 53.4148 130.942 53.5972C130.36 54.199 130.358 54.079 130.358 54.079C130.263 54.1925 130.193 54.3256 130.153 54.4688C130.114 54.6121 130.106 54.7622 130.131 54.9088C130.155 55.0553 130.211 55.1948 130.295 55.3175C130.379 55.4402 130.488 55.5432 130.616 55.6194C131.579 56.3158 133.371 57.3267 133.931 58.766C134.491 60.2054 131.759 67.2292 130.528 71.6272C129.296 76.0252 128.411 80.0814 129.514 81.96C130.617 83.8385 133.168 88.1822 133.168 88.1822L142.711 82.9189Z" fill="#EFEFEF" stroke="#55626F" stroke-width="0.7" stroke-linejoin="round"/>
<path d="M132.746 53.2476C132.746 53.2476 137.668 57.3121 137.919 58.0202C138.093 59.3132 138.163 60.6181 138.128 61.9223" stroke="#55626F" stroke-width="0.7" stroke-linejoin="round"/>
<path d="M134.703 49.7422C134.703 49.7422 139.983 54.161 140.114 54.8711C140.246 55.5812 141.819 61.2455 141.819 61.2455" stroke="#55626F" stroke-width="0.7" stroke-linejoin="round"/>
<path d="M146.803 62.6516L145.414 59.8813" stroke="#55626F" stroke-width="0.7" stroke-linejoin="round"/>
<path d="M182.098 135.291C178.384 139.498 167.463 154.828 164.936 154.869C162.409 154.911 158.748 151.186 151.526 139.084C144.304 126.982 136.297 100.744 136.297 100.744L130.321 87.0928L145.676 78.7325C145.676 78.7325 149.041 85.8799 149.05 86.424C149.059 86.968 179.033 124.513 179.033 124.513" fill="#57A8F3"/>
<path d="M182.098 135.291C178.384 139.498 167.463 154.828 164.936 154.869C162.409 154.911 158.748 151.186 151.526 139.084C144.304 126.982 136.297 100.744 136.297 100.744L130.321 87.0928L145.676 78.7325C145.676 78.7325 149.041 85.8799 149.05 86.424C149.059 86.968 179.033 124.513 179.033 124.513" stroke="#55626F" stroke-width="0.7" stroke-linejoin="round"/>
<path d="M1 163.789H232" stroke="#55626F" stroke-width="0.7" stroke-linecap="round" stroke-linejoin="round"/>
<path d="M64.5366 160.487L64.7128 163.375L101.74 163.352V160.487H64.5366Z" fill="white" stroke="#55626F" stroke-width="0.7"/>
<path d="M32.5227 163.726L78.0078 163.712L61.4163 115.087L15.9313 115.1L32.5227 163.726Z" fill="#55626F"/>
<path d="M43.3105 142.002C44.7048 144.234 47.3099 145.149 49.297 144.17C49.4132 144.114 49.5256 144.051 49.6338 143.981C51.6545 142.715 52.1007 139.769 50.6273 137.41C49.1538 135.05 46.3214 134.16 44.2956 135.431C43.7011 135.808 43.2207 136.34 42.9063 136.971C42.1907 138.419 42.2833 140.355 43.3105 142.002Z" fill="#EFEFEF"/>
</svg>
