<svg width="223" height="223" viewBox="0 0 223 223" fill="none" xmlns="http://www.w3.org/2000/svg">
<rect x="211.766" y="212.918" width="200.526" height="201.625" rx="100.263" transform="rotate(180 211.766 212.918)" stroke="white" stroke-linecap="round" stroke-dasharray="5 5"/>
<path d="M218.208 82.9076C233.999 141.841 199.026 202.417 140.092 218.208C81.159 233.999 20.5828 199.026 4.79168 140.092C-10.9995 81.159 23.9742 20.5828 82.9076 4.79168C141.841 -10.9995 202.417 23.9742 218.208 82.9076Z" stroke="white" stroke-linecap="round" stroke-dasharray="5 5"/>
<rect x="19.668" y="20.3755" width="181.858" height="183.46" rx="90.9292" fill="white"/>
<path d="M45.3477 129.387C45.3477 170.895 45.3475 170.895 55.0846 170.895L85.4077 170.895" stroke="#F88C28" stroke-linecap="round" stroke-dasharray="3 3"/>
<path d="M40.0625 131.063L45.3525 125.765L50.6425 131.063" stroke="#F88C28" stroke-linecap="round" stroke-linejoin="round"/>
<path d="M176.375 129.387C176.375 170.895 176.375 170.895 166.638 170.895L136.315 170.895" stroke="#F88C28" stroke-linecap="round" stroke-dasharray="3 3"/>
<path d="M181.391 131.063L176.101 125.765L170.811 131.063" stroke="#F88C28" stroke-linecap="round" stroke-linejoin="round"/>
<path d="M8 16.5H83.8045C87.9466 16.5 91.3045 19.8579 91.3045 24V123.594H0.5V24C0.5 19.8579 3.85787 16.5 8 16.5Z" fill="white" stroke="#344351"/>
<path d="M8 16.5H83.8045C87.9466 16.5 91.3045 19.8579 91.3045 24V31.1012H0.5V24C0.5 19.8579 3.85786 16.5 8 16.5Z" fill="#F6F7F8" stroke="#344351"/>
<ellipse cx="26.6319" cy="51.1854" rx="8.42877" ry="8.4408" fill="#EFEFEF"/>
<path d="M24.9471 50.8816C25.3736 51.7548 26.0804 52.4594 26.9542 52.8825C27.0182 52.9128 27.0889 52.926 27.1595 52.9206C27.23 52.9153 27.298 52.8916 27.3566 52.852L28.6433 51.9928C28.7002 51.9548 28.7657 51.9316 28.8338 51.9253C28.9019 51.919 28.9705 51.9299 29.0334 51.9569L31.4406 52.99C31.5224 53.0248 31.5907 53.0853 31.6352 53.1623C31.6796 53.2393 31.6979 53.3287 31.6873 53.417C31.6112 54.0133 31.3207 54.5613 30.8702 54.9585C30.4197 55.3556 29.84 55.5748 29.2398 55.5748C27.386 55.5748 25.6081 54.8373 24.2973 53.5246C22.9864 52.2119 22.25 50.4314 22.25 48.575C22.25 47.9739 22.4688 47.3935 22.8655 46.9423C23.2621 46.4912 23.8093 46.2003 24.4047 46.1241C24.4929 46.1134 24.5822 46.1317 24.6591 46.1762C24.736 46.2208 24.7963 46.2891 24.8311 46.371L25.8637 48.7838C25.8904 48.8462 25.9012 48.9143 25.8953 48.9819C25.8894 49.0495 25.8669 49.1147 25.8298 49.1715L24.9747 50.4798C24.9358 50.5387 24.9128 50.6066 24.908 50.677C24.9031 50.7475 24.9166 50.8179 24.9471 50.8816V50.8816Z" fill="#344351"/>
<path d="M44.0052 56.4118C45.6559 56.4118 46.7995 55.2665 46.7995 53.6135V51.1069C46.7995 49.4538 45.6559 48.3086 44.0052 48.3086C42.3546 48.3086 41.2109 49.4538 41.2109 51.1069V53.6135C41.2109 55.2665 42.3546 56.4118 44.0052 56.4118ZM44.0052 55.1693C43.1853 55.1693 42.538 54.521 42.538 53.6999V51.0096C42.538 50.1885 43.1853 49.5403 44.0052 49.5403C44.8252 49.5403 45.4725 50.1885 45.4725 51.0096V53.6999C45.4725 54.521 44.8252 55.1693 44.0052 55.1693Z" fill="#344351"/>
<path d="M51.1065 56.4118C52.7572 56.4118 53.9008 55.2665 53.9008 53.6135V51.1069C53.9008 49.4538 52.7572 48.3086 51.1065 48.3086C49.4558 48.3086 48.3122 49.4538 48.3122 51.1069V53.6135C48.3122 55.2665 49.4558 56.4118 51.1065 56.4118ZM51.1065 55.1693C50.2865 55.1693 49.6392 54.521 49.6392 53.6999V51.0096C49.6392 50.1885 50.2865 49.5403 51.1065 49.5403C51.9264 49.5403 52.5738 50.1885 52.5738 51.0096V53.6999C52.5738 54.521 51.9264 55.1693 51.1065 55.1693Z" fill="#344351"/>
<path d="M56.762 56.2497H58.089V48.4707H56.762L55.3055 49.3458V50.7828L56.762 49.886V56.2497Z" fill="#344351"/>
<path d="M63.9309 53.2461C64.8156 52.4682 65.2795 52.0144 65.2795 50.9016C65.2795 49.389 64.1575 48.3086 62.6579 48.3086C61.0611 48.3086 59.9391 49.3242 59.9391 50.88H61.2769C61.2553 50.1669 61.8271 49.5403 62.6363 49.5403C63.4131 49.5403 63.9417 50.1129 63.9417 50.8908C63.9417 51.2798 63.7691 51.6795 63.2512 52.1333L59.9283 55.1044V56.2389H65.2795V55.0072H61.9458L63.9309 53.2461Z" fill="#344351"/>
<path d="M69.5703 51.3878L71.3181 49.7023V48.4707H66.5494V49.7023H69.7537L67.5204 51.6147L68.1138 52.6411C68.3188 52.533 68.5561 52.4574 68.7827 52.4574C69.5703 52.4574 70.1205 53.0516 70.1205 53.8187C70.1205 54.575 69.5487 55.1585 68.7935 55.1693C68.2109 55.1693 67.6822 54.8235 67.5096 54.1969L66.2473 54.5426C66.5818 55.6771 67.6283 56.3901 68.7935 56.3901C70.25 56.3901 71.4476 55.2881 71.4476 53.8187C71.4476 52.6411 70.7571 51.6363 69.5703 51.3878Z" fill="#344351"/>
<rect x="7.23438" y="93.4482" width="77.3383" height="16.7155" rx="2" fill="#EFEFEF"/>
<path d="M23.1101 104.193H23.9462L22.4156 99.3313H21.2221L19.6914 104.193H20.5275L20.8579 103.14H22.773L23.1101 104.193ZM21.1007 102.377L21.8087 100.115L22.5302 102.377H21.1007Z" fill="#344351"/>
<path d="M24.6873 104.193H25.4965V101.924L27.5463 104.193H28.578L26.3461 101.715L28.4364 99.3313H27.4384L25.4965 101.587V99.3313H24.6873V104.193Z" fill="#344351"/>
<path d="M30.3545 104.193H31.1704V100.094H32.7416V99.3313H28.7834V100.094H30.3545V104.193Z" fill="#344351"/>
<path d="M37.3162 104.193V99.3313H36.4935L34.2414 102.755V99.3313H33.4187V104.193H34.2414L36.4935 100.763V104.193H37.3162Z" fill="#344351"/>
<path d="M41.2593 101.634C41.5627 101.452 41.7516 101.114 41.7516 100.668C41.7516 100.013 41.2998 99.3313 40.322 99.3313H38.3935V104.193H40.5176C41.4751 104.193 41.9741 103.612 41.9741 102.748C41.9741 102.255 41.7313 101.83 41.2593 101.634ZM39.2162 100.094H40.3085C40.6929 100.094 40.9222 100.344 40.9222 100.682C40.9222 101.073 40.6592 101.269 40.3085 101.269H39.2162V100.094ZM40.4164 103.423H39.2162V102.032H40.4367C40.8884 102.032 41.1514 102.329 41.1514 102.721C41.1514 103.153 40.8412 103.423 40.4164 103.423Z" fill="#344351"/>
<path d="M46.6797 104.193V99.3313H45.8571L43.6049 102.755V99.3313H42.7823V104.193H43.6049L45.8571 100.763V104.193H46.6797Z" fill="#344351"/>
<path d="M47.7571 104.193H48.5663V102.498H49.7665C49.8542 102.498 50.0228 102.492 50.1509 102.471C50.987 102.336 51.3916 101.715 51.3916 100.911C51.3916 100.108 50.9938 99.4866 50.1509 99.3583C50.0228 99.338 49.8609 99.3313 49.7665 99.3313H47.7571V104.193ZM48.5663 101.735V100.094H49.7328C49.8205 100.094 49.9418 100.101 50.0362 100.128C50.4408 100.229 50.5689 100.601 50.5689 100.911C50.5689 101.222 50.4408 101.6 50.0362 101.701C49.9418 101.728 49.8205 101.735 49.7328 101.735H48.5663Z" fill="#344351"/>
<path d="M54.2552 104.294C55.7117 104.294 56.5748 103.268 56.5748 101.762C56.5748 100.256 55.7117 99.23 54.2552 99.23C52.7987 99.23 51.9288 100.256 51.9288 101.762C51.9288 103.268 52.7987 104.294 54.2552 104.294ZM54.2552 103.525C53.2774 103.518 52.7852 102.822 52.7919 101.762C52.7919 100.695 53.2774 99.9863 54.2552 99.9998C55.2329 100.007 55.7184 100.695 55.7184 101.762C55.7184 102.822 55.2329 103.538 54.2552 103.525Z" fill="#344351"/>
<path d="M60.2499 101.634C60.5533 101.452 60.7421 101.114 60.7421 100.668C60.7421 100.013 60.2903 99.3313 59.3126 99.3313H57.3841V104.193H59.5081C60.4656 104.193 60.9646 103.612 60.9646 102.748C60.9646 102.255 60.7219 101.83 60.2499 101.634ZM58.2067 100.094H59.2991C59.6834 100.094 59.9127 100.344 59.9127 100.682C59.9127 101.073 59.6497 101.269 59.2991 101.269H58.2067V100.094ZM59.407 103.423H58.2067V102.032H59.4272C59.879 102.032 60.142 102.329 60.142 102.721C60.142 103.153 59.8318 103.423 59.407 103.423Z" fill="#344351"/>
<path d="M64.8544 104.193H65.6905L64.1599 99.3313H62.9663L61.4357 104.193H62.2718L62.6022 103.14H64.5172L64.8544 104.193ZM62.845 102.377L63.553 100.115L64.2745 102.377H62.845Z" fill="#344351"/>
<path d="M67.1964 104.193H68.0123V100.094H69.5835V99.3313H65.6253V100.094H67.1964V104.193Z" fill="#344351"/>
<path d="M70.2539 104.193H72.2633C72.3577 104.193 72.5263 104.186 72.6476 104.166C73.4905 104.038 73.8883 103.41 73.8883 102.613C73.8883 101.809 73.4838 101.188 72.6476 101.053C72.5263 101.033 72.3509 101.026 72.2633 101.026H71.0698V99.3313H70.2539V104.193ZM71.0698 103.43V101.789H72.2296C72.3172 101.789 72.4386 101.796 72.533 101.823C72.9376 101.924 73.0657 102.302 73.0657 102.613C73.0657 102.924 72.9376 103.295 72.533 103.396C72.4386 103.423 72.3172 103.43 72.2296 103.43H71.0698Z" fill="#344351"/>
<rect x="7.73438" y="68.3179" width="76.3383" height="15.7155" rx="1.5" fill="white" stroke="#EFEFEF"/>
<path d="M23.9766 72.688V79.6516" stroke="#344351" stroke-width="2" stroke-linecap="round" stroke-linejoin="round"/>
<path d="M20.9648 74.4292L26.987 77.911" stroke="#344351" stroke-width="2" stroke-linecap="round" stroke-linejoin="round"/>
<path d="M20.9648 77.911L26.987 74.4292" stroke="#344351" stroke-width="2" stroke-linecap="round" stroke-linejoin="round"/>
<path d="M38.5391 72.6885V79.6521" stroke="#344351" stroke-width="2" stroke-linecap="round" stroke-linejoin="round"/>
<path d="M35.5312 74.4292L41.5534 77.911" stroke="#344351" stroke-width="2" stroke-linecap="round" stroke-linejoin="round"/>
<path d="M35.5312 77.911L41.5534 74.4292" stroke="#344351" stroke-width="2" stroke-linecap="round" stroke-linejoin="round"/>
<path d="M53.1016 72.6885V79.6521" stroke="#344351" stroke-width="2" stroke-linecap="round" stroke-linejoin="round"/>
<path d="M50.0938 74.4292L56.1159 77.911" stroke="#344351" stroke-width="2" stroke-linecap="round" stroke-linejoin="round"/>
<path d="M50.0938 77.911L56.1159 74.4292" stroke="#344351" stroke-width="2" stroke-linecap="round" stroke-linejoin="round"/>
<path d="M67.6719 72.6885V79.6521" stroke="#344351" stroke-width="2" stroke-linecap="round" stroke-linejoin="round"/>
<path d="M64.6602 74.4292L70.6823 77.911" stroke="#344351" stroke-width="2" stroke-linecap="round" stroke-linejoin="round"/>
<path d="M64.6602 77.911L70.6823 74.4292" stroke="#344351" stroke-width="2" stroke-linecap="round" stroke-linejoin="round"/>
<path d="M138.195 16.5H214C218.142 16.5 221.5 19.8579 221.5 24V123.594H130.695V24C130.695 19.8579 134.053 16.5 138.195 16.5Z" fill="white" stroke="#344351"/>
<path d="M138.195 16.5H214C218.142 16.5 221.5 19.8579 221.5 24V31.1012H130.695V24C130.695 19.8579 134.053 16.5 138.195 16.5Z" fill="#F6F7F8" stroke="#344351"/>
<path d="M157.514 100.135C157.514 105.706 153.004 110.221 147.443 110.221C141.881 110.221 137.371 105.706 137.371 100.135C137.371 94.5636 141.881 90.0483 147.443 90.0483C153.004 90.0483 157.514 94.5636 157.514 100.135Z" stroke="#344351"/>
<path d="M141.605 104.526V97.3753C141.605 96.2246 141.605 96.2246 142.919 96.2246H152.276C153.589 96.2246 153.589 96.2246 153.589 97.3753V104.526C153.589 105.677 153.589 105.677 152.276 105.677H142.919C141.605 105.677 141.605 105.677 141.605 104.526Z" fill="white" stroke="#344351"/>
<path d="M143.164 96.2248V94.6631" stroke="#344351"/>
<path d="M152.195 96.2248V94.6631" stroke="#344351"/>
<ellipse cx="143.163" cy="94.284" rx="0.834586" ry="0.835777" fill="#344351"/>
<path d="M140.211 100.992C140.211 101.673 140.762 102.225 141.442 102.225V99.7593C140.762 99.7593 140.211 100.311 140.211 100.992Z" fill="#344351"/>
<path d="M154.902 100.992C154.902 100.311 154.351 99.7592 153.671 99.7592L153.671 102.225C154.351 102.225 154.902 101.673 154.902 100.992Z" fill="#344351"/>
<ellipse cx="152.171" cy="94.284" rx="0.834586" ry="0.835777" fill="#344351"/>
<ellipse cx="144.94" cy="99.8558" rx="0.834586" ry="0.835777" fill="#344351"/>
<ellipse cx="149.948" cy="99.8558" rx="0.834586" ry="0.835777" fill="#344351"/>
<path d="M145.055 102.92C147.044 103.652 148.158 103.658 150.144 102.92" stroke="#344351" stroke-linecap="round"/>
<path d="M167.787 99.5544L164.008 102.736C163.871 102.851 163.704 102.925 163.527 102.948C163.35 102.972 163.169 102.944 163.007 102.869C162.845 102.793 162.708 102.673 162.612 102.522C162.516 102.371 162.465 102.195 162.465 102.016L162.465 86.0311C162.465 85.7817 162.564 85.5425 162.74 85.3662C162.916 85.1899 163.155 85.0908 163.404 85.0908H192.684C192.933 85.0908 193.172 85.1899 193.348 85.3662C193.524 85.5425 193.623 85.7817 193.623 86.0311V98.3936C193.623 98.643 193.524 98.8821 193.348 99.0584C193.172 99.2348 192.933 99.3338 192.684 99.3338H168.392C168.171 99.3338 167.957 99.4119 167.787 99.5544Z" fill="#EFEFEF"/>
<path d="M172.48 93.4485C173.095 93.4485 173.593 92.9495 173.593 92.3341C173.593 91.7186 173.095 91.2197 172.48 91.2197C171.865 91.2197 171.367 91.7186 171.367 92.3341C171.367 92.9495 171.865 93.4485 172.48 93.4485Z" fill="#344351"/>
<path d="M178.113 93.4485C178.727 93.4485 179.226 92.9495 179.226 92.3341C179.226 91.7186 178.727 91.2197 178.113 91.2197C177.498 91.2197 177 91.7186 177 92.3341C177 92.9495 177.498 93.4485 178.113 93.4485Z" fill="#344351"/>
<path d="M183.746 93.4485C184.36 93.4485 184.858 92.9495 184.858 92.3341C184.858 91.7186 184.36 91.2197 183.746 91.2197C183.131 91.2197 182.633 91.7186 182.633 92.3341C182.633 92.9495 183.131 93.4485 183.746 93.4485Z" fill="#344351"/>
<path d="M183.951 64.8349L187.73 68.0166C187.867 68.1318 188.034 68.2055 188.211 68.229C188.389 68.2525 188.569 68.2248 188.731 68.1492C188.893 68.0736 189.03 67.9532 189.126 67.8022C189.222 67.6512 189.273 67.4759 189.273 67.2969L189.273 45.9139C189.273 45.6645 189.175 45.4254 188.998 45.249C188.822 45.0727 188.584 44.9736 188.335 44.9736H137.811C137.562 44.9736 137.323 45.0727 137.147 45.249C136.971 45.4254 136.872 45.6645 136.872 45.9139V63.6741C136.872 63.9235 136.971 64.1626 137.147 64.339C137.323 64.5153 137.562 64.6143 137.811 64.6143H183.347C183.568 64.6143 183.782 64.6924 183.951 64.8349Z" fill="#EFEFEF"/>
<path d="M146.344 53.8887H146.856L145.515 49.877H144.825L143.484 53.8887H144.002L144.313 52.947H146.027L146.344 53.8887ZM144.469 52.4846L145.165 50.4007L145.866 52.4846H144.469Z" fill="#344351"/>
<path d="M147.471 53.8887H147.972V52.44L149.34 53.8887H150.03L148.55 52.3843L149.874 50.8799H149.235L147.972 52.3286V50.8799H147.471V53.8887Z" fill="#344351"/>
<path d="M151.214 53.8887H151.709V51.3312H152.755V50.8799H150.168V51.3312H151.214V53.8887Z" fill="#344351"/>
<path d="M155.852 50.8799H155.446L153.872 53.0641V50.8799H153.393V53.8887H153.799L155.374 51.6711V53.8887H155.852V50.8799Z" fill="#344351"/>
<path d="M156.743 53.8887H158.167C158.328 53.8887 158.512 53.8775 158.657 53.8385C159.002 53.7382 159.213 53.4652 159.213 53.0585C159.213 52.7353 159.08 52.5347 158.874 52.4177C158.807 52.3787 158.735 52.3509 158.673 52.3397C158.74 52.3174 158.807 52.2728 158.868 52.2116C158.991 52.0945 159.063 51.9274 159.063 51.6989C159.063 51.2978 158.829 51.0248 158.507 50.9356C158.362 50.8966 158.173 50.8799 158.022 50.8799H156.743V53.8887ZM157.244 52.1781V51.2866H157.945C157.984 51.2866 158.162 51.2866 158.284 51.3312C158.462 51.3869 158.551 51.5485 158.551 51.738C158.551 51.9107 158.468 52.0723 158.301 52.1336C158.217 52.167 158.089 52.1781 157.989 52.1781H157.244ZM157.244 53.4819V52.5904H158.095C158.162 52.5904 158.262 52.5904 158.34 52.6127C158.551 52.6517 158.701 52.8022 158.701 53.0418C158.701 53.2201 158.618 53.3928 158.423 53.4429C158.34 53.4708 158.217 53.4819 158.139 53.4819H157.244Z" fill="#344351"/>
<path d="M162.34 50.8799H161.934L160.359 53.0641V50.8799H159.881V53.8887H160.287L161.861 51.6711V53.8887H162.34V50.8799Z" fill="#344351"/>
<path d="M164.616 50.7963C164.204 50.7963 163.887 50.9523 163.67 51.2142V50.8799H163.23V55.2259H163.725V53.6101C163.942 53.8385 164.237 53.9723 164.61 53.9723C165.45 53.9723 165.956 53.2814 165.956 52.3787C165.956 51.4761 165.45 50.7963 164.616 50.7963ZM164.549 53.5154C163.942 53.5154 163.67 53.0418 163.67 52.3787C163.67 51.7157 163.948 51.2476 164.538 51.2476C165.15 51.2476 165.433 51.7435 165.433 52.3787C165.433 53.0195 165.144 53.5154 164.549 53.5154Z" fill="#344351"/>
<path d="M167.957 53.9723C168.853 53.9723 169.41 53.3259 169.41 52.3787C169.41 51.4482 168.859 50.7963 167.957 50.7963C167.078 50.7963 166.511 51.4371 166.511 52.3787C166.511 53.3148 167.062 53.9723 167.957 53.9723ZM167.957 53.4987C167.351 53.4987 167.039 53.0585 167.039 52.3787C167.039 51.7212 167.329 51.2643 167.957 51.2643C168.575 51.2643 168.881 51.7045 168.881 52.3787C168.881 53.0418 168.58 53.4987 167.957 53.4987Z" fill="#344351"/>
<path d="M170.131 53.8887H171.555C171.716 53.8887 171.9 53.8775 172.044 53.8385C172.389 53.7382 172.601 53.4652 172.601 53.0585C172.601 52.7353 172.467 52.5347 172.261 52.4177C172.195 52.3787 172.122 52.3509 172.061 52.3397C172.128 52.3174 172.195 52.2728 172.256 52.2116C172.378 52.0945 172.451 51.9274 172.451 51.6989C172.451 51.2978 172.217 51.0248 171.894 50.9356C171.75 50.8966 171.56 50.8799 171.41 50.8799H170.131V53.8887ZM170.631 52.1781V51.2866H171.332C171.371 51.2866 171.549 51.2866 171.672 51.3312C171.85 51.3869 171.939 51.5485 171.939 51.738C171.939 51.9107 171.855 52.0723 171.688 52.1336C171.605 52.167 171.477 52.1781 171.377 52.1781H170.631ZM170.631 53.4819V52.5904H171.483C171.549 52.5904 171.649 52.5904 171.727 52.6127C171.939 52.6517 172.089 52.8022 172.089 53.0418C172.089 53.2201 172.006 53.3928 171.811 53.4429C171.727 53.4708 171.605 53.4819 171.527 53.4819H170.631Z" fill="#344351"/>
<path d="M175.577 51.3814C175.405 50.9913 174.999 50.7963 174.453 50.7963C173.775 50.7963 173.357 51.1139 173.213 51.6432L173.686 51.7825C173.791 51.4148 174.086 51.2588 174.448 51.2588C174.971 51.2588 175.177 51.4872 175.188 51.9664C174.743 52.0277 174.22 52.089 173.841 52.1893C173.385 52.323 173.101 52.6016 173.101 53.0752C173.101 53.5599 173.452 53.9723 174.125 53.9723C174.626 53.9723 174.999 53.7828 175.238 53.4151V53.8887H175.677V52.0277C175.677 51.7881 175.661 51.5708 175.577 51.3814ZM174.197 53.5544C173.769 53.5544 173.597 53.3204 173.597 53.0696C173.597 52.791 173.814 52.6517 174.064 52.5737C174.353 52.4901 174.759 52.4456 175.182 52.3843C175.182 52.5236 175.177 52.7186 175.132 52.8635C175.06 53.2368 174.732 53.5544 174.197 53.5544Z" fill="#344351"/>
<path d="M177.31 53.8887H177.805V51.3312H178.851V50.8799H176.264V51.3312H177.31V53.8887Z" fill="#344351"/>
<path d="M179.489 53.8887H180.663C180.83 53.8887 181.036 53.8831 181.186 53.8497C181.62 53.7494 181.915 53.4485 181.915 52.9303C181.915 52.3676 181.604 52.089 181.136 51.9998C181.003 51.972 180.808 51.9664 180.636 51.9664H179.985V50.8799H179.489V53.8887ZM179.985 53.4764V52.3787H180.669C180.775 52.3787 180.903 52.3843 181.008 52.4066C181.242 52.4623 181.409 52.6239 181.409 52.9303C181.409 53.2368 181.225 53.3928 181.042 53.4429C180.93 53.4764 180.78 53.4764 180.669 53.4764H179.985Z" fill="#344351"/>
<path d="M143.568 60.6863H144.063V60.0177H146.789V60.6863H147.285V59.5441H146.99V56.006L144.475 56.0004C144.425 56.864 144.397 57.4825 144.325 58.2069C144.258 58.8922 144.158 59.5441 143.568 59.5441V60.6863ZM144.436 59.5441C144.686 59.2934 144.747 58.9535 144.809 58.3294C144.875 57.6553 144.898 57.1204 144.931 56.474H146.494V59.5441H144.436Z" fill="#344351"/>
<path d="M148.376 58.6526H150.674C150.724 57.5828 150.195 56.9253 149.288 56.9253C148.415 56.9253 147.842 57.5438 147.842 58.53C147.842 59.4717 148.426 60.1013 149.311 60.1013C149.895 60.1013 150.39 59.7948 150.629 59.2655L150.151 59.0984C149.984 59.4438 149.683 59.6277 149.288 59.6277C148.738 59.6277 148.415 59.2767 148.376 58.6526ZM149.305 57.3711C149.817 57.3711 150.101 57.6608 150.168 58.2514H148.387C148.454 57.6831 148.771 57.3711 149.305 57.3711Z" fill="#344351"/>
<path d="M151.129 60.0177C151.736 60.1459 151.925 59.9286 152.03 59.3825C152.114 58.9591 152.186 58.1679 152.236 57.477H153.394V60.0177H153.889V57.0089H151.786C151.736 57.9004 151.68 58.6192 151.585 59.1485C151.53 59.4828 151.463 59.65 151.129 59.5887V60.0177Z" fill="#344351"/>
<path d="M156.058 60.1013C156.954 60.1013 157.511 59.455 157.511 58.5077C157.511 57.5772 156.96 56.9253 156.058 56.9253C155.179 56.9253 154.612 57.5661 154.612 58.5077C154.612 59.4438 155.163 60.1013 156.058 60.1013ZM156.058 59.6277C155.452 59.6277 155.14 59.1875 155.14 58.5077C155.14 57.8503 155.43 57.3934 156.058 57.3934C156.676 57.3934 156.982 57.8336 156.982 58.5077C156.982 59.1708 156.682 59.6277 156.058 59.6277Z" fill="#344351"/>
<path d="M159.65 61.2714H160.101V60.0734C160.98 60.2127 161.687 59.6221 161.687 58.5133C161.687 57.4101 160.98 56.8139 160.101 56.9532V56.0338H159.65V56.9532C158.771 56.8139 158.065 57.4101 158.065 58.5133C158.065 59.6221 158.771 60.2127 159.65 60.0734V61.2714ZM159.65 59.6165C159.066 59.7168 158.577 59.3435 158.577 58.5133C158.577 57.6831 159.049 57.3098 159.65 57.4101V59.6165ZM160.101 59.6165V57.4101C160.702 57.3098 161.18 57.6775 161.18 58.5133C161.18 59.3547 160.691 59.7168 160.101 59.6165Z" fill="#344351"/>
<path d="M163.692 60.1013C164.588 60.1013 165.144 59.455 165.144 58.5077C165.144 57.5772 164.594 56.9253 163.692 56.9253C162.813 56.9253 162.246 57.5661 162.246 58.5077C162.246 59.4438 162.796 60.1013 163.692 60.1013ZM163.692 59.6277C163.086 59.6277 162.774 59.1875 162.774 58.5077C162.774 57.8503 163.064 57.3934 163.692 57.3934C164.31 57.3934 164.616 57.8336 164.616 58.5077C164.616 59.1708 164.315 59.6277 163.692 59.6277Z" fill="#344351"/>
<path d="M165.865 60.0177H166.361V58.7473H167.941V60.0177H168.436V57.0089H167.941V58.2737H166.361V57.0089H165.865V60.0177Z" fill="#344351"/>
<path d="M204.754 72.2757C209.67 72.2757 213.656 68.2844 213.656 63.3608C213.656 58.4372 209.67 54.4458 204.754 54.4458C199.837 54.4458 195.852 58.4372 195.852 63.3608C195.852 68.2844 199.837 72.2757 204.754 72.2757Z" fill="white" stroke="#344351" stroke-miterlimit="10"/>
<path d="M204.752 66.3324C206.801 66.3324 208.462 64.6694 208.462 62.6179C208.462 60.5664 206.801 58.9033 204.752 58.9033C202.704 58.9033 201.043 60.5664 201.043 62.6179C201.043 64.6694 202.704 66.3324 204.752 66.3324Z" stroke="#344351" stroke-miterlimit="10"/>
<path d="M198.797 69.989C199.356 68.8887 200.208 67.9648 201.258 67.3194C202.309 66.6741 203.518 66.3325 204.75 66.3325C205.983 66.3325 207.192 66.6741 208.242 67.3194C209.293 67.9648 210.145 68.8887 210.704 69.9889" stroke="#344351" stroke-linecap="round" stroke-linejoin="round"/>
<path d="M193.91 22.1797V23.985H192.087V22.1797H190.82V26.8862H192.087V25.0191H193.91V26.8862H195.177V22.1797H193.91Z" fill="#F88C28"/>
<path d="M188.274 22.1969C187.878 22.1307 187.471 22.1606 187.09 22.2839C186.533 22.4669 186.063 22.843 185.769 23.3415C185.475 23.8399 185.377 24.4264 185.493 24.9907C185.609 25.555 185.932 26.0583 186.4 26.4059C186.869 26.7536 187.451 26.9217 188.037 26.8786C188.623 26.8356 189.173 26.5843 189.583 26.1721C189.993 25.7599 190.236 25.2151 190.265 24.6402C190.294 24.0652 190.108 23.4996 189.741 23.0497C189.374 22.5998 188.853 22.2965 188.274 22.1969V22.1969ZM188.179 25.7785C187.845 25.8538 187.494 25.799 187.201 25.6258C186.907 25.4526 186.694 25.1744 186.605 24.8501C186.517 24.5257 186.561 24.1804 186.727 23.887C186.894 23.5936 187.17 23.375 187.498 23.2774C187.731 23.2146 187.977 23.2146 188.211 23.2774C188.496 23.3508 188.748 23.5155 188.926 23.7454C189.105 23.9752 189.2 24.257 189.196 24.5458C189.193 24.8347 189.091 25.1141 188.906 25.3395C188.722 25.565 188.466 25.7236 188.179 25.7901V25.7785Z" fill="#F88C28"/>
<path d="M176.694 21.9517V23.2119C176.994 23.3548 177.235 23.5931 177.379 23.8878C177.523 24.1825 177.56 24.5162 177.485 24.8344C177.41 25.1526 177.227 25.4365 176.967 25.6399C176.706 25.8432 176.382 25.9539 176.049 25.9539C175.715 25.9539 175.392 25.8432 175.131 25.6399C174.87 25.4365 174.687 25.1526 174.613 24.8344C174.538 24.5162 174.575 24.1825 174.719 23.8878C174.862 23.5931 175.104 23.3548 175.404 23.2119V21.9517C174.766 22.1061 174.208 22.4838 173.835 23.0137C173.462 23.5435 173.3 24.1887 173.379 24.8276C173.458 25.4665 173.774 26.0548 174.266 26.4815C174.758 26.9082 175.392 27.1437 176.049 27.1437C176.706 27.1437 177.34 26.9082 177.832 26.4815C178.324 26.0548 178.639 25.4665 178.719 24.8276C178.798 24.1887 178.636 23.5435 178.263 23.0137C177.89 22.4838 177.332 22.1061 176.694 21.9517Z" fill="#F88C28"/>
<path d="M175.227 24.6462C175.255 24.7947 175.323 24.933 175.425 25.0465C175.526 25.16 175.657 25.2445 175.804 25.2911C175.951 25.3376 176.107 25.3445 176.257 25.3109C176.408 25.2774 176.546 25.2047 176.657 25.1005C176.769 24.9963 176.849 24.8645 176.891 24.7191C176.932 24.5736 176.932 24.42 176.892 24.2744C176.851 24.1288 176.771 23.9967 176.66 23.892C176.549 23.7873 176.411 23.714 176.261 23.6798V21.8726H175.867V23.6721C175.654 23.722 175.468 23.8501 175.349 24.0299C175.23 24.2097 175.185 24.4276 175.225 24.6385L175.227 24.6462Z" fill="#F88C28"/>
<path d="M182.629 22.5295V22.1797H181.417V22.5295C181.313 22.545 181.22 22.5624 181.11 22.5875C179.975 22.8562 179.156 23.6119 179.156 24.5011C179.156 25.4675 180.125 26.2793 181.417 26.4745V26.8862H182.629V26.4745C183.921 26.2812 184.89 25.4714 184.89 24.5011C184.89 23.5308 183.921 22.7267 182.629 22.5295ZM180.459 24.5011C180.459 24.041 180.853 23.6487 181.423 23.4805V25.5236C180.851 25.3554 180.453 24.9611 180.453 24.5011H180.459ZM182.629 25.5236V23.4805C183.195 23.6487 183.594 24.041 183.594 24.5011C183.594 24.9611 183.195 25.3554 182.629 25.5236Z" fill="#F88C28"/>
<path d="M161.052 20.4575H158.016C158.016 20.9678 158.391 21.25 158.876 21.4046V25.8502C158.389 25.9933 158.016 26.2832 158.016 26.8863H160.812C161.617 26.8863 162.177 26.7896 162.495 26.5925C162.988 26.2851 163.108 25.8193 163.108 25.2008V22.2319C163.108 21.0374 162.518 20.4575 161.052 20.4575ZM161.68 25.0152C161.68 25.5043 161.38 25.7497 160.774 25.7497C160.6 25.7497 160.379 25.7401 160.155 25.7362V21.5883C160.405 21.5979 160.63 21.5883 160.792 21.5883C161.398 21.5883 161.701 21.846 161.7 22.3614C161.7 22.8833 161.68 24.5166 161.68 25.0152Z" fill="#F88C28"/>
<path d="M166.055 22.207C164.466 22.207 163.738 23.4615 163.738 24.598C163.738 25.9993 164.628 26.8788 166.181 26.8788C166.746 26.8912 167.309 26.7954 167.837 26.5966V25.6514C167.366 25.7861 166.877 25.8513 166.386 25.8447C165.723 25.8447 165.133 25.5702 165.096 24.9923H168.048C168.08 24.8104 168.096 24.6261 168.095 24.4414C168.095 23.3339 167.535 22.207 166.055 22.207ZM165.092 24.0394C165.129 23.6722 165.372 23.1309 165.972 23.1309C166.627 23.1309 166.777 23.6992 166.777 24.0394H165.092Z" fill="#F88C28"/>
<path d="M170.588 22.265C169.996 22.4216 169.059 22.9454 169.059 23.964V25.3654C169.059 26.0052 168.909 26.0032 168.652 26.2487C168.569 26.3258 168.504 26.4197 168.462 26.5239C168.42 26.628 168.401 26.7399 168.407 26.8518H169.682C170.154 26.8518 170.396 26.1868 170.396 25.3692V24.0645C170.396 23.8439 170.485 23.632 170.643 23.475C170.833 23.3012 171.077 23.1956 171.336 23.1754H171.395V26.8479H172.76V22.209H170.886C170.784 22.2151 170.684 22.2339 170.588 22.265V22.265Z" fill="#F88C28"/>
<path d="M63.1525 22.1797V23.985H61.3293V22.1797H60.0625V26.8862H61.3293V25.0191H63.1525V26.8862H64.4192V22.1797H63.1525Z" fill="#F88C28"/>
<path d="M57.5237 22.1969C57.1277 22.1307 56.7212 22.1606 56.3398 22.2839C55.7826 22.4669 55.3129 22.843 55.0188 23.3415C54.7248 23.8399 54.6267 24.4264 54.743 24.9907C54.8593 25.555 55.182 26.0583 55.6505 26.4059C56.1189 26.7536 56.7008 26.9217 57.2869 26.8786C57.8729 26.8356 58.4227 26.5843 58.833 26.1721C59.2432 25.7599 59.4857 25.2151 59.5148 24.6402C59.5439 24.0652 59.3576 23.4996 58.9909 23.0497C58.6243 22.5998 58.1025 22.2965 57.5237 22.1969V22.1969ZM57.429 25.7785C57.095 25.8538 56.7442 25.799 56.4506 25.6258C56.157 25.4526 55.9436 25.1744 55.8553 24.8501C55.767 24.5257 55.8108 24.1804 55.9774 23.887C56.1439 23.5936 56.4203 23.375 56.7482 23.2774C56.9813 23.2146 57.2274 23.2146 57.4605 23.2774C57.7458 23.3508 57.9977 23.5155 58.1764 23.7454C58.355 23.9752 58.4501 24.257 58.4465 24.5458C58.4429 24.8347 58.3407 25.1141 58.1564 25.3395C57.972 25.565 57.716 25.7236 57.429 25.7901V25.7785Z" fill="#F88C28"/>
<path d="M45.9362 21.9517V23.2119C46.2359 23.3548 46.4773 23.5931 46.621 23.8878C46.7647 24.1825 46.8022 24.5162 46.7273 24.8344C46.6524 25.1526 46.4696 25.4365 46.2087 25.6399C45.9479 25.8432 45.6244 25.9539 45.291 25.9539C44.9576 25.9539 44.6341 25.8432 44.3732 25.6399C44.1124 25.4365 43.9296 25.1526 43.8547 24.8344C43.7798 24.5162 43.8173 24.1825 43.9609 23.8878C44.1046 23.5931 44.346 23.3548 44.6458 23.2119V21.9517C44.008 22.1061 43.4499 22.4838 43.0769 23.0137C42.704 23.5435 42.5419 24.1887 42.6213 24.8276C42.7007 25.4665 43.016 26.0548 43.5079 26.4815C43.9997 26.9082 44.634 27.1437 45.291 27.1437C45.948 27.1437 46.5823 26.9082 47.0741 26.4815C47.5659 26.0548 47.8813 25.4665 47.9607 24.8276C48.0401 24.1887 47.878 23.5435 47.505 23.0137C47.1321 22.4838 46.574 22.1061 45.9362 21.9517Z" fill="#F88C28"/>
<path d="M44.4733 24.6462C44.5012 24.7947 44.5695 24.933 44.671 25.0465C44.7725 25.16 44.9035 25.2445 45.0501 25.2911C45.1967 25.3376 45.3534 25.3445 45.5036 25.3109C45.6538 25.2774 45.792 25.2047 45.9034 25.1005C46.0149 24.9963 46.0955 24.8645 46.1368 24.7191C46.178 24.5736 46.1784 24.42 46.1378 24.2744C46.0972 24.1288 46.0171 23.9967 45.9061 23.892C45.7951 23.7873 45.6573 23.714 45.5072 23.6798V21.8726H45.1126V23.6721C44.8997 23.722 44.7144 23.8501 44.5951 24.0299C44.4757 24.2097 44.4314 24.4276 44.4713 24.6385L44.4733 24.6462Z" fill="#F88C28"/>
<path d="M51.8751 22.5295V22.1797H50.6636V22.5295C50.559 22.545 50.4663 22.5624 50.3558 22.5875C49.2212 22.8562 48.4023 23.6119 48.4023 24.5011C48.4023 25.4675 49.3712 26.2793 50.6636 26.4745V26.8862H51.8751V26.4745C53.1675 26.2812 54.1363 25.4714 54.1363 24.5011C54.1363 23.5308 53.1675 22.7267 51.8751 22.5295ZM49.7046 24.5011C49.7046 24.041 50.0993 23.6487 50.6695 23.4805V25.5236C50.0973 25.3554 49.6987 24.9611 49.6987 24.5011H49.7046ZM51.8751 25.5236V23.4805C52.4414 23.6487 52.84 24.041 52.84 24.5011C52.84 24.9611 52.4414 25.3554 51.8751 25.5236Z" fill="#F88C28"/>
<path d="M30.2984 20.4575H27.2617C27.2617 20.9678 27.6366 21.25 28.122 21.4046V25.8502C27.6346 25.9933 27.2617 26.2832 27.2617 26.8863H30.0577C30.8627 26.8863 31.4231 26.7896 31.7408 26.5925C32.2341 26.2851 32.3544 25.8193 32.3544 25.2008V22.2319C32.3544 21.0374 31.7645 20.4575 30.2984 20.4575ZM30.9259 25.0152C30.9259 25.5043 30.6259 25.7497 30.0202 25.7497C29.8466 25.7497 29.6256 25.7401 29.4006 25.7362V21.5883C29.6512 21.5979 29.8762 21.5883 30.0379 21.5883C30.6444 21.5883 30.9469 21.846 30.9456 22.3614C30.9456 22.8833 30.9259 24.5166 30.9259 25.0152Z" fill="#F88C28"/>
<path d="M35.3009 22.207C33.7125 22.207 32.9844 23.4615 32.9844 24.598C32.9844 25.9993 33.8743 26.8788 35.4271 26.8788C35.9925 26.8912 36.5548 26.7954 37.0826 26.5966V25.6514C36.6117 25.7861 36.1229 25.8513 35.6324 25.8447C34.9694 25.8447 34.3794 25.5702 34.3419 24.9923H37.2938C37.3258 24.8104 37.3416 24.6261 37.3411 24.4414C37.3411 23.3339 36.7807 22.207 35.3009 22.207ZM34.338 24.0394C34.3755 23.6722 34.6181 23.1309 35.218 23.1309C35.8731 23.1309 36.023 23.6992 36.023 24.0394H34.338Z" fill="#F88C28"/>
<path d="M39.8339 22.265C39.2419 22.4216 38.3047 22.9454 38.3047 23.964V25.3654C38.3047 26.0052 38.1547 26.0032 37.8982 26.2487C37.8152 26.3258 37.7504 26.4197 37.7081 26.5239C37.6659 26.628 37.6473 26.7399 37.6535 26.8518H38.9282C39.3998 26.8518 39.6425 26.1868 39.6425 25.3692V24.0645C39.6421 23.8439 39.7308 23.632 39.8891 23.475C40.0787 23.3012 40.3229 23.1956 40.5817 23.1754H40.6409V26.8479H42.0063V22.209H40.1318C40.0305 22.2151 39.9303 22.2339 39.8339 22.265V22.265Z" fill="#F88C28"/>
<path d="M137.483 178.141C137.483 193.252 125.251 205.5 110.163 205.5C95.0758 205.5 82.8438 193.252 82.8438 178.141C82.8438 163.03 95.0758 150.782 110.163 150.782C125.251 150.782 137.483 163.03 137.483 178.141Z" fill="white" stroke="#344351"/>
<ellipse cx="110.163" cy="171.176" rx="6.49123" ry="6.96481" fill="#F88C28"/>
<path d="M120.898 191.142H99.4306C98.7676 191.142 98.2905 190.51 98.5232 189.889C99.9901 185.977 103.77 179.998 110.165 179.998C116.559 179.998 120.339 185.977 121.806 189.889C122.039 190.51 121.561 191.142 120.898 191.142Z" fill="#F88C28"/>
<ellipse cx="128.963" cy="156.847" rx="7.11176" ry="7.12191" fill="#F88C28"/>
<path d="M132.103 154.752L128.059 159.36L125.828 156.847" stroke="white" stroke-linecap="round" stroke-linejoin="round"/>
</svg>
