<svg width="438" height="380" viewBox="0 0 438 380" fill="none" xmlns="http://www.w3.org/2000/svg">
<rect x="387" y="361" width="333" height="333" rx="166.5" transform="rotate(180 387 361)" stroke="url(#paint0_linear_6022_33666)" stroke-linecap="round" stroke-dasharray="5 5"/>
<path d="M397.703 146.277C423.927 243.611 365.848 343.657 267.982 369.738C170.115 395.818 69.5199 338.056 43.2966 240.723C17.0733 143.389 75.1517 43.3427 173.018 17.2623C270.885 -8.81813 371.48 48.9438 397.703 146.277Z" stroke="url(#paint1_linear_6022_33666)" stroke-linecap="round" stroke-dasharray="5 5"/>
<rect x="68" y="43" width="302" height="303" rx="151" fill="#F6F7F8"/>
<path d="M199.325 80.7075C245.29 64.9186 295.351 89.3811 311.14 135.346" stroke="#344351"/>
<path d="M208.903 99.8249C242.332 88.342 278.74 106.133 290.223 139.562" stroke="#344351"/>
<path d="M231.135 299.068C185.171 314.857 135.109 290.394 119.32 244.429" stroke="#344351"/>
<path d="M221.621 279.95C188.192 291.433 151.784 273.642 140.301 240.213" stroke="#344351"/>
<circle cx="219" cy="190" r="61.5" fill="white" stroke="#344351"/>
<path d="M206.789 189.905C209.641 195.737 214.369 200.443 220.213 203.269C220.641 203.471 221.114 203.559 221.586 203.523C222.058 203.488 222.512 203.33 222.904 203.065L231.51 197.326C231.891 197.072 232.329 196.918 232.785 196.876C233.24 196.834 233.699 196.906 234.119 197.087L250.22 203.987C250.767 204.219 251.223 204.623 251.521 205.137C251.818 205.652 251.94 206.249 251.869 206.839C251.36 210.821 249.417 214.481 246.404 217.133C243.391 219.786 239.514 221.25 235.5 221.25C223.101 221.25 211.21 216.324 202.443 207.557C193.675 198.79 188.75 186.899 188.75 174.5C188.75 170.485 190.214 166.609 192.866 163.596C195.519 160.582 199.179 158.64 203.161 158.131C203.751 158.059 204.348 158.182 204.862 158.479C205.377 158.777 205.781 159.233 206.013 159.78L212.919 175.894C213.098 176.311 213.171 176.766 213.131 177.217C213.091 177.669 212.941 178.104 212.692 178.484L206.974 187.222C206.713 187.615 206.56 188.069 206.527 188.539C206.495 189.009 206.585 189.48 206.789 189.905Z" fill="#F88C28"/>
<path d="M71.0013 130.5C71.0013 187 67.0009 187 88.5015 187H156.501" stroke="#F88C28" stroke-linecap="round" stroke-dasharray="3 3"/>
<path d="M147.41 176.5L157.819 186.909L147.41 197.318" stroke="#F88C28" stroke-linecap="round" stroke-linejoin="round"/>
<path d="M366.5 237.5C366.5 187 371.5 187 350 187H283" stroke="#F88C28" stroke-linecap="round" stroke-dasharray="3 3"/>
<path d="M376.016 230.508L366.508 240.016L357 230.508" stroke="#F88C28" stroke-linecap="round" stroke-linejoin="round"/>
<circle cx="70.0002" cy="70.0002" r="69.5002" fill="white" stroke="#344351"/>
<path d="M47.1339 56.2193C47.767 55.8541 48.1687 55.1602 48.1687 54.3567C48.1687 53.1271 47.1948 52.1045 45.7217 52.1045H42.3374V60.8697H46.0017C47.5478 60.8697 48.5948 59.9323 48.5948 58.4106C48.5948 57.388 48.047 56.6089 47.1339 56.2193ZM43.2383 52.9567H45.7096C46.5983 52.9567 47.2435 53.5167 47.2435 54.3445C47.2435 55.2332 46.5617 55.8419 45.7096 55.8419H43.2383V52.9567ZM45.7826 60.0054H43.2383V56.6941H45.9409C46.927 56.6941 47.6574 57.4489 47.6574 58.4228C47.6574 59.421 46.8539 60.0054 45.7826 60.0054Z" fill="#344351"/>
<path d="M49.073 60.8697H50.1565L52.1652 58.228L54.1617 60.8697H55.2452L52.6765 57.5463L55.1843 54.2958H54.113L52.1652 56.8645L50.2052 54.2958H49.1339L51.6417 57.5463L49.073 60.8697Z" fill="#344351"/>
<path d="M58.7368 61.0523C60.6847 61.0523 61.8534 59.6402 61.8534 57.5706C61.8534 55.5375 60.6968 54.1132 58.7368 54.1132C56.8134 54.1132 55.6203 55.5132 55.6203 57.5706C55.6203 59.6158 56.7768 61.0523 58.7368 61.0523ZM58.7368 60.2002C57.3125 60.2002 56.5699 59.1654 56.5699 57.5706C56.5699 56.0367 57.2638 54.9654 58.7368 54.9654C60.1734 54.9654 60.9038 55.988 60.9038 57.5706C60.9038 59.1289 60.1855 60.2002 58.7368 60.2002Z" fill="#344351"/>
<path d="M62.7031 62.3306H63.5674V60.8697H68.4005V62.3306H69.2527V60.1028H68.6318V54.2958H64.2857C64.1883 56.3654 64.1031 57.5463 63.9083 58.581C63.7013 59.6523 63.4457 60.1028 62.7031 60.1028V62.3306ZM64.2248 60.1028C64.5048 59.835 64.6144 59.421 64.7361 58.8489C64.9431 57.9358 65.0405 56.3045 65.1135 55.0628H67.7309V60.1028H64.2248Z" fill="#344351"/>
<path d="M75.1252 60.8697L75.113 54.2958H72.6052C72.3008 54.2958 71.8747 54.2958 71.4852 54.3932C70.633 54.6002 69.9512 55.2697 69.9512 56.3654C69.9512 57.4489 70.6086 58.0576 71.4608 58.2645L69.7321 60.8697H70.7182L72.3739 58.3863C72.4712 58.3984 72.5808 58.3984 72.6782 58.3984H74.2243V60.8697H75.1252ZM72.6417 57.6315C72.4226 57.6315 72.106 57.6193 71.8139 57.5463C71.2782 57.4123 70.8765 57.0106 70.8765 56.3532C70.8765 55.6593 71.3269 55.2819 71.7408 55.1602C72.0452 55.0628 72.4347 55.0628 72.6417 55.0628H74.2243V57.6315H72.6417Z" fill="#344351"/>
<path d="M84.3255 62.0019H85.2141V60.0419H84.3498V54.2958H83.4854V60.0419H81.0263V54.2958H80.162V60.0419H77.6906V54.2958H76.8263V60.8697H84.3255V62.0019Z" fill="#344351"/>
<path d="M91.4053 54.2958H90.6505L87.047 59.3723V54.2958H86.1826V60.8697H86.9374L90.5409 55.7445V60.8697H91.4053V54.2958Z" fill="#344351"/>
<path d="M93.7102 57.8384H98.8842C98.945 55.5132 97.8129 54.1132 95.865 54.1132C93.9659 54.1132 92.7485 55.4523 92.7485 57.6071C92.7485 59.701 93.9781 61.0523 95.8894 61.0523C97.1676 61.0523 98.2389 60.395 98.7624 59.2506L97.9224 58.9341C97.5207 59.7497 96.8024 60.2002 95.865 60.2002C94.5502 60.2002 93.7833 59.3358 93.7102 57.8384ZM95.8894 54.9288C97.1068 54.9288 97.8007 55.6715 97.9468 57.0836H93.7224C93.8685 55.708 94.6111 54.9288 95.8894 54.9288Z" fill="#344351"/>
<path d="M17.4688 87.8264H23.4166C23.7088 87.8264 24.1262 87.8055 24.5227 87.7429C26.9018 87.4507 28.2375 85.5098 28.2375 83.1933C28.2375 80.8559 26.9018 78.9359 24.5227 78.6228C24.1262 78.5811 23.6879 78.5602 23.4166 78.5602H19.3261V74.5533H27.0062V72.8002H17.4688V87.8264ZM19.3261 86.0524V80.3133H23.354C23.6044 80.3133 23.9801 80.3342 24.2931 80.3968C25.7331 80.6889 26.3383 81.9411 26.3383 83.1933C26.3383 84.4455 25.7331 85.6768 24.2931 85.969C23.9801 86.0316 23.6044 86.0524 23.354 86.0524H19.3261Z" fill="#344351"/>
<path d="M31.7062 82.7133H40.3254C40.5132 78.7063 38.5306 76.2437 35.1289 76.2437C31.8523 76.2437 29.7028 78.5602 29.7028 82.2542C29.7028 85.7811 31.8941 88.1394 35.2123 88.1394C37.4037 88.1394 39.2611 86.9916 40.1584 85.009L38.3637 84.3829C37.7376 85.6768 36.6106 86.3655 35.1289 86.3655C33.0628 86.3655 31.8523 85.0507 31.7062 82.7133ZM35.1915 77.9133C37.1115 77.9133 38.1758 78.9985 38.4263 81.2107H31.748C31.9984 79.082 33.188 77.9133 35.1915 77.9133Z" fill="#344351"/>
<path d="M47.4173 88.1394C49.7339 88.1394 51.4452 86.9916 52.2382 84.8837L50.36 84.4037C49.8382 85.6768 48.8782 86.3655 47.4173 86.3655C45.1634 86.3655 44.0364 84.6959 44.0156 82.1915C44.0364 79.7498 45.1008 77.9968 47.4173 77.9968C48.7739 77.9968 49.9217 78.7689 50.4017 80.0628L52.2382 79.5202C51.633 77.4959 49.7965 76.2437 47.4382 76.2437C44.0365 76.2437 42.0747 78.6646 42.033 82.1915C42.0747 85.635 43.9738 88.1394 47.4173 88.1394Z" fill="#344351"/>
<path d="M54.3575 87.8264H56.2149V78.3098H61.7244V87.8264H63.5818V76.5567H54.3575V87.8264Z" fill="#344351"/>
<path d="M65.4608 87.8264C67.7356 88.3064 68.4451 87.4924 68.8416 85.4472C69.1547 83.8611 69.426 80.8976 69.6138 78.3098H73.9547V87.8264H75.8121V76.5567H67.9234C67.7356 79.8959 67.5269 82.5881 67.1721 84.5707C66.9634 85.8229 66.7129 86.449 65.4608 86.2194V87.8264Z" fill="#344351"/>
<path d="M87.3934 78.435C86.7465 76.9741 85.223 76.2437 83.1778 76.2437C80.6317 76.2437 79.0665 77.4333 78.5239 79.4159L80.2978 79.9376C80.6943 78.5602 81.8004 77.9759 83.1569 77.9759C85.1187 77.9759 85.8908 78.8315 85.9326 80.6263C84.263 80.8559 82.3013 81.0855 80.8821 81.4611C79.1708 81.962 78.1065 83.0055 78.1065 84.7794C78.1065 86.595 79.4212 88.1394 81.9465 88.1394C83.8247 88.1394 85.223 87.4298 86.1204 86.0524V87.8264H87.7691V80.8559C87.7691 79.9585 87.7065 79.1446 87.3934 78.435ZM82.2178 86.5742C80.6108 86.5742 79.9639 85.6977 79.9639 84.7585C79.9639 83.715 80.7778 83.1933 81.7169 82.9011C82.8021 82.5881 84.3256 82.4211 85.9117 82.1915C85.9117 82.7133 85.8908 83.4437 85.7239 83.9863C85.4526 85.3846 84.2213 86.5742 82.2178 86.5742Z" fill="#344351"/>
<path d="M93.4765 87.8264H95.3339V78.2472H99.2573V76.5567H89.553V78.2472H93.4765V87.8264Z" fill="#344351"/>
<path d="M101.233 87.8264H103.09V83.0681H109.017V87.8264H110.874V76.5567H109.017V81.2942H103.09V76.5567H101.233V87.8264Z" fill="#344351"/>
<path d="M118.587 88.1394C121.947 88.1394 124.034 85.7185 124.034 82.1707C124.034 78.6855 121.968 76.2437 118.587 76.2437C115.29 76.2437 113.161 78.6437 113.161 82.1707C113.161 85.6768 115.227 88.1394 118.587 88.1394ZM118.587 86.3655C116.312 86.3655 115.144 84.7168 115.144 82.1707C115.144 79.7081 116.229 77.9968 118.587 77.9968C120.904 77.9968 122.051 79.6455 122.051 82.1707C122.051 84.6542 120.924 86.3655 118.587 86.3655Z" fill="#344351"/>
<circle cx="368" cy="310" r="69.5" fill="white" stroke="#344351"/>
<path d="M325.65 300.87V292.104H324.749L319.928 299.287V292.104H319.027V300.87H319.928L324.749 293.675V300.87H325.65Z" fill="#344351"/>
<path d="M330.088 301.052C331.391 301.052 332.353 300.431 332.84 299.251L331.951 298.995C331.61 299.774 330.977 300.2 330.088 300.2C328.676 300.2 327.958 299.153 327.946 297.583C327.958 296.049 328.64 294.965 330.088 294.965C330.953 294.965 331.659 295.428 331.963 296.219L332.84 295.927C332.474 294.807 331.427 294.113 330.1 294.113C328.128 294.113 327.02 295.513 326.996 297.583C327.02 299.616 328.104 301.052 330.088 301.052Z" fill="#344351"/>
<path d="M333.372 300.87H334.455L336.464 298.228L338.46 300.87H339.544L336.975 297.546L339.483 294.296H338.412L336.464 296.864L334.504 294.296H333.433L335.94 297.546L333.372 300.87Z" fill="#344351"/>
<path d="M343.035 301.052C344.983 301.052 346.152 299.64 346.152 297.571C346.152 295.538 344.995 294.113 343.035 294.113C341.112 294.113 339.919 295.513 339.919 297.571C339.919 299.616 341.075 301.052 343.035 301.052ZM343.035 300.2C341.611 300.2 340.868 299.165 340.868 297.571C340.868 296.037 341.562 294.965 343.035 294.965C344.472 294.965 345.202 295.988 345.202 297.571C345.202 299.129 344.484 300.2 343.035 300.2Z" fill="#344351"/>
<path d="M347.002 302.331H347.866V300.87H352.699V302.331H353.551V300.103H352.93V294.296H348.584C348.487 296.365 348.402 297.546 348.207 298.581C348 299.652 347.744 300.103 347.002 300.103V302.331ZM348.523 300.103C348.803 299.835 348.913 299.421 349.035 298.849C349.242 297.936 349.339 296.304 349.412 295.063H352.029V300.103H348.523Z" fill="#344351"/>
<path d="M359.424 300.87L359.412 294.296H356.904C356.599 294.296 356.173 294.296 355.784 294.393C354.932 294.6 354.25 295.27 354.25 296.365C354.25 297.449 354.907 298.058 355.759 298.264L354.031 300.87H355.017L356.672 298.386C356.77 298.398 356.879 298.398 356.977 298.398H358.523V300.87H359.424ZM356.94 297.631C356.721 297.631 356.405 297.619 356.112 297.546C355.577 297.412 355.175 297.011 355.175 296.353C355.175 295.659 355.625 295.282 356.039 295.16C356.344 295.063 356.733 295.063 356.94 295.063H358.523V297.631H356.94Z" fill="#344351"/>
<path d="M368.624 302.002H369.513V300.042H368.648V294.296H367.784V300.042H365.325V294.296H364.46V300.042H361.989V294.296H361.125V300.87H368.624V302.002Z" fill="#344351"/>
<path d="M375.704 294.296H374.949L371.345 299.372V294.296H370.481V300.87H371.236L374.839 295.744V300.87H375.704V294.296Z" fill="#344351"/>
<path d="M378.009 297.838H383.183C383.243 295.513 382.111 294.113 380.164 294.113C378.264 294.113 377.047 295.452 377.047 297.607C377.047 299.701 378.277 301.052 380.188 301.052C381.466 301.052 382.537 300.395 383.061 299.251L382.221 298.934C381.819 299.75 381.101 300.2 380.164 300.2C378.849 300.2 378.082 299.336 378.009 297.838ZM380.188 294.929C381.405 294.929 382.099 295.671 382.245 297.084H378.021C378.167 295.708 378.91 294.929 380.188 294.929Z" fill="#344351"/>
<path d="M386.971 300.87H387.859V295.148H391.305V300.87H392.193V294.296H386.971V300.87Z" fill="#344351"/>
<path d="M396.653 301.052C398.601 301.052 399.769 299.64 399.769 297.571C399.769 295.538 398.613 294.113 396.653 294.113C394.729 294.113 393.536 295.513 393.536 297.571C393.536 299.616 394.693 301.052 396.653 301.052ZM396.653 300.2C395.229 300.2 394.486 299.165 394.486 297.571C394.486 296.037 395.18 294.965 396.653 294.965C398.089 294.965 398.82 295.988 398.82 297.571C398.82 299.129 398.102 300.2 396.653 300.2Z" fill="#344351"/>
<path d="M403.543 300.87H404.432V297.546H406.928C407.098 297.546 407.317 297.534 407.549 297.498C408.912 297.278 409.679 296.195 409.679 294.819C409.679 293.456 408.912 292.36 407.549 292.153C407.317 292.117 407.098 292.104 406.928 292.104H403.543V300.87ZM404.432 296.682V292.957H406.903C407.049 292.957 407.256 292.969 407.451 293.018C408.34 293.2 408.754 294.004 408.754 294.819C408.754 295.635 408.34 296.438 407.451 296.633C407.256 296.67 407.049 296.682 406.903 296.682H404.432Z" fill="#344351"/>
<path d="M413.922 300.87H414.81V299.701C416.612 300.005 418.329 298.739 418.329 296.219C418.329 293.699 416.612 292.409 414.81 292.713V292.104H413.922V292.713C412.12 292.409 410.404 293.699 410.404 296.219C410.404 298.739 412.12 300.005 413.922 299.701V300.87ZM413.922 298.849C412.364 299.068 411.329 297.924 411.329 296.219C411.329 294.515 412.364 293.334 413.922 293.553V298.849ZM414.81 298.849V293.553C416.357 293.334 417.404 294.551 417.404 296.231C417.404 297.924 416.357 299.068 414.81 298.849Z" fill="#344351"/>
<path d="M326.954 327.826H328.832V312.8H326.954L324.116 314.491V316.557L326.954 314.845V327.826Z" fill="#344351"/>
<path d="M332.301 327.826H334.346V325.781H332.301V327.826Z" fill="#344351"/>
<path d="M344.082 327.826H345.961V325.051H347.526V323.298H345.961V319.061H344.082V323.298H339.282L344.249 312.8H342.142L337.175 323.298V325.051H344.082V327.826Z" fill="#344351"/>
<path d="M361.402 322.129C361.59 322.129 362.028 322.129 362.508 322.045C364.95 321.67 366.223 319.917 366.223 317.517C366.223 315.138 364.929 313.259 362.508 312.884C362.028 312.8 361.59 312.8 361.402 312.8H355.767V320.501H354.202V322.129H355.767V323.903H354.202V325.447H355.767V327.826H357.625V325.447H362.55V323.903H357.625V322.129H361.402ZM357.625 314.553H361.34C361.527 314.553 361.924 314.574 362.279 314.658C363.719 314.971 364.324 316.285 364.324 317.558C364.324 318.915 363.656 320.063 362.279 320.397C361.903 320.48 361.569 320.501 361.34 320.501H357.625V314.553Z" fill="#344351"/>
<path d="M372.124 312.8L368.118 327.826H369.996L374.003 312.8H372.124Z" fill="#344351"/>
<path d="M376.091 327.826H377.885V320.418L381.475 327.826H382.456L386.045 320.418V327.826H387.84V316.557H386.233L381.955 325.301L377.677 316.557H376.091V327.826Z" fill="#344351"/>
<path d="M399.989 316.557H398.465L392.559 324.738V316.557H390.765V327.826H392.288L398.194 319.52V327.826H399.989V316.557Z" fill="#344351"/>
<path d="M402.911 327.826H404.769V323.068H410.696V327.826H412.553V316.557H410.696V321.294H404.769V316.557H402.911V327.826Z" fill="#344351"/>
<defs>
<linearGradient id="paint0_linear_6022_33666" x1="408.027" y1="618.045" x2="723.004" y2="455.407" gradientUnits="userSpaceOnUse">
<stop stop-color="#CED2D4"/>
<stop offset="1" stop-color="#E9EBED"/>
</linearGradient>
<linearGradient id="paint1_linear_6022_33666" x1="60.174" y1="292.746" x2="406.509" y2="112.936" gradientUnits="userSpaceOnUse">
<stop stop-color="#CED2D4"/>
<stop offset="1" stop-color="#E9EBED"/>
</linearGradient>
</defs>
</svg>
