<svg width="223" height="223" viewBox="0 0 223 223" fill="none" xmlns="http://www.w3.org/2000/svg">
<rect x="211.766" y="212.918" width="200.526" height="201.625" rx="100.263" transform="rotate(180 211.766 212.918)" stroke="white" stroke-linecap="round" stroke-dasharray="5 5"/>
<path d="M218.208 82.9076C233.999 141.841 199.026 202.417 140.092 218.208C81.159 233.999 20.5828 199.026 4.79168 140.092C-10.9995 81.159 23.9742 20.5828 82.9076 4.79168C141.841 -10.9995 202.417 23.9742 218.208 82.9076Z" stroke="white" stroke-linecap="round" stroke-dasharray="5 5"/>
<rect x="19.668" y="20.3755" width="181.858" height="183.46" rx="90.9292" fill="white"/>
<path d="M181.593 89.2734H188.505C195.531 89.2734 195.417 89.2734 195.417 95.4968V109.277V129.281C195.417 129.281 195.417 132.319 195.417 139.14V177.587C195.417 184.072 194.128 185.301 185.744 185.534C183.785 185.588 125.981 185.534 123.172 185.534" stroke="#F88C28" stroke-linecap="round" stroke-dasharray="3 3"/>
<path d="M31.6644 180.92C31.6644 183.528 29.5513 185.641 26.9455 185.641C24.3396 185.641 22.2266 183.528 22.2266 180.92C22.2266 178.313 24.3396 176.199 26.9455 176.199C29.5513 176.199 31.6644 178.313 31.6644 180.92Z" stroke="#344351" stroke-width="2"/>
<path d="M104.631 185.273C104.631 186.028 104.019 186.64 103.265 186.64C102.511 186.64 101.898 186.028 101.898 185.273C101.898 184.518 102.511 183.906 103.265 183.906C104.019 183.906 104.631 184.518 104.631 185.273Z" stroke="#344351" stroke-width="2"/>
<path d="M116.889 185.273C116.889 186.028 116.277 186.64 115.523 186.64C114.768 186.64 114.156 186.028 114.156 185.273C114.156 184.518 114.768 183.906 115.523 183.906C116.277 183.906 116.889 184.518 116.889 185.273Z" stroke="#344351" stroke-width="2"/>
<path d="M25 167.714H110.139C118.699 167.714 125.639 174.653 125.639 183.214V197.188H67.5694H9.5V183.214C9.5 174.653 16.4396 167.714 25 167.714Z" fill="white" stroke="#344351"/>
<path d="M67.966 197.688V206.763M67.966 206.763H9.59375M67.966 206.763H125.747" stroke="#344351"/>
<path d="M69.3777 206.629C69.3777 207.385 68.7638 207.999 68.0052 207.999C67.2466 207.999 66.6328 207.385 66.6328 206.629C66.6328 205.872 67.2466 205.258 68.0052 205.258C68.7638 205.258 69.3777 205.872 69.3777 206.629Z" fill="#344351" stroke="#344351" stroke-width="2"/>
<path d="M105.268 184.106C105.268 184.863 104.654 185.477 103.896 185.477C103.137 185.477 102.523 184.863 102.523 184.106C102.523 183.35 103.137 182.735 103.896 182.735C104.654 182.735 105.268 183.35 105.268 184.106Z" fill="#EFEFEF" stroke="#EFEFEF" stroke-width="2"/>
<rect x="101.289" y="173.438" width="16.5651" height="5.52361" rx="2.7618" fill="#EFEFEF"/>
<path d="M47.5547 177.494H53.1375V187.162H47.5547C45.6217 187.162 44.0547 185.595 44.0547 183.662V180.994C44.0547 179.061 45.6217 177.494 47.5547 177.494Z" fill="#F88C28" stroke="#F88C28"/>
<path d="M53.3906 177.494H62.4734V187.162H53.3906V177.494Z" fill="white" stroke="#344351"/>
<path d="M62.8789 177.494H71.9617V187.162H62.8789V177.494Z" fill="white" stroke="#344351"/>
<path d="M77.9531 177.494H72.3703V187.162H77.9531C79.8861 187.162 81.4531 185.595 81.4531 183.662V180.994C81.4531 179.061 79.8861 177.494 77.9531 177.494Z" fill="white" stroke="#344351"/>
<path d="M116.538 184.106C116.538 184.863 115.924 185.477 115.165 185.477C114.407 185.477 113.793 184.863 113.793 184.106C113.793 183.35 114.407 182.735 115.165 182.735C115.924 182.735 116.538 183.35 116.538 184.106Z" fill="#EFEFEF" stroke="#EFEFEF" stroke-width="2"/>
<path d="M105.086 167.51L109.097 151.804M107.021 149.433C107.021 150.906 108.216 152.1 109.69 152.1C111.164 152.1 112.359 150.906 112.359 149.433C112.359 147.96 111.164 146.766 109.69 146.766C108.216 146.766 107.021 147.96 107.021 149.433Z" stroke="#344351"/>
<path d="M30.0549 167.51L26.1997 151.804M28.1348 149.433C28.1348 150.906 26.9399 152.1 25.4658 152.1C23.9918 152.1 22.7969 150.906 22.7969 149.433C22.7969 147.96 23.9918 146.766 25.4658 146.766C26.9399 146.766 28.1348 147.96 28.1348 149.433Z" stroke="#344351"/>
<path d="M60.3008 89.4902H54.6693C49.6279 89.4902 48.5712 89.4902 48.5712 94.3118V182.625" stroke="#F88C28" stroke-width="2"/>
<path d="M74.5979 21.5015H67.8751C61.6694 21.5015 59.8594 24.6054 59.8594 30.296V105.308C59.8594 112.55 60.8937 114.62 67.8751 114.62H172.338C179.061 114.62 182.164 111.774 182.164 105.308V85.9082V78.1483V30.296C182.164 23.5708 178.802 21.5015 172.338 21.5015H102.524H74.5979Z" fill="white" stroke="#344351"/>
<path d="M81.5796 14C73.5639 14 74.5982 16.328 74.5982 21.5012L74.5982 98.841C74.5982 104.273 76.6668 105.825 81.8382 105.825H96.0596C100.972 105.825 102.524 103.238 102.524 98.841V21.5012C102.524 14.776 102.524 14 93.7325 14H81.5796Z" fill="white" stroke="#344351"/>
<path d="M118.938 42.9521H160.066C161.999 42.9521 163.566 44.5192 163.566 46.4521V53.9718C163.566 55.9048 161.999 57.4718 160.066 57.4718H118.938C117.005 57.4718 115.438 55.9048 115.438 53.9718V46.4521C115.438 44.5192 117.005 42.9521 118.938 42.9521Z" fill="#F6F7F8" stroke="#344351"/>
<path d="M114.25 37.7798H164.756C167.241 37.7798 169.256 39.7945 169.256 42.2798V58.6632C169.256 61.1485 167.241 63.1632 164.756 63.1632H114.25C111.765 63.1632 109.75 61.1485 109.75 58.6632V42.2798C109.75 39.7945 111.765 37.7798 114.25 37.7798Z" stroke="#344351"/>
<path d="M115.487 74.5268C115.487 75.6891 114.545 76.6307 113.384 76.6307C112.223 76.6307 111.281 75.6891 111.281 74.5268C111.281 73.3645 112.223 72.4229 113.384 72.4229C114.545 72.4229 115.487 73.3645 115.487 74.5268Z" fill="#EFEFEF" stroke="#EFEFEF" stroke-width="2"/>
<path d="M167.202 74.5268C167.202 75.6891 166.26 76.6307 165.099 76.6307C163.938 76.6307 162.996 75.6891 162.996 74.5268C162.996 73.3645 163.938 72.4229 165.099 72.4229C166.26 72.4229 167.202 73.3645 167.202 74.5268Z" fill="#EFEFEF" stroke="#EFEFEF" stroke-width="2"/>
<path d="M115.487 88.4946C115.487 89.6569 114.545 90.5985 113.384 90.5985C112.223 90.5985 111.281 89.6569 111.281 88.4946C111.281 87.3323 112.223 86.3906 113.384 86.3906C114.545 86.3906 115.487 87.3323 115.487 88.4946Z" fill="#EFEFEF" stroke="#EFEFEF" stroke-width="2"/>
<path d="M167.202 88.4946C167.202 89.6569 166.26 90.5985 165.099 90.5985C163.938 90.5985 162.996 89.6569 162.996 88.4946C162.996 87.3323 163.938 86.3906 165.099 86.3906C166.26 86.3906 167.202 87.3323 167.202 88.4946Z" fill="#EFEFEF" stroke="#EFEFEF" stroke-width="2"/>
<path d="M115.487 102.463C115.487 103.625 114.545 104.567 113.384 104.567C112.223 104.567 111.281 103.625 111.281 102.463C111.281 101.301 112.223 100.359 113.384 100.359C114.545 100.359 115.487 101.301 115.487 102.463Z" fill="#EFEFEF" stroke="#EFEFEF" stroke-width="2"/>
<path d="M167.202 102.463C167.202 103.625 166.26 104.567 165.099 104.567C163.938 104.567 162.996 103.625 162.996 102.463C162.996 101.301 163.938 100.359 165.099 100.359C166.26 100.359 167.202 101.301 167.202 102.463Z" fill="#EFEFEF" stroke="#EFEFEF" stroke-width="2"/>
<rect x="126.797" y="72.4229" width="4.20571" height="4.20787" rx="1" fill="#EFEFEF" stroke="#EFEFEF" stroke-width="2"/>
<rect x="126.797" y="86.3906" width="4.20571" height="4.20787" rx="1" fill="#EFEFEF" stroke="#EFEFEF" stroke-width="2"/>
<rect x="126.797" y="100.359" width="4.20571" height="4.20786" rx="1" fill="#EFEFEF" stroke="#EFEFEF" stroke-width="2"/>
<rect x="137.141" y="72.4229" width="4.20574" height="4.20787" rx="1" fill="#EFEFEF" stroke="#EFEFEF" stroke-width="2"/>
<rect x="137.141" y="86.3906" width="4.20574" height="4.20787" rx="1" fill="#EFEFEF" stroke="#EFEFEF" stroke-width="2"/>
<rect x="137.141" y="100.359" width="4.20574" height="4.20786" rx="1" fill="#EFEFEF" stroke="#EFEFEF" stroke-width="2"/>
<rect x="147.48" y="72.4229" width="4.20571" height="4.20787" rx="1" fill="#EFEFEF" stroke="#EFEFEF" stroke-width="2"/>
<rect x="147.48" y="86.3906" width="4.20571" height="4.20787" rx="1" fill="#EFEFEF" stroke="#EFEFEF" stroke-width="2"/>
<rect x="147.48" y="100.359" width="4.20571" height="4.20786" rx="1" fill="#EFEFEF" stroke="#EFEFEF" stroke-width="2"/>
<g clip-path="url(#clip0_6022_33666)">
<path d="M158.034 27.7642V29.7198H156.055V27.7642H154.68V32.8626H156.055V30.84H158.034V32.8626H159.409V27.7642H158.034Z" fill="#F88C28"/>
<path d="M151.918 27.7828C151.488 27.7111 151.047 27.7434 150.633 27.877C150.028 28.0753 149.518 28.4827 149.199 29.0227C148.88 29.5626 148.773 30.1979 148.899 30.8092C149.026 31.4205 149.376 31.9657 149.885 32.3423C150.393 32.7189 151.025 32.9009 151.661 32.8543C152.297 32.8077 152.894 32.5355 153.339 32.089C153.785 31.6425 154.048 31.0523 154.079 30.4295C154.111 29.8066 153.909 29.1939 153.511 28.7065C153.113 28.2192 152.546 27.8907 151.918 27.7828V27.7828ZM151.815 31.6626C151.453 31.7441 151.072 31.6848 150.753 31.4972C150.434 31.3095 150.203 31.0082 150.107 30.6568C150.011 30.3054 150.059 29.9314 150.239 29.6136C150.42 29.2957 150.72 29.059 151.076 28.9532C151.329 28.8852 151.596 28.8852 151.849 28.9532C152.159 29.0327 152.433 29.2112 152.627 29.4602C152.82 29.7091 152.924 30.0144 152.92 30.3273C152.916 30.6402 152.805 30.9428 152.605 31.1871C152.405 31.4313 152.127 31.6031 151.815 31.6752V31.6626Z" fill="#F88C28"/>
<path d="M139.343 27.5161V28.8813C139.668 29.0361 139.93 29.2942 140.086 29.6135C140.242 29.9327 140.283 30.2941 140.201 30.6389C140.12 30.9836 139.922 31.2912 139.638 31.5114C139.355 31.7317 139.004 31.8516 138.642 31.8516C138.28 31.8516 137.929 31.7317 137.646 31.5114C137.363 31.2912 137.164 30.9836 137.083 30.6389C137.002 30.2941 137.042 29.9327 137.198 29.6135C137.354 29.2942 137.616 29.0361 137.942 28.8813V27.5161C137.249 27.6834 136.644 28.0926 136.239 28.6665C135.834 29.2405 135.658 29.9394 135.744 30.6315C135.83 31.3236 136.173 31.9609 136.707 32.4231C137.24 32.8853 137.929 33.1405 138.642 33.1405C139.355 33.1405 140.044 32.8853 140.578 32.4231C141.112 31.9609 141.454 31.3236 141.54 30.6315C141.626 29.9394 141.45 29.2405 141.046 28.6665C140.641 28.0926 140.035 27.6834 139.343 27.5161Z" fill="#F88C28"/>
<path d="M137.756 30.4353C137.786 30.5961 137.86 30.7459 137.971 30.8689C138.081 30.9919 138.223 31.0834 138.382 31.1338C138.541 31.1843 138.711 31.1917 138.874 31.1553C139.037 31.119 139.187 31.0402 139.308 30.9273C139.429 30.8145 139.517 30.6717 139.562 30.5142C139.607 30.3567 139.607 30.1902 139.563 30.0325C139.519 29.8748 139.432 29.7316 139.311 29.6183C139.191 29.5049 139.041 29.4254 138.878 29.3884V27.4307H138.45V29.38C138.219 29.4341 138.018 29.5728 137.888 29.7676C137.759 29.9625 137.711 30.1985 137.754 30.4269L137.756 30.4353Z" fill="#F88C28"/>
<path d="M145.789 28.1431V27.7642H144.474V28.1431C144.361 28.1599 144.26 28.1787 144.14 28.206C142.908 28.497 142.02 29.3157 142.02 30.2788C142.02 31.3257 143.071 32.2051 144.474 32.4166V32.8626H145.789V32.4166C147.192 32.2072 148.244 31.3299 148.244 30.2788C148.244 29.2277 147.192 28.3567 145.789 28.1431ZM143.433 30.2788C143.433 29.7805 143.862 29.3555 144.481 29.1733V31.3865C143.859 31.2043 143.427 30.7772 143.427 30.2788H143.433ZM145.789 31.3865V29.1733C146.404 29.3555 146.837 29.7805 146.837 30.2788C146.837 30.7772 146.404 31.2043 145.789 31.3865Z" fill="#F88C28"/>
<path d="M122.367 25.8979H119.07C119.07 26.4507 119.477 26.7564 120.004 26.9239V31.7397C119.475 31.8946 119.07 32.2087 119.07 32.862H122.105C122.979 32.862 123.588 32.7573 123.933 32.5437C124.468 32.2108 124.599 31.7062 124.599 31.0362V27.8201C124.599 26.5261 123.958 25.8979 122.367 25.8979ZM123.048 30.8352C123.048 31.3649 122.722 31.6308 122.065 31.6308C121.876 31.6308 121.636 31.6204 121.392 31.6162V27.1228C121.664 27.1333 121.908 27.1228 122.084 27.1228C122.742 27.1228 123.071 27.402 123.069 27.9604C123.069 28.5257 123.048 30.295 123.048 30.8352Z" fill="#F88C28"/>
<path d="M127.796 27.793C126.072 27.793 125.281 29.1519 125.281 30.383C125.281 31.901 126.247 32.8537 127.933 32.8537C128.547 32.8672 129.157 32.7634 129.73 32.548V31.5242C129.219 31.6701 128.688 31.7407 128.156 31.7335C127.436 31.7335 126.796 31.4362 126.755 30.8102H129.959C129.994 30.6131 130.011 30.4134 130.011 30.2134C130.011 29.0137 129.402 27.793 127.796 27.793ZM126.751 29.7779C126.791 29.3801 127.055 28.7938 127.706 28.7938C128.417 28.7938 128.58 29.4094 128.58 29.7779H126.751Z" fill="#F88C28"/>
<path d="M132.72 27.8561C132.077 28.0257 131.06 28.5932 131.06 29.6966V31.2146C131.06 31.9077 130.897 31.9056 130.618 32.1715C130.528 32.2551 130.458 32.3568 130.412 32.4696C130.366 32.5824 130.346 32.7036 130.353 32.8248H131.737C132.248 32.8248 132.512 32.1045 132.512 31.2188V29.8055C132.512 29.5664 132.608 29.3369 132.78 29.1669C132.985 28.9786 133.251 28.8642 133.531 28.8423H133.596V32.8206H135.078V27.7954H133.043C132.933 27.802 132.824 27.8224 132.72 27.8561V27.8561Z" fill="#F88C28"/>
</g>
<path d="M212.499 145.863C212.499 155.562 204.63 163.426 194.923 163.426C185.216 163.426 177.348 155.562 177.348 145.863C177.348 136.163 185.216 128.299 194.923 128.299C204.63 128.299 212.499 136.163 212.499 145.863Z" fill="white" stroke="#344351"/>
<mask id="mask0_6022_33666" style="mask-type:alpha" maskUnits="userSpaceOnUse" x="179" y="139" width="32" height="31">
<ellipse cx="194.936" cy="152.99" rx="1.48276" ry="1.48176" fill="#2A3641"/>
<path d="M207.191 155.953C207.191 162.715 201.706 168.196 194.939 168.196C188.172 168.196 182.688 162.715 182.688 155.953C182.688 149.192 188.172 143.71 194.939 143.71C201.706 143.71 207.191 149.192 207.191 155.953Z" stroke="#2A3641"/>
<path d="M203.628 156.546C203.628 161.343 199.737 165.233 194.935 165.233C190.134 165.233 186.242 161.343 186.242 156.546C186.242 151.748 190.134 147.859 194.935 147.859C199.737 147.859 203.628 151.748 203.628 156.546Z" stroke="#2A3641"/>
<path d="M210.154 154.471C210.154 162.706 203.474 169.382 195.233 169.382C186.992 169.382 180.312 162.706 180.312 154.471C180.312 146.237 186.992 139.561 195.233 139.561C203.474 139.561 210.154 146.237 210.154 154.471Z" stroke="#2A3641"/>
</mask>
<g mask="url(#mask0_6022_33666)">
<path d="M194.938 156.249L182.867 135.356L207.008 135.356L194.938 156.249Z" fill="#344351"/>
</g>
<defs>
<clipPath id="clip0_6022_33666">
<rect width="40.3371" height="7.24251" fill="white" transform="translate(119.07 25.8979)"/>
</clipPath>
</defs>
</svg>
