<svg width="244" height="223" viewBox="0 0 244 223" fill="none" xmlns="http://www.w3.org/2000/svg">
<rect x="222.766" y="212.918" width="200.526" height="201.625" rx="100.263" transform="rotate(180 222.766 212.918)" stroke="white" stroke-linecap="round" stroke-dasharray="5 5"/>
<path d="M229.208 82.9076C244.999 141.841 210.026 202.417 151.092 218.208C92.159 233.999 31.5828 199.026 15.7917 140.092C0.000528293 81.159 34.9742 20.5828 93.9076 4.79168C152.841 -10.9995 213.417 23.9742 229.208 82.9076Z" stroke="white" stroke-linecap="round" stroke-dasharray="5 5"/>
<rect x="30.668" y="20.3755" width="181.858" height="183.46" rx="90.9292" fill="white"/>
<path d="M111.04 50.0265C136.646 41.2179 164.534 54.8654 173.33 80.509" stroke="#344351"/>
<path d="M116.376 60.6919C134.999 54.2857 155.281 64.2112 161.678 82.8611" stroke="#344351"/>
<path d="M128.759 171.848C103.153 180.656 75.2644 167.009 66.4688 141.365" stroke="#344351"/>
<path d="M123.462 161.182C104.839 167.589 84.557 157.663 78.1602 139.013" stroke="#344351"/>
<path d="M156.039 111C156.039 129.828 140.798 145.09 122 145.09C103.201 145.09 87.9609 129.828 87.9609 111C87.9609 92.1723 103.201 76.9106 122 76.9106C140.798 76.9106 156.039 92.1723 156.039 111Z" fill="white" stroke="#344351"/>
<path d="M115.197 110.947C116.787 114.2 119.42 116.826 122.676 118.402C122.914 118.515 123.178 118.564 123.441 118.544C123.703 118.524 123.957 118.436 124.175 118.289L128.969 115.087C129.181 114.945 129.425 114.859 129.679 114.836C129.933 114.812 130.189 114.853 130.423 114.953L139.392 118.803C139.697 118.932 139.951 119.158 140.117 119.445C140.282 119.732 140.35 120.065 140.311 120.394C140.027 122.616 138.945 124.657 137.266 126.137C135.588 127.617 133.428 128.434 131.192 128.434C124.285 128.434 117.66 125.686 112.776 120.795C107.892 115.903 105.148 109.27 105.148 102.352C105.149 100.113 105.964 97.9499 107.442 96.2689C108.919 94.5879 110.958 93.504 113.177 93.2201C113.505 93.1802 113.838 93.2484 114.124 93.4144C114.411 93.5804 114.636 93.8351 114.765 94.1402L118.613 103.13C118.712 103.363 118.753 103.616 118.731 103.868C118.709 104.12 118.625 104.363 118.486 104.575L115.3 109.45C115.155 109.669 115.07 109.922 115.052 110.185C115.034 110.447 115.084 110.71 115.197 110.947Z" fill="#F88C28"/>
<path d="M39.5506 77.8052C39.5506 109.326 37.3221 109.326 49.2996 109.326H87.181" stroke="#F88C28" stroke-linecap="round" stroke-dasharray="3 3"/>
<path d="M82.1172 103.468L87.9159 109.275L82.1172 115.082" stroke="#F88C28" stroke-linecap="round" stroke-linejoin="round"/>
<path d="M204.172 137.5C204.172 109.326 206.958 109.326 194.98 109.326H157.656" stroke="#F88C28" stroke-linecap="round" stroke-dasharray="3 3"/>
<path d="M209.473 133.599L204.176 138.903L198.88 133.599" stroke="#F88C28" stroke-linecap="round" stroke-linejoin="round"/>
<path d="M77.4913 44.0527C77.4913 65.3455 60.2555 82.6055 38.9957 82.6055C17.7358 82.6055 0.5 65.3455 0.5 44.0527C0.5 22.76 17.7358 5.5 38.9957 5.5C60.2555 5.5 77.4913 22.76 77.4913 44.0527Z" fill="white" stroke="#344351"/>
<path d="M26.2602 36.3645C26.6129 36.1607 26.8367 35.7736 26.8367 35.3253C26.8367 34.6394 26.2941 34.0688 25.4735 34.0688H23.5882V38.9589H25.6295C26.4908 38.9589 27.074 38.436 27.074 37.587C27.074 37.0165 26.7689 36.5818 26.2602 36.3645ZM24.09 34.5443H25.4667C25.9618 34.5443 26.3213 34.8567 26.3213 35.3185C26.3213 35.8143 25.9415 36.1539 25.4667 36.1539H24.09V34.5443ZM25.5074 38.4767H24.09V36.6293H25.5956C26.1449 36.6293 26.5518 37.0504 26.5518 37.5938C26.5518 38.1507 26.1042 38.4767 25.5074 38.4767Z" fill="#344351"/>
<path d="M27.3404 38.9589H27.944L29.063 37.4851L30.1753 38.9589H30.7788L29.3479 37.1048L30.7449 35.2914H30.1481L29.063 36.7244L27.9711 35.2914H27.3743L28.7714 37.1048L27.3404 38.9589Z" fill="#344351"/>
<path d="M32.724 39.0608C33.8091 39.0608 34.4601 38.273 34.4601 37.1184C34.4601 35.9841 33.8158 35.1895 32.724 35.1895C31.6524 35.1895 30.9878 35.9705 30.9878 37.1184C30.9878 38.2594 31.6321 39.0608 32.724 39.0608ZM32.724 38.5854C31.9305 38.5854 31.5168 38.0081 31.5168 37.1184C31.5168 36.2626 31.9034 35.6649 32.724 35.6649C33.5242 35.6649 33.9311 36.2354 33.9311 37.1184C33.9311 37.9877 33.531 38.5854 32.724 38.5854Z" fill="#344351"/>
<path d="M34.9335 39.7739H35.415V38.9589H38.1074V39.7739H38.5821V38.531H38.2362V35.2914H35.8151C35.7608 36.446 35.7134 37.1048 35.6049 37.6821C35.4896 38.2798 35.3472 38.531 34.9335 38.531V39.7739ZM35.7812 38.531C35.9372 38.3816 35.9982 38.1507 36.066 37.8315C36.1813 37.3221 36.2356 36.412 36.2763 35.7193H37.7344V38.531H35.7812Z" fill="#344351"/>
<path d="M41.8535 38.9589L41.8468 35.2914H40.4497C40.2802 35.2914 40.0428 35.2914 39.8258 35.3457C39.351 35.4612 38.9713 35.8347 38.9713 36.446C38.9713 37.0504 39.3375 37.39 39.8122 37.5055L38.8492 38.9589H39.3985L40.3208 37.5734C40.3751 37.5802 40.4361 37.5802 40.4904 37.5802H41.3517V38.9589H41.8535ZM40.4701 37.1523C40.348 37.1523 40.1716 37.1455 40.0089 37.1048C39.7105 37.0301 39.4867 36.8059 39.4867 36.4392C39.4867 36.052 39.7376 35.8415 39.9682 35.7736C40.1377 35.7193 40.3548 35.7193 40.4701 35.7193H41.3517V37.1523H40.4701Z" fill="#344351"/>
<path d="M46.9788 39.5906H47.4739V38.4971H46.9924V35.2914H46.5109V38.4971H45.1409V35.2914H44.6594V38.4971H43.2827V35.2914H42.8012V38.9589H46.9788V39.5906Z" fill="#344351"/>
<path d="M50.9228 35.2914H50.5024L48.4949 38.1235V35.2914H48.0134V38.9589H48.4339L50.4413 36.0996V38.9589H50.9228V35.2914Z" fill="#344351"/>
<path d="M52.2069 37.2678H55.0892C55.1231 35.9705 54.4924 35.1895 53.4073 35.1895C52.3493 35.1895 51.6711 35.9366 51.6711 37.1387C51.6711 38.3069 52.3561 39.0608 53.4208 39.0608C54.1329 39.0608 54.7297 38.6941 55.0214 38.0556L54.5534 37.879C54.3296 38.3341 53.9295 38.5854 53.4073 38.5854C52.6748 38.5854 52.2476 38.1032 52.2069 37.2678ZM53.4208 35.6445C54.099 35.6445 54.4856 36.0588 54.567 36.8467H52.2137C52.2951 36.0792 52.7088 35.6445 53.4208 35.6445Z" fill="#344351"/>
<path d="M9.73438 53.9979H13.0478C13.2106 53.9979 13.4431 53.9862 13.664 53.9513C14.9893 53.7883 15.7334 52.7055 15.7334 51.4131C15.7334 50.1091 14.9893 49.0379 13.664 48.8633C13.4431 48.84 13.1989 48.8284 13.0478 48.8284H10.7691V46.5929H15.0475V45.6149H9.73438V53.9979ZM10.7691 53.0082V49.8064H13.0129C13.1524 49.8064 13.3617 49.818 13.5361 49.8529C14.3383 50.0159 14.6754 50.7145 14.6754 51.4131C14.6754 52.1117 14.3383 52.7986 13.5361 52.9616C13.3617 52.9966 13.1524 53.0082 13.0129 53.0082H10.7691Z" fill="#344351"/>
<path d="M17.6658 51.1453H22.4673C22.572 48.9099 21.4675 47.536 19.5725 47.536C17.7472 47.536 16.5497 48.8284 16.5497 50.8892C16.5497 52.8569 17.7704 54.1725 19.619 54.1725C20.8397 54.1725 21.8744 53.5321 22.3743 52.4261L21.3745 52.0768C21.0257 52.7986 20.3979 53.1829 19.5725 53.1829C18.4215 53.1829 17.7472 52.4493 17.6658 51.1453ZM19.6073 48.4674C20.6769 48.4674 21.2699 49.0729 21.4094 50.307H17.689C17.8285 49.1194 18.4912 48.4674 19.6073 48.4674Z" fill="#344351"/>
<path d="M26.4181 54.1725C27.7086 54.1725 28.6619 53.5321 29.1037 52.3562L28.0574 52.0884C27.7667 52.7986 27.2319 53.1829 26.4181 53.1829C25.1625 53.1829 24.5347 52.2514 24.5231 50.8542C24.5347 49.492 25.1276 48.514 26.4181 48.514C27.1738 48.514 27.8132 48.9448 28.0806 49.6667L29.1037 49.3639C28.7666 48.2346 27.7435 47.536 26.4297 47.536C24.5347 47.536 23.4418 48.8866 23.4186 50.8542C23.4418 52.7754 24.4998 54.1725 26.4181 54.1725Z" fill="#344351"/>
<path d="M30.2843 53.9979H31.319V48.6886H34.3883V53.9979H35.423V47.7106H30.2843V53.9979Z" fill="#344351"/>
<path d="M36.4697 53.9979C37.7369 54.2657 38.1322 53.8116 38.3531 52.6706C38.5275 51.7857 38.6787 50.1324 38.7833 48.6886H41.2015V53.9979H42.2362V47.7106H37.8416C37.7369 49.5735 37.6207 51.0755 37.423 52.1816C37.3068 52.8801 37.1673 53.2294 36.4697 53.1014V53.9979Z" fill="#344351"/>
<path d="M48.6879 48.7585C48.3275 47.9435 47.4788 47.536 46.3395 47.536C44.9211 47.536 44.0492 48.1996 43.7469 49.3057L44.7351 49.5968C44.956 48.8284 45.5722 48.5023 46.3279 48.5023C47.4207 48.5023 47.8509 48.9797 47.8741 49.981C46.944 50.1091 45.8512 50.2372 45.0606 50.4467C44.1073 50.7262 43.5144 51.3083 43.5144 52.298C43.5144 53.3109 44.2468 54.1725 45.6535 54.1725C46.6999 54.1725 47.4788 53.7767 47.9788 53.0082V53.9979H48.8972V50.1091C48.8972 49.6084 48.8623 49.1544 48.6879 48.7585ZM45.8047 53.2993C44.9095 53.2993 44.5491 52.8103 44.5491 52.2863C44.5491 51.7042 45.0025 51.4131 45.5257 51.2501C46.1302 51.0755 46.9789 50.9823 47.8625 50.8542C47.8625 51.1453 47.8509 51.5528 47.7579 51.8556C47.6067 52.6356 46.9208 53.2993 45.8047 53.2993Z" fill="#344351"/>
<path d="M52.0767 53.9979H53.1114V48.6537H55.2971V47.7106H49.891V48.6537H52.0767V53.9979Z" fill="#344351"/>
<path d="M56.3975 53.9979H57.4322V51.3433H60.734V53.9979H61.7687V47.7106H60.734V50.3536H57.4322V47.7106H56.3975V53.9979Z" fill="#344351"/>
<path d="M66.0652 54.1725C67.937 54.1725 69.0996 52.8219 69.0996 50.8426C69.0996 48.8982 67.9486 47.536 66.0652 47.536C64.2283 47.536 63.0425 48.8749 63.0425 50.8426C63.0425 52.7986 64.1934 54.1725 66.0652 54.1725ZM66.0652 53.1829C64.798 53.1829 64.1469 52.2631 64.1469 50.8426C64.1469 49.4687 64.7515 48.514 66.0652 48.514C67.3557 48.514 67.9952 49.4338 67.9952 50.8426C67.9952 52.2281 67.3673 53.1829 66.0652 53.1829Z" fill="#344351"/>
<path d="M243.499 177.947C243.499 199.24 226.263 216.5 205.003 216.5C183.744 216.5 166.508 199.24 166.508 177.947C166.508 156.654 183.744 139.395 205.003 139.395C226.263 139.395 243.499 156.654 243.499 177.947Z" fill="white" stroke="#344351"/>
<path d="M181.408 172.853V167.963H180.906L178.221 171.97V167.963H177.719V172.853H178.221L180.906 168.839V172.853H181.408Z" fill="#344351"/>
<path d="M183.881 172.955C184.606 172.955 185.142 172.608 185.413 171.95L184.918 171.807C184.728 172.242 184.376 172.479 183.881 172.479C183.094 172.479 182.694 171.895 182.687 171.019C182.694 170.163 183.073 169.559 183.881 169.559C184.362 169.559 184.755 169.817 184.925 170.259L185.413 170.096C185.21 169.471 184.627 169.084 183.887 169.084C182.789 169.084 182.171 169.865 182.158 171.019C182.171 172.153 182.775 172.955 183.881 172.955Z" fill="#344351"/>
<path d="M185.71 172.853H186.313L187.432 171.379L188.544 172.853H189.148L187.717 170.999L189.114 169.185H188.517L187.432 170.618L186.34 169.185H185.744L187.141 170.999L185.71 172.853Z" fill="#344351"/>
<path d="M191.093 172.955C192.178 172.955 192.829 172.167 192.829 171.012C192.829 169.878 192.185 169.084 191.093 169.084C190.022 169.084 189.357 169.865 189.357 171.012C189.357 172.153 190.001 172.955 191.093 172.955ZM191.093 172.479C190.3 172.479 189.886 171.902 189.886 171.012C189.886 170.157 190.273 169.559 191.093 169.559C191.893 169.559 192.3 170.129 192.3 171.012C192.3 171.882 191.9 172.479 191.093 172.479Z" fill="#344351"/>
<path d="M193.303 173.668H193.784V172.853H196.477V173.668H196.951V172.425H196.605V169.185H194.184C194.13 170.34 194.083 170.999 193.974 171.576C193.859 172.174 193.716 172.425 193.303 172.425V173.668ZM194.15 172.425C194.306 172.276 194.367 172.045 194.435 171.726C194.551 171.216 194.605 170.306 194.645 169.613H196.104V172.425H194.15Z" fill="#344351"/>
<path d="M200.223 172.853L200.216 169.185H198.819C198.649 169.185 198.412 169.185 198.195 169.24C197.72 169.355 197.34 169.729 197.34 170.34C197.34 170.944 197.707 171.284 198.181 171.4L197.218 172.853H197.768L198.69 171.467C198.744 171.474 198.805 171.474 198.86 171.474H199.721V172.853H200.223ZM198.839 171.046C198.717 171.046 198.541 171.04 198.378 170.999C198.08 170.924 197.856 170.7 197.856 170.333C197.856 169.946 198.107 169.736 198.337 169.668C198.507 169.613 198.724 169.613 198.839 169.613H199.721V171.046H198.839Z" fill="#344351"/>
<path d="M205.348 173.485H205.843V172.391H205.362V169.185H204.88V172.391H203.51V169.185H203.029V172.391H201.652V169.185H201.17V172.853H205.348V173.485Z" fill="#344351"/>
<path d="M209.292 169.185H208.872L206.864 172.018V169.185H206.383V172.853H206.803L208.81 169.994V172.853H209.292V169.185Z" fill="#344351"/>
<path d="M210.576 171.162H213.458C213.492 169.865 212.862 169.084 211.776 169.084C210.718 169.084 210.04 169.831 210.04 171.033C210.04 172.201 210.725 172.955 211.79 172.955C212.502 172.955 213.099 172.588 213.39 171.95L212.923 171.773C212.699 172.228 212.299 172.479 211.776 172.479C211.044 172.479 210.617 171.997 210.576 171.162ZM211.79 169.539C212.468 169.539 212.855 169.953 212.936 170.741H210.583C210.664 169.973 211.078 169.539 211.79 169.539Z" fill="#344351"/>
<path d="M215.569 172.853H216.064V169.661H217.983V172.853H218.478V169.185H215.569V172.853Z" fill="#344351"/>
<path d="M220.962 172.955C222.047 172.955 222.698 172.167 222.698 171.012C222.698 169.878 222.054 169.084 220.962 169.084C219.891 169.084 219.226 169.865 219.226 171.012C219.226 172.153 219.87 172.955 220.962 172.955ZM220.962 172.479C220.169 172.479 219.755 171.902 219.755 171.012C219.755 170.157 220.142 169.559 220.962 169.559C221.763 169.559 222.17 170.129 222.17 171.012C222.17 171.882 221.769 172.479 220.962 172.479Z" fill="#344351"/>
<path d="M224.801 172.853H225.296V170.999H226.686C226.781 170.999 226.903 170.992 227.032 170.972C227.792 170.849 228.219 170.245 228.219 169.477C228.219 168.717 227.792 168.106 227.032 167.99C226.903 167.97 226.781 167.963 226.686 167.963H224.801V172.853ZM225.296 170.517V168.438H226.673C226.754 168.438 226.869 168.445 226.978 168.472C227.473 168.574 227.703 169.022 227.703 169.477C227.703 169.933 227.473 170.381 226.978 170.489C226.869 170.51 226.754 170.517 226.673 170.517H225.296Z" fill="#344351"/>
<path d="M230.582 172.853H231.077V172.201C232.081 172.371 233.037 171.664 233.037 170.259C233.037 168.853 232.081 168.133 231.077 168.302V167.963H230.582V168.302C229.579 168.133 228.622 168.853 228.622 170.259C228.622 171.664 229.579 172.371 230.582 172.201V172.853ZM230.582 171.726C229.714 171.848 229.138 171.209 229.138 170.259C229.138 169.308 229.714 168.649 230.582 168.771V171.726ZM231.077 171.726V168.771C231.939 168.649 232.522 169.328 232.522 170.265C232.522 171.209 231.939 171.848 231.077 171.726Z" fill="#344351"/>
<path d="M182.134 187.892H183.181V179.509H182.134L180.553 180.452V181.605L182.134 180.65V187.892Z" fill="#344351"/>
<path d="M185.113 187.892H186.253V186.751H185.113V187.892Z" fill="#344351"/>
<path d="M191.676 187.892H192.723V186.343H193.595V185.365H192.723V183.002H191.676V185.365H189.002L191.769 179.509H190.595L187.828 185.365V186.343H191.676V187.892Z" fill="#344351"/>
<path d="M201.325 184.713C201.429 184.713 201.674 184.713 201.941 184.667C203.301 184.457 204.01 183.479 204.01 182.14C204.01 180.813 203.29 179.765 201.941 179.555C201.674 179.509 201.429 179.509 201.325 179.509H198.186V183.805H197.314V184.713H198.186V185.703H197.314V186.565H198.186V187.892H199.221V186.565H201.964V185.703H199.221V184.713H201.325ZM199.221 180.487H201.29C201.395 180.487 201.615 180.499 201.813 180.545C202.615 180.72 202.952 181.453 202.952 182.163C202.952 182.92 202.58 183.561 201.813 183.747C201.604 183.794 201.418 183.805 201.29 183.805H199.221V180.487Z" fill="#344351"/>
<path d="M207.298 179.509L205.066 187.892H206.112L208.344 179.509H207.298Z" fill="#344351"/>
<path d="M209.508 187.892H210.507V183.759L212.507 187.892H213.053L215.053 183.759V187.892H216.053V181.605H215.158L212.774 186.483L210.391 181.605H209.508V187.892Z" fill="#344351"/>
<path d="M222.821 181.605H221.972L218.682 186.169V181.605H217.682V187.892H218.531L221.821 183.258V187.892H222.821V181.605Z" fill="#344351"/>
<path d="M224.449 187.892H225.483V185.237H228.785V187.892H229.82V181.605H228.785V184.248H225.483V181.605H224.449V187.892Z" fill="#344351"/>
</svg>
