<svg xmlns="http://www.w3.org/2000/svg" width="8" height="18" viewBox="0 0 8 18" fill="none">
<path d="M4.35355 0.646447C4.15829 0.451184 3.84171 0.451184 3.64645 0.646447L0.464466 3.82843C0.269204 4.02369 0.269204 4.34027 0.464466 4.53553C0.659728 4.7308 0.976311 4.7308 1.17157 4.53553L4 1.70711L6.82843 4.53553C7.02369 4.7308 7.34027 4.7308 7.53553 4.53553C7.7308 4.34027 7.7308 4.02369 7.53553 3.82843L4.35355 0.646447ZM3.64645 17.3536C3.84171 17.5488 4.15829 17.5488 4.35355 17.3536L7.53553 14.1716C7.7308 13.9763 7.7308 13.6597 7.53553 13.4645C7.34027 13.2692 7.02369 13.2692 6.82843 13.4645L4 16.2929L1.17157 13.4645C0.976311 13.2692 0.659729 13.2692 0.464467 13.4645C0.269205 13.6597 0.269205 13.9763 0.464467 14.1716L3.64645 17.3536ZM3.5 1L3.5 2.33333L4.5 2.33333L4.5 1L3.5 1ZM3.5 5L3.5 7.66667L4.5 7.66667L4.5 5L3.5 5ZM3.5 10.3333L3.5 13L4.5 13L4.5 10.3333L3.5 10.3333ZM3.5 15.6667L3.5 17L4.5 17L4.5 15.6667L3.5 15.6667Z" fill="#F88C28"/>
</svg>