<svg xmlns="http://www.w3.org/2000/svg" width="24" height="8" viewBox="0 0 24 8" fill="none">
<path d="M0.646447 3.64645C0.451184 3.84171 0.451184 4.15829 0.646447 4.35355L3.82843 7.53553C4.02369 7.7308 4.34027 7.7308 4.53553 7.53553C4.7308 7.34027 4.7308 7.02369 4.53553 6.82843L1.70711 4L4.53553 1.17157C4.7308 0.976311 4.7308 0.659729 4.53553 0.464466C4.34027 0.269204 4.02369 0.269204 3.82843 0.464466L0.646447 3.64645ZM23.3536 4.35356C23.5488 4.15829 23.5488 3.84171 23.3536 3.64645L20.1716 0.464468C19.9763 0.269206 19.6597 0.269205 19.4645 0.464468C19.2692 0.65973 19.2692 0.976312 19.4645 1.17157L22.2929 4L19.4645 6.82843C19.2692 7.02369 19.2692 7.34027 19.4645 7.53554C19.6597 7.7308 19.9763 7.7308 20.1716 7.53554L23.3536 4.35356ZM1 4.5L2.375 4.5L2.375 3.5L1 3.5L1 4.5ZM5.125 4.5L7.875 4.5L7.875 3.5L5.125 3.5L5.125 4.5ZM10.625 4.5L13.375 4.5L13.375 3.5L10.625 3.5L10.625 4.5ZM16.125 4.5L18.875 4.5L18.875 3.5L16.125 3.5L16.125 4.5ZM21.625 4.5L23 4.5L23 3.5L21.625 3.5L21.625 4.5Z" fill="#F88C28"/>
</svg>