<svg width="299" height="262" viewBox="0 0 299 262" fill="none" xmlns="http://www.w3.org/2000/svg">
<rect x="126.875" y="262" width="189.192" height="189.192" rx="94.596" transform="rotate(-123.302 126.875 262)" stroke="url(#paint0_linear_2126_21031)" stroke-linecap="round" stroke-dasharray="5 5"/>
<path d="M254.481 103.799C269.351 159.093 236.418 215.929 180.924 230.746C125.43 245.562 68.3884 212.747 53.5188 157.453C38.6491 102.158 71.5819 45.3222 127.076 30.5061C182.57 15.6899 239.612 48.5042 254.481 103.799Z" stroke="url(#paint1_linear_2126_21031)" stroke-linecap="round" stroke-dasharray="5 5"/>
<rect x="68.6625" y="45.6628" width="171.423" height="171.423" rx="85.7116" fill="#F6F7F8"/>
<g filter="url(#filter0_d_2126_21031)">
<rect x="187.436" y="79.1" width="82.8401" height="108.292" rx="4.5" fill="white" stroke="#344351"/>
<path d="M246.322 111.628C246.322 121.302 238.501 129.143 228.857 129.143C219.212 129.143 211.391 121.302 211.391 111.628C211.391 101.953 219.212 94.1124 228.857 94.1124C238.501 94.1124 246.322 101.953 246.322 111.628Z" fill="white" stroke="#F88C28"/>
<ellipse cx="228.857" cy="107.124" rx="4.19201" ry="4.50377" fill="#F88C28"/>
<path d="M235.321 120.035H222.392C221.729 120.035 221.255 119.402 221.511 118.79C222.563 116.276 224.957 112.828 228.857 112.828C232.756 112.828 235.15 116.276 236.202 118.79C236.458 119.402 235.984 120.035 235.321 120.035Z" fill="#F88C28"/>
<rect x="197.116" y="141.052" width="63.479" height="3.00252" rx="1.50126" fill="#EFEFEF"/>
<rect x="197.116" y="148.258" width="56.2927" height="3.00252" rx="1.50126" fill="#EFEFEF"/>
<path d="M197.619 170.477V165.289H198.496L200.896 168.946V165.289H201.773V170.477H200.896L198.496 166.82V170.477H197.619ZM203.594 167.775C203.357 167.775 203.14 167.717 202.944 167.602C202.748 167.484 202.591 167.328 202.473 167.134C202.358 166.937 202.301 166.718 202.301 166.478C202.301 166.242 202.361 166.026 202.48 165.829C202.6 165.632 202.758 165.475 202.955 165.357C203.151 165.24 203.364 165.181 203.594 165.181C203.831 165.181 204.047 165.24 204.241 165.357C204.437 165.473 204.594 165.629 204.712 165.826C204.829 166.02 204.888 166.238 204.888 166.478C204.888 166.718 204.829 166.937 204.712 167.134C204.594 167.328 204.437 167.484 204.241 167.602C204.047 167.717 203.831 167.775 203.594 167.775ZM203.594 167.033C203.695 167.033 203.787 167.007 203.871 166.957C203.955 166.907 204.022 166.839 204.072 166.755C204.122 166.671 204.148 166.579 204.148 166.478C204.148 166.377 204.122 166.284 204.072 166.2C204.022 166.116 203.955 166.049 203.871 165.999C203.787 165.948 203.695 165.923 203.594 165.923C203.494 165.923 203.401 165.948 203.318 165.999C203.234 166.049 203.167 166.116 203.116 166.2C203.066 166.284 203.041 166.377 203.041 166.478C203.041 166.579 203.066 166.671 203.116 166.755C203.167 166.839 203.234 166.907 203.318 166.957C203.401 167.007 203.494 167.033 203.594 167.033ZM202.516 168.773V168.092H204.672V168.773H202.516Z" fill="#5E6B77"/>
<path d="M206.651 170.477V166.236L205.681 166.831V165.872L206.651 165.289H207.535V170.477H206.651Z" fill="#5E6B77"/>
<path d="M210.765 170.585C210.398 170.585 210.075 170.507 209.795 170.351C209.514 170.192 209.295 169.973 209.137 169.692C208.981 169.411 208.904 169.086 208.904 168.719V167.047C208.904 166.68 208.981 166.355 209.137 166.074C209.295 165.793 209.514 165.575 209.795 165.418C210.075 165.26 210.398 165.181 210.765 165.181C211.131 165.181 211.454 165.26 211.731 165.418C212.012 165.575 212.231 165.793 212.389 166.074C212.547 166.355 212.626 166.68 212.626 167.047V168.719C212.626 169.086 212.547 169.411 212.389 169.692C212.231 169.973 212.012 170.192 211.731 170.351C211.454 170.507 211.131 170.585 210.765 170.585ZM210.765 169.76C210.947 169.76 211.112 169.717 211.261 169.63C211.409 169.542 211.527 169.424 211.613 169.277C211.699 169.128 211.742 168.963 211.742 168.78V166.982C211.742 166.797 211.699 166.631 211.613 166.485C211.527 166.336 211.409 166.218 211.261 166.132C211.112 166.043 210.947 165.999 210.765 165.999C210.583 165.999 210.418 166.043 210.269 166.132C210.121 166.218 210.003 166.336 209.917 166.485C209.831 166.631 209.788 166.797 209.788 166.982V168.78C209.788 168.963 209.831 169.128 209.917 169.277C210.003 169.424 210.121 169.542 210.269 169.63C210.418 169.717 210.583 169.76 210.765 169.76Z" fill="#5E6B77"/>
<path d="M213.49 170.47V169.713L215.703 167.735C215.876 167.581 215.996 167.436 216.063 167.299C216.13 167.162 216.163 167.03 216.163 166.903C216.163 166.73 216.126 166.576 216.052 166.442C215.978 166.305 215.875 166.197 215.743 166.117C215.613 166.038 215.464 165.999 215.294 165.999C215.114 165.999 214.955 166.041 214.816 166.125C214.679 166.206 214.573 166.316 214.496 166.453C214.419 166.589 214.383 166.737 214.388 166.896H213.497C213.497 166.55 213.574 166.248 213.727 165.991C213.883 165.734 214.096 165.535 214.367 165.393C214.64 165.252 214.955 165.181 215.312 165.181C215.642 165.181 215.939 165.255 216.203 165.404C216.466 165.551 216.673 165.755 216.824 166.017C216.975 166.276 217.051 166.575 217.051 166.914C217.051 167.161 217.017 167.369 216.95 167.537C216.883 167.705 216.782 167.86 216.648 168.002C216.517 168.144 216.352 168.301 216.156 168.474L214.586 169.868L214.507 169.652H217.051V170.47H213.49Z" fill="#5E6B77"/>
<path d="M217.843 171.396L217.893 171.021C218.003 171.031 218.091 171.012 218.155 170.964C218.22 170.918 218.263 170.852 218.285 170.765C218.309 170.681 218.315 170.585 218.303 170.477H217.843V169.551H218.73V170.513C218.73 170.828 218.656 171.066 218.507 171.227C218.359 171.387 218.137 171.444 217.843 171.396Z" fill="#5E6B77"/>
<path d="M221.529 170.477V166.586H222.24L223.631 169.274L225.025 166.586H225.733V170.477H224.906V168.333L223.803 170.477H223.462L222.359 168.333V170.477H221.529Z" fill="#5E6B77"/>
<path d="M228.45 170.585C228.062 170.585 227.723 170.498 227.433 170.322C227.143 170.147 226.918 169.905 226.758 169.598C226.599 169.288 226.52 168.933 226.52 168.531C226.52 168.123 226.602 167.765 226.765 167.458C226.928 167.15 227.154 166.91 227.444 166.737C227.734 166.564 228.069 166.478 228.45 166.478C228.84 166.478 229.181 166.565 229.47 166.741C229.76 166.916 229.985 167.159 230.146 167.469C230.306 167.776 230.387 168.13 230.387 168.531C230.387 168.935 230.305 169.292 230.142 169.602C229.982 169.909 229.757 170.15 229.467 170.326C229.177 170.499 228.838 170.585 228.45 170.585ZM228.45 169.771C228.795 169.771 229.051 169.656 229.219 169.425C229.387 169.194 229.47 168.897 229.47 168.531C229.47 168.154 229.385 167.854 229.215 167.631C229.045 167.405 228.79 167.292 228.45 167.292C228.218 167.292 228.026 167.345 227.875 167.451C227.727 167.554 227.616 167.699 227.544 167.887C227.473 168.071 227.437 168.286 227.437 168.531C227.437 168.909 227.522 169.21 227.692 169.436C227.864 169.659 228.117 169.771 228.45 169.771Z" fill="#5E6B77"/>
<path d="M232.792 170.592C232.423 170.588 232.109 170.505 231.85 170.344C231.592 170.183 231.389 169.956 231.243 169.663C231.097 169.37 231.008 169.024 230.977 168.625C230.963 168.421 230.962 168.193 230.974 167.941C230.986 167.688 231.012 167.442 231.053 167.202C231.093 166.962 231.15 166.758 231.221 166.589C231.296 166.421 231.393 166.266 231.513 166.125C231.632 165.981 231.762 165.86 231.901 165.764C232.059 165.654 232.23 165.569 232.414 165.509C232.601 165.448 232.796 165.403 233 165.372C233.204 165.338 233.413 165.308 233.629 165.282C233.844 165.255 234.058 165.222 234.268 165.181L234.347 165.948C234.213 165.982 234.058 166.008 233.88 166.027C233.706 166.044 233.523 166.063 233.334 166.085C233.147 166.107 232.969 166.138 232.799 166.179C232.629 166.22 232.481 166.28 232.357 166.359C232.184 166.465 232.053 166.616 231.962 166.813C231.871 167.01 231.817 167.218 231.8 167.436C231.948 167.215 232.133 167.06 232.353 166.971C232.576 166.88 232.801 166.834 233.029 166.834C233.374 166.834 233.67 166.916 233.916 167.079C234.165 167.243 234.356 167.465 234.488 167.746C234.622 168.025 234.689 168.336 234.689 168.679C234.689 169.064 234.609 169.4 234.448 169.688C234.288 169.976 234.065 170.2 233.78 170.358C233.495 170.517 233.165 170.595 232.792 170.592ZM232.835 169.778C233.146 169.778 233.381 169.682 233.539 169.49C233.7 169.295 233.78 169.037 233.78 168.715C233.78 168.386 233.697 168.127 233.532 167.937C233.369 167.747 233.137 167.652 232.835 167.652C232.528 167.652 232.295 167.747 232.134 167.937C231.974 168.127 231.893 168.386 231.893 168.715C231.893 169.052 231.975 169.313 232.138 169.501C232.301 169.686 232.533 169.778 232.835 169.778Z" fill="#5E6B77"/>
<path d="M238.843 166.586V170.477H238.013V167.937L236.167 170.477H235.473V166.586H236.303V169.061L238.157 166.586H238.843Z" fill="#5E6B77"/>
<path d="M239.493 170.477V169.749C239.634 169.776 239.743 169.773 239.82 169.742C239.897 169.708 239.954 169.646 239.993 169.555C240.031 169.463 240.064 169.342 240.093 169.191C240.131 168.977 240.165 168.731 240.194 168.452C240.225 168.174 240.251 167.876 240.273 167.559C240.297 167.242 240.318 166.917 240.338 166.586H243.194V170.477H242.332V167.4H241.099C241.087 167.556 241.073 167.732 241.056 167.926C241.039 168.118 241.021 168.313 241.002 168.51C240.983 168.707 240.962 168.894 240.938 169.072C240.916 169.247 240.893 169.397 240.869 169.522C240.814 169.803 240.735 170.026 240.632 170.189C240.532 170.352 240.39 170.457 240.208 170.502C240.026 170.55 239.788 170.542 239.493 170.477Z" fill="#5E6B77"/>
<path d="M244.2 170.477L244.196 166.586H245.062V167.883H245.759C245.867 167.883 245.988 167.885 246.122 167.89C246.259 167.895 246.373 167.906 246.464 167.923C246.682 167.971 246.867 168.047 247.021 168.153C247.176 168.259 247.295 168.397 247.376 168.568C247.458 168.738 247.498 168.943 247.498 169.184C247.498 169.527 247.41 169.802 247.233 170.009C247.058 170.213 246.811 170.352 246.492 170.427C246.397 170.448 246.279 170.463 246.14 170.47C246.004 170.475 245.88 170.477 245.77 170.477H244.2ZM245.062 169.796H245.846C245.898 169.796 245.957 169.794 246.022 169.789C246.086 169.784 246.149 169.773 246.208 169.757C246.316 169.728 246.411 169.663 246.492 169.562C246.576 169.459 246.618 169.333 246.618 169.184C246.618 169.027 246.576 168.899 246.492 168.798C246.409 168.697 246.306 168.631 246.183 168.6C246.128 168.586 246.071 168.576 246.011 168.571C245.951 168.566 245.896 168.564 245.846 168.564H245.062V169.796Z" fill="#5E6B77"/>
<path d="M248.175 170.477V166.586H249.041V168.121H250.784V166.586H251.65V170.477H250.784V168.935H249.041V170.477H248.175Z" fill="#5E6B77"/>
<path d="M252.649 170.477L252.646 166.586H253.512V167.883H253.947C254.054 167.883 254.175 167.885 254.309 167.89C254.446 167.895 254.56 167.906 254.651 167.923C254.869 167.971 255.054 168.047 255.208 168.153C255.363 168.259 255.482 168.397 255.563 168.568C255.645 168.738 255.686 168.943 255.686 169.184C255.686 169.527 255.597 169.802 255.42 170.009C255.242 170.213 254.995 170.352 254.676 170.427C254.583 170.448 254.466 170.463 254.327 170.47C254.188 170.475 254.065 170.477 253.957 170.477H252.649ZM253.512 169.796H254.033C254.085 169.796 254.144 169.794 254.209 169.789C254.274 169.784 254.335 169.773 254.392 169.757C254.5 169.728 254.596 169.663 254.68 169.562C254.763 169.459 254.805 169.333 254.805 169.184C254.805 169.027 254.763 168.899 254.68 168.798C254.596 168.697 254.493 168.631 254.371 168.6C254.313 168.586 254.254 168.576 254.194 168.571C254.137 168.566 254.083 168.564 254.033 168.564H253.512V169.796ZM256.092 170.477V166.586H256.958V170.477H256.092Z" fill="#5E6B77"/>
<path d="M259.759 166.146C259.56 166.146 259.378 166.097 259.212 165.999C259.047 165.9 258.915 165.769 258.817 165.606C258.719 165.44 258.67 165.256 258.67 165.055H259.345C259.345 165.17 259.385 165.268 259.464 165.35C259.545 165.429 259.644 165.469 259.759 165.469C259.874 165.469 259.971 165.429 260.05 165.35C260.131 165.268 260.172 165.17 260.172 165.055H260.847C260.847 165.256 260.798 165.44 260.7 165.606C260.602 165.769 260.47 165.9 260.305 165.999C260.139 166.097 259.957 166.146 259.759 166.146ZM261.329 166.586V170.477H260.499V167.937L258.652 170.477H257.958V166.586H258.788V169.061L260.642 166.586H261.329Z" fill="#5E6B77"/>
</g>
<g filter="url(#filter1_d_2126_21031)">
<rect x="28.7402" y="79.1" width="82.8401" height="108.292" rx="4.5" fill="white" stroke="#344351"/>
<path d="M87.6264 111.628C87.6264 121.302 79.8055 129.143 70.1607 129.143C60.5159 129.143 52.6949 121.302 52.6949 111.628C52.6949 101.953 60.5159 94.1124 70.1607 94.1124C79.8055 94.1124 87.6264 101.953 87.6264 111.628Z" fill="white" stroke="#F88C28"/>
<ellipse cx="70.1606" cy="107.124" rx="4.19201" ry="4.50377" fill="#F88C28"/>
<path d="M76.625 120.035H63.6963C63.0334 120.035 62.5591 119.402 62.815 118.79C63.8672 116.276 66.2609 112.828 70.1606 112.828C74.0604 112.828 76.4541 116.276 77.5063 118.79C77.7622 119.402 77.2879 120.035 76.625 120.035Z" fill="#F88C28"/>
<rect x="38.4203" y="141.052" width="63.479" height="3.00252" rx="1.50126" fill="#EFEFEF"/>
<rect x="38.4203" y="148.258" width="56.2927" height="3.00252" rx="1.50126" fill="#EFEFEF"/>
<path d="M38.923 170.477V165.289H39.7997L42.1999 168.946V165.289H43.0767V170.477H42.1999L39.7997 166.82V170.477H38.923ZM44.8984 167.775C44.6612 167.775 44.4444 167.717 44.248 167.602C44.0516 167.484 43.8947 167.328 43.7773 167.133C43.6623 166.936 43.6048 166.718 43.6048 166.478C43.6048 166.242 43.6647 166.026 43.7845 165.829C43.9043 165.632 44.0624 165.475 44.2588 165.357C44.4552 165.239 44.6684 165.181 44.8984 165.181C45.1355 165.181 45.3511 165.239 45.5451 165.357C45.7416 165.472 45.8985 165.629 46.0158 165.825C46.1332 166.02 46.1919 166.237 46.1919 166.478C46.1919 166.718 46.1332 166.936 46.0158 167.133C45.8985 167.328 45.7416 167.484 45.5451 167.602C45.3511 167.717 45.1355 167.775 44.8984 167.775ZM44.8984 167.032C44.999 167.032 45.0912 167.007 45.1751 166.957C45.2589 166.906 45.326 166.839 45.3763 166.755C45.4266 166.671 45.4517 166.579 45.4517 166.478C45.4517 166.377 45.4266 166.284 45.3763 166.2C45.326 166.116 45.2589 166.049 45.1751 165.998C45.0912 165.948 44.999 165.923 44.8984 165.923C44.7978 165.923 44.7055 165.948 44.6217 165.998C44.5379 166.049 44.4708 166.116 44.4205 166.2C44.3702 166.284 44.345 166.377 44.345 166.478C44.345 166.579 44.3702 166.671 44.4205 166.755C44.4708 166.839 44.5379 166.906 44.6217 166.957C44.7055 167.007 44.7978 167.032 44.8984 167.032ZM43.8204 168.773V168.092H45.9763V168.773H43.8204Z" fill="#5E6B77"/>
<path d="M47.955 170.477V166.236L46.9848 166.831V165.872L47.955 165.289H48.8389V170.477H47.955Z" fill="#5E6B77"/>
<path d="M52.069 170.585C51.7025 170.585 51.3791 170.507 51.0988 170.351C50.8185 170.192 50.5994 169.973 50.4413 169.692C50.2856 169.41 50.2077 169.086 50.2077 168.719V167.047C50.2077 166.679 50.2856 166.355 50.4413 166.074C50.5994 165.793 50.8185 165.574 51.0988 165.418C51.3791 165.26 51.7025 165.181 52.069 165.181C52.4355 165.181 52.7576 165.26 53.0355 165.418C53.3158 165.574 53.535 165.793 53.6931 166.074C53.8512 166.355 53.9302 166.679 53.9302 167.047V168.719C53.9302 169.086 53.8512 169.41 53.6931 169.692C53.535 169.973 53.3158 170.192 53.0355 170.351C52.7576 170.507 52.4355 170.585 52.069 170.585ZM52.069 169.76C52.251 169.76 52.4163 169.717 52.5648 169.63C52.7133 169.541 52.8307 169.424 52.9169 169.277C53.0032 169.128 53.0463 168.963 53.0463 168.78V166.982C53.0463 166.797 53.0032 166.631 52.9169 166.485C52.8307 166.336 52.7133 166.218 52.5648 166.132C52.4163 166.043 52.251 165.998 52.069 165.998C51.8869 165.998 51.7216 166.043 51.5731 166.132C51.4246 166.218 51.3072 166.336 51.221 166.485C51.1347 166.631 51.0916 166.797 51.0916 166.982V168.78C51.0916 168.963 51.1347 169.128 51.221 169.277C51.3072 169.424 51.4246 169.541 51.5731 169.63C51.7216 169.717 51.8869 169.76 52.069 169.76Z" fill="#5E6B77"/>
<path d="M56.4181 170.574C56.1594 170.574 55.9151 170.524 55.6851 170.423C55.4552 170.322 55.2551 170.179 55.0851 169.994C54.9174 169.809 54.7964 169.591 54.7222 169.338L55.5594 169.111C55.6192 169.318 55.7282 169.478 55.8863 169.591C56.0468 169.701 56.2229 169.755 56.4145 169.753C56.5846 169.753 56.7367 169.713 56.8709 169.634C57.005 169.555 57.1104 169.448 57.1871 169.313C57.2637 169.176 57.302 169.024 57.302 168.856C57.302 168.599 57.2194 168.384 57.0541 168.211C56.8888 168.038 56.6756 167.951 56.4145 167.951C56.3355 167.951 56.2576 167.962 56.181 167.984C56.1067 168.005 56.0349 168.035 55.9654 168.074L55.5701 167.389L57.3092 165.898L57.3847 166.107H54.9234V165.289H58.0961V166.11L56.6984 167.458L56.6912 167.202C57.005 167.223 57.2721 167.311 57.4925 167.465C57.7153 167.619 57.8853 167.817 58.0027 168.059C58.1225 168.302 58.1824 168.567 58.1824 168.856C58.1824 169.182 58.1021 169.475 57.9416 169.735C57.7835 169.994 57.5703 170.2 57.302 170.351C57.0361 170.5 56.7415 170.574 56.4181 170.574Z" fill="#5E6B77"/>
<path d="M59.0415 171.396L59.0918 171.021C59.202 171.031 59.2894 171.011 59.3541 170.963C59.4188 170.918 59.4619 170.852 59.4835 170.765C59.5074 170.681 59.5134 170.585 59.5014 170.477H59.0415V169.551H59.929V170.513C59.929 170.828 59.8548 171.065 59.7062 171.226C59.5577 171.387 59.3362 171.444 59.0415 171.396Z" fill="#5E6B77"/>
<path d="M62.7346 170.477V165.289H66.9278V170.477H66.0619V166.103H63.6005V170.477H62.7346Z" fill="#5E6B77"/>
<path d="M67.9348 170.477V165.289H68.8008V167.695L70.8668 165.289H71.9304L69.7063 167.832L72.0813 170.477H70.9818L68.8008 168.056V170.477H67.9348Z" fill="#5E6B77"/>
</g>
<g filter="url(#filter2_d_2126_21031)">
<rect x="97.6091" y="65.6255" width="103.8" height="135.24" rx="4.5" fill="white" stroke="#344351"/>
<circle cx="149.509" cy="106.297" r="21.9572" fill="white" stroke="#F88C28"/>
<ellipse cx="149.509" cy="100.683" rx="5.24001" ry="5.6143" fill="#F88C28"/>
<path d="M157.919 116.777H141.099C140.436 116.777 139.961 116.143 140.205 115.527C141.451 112.375 144.477 107.794 149.509 107.794C154.542 107.794 157.568 112.375 158.814 115.527C159.057 116.143 158.582 116.777 157.919 116.777Z" fill="#F88C28"/>
<rect x="109.835" y="142.977" width="79.3487" height="3.74286" rx="1.87143" fill="#EFEFEF"/>
<rect x="109.835" y="151.96" width="70.3658" height="3.74286" rx="1.87143" fill="#EFEFEF"/>
<path d="M110.568 181.154V173.609H111.847L115.347 178.927V173.609H116.626V181.154H115.347L111.847 175.836V181.154H110.568ZM119.282 177.224C118.936 177.224 118.62 177.141 118.334 176.973C118.047 176.802 117.819 176.575 117.647 176.292C117.48 176.005 117.396 175.687 117.396 175.338C117.396 174.996 117.483 174.681 117.658 174.395C117.833 174.108 118.063 173.879 118.35 173.708C118.636 173.537 118.947 173.452 119.282 173.452C119.628 173.452 119.942 173.537 120.225 173.708C120.512 173.876 120.741 174.103 120.912 174.389C121.083 174.672 121.169 174.989 121.169 175.338C121.169 175.687 121.083 176.005 120.912 176.292C120.741 176.575 120.512 176.802 120.225 176.973C119.942 177.141 119.628 177.224 119.282 177.224ZM119.282 176.145C119.429 176.145 119.563 176.108 119.686 176.035C119.808 175.962 119.906 175.864 119.979 175.741C120.053 175.619 120.089 175.485 120.089 175.338C120.089 175.191 120.053 175.057 119.979 174.934C119.906 174.812 119.808 174.714 119.686 174.641C119.563 174.568 119.429 174.531 119.282 174.531C119.136 174.531 119.001 174.568 118.879 174.641C118.757 174.714 118.659 174.812 118.585 174.934C118.512 175.057 118.475 175.191 118.475 175.338C118.475 175.485 118.512 175.619 118.585 175.741C118.659 175.864 118.757 175.962 118.879 176.035C119.001 176.108 119.136 176.145 119.282 176.145ZM117.71 178.676V177.685H120.854V178.676H117.71Z" fill="#5E6B77"/>
<path d="M123.74 181.154V174.987L122.325 175.851V174.458L123.74 173.609H125.029V181.154H123.74Z" fill="#5E6B77"/>
<path d="M129.739 181.312C129.205 181.312 128.733 181.198 128.325 180.971C127.916 180.74 127.596 180.421 127.366 180.012C127.139 179.603 127.025 179.132 127.025 178.597V176.166C127.025 175.631 127.139 175.16 127.366 174.751C127.596 174.342 127.916 174.024 128.325 173.797C128.733 173.567 129.205 173.452 129.739 173.452C130.274 173.452 130.744 173.567 131.149 173.797C131.558 174.024 131.877 174.342 132.108 174.751C132.338 175.16 132.454 175.631 132.454 176.166V178.597C132.454 179.132 132.338 179.603 132.108 180.012C131.877 180.421 131.558 180.74 131.149 180.971C130.744 181.198 130.274 181.312 129.739 181.312ZM129.739 180.112C130.005 180.112 130.246 180.049 130.462 179.923C130.679 179.794 130.85 179.623 130.976 179.409C131.102 179.193 131.165 178.952 131.165 178.686V176.072C131.165 175.803 131.102 175.562 130.976 175.348C130.85 175.132 130.679 174.961 130.462 174.835C130.246 174.706 130.005 174.641 129.739 174.641C129.474 174.641 129.233 174.706 129.016 174.835C128.8 174.961 128.628 175.132 128.503 175.348C128.377 175.562 128.314 175.803 128.314 176.072V178.686C128.314 178.952 128.377 179.193 128.503 179.409C128.628 179.623 128.8 179.794 129.016 179.923C129.233 180.049 129.474 180.112 129.739 180.112Z" fill="#5E6B77"/>
<path d="M135.233 181.154V174.987L133.818 175.851V174.458L135.233 173.609H136.522V181.154H135.233Z" fill="#5E6B77"/>
<path d="M137.994 182.491L138.067 181.946C138.228 181.96 138.355 181.932 138.45 181.862C138.544 181.795 138.607 181.699 138.638 181.574C138.673 181.451 138.682 181.312 138.665 181.154H137.994V179.808H139.288V181.207C139.288 181.664 139.18 182.01 138.963 182.244C138.747 182.478 138.424 182.56 137.994 182.491Z" fill="#5E6B77"/>
<path d="M145.879 181.312C145.313 181.312 144.819 181.184 144.396 180.929C143.973 180.674 143.645 180.323 143.411 179.876C143.18 179.425 143.065 178.908 143.065 178.325C143.065 177.731 143.184 177.21 143.421 176.763C143.659 176.316 143.989 175.967 144.412 175.715C144.835 175.464 145.324 175.338 145.879 175.338C146.448 175.338 146.945 175.465 147.367 175.72C147.79 175.975 148.118 176.328 148.352 176.779C148.586 177.226 148.703 177.741 148.703 178.325C148.703 178.912 148.585 179.43 148.347 179.881C148.113 180.328 147.785 180.679 147.362 180.934C146.939 181.186 146.445 181.312 145.879 181.312ZM145.879 180.127C146.382 180.127 146.756 179.96 147 179.624C147.245 179.289 147.367 178.856 147.367 178.325C147.367 177.776 147.243 177.34 146.995 177.015C146.747 176.686 146.375 176.522 145.879 176.522C145.54 176.522 145.261 176.599 145.041 176.753C144.824 176.903 144.663 177.114 144.559 177.387C144.454 177.656 144.401 177.968 144.401 178.325C144.401 178.873 144.525 179.312 144.773 179.64C145.025 179.965 145.393 180.127 145.879 180.127Z" fill="#5E6B77"/>
<path d="M152.509 183.512V181.254C151.957 181.341 151.456 181.282 151.006 181.076C150.558 180.87 150.202 180.534 149.937 180.07C149.675 179.605 149.544 179.023 149.544 178.325C149.544 177.63 149.675 177.048 149.937 176.58C150.202 176.112 150.558 175.776 151.006 175.574C151.456 175.368 151.957 175.308 152.509 175.396V173.698H153.631V175.396C154.183 175.308 154.682 175.368 155.129 175.574C155.58 175.776 155.936 176.112 156.198 176.58C156.464 177.048 156.597 177.63 156.597 178.325C156.597 179.023 156.464 179.605 156.198 180.07C155.936 180.534 155.58 180.87 155.129 181.076C154.682 181.282 154.183 181.341 153.631 181.254V183.512H152.509ZM152.509 180.122V176.538C152.226 176.489 151.978 176.498 151.765 176.564C151.556 176.627 151.381 176.739 151.241 176.899C151.105 177.057 151.002 177.258 150.932 177.502C150.862 177.743 150.827 178.017 150.827 178.325C150.827 178.636 150.862 178.912 150.932 179.153C151.006 179.394 151.114 179.595 151.257 179.755C151.4 179.916 151.577 180.029 151.786 180.096C151.996 180.159 152.237 180.167 152.509 180.122ZM153.631 180.122C153.903 180.167 154.144 180.159 154.354 180.096C154.563 180.033 154.738 179.923 154.878 179.766C155.021 179.609 155.129 179.409 155.203 179.168C155.276 178.924 155.313 178.643 155.313 178.325C155.313 178.007 155.278 177.727 155.208 177.486C155.138 177.245 155.033 177.046 154.894 176.889C154.757 176.728 154.583 176.618 154.37 176.559C154.16 176.496 153.914 176.489 153.631 176.538V180.122Z" fill="#5E6B77"/>
<path d="M162.653 175.495V181.154H161.443V177.46L158.75 181.154H157.738V175.495H158.949V179.095L161.652 175.495H162.653Z" fill="#5E6B77"/>
<path d="M166.582 181.312C165.999 181.312 165.501 181.182 165.089 180.924C164.677 180.662 164.36 180.305 164.14 179.855C163.924 179.404 163.814 178.894 163.81 178.325C163.814 177.745 163.927 177.231 164.151 176.784C164.378 176.334 164.699 175.981 165.115 175.726C165.531 175.467 166.025 175.338 166.598 175.338C167.241 175.338 167.784 175.5 168.228 175.825C168.675 176.147 168.966 176.587 169.103 177.146L167.845 177.486C167.747 177.182 167.585 176.947 167.358 176.779C167.131 176.608 166.872 176.522 166.582 176.522C166.254 176.522 165.983 176.601 165.77 176.758C165.557 176.912 165.4 177.125 165.298 177.397C165.197 177.67 165.146 177.979 165.146 178.325C165.146 178.863 165.267 179.298 165.508 179.63C165.749 179.961 166.107 180.127 166.582 180.127C166.918 180.127 167.181 180.05 167.374 179.897C167.569 179.743 167.716 179.521 167.814 179.231L169.103 179.519C168.928 180.096 168.622 180.54 168.186 180.85C167.749 181.158 167.215 181.312 166.582 181.312Z" fill="#5E6B77"/>
</g>
<defs>
<filter id="filter0_d_2126_21031" x="158.936" y="50.6" width="139.84" height="165.292" filterUnits="userSpaceOnUse" color-interpolation-filters="sRGB">
<feFlood flood-opacity="0" result="BackgroundImageFix"/>
<feColorMatrix in="SourceAlpha" type="matrix" values="0 0 0 0 0 0 0 0 0 0 0 0 0 0 0 0 0 0 127 0" result="hardAlpha"/>
<feOffset/>
<feGaussianBlur stdDeviation="14"/>
<feColorMatrix type="matrix" values="0 0 0 0 0.27375 0 0 0 0 0.382789 0 0 0 0 0.47625 0 0 0 0.14 0"/>
<feBlend mode="normal" in2="BackgroundImageFix" result="effect1_dropShadow_2126_21031"/>
<feBlend mode="normal" in="SourceGraphic" in2="effect1_dropShadow_2126_21031" result="shape"/>
</filter>
<filter id="filter1_d_2126_21031" x="0.240234" y="50.6" width="139.84" height="165.292" filterUnits="userSpaceOnUse" color-interpolation-filters="sRGB">
<feFlood flood-opacity="0" result="BackgroundImageFix"/>
<feColorMatrix in="SourceAlpha" type="matrix" values="0 0 0 0 0 0 0 0 0 0 0 0 0 0 0 0 0 0 127 0" result="hardAlpha"/>
<feOffset/>
<feGaussianBlur stdDeviation="14"/>
<feColorMatrix type="matrix" values="0 0 0 0 0.27375 0 0 0 0 0.382789 0 0 0 0 0.47625 0 0 0 0.14 0"/>
<feBlend mode="normal" in2="BackgroundImageFix" result="effect1_dropShadow_2126_21031"/>
<feBlend mode="normal" in="SourceGraphic" in2="effect1_dropShadow_2126_21031" result="shape"/>
</filter>
<filter id="filter2_d_2126_21031" x="69.1091" y="37.1255" width="160.8" height="192.24" filterUnits="userSpaceOnUse" color-interpolation-filters="sRGB">
<feFlood flood-opacity="0" result="BackgroundImageFix"/>
<feColorMatrix in="SourceAlpha" type="matrix" values="0 0 0 0 0 0 0 0 0 0 0 0 0 0 0 0 0 0 127 0" result="hardAlpha"/>
<feOffset/>
<feGaussianBlur stdDeviation="14"/>
<feColorMatrix type="matrix" values="0 0 0 0 0.27375 0 0 0 0 0.382789 0 0 0 0 0.47625 0 0 0 0.14 0"/>
<feBlend mode="normal" in2="BackgroundImageFix" result="effect1_dropShadow_2126_21031"/>
<feBlend mode="normal" in="SourceGraphic" in2="effect1_dropShadow_2126_21031" result="shape"/>
</filter>
<linearGradient id="paint0_linear_2126_21031" x1="138.822" y1="408.039" x2="317.774" y2="315.637" gradientUnits="userSpaceOnUse">
<stop stop-color="#CED2D4"/>
<stop offset="1" stop-color="#E9EBED"/>
</linearGradient>
<linearGradient id="paint1_linear_2126_21031" x1="63.0889" y1="187.007" x2="259.63" y2="85.1571" gradientUnits="userSpaceOnUse">
<stop stop-color="#CED2D4"/>
<stop offset="1" stop-color="#E9EBED"/>
</linearGradient>
</defs>
</svg>
