<svg width="380" height="279" viewBox="0 0 380 279" fill="none" xmlns="http://www.w3.org/2000/svg">
<rect x="159.764" y="315" width="252.737" height="252.737" rx="126.368" transform="rotate(-123.302 159.764 315)" stroke="url(#paint0_linear_2126_18686)" stroke-linecap="round" stroke-dasharray="5 5"/>
<path d="M330.23 103.662C350.094 177.529 306.1 253.455 231.967 273.248C157.834 293.04 81.6336 249.204 61.7696 175.338C41.9056 101.471 85.8997 25.545 160.033 5.75247C234.166 -14.0401 310.366 29.7957 330.23 103.662Z" stroke="url(#paint1_linear_2126_18686)" stroke-linecap="round" stroke-dasharray="5 5"/>
<rect x="82" y="26" width="229" height="229" rx="114.5" fill="#F6F7F8"/>
<g filter="url(#filter0_d_2126_18686)">
<rect x="240.5" y="70.5" width="111" height="145" rx="4.5" fill="white" stroke="#344351"/>
<path d="M319.5 114.121C319.5 127.137 308.977 137.687 296 137.687C283.023 137.687 272.5 127.137 272.5 114.121C272.5 101.104 283.023 90.5547 296 90.5547C308.977 90.5547 319.5 101.104 319.5 114.121Z" fill="white" stroke="#F88C28"/>
<ellipse cx="296" cy="108.104" rx="5.6" ry="6.01648" fill="#F88C28"/>
<path d="M305.079 125.351H286.921C286.258 125.351 285.782 124.72 286.021 124.102C287.33 120.722 290.574 115.725 296 115.725C301.426 115.725 304.67 120.722 305.979 124.102C306.218 124.72 305.742 125.351 305.079 125.351Z" fill="#F88C28"/>
<rect x="253.6" y="153.429" width="84.8" height="4.01099" rx="2.00549" fill="#EFEFEF"/>
<rect x="253.6" y="163.055" width="75.2" height="4.01099" rx="2.00549" fill="#EFEFEF"/>
<path d="M254.272 192.737V185.806H255.443L258.65 190.691V185.806H259.821V192.737H258.65L255.443 187.851V192.737H254.272ZM262.254 189.127C261.938 189.127 261.648 189.05 261.386 188.896C261.123 188.738 260.914 188.53 260.757 188.27C260.603 188.007 260.526 187.715 260.526 187.394C260.526 187.079 260.606 186.791 260.766 186.528C260.926 186.264 261.138 186.054 261.4 185.897C261.662 185.74 261.947 185.661 262.254 185.661C262.571 185.661 262.859 185.74 263.118 185.897C263.381 186.051 263.59 186.26 263.747 186.523C263.904 186.783 263.982 187.073 263.982 187.394C263.982 187.715 263.904 188.007 263.747 188.27C263.59 188.53 263.381 188.738 263.118 188.896C262.859 189.05 262.571 189.127 262.254 189.127ZM262.254 188.135C262.389 188.135 262.512 188.101 262.624 188.034C262.736 187.967 262.826 187.877 262.893 187.765C262.96 187.652 262.994 187.529 262.994 187.394C262.994 187.259 262.96 187.136 262.893 187.023C262.826 186.911 262.736 186.821 262.624 186.754C262.512 186.686 262.389 186.653 262.254 186.653C262.12 186.653 261.997 186.686 261.885 186.754C261.773 186.821 261.683 186.911 261.616 187.023C261.549 187.136 261.515 187.259 261.515 187.394C261.515 187.529 261.549 187.652 261.616 187.765C261.683 187.877 261.773 187.967 261.885 188.034C261.997 188.101 262.12 188.135 262.254 188.135ZM260.814 190.46V189.55H263.694V190.46H260.814Z" fill="#5E6B77"/>
<path d="M266.338 192.737V187.071L265.042 187.866V186.585L266.338 185.806H267.518V192.737H266.338Z" fill="#5E6B77"/>
<path d="M271.833 192.881C271.344 192.881 270.912 192.777 270.537 192.568C270.163 192.356 269.87 192.063 269.659 191.687C269.451 191.312 269.347 190.879 269.347 190.388V188.154C269.347 187.663 269.451 187.23 269.659 186.855C269.87 186.479 270.163 186.187 270.537 185.979C270.912 185.767 271.344 185.661 271.833 185.661C272.323 185.661 272.753 185.767 273.125 185.979C273.499 186.187 273.792 186.479 274.003 186.855C274.214 187.23 274.32 187.663 274.32 188.154V190.388C274.32 190.879 274.214 191.312 274.003 191.687C273.792 192.063 273.499 192.356 273.125 192.568C272.753 192.777 272.323 192.881 271.833 192.881ZM271.833 191.779C272.077 191.779 272.297 191.721 272.496 191.605C272.694 191.487 272.851 191.329 272.966 191.134C273.081 190.935 273.139 190.713 273.139 190.47V188.068C273.139 187.821 273.081 187.599 272.966 187.404C272.851 187.205 272.694 187.047 272.496 186.932C272.297 186.813 272.077 186.754 271.833 186.754C271.59 186.754 271.369 186.813 271.171 186.932C270.973 187.047 270.816 187.205 270.701 187.404C270.585 187.599 270.528 187.821 270.528 188.068V190.47C270.528 190.713 270.585 190.935 270.701 191.134C270.816 191.329 270.973 191.487 271.171 191.605C271.369 191.721 271.59 191.779 271.833 191.779Z" fill="#5E6B77"/>
<path d="M275.474 192.727V191.716L278.431 189.074C278.661 188.868 278.821 188.674 278.911 188.491C279 188.308 279.045 188.132 279.045 187.962C279.045 187.731 278.995 187.525 278.896 187.346C278.797 187.163 278.659 187.018 278.483 186.913C278.311 186.807 278.111 186.754 277.883 186.754C277.643 186.754 277.431 186.81 277.245 186.922C277.063 187.031 276.92 187.177 276.818 187.36C276.715 187.543 276.667 187.74 276.674 187.952H275.483C275.483 187.49 275.586 187.087 275.791 186.744C275.999 186.401 276.283 186.134 276.645 185.945C277.01 185.756 277.431 185.661 277.907 185.661C278.349 185.661 278.746 185.761 279.098 185.96C279.45 186.155 279.727 186.428 279.928 186.778C280.13 187.124 280.231 187.524 280.231 187.976C280.231 188.307 280.186 188.584 280.096 188.809C280.007 189.034 279.872 189.241 279.693 189.43C279.517 189.619 279.298 189.829 279.035 190.06L276.938 191.923L276.832 191.634H280.231V192.727H275.474Z" fill="#5E6B77"/>
<path d="M281.288 193.964L281.356 193.463C281.503 193.476 281.62 193.45 281.706 193.386C281.792 193.325 281.85 193.237 281.879 193.122C281.911 193.009 281.919 192.881 281.903 192.737H281.288V191.5H282.474V192.785C282.474 193.205 282.375 193.523 282.176 193.738C281.978 193.953 281.682 194.028 281.288 193.964Z" fill="#5E6B77"/>
<path d="M286.212 192.737V187.538H287.163L289.02 191.129L290.883 187.538H291.828V192.737H290.724V189.873L289.251 192.737H288.795L287.321 189.873V192.737H286.212Z" fill="#5E6B77"/>
<path d="M295.458 192.881C294.94 192.881 294.487 192.764 294.1 192.53C293.713 192.295 293.412 191.973 293.198 191.562C292.986 191.148 292.881 190.673 292.881 190.137C292.881 189.592 292.99 189.114 293.207 188.703C293.425 188.292 293.727 187.971 294.114 187.74C294.502 187.509 294.95 187.394 295.458 187.394C295.98 187.394 296.434 187.511 296.822 187.745C297.209 187.979 297.51 188.304 297.724 188.718C297.938 189.128 298.046 189.602 298.046 190.137C298.046 190.676 297.937 191.153 297.719 191.567C297.505 191.978 297.204 192.3 296.817 192.534C296.43 192.765 295.977 192.881 295.458 192.881ZM295.458 191.793C295.919 191.793 296.262 191.639 296.486 191.331C296.71 191.023 296.822 190.625 296.822 190.137C296.822 189.634 296.708 189.233 296.481 188.934C296.254 188.632 295.913 188.482 295.458 188.482C295.148 188.482 294.892 188.552 294.69 188.693C294.492 188.831 294.345 189.026 294.249 189.276C294.153 189.523 294.105 189.81 294.105 190.137C294.105 190.641 294.218 191.044 294.446 191.346C294.676 191.644 295.014 191.793 295.458 191.793Z" fill="#5E6B77"/>
<path d="M301.258 192.891C300.766 192.884 300.346 192.773 300.001 192.558C299.655 192.343 299.385 192.04 299.19 191.649C298.994 191.257 298.876 190.795 298.834 190.263C298.815 189.99 298.814 189.685 298.83 189.348C298.846 189.011 298.881 188.682 298.935 188.361C298.99 188.04 299.065 187.768 299.161 187.543C299.26 187.318 299.39 187.112 299.55 186.922C299.71 186.73 299.882 186.569 300.068 186.441C300.279 186.293 300.508 186.179 300.754 186.099C301.004 186.019 301.265 185.958 301.537 185.916C301.809 185.871 302.089 185.831 302.377 185.796C302.665 185.761 302.95 185.716 303.231 185.661L303.337 186.686C303.158 186.731 302.95 186.767 302.713 186.792C302.479 186.815 302.236 186.84 301.983 186.869C301.734 186.898 301.495 186.94 301.268 186.994C301.041 187.049 300.844 187.129 300.678 187.235C300.447 187.376 300.271 187.578 300.15 187.842C300.028 188.105 299.956 188.382 299.934 188.674C300.132 188.379 300.378 188.172 300.673 188.053C300.97 187.931 301.271 187.87 301.575 187.87C302.036 187.87 302.431 187.979 302.761 188.198C303.094 188.416 303.348 188.713 303.524 189.088C303.703 189.46 303.793 189.876 303.793 190.335C303.793 190.848 303.686 191.297 303.471 191.682C303.257 192.067 302.959 192.366 302.578 192.578C302.198 192.789 301.758 192.894 301.258 192.891ZM301.316 191.803C301.732 191.803 302.046 191.674 302.257 191.418C302.471 191.158 302.578 190.813 302.578 190.383C302.578 189.943 302.468 189.597 302.247 189.343C302.03 189.09 301.719 188.963 301.316 188.963C300.906 188.963 300.594 189.09 300.38 189.343C300.166 189.597 300.058 189.943 300.058 190.383C300.058 190.832 300.167 191.182 300.385 191.432C300.602 191.679 300.913 191.803 301.316 191.803Z" fill="#5E6B77"/>
<path d="M309.343 187.538V192.737H308.234V189.343L305.767 192.737H304.84V187.538H305.949V190.845L308.426 187.538H309.343Z" fill="#5E6B77"/>
<path d="M310.211 192.737V191.764C310.4 191.8 310.545 191.796 310.648 191.755C310.75 191.71 310.827 191.626 310.878 191.504C310.929 191.382 310.974 191.22 311.012 191.018C311.064 190.733 311.108 190.404 311.147 190.032C311.188 189.659 311.224 189.261 311.252 188.838C311.284 188.414 311.313 187.981 311.339 187.538H315.155V192.737H314.003V188.626H312.356C312.34 188.835 312.321 189.069 312.299 189.329C312.276 189.585 312.252 189.845 312.227 190.109C312.201 190.372 312.172 190.622 312.14 190.859C312.112 191.094 312.081 191.294 312.049 191.461C311.976 191.836 311.87 192.133 311.732 192.351C311.598 192.57 311.409 192.709 311.166 192.77C310.923 192.834 310.604 192.823 310.211 192.737Z" fill="#5E6B77"/>
<path d="M316.498 192.737L316.494 187.538H317.65V189.271H318.582C318.726 189.271 318.887 189.274 319.066 189.281C319.249 189.287 319.401 189.302 319.522 189.324C319.814 189.388 320.062 189.491 320.266 189.632C320.474 189.773 320.633 189.958 320.742 190.186C320.85 190.413 320.905 190.688 320.905 191.009C320.905 191.467 320.786 191.835 320.55 192.111C320.316 192.384 319.986 192.57 319.561 192.669C319.433 192.698 319.276 192.717 319.09 192.727C318.908 192.733 318.743 192.737 318.596 192.737H316.498ZM317.65 191.827H318.697C318.767 191.827 318.846 191.824 318.932 191.817C319.018 191.811 319.102 191.796 319.182 191.774C319.326 191.735 319.452 191.649 319.561 191.514C319.673 191.376 319.729 191.208 319.729 191.009C319.729 190.8 319.673 190.628 319.561 190.494C319.449 190.359 319.311 190.271 319.148 190.229C319.074 190.21 318.998 190.197 318.918 190.19C318.838 190.184 318.764 190.181 318.697 190.181H317.65V191.827Z" fill="#5E6B77"/>
<path d="M321.809 192.737V187.538H322.966V189.589H325.294V187.538H326.451V192.737H325.294V190.676H322.966V192.737H321.809Z" fill="#5E6B77"/>
<path d="M327.786 192.737L327.781 187.538H328.938V189.271H329.519C329.663 189.271 329.824 189.274 330.004 189.281C330.186 189.287 330.338 189.302 330.46 189.324C330.751 189.388 330.999 189.491 331.204 189.632C331.412 189.773 331.57 189.958 331.679 190.186C331.788 190.413 331.842 190.688 331.842 191.009C331.842 191.467 331.724 191.835 331.487 192.111C331.25 192.384 330.919 192.57 330.493 192.669C330.368 192.698 330.213 192.717 330.028 192.727C329.842 192.733 329.677 192.737 329.533 192.737H327.786ZM328.938 191.827H329.634C329.704 191.827 329.783 191.824 329.869 191.817C329.956 191.811 330.037 191.796 330.114 191.774C330.258 191.735 330.386 191.649 330.498 191.514C330.61 191.376 330.666 191.208 330.666 191.009C330.666 190.8 330.61 190.628 330.498 190.494C330.386 190.359 330.248 190.271 330.085 190.229C330.008 190.21 329.93 190.197 329.85 190.19C329.773 190.184 329.701 190.181 329.634 190.181H328.938V191.827ZM332.384 192.737V187.538H333.541V192.737H332.384Z" fill="#5E6B77"/>
<path d="M337.283 186.951C337.017 186.951 336.774 186.885 336.553 186.754C336.332 186.622 336.156 186.447 336.025 186.229C335.894 186.008 335.828 185.762 335.828 185.493H336.731C336.731 185.647 336.784 185.778 336.889 185.887C336.998 185.993 337.129 186.046 337.283 186.046C337.436 186.046 337.566 185.993 337.672 185.887C337.78 185.778 337.835 185.647 337.835 185.493H338.737C338.737 185.762 338.672 186.008 338.54 186.229C338.409 186.447 338.233 186.622 338.012 186.754C337.792 186.885 337.548 186.951 337.283 186.951ZM339.38 187.538V192.737H338.272V189.343L335.804 192.737H334.878V187.538H335.987V190.845L338.464 187.538H339.38Z" fill="#5E6B77"/>
</g>
<g filter="url(#filter1_d_2126_18686)">
<rect x="28.5" y="70.5" width="111" height="145" rx="4.5" fill="white" stroke="#344351"/>
<path d="M107.5 114.121C107.5 127.137 96.9774 137.687 84 137.687C71.0226 137.687 60.5 127.137 60.5 114.121C60.5 101.104 71.0226 90.5547 84 90.5547C96.9774 90.5547 107.5 101.104 107.5 114.121Z" fill="white" stroke="#F88C28"/>
<ellipse cx="83.9999" cy="108.104" rx="5.6" ry="6.01648" fill="#F88C28"/>
<path d="M93.0793 125.351H74.9209C74.258 125.351 73.7817 124.72 74.0211 124.102C75.3304 120.722 78.5739 115.725 84.0001 115.725C89.4263 115.725 92.6698 120.722 93.979 124.102C94.2185 124.72 93.7422 125.351 93.0793 125.351Z" fill="#F88C28"/>
<rect x="41.5996" y="153.429" width="84.8" height="4.01099" rx="2.00549" fill="#EFEFEF"/>
<rect x="41.5996" y="163.055" width="75.2" height="4.01099" rx="2.00549" fill="#EFEFEF"/>
<path d="M42.272 192.737V185.806H43.4432L46.6496 190.691V185.806H47.8208V192.737H46.6496L43.4432 187.851V192.737H42.272ZM50.2544 189.127C49.9376 189.127 49.648 189.05 49.3856 188.896C49.1232 188.738 48.9136 188.53 48.7568 188.27C48.6032 188.007 48.5264 187.715 48.5264 187.394C48.5264 187.079 48.6064 186.791 48.7664 186.528C48.9264 186.264 49.1376 186.054 49.4 185.897C49.6624 185.74 49.9472 185.661 50.2544 185.661C50.5712 185.661 50.8592 185.74 51.1184 185.897C51.3808 186.051 51.5904 186.26 51.7472 186.523C51.904 186.783 51.9824 187.073 51.9824 187.394C51.9824 187.715 51.904 188.007 51.7472 188.27C51.5904 188.53 51.3808 188.738 51.1184 188.896C50.8592 189.05 50.5712 189.127 50.2544 189.127ZM50.2544 188.135C50.3888 188.135 50.512 188.101 50.624 188.034C50.736 187.967 50.8256 187.877 50.8928 187.764C50.96 187.652 50.9936 187.529 50.9936 187.394C50.9936 187.259 50.96 187.136 50.8928 187.023C50.8256 186.911 50.736 186.821 50.624 186.754C50.512 186.686 50.3888 186.653 50.2544 186.653C50.12 186.653 49.9968 186.686 49.8848 186.754C49.7728 186.821 49.6832 186.911 49.616 187.023C49.5488 187.136 49.5152 187.259 49.5152 187.394C49.5152 187.529 49.5488 187.652 49.616 187.764C49.6832 187.877 49.7728 187.967 49.8848 188.034C49.9968 188.101 50.12 188.135 50.2544 188.135ZM48.8144 190.46V189.55H51.6944V190.46H48.8144Z" fill="#5E6B77"/>
<path d="M54.3376 192.737V187.071L53.0416 187.866V186.585L54.3376 185.806H55.5184V192.737H54.3376Z" fill="#5E6B77"/>
<path d="M59.8334 192.881C59.3438 192.881 58.9118 192.777 58.5374 192.568C58.163 192.356 57.8702 192.063 57.659 191.687C57.451 191.312 57.347 190.879 57.347 190.388V188.154C57.347 187.663 57.451 187.23 57.659 186.855C57.8702 186.479 58.163 186.187 58.5374 185.979C58.9118 185.767 59.3438 185.661 59.8334 185.661C60.323 185.661 60.7534 185.767 61.1246 185.979C61.499 186.187 61.7918 186.479 62.003 186.855C62.2142 187.23 62.3198 187.663 62.3198 188.154V190.388C62.3198 190.879 62.2142 191.312 62.003 191.687C61.7918 192.063 61.499 192.356 61.1246 192.568C60.7534 192.777 60.323 192.881 59.8334 192.881ZM59.8334 191.779C60.0766 191.779 60.2974 191.721 60.4958 191.605C60.6942 191.487 60.851 191.329 60.9662 191.134C61.0814 190.935 61.139 190.713 61.139 190.47V188.068C61.139 187.821 61.0814 187.599 60.9662 187.404C60.851 187.205 60.6942 187.047 60.4958 186.932C60.2974 186.813 60.0766 186.754 59.8334 186.754C59.5902 186.754 59.3694 186.813 59.171 186.932C58.9726 187.047 58.8158 187.205 58.7006 187.404C58.5854 187.599 58.5278 187.821 58.5278 188.068V190.47C58.5278 190.713 58.5854 190.935 58.7006 191.134C58.8158 191.329 58.9726 191.487 59.171 191.605C59.3694 191.721 59.5902 191.779 59.8334 191.779Z" fill="#5E6B77"/>
<path d="M65.6433 192.866C65.2977 192.866 64.9713 192.799 64.6641 192.664C64.3569 192.53 64.0897 192.339 63.8625 192.092C63.6385 191.844 63.4769 191.552 63.3777 191.216L64.4961 190.912C64.5761 191.188 64.7217 191.402 64.9329 191.552C65.1473 191.7 65.3825 191.772 65.6385 191.769C65.8657 191.769 66.0689 191.716 66.2481 191.61C66.4273 191.504 66.5681 191.362 66.6705 191.182C66.7729 190.999 66.8241 190.795 66.8241 190.571C66.8241 190.227 66.7137 189.94 66.4929 189.709C66.2721 189.478 65.9873 189.362 65.6385 189.362C65.5329 189.362 65.4289 189.377 65.3265 189.406C65.2273 189.435 65.1313 189.475 65.0385 189.526L64.5105 188.612L66.8337 186.619L66.9345 186.898H63.6465V185.806H67.8849V186.903L66.0177 188.703L66.0081 188.361C66.4273 188.39 66.7841 188.507 67.0785 188.713C67.3761 188.918 67.6033 189.183 67.7601 189.507C67.9201 189.831 68.0001 190.186 68.0001 190.571C68.0001 191.007 67.8929 191.398 67.6785 191.745C67.4673 192.092 67.1825 192.366 66.8241 192.568C66.4689 192.767 66.0753 192.866 65.6433 192.866Z" fill="#5E6B77"/>
<path d="M69.1478 193.964L69.215 193.463C69.3622 193.476 69.479 193.45 69.5654 193.386C69.6518 193.325 69.7094 193.237 69.7382 193.122C69.7702 193.009 69.7782 192.881 69.7622 192.737H69.1478V191.5H70.3334V192.785C70.3334 193.205 70.2342 193.523 70.0358 193.738C69.8374 193.953 69.5414 194.028 69.1478 193.964Z" fill="#5E6B77"/>
<path d="M74.0813 192.737V185.806H79.6829V192.737H78.5261V186.893H75.2381V192.737H74.0813Z" fill="#5E6B77"/>
<path d="M81.0282 192.737V185.806H82.185V189.021L84.945 185.806H86.3658L83.3946 189.204L86.5674 192.737H85.0986L82.185 189.502V192.737H81.0282Z" fill="#5E6B77"/>
</g>
<g filter="url(#filter2_d_2126_18686)">
<rect x="120.5" y="52.5" width="139" height="181" rx="4.5" fill="white" stroke="#344351"/>
<circle cx="190" cy="107" r="29.5" fill="white" stroke="#F88C28"/>
<ellipse cx="190" cy="99.5" rx="7" ry="7.5" fill="#F88C28"/>
<path d="M201.678 121H178.322C177.659 121 177.182 120.367 177.411 119.745C178.968 115.535 183.053 109 190 109C196.947 109 201.032 115.535 202.589 119.745C202.818 120.367 202.341 121 201.678 121Z" fill="#F88C28"/>
<rect x="137" y="156" width="106" height="5" rx="2.5" fill="#EFEFEF"/>
<rect x="137" y="168" width="94" height="5" rx="2.5" fill="#EFEFEF"/>
<path d="M137.98 207V196.92H139.688L144.364 204.025V196.92H146.072V207H144.364L139.688 199.895V207H137.98ZM149.621 201.75C149.159 201.75 148.737 201.638 148.354 201.414C147.971 201.185 147.666 200.882 147.437 200.504C147.213 200.121 147.101 199.697 147.101 199.23C147.101 198.773 147.218 198.353 147.451 197.97C147.684 197.587 147.992 197.282 148.375 197.053C148.758 196.824 149.173 196.71 149.621 196.71C150.083 196.71 150.503 196.824 150.881 197.053C151.264 197.277 151.569 197.58 151.798 197.963C152.027 198.341 152.141 198.763 152.141 199.23C152.141 199.697 152.027 200.121 151.798 200.504C151.569 200.882 151.264 201.185 150.881 201.414C150.503 201.638 150.083 201.75 149.621 201.75ZM149.621 200.308C149.817 200.308 149.997 200.259 150.16 200.161C150.323 200.063 150.454 199.932 150.552 199.769C150.65 199.606 150.699 199.426 150.699 199.23C150.699 199.034 150.65 198.854 150.552 198.691C150.454 198.528 150.323 198.397 150.16 198.299C149.997 198.201 149.817 198.152 149.621 198.152C149.425 198.152 149.245 198.201 149.082 198.299C148.919 198.397 148.788 198.528 148.69 198.691C148.592 198.854 148.543 199.034 148.543 199.23C148.543 199.426 148.592 199.606 148.69 199.769C148.788 199.932 148.919 200.063 149.082 200.161C149.245 200.259 149.425 200.308 149.621 200.308ZM147.521 203.689V202.366H151.721V203.689H147.521Z" fill="#5E6B77"/>
<path d="M155.576 207V198.761L153.686 199.916V198.054L155.576 196.92H157.298V207H155.576Z" fill="#5E6B77"/>
<path d="M163.59 207.21C162.876 207.21 162.246 207.058 161.7 206.755C161.154 206.447 160.727 206.02 160.419 205.474C160.116 204.928 159.964 204.298 159.964 203.584V200.336C159.964 199.622 160.116 198.992 160.419 198.446C160.727 197.9 161.154 197.475 161.7 197.172C162.246 196.864 162.876 196.71 163.59 196.71C164.304 196.71 164.932 196.864 165.473 197.172C166.019 197.475 166.446 197.9 166.754 198.446C167.062 198.992 167.216 199.622 167.216 200.336V203.584C167.216 204.298 167.062 204.928 166.754 205.474C166.446 206.02 166.019 206.447 165.473 206.755C164.932 207.058 164.304 207.21 163.59 207.21ZM163.59 205.607C163.945 205.607 164.267 205.523 164.556 205.355C164.846 205.182 165.074 204.954 165.242 204.669C165.41 204.38 165.494 204.058 165.494 203.703V200.21C165.494 199.851 165.41 199.529 165.242 199.244C165.074 198.955 164.846 198.726 164.556 198.558C164.267 198.385 163.945 198.299 163.59 198.299C163.236 198.299 162.914 198.385 162.624 198.558C162.335 198.726 162.106 198.955 161.938 199.244C161.77 199.529 161.686 199.851 161.686 200.21V203.703C161.686 204.058 161.77 204.38 161.938 204.669C162.106 204.954 162.335 205.182 162.624 205.355C162.914 205.523 163.236 205.607 163.59 205.607Z" fill="#5E6B77"/>
<path d="M170.929 207V198.761L169.039 199.916V198.054L170.929 196.92H172.651V207H170.929Z" fill="#5E6B77"/>
<path d="M174.617 208.785L174.715 208.057C174.93 208.076 175.1 208.038 175.226 207.945C175.352 207.856 175.436 207.728 175.478 207.56C175.525 207.397 175.537 207.21 175.513 207H174.617V205.201H176.346V207.07C176.346 207.681 176.202 208.143 175.912 208.456C175.623 208.769 175.191 208.878 174.617 208.785Z" fill="#5E6B77"/>
<path d="M185.151 207.21C184.395 207.21 183.735 207.04 183.17 206.699C182.605 206.358 182.167 205.889 181.854 205.292C181.546 204.69 181.392 203.999 181.392 203.22C181.392 202.427 181.551 201.731 181.868 201.134C182.185 200.537 182.626 200.07 183.191 199.734C183.756 199.398 184.409 199.23 185.151 199.23C185.912 199.23 186.574 199.4 187.139 199.741C187.704 200.082 188.142 200.553 188.455 201.155C188.768 201.752 188.924 202.441 188.924 203.22C188.924 204.004 188.765 204.697 188.448 205.299C188.135 205.896 187.697 206.365 187.132 206.706C186.567 207.042 185.907 207.21 185.151 207.21ZM185.151 205.628C185.823 205.628 186.322 205.404 186.649 204.956C186.976 204.508 187.139 203.929 187.139 203.22C187.139 202.487 186.973 201.904 186.642 201.47C186.311 201.031 185.814 200.812 185.151 200.812C184.698 200.812 184.325 200.915 184.031 201.12C183.742 201.321 183.527 201.603 183.387 201.967C183.247 202.326 183.177 202.744 183.177 203.22C183.177 203.953 183.343 204.538 183.674 204.977C184.01 205.411 184.502 205.628 185.151 205.628Z" fill="#5E6B77"/>
<path d="M194.008 210.15V207.133C193.271 207.25 192.601 207.17 191.999 206.895C191.402 206.62 190.926 206.172 190.571 205.551C190.221 204.93 190.046 204.153 190.046 203.22C190.046 202.291 190.221 201.514 190.571 200.889C190.926 200.264 191.402 199.816 191.999 199.545C192.601 199.27 193.271 199.19 194.008 199.307V197.039H195.506V199.307C196.244 199.19 196.911 199.27 197.508 199.545C198.11 199.816 198.586 200.264 198.936 200.889C199.291 201.514 199.468 202.291 199.468 203.22C199.468 204.153 199.291 204.93 198.936 205.551C198.586 206.172 198.11 206.62 197.508 206.895C196.911 207.17 196.244 207.25 195.506 207.133V210.15H194.008ZM194.008 205.621V200.833C193.63 200.768 193.299 200.779 193.014 200.868C192.734 200.952 192.501 201.101 192.314 201.316C192.132 201.526 191.995 201.794 191.901 202.121C191.808 202.443 191.761 202.809 191.761 203.22C191.761 203.635 191.808 204.004 191.901 204.326C191.999 204.648 192.144 204.916 192.335 205.131C192.527 205.346 192.762 205.497 193.042 205.586C193.322 205.67 193.644 205.682 194.008 205.621ZM195.506 205.621C195.87 205.682 196.192 205.67 196.472 205.586C196.752 205.502 196.986 205.355 197.172 205.145C197.364 204.935 197.508 204.669 197.606 204.347C197.704 204.02 197.753 203.645 197.753 203.22C197.753 202.795 197.707 202.422 197.613 202.1C197.52 201.778 197.38 201.512 197.193 201.302C197.011 201.087 196.778 200.94 196.493 200.861C196.213 200.777 195.884 200.768 195.506 200.833V205.621Z" fill="#5E6B77"/>
<path d="M207.559 199.44V207H205.942V202.065L202.344 207H200.993V199.44H202.61V204.249L206.222 199.44H207.559Z" fill="#5E6B77"/>
<path d="M212.808 207.21C212.029 207.21 211.364 207.037 210.813 206.692C210.262 206.342 209.84 205.866 209.546 205.264C209.257 204.662 209.11 203.981 209.105 203.22C209.11 202.445 209.261 201.759 209.56 201.162C209.863 200.56 210.293 200.089 210.848 199.748C211.403 199.403 212.064 199.23 212.829 199.23C213.688 199.23 214.413 199.447 215.006 199.881C215.603 200.31 215.993 200.898 216.175 201.645L214.495 202.1C214.364 201.694 214.147 201.379 213.844 201.155C213.541 200.926 213.195 200.812 212.808 200.812C212.369 200.812 212.008 200.917 211.723 201.127C211.438 201.332 211.228 201.617 211.093 201.981C210.958 202.345 210.89 202.758 210.89 203.22C210.89 203.939 211.051 204.52 211.373 204.963C211.695 205.406 212.173 205.628 212.808 205.628C213.256 205.628 213.608 205.525 213.865 205.32C214.126 205.115 214.322 204.818 214.453 204.431L216.175 204.816C215.942 205.586 215.533 206.179 214.95 206.594C214.367 207.005 213.653 207.21 212.808 207.21Z" fill="#5E6B77"/>
</g>
<defs>
<filter id="filter0_d_2126_18686" x="212" y="42" width="168" height="202" filterUnits="userSpaceOnUse" color-interpolation-filters="sRGB">
<feFlood flood-opacity="0" result="BackgroundImageFix"/>
<feColorMatrix in="SourceAlpha" type="matrix" values="0 0 0 0 0 0 0 0 0 0 0 0 0 0 0 0 0 0 127 0" result="hardAlpha"/>
<feOffset/>
<feGaussianBlur stdDeviation="14"/>
<feColorMatrix type="matrix" values="0 0 0 0 0.27375 0 0 0 0 0.382789 0 0 0 0 0.47625 0 0 0 0.14 0"/>
<feBlend mode="normal" in2="BackgroundImageFix" result="effect1_dropShadow_2126_18686"/>
<feBlend mode="normal" in="SourceGraphic" in2="effect1_dropShadow_2126_18686" result="shape"/>
</filter>
<filter id="filter1_d_2126_18686" x="0" y="42" width="168" height="202" filterUnits="userSpaceOnUse" color-interpolation-filters="sRGB">
<feFlood flood-opacity="0" result="BackgroundImageFix"/>
<feColorMatrix in="SourceAlpha" type="matrix" values="0 0 0 0 0 0 0 0 0 0 0 0 0 0 0 0 0 0 127 0" result="hardAlpha"/>
<feOffset/>
<feGaussianBlur stdDeviation="14"/>
<feColorMatrix type="matrix" values="0 0 0 0 0.27375 0 0 0 0 0.382789 0 0 0 0 0.47625 0 0 0 0.14 0"/>
<feBlend mode="normal" in2="BackgroundImageFix" result="effect1_dropShadow_2126_18686"/>
<feBlend mode="normal" in="SourceGraphic" in2="effect1_dropShadow_2126_18686" result="shape"/>
</filter>
<filter id="filter2_d_2126_18686" x="92" y="24" width="196" height="238" filterUnits="userSpaceOnUse" color-interpolation-filters="sRGB">
<feFlood flood-opacity="0" result="BackgroundImageFix"/>
<feColorMatrix in="SourceAlpha" type="matrix" values="0 0 0 0 0 0 0 0 0 0 0 0 0 0 0 0 0 0 127 0" result="hardAlpha"/>
<feOffset/>
<feGaussianBlur stdDeviation="14"/>
<feColorMatrix type="matrix" values="0 0 0 0 0.27375 0 0 0 0 0.382789 0 0 0 0 0.47625 0 0 0 0.14 0"/>
<feBlend mode="normal" in2="BackgroundImageFix" result="effect1_dropShadow_2126_18686"/>
<feBlend mode="normal" in="SourceGraphic" in2="effect1_dropShadow_2126_18686" result="shape"/>
</filter>
<linearGradient id="paint0_linear_2126_18686" x1="175.723" y1="510.089" x2="414.78" y2="386.652" gradientUnits="userSpaceOnUse">
<stop stop-color="#CED2D4"/>
<stop offset="1" stop-color="#E9EBED"/>
</linearGradient>
<linearGradient id="paint1_linear_2126_18686" x1="74.5541" y1="214.818" x2="337.108" y2="78.7595" gradientUnits="userSpaceOnUse">
<stop stop-color="#CED2D4"/>
<stop offset="1" stop-color="#E9EBED"/>
</linearGradient>
</defs>
</svg>
