<svg width="380" height="350" viewBox="0 0 380 350" fill="none" xmlns="http://www.w3.org/2000/svg">
<rect x="159.764" y="350" width="252.737" height="252.737" rx="126.368" transform="rotate(-123.302 159.764 350)" stroke="url(#paint0_linear_3245_10953)" stroke-linecap="round" stroke-dasharray="5 5"/>
<path d="M330.23 138.662C350.094 212.529 306.1 288.455 231.967 308.248C157.834 328.04 81.6336 284.204 61.7696 210.338C41.9056 136.471 85.8997 60.545 160.033 40.7525C234.166 20.9599 310.366 64.7957 330.23 138.662Z" stroke="url(#paint1_linear_3245_10953)" stroke-linecap="round" stroke-dasharray="5 5"/>
<rect x="82" y="61" width="229" height="229" rx="114.5" fill="#F6F7F8"/>
<g filter="url(#filter0_d_3245_10953)">
<rect x="240.5" y="105.5" width="111" height="145" rx="4.5" fill="white" stroke="#344351"/>
<path d="M319.5 149.121C319.5 162.137 308.977 172.687 296 172.687C283.023 172.687 272.5 162.137 272.5 149.121C272.5 136.104 283.023 125.555 296 125.555C308.977 125.555 319.5 136.104 319.5 149.121Z" fill="white" stroke="#F88C28"/>
<ellipse cx="296" cy="143.104" rx="5.6" ry="6.01648" fill="#F88C28"/>
<path d="M305.079 160.351H286.921C286.258 160.351 285.782 159.72 286.021 159.102C287.33 155.722 290.574 150.725 296 150.725C301.426 150.725 304.67 155.722 305.979 159.102C306.218 159.72 305.742 160.351 305.079 160.351Z" fill="#F88C28"/>
<rect x="253.6" y="188.429" width="84.8" height="4.01099" rx="2.00549" fill="#EFEFEF"/>
<rect x="253.6" y="198.055" width="75.2" height="4.01099" rx="2.00549" fill="#EFEFEF"/>
<path d="M254.272 227.737V220.806H255.443L258.65 225.691V220.806H259.821V227.737H258.65L255.443 222.851V227.737H254.272ZM262.254 224.127C261.938 224.127 261.648 224.05 261.386 223.896C261.123 223.738 260.914 223.53 260.757 223.27C260.603 223.007 260.526 222.715 260.526 222.394C260.526 222.079 260.606 221.791 260.766 221.528C260.926 221.264 261.138 221.054 261.4 220.897C261.662 220.74 261.947 220.661 262.254 220.661C262.571 220.661 262.859 220.74 263.118 220.897C263.381 221.051 263.59 221.26 263.747 221.523C263.904 221.783 263.982 222.073 263.982 222.394C263.982 222.715 263.904 223.007 263.747 223.27C263.59 223.53 263.381 223.738 263.118 223.896C262.859 224.05 262.571 224.127 262.254 224.127ZM262.254 223.135C262.389 223.135 262.512 223.101 262.624 223.034C262.736 222.967 262.826 222.877 262.893 222.765C262.96 222.652 262.994 222.529 262.994 222.394C262.994 222.259 262.96 222.136 262.893 222.023C262.826 221.911 262.736 221.821 262.624 221.754C262.512 221.686 262.389 221.653 262.254 221.653C262.12 221.653 261.997 221.686 261.885 221.754C261.773 221.821 261.683 221.911 261.616 222.023C261.549 222.136 261.515 222.259 261.515 222.394C261.515 222.529 261.549 222.652 261.616 222.765C261.683 222.877 261.773 222.967 261.885 223.034C261.997 223.101 262.12 223.135 262.254 223.135ZM260.814 225.46V224.55H263.694V225.46H260.814Z" fill="#5E6B77"/>
<path d="M266.338 227.737V222.071L265.042 222.866V221.585L266.338 220.806H267.518V227.737H266.338Z" fill="#5E6B77"/>
<path d="M271.833 227.881C271.344 227.881 270.912 227.777 270.537 227.568C270.163 227.356 269.87 227.063 269.659 226.687C269.451 226.312 269.347 225.879 269.347 225.388V223.154C269.347 222.663 269.451 222.23 269.659 221.855C269.87 221.479 270.163 221.187 270.537 220.979C270.912 220.767 271.344 220.661 271.833 220.661C272.323 220.661 272.753 220.767 273.125 220.979C273.499 221.187 273.792 221.479 274.003 221.855C274.214 222.23 274.32 222.663 274.32 223.154V225.388C274.32 225.879 274.214 226.312 274.003 226.687C273.792 227.063 273.499 227.356 273.125 227.568C272.753 227.777 272.323 227.881 271.833 227.881ZM271.833 226.779C272.077 226.779 272.297 226.721 272.496 226.605C272.694 226.487 272.851 226.329 272.966 226.134C273.081 225.935 273.139 225.713 273.139 225.47V223.068C273.139 222.821 273.081 222.599 272.966 222.404C272.851 222.205 272.694 222.047 272.496 221.932C272.297 221.813 272.077 221.754 271.833 221.754C271.59 221.754 271.369 221.813 271.171 221.932C270.973 222.047 270.816 222.205 270.701 222.404C270.585 222.599 270.528 222.821 270.528 223.068V225.47C270.528 225.713 270.585 225.935 270.701 226.134C270.816 226.329 270.973 226.487 271.171 226.605C271.369 226.721 271.59 226.779 271.833 226.779Z" fill="#5E6B77"/>
<path d="M275.474 227.727V226.716L278.431 224.074C278.661 223.868 278.821 223.674 278.911 223.491C279 223.308 279.045 223.132 279.045 222.962C279.045 222.731 278.995 222.525 278.896 222.346C278.797 222.163 278.659 222.018 278.483 221.913C278.311 221.807 278.111 221.754 277.883 221.754C277.643 221.754 277.431 221.81 277.245 221.922C277.063 222.031 276.92 222.177 276.818 222.36C276.715 222.543 276.667 222.74 276.674 222.952H275.483C275.483 222.49 275.586 222.087 275.791 221.744C275.999 221.401 276.283 221.134 276.645 220.945C277.01 220.756 277.431 220.661 277.907 220.661C278.349 220.661 278.746 220.761 279.098 220.96C279.45 221.155 279.727 221.428 279.928 221.778C280.13 222.124 280.231 222.524 280.231 222.976C280.231 223.307 280.186 223.584 280.096 223.809C280.007 224.034 279.872 224.241 279.693 224.43C279.517 224.619 279.298 224.829 279.035 225.06L276.938 226.923L276.832 226.634H280.231V227.727H275.474Z" fill="#5E6B77"/>
<path d="M281.288 228.964L281.356 228.463C281.503 228.476 281.62 228.45 281.706 228.386C281.792 228.325 281.85 228.237 281.879 228.122C281.911 228.009 281.919 227.881 281.903 227.737H281.288V226.5H282.474V227.785C282.474 228.205 282.375 228.523 282.176 228.738C281.978 228.953 281.682 229.028 281.288 228.964Z" fill="#5E6B77"/>
<path d="M286.212 227.737V222.538H287.163L289.02 226.129L290.883 222.538H291.828V227.737H290.724V224.873L289.251 227.737H288.795L287.321 224.873V227.737H286.212Z" fill="#5E6B77"/>
<path d="M295.458 227.881C294.94 227.881 294.487 227.764 294.1 227.53C293.713 227.295 293.412 226.973 293.198 226.562C292.986 226.148 292.881 225.673 292.881 225.137C292.881 224.592 292.99 224.114 293.207 223.703C293.425 223.292 293.727 222.971 294.114 222.74C294.502 222.509 294.95 222.394 295.458 222.394C295.98 222.394 296.434 222.511 296.822 222.745C297.209 222.979 297.51 223.304 297.724 223.718C297.938 224.128 298.046 224.602 298.046 225.137C298.046 225.676 297.937 226.153 297.719 226.567C297.505 226.978 297.204 227.3 296.817 227.534C296.43 227.765 295.977 227.881 295.458 227.881ZM295.458 226.793C295.919 226.793 296.262 226.639 296.486 226.331C296.71 226.023 296.822 225.625 296.822 225.137C296.822 224.634 296.708 224.233 296.481 223.934C296.254 223.632 295.913 223.482 295.458 223.482C295.148 223.482 294.892 223.552 294.69 223.693C294.492 223.831 294.345 224.026 294.249 224.276C294.153 224.523 294.105 224.81 294.105 225.137C294.105 225.641 294.218 226.044 294.446 226.346C294.676 226.644 295.014 226.793 295.458 226.793Z" fill="#5E6B77"/>
<path d="M301.258 227.891C300.766 227.884 300.346 227.773 300.001 227.558C299.655 227.343 299.385 227.04 299.19 226.649C298.994 226.257 298.876 225.795 298.834 225.263C298.815 224.99 298.814 224.685 298.83 224.348C298.846 224.011 298.881 223.682 298.935 223.361C298.99 223.04 299.065 222.768 299.161 222.543C299.26 222.318 299.39 222.112 299.55 221.922C299.71 221.73 299.882 221.569 300.068 221.441C300.279 221.293 300.508 221.179 300.754 221.099C301.004 221.019 301.265 220.958 301.537 220.916C301.809 220.871 302.089 220.831 302.377 220.796C302.665 220.761 302.95 220.716 303.231 220.661L303.337 221.686C303.158 221.731 302.95 221.767 302.713 221.792C302.479 221.815 302.236 221.84 301.983 221.869C301.734 221.898 301.495 221.94 301.268 221.994C301.041 222.049 300.844 222.129 300.678 222.235C300.447 222.376 300.271 222.578 300.15 222.842C300.028 223.105 299.956 223.382 299.934 223.674C300.132 223.379 300.378 223.172 300.673 223.053C300.97 222.931 301.271 222.87 301.575 222.87C302.036 222.87 302.431 222.979 302.761 223.198C303.094 223.416 303.348 223.713 303.524 224.088C303.703 224.46 303.793 224.876 303.793 225.335C303.793 225.848 303.686 226.297 303.471 226.682C303.257 227.067 302.959 227.366 302.578 227.578C302.198 227.789 301.758 227.894 301.258 227.891ZM301.316 226.803C301.732 226.803 302.046 226.674 302.257 226.418C302.471 226.158 302.578 225.813 302.578 225.383C302.578 224.943 302.468 224.597 302.247 224.343C302.03 224.09 301.719 223.963 301.316 223.963C300.906 223.963 300.594 224.09 300.38 224.343C300.166 224.597 300.058 224.943 300.058 225.383C300.058 225.832 300.167 226.182 300.385 226.432C300.602 226.679 300.913 226.803 301.316 226.803Z" fill="#5E6B77"/>
<path d="M309.343 222.538V227.737H308.234V224.343L305.767 227.737H304.84V222.538H305.949V225.845L308.426 222.538H309.343Z" fill="#5E6B77"/>
<path d="M310.211 227.737V226.764C310.4 226.8 310.545 226.796 310.648 226.755C310.75 226.71 310.827 226.626 310.878 226.504C310.929 226.382 310.974 226.22 311.012 226.018C311.064 225.733 311.108 225.404 311.147 225.032C311.188 224.659 311.224 224.261 311.252 223.838C311.284 223.414 311.313 222.981 311.339 222.538H315.155V227.737H314.003V223.626H312.356C312.34 223.835 312.321 224.069 312.299 224.329C312.276 224.585 312.252 224.845 312.227 225.109C312.201 225.372 312.172 225.622 312.14 225.859C312.112 226.094 312.081 226.294 312.049 226.461C311.976 226.836 311.87 227.133 311.732 227.351C311.598 227.57 311.409 227.709 311.166 227.77C310.923 227.834 310.604 227.823 310.211 227.737Z" fill="#5E6B77"/>
<path d="M316.498 227.737L316.494 222.538H317.65V224.271H318.582C318.726 224.271 318.887 224.274 319.066 224.281C319.249 224.287 319.401 224.302 319.522 224.324C319.814 224.388 320.062 224.491 320.266 224.632C320.474 224.773 320.633 224.958 320.742 225.186C320.85 225.413 320.905 225.688 320.905 226.009C320.905 226.467 320.786 226.835 320.55 227.111C320.316 227.384 319.986 227.57 319.561 227.669C319.433 227.698 319.276 227.717 319.09 227.727C318.908 227.733 318.743 227.737 318.596 227.737H316.498ZM317.65 226.827H318.697C318.767 226.827 318.846 226.824 318.932 226.817C319.018 226.811 319.102 226.796 319.182 226.774C319.326 226.735 319.452 226.649 319.561 226.514C319.673 226.376 319.729 226.208 319.729 226.009C319.729 225.8 319.673 225.628 319.561 225.494C319.449 225.359 319.311 225.271 319.148 225.229C319.074 225.21 318.998 225.197 318.918 225.19C318.838 225.184 318.764 225.181 318.697 225.181H317.65V226.827Z" fill="#5E6B77"/>
<path d="M321.809 227.737V222.538H322.966V224.589H325.294V222.538H326.451V227.737H325.294V225.676H322.966V227.737H321.809Z" fill="#5E6B77"/>
<path d="M327.786 227.737L327.781 222.538H328.938V224.271H329.519C329.663 224.271 329.824 224.274 330.004 224.281C330.186 224.287 330.338 224.302 330.46 224.324C330.751 224.388 330.999 224.491 331.204 224.632C331.412 224.773 331.57 224.958 331.679 225.186C331.788 225.413 331.842 225.688 331.842 226.009C331.842 226.467 331.724 226.835 331.487 227.111C331.25 227.384 330.919 227.57 330.493 227.669C330.368 227.698 330.213 227.717 330.028 227.727C329.842 227.733 329.677 227.737 329.533 227.737H327.786ZM328.938 226.827H329.634C329.704 226.827 329.783 226.824 329.869 226.817C329.956 226.811 330.037 226.796 330.114 226.774C330.258 226.735 330.386 226.649 330.498 226.514C330.61 226.376 330.666 226.208 330.666 226.009C330.666 225.8 330.61 225.628 330.498 225.494C330.386 225.359 330.248 225.271 330.085 225.229C330.008 225.21 329.93 225.197 329.85 225.19C329.773 225.184 329.701 225.181 329.634 225.181H328.938V226.827ZM332.384 227.737V222.538H333.541V227.737H332.384Z" fill="#5E6B77"/>
<path d="M337.283 221.951C337.017 221.951 336.774 221.885 336.553 221.754C336.332 221.622 336.156 221.447 336.025 221.229C335.894 221.008 335.828 220.762 335.828 220.493H336.731C336.731 220.647 336.784 220.778 336.889 220.887C336.998 220.993 337.129 221.046 337.283 221.046C337.436 221.046 337.566 220.993 337.672 220.887C337.78 220.778 337.835 220.647 337.835 220.493H338.737C338.737 220.762 338.672 221.008 338.54 221.229C338.409 221.447 338.233 221.622 338.012 221.754C337.792 221.885 337.548 221.951 337.283 221.951ZM339.38 222.538V227.737H338.272V224.343L335.804 227.737H334.878V222.538H335.987V225.845L338.464 222.538H339.38Z" fill="#5E6B77"/>
</g>
<g filter="url(#filter1_d_3245_10953)">
<rect x="28.5" y="105.5" width="111" height="145" rx="4.5" fill="white" stroke="#344351"/>
<path d="M107.5 149.121C107.5 162.137 96.9774 172.687 84 172.687C71.0226 172.687 60.5 162.137 60.5 149.121C60.5 136.104 71.0226 125.555 84 125.555C96.9774 125.555 107.5 136.104 107.5 149.121Z" fill="white" stroke="#F88C28"/>
<ellipse cx="83.9999" cy="143.104" rx="5.6" ry="6.01648" fill="#F88C28"/>
<path d="M93.0793 160.351H74.9209C74.258 160.351 73.7817 159.72 74.0211 159.102C75.3304 155.722 78.5739 150.725 84.0001 150.725C89.4263 150.725 92.6698 155.722 93.979 159.102C94.2185 159.72 93.7422 160.351 93.0793 160.351Z" fill="#F88C28"/>
<rect x="41.5996" y="188.429" width="84.8" height="4.01099" rx="2.00549" fill="#EFEFEF"/>
<rect x="41.5996" y="198.055" width="75.2" height="4.01099" rx="2.00549" fill="#EFEFEF"/>
<path d="M42.272 227.737V220.806H43.4432L46.6496 225.691V220.806H47.8208V227.737H46.6496L43.4432 222.851V227.737H42.272ZM50.2544 224.127C49.9376 224.127 49.648 224.05 49.3856 223.896C49.1232 223.738 48.9136 223.53 48.7568 223.27C48.6032 223.007 48.5264 222.715 48.5264 222.394C48.5264 222.079 48.6064 221.791 48.7664 221.528C48.9264 221.264 49.1376 221.054 49.4 220.897C49.6624 220.74 49.9472 220.661 50.2544 220.661C50.5712 220.661 50.8592 220.74 51.1184 220.897C51.3808 221.051 51.5904 221.26 51.7472 221.523C51.904 221.783 51.9824 222.073 51.9824 222.394C51.9824 222.715 51.904 223.007 51.7472 223.27C51.5904 223.53 51.3808 223.738 51.1184 223.896C50.8592 224.05 50.5712 224.127 50.2544 224.127ZM50.2544 223.135C50.3888 223.135 50.512 223.101 50.624 223.034C50.736 222.967 50.8256 222.877 50.8928 222.764C50.96 222.652 50.9936 222.529 50.9936 222.394C50.9936 222.259 50.96 222.136 50.8928 222.023C50.8256 221.911 50.736 221.821 50.624 221.754C50.512 221.686 50.3888 221.653 50.2544 221.653C50.12 221.653 49.9968 221.686 49.8848 221.754C49.7728 221.821 49.6832 221.911 49.616 222.023C49.5488 222.136 49.5152 222.259 49.5152 222.394C49.5152 222.529 49.5488 222.652 49.616 222.764C49.6832 222.877 49.7728 222.967 49.8848 223.034C49.9968 223.101 50.12 223.135 50.2544 223.135ZM48.8144 225.46V224.55H51.6944V225.46H48.8144Z" fill="#5E6B77"/>
<path d="M54.3376 227.737V222.071L53.0416 222.866V221.585L54.3376 220.806H55.5184V227.737H54.3376Z" fill="#5E6B77"/>
<path d="M59.8334 227.881C59.3438 227.881 58.9118 227.777 58.5374 227.568C58.163 227.356 57.8702 227.063 57.659 226.687C57.451 226.312 57.347 225.879 57.347 225.388V223.154C57.347 222.663 57.451 222.23 57.659 221.855C57.8702 221.479 58.163 221.187 58.5374 220.979C58.9118 220.767 59.3438 220.661 59.8334 220.661C60.323 220.661 60.7534 220.767 61.1246 220.979C61.499 221.187 61.7918 221.479 62.003 221.855C62.2142 222.23 62.3198 222.663 62.3198 223.154V225.388C62.3198 225.879 62.2142 226.312 62.003 226.687C61.7918 227.063 61.499 227.356 61.1246 227.568C60.7534 227.777 60.323 227.881 59.8334 227.881ZM59.8334 226.779C60.0766 226.779 60.2974 226.721 60.4958 226.605C60.6942 226.487 60.851 226.329 60.9662 226.134C61.0814 225.935 61.139 225.713 61.139 225.47V223.068C61.139 222.821 61.0814 222.599 60.9662 222.404C60.851 222.205 60.6942 222.047 60.4958 221.932C60.2974 221.813 60.0766 221.754 59.8334 221.754C59.5902 221.754 59.3694 221.813 59.171 221.932C58.9726 222.047 58.8158 222.205 58.7006 222.404C58.5854 222.599 58.5278 222.821 58.5278 223.068V225.47C58.5278 225.713 58.5854 225.935 58.7006 226.134C58.8158 226.329 58.9726 226.487 59.171 226.605C59.3694 226.721 59.5902 226.779 59.8334 226.779Z" fill="#5E6B77"/>
<path d="M65.6433 227.866C65.2977 227.866 64.9713 227.799 64.6641 227.664C64.3569 227.53 64.0897 227.339 63.8625 227.092C63.6385 226.844 63.4769 226.552 63.3777 226.216L64.4961 225.912C64.5761 226.188 64.7217 226.402 64.9329 226.552C65.1473 226.7 65.3825 226.772 65.6385 226.769C65.8657 226.769 66.0689 226.716 66.2481 226.61C66.4273 226.504 66.5681 226.362 66.6705 226.182C66.7729 225.999 66.8241 225.795 66.8241 225.571C66.8241 225.227 66.7137 224.94 66.4929 224.709C66.2721 224.478 65.9873 224.362 65.6385 224.362C65.5329 224.362 65.4289 224.377 65.3265 224.406C65.2273 224.435 65.1313 224.475 65.0385 224.526L64.5105 223.612L66.8337 221.619L66.9345 221.898H63.6465V220.806H67.8849V221.903L66.0177 223.703L66.0081 223.361C66.4273 223.39 66.7841 223.507 67.0785 223.713C67.3761 223.918 67.6033 224.183 67.7601 224.507C67.9201 224.831 68.0001 225.186 68.0001 225.571C68.0001 226.007 67.8929 226.398 67.6785 226.745C67.4673 227.092 67.1825 227.366 66.8241 227.568C66.4689 227.767 66.0753 227.866 65.6433 227.866Z" fill="#5E6B77"/>
<path d="M69.1478 228.964L69.215 228.463C69.3622 228.476 69.479 228.45 69.5654 228.386C69.6518 228.325 69.7094 228.237 69.7382 228.122C69.7702 228.009 69.7782 227.881 69.7622 227.737H69.1478V226.5H70.3334V227.785C70.3334 228.205 70.2342 228.523 70.0358 228.738C69.8374 228.953 69.5414 229.028 69.1478 228.964Z" fill="#5E6B77"/>
<path d="M74.0813 227.737V220.806H79.6829V227.737H78.5261V221.893H75.2381V227.737H74.0813Z" fill="#5E6B77"/>
<path d="M81.0282 227.737V220.806H82.185V224.021L84.945 220.806H86.3658L83.3946 224.204L86.5674 227.737H85.0986L82.185 224.502V227.737H81.0282Z" fill="#5E6B77"/>
</g>
<g filter="url(#filter2_d_3245_10953)">
<rect x="120.5" y="87.5" width="139" height="181" rx="4.5" fill="white" stroke="#344351"/>
<circle cx="190" cy="142" r="29.5" fill="white" stroke="#F88C28"/>
<ellipse cx="190" cy="134.5" rx="7" ry="7.5" fill="#F88C28"/>
<path d="M201.678 156H178.322C177.659 156 177.182 155.367 177.411 154.745C178.968 150.535 183.053 144 190 144C196.947 144 201.032 150.535 202.589 154.745C202.818 155.367 202.341 156 201.678 156Z" fill="#F88C28"/>
<rect x="137" y="191" width="106" height="5" rx="2.5" fill="#EFEFEF"/>
<rect x="137" y="203" width="94" height="5" rx="2.5" fill="#EFEFEF"/>
<path d="M137.98 242V231.92H139.688L144.364 239.025V231.92H146.072V242H144.364L139.688 234.895V242H137.98ZM149.621 236.75C149.159 236.75 148.737 236.638 148.354 236.414C147.971 236.185 147.666 235.882 147.437 235.504C147.213 235.121 147.101 234.697 147.101 234.23C147.101 233.773 147.218 233.353 147.451 232.97C147.684 232.587 147.992 232.282 148.375 232.053C148.758 231.824 149.173 231.71 149.621 231.71C150.083 231.71 150.503 231.824 150.881 232.053C151.264 232.277 151.569 232.58 151.798 232.963C152.027 233.341 152.141 233.763 152.141 234.23C152.141 234.697 152.027 235.121 151.798 235.504C151.569 235.882 151.264 236.185 150.881 236.414C150.503 236.638 150.083 236.75 149.621 236.75ZM149.621 235.308C149.817 235.308 149.997 235.259 150.16 235.161C150.323 235.063 150.454 234.932 150.552 234.769C150.65 234.606 150.699 234.426 150.699 234.23C150.699 234.034 150.65 233.854 150.552 233.691C150.454 233.528 150.323 233.397 150.16 233.299C149.997 233.201 149.817 233.152 149.621 233.152C149.425 233.152 149.245 233.201 149.082 233.299C148.919 233.397 148.788 233.528 148.69 233.691C148.592 233.854 148.543 234.034 148.543 234.23C148.543 234.426 148.592 234.606 148.69 234.769C148.788 234.932 148.919 235.063 149.082 235.161C149.245 235.259 149.425 235.308 149.621 235.308ZM147.521 238.689V237.366H151.721V238.689H147.521Z" fill="#5E6B77"/>
<path d="M155.576 242V233.761L153.686 234.916V233.054L155.576 231.92H157.298V242H155.576Z" fill="#5E6B77"/>
<path d="M163.59 242.21C162.876 242.21 162.246 242.058 161.7 241.755C161.154 241.447 160.727 241.02 160.419 240.474C160.116 239.928 159.964 239.298 159.964 238.584V235.336C159.964 234.622 160.116 233.992 160.419 233.446C160.727 232.9 161.154 232.475 161.7 232.172C162.246 231.864 162.876 231.71 163.59 231.71C164.304 231.71 164.932 231.864 165.473 232.172C166.019 232.475 166.446 232.9 166.754 233.446C167.062 233.992 167.216 234.622 167.216 235.336V238.584C167.216 239.298 167.062 239.928 166.754 240.474C166.446 241.02 166.019 241.447 165.473 241.755C164.932 242.058 164.304 242.21 163.59 242.21ZM163.59 240.607C163.945 240.607 164.267 240.523 164.556 240.355C164.846 240.182 165.074 239.954 165.242 239.669C165.41 239.38 165.494 239.058 165.494 238.703V235.21C165.494 234.851 165.41 234.529 165.242 234.244C165.074 233.955 164.846 233.726 164.556 233.558C164.267 233.385 163.945 233.299 163.59 233.299C163.236 233.299 162.914 233.385 162.624 233.558C162.335 233.726 162.106 233.955 161.938 234.244C161.77 234.529 161.686 234.851 161.686 235.21V238.703C161.686 239.058 161.77 239.38 161.938 239.669C162.106 239.954 162.335 240.182 162.624 240.355C162.914 240.523 163.236 240.607 163.59 240.607Z" fill="#5E6B77"/>
<path d="M170.929 242V233.761L169.039 234.916V233.054L170.929 231.92H172.651V242H170.929Z" fill="#5E6B77"/>
<path d="M174.617 243.785L174.715 243.057C174.93 243.076 175.1 243.038 175.226 242.945C175.352 242.856 175.436 242.728 175.478 242.56C175.525 242.397 175.537 242.21 175.513 242H174.617V240.201H176.346V242.07C176.346 242.681 176.202 243.143 175.912 243.456C175.623 243.769 175.191 243.878 174.617 243.785Z" fill="#5E6B77"/>
<path d="M185.151 242.21C184.395 242.21 183.735 242.04 183.17 241.699C182.605 241.358 182.167 240.889 181.854 240.292C181.546 239.69 181.392 238.999 181.392 238.22C181.392 237.427 181.551 236.731 181.868 236.134C182.185 235.537 182.626 235.07 183.191 234.734C183.756 234.398 184.409 234.23 185.151 234.23C185.912 234.23 186.574 234.4 187.139 234.741C187.704 235.082 188.142 235.553 188.455 236.155C188.768 236.752 188.924 237.441 188.924 238.22C188.924 239.004 188.765 239.697 188.448 240.299C188.135 240.896 187.697 241.365 187.132 241.706C186.567 242.042 185.907 242.21 185.151 242.21ZM185.151 240.628C185.823 240.628 186.322 240.404 186.649 239.956C186.976 239.508 187.139 238.929 187.139 238.22C187.139 237.487 186.973 236.904 186.642 236.47C186.311 236.031 185.814 235.812 185.151 235.812C184.698 235.812 184.325 235.915 184.031 236.12C183.742 236.321 183.527 236.603 183.387 236.967C183.247 237.326 183.177 237.744 183.177 238.22C183.177 238.953 183.343 239.538 183.674 239.977C184.01 240.411 184.502 240.628 185.151 240.628Z" fill="#5E6B77"/>
<path d="M194.008 245.15V242.133C193.271 242.25 192.601 242.17 191.999 241.895C191.402 241.62 190.926 241.172 190.571 240.551C190.221 239.93 190.046 239.153 190.046 238.22C190.046 237.291 190.221 236.514 190.571 235.889C190.926 235.264 191.402 234.816 191.999 234.545C192.601 234.27 193.271 234.19 194.008 234.307V232.039H195.506V234.307C196.244 234.19 196.911 234.27 197.508 234.545C198.11 234.816 198.586 235.264 198.936 235.889C199.291 236.514 199.468 237.291 199.468 238.22C199.468 239.153 199.291 239.93 198.936 240.551C198.586 241.172 198.11 241.62 197.508 241.895C196.911 242.17 196.244 242.25 195.506 242.133V245.15H194.008ZM194.008 240.621V235.833C193.63 235.768 193.299 235.779 193.014 235.868C192.734 235.952 192.501 236.101 192.314 236.316C192.132 236.526 191.995 236.794 191.901 237.121C191.808 237.443 191.761 237.809 191.761 238.22C191.761 238.635 191.808 239.004 191.901 239.326C191.999 239.648 192.144 239.916 192.335 240.131C192.527 240.346 192.762 240.497 193.042 240.586C193.322 240.67 193.644 240.682 194.008 240.621ZM195.506 240.621C195.87 240.682 196.192 240.67 196.472 240.586C196.752 240.502 196.986 240.355 197.172 240.145C197.364 239.935 197.508 239.669 197.606 239.347C197.704 239.02 197.753 238.645 197.753 238.22C197.753 237.795 197.707 237.422 197.613 237.1C197.52 236.778 197.38 236.512 197.193 236.302C197.011 236.087 196.778 235.94 196.493 235.861C196.213 235.777 195.884 235.768 195.506 235.833V240.621Z" fill="#5E6B77"/>
<path d="M207.559 234.44V242H205.942V237.065L202.344 242H200.993V234.44H202.61V239.249L206.222 234.44H207.559Z" fill="#5E6B77"/>
<path d="M212.808 242.21C212.029 242.21 211.364 242.037 210.813 241.692C210.262 241.342 209.84 240.866 209.546 240.264C209.257 239.662 209.11 238.981 209.105 238.22C209.11 237.445 209.261 236.759 209.56 236.162C209.863 235.56 210.293 235.089 210.848 234.748C211.403 234.403 212.064 234.23 212.829 234.23C213.688 234.23 214.413 234.447 215.006 234.881C215.603 235.31 215.993 235.898 216.175 236.645L214.495 237.1C214.364 236.694 214.147 236.379 213.844 236.155C213.541 235.926 213.195 235.812 212.808 235.812C212.369 235.812 212.008 235.917 211.723 236.127C211.438 236.332 211.228 236.617 211.093 236.981C210.958 237.345 210.89 237.758 210.89 238.22C210.89 238.939 211.051 239.52 211.373 239.963C211.695 240.406 212.173 240.628 212.808 240.628C213.256 240.628 213.608 240.525 213.865 240.32C214.126 240.115 214.322 239.818 214.453 239.431L216.175 239.816C215.942 240.586 215.533 241.179 214.95 241.594C214.367 242.005 213.653 242.21 212.808 242.21Z" fill="#5E6B77"/>
</g>
<defs>
<filter id="filter0_d_3245_10953" x="212" y="77" width="168" height="202" filterUnits="userSpaceOnUse" color-interpolation-filters="sRGB">
<feFlood flood-opacity="0" result="BackgroundImageFix"/>
<feColorMatrix in="SourceAlpha" type="matrix" values="0 0 0 0 0 0 0 0 0 0 0 0 0 0 0 0 0 0 127 0" result="hardAlpha"/>
<feOffset/>
<feGaussianBlur stdDeviation="14"/>
<feColorMatrix type="matrix" values="0 0 0 0 0.27375 0 0 0 0 0.382789 0 0 0 0 0.47625 0 0 0 0.14 0"/>
<feBlend mode="normal" in2="BackgroundImageFix" result="effect1_dropShadow_3245_10953"/>
<feBlend mode="normal" in="SourceGraphic" in2="effect1_dropShadow_3245_10953" result="shape"/>
</filter>
<filter id="filter1_d_3245_10953" x="0" y="77" width="168" height="202" filterUnits="userSpaceOnUse" color-interpolation-filters="sRGB">
<feFlood flood-opacity="0" result="BackgroundImageFix"/>
<feColorMatrix in="SourceAlpha" type="matrix" values="0 0 0 0 0 0 0 0 0 0 0 0 0 0 0 0 0 0 127 0" result="hardAlpha"/>
<feOffset/>
<feGaussianBlur stdDeviation="14"/>
<feColorMatrix type="matrix" values="0 0 0 0 0.27375 0 0 0 0 0.382789 0 0 0 0 0.47625 0 0 0 0.14 0"/>
<feBlend mode="normal" in2="BackgroundImageFix" result="effect1_dropShadow_3245_10953"/>
<feBlend mode="normal" in="SourceGraphic" in2="effect1_dropShadow_3245_10953" result="shape"/>
</filter>
<filter id="filter2_d_3245_10953" x="92" y="59" width="196" height="238" filterUnits="userSpaceOnUse" color-interpolation-filters="sRGB">
<feFlood flood-opacity="0" result="BackgroundImageFix"/>
<feColorMatrix in="SourceAlpha" type="matrix" values="0 0 0 0 0 0 0 0 0 0 0 0 0 0 0 0 0 0 127 0" result="hardAlpha"/>
<feOffset/>
<feGaussianBlur stdDeviation="14"/>
<feColorMatrix type="matrix" values="0 0 0 0 0.27375 0 0 0 0 0.382789 0 0 0 0 0.47625 0 0 0 0.14 0"/>
<feBlend mode="normal" in2="BackgroundImageFix" result="effect1_dropShadow_3245_10953"/>
<feBlend mode="normal" in="SourceGraphic" in2="effect1_dropShadow_3245_10953" result="shape"/>
</filter>
<linearGradient id="paint0_linear_3245_10953" x1="175.723" y1="545.089" x2="414.78" y2="421.652" gradientUnits="userSpaceOnUse">
<stop stop-color="#CED2D4"/>
<stop offset="1" stop-color="#E9EBED"/>
</linearGradient>
<linearGradient id="paint1_linear_3245_10953" x1="74.5541" y1="249.818" x2="337.108" y2="113.76" gradientUnits="userSpaceOnUse">
<stop stop-color="#CED2D4"/>
<stop offset="1" stop-color="#E9EBED"/>
</linearGradient>
</defs>
</svg>
