<svg width="125" height="35" viewBox="0 0 125 35" fill="none" xmlns="http://www.w3.org/2000/svg">
<mask id="mask0_6590_41863" style="mask-type:luminance" maskUnits="userSpaceOnUse" x="0" y="0" width="125" height="35">
<path d="M0 0H125V34.6774H0V0Z" fill="white"/>
</mask>
<g mask="url(#mask0_6590_41863)">
<path fill-rule="evenodd" clip-rule="evenodd" d="M8.81312 0.302605C9.36352 0.161453 9.91758 -0.00271989 10.4893 0.00515557C16.3851 0.013031 22.2802 0.00636718 28.176 0.010002C28.1961 2.12789 28.1802 4.24699 28.1833 6.36488C22.7568 6.37155 17.3303 6.35761 11.9032 6.37276C9.67411 6.33883 7.62018 8.4434 7.83558 10.6685C7.78066 11.7668 7.80263 12.8664 7.79958 13.9659C14.5948 13.9677 21.3899 13.9659 28.1833 13.9659C28.1851 16.0723 28.1851 18.1781 28.1851 20.2856C21.3899 20.2875 14.5948 20.2838 7.79958 20.2856C7.79775 24.9255 7.79958 29.5647 7.79958 34.2046C5.2221 34.2046 2.64461 34.2046 0.0689621 34.2046C0.0500459 31.0114 0.108015 27.8182 0.0262481 24.6262C0.0408928 20.0233 0.00611148 15.4204 0.0360113 10.8175C0.0952006 8.62332 0.73591 6.41456 2.08994 4.65591C3.73199 2.48168 6.19659 1.01624 8.81312 0.302605ZM29.4757 0.046956C36.4271 0.043927 43.3785 0.0530141 50.3299 0.0421096C50.4452 2.14849 50.2921 4.25911 50.3281 6.3667C43.3785 6.36852 36.4283 6.36367 29.48 6.36852C29.4659 4.26214 29.4769 2.15455 29.4757 0.046956ZM86.53 0.0499851C90.1619 0.043927 93.7938 0.046956 97.4257 0.0487734C97.4239 2.15455 97.4275 4.26032 97.4257 6.3667C93.7938 6.3667 90.1619 6.3667 86.5318 6.36488C86.5281 4.26032 86.5318 2.15455 86.53 0.0499851ZM98.7144 0.0487734C101.294 0.0499851 103.871 0.0360516 106.45 0.0560431C106.474 2.15939 106.541 4.26517 106.442 6.3667C103.866 6.36488 101.29 6.36852 98.7163 6.36488C98.7126 4.26032 98.7144 2.15455 98.7144 0.0487734ZM52.1245 0.046956C57.8634 0.043927 63.6011 0.0518024 69.3407 0.043927C69.3547 2.1497 69.3419 4.25729 69.3468 6.36488C63.606 6.36852 57.8652 6.3667 52.1263 6.3667C52.1245 4.25911 52.1245 2.15334 52.1245 0.046956ZM70.6745 6.36488C70.6776 4.25911 70.6697 2.15152 70.6776 0.0451387C75.6623 0.0499851 80.647 0.0451387 85.6318 0.046956C85.6537 2.15334 85.7019 4.26032 85.6318 6.3667C80.6452 6.3667 75.6611 6.36852 70.6745 6.36488ZM107.345 0.046956C109.61 0.046956 111.875 0.046956 114.14 0.046956C114.14 2.15334 114.14 4.25911 114.138 6.3667C111.875 6.3667 109.61 6.3667 107.345 6.3667C107.343 4.26032 107.345 2.15334 107.345 0.046956ZM117.733 0.046956C120.154 0.046956 122.576 0.046956 124.997 0.046956C124.997 11.5887 124.999 23.1299 124.995 34.6699C122.576 34.6699 120.154 34.668 117.735 34.6717C117.73 23.1299 117.733 11.5887 117.733 0.046956ZM29.4269 9.43146C34.9864 9.42662 40.5459 9.43267 46.1073 9.42783C47.299 9.42359 48.5127 9.73497 49.5031 10.408C50.8516 11.427 51.6918 12.9718 52.1855 14.5535C52.9556 17.0058 53.0648 19.5956 53.138 22.1436C53.182 26.1632 52.8976 30.1833 53.0709 34.2016C49.9186 34.1271 46.7663 34.1828 43.614 34.2452C39.915 34.2294 36.2019 34.3379 32.5182 33.9144C31.9623 33.8338 31.3576 33.8605 30.8706 33.5394C29.1645 32.581 27.9697 30.8593 27.5353 28.9765C26.8903 26.148 27.6402 22.9906 29.6569 20.8612C30.2909 20.2311 31.0097 19.6356 31.861 19.3321C35.2756 18.71 38.7605 18.9117 42.2112 18.8899C43.5487 18.9414 44.8906 18.9614 46.2293 18.8808C46.2147 17.7237 46.3074 16.4661 45.7009 15.4265C45.242 14.6686 44.3048 14.4372 43.4688 14.4342C38.8044 14.4263 34.1401 14.4342 29.4757 14.4312C29.455 12.764 29.516 11.0968 29.4269 9.43146ZM34.9742 24.4469C34.4507 24.5566 34.015 24.9612 33.8789 25.4762C33.6635 26.2843 33.6446 27.1918 34.0199 27.9563C34.3854 28.6415 35.2445 28.7736 35.9517 28.7766C39.3762 28.7766 42.8019 28.7766 46.2275 28.7766C46.2293 27.2906 46.2257 25.8051 46.2293 24.3197C43.1655 24.3148 40.1042 24.3197 37.0422 24.3179C36.352 24.3179 35.6521 24.3009 34.9742 24.4469ZM56.186 9.42964C61.4672 9.42783 66.7504 9.43146 72.0322 9.42783C72.7602 9.41753 73.5022 9.42783 74.2064 9.63138C75.4268 9.96154 76.4623 10.7339 77.3636 11.5887C79.1472 13.6248 79.855 16.3837 79.8147 19.0401C79.8098 22.4011 79.8147 25.7615 79.8129 29.1207C79.7439 30.8097 79.7757 32.5005 79.7848 34.1888C77.3477 34.2246 74.9093 34.1937 72.4728 34.2046C72.4691 28.2695 72.471 22.3357 72.4728 16.4006C72.4881 15.6064 71.901 14.9025 71.1761 14.6268C70.6623 14.3972 70.0857 14.482 69.5402 14.4699C67.3721 14.4639 65.2041 14.4839 63.0361 14.459C62.9982 21.0393 63.0312 27.6225 63.0184 34.2046C60.7429 34.2046 58.4651 34.2028 56.1878 34.2046C56.1841 25.9463 56.186 17.688 56.186 9.42964ZM78.8085 9.4775C81.389 9.4563 83.9714 9.4775 86.5519 9.4666C88.3063 15.0576 90.2229 20.6019 92.4239 26.0365C95.3669 20.76 97.0071 14.9073 99.6145 9.47629C102.051 9.45933 104.489 9.47144 106.927 9.47023C103.579 17.7637 99.5846 25.7942 96.5134 34.1997C93.7846 34.2125 91.054 34.1985 88.3234 34.2064C85.5006 25.8318 81.5062 17.8976 78.8085 9.4775ZM107.345 9.42964C109.61 9.42964 111.875 9.42964 114.14 9.42964C114.142 17.8412 114.137 26.2534 114.143 34.665C111.877 34.6759 109.612 34.665 107.347 34.6699C107.343 26.2564 107.345 17.843 107.345 9.42964Z" fill="#E61E28"/>
</g>
</svg>
