<svg width="119" height="54" viewBox="0 0 119 54" fill="none" xmlns="http://www.w3.org/2000/svg">
<path d="M7.27659 38.2374H1.2781V43.8565H7.27659V41.5921H4.16916V40.6041H8.54307V43.1067C8.54307 43.8149 8.41872 44.2969 8.17003 44.5524C7.91822 44.8073 7.44446 44.9245 6.75434 44.9245H1.79662C1.10525 44.9245 0.633359 44.8005 0.380935 44.5524C0.12851 44.3043 0.00416358 43.8224 0.00789399 43.1067V39.03C0.00789399 38.3205 0.132241 37.8386 0.380935 37.5843C0.629629 37.33 1.10152 37.2059 1.79662 37.2121H6.75061C7.42208 37.2121 7.889 37.3325 8.15137 37.5731C8.41375 37.8137 8.54431 38.2677 8.54307 38.9351V39.1212H7.26913L7.27659 38.2374Z" fill="#345990"/>
<path d="M17.6862 38.205H13.2974V40.9179H17.6862C17.9139 40.9406 18.1424 40.8827 18.3316 40.7541C18.4547 40.6443 18.5181 40.4341 18.5181 40.1234V39.007C18.5301 38.8962 18.5198 38.7842 18.4878 38.6774C18.4557 38.5707 18.4026 38.4715 18.3316 38.3855C18.1452 38.2503 17.9154 38.1887 17.6862 38.2125M12.0234 44.9406V37.2021H18.1786C18.7394 37.2021 19.1485 37.3194 19.4059 37.5538C19.6633 37.7883 19.7901 38.1697 19.7901 38.7V40.4229C19.7901 40.9532 19.6633 41.3365 19.4059 41.5691C19.1485 41.8017 18.74 41.9226 18.1786 41.9226H17.0595L20.5586 44.9331H18.6486L15.5393 41.9226H13.2974V44.9331L12.0234 44.9406Z" fill="#345990"/>
<path d="M24.4084 42.0417H28.538L26.4862 38.086L24.4084 42.0417ZM21.6367 44.9331L25.8185 37.2021H27.182L31.4384 44.9331H30.0301L29.0509 43.0297H23.875L22.8976 44.9331H21.6367Z" fill="#345990"/>
<path d="M33.7188 44.9331V37.2021H34.5208L40.2451 42.371C40.5655 42.6691 40.8583 42.9954 41.1199 43.346C41.0298 42.7157 40.9899 42.0792 41.0005 41.4426V37.2021H42.1849V44.9331H41.4743L35.5877 39.554C35.3695 39.3549 35.2463 39.2395 35.2146 39.2098C35.059 39.0527 34.9242 38.8764 34.8136 38.6851C34.879 39.2471 34.9089 39.8126 34.9032 40.3783V44.9331H33.7188Z" fill="#345990"/>
<path d="M49.9876 38.2367H47.2271V43.8558H49.9876C51.1738 43.8558 52.0237 43.6555 52.5373 43.2548C53.1018 42.8232 53.3841 42.0789 53.3841 41.0221C53.3841 39.9987 53.1018 39.2718 52.5373 38.8414C52.015 38.4407 51.1651 38.241 49.9876 38.2423M50.1741 37.2077C51.517 37.2077 52.4956 37.4074 53.1099 37.8069C53.6134 38.1364 54.0161 38.598 54.2738 39.1409C54.5593 39.7286 54.7036 40.3746 54.6953 41.0276C54.6953 42.5372 54.1669 43.6412 53.1099 44.3396C52.5068 44.739 51.5282 44.9387 50.1741 44.9387H45.9531V37.2021L50.1741 37.2077Z" fill="#345990"/>
<path d="M64.2673 38.2372H58.8582V40.4086H63.676C64.3686 40.4086 64.838 40.5388 65.0842 40.7993C65.3304 41.0598 65.4548 41.5392 65.4573 42.2376V43.1065C65.4573 43.8148 65.3329 44.2967 65.0842 44.5522C64.8355 44.8078 64.3661 44.9318 63.676 44.9244H59.2107C58.5193 44.9244 58.0474 44.8003 57.795 44.5522C57.5426 44.3042 57.4182 43.8223 57.422 43.1065V42.8963H58.6082V43.8526H64.3027V41.5324H59.5017C58.8209 41.5324 58.3527 41.4059 58.1009 41.1603C57.8491 40.9147 57.7278 40.416 57.7278 39.7146V39.0392C57.7278 38.3209 57.8547 37.8353 58.1009 37.586C58.3471 37.3367 58.8209 37.2139 59.5017 37.2139H63.579C64.2318 37.2139 64.6944 37.3317 64.9667 37.5674C65.239 37.8031 65.3746 38.2447 65.3733 38.8922V39.0559H64.2766L64.2673 38.2372Z" fill="#345990"/>
<path d="M72.0952 38.2497V44.9331H70.8194V38.2497H67.3203V37.2021H75.6093V38.2497H72.0952Z" fill="#345990"/>
<path d="M83.231 38.205H78.8422V40.9179H83.231C83.4587 40.9402 83.6871 40.8822 83.8764 40.7541C84.0007 40.645 84.0629 40.4347 84.0629 40.1234V39.007C84.0749 38.8962 84.0646 38.7842 84.0326 38.6774C84.0006 38.5707 83.9475 38.4715 83.8764 38.3855C83.6896 38.2514 83.4601 38.1899 83.231 38.2125M77.5664 44.9406V37.2021H83.7216C84.2824 37.2021 84.6921 37.3194 84.9508 37.5538C85.2094 37.7883 85.3375 38.1703 85.335 38.7V40.4229C85.335 40.9532 85.2063 41.3365 84.9508 41.5691C84.6952 41.8017 84.283 41.9226 83.7216 41.9226H82.6025L86.1016 44.9331H84.1991L81.0898 41.9226H78.8515V44.9331L77.5664 44.9406Z" fill="#345990"/>
<path d="M88.6719 44.9331V37.2021H96.0413V38.2367H89.9477V40.3932H93.6688V41.4128H89.9477V43.8707H96.1028V44.9331H88.6719Z" fill="#345990"/>
<path d="M100.227 42.0417H104.347L102.295 38.086L100.227 42.0417ZM97.4531 44.9331L101.635 37.2021H102.998L107.251 44.9331H105.841L104.862 43.0297H99.6914L98.7121 44.9331H97.4531Z" fill="#345990"/>
<path d="M110.557 38.5809C110.602 38.9588 110.622 39.3391 110.617 39.7196V44.9294H109.535V37.2021H110.572L114.303 42.2371L117.772 37.2021H118.958V44.935H117.772V39.7252L117.832 38.5865C117.701 38.8781 117.547 39.1587 117.371 39.4256L114.443 43.72H114.116L111.078 39.5391C110.878 39.2345 110.704 38.914 110.557 38.5809Z" fill="#345990"/>
<path d="M2.4856 51.4375H0.532733V53.5735H2.4856V52.9409H2.95377V53.2888C2.97763 53.4852 2.92925 53.6835 2.81761 53.847C2.67009 53.9604 2.48404 54.0118 2.29908 53.9903H0.724849C0.539091 54.0109 0.352541 53.9589 0.204455 53.8452C0.091025 53.6824 0.0412625 53.4838 0.064565 53.287V51.7408C0.0403741 51.5438 0.0902148 51.345 0.204455 51.1826C0.277369 51.1254 0.360866 51.0832 0.450163 51.0583C0.539459 51.0334 0.632802 51.0263 0.724849 51.0374H2.29908C2.48353 51.0151 2.66945 51.0651 2.81761 51.177C2.93021 51.34 2.97868 51.5387 2.95377 51.7352V52.0143H2.4856V51.4375Z" fill="#345990"/>
<path d="M6.87648 53.5729H9.20426V51.4369H6.87648V53.5729ZM6.40831 51.7402C6.38412 51.5433 6.43396 51.3444 6.54821 51.182C6.69547 51.0665 6.88249 51.0137 7.0686 51.035H9.01774C9.10961 51.0243 9.2027 51.0318 9.29168 51.057C9.38066 51.0822 9.46377 51.1247 9.53626 51.182C9.64806 51.3454 9.69646 51.5438 9.67242 51.7402V53.2901C9.69561 53.4865 9.64728 53.6846 9.53626 53.8483C9.3892 53.9627 9.20297 54.0148 9.01774 53.9934H7.0686C6.88282 54.0143 6.6962 53.9623 6.54821 53.8483C6.43477 53.6856 6.38501 53.487 6.40831 53.2901V51.7402Z" fill="#345990"/>
<path d="M13.3555 53.9846V51.043H13.6502L15.7541 53.0097C15.8727 53.1237 15.9807 53.2483 16.0768 53.3818C16.0432 53.1421 16.0282 52.9001 16.032 52.658V51.0448H16.4685V53.9865H16.2055L14.0419 51.9398C13.9617 51.8635 13.9169 51.8207 13.9057 51.8077C13.8487 51.7482 13.7992 51.682 13.7584 51.6105C13.7829 51.8242 13.7941 52.0392 13.7919 52.2542V53.9865L13.3555 53.9846Z" fill="#345990"/>
<path d="M20.1758 53.9846V51.043H20.4705L22.567 53.0097C22.6849 53.1238 22.7923 53.2484 22.8878 53.3818C22.8549 53.142 22.8406 52.9 22.8449 52.658V51.0448H23.2795V53.9865H23.0184L20.8547 51.9398C20.7745 51.8635 20.7297 51.8207 20.7186 51.8077C20.6609 51.7487 20.6114 51.6824 20.5712 51.6105C20.5957 51.8242 20.607 52.0392 20.6048 52.2542V53.9865L20.1758 53.9846Z" fill="#345990"/>
<path d="M27 51.0439V53.9838H29.7307V53.5781H27.4682V52.6441H28.8372V52.2571H27.4682V51.4365H29.7083V51.0439H27Z" fill="#345990"/>
<path d="M35.4895 51.4375H33.5385V53.5735H35.4895V52.9409H35.9577V53.2889C35.9815 53.4852 35.9332 53.6836 35.8215 53.8471C35.6747 53.9605 35.4892 54.0119 35.3048 53.9903H33.7287C33.543 54.011 33.3564 53.959 33.2084 53.8452C33.0949 53.6824 33.0452 53.4839 33.0685 53.287V51.7408C33.0443 51.5439 33.0941 51.345 33.2084 51.1826C33.2813 51.1255 33.3648 51.0832 33.4541 51.0583C33.5434 51.0334 33.6367 51.0263 33.7287 51.0375H35.3048C35.4887 51.015 35.6741 51.0651 35.8215 51.177C35.9341 51.3401 35.9826 51.5388 35.9577 51.7352V52.0143H35.4895V51.4375Z" fill="#345990"/>
<path d="M38.7852 51.0439V51.4421H40.0721V53.9838H40.5403V51.4421H41.831V51.0439H38.7852Z" fill="#345990"/>
<path d="M45.3471 51.0439H44.8789V53.9838H45.3471V51.0439Z" fill="#345990"/>
<path d="M49.0664 53.9846V51.043H49.363L51.4651 53.0097C51.5837 53.1237 51.6917 53.2483 51.7877 53.3818C51.7541 53.1421 51.7391 52.9001 51.743 52.658V51.0448H52.1794V53.9865H51.9183L49.7547 51.9398C49.6745 51.8635 49.6297 51.8207 49.6185 51.8077C49.5604 51.7492 49.5108 51.6828 49.4712 51.6105C49.494 51.8243 49.5046 52.0392 49.5029 52.2542V53.9865L49.0664 53.9846Z" fill="#345990"/>
<path d="M58.5246 51.4372H56.3293V53.5732H58.5321V52.7136H57.3924V52.3415H59.0002V53.2923C59.0231 53.4889 58.974 53.687 58.8622 53.8505C58.714 53.9639 58.5276 54.0159 58.3418 53.9956H56.5158C56.3301 54.0159 56.1437 53.9639 55.9954 53.8505C55.8836 53.687 55.8346 53.4889 55.8574 53.2923V51.7405C55.8337 51.5439 55.8828 51.3454 55.9954 51.1823C56.1428 51.0673 56.3299 51.0151 56.5158 51.0372H58.3381C58.5206 51.0178 58.7039 51.0661 58.8529 51.173C58.9661 51.3211 59.0176 51.5071 58.9965 51.6921V51.7647H58.5284L58.5246 51.4372Z" fill="#345990"/>
<path d="M66.2344 51.0439V51.4421H67.5214V53.9838H67.9895V51.4421H69.2821V51.0439H66.2344Z" fill="#345990"/>
<path d="M75.012 51.0439V52.2441H72.7942V51.0439H72.3242V53.9838H72.7942V52.6497H75.012V53.9838H75.4801V51.0439H75.012Z" fill="#345990"/>
<path d="M79.1992 51.0439V53.9838H81.9299V53.5781H79.6693V52.6441H81.0364V52.2571H79.6693V51.4365H81.9075V51.0439H79.1992Z" fill="#345990"/>
<path d="M117.166 51.4374H116.152V53.5734H117.166C117.601 53.5734 117.913 53.4972 118.099 53.3446C118.286 53.192 118.411 52.898 118.411 52.4943C118.411 52.0905 118.306 51.83 118.099 51.6663C117.892 51.5025 117.595 51.4374 117.166 51.4374ZM117.232 51.043C117.729 51.043 118.088 51.1193 118.31 51.2718C118.497 51.3982 118.645 51.5732 118.739 51.7779C118.843 52.0035 118.896 52.2495 118.894 52.498C118.894 53.0711 118.699 53.4903 118.31 53.7558C118.088 53.9084 117.73 53.9846 117.232 53.9846H115.684V51.043H117.232Z" fill="#345990"/>
<path d="M96.9779 53.5729H99.3057V51.4368H96.9779V53.5729ZM96.5097 51.7401C96.4861 51.5435 96.5351 51.345 96.6477 51.1819C96.796 51.067 96.9834 51.0143 97.17 51.035H99.1191C99.3047 51.0135 99.4912 51.0664 99.6377 51.1819C99.7503 51.345 99.7994 51.5435 99.7757 51.7401V53.2901C99.7985 53.4866 99.7495 53.6848 99.6377 53.8482C99.4904 53.9623 99.3043 54.0143 99.1191 53.9934H97.1756C96.9893 54.0135 96.8024 53.9616 96.6533 53.8482C96.5415 53.6848 96.4925 53.4866 96.5153 53.2901L96.5097 51.7401Z" fill="#345990"/>
<path d="M105.535 51.425H103.921V52.4558H105.535C105.619 52.4636 105.704 52.4412 105.773 52.3925C105.826 52.3248 105.85 52.2394 105.841 52.1544V51.7264C105.851 51.6845 105.849 51.6407 105.838 51.5993C105.826 51.5579 105.803 51.5203 105.772 51.49C105.742 51.4598 105.704 51.4379 105.662 51.4265C105.62 51.4151 105.577 51.4146 105.535 51.425ZM103.453 53.9834V51.0417H105.716C105.878 51.0269 106.039 51.0749 106.167 51.1757C106.219 51.235 106.259 51.3044 106.283 51.3796C106.308 51.4548 106.316 51.5342 106.309 51.6129V52.2679C106.316 52.3463 106.308 52.4253 106.283 52.5002C106.259 52.5751 106.219 52.6442 106.167 52.7032C106.039 52.804 105.878 52.852 105.716 52.8372H105.303L106.589 53.9834H105.891L104.748 52.8372H103.921V53.9834H103.453Z" fill="#345990"/>
<path d="M109.867 51.0439V53.9838H112.467V53.5726H110.335V51.0439H109.867Z" fill="#345990"/>
<path d="M92.9674 51.0439L92.1989 53.3791L91.3987 51.0439H91.1096L90.2815 53.3791L89.5186 51.0439H89.043L90.0632 53.9838H90.4325L91.2402 51.7603L92.0198 53.9838H92.3686L93.387 51.0439H92.9674Z" fill="#345990"/>
<path d="M0 48.0259H119" stroke="#345990" stroke-width="0.06" stroke-miterlimit="10"/>
<mask id="mask0_6590_41813" style="mask-type:luminance" maskUnits="userSpaceOnUse" x="61" y="10" width="14" height="14">
<path d="M61.2656 10.854C61.2656 10.854 68.9876 18.5813 67.7621 23.5659C67.7621 23.5659 68.5977 23.0673 69.6665 22.3584L69.9164 22.189C70.2074 21.7704 70.5954 21.5322 71.0467 21.2829L71.3918 21.0968C71.6194 20.9108 71.8339 20.7098 72.0521 20.5387L72.1118 20.4884C72.5464 20.2465 73.0164 19.8167 73.3577 19.573L73.3689 19.5618C73.8632 19.0632 74.1728 18.5757 74.1728 18.2389C74.1728 16.9327 70.2951 12.804 61.2656 10.854Z" fill="white"/>
</mask>
<g mask="url(#mask0_6590_41813)">
<path d="M74.171 10.854H61.2656V23.5659H74.171V10.854Z" fill="url(#paint0_linear_6590_41813)"/>
</g>
<mask id="mask1_6590_41813" style="mask-type:luminance" maskUnits="userSpaceOnUse" x="44" y="0" width="26" height="12">
<path d="M51.5606 0.0148827C50.5281 0.0554208 49.5018 0.19499 48.4961 0.431665C47.7121 0.646811 46.9596 0.963323 46.2579 1.37315C46.1609 1.43269 46.0713 1.49595 45.9687 1.55921C45.6664 1.76741 45.3886 2.00897 45.1406 2.27929C44.9677 2.50405 44.8646 2.77444 44.844 3.05704C44.8049 5.81079 48.8915 11.9211 48.8915 11.9211C48.7777 3.10355 69.1495 5.03676 69.1495 5.03676C61.4294 1.14243 55.9271 0 52.1258 0C51.9393 0 51.7527 -2.27143e-06 51.5662 0.00930095" fill="white"/>
</mask>
<g mask="url(#mask1_6590_41813)">
<path d="M38.9062 5.96251L56.9763 -12.2979L75.0446 5.96251L56.9763 24.221L38.9062 5.96251Z" fill="url(#paint1_linear_6590_41813)"/>
</g>
<mask id="mask2_6590_41813" style="mask-type:luminance" maskUnits="userSpaceOnUse" x="44" y="2" width="30" height="29">
<path d="M44.8341 3.47026C46.0652 21.0478 52.8825 29.7054 54.9659 30.8664C57.5101 32.2842 73.3606 19.55 73.3606 19.55C56.695 22.434 45.3825 4.4992 44.9106 2.71484C44.8411 2.95645 44.8152 3.20846 44.8341 3.4591" fill="white"/>
</mask>
<g mask="url(#mask2_6590_41813)">
<path d="M73.3615 2.72266H44.8164V32.2846H73.3615V2.72266Z" fill="url(#paint2_linear_6590_41813)"/>
</g>
<defs>
<linearGradient id="paint0_linear_6590_41813" x1="61.2969" y1="17.0905" x2="74.2069" y2="17.0905" gradientUnits="userSpaceOnUse">
<stop stop-color="#939598"/>
<stop offset="0.48" stop-color="#797B7D"/>
<stop offset="1" stop-color="#58595B"/>
</linearGradient>
<linearGradient id="paint1_linear_6590_41813" x1="50.5296" y1="13.8688" x2="64.2173" y2="0.147583" gradientUnits="userSpaceOnUse">
<stop stop-color="#00052C"/>
<stop offset="0.11" stop-color="#00052C"/>
<stop offset="0.13" stop-color="#030D33"/>
<stop offset="0.22" stop-color="#12365C"/>
<stop offset="0.33" stop-color="#20597E"/>
<stop offset="0.43" stop-color="#2B769B"/>
<stop offset="0.54" stop-color="#338CB1"/>
<stop offset="0.67" stop-color="#399CC0"/>
<stop offset="0.81" stop-color="#3DA5C9"/>
<stop offset="1" stop-color="#3EA8CC"/>
</linearGradient>
<linearGradient id="paint2_linear_6590_41813" x1="44.8461" y1="17.2204" x2="73.3848" y2="17.2204" gradientUnits="userSpaceOnUse">
<stop stop-color="#0D274D"/>
<stop offset="0.11" stop-color="#183560"/>
<stop offset="0.28" stop-color="#244575"/>
<stop offset="0.46" stop-color="#2D5084"/>
<stop offset="0.68" stop-color="#32578D"/>
<stop offset="1" stop-color="#345990"/>
</linearGradient>
</defs>
</svg>
