<svg width="540" height="476" viewBox="0 0 540 476" fill="none" xmlns="http://www.w3.org/2000/svg">
<rect width="540" height="476" rx="12" fill="#F6F7F8"/>
<path d="M144.767 174.278H126.628C109.884 174.278 105 182.669 105 198.052V400.828C105 420.406 107.791 426 126.628 426H408.488C426.628 426 435 418.308 435 400.828V348.386V327.409V198.052C435 179.872 425.93 174.278 408.488 174.278H220.116H144.767Z" fill="white" stroke="#344351"/>
<path d="M163.603 154C141.975 154 144.766 160.293 144.766 174.278L144.766 383.346C144.766 398.03 150.347 402.226 164.301 402.226H202.673C215.929 402.226 220.115 395.233 220.115 383.346V174.278C220.115 156.098 220.115 154 196.394 154H163.603Z" fill="white" stroke="#344351"/>
<path d="M253.605 234.914C253.605 232.705 255.396 230.914 257.605 230.914H382.164C384.373 230.914 386.164 232.705 386.164 234.914V268.868C386.164 271.077 384.373 272.868 382.164 272.868H257.605C255.396 272.868 253.605 271.077 253.605 268.868V234.914Z" fill="#57A8F3"/>
<g clip-path="url(#clip0_6022_33666)">
<path d="M361.933 247.379V251.969H357.517V247.379H354.449V259.346H357.517V254.599H361.933V259.346H365.001V247.379H361.933Z" fill="white"/>
<path d="M348.292 247.423C347.333 247.255 346.348 247.331 345.424 247.645C344.075 248.11 342.937 249.066 342.225 250.334C341.513 251.601 341.275 253.092 341.557 254.527C341.839 255.962 342.62 257.242 343.755 258.126C344.889 259.01 346.299 259.437 347.718 259.328C349.138 259.218 350.469 258.579 351.463 257.531C352.457 256.483 353.044 255.098 353.114 253.636C353.185 252.174 352.734 250.736 351.846 249.592C350.958 248.448 349.694 247.677 348.292 247.423V247.423ZM348.062 256.53C347.254 256.722 346.404 256.582 345.693 256.142C344.982 255.702 344.465 254.994 344.251 254.17C344.037 253.345 344.143 252.467 344.547 251.721C344.95 250.975 345.619 250.419 346.414 250.171C346.978 250.011 347.574 250.011 348.139 250.171C348.83 250.357 349.44 250.776 349.873 251.361C350.305 251.945 350.536 252.662 350.527 253.396C350.518 254.131 350.271 254.841 349.824 255.414C349.378 255.987 348.758 256.391 348.062 256.56V256.53Z" fill="white"/>
<path d="M320.233 246.799V250.003C320.959 250.367 321.544 250.973 321.892 251.722C322.24 252.471 322.33 253.32 322.149 254.129C321.968 254.938 321.525 255.66 320.893 256.177C320.261 256.694 319.478 256.976 318.67 256.976C317.863 256.976 317.079 256.694 316.447 256.177C315.816 255.66 315.373 254.938 315.191 254.129C315.01 253.32 315.101 252.471 315.449 251.722C315.797 250.973 316.381 250.367 317.107 250.003V246.799C315.563 247.192 314.211 248.152 313.308 249.499C312.404 250.847 312.012 252.487 312.204 254.112C312.396 255.736 313.16 257.232 314.351 258.317C315.543 259.402 317.079 260.001 318.67 260.001C320.261 260.001 321.798 259.402 322.989 258.317C324.18 257.232 324.944 255.736 325.136 254.112C325.329 252.487 324.936 250.847 324.033 249.499C323.129 248.152 321.778 247.192 320.233 246.799Z" fill="white"/>
<path d="M316.688 253.65C316.755 254.027 316.921 254.379 317.167 254.668C317.413 254.956 317.73 255.171 318.085 255.29C318.44 255.408 318.819 255.426 319.183 255.34C319.547 255.255 319.882 255.07 320.152 254.805C320.422 254.54 320.617 254.205 320.717 253.835C320.817 253.465 320.818 253.075 320.719 252.705C320.621 252.334 320.427 251.998 320.158 251.732C319.889 251.466 319.556 251.28 319.192 251.193V246.597H318.236V251.173C317.721 251.3 317.272 251.626 316.983 252.083C316.694 252.54 316.586 253.094 316.683 253.63L316.688 253.65Z" fill="white"/>
<path d="M334.614 248.269V247.379H331.68V248.269C331.427 248.308 331.202 248.352 330.934 248.416C328.186 249.099 326.203 251.021 326.203 253.282C326.203 255.739 328.55 257.803 331.68 258.3V259.346H334.614V258.3C337.745 257.808 340.091 255.749 340.091 253.282C340.091 250.815 337.745 248.77 334.614 248.269ZM329.357 253.282C329.357 252.112 330.313 251.114 331.694 250.687V255.882C330.308 255.454 329.343 254.451 329.343 253.282H329.357ZM334.614 255.882V250.687C335.986 251.114 336.951 252.112 336.951 253.282C336.951 254.451 335.986 255.454 334.614 255.882Z" fill="white"/>
<path d="M282.355 243H275C275 244.297 275.908 245.015 277.084 245.408V256.712C275.903 257.076 275 257.813 275 259.346H281.772C283.722 259.346 285.079 259.101 285.849 258.599C287.043 257.818 287.335 256.633 287.335 255.061V247.512C287.335 244.474 285.906 243 282.355 243ZM283.875 254.589C283.875 255.832 283.148 256.456 281.681 256.456C281.261 256.456 280.725 256.432 280.181 256.422V245.875C280.787 245.9 281.332 245.875 281.724 245.875C283.193 245.875 283.926 246.53 283.923 247.841C283.923 249.168 283.875 253.321 283.875 254.589Z" fill="white"/>
<path d="M294.47 247.448C290.623 247.448 288.859 250.637 288.859 253.527C288.859 257.09 291.015 259.327 294.776 259.327C296.145 259.358 297.507 259.115 298.786 258.609V256.206C297.645 256.548 296.461 256.714 295.273 256.697C293.667 256.697 292.238 255.999 292.147 254.53H299.297C299.375 254.067 299.413 253.599 299.412 253.129C299.412 250.313 298.054 247.448 294.47 247.448ZM292.138 252.107C292.229 251.173 292.816 249.797 294.269 249.797C295.856 249.797 296.219 251.242 296.219 252.107H292.138Z" fill="white"/>
<path d="M305.452 247.595C304.018 247.993 301.748 249.325 301.748 251.915V255.479C301.748 257.105 301.385 257.1 300.763 257.725C300.563 257.921 300.405 258.16 300.303 258.424C300.201 258.689 300.156 258.974 300.171 259.258H303.258C304.4 259.258 304.988 257.567 304.988 255.488V252.171C304.987 251.61 305.202 251.071 305.586 250.672C306.045 250.23 306.636 249.961 307.263 249.91H307.406V259.248H310.714V247.453H306.173C305.928 247.468 305.685 247.516 305.452 247.595V247.595Z" fill="white"/>
</g>
<path d="M243.258 217.43H396.514C398.999 217.43 401.014 219.444 401.014 221.93V283.251C401.014 285.736 398.999 287.751 396.514 287.751H243.258C240.773 287.751 238.758 285.736 238.758 283.251V221.93C238.758 219.444 240.773 217.43 243.258 217.43Z" stroke="#344351"/>
<ellipse cx="249.419" cy="317.62" rx="8.37208" ry="8.3912" fill="#F88C28"/>
<ellipse cx="388.954" cy="317.62" rx="8.37212" ry="8.3912" fill="#F88C28"/>
<ellipse cx="249.419" cy="355.378" rx="8.37208" ry="8.3912" fill="#F88C28"/>
<ellipse cx="388.954" cy="355.378" rx="8.37212" ry="8.3912" fill="#F88C28"/>
<ellipse cx="249.419" cy="393.135" rx="8.37208" ry="8.39118" fill="#F88C28"/>
<ellipse cx="388.954" cy="393.135" rx="8.37212" ry="8.39118" fill="#F88C28"/>
<rect x="282.906" y="309.229" width="16.7442" height="16.7824" rx="2" fill="#F88C28"/>
<rect x="282.906" y="346.986" width="16.7442" height="16.7824" rx="2" fill="#F88C28"/>
<rect x="282.906" y="384.744" width="16.7442" height="16.7824" rx="2" fill="#F88C28"/>
<rect x="310.812" y="309.229" width="16.7443" height="16.7824" rx="2" fill="#F88C28"/>
<rect x="310.812" y="346.986" width="16.7443" height="16.7824" rx="2" fill="#F88C28"/>
<rect x="310.812" y="384.744" width="16.7443" height="16.7824" rx="2" fill="#F88C28"/>
<rect x="338.723" y="309.229" width="16.7442" height="16.7824" rx="2" fill="#F88C28"/>
<rect x="338.723" y="346.986" width="16.7442" height="16.7824" rx="2" fill="#F88C28"/>
<rect x="338.723" y="384.744" width="16.7442" height="16.7824" rx="2" fill="#F88C28"/>
<path d="M35.32 69V67.952C35.6133 67.9787 35.856 67.968 36.048 67.92C36.24 67.8667 36.3947 67.7493 36.512 67.568C36.6347 67.3867 36.7413 67.1173 36.832 66.76C36.9227 66.3973 37.0133 65.9253 37.104 65.344C37.2053 64.7147 37.2907 64.088 37.36 63.464C37.4347 62.84 37.4987 62.208 37.552 61.568C37.6107 60.9227 37.6587 60.2613 37.696 59.584C37.7333 58.9067 37.768 58.2053 37.8 57.48H45.072V69H43.896V58.608H38.936C38.8987 59.1573 38.8613 59.72 38.824 60.296C38.792 60.872 38.7493 61.4613 38.696 62.064C38.648 62.6667 38.5867 63.288 38.512 63.928C38.4427 64.5627 38.3547 65.2187 38.248 65.896C38.1627 66.408 38.0613 66.8827 37.944 67.32C37.832 67.7573 37.672 68.1253 37.464 68.424C37.2613 68.7227 36.9867 68.928 36.64 69.04C36.2987 69.152 35.8587 69.1387 35.32 69ZM50.9155 69.24C50.0568 69.24 49.3235 69.0453 48.7155 68.656C48.1075 68.2667 47.6408 67.728 47.3155 67.04C46.9902 66.352 46.8275 65.5627 46.8275 64.672C46.8275 63.7653 46.9928 62.9707 47.3235 62.288C47.6542 61.6053 48.1235 61.0747 48.7315 60.696C49.3448 60.312 50.0728 60.12 50.9155 60.12C51.7795 60.12 52.5155 60.3147 53.1235 60.704C53.7368 61.088 54.2035 61.624 54.5235 62.312C54.8488 62.9947 55.0115 63.7813 55.0115 64.672C55.0115 65.5787 54.8488 66.376 54.5235 67.064C54.1982 67.7467 53.7288 68.28 53.1155 68.664C52.5022 69.048 51.7688 69.24 50.9155 69.24ZM50.9155 68.112C51.8755 68.112 52.5902 67.7947 53.0595 67.16C53.5288 66.52 53.7635 65.6907 53.7635 64.672C53.7635 63.6267 53.5262 62.7947 53.0515 62.176C52.5822 61.5573 51.8702 61.248 50.9155 61.248C50.2702 61.248 49.7368 61.3947 49.3155 61.688C48.8995 61.976 48.5875 62.3787 48.3795 62.896C48.1768 63.408 48.0755 64 48.0755 64.672C48.0755 65.712 48.3155 66.5467 48.7955 67.176C49.2755 67.8 49.9822 68.112 50.9155 68.112ZM56.7763 69V60.36H62.6963V61.488H57.9523V69H56.7763ZM71.0778 60.36V69H69.9338V62.272L65.1978 69H64.2058V60.36H65.3498V67.032L70.0938 60.36H71.0778ZM73.3151 69V60.36H74.4911V64.112H79.3631V60.36H80.5391V69H79.3631V65.24H74.4911V69H73.3151Z" fill="#344351"/>
<path d="M286.12 69V57.48H294.944V69H293.768V58.608H287.296V69H286.12ZM299.655 69.24C299.004 69.24 298.457 69.1227 298.015 68.888C297.577 68.6533 297.249 68.3413 297.031 67.952C296.812 67.5627 296.703 67.1387 296.703 66.68C296.703 66.2107 296.796 65.8107 296.983 65.48C297.175 65.144 297.433 64.8693 297.759 64.656C298.089 64.4427 298.471 64.28 298.903 64.168C299.34 64.0613 299.823 63.968 300.351 63.888C300.884 63.8027 301.404 63.7307 301.911 63.672C302.423 63.608 302.871 63.5467 303.255 63.488L302.839 63.744C302.855 62.8907 302.689 62.2587 302.343 61.848C301.996 61.4373 301.393 61.232 300.535 61.232C299.943 61.232 299.441 61.3653 299.031 61.632C298.625 61.8987 298.34 62.32 298.174 62.896L297.031 62.56C297.228 61.7867 297.625 61.1867 298.223 60.76C298.82 60.3333 299.596 60.12 300.551 60.12C301.34 60.12 302.009 60.2693 302.559 60.568C303.113 60.8613 303.505 61.288 303.735 61.848C303.841 62.0987 303.911 62.3787 303.943 62.688C303.975 62.9973 303.991 63.312 303.991 63.632V69H302.943V66.832L303.247 66.96C302.953 67.7013 302.497 68.2667 301.879 68.656C301.26 69.0453 300.519 69.24 299.655 69.24ZM299.791 68.224C300.34 68.224 300.82 68.1253 301.231 67.928C301.641 67.7307 301.972 67.4613 302.223 67.12C302.473 66.7733 302.636 66.384 302.711 65.952C302.775 65.6747 302.809 65.3707 302.815 65.04C302.82 64.704 302.823 64.4533 302.823 64.288L303.271 64.52C302.871 64.5733 302.436 64.6267 301.967 64.68C301.503 64.7333 301.044 64.7947 300.591 64.864C300.143 64.9333 299.737 65.016 299.375 65.112C299.129 65.1813 298.892 65.28 298.663 65.408C298.433 65.5307 298.244 65.696 298.095 65.904C297.951 66.112 297.879 66.3707 297.879 66.68C297.879 66.9307 297.94 67.1733 298.062 67.408C298.191 67.6427 298.393 67.8373 298.671 67.992C298.953 68.1467 299.327 68.224 299.791 68.224ZM309.953 69.24C309.158 69.24 308.486 69.04 307.937 68.64C307.388 68.2347 306.972 67.688 306.689 67C306.406 66.3067 306.265 65.5307 306.265 64.672C306.265 63.7973 306.406 63.0187 306.689 62.336C306.977 61.648 307.398 61.1067 307.953 60.712C308.508 60.3173 309.19 60.12 310.001 60.12C310.79 60.12 311.468 60.32 312.033 60.72C312.598 61.12 313.03 61.664 313.329 62.352C313.633 63.04 313.785 63.8133 313.785 64.672C313.785 65.536 313.633 66.312 313.329 67C313.025 67.688 312.588 68.2347 312.017 68.64C311.446 69.04 310.758 69.24 309.953 69.24ZM306.065 72.84V60.36H307.121V66.864H307.249V72.84H306.065ZM309.833 68.144C310.436 68.144 310.937 67.992 311.337 67.688C311.737 67.384 312.036 66.9707 312.233 66.448C312.436 65.92 312.537 65.328 312.537 64.672C312.537 64.0213 312.438 63.4347 312.241 62.912C312.044 62.3893 311.742 61.976 311.337 61.672C310.937 61.368 310.428 61.216 309.809 61.216C309.206 61.216 308.705 61.3627 308.305 61.656C307.91 61.9493 307.614 62.3573 307.417 62.88C307.22 63.3973 307.121 63.9947 307.121 64.672C307.121 65.3387 307.22 65.936 307.417 66.464C307.614 66.9867 307.913 67.3973 308.313 67.696C308.713 67.9947 309.22 68.144 309.833 68.144ZM319.15 69.24C318.291 69.24 317.558 69.0453 316.95 68.656C316.342 68.2667 315.875 67.728 315.55 67.04C315.225 66.352 315.062 65.5627 315.062 64.672C315.062 63.7653 315.227 62.9707 315.558 62.288C315.889 61.6053 316.358 61.0747 316.966 60.696C317.579 60.312 318.307 60.12 319.15 60.12C320.014 60.12 320.75 60.3147 321.358 60.704C321.971 61.088 322.438 61.624 322.758 62.312C323.083 62.9947 323.246 63.7813 323.246 64.672C323.246 65.5787 323.083 66.376 322.758 67.064C322.433 67.7467 321.963 68.28 321.35 68.664C320.737 69.048 320.003 69.24 319.15 69.24ZM319.15 68.112C320.11 68.112 320.825 67.7947 321.294 67.16C321.763 66.52 321.998 65.6907 321.998 64.672C321.998 63.6267 321.761 62.7947 321.286 62.176C320.817 61.5573 320.105 61.248 319.15 61.248C318.505 61.248 317.971 61.3947 317.55 61.688C317.134 61.976 316.822 62.3787 316.614 62.896C316.411 63.408 316.31 64 316.31 64.672C316.31 65.712 316.55 66.5467 317.03 67.176C317.51 67.8 318.217 68.112 319.15 68.112ZM324.211 69V67.968C324.531 68.0267 324.773 68.0133 324.939 67.928C325.109 67.8373 325.235 67.688 325.315 67.48C325.395 67.2667 325.461 67.0027 325.515 66.688C325.6 66.1653 325.677 65.5893 325.747 64.96C325.816 64.3307 325.877 63.6373 325.931 62.88C325.989 62.1173 326.048 61.2773 326.107 60.36H331.979V69H330.811V61.488H327.195C327.157 62.0533 327.115 62.616 327.067 63.176C327.019 63.736 326.968 64.2747 326.915 64.792C326.867 65.304 326.813 65.776 326.755 66.208C326.696 66.64 326.635 67.0133 326.571 67.328C326.475 67.8027 326.347 68.1813 326.187 68.464C326.032 68.7467 325.8 68.9333 325.491 69.024C325.181 69.1147 324.755 69.1067 324.211 69ZM334.222 69L334.206 60.36H335.39V63.616H337.414C337.664 63.616 337.91 63.6213 338.15 63.632C338.395 63.6427 338.611 63.664 338.798 63.696C339.224 63.776 339.603 63.9173 339.934 64.12C340.27 64.3227 340.531 64.6027 340.718 64.96C340.91 65.3173 341.006 65.7653 341.006 66.304C341.006 67.0453 340.814 67.6293 340.43 68.056C340.051 68.4827 339.571 68.76 338.99 68.888C338.771 68.936 338.534 68.968 338.278 68.984C338.022 68.9947 337.768 69 337.518 69H334.222ZM335.39 67.992H337.47C337.651 67.992 337.854 67.9867 338.078 67.976C338.302 67.9653 338.499 67.936 338.67 67.888C338.952 67.808 339.208 67.648 339.438 67.408C339.672 67.1627 339.79 66.7947 339.79 66.304C339.79 65.8187 339.678 65.4533 339.454 65.208C339.23 64.9573 338.931 64.792 338.558 64.712C338.392 64.6747 338.214 64.6507 338.022 64.64C337.83 64.6293 337.646 64.624 337.47 64.624H335.39V67.992Z" fill="#344351"/>
<rect x="35" y="82" width="220" height="41" rx="5" fill="white"/>
<rect x="285" y="82" width="220" height="41" rx="5" fill="white"/>
<defs>
<clipPath id="clip0_6022_33666">
<rect width="90" height="17" fill="white" transform="translate(275 243)"/>
</clipPath>
</defs>
</svg>
