<svg width="271" height="121" viewBox="0 0 271 121" fill="none" xmlns="http://www.w3.org/2000/svg">
<path d="M163.172 60.4999C168.536 58.7499 179.414 54.1999 180.013 49.9999" stroke="#F88C28" stroke-linecap="round" stroke-dasharray="3 3"/>
<path d="M29.9375 60.5L64.3686 60.5" stroke="#F88C28" stroke-linecap="round" stroke-dasharray="3 3"/>
<path d="M142.215 60.5H216.029C219.881 60.5 223.651 61.6126 226.887 63.704L233.532 68" stroke="#F88C28" stroke-linecap="round" stroke-dasharray="3 3"/>
<path d="M201.348 60.5C204.466 60.125 211.677 57.425 215.569 49.625" stroke="#F88C28" stroke-linecap="round" stroke-dasharray="3 3"/>
<path d="M187.875 60.5C191.618 61.375 199.402 64.175 200.6 68.375" stroke="#F88C28" stroke-linecap="round" stroke-dasharray="3 3"/>
<path d="M150.449 60.5C154.566 61.5 163.249 64.475 165.045 68.375" stroke="#F88C28" stroke-linecap="round" stroke-dasharray="3 3"/>
<path d="M53.8906 45.5L65.8667 49.25" stroke="#F88C28" stroke-linecap="round" stroke-dasharray="3 3"/>
<path d="M55.3906 74.375L66.6182 71.75" stroke="#F88C28" stroke-linecap="round" stroke-dasharray="3 3"/>
<path d="M141.715 59C141.715 80.2639 124.512 97.5 103.293 97.5C82.0742 97.5 64.8711 80.2639 64.8711 59C64.8711 37.7361 82.0742 20.5 103.293 20.5C124.512 20.5 141.715 37.7361 141.715 59Z" fill="white" stroke="#344351"/>
<path d="M107.78 41V49.9201C109.866 50.9319 111.545 52.6184 112.545 54.7041C113.545 56.7899 113.805 59.1518 113.284 61.4041C112.763 63.6565 111.491 65.6664 109.676 67.1056C107.861 68.5448 105.61 69.3284 103.291 69.3284C100.971 69.3284 98.7201 68.5448 96.9051 67.1056C95.0901 65.6664 93.8182 63.6565 93.2972 61.4041C92.7762 59.1518 93.0368 56.7899 94.0365 54.7041C95.0362 52.6184 96.7159 50.9319 98.8013 49.9201V41C94.3636 42.0929 90.4807 44.7668 87.8857 48.5169C85.2906 52.2671 84.1629 56.8341 84.7153 61.3561C85.2677 65.878 87.462 70.0421 90.8842 73.0623C94.3063 76.0826 98.7194 77.75 103.291 77.75C107.862 77.75 112.275 76.0826 115.697 73.0623C119.119 70.0421 121.314 65.878 121.866 61.3561C122.418 56.8341 121.291 52.2671 118.696 48.5169C116.101 44.7668 112.218 42.0929 107.78 41Z" fill="#2B8FEB"/>
<path d="M97.4186 60.0944C97.6135 61.1565 98.0917 62.146 98.8024 62.9582C99.5132 63.7704 100.43 64.375 101.456 64.7081C102.482 65.0411 103.579 65.0902 104.63 64.8501C105.682 64.61 106.649 64.0897 107.429 63.3442C108.209 62.5988 108.774 61.6559 109.062 60.6155C109.351 59.5751 109.354 58.4758 109.069 57.4341C108.785 56.3925 108.225 55.4471 107.448 54.6982C106.671 53.9493 105.706 53.4247 104.656 53.18V40.25H101.893V53.1247C100.403 53.4818 99.1061 54.3982 98.2709 55.6849C97.4356 56.9716 97.1256 58.5302 97.4048 60.0391L97.4186 60.0944Z" fill="#2B8FEB"/>
<path d="M57.8854 35C57.8854 43.0091 51.406 49.5 43.4154 49.5C35.4247 49.5 28.9453 43.0091 28.9453 35C28.9453 26.9909 35.4247 20.5 43.4154 20.5C51.406 20.5 57.8854 26.9909 57.8854 35Z" fill="white" stroke="#344351"/>
<ellipse cx="43.4149" cy="31.25" rx="3.49301" ry="3.75" fill="#F88C28"/>
<path d="M48.5827 42H38.2507C37.5878 42 37.1147 41.3674 37.3834 40.7613C38.3014 38.6902 40.271 36 43.4167 36C46.5624 36 48.532 38.6902 49.4501 40.7613C49.7187 41.3674 49.2456 42 48.5827 42Z" fill="#F88C28" stroke="#F88C28"/>
<path d="M57.8854 83C57.8854 91.009 51.406 97.5 43.4154 97.5C35.4247 97.5 28.9453 91.009 28.9453 83C28.9453 74.9909 35.4247 68.5 43.4154 68.5C51.406 68.5 57.8854 74.9909 57.8854 83Z" fill="white" stroke="#344351"/>
<ellipse cx="43.4149" cy="79.25" rx="3.49301" ry="3.75" fill="#F88C28"/>
<path d="M48.5827 90H38.2507C37.5878 90 37.1147 89.3673 37.3834 88.7612C38.3014 86.6901 40.271 84 43.4167 84C46.5624 84 48.532 86.6901 49.4501 88.7612C49.7187 89.3673 49.2456 90 48.5827 90Z" fill="#F88C28" stroke="#F88C28"/>
<path d="M177.643 83C177.643 91.009 171.164 97.5 163.173 97.5C155.183 97.5 148.703 91.009 148.703 83C148.703 74.9909 155.183 68.5 163.173 68.5C171.164 68.5 177.643 74.9909 177.643 83Z" fill="white" stroke="#344351"/>
<g filter="url(#filter0_d_5868_32257)">
<path d="M156.553 77.7272H155.761C155.03 77.7272 154.816 78.0816 154.816 78.7314V87.2964C154.816 88.1233 154.938 88.3596 155.761 88.3596H168.067C168.859 88.3596 169.224 88.0347 169.224 87.2964V85.0813V84.1952V78.7314C169.224 77.9635 168.828 77.7272 168.067 77.7272H159.842H156.553Z" fill="white" stroke="#F88C28" stroke-width="0.7"/>
<path d="M157.374 76.8707C156.43 76.8707 156.552 77.1365 156.552 77.7272L156.552 86.558C156.552 87.1783 156.796 87.3555 157.405 87.3555H159.08C159.659 87.3555 159.842 87.0601 159.842 86.558V77.7272C159.842 76.9593 159.842 76.8707 158.806 76.8707H157.374Z" fill="white" stroke="#F88C28" stroke-width="0.7"/>
<path d="M160.983 80.2395C160.983 79.8805 161.274 79.5895 161.633 79.5895H166.761C167.12 79.5895 167.411 79.8805 167.411 80.2395V81.252C167.411 81.611 167.12 81.902 166.761 81.902H161.633C161.274 81.902 160.983 81.611 160.983 81.252V80.2395Z" stroke="#F88C28" stroke-width="0.7"/>
<rect x="161.873" y="83.2064" width="0.376644" height="0.354413" rx="0.177207" fill="#F88C28" stroke="#F88C28" stroke-width="0.354413"/>
<rect x="161.873" y="84.8628" width="0.376644" height="0.354413" rx="0.177207" fill="#F88C28" stroke="#F88C28" stroke-width="0.354413"/>
<rect x="161.873" y="86.5192" width="0.376645" height="0.354413" rx="0.177206" fill="#F88C28" stroke="#F88C28" stroke-width="0.354413"/>
<rect x="164.068" y="83.2064" width="0.376648" height="0.354413" rx="0.177207" fill="#F88C28" stroke="#F88C28" stroke-width="0.354413"/>
<rect x="164.068" y="84.8628" width="0.376648" height="0.354413" rx="0.177207" fill="#F88C28" stroke="#F88C28" stroke-width="0.354413"/>
<rect x="164.068" y="86.5192" width="0.376648" height="0.354413" rx="0.177206" fill="#F88C28" stroke="#F88C28" stroke-width="0.354413"/>
<rect x="166.267" y="83.2064" width="0.376644" height="0.354413" rx="0.177207" fill="#F88C28" stroke="#F88C28" stroke-width="0.354413"/>
<rect x="166.267" y="84.8628" width="0.376644" height="0.354413" rx="0.177207" fill="#F88C28" stroke="#F88C28" stroke-width="0.354413"/>
<rect x="166.267" y="86.5192" width="0.376645" height="0.354413" rx="0.177206" fill="#F88C28" stroke="#F88C28" stroke-width="0.354413"/>
<path d="M171.834 89.18C171.834 90.7891 170.484 92.1125 168.795 92.1125C167.106 92.1125 165.756 90.7891 165.756 89.18C165.756 87.5708 167.106 86.2474 168.795 86.2474C170.484 86.2474 171.834 87.5708 171.834 89.18Z" fill="white" stroke="#F88C28" stroke-width="0.7"/>
<path d="M170.211 88.3593L168.235 90.0006L167.246 89.18" stroke="#F88C28" stroke-width="0.7" stroke-linecap="round" stroke-linejoin="round"/>
</g>
<path d="M194.858 35C194.858 43.0091 188.379 49.5 180.388 49.5C172.397 49.5 165.918 43.0091 165.918 35C165.918 26.9909 172.397 20.5 180.388 20.5C188.379 20.5 194.858 26.9909 194.858 35Z" fill="white" stroke="#344351"/>
<g filter="url(#filter1_d_5868_32257)">
<rect x="171.756" y="29.2853" width="17.2641" height="9.93333" rx="0.65" fill="white" stroke="#F88C28" stroke-width="0.7"/>
<rect x="179.241" y="39.4353" width="2.29401" height="1.71667" fill="white" stroke="#F88C28" stroke-width="0.7"/>
<rect x="176.745" y="41.3687" width="7.28403" height="1.23333" rx="0.616666" fill="white" stroke="#F88C28" stroke-width="0.7"/>
<path d="M176.642 36.1853C176.265 36.1853 175.947 36.1037 175.687 35.9404C175.428 35.7755 175.232 35.5478 175.098 35.2573C174.965 34.9669 174.898 34.6318 174.898 34.252C174.898 33.8722 174.965 33.5371 175.098 33.2467C175.232 32.9562 175.428 32.7294 175.687 32.5661C175.947 32.4012 176.265 32.3187 176.642 32.3187C177.082 32.3187 177.442 32.4295 177.72 32.6512C177.999 32.8712 178.19 33.1668 178.294 33.538L177.899 33.6385C177.818 33.3446 177.674 33.1118 177.465 32.9399C177.257 32.7681 176.982 32.6821 176.642 32.6821C176.346 32.6821 176.099 32.7483 175.903 32.8806C175.707 33.0129 175.559 33.1977 175.459 33.4348C175.36 33.6703 175.31 33.9427 175.306 34.252C175.304 34.5613 175.353 34.8337 175.451 35.0692C175.551 35.3046 175.7 35.4893 175.898 35.6234C176.098 35.7557 176.346 35.8219 176.642 35.8219C176.982 35.8219 177.257 35.7359 177.465 35.5641C177.674 35.3905 177.818 35.1577 177.899 34.8655L178.294 34.966C178.19 35.3372 177.999 35.6337 177.72 35.8554C177.442 36.0753 177.082 36.1853 176.642 36.1853Z" fill="#F88C28"/>
<path d="M178.874 36.108V32.396H180.336C180.373 32.396 180.414 32.3977 180.46 32.4012C180.507 32.4029 180.554 32.408 180.602 32.4166C180.8 32.4458 180.967 32.5137 181.104 32.6203C181.243 32.7251 181.347 32.8574 181.417 33.0172C181.489 33.1771 181.525 33.3541 181.525 33.5483C181.525 33.8284 181.449 34.0716 181.299 34.2778C181.148 34.484 180.932 34.6137 180.652 34.667L180.518 34.698H179.26V36.108H178.874ZM181.167 36.108L180.42 34.5974L180.791 34.4582L181.612 36.108H181.167ZM179.26 34.3371H180.326C180.357 34.3371 180.394 34.3353 180.436 34.3319C180.478 34.3285 180.519 34.3225 180.56 34.3139C180.689 34.2864 180.795 34.234 180.878 34.1566C180.962 34.0793 181.024 33.9873 181.065 33.8808C181.107 33.7742 181.128 33.6634 181.128 33.5483C181.128 33.4331 181.107 33.3223 181.065 33.2157C181.024 33.1075 180.962 33.0147 180.878 32.9373C180.795 32.86 180.689 32.8076 180.56 32.7801C180.519 32.7715 180.478 32.7663 180.436 32.7646C180.394 32.7612 180.357 32.7595 180.326 32.7595H179.26V34.3371Z" fill="#F88C28"/>
<path d="M182.192 36.108V32.396H182.547L184.036 35.5177L185.516 32.396H185.876V36.1054H185.508V33.2415L184.159 36.108H183.909L182.563 33.2415V36.108H182.192Z" fill="#F88C28"/>
<path d="M176.642 36.1853C176.265 36.1853 175.947 36.1037 175.687 35.9404C175.428 35.7755 175.232 35.5478 175.098 35.2573C174.965 34.9669 174.898 34.6318 174.898 34.252C174.898 33.8722 174.965 33.5371 175.098 33.2467C175.232 32.9562 175.428 32.7294 175.687 32.5661C175.947 32.4012 176.265 32.3187 176.642 32.3187C177.082 32.3187 177.442 32.4295 177.72 32.6512C177.999 32.8712 178.19 33.1668 178.294 33.538L177.899 33.6385C177.818 33.3446 177.674 33.1118 177.465 32.9399C177.257 32.7681 176.982 32.6821 176.642 32.6821C176.346 32.6821 176.099 32.7483 175.903 32.8806C175.707 33.0129 175.559 33.1977 175.459 33.4348C175.36 33.6703 175.31 33.9427 175.306 34.252C175.304 34.5613 175.353 34.8337 175.451 35.0692C175.551 35.3046 175.7 35.4893 175.898 35.6234C176.098 35.7557 176.346 35.8219 176.642 35.8219C176.982 35.8219 177.257 35.7359 177.465 35.5641C177.674 35.3905 177.818 35.1577 177.899 34.8655L178.294 34.966C178.19 35.3372 177.999 35.6337 177.72 35.8554C177.442 36.0753 177.082 36.1853 176.642 36.1853Z" stroke="#F88C28" stroke-width="0.5"/>
<path d="M178.874 36.108V32.396H180.336C180.373 32.396 180.414 32.3977 180.46 32.4012C180.507 32.4029 180.554 32.408 180.602 32.4166C180.8 32.4458 180.967 32.5137 181.104 32.6203C181.243 32.7251 181.347 32.8574 181.417 33.0172C181.489 33.1771 181.525 33.3541 181.525 33.5483C181.525 33.8284 181.449 34.0716 181.299 34.2778C181.148 34.484 180.932 34.6137 180.652 34.667L180.518 34.698H179.26V36.108H178.874ZM181.167 36.108L180.42 34.5974L180.791 34.4582L181.612 36.108H181.167ZM179.26 34.3371H180.326C180.357 34.3371 180.394 34.3353 180.436 34.3319C180.478 34.3285 180.519 34.3225 180.56 34.3139C180.689 34.2864 180.795 34.234 180.878 34.1566C180.962 34.0793 181.024 33.9873 181.065 33.8808C181.107 33.7742 181.128 33.6634 181.128 33.5483C181.128 33.4331 181.107 33.3223 181.065 33.2157C181.024 33.1075 180.962 33.0147 180.878 32.9373C180.795 32.86 180.689 32.8076 180.56 32.7801C180.519 32.7715 180.478 32.7663 180.436 32.7646C180.394 32.7612 180.357 32.7595 180.326 32.7595H179.26V34.3371Z" stroke="#F88C28" stroke-width="0.5"/>
<path d="M182.192 36.108V32.396H182.547L184.036 35.5177L185.516 32.396H185.876V36.1054H185.508V33.2415L184.159 36.108H183.909L182.563 33.2415V36.108H182.192Z" stroke="#F88C28" stroke-width="0.5"/>
</g>
<path d="M213.573 83C213.573 91.009 207.094 97.5 199.103 97.5C191.112 97.5 184.633 91.009 184.633 83C184.633 74.9909 191.112 68.5 199.103 68.5C207.094 68.5 213.573 74.9909 213.573 83Z" fill="white" stroke="#344351"/>
<g filter="url(#filter2_d_5868_32257)">
<rect x="190.639" y="77.7398" width="16.1464" height="9.01272" rx="0.65" fill="white" stroke="#F88C28" stroke-width="0.7"/>
<rect x="197.858" y="87.064" width="1.70662" height="1.63105" fill="white" stroke="#F88C28" stroke-width="0.7"/>
<rect x="195.049" y="89.0068" width="6.92097" height="0.854035" rx="0.427018" fill="white" stroke="#F88C28" stroke-width="0.7"/>
<rect x="203.073" y="83.179" width="4.11324" height="7.45869" rx="0.65" fill="white" stroke="#F88C28" stroke-width="0.7"/>
<rect x="203.125" y="89.8221" width="4.01104" height="0.777018" fill="#F88C28"/>
<rect x="204.727" y="90.2104" width="0.802207" height="0.38851" rx="0.194255" fill="white"/>
</g>
<path d="M230.788 35C230.788 43.0091 224.308 49.5 216.318 49.5C208.327 49.5 201.848 43.0091 201.848 35C201.848 26.9909 208.327 20.5 216.318 20.5C224.308 20.5 230.788 26.9909 230.788 35Z" fill="white" stroke="#344351"/>
<g filter="url(#filter3_d_5868_32257)">
<path d="M224.649 39.0292H208.412C208.029 39.0292 207.674 38.8108 207.531 38.4566C206.136 35.0036 208.201 33.2793 209.838 32.687C210.174 32.5651 210.452 32.3077 210.587 31.9759C211.875 28.8051 214.82 29.1293 216.539 29.8535C216.834 29.9778 217.169 29.982 217.465 29.8621C220.634 28.5807 221.972 30.8867 222.368 32.7685C222.468 33.2399 222.842 33.6103 223.3 33.7607C225.328 34.4271 225.695 36.636 225.575 38.2215C225.54 38.6953 225.124 39.0292 224.649 39.0292Z" fill="white" stroke="#F88C28" stroke-width="0.7" stroke-linecap="round"/>
<path d="M212.492 36.8341L213.659 33.3219H214.41L215.577 36.8341H215.036L213.961 33.6292H214.096L213.033 36.8341H212.492ZM213.098 36.0414V35.5634H214.973V36.0414H213.098Z" fill="#F88C28"/>
<path d="M216.024 36.8341V33.3219H217.475C217.51 33.3219 217.553 33.3236 217.605 33.3268C217.656 33.3284 217.705 33.3333 217.752 33.3414C217.951 33.3723 218.118 33.439 218.251 33.5414C218.385 33.6439 218.486 33.7731 218.552 33.9292C218.619 34.0853 218.652 34.2577 218.652 34.4463C218.652 34.6366 218.619 34.8097 218.552 34.9658C218.486 35.1219 218.385 35.2512 218.251 35.3536C218.118 35.4561 217.951 35.5227 217.752 35.5536C217.705 35.5601 217.656 35.565 217.602 35.5683C217.551 35.5715 217.508 35.5731 217.475 35.5731H216.545V36.8341H216.024ZM216.545 35.0902H217.455C217.489 35.0902 217.525 35.0886 217.565 35.0853C217.607 35.0821 217.646 35.0764 217.682 35.0683C217.789 35.0439 217.874 34.9992 217.939 34.9341C218.004 34.8675 218.05 34.791 218.079 34.7049C218.107 34.6187 218.121 34.5325 218.121 34.4463C218.121 34.3601 218.107 34.2748 218.079 34.1902C218.05 34.104 218.004 34.0284 217.939 33.9634C217.874 33.8967 217.789 33.8512 217.682 33.8268C217.646 33.8171 217.607 33.8105 217.565 33.8073C217.525 33.804 217.489 33.8024 217.455 33.8024H216.545V35.0902Z" fill="#F88C28"/>
<path d="M219.2 36.8341V33.3219H219.722V36.8341H219.2Z" fill="#F88C28"/>
</g>
<path d="M29.4401 59.0001C29.4401 67.0091 22.9607 73.5001 14.9701 73.5001C6.97941 73.5001 0.5 67.0091 0.5 59.0001C0.5 50.991 6.97941 44.5001 14.9701 44.5001C22.9607 44.5001 29.4401 50.991 29.4401 59.0001Z" fill="white" stroke="#344351"/>
<ellipse cx="14.9696" cy="55.2501" rx="3.49301" ry="3.75" fill="#F88C28"/>
<path d="M20.1374 66.0001H9.80543C9.14247 66.0001 8.66939 65.3674 8.93804 64.7613C9.85607 62.6902 11.8257 60.0001 14.9714 60.0001C18.1171 60.0001 20.0867 62.6902 21.0048 64.7613C21.2734 65.3674 20.8003 66.0001 20.1374 66.0001Z" fill="#F88C28" stroke="#F88C28"/>
<path d="M249.499 83C249.499 91.009 243.019 97.5 235.029 97.5C227.038 97.5 220.559 91.009 220.559 83C220.559 74.9909 227.038 68.5 235.029 68.5C243.019 68.5 249.499 74.9909 249.499 83Z" fill="white" stroke="#344351"/>
<g filter="url(#filter4_d_5868_32257)">
<path d="M239.687 91.6874H231.992C230.529 91.6874 229.342 90.5009 229.342 89.0374V77.8861C229.342 76.4225 230.529 75.2361 231.992 75.2361H237.621C238.344 75.2361 239.036 75.5319 239.536 76.0548L241.602 78.2161C242.074 78.7093 242.337 79.3652 242.337 80.0474V89.0374C242.337 90.5009 241.15 91.6874 239.687 91.6874Z" fill="white" stroke="#F88C28" stroke-width="0.7"/>
<rect x="231.143" y="84.4712" width="9.39083" height="5.56682" rx="1.65" stroke="#F88C28" stroke-width="0.7"/>
<path d="M230.973 86.4305H240.703" stroke="#F88C28" stroke-width="0.7"/>
<path d="M231.156 88.0795H237.553" stroke="#F88C28" stroke-width="0.7"/>
<path d="M237.125 86.4304V84.2865" stroke="#F88C28" stroke-width="0.7"/>
<path d="M237.336 90.25V88.0263" stroke="#F88C28" stroke-width="0.7"/>
<path d="M234.129 90.25V88.0263" stroke="#F88C28" stroke-width="0.7"/>
<path d="M234.555 86.4304V84.2865" stroke="#F88C28" stroke-width="0.7"/>
</g>
<defs>
<filter id="filter0_d_5868_32257" x="125.441" y="45.25" width="78.457" height="77.75" filterUnits="userSpaceOnUse" color-interpolation-filters="sRGB">
<feFlood flood-opacity="0" result="BackgroundImageFix"/>
<feColorMatrix in="SourceAlpha" type="matrix" values="0 0 0 0 0 0 0 0 0 0 0 0 0 0 0 0 0 0 127 0" result="hardAlpha"/>
<feOffset/>
<feGaussianBlur stdDeviation="14"/>
<feColorMatrix type="matrix" values="0 0 0 0 0.27375 0 0 0 0 0.382789 0 0 0 0 0.47625 0 0 0 0.14 0"/>
<feBlend mode="normal" in2="BackgroundImageFix" result="effect1_dropShadow_5868_32257"/>
<feBlend mode="normal" in="SourceGraphic" in2="effect1_dropShadow_5868_32257" result="shape"/>
</filter>
<filter id="filter1_d_5868_32257" x="142.656" y="-2.75003" width="78.457" height="77.75" filterUnits="userSpaceOnUse" color-interpolation-filters="sRGB">
<feFlood flood-opacity="0" result="BackgroundImageFix"/>
<feColorMatrix in="SourceAlpha" type="matrix" values="0 0 0 0 0 0 0 0 0 0 0 0 0 0 0 0 0 0 127 0" result="hardAlpha"/>
<feOffset/>
<feGaussianBlur stdDeviation="14"/>
<feColorMatrix type="matrix" values="0 0 0 0 0.27375 0 0 0 0 0.382789 0 0 0 0 0.47625 0 0 0 0.14 0"/>
<feBlend mode="normal" in2="BackgroundImageFix" result="effect1_dropShadow_5868_32257"/>
<feBlend mode="normal" in="SourceGraphic" in2="effect1_dropShadow_5868_32257" result="shape"/>
</filter>
<filter id="filter2_d_5868_32257" x="161.371" y="44.5" width="78.457" height="77.75" filterUnits="userSpaceOnUse" color-interpolation-filters="sRGB">
<feFlood flood-opacity="0" result="BackgroundImageFix"/>
<feColorMatrix in="SourceAlpha" type="matrix" values="0 0 0 0 0 0 0 0 0 0 0 0 0 0 0 0 0 0 127 0" result="hardAlpha"/>
<feOffset/>
<feGaussianBlur stdDeviation="14"/>
<feColorMatrix type="matrix" values="0 0 0 0 0.27375 0 0 0 0 0.382789 0 0 0 0 0.47625 0 0 0 0.14 0"/>
<feBlend mode="normal" in2="BackgroundImageFix" result="effect1_dropShadow_5868_32257"/>
<feBlend mode="normal" in="SourceGraphic" in2="effect1_dropShadow_5868_32257" result="shape"/>
</filter>
<filter id="filter3_d_5868_32257" x="177.836" y="-5" width="80.6992" height="80" filterUnits="userSpaceOnUse" color-interpolation-filters="sRGB">
<feFlood flood-opacity="0" result="BackgroundImageFix"/>
<feColorMatrix in="SourceAlpha" type="matrix" values="0 0 0 0 0 0 0 0 0 0 0 0 0 0 0 0 0 0 127 0" result="hardAlpha"/>
<feOffset/>
<feGaussianBlur stdDeviation="14"/>
<feColorMatrix type="matrix" values="0 0 0 0 0.27375 0 0 0 0 0.382789 0 0 0 0 0.47625 0 0 0 0.14 0"/>
<feBlend mode="normal" in2="BackgroundImageFix" result="effect1_dropShadow_5868_32257"/>
<feBlend mode="normal" in="SourceGraphic" in2="effect1_dropShadow_5868_32257" result="shape"/>
</filter>
<filter id="filter4_d_5868_32257" x="199.543" y="43" width="82.1992" height="80.75" filterUnits="userSpaceOnUse" color-interpolation-filters="sRGB">
<feFlood flood-opacity="0" result="BackgroundImageFix"/>
<feColorMatrix in="SourceAlpha" type="matrix" values="0 0 0 0 0 0 0 0 0 0 0 0 0 0 0 0 0 0 127 0" result="hardAlpha"/>
<feOffset/>
<feGaussianBlur stdDeviation="14"/>
<feColorMatrix type="matrix" values="0 0 0 0 0.27375 0 0 0 0 0.382789 0 0 0 0 0.47625 0 0 0 0.14 0"/>
<feBlend mode="normal" in2="BackgroundImageFix" result="effect1_dropShadow_5868_32257"/>
<feBlend mode="normal" in="SourceGraphic" in2="effect1_dropShadow_5868_32257" result="shape"/>
</filter>
</defs>
</svg>
