<svg width="465" height="104" viewBox="0 0 465 104" fill="none" xmlns="http://www.w3.org/2000/svg">
<path d="M317.5 54C324.667 51.6667 339.2 45.6 340 40" stroke="#F88C28" stroke-linecap="round" stroke-dasharray="3 3"/>
<circle cx="440" cy="84" r="19.5" fill="white" stroke="#344351"/>
<path d="M447.23 95.6999H434.934C433.47 95.6999 432.284 94.5135 432.284 93.0499V76.1815C432.284 74.718 433.47 73.5315 434.934 73.5315H443.894C444.616 73.5315 445.307 73.8266 445.807 74.3483L449.143 77.8307C449.616 78.3241 449.88 78.9808 449.88 79.6639V93.0499C449.88 94.5135 448.693 95.6999 447.23 95.6999Z" fill="white" stroke="#F88C28" stroke-width="0.7"/>
<rect x="434.69" y="85.8449" width="12.7813" height="7.65577" rx="1.65" stroke="#F88C28" stroke-width="0.7"/>
<path d="M434.582 88.574H447.582" stroke="#F88C28" stroke-width="0.7"/>
<path d="M434.824 90.7728H443.371" stroke="#F88C28" stroke-width="0.7"/>
<path d="M442.797 88.5739V85.7154" stroke="#F88C28" stroke-width="0.7"/>
<path d="M443.082 93.6667V90.7018" stroke="#F88C28" stroke-width="0.7"/>
<path d="M438.793 93.6667V90.7018" stroke="#F88C28" stroke-width="0.7"/>
<path d="M439.367 88.5739V85.7154" stroke="#F88C28" stroke-width="0.7"/>
<circle cx="20" cy="52" r="19.5" fill="white" stroke="#344351"/>
<ellipse cx="19.9987" cy="47" rx="4.66667" ry="5" fill="#F88C28"/>
<path d="M27.3436 61.3333H12.6538C11.9906 61.3333 11.5153 60.7012 11.7655 60.087C12.9067 57.2859 15.587 53.3333 19.9987 53.3333C24.4104 53.3333 27.0907 57.2859 28.2319 60.087C28.4821 60.7012 28.0068 61.3333 27.3436 61.3333Z" fill="#F88C28" stroke="#F88C28"/>
<path d="M40.5 53.5H148" stroke="#F88C28" stroke-linecap="round" stroke-dasharray="3 3"/>
<path d="M252 54H412.22C417.224 54 422.046 55.8757 425.735 59.2569L432 65" stroke="#F88C28" stroke-linecap="round" stroke-dasharray="3 3"/>
<path d="M388 54C392.167 53.5 401.8 49.9 407 39.5" stroke="#F88C28" stroke-linecap="round" stroke-dasharray="3 3"/>
<path d="M358.5 54C363.5 55.1667 373.9 58.9 375.5 64.5" stroke="#F88C28" stroke-linecap="round" stroke-dasharray="3 3"/>
<path d="M287.5 54C293 55.3333 304.6 59.3 307 64.5" stroke="#F88C28" stroke-linecap="round" stroke-dasharray="3 3"/>
<path d="M104 26L150 39" stroke="#F88C28" stroke-linecap="round" stroke-dasharray="3 3"/>
<path d="M105 81.5L151 69" stroke="#F88C28" stroke-linecap="round" stroke-dasharray="3 3"/>
<circle cx="200" cy="52" r="51.5" fill="white" stroke="#344351"/>
<path d="M205.998 28V39.8934C208.784 41.2425 211.028 43.4911 212.364 46.2722C213.699 49.0532 214.047 52.2023 213.351 55.2055C212.655 58.2087 210.956 60.8885 208.531 62.8074C206.106 64.7264 203.099 65.7712 200 65.7712C196.901 65.7712 193.894 64.7264 191.469 62.8074C189.044 60.8885 187.345 58.2087 186.649 55.2055C185.953 52.2023 186.301 49.0532 187.636 46.2722C188.972 43.4911 191.216 41.2425 194.002 39.8934V28C188.073 29.4572 182.886 33.0223 179.419 38.0225C175.952 43.0227 174.445 49.1121 175.183 55.1414C175.921 61.1707 178.853 66.7228 183.425 70.7497C187.997 74.7767 193.893 77 200 77C206.107 77 212.003 74.7767 216.575 70.7497C221.147 66.7228 224.079 61.1707 224.817 55.1414C225.555 49.1121 224.048 43.0227 220.581 38.0225C217.114 33.0223 211.927 29.4572 205.998 28Z" fill="#2B8FEB"/>
<path d="M192.152 53.4592C192.413 54.8753 193.051 56.1947 194.001 57.2776C194.951 58.3605 196.175 59.1667 197.546 59.6108C198.917 60.0548 200.382 60.1203 201.787 59.8002C203.192 59.48 204.484 58.7863 205.526 57.7923C206.568 56.7984 207.322 55.5412 207.708 54.154C208.094 52.7668 208.097 51.3011 207.718 49.9122C207.338 48.5233 206.589 47.2628 205.551 46.2643C204.513 45.2658 203.224 44.5663 201.821 44.24V27H198.131V44.1662C196.139 44.6423 194.407 45.8643 193.291 47.5799C192.175 49.2954 191.761 51.3736 192.134 53.3855L192.152 53.4592Z" fill="#2B8FEB"/>
<circle cx="85" cy="20" r="19.5" fill="white" stroke="#344351"/>
<ellipse cx="84.9987" cy="15" rx="4.66667" ry="5" fill="#F88C28"/>
<path d="M92.3436 29.3333H77.6538C76.9906 29.3333 76.5153 28.7012 76.7655 28.087C77.9067 25.2859 80.587 21.3333 84.9987 21.3333C89.4104 21.3333 92.0907 25.2859 93.2319 28.087C93.4821 28.7012 93.0068 29.3333 92.3436 29.3333Z" fill="#F88C28" stroke="#F88C28"/>
<circle cx="85" cy="84" r="19.5" fill="white" stroke="#344351"/>
<ellipse cx="84.9987" cy="79" rx="4.66667" ry="5" fill="#F88C28"/>
<path d="M92.3436 93.3333H77.6538C76.9906 93.3333 76.5153 92.7012 76.7655 92.087C77.9067 89.2859 80.587 85.3333 84.9987 85.3333C89.4104 85.3333 92.0907 89.2859 93.2319 92.087C93.4821 92.7012 93.0068 93.3333 92.3436 93.3333Z" fill="#F88C28" stroke="#F88C28"/>
<circle cx="310" cy="84" r="19.5" fill="white" stroke="#344351"/>
<path d="M301.156 76.9697H300.097C299.121 76.9697 298.836 77.4422 298.836 78.3086V89.7286C298.836 90.8312 298.999 91.1462 300.097 91.1462H316.538C317.597 91.1462 318.085 90.713 318.085 89.7286V86.7751V85.5937V78.3086C318.085 77.2847 317.556 76.9697 316.538 76.9697H305.551H301.156Z" fill="white" stroke="#F88C28" stroke-width="0.7"/>
<path d="M302.254 75.8277C300.993 75.8277 301.155 76.1821 301.155 76.9697L301.155 88.7441C301.155 89.5711 301.481 89.8073 302.295 89.8073H304.533C305.306 89.8073 305.55 89.4135 305.55 88.7441V76.9697C305.55 75.9458 305.55 75.8277 304.167 75.8277H302.254Z" fill="white" stroke="#F88C28" stroke-width="0.7"/>
<path d="M306.959 79.9861C306.959 79.6271 307.25 79.3361 307.609 79.3361H315.132C315.491 79.3361 315.782 79.6271 315.782 79.9861V82.0028C315.782 82.3618 315.491 82.6528 315.132 82.6528H307.609C307.25 82.6528 306.959 82.3618 306.959 82.0028V79.9861Z" stroke="#F88C28" stroke-width="0.7"/>
<rect x="308.26" y="84.2753" width="0.504141" height="0.472551" rx="0.236275" fill="#F88C28" stroke="#F88C28" stroke-width="0.472551"/>
<rect x="308.26" y="86.4838" width="0.504141" height="0.472551" rx="0.236275" fill="#F88C28" stroke="#F88C28" stroke-width="0.472551"/>
<rect x="308.26" y="88.6923" width="0.504142" height="0.47255" rx="0.236275" fill="#F88C28" stroke="#F88C28" stroke-width="0.47255"/>
<rect x="311.197" y="84.2753" width="0.504146" height="0.472551" rx="0.236275" fill="#F88C28" stroke="#F88C28" stroke-width="0.472551"/>
<rect x="311.197" y="86.4838" width="0.504146" height="0.472551" rx="0.236275" fill="#F88C28" stroke="#F88C28" stroke-width="0.472551"/>
<rect x="311.197" y="88.6923" width="0.504147" height="0.47255" rx="0.236275" fill="#F88C28" stroke="#F88C28" stroke-width="0.47255"/>
<rect x="314.135" y="84.2753" width="0.504141" height="0.472551" rx="0.236275" fill="#F88C28" stroke="#F88C28" stroke-width="0.472551"/>
<rect x="314.135" y="86.4838" width="0.504141" height="0.472551" rx="0.236275" fill="#F88C28" stroke="#F88C28" stroke-width="0.472551"/>
<rect x="314.135" y="88.6923" width="0.504142" height="0.47255" rx="0.236275" fill="#F88C28" stroke="#F88C28" stroke-width="0.47255"/>
<path d="M321.69 92.2401C321.69 94.4529 319.831 96.2668 317.512 96.2668C315.193 96.2668 313.334 94.4529 313.334 92.2401C313.334 90.0273 315.193 88.2133 317.512 88.2133C319.831 88.2133 321.69 90.0273 321.69 92.2401Z" fill="white" stroke="#F88C28" stroke-width="0.7"/>
<path d="M319.403 91.1459L316.762 93.3343L315.441 92.2402" stroke="#F88C28" stroke-width="0.7" stroke-linecap="round" stroke-linejoin="round"/>
<circle cx="340" cy="20" r="19.5" fill="white" stroke="#344351"/>
<rect x="328.35" y="12.2638" width="23.3" height="13.4778" rx="0.65" fill="white" stroke="#F88C28" stroke-width="0.7"/>
<rect x="338.35" y="25.7971" width="3.3" height="2.52222" fill="white" stroke="#F88C28" stroke-width="0.7"/>
<rect x="335.018" y="28.3749" width="9.96667" height="1.87778" rx="0.65" fill="white" stroke="#F88C28" stroke-width="0.7"/>
<path d="M334.997 21.5805C334.494 21.5805 334.069 21.4716 333.722 21.254C333.375 21.034 333.113 20.7304 332.935 20.3431C332.757 19.9559 332.668 19.5091 332.668 19.0027C332.668 18.4963 332.757 18.0495 332.935 17.6623C333.113 17.275 333.375 16.9726 333.722 16.7549C334.069 16.5349 334.494 16.4249 334.997 16.4249C335.585 16.4249 336.066 16.5727 336.438 16.8683C336.81 17.1616 337.066 17.5557 337.204 18.0506L336.677 18.1847C336.569 17.7929 336.376 17.4824 336.097 17.2533C335.818 17.0241 335.452 16.9095 334.997 16.9095C334.602 16.9095 334.272 16.9978 334.01 17.1742C333.748 17.3506 333.55 17.597 333.416 17.9132C333.285 18.2271 333.217 18.5903 333.213 19.0027C333.21 19.4151 333.275 19.7783 333.406 20.0922C333.539 20.4062 333.738 20.6525 334.003 20.8312C334.27 21.0076 334.602 21.0959 334.997 21.0959C335.452 21.0959 335.818 20.9813 336.097 20.7522C336.376 20.5207 336.569 20.2103 336.677 19.8207L337.204 19.9548C337.066 20.4497 336.81 20.845 336.438 21.1405C336.066 21.4338 335.585 21.5805 334.997 21.5805Z" fill="#F88C28"/>
<path d="M337.979 21.4774V16.528H339.933C339.982 16.528 340.037 16.5303 340.098 16.5349C340.161 16.5372 340.224 16.5441 340.288 16.5555C340.552 16.5945 340.776 16.685 340.959 16.8271C341.144 16.9668 341.283 17.1433 341.377 17.3564C341.473 17.5695 341.521 17.8055 341.521 18.0644C341.521 18.4379 341.42 18.7621 341.219 19.0371C341.017 19.312 340.729 19.485 340.354 19.5561L340.175 19.5973H338.496V21.4774H337.979ZM341.043 21.4774L340.045 19.4633L340.54 19.2777L341.637 21.4774H341.043ZM338.496 19.1161H339.919C339.961 19.1161 340.01 19.1138 340.066 19.1093C340.122 19.1047 340.177 19.0967 340.231 19.0852C340.405 19.0485 340.546 18.9786 340.656 18.8755C340.769 18.7724 340.852 18.6498 340.906 18.5078C340.962 18.3657 340.99 18.2179 340.99 18.0644C340.99 17.9109 340.962 17.7631 340.906 17.621C340.852 17.4767 340.769 17.3529 340.656 17.2498C340.546 17.1467 340.405 17.0768 340.231 17.0402C340.177 17.0287 340.122 17.0218 340.066 17.0195C340.01 17.015 339.961 17.0127 339.919 17.0127H338.496V19.1161Z" fill="#F88C28"/>
<path d="M342.412 21.4774V16.528H342.887L344.875 20.6903L346.853 16.528H347.335V21.4739H346.843V17.6554L345.04 21.4774H344.707L342.908 17.6554V21.4774H342.412Z" fill="#F88C28"/>
<path d="M334.997 21.5805C334.494 21.5805 334.069 21.4716 333.722 21.254C333.375 21.034 333.113 20.7304 332.935 20.3431C332.757 19.9559 332.668 19.5091 332.668 19.0027C332.668 18.4963 332.757 18.0495 332.935 17.6623C333.113 17.275 333.375 16.9726 333.722 16.7549C334.069 16.5349 334.494 16.4249 334.997 16.4249C335.585 16.4249 336.066 16.5727 336.438 16.8683C336.81 17.1616 337.066 17.5557 337.204 18.0506L336.677 18.1847C336.569 17.7929 336.376 17.4824 336.097 17.2533C335.818 17.0241 335.452 16.9095 334.997 16.9095C334.602 16.9095 334.272 16.9978 334.01 17.1742C333.748 17.3506 333.55 17.597 333.416 17.9132C333.285 18.2271 333.217 18.5903 333.213 19.0027C333.21 19.4151 333.275 19.7783 333.406 20.0922C333.539 20.4062 333.738 20.6525 334.003 20.8312C334.27 21.0076 334.602 21.0959 334.997 21.0959C335.452 21.0959 335.818 20.9813 336.097 20.7522C336.376 20.5207 336.569 20.2103 336.677 19.8207L337.204 19.9548C337.066 20.4497 336.81 20.845 336.438 21.1405C336.066 21.4338 335.585 21.5805 334.997 21.5805Z" stroke="#F88C28" stroke-width="0.5"/>
<path d="M337.979 21.4774V16.528H339.933C339.982 16.528 340.037 16.5303 340.098 16.5349C340.161 16.5372 340.224 16.5441 340.288 16.5555C340.552 16.5945 340.776 16.685 340.959 16.8271C341.144 16.9668 341.283 17.1433 341.377 17.3564C341.473 17.5695 341.521 17.8055 341.521 18.0644C341.521 18.4379 341.42 18.7621 341.219 19.0371C341.017 19.312 340.729 19.485 340.354 19.5561L340.175 19.5973H338.496V21.4774H337.979ZM341.043 21.4774L340.045 19.4633L340.54 19.2777L341.637 21.4774H341.043ZM338.496 19.1161H339.919C339.961 19.1161 340.01 19.1138 340.066 19.1093C340.122 19.1047 340.177 19.0967 340.231 19.0852C340.405 19.0485 340.546 18.9786 340.656 18.8755C340.769 18.7724 340.852 18.6498 340.906 18.5078C340.962 18.3657 340.99 18.2179 340.99 18.0644C340.99 17.9109 340.962 17.7631 340.906 17.621C340.852 17.4767 340.769 17.3529 340.656 17.2498C340.546 17.1467 340.405 17.0768 340.231 17.0402C340.177 17.0287 340.122 17.0218 340.066 17.0195C340.01 17.015 339.961 17.0127 339.919 17.0127H338.496V19.1161Z" stroke="#F88C28" stroke-width="0.5"/>
<path d="M342.412 21.4774V16.528H342.887L344.875 20.6903L346.853 16.528H347.335V21.4739H346.843V17.6554L345.04 21.4774H344.707L342.908 17.6554V21.4774H342.412Z" stroke="#F88C28" stroke-width="0.5"/>
<circle cx="375" cy="84" r="19.5" fill="white" stroke="#344351"/>
<rect x="363.58" y="76.8698" width="21.8067" height="12.2503" rx="0.65" fill="white" stroke="#F88C28" stroke-width="0.7"/>
<rect x="373.225" y="89.3021" width="2.51525" height="2.40807" fill="white" stroke="#F88C28" stroke-width="0.7"/>
<rect x="369.475" y="91.8924" width="9.48161" height="1.37205" rx="0.65" fill="white" stroke="#F88C28" stroke-width="0.7"/>
<rect x="380.19" y="84.122" width="5.73049" height="10.1783" rx="0.65" fill="white" stroke="#F88C28" stroke-width="0.7"/>
<rect x="380.375" y="93.0962" width="5.35874" height="1.03602" fill="#F88C28"/>
<rect x="382.52" y="93.6139" width="1.07175" height="0.518013" rx="0.259007" fill="white"/>
<circle cx="405" cy="20" r="19.5" fill="white" stroke="#344351"/>
<path d="M416.408 25.3723H394.23C393.848 25.3723 393.495 25.1553 393.345 24.8042C391.266 19.9374 394.288 17.5872 396.53 16.8525C396.87 16.741 397.148 16.4843 397.275 16.1496C398.995 11.627 403.155 12.1811 405.455 13.2059C405.747 13.3359 406.082 13.3414 406.375 13.2162C410.881 11.2968 412.678 14.7153 413.14 17.2967C413.224 17.771 413.599 18.1456 414.064 18.2687C417.133 19.0799 417.577 22.377 417.347 24.5669C417.297 25.0393 416.883 25.3723 416.408 25.3723Z" fill="white" stroke="#F88C28" stroke-width="0.7" stroke-linecap="round"/>
<path d="M399.891 22.4455L401.45 17.7626H402.452L404.011 22.4455H403.289L401.853 18.1723H402.033L400.614 22.4455H399.891ZM400.7 21.3886V20.7512H403.205V21.3886H400.7Z" fill="#F88C28"/>
<path d="M404.609 22.4455V17.7626H406.548C406.595 17.7626 406.652 17.7647 406.721 17.7691C406.79 17.7712 406.856 17.7777 406.918 17.7886C407.184 17.8298 407.406 17.9187 407.584 18.0553C407.764 18.1918 407.898 18.3642 407.987 18.5723C408.076 18.7805 408.12 19.0103 408.12 19.2618C408.12 19.5154 408.076 19.7463 407.987 19.9544C407.898 20.1626 407.764 20.3349 407.584 20.4715C407.406 20.6081 407.184 20.697 406.918 20.7382C406.856 20.7469 406.789 20.7534 406.718 20.7577C406.649 20.762 406.592 20.7642 406.548 20.7642H405.305V22.4455H404.609ZM405.305 20.1203H406.521C406.566 20.1203 406.615 20.1181 406.668 20.1138C406.723 20.1095 406.776 20.1019 406.824 20.091C406.967 20.0585 407.081 19.9989 407.168 19.9122C407.254 19.8233 407.316 19.7214 407.354 19.6065C407.392 19.4916 407.411 19.3767 407.411 19.2618C407.411 19.1469 407.392 19.033 407.354 18.9203C407.316 18.8054 407.254 18.7046 407.168 18.6179C407.081 18.529 406.967 18.4683 406.824 18.4357C406.776 18.4227 406.723 18.4141 406.668 18.4097C406.615 18.4054 406.566 18.4032 406.521 18.4032H405.305V20.1203Z" fill="#F88C28"/>
<path d="M408.853 22.4455V17.7626H409.549V22.4455H408.853Z" fill="#F88C28"/>
</svg>
