<svg width="290" height="256" viewBox="0 0 290 256" fill="none" xmlns="http://www.w3.org/2000/svg">
<rect width="290" height="256" rx="12" fill="#F6F7F8"/>
<path d="M55.4071 234.079C54.9403 234.079 54.545 233.974 54.2214 233.765C53.8977 233.555 53.6514 233.267 53.4824 232.9C53.3163 232.53 53.2303 232.105 53.2246 231.626C53.2303 231.139 53.3191 230.711 53.491 230.344C53.6628 229.974 53.9106 229.687 54.2342 229.484C54.5579 229.277 54.9503 229.174 55.4114 229.174C55.8812 229.174 56.2893 229.288 56.6359 229.518C56.9853 229.747 57.2245 230.061 57.3534 230.46L56.7347 230.658C56.6258 230.38 56.4526 230.165 56.2148 230.013C55.98 229.858 55.7107 229.78 55.4071 229.78C55.0663 229.78 54.7842 229.859 54.5608 230.017C54.3374 230.172 54.1712 230.388 54.0624 230.667C53.9535 230.945 53.8977 231.265 53.8948 231.626C53.9006 232.183 54.0294 232.63 54.2815 232.969C54.5335 233.304 54.9088 233.472 55.4071 233.472C55.7222 233.472 55.99 233.4 56.2105 233.257C56.4339 233.111 56.6029 232.898 56.7175 232.62L57.3534 232.809C57.1815 233.222 56.9294 233.538 56.5972 233.756C56.265 233.971 55.8683 234.079 55.4071 234.079Z" fill="#5E6B77"/>
<path d="M60.052 234.079C59.5908 234.079 59.197 233.974 58.8705 233.765C58.544 233.555 58.2933 233.265 58.1186 232.895C57.9439 232.525 57.8566 232.101 57.8566 231.622C57.8566 231.134 57.9453 230.707 58.1229 230.34C58.3005 229.973 58.5526 229.687 58.8791 229.484C59.2085 229.277 59.5994 229.174 60.052 229.174C60.516 229.174 60.9112 229.278 61.2377 229.488C61.5671 229.694 61.8177 229.983 61.9896 230.353C62.1643 230.72 62.2517 231.143 62.2517 231.622C62.2517 232.109 62.1643 232.538 61.9896 232.908C61.8149 233.275 61.5628 233.562 61.2334 233.769C60.9041 233.975 60.5102 234.079 60.052 234.079ZM60.052 233.472C60.5675 233.472 60.9513 233.301 61.2034 232.96C61.4554 232.616 61.5814 232.17 61.5814 231.622C61.5814 231.06 61.454 230.612 61.1991 230.279C60.947 229.947 60.5647 229.78 60.052 229.78C59.7054 229.78 59.419 229.859 59.1927 230.017C58.9693 230.172 58.8017 230.388 58.69 230.667C58.5812 230.942 58.5268 231.26 58.5268 231.622C58.5268 232.181 58.6557 232.63 58.9134 232.969C59.1712 233.304 59.5507 233.472 60.052 233.472Z" fill="#5E6B77"/>
<path d="M63.1951 233.95V229.303H65.107C65.2043 229.303 65.3218 229.309 65.4593 229.32C65.5996 229.331 65.7299 229.353 65.8502 229.385C66.1109 229.453 66.3199 229.594 66.4775 229.806C66.6379 230.018 66.7181 230.274 66.7181 230.572C66.7181 230.738 66.6923 230.888 66.6407 231.02C66.592 231.149 66.5219 231.26 66.4302 231.355C66.3873 231.404 66.34 231.447 66.2884 231.484C66.2369 231.519 66.1868 231.547 66.1381 231.57C66.2297 231.587 66.3285 231.628 66.4345 231.691C66.6006 231.788 66.7267 231.92 66.8126 232.087C66.8985 232.25 66.9415 232.449 66.9415 232.685C66.9415 233.003 66.8656 233.263 66.7138 233.463C66.562 233.664 66.3586 233.802 66.1037 233.876C65.9891 233.908 65.8645 233.928 65.7299 233.937C65.5982 233.945 65.4736 233.95 65.3561 233.95H63.1951ZM63.831 233.412H65.3261C65.3862 233.412 65.4621 233.407 65.5538 233.399C65.6454 233.387 65.7271 233.373 65.7987 233.356C65.9676 233.313 66.0908 233.227 66.1681 233.098C66.2483 232.966 66.2884 232.822 66.2884 232.667C66.2884 232.464 66.2283 232.297 66.108 232.168C65.9906 232.036 65.833 231.956 65.6354 231.927C65.5695 231.913 65.5008 231.904 65.4292 231.902C65.3576 231.899 65.2931 231.897 65.2358 231.897H63.831V233.412ZM63.831 231.355H65.1284C65.2029 231.355 65.286 231.351 65.3776 231.342C65.4721 231.331 65.5538 231.312 65.6225 231.286C65.7715 231.235 65.8803 231.146 65.949 231.02C66.0206 230.893 66.0564 230.756 66.0564 230.606C66.0564 230.443 66.0178 230.3 65.9404 230.176C65.866 230.053 65.7528 229.967 65.601 229.918C65.4979 229.881 65.3862 229.859 65.2659 229.854C65.1485 229.848 65.074 229.845 65.0425 229.845H63.831V231.355Z" fill="#5E6B77"/>
<path d="M67.7935 233.95V229.303H68.3563L70.165 233.106L71.9781 229.303H72.5366V233.95H71.9265V230.654L70.367 233.95H69.9674L68.4079 230.654V233.95H67.7935Z" fill="#5E6B77"/>
<path d="M75.7022 234.079C75.2496 234.079 74.8572 233.978 74.525 233.777C74.1956 233.577 73.9392 233.294 73.7559 232.93C73.5726 232.566 73.481 232.138 73.481 231.648C73.481 231.14 73.5712 230.701 73.7516 230.331C73.9321 229.961 74.1856 229.676 74.5121 229.475C74.8415 229.274 75.2296 229.174 75.6764 229.174C76.1347 229.174 76.5256 229.28 76.8493 229.492C77.1729 229.701 77.4178 230.003 77.5839 230.396C77.7501 230.789 77.826 231.258 77.8116 231.803H77.1672V231.579C77.1557 230.976 77.0254 230.522 76.7762 230.215C76.5299 229.908 76.169 229.755 75.6936 229.755C75.1952 229.755 74.8128 229.917 74.5465 230.241C74.283 230.565 74.1512 231.027 74.1512 231.626C74.1512 232.211 74.283 232.666 74.5465 232.99C74.8128 233.311 75.1895 233.472 75.6764 233.472C76.0086 233.472 76.2979 233.396 76.5442 233.244C76.7934 233.089 76.9896 232.867 77.1328 232.577L77.7214 232.805C77.5381 233.209 77.2674 233.524 76.9094 233.747C76.5543 233.968 76.1518 234.079 75.7022 234.079ZM73.9278 231.803V231.273H77.4722V231.803H73.9278Z" fill="#5E6B77"/>
<path d="M80.6898 234.079C80.223 234.079 79.8277 233.974 79.504 233.765C79.1804 233.555 78.9341 233.267 78.7651 232.9C78.599 232.53 78.513 232.105 78.5073 231.626C78.513 231.139 78.6018 230.711 78.7737 230.344C78.9455 229.974 79.1933 229.687 79.5169 229.484C79.8406 229.277 80.233 229.174 80.6941 229.174C81.1639 229.174 81.572 229.288 81.9186 229.518C82.268 229.747 82.5072 230.061 82.636 230.46L82.0174 230.658C81.9085 230.38 81.7353 230.165 81.4975 230.013C81.2627 229.858 80.9934 229.78 80.6898 229.78C80.349 229.78 80.0669 229.859 79.8435 230.017C79.62 230.172 79.4539 230.388 79.3451 230.667C79.2362 230.945 79.1804 231.265 79.1775 231.626C79.1833 232.183 79.3121 232.63 79.5642 232.969C79.8162 233.304 80.1915 233.472 80.6898 233.472C81.0049 233.472 81.2727 233.4 81.4932 233.257C81.7166 233.111 81.8856 232.898 82.0002 232.62L82.636 232.809C82.4642 233.222 82.2121 233.538 81.8799 233.756C81.5477 233.971 81.151 234.079 80.6898 234.079Z" fill="#5E6B77"/>
<path d="M84.6726 233.95V229.888H83.0271V229.303H86.9497V229.888H85.3042V233.95H84.6726Z" fill="#5E6B77"/>
<path d="M91.4551 229.303V233.95H90.8407V230.331L88.2973 233.95H87.7646V229.303H88.3789V232.891L90.9266 229.303H91.4551Z" fill="#5E6B77"/>
<path d="M92.6566 233.95V229.303H93.2194L95.0282 233.106L96.8412 229.303H97.3997V233.95H96.7897V230.654L95.2301 233.95H94.8305L93.271 230.654V233.95H92.6566Z" fill="#5E6B77"/>
<path d="M100.54 234.079C100.078 234.079 99.6846 233.974 99.358 233.765C99.0315 233.555 98.7809 233.265 98.6062 232.895C98.4315 232.525 98.3441 232.101 98.3441 231.622C98.3441 231.134 98.4329 230.707 98.6105 230.34C98.7881 229.973 99.0401 229.687 99.3666 229.484C99.696 229.277 100.087 229.174 100.54 229.174C101.004 229.174 101.399 229.278 101.725 229.488C102.055 229.694 102.305 229.983 102.477 230.353C102.652 230.72 102.739 231.143 102.739 231.622C102.739 232.109 102.652 232.538 102.477 232.908C102.302 233.275 102.05 233.562 101.721 233.769C101.392 233.975 100.998 234.079 100.54 234.079ZM100.54 233.472C101.055 233.472 101.439 233.301 101.691 232.96C101.943 232.616 102.069 232.17 102.069 231.622C102.069 231.06 101.942 230.612 101.687 230.279C101.435 229.947 101.052 229.78 100.54 229.78C100.193 229.78 99.9065 229.859 99.6803 230.017C99.4569 230.172 99.2893 230.388 99.1776 230.667C99.0688 230.942 99.0143 231.26 99.0143 231.622C99.0143 232.181 99.1432 232.63 99.401 232.969C99.6588 233.304 100.038 233.472 100.54 233.472Z" fill="#5E6B77"/>
<path d="M107.332 234.079C106.865 234.079 106.47 233.974 106.146 233.765C105.822 233.555 105.576 233.267 105.407 232.9C105.241 232.53 105.155 232.105 105.149 231.626C105.155 231.139 105.244 230.711 105.416 230.344C105.588 229.974 105.835 229.687 106.159 229.484C106.483 229.277 106.875 229.174 107.336 229.174C107.806 229.174 108.214 229.288 108.561 229.518C108.91 229.747 109.149 230.061 109.278 230.46L108.659 230.658C108.551 230.38 108.377 230.165 108.14 230.013C107.905 229.858 107.636 229.78 107.332 229.78C106.991 229.78 106.709 229.859 106.486 230.017C106.262 230.172 106.096 230.388 105.987 230.667C105.878 230.945 105.822 231.265 105.82 231.626C105.825 232.183 105.954 232.63 106.206 232.969C106.458 233.304 106.834 233.472 107.332 233.472C107.647 233.472 107.915 233.4 108.135 233.257C108.359 233.111 108.528 232.898 108.642 232.62L109.278 232.809C109.106 233.222 108.854 233.538 108.522 233.756C108.19 233.971 107.793 234.079 107.332 234.079Z" fill="#5E6B77"/>
<path d="M113.213 233.95L111.425 227.754H112.083L113.531 232.87L114.97 227.758L115.632 227.754L117.079 232.87L118.519 227.754H119.18L117.397 233.95H116.761L115.301 228.868L113.849 233.95H113.213Z" fill="#5E6B77"/>
<path d="M119.842 228.421V227.711H120.474V228.421H119.842ZM119.842 233.95V229.303H120.474V233.95H119.842Z" fill="#5E6B77"/>
<path d="M125.113 233.95V231.579C125.113 231.321 125.088 231.084 125.04 230.869C124.991 230.651 124.912 230.462 124.803 230.301C124.697 230.137 124.559 230.011 124.387 229.922C124.218 229.833 124.011 229.789 123.768 229.789C123.545 229.789 123.347 229.828 123.175 229.905C123.006 229.983 122.863 230.094 122.745 230.241C122.631 230.384 122.544 230.559 122.483 230.766C122.423 230.972 122.393 231.207 122.393 231.471L121.946 231.372C121.946 230.896 122.029 230.496 122.196 230.172C122.362 229.848 122.591 229.603 122.883 229.436C123.175 229.27 123.51 229.187 123.888 229.187C124.166 229.187 124.408 229.23 124.614 229.316C124.823 229.402 125 229.518 125.143 229.664C125.289 229.81 125.406 229.978 125.495 230.168C125.584 230.354 125.648 230.553 125.688 230.766C125.729 230.975 125.749 231.184 125.749 231.394V233.95H125.113ZM121.757 233.95V229.303H122.329V230.447H122.393V233.95H121.757Z" fill="#5E6B77"/>
<path d="M128.638 234.079C128.206 234.079 127.836 233.971 127.53 233.756C127.224 233.538 126.989 233.244 126.825 232.874C126.662 232.504 126.581 232.087 126.581 231.622C126.581 231.16 126.661 230.744 126.821 230.374C126.984 230.004 127.218 229.712 127.521 229.496C127.825 229.281 128.189 229.174 128.613 229.174C129.048 229.174 129.415 229.28 129.713 229.492C130.01 229.704 130.235 229.996 130.387 230.366C130.542 230.733 130.619 231.151 130.619 231.622C130.619 232.084 130.543 232.501 130.391 232.874C130.24 233.244 130.016 233.538 129.721 233.756C129.426 233.971 129.065 234.079 128.638 234.079ZM128.703 233.489C129.032 233.489 129.304 233.409 129.519 233.248C129.734 233.088 129.894 232.867 130 232.586C130.106 232.302 130.159 231.98 130.159 231.622C130.159 231.258 130.106 230.936 130 230.658C129.894 230.377 129.734 230.158 129.519 230C129.307 229.842 129.039 229.763 128.716 229.763C128.384 229.763 128.109 229.845 127.891 230.008C127.673 230.172 127.511 230.394 127.405 230.675C127.302 230.956 127.251 231.272 127.251 231.622C127.251 231.975 127.304 232.293 127.41 232.577C127.519 232.858 127.68 233.08 127.895 233.244C128.11 233.407 128.379 233.489 128.703 233.489ZM130.159 233.95V230.452H130.091V227.754H130.726V233.95H130.159Z" fill="#5E6B77"/>
<path d="M133.869 234.079C133.408 234.079 133.014 233.974 132.688 233.765C132.361 233.555 132.111 233.265 131.936 232.895C131.761 232.525 131.674 232.101 131.674 231.622C131.674 231.134 131.763 230.707 131.94 230.34C132.118 229.973 132.37 229.687 132.697 229.484C133.026 229.277 133.417 229.174 133.869 229.174C134.333 229.174 134.729 229.278 135.055 229.488C135.385 229.694 135.635 229.983 135.807 230.353C135.982 230.72 136.069 231.143 136.069 231.622C136.069 232.109 135.982 232.538 135.807 232.908C135.632 233.275 135.38 233.562 135.051 233.769C134.721 233.975 134.328 234.079 133.869 234.079ZM133.869 233.472C134.385 233.472 134.769 233.301 135.021 232.96C135.273 232.616 135.399 232.17 135.399 231.622C135.399 231.06 135.271 230.612 135.016 230.279C134.764 229.947 134.382 229.78 133.869 229.78C133.523 229.78 133.236 229.859 133.01 230.017C132.787 230.172 132.619 230.388 132.507 230.667C132.399 230.942 132.344 231.26 132.344 231.622C132.344 232.181 132.473 232.63 132.731 232.969C132.989 233.304 133.368 233.472 133.869 233.472Z" fill="#5E6B77"/>
<path d="M137.837 233.95L136.419 229.298L137.051 229.303L138.151 232.913L139.255 229.303H139.831L140.935 232.913L142.043 229.303H142.67L141.253 233.95H140.703L139.543 230.249L138.387 233.95H137.837Z" fill="#5E6B77"/>
<path d="M145.008 234.074C144.464 234.074 144.016 233.957 143.663 233.721C143.314 233.486 143.099 233.159 143.019 232.741L143.663 232.633C143.732 232.897 143.888 233.108 144.132 233.265C144.378 233.42 144.682 233.498 145.042 233.498C145.395 233.498 145.673 233.425 145.876 233.278C146.079 233.129 146.181 232.927 146.181 232.672C146.181 232.528 146.148 232.412 146.082 232.323C146.019 232.231 145.889 232.147 145.691 232.069C145.494 231.992 145.199 231.9 144.806 231.794C144.385 231.679 144.056 231.564 143.818 231.45C143.58 231.335 143.411 231.203 143.311 231.054C143.211 230.902 143.161 230.717 143.161 230.499C143.161 230.235 143.235 230.004 143.384 229.806C143.533 229.605 143.739 229.451 144.003 229.342C144.266 229.23 144.573 229.174 144.922 229.174C145.272 229.174 145.584 229.231 145.859 229.346C146.137 229.458 146.36 229.615 146.529 229.819C146.698 230.023 146.798 230.259 146.83 230.529L146.185 230.645C146.142 230.373 146.006 230.158 145.777 230C145.551 229.839 145.263 229.756 144.914 229.75C144.584 229.742 144.316 229.805 144.11 229.94C143.904 230.072 143.801 230.248 143.801 230.469C143.801 230.592 143.838 230.698 143.913 230.787C143.987 230.873 144.122 230.955 144.316 231.032C144.514 231.11 144.795 231.194 145.158 231.286C145.585 231.395 145.92 231.51 146.164 231.63C146.407 231.751 146.581 231.893 146.684 232.056C146.787 232.22 146.838 232.422 146.838 232.663C146.838 233.102 146.675 233.448 146.349 233.7C146.025 233.95 145.578 234.074 145.008 234.074Z" fill="#5E6B77"/>
<path d="M147.705 234.849L147.744 234.535C147.858 234.543 147.942 234.52 147.993 234.466C148.045 234.411 148.076 234.338 148.088 234.246C148.099 234.155 148.102 234.056 148.096 233.95H147.705V233.042H148.44V234.122C148.44 234.386 148.373 234.583 148.238 234.715C148.106 234.847 147.929 234.892 147.705 234.849Z" fill="#5E6B77"/>
<path d="M151.88 233.95V227.754H152.511V233.343H155.45V233.95H151.88Z" fill="#5E6B77"/>
<path d="M156.268 228.421V227.711H156.9V228.421H156.268ZM156.268 233.95V229.303H156.9V233.95H156.268Z" fill="#5E6B77"/>
<path d="M161.539 233.95V231.579C161.539 231.321 161.515 231.084 161.466 230.869C161.417 230.651 161.338 230.462 161.23 230.301C161.124 230.137 160.985 230.011 160.813 229.922C160.644 229.833 160.438 229.789 160.194 229.789C159.971 229.789 159.773 229.828 159.601 229.905C159.432 229.983 159.289 230.094 159.172 230.241C159.057 230.384 158.97 230.559 158.91 230.766C158.849 230.972 158.819 231.207 158.819 231.471L158.373 231.372C158.373 230.896 158.456 230.496 158.622 230.172C158.788 229.848 159.017 229.603 159.309 229.436C159.601 229.27 159.936 229.187 160.315 229.187C160.592 229.187 160.834 229.23 161.041 229.316C161.25 229.402 161.426 229.518 161.569 229.664C161.715 229.81 161.833 229.978 161.921 230.168C162.01 230.354 162.075 230.553 162.115 230.766C162.155 230.975 162.175 231.184 162.175 231.394V233.95H161.539ZM158.184 233.95V229.303H158.755V230.447H158.819V233.95H158.184Z" fill="#5E6B77"/>
<path d="M165.064 234.066C164.786 234.066 164.543 234.023 164.334 233.937C164.127 233.851 163.951 233.734 163.805 233.588C163.662 233.442 163.546 233.275 163.457 233.089C163.368 232.9 163.304 232.7 163.264 232.491C163.224 232.279 163.204 232.068 163.204 231.858V229.303H163.84V231.673C163.84 231.929 163.864 232.165 163.913 232.383C163.961 232.601 164.039 232.792 164.145 232.956C164.253 233.116 164.392 233.241 164.561 233.33C164.733 233.419 164.941 233.463 165.184 233.463C165.408 233.463 165.604 233.425 165.773 233.347C165.945 233.27 166.088 233.159 166.203 233.016C166.32 232.87 166.409 232.693 166.469 232.487C166.529 232.277 166.559 232.042 166.559 231.781L167.006 231.88C167.006 232.356 166.923 232.756 166.757 233.08C166.591 233.405 166.362 233.65 166.069 233.816C165.777 233.983 165.442 234.066 165.064 234.066ZM166.624 233.95V232.805H166.559V229.303H167.191V233.95H166.624Z" fill="#5E6B77"/>
<path d="M167.876 233.95L169.689 231.6L167.915 229.303H168.671L170.059 231.114L171.433 229.303H172.189L170.415 231.6L172.232 233.95H171.472L170.059 232.087L168.636 233.95H167.876Z" fill="#5E6B77"/>
<path d="M178.329 229.303V233.95H177.715V230.331L175.171 233.95H174.639V229.303H175.253V232.891L177.801 229.303H178.329Z" fill="#5E6B77"/>
<path d="M186.789 233.95L186.793 230.899C186.793 230.54 186.693 230.259 186.492 230.056C186.295 229.849 186.043 229.746 185.736 229.746C185.562 229.746 185.391 229.786 185.225 229.866C185.059 229.947 184.921 230.076 184.813 230.254C184.707 230.431 184.654 230.664 184.654 230.951L184.28 230.843C184.271 230.51 184.336 230.219 184.473 229.97C184.614 229.72 184.805 229.527 185.049 229.389C185.295 229.248 185.573 229.178 185.882 229.178C186.349 229.178 186.723 229.323 187.004 229.613C187.284 229.899 187.425 230.288 187.425 230.779L187.42 233.95H186.789ZM181.251 233.95V229.303H181.818V230.447H181.887V233.95H181.251ZM184.026 233.95L184.031 230.942C184.031 230.572 183.932 230.281 183.734 230.069C183.539 229.854 183.282 229.746 182.961 229.746C182.64 229.746 182.381 229.856 182.183 230.077C181.986 230.295 181.887 230.586 181.887 230.951L181.509 230.744C181.509 230.446 181.579 230.179 181.719 229.944C181.86 229.706 182.052 229.519 182.295 229.385C182.538 229.247 182.815 229.178 183.124 229.178C183.419 229.178 183.681 229.241 183.91 229.367C184.142 229.494 184.324 229.677 184.456 229.918C184.588 230.159 184.654 230.452 184.654 230.796L184.649 233.95H184.026Z" fill="#5E6B77"/>
<path d="M189.866 234.079C189.517 234.079 189.223 234.015 188.986 233.889C188.751 233.763 188.575 233.595 188.457 233.386C188.34 233.176 188.281 232.948 188.281 232.702C188.281 232.449 188.331 232.234 188.431 232.056C188.535 231.876 188.673 231.728 188.848 231.613C189.026 231.499 189.231 231.411 189.463 231.351C189.697 231.293 189.957 231.243 190.24 231.2C190.527 231.154 190.806 231.116 191.078 231.084C191.353 231.05 191.593 231.017 191.8 230.985L191.576 231.123C191.585 230.664 191.496 230.324 191.31 230.103C191.124 229.882 190.8 229.772 190.339 229.772C190.021 229.772 189.752 229.843 189.531 229.987C189.314 230.13 189.16 230.357 189.072 230.667L188.457 230.486C188.563 230.07 188.777 229.747 189.097 229.518C189.418 229.288 189.835 229.174 190.348 229.174C190.771 229.174 191.131 229.254 191.426 229.415C191.724 229.572 191.934 229.802 192.057 230.103C192.115 230.238 192.152 230.388 192.169 230.555C192.186 230.721 192.195 230.89 192.195 231.063V233.95H191.632V232.784L191.795 232.852C191.638 233.251 191.393 233.555 191.061 233.765C190.728 233.974 190.33 234.079 189.866 234.079ZM189.939 233.532C190.234 233.532 190.492 233.479 190.713 233.373C190.933 233.267 191.111 233.122 191.245 232.938C191.38 232.752 191.467 232.543 191.508 232.31C191.542 232.161 191.561 231.998 191.563 231.82C191.566 231.639 191.568 231.504 191.568 231.415L191.808 231.54C191.593 231.569 191.36 231.597 191.108 231.626C190.859 231.655 190.612 231.688 190.369 231.725C190.128 231.762 189.911 231.807 189.716 231.858C189.584 231.896 189.457 231.949 189.334 232.018C189.21 232.084 189.109 232.173 189.029 232.284C188.951 232.396 188.913 232.535 188.913 232.702C188.913 232.837 188.946 232.967 189.011 233.093C189.08 233.22 189.189 233.324 189.338 233.407C189.49 233.491 189.69 233.532 189.939 233.532Z" fill="#5E6B77"/>
<path d="M195.238 234.079C194.771 234.079 194.376 233.974 194.052 233.765C193.729 233.555 193.482 233.267 193.313 232.9C193.147 232.53 193.061 232.105 193.056 231.626C193.061 231.139 193.15 230.711 193.322 230.344C193.494 229.974 193.742 229.687 194.065 229.484C194.389 229.277 194.781 229.174 195.242 229.174C195.712 229.174 196.12 229.288 196.467 229.518C196.816 229.747 197.055 230.061 197.184 230.46L196.566 230.658C196.457 230.38 196.284 230.165 196.046 230.013C195.811 229.858 195.542 229.78 195.238 229.78C194.897 229.78 194.615 229.859 194.392 230.017C194.168 230.172 194.002 230.388 193.893 230.667C193.785 230.945 193.729 231.265 193.726 231.626C193.732 232.183 193.86 232.63 194.113 232.969C194.365 233.304 194.74 233.472 195.238 233.472C195.553 233.472 195.821 233.4 196.042 233.257C196.265 233.111 196.434 232.898 196.549 232.62L197.184 232.809C197.013 233.222 196.76 233.538 196.428 233.756C196.096 233.971 195.699 234.079 195.238 234.079Z" fill="#5E6B77"/>
<path d="M200.576 234.079C199.96 234.079 199.44 233.942 199.016 233.67C198.593 233.394 198.272 233.014 198.054 232.53C197.836 232.045 197.728 231.486 197.728 230.852C197.728 230.218 197.836 229.658 198.054 229.174C198.272 228.689 198.593 228.31 199.016 228.038C199.44 227.762 199.96 227.625 200.576 227.625C201.195 227.625 201.714 227.762 202.136 228.038C202.559 228.31 202.88 228.689 203.098 229.174C203.318 229.658 203.429 230.218 203.429 230.852C203.429 231.486 203.318 232.045 203.098 232.53C202.88 233.014 202.559 233.394 202.136 233.67C201.714 233.942 201.195 234.079 200.576 234.079ZM200.576 233.472C201.06 233.472 201.464 233.362 201.788 233.141C202.111 232.92 202.353 232.613 202.514 232.22C202.677 231.824 202.758 231.368 202.758 230.852C202.758 230.335 202.677 229.881 202.514 229.488C202.353 229.095 202.111 228.788 201.788 228.567C201.464 228.346 201.06 228.234 200.576 228.231C200.092 228.231 199.689 228.342 199.369 228.563C199.048 228.784 198.806 229.092 198.643 229.488C198.482 229.881 198.401 230.335 198.398 230.852C198.395 231.368 198.474 231.823 198.634 232.216C198.797 232.606 199.041 232.913 199.364 233.136C199.688 233.357 200.092 233.469 200.576 233.472Z" fill="#5E6B77"/>
<path d="M206.437 234.079C206.005 234.079 205.615 234.007 205.269 233.863C204.925 233.717 204.64 233.511 204.414 233.244C204.19 232.977 204.044 232.66 203.975 232.293L204.62 232.185C204.723 232.587 204.941 232.903 205.273 233.132C205.605 233.359 206.002 233.472 206.463 233.472C206.767 233.472 207.039 233.425 207.279 233.33C207.52 233.232 207.709 233.095 207.846 232.917C207.984 232.739 208.053 232.528 208.053 232.284C208.053 232.124 208.024 231.988 207.967 231.876C207.909 231.761 207.834 231.666 207.739 231.592C207.645 231.517 207.541 231.455 207.43 231.407C207.318 231.355 207.209 231.314 207.103 231.282L205.535 230.813C205.346 230.758 205.171 230.69 205.011 230.606C204.85 230.52 204.71 230.419 204.59 230.301C204.472 230.181 204.381 230.04 204.315 229.879C204.249 229.719 204.216 229.535 204.216 229.329C204.216 228.979 204.308 228.676 204.491 228.421C204.674 228.165 204.925 227.969 205.243 227.831C205.561 227.694 205.923 227.626 206.33 227.629C206.742 227.629 207.11 227.702 207.434 227.849C207.761 227.995 208.03 228.204 208.242 228.477C208.454 228.746 208.594 229.066 208.663 229.436L208.001 229.557C207.958 229.287 207.859 229.053 207.705 228.855C207.55 228.657 207.352 228.505 207.112 228.399C206.874 228.29 206.612 228.234 206.326 228.231C206.048 228.231 205.8 228.279 205.582 228.373C205.367 228.465 205.197 228.591 205.071 228.752C204.945 228.913 204.882 229.096 204.882 229.303C204.882 229.512 204.939 229.68 205.054 229.806C205.171 229.932 205.314 230.031 205.483 230.103C205.655 230.175 205.821 230.234 205.982 230.279L207.193 230.637C207.319 230.671 207.467 230.721 207.636 230.787C207.808 230.85 207.974 230.942 208.134 231.063C208.298 231.18 208.432 231.335 208.538 231.527C208.644 231.719 208.697 231.963 208.697 232.259C208.697 232.545 208.64 232.802 208.525 233.029C208.414 233.255 208.255 233.446 208.048 233.601C207.845 233.756 207.606 233.874 207.331 233.954C207.059 234.037 206.761 234.079 206.437 234.079Z" fill="#5E6B77"/>
<path d="M213.525 235.494C213.187 235.107 212.897 234.674 212.653 234.195C212.413 233.719 212.226 233.218 212.095 232.693C211.966 232.168 211.903 231.64 211.906 231.11C211.903 230.579 211.966 230.051 212.095 229.527C212.226 228.999 212.413 228.497 212.653 228.021C212.897 227.544 213.187 227.113 213.525 226.726L213.989 227.087C213.657 227.486 213.379 227.904 213.156 228.343C212.932 228.779 212.765 229.23 212.653 229.694C212.544 230.159 212.488 230.631 212.486 231.11C212.488 231.583 212.546 232.055 212.657 232.525C212.772 232.993 212.94 233.448 213.16 233.889C213.384 234.328 213.66 234.74 213.989 235.124L213.525 235.494Z" fill="#5E6B77"/>
<path d="M216.29 233.95L214.503 227.754H215.16L216.608 232.87L218.047 227.758L218.709 227.754L220.157 232.87L221.596 227.754H222.258L220.475 233.95H219.839L218.378 228.868L216.926 233.95H216.29Z" fill="#5E6B77"/>
<path d="M222.92 228.421V227.711H223.551V228.421H222.92ZM222.92 233.95V229.303H223.551V233.95H222.92Z" fill="#5E6B77"/>
<path d="M228.19 233.95V231.579C228.19 231.321 228.166 231.084 228.117 230.869C228.069 230.651 227.99 230.462 227.881 230.301C227.775 230.137 227.636 230.011 227.464 229.922C227.295 229.833 227.089 229.789 226.846 229.789C226.622 229.789 226.425 229.828 226.253 229.905C226.084 229.983 225.94 230.094 225.823 230.241C225.708 230.384 225.621 230.559 225.561 230.766C225.501 230.972 225.471 231.207 225.471 231.471L225.024 231.372C225.024 230.896 225.107 230.496 225.273 230.172C225.439 229.848 225.668 229.603 225.96 229.436C226.253 229.27 226.588 229.187 226.966 229.187C227.244 229.187 227.486 229.23 227.692 229.316C227.901 229.402 228.077 229.518 228.22 229.664C228.366 229.81 228.484 229.978 228.573 230.168C228.661 230.354 228.726 230.553 228.766 230.766C228.806 230.975 228.826 231.184 228.826 231.394V233.95H228.19ZM224.835 233.95V229.303H225.406V230.447H225.471V233.95H224.835Z" fill="#5E6B77"/>
<path d="M231.879 234.079C231.427 234.079 231.034 233.978 230.702 233.777C230.373 233.577 230.116 233.294 229.933 232.93C229.75 232.566 229.658 232.138 229.658 231.648C229.658 231.14 229.748 230.701 229.929 230.331C230.109 229.961 230.363 229.676 230.689 229.475C231.019 229.274 231.407 229.174 231.853 229.174C232.312 229.174 232.703 229.28 233.026 229.492C233.35 229.701 233.595 230.003 233.761 230.396C233.927 230.789 234.003 231.258 233.989 231.803H233.344V231.579C233.333 230.976 233.203 230.522 232.953 230.215C232.707 229.908 232.346 229.755 231.871 229.755C231.372 229.755 230.99 229.917 230.724 230.241C230.46 230.565 230.328 231.027 230.328 231.626C230.328 232.211 230.46 232.666 230.724 232.99C230.99 233.311 231.367 233.472 231.853 233.472C232.186 233.472 232.475 233.396 232.721 233.244C232.971 233.089 233.167 232.867 233.31 232.577L233.899 232.805C233.715 233.209 233.445 233.524 233.087 233.747C232.731 233.968 232.329 234.079 231.879 234.079ZM230.105 231.803V231.273H233.649V231.803H230.105Z" fill="#5E6B77"/>
<path d="M234.834 235.494L234.37 235.124C234.7 234.74 234.975 234.328 235.195 233.889C235.419 233.448 235.586 232.993 235.698 232.525C235.813 232.055 235.871 231.583 235.874 231.11C235.871 230.631 235.814 230.159 235.702 229.694C235.593 229.23 235.427 228.779 235.204 228.343C234.981 227.904 234.703 227.486 234.37 227.087L234.834 226.726C235.172 227.113 235.462 227.544 235.702 228.021C235.946 228.497 236.132 228.999 236.261 229.527C236.393 230.051 236.457 230.579 236.454 231.11C236.457 231.64 236.393 232.168 236.261 232.693C236.132 233.218 235.946 233.719 235.702 234.195C235.462 234.674 235.172 235.107 234.834 235.494Z" fill="#5E6B77"/>
<path d="M21.0438 29.0421V23.4531H18.8828V22.8464H23.8364V23.4531H21.6754V29.0421H21.0438Z" fill="#344351"/>
<path d="M25.8846 29.1711C25.4321 29.1711 25.0397 29.0708 24.7074 28.87C24.3781 28.6692 24.1217 28.3866 23.9384 28.0224C23.7551 27.6581 23.6634 27.2307 23.6634 26.7402C23.6634 26.2325 23.7537 25.7937 23.9341 25.4236C24.1146 25.0536 24.368 24.7682 24.6946 24.5674C25.0239 24.3667 25.412 24.2663 25.8589 24.2663C26.3171 24.2663 26.7081 24.3724 27.0317 24.5847C27.3554 24.794 27.6003 25.0952 27.7664 25.4882C27.9325 25.8811 28.0084 26.3501 27.9941 26.8951H27.3497V26.6714C27.3382 26.069 27.2079 25.6144 26.9587 25.3075C26.7124 25.0006 26.3515 24.8471 25.876 24.8471C25.3777 24.8471 24.9953 25.0092 24.7289 25.3333C24.4654 25.6574 24.3337 26.1192 24.3337 26.7187C24.3337 27.3038 24.4654 27.7585 24.7289 28.0826C24.9953 28.4039 25.3719 28.5645 25.8589 28.5645C26.1911 28.5645 26.4804 28.4885 26.7267 28.3365C26.9759 28.1816 27.1721 27.9593 27.3153 27.6696L27.9039 27.8976C27.7206 28.302 27.4499 28.6161 27.0919 28.8398C26.7367 29.0607 26.3343 29.1711 25.8846 29.1711ZM24.1103 26.8951V26.3659H27.6547V26.8951H24.1103Z" fill="#344351"/>
<path d="M28.5179 29.0421V28.487C28.6898 28.5186 28.8201 28.5114 28.9089 28.4655C29.0005 28.4168 29.0679 28.3365 29.1108 28.2246C29.1538 28.1099 29.1896 27.9679 29.2182 27.7986C29.2641 27.5175 29.3056 27.2078 29.3428 26.8693C29.3801 26.5308 29.413 26.1579 29.4416 25.7506C29.4731 25.3405 29.5046 24.8887 29.5361 24.3953H32.6896V29.0421H32.0624V25.002H30.1204C30.1004 25.306 30.0775 25.6087 30.0517 25.9098C30.0259 26.211 29.9987 26.5007 29.9701 26.7789C29.9443 27.0543 29.9157 27.3082 29.8842 27.5405C29.8526 27.7728 29.8197 27.9736 29.7853 28.1428C29.7338 28.3981 29.665 28.6018 29.5791 28.7538C29.4961 28.9058 29.3715 29.0062 29.2053 29.055C29.0392 29.1037 28.8101 29.0994 28.5179 29.0421Z" fill="#344351"/>
<path d="M35.8534 29.1711C35.4008 29.1711 35.0084 29.0708 34.6762 28.87C34.3468 28.6692 34.0905 28.3866 33.9072 28.0224C33.7239 27.6581 33.6322 27.2307 33.6322 26.7402C33.6322 26.2325 33.7224 25.7937 33.9029 25.4236C34.0833 25.0536 34.3368 24.7682 34.6633 24.5674C34.9927 24.3667 35.3808 24.2663 35.8276 24.2663C36.2859 24.2663 36.6768 24.3724 37.0005 24.5847C37.3241 24.794 37.569 25.0952 37.7352 25.4882C37.9013 25.8811 37.9772 26.3501 37.9629 26.8951H37.3184V26.6714C37.307 26.069 37.1766 25.6144 36.9275 25.3075C36.6811 25.0006 36.3202 24.8471 35.8448 24.8471C35.3464 24.8471 34.9641 25.0092 34.6977 25.3333C34.4342 25.6574 34.3024 26.1192 34.3024 26.7187C34.3024 27.3038 34.4342 27.7585 34.6977 28.0826C34.9641 28.4039 35.3407 28.5645 35.8276 28.5645C36.1599 28.5645 36.4491 28.4885 36.6955 28.3365C36.9446 28.1816 37.1408 27.9593 37.284 27.6696L37.8726 27.8976C37.6893 28.302 37.4187 28.6161 37.0606 28.8398C36.7055 29.0607 36.3031 29.1711 35.8534 29.1711ZM34.079 26.8951V26.3659H37.6235V26.8951H34.079Z" fill="#344351"/>
<path d="M41.116 30.9782V29.1324C40.6635 29.2041 40.251 29.1554 39.8787 28.9861C39.5063 28.814 39.2099 28.5358 38.9893 28.1514C38.7688 27.7671 38.6585 27.2909 38.6585 26.723C38.6585 26.1551 38.7688 25.6789 38.9893 25.2946C39.2099 24.9073 39.5063 24.6277 39.8787 24.4556C40.251 24.2835 40.6635 24.2333 41.116 24.305V22.8809H41.7003V24.305C42.1529 24.2333 42.5653 24.2835 42.9376 24.4556C43.31 24.6277 43.6064 24.9073 43.827 25.2946C44.0475 25.6789 44.1578 26.1551 44.1578 26.723C44.1578 27.2909 44.0475 27.7671 43.827 28.1514C43.6064 28.5358 43.31 28.814 42.9376 28.9861C42.5653 29.1554 42.1529 29.2041 41.7003 29.1324V30.9782H41.116ZM41.116 28.543V24.8987C40.884 24.8586 40.6606 24.8658 40.4458 24.9203C40.231 24.9719 40.0376 25.0737 39.8658 25.2257C39.6939 25.3749 39.5579 25.5742 39.4576 25.8238C39.3603 26.0705 39.3116 26.3702 39.3116 26.723C39.3116 27.0758 39.3617 27.377 39.4619 27.6265C39.5622 27.8732 39.6982 28.0711 39.8701 28.2203C40.0419 28.3694 40.2353 28.4698 40.4501 28.5215C40.6649 28.5731 40.8869 28.5803 41.116 28.543ZM41.7003 28.543C41.9294 28.5803 42.1514 28.5731 42.3662 28.5215C42.581 28.4698 42.7744 28.3709 42.9462 28.2246C43.1181 28.0754 43.2541 27.8775 43.3544 27.6308C43.4546 27.3813 43.5048 27.0787 43.5048 26.723C43.5048 26.3673 43.4546 26.0662 43.3544 25.8195C43.257 25.5699 43.1224 25.3706 42.9505 25.2214C42.7787 25.0723 42.5853 24.9719 42.3705 24.9203C42.1557 24.8658 41.9323 24.8586 41.7003 24.8987V28.543Z" fill="#344351"/>
<path d="M47.0383 29.1711C46.5771 29.1711 46.1833 29.0664 45.8568 28.8571C45.5303 28.6477 45.2796 28.358 45.1049 27.9879C44.9302 27.6179 44.8428 27.1934 44.8428 26.7144C44.8428 26.2268 44.9316 25.7994 45.1092 25.4323C45.2868 25.0651 45.5388 24.7797 45.8654 24.576C46.1947 24.3695 46.5857 24.2663 47.0383 24.2663C47.5023 24.2663 47.8975 24.371 48.224 24.5804C48.5534 24.7869 48.804 25.0751 48.9759 25.4452C49.1506 25.8123 49.238 26.2354 49.238 26.7144C49.238 27.202 49.1506 27.6308 48.9759 28.0009C48.8012 28.368 48.5491 28.6548 48.2197 28.8614C47.8904 29.0679 47.4965 29.1711 47.0383 29.1711ZM47.0383 28.5645C47.5538 28.5645 47.9376 28.3938 48.1897 28.0525C48.4417 27.7083 48.5677 27.2623 48.5677 26.7144C48.5677 26.1522 48.4403 25.7047 48.1854 25.372C47.9333 25.0393 47.5509 24.8729 47.0383 24.8729C46.6917 24.8729 46.4053 24.9518 46.179 25.1096C45.9556 25.2645 45.788 25.481 45.6763 25.7592C45.5675 26.0346 45.5131 26.353 45.5131 26.7144C45.5131 27.2737 45.642 27.7226 45.8997 28.0611C46.1575 28.3967 46.537 28.5645 47.0383 28.5645Z" fill="#344351"/>
<path d="M50.1814 29.0421V24.3953H50.813V26.4132H53.4294V24.3953H54.061V29.0421H53.4294V27.0199H50.813V29.0421H50.1814Z" fill="#344351"/>
<path d="M68.1142 29.0421H67.4784V23.9608L64.0714 29.0421H63.4355V22.8464H64.0714V27.9234L67.4784 22.8464H68.1142V29.0421Z" fill="#9CA5AC"/>
<path d="M71.2425 29.1711C70.7757 29.1711 70.3804 29.0664 70.0567 28.8571C69.7331 28.6477 69.4868 28.3594 69.3178 27.9923C69.1517 27.6222 69.0657 27.1977 69.06 26.7187C69.0657 26.2311 69.1545 25.8037 69.3264 25.4366C69.4982 25.0665 69.746 24.7797 70.0696 24.576C70.3933 24.3695 70.7857 24.2663 71.2468 24.2663C71.7165 24.2663 72.1247 24.381 72.4713 24.6105C72.8207 24.8399 73.0599 25.154 73.1887 25.5527L72.5701 25.7506C72.4612 25.4724 72.288 25.2573 72.0502 25.1053C71.8154 24.9504 71.5461 24.8729 71.2425 24.8729C70.9017 24.8729 70.6196 24.9518 70.3962 25.1096C70.1727 25.2645 70.0066 25.481 69.8978 25.7592C69.7889 26.0375 69.7331 26.3573 69.7302 26.7187C69.736 27.2752 69.8648 27.7226 70.1169 28.0611C70.3689 28.3967 70.7442 28.5645 71.2425 28.5645C71.5576 28.5645 71.8254 28.4928 72.0459 28.3494C72.2693 28.2031 72.4383 27.9908 72.5529 27.7126L73.1887 27.9019C73.0169 28.3149 72.7648 28.6305 72.4326 28.8485C72.1003 29.0636 71.7037 29.1711 71.2425 29.1711Z" fill="#9CA5AC"/>
<path d="M75.2253 29.0421V24.9805H73.5798V24.3953H77.5024V24.9805H75.8569V29.0421H75.2253Z" fill="#9CA5AC"/>
<path d="M80.1753 29.1711C79.7141 29.1711 79.3203 29.0664 78.9938 28.8571C78.6673 28.6477 78.4166 28.358 78.2419 27.9879C78.0672 27.6179 77.9799 27.1934 77.9799 26.7144C77.9799 26.2268 78.0686 25.7994 78.2462 25.4323C78.4238 25.0651 78.6759 24.7797 79.0024 24.576C79.3318 24.3695 79.7227 24.2663 80.1753 24.2663C80.6393 24.2663 81.0345 24.371 81.361 24.5804C81.6904 24.7869 81.941 25.0751 82.1129 25.4452C82.2876 25.8123 82.375 26.2354 82.375 26.7144C82.375 27.202 82.2876 27.6308 82.1129 28.0009C81.9382 28.368 81.6861 28.6548 81.3567 28.8614C81.0274 29.0679 80.6335 29.1711 80.1753 29.1711ZM80.1753 28.5645C80.6908 28.5645 81.0746 28.3938 81.3267 28.0525C81.5787 27.7083 81.7047 27.2623 81.7047 26.7144C81.7047 26.1522 81.5773 25.7047 81.3224 25.372C81.0703 25.0393 80.688 24.8729 80.1753 24.8729C79.8287 24.8729 79.5423 24.9518 79.316 25.1096C79.0926 25.2645 78.925 25.481 78.8133 25.7592C78.7045 26.0346 78.6501 26.353 78.6501 26.7144C78.6501 27.2737 78.779 27.7226 79.0367 28.0611C79.2945 28.3967 79.674 28.5645 80.1753 28.5645Z" fill="#9CA5AC"/>
<path d="M85.4064 29.1711C84.9796 29.1711 84.6187 29.0636 84.3237 28.8485C84.0287 28.6305 83.8053 28.3365 83.6535 27.9664C83.5017 27.5936 83.4258 27.1762 83.4258 26.7144C83.4258 26.244 83.5017 25.8252 83.6535 25.4581C83.8082 25.088 84.0345 24.7969 84.3323 24.5847C84.6302 24.3724 84.9968 24.2663 85.4322 24.2663C85.8561 24.2663 86.2198 24.3738 86.5234 24.589C86.827 24.8041 87.059 25.0967 87.2194 25.4667C87.3827 25.8367 87.4643 26.2526 87.4643 26.7144C87.4643 27.1791 87.3827 27.5964 87.2194 27.9664C87.0562 28.3365 86.8213 28.6305 86.5148 28.8485C86.2084 29.0636 85.8389 29.1711 85.4064 29.1711ZM83.3184 31.1073V24.3953H83.8855V27.8933H83.9543V31.1073H83.3184ZM85.342 28.5817C85.6656 28.5817 85.9348 28.4999 86.1497 28.3365C86.3645 28.173 86.5249 27.9507 86.6308 27.6696C86.7397 27.3856 86.7941 27.0672 86.7941 26.7144C86.7941 26.3645 86.7411 26.0489 86.6351 25.7678C86.5292 25.4867 86.3673 25.2645 86.1497 25.101C85.9348 24.9375 85.6613 24.8557 85.3291 24.8557C85.0054 24.8557 84.7362 24.9346 84.5214 25.0924C84.3094 25.2501 84.1505 25.4695 84.0445 25.7506C83.9385 26.0289 83.8855 26.3501 83.8855 26.7144C83.8855 27.0729 83.9385 27.3942 84.0445 27.6782C84.1505 27.9593 84.3109 28.1801 84.5257 28.3408C84.7405 28.5014 85.0126 28.5817 85.342 28.5817Z" fill="#9CA5AC"/>
<path d="M92.094 24.3953V29.0421H91.4796V25.4236L88.9362 29.0421H88.4035V24.3953H89.0178V27.9836L91.5655 24.3953H92.094Z" fill="#9CA5AC"/>
<path d="M96.2084 29.0421V27.2909H95.1258C94.9997 27.2909 94.8694 27.2866 94.7348 27.278C94.6031 27.2666 94.4799 27.2508 94.3653 27.2307C94.0388 27.1676 93.761 27.0242 93.5318 26.8005C93.3056 26.5739 93.1924 26.2612 93.1924 25.8625C93.1924 25.4724 93.2984 25.1598 93.5104 24.9246C93.7223 24.6865 93.9787 24.5316 94.2794 24.4599C94.4169 24.4283 94.5558 24.4097 94.6961 24.4039C94.8393 24.3982 94.9625 24.3953 95.0656 24.3953H96.84L96.8443 29.0421H96.2084ZM93.0421 29.0421L94.3353 27.093H95.0355L93.7338 29.0421H93.0421ZM95.0914 26.7488H96.2084V24.9375H95.0914C95.0227 24.9375 94.9267 24.9403 94.8035 24.9461C94.6804 24.9518 94.5644 24.9704 94.4555 25.002C94.361 25.0307 94.2665 25.0809 94.172 25.1526C94.0803 25.2214 94.003 25.3146 93.94 25.4323C93.877 25.547 93.8455 25.6875 93.8455 25.8539C93.8455 26.0862 93.9085 26.2727 94.0345 26.4132C94.1634 26.5509 94.3238 26.6456 94.5157 26.6972C94.6188 26.7201 94.7219 26.7345 94.825 26.7402C94.9281 26.746 95.0169 26.7488 95.0914 26.7488Z" fill="#9CA5AC"/>
<path d="M101.441 29.1711C100.974 29.1711 100.566 29.0693 100.216 28.8657C99.8697 28.6591 99.5962 28.3737 99.3957 28.0095L99.9026 27.6868C100.072 27.9736 100.282 28.1916 100.534 28.3408C100.786 28.4899 101.076 28.5645 101.402 28.5645C101.743 28.5645 102.016 28.4856 102.223 28.3278C102.429 28.1701 102.532 27.9535 102.532 27.6782C102.532 27.4889 102.488 27.3383 102.399 27.2264C102.313 27.1145 102.181 27.0342 102.004 26.9855C101.829 26.9367 101.61 26.9123 101.346 26.9123H100.796V26.3702H101.338C101.658 26.3702 101.916 26.3128 102.111 26.1981C102.309 26.0805 102.407 25.8969 102.407 25.6474C102.407 25.3835 102.309 25.1884 102.111 25.0622C101.916 24.9332 101.683 24.8686 101.411 24.8686C101.136 24.8686 100.875 24.926 100.629 25.0407C100.385 25.1526 100.18 25.2974 100.014 25.4753L99.6105 25.0493C99.8425 24.794 100.113 24.6004 100.423 24.4685C100.735 24.3337 101.08 24.2663 101.458 24.2663C101.756 24.2663 102.025 24.3193 102.266 24.4255C102.509 24.5287 102.701 24.6807 102.841 24.8815C102.985 25.0823 103.056 25.3233 103.056 25.6044C103.056 25.8682 102.992 26.0963 102.863 26.2885C102.737 26.4806 102.558 26.6398 102.326 26.766L102.291 26.5294C102.492 26.5667 102.658 26.647 102.79 26.7703C102.922 26.8937 103.019 27.0414 103.082 27.2135C103.145 27.3856 103.176 27.5606 103.176 27.7384C103.176 28.0338 103.099 28.2891 102.944 28.5043C102.793 28.7165 102.585 28.8814 102.321 28.999C102.061 29.1138 101.767 29.1711 101.441 29.1711Z" fill="#9CA5AC"/>
<path d="M104.12 29.0421V24.3953H106.032C106.129 24.3953 106.247 24.4011 106.384 24.4126C106.525 24.424 106.655 24.4455 106.775 24.4771C107.036 24.5459 107.245 24.6865 107.403 24.8987C107.563 25.111 107.643 25.3663 107.643 25.6646C107.643 25.831 107.617 25.9801 107.566 26.112C107.517 26.2411 107.447 26.353 107.355 26.4476C107.312 26.4964 107.265 26.5394 107.214 26.5767C107.162 26.6111 107.112 26.6398 107.063 26.6628C107.155 26.68 107.254 26.7201 107.36 26.7832C107.526 26.8808 107.652 27.0127 107.738 27.1791C107.824 27.3426 107.867 27.5419 107.867 27.7771C107.867 28.0955 107.791 28.3551 107.639 28.5559C107.487 28.7567 107.284 28.8943 107.029 28.9689C106.914 29.0005 106.79 29.0206 106.655 29.0292C106.523 29.0378 106.399 29.0421 106.281 29.0421H104.12ZM104.756 28.5043H106.251C106.311 28.5043 106.387 28.4999 106.479 28.4913C106.571 28.4799 106.652 28.4655 106.724 28.4483C106.893 28.4053 107.016 28.3192 107.093 28.1902C107.173 28.0582 107.214 27.9148 107.214 27.7599C107.214 27.5563 107.153 27.3899 107.033 27.2608C106.916 27.1289 106.758 27.0486 106.56 27.0199C106.495 27.0055 106.426 26.9969 106.354 26.9941C106.283 26.9912 106.218 26.9898 106.161 26.9898H104.756V28.5043ZM104.756 26.4476H106.054C106.128 26.4476 106.211 26.4433 106.303 26.4347C106.397 26.4233 106.479 26.4046 106.548 26.3788C106.697 26.3272 106.805 26.2383 106.874 26.112C106.946 25.9858 106.982 25.8482 106.982 25.699C106.982 25.5355 106.943 25.3921 106.866 25.2688C106.791 25.1454 106.678 25.0594 106.526 25.0106C106.423 24.9733 106.311 24.9518 106.191 24.9461C106.074 24.9403 105.999 24.9375 105.968 24.9375H104.756V26.4476Z" fill="#9CA5AC"/>
<path d="M110.661 29.1711C110.199 29.1711 109.806 29.0664 109.479 28.8571C109.153 28.6477 108.902 28.358 108.727 27.9879C108.552 27.6179 108.465 27.1934 108.465 26.7144C108.465 26.2268 108.554 25.7994 108.731 25.4323C108.909 25.0651 109.161 24.7797 109.488 24.576C109.817 24.3695 110.208 24.2663 110.661 24.2663C111.125 24.2663 111.52 24.371 111.846 24.5804C112.176 24.7869 112.426 25.0751 112.598 25.4452C112.773 25.8123 112.86 26.2354 112.86 26.7144C112.86 27.202 112.773 27.6308 112.598 28.0009C112.423 28.368 112.171 28.6548 111.842 28.8614C111.513 29.0679 111.119 29.1711 110.661 29.1711ZM110.661 28.5645C111.176 28.5645 111.56 28.3938 111.812 28.0525C112.064 27.7083 112.19 27.2623 112.19 26.7144C112.19 26.1522 112.063 25.7047 111.808 25.372C111.556 25.0393 111.173 24.8729 110.661 24.8729C110.314 24.8729 110.028 24.9518 109.801 25.1096C109.578 25.2645 109.41 25.481 109.299 25.7592C109.19 26.0346 109.135 26.353 109.135 26.7144C109.135 27.2737 109.264 27.7226 109.522 28.0611C109.78 28.3967 110.159 28.5645 110.661 28.5645Z" fill="#9CA5AC"/>
<path d="M113.804 29.0421V24.3953H114.435V26.4132H117.052V24.3953H117.683V29.0421H117.052V27.0199H114.435V29.0421H113.804Z" fill="#9CA5AC"/>
<path d="M118.88 29.0421L118.885 24.3953H119.52V26.6327L121.591 24.3953H122.433L120.259 26.7187L122.717 29.0421H121.798L119.52 26.8048V29.0421H118.88Z" fill="#9CA5AC"/>
<path d="M125.001 29.1711C124.54 29.1711 124.146 29.0664 123.82 28.8571C123.493 28.6477 123.242 28.358 123.068 27.9879C122.893 27.6179 122.806 27.1934 122.806 26.7144C122.806 26.2268 122.894 25.7994 123.072 25.4323C123.25 25.0651 123.502 24.7797 123.828 24.576C124.158 24.3695 124.549 24.2663 125.001 24.2663C125.465 24.2663 125.86 24.371 126.187 24.5804C126.516 24.7869 126.767 25.0751 126.939 25.4452C127.113 25.8123 127.201 26.2354 127.201 26.7144C127.201 27.202 127.113 27.6308 126.939 28.0009C126.764 28.368 126.512 28.6548 126.183 28.8614C125.853 29.0679 125.459 29.1711 125.001 29.1711ZM125.001 28.5645C125.517 28.5645 125.9 28.3938 126.152 28.0525C126.405 27.7083 126.531 27.2623 126.531 26.7144C126.531 26.1522 126.403 25.7047 126.148 25.372C125.896 25.0393 125.514 24.8729 125.001 24.8729C124.655 24.8729 124.368 24.9518 124.142 25.1096C123.918 25.2645 123.751 25.481 123.639 25.7592C123.53 26.0346 123.476 26.353 123.476 26.7144C123.476 27.2737 123.605 27.7226 123.863 28.0611C124.12 28.3967 124.5 28.5645 125.001 28.5645Z" fill="#9CA5AC"/>
<path d="M128.144 29.0421V24.3953H130.056C130.153 24.3953 130.271 24.4011 130.408 24.4126C130.549 24.424 130.679 24.4455 130.799 24.4771C131.06 24.5459 131.269 24.6865 131.427 24.8987C131.587 25.111 131.667 25.3663 131.667 25.6646C131.667 25.831 131.641 25.9801 131.59 26.112C131.541 26.2411 131.471 26.353 131.379 26.4476C131.336 26.4964 131.289 26.5394 131.238 26.5767C131.186 26.6111 131.136 26.6398 131.087 26.6628C131.179 26.68 131.278 26.7201 131.384 26.7832C131.55 26.8808 131.676 27.0127 131.762 27.1791C131.848 27.3426 131.891 27.5419 131.891 27.7771C131.891 28.0955 131.815 28.3551 131.663 28.5559C131.511 28.7567 131.308 28.8943 131.053 28.9689C130.938 29.0005 130.814 29.0206 130.679 29.0292C130.547 29.0378 130.423 29.0421 130.305 29.0421H128.144ZM128.78 28.5043H130.275C130.335 28.5043 130.411 28.4999 130.503 28.4913C130.595 28.4799 130.676 28.4655 130.748 28.4483C130.917 28.4053 131.04 28.3192 131.117 28.1902C131.197 28.0582 131.238 27.9148 131.238 27.7599C131.238 27.5563 131.177 27.3899 131.057 27.2608C130.94 27.1289 130.782 27.0486 130.585 27.0199C130.519 27.0055 130.45 26.9969 130.378 26.9941C130.307 26.9912 130.242 26.9898 130.185 26.9898H128.78V28.5043ZM128.78 26.4476H130.078C130.152 26.4476 130.235 26.4433 130.327 26.4347C130.421 26.4233 130.503 26.4046 130.572 26.3788C130.721 26.3272 130.829 26.2383 130.898 26.112C130.97 25.9858 131.006 25.8482 131.006 25.699C131.006 25.5355 130.967 25.3921 130.89 25.2688C130.815 25.1454 130.702 25.0594 130.55 25.0106C130.447 24.9733 130.335 24.9518 130.215 24.9461C130.098 24.9403 130.023 24.9375 129.992 24.9375H128.78V26.4476Z" fill="#9CA5AC"/>
<path d="M141.305 29.0421V22.8464H141.936V25.7721L144.759 22.8464H145.567L142.684 25.8367L145.803 29.0421H144.978L141.936 25.9443V29.0421H141.305Z" fill="#9CA5AC"/>
<path d="M148 29.1711C147.539 29.1711 147.145 29.0664 146.819 28.8571C146.492 28.6477 146.242 28.358 146.067 27.9879C145.892 27.6179 145.805 27.1934 145.805 26.7144C145.805 26.2268 145.894 25.7994 146.071 25.4323C146.249 25.0651 146.501 24.7797 146.827 24.576C147.157 24.3695 147.548 24.2663 148 24.2663C148.464 24.2663 148.859 24.371 149.186 24.5804C149.515 24.7869 149.766 25.0751 149.938 25.4452C150.112 25.8123 150.2 26.2354 150.2 26.7144C150.2 27.202 150.112 27.6308 149.938 28.0009C149.763 28.368 149.511 28.6548 149.182 28.8614C148.852 29.0679 148.458 29.1711 148 29.1711ZM148 28.5645C148.516 28.5645 148.899 28.3938 149.152 28.0525C149.404 27.7083 149.53 27.2623 149.53 26.7144C149.53 26.1522 149.402 25.7047 149.147 25.372C148.895 25.0393 148.513 24.8729 148 24.8729C147.654 24.8729 147.367 24.9518 147.141 25.1096C146.917 25.2645 146.75 25.481 146.638 25.7592C146.529 26.0346 146.475 26.353 146.475 26.7144C146.475 27.2737 146.604 27.7226 146.862 28.0611C147.119 28.3967 147.499 28.5645 148 28.5645Z" fill="#9CA5AC"/>
<path d="M151.143 29.0421V24.3953H151.775V26.4132H154.391V24.3953H155.023V29.0421H154.391V27.0199H151.775V29.0421H151.143Z" fill="#9CA5AC"/>
<path d="M157.483 29.0421V24.9805H155.838V24.3953H159.76V24.9805H158.115V29.0421H157.483Z" fill="#9CA5AC"/>
<path d="M161.731 29.1711C161.381 29.1711 161.088 29.108 160.85 28.9818C160.615 28.8556 160.439 28.6878 160.321 28.4784C160.204 28.269 160.145 28.041 160.145 27.7943C160.145 27.5419 160.195 27.3268 160.296 27.149C160.399 26.9683 160.538 26.8205 160.712 26.7058C160.89 26.5911 161.095 26.5036 161.327 26.4433C161.562 26.386 161.821 26.3358 162.104 26.2928C162.391 26.2469 162.67 26.2081 162.942 26.1766C163.217 26.1422 163.458 26.1092 163.664 26.0776L163.441 26.2153C163.449 25.7564 163.36 25.4165 163.174 25.1956C162.988 24.9747 162.664 24.8643 162.203 24.8643C161.885 24.8643 161.616 24.936 161.396 25.0794C161.178 25.2229 161.025 25.4495 160.936 25.7592L160.321 25.5785C160.427 25.1626 160.641 24.8399 160.962 24.6105C161.282 24.381 161.699 24.2663 162.212 24.2663C162.636 24.2663 162.995 24.3466 163.29 24.5072C163.588 24.665 163.799 24.8944 163.922 25.1956C163.979 25.3304 164.016 25.481 164.033 25.6474C164.051 25.8137 164.059 25.983 164.059 26.1551V29.0421H163.496V27.8761L163.66 27.9449C163.502 28.3436 163.257 28.6477 162.925 28.8571C162.593 29.0664 162.195 29.1711 161.731 29.1711ZM161.804 28.6247C162.099 28.6247 162.356 28.5717 162.577 28.4655C162.798 28.3594 162.975 28.2145 163.11 28.031C163.244 27.8445 163.332 27.6351 163.372 27.4028C163.406 27.2537 163.425 27.0902 163.428 26.9123C163.431 26.7316 163.432 26.5968 163.432 26.5079L163.673 26.6327C163.458 26.6613 163.224 26.69 162.972 26.7187C162.723 26.7474 162.477 26.7804 162.233 26.8177C161.993 26.855 161.775 26.8994 161.58 26.951C161.449 26.9883 161.321 27.0414 161.198 27.1102C161.075 27.1762 160.973 27.2651 160.893 27.377C160.816 27.4889 160.777 27.628 160.777 27.7943C160.777 27.9291 160.81 28.0597 160.876 28.1859C160.944 28.3121 161.053 28.4168 161.202 28.4999C161.354 28.5831 161.554 28.6247 161.804 28.6247Z" fill="#9CA5AC"/>
<path d="M165.173 29.0421L165.178 24.3953H165.814V26.6327L167.884 24.3953H168.726L166.552 26.7187L169.01 29.0421H168.091L165.814 26.8048V29.0421H165.173Z" fill="#9CA5AC"/>
<path d="M170.699 29.0421V24.9805H169.054V24.3953H172.976V24.9805H171.331V29.0421H170.699Z" fill="#9CA5AC"/>
<path d="M173.8 29.0421L173.791 24.3953H174.427V26.1465H175.235C175.369 26.1465 175.501 26.1493 175.63 26.1551C175.759 26.1608 175.875 26.1723 175.978 26.1895C176.207 26.2354 176.41 26.3128 176.588 26.4218C176.766 26.5308 176.906 26.6814 177.009 26.8736C177.112 27.0629 177.164 27.3024 177.164 27.5921C177.164 27.9908 177.061 28.3049 176.854 28.5344C176.648 28.7638 176.389 28.913 176.077 28.9818C175.959 29.0076 175.832 29.0249 175.694 29.0335C175.557 29.0392 175.422 29.0421 175.291 29.0421H173.8ZM174.427 28.4999H175.265C175.359 28.4999 175.467 28.4971 175.587 28.4913C175.707 28.4856 175.813 28.4698 175.905 28.444C176.06 28.401 176.198 28.3149 176.322 28.1859C176.448 28.0539 176.511 27.856 176.511 27.5921C176.511 27.3311 176.451 27.1346 176.33 27.0027C176.21 26.8679 176.05 26.7789 175.849 26.7359C175.757 26.7158 175.66 26.7029 175.557 26.6972C175.457 26.6915 175.359 26.6886 175.265 26.6886H174.427V28.4999ZM177.718 29.0421V24.3953H178.35V29.0421H177.718Z" fill="#9CA5AC"/>
<path d="M18.7969 63.7732C18.7969 62.1163 20.14 60.7732 21.7969 60.7732H101.803V90.353H18.7969V63.7732Z" fill="white"/>
<path d="M59.9288 82.063V71.855L57.7608 73.159V71.839L59.9288 70.543H61.1208V82.063H59.9288Z" fill="#5E6B77"/>
<rect width="83.0065" height="29.5798" transform="translate(18.7969 91.9666)" fill="white"/>
<path d="M61.4928 113.256V111.024H56.1008V109.904L59.9568 101.736H61.2768L57.4208 109.904H61.4928V106.544H62.6768V109.904H63.9328V111.024H62.6768V113.256H61.4928Z" fill="#5E6B77"/>
<rect width="83.0065" height="29.5798" transform="translate(18.7969 123.16)" fill="white"/>
<path d="M57.5368 144.449L61.7768 134.073H56.4408V132.929H63.0328V134.073L58.8008 144.449H57.5368Z" fill="#5E6B77"/>
<path d="M18.7969 154.353H101.803V183.933H21.7969C20.14 183.933 18.7969 182.59 18.7969 180.933V154.353Z" fill="white"/>
<path d="M58.8806 169.411L58.0006 168.771L59.2646 167.139L57.2886 166.539L57.6246 165.507L59.5686 166.195L59.5206 164.123H60.6086L60.5606 166.195L62.4966 165.507L62.8326 166.539L60.8646 167.139L62.1126 168.771L61.2326 169.411L60.0646 167.715L58.8806 169.411Z" fill="#5E6B77"/>
<rect width="83.0065" height="29.5798" transform="translate(103.498 60.7732)" fill="white"/>
<path d="M140.802 82.055L140.81 80.983L146.018 76.279C146.466 75.8737 146.762 75.4897 146.906 75.127C147.055 74.759 147.13 74.375 147.13 73.975C147.13 73.5003 147.018 73.071 146.794 72.687C146.57 72.303 146.269 71.999 145.89 71.775C145.511 71.5457 145.087 71.431 144.618 71.431C144.127 71.431 143.69 71.5483 143.306 71.783C142.922 72.0177 142.618 72.327 142.394 72.711C142.175 73.095 142.069 73.5137 142.074 73.967H140.874C140.874 73.2683 141.039 72.6417 141.37 72.087C141.701 71.5323 142.149 71.0977 142.714 70.783C143.279 70.463 143.919 70.303 144.634 70.303C145.333 70.303 145.959 70.4683 146.514 70.799C147.074 71.1243 147.514 71.567 147.834 72.127C148.159 72.6817 148.322 73.3003 148.322 73.983C148.322 74.463 148.263 74.887 148.146 75.255C148.034 75.6177 147.855 75.9563 147.61 76.271C147.37 76.5803 147.063 76.9003 146.69 77.231L142.066 81.407L141.882 80.927H148.322V82.055H140.802Z" fill="#5E6B77"/>
<rect width="83.0065" height="29.5798" transform="translate(103.498 91.9666)" fill="white"/>
<path d="M144.522 113.496C143.925 113.496 143.373 113.374 142.866 113.128C142.359 112.883 141.927 112.544 141.57 112.112C141.213 111.68 140.957 111.184 140.802 110.624L141.93 110.32C142.031 110.736 142.215 111.096 142.482 111.4C142.749 111.699 143.061 111.931 143.418 112.096C143.781 112.262 144.159 112.344 144.554 112.344C145.066 112.344 145.525 112.222 145.93 111.976C146.341 111.726 146.666 111.395 146.906 110.984C147.146 110.574 147.266 110.123 147.266 109.632C147.266 109.126 147.141 108.67 146.89 108.264C146.639 107.854 146.309 107.528 145.898 107.288C145.487 107.048 145.039 106.928 144.554 106.928C144.01 106.928 143.541 107.048 143.146 107.288C142.751 107.523 142.437 107.819 142.202 108.176L141.13 107.728L141.482 101.736H147.634V102.864H142.002L142.586 102.312L142.274 107.424L141.978 107.032C142.309 106.654 142.709 106.358 143.178 106.144C143.647 105.931 144.141 105.824 144.658 105.824C145.367 105.824 146.007 105.995 146.578 106.336C147.149 106.672 147.602 107.128 147.938 107.704C148.274 108.28 148.442 108.923 148.442 109.632C148.442 110.336 148.263 110.982 147.906 111.568C147.549 112.15 147.074 112.616 146.482 112.968C145.89 113.32 145.237 113.496 144.522 113.496Z" fill="#5E6B77"/>
<rect width="83.0065" height="29.5798" transform="translate(103.498 123.16)" fill="white"/>
<path d="M144.634 144.689C143.914 144.689 143.277 144.545 142.722 144.257C142.173 143.969 141.741 143.567 141.426 143.049C141.117 142.527 140.962 141.916 140.962 141.217C140.962 140.503 141.135 139.868 141.482 139.313C141.829 138.753 142.357 138.329 143.066 138.041L143.05 138.505C142.458 138.287 142.007 137.929 141.698 137.433C141.389 136.937 141.234 136.388 141.234 135.785C141.234 135.145 141.381 134.596 141.674 134.137C141.967 133.673 142.367 133.316 142.874 133.065C143.386 132.815 143.973 132.689 144.634 132.689C145.295 132.689 145.882 132.815 146.394 133.065C146.906 133.316 147.309 133.673 147.602 134.137C147.895 134.596 148.042 135.145 148.042 135.785C148.042 136.388 147.893 136.935 147.594 137.425C147.301 137.916 146.85 138.276 146.242 138.505L146.202 138.041C146.911 138.324 147.442 138.745 147.794 139.305C148.151 139.865 148.33 140.503 148.33 141.217C148.33 141.916 148.173 142.527 147.858 143.049C147.543 143.567 147.109 143.969 146.554 144.257C145.999 144.545 145.359 144.689 144.634 144.689ZM144.634 143.561C145.359 143.561 145.949 143.361 146.402 142.961C146.855 142.556 147.082 141.975 147.082 141.217C147.082 140.449 146.858 139.868 146.41 139.473C145.962 139.073 145.37 138.873 144.634 138.873C143.898 138.873 143.309 139.073 142.866 139.473C142.423 139.868 142.202 140.449 142.202 141.217C142.202 141.975 142.426 142.556 142.874 142.961C143.322 143.361 143.909 143.561 144.634 143.561ZM144.634 137.737C145.274 137.737 145.794 137.575 146.194 137.249C146.594 136.919 146.794 136.431 146.794 135.785C146.794 135.14 146.594 134.657 146.194 134.337C145.794 134.012 145.274 133.849 144.634 133.849C143.994 133.849 143.474 134.012 143.074 134.337C142.679 134.657 142.482 135.14 142.482 135.785C142.482 136.431 142.679 136.919 143.074 137.249C143.474 137.575 143.994 137.737 144.634 137.737Z" fill="#5E6B77"/>
<rect width="83.0065" height="29.5798" transform="translate(103.498 154.353)" fill="white"/>
<path d="M144.882 175.883C144.173 175.883 143.533 175.717 142.962 175.387C142.397 175.056 141.949 174.608 141.618 174.043C141.287 173.472 141.122 172.832 141.122 172.123V167.643C141.122 166.933 141.287 166.296 141.618 165.731C141.949 165.16 142.397 164.709 142.962 164.379C143.533 164.048 144.173 163.883 144.882 163.883C145.591 163.883 146.229 164.048 146.794 164.379C147.365 164.709 147.815 165.16 148.146 165.731C148.477 166.296 148.642 166.933 148.642 167.643V172.123C148.642 172.832 148.477 173.472 148.146 174.043C147.815 174.608 147.365 175.056 146.794 175.387C146.229 175.717 145.591 175.883 144.882 175.883ZM144.882 174.747C145.357 174.747 145.789 174.632 146.178 174.403C146.567 174.168 146.877 173.856 147.106 173.467C147.335 173.077 147.45 172.648 147.45 172.179V167.587C147.45 167.112 147.335 166.68 147.106 166.291C146.877 165.901 146.567 165.592 146.178 165.363C145.789 165.128 145.357 165.011 144.882 165.011C144.407 165.011 143.975 165.128 143.586 165.363C143.197 165.592 142.887 165.901 142.658 166.291C142.429 166.68 142.314 167.112 142.314 167.587V172.179C142.314 172.648 142.429 173.077 142.658 173.467C142.887 173.856 143.197 174.168 143.586 174.403C143.975 174.632 144.407 174.747 144.882 174.747Z" fill="#5E6B77"/>
<path d="M188.197 60.7732H268.204C269.861 60.7732 271.204 62.1163 271.204 63.7732V90.353H188.197V60.7732Z" fill="white"/>
<path d="M229.417 82.295C228.847 82.295 228.321 82.1937 227.841 81.991C227.361 81.7883 226.948 81.5003 226.601 81.127C226.255 80.7483 226.001 80.2977 225.841 79.775L226.961 79.439C227.153 80.0097 227.468 80.4417 227.905 80.735C228.348 81.0283 228.847 81.1697 229.401 81.159C229.913 81.1483 230.353 81.0337 230.721 80.815C231.095 80.5963 231.38 80.2923 231.577 79.903C231.775 79.5137 231.873 79.063 231.873 78.551C231.873 77.767 231.644 77.1377 231.185 76.663C230.732 76.183 230.132 75.943 229.385 75.943C229.177 75.943 228.959 75.9723 228.729 76.031C228.5 76.0843 228.287 76.1617 228.089 76.263L227.497 75.327L231.977 71.191L232.169 71.671H226.297V70.543H232.953V71.687L229.049 75.415L229.033 74.951C229.833 74.8497 230.537 74.9403 231.145 75.223C231.753 75.5057 232.228 75.9377 232.569 76.519C232.916 77.095 233.089 77.7723 233.089 78.551C233.089 79.287 232.929 79.9377 232.609 80.503C232.295 81.063 231.86 81.503 231.305 81.823C230.751 82.1377 230.121 82.295 229.417 82.295Z" fill="#5E6B77"/>
<rect width="83.0065" height="29.5798" transform="translate(188.197 91.9666)" fill="white"/>
<path d="M229.717 113.496C228.997 113.496 228.341 113.323 227.749 112.976C227.163 112.624 226.693 112.15 226.341 111.552C225.995 110.95 225.821 110.272 225.821 109.52V105.528C225.821 104.755 225.995 104.067 226.341 103.464C226.688 102.856 227.16 102.379 227.757 102.032C228.36 101.68 229.043 101.504 229.805 101.504C230.461 101.504 231.069 101.648 231.629 101.936C232.195 102.224 232.656 102.627 233.013 103.144L232.109 103.888C231.864 103.504 231.539 103.198 231.133 102.968C230.728 102.739 230.285 102.624 229.805 102.624C229.267 102.624 228.787 102.755 228.365 103.016C227.944 103.278 227.613 103.622 227.373 104.048C227.133 104.47 227.013 104.928 227.013 105.424V107.936L226.717 107.6C227.053 107.072 227.493 106.646 228.037 106.32C228.587 105.995 229.184 105.832 229.829 105.832C230.544 105.832 231.187 106.003 231.757 106.344C232.328 106.68 232.781 107.136 233.117 107.712C233.453 108.288 233.621 108.934 233.621 109.648C233.621 110.358 233.443 111.003 233.085 111.584C232.733 112.166 232.261 112.63 231.669 112.976C231.083 113.323 230.432 113.496 229.717 113.496ZM229.717 112.352C230.219 112.352 230.675 112.232 231.085 111.992C231.501 111.752 231.829 111.427 232.069 111.016C232.315 110.606 232.437 110.15 232.437 109.648C232.437 109.147 232.315 108.691 232.069 108.28C231.829 107.864 231.504 107.536 231.093 107.296C230.683 107.051 230.227 106.928 229.725 106.928C229.224 106.928 228.768 107.051 228.357 107.296C227.947 107.536 227.619 107.864 227.373 108.28C227.133 108.691 227.013 109.147 227.013 109.648C227.013 110.144 227.133 110.598 227.373 111.008C227.613 111.419 227.939 111.747 228.349 111.992C228.76 112.232 229.216 112.352 229.717 112.352Z" fill="#5E6B77"/>
<rect width="83.0065" height="29.5798" transform="translate(188.197 123.16)" fill="white"/>
<path d="M229.613 132.697C230.339 132.697 230.995 132.873 231.581 133.225C232.173 133.572 232.643 134.047 232.989 134.649C233.336 135.247 233.509 135.919 233.509 136.665V140.665C233.509 141.433 233.336 142.121 232.989 142.729C232.643 143.337 232.168 143.817 231.565 144.169C230.968 144.516 230.288 144.689 229.525 144.689C228.869 144.689 228.261 144.545 227.701 144.257C227.147 143.964 226.688 143.561 226.325 143.049L227.221 142.305C227.467 142.684 227.792 142.988 228.197 143.217C228.608 143.447 229.051 143.561 229.525 143.561C230.069 143.561 230.549 143.433 230.965 143.177C231.387 142.916 231.717 142.575 231.957 142.153C232.203 141.727 232.325 141.265 232.325 140.769V138.257L232.613 138.593C232.283 139.121 231.843 139.548 231.293 139.873C230.749 140.199 230.152 140.361 229.501 140.361C228.792 140.361 228.149 140.191 227.573 139.849C227.003 139.508 226.549 139.049 226.213 138.473C225.883 137.897 225.717 137.255 225.717 136.545C225.717 135.836 225.893 135.191 226.245 134.609C226.597 134.023 227.069 133.559 227.661 133.217C228.253 132.871 228.904 132.697 229.613 132.697ZM229.613 133.833C229.112 133.833 228.656 133.956 228.245 134.201C227.835 134.441 227.507 134.767 227.261 135.177C227.021 135.588 226.901 136.044 226.901 136.545C226.901 137.047 227.021 137.503 227.261 137.913C227.501 138.324 227.827 138.652 228.237 138.897C228.648 139.137 229.104 139.257 229.605 139.257C230.107 139.257 230.563 139.137 230.973 138.897C231.389 138.652 231.717 138.324 231.957 137.913C232.203 137.503 232.325 137.047 232.325 136.545C232.325 136.049 232.203 135.596 231.957 135.185C231.717 134.775 231.392 134.447 230.981 134.201C230.571 133.956 230.115 133.833 229.613 133.833Z" fill="#5E6B77"/>
<path d="M188.197 154.353H271.204V180.933C271.204 182.59 269.861 183.933 268.204 183.933H188.197V154.353Z" fill="white"/>
<path d="M225.489 175.635L226.417 172.171H223.161L223.457 171.043H226.721L227.401 168.475H224.145L224.449 167.347H227.713L228.569 164.123H229.745L228.873 167.347H231.553L232.409 164.123H233.585L232.713 167.347H235.969L235.665 168.475H232.417L231.721 171.043H234.977L234.673 172.171H231.425L230.497 175.635H229.329L230.249 172.171H227.585L226.657 175.635H225.489ZM227.889 171.043H230.561L231.241 168.475H228.577L227.889 171.043Z" fill="#5E6B77"/>
<rect x="18.7969" y="36.0337" width="252.407" height="22.0504" rx="3" fill="white"/>
<path d="M24.9395 50.5545V44.3589H25.571V50.5545H24.9395Z" fill="#5E6B77"/>
<path d="M263.955 46.1851L260.733 49.2103L257.511 46.1851" stroke="#5E6B77" stroke-linecap="round"/>
<rect x="18.7969" y="187.698" width="83.0065" height="29.5798" rx="3" fill="#9CA5AC"/>
<path d="M60.3008 211.487C65.2713 211.487 69.3008 207.458 69.3008 202.487C69.3008 197.517 65.2713 193.487 60.3008 193.487C55.3302 193.487 51.3008 197.517 51.3008 202.487C51.3008 207.458 55.3302 211.487 60.3008 211.487Z" fill="white"/>
<path d="M60.3008 205.3C62.2424 205.3 63.8164 203.726 63.8164 201.784C63.8164 199.843 62.2424 198.269 60.3008 198.269C58.3592 198.269 56.7852 199.843 56.7852 201.784C56.7852 203.726 58.3592 205.3 60.3008 205.3Z" stroke="#9CA5AC" stroke-miterlimit="10"/>
<path d="M54.6758 209.237C55.2038 208.052 56.0087 207.058 57.0015 206.363C57.9943 205.668 59.1362 205.3 60.3008 205.3C61.4654 205.3 62.6073 205.668 63.6001 206.363C64.5929 207.058 65.3978 208.052 65.9258 209.237" stroke="#9CA5AC" stroke-linecap="square" stroke-linejoin="bevel"/>
<rect x="103.648" y="187.698" width="167.556" height="29.5798" rx="3" fill="#9CA5AC"/>
<path d="M151.926 207.283V197.487H159.759V207.283H158.715V198.446H152.97V207.283H151.926Z" fill="white"/>
<path d="M164.949 207.487C164.187 207.487 163.536 207.322 162.996 206.991C162.456 206.66 162.042 206.202 161.753 205.617C161.465 205.032 161.32 204.36 161.32 203.603C161.32 202.832 161.467 202.156 161.76 201.576C162.054 200.995 162.471 200.544 163.01 200.222C163.555 199.895 164.201 199.732 164.949 199.732C165.716 199.732 166.37 199.898 166.909 200.229C167.454 200.555 167.868 201.011 168.152 201.596C168.441 202.177 168.585 202.846 168.585 203.603C168.585 204.374 168.441 205.052 168.152 205.637C167.863 206.217 167.447 206.671 166.902 206.998C166.358 207.324 165.707 207.487 164.949 207.487ZM164.949 206.528C165.801 206.528 166.436 206.258 166.852 205.719C167.269 205.174 167.477 204.469 167.477 203.603C167.477 202.714 167.267 202.007 166.845 201.481C166.429 200.954 165.797 200.691 164.949 200.691C164.376 200.691 163.903 200.816 163.529 201.066C163.16 201.31 162.883 201.653 162.698 202.093C162.518 202.528 162.428 203.032 162.428 203.603C162.428 204.487 162.641 205.197 163.067 205.732C163.493 206.263 164.121 206.528 164.949 206.528Z" fill="white"/>
<path d="M172.776 207.487C172.004 207.487 171.329 207.326 170.752 207.004C170.179 206.678 169.727 206.227 169.395 205.651L170.233 205.14C170.513 205.594 170.861 205.939 171.277 206.174C171.694 206.41 172.172 206.528 172.712 206.528C173.275 206.528 173.727 206.403 174.068 206.154C174.409 205.905 174.58 205.562 174.58 205.127C174.58 204.827 174.506 204.589 174.36 204.412C174.218 204.236 174 204.109 173.706 204.032C173.417 203.954 173.055 203.916 172.62 203.916H171.711V203.059H172.605C173.136 203.059 173.562 202.968 173.884 202.787C174.21 202.601 174.374 202.31 174.374 201.916C174.374 201.499 174.21 201.19 173.884 200.991C173.562 200.787 173.176 200.685 172.726 200.685C172.272 200.685 171.841 200.775 171.434 200.957C171.031 201.134 170.693 201.363 170.418 201.644L169.75 200.97C170.134 200.567 170.581 200.261 171.093 200.052C171.609 199.839 172.179 199.732 172.804 199.732C173.297 199.732 173.742 199.816 174.139 199.984C174.542 200.147 174.859 200.388 175.091 200.705C175.328 201.022 175.446 201.403 175.446 201.848C175.446 202.265 175.34 202.626 175.127 202.929C174.918 203.233 174.622 203.485 174.239 203.685L174.182 203.31C174.513 203.369 174.788 203.496 175.006 203.691C175.224 203.886 175.385 204.12 175.489 204.392C175.593 204.664 175.645 204.941 175.645 205.222C175.645 205.689 175.517 206.093 175.261 206.433C175.011 206.768 174.667 207.029 174.232 207.215C173.801 207.397 173.316 207.487 172.776 207.487Z" fill="white"/>
<path d="M177.205 207.283V199.936H180.365C180.526 199.936 180.72 199.945 180.948 199.963C181.18 199.982 181.395 200.016 181.594 200.066C182.025 200.174 182.37 200.397 182.631 200.732C182.896 201.068 183.029 201.471 183.029 201.943C183.029 202.206 182.986 202.442 182.901 202.651C182.82 202.855 182.704 203.032 182.553 203.181C182.482 203.258 182.404 203.326 182.318 203.385C182.233 203.44 182.15 203.485 182.07 203.521C182.221 203.549 182.385 203.612 182.56 203.712C182.834 203.866 183.043 204.075 183.185 204.338C183.327 204.596 183.398 204.911 183.398 205.283C183.398 205.787 183.272 206.197 183.021 206.515C182.771 206.832 182.434 207.05 182.013 207.168C181.824 207.217 181.618 207.249 181.395 207.263C181.177 207.276 180.971 207.283 180.777 207.283H177.205ZM178.256 206.433H180.728C180.827 206.433 180.952 206.426 181.104 206.412C181.255 206.394 181.39 206.372 181.509 206.344C181.788 206.276 181.992 206.14 182.12 205.936C182.252 205.728 182.318 205.501 182.318 205.256C182.318 204.934 182.219 204.671 182.02 204.467C181.826 204.258 181.566 204.131 181.239 204.086C181.13 204.063 181.016 204.05 180.898 204.045C180.78 204.041 180.673 204.038 180.578 204.038H178.256V206.433ZM178.256 203.181H180.401C180.524 203.181 180.661 203.174 180.813 203.161C180.969 203.143 181.104 203.113 181.218 203.072C181.464 202.991 181.644 202.85 181.757 202.651C181.876 202.451 181.935 202.233 181.935 201.998C181.935 201.739 181.871 201.512 181.743 201.317C181.62 201.122 181.433 200.986 181.182 200.909C181.012 200.85 180.827 200.816 180.628 200.807C180.434 200.798 180.311 200.793 180.259 200.793H178.256V203.181Z" fill="white"/>
<path d="M188.016 207.487C187.254 207.487 186.603 207.322 186.063 206.991C185.523 206.66 185.109 206.202 184.82 205.617C184.532 205.032 184.387 204.36 184.387 203.603C184.387 202.832 184.534 202.156 184.828 201.576C185.121 200.995 185.538 200.544 186.077 200.222C186.622 199.895 187.268 199.732 188.016 199.732C188.783 199.732 189.437 199.898 189.976 200.229C190.521 200.555 190.935 201.011 191.219 201.596C191.508 202.177 191.652 202.846 191.652 203.603C191.652 204.374 191.508 205.052 191.219 205.637C190.93 206.217 190.514 206.671 189.969 206.998C189.425 207.324 188.774 207.487 188.016 207.487ZM188.016 206.528C188.868 206.528 189.503 206.258 189.92 205.719C190.336 205.174 190.544 204.469 190.544 203.603C190.544 202.714 190.334 202.007 189.912 201.481C189.496 200.954 188.864 200.691 188.016 200.691C187.443 200.691 186.97 200.816 186.596 201.066C186.227 201.31 185.95 201.653 185.765 202.093C185.585 202.528 185.495 203.032 185.495 203.603C185.495 204.487 185.708 205.197 186.134 205.732C186.56 206.263 187.188 206.528 188.016 206.528Z" fill="white"/>
<path d="M193.212 207.283V199.936H194.256V203.127H198.581V199.936H199.625V207.283H198.581V204.086H194.256V207.283H193.212Z" fill="white"/>
<path d="M207.704 199.936V207.283H206.689V201.562L202.484 207.283H201.604V199.936H202.619V205.61L206.831 199.936H207.704Z" fill="white"/>
<path d="M211.778 207.283V200.861H209.058V199.936H215.542V200.861H212.822V207.283H211.778Z" fill="white"/>
<path d="M216.903 207.283L216.889 199.936H217.94V202.705H219.737C219.96 202.705 220.177 202.71 220.39 202.719C220.608 202.728 220.8 202.746 220.966 202.773C221.344 202.841 221.681 202.961 221.974 203.134C222.272 203.306 222.504 203.544 222.67 203.848C222.841 204.152 222.926 204.533 222.926 204.991C222.926 205.621 222.755 206.118 222.414 206.481C222.078 206.843 221.652 207.079 221.136 207.188C220.942 207.229 220.731 207.256 220.504 207.27C220.277 207.279 220.052 207.283 219.829 207.283H216.903ZM217.94 206.426H219.787C219.948 206.426 220.128 206.422 220.327 206.412C220.525 206.403 220.701 206.378 220.852 206.338C221.103 206.27 221.33 206.134 221.534 205.929C221.742 205.721 221.846 205.408 221.846 204.991C221.846 204.578 221.747 204.267 221.548 204.059C221.349 203.846 221.084 203.705 220.753 203.637C220.606 203.605 220.447 203.585 220.277 203.576C220.106 203.567 219.943 203.562 219.787 203.562H217.94V206.426Z" fill="white"/>
</svg>
