<?xml version="1.0" standalone="no"?>
<!DOCTYPE svg PUBLIC "-//W3C//DTD SVG 20010904//EN"
 "http://www.w3.org/TR/2001/REC-SVG-20010904/DTD/svg10.dtd">
<svg version="1.0" xmlns="http://www.w3.org/2000/svg"
 width="700.000000pt" height="700.000000pt" viewBox="0 0 700.000000 700.000000"
 preserveAspectRatio="xMidYMid meet">
<metadata>
Created by potrace 1.14, written by Peter Selinger 2001-2017
</metadata>
<g transform="translate(0.000000,700.000000) scale(0.100000,-0.100000)"
fill="#000000" stroke="none">
<path d="M3315 6562 c-20 -3 -20 -10 -20 -910 l0 -907 -75 -26 c-277 -94 -480
-299 -559 -564 -161 -538 253 -1085 824 -1089 126 -1 175 6 285 39 3 1 19 5
35 10 40 11 167 78 214 112 132 97 239 233 295 377 126 319 46 674 -205 912
-96 90 -226 165 -346 201 l-63 18 0 913 c0 722 -3 912 -12 913 -41 2 -356 4
-373 1z"/>
<path d="M2635 6525 c-536 -161 -999 -453 -1384 -871 -62 -67 -156 -182 -196
-238 -11 -16 -29 -40 -41 -55 -24 -31 -130 -197 -166 -261 -84 -149 -219 -445
-234 -515 -1 -5 -14 -44 -28 -86 -41 -125 -91 -337 -111 -471 -44 -293 -49
-592 -14 -863 12 -94 18 -134 24 -155 2 -8 7 -35 10 -60 15 -109 111 -441 160
-555 7 -16 27 -64 45 -105 332 -777 1005 -1405 1805 -1683 95 -33 232 -74 276
-82 12 -2 28 -6 37 -9 9 -3 28 -7 42 -10 155 -29 193 -36 240 -41 30 -4 66 -8
80 -10 164 -24 469 -22 685 6 121 15 140 18 223 35 42 9 84 17 92 19 8 2 42
10 75 19 33 9 70 19 82 22 12 2 66 19 120 38 381 130 661 287 1007 566 74 59
260 245 336 335 23 28 52 61 64 75 12 14 48 61 81 105 50 68 85 121 192 290
77 121 221 447 273 617 17 56 35 114 40 128 8 24 27 102 36 145 2 11 6 31 9
45 10 43 24 123 30 165 3 23 7 50 9 60 4 22 17 144 22 215 5 69 5 347 0 415
-7 80 -16 179 -21 207 -25 159 -28 175 -44 253 -29 139 -131 467 -152 489 -5
6 -9 16 -9 23 0 16 -114 257 -164 348 -143 257 -344 518 -545 709 -29 28 -61
59 -70 69 -47 55 -450 357 -475 357 -3 0 -30 16 -60 35 -109 69 -385 195 -548
249 -111 37 -219 67 -226 62 -4 -2 -7 -336 -7 -741 l0 -737 45 -25 c329 -182
578 -446 733 -774 82 -175 128 -333 154 -534 2 -16 5 -91 7 -165 4 -162 -8
-284 -44 -435 -34 -145 -72 -246 -146 -390 -239 -463 -655 -777 -1170 -884
-178 -36 -451 -35 -643 4 -432 86 -824 354 -1071 730 -141 216 -237 488 -269
761 -9 80 -7 330 4 394 23 137 32 184 40 213 20 70 57 185 65 202 5 11 27 58
48 105 76 167 189 328 326 466 131 131 247 219 396 302 l55 30 0 741 c0 498
-3 741 -10 740 -5 0 -59 -15 -120 -34z"/>
</g>
</svg>
