<svg width="103" height="97" viewBox="0 0 103 97" fill="none" xmlns="http://www.w3.org/2000/svg">
<rect y="42" width="23" height="55" rx="1" fill="#F88C28"/>
<rect x="27" y="26" width="22" height="71" rx="1" fill="#F88C28"/>
<rect x="53" y="12" width="23" height="85" rx="1" fill="#F88C28"/>
<rect x="80" width="23" height="97" rx="1" fill="#F88C28"/>
<path d="M91.5 47C91.5 47.2761 91.7239 47.5 92 47.5C92.2761 47.5 92.5 47.2761 92.5 47L91.5 47ZM92.3536 9.64645C92.1583 9.45118 91.8417 9.45118 91.6464 9.64645L88.4645 12.8284C88.2692 13.0237 88.2692 13.3403 88.4645 13.5355C88.6597 13.7308 88.9763 13.7308 89.1716 13.5355L92 10.7071L94.8284 13.5355C95.0237 13.7308 95.3403 13.7308 95.5355 13.5355C95.7308 13.3403 95.7308 13.0237 95.5355 12.8284L92.3536 9.64645ZM92.5 47L92.5 10L91.5 10L91.5 47L92.5 47Z" fill="white"/>
</svg>




