<svg width="320" height="273" viewBox="0 0 320 273" fill="none" xmlns="http://www.w3.org/2000/svg">
<g clip-path="url(#clip0_2126_21432)">
<rect width="246.183" height="246.037" rx="123.018" transform="matrix(-0.548473 -0.836168 0.835416 -0.549619 124.951 307.248)" stroke="url(#paint0_linear_2126_21432)" stroke-linecap="round" stroke-dasharray="2 4"/>
<path d="M290.399 101.687C309.665 173.696 266.995 247.712 195.094 267.007C123.193 286.301 49.2869 243.568 30.021 171.559C10.7551 99.5506 53.4246 25.5346 125.326 6.23987C197.227 -13.0548 271.133 29.6784 290.399 101.687Z" stroke="url(#paint1_linear_2126_21432)" stroke-linecap="round" stroke-dasharray="2 4"/>
<rect x="49.0986" y="25.3462" width="222.815" height="223.148" rx="111.407" fill="#F6F7F8"/>
<g filter="url(#filter0_d_2126_21432)">
<rect x="64.5065" y="47.3049" width="189.037" height="184.572" rx="12" fill="white"/>
<rect x="65.0065" y="47.8049" width="188.037" height="183.572" rx="11.5" stroke="#344351"/>
</g>
<path d="M65.0065 55.3049C65.0065 51.1628 68.3643 47.8049 72.5065 47.8049H245.544C249.686 47.8049 253.044 51.1628 253.044 55.3049V71.1375H65.0065V55.3049Z" fill="#F6F7F8" stroke="#344351"/>
<path d="M186.18 57.1946V59.8572H183.491V57.1946H181.623V64.1362H183.491V61.3824H186.18V64.1362H188.048V57.1946H186.18Z" fill="#5E6B77"/>
<path d="M177.875 57.2203C177.291 57.1227 176.691 57.1667 176.129 57.3486C175.307 57.6186 174.614 58.1733 174.181 58.9084C173.747 59.6436 173.602 60.5086 173.774 61.3409C173.945 62.1731 174.421 62.9154 175.112 63.4281C175.803 63.9409 176.661 64.1888 177.525 64.1253C178.39 64.0618 179.201 63.6912 179.806 63.0833C180.411 62.4753 180.768 61.6718 180.811 60.8238C180.854 59.9758 180.579 59.1416 180.039 58.478C179.498 57.8144 178.728 57.3672 177.875 57.2203ZM177.735 62.5028C177.242 62.6137 176.725 62.533 176.292 62.2775C175.859 62.022 175.544 61.6118 175.414 61.1334C175.284 60.6549 175.349 60.1457 175.594 59.7129C175.84 59.2802 176.248 58.9579 176.731 58.8139C177.075 58.7213 177.438 58.7213 177.782 58.8139C178.202 58.9221 178.574 59.1651 178.837 59.5041C179.101 59.8431 179.241 60.2586 179.236 60.6847C179.23 61.1107 179.08 61.5228 178.808 61.8553C178.536 62.1878 178.158 62.4218 177.735 62.5199V62.5028Z" fill="#5E6B77"/>
<path d="M160.79 56.8582V58.7169C161.232 58.9277 161.588 59.2791 161.8 59.7137C162.012 60.1483 162.067 60.6405 161.957 61.1098C161.846 61.5792 161.577 61.998 161.192 62.2979C160.807 62.5978 160.33 62.761 159.839 62.761C159.347 62.761 158.87 62.5978 158.485 62.2979C158.1 61.998 157.831 61.5792 157.72 61.1098C157.61 60.6405 157.665 60.1483 157.877 59.7137C158.089 59.2791 158.445 58.9277 158.887 58.7169V56.8582C157.946 57.0859 157.123 57.643 156.573 58.4245C156.023 59.2059 155.784 60.1576 155.901 61.0998C156.018 62.0421 156.483 62.9098 157.209 63.5391C157.934 64.1684 158.87 64.5159 159.839 64.5159C160.807 64.5159 161.743 64.1684 162.468 63.5391C163.194 62.9098 163.659 62.0421 163.776 61.0998C163.893 60.1576 163.654 59.2059 163.104 58.4245C162.554 57.643 161.731 57.0859 160.79 56.8582Z" fill="#5E6B77"/>
<path d="M158.631 60.8323C158.672 61.0513 158.773 61.2552 158.923 61.4227C159.072 61.5901 159.266 61.7147 159.482 61.7834C159.698 61.8521 159.929 61.8622 160.151 61.8127C160.372 61.7632 160.576 61.6559 160.74 61.5022C160.905 61.3486 161.024 61.1542 161.084 60.9397C161.145 60.7253 161.146 60.4986 161.086 60.2839C161.026 60.0692 160.908 59.8743 160.744 59.7199C160.581 59.5655 160.377 59.4574 160.156 59.4069V56.7415H159.574V59.3955C159.26 59.4691 158.987 59.6581 158.811 59.9233C158.635 60.1885 158.569 60.5099 158.628 60.8209L158.631 60.8323Z" fill="#5E6B77"/>
<path d="M169.547 57.7106V57.1946H167.76V57.7106C167.606 57.7334 167.469 57.759 167.306 57.7961C165.633 58.1924 164.425 59.307 164.425 60.6184C164.425 62.0437 165.854 63.2411 167.76 63.529V64.1362H169.547V63.529C171.453 63.2439 172.881 62.0494 172.881 60.6184C172.881 59.1873 171.453 58.0013 169.547 57.7106ZM166.346 60.6184C166.346 59.9399 166.928 59.3612 167.769 59.1132V62.1264C166.925 61.8784 166.337 61.2968 166.337 60.6184H166.346ZM169.547 62.1264V59.1132C170.382 59.3612 170.969 59.9399 170.969 60.6184C170.969 61.2968 170.382 61.8784 169.547 62.1264Z" fill="#5E6B77"/>
<path d="M137.726 54.6545H133.247C133.247 55.4071 133.8 55.8234 134.516 56.0514V62.6082C133.797 62.8192 133.247 63.2468 133.247 64.1362H137.371C138.558 64.1362 139.384 63.9937 139.853 63.7029C140.58 63.2496 140.758 62.5626 140.758 61.6503V57.2716C140.758 55.5098 139.888 54.6545 137.726 54.6545ZM138.651 61.3767C138.651 62.0979 138.209 62.46 137.315 62.46C137.059 62.46 136.733 62.4457 136.402 62.44V56.3222C136.771 56.3365 137.103 56.3222 137.342 56.3222C138.236 56.3222 138.682 56.7023 138.68 57.4626C138.68 58.2323 138.651 60.6412 138.651 61.3767Z" fill="#5E6B77"/>
<path d="M145.103 57.2346C142.76 57.2346 141.686 59.0848 141.686 60.761C141.686 62.8278 142.999 64.1249 145.289 64.1249C146.123 64.1433 146.952 64.0019 147.73 63.7087V62.3147C147.036 62.5134 146.315 62.6095 145.591 62.5998C144.614 62.5998 143.744 62.195 143.688 61.3426H148.042C148.089 61.0743 148.112 60.8024 148.112 60.5301C148.112 58.8966 147.285 57.2346 145.103 57.2346ZM143.683 59.9372C143.738 59.3955 144.096 58.5973 144.98 58.5973C145.947 58.5973 146.168 59.4354 146.168 59.9372H143.683Z" fill="#5E6B77"/>
<path d="M151.789 57.32C150.916 57.5509 149.534 58.3234 149.534 59.8258V61.8926C149.534 62.8362 149.313 62.8334 148.935 63.1954C148.812 63.3092 148.717 63.4477 148.654 63.6013C148.592 63.7548 148.565 63.9198 148.574 64.0849H150.454C151.149 64.0849 151.507 63.1042 151.507 61.8983V59.974C151.507 59.6486 151.637 59.3361 151.871 59.1046C152.15 58.8482 152.511 58.6924 152.892 58.6627H152.98V64.0792H154.993V57.2373H152.229C152.079 57.2463 151.932 57.2741 151.789 57.32Z" fill="#5E6B77"/>
<rect x="89.2974" y="94.6879" width="138.774" height="29.8676" rx="4.65" stroke="#F88C28" stroke-width="0.7"/>
<rect x="89.2974" y="137.904" width="138.774" height="29.8676" rx="4.65" stroke="#F88C28" stroke-width="0.7"/>
<rect x="89.2974" y="181.12" width="138.774" height="29.8676" rx="4.65" stroke="#F88C28" stroke-width="0.7"/>
<path d="M158.947 104.382C163.325 104.382 166.873 100.829 166.873 96.4459C166.873 92.0628 163.325 88.5095 158.947 88.5095C154.57 88.5095 151.022 92.0628 151.022 96.4459C151.022 100.829 154.57 104.382 158.947 104.382Z" fill="white" stroke="#F88C28" stroke-width="0.7" stroke-linecap="round" stroke-linejoin="round"/>
<path d="M158.916 98.9261V94.5307L157.957 95.0922V94.5238L158.916 93.9658H159.443V98.9261H158.916Z" fill="#F88C28" stroke="#F88C28" stroke-width="0.5"/>
<path d="M158.947 147.149C163.36 147.149 166.937 143.679 166.937 139.399C166.937 135.118 163.36 131.649 158.947 131.649C154.535 131.649 150.958 135.118 150.958 139.399C150.958 143.679 154.535 147.149 158.947 147.149Z" fill="white" stroke="#F88C28" stroke-width="0.7" stroke-linecap="round" stroke-linejoin="round"/>
<path d="M157.12 142.118L157.123 141.613L159.654 139.396C159.871 139.205 160.015 139.024 160.085 138.853C160.158 138.679 160.194 138.498 160.194 138.31C160.194 138.086 160.139 137.884 160.031 137.703C159.922 137.522 159.775 137.379 159.591 137.273C159.407 137.165 159.201 137.111 158.973 137.111C158.735 137.111 158.523 137.166 158.336 137.277C158.149 137.387 158.002 137.533 157.893 137.714C157.787 137.895 157.735 138.092 157.737 138.306H157.154C157.154 137.977 157.235 137.682 157.395 137.42C157.556 137.159 157.774 136.954 158.048 136.806C158.323 136.655 158.634 136.579 158.981 136.579C159.321 136.579 159.625 136.657 159.895 136.813C160.167 136.966 160.38 137.175 160.536 137.439C160.694 137.7 160.773 137.992 160.773 138.314C160.773 138.54 160.744 138.74 160.687 138.913C160.633 139.084 160.546 139.244 160.427 139.392C160.31 139.538 160.161 139.689 159.98 139.844L157.734 141.812L157.644 141.586H160.773V142.118H157.12Z" fill="#F88C28" stroke="#F88C28" stroke-width="0.5"/>
<path d="M158.947 190.365C163.36 190.365 166.937 186.895 166.937 182.615C166.937 178.335 163.36 174.865 158.947 174.865C154.535 174.865 150.958 178.335 150.958 182.615C150.958 186.895 154.535 190.365 158.947 190.365Z" fill="white" stroke="#F88C28" stroke-width="0.7" stroke-linecap="round" stroke-linejoin="round"/>
<path d="M158.847 185.447C158.57 185.447 158.315 185.399 158.082 185.304C157.849 185.208 157.648 185.073 157.479 184.897C157.311 184.718 157.188 184.506 157.11 184.26L157.654 184.101C157.748 184.37 157.9 184.574 158.113 184.712C158.328 184.85 158.57 184.917 158.84 184.912C159.088 184.907 159.302 184.853 159.481 184.75C159.662 184.647 159.801 184.503 159.897 184.32C159.993 184.136 160.041 183.924 160.041 183.683C160.041 183.313 159.929 183.017 159.706 182.793C159.486 182.567 159.195 182.454 158.832 182.454C158.731 182.454 158.625 182.467 158.513 182.495C158.402 182.52 158.298 182.557 158.202 182.604L157.915 182.163L160.091 180.214L160.184 180.44H157.332V179.909H160.565V180.448L158.669 182.205L158.661 181.986C159.05 181.938 159.392 181.981 159.687 182.114C159.982 182.248 160.213 182.451 160.379 182.725C160.547 182.997 160.631 183.316 160.631 183.683C160.631 184.03 160.554 184.336 160.398 184.603C160.245 184.867 160.034 185.074 159.765 185.225C159.495 185.373 159.189 185.447 158.847 185.447Z" fill="#F88C28" stroke="#F88C28" stroke-width="0.5"/>
<path d="M127.895 115.419V110.676H131.647V115.419H130.962V111.325H128.58V115.419H127.895Z" fill="#5E6B77"/>
<path d="M134.104 115.518C133.75 115.518 133.443 115.438 133.183 115.277C132.923 115.117 132.722 114.896 132.58 114.615C132.44 114.332 132.371 114.006 132.371 113.637C132.371 113.266 132.443 112.94 132.587 112.659C132.731 112.375 132.933 112.156 133.193 112C133.453 111.842 133.757 111.763 134.104 111.763C134.458 111.763 134.765 111.843 135.025 112.003C135.285 112.164 135.486 112.384 135.628 112.665C135.77 112.946 135.841 113.27 135.841 113.637C135.841 114.008 135.769 114.335 135.625 114.619C135.483 114.9 135.282 115.12 135.022 115.281C134.762 115.439 134.456 115.518 134.104 115.518ZM134.104 114.869C134.443 114.869 134.695 114.755 134.861 114.526C135.029 114.296 135.113 113.999 135.113 113.637C135.113 113.266 135.028 112.969 134.858 112.748C134.69 112.524 134.438 112.412 134.104 112.412C133.875 112.412 133.686 112.464 133.537 112.57C133.389 112.673 133.278 112.817 133.206 113.001C133.134 113.184 133.098 113.395 133.098 113.637C133.098 114.01 133.183 114.309 133.354 114.533C133.524 114.757 133.774 114.869 134.104 114.869Z" fill="#5E6B77"/>
<path d="M136.299 116.21V114.866C136.493 114.866 136.632 114.801 136.715 114.671C136.8 114.54 136.868 114.317 136.918 114.003C136.949 113.812 136.974 113.608 136.994 113.393C137.015 113.178 137.034 112.945 137.049 112.695C137.065 112.442 137.08 112.165 137.095 111.862H139.632V114.866H139.979V116.21H139.33V115.419H136.951V116.21H136.299ZM137.279 114.866H138.943V112.415H137.705C137.696 112.56 137.686 112.709 137.675 112.863C137.667 113.017 137.656 113.169 137.642 113.321C137.632 113.472 137.618 113.617 137.603 113.756C137.588 113.894 137.57 114.019 137.551 114.131C137.525 114.305 137.493 114.45 137.456 114.566C137.421 114.682 137.362 114.782 137.279 114.866Z" fill="#5E6B77"/>
<path d="M140.629 115.419L140.632 111.862H141.327V113.574L142.716 111.862H143.588L142.12 113.64L143.738 115.419H142.808L141.327 113.706V115.419H140.629Z" fill="#5E6B77"/>
<path d="M143.677 115.419V114.836C143.808 114.86 143.908 114.857 143.975 114.826C144.045 114.793 144.097 114.734 144.129 114.648C144.164 114.563 144.194 114.452 144.218 114.316C144.255 114.116 144.287 113.888 144.313 113.634C144.341 113.377 144.366 113.099 144.388 112.8C144.41 112.502 144.43 112.189 144.447 111.862H146.99V115.419H146.302V112.51H145.063C145.05 112.684 145.035 112.868 145.017 113.064C145.002 113.257 144.985 113.449 144.965 113.64C144.945 113.831 144.925 114.01 144.903 114.177C144.881 114.344 144.858 114.487 144.834 114.605C144.79 114.843 144.726 115.031 144.641 115.172C144.558 115.31 144.44 115.399 144.287 115.439C144.134 115.481 143.931 115.474 143.677 115.419Z" fill="#5E6B77"/>
<path d="M150.898 115.518C150.605 115.518 150.344 115.456 150.115 115.333C149.887 115.21 149.702 115.035 149.558 114.806C149.413 114.576 149.322 114.302 149.282 113.986H148.591V115.419H147.906V111.862H148.591V113.294H149.279C149.318 112.972 149.411 112.696 149.558 112.468C149.704 112.239 149.892 112.065 150.121 111.944C150.353 111.823 150.615 111.763 150.908 111.763C151.259 111.763 151.564 111.843 151.822 112.003C152.08 112.164 152.28 112.385 152.422 112.669C152.564 112.95 152.635 113.271 152.635 113.634C152.635 114.005 152.563 114.332 152.418 114.615C152.276 114.899 152.075 115.12 151.815 115.281C151.555 115.439 151.25 115.518 150.898 115.518ZM150.888 114.869C151.231 114.869 151.487 114.755 151.655 114.526C151.823 114.298 151.907 114.002 151.907 113.637C151.907 113.262 151.822 112.964 151.652 112.744C151.483 112.523 151.23 112.412 150.891 112.412C150.561 112.412 150.312 112.523 150.144 112.744C149.976 112.964 149.892 113.26 149.892 113.634C149.892 114.009 149.976 114.309 150.144 114.533C150.315 114.757 150.562 114.869 150.888 114.869Z" fill="#5E6B77"/>
<path d="M155.45 115.419V114.181C155.33 114.242 155.189 114.293 155.027 114.332C154.866 114.369 154.695 114.388 154.516 114.388C154.153 114.388 153.862 114.307 153.641 114.144C153.423 113.98 153.281 113.742 153.215 113.433C153.198 113.341 153.184 113.246 153.176 113.15C153.167 113.051 153.162 112.961 153.159 112.879C153.159 112.798 153.159 112.738 153.159 112.698V111.862H153.854V112.698C153.854 112.755 153.856 112.831 153.861 112.926C153.865 113.018 153.877 113.108 153.897 113.196C153.938 113.393 154.021 113.54 154.146 113.637C154.27 113.731 154.446 113.779 154.673 113.779C154.837 113.779 154.985 113.758 155.116 113.716C155.249 113.672 155.36 113.616 155.45 113.548V111.862H156.141V115.419H155.45Z" fill="#5E6B77"/>
<path d="M160.044 111.862V115.419H159.385V112.945L157.616 115.419H157.059V111.862H157.717V114.286L159.49 111.862H160.044Z" fill="#5E6B77"/>
<path d="M161.874 115.419V112.481H160.665V111.862H163.768V112.481H162.559V115.419H161.874Z" fill="#5E6B77"/>
<path d="M165.96 115.518C165.608 115.518 165.299 115.441 165.033 115.287C164.768 115.131 164.562 114.915 164.413 114.638C164.267 114.359 164.194 114.037 164.194 113.67C164.194 113.281 164.266 112.944 164.41 112.659C164.556 112.373 164.76 112.153 165.02 111.997C165.28 111.841 165.582 111.763 165.927 111.763C166.288 111.763 166.595 111.847 166.848 112.016C167.102 112.183 167.291 112.422 167.415 112.731C167.542 113.041 167.592 113.409 167.566 113.835H166.881V113.584C166.877 113.171 166.798 112.866 166.645 112.669C166.494 112.471 166.264 112.372 165.954 112.372C165.611 112.372 165.353 112.481 165.18 112.698C165.008 112.916 164.921 113.23 164.921 113.64C164.921 114.031 165.008 114.334 165.18 114.549C165.353 114.762 165.602 114.869 165.927 114.869C166.141 114.869 166.326 114.821 166.481 114.724C166.639 114.625 166.761 114.485 166.848 114.302L167.52 114.516C167.382 114.835 167.174 115.082 166.894 115.258C166.614 115.431 166.303 115.518 165.96 115.518ZM164.698 113.835V113.298H167.225V113.835H164.698Z" fill="#5E6B77"/>
<path d="M169.61 115.419V111.862H170.295V113.314H172.022V111.862H172.707V115.419H172.022V113.963H170.295V115.419H169.61Z" fill="#5E6B77"/>
<path d="M175.163 115.518C174.809 115.518 174.502 115.438 174.242 115.277C173.982 115.117 173.781 114.896 173.639 114.615C173.5 114.332 173.43 114.006 173.43 113.637C173.43 113.266 173.502 112.94 173.646 112.659C173.79 112.375 173.992 112.156 174.252 112C174.512 111.842 174.816 111.763 175.163 111.763C175.517 111.763 175.824 111.843 176.084 112.003C176.344 112.164 176.545 112.384 176.687 112.665C176.829 112.946 176.9 113.27 176.9 113.637C176.9 114.008 176.828 114.335 176.684 114.619C176.542 114.9 176.341 115.12 176.081 115.281C175.821 115.439 175.515 115.518 175.163 115.518ZM175.163 114.869C175.502 114.869 175.754 114.755 175.92 114.526C176.089 114.296 176.173 113.999 176.173 113.637C176.173 113.266 176.087 112.969 175.917 112.748C175.749 112.524 175.498 112.412 175.163 112.412C174.934 112.412 174.745 112.464 174.596 112.57C174.448 112.673 174.338 112.817 174.265 113.001C174.193 113.184 174.157 113.395 174.157 113.637C174.157 114.01 174.242 114.309 174.413 114.533C174.583 114.757 174.833 114.869 175.163 114.869Z" fill="#5E6B77"/>
<path d="M177.617 115.419V111.862H178.19L179.498 114.47L180.802 111.862H181.379V115.419H180.717V113.271L179.652 115.419H179.341L178.276 113.271V115.419H177.617Z" fill="#5E6B77"/>
<path d="M183.869 115.518C183.517 115.518 183.208 115.441 182.941 115.287C182.677 115.131 182.471 114.915 182.322 114.638C182.176 114.359 182.102 114.037 182.102 113.67C182.102 113.281 182.175 112.944 182.319 112.659C182.465 112.373 182.668 112.153 182.928 111.997C183.188 111.841 183.491 111.763 183.836 111.763C184.196 111.763 184.503 111.847 184.757 112.016C185.01 112.183 185.199 112.422 185.324 112.731C185.451 113.041 185.501 113.409 185.475 113.835H184.79V113.584C184.785 113.171 184.707 112.866 184.554 112.669C184.403 112.471 184.172 112.372 183.862 112.372C183.519 112.372 183.261 112.481 183.089 112.698C182.916 112.916 182.83 113.23 182.83 113.64C182.83 114.031 182.916 114.334 183.089 114.549C183.261 114.762 183.51 114.869 183.836 114.869C184.05 114.869 184.235 114.821 184.39 114.724C184.547 114.625 184.669 114.485 184.757 114.302L185.429 114.516C185.291 114.835 185.082 115.082 184.803 115.258C184.523 115.431 184.212 115.518 183.869 115.518ZM182.607 113.835V113.298H185.134V113.835H182.607Z" fill="#5E6B77"/>
<path d="M187.871 115.518C187.533 115.518 187.249 115.435 187.019 115.271C186.79 115.104 186.616 114.879 186.498 114.596C186.38 114.312 186.321 113.993 186.321 113.637C186.321 113.281 186.379 112.962 186.495 112.678C186.613 112.395 186.785 112.172 187.013 112.01C187.242 111.845 187.524 111.763 187.858 111.763C188.19 111.763 188.476 111.845 188.717 112.01C188.959 112.172 189.146 112.395 189.277 112.678C189.408 112.96 189.474 113.279 189.474 113.637C189.474 113.993 189.408 114.313 189.277 114.599C189.148 114.882 188.964 115.106 188.723 115.271C188.485 115.435 188.201 115.518 187.871 115.518ZM186.206 117V111.862H186.816V114.421H186.895V117H186.206ZM187.776 114.895C187.995 114.895 188.175 114.839 188.317 114.727C188.461 114.615 188.568 114.465 188.638 114.276C188.71 114.085 188.746 113.872 188.746 113.637C188.746 113.404 188.71 113.193 188.638 113.005C188.568 112.816 188.46 112.665 188.314 112.553C188.167 112.441 187.98 112.385 187.753 112.385C187.539 112.385 187.362 112.438 187.222 112.543C187.085 112.649 186.982 112.796 186.914 112.985C186.849 113.174 186.816 113.391 186.816 113.637C186.816 113.883 186.849 114.1 186.914 114.289C186.98 114.478 187.084 114.626 187.226 114.734C187.368 114.841 187.551 114.895 187.776 114.895Z" fill="#5E6B77"/>
<path d="M120.526 158.911V157.493C120.696 157.493 120.836 157.453 120.946 157.373C121.055 157.291 121.143 157.18 121.207 157.039C121.273 156.897 121.323 156.734 121.358 156.553C121.394 156.371 121.422 156.18 121.44 155.979C121.468 155.706 121.491 155.44 121.509 155.181C121.53 154.919 121.548 154.649 121.564 154.37C121.582 154.091 121.602 153.787 121.622 153.459L124.79 153.462V157.493H125.158V158.911H124.436V158.132H121.244V158.911H120.526ZM121.705 157.493H124.072V154.101L122.286 154.098C122.269 154.336 122.256 154.562 122.244 154.776C122.233 154.99 122.218 155.206 122.2 155.424C122.184 155.64 122.163 155.873 122.138 156.122C122.113 156.359 122.086 156.562 122.059 156.728C122.031 156.892 121.99 157.035 121.935 157.156C121.882 157.277 121.806 157.39 121.705 157.493Z" fill="#5E6B77"/>
<path d="M127.522 158.23C127.151 158.23 126.829 158.151 126.557 157.993C126.284 157.835 126.073 157.618 125.925 157.341C125.778 157.062 125.705 156.741 125.705 156.378C125.705 156.012 125.78 155.691 125.931 155.414C126.083 155.136 126.295 154.919 126.567 154.766C126.84 154.61 127.158 154.532 127.522 154.532C127.893 154.532 128.215 154.611 128.488 154.769C128.76 154.927 128.971 155.144 129.12 155.421C129.269 155.698 129.343 156.017 129.343 156.378C129.343 156.743 129.268 157.065 129.117 157.344C128.968 157.621 128.757 157.838 128.484 157.996C128.212 158.152 127.891 158.23 127.522 158.23ZM127.522 157.591C127.877 157.591 128.142 157.478 128.316 157.253C128.492 157.026 128.581 156.734 128.581 156.378C128.581 156.012 128.491 155.72 128.313 155.502C128.136 155.282 127.873 155.171 127.522 155.171C127.282 155.171 127.084 155.223 126.928 155.327C126.772 155.429 126.656 155.57 126.581 155.752C126.505 155.931 126.467 156.14 126.467 156.378C126.467 156.745 126.557 157.039 126.735 157.26C126.914 157.48 127.176 157.591 127.522 157.591Z" fill="#5E6B77"/>
<path d="M131.624 158.233C131.271 158.231 130.971 158.158 130.724 158.016C130.476 157.873 130.283 157.667 130.143 157.399C130.006 157.129 129.925 156.804 129.902 156.423C129.891 156.239 129.892 156.036 129.906 155.813C129.92 155.589 129.945 155.371 129.982 155.162C130.02 154.952 130.07 154.777 130.129 154.636C130.196 154.48 130.286 154.338 130.401 154.208C130.515 154.076 130.641 153.966 130.779 153.877C130.925 153.782 131.088 153.709 131.267 153.657C131.445 153.603 131.632 153.56 131.827 153.53C132.024 153.5 132.222 153.474 132.421 153.452C132.623 153.429 132.818 153.399 133.009 153.365L133.077 153.971C132.951 153.999 132.802 154.022 132.631 154.039C132.461 154.057 132.285 154.076 132.101 154.098C131.92 154.119 131.748 154.15 131.583 154.189C131.418 154.227 131.275 154.283 131.153 154.354C130.981 154.453 130.85 154.598 130.758 154.789C130.669 154.979 130.615 155.185 130.597 155.408C130.739 155.205 130.919 155.059 131.139 154.97C131.359 154.879 131.587 154.834 131.823 154.834C132.153 154.834 132.437 154.907 132.675 155.054C132.916 155.202 133.1 155.402 133.228 155.654C133.357 155.907 133.421 156.194 133.421 156.514C133.421 156.86 133.345 157.163 133.194 157.422C133.045 157.679 132.836 157.88 132.565 158.025C132.295 158.168 131.981 158.237 131.624 158.233ZM131.662 157.594C131.991 157.594 132.24 157.498 132.407 157.305C132.577 157.113 132.661 156.857 132.661 156.537C132.661 156.208 132.574 155.95 132.4 155.762C132.226 155.573 131.98 155.479 131.662 155.479C131.339 155.479 131.091 155.573 130.919 155.762C130.75 155.95 130.665 156.208 130.665 156.537C130.665 156.87 130.751 157.129 130.923 157.315C131.095 157.501 131.341 157.594 131.662 157.594Z" fill="#5E6B77"/>
<path d="M135.226 158.23C134.951 158.23 134.721 158.182 134.536 158.087C134.35 157.99 134.209 157.862 134.113 157.704C134.019 157.544 133.972 157.369 133.972 157.179C133.972 157.002 134.005 156.846 134.072 156.712C134.138 156.578 134.237 156.464 134.367 156.371C134.498 156.276 134.658 156.199 134.848 156.141C135.013 156.096 135.2 156.056 135.408 156.021C135.617 155.986 135.836 155.954 136.065 155.924C136.296 155.893 136.525 155.863 136.752 155.833L136.491 155.969C136.495 155.694 136.433 155.491 136.305 155.359C136.179 155.225 135.962 155.158 135.652 155.158C135.458 155.158 135.279 155.202 135.116 155.288C134.954 155.372 134.84 155.513 134.776 155.71L134.106 155.515C134.198 155.214 134.372 154.976 134.629 154.798C134.887 154.621 135.231 154.532 135.659 154.532C135.991 154.532 136.28 154.586 136.525 154.694C136.773 154.8 136.953 154.969 137.068 155.2C137.128 155.315 137.164 155.436 137.178 155.564C137.192 155.691 137.199 155.829 137.199 155.976V158.132H136.563V157.331L136.687 157.435C136.533 157.703 136.337 157.903 136.099 158.035C135.863 158.165 135.572 158.23 135.226 158.23ZM135.353 157.675C135.557 157.675 135.733 157.642 135.879 157.574C136.026 157.505 136.144 157.418 136.233 157.312C136.322 157.206 136.381 157.096 136.408 156.981C136.447 156.877 136.469 156.76 136.474 156.631C136.48 156.501 136.484 156.397 136.484 156.319L136.718 156.4C136.491 156.433 136.285 156.462 136.099 156.488C135.914 156.514 135.745 156.54 135.594 156.566C135.445 156.59 135.312 156.619 135.195 156.653C135.097 156.686 135.009 156.725 134.931 156.77C134.855 156.816 134.795 156.871 134.749 156.936C134.705 157 134.683 157.079 134.683 157.172C134.683 157.263 134.708 157.347 134.756 157.425C134.804 157.501 134.877 157.562 134.976 157.607C135.074 157.652 135.2 157.675 135.353 157.675Z" fill="#5E6B77"/>
<path d="M138.087 158.132V154.63H139.719C139.827 154.63 139.935 154.636 140.042 154.649C140.15 154.66 140.245 154.676 140.328 154.698C140.515 154.747 140.676 154.847 140.809 154.996C140.941 155.143 141.008 155.34 141.008 155.586C141.008 155.727 140.985 155.846 140.939 155.943C140.893 156.038 140.83 156.12 140.75 156.19C140.713 156.22 140.675 156.247 140.633 156.271C140.592 156.294 140.551 156.313 140.51 156.326C140.594 156.339 140.678 156.367 140.76 156.41C140.886 156.473 140.989 156.564 141.07 156.683C141.152 156.799 141.193 156.956 141.193 157.153C141.193 157.389 141.133 157.586 141.011 157.746C140.89 157.904 140.718 158.012 140.496 158.071C140.409 158.094 140.31 158.111 140.2 158.119C140.093 158.128 139.985 158.132 139.877 158.132H138.087ZM138.816 157.597H139.833C139.881 157.597 139.936 157.593 139.998 157.584C140.06 157.576 140.114 157.564 140.163 157.549C140.266 157.518 140.339 157.463 140.382 157.383C140.428 157.303 140.451 157.218 140.451 157.127C140.451 157.004 140.417 156.905 140.348 156.832C140.279 156.756 140.192 156.707 140.087 156.686C140.041 156.671 139.991 156.662 139.936 156.66C139.881 156.658 139.834 156.657 139.795 156.657H138.816V157.597ZM138.816 156.112H139.62C139.686 156.112 139.754 156.109 139.822 156.102C139.891 156.093 139.951 156.079 140.001 156.06C140.09 156.027 140.157 155.973 140.2 155.898C140.244 155.82 140.266 155.736 140.266 155.645C140.266 155.545 140.242 155.457 140.194 155.379C140.145 155.301 140.073 155.247 139.977 155.217C139.911 155.195 139.834 155.183 139.747 155.181C139.662 155.177 139.608 155.174 139.585 155.174H138.816V156.112Z" fill="#5E6B77"/>
<path d="M141.879 158.132V154.63H142.6V155.846H143.332C143.438 155.846 143.55 155.848 143.669 155.852C143.79 155.857 143.895 155.867 143.982 155.885C144.181 155.924 144.353 155.989 144.497 156.079C144.644 156.17 144.757 156.291 144.837 156.443C144.917 156.592 144.957 156.776 144.957 156.994C144.957 157.299 144.873 157.542 144.703 157.724C144.536 157.903 144.309 158.024 144.023 158.087C143.931 158.106 143.822 158.119 143.696 158.126C143.573 158.13 143.459 158.132 143.356 158.132H141.879ZM142.6 157.587H143.398C143.455 157.587 143.52 157.585 143.593 157.581C143.667 157.577 143.734 157.567 143.796 157.552C143.906 157.522 144.005 157.46 144.092 157.367C144.179 157.274 144.222 157.15 144.222 156.994C144.222 156.834 144.179 156.706 144.092 156.611C144.007 156.516 143.899 156.454 143.769 156.426C143.707 156.411 143.644 156.402 143.58 156.397C143.515 156.393 143.455 156.391 143.398 156.391H142.6V157.587Z" fill="#5E6B77"/>
<path d="M146.673 158.132V155.239H145.405V154.63H148.659V155.239H147.391V158.132H146.673Z" fill="#5E6B77"/>
<path d="M150.957 158.23C150.588 158.23 150.264 158.154 149.984 158.003C149.707 157.849 149.491 157.636 149.335 157.364C149.182 157.089 149.105 156.771 149.105 156.41C149.105 156.027 149.18 155.696 149.332 155.414C149.485 155.133 149.698 154.916 149.971 154.763C150.243 154.609 150.561 154.532 150.922 154.532C151.3 154.532 151.622 154.616 151.888 154.782C152.154 154.946 152.352 155.181 152.482 155.486C152.615 155.791 152.668 156.153 152.64 156.572H151.922V156.326C151.918 155.919 151.835 155.619 151.675 155.424C151.517 155.23 151.275 155.132 150.95 155.132C150.59 155.132 150.32 155.239 150.139 155.453C149.958 155.667 149.868 155.977 149.868 156.381C149.868 156.766 149.958 157.064 150.139 157.276C150.32 157.486 150.581 157.591 150.922 157.591C151.147 157.591 151.34 157.543 151.503 157.448C151.668 157.351 151.796 157.212 151.888 157.033L152.592 157.244C152.448 157.557 152.229 157.8 151.936 157.973C151.643 158.144 151.316 158.23 150.957 158.23ZM149.634 156.572V156.044H152.283V156.572H149.634Z" fill="#5E6B77"/>
<path d="M156.374 158.23C155.994 158.23 155.671 158.15 155.405 157.99C155.14 157.83 154.936 157.61 154.794 157.331C154.654 157.052 154.583 156.736 154.581 156.381C154.583 156.02 154.656 155.701 154.801 155.424C154.945 155.145 155.151 154.927 155.419 154.769C155.687 154.611 156.009 154.532 156.385 154.532C156.79 154.532 157.136 154.627 157.422 154.818C157.711 155.008 157.901 155.269 157.993 155.599L157.278 155.794C157.207 155.597 157.09 155.445 156.927 155.337C156.767 155.226 156.583 155.171 156.374 155.171C156.138 155.171 155.945 155.224 155.794 155.33C155.642 155.434 155.53 155.577 155.457 155.758C155.384 155.94 155.346 156.147 155.344 156.381C155.346 156.742 155.433 157.034 155.605 157.257C155.779 157.479 156.035 157.591 156.374 157.591C156.606 157.591 156.792 157.541 156.934 157.442C157.079 157.34 157.189 157.195 157.264 157.007L157.993 157.169C157.871 157.511 157.671 157.773 157.391 157.957C157.112 158.139 156.773 158.23 156.374 158.23Z" fill="#5E6B77"/>
<path d="M160.203 158.23C159.832 158.23 159.51 158.151 159.238 157.993C158.965 157.835 158.755 157.618 158.606 157.341C158.459 157.062 158.386 156.741 158.386 156.378C158.386 156.012 158.461 155.691 158.613 155.414C158.764 155.136 158.976 154.919 159.248 154.766C159.521 154.61 159.839 154.532 160.203 154.532C160.574 154.532 160.896 154.611 161.169 154.769C161.441 154.927 161.652 155.144 161.801 155.421C161.95 155.698 162.024 156.017 162.024 156.378C162.024 156.743 161.949 157.065 161.798 157.344C161.649 157.621 161.438 157.838 161.165 157.996C160.893 158.152 160.572 158.23 160.203 158.23ZM160.203 157.591C160.558 157.591 160.823 157.478 160.997 157.253C161.173 157.026 161.262 156.734 161.262 156.378C161.262 156.012 161.172 155.72 160.994 155.502C160.817 155.282 160.554 155.171 160.203 155.171C159.963 155.171 159.765 155.223 159.609 155.327C159.453 155.429 159.337 155.57 159.262 155.752C159.186 155.931 159.149 156.14 159.149 156.378C159.149 156.745 159.238 157.039 159.417 157.26C159.595 157.48 159.857 157.591 160.203 157.591Z" fill="#5E6B77"/>
<path d="M163.657 158.132V155.239H162.39V154.63H165.643V155.239H164.376V158.132H163.657Z" fill="#5E6B77"/>
<path d="M168.038 158.23C167.683 158.23 167.385 158.149 167.144 157.986C166.904 157.822 166.722 157.6 166.598 157.322C166.474 157.043 166.413 156.728 166.413 156.378C166.413 156.027 166.473 155.713 166.595 155.434C166.718 155.155 166.899 154.936 167.138 154.776C167.378 154.613 167.674 154.532 168.024 154.532C168.372 154.532 168.672 154.613 168.924 154.776C169.178 154.936 169.374 155.155 169.512 155.434C169.649 155.711 169.718 156.025 169.718 156.378C169.718 156.728 169.649 157.044 169.512 157.325C169.377 157.604 169.183 157.824 168.931 157.986C168.681 158.149 168.384 158.23 168.038 158.23ZM166.292 159.689V154.63H166.931V157.15H167.014V159.689H166.292ZM167.938 157.617C168.167 157.617 168.356 157.562 168.505 157.451C168.656 157.341 168.768 157.193 168.842 157.007C168.917 156.819 168.955 156.609 168.955 156.378C168.955 156.149 168.917 155.941 168.842 155.755C168.768 155.569 168.655 155.421 168.502 155.311C168.348 155.2 168.152 155.145 167.914 155.145C167.69 155.145 167.504 155.197 167.357 155.301C167.213 155.405 167.105 155.55 167.034 155.736C166.966 155.922 166.931 156.136 166.931 156.378C166.931 156.62 166.966 156.834 167.034 157.02C167.103 157.206 167.212 157.352 167.361 157.458C167.51 157.564 167.702 157.617 167.938 157.617Z" fill="#5E6B77"/>
<path d="M170.844 159.689L171.562 157.844L171.572 158.389L169.954 154.63H170.703L171.912 157.532H171.693L172.847 154.63H173.575L171.528 159.689H170.844Z" fill="#5E6B77"/>
<path d="M173.705 158.911V157.587C173.908 157.587 174.054 157.524 174.141 157.396C174.23 157.266 174.301 157.047 174.354 156.738C174.386 156.55 174.412 156.35 174.433 156.138C174.456 155.926 174.475 155.697 174.491 155.45C174.507 155.202 174.524 154.928 174.54 154.63H177.199V157.587H177.563V158.911H176.883V158.132H174.388V158.911H173.705ZM174.732 157.587H176.477V155.174H175.179C175.169 155.317 175.159 155.464 175.148 155.616C175.139 155.767 175.127 155.917 175.113 156.066C175.102 156.216 175.088 156.358 175.072 156.494C175.056 156.631 175.038 156.754 175.017 156.864C174.99 157.035 174.956 157.178 174.917 157.292C174.881 157.407 174.819 157.505 174.732 157.587Z" fill="#5E6B77"/>
<path d="M178.244 158.132V154.63H178.962V156.06H180.773V154.63H181.491V158.132H180.773V156.699H178.962V158.132H178.244Z" fill="#5E6B77"/>
<path d="M185.582 154.63V158.132H184.891V155.697L183.036 158.132H182.452V154.63H183.142V157.017L185.001 154.63H185.582Z" fill="#5E6B77"/>
<path d="M186.538 158.132L186.542 154.63H187.27V156.316L188.727 154.63H189.641L188.102 156.381L189.799 158.132H188.823L187.27 156.446V158.132H186.538Z" fill="#5E6B77"/>
<path d="M191.69 158.23C191.319 158.23 190.997 158.151 190.724 157.993C190.452 157.835 190.241 157.618 190.092 157.341C189.946 157.062 189.872 156.741 189.872 156.378C189.872 156.012 189.948 155.691 190.099 155.414C190.25 155.136 190.462 154.919 190.735 154.766C191.007 154.61 191.326 154.532 191.69 154.532C192.061 154.532 192.383 154.611 192.655 154.769C192.928 154.927 193.139 155.144 193.288 155.421C193.436 155.698 193.511 156.017 193.511 156.378C193.511 156.743 193.435 157.065 193.284 157.344C193.135 157.621 192.924 157.838 192.652 157.996C192.379 158.152 192.059 158.23 191.69 158.23ZM191.69 157.591C192.045 157.591 192.309 157.478 192.484 157.253C192.66 157.026 192.748 156.734 192.748 156.378C192.748 156.012 192.659 155.72 192.48 155.502C192.304 155.282 192.04 155.171 191.69 155.171C191.449 155.171 191.251 155.223 191.095 155.327C190.94 155.429 190.824 155.57 190.748 155.752C190.673 155.931 190.635 156.14 190.635 156.378C190.635 156.745 190.724 157.039 190.903 157.26C191.082 157.48 191.344 157.591 191.69 157.591Z" fill="#5E6B77"/>
<path d="M194.262 158.132V154.63H195.894C196.002 154.63 196.11 154.636 196.217 154.649C196.325 154.66 196.42 154.676 196.503 154.698C196.69 154.747 196.851 154.847 196.984 154.996C197.117 155.143 197.183 155.34 197.183 155.586C197.183 155.727 197.16 155.846 197.114 155.943C197.068 156.038 197.005 156.12 196.925 156.19C196.889 156.22 196.85 156.247 196.808 156.271C196.767 156.294 196.726 156.313 196.685 156.326C196.77 156.339 196.853 156.367 196.936 156.41C197.062 156.473 197.165 156.564 197.245 156.683C197.327 156.799 197.368 156.956 197.368 157.153C197.368 157.389 197.308 157.586 197.186 157.746C197.065 157.904 196.893 158.012 196.671 158.071C196.584 158.094 196.485 158.111 196.376 158.119C196.268 158.128 196.16 158.132 196.053 158.132H194.262ZM194.991 157.597H196.008C196.056 157.597 196.111 157.593 196.173 157.584C196.235 157.576 196.29 157.564 196.338 157.549C196.441 157.518 196.514 157.463 196.558 157.383C196.603 157.303 196.626 157.218 196.626 157.127C196.626 157.004 196.592 156.905 196.523 156.832C196.455 156.756 196.368 156.707 196.262 156.686C196.216 156.671 196.166 156.662 196.111 156.66C196.056 156.658 196.009 156.657 195.97 156.657H194.991V157.597ZM194.991 156.112H195.795C195.861 156.112 195.929 156.109 195.998 156.102C196.066 156.093 196.126 156.079 196.176 156.06C196.266 156.027 196.332 155.973 196.376 155.898C196.419 155.82 196.441 155.736 196.441 155.645C196.441 155.545 196.417 155.457 196.369 155.379C196.321 155.301 196.248 155.247 196.152 155.217C196.086 155.195 196.009 155.183 195.922 155.181C195.837 155.177 195.783 155.174 195.76 155.174H194.991V156.112Z" fill="#5E6B77"/>
<path d="M142.113 201.893H141.422V198.458L139.112 201.893H138.421V197.275H139.112V200.706L141.422 197.275H142.113V201.893Z" fill="#5E6B77"/>
<path d="M144.527 201.989C144.167 201.989 143.86 201.91 143.608 201.752C143.356 201.594 143.163 201.377 143.028 201.101C142.896 200.825 142.829 200.512 142.826 200.161C142.829 199.804 142.898 199.489 143.035 199.215C143.172 198.939 143.367 198.723 143.621 198.567C143.876 198.411 144.181 198.333 144.537 198.333C144.921 198.333 145.249 198.427 145.521 198.615C145.795 198.804 145.975 199.061 146.062 199.388L145.384 199.581C145.317 199.386 145.206 199.236 145.052 199.129C144.9 199.02 144.725 198.965 144.527 198.965C144.303 198.965 144.12 199.017 143.977 199.122C143.833 199.225 143.727 199.366 143.657 199.546C143.588 199.725 143.552 199.93 143.55 200.161C143.552 200.518 143.634 200.807 143.797 201.027C143.962 201.247 144.206 201.358 144.527 201.358C144.747 201.358 144.924 201.308 145.058 201.21C145.195 201.109 145.299 200.966 145.371 200.78L146.062 200.941C145.947 201.278 145.757 201.538 145.492 201.72C145.227 201.9 144.905 201.989 144.527 201.989Z" fill="#5E6B77"/>
<path d="M146.722 201.893V198.429H149.69V201.893H149.009V199.061H147.403V201.893H146.722Z" fill="#5E6B77"/>
<path d="M152.129 201.989C151.777 201.989 151.472 201.911 151.213 201.755C150.955 201.599 150.755 201.384 150.614 201.111C150.475 200.835 150.405 200.517 150.405 200.158C150.405 199.797 150.477 199.479 150.62 199.206C150.764 198.93 150.965 198.716 151.223 198.564C151.482 198.41 151.784 198.333 152.129 198.333C152.481 198.333 152.786 198.411 153.045 198.567C153.303 198.723 153.503 198.938 153.644 199.212C153.785 199.486 153.856 199.801 153.856 200.158C153.856 200.519 153.784 200.838 153.641 201.114C153.5 201.387 153.3 201.602 153.041 201.758C152.783 201.912 152.479 201.989 152.129 201.989ZM152.129 201.358C152.466 201.358 152.717 201.246 152.882 201.024C153.049 200.799 153.133 200.511 153.133 200.158C153.133 199.797 153.048 199.508 152.878 199.292C152.711 199.074 152.461 198.965 152.129 198.965C151.901 198.965 151.713 199.016 151.565 199.119C151.418 199.219 151.308 199.36 151.236 199.539C151.165 199.717 151.129 199.923 151.129 200.158C151.129 200.522 151.213 200.812 151.383 201.03C151.552 201.248 151.801 201.358 152.129 201.358Z" fill="#5E6B77"/>
<path d="M154.246 201.893V201.325C154.376 201.349 154.475 201.346 154.542 201.316C154.612 201.284 154.663 201.226 154.696 201.143C154.73 201.059 154.76 200.951 154.784 200.819C154.821 200.624 154.852 200.403 154.878 200.155C154.906 199.905 154.931 199.634 154.953 199.343C154.975 199.053 154.994 198.748 155.012 198.429H157.54V201.893H156.856V199.061H155.624C155.611 199.23 155.596 199.41 155.579 199.6C155.563 199.788 155.546 199.975 155.526 200.161C155.507 200.347 155.486 200.522 155.465 200.684C155.443 200.847 155.42 200.985 155.396 201.101C155.353 201.332 155.289 201.516 155.204 201.653C155.121 201.787 155.004 201.874 154.852 201.912C154.7 201.953 154.498 201.947 154.246 201.893Z" fill="#5E6B77"/>
<path d="M158.45 201.893V198.429H159.135V199.632H159.829C159.928 199.632 160.035 199.634 160.148 199.639C160.263 199.643 160.362 199.653 160.444 199.671C160.633 199.709 160.796 199.773 160.933 199.863C161.072 199.953 161.18 200.073 161.256 200.222C161.332 200.37 161.37 200.551 161.37 200.767C161.37 201.069 161.289 201.309 161.129 201.489C160.97 201.666 160.755 201.786 160.483 201.848C160.397 201.867 160.293 201.88 160.174 201.887C160.057 201.891 159.949 201.893 159.851 201.893H158.45ZM159.135 201.354H159.89C159.945 201.354 160.007 201.352 160.076 201.348C160.146 201.344 160.21 201.334 160.268 201.319C160.373 201.289 160.466 201.228 160.549 201.136C160.631 201.044 160.672 200.921 160.672 200.767C160.672 200.609 160.631 200.483 160.549 200.389C160.468 200.295 160.366 200.234 160.242 200.206C160.184 200.191 160.124 200.182 160.063 200.177C160.002 200.173 159.945 200.171 159.89 200.171H159.135V201.354Z" fill="#5E6B77"/>
<path d="M163.342 201.989C163.001 201.989 162.694 201.918 162.423 201.774C162.153 201.631 161.941 201.433 161.784 201.181L162.325 200.832C162.451 200.998 162.597 201.128 162.762 201.22C162.929 201.312 163.117 201.358 163.325 201.358C163.542 201.358 163.714 201.309 163.84 201.213C163.968 201.115 164.032 200.983 164.032 200.819C164.032 200.688 163.995 200.592 163.922 200.53C163.85 200.466 163.75 200.424 163.622 200.405C163.496 200.386 163.352 200.376 163.192 200.376H162.879V199.837H163.192C163.405 199.837 163.579 199.808 163.716 199.751C163.855 199.691 163.925 199.579 163.925 199.414C163.925 199.254 163.865 199.138 163.746 199.068C163.628 198.997 163.488 198.962 163.325 198.962C163.143 198.962 162.966 199 162.794 199.077C162.623 199.152 162.473 199.245 162.345 199.356L161.947 198.898C162.134 198.72 162.347 198.582 162.586 198.484C162.827 198.383 163.085 198.333 163.361 198.333C163.587 198.333 163.796 198.373 163.987 198.452C164.18 198.529 164.334 198.643 164.449 198.795C164.567 198.947 164.625 199.134 164.625 199.356C164.625 199.529 164.586 199.688 164.508 199.831C164.43 199.974 164.31 200.105 164.15 200.222L164.13 199.995C164.263 200.035 164.373 200.1 164.462 200.19C164.551 200.28 164.618 200.386 164.661 200.508C164.707 200.627 164.73 200.755 164.73 200.889C164.73 201.122 164.667 201.321 164.541 201.486C164.417 201.65 164.25 201.775 164.039 201.861C163.828 201.947 163.596 201.989 163.342 201.989Z" fill="#5E6B77"/>
<path d="M165.923 203.432L166.604 201.608L166.614 202.146L165.079 198.429H165.789L166.936 201.3H166.728L167.822 198.429H168.513L166.571 203.432H165.923Z" fill="#5E6B77"/>
<path d="M170.594 198.032C170.422 198.032 170.265 197.99 170.121 197.907C169.98 197.823 169.867 197.712 169.783 197.573C169.698 197.434 169.656 197.279 169.656 197.108H170.196C170.196 197.215 170.236 197.307 170.314 197.384C170.392 197.461 170.485 197.499 170.594 197.499C170.705 197.499 170.798 197.461 170.874 197.384C170.952 197.307 170.991 197.215 170.991 197.108H171.532C171.532 197.279 171.49 197.434 171.405 197.573C171.32 197.712 171.206 197.823 171.063 197.907C170.922 197.99 170.766 198.032 170.594 198.032ZM171.988 198.429V201.893H171.334V199.485L169.574 201.893H169.02V198.429H169.675V200.79L171.438 198.429H171.988Z" fill="#5E6B77"/>
<path d="M173.808 201.893V199.032H172.606V198.429H175.691V199.032H174.489V201.893H173.808Z" fill="#5E6B77"/>
<path d="M177.87 201.989C177.521 201.989 177.213 201.914 176.948 201.765C176.686 201.613 176.48 201.402 176.333 201.133C176.187 200.861 176.114 200.547 176.114 200.19C176.114 199.812 176.186 199.484 176.329 199.206C176.475 198.928 176.677 198.713 176.935 198.561C177.194 198.409 177.495 198.333 177.838 198.333C178.196 198.333 178.501 198.416 178.753 198.58C179.005 198.743 179.193 198.975 179.317 199.276C179.443 199.578 179.493 199.936 179.467 200.35H178.786V200.107C178.782 199.705 178.703 199.408 178.551 199.215C178.402 199.023 178.172 198.927 177.864 198.927C177.523 198.927 177.267 199.032 177.095 199.244C176.923 199.456 176.838 199.761 176.838 200.161C176.838 200.542 176.923 200.837 177.095 201.046C177.267 201.254 177.514 201.358 177.838 201.358C178.051 201.358 178.234 201.31 178.389 201.216C178.545 201.12 178.667 200.983 178.753 200.806L179.421 201.014C179.284 201.324 179.077 201.565 178.799 201.736C178.521 201.905 178.211 201.989 177.87 201.989ZM176.616 200.35V199.828H179.128V200.35H176.616Z" fill="#5E6B77"/>
</g>
<defs>
<filter id="filter0_d_2126_21432" x="36.5065" y="19.3049" width="245.037" height="240.572" filterUnits="userSpaceOnUse" color-interpolation-filters="sRGB">
<feFlood flood-opacity="0" result="BackgroundImageFix"/>
<feColorMatrix in="SourceAlpha" type="matrix" values="0 0 0 0 0 0 0 0 0 0 0 0 0 0 0 0 0 0 127 0" result="hardAlpha"/>
<feOffset/>
<feGaussianBlur stdDeviation="14"/>
<feColorMatrix type="matrix" values="0 0 0 0 0.27375 0 0 0 0 0.382789 0 0 0 0 0.47625 0 0 0 0.14 0"/>
<feBlend mode="normal" in2="BackgroundImageFix" result="effect1_dropShadow_2126_21432"/>
<feBlend mode="normal" in="SourceGraphic" in2="effect1_dropShadow_2126_21432" result="shape"/>
</filter>
<linearGradient id="paint0_linear_2126_21432" x1="15.545" y1="189.918" x2="248.345" y2="69.6401" gradientUnits="userSpaceOnUse">
<stop stop-color="#CED2D4"/>
<stop offset="1" stop-color="#E9EBED"/>
</linearGradient>
<linearGradient id="paint1_linear_2126_21432" x1="42.4206" y1="210.047" x2="297.617" y2="78.4733" gradientUnits="userSpaceOnUse">
<stop stop-color="#CED2D4"/>
<stop offset="1" stop-color="#E9EBED"/>
</linearGradient>
<clipPath id="clip0_2126_21432">
<rect width="320" height="273" fill="white"/>
</clipPath>
</defs>
</svg>
