<svg width="320" height="320" viewBox="0 0 320 320" fill="none" xmlns="http://www.w3.org/2000/svg">
<rect x="126.87" y="320" width="231.074" height="231.074" rx="115.537" transform="rotate(-123.302 126.87 320)" stroke="url(#paint0_linear_2126_20984)" stroke-linecap="round" stroke-dasharray="5 5"/>
<path d="M282.725 126.777C300.887 194.312 260.664 263.73 192.885 281.826C125.105 299.922 55.437 259.844 37.2756 192.308C19.1142 124.773 59.3374 55.3552 127.116 37.2592C194.896 19.1631 264.564 59.2416 282.725 126.777Z" stroke="url(#paint1_linear_2126_20984)" stroke-linecap="round" stroke-dasharray="5 5"/>
<rect x="55.7719" y="55.7712" width="209.371" height="209.371" rx="104.686" fill="#F6F7F8"/>
<g filter="url(#filter0_d_2126_20984)">
<circle cx="60.3434" cy="97.8286" r="21.4429" fill="white" stroke="#344351"/>
<ellipse cx="60.3434" cy="92.3429" rx="5.12" ry="5.48571" fill="#F88C28"/>
<path d="M68.5302 108.069H52.1566C51.4934 108.069 51.0179 107.436 51.2629 106.819C52.4871 103.74 55.4408 99.2915 60.3434 99.2915C65.246 99.2915 68.1997 103.74 69.4239 106.819C69.6689 107.436 69.1934 108.069 68.5302 108.069Z" fill="#F88C28"/>
</g>
<g filter="url(#filter1_d_2126_20984)">
<circle cx="160" cy="268.8" r="21.4429" fill="white" stroke="#344351"/>
<g filter="url(#filter2_d_2126_20984)">
<path d="M150.296 261.087H149.136C148.064 261.087 147.751 261.605 147.751 262.556V275.085C147.751 276.295 147.93 276.64 149.136 276.64H167.174C168.335 276.64 168.87 276.165 168.87 275.085V271.845V270.548V262.556C168.87 261.432 168.29 261.087 167.174 261.087H155.119H150.296Z" fill="white" stroke="#F88C28"/>
<path d="M151.502 259.834C150.118 259.834 150.297 260.223 150.297 261.087L150.297 274.005C150.297 274.912 150.654 275.171 151.547 275.171H154.002C154.851 275.171 155.119 274.739 155.119 274.005V261.087C155.119 259.963 155.119 259.834 153.601 259.834H151.502Z" fill="white" stroke="#F88C28"/>
<path d="M156.78 264.299C156.78 264.023 157.003 263.799 157.28 263.799H165.727C166.004 263.799 166.227 264.023 166.227 264.299V266.706C166.227 266.982 166.004 267.206 165.727 267.206H157.28C157.003 267.206 156.78 266.982 156.78 266.706V264.299Z" stroke="#F88C28"/>
<rect x="158.091" y="269.102" width="0.553116" height="0.518456" rx="0.259228" fill="#F88C28" stroke="#F88C28" stroke-width="0.518456"/>
<rect x="158.091" y="271.525" width="0.553116" height="0.518456" rx="0.259228" fill="#F88C28" stroke="#F88C28" stroke-width="0.518456"/>
<rect x="158.091" y="273.948" width="0.553117" height="0.518455" rx="0.259227" fill="#F88C28" stroke="#F88C28" stroke-width="0.518455"/>
<rect x="161.313" y="269.102" width="0.553122" height="0.518456" rx="0.259228" fill="#F88C28" stroke="#F88C28" stroke-width="0.518456"/>
<rect x="161.313" y="271.525" width="0.553122" height="0.518456" rx="0.259228" fill="#F88C28" stroke="#F88C28" stroke-width="0.518456"/>
<rect x="161.313" y="273.948" width="0.553123" height="0.518455" rx="0.259227" fill="#F88C28" stroke="#F88C28" stroke-width="0.518455"/>
<rect x="164.535" y="269.102" width="0.553116" height="0.518456" rx="0.259228" fill="#F88C28" stroke="#F88C28" stroke-width="0.518456"/>
<rect x="164.535" y="271.525" width="0.553116" height="0.518456" rx="0.259228" fill="#F88C28" stroke="#F88C28" stroke-width="0.518456"/>
<rect x="164.535" y="273.948" width="0.553117" height="0.518455" rx="0.259227" fill="#F88C28" stroke="#F88C28" stroke-width="0.518455"/>
<path d="M172.71 277.84C172.71 280.201 170.726 282.142 168.243 282.142C165.759 282.142 163.775 280.201 163.775 277.84C163.775 275.48 165.759 273.539 168.243 273.539C170.726 273.539 172.71 275.48 172.71 277.84Z" fill="white" stroke="#F88C28"/>
<path d="M170.317 276.64L167.42 279.041L165.971 277.841" stroke="#F88C28" stroke-linecap="round" stroke-linejoin="round"/>
</g>
</g>
<g filter="url(#filter3_d_2126_20984)">
<circle cx="214.858" cy="255.086" r="21.4429" fill="white" stroke="#344351"/>
<g filter="url(#filter4_d_2126_20984)">
<rect x="202.488" y="246.775" width="24.5162" height="14.1882" rx="0.5" fill="white" stroke="#F88C28"/>
<rect x="213.424" y="261.355" width="2.64517" height="2.64517" fill="white" stroke="#F88C28"/>
<rect x="209.17" y="264.394" width="10.543" height="1.43011" rx="0.5" fill="white" stroke="#F88C28"/>
<rect x="221.32" y="255.28" width="6.29034" height="11.7581" rx="0.5" fill="white" stroke="#F88C28"/>
<rect x="221.428" y="265.716" width="6.07528" height="1.21506" fill="#F88C28"/>
<rect x="223.858" y="266.323" width="1.21506" height="0.607529" rx="0.303764" fill="white"/>
</g>
</g>
<g filter="url(#filter5_d_2126_20984)">
<circle cx="105.143" cy="255.086" r="21.4429" fill="white" stroke="#344351"/>
<g filter="url(#filter6_d_2126_20984)">
<path d="M117.735 260.616H93.2766C92.8904 260.616 92.5354 260.394 92.3857 260.038C90.0341 254.447 93.4314 251.772 95.9055 250.958C96.2463 250.846 96.5229 250.588 96.6445 250.25C98.5237 245.035 103.15 245.691 105.678 246.866C105.976 247.004 106.322 247.009 106.622 246.876C111.651 244.646 113.617 248.649 114.094 251.587C114.171 252.062 114.543 252.438 115.009 252.557C118.496 253.449 118.959 257.309 118.68 259.805C118.628 260.279 118.213 260.616 117.735 260.616Z" fill="white" stroke="#F88C28" stroke-linecap="round"/>
<path d="M99.5413 257.304L101.252 252.006H102.352L104.062 257.304H103.269L101.694 252.469H101.891L100.334 257.304H99.5413ZM100.429 256.108V255.387H103.178V256.108H100.429Z" fill="#F88C28"/>
<path d="M104.718 257.304V252.006H106.845C106.896 252.006 106.96 252.008 107.035 252.013C107.111 252.015 107.183 252.023 107.251 252.035C107.543 252.082 107.787 252.182 107.982 252.337C108.179 252.491 108.327 252.686 108.424 252.922C108.522 253.157 108.57 253.417 108.57 253.702C108.57 253.989 108.522 254.25 108.424 254.486C108.327 254.721 108.179 254.916 107.982 255.071C107.787 255.225 107.543 255.326 107.251 255.372C107.183 255.382 107.11 255.389 107.032 255.394C106.956 255.399 106.894 255.402 106.845 255.402H105.482V257.304H104.718ZM105.482 254.673H106.816C106.865 254.673 106.918 254.671 106.977 254.666C107.038 254.661 107.095 254.652 107.149 254.64C107.305 254.603 107.43 254.536 107.525 254.438C107.62 254.337 107.688 254.222 107.73 254.092C107.771 253.962 107.792 253.832 107.792 253.702C107.792 253.572 107.771 253.443 107.73 253.315C107.688 253.185 107.62 253.071 107.525 252.973C107.43 252.873 107.305 252.804 107.149 252.767C107.095 252.753 107.038 252.743 106.977 252.738C106.918 252.733 106.865 252.73 106.816 252.73H105.482V254.673Z" fill="#F88C28"/>
<path d="M109.374 257.304V252.006H110.138V257.304H109.374Z" fill="#F88C28"/>
</g>
</g>
<g filter="url(#filter7_d_2126_20984)">
<circle cx="60.3434" cy="222.171" r="21.4429" fill="white" stroke="#344351"/>
<g filter="url(#filter8_d_2126_20984)">
<rect x="47.6411" y="213.8" width="24.4537" height="14.555" rx="0.5" fill="white" stroke="#F88C28"/>
<rect x="58.2468" y="228.647" width="3.24229" height="2.53524" fill="white" stroke="#F88C28"/>
<rect x="54.7115" y="231.476" width="10.3128" height="1.82819" rx="0.5" fill="white" stroke="#F88C28"/>
<path d="M54.561 223.905C54.0269 223.905 53.576 223.786 53.2084 223.547C52.8407 223.306 52.5625 222.972 52.3737 222.548C52.1849 222.123 52.0905 221.633 52.0905 221.077C52.0905 220.521 52.1849 220.031 52.3737 219.606C52.5625 219.181 52.8407 218.85 53.2084 218.611C53.576 218.369 54.0269 218.249 54.561 218.249C55.1846 218.249 55.6938 218.411 56.0888 218.735C56.4838 219.057 56.7546 219.489 56.9011 220.032L56.3422 220.179C56.2279 219.75 56.023 219.409 55.7274 219.158C55.4317 218.906 55.043 218.78 54.561 218.78C54.1412 218.78 53.7921 218.877 53.5139 219.071C53.2357 219.264 53.0258 219.535 52.8842 219.882C52.745 220.226 52.673 220.624 52.668 221.077C52.6656 221.529 52.7339 221.928 52.873 222.272C53.0146 222.617 53.2257 222.887 53.5065 223.083C53.7897 223.277 54.1412 223.373 54.561 223.373C55.043 223.373 55.4317 223.248 55.7274 222.996C56.023 222.742 56.2279 222.402 56.3422 221.974L56.9011 222.122C56.7546 222.665 56.4838 223.098 56.0888 223.422C55.6938 223.744 55.1846 223.905 54.561 223.905Z" fill="#F88C28"/>
<path d="M57.7233 223.792V218.362H59.7952C59.8473 218.362 59.9057 218.364 59.9703 218.369C60.0374 218.372 60.1045 218.38 60.1715 218.392C60.4522 218.435 60.6895 218.534 60.8833 218.69C61.0795 218.843 61.2273 219.037 61.3267 219.271C61.4285 219.504 61.4795 219.763 61.4795 220.048C61.4795 220.457 61.3726 220.813 61.159 221.115C60.9454 221.416 60.6398 221.606 60.2423 221.684L60.0523 221.729H58.2711V223.792H57.7233ZM60.9727 223.792L59.9144 221.582L60.4398 221.379L61.6024 223.792H60.9727ZM58.2711 221.201H59.7803C59.825 221.201 59.8771 221.199 59.9368 221.194C59.9964 221.189 60.0548 221.18 60.1119 221.167C60.2957 221.127 60.446 221.051 60.5628 220.937C60.682 220.824 60.7702 220.69 60.8274 220.534C60.887 220.378 60.9168 220.216 60.9168 220.048C60.9168 219.879 60.887 219.717 60.8274 219.561C60.7702 219.403 60.682 219.267 60.5628 219.154C60.446 219.041 60.2957 218.964 60.1119 218.924C60.0548 218.911 59.9964 218.904 59.9368 218.901C59.8771 218.896 59.825 218.894 59.7803 218.894H58.2711V221.201Z" fill="#F88C28"/>
<path d="M62.4249 223.792V218.362H62.928L65.0371 222.928L67.135 218.362H67.6455V223.788H67.1238V219.599L65.2122 223.792H64.8582L62.9503 219.599V223.792H62.4249Z" fill="#F88C28"/>
<path d="M54.561 223.905C54.0269 223.905 53.576 223.786 53.2084 223.547C52.8407 223.306 52.5625 222.972 52.3737 222.548C52.1849 222.123 52.0905 221.633 52.0905 221.077C52.0905 220.521 52.1849 220.031 52.3737 219.606C52.5625 219.181 52.8407 218.85 53.2084 218.611C53.576 218.369 54.0269 218.249 54.561 218.249C55.1846 218.249 55.6938 218.411 56.0888 218.735C56.4838 219.057 56.7546 219.489 56.9011 220.032L56.3422 220.179C56.2279 219.75 56.023 219.409 55.7274 219.158C55.4317 218.906 55.043 218.78 54.561 218.78C54.1412 218.78 53.7921 218.877 53.5139 219.071C53.2357 219.264 53.0258 219.535 52.8842 219.882C52.745 220.226 52.673 220.624 52.668 221.077C52.6656 221.529 52.7339 221.928 52.873 222.272C53.0146 222.617 53.2257 222.887 53.5065 223.083C53.7897 223.277 54.1412 223.373 54.561 223.373C55.043 223.373 55.4317 223.248 55.7274 222.996C56.023 222.742 56.2279 222.402 56.3422 221.974L56.9011 222.122C56.7546 222.665 56.4838 223.098 56.0888 223.422C55.6938 223.744 55.1846 223.905 54.561 223.905Z" stroke="#F88C28" stroke-width="0.5"/>
<path d="M57.7233 223.792V218.362H59.7952C59.8473 218.362 59.9057 218.364 59.9703 218.369C60.0374 218.372 60.1045 218.38 60.1715 218.392C60.4522 218.435 60.6895 218.534 60.8833 218.69C61.0795 218.843 61.2273 219.037 61.3267 219.271C61.4285 219.504 61.4795 219.763 61.4795 220.048C61.4795 220.457 61.3726 220.813 61.159 221.115C60.9454 221.416 60.6398 221.606 60.2423 221.684L60.0523 221.729H58.2711V223.792H57.7233ZM60.9727 223.792L59.9144 221.582L60.4398 221.379L61.6024 223.792H60.9727ZM58.2711 221.201H59.7803C59.825 221.201 59.8771 221.199 59.9368 221.194C59.9964 221.189 60.0548 221.18 60.1119 221.167C60.2957 221.127 60.446 221.051 60.5628 220.937C60.682 220.824 60.7702 220.69 60.8274 220.534C60.887 220.378 60.9168 220.216 60.9168 220.048C60.9168 219.879 60.887 219.717 60.8274 219.561C60.7702 219.403 60.682 219.267 60.5628 219.154C60.446 219.041 60.2957 218.964 60.1119 218.924C60.0548 218.911 59.9964 218.904 59.9368 218.901C59.8771 218.896 59.825 218.894 59.7803 218.894H58.2711V221.201Z" stroke="#F88C28" stroke-width="0.5"/>
<path d="M62.4249 223.792V218.362H62.928L65.0371 222.928L67.135 218.362H67.6455V223.788H67.1238V219.599L65.2122 223.792H64.8582L62.9503 219.599V223.792H62.4249Z" stroke="#F88C28" stroke-width="0.5"/>
</g>
</g>
<g filter="url(#filter9_d_2126_20984)">
<circle cx="259.658" cy="222.171" r="21.4429" fill="white" stroke="#344351"/>
<g filter="url(#filter10_d_2126_20984)">
<path d="M266.614 234.892H253.688C252.307 234.892 251.188 233.773 251.188 232.392V213.302C251.188 211.921 252.307 210.802 253.688 210.802H263.052C263.759 210.802 264.433 211.101 264.907 211.626L268.47 215.571C268.885 216.03 269.114 216.627 269.114 217.246V232.392C269.114 233.773 267.995 234.892 266.614 234.892Z" fill="white" stroke="#F88C28"/>
<rect x="253.678" y="224.312" width="12.9458" height="8.16747" rx="1.5" stroke="#F88C28"/>
<path d="M253.428 227.19H266.875" stroke="#F88C28"/>
<path d="M253.676 229.602H262.517" stroke="#F88C28"/>
<path d="M261.926 227.19V224.053" stroke="#F88C28"/>
<path d="M262.221 232.777V229.524" stroke="#F88C28"/>
<path d="M257.785 232.777V229.524" stroke="#F88C28"/>
<path d="M258.377 227.19V224.053" stroke="#F88C28"/>
</g>
</g>
<g filter="url(#filter11_d_2126_20984)">
<circle cx="259.658" cy="97.8286" r="21.4429" fill="white" stroke="#344351"/>
<ellipse cx="259.658" cy="92.3429" rx="5.12" ry="5.48571" fill="#F88C28"/>
<path d="M267.844 108.069H251.471C250.808 108.069 250.332 107.436 250.577 106.819C251.801 103.74 254.755 99.2915 259.658 99.2915C264.56 99.2915 267.514 103.74 268.738 106.819C268.983 107.436 268.508 108.069 267.844 108.069Z" fill="#F88C28"/>
</g>
<g filter="url(#filter12_d_2126_20984)">
<circle cx="105.143" cy="64" r="21.4429" fill="white" stroke="#344351"/>
<ellipse cx="105.143" cy="58.5143" rx="5.12" ry="5.48571" fill="#F88C28"/>
<path d="M113.33 74.24H96.9565C96.2934 74.24 95.8178 73.607 96.0629 72.9907C97.287 69.9118 100.241 65.4629 105.143 65.4629C110.046 65.4629 113 69.9118 114.224 72.9907C114.469 73.607 113.993 74.24 113.33 74.24Z" fill="#F88C28"/>
</g>
<g filter="url(#filter13_d_2126_20984)">
<circle cx="214.858" cy="64" r="21.4429" fill="white" stroke="#344351"/>
<ellipse cx="214.858" cy="58.5143" rx="5.12" ry="5.48571" fill="#F88C28"/>
<path d="M223.044 74.24H206.671C206.008 74.24 205.532 73.607 205.777 72.9907C207.001 69.9118 209.955 65.4629 214.858 65.4629C219.76 65.4629 222.714 69.9118 223.938 72.9907C224.183 73.607 223.708 74.24 223.044 74.24Z" fill="#F88C28"/>
</g>
<g filter="url(#filter14_d_2126_20984)">
<circle cx="160" cy="50.2856" r="21.4429" fill="white" stroke="#344351"/>
<ellipse cx="160" cy="44.7999" rx="5.12" ry="5.48571" fill="#F88C28"/>
<path d="M168.187 60.5257H151.814C151.151 60.5257 150.675 59.8926 150.92 59.2764C152.144 56.1975 155.098 51.7485 160.001 51.7485C164.903 51.7485 167.857 56.1975 169.081 59.2764C169.326 59.8926 168.85 60.5257 168.187 60.5257Z" fill="#F88C28"/>
</g>
<g filter="url(#filter15_d_2126_20984)">
<circle cx="160.458" cy="159.543" r="51.6571" fill="white"/>
<circle cx="160.458" cy="159.543" r="51.1571" stroke="#344351"/>
</g>
<path d="M166.27 135.314V147.076C168.971 148.41 171.145 150.634 172.44 153.384C173.734 156.134 174.071 159.248 173.397 162.218C172.722 165.188 171.076 167.838 168.725 169.736C166.375 171.634 163.461 172.667 160.458 172.667C157.454 172.667 154.54 171.634 152.19 169.736C149.84 167.838 148.193 165.188 147.518 162.218C146.844 159.248 147.181 156.134 148.475 153.384C149.77 150.634 151.945 148.41 154.645 147.076V135.314C148.899 136.755 143.872 140.281 140.512 145.226C137.152 150.171 135.691 156.192 136.407 162.155C137.122 168.117 139.963 173.608 144.394 177.59C148.825 181.573 154.539 183.771 160.458 183.771C166.376 183.771 172.09 181.573 176.521 177.59C180.952 173.608 183.793 168.117 184.509 162.155C185.224 156.192 183.764 150.171 180.404 145.226C177.044 140.281 172.016 136.755 166.27 135.314Z" fill="#5E6B77"/>
<path d="M153.272 160.614C153.51 161.968 154.095 163.229 154.965 164.265C155.834 165.3 156.956 166.071 158.211 166.496C159.466 166.92 160.807 166.983 162.093 166.677C163.38 166.371 164.563 165.707 165.517 164.757C166.472 163.806 167.162 162.604 167.515 161.278C167.869 159.952 167.871 158.55 167.524 157.222C167.176 155.894 166.491 154.689 165.54 153.734C164.59 152.779 163.41 152.111 162.125 151.799V135.314H158.746V151.728C156.922 152.183 155.336 153.352 154.314 154.992C153.293 156.632 152.913 158.619 153.255 160.543L153.272 160.614Z" fill="#5E6B77"/>
<path d="M128.183 214.857C126.98 218.027 124.51 220.539 123.425 223.795C123.343 224.04 123.058 224.761 123.154 224.521C123.411 223.878 124.119 223.131 124.684 222.763C125.202 222.426 125.417 222.209 124.868 222.894C124.305 223.599 123.805 224.307 123.145 224.932C122.599 225.45 122.869 222.275 122.516 222.098" stroke="#344351" stroke-linecap="round"/>
<path d="M191.086 214.857C192.289 218.027 194.758 220.539 195.844 223.795C195.925 224.04 196.211 224.761 196.115 224.521C195.858 223.878 195.15 223.131 194.584 222.763C194.067 222.426 193.852 222.209 194.401 222.894C194.964 223.599 195.464 224.307 196.124 224.932C196.67 225.45 196.4 222.275 196.753 222.098" stroke="#344351" stroke-linecap="round"/>
<path d="M160.147 222.171C160.147 224.778 160.408 227.367 160.471 229.972C160.528 232.364 160.95 234.959 160.541 237.336C160.332 238.547 160.323 237.436 160.06 236.741C159.802 236.063 159.424 235.356 159.124 234.695C158.934 234.278 159.504 236.899 159.867 236.899C161.303 236.899 161.069 234.615 162.036 234.293" stroke="#344351" stroke-linecap="round"/>
<path d="M228.072 121.6C226.239 123.433 223.997 124.999 221.863 126.471C221.762 126.541 220.67 127.366 220.551 127.232C220.385 127.046 221.101 126.246 221.224 126.095C221.982 125.169 220.549 127.464 220.358 127.774C220.159 128.098 222.153 127.703 222.396 127.661C222.922 127.57 224.513 127.425 223.979 127.425" stroke="#344351" stroke-linecap="round"/>
<path d="M93.2576 121.6C95.0905 123.433 97.3326 124.999 99.4668 126.471C99.5679 126.541 100.66 127.366 100.779 127.232C100.944 127.046 100.229 126.246 100.105 126.095C99.3472 125.169 100.78 127.464 100.971 127.774C101.17 128.098 99.176 127.703 98.9334 127.661C98.4077 127.57 96.817 127.425 97.3504 127.425" stroke="#344351" stroke-linecap="round"/>
<path d="M198.583 94.1714C197.38 97.3413 194.91 99.853 193.825 103.109C193.743 103.354 193.458 104.075 193.554 103.835C193.811 103.192 194.519 102.446 195.084 102.077C195.602 101.74 195.816 101.523 195.268 102.208C194.705 102.913 194.205 103.621 193.545 104.246C192.999 104.764 193.269 101.589 192.916 101.413" stroke="#344351" stroke-linecap="round"/>
<path d="M122.515 94.1714C123.717 97.3413 126.187 99.853 127.272 103.109C127.354 103.354 127.639 104.075 127.543 103.835C127.286 103.192 126.579 102.446 126.013 102.077C125.495 101.74 125.281 101.523 125.829 102.208C126.393 102.913 126.893 103.621 127.552 104.246C128.099 104.764 127.829 101.589 128.182 101.413" stroke="#344351" stroke-linecap="round"/>
<path d="M160.975 81.3713C160.975 83.9779 160.714 86.567 160.652 89.1723C160.594 91.5642 160.172 94.1588 160.582 96.536C160.79 97.747 160.799 96.6363 161.063 95.9413C161.32 95.263 161.698 94.5559 161.998 93.8948C162.188 93.4775 161.618 96.0987 161.255 96.0987C159.819 96.0987 160.053 93.8148 159.086 93.4925" stroke="#344351" stroke-linecap="round"/>
<path d="M100.986 193.829C99.1533 195.662 96.9112 197.228 94.7769 198.7C94.6759 198.77 93.5839 199.594 93.4651 199.461C93.2995 199.274 94.0151 198.475 94.1385 198.324C94.8966 197.397 93.4636 199.693 93.2727 200.003C93.0737 200.326 95.0677 199.931 95.3104 199.889C95.8361 199.798 97.4268 199.653 96.8933 199.653" stroke="#344351" stroke-linecap="round"/>
<path d="M220.343 193.829C222.176 195.662 224.418 197.228 226.553 198.7C226.654 198.77 227.746 199.594 227.864 199.461C228.03 199.274 227.314 198.475 227.191 198.324C226.433 197.397 227.866 199.693 228.057 200.003C228.256 200.326 226.262 199.931 226.019 199.889C225.493 199.798 223.903 199.653 224.436 199.653" stroke="#344351" stroke-linecap="round"/>
<defs>
<filter id="filter0_d_2126_20984" x="28.4005" y="65.8857" width="63.8857" height="63.8857" filterUnits="userSpaceOnUse" color-interpolation-filters="sRGB">
<feFlood flood-opacity="0" result="BackgroundImageFix"/>
<feColorMatrix in="SourceAlpha" type="matrix" values="0 0 0 0 0 0 0 0 0 0 0 0 0 0 0 0 0 0 127 0" result="hardAlpha"/>
<feOffset/>
<feGaussianBlur stdDeviation="5"/>
<feColorMatrix type="matrix" values="0 0 0 0 0.27375 0 0 0 0 0.382789 0 0 0 0 0.47625 0 0 0 0.14 0"/>
<feBlend mode="normal" in2="BackgroundImageFix" result="effect1_dropShadow_2126_20984"/>
<feBlend mode="normal" in="SourceGraphic" in2="effect1_dropShadow_2126_20984" result="shape"/>
</filter>
<filter id="filter1_d_2126_20984" x="128.058" y="236.857" width="63.8857" height="63.8857" filterUnits="userSpaceOnUse" color-interpolation-filters="sRGB">
<feFlood flood-opacity="0" result="BackgroundImageFix"/>
<feColorMatrix in="SourceAlpha" type="matrix" values="0 0 0 0 0 0 0 0 0 0 0 0 0 0 0 0 0 0 127 0" result="hardAlpha"/>
<feOffset/>
<feGaussianBlur stdDeviation="5"/>
<feColorMatrix type="matrix" values="0 0 0 0 0.27375 0 0 0 0 0.382789 0 0 0 0 0.47625 0 0 0 0.14 0"/>
<feBlend mode="normal" in2="BackgroundImageFix" result="effect1_dropShadow_2126_20984"/>
<feBlend mode="normal" in="SourceGraphic" in2="effect1_dropShadow_2126_20984" result="shape"/>
</filter>
<filter id="filter2_d_2126_20984" x="117.738" y="226.537" width="88.9143" height="87.8171" filterUnits="userSpaceOnUse" color-interpolation-filters="sRGB">
<feFlood flood-opacity="0" result="BackgroundImageFix"/>
<feColorMatrix in="SourceAlpha" type="matrix" values="0 0 0 0 0 0 0 0 0 0 0 0 0 0 0 0 0 0 127 0" result="hardAlpha"/>
<feOffset/>
<feGaussianBlur stdDeviation="14"/>
<feColorMatrix type="matrix" values="0 0 0 0 0.27375 0 0 0 0 0.382789 0 0 0 0 0.47625 0 0 0 0.14 0"/>
<feBlend mode="normal" in2="BackgroundImageFix" result="effect1_dropShadow_2126_20984"/>
<feBlend mode="normal" in="SourceGraphic" in2="effect1_dropShadow_2126_20984" result="shape"/>
</filter>
<filter id="filter3_d_2126_20984" x="182.915" y="223.143" width="63.8857" height="63.8857" filterUnits="userSpaceOnUse" color-interpolation-filters="sRGB">
<feFlood flood-opacity="0" result="BackgroundImageFix"/>
<feColorMatrix in="SourceAlpha" type="matrix" values="0 0 0 0 0 0 0 0 0 0 0 0 0 0 0 0 0 0 127 0" result="hardAlpha"/>
<feOffset/>
<feGaussianBlur stdDeviation="5"/>
<feColorMatrix type="matrix" values="0 0 0 0 0.27375 0 0 0 0 0.382789 0 0 0 0 0.47625 0 0 0 0.14 0"/>
<feBlend mode="normal" in2="BackgroundImageFix" result="effect1_dropShadow_2126_20984"/>
<feBlend mode="normal" in="SourceGraphic" in2="effect1_dropShadow_2126_20984" result="shape"/>
</filter>
<filter id="filter4_d_2126_20984" x="172.595" y="210.628" width="90.0114" height="90.0115" filterUnits="userSpaceOnUse" color-interpolation-filters="sRGB">
<feFlood flood-opacity="0" result="BackgroundImageFix"/>
<feColorMatrix in="SourceAlpha" type="matrix" values="0 0 0 0 0 0 0 0 0 0 0 0 0 0 0 0 0 0 127 0" result="hardAlpha"/>
<feOffset/>
<feGaussianBlur stdDeviation="14"/>
<feColorMatrix type="matrix" values="0 0 0 0 0.27375 0 0 0 0 0.382789 0 0 0 0 0.47625 0 0 0 0.14 0"/>
<feBlend mode="normal" in2="BackgroundImageFix" result="effect1_dropShadow_2126_20984"/>
<feBlend mode="normal" in="SourceGraphic" in2="effect1_dropShadow_2126_20984" result="shape"/>
</filter>
<filter id="filter5_d_2126_20984" x="73.2004" y="223.143" width="63.8857" height="63.8857" filterUnits="userSpaceOnUse" color-interpolation-filters="sRGB">
<feFlood flood-opacity="0" result="BackgroundImageFix"/>
<feColorMatrix in="SourceAlpha" type="matrix" values="0 0 0 0 0 0 0 0 0 0 0 0 0 0 0 0 0 0 127 0" result="hardAlpha"/>
<feOffset/>
<feGaussianBlur stdDeviation="5"/>
<feColorMatrix type="matrix" values="0 0 0 0 0.27375 0 0 0 0 0.382789 0 0 0 0 0.47625 0 0 0 0.14 0"/>
<feBlend mode="normal" in2="BackgroundImageFix" result="effect1_dropShadow_2126_20984"/>
<feBlend mode="normal" in="SourceGraphic" in2="effect1_dropShadow_2126_20984" result="shape"/>
</filter>
<filter id="filter6_d_2126_20984" x="61.7833" y="208.434" width="92.2057" height="92.2058" filterUnits="userSpaceOnUse" color-interpolation-filters="sRGB">
<feFlood flood-opacity="0" result="BackgroundImageFix"/>
<feColorMatrix in="SourceAlpha" type="matrix" values="0 0 0 0 0 0 0 0 0 0 0 0 0 0 0 0 0 0 127 0" result="hardAlpha"/>
<feOffset/>
<feGaussianBlur stdDeviation="14"/>
<feColorMatrix type="matrix" values="0 0 0 0 0.27375 0 0 0 0 0.382789 0 0 0 0 0.47625 0 0 0 0.14 0"/>
<feBlend mode="normal" in2="BackgroundImageFix" result="effect1_dropShadow_2126_20984"/>
<feBlend mode="normal" in="SourceGraphic" in2="effect1_dropShadow_2126_20984" result="shape"/>
</filter>
<filter id="filter7_d_2126_20984" x="28.4005" y="190.229" width="63.8857" height="63.8857" filterUnits="userSpaceOnUse" color-interpolation-filters="sRGB">
<feFlood flood-opacity="0" result="BackgroundImageFix"/>
<feColorMatrix in="SourceAlpha" type="matrix" values="0 0 0 0 0 0 0 0 0 0 0 0 0 0 0 0 0 0 127 0" result="hardAlpha"/>
<feOffset/>
<feGaussianBlur stdDeviation="5"/>
<feColorMatrix type="matrix" values="0 0 0 0 0.27375 0 0 0 0 0.382789 0 0 0 0 0.47625 0 0 0 0.14 0"/>
<feBlend mode="normal" in2="BackgroundImageFix" result="effect1_dropShadow_2126_20984"/>
<feBlend mode="normal" in="SourceGraphic" in2="effect1_dropShadow_2126_20984" result="shape"/>
</filter>
<filter id="filter8_d_2126_20984" x="18.0806" y="179.908" width="87.8171" height="87.8171" filterUnits="userSpaceOnUse" color-interpolation-filters="sRGB">
<feFlood flood-opacity="0" result="BackgroundImageFix"/>
<feColorMatrix in="SourceAlpha" type="matrix" values="0 0 0 0 0 0 0 0 0 0 0 0 0 0 0 0 0 0 127 0" result="hardAlpha"/>
<feOffset/>
<feGaussianBlur stdDeviation="14"/>
<feColorMatrix type="matrix" values="0 0 0 0 0.27375 0 0 0 0 0.382789 0 0 0 0 0.47625 0 0 0 0.14 0"/>
<feBlend mode="normal" in2="BackgroundImageFix" result="effect1_dropShadow_2126_20984"/>
<feBlend mode="normal" in="SourceGraphic" in2="effect1_dropShadow_2126_20984" result="shape"/>
</filter>
<filter id="filter9_d_2126_20984" x="227.715" y="190.229" width="67.1771" height="63.8857" filterUnits="userSpaceOnUse" color-interpolation-filters="sRGB">
<feFlood flood-opacity="0" result="BackgroundImageFix"/>
<feColorMatrix in="SourceAlpha" type="matrix" values="0 0 0 0 0 0 0 0 0 0 0 0 0 0 0 0 0 0 127 0" result="hardAlpha"/>
<feOffset/>
<feGaussianBlur stdDeviation="5"/>
<feColorMatrix type="matrix" values="0 0 0 0 0.27375 0 0 0 0 0.382789 0 0 0 0 0.47625 0 0 0 0.14 0"/>
<feBlend mode="normal" in2="BackgroundImageFix" result="effect1_dropShadow_2126_20984"/>
<feBlend mode="normal" in="SourceGraphic" in2="effect1_dropShadow_2126_20984" result="shape"/>
</filter>
<filter id="filter10_d_2126_20984" x="220.686" y="176.617" width="92.2057" height="92.2058" filterUnits="userSpaceOnUse" color-interpolation-filters="sRGB">
<feFlood flood-opacity="0" result="BackgroundImageFix"/>
<feColorMatrix in="SourceAlpha" type="matrix" values="0 0 0 0 0 0 0 0 0 0 0 0 0 0 0 0 0 0 127 0" result="hardAlpha"/>
<feOffset/>
<feGaussianBlur stdDeviation="14"/>
<feColorMatrix type="matrix" values="0 0 0 0 0.27375 0 0 0 0 0.382789 0 0 0 0 0.47625 0 0 0 0.14 0"/>
<feBlend mode="normal" in2="BackgroundImageFix" result="effect1_dropShadow_2126_20984"/>
<feBlend mode="normal" in="SourceGraphic" in2="effect1_dropShadow_2126_20984" result="shape"/>
</filter>
<filter id="filter11_d_2126_20984" x="227.715" y="65.8857" width="63.8857" height="63.8857" filterUnits="userSpaceOnUse" color-interpolation-filters="sRGB">
<feFlood flood-opacity="0" result="BackgroundImageFix"/>
<feColorMatrix in="SourceAlpha" type="matrix" values="0 0 0 0 0 0 0 0 0 0 0 0 0 0 0 0 0 0 127 0" result="hardAlpha"/>
<feOffset/>
<feGaussianBlur stdDeviation="5"/>
<feColorMatrix type="matrix" values="0 0 0 0 0.27375 0 0 0 0 0.382789 0 0 0 0 0.47625 0 0 0 0.14 0"/>
<feBlend mode="normal" in2="BackgroundImageFix" result="effect1_dropShadow_2126_20984"/>
<feBlend mode="normal" in="SourceGraphic" in2="effect1_dropShadow_2126_20984" result="shape"/>
</filter>
<filter id="filter12_d_2126_20984" x="73.2004" y="32.0571" width="63.8857" height="63.8857" filterUnits="userSpaceOnUse" color-interpolation-filters="sRGB">
<feFlood flood-opacity="0" result="BackgroundImageFix"/>
<feColorMatrix in="SourceAlpha" type="matrix" values="0 0 0 0 0 0 0 0 0 0 0 0 0 0 0 0 0 0 127 0" result="hardAlpha"/>
<feOffset/>
<feGaussianBlur stdDeviation="5"/>
<feColorMatrix type="matrix" values="0 0 0 0 0.27375 0 0 0 0 0.382789 0 0 0 0 0.47625 0 0 0 0.14 0"/>
<feBlend mode="normal" in2="BackgroundImageFix" result="effect1_dropShadow_2126_20984"/>
<feBlend mode="normal" in="SourceGraphic" in2="effect1_dropShadow_2126_20984" result="shape"/>
</filter>
<filter id="filter13_d_2126_20984" x="182.915" y="32.0571" width="63.8857" height="63.8857" filterUnits="userSpaceOnUse" color-interpolation-filters="sRGB">
<feFlood flood-opacity="0" result="BackgroundImageFix"/>
<feColorMatrix in="SourceAlpha" type="matrix" values="0 0 0 0 0 0 0 0 0 0 0 0 0 0 0 0 0 0 127 0" result="hardAlpha"/>
<feOffset/>
<feGaussianBlur stdDeviation="5"/>
<feColorMatrix type="matrix" values="0 0 0 0 0.27375 0 0 0 0 0.382789 0 0 0 0 0.47625 0 0 0 0.14 0"/>
<feBlend mode="normal" in2="BackgroundImageFix" result="effect1_dropShadow_2126_20984"/>
<feBlend mode="normal" in="SourceGraphic" in2="effect1_dropShadow_2126_20984" result="shape"/>
</filter>
<filter id="filter14_d_2126_20984" x="128.058" y="18.3428" width="63.8857" height="63.8857" filterUnits="userSpaceOnUse" color-interpolation-filters="sRGB">
<feFlood flood-opacity="0" result="BackgroundImageFix"/>
<feColorMatrix in="SourceAlpha" type="matrix" values="0 0 0 0 0 0 0 0 0 0 0 0 0 0 0 0 0 0 127 0" result="hardAlpha"/>
<feOffset/>
<feGaussianBlur stdDeviation="5"/>
<feColorMatrix type="matrix" values="0 0 0 0 0.27375 0 0 0 0 0.382789 0 0 0 0 0.47625 0 0 0 0.14 0"/>
<feBlend mode="normal" in2="BackgroundImageFix" result="effect1_dropShadow_2126_20984"/>
<feBlend mode="normal" in="SourceGraphic" in2="effect1_dropShadow_2126_20984" result="shape"/>
</filter>
<filter id="filter15_d_2126_20984" x="80.8004" y="79.8857" width="159.314" height="159.314" filterUnits="userSpaceOnUse" color-interpolation-filters="sRGB">
<feFlood flood-opacity="0" result="BackgroundImageFix"/>
<feColorMatrix in="SourceAlpha" type="matrix" values="0 0 0 0 0 0 0 0 0 0 0 0 0 0 0 0 0 0 127 0" result="hardAlpha"/>
<feOffset/>
<feGaussianBlur stdDeviation="14"/>
<feColorMatrix type="matrix" values="0 0 0 0 0.27375 0 0 0 0 0.382789 0 0 0 0 0.47625 0 0 0 0.14 0"/>
<feBlend mode="normal" in2="BackgroundImageFix" result="effect1_dropShadow_2126_20984"/>
<feBlend mode="normal" in="SourceGraphic" in2="effect1_dropShadow_2126_20984" result="shape"/>
</filter>
<linearGradient id="paint0_linear_2126_20984" x1="141.461" y1="498.367" x2="360.028" y2="385.51" gradientUnits="userSpaceOnUse">
<stop stop-color="#CED2D4"/>
<stop offset="1" stop-color="#E9EBED"/>
</linearGradient>
<linearGradient id="paint1_linear_2126_20984" x1="48.9643" y1="228.405" x2="289.014" y2="104.008" gradientUnits="userSpaceOnUse">
<stop stop-color="#CED2D4"/>
<stop offset="1" stop-color="#E9EBED"/>
</linearGradient>
</defs>
</svg>
