<svg width="208" height="68" viewBox="0 0 208 68" fill="none" xmlns="http://www.w3.org/2000/svg">
<g filter="url(#filter0_d_2126_20766)">
<circle cx="34" cy="34" r="23.5" fill="white" stroke="#344351"/>
<ellipse cx="34" cy="28" rx="5.6" ry="6" fill="#F88C28"/>
<path d="M43.0782 45.1996H24.9218C24.2586 45.1996 23.7823 44.5674 24.0226 43.9492C25.3328 40.5786 28.5759 35.5996 34 35.5996C39.4241 35.5996 42.6671 40.5786 43.9774 43.9492C44.2177 44.5674 43.7414 45.1996 43.0782 45.1996Z" fill="#F88C28" stroke="#F88C28"/>
</g>
<g filter="url(#filter1_d_2126_20766)">
<circle cx="69" cy="34" r="23.5" fill="white" stroke="#344351"/>
<ellipse cx="69" cy="28" rx="5.6" ry="6" fill="#F88C28"/>
<path d="M78.0782 45.1996H59.9218C59.2586 45.1996 58.7823 44.5674 59.0226 43.9492C60.3328 40.5786 63.5759 35.5996 69 35.5996C74.4241 35.5996 77.6671 40.5786 78.9774 43.9492C79.2177 44.5674 78.7414 45.1996 78.0782 45.1996Z" fill="#F88C28" stroke="#F88C28"/>
</g>
<g filter="url(#filter2_d_2126_20766)">
<circle cx="104" cy="34" r="23.5" fill="white" stroke="#344351"/>
<ellipse cx="104" cy="28" rx="5.6" ry="6" fill="#F88C28"/>
<path d="M113.078 45.1996H94.9218C94.2586 45.1996 93.7823 44.5674 94.0226 43.9492C95.3328 40.5786 98.5759 35.5996 104 35.5996C109.424 35.5996 112.667 40.5786 113.977 43.9492C114.218 44.5674 113.741 45.1996 113.078 45.1996Z" fill="#F88C28" stroke="#F88C28"/>
</g>
<g filter="url(#filter3_d_2126_20766)">
<circle cx="139" cy="34" r="23.5" fill="white" stroke="#344351"/>
<ellipse cx="139" cy="28" rx="5.6" ry="6" fill="#F88C28"/>
<path d="M148.078 45.1996H129.922C129.259 45.1996 128.782 44.5674 129.023 43.9492C130.333 40.5786 133.576 35.5996 139 35.5996C144.424 35.5996 147.667 40.5786 148.977 43.9492C149.218 44.5674 148.741 45.1996 148.078 45.1996Z" fill="#F88C28" stroke="#F88C28"/>
</g>
<g filter="url(#filter4_d_2126_20766)">
<circle cx="174" cy="34" r="23.5" fill="white" stroke="#344351"/>
<ellipse cx="174" cy="28" rx="5.6" ry="6" fill="#F88C28"/>
<path d="M183.078 45.1996H164.922C164.259 45.1996 163.782 44.5674 164.023 43.9492C165.333 40.5786 168.576 35.5996 174 35.5996C179.424 35.5996 182.667 40.5786 183.977 43.9492C184.218 44.5674 183.741 45.1996 183.078 45.1996Z" fill="#F88C28" stroke="#F88C28"/>
</g>
<defs>
<filter id="filter0_d_2126_20766" x="0" y="0" width="68" height="68" filterUnits="userSpaceOnUse" color-interpolation-filters="sRGB">
<feFlood flood-opacity="0" result="BackgroundImageFix"/>
<feColorMatrix in="SourceAlpha" type="matrix" values="0 0 0 0 0 0 0 0 0 0 0 0 0 0 0 0 0 0 127 0" result="hardAlpha"/>
<feOffset/>
<feGaussianBlur stdDeviation="5"/>
<feColorMatrix type="matrix" values="0 0 0 0 0.27375 0 0 0 0 0.382789 0 0 0 0 0.47625 0 0 0 0.14 0"/>
<feBlend mode="normal" in2="BackgroundImageFix" result="effect1_dropShadow_2126_20766"/>
<feBlend mode="normal" in="SourceGraphic" in2="effect1_dropShadow_2126_20766" result="shape"/>
</filter>
<filter id="filter1_d_2126_20766" x="35" y="0" width="68" height="68" filterUnits="userSpaceOnUse" color-interpolation-filters="sRGB">
<feFlood flood-opacity="0" result="BackgroundImageFix"/>
<feColorMatrix in="SourceAlpha" type="matrix" values="0 0 0 0 0 0 0 0 0 0 0 0 0 0 0 0 0 0 127 0" result="hardAlpha"/>
<feOffset/>
<feGaussianBlur stdDeviation="5"/>
<feColorMatrix type="matrix" values="0 0 0 0 0.27375 0 0 0 0 0.382789 0 0 0 0 0.47625 0 0 0 0.14 0"/>
<feBlend mode="normal" in2="BackgroundImageFix" result="effect1_dropShadow_2126_20766"/>
<feBlend mode="normal" in="SourceGraphic" in2="effect1_dropShadow_2126_20766" result="shape"/>
</filter>
<filter id="filter2_d_2126_20766" x="70" y="0" width="68" height="68" filterUnits="userSpaceOnUse" color-interpolation-filters="sRGB">
<feFlood flood-opacity="0" result="BackgroundImageFix"/>
<feColorMatrix in="SourceAlpha" type="matrix" values="0 0 0 0 0 0 0 0 0 0 0 0 0 0 0 0 0 0 127 0" result="hardAlpha"/>
<feOffset/>
<feGaussianBlur stdDeviation="5"/>
<feColorMatrix type="matrix" values="0 0 0 0 0.27375 0 0 0 0 0.382789 0 0 0 0 0.47625 0 0 0 0.14 0"/>
<feBlend mode="normal" in2="BackgroundImageFix" result="effect1_dropShadow_2126_20766"/>
<feBlend mode="normal" in="SourceGraphic" in2="effect1_dropShadow_2126_20766" result="shape"/>
</filter>
<filter id="filter3_d_2126_20766" x="105" y="0" width="68" height="68" filterUnits="userSpaceOnUse" color-interpolation-filters="sRGB">
<feFlood flood-opacity="0" result="BackgroundImageFix"/>
<feColorMatrix in="SourceAlpha" type="matrix" values="0 0 0 0 0 0 0 0 0 0 0 0 0 0 0 0 0 0 127 0" result="hardAlpha"/>
<feOffset/>
<feGaussianBlur stdDeviation="5"/>
<feColorMatrix type="matrix" values="0 0 0 0 0.27375 0 0 0 0 0.382789 0 0 0 0 0.47625 0 0 0 0.14 0"/>
<feBlend mode="normal" in2="BackgroundImageFix" result="effect1_dropShadow_2126_20766"/>
<feBlend mode="normal" in="SourceGraphic" in2="effect1_dropShadow_2126_20766" result="shape"/>
</filter>
<filter id="filter4_d_2126_20766" x="140" y="0" width="68" height="68" filterUnits="userSpaceOnUse" color-interpolation-filters="sRGB">
<feFlood flood-opacity="0" result="BackgroundImageFix"/>
<feColorMatrix in="SourceAlpha" type="matrix" values="0 0 0 0 0 0 0 0 0 0 0 0 0 0 0 0 0 0 127 0" result="hardAlpha"/>
<feOffset/>
<feGaussianBlur stdDeviation="5"/>
<feColorMatrix type="matrix" values="0 0 0 0 0.27375 0 0 0 0 0.382789 0 0 0 0 0.47625 0 0 0 0.14 0"/>
<feBlend mode="normal" in2="BackgroundImageFix" result="effect1_dropShadow_2126_20766"/>
<feBlend mode="normal" in="SourceGraphic" in2="effect1_dropShadow_2126_20766" result="shape"/>
</filter>
</defs>
</svg>
