<svg width="290" height="180" viewBox="0 0 290 180" fill="none" xmlns="http://www.w3.org/2000/svg">
<circle cx="44" cy="129" r="44" fill="#F4F4F4"/>
<path d="M49.0381 108.63V118.672C51.3785 119.811 53.2635 121.709 54.3854 124.057C55.5073 126.405 55.7997 129.064 55.2151 131.599C54.6304 134.135 53.2031 136.397 51.1662 138.017C49.1293 139.638 46.6031 140.52 44 140.52C41.3969 140.52 38.8707 139.638 36.8338 138.017C34.7969 136.397 33.3696 134.135 32.7849 131.599C32.2003 129.064 32.4927 126.405 33.6146 124.057C34.7364 121.709 36.6215 119.811 38.9619 118.672V108.63C33.9816 109.861 29.6242 112.871 26.7119 117.092C23.7996 121.314 22.534 126.455 23.1539 131.545C23.7739 136.636 26.2364 141.323 30.0769 144.723C33.9173 148.123 38.8699 150 44 150C49.1301 150 54.0827 148.123 57.9231 144.723C61.7636 141.323 64.2261 136.636 64.8461 131.545C65.466 126.455 64.2004 121.314 61.2881 117.092C58.3758 112.871 54.0184 109.861 49.0381 108.63Z" fill="#2B8FEB"/>
<path d="M37.6017 130.1C37.8192 131.283 38.3525 132.385 39.1454 133.29C39.9382 134.194 40.961 134.867 42.1055 135.238C43.2499 135.609 44.4734 135.664 45.6464 135.397C46.8193 135.129 47.8981 134.55 48.7686 133.719C49.639 132.889 50.2686 131.839 50.5907 130.681C50.9129 129.522 50.9156 128.298 50.5986 127.138C50.2815 125.977 49.6565 124.925 48.7898 124.091C47.923 123.257 46.8468 122.672 45.675 122.4V108H42.5936V122.338C40.9308 122.736 39.4842 123.757 38.5524 125.189C37.6206 126.622 37.2748 128.358 37.5863 130.039L37.6017 130.1Z" fill="#2B8FEB"/>
<circle cx="246" cy="133" r="44" fill="#F4F4F4"/>
<path d="M213.664 139L217.632 127.48H219.192L223.16 139H221.936L218.168 128.136H218.632L214.888 139H213.664ZM215.432 136.208V135.104H221.384V136.208H215.432ZM228.068 139.248C227.263 139.243 226.572 139.067 225.996 138.72C225.42 138.373 224.972 137.856 224.652 137.168C224.338 136.48 224.167 135.621 224.14 134.592C224.124 134.139 224.135 133.645 224.172 133.112C224.21 132.573 224.268 132.061 224.348 131.576C224.428 131.091 224.524 130.696 224.636 130.392C224.775 129.997 224.972 129.629 225.228 129.288C225.49 128.941 225.791 128.659 226.132 128.44C226.463 128.216 226.836 128.043 227.252 127.92C227.674 127.792 228.111 127.693 228.564 127.624C229.023 127.555 229.476 127.493 229.924 127.44C230.378 127.387 230.796 127.32 231.18 127.24L231.308 128.304C231.015 128.363 230.668 128.416 230.268 128.464C229.868 128.512 229.45 128.571 229.012 128.64C228.575 128.704 228.156 128.792 227.756 128.904C227.356 129.016 227.015 129.163 226.732 129.344C226.3 129.605 225.967 130 225.732 130.528C225.503 131.056 225.362 131.661 225.308 132.344C225.639 131.827 226.076 131.437 226.62 131.176C227.17 130.915 227.764 130.784 228.404 130.784C229.183 130.784 229.852 130.963 230.412 131.32C230.978 131.677 231.412 132.173 231.716 132.808C232.02 133.443 232.172 134.171 232.172 134.992C232.172 135.851 232.004 136.6 231.668 137.24C231.338 137.88 230.866 138.376 230.252 138.728C229.639 139.075 228.911 139.248 228.068 139.248ZM228.156 138.12C229.063 138.12 229.751 137.837 230.22 137.272C230.695 136.707 230.932 135.955 230.932 135.016C230.932 134.056 230.687 133.299 230.196 132.744C229.711 132.189 229.026 131.912 228.14 131.912C227.255 131.912 226.575 132.189 226.1 132.744C225.626 133.299 225.388 134.056 225.388 135.016C225.388 135.976 225.626 136.733 226.1 137.288C226.575 137.843 227.26 138.12 228.156 138.12ZM237.541 139.24C236.682 139.24 235.949 139.045 235.341 138.656C234.733 138.267 234.266 137.728 233.941 137.04C233.615 136.352 233.453 135.563 233.453 134.672C233.453 133.765 233.618 132.971 233.949 132.288C234.279 131.605 234.749 131.075 235.357 130.696C235.97 130.312 236.698 130.12 237.541 130.12C238.405 130.12 239.141 130.315 239.749 130.704C240.362 131.088 240.829 131.624 241.149 132.312C241.474 132.995 241.637 133.781 241.637 134.672C241.637 135.579 241.474 136.376 241.149 137.064C240.823 137.747 240.354 138.28 239.741 138.664C239.127 139.048 238.394 139.24 237.541 139.24ZM237.541 138.112C238.501 138.112 239.215 137.795 239.685 137.16C240.154 136.52 240.389 135.691 240.389 134.672C240.389 133.627 240.151 132.795 239.677 132.176C239.207 131.557 238.495 131.248 237.541 131.248C236.895 131.248 236.362 131.395 235.941 131.688C235.525 131.976 235.213 132.379 235.005 132.896C234.802 133.408 234.701 134 234.701 134.672C234.701 135.712 234.941 136.547 235.421 137.176C235.901 137.8 236.607 138.112 237.541 138.112ZM243.393 139V130.36H244.569V134.112H249.441V130.36H250.617V139H249.441V135.24H244.569V139H243.393ZM256.51 139.24C255.668 139.24 254.937 139.053 254.318 138.68C253.705 138.307 253.228 137.781 252.886 137.104C252.545 136.427 252.374 135.632 252.374 134.72C252.374 133.776 252.542 132.96 252.878 132.272C253.214 131.584 253.686 131.053 254.294 130.68C254.908 130.307 255.63 130.12 256.462 130.12C257.316 130.12 258.044 130.317 258.646 130.712C259.249 131.101 259.705 131.661 260.014 132.392C260.324 133.123 260.465 133.995 260.438 135.008H259.238V134.592C259.217 133.472 258.974 132.627 258.51 132.056C258.052 131.485 257.38 131.2 256.494 131.2C255.566 131.2 254.854 131.501 254.358 132.104C253.868 132.707 253.622 133.565 253.622 134.68C253.622 135.768 253.868 136.613 254.358 137.216C254.854 137.813 255.556 138.112 256.462 138.112C257.081 138.112 257.62 137.971 258.078 137.688C258.542 137.4 258.908 136.987 259.174 136.448L260.27 136.872C259.929 137.624 259.425 138.208 258.758 138.624C258.097 139.035 257.348 139.24 256.51 139.24ZM253.206 135.008V134.024H259.806V135.008H253.206ZM262.206 139V130.36H263.382V134.112H268.254V130.36H269.43V139H268.254V135.24H263.382V139H262.206ZM274.011 139V131.448H270.947V130.36H278.251V131.448H275.187V139H274.011Z" fill="#344351"/>
<path d="M118.254 139H117.07V129.552L110.726 139H109.542V127.48H110.726V136.92L117.07 127.48H118.254V139ZM120.487 139V130.36H121.663V134.112H126.535V130.36H127.711V139H126.535V135.24H121.663V139H120.487ZM132.292 139V131.448H129.228V130.36H136.532V131.448H133.468V139H132.292ZM141.714 139.24C140.871 139.24 140.14 139.053 139.522 138.68C138.908 138.307 138.431 137.781 138.09 137.104C137.748 136.427 137.578 135.632 137.578 134.72C137.578 133.776 137.746 132.96 138.082 132.272C138.418 131.584 138.89 131.053 139.498 130.68C140.111 130.307 140.834 130.12 141.666 130.12C142.519 130.12 143.247 130.317 143.85 130.712C144.452 131.101 144.908 131.661 145.218 132.392C145.527 133.123 145.668 133.995 145.642 135.008H144.442V134.592C144.42 133.472 144.178 132.627 143.714 132.056C143.255 131.485 142.583 131.2 141.698 131.2C140.77 131.2 140.058 131.501 139.562 132.104C139.071 132.707 138.826 133.565 138.826 134.68C138.826 135.768 139.071 136.613 139.562 137.216C140.058 137.813 140.759 138.112 141.666 138.112C142.284 138.112 142.823 137.971 143.282 137.688C143.746 137.4 144.111 136.987 144.378 136.448L145.474 136.872C145.132 137.624 144.628 138.208 143.962 138.624C143.3 139.035 142.551 139.24 141.714 139.24ZM138.41 135.008V134.024H145.01V135.008H138.41ZM151.297 139.24C150.502 139.24 149.83 139.04 149.281 138.64C148.732 138.235 148.316 137.688 148.033 137C147.75 136.307 147.609 135.531 147.609 134.672C147.609 133.797 147.75 133.019 148.033 132.336C148.321 131.648 148.742 131.107 149.297 130.712C149.852 130.317 150.534 130.12 151.345 130.12C152.134 130.12 152.812 130.32 153.377 130.72C153.942 131.12 154.374 131.664 154.673 132.352C154.977 133.04 155.129 133.813 155.129 134.672C155.129 135.536 154.977 136.312 154.673 137C154.369 137.688 153.932 138.235 153.361 138.64C152.79 139.04 152.102 139.24 151.297 139.24ZM147.409 142.84V130.36H148.465V136.864H148.593V142.84H147.409ZM151.177 138.144C151.78 138.144 152.281 137.992 152.681 137.688C153.081 137.384 153.38 136.971 153.577 136.448C153.78 135.92 153.881 135.328 153.881 134.672C153.881 134.021 153.782 133.435 153.585 132.912C153.388 132.389 153.086 131.976 152.681 131.672C152.281 131.368 151.772 131.216 151.153 131.216C150.55 131.216 150.049 131.363 149.649 131.656C149.254 131.949 148.958 132.357 148.761 132.88C148.564 133.397 148.465 133.995 148.465 134.672C148.465 135.339 148.564 135.936 148.761 136.464C148.958 136.987 149.257 137.397 149.657 137.696C150.057 137.995 150.564 138.144 151.177 138.144ZM156.878 139V130.36H158.054V134.112H162.926V130.36H164.102V139H162.926V135.24H158.054V139H156.878ZM169.995 139.24C169.152 139.24 168.421 139.053 167.803 138.68C167.189 138.307 166.712 137.781 166.371 137.104C166.029 136.427 165.859 135.632 165.859 134.72C165.859 133.776 166.027 132.96 166.363 132.272C166.699 131.584 167.171 131.053 167.779 130.68C168.392 130.307 169.115 130.12 169.947 130.12C170.8 130.12 171.528 130.317 172.131 130.712C172.733 131.101 173.189 131.661 173.499 132.392C173.808 133.123 173.949 133.995 173.923 135.008H172.723V134.592C172.701 133.472 172.459 132.627 171.995 132.056C171.536 131.485 170.864 131.2 169.979 131.2C169.051 131.2 168.339 131.501 167.843 132.104C167.352 132.707 167.107 133.565 167.107 134.68C167.107 135.768 167.352 136.613 167.843 137.216C168.339 137.813 169.04 138.112 169.947 138.112C170.565 138.112 171.104 137.971 171.563 137.688C172.027 137.4 172.392 136.987 172.659 136.448L173.755 136.872C173.413 137.624 172.909 138.208 172.243 138.624C171.581 139.035 170.832 139.24 169.995 139.24ZM166.691 135.008V134.024H173.291V135.008H166.691ZM177.933 139V131.448H174.869V130.36H182.173V131.448H179.109V139H177.933Z" fill="#5E6B77"/>
<path d="M92.8705 149.517C92.6038 149.589 92.4455 149.863 92.5171 150.129L93.6825 154.476C93.7541 154.743 94.0283 154.901 94.295 154.829C94.5617 154.758 94.7199 154.484 94.6484 154.217L93.6124 150.353L97.476 149.317C97.7427 149.246 97.9009 148.972 97.8294 148.705C97.7579 148.438 97.4837 148.28 97.217 148.352L92.8705 149.517ZM93.8023 150.463L94.0523 150.03L93.8023 150.463ZM196.763 151.521C196.325 151.758 195.885 151.99 195.444 152.22L195.906 153.107C196.351 152.875 196.795 152.64 197.237 152.402L196.763 151.521ZM192.782 153.559C191.887 153.994 190.988 154.415 190.084 154.823L190.495 155.735C191.408 155.323 192.316 154.898 193.219 154.459L192.782 153.559ZM187.351 156.01C186.433 156.393 185.511 156.763 184.585 157.119L184.944 158.053C185.879 157.693 186.809 157.32 187.736 156.933L187.351 156.01ZM181.788 158.15C180.85 158.481 179.908 158.798 178.963 159.101L179.269 160.053C180.223 159.747 181.173 159.427 182.12 159.093L181.788 158.15ZM176.113 159.972C175.158 160.249 174.2 160.512 173.239 160.762L173.491 161.73C174.461 161.478 175.428 161.212 176.392 160.932L176.113 159.972ZM170.345 161.47C169.376 161.692 168.404 161.901 167.431 162.096L167.627 163.076C168.61 162.88 169.59 162.669 170.568 162.444L170.345 161.47ZM164.501 162.639C163.521 162.806 162.54 162.959 161.557 163.099L161.697 164.089C162.689 163.948 163.68 163.793 164.669 163.624L164.501 162.639ZM158.6 163.476C157.613 163.587 156.624 163.685 155.634 163.769L155.718 164.765C156.717 164.681 157.716 164.582 158.713 164.469L158.6 163.476ZM152.661 163.978C151.669 164.033 150.677 164.075 149.684 164.103L149.711 165.102C150.714 165.074 151.716 165.032 152.717 164.976L152.661 163.978ZM146.704 164.144C145.71 164.143 144.717 164.129 143.724 164.1L143.695 165.1C144.698 165.129 145.7 165.143 146.703 165.144L146.704 164.144ZM140.746 163.973C139.755 163.916 138.764 163.846 137.774 163.762L137.689 164.758C138.688 164.843 139.688 164.914 140.689 164.971L140.746 163.973ZM134.808 163.466C133.821 163.354 132.836 163.227 131.852 163.087L131.711 164.077C132.704 164.219 133.699 164.346 134.695 164.46L134.808 163.466ZM128.908 162.625C127.929 162.457 126.952 162.275 125.978 162.079L125.781 163.06C126.765 163.257 127.751 163.441 128.738 163.61L128.908 162.625ZM123.065 161.451C122.097 161.229 121.132 160.992 120.17 160.741L119.918 161.709C120.89 161.962 121.864 162.201 122.84 162.426L123.065 161.451ZM117.297 159.95C116.344 159.672 115.394 159.381 114.448 159.077L114.141 160.029C115.097 160.336 116.056 160.63 117.018 160.91L117.297 159.95ZM111.624 158.124C110.688 157.793 109.756 157.449 108.828 157.091L108.468 158.024C109.405 158.385 110.346 158.733 111.291 159.066L111.624 158.124ZM106.063 155.979C105.147 155.596 104.236 155.2 103.33 154.79L102.918 155.701C103.833 156.115 104.753 156.515 105.677 156.902L106.063 155.979ZM100.632 153.524C99.7407 153.09 98.8537 152.643 97.9717 152.183L97.5089 153.069C98.3993 153.534 99.2947 153.985 100.195 154.423L100.632 153.524ZM95.3497 150.767C94.9159 150.524 94.4834 150.279 94.0523 150.03L93.5524 150.896C93.9876 151.147 94.4242 151.395 94.8621 151.64L95.3497 150.767ZM94.0523 150.03L93.8517 149.914L93.3518 150.78L93.5524 150.896L94.0523 150.03ZM93.4505 149.683L93.2499 149.567L92.7501 150.433L92.9507 150.549L93.4505 149.683Z" fill="#F88C28"/>
<path fill-rule="evenodd" clip-rule="evenodd" d="M143.722 98.7467C144.739 98.7456 145.756 98.7613 146.772 98.7937L146.804 97.7942C145.777 97.7614 144.749 97.7456 143.721 97.7467L143.722 98.7467ZM137.627 98.9537C138.641 98.8857 139.657 98.8345 140.673 98.8L140.639 97.8006C139.612 97.8355 138.585 97.8872 137.56 97.9559L137.627 98.9537ZM149.818 98.941C150.833 99.0068 151.846 99.0893 152.858 99.1885L152.956 98.1933C151.933 98.093 150.908 98.0096 149.883 97.9431L149.818 98.941ZM131.557 99.5612C132.566 99.4266 133.576 99.3087 134.587 99.2075L134.487 98.2124C133.465 98.3147 132.444 98.4339 131.425 98.57L131.557 99.5612ZM155.889 99.5361C156.896 99.6686 157.902 99.8177 158.906 99.9834L159.069 98.9968C158.054 98.8292 157.037 98.6785 156.019 98.5446L155.889 99.5361ZM125.542 100.567C126.539 100.366 127.539 100.182 128.541 100.014L128.376 99.0281C127.363 99.1974 126.353 99.3835 125.345 99.5864L125.542 100.567ZM161.906 100.53C162.903 100.729 163.896 100.944 164.887 101.175L165.115 100.202C164.113 99.9675 163.109 99.7501 162.102 99.5494L161.906 100.53ZM119.606 101.966C120.588 101.7 121.574 101.451 122.562 101.218L122.333 100.244C121.334 100.48 120.337 100.732 119.344 101.001L119.606 101.966ZM167.845 101.919C168.826 102.183 169.803 102.463 170.776 102.76L171.068 101.804C170.084 101.504 169.096 101.22 168.105 100.953L167.845 101.919ZM113.775 103.755C114.738 103.424 115.705 103.11 116.676 102.812L116.382 101.856C115.401 102.157 114.424 102.475 113.45 102.809L113.775 103.755ZM173.678 103.698C174.639 104.026 175.596 104.371 176.547 104.732L176.902 103.797C175.94 103.432 174.973 103.084 174.001 102.752L173.678 103.698ZM108.075 105.925C109.014 105.531 109.958 105.154 110.907 104.792L110.551 103.858C109.592 104.223 108.638 104.604 107.688 105.002L108.075 105.925ZM179.381 105.86C180.318 106.251 181.249 106.659 182.176 107.082L182.591 106.173C181.655 105.745 180.713 105.333 179.766 104.937L179.381 105.86ZM102.53 108.466C103.441 108.012 104.358 107.573 105.281 107.15L104.864 106.241C103.932 106.668 103.004 107.112 102.083 107.572L102.53 108.466ZM184.928 108.397C185.837 108.849 186.739 109.317 187.636 109.802L188.111 108.922C187.205 108.432 186.292 107.959 185.374 107.502L184.928 108.397ZM97.1664 111.368C98.046 110.854 98.932 110.356 99.8241 109.873L99.3483 108.993C98.4465 109.481 97.5509 109.985 96.6618 110.505L97.1664 111.368ZM190.294 111.295C191.17 111.807 192.039 112.334 192.901 112.876L193.434 112.03C192.562 111.481 191.683 110.949 190.798 110.432L190.294 111.295ZM93.2731 113.774C93.7001 113.496 94.1288 113.221 94.5592 112.95L94.0265 112.104C93.5915 112.377 93.1581 112.655 92.7266 112.937L93.2731 113.774ZM196.086 114.974C195.876 114.829 195.666 114.686 195.455 114.543L196.015 113.715C196.299 113.907 196.583 114.101 196.865 114.297L196.503 111.056C196.472 110.781 196.67 110.534 196.944 110.503C197.219 110.472 197.466 110.67 197.497 110.944L197.985 115.307C198.024 115.663 197.746 115.974 197.388 115.974L192.999 115.974C192.723 115.974 192.499 115.75 192.499 115.474C192.499 115.198 192.723 114.974 192.999 114.974L196.086 114.974Z" fill="#F88C28"/>
<path d="M103 107.5L103 63M109 11L103 11L103 37M103 37L109 37M103 37L103 63M103 63L109 63" stroke="#F88C28" stroke-linecap="square"/>
<path d="M121.681 16L122.815 13.613L119.231 5.92H120.372L123.354 12.507L126.392 5.92H127.491L122.801 16H121.681ZM128.463 16V8.44H134.476V16H133.447V9.427H129.492V16H128.463ZM138.604 16.21C138.035 16.21 137.556 16.1073 137.169 15.902C136.786 15.6967 136.499 15.4237 136.308 15.083C136.117 14.7423 136.021 14.3713 136.021 13.97C136.021 13.5593 136.103 13.2093 136.266 12.92C136.434 12.626 136.66 12.3857 136.945 12.199C137.234 12.0123 137.568 11.87 137.946 11.772C138.329 11.6787 138.751 11.597 139.213 11.527C139.68 11.4523 140.135 11.3893 140.578 11.338C141.026 11.282 141.418 11.2283 141.754 11.177L141.39 11.401C141.404 10.6543 141.259 10.1013 140.956 9.742C140.653 9.38267 140.125 9.203 139.374 9.203C138.856 9.203 138.417 9.31967 138.058 9.553C137.703 9.78633 137.454 10.155 137.309 10.659L136.308 10.365C136.481 9.68833 136.828 9.16333 137.351 8.79C137.874 8.41667 138.553 8.23 139.388 8.23C140.079 8.23 140.664 8.36067 141.145 8.622C141.63 8.87867 141.973 9.252 142.174 9.742C142.267 9.96133 142.328 10.2063 142.356 10.477C142.384 10.7477 142.398 11.023 142.398 11.303V16H141.481V14.103L141.747 14.215C141.49 14.8637 141.091 15.3583 140.55 15.699C140.009 16.0397 139.36 16.21 138.604 16.21ZM138.723 15.321C139.204 15.321 139.624 15.2347 139.983 15.062C140.342 14.8893 140.632 14.6537 140.851 14.355C141.07 14.0517 141.213 13.711 141.278 13.333C141.334 13.0903 141.364 12.8243 141.369 12.535C141.374 12.241 141.376 12.0217 141.376 11.877L141.768 12.08C141.418 12.1267 141.038 12.1733 140.627 12.22C140.221 12.2667 139.82 12.3203 139.423 12.381C139.031 12.4417 138.676 12.514 138.359 12.598C138.144 12.6587 137.937 12.745 137.736 12.857C137.535 12.9643 137.37 13.109 137.239 13.291C137.113 13.473 137.05 13.6993 137.05 13.97C137.05 14.1893 137.104 14.4017 137.211 14.607C137.323 14.8123 137.5 14.9827 137.743 15.118C137.99 15.2533 138.317 15.321 138.723 15.321ZM144.213 16L144.22 8.44H145.256V12.08L148.63 8.44H150.002L146.46 12.22L150.464 16H148.966L145.256 12.36V16H144.213ZM154.186 16.21C153.434 16.21 152.793 16.0397 152.261 15.699C151.729 15.3583 151.32 14.887 151.036 14.285C150.751 13.683 150.609 12.9923 150.609 12.213C150.609 11.4197 150.753 10.7243 151.043 10.127C151.332 9.52967 151.743 9.06533 152.275 8.734C152.811 8.398 153.448 8.23 154.186 8.23C154.942 8.23 155.586 8.40033 156.118 8.741C156.654 9.077 157.063 9.546 157.343 10.148C157.627 10.7453 157.77 11.4337 157.77 12.213C157.77 13.0063 157.627 13.704 157.343 14.306C157.058 14.9033 156.647 15.37 156.111 15.706C155.574 16.042 154.932 16.21 154.186 16.21ZM154.186 15.223C155.026 15.223 155.651 14.9453 156.062 14.39C156.472 13.83 156.678 13.1043 156.678 12.213C156.678 11.2983 156.47 10.5703 156.055 10.029C155.644 9.48767 155.021 9.217 154.186 9.217C153.621 9.217 153.154 9.34533 152.786 9.602C152.422 9.854 152.149 10.2063 151.967 10.659C151.789 11.107 151.701 11.625 151.701 12.213C151.701 13.123 151.911 13.8533 152.331 14.404C152.751 14.95 153.369 15.223 154.186 15.223ZM159.307 16V8.44H162.422C162.581 8.44 162.772 8.44933 162.996 8.468C163.225 8.48667 163.437 8.52167 163.633 8.573C164.058 8.685 164.398 8.91367 164.655 9.259C164.916 9.60433 165.047 10.0197 165.047 10.505C165.047 10.7757 165.005 11.0183 164.921 11.233C164.842 11.443 164.727 11.625 164.578 11.779C164.508 11.8583 164.431 11.9283 164.347 11.989C164.263 12.045 164.181 12.0917 164.102 12.129C164.251 12.157 164.412 12.2223 164.585 12.325C164.856 12.4837 165.061 12.6983 165.201 12.969C165.341 13.235 165.411 13.5593 165.411 13.942C165.411 14.46 165.287 14.8823 165.04 15.209C164.793 15.5357 164.461 15.7597 164.046 15.881C163.859 15.9323 163.656 15.965 163.437 15.979C163.222 15.993 163.019 16 162.828 16H159.307ZM160.343 15.125H162.779C162.877 15.125 163.001 15.118 163.15 15.104C163.299 15.0853 163.432 15.062 163.549 15.034C163.824 14.964 164.025 14.824 164.151 14.614C164.282 14.3993 164.347 14.166 164.347 13.914C164.347 13.5827 164.249 13.312 164.053 13.102C163.862 12.8873 163.605 12.7567 163.283 12.71C163.176 12.6867 163.064 12.6727 162.947 12.668C162.83 12.6633 162.725 12.661 162.632 12.661H160.343V15.125ZM160.343 11.779H162.457C162.578 11.779 162.714 11.772 162.863 11.758C163.017 11.7393 163.15 11.709 163.262 11.667C163.505 11.583 163.682 11.4383 163.794 11.233C163.911 11.0277 163.969 10.8037 163.969 10.561C163.969 10.295 163.906 10.0617 163.78 9.861C163.659 9.66033 163.474 9.52033 163.227 9.441C163.059 9.38033 162.877 9.34533 162.681 9.336C162.49 9.32667 162.368 9.322 162.317 9.322H160.343V11.779ZM166.799 16L166.806 8.44H167.842V12.08L171.216 8.44H172.588L169.046 12.22L173.05 16H171.552L167.842 12.36V16H166.799ZM175.914 16.21C175.345 16.21 174.867 16.1073 174.479 15.902C174.097 15.6967 173.81 15.4237 173.618 15.083C173.427 14.7423 173.331 14.3713 173.331 13.97C173.331 13.5593 173.413 13.2093 173.576 12.92C173.744 12.626 173.971 12.3857 174.255 12.199C174.545 12.0123 174.878 11.87 175.256 11.772C175.639 11.6787 176.061 11.597 176.523 11.527C176.99 11.4523 177.445 11.3893 177.888 11.338C178.336 11.282 178.728 11.2283 179.064 11.177L178.7 11.401C178.714 10.6543 178.57 10.1013 178.266 9.742C177.963 9.38267 177.436 9.203 176.684 9.203C176.166 9.203 175.728 9.31967 175.368 9.553C175.014 9.78633 174.764 10.155 174.619 10.659L173.618 10.365C173.791 9.68833 174.139 9.16333 174.661 8.79C175.184 8.41667 175.863 8.23 176.698 8.23C177.389 8.23 177.975 8.36067 178.455 8.622C178.941 8.87867 179.284 9.252 179.484 9.742C179.578 9.96133 179.638 10.2063 179.666 10.477C179.694 10.7477 179.708 11.023 179.708 11.303V16H178.791V14.103L179.057 14.215C178.801 14.8637 178.402 15.3583 177.86 15.699C177.319 16.0397 176.67 16.21 175.914 16.21ZM176.033 15.321C176.514 15.321 176.934 15.2347 177.293 15.062C177.653 14.8893 177.942 14.6537 178.161 14.355C178.381 14.0517 178.523 13.711 178.588 13.333C178.644 13.0903 178.675 12.8243 178.679 12.535C178.684 12.241 178.686 12.0217 178.686 11.877L179.078 12.08C178.728 12.1267 178.348 12.1733 177.937 12.22C177.531 12.2667 177.13 12.3203 176.733 12.381C176.341 12.4417 175.987 12.514 175.669 12.598C175.455 12.6587 175.247 12.745 175.046 12.857C174.846 12.9643 174.68 13.109 174.549 13.291C174.423 13.473 174.36 13.6993 174.36 13.97C174.36 14.1893 174.414 14.4017 174.521 14.607C174.633 14.8123 174.811 14.9827 175.053 15.118C175.301 15.2533 175.627 15.321 176.033 15.321ZM184.327 16V8.44H187.442C187.6 8.44 187.792 8.44933 188.016 8.468C188.244 8.48667 188.457 8.52167 188.653 8.573C189.077 8.685 189.418 8.91367 189.675 9.259C189.936 9.60433 190.067 10.0197 190.067 10.505C190.067 10.7757 190.025 11.0183 189.941 11.233C189.861 11.443 189.747 11.625 189.598 11.779C189.528 11.8583 189.451 11.9283 189.367 11.989C189.283 12.045 189.201 12.0917 189.122 12.129C189.271 12.157 189.432 12.2223 189.605 12.325C189.875 12.4837 190.081 12.6983 190.221 12.969C190.361 13.235 190.431 13.5593 190.431 13.942C190.431 14.46 190.307 14.8823 190.06 15.209C189.812 15.5357 189.481 15.7597 189.066 15.881C188.879 15.9323 188.676 15.965 188.457 15.979C188.242 15.993 188.039 16 187.848 16H184.327ZM185.363 15.125H187.799C187.897 15.125 188.02 15.118 188.17 15.104C188.319 15.0853 188.452 15.062 188.569 15.034C188.844 14.964 189.045 14.824 189.171 14.614C189.301 14.3993 189.367 14.166 189.367 13.914C189.367 13.5827 189.269 13.312 189.073 13.102C188.881 12.8873 188.625 12.7567 188.303 12.71C188.195 12.6867 188.083 12.6727 187.967 12.668C187.85 12.6633 187.745 12.661 187.652 12.661H185.363V15.125ZM185.363 11.779H187.477C187.598 11.779 187.733 11.772 187.883 11.758C188.037 11.7393 188.17 11.709 188.282 11.667C188.524 11.583 188.702 11.4383 188.814 11.233C188.93 11.0277 188.989 10.8037 188.989 10.561C188.989 10.295 188.926 10.0617 188.8 9.861C188.678 9.66033 188.494 9.52033 188.247 9.441C188.079 9.38033 187.897 9.34533 187.701 9.336C187.509 9.32667 187.388 9.322 187.337 9.322H185.363V11.779ZM194.768 16V5.92H195.797V16H194.768ZM197.896 16V5.92H201.788C201.886 5.92 201.996 5.92467 202.117 5.934C202.243 5.93867 202.369 5.95267 202.495 5.976C203.022 6.05533 203.468 6.23967 203.832 6.529C204.201 6.81367 204.478 7.173 204.665 7.607C204.856 8.041 204.952 8.52167 204.952 9.049C204.952 9.57167 204.856 10.05 204.665 10.484C204.474 10.918 204.194 11.2797 203.825 11.569C203.461 11.8537 203.018 12.0357 202.495 12.115C202.369 12.1337 202.243 12.1477 202.117 12.157C201.996 12.1663 201.886 12.171 201.788 12.171H198.925V16H197.896ZM198.925 11.191H201.76C201.844 11.191 201.942 11.1863 202.054 11.177C202.166 11.1677 202.276 11.1513 202.383 11.128C202.728 11.0533 203.011 10.911 203.23 10.701C203.454 10.491 203.62 10.2413 203.727 9.952C203.839 9.66267 203.895 9.36167 203.895 9.049C203.895 8.73633 203.839 8.43533 203.727 8.146C203.62 7.852 203.454 7.6 203.23 7.39C203.011 7.18 202.728 7.03767 202.383 6.963C202.276 6.93967 202.166 6.92567 202.054 6.921C201.942 6.91167 201.844 6.907 201.76 6.907H198.925V11.191ZM206.205 12.031V11.149H210.405V12.031H206.205ZM212.217 16V8.44H218.23V16H217.201V9.427H213.246V16H212.217ZM222.358 16.21C221.789 16.21 221.31 16.1073 220.923 15.902C220.54 15.6967 220.253 15.4237 220.062 15.083C219.871 14.7423 219.775 14.3713 219.775 13.97C219.775 13.5593 219.857 13.2093 220.02 12.92C220.188 12.626 220.414 12.3857 220.699 12.199C220.988 12.0123 221.322 11.87 221.7 11.772C222.083 11.6787 222.505 11.597 222.967 11.527C223.434 11.4523 223.889 11.3893 224.332 11.338C224.78 11.282 225.172 11.2283 225.508 11.177L225.144 11.401C225.158 10.6543 225.013 10.1013 224.71 9.742C224.407 9.38267 223.879 9.203 223.128 9.203C222.61 9.203 222.171 9.31967 221.812 9.553C221.457 9.78633 221.208 10.155 221.063 10.659L220.062 10.365C220.235 9.68833 220.582 9.16333 221.105 8.79C221.628 8.41667 222.307 8.23 223.142 8.23C223.833 8.23 224.418 8.36067 224.899 8.622C225.384 8.87867 225.727 9.252 225.928 9.742C226.021 9.96133 226.082 10.2063 226.11 10.477C226.138 10.7477 226.152 11.023 226.152 11.303V16H225.235V14.103L225.501 14.215C225.244 14.8637 224.845 15.3583 224.304 15.699C223.763 16.0397 223.114 16.21 222.358 16.21ZM222.477 15.321C222.958 15.321 223.378 15.2347 223.737 15.062C224.096 14.8893 224.386 14.6537 224.605 14.355C224.824 14.0517 224.967 13.711 225.032 13.333C225.088 13.0903 225.118 12.8243 225.123 12.535C225.128 12.241 225.13 12.0217 225.13 11.877L225.522 12.08C225.172 12.1267 224.792 12.1733 224.381 12.22C223.975 12.2667 223.574 12.3203 223.177 12.381C222.785 12.4417 222.43 12.514 222.113 12.598C221.898 12.6587 221.691 12.745 221.49 12.857C221.289 12.9643 221.124 13.109 220.993 13.291C220.867 13.473 220.804 13.6993 220.804 13.97C220.804 14.1893 220.858 14.4017 220.965 14.607C221.077 14.8123 221.254 14.9827 221.497 15.118C221.744 15.2533 222.071 15.321 222.477 15.321ZM227.967 16L227.974 8.44H229.01V12.08L232.384 8.44H233.756L230.214 12.22L234.218 16H232.72L229.01 12.36V16H227.967ZM237.845 16.21C237.108 16.21 236.468 16.0467 235.927 15.72C235.39 15.3933 234.973 14.9337 234.674 14.341C234.375 13.7483 234.226 13.053 234.226 12.255C234.226 11.429 234.373 10.715 234.667 10.113C234.961 9.511 235.374 9.04667 235.906 8.72C236.443 8.39333 237.075 8.23 237.803 8.23C238.55 8.23 239.187 8.40267 239.714 8.748C240.241 9.08867 240.64 9.57867 240.911 10.218C241.182 10.8573 241.305 11.6203 241.282 12.507H240.232V12.143C240.213 11.163 240.001 10.4233 239.595 9.924C239.194 9.42467 238.606 9.175 237.831 9.175C237.019 9.175 236.396 9.43867 235.962 9.966C235.533 10.4933 235.318 11.2447 235.318 12.22C235.318 13.172 235.533 13.9117 235.962 14.439C236.396 14.9617 237.01 15.223 237.803 15.223C238.344 15.223 238.816 15.0993 239.217 14.852C239.623 14.6 239.943 14.2383 240.176 13.767L241.135 14.138C240.836 14.796 240.395 15.307 239.812 15.671C239.233 16.0303 238.578 16.21 237.845 16.21ZM234.954 12.507V11.646H240.729V12.507H234.954ZM244.791 16V9.392H242.11V8.44H248.501V9.392H245.82V16H244.791ZM249.842 16L249.828 8.44H250.864V11.289H252.18C252.4 11.289 252.614 11.2937 252.824 11.303C253.034 11.3123 253.223 11.331 253.391 11.359C253.765 11.4337 254.096 11.5597 254.385 11.737C254.675 11.9143 254.903 12.1593 255.071 12.472C255.239 12.78 255.323 13.1697 255.323 13.641C255.323 14.2897 255.155 14.8007 254.819 15.174C254.483 15.5473 254.061 15.79 253.552 15.902C253.361 15.944 253.153 15.972 252.929 15.986C252.705 15.9953 252.486 16 252.271 16H249.842ZM250.864 15.118H252.229C252.383 15.118 252.558 15.1133 252.754 15.104C252.95 15.0947 253.123 15.069 253.272 15.027C253.524 14.957 253.751 14.817 253.951 14.607C254.157 14.3923 254.259 14.0703 254.259 13.641C254.259 13.2163 254.161 12.8967 253.965 12.682C253.769 12.4627 253.508 12.318 253.181 12.248C253.032 12.2153 252.873 12.1943 252.705 12.185C252.542 12.1757 252.383 12.171 252.229 12.171H250.864V15.118ZM256.226 16V8.44H257.255V16H256.226Z" fill="#5E6B77"/>
<path d="M124.061 42.21C123.058 42.21 122.211 41.9883 121.52 41.545C120.829 41.097 120.307 40.4787 119.952 39.69C119.597 38.9013 119.42 37.9913 119.42 36.96C119.42 35.9287 119.597 35.0187 119.952 34.23C120.307 33.4413 120.829 32.8253 121.52 32.382C122.211 31.934 123.058 31.71 124.061 31.71C125.069 31.71 125.916 31.934 126.602 32.382C127.293 32.8253 127.815 33.4413 128.17 34.23C128.529 35.0187 128.709 35.9287 128.709 36.96C128.709 37.9913 128.529 38.9013 128.17 39.69C127.815 40.4787 127.293 41.097 126.602 41.545C125.916 41.9883 125.069 42.21 124.061 42.21ZM124.061 41.223C124.85 41.223 125.508 41.0433 126.035 40.684C126.562 40.3247 126.957 39.8253 127.218 39.186C127.484 38.542 127.617 37.8 127.617 36.96C127.617 36.12 127.484 35.3803 127.218 34.741C126.957 34.1017 126.562 33.6023 126.035 33.243C125.508 32.8837 124.85 32.7017 124.061 32.697C123.272 32.697 122.617 32.8767 122.094 33.236C121.571 33.5953 121.177 34.097 120.911 34.741C120.65 35.3803 120.517 36.12 120.512 36.96C120.507 37.8 120.636 38.5397 120.897 39.179C121.163 39.8137 121.56 40.313 122.087 40.677C122.614 41.0363 123.272 41.2183 124.061 41.223ZM136.607 43.309V42H130.104V34.44H131.133V41.013H135.088V34.44H136.117V41.048H137.636V43.309H136.607ZM144.757 34.44V42H143.756V36.113L139.612 42H138.744V34.44H139.745V40.278L143.896 34.44H144.757ZM150.306 45.15V42.147C149.569 42.2637 148.897 42.1843 148.29 41.909C147.684 41.629 147.201 41.1763 146.841 40.551C146.482 39.9257 146.302 39.151 146.302 38.227C146.302 37.303 146.482 36.5283 146.841 35.903C147.201 35.273 147.684 34.818 148.29 34.538C148.897 34.258 149.569 34.1763 150.306 34.293V31.976H151.258V34.293C151.996 34.1763 152.668 34.258 153.274 34.538C153.881 34.818 154.364 35.273 154.723 35.903C155.083 36.5283 155.262 37.303 155.262 38.227C155.262 39.151 155.083 39.9257 154.723 40.551C154.364 41.1763 153.881 41.629 153.274 41.909C152.668 42.1843 151.996 42.2637 151.258 42.147V45.15H150.306ZM150.306 41.188V35.259C149.928 35.1937 149.564 35.2053 149.214 35.294C148.864 35.378 148.549 35.5437 148.269 35.791C147.989 36.0337 147.768 36.358 147.604 36.764C147.446 37.1653 147.366 37.653 147.366 38.227C147.366 38.801 147.448 39.291 147.611 39.697C147.775 40.0983 147.996 40.4203 148.276 40.663C148.556 40.9057 148.871 41.069 149.221 41.153C149.571 41.237 149.933 41.2487 150.306 41.188ZM151.258 41.188C151.632 41.2487 151.993 41.237 152.343 41.153C152.693 41.069 153.008 40.908 153.288 40.67C153.568 40.4273 153.79 40.1053 153.953 39.704C154.117 39.298 154.198 38.8057 154.198 38.227C154.198 37.6483 154.117 37.1583 153.953 36.757C153.795 36.351 153.575 36.0267 153.295 35.784C153.015 35.5413 152.7 35.378 152.35 35.294C152 35.2053 151.636 35.1937 151.258 35.259V41.188ZM160.193 42.21C159.498 42.21 158.91 42.035 158.429 41.685C157.949 41.3303 157.585 40.852 157.337 40.25C157.09 39.6433 156.966 38.9643 156.966 38.213C156.966 37.4477 157.09 36.7663 157.337 36.169C157.589 35.567 157.958 35.0933 158.443 34.748C158.929 34.4027 159.526 34.23 160.235 34.23C160.926 34.23 161.519 34.405 162.013 34.755C162.508 35.105 162.886 35.581 163.147 36.183C163.413 36.785 163.546 37.4617 163.546 38.213C163.546 38.969 163.413 39.648 163.147 40.25C162.881 40.852 162.499 41.3303 161.999 41.685C161.5 42.035 160.898 42.21 160.193 42.21ZM156.791 45.36V34.44H157.715V40.131H157.827V45.36H156.791ZM160.088 41.251C160.616 41.251 161.054 41.118 161.404 40.852C161.754 40.586 162.016 40.2243 162.188 39.767C162.366 39.305 162.454 38.787 162.454 38.213C162.454 37.6437 162.368 37.1303 162.195 36.673C162.023 36.2157 161.759 35.854 161.404 35.588C161.054 35.322 160.609 35.189 160.067 35.189C159.54 35.189 159.101 35.3173 158.751 35.574C158.406 35.8307 158.147 36.1877 157.974 36.645C157.802 37.0977 157.715 37.6203 157.715 38.213C157.715 38.7963 157.802 39.319 157.974 39.781C158.147 40.2383 158.408 40.5977 158.758 40.859C159.108 41.1203 159.552 41.251 160.088 41.251ZM168.241 42.21C167.489 42.21 166.848 42.0397 166.316 41.699C165.784 41.3583 165.375 40.887 165.091 40.285C164.806 39.683 164.664 38.9923 164.664 38.213C164.664 37.4197 164.808 36.7243 165.098 36.127C165.387 35.5297 165.798 35.0653 166.33 34.734C166.866 34.398 167.503 34.23 168.241 34.23C168.997 34.23 169.641 34.4003 170.173 34.741C170.709 35.077 171.118 35.546 171.398 36.148C171.682 36.7453 171.825 37.4337 171.825 38.213C171.825 39.0063 171.682 39.704 171.398 40.306C171.113 40.9033 170.702 41.37 170.166 41.706C169.629 42.042 168.987 42.21 168.241 42.21ZM168.241 41.223C169.081 41.223 169.706 40.9453 170.117 40.39C170.527 39.83 170.733 39.1043 170.733 38.213C170.733 37.2983 170.525 36.5703 170.11 36.029C169.699 35.4877 169.076 35.217 168.241 35.217C167.676 35.217 167.209 35.3453 166.841 35.602C166.477 35.854 166.204 36.2063 166.022 36.659C165.844 37.107 165.756 37.625 165.756 38.213C165.756 39.123 165.966 39.8533 166.386 40.404C166.806 40.95 167.424 41.223 168.241 41.223ZM173.362 42V34.44H176.477C176.635 34.44 176.827 34.4493 177.051 34.468C177.279 34.4867 177.492 34.5217 177.688 34.573C178.112 34.685 178.453 34.9137 178.71 35.259C178.971 35.6043 179.102 36.0197 179.102 36.505C179.102 36.7757 179.06 37.0183 178.976 37.233C178.896 37.443 178.782 37.625 178.633 37.779C178.563 37.8583 178.486 37.9283 178.402 37.989C178.318 38.045 178.236 38.0917 178.157 38.129C178.306 38.157 178.467 38.2223 178.64 38.325C178.91 38.4837 179.116 38.6983 179.256 38.969C179.396 39.235 179.466 39.5593 179.466 39.942C179.466 40.46 179.342 40.8823 179.095 41.209C178.847 41.5357 178.516 41.7597 178.101 41.881C177.914 41.9323 177.711 41.965 177.492 41.979C177.277 41.993 177.074 42 176.883 42H173.362ZM174.398 41.125H176.834C176.932 41.125 177.055 41.118 177.205 41.104C177.354 41.0853 177.487 41.062 177.604 41.034C177.879 40.964 178.08 40.824 178.206 40.614C178.336 40.3993 178.402 40.166 178.402 39.914C178.402 39.5827 178.304 39.312 178.108 39.102C177.916 38.8873 177.66 38.7567 177.338 38.71C177.23 38.6867 177.118 38.6727 177.002 38.668C176.885 38.6633 176.78 38.661 176.687 38.661H174.398V41.125ZM174.398 37.779H176.512C176.633 37.779 176.768 37.772 176.918 37.758C177.072 37.7393 177.205 37.709 177.317 37.667C177.559 37.583 177.737 37.4383 177.849 37.233C177.965 37.0277 178.024 36.8037 178.024 36.561C178.024 36.295 177.961 36.0617 177.835 35.861C177.713 35.6603 177.529 35.5203 177.282 35.441C177.114 35.3803 176.932 35.3453 176.736 35.336C176.544 35.3267 176.423 35.322 176.372 35.322H174.398V37.779ZM180.854 42L180.861 34.44H181.897V38.08L185.271 34.44H186.643L183.101 38.22L187.105 42H185.607L181.897 38.36V42H180.854ZM189.969 42.21C189.4 42.21 188.922 42.1073 188.534 41.902C188.152 41.6967 187.865 41.4237 187.673 41.083C187.482 40.7423 187.386 40.3713 187.386 39.97C187.386 39.5593 187.468 39.2093 187.631 38.92C187.799 38.626 188.026 38.3857 188.31 38.199C188.6 38.0123 188.933 37.87 189.311 37.772C189.694 37.6787 190.116 37.597 190.578 37.527C191.045 37.4523 191.5 37.3893 191.943 37.338C192.391 37.282 192.783 37.2283 193.119 37.177L192.755 37.401C192.769 36.6543 192.625 36.1013 192.321 35.742C192.018 35.3827 191.491 35.203 190.739 35.203C190.221 35.203 189.783 35.3197 189.423 35.553C189.069 35.7863 188.819 36.155 188.674 36.659L187.673 36.365C187.846 35.6883 188.194 35.1633 188.716 34.79C189.239 34.4167 189.918 34.23 190.753 34.23C191.444 34.23 192.03 34.3607 192.51 34.622C192.996 34.8787 193.339 35.252 193.539 35.742C193.633 35.9613 193.693 36.2063 193.721 36.477C193.749 36.7477 193.763 37.023 193.763 37.303V42H192.846V40.103L193.112 40.215C192.856 40.8637 192.457 41.3583 191.915 41.699C191.374 42.0397 190.725 42.21 189.969 42.21ZM190.088 41.321C190.569 41.321 190.989 41.2347 191.348 41.062C191.708 40.8893 191.997 40.6537 192.216 40.355C192.436 40.0517 192.578 39.711 192.643 39.333C192.699 39.0903 192.73 38.8243 192.734 38.535C192.739 38.241 192.741 38.0217 192.741 37.877L193.133 38.08C192.783 38.1267 192.403 38.1733 191.992 38.22C191.586 38.2667 191.185 38.3203 190.788 38.381C190.396 38.4417 190.042 38.514 189.724 38.598C189.51 38.6587 189.302 38.745 189.101 38.857C188.901 38.9643 188.735 39.109 188.604 39.291C188.478 39.473 188.415 39.6993 188.415 39.97C188.415 40.1893 188.469 40.4017 188.576 40.607C188.688 40.8123 188.866 40.9827 189.108 41.118C189.356 41.2533 189.682 41.321 190.088 41.321Z" fill="#5E6B77"/>
<path d="M124.061 68.21C123.058 68.21 122.211 67.9883 121.52 67.545C120.829 67.097 120.307 66.4787 119.952 65.69C119.597 64.9013 119.42 63.9913 119.42 62.96C119.42 61.9287 119.597 61.0187 119.952 60.23C120.307 59.4413 120.829 58.8253 121.52 58.382C122.211 57.934 123.058 57.71 124.061 57.71C125.232 57.71 126.189 58.011 126.931 58.613C127.673 59.2103 128.182 60.013 128.457 61.021L127.407 61.294C127.192 60.496 126.807 59.8637 126.252 59.397C125.697 58.9303 124.966 58.697 124.061 58.697C123.272 58.697 122.617 58.8767 122.094 59.236C121.571 59.5953 121.177 60.097 120.911 60.741C120.65 61.3803 120.514 62.12 120.505 62.96C120.5 63.8 120.629 64.5397 120.89 65.179C121.156 65.8183 121.553 66.32 122.08 66.684C122.612 67.0433 123.272 67.223 124.061 67.223C124.966 67.223 125.697 66.9897 126.252 66.523C126.807 66.0517 127.192 65.4193 127.407 64.626L128.457 64.899C128.182 65.907 127.673 66.712 126.931 67.314C126.189 67.9113 125.232 68.21 124.061 68.21ZM129.161 68L132.353 64.22L129.294 60.44H130.456L133.438 64.171V60.44H134.39V64.171L137.372 60.44H138.527L135.468 64.22L138.66 68H137.463L134.39 64.269V68H133.438V64.269L130.358 68H129.161ZM141.666 68.21C141.097 68.21 140.619 68.1073 140.231 67.902C139.849 67.6967 139.562 67.4237 139.37 67.083C139.179 66.7423 139.083 66.3713 139.083 65.97C139.083 65.5593 139.165 65.2093 139.328 64.92C139.496 64.626 139.723 64.3857 140.007 64.199C140.297 64.0123 140.63 63.87 141.008 63.772C141.391 63.6787 141.813 63.597 142.275 63.527C142.742 63.4523 143.197 63.3893 143.64 63.338C144.088 63.282 144.48 63.2283 144.816 63.177L144.452 63.401C144.466 62.6543 144.322 62.1013 144.018 61.742C143.715 61.3827 143.188 61.203 142.436 61.203C141.918 61.203 141.48 61.3197 141.12 61.553C140.766 61.7863 140.516 62.155 140.371 62.659L139.37 62.365C139.543 61.6883 139.891 61.1633 140.413 60.79C140.936 60.4167 141.615 60.23 142.45 60.23C143.141 60.23 143.727 60.3607 144.207 60.622C144.693 60.8787 145.036 61.252 145.236 61.742C145.33 61.9613 145.39 62.2063 145.418 62.477C145.446 62.7477 145.46 63.023 145.46 63.303V68H144.543V66.103L144.809 66.215C144.553 66.8637 144.154 67.3583 143.612 67.699C143.071 68.0397 142.422 68.21 141.666 68.21ZM141.785 67.321C142.266 67.321 142.686 67.2347 143.045 67.062C143.405 66.8893 143.694 66.6537 143.913 66.355C144.133 66.0517 144.275 65.711 144.34 65.333C144.396 65.0903 144.427 64.8243 144.431 64.535C144.436 64.241 144.438 64.0217 144.438 63.877L144.83 64.08C144.48 64.1267 144.1 64.1733 143.689 64.22C143.283 64.2667 142.882 64.3203 142.485 64.381C142.093 64.4417 141.739 64.514 141.421 64.598C141.207 64.6587 140.999 64.745 140.798 64.857C140.598 64.9643 140.432 65.109 140.301 65.291C140.175 65.473 140.112 65.6993 140.112 65.97C140.112 66.1893 140.166 66.4017 140.273 66.607C140.385 66.8123 140.563 66.9827 140.805 67.118C141.053 67.2533 141.379 67.321 141.785 67.321ZM149.334 68V61.392H146.653V60.44H153.044V61.392H150.363V68H149.334ZM160.384 60.44V68H159.383V62.113L155.239 68H154.371V60.44H155.372V66.278L159.523 60.44H160.384ZM165.548 68.21C164.811 68.21 164.171 68.0467 163.63 67.72C163.093 67.3933 162.676 66.9337 162.377 66.341C162.078 65.7483 161.929 65.053 161.929 64.255C161.929 63.429 162.076 62.715 162.37 62.113C162.664 61.511 163.077 61.0467 163.609 60.72C164.146 60.3933 164.778 60.23 165.506 60.23C166.253 60.23 166.89 60.4027 167.417 60.748C167.944 61.0887 168.343 61.5787 168.614 62.218C168.885 62.8573 169.008 63.6203 168.985 64.507H167.935V64.143C167.916 63.163 167.704 62.4233 167.298 61.924C166.897 61.4247 166.309 61.175 165.534 61.175C164.722 61.175 164.099 61.4387 163.665 61.966C163.236 62.4933 163.021 63.2447 163.021 64.22C163.021 65.172 163.236 65.9117 163.665 66.439C164.099 66.9617 164.713 67.223 165.506 67.223C166.047 67.223 166.519 67.0993 166.92 66.852C167.326 66.6 167.646 66.2383 167.879 65.767L168.838 66.138C168.539 66.796 168.098 67.307 167.515 67.671C166.936 68.0303 166.281 68.21 165.548 68.21ZM162.657 64.507V63.646H168.432V64.507H162.657Z" fill="#5E6B77"/>
</svg>
