<svg width="447" height="191" viewBox="0 0 447 191" fill="none" xmlns="http://www.w3.org/2000/svg">
<path d="M162 107.5L162 63M168 11L162 11L162 37M162 37L168 37M162 37L162 63M162 63L168 63" stroke="#F88C28" stroke-linecap="square"/>
<path d="M180.681 16L181.815 13.613L178.231 5.92H179.372L182.354 12.507L185.392 5.92H186.491L181.801 16H180.681ZM187.463 16V8.44H193.476V16H192.447V9.427H188.492V16H187.463ZM197.604 16.21C197.035 16.21 196.556 16.1073 196.169 15.902C195.786 15.6967 195.499 15.4237 195.308 15.083C195.117 14.7423 195.021 14.3713 195.021 13.97C195.021 13.5593 195.103 13.2093 195.266 12.92C195.434 12.626 195.66 12.3857 195.945 12.199C196.234 12.0123 196.568 11.87 196.946 11.772C197.329 11.6787 197.751 11.597 198.213 11.527C198.68 11.4523 199.135 11.3893 199.578 11.338C200.026 11.282 200.418 11.2283 200.754 11.177L200.39 11.401C200.404 10.6543 200.259 10.1013 199.956 9.742C199.653 9.38267 199.125 9.203 198.374 9.203C197.856 9.203 197.417 9.31967 197.058 9.553C196.703 9.78633 196.454 10.155 196.309 10.659L195.308 10.365C195.481 9.68833 195.828 9.16333 196.351 8.79C196.874 8.41667 197.553 8.23 198.388 8.23C199.079 8.23 199.664 8.36067 200.145 8.622C200.63 8.87867 200.973 9.252 201.174 9.742C201.267 9.96133 201.328 10.2063 201.356 10.477C201.384 10.7477 201.398 11.023 201.398 11.303V16H200.481V14.103L200.747 14.215C200.49 14.8637 200.091 15.3583 199.55 15.699C199.009 16.0397 198.36 16.21 197.604 16.21ZM197.723 15.321C198.204 15.321 198.624 15.2347 198.983 15.062C199.342 14.8893 199.632 14.6537 199.851 14.355C200.07 14.0517 200.213 13.711 200.278 13.333C200.334 13.0903 200.364 12.8243 200.369 12.535C200.374 12.241 200.376 12.0217 200.376 11.877L200.768 12.08C200.418 12.1267 200.038 12.1733 199.627 12.22C199.221 12.2667 198.82 12.3203 198.423 12.381C198.031 12.4417 197.676 12.514 197.359 12.598C197.144 12.6587 196.937 12.745 196.736 12.857C196.535 12.9643 196.37 13.109 196.239 13.291C196.113 13.473 196.05 13.6993 196.05 13.97C196.05 14.1893 196.104 14.4017 196.211 14.607C196.323 14.8123 196.5 14.9827 196.743 15.118C196.99 15.2533 197.317 15.321 197.723 15.321ZM203.213 16L203.22 8.44H204.256V12.08L207.63 8.44H209.002L205.46 12.22L209.464 16H207.966L204.256 12.36V16H203.213ZM213.186 16.21C212.434 16.21 211.793 16.0397 211.261 15.699C210.729 15.3583 210.32 14.887 210.036 14.285C209.751 13.683 209.609 12.9923 209.609 12.213C209.609 11.4197 209.753 10.7243 210.043 10.127C210.332 9.52967 210.743 9.06533 211.275 8.734C211.811 8.398 212.448 8.23 213.186 8.23C213.942 8.23 214.586 8.40033 215.118 8.741C215.654 9.077 216.063 9.546 216.343 10.148C216.627 10.7453 216.77 11.4337 216.77 12.213C216.77 13.0063 216.627 13.704 216.343 14.306C216.058 14.9033 215.647 15.37 215.111 15.706C214.574 16.042 213.932 16.21 213.186 16.21ZM213.186 15.223C214.026 15.223 214.651 14.9453 215.062 14.39C215.472 13.83 215.678 13.1043 215.678 12.213C215.678 11.2983 215.47 10.5703 215.055 10.029C214.644 9.48767 214.021 9.217 213.186 9.217C212.621 9.217 212.154 9.34533 211.786 9.602C211.422 9.854 211.149 10.2063 210.967 10.659C210.789 11.107 210.701 11.625 210.701 12.213C210.701 13.123 210.911 13.8533 211.331 14.404C211.751 14.95 212.369 15.223 213.186 15.223ZM218.307 16V8.44H221.422C221.581 8.44 221.772 8.44933 221.996 8.468C222.225 8.48667 222.437 8.52167 222.633 8.573C223.058 8.685 223.398 8.91367 223.655 9.259C223.916 9.60433 224.047 10.0197 224.047 10.505C224.047 10.7757 224.005 11.0183 223.921 11.233C223.842 11.443 223.727 11.625 223.578 11.779C223.508 11.8583 223.431 11.9283 223.347 11.989C223.263 12.045 223.181 12.0917 223.102 12.129C223.251 12.157 223.412 12.2223 223.585 12.325C223.856 12.4837 224.061 12.6983 224.201 12.969C224.341 13.235 224.411 13.5593 224.411 13.942C224.411 14.46 224.287 14.8823 224.04 15.209C223.793 15.5357 223.461 15.7597 223.046 15.881C222.859 15.9323 222.656 15.965 222.437 15.979C222.222 15.993 222.019 16 221.828 16H218.307ZM219.343 15.125H221.779C221.877 15.125 222.001 15.118 222.15 15.104C222.299 15.0853 222.432 15.062 222.549 15.034C222.824 14.964 223.025 14.824 223.151 14.614C223.282 14.3993 223.347 14.166 223.347 13.914C223.347 13.5827 223.249 13.312 223.053 13.102C222.862 12.8873 222.605 12.7567 222.283 12.71C222.176 12.6867 222.064 12.6727 221.947 12.668C221.83 12.6633 221.725 12.661 221.632 12.661H219.343V15.125ZM219.343 11.779H221.457C221.578 11.779 221.714 11.772 221.863 11.758C222.017 11.7393 222.15 11.709 222.262 11.667C222.505 11.583 222.682 11.4383 222.794 11.233C222.911 11.0277 222.969 10.8037 222.969 10.561C222.969 10.295 222.906 10.0617 222.78 9.861C222.659 9.66033 222.474 9.52033 222.227 9.441C222.059 9.38033 221.877 9.34533 221.681 9.336C221.49 9.32667 221.368 9.322 221.317 9.322H219.343V11.779ZM225.799 16L225.806 8.44H226.842V12.08L230.216 8.44H231.588L228.046 12.22L232.05 16H230.552L226.842 12.36V16H225.799ZM234.914 16.21C234.345 16.21 233.867 16.1073 233.479 15.902C233.097 15.6967 232.81 15.4237 232.618 15.083C232.427 14.7423 232.331 14.3713 232.331 13.97C232.331 13.5593 232.413 13.2093 232.576 12.92C232.744 12.626 232.971 12.3857 233.255 12.199C233.545 12.0123 233.878 11.87 234.256 11.772C234.639 11.6787 235.061 11.597 235.523 11.527C235.99 11.4523 236.445 11.3893 236.888 11.338C237.336 11.282 237.728 11.2283 238.064 11.177L237.7 11.401C237.714 10.6543 237.57 10.1013 237.266 9.742C236.963 9.38267 236.436 9.203 235.684 9.203C235.166 9.203 234.728 9.31967 234.368 9.553C234.014 9.78633 233.764 10.155 233.619 10.659L232.618 10.365C232.791 9.68833 233.139 9.16333 233.661 8.79C234.184 8.41667 234.863 8.23 235.698 8.23C236.389 8.23 236.975 8.36067 237.455 8.622C237.941 8.87867 238.284 9.252 238.484 9.742C238.578 9.96133 238.638 10.2063 238.666 10.477C238.694 10.7477 238.708 11.023 238.708 11.303V16H237.791V14.103L238.057 14.215C237.801 14.8637 237.402 15.3583 236.86 15.699C236.319 16.0397 235.67 16.21 234.914 16.21ZM235.033 15.321C235.514 15.321 235.934 15.2347 236.293 15.062C236.653 14.8893 236.942 14.6537 237.161 14.355C237.381 14.0517 237.523 13.711 237.588 13.333C237.644 13.0903 237.675 12.8243 237.679 12.535C237.684 12.241 237.686 12.0217 237.686 11.877L238.078 12.08C237.728 12.1267 237.348 12.1733 236.937 12.22C236.531 12.2667 236.13 12.3203 235.733 12.381C235.341 12.4417 234.987 12.514 234.669 12.598C234.455 12.6587 234.247 12.745 234.046 12.857C233.846 12.9643 233.68 13.109 233.549 13.291C233.423 13.473 233.36 13.6993 233.36 13.97C233.36 14.1893 233.414 14.4017 233.521 14.607C233.633 14.8123 233.811 14.9827 234.053 15.118C234.301 15.2533 234.627 15.321 235.033 15.321ZM243.327 16V8.44H246.442C246.6 8.44 246.792 8.44933 247.016 8.468C247.244 8.48667 247.457 8.52167 247.653 8.573C248.077 8.685 248.418 8.91367 248.675 9.259C248.936 9.60433 249.067 10.0197 249.067 10.505C249.067 10.7757 249.025 11.0183 248.941 11.233C248.861 11.443 248.747 11.625 248.598 11.779C248.528 11.8583 248.451 11.9283 248.367 11.989C248.283 12.045 248.201 12.0917 248.122 12.129C248.271 12.157 248.432 12.2223 248.605 12.325C248.875 12.4837 249.081 12.6983 249.221 12.969C249.361 13.235 249.431 13.5593 249.431 13.942C249.431 14.46 249.307 14.8823 249.06 15.209C248.812 15.5357 248.481 15.7597 248.066 15.881C247.879 15.9323 247.676 15.965 247.457 15.979C247.242 15.993 247.039 16 246.848 16H243.327ZM244.363 15.125H246.799C246.897 15.125 247.02 15.118 247.17 15.104C247.319 15.0853 247.452 15.062 247.569 15.034C247.844 14.964 248.045 14.824 248.171 14.614C248.301 14.3993 248.367 14.166 248.367 13.914C248.367 13.5827 248.269 13.312 248.073 13.102C247.881 12.8873 247.625 12.7567 247.303 12.71C247.195 12.6867 247.083 12.6727 246.967 12.668C246.85 12.6633 246.745 12.661 246.652 12.661H244.363V15.125ZM244.363 11.779H246.477C246.598 11.779 246.733 11.772 246.883 11.758C247.037 11.7393 247.17 11.709 247.282 11.667C247.524 11.583 247.702 11.4383 247.814 11.233C247.93 11.0277 247.989 10.8037 247.989 10.561C247.989 10.295 247.926 10.0617 247.8 9.861C247.678 9.66033 247.494 9.52033 247.247 9.441C247.079 9.38033 246.897 9.34533 246.701 9.336C246.509 9.32667 246.388 9.322 246.337 9.322H244.363V11.779ZM253.768 16V5.92H254.797V16H253.768ZM256.896 16V5.92H260.788C260.886 5.92 260.996 5.92467 261.117 5.934C261.243 5.93867 261.369 5.95267 261.495 5.976C262.022 6.05533 262.468 6.23967 262.832 6.529C263.201 6.81367 263.478 7.173 263.665 7.607C263.856 8.041 263.952 8.52167 263.952 9.049C263.952 9.57167 263.856 10.05 263.665 10.484C263.474 10.918 263.194 11.2797 262.825 11.569C262.461 11.8537 262.018 12.0357 261.495 12.115C261.369 12.1337 261.243 12.1477 261.117 12.157C260.996 12.1663 260.886 12.171 260.788 12.171H257.925V16H256.896ZM257.925 11.191H260.76C260.844 11.191 260.942 11.1863 261.054 11.177C261.166 11.1677 261.276 11.1513 261.383 11.128C261.728 11.0533 262.011 10.911 262.23 10.701C262.454 10.491 262.62 10.2413 262.727 9.952C262.839 9.66267 262.895 9.36167 262.895 9.049C262.895 8.73633 262.839 8.43533 262.727 8.146C262.62 7.852 262.454 7.6 262.23 7.39C262.011 7.18 261.728 7.03767 261.383 6.963C261.276 6.93967 261.166 6.92567 261.054 6.921C260.942 6.91167 260.844 6.907 260.76 6.907H257.925V11.191ZM265.205 12.031V11.149H269.405V12.031H265.205ZM271.217 16V8.44H277.23V16H276.201V9.427H272.246V16H271.217ZM281.358 16.21C280.789 16.21 280.31 16.1073 279.923 15.902C279.54 15.6967 279.253 15.4237 279.062 15.083C278.871 14.7423 278.775 14.3713 278.775 13.97C278.775 13.5593 278.857 13.2093 279.02 12.92C279.188 12.626 279.414 12.3857 279.699 12.199C279.988 12.0123 280.322 11.87 280.7 11.772C281.083 11.6787 281.505 11.597 281.967 11.527C282.434 11.4523 282.889 11.3893 283.332 11.338C283.78 11.282 284.172 11.2283 284.508 11.177L284.144 11.401C284.158 10.6543 284.013 10.1013 283.71 9.742C283.407 9.38267 282.879 9.203 282.128 9.203C281.61 9.203 281.171 9.31967 280.812 9.553C280.457 9.78633 280.208 10.155 280.063 10.659L279.062 10.365C279.235 9.68833 279.582 9.16333 280.105 8.79C280.628 8.41667 281.307 8.23 282.142 8.23C282.833 8.23 283.418 8.36067 283.899 8.622C284.384 8.87867 284.727 9.252 284.928 9.742C285.021 9.96133 285.082 10.2063 285.11 10.477C285.138 10.7477 285.152 11.023 285.152 11.303V16H284.235V14.103L284.501 14.215C284.244 14.8637 283.845 15.3583 283.304 15.699C282.763 16.0397 282.114 16.21 281.358 16.21ZM281.477 15.321C281.958 15.321 282.378 15.2347 282.737 15.062C283.096 14.8893 283.386 14.6537 283.605 14.355C283.824 14.0517 283.967 13.711 284.032 13.333C284.088 13.0903 284.118 12.8243 284.123 12.535C284.128 12.241 284.13 12.0217 284.13 11.877L284.522 12.08C284.172 12.1267 283.792 12.1733 283.381 12.22C282.975 12.2667 282.574 12.3203 282.177 12.381C281.785 12.4417 281.43 12.514 281.113 12.598C280.898 12.6587 280.691 12.745 280.49 12.857C280.289 12.9643 280.124 13.109 279.993 13.291C279.867 13.473 279.804 13.6993 279.804 13.97C279.804 14.1893 279.858 14.4017 279.965 14.607C280.077 14.8123 280.254 14.9827 280.497 15.118C280.744 15.2533 281.071 15.321 281.477 15.321ZM286.967 16L286.974 8.44H288.01V12.08L291.384 8.44H292.756L289.214 12.22L293.218 16H291.72L288.01 12.36V16H286.967ZM296.845 16.21C296.108 16.21 295.468 16.0467 294.927 15.72C294.39 15.3933 293.973 14.9337 293.674 14.341C293.375 13.7483 293.226 13.053 293.226 12.255C293.226 11.429 293.373 10.715 293.667 10.113C293.961 9.511 294.374 9.04667 294.906 8.72C295.443 8.39333 296.075 8.23 296.803 8.23C297.55 8.23 298.187 8.40267 298.714 8.748C299.241 9.08867 299.64 9.57867 299.911 10.218C300.182 10.8573 300.305 11.6203 300.282 12.507H299.232V12.143C299.213 11.163 299.001 10.4233 298.595 9.924C298.194 9.42467 297.606 9.175 296.831 9.175C296.019 9.175 295.396 9.43867 294.962 9.966C294.533 10.4933 294.318 11.2447 294.318 12.22C294.318 13.172 294.533 13.9117 294.962 14.439C295.396 14.9617 296.01 15.223 296.803 15.223C297.344 15.223 297.816 15.0993 298.217 14.852C298.623 14.6 298.943 14.2383 299.176 13.767L300.135 14.138C299.836 14.796 299.395 15.307 298.812 15.671C298.233 16.0303 297.578 16.21 296.845 16.21ZM293.954 12.507V11.646H299.729V12.507H293.954ZM303.791 16V9.392H301.11V8.44H307.501V9.392H304.82V16H303.791ZM308.842 16L308.828 8.44H309.864V11.289H311.18C311.4 11.289 311.614 11.2937 311.824 11.303C312.034 11.3123 312.223 11.331 312.391 11.359C312.765 11.4337 313.096 11.5597 313.385 11.737C313.675 11.9143 313.903 12.1593 314.071 12.472C314.239 12.78 314.323 13.1697 314.323 13.641C314.323 14.2897 314.155 14.8007 313.819 15.174C313.483 15.5473 313.061 15.79 312.552 15.902C312.361 15.944 312.153 15.972 311.929 15.986C311.705 15.9953 311.486 16 311.271 16H308.842ZM309.864 15.118H311.229C311.383 15.118 311.558 15.1133 311.754 15.104C311.95 15.0947 312.123 15.069 312.272 15.027C312.524 14.957 312.751 14.817 312.951 14.607C313.157 14.3923 313.259 14.0703 313.259 13.641C313.259 13.2163 313.161 12.8967 312.965 12.682C312.769 12.4627 312.508 12.318 312.181 12.248C312.032 12.2153 311.873 12.1943 311.705 12.185C311.542 12.1757 311.383 12.171 311.229 12.171H309.864V15.118ZM315.226 16V8.44H316.255V16H315.226Z" fill="#5E6B77"/>
<path d="M183.061 42.21C182.058 42.21 181.211 41.9883 180.52 41.545C179.829 41.097 179.307 40.4787 178.952 39.69C178.597 38.9013 178.42 37.9913 178.42 36.96C178.42 35.9287 178.597 35.0187 178.952 34.23C179.307 33.4413 179.829 32.8253 180.52 32.382C181.211 31.934 182.058 31.71 183.061 31.71C184.069 31.71 184.916 31.934 185.602 32.382C186.293 32.8253 186.815 33.4413 187.17 34.23C187.529 35.0187 187.709 35.9287 187.709 36.96C187.709 37.9913 187.529 38.9013 187.17 39.69C186.815 40.4787 186.293 41.097 185.602 41.545C184.916 41.9883 184.069 42.21 183.061 42.21ZM183.061 41.223C183.85 41.223 184.508 41.0433 185.035 40.684C185.562 40.3247 185.957 39.8253 186.218 39.186C186.484 38.542 186.617 37.8 186.617 36.96C186.617 36.12 186.484 35.3803 186.218 34.741C185.957 34.1017 185.562 33.6023 185.035 33.243C184.508 32.8837 183.85 32.7017 183.061 32.697C182.272 32.697 181.617 32.8767 181.094 33.236C180.571 33.5953 180.177 34.097 179.911 34.741C179.65 35.3803 179.517 36.12 179.512 36.96C179.507 37.8 179.636 38.5397 179.897 39.179C180.163 39.8137 180.56 40.313 181.087 40.677C181.614 41.0363 182.272 41.2183 183.061 41.223ZM195.607 43.309V42H189.104V34.44H190.133V41.013H194.088V34.44H195.117V41.048H196.636V43.309H195.607ZM203.757 34.44V42H202.756V36.113L198.612 42H197.744V34.44H198.745V40.278L202.896 34.44H203.757ZM209.306 45.15V42.147C208.569 42.2637 207.897 42.1843 207.29 41.909C206.684 41.629 206.201 41.1763 205.841 40.551C205.482 39.9257 205.302 39.151 205.302 38.227C205.302 37.303 205.482 36.5283 205.841 35.903C206.201 35.273 206.684 34.818 207.29 34.538C207.897 34.258 208.569 34.1763 209.306 34.293V31.976H210.258V34.293C210.996 34.1763 211.668 34.258 212.274 34.538C212.881 34.818 213.364 35.273 213.723 35.903C214.083 36.5283 214.262 37.303 214.262 38.227C214.262 39.151 214.083 39.9257 213.723 40.551C213.364 41.1763 212.881 41.629 212.274 41.909C211.668 42.1843 210.996 42.2637 210.258 42.147V45.15H209.306ZM209.306 41.188V35.259C208.928 35.1937 208.564 35.2053 208.214 35.294C207.864 35.378 207.549 35.5437 207.269 35.791C206.989 36.0337 206.768 36.358 206.604 36.764C206.446 37.1653 206.366 37.653 206.366 38.227C206.366 38.801 206.448 39.291 206.611 39.697C206.775 40.0983 206.996 40.4203 207.276 40.663C207.556 40.9057 207.871 41.069 208.221 41.153C208.571 41.237 208.933 41.2487 209.306 41.188ZM210.258 41.188C210.632 41.2487 210.993 41.237 211.343 41.153C211.693 41.069 212.008 40.908 212.288 40.67C212.568 40.4273 212.79 40.1053 212.953 39.704C213.117 39.298 213.198 38.8057 213.198 38.227C213.198 37.6483 213.117 37.1583 212.953 36.757C212.795 36.351 212.575 36.0267 212.295 35.784C212.015 35.5413 211.7 35.378 211.35 35.294C211 35.2053 210.636 35.1937 210.258 35.259V41.188ZM219.193 42.21C218.498 42.21 217.91 42.035 217.429 41.685C216.949 41.3303 216.585 40.852 216.337 40.25C216.09 39.6433 215.966 38.9643 215.966 38.213C215.966 37.4477 216.09 36.7663 216.337 36.169C216.589 35.567 216.958 35.0933 217.443 34.748C217.929 34.4027 218.526 34.23 219.235 34.23C219.926 34.23 220.519 34.405 221.013 34.755C221.508 35.105 221.886 35.581 222.147 36.183C222.413 36.785 222.546 37.4617 222.546 38.213C222.546 38.969 222.413 39.648 222.147 40.25C221.881 40.852 221.499 41.3303 220.999 41.685C220.5 42.035 219.898 42.21 219.193 42.21ZM215.791 45.36V34.44H216.715V40.131H216.827V45.36H215.791ZM219.088 41.251C219.616 41.251 220.054 41.118 220.404 40.852C220.754 40.586 221.016 40.2243 221.188 39.767C221.366 39.305 221.454 38.787 221.454 38.213C221.454 37.6437 221.368 37.1303 221.195 36.673C221.023 36.2157 220.759 35.854 220.404 35.588C220.054 35.322 219.609 35.189 219.067 35.189C218.54 35.189 218.101 35.3173 217.751 35.574C217.406 35.8307 217.147 36.1877 216.974 36.645C216.802 37.0977 216.715 37.6203 216.715 38.213C216.715 38.7963 216.802 39.319 216.974 39.781C217.147 40.2383 217.408 40.5977 217.758 40.859C218.108 41.1203 218.552 41.251 219.088 41.251ZM227.241 42.21C226.489 42.21 225.848 42.0397 225.316 41.699C224.784 41.3583 224.375 40.887 224.091 40.285C223.806 39.683 223.664 38.9923 223.664 38.213C223.664 37.4197 223.808 36.7243 224.098 36.127C224.387 35.5297 224.798 35.0653 225.33 34.734C225.866 34.398 226.503 34.23 227.241 34.23C227.997 34.23 228.641 34.4003 229.173 34.741C229.709 35.077 230.118 35.546 230.398 36.148C230.682 36.7453 230.825 37.4337 230.825 38.213C230.825 39.0063 230.682 39.704 230.398 40.306C230.113 40.9033 229.702 41.37 229.166 41.706C228.629 42.042 227.987 42.21 227.241 42.21ZM227.241 41.223C228.081 41.223 228.706 40.9453 229.117 40.39C229.527 39.83 229.733 39.1043 229.733 38.213C229.733 37.2983 229.525 36.5703 229.11 36.029C228.699 35.4877 228.076 35.217 227.241 35.217C226.676 35.217 226.209 35.3453 225.841 35.602C225.477 35.854 225.204 36.2063 225.022 36.659C224.844 37.107 224.756 37.625 224.756 38.213C224.756 39.123 224.966 39.8533 225.386 40.404C225.806 40.95 226.424 41.223 227.241 41.223ZM232.362 42V34.44H235.477C235.635 34.44 235.827 34.4493 236.051 34.468C236.279 34.4867 236.492 34.5217 236.688 34.573C237.112 34.685 237.453 34.9137 237.71 35.259C237.971 35.6043 238.102 36.0197 238.102 36.505C238.102 36.7757 238.06 37.0183 237.976 37.233C237.896 37.443 237.782 37.625 237.633 37.779C237.563 37.8583 237.486 37.9283 237.402 37.989C237.318 38.045 237.236 38.0917 237.157 38.129C237.306 38.157 237.467 38.2223 237.64 38.325C237.91 38.4837 238.116 38.6983 238.256 38.969C238.396 39.235 238.466 39.5593 238.466 39.942C238.466 40.46 238.342 40.8823 238.095 41.209C237.847 41.5357 237.516 41.7597 237.101 41.881C236.914 41.9323 236.711 41.965 236.492 41.979C236.277 41.993 236.074 42 235.883 42H232.362ZM233.398 41.125H235.834C235.932 41.125 236.055 41.118 236.205 41.104C236.354 41.0853 236.487 41.062 236.604 41.034C236.879 40.964 237.08 40.824 237.206 40.614C237.336 40.3993 237.402 40.166 237.402 39.914C237.402 39.5827 237.304 39.312 237.108 39.102C236.916 38.8873 236.66 38.7567 236.338 38.71C236.23 38.6867 236.118 38.6727 236.002 38.668C235.885 38.6633 235.78 38.661 235.687 38.661H233.398V41.125ZM233.398 37.779H235.512C235.633 37.779 235.768 37.772 235.918 37.758C236.072 37.7393 236.205 37.709 236.317 37.667C236.559 37.583 236.737 37.4383 236.849 37.233C236.965 37.0277 237.024 36.8037 237.024 36.561C237.024 36.295 236.961 36.0617 236.835 35.861C236.713 35.6603 236.529 35.5203 236.282 35.441C236.114 35.3803 235.932 35.3453 235.736 35.336C235.544 35.3267 235.423 35.322 235.372 35.322H233.398V37.779ZM239.854 42L239.861 34.44H240.897V38.08L244.271 34.44H245.643L242.101 38.22L246.105 42H244.607L240.897 38.36V42H239.854ZM248.969 42.21C248.4 42.21 247.922 42.1073 247.534 41.902C247.152 41.6967 246.865 41.4237 246.673 41.083C246.482 40.7423 246.386 40.3713 246.386 39.97C246.386 39.5593 246.468 39.2093 246.631 38.92C246.799 38.626 247.026 38.3857 247.31 38.199C247.6 38.0123 247.933 37.87 248.311 37.772C248.694 37.6787 249.116 37.597 249.578 37.527C250.045 37.4523 250.5 37.3893 250.943 37.338C251.391 37.282 251.783 37.2283 252.119 37.177L251.755 37.401C251.769 36.6543 251.625 36.1013 251.321 35.742C251.018 35.3827 250.491 35.203 249.739 35.203C249.221 35.203 248.783 35.3197 248.423 35.553C248.069 35.7863 247.819 36.155 247.674 36.659L246.673 36.365C246.846 35.6883 247.194 35.1633 247.716 34.79C248.239 34.4167 248.918 34.23 249.753 34.23C250.444 34.23 251.03 34.3607 251.51 34.622C251.996 34.8787 252.339 35.252 252.539 35.742C252.633 35.9613 252.693 36.2063 252.721 36.477C252.749 36.7477 252.763 37.023 252.763 37.303V42H251.846V40.103L252.112 40.215C251.856 40.8637 251.457 41.3583 250.915 41.699C250.374 42.0397 249.725 42.21 248.969 42.21ZM249.088 41.321C249.569 41.321 249.989 41.2347 250.348 41.062C250.708 40.8893 250.997 40.6537 251.216 40.355C251.436 40.0517 251.578 39.711 251.643 39.333C251.699 39.0903 251.73 38.8243 251.734 38.535C251.739 38.241 251.741 38.0217 251.741 37.877L252.133 38.08C251.783 38.1267 251.403 38.1733 250.992 38.22C250.586 38.2667 250.185 38.3203 249.788 38.381C249.396 38.4417 249.042 38.514 248.724 38.598C248.51 38.6587 248.302 38.745 248.101 38.857C247.901 38.9643 247.735 39.109 247.604 39.291C247.478 39.473 247.415 39.6993 247.415 39.97C247.415 40.1893 247.469 40.4017 247.576 40.607C247.688 40.8123 247.866 40.9827 248.108 41.118C248.356 41.2533 248.682 41.321 249.088 41.321Z" fill="#5E6B77"/>
<path d="M183.061 68.21C182.058 68.21 181.211 67.9883 180.52 67.545C179.829 67.097 179.307 66.4787 178.952 65.69C178.597 64.9013 178.42 63.9913 178.42 62.96C178.42 61.9287 178.597 61.0187 178.952 60.23C179.307 59.4413 179.829 58.8253 180.52 58.382C181.211 57.934 182.058 57.71 183.061 57.71C184.232 57.71 185.189 58.011 185.931 58.613C186.673 59.2103 187.182 60.013 187.457 61.021L186.407 61.294C186.192 60.496 185.807 59.8637 185.252 59.397C184.697 58.9303 183.966 58.697 183.061 58.697C182.272 58.697 181.617 58.8767 181.094 59.236C180.571 59.5953 180.177 60.097 179.911 60.741C179.65 61.3803 179.514 62.12 179.505 62.96C179.5 63.8 179.629 64.5397 179.89 65.179C180.156 65.8183 180.553 66.32 181.08 66.684C181.612 67.0433 182.272 67.223 183.061 67.223C183.966 67.223 184.697 66.9897 185.252 66.523C185.807 66.0517 186.192 65.4193 186.407 64.626L187.457 64.899C187.182 65.907 186.673 66.712 185.931 67.314C185.189 67.9113 184.232 68.21 183.061 68.21ZM188.161 68L191.353 64.22L188.294 60.44H189.456L192.438 64.171V60.44H193.39V64.171L196.372 60.44H197.527L194.468 64.22L197.66 68H196.463L193.39 64.269V68H192.438V64.269L189.358 68H188.161ZM200.666 68.21C200.097 68.21 199.619 68.1073 199.231 67.902C198.849 67.6967 198.562 67.4237 198.37 67.083C198.179 66.7423 198.083 66.3713 198.083 65.97C198.083 65.5593 198.165 65.2093 198.328 64.92C198.496 64.626 198.723 64.3857 199.007 64.199C199.297 64.0123 199.63 63.87 200.008 63.772C200.391 63.6787 200.813 63.597 201.275 63.527C201.742 63.4523 202.197 63.3893 202.64 63.338C203.088 63.282 203.48 63.2283 203.816 63.177L203.452 63.401C203.466 62.6543 203.322 62.1013 203.018 61.742C202.715 61.3827 202.188 61.203 201.436 61.203C200.918 61.203 200.48 61.3197 200.12 61.553C199.766 61.7863 199.516 62.155 199.371 62.659L198.37 62.365C198.543 61.6883 198.891 61.1633 199.413 60.79C199.936 60.4167 200.615 60.23 201.45 60.23C202.141 60.23 202.727 60.3607 203.207 60.622C203.693 60.8787 204.036 61.252 204.236 61.742C204.33 61.9613 204.39 62.2063 204.418 62.477C204.446 62.7477 204.46 63.023 204.46 63.303V68H203.543V66.103L203.809 66.215C203.553 66.8637 203.154 67.3583 202.612 67.699C202.071 68.0397 201.422 68.21 200.666 68.21ZM200.785 67.321C201.266 67.321 201.686 67.2347 202.045 67.062C202.405 66.8893 202.694 66.6537 202.913 66.355C203.133 66.0517 203.275 65.711 203.34 65.333C203.396 65.0903 203.427 64.8243 203.431 64.535C203.436 64.241 203.438 64.0217 203.438 63.877L203.83 64.08C203.48 64.1267 203.1 64.1733 202.689 64.22C202.283 64.2667 201.882 64.3203 201.485 64.381C201.093 64.4417 200.739 64.514 200.421 64.598C200.207 64.6587 199.999 64.745 199.798 64.857C199.598 64.9643 199.432 65.109 199.301 65.291C199.175 65.473 199.112 65.6993 199.112 65.97C199.112 66.1893 199.166 66.4017 199.273 66.607C199.385 66.8123 199.563 66.9827 199.805 67.118C200.053 67.2533 200.379 67.321 200.785 67.321ZM208.334 68V61.392H205.653V60.44H212.044V61.392H209.363V68H208.334ZM219.384 60.44V68H218.383V62.113L214.239 68H213.371V60.44H214.372V66.278L218.523 60.44H219.384ZM224.548 68.21C223.811 68.21 223.171 68.0467 222.63 67.72C222.093 67.3933 221.676 66.9337 221.377 66.341C221.078 65.7483 220.929 65.053 220.929 64.255C220.929 63.429 221.076 62.715 221.37 62.113C221.664 61.511 222.077 61.0467 222.609 60.72C223.146 60.3933 223.778 60.23 224.506 60.23C225.253 60.23 225.89 60.4027 226.417 60.748C226.944 61.0887 227.343 61.5787 227.614 62.218C227.885 62.8573 228.008 63.6203 227.985 64.507H226.935V64.143C226.916 63.163 226.704 62.4233 226.298 61.924C225.897 61.4247 225.309 61.175 224.534 61.175C223.722 61.175 223.099 61.4387 222.665 61.966C222.236 62.4933 222.021 63.2447 222.021 64.22C222.021 65.172 222.236 65.9117 222.665 66.439C223.099 66.9617 223.713 67.223 224.506 67.223C225.047 67.223 225.519 67.0993 225.92 66.852C226.326 66.6 226.646 66.2383 226.879 65.767L227.838 66.138C227.539 66.796 227.098 67.307 226.515 67.671C225.936 68.0303 225.281 68.21 224.548 68.21ZM221.657 64.507V63.646H227.432V64.507H221.657Z" fill="#5E6B77"/>
<circle cx="55" cy="136" r="55" fill="#F4F4F4"/>
<path d="M60.7579 112.72V124.196C63.4326 125.498 65.5869 127.668 66.869 130.351C68.1512 133.034 68.4854 136.073 67.8172 138.971C67.149 141.868 65.5178 144.454 63.1899 146.306C60.862 148.157 57.9749 149.165 55 149.165C52.0251 149.165 49.138 148.157 46.8101 146.306C44.4822 144.454 42.851 141.868 42.1828 138.971C41.5146 136.073 41.8488 133.034 43.1309 130.351C44.4131 127.668 46.5674 125.498 49.2421 124.196V112.72C43.5504 114.126 38.5705 117.566 35.2422 122.391C31.9139 127.216 30.4674 133.091 31.1759 138.909C31.8844 144.726 34.6988 150.084 39.0879 153.969C43.4769 157.855 49.1371 160 55 160C60.8629 160 66.5231 157.855 70.9121 153.969C75.3012 150.084 78.1156 144.726 78.8241 138.909C79.5326 133.091 78.0861 127.216 74.7578 122.391C71.4295 117.566 66.4496 114.126 60.7579 112.72Z" fill="#2B8FEB"/>
<path d="M47.6872 137.257C47.9358 138.609 48.5453 139.869 49.4515 140.902C50.3576 141.936 51.5265 142.706 52.8344 143.13C54.1423 143.553 55.5406 143.616 56.8811 143.31C58.2217 143.005 59.4546 142.343 60.4494 141.394C61.4441 140.445 62.1637 139.245 62.5319 137.921C62.9 136.596 62.9031 135.197 62.5408 133.872C62.1785 132.546 61.4642 131.342 60.4736 130.389C59.4831 129.436 58.2531 128.768 56.9139 128.457V112H53.3923V128.387C51.4919 128.841 49.8387 130.007 48.7738 131.645C47.7089 133.283 47.3136 135.267 47.6696 137.187L47.6872 137.257Z" fill="#2B8FEB"/>
<circle cx="392" cy="136" r="55" fill="#F4F4F4"/>
<path d="M351.58 143L356.54 128.6H358.49L363.45 143H361.92L357.21 129.42H357.79L353.11 143H351.58ZM353.79 139.51V138.13H361.23V139.51H353.79ZM369.585 143.31C368.579 143.303 367.715 143.083 366.995 142.65C366.275 142.217 365.715 141.57 365.315 140.71C364.922 139.85 364.709 138.777 364.675 137.49C364.655 136.923 364.669 136.307 364.715 135.64C364.762 134.967 364.835 134.327 364.935 133.72C365.035 133.113 365.155 132.62 365.295 132.24C365.469 131.747 365.715 131.287 366.035 130.86C366.362 130.427 366.739 130.073 367.165 129.8C367.579 129.52 368.045 129.303 368.565 129.15C369.092 128.99 369.639 128.867 370.205 128.78C370.779 128.693 371.345 128.617 371.905 128.55C372.472 128.483 372.995 128.4 373.475 128.3L373.635 129.63C373.269 129.703 372.835 129.77 372.335 129.83C371.835 129.89 371.312 129.963 370.765 130.05C370.219 130.13 369.695 130.24 369.195 130.38C368.695 130.52 368.269 130.703 367.915 130.93C367.375 131.257 366.959 131.75 366.665 132.41C366.379 133.07 366.202 133.827 366.135 134.68C366.549 134.033 367.095 133.547 367.775 133.22C368.462 132.893 369.205 132.73 370.005 132.73C370.979 132.73 371.815 132.953 372.515 133.4C373.222 133.847 373.765 134.467 374.145 135.26C374.525 136.053 374.715 136.963 374.715 137.99C374.715 139.063 374.505 140 374.085 140.8C373.672 141.6 373.082 142.22 372.315 142.66C371.549 143.093 370.639 143.31 369.585 143.31ZM369.695 141.9C370.829 141.9 371.689 141.547 372.275 140.84C372.869 140.133 373.165 139.193 373.165 138.02C373.165 136.82 372.859 135.873 372.245 135.18C371.639 134.487 370.782 134.14 369.675 134.14C368.569 134.14 367.719 134.487 367.125 135.18C366.532 135.873 366.235 136.82 366.235 138.02C366.235 139.22 366.532 140.167 367.125 140.86C367.719 141.553 368.575 141.9 369.695 141.9ZM381.426 143.3C380.352 143.3 379.436 143.057 378.676 142.57C377.916 142.083 377.332 141.41 376.926 140.55C376.519 139.69 376.316 138.703 376.316 137.59C376.316 136.457 376.522 135.463 376.936 134.61C377.349 133.757 377.936 133.093 378.696 132.62C379.462 132.14 380.372 131.9 381.426 131.9C382.506 131.9 383.426 132.143 384.186 132.63C384.952 133.11 385.536 133.78 385.936 134.64C386.342 135.493 386.546 136.477 386.546 137.59C386.546 138.723 386.342 139.72 385.936 140.58C385.529 141.433 384.942 142.1 384.176 142.58C383.409 143.06 382.492 143.3 381.426 143.3ZM381.426 141.89C382.626 141.89 383.519 141.493 384.106 140.7C384.692 139.9 384.986 138.863 384.986 137.59C384.986 136.283 384.689 135.243 384.096 134.47C383.509 133.697 382.619 133.31 381.426 133.31C380.619 133.31 379.952 133.493 379.426 133.86C378.906 134.22 378.516 134.723 378.256 135.37C378.002 136.01 377.876 136.75 377.876 137.59C377.876 138.89 378.176 139.933 378.776 140.72C379.376 141.5 380.259 141.89 381.426 141.89ZM388.742 143V132.2H390.212V136.89H396.302V132.2H397.772V143H396.302V138.3H390.212V143H388.742ZM405.138 143.3C404.085 143.3 403.171 143.067 402.398 142.6C401.631 142.133 401.035 141.477 400.608 140.63C400.181 139.783 399.968 138.79 399.968 137.65C399.968 136.47 400.178 135.45 400.598 134.59C401.018 133.73 401.608 133.067 402.368 132.6C403.135 132.133 404.038 131.9 405.078 131.9C406.145 131.9 407.055 132.147 407.808 132.64C408.561 133.127 409.131 133.827 409.518 134.74C409.905 135.653 410.081 136.743 410.048 138.01H408.548V137.49C408.521 136.09 408.218 135.033 407.638 134.32C407.065 133.607 406.225 133.25 405.118 133.25C403.958 133.25 403.068 133.627 402.448 134.38C401.835 135.133 401.528 136.207 401.528 137.6C401.528 138.96 401.835 140.017 402.448 140.77C403.068 141.517 403.945 141.89 405.078 141.89C405.851 141.89 406.525 141.713 407.098 141.36C407.678 141 408.135 140.483 408.468 139.81L409.838 140.34C409.411 141.28 408.781 142.01 407.948 142.53C407.121 143.043 406.185 143.3 405.138 143.3ZM401.008 138.01V136.78H409.258V138.01H401.008ZM412.257 143V132.2H413.727V136.89H419.817V132.2H421.287V143H419.817V138.3H413.727V143H412.257ZM427.014 143V133.56H423.184V132.2H432.314V133.56H428.484V143H427.014Z" fill="#344351"/>
<path d="M189.442 143H187.962V131.19L180.032 143H178.552V128.6H180.032V140.4L187.962 128.6H189.442V143ZM192.234 143V132.2H193.704V136.89H199.794V132.2H201.264V143H199.794V138.3H193.704V143H192.234ZM206.99 143V133.56H203.16V132.2H212.29V133.56H208.46V143H206.99ZM218.767 143.3C217.714 143.3 216.8 143.067 216.027 142.6C215.26 142.133 214.664 141.477 214.237 140.63C213.81 139.783 213.597 138.79 213.597 137.65C213.597 136.47 213.807 135.45 214.227 134.59C214.647 133.73 215.237 133.067 215.997 132.6C216.764 132.133 217.667 131.9 218.707 131.9C219.774 131.9 220.684 132.147 221.437 132.64C222.19 133.127 222.76 133.827 223.147 134.74C223.534 135.653 223.71 136.743 223.677 138.01H222.177V137.49C222.15 136.09 221.847 135.033 221.267 134.32C220.694 133.607 219.854 133.25 218.747 133.25C217.587 133.25 216.697 133.627 216.077 134.38C215.464 135.133 215.157 136.207 215.157 137.6C215.157 138.96 215.464 140.017 216.077 140.77C216.697 141.517 217.574 141.89 218.707 141.89C219.48 141.89 220.154 141.713 220.727 141.36C221.307 141 221.764 140.483 222.097 139.81L223.467 140.34C223.04 141.28 222.41 142.01 221.577 142.53C220.75 143.043 219.814 143.3 218.767 143.3ZM214.637 138.01V136.78H222.887V138.01H214.637ZM230.746 143.3C229.753 143.3 228.913 143.05 228.226 142.55C227.539 142.043 227.019 141.36 226.666 140.5C226.313 139.633 226.136 138.663 226.136 137.59C226.136 136.497 226.313 135.523 226.666 134.67C227.026 133.81 227.553 133.133 228.246 132.64C228.939 132.147 229.793 131.9 230.806 131.9C231.793 131.9 232.639 132.15 233.346 132.65C234.053 133.15 234.593 133.83 234.966 134.69C235.346 135.55 235.536 136.517 235.536 137.59C235.536 138.67 235.346 139.64 234.966 140.5C234.586 141.36 234.039 142.043 233.326 142.55C232.613 143.05 231.753 143.3 230.746 143.3ZM225.886 147.8V132.2H227.206V140.33H227.366V147.8H225.886ZM230.596 141.93C231.349 141.93 231.976 141.74 232.476 141.36C232.976 140.98 233.349 140.463 233.596 139.81C233.849 139.15 233.976 138.41 233.976 137.59C233.976 136.777 233.853 136.043 233.606 135.39C233.359 134.737 232.983 134.22 232.476 133.84C231.976 133.46 231.339 133.27 230.566 133.27C229.813 133.27 229.186 133.453 228.686 133.82C228.193 134.187 227.823 134.697 227.576 135.35C227.329 135.997 227.206 136.743 227.206 137.59C227.206 138.423 227.329 139.17 227.576 139.83C227.823 140.483 228.196 140.997 228.696 141.37C229.196 141.743 229.829 141.93 230.596 141.93ZM237.722 143V132.2H239.192V136.89H245.282V132.2H246.752V143H245.282V138.3H239.192V143H237.722ZM254.118 143.3C253.065 143.3 252.152 143.067 251.378 142.6C250.612 142.133 250.015 141.477 249.588 140.63C249.162 139.783 248.948 138.79 248.948 137.65C248.948 136.47 249.158 135.45 249.578 134.59C249.998 133.73 250.588 133.067 251.348 132.6C252.115 132.133 253.018 131.9 254.058 131.9C255.125 131.9 256.035 132.147 256.788 132.64C257.542 133.127 258.112 133.827 258.498 134.74C258.885 135.653 259.062 136.743 259.028 138.01H257.528V137.49C257.502 136.09 257.198 135.033 256.618 134.32C256.045 133.607 255.205 133.25 254.098 133.25C252.938 133.25 252.048 133.627 251.428 134.38C250.815 135.133 250.508 136.207 250.508 137.6C250.508 138.96 250.815 140.017 251.428 140.77C252.048 141.517 252.925 141.89 254.058 141.89C254.832 141.89 255.505 141.713 256.078 141.36C256.658 141 257.115 140.483 257.448 139.81L258.818 140.34C258.392 141.28 257.762 142.01 256.928 142.53C256.102 143.043 255.165 143.3 254.118 143.3ZM249.988 138.01V136.78H258.238V138.01H249.988ZM264.041 143V133.56H260.211V132.2H269.341V133.56H265.511V143H264.041Z" fill="#5E6B77"/>
<path d="M117.848 119.879C117.585 119.963 117.44 120.244 117.524 120.507C117.607 120.77 117.889 120.916 118.152 120.832L117.848 119.879ZM331.22 122.449C331.468 122.327 331.571 122.028 331.449 121.78L329.469 117.739C329.347 117.491 329.048 117.389 328.8 117.51C328.552 117.632 328.449 117.931 328.571 118.179L330.331 121.771L326.739 123.531C326.491 123.653 326.389 123.952 326.51 124.2C326.632 124.448 326.931 124.551 327.179 124.429L331.22 122.449ZM133.881 115.294L133.729 114.818L133.881 115.294ZM317.089 117.239L317.25 116.766L317.089 117.239ZM118.152 120.832L119.475 120.41L119.172 119.457L117.848 119.879L118.152 120.832ZM122.122 119.567L124.769 118.723L124.465 117.77L121.818 118.614L122.122 119.567ZM127.416 117.88L130.063 117.036L129.759 116.083L127.112 116.927L127.416 117.88ZM132.71 116.193L134.033 115.771L133.729 114.818L132.406 115.24L132.71 116.193ZM134.033 115.771C134.51 115.619 134.987 115.468 135.465 115.319L135.166 114.364C134.687 114.514 134.208 114.666 133.729 114.818L134.033 115.771ZM138.333 114.437C139.291 114.148 140.25 113.864 141.21 113.585L140.931 112.625C139.968 112.905 139.005 113.19 138.044 113.48L138.333 114.437ZM144.096 112.763C145.059 112.493 146.024 112.229 146.99 111.97L146.731 111.004C145.762 111.264 144.794 111.529 143.827 111.8L144.096 112.763ZM149.892 111.207C150.861 110.958 151.831 110.713 152.802 110.474L152.563 109.503C151.588 109.743 150.615 109.988 149.643 110.239L149.892 111.207ZM155.719 109.771C156.693 109.542 157.668 109.318 158.643 109.098L158.424 108.123C157.445 108.343 156.467 108.568 155.49 108.798L155.719 109.771ZM161.574 108.456C162.553 108.246 163.532 108.042 164.512 107.843L164.313 106.863C163.329 107.063 162.347 107.268 161.365 107.478L161.574 108.456ZM167.455 107.261C168.438 107.072 169.421 106.888 170.405 106.709L170.226 105.725C169.239 105.905 168.252 106.089 167.266 106.279L167.455 107.261ZM173.36 106.188C174.346 106.019 175.333 105.855 176.32 105.696L176.162 104.709C175.171 104.868 174.181 105.032 173.191 105.202L173.36 106.188ZM179.285 105.236C180.275 105.087 181.265 104.944 182.255 104.806L182.117 103.815C181.123 103.954 180.13 104.098 179.137 104.247L179.285 105.236ZM185.229 104.407C186.221 104.278 187.214 104.156 188.207 104.038L188.089 103.045C187.093 103.163 186.097 103.286 185.101 103.415L185.229 104.407ZM191.188 103.7C192.183 103.592 193.178 103.49 194.174 103.392L194.076 102.397C193.077 102.495 192.079 102.598 191.081 102.706L191.188 103.7ZM197.161 103.116C198.158 103.029 199.155 102.947 200.152 102.87L200.075 101.873C199.075 101.95 198.074 102.032 197.074 102.12L197.161 103.116ZM203.145 102.655C204.143 102.588 205.142 102.527 206.14 102.471L206.084 101.472C205.082 101.529 204.08 101.59 203.078 101.657L203.145 102.655ZM209.137 102.317C210.136 102.271 211.136 102.23 212.135 102.195L212.099 101.195C211.096 101.231 210.094 101.272 209.091 101.318L209.137 102.317ZM215.134 102.103C216.134 102.078 217.134 102.057 218.135 102.042L218.119 101.042C217.116 101.057 216.112 101.078 215.109 101.103L215.134 102.103ZM221.135 102.012C222.135 102.007 223.136 102.008 224.136 102.013L224.141 101.013C223.138 101.008 222.134 101.007 221.13 101.012L221.135 102.012ZM227.136 102.045C228.136 102.061 229.136 102.082 230.136 102.108L230.162 101.108C229.159 101.082 228.156 101.061 227.152 101.045L227.136 102.045ZM233.136 102.201C234.135 102.238 235.134 102.279 236.134 102.326L236.18 101.327C235.178 101.28 234.175 101.239 233.172 101.202L233.136 102.201ZM239.13 102.481C240.129 102.538 241.127 102.6 242.125 102.667L242.192 101.67C241.191 101.602 240.189 101.54 239.187 101.483L239.13 102.481ZM245.118 102.884C246.115 102.962 247.112 103.044 248.109 103.132L248.196 102.136C247.196 102.048 246.196 101.965 245.196 101.887L245.118 102.884ZM251.096 103.411C252.092 103.509 253.087 103.612 254.081 103.72L254.189 102.726C253.191 102.617 252.193 102.514 251.194 102.415L251.096 103.411ZM257.062 104.06C258.055 104.178 259.048 104.302 260.04 104.431L260.169 103.439C259.173 103.31 258.177 103.186 257.181 103.067L257.062 104.06ZM263.014 104.832C264.004 104.971 264.994 105.115 265.984 105.264L266.133 104.275C265.14 104.125 264.147 103.981 263.153 103.841L263.014 104.832ZM268.948 105.726C269.935 105.885 270.922 106.05 271.908 106.219L272.078 105.234C271.088 105.064 270.098 104.899 269.107 104.739L268.948 105.726ZM274.863 106.742C275.847 106.922 276.83 107.107 277.812 107.296L278.002 106.314C277.016 106.124 276.029 105.939 275.042 105.759L274.863 106.742ZM280.755 107.88C281.735 108.08 282.714 108.285 283.693 108.495L283.902 107.517C282.921 107.306 281.938 107.101 280.955 106.9L280.755 107.88ZM286.623 109.139C287.598 109.359 288.573 109.584 289.547 109.814L289.777 108.841C288.8 108.61 287.822 108.384 286.843 108.164L286.623 109.139ZM292.463 110.519C293.434 110.759 294.404 111.004 295.373 111.254L295.623 110.285C294.651 110.034 293.677 109.789 292.703 109.548L292.463 110.519ZM298.274 112.018C299.24 112.278 300.205 112.543 301.168 112.813L301.438 111.85C300.471 111.579 299.503 111.313 298.534 111.053L298.274 112.018ZM304.053 113.637C305.013 113.917 305.972 114.201 306.93 114.491L307.22 113.534C306.258 113.243 305.296 112.958 304.333 112.677L304.053 113.637ZM309.798 115.374C310.752 115.674 311.704 115.978 312.656 116.287L312.965 115.336C312.01 115.026 311.054 114.721 310.097 114.42L309.798 115.374ZM315.505 117.23C315.979 117.389 316.453 117.55 316.927 117.712L317.25 116.766C316.775 116.603 316.3 116.442 315.824 116.282L315.505 117.23ZM316.927 117.712L318.666 118.307L318.989 117.361L317.25 116.766L316.927 117.712ZM322.143 119.498L325.621 120.688L325.945 119.742L322.467 118.551L322.143 119.498ZM329.099 121.878L330.838 122.473L331.162 121.527L329.423 120.932L329.099 121.878Z" fill="#F88C28"/>
<path d="M332.125 157.446C332.392 157.376 332.553 157.104 332.484 156.836C332.415 156.569 332.142 156.408 331.875 156.477L332.125 157.446ZM114.753 154.565C114.513 154.701 114.429 155.006 114.565 155.247L116.784 159.162C116.92 159.402 117.225 159.486 117.465 159.35C117.705 159.214 117.79 158.909 117.654 158.669L115.682 155.188L119.162 153.216C119.402 153.08 119.486 152.775 119.35 152.535C119.214 152.295 118.909 152.21 118.669 152.346L114.753 154.565ZM323.447 159.171L323.572 159.655L323.447 159.171ZM331.875 156.477L329.737 157.03L329.987 157.998L332.125 157.446L331.875 156.477ZM325.46 158.134L323.322 158.687L323.572 159.655L325.71 159.103L325.46 158.134ZM323.322 158.687C322.843 158.81 322.365 158.933 321.886 159.055L322.132 160.024C322.612 159.902 323.092 159.779 323.572 159.655L323.322 158.687ZM319.01 159.774C318.051 160.01 317.091 160.243 316.13 160.471L316.361 161.444C317.325 161.215 318.287 160.982 319.249 160.745L319.01 159.774ZM313.244 161.146C312.281 161.368 311.317 161.585 310.353 161.799L310.569 162.775C311.536 162.561 312.502 162.343 313.468 162.121L313.244 161.146ZM307.457 162.43C306.49 162.636 305.524 162.839 304.556 163.038L304.758 164.017C305.728 163.818 306.697 163.615 307.666 163.408L307.457 162.43ZM301.65 163.624C300.681 163.816 299.711 164.003 298.741 164.187L298.928 165.17C299.9 164.985 300.873 164.797 301.844 164.605L301.65 163.624ZM295.827 164.729C294.855 164.905 293.882 165.078 292.909 165.247L293.08 166.233C294.056 166.063 295.031 165.89 296.005 165.713L295.827 164.729ZM289.987 165.744C289.012 165.906 288.037 166.064 287.061 166.218L287.217 167.205C288.195 167.051 289.173 166.893 290.15 166.73L289.987 165.744ZM284.132 166.669C283.154 166.816 282.177 166.959 281.199 167.098L281.34 168.088C282.32 167.949 283.3 167.805 284.28 167.658L284.132 166.669ZM278.263 167.504C277.284 167.636 276.304 167.764 275.324 167.888L275.45 168.88C276.432 168.756 277.414 168.627 278.396 168.495L278.263 167.504ZM272.382 168.249C271.401 168.366 270.42 168.479 269.438 168.588L269.548 169.582C270.533 169.472 271.517 169.359 272.5 169.242L272.382 168.249ZM266.491 168.903C265.508 169.005 264.525 169.103 263.541 169.197L263.637 170.192C264.623 170.098 265.608 170 266.594 169.898L266.491 168.903ZM260.59 169.467C259.606 169.554 258.621 169.636 257.636 169.715L257.716 170.712C258.704 170.633 259.691 170.55 260.678 170.463L260.59 169.467ZM254.681 169.94C253.696 170.011 252.71 170.079 251.724 170.143L251.789 171.14C252.777 171.077 253.765 171.009 254.753 170.938L254.681 169.94ZM248.766 170.322C247.78 170.378 246.793 170.431 245.806 170.479L245.855 171.478C246.845 171.429 247.834 171.377 248.823 171.321L248.766 170.322ZM242.845 170.613C241.858 170.654 240.871 170.691 239.884 170.725L239.917 171.724C240.907 171.691 241.897 171.653 242.887 171.612L242.845 170.613ZM236.921 170.813C235.933 170.839 234.946 170.861 233.958 170.879L233.976 171.879C234.967 171.861 235.957 171.839 236.947 171.813L236.921 170.813ZM230.994 170.922C230.006 170.933 229.018 170.94 228.031 170.943L228.034 171.943C229.024 171.94 230.015 171.933 231.005 171.922L230.994 170.922ZM225.067 170.94C224.079 170.936 223.091 170.927 222.103 170.915L222.091 171.915C223.081 171.927 224.071 171.936 225.062 171.94L225.067 170.94ZM219.139 170.867C218.152 170.847 217.164 170.824 216.176 170.796L216.149 171.796C217.139 171.823 218.129 171.847 219.119 171.867L219.139 170.867ZM213.214 170.703C212.227 170.668 211.239 170.629 210.252 170.586L210.209 171.585C211.199 171.628 212.189 171.667 213.179 171.702L213.214 170.703ZM207.292 170.447C206.305 170.397 205.319 170.343 204.332 170.285L204.274 171.284C205.263 171.341 206.252 171.396 207.241 171.446L207.292 170.447ZM201.374 170.101C200.388 170.035 199.403 169.966 198.417 169.893L198.344 170.891C199.332 170.964 200.32 171.033 201.308 171.099L201.374 170.101ZM195.463 169.663C194.478 169.583 193.494 169.499 192.509 169.411L192.42 170.407C193.407 170.495 194.394 170.579 195.381 170.66L195.463 169.663ZM189.559 169.135C188.575 169.04 187.592 168.94 186.61 168.837L186.505 169.832C187.49 169.935 188.476 170.035 189.462 170.131L189.559 169.135ZM183.663 168.516C182.682 168.406 181.7 168.291 180.719 168.173L180.6 169.166C181.583 169.284 182.567 169.399 183.551 169.51L183.663 168.516ZM177.778 167.807C176.798 167.681 175.819 167.552 174.84 167.418L174.705 168.409C175.686 168.543 176.668 168.673 177.651 168.799L177.778 167.807ZM171.905 167.007C170.927 166.866 169.95 166.722 168.973 166.574L168.823 167.562C169.802 167.711 170.782 167.856 171.762 167.997L171.905 167.007ZM166.044 166.117C165.069 165.962 164.094 165.802 163.119 165.639L162.954 166.625C163.931 166.789 164.908 166.949 165.886 167.105L166.044 166.117ZM160.198 165.137C159.225 164.967 158.253 164.792 157.281 164.614L157.1 165.597C158.075 165.776 159.05 165.951 160.025 166.122L160.198 165.137ZM154.367 164.068C153.397 163.882 152.428 163.692 151.459 163.499L151.263 164.48C152.235 164.674 153.207 164.864 154.179 165.05L154.367 164.068ZM148.554 162.908C147.587 162.708 146.62 162.503 145.655 162.295L145.444 163.273C146.412 163.482 147.381 163.686 148.351 163.888L148.554 162.908ZM142.759 161.66C141.795 161.445 140.832 161.225 139.87 161.002L139.644 161.977C140.609 162.2 141.575 162.42 142.541 162.636L142.759 161.66ZM136.984 160.323C136.024 160.092 135.064 159.858 134.105 159.621L133.865 160.591C134.826 160.83 135.788 161.064 136.751 161.295L136.984 160.323ZM131.231 158.897C130.274 158.652 129.318 158.403 128.363 158.151L128.107 159.117C129.065 159.37 130.024 159.62 130.983 159.865L131.231 158.897ZM125.5 157.382C125.023 157.253 124.547 157.122 124.07 156.99L123.804 157.954C124.281 158.086 124.759 158.217 125.237 158.347L125.5 157.382ZM124.07 156.99L122.953 156.681L122.687 157.645L123.804 157.954L124.07 156.99ZM120.719 156.063L118.485 155.445L118.218 156.409L120.452 157.027L120.719 156.063ZM116.25 154.827L115.133 154.518L114.867 155.482L115.984 155.791L116.25 154.827Z" fill="#F88C28"/>
</svg>
