<svg width="404" height="390" viewBox="0 0 404 390" fill="none" xmlns="http://www.w3.org/2000/svg">
<path d="M34.7493 383.36C35.3385 382.963 36.0012 382.687 36.6984 382.55C37.3957 382.413 38.1134 382.416 38.8092 382.56C40.4092 382.83 41.4793 380.82 41.3593 379.21C41.2393 377.6 40.4893 376.01 40.7793 374.41C41.5193 370.3 47.7292 370.05 50.1192 366.62C51.7992 364.21 51.1192 360.9 51.8692 358.05C52.9392 353.94 56.9593 351.13 61.1093 350.23C65.2593 349.33 70.5292 350.07 74.7292 350.72C73.4292 347.12 75.8892 342.96 79.3592 341.36C82.8293 339.76 86.9292 340.2 90.5692 341.36C95.3351 342.817 99.6715 345.42 103.199 348.94C106.879 335.44 118.089 324.79 131.039 319.48C143.989 314.17 158.499 313.72 172.359 315.66C178.359 316.5 184.509 317.84 189.599 321.18C194.689 324.52 198.539 329.8 198.229 335.88C204.829 333.45 212.369 336.44 217.559 341.17C220.791 344.109 223.39 347.675 225.2 351.65C227.009 355.626 227.991 359.928 228.084 364.295C228.178 368.662 227.381 373.003 225.744 377.052C224.106 381.102 221.602 385.425 218.499 388.5H32.9993C32.8486 387.741 33.0069 385.825 33.3043 385.111C33.6016 384.397 34.1046 383.787 34.7493 383.36Z" fill="#F6F7F8"/>
<path d="M363.54 381.88C361.81 380.71 359.59 380.64 357.54 380.56C355.49 380.48 353.22 380.33 351.54 379.06C349.86 377.79 349.18 375.76 347.69 374.39C346.807 373.666 345.783 373.134 344.682 372.829C343.582 372.525 342.43 372.453 341.3 372.62C340.664 372.694 340.033 372.804 339.41 372.95C340.334 372.205 341.027 371.213 341.41 370.09C341.83 368.708 341.785 367.226 341.283 365.872C340.781 364.517 339.849 363.365 338.63 362.59C336.17 361.1 332.29 360.34 330.29 362.41C331.516 358.187 331.325 353.678 329.747 349.573C328.169 345.469 325.29 341.994 321.55 339.68C313.99 335.24 303.26 336.68 297.26 343.07C300.68 333.01 296.96 321.23 289.09 314.07C281.22 306.91 269.8 304.33 259.34 306.17C249.95 307.82 241.09 313.01 235.68 320.85C230.27 328.69 228.56 338.85 231.99 347.72C224.803 345.56 217.249 344.905 209.797 345.795C202.346 346.686 195.158 349.103 188.683 352.896C182.208 356.689 176.585 361.777 172.164 367.841C167.743 373.905 164.63 381.175 163 388.5H364.5C365.93 387.01 365.28 383.05 363.54 381.88Z" fill="#EFEFEF"/>
<path d="M130.85 288.01C114.34 293.51 113.19 312.43 123.21 313.69C133.23 314.95 132.75 305.81 126.13 305.42C119.51 305.03 109.59 310.58 107.55 319.14C105.51 327.7 113.39 332.86 120.2 332.86C127.01 332.86 128.37 324.79 120.2 325.18C112.03 325.57 107.06 334.71 107.55 340.55C108.04 346.39 115.55 352.32 124.19 350.67C132.83 349.02 130.02 341.43 122.63 343.08C115.24 344.73 108.9 355.24 114.85 363.71C120.8 372.18 131.68 370.03 135.38 366.63C139.08 363.23 136.64 358.94 131.48 362.54C126.32 366.14 129.54 377.72 143.16 379.54C156.78 381.36 163.26 373.88 164.47 370.29C166.96 362.92 157.18 360.77 156.69 368.15C156.2 375.53 160.77 376.72 166.03 377.59C171.29 378.46 179 380.71 179 388.5" stroke="#55626F" stroke-miterlimit="10"/>
<path d="M131.319 291.72L127.959 294.72L125.539 296.94C121.059 294.7 119.619 289.43 119.619 289.43C120.578 288.704 121.58 288.036 122.619 287.43C124.689 286.18 126.859 284.99 126.859 284.99C128.139 285.8 131.029 291 131.319 291.72Z" fill="#57A8F3"/>
<path d="M241.593 152.088L241.591 152.086C241.06 151.644 240.518 151.161 239.954 150.637C236.647 147.445 232.613 145.105 228.2 143.82L228.2 143.82L228.19 143.817C219.501 141.48 209.693 144.535 199.97 156.657L199.97 156.657C185.503 174.704 174.778 195.765 170.008 213.188C167.755 221.405 168.802 227.403 171.68 231.713C174.546 236.005 179.171 238.536 183.908 239.949L183.913 239.951C184.546 240.131 185.174 240.304 185.815 240.456L185.931 239.97L185.815 240.456C190.754 241.632 193.864 243.649 195.114 246.839C196.376 250.061 195.815 254.652 192.943 261.158C187.198 274.171 175.518 290.932 168.913 299.044L168.913 299.044C163.755 305.387 156.507 308.025 148.899 306.184C146.823 305.668 144.824 304.881 142.953 303.843L142.95 303.841C142.17 303.416 141.399 302.962 140.648 302.487L140.645 302.486C136.552 299.935 132.841 296.817 129.623 293.226L129.62 293.223C128.602 292.106 127.61 290.942 126.645 289.732C125.813 288.643 125.011 287.514 124.248 286.355L124.248 286.354C111.601 267.201 108.898 239.021 120.51 212.038C128.567 193.319 142.834 169.307 157.271 147.915C171.713 126.515 186.287 107.793 194.943 99.6337C203.602 91.473 213.698 84.6085 227.243 81.6975C240.792 78.7856 257.847 79.8181 280.438 87.5527C283.825 88.7186 286.109 90.1256 287.605 91.6712C289.093 93.2092 289.821 94.9055 290.062 96.6979C290.541 100.247 289.126 104.176 287.743 108.016L287.64 108.3C286.026 112.777 281.425 120.985 276.151 129.269C270.883 137.545 264.986 145.831 260.809 150.465C257.804 153.796 255.25 156.042 252.369 156.573C249.525 157.097 246.199 155.97 241.593 152.088Z" fill="#57A8F3" stroke="#55626F"/>
<path d="M170.17 271.603C170.828 270.593 171.46 269.584 172.079 268.594C172.131 268.511 172.183 268.428 172.235 268.345L172.237 268.342C176.38 261.596 179.505 255.321 181.57 250.273C182.602 247.749 183.372 245.526 183.871 243.699C184.262 242.269 184.494 241.054 184.547 240.119C184.967 240.234 185.388 240.345 185.815 240.446C190.764 241.627 193.874 243.647 195.121 246.837C196.382 250.06 195.816 254.652 192.943 261.158C187.199 274.171 175.519 290.932 168.913 299.044L168.913 299.045C163.755 305.386 156.508 308.025 148.9 306.184C146.824 305.669 144.824 304.881 142.954 303.843L142.95 303.841C142.457 303.573 141.969 303.293 141.486 303.003C145.373 301.275 149.965 297.298 154.709 292.072C159.856 286.401 165.24 279.194 170.17 271.603ZM170.17 271.603L169.751 271.33M170.17 271.603C170.17 271.603 170.17 271.603 170.17 271.602L169.751 271.33M169.751 271.33C170.406 270.324 171.036 269.318 171.656 268.328C171.707 268.245 171.759 268.163 171.811 268.08C179.709 255.219 183.886 244.095 184.053 239.981L169.751 271.33Z" fill="#57A8F3" stroke="#55626F"/>
<path d="M287.639 108.301C286.025 112.778 281.424 120.985 276.15 129.269C270.882 137.545 264.985 145.832 260.808 150.465C257.803 153.796 255.249 156.042 252.368 156.573C249.632 157.077 246.45 156.054 242.111 152.518C244.103 151.149 246.484 148.822 248.984 146.026C251.74 142.942 254.674 139.25 257.435 135.552C262.951 128.165 267.814 120.708 269.224 117.98L268.78 117.75L269.224 117.98C269.581 117.289 270.087 116.361 270.691 115.253C272.284 112.331 274.558 108.16 276.573 103.801C277.966 100.79 279.246 97.6675 280.104 94.775C280.855 92.2429 281.297 89.845 281.183 87.8358C284.166 88.9433 286.225 90.2519 287.608 91.68C289.095 93.2151 289.822 94.9093 290.063 96.7005C290.54 100.247 289.125 104.176 287.742 108.016C287.708 108.111 287.673 108.206 287.639 108.301Z" fill="#57A8F3" stroke="#55626F"/>
<path d="M298.139 248.06C298.06 251.174 297.586 254.265 296.729 257.26C294.954 263.562 291.568 269.294 286.905 273.89C282.241 278.486 276.461 281.788 270.134 283.471C263.806 285.155 257.149 285.161 250.819 283.49C244.488 281.818 238.702 278.527 234.029 273.94C228.798 268.739 221.736 265.798 214.359 265.75H213.359C216.395 264.438 218.944 262.206 220.646 259.371C222.348 256.535 223.119 253.237 222.849 249.94C222.463 244.841 223.118 239.716 224.773 234.878C226.429 230.039 229.051 225.588 232.481 221.795C235.91 218.001 240.075 214.945 244.723 212.811C249.37 210.677 254.403 209.511 259.515 209.382C264.628 209.254 269.713 210.167 274.461 212.065C279.21 213.963 283.523 216.806 287.138 220.423C290.754 224.04 293.596 228.354 295.492 233.103C297.389 237.852 298.299 242.938 298.169 248.05L298.139 248.06Z" fill="#EFEFEF"/>
<path d="M81.2595 233.8C81.2569 235.66 81.9284 237.457 83.1495 238.86C78.9408 237.42 74.3777 237.388 70.1495 238.77C66.6467 239.954 62.9262 240.352 59.2522 239.936C55.5782 239.52 52.0407 238.301 48.891 236.364C45.7413 234.428 43.0565 231.822 41.0273 228.731C38.998 225.64 37.6741 222.14 37.1495 218.48C36.6152 215.038 36.801 211.522 37.695 208.155C38.5891 204.789 40.172 201.644 42.3436 198.92C44.5152 196.197 47.2284 193.953 50.3115 192.332C53.3946 190.71 56.7806 189.746 60.2554 189.501C63.7302 189.255 67.2181 189.733 70.4987 190.904C73.7793 192.076 76.7812 193.915 79.3145 196.306C81.8478 198.697 83.8575 201.587 85.2165 204.795C86.5754 208.002 87.2541 211.457 87.2095 214.94C87.2185 220.097 85.6328 225.13 82.6695 229.35C81.7568 230.655 81.2649 232.208 81.2595 233.8Z" fill="#EFEFEF"/>
<path d="M146.14 118.5C146.123 124.231 144.43 129.831 141.269 134.611C138.108 139.391 133.617 143.142 128.35 145.4C127.07 145.943 125.977 146.849 125.205 148.005C124.434 149.162 124.018 150.52 124.01 151.91C124.011 152.99 124.264 154.055 124.75 155.02L122.12 153.36C116.344 149.7 109.647 147.758 102.81 147.76H84.6096C76.8551 147.742 69.4234 144.653 63.9401 139.17C58.4568 133.686 55.3681 126.255 55.3496 118.5C55.3496 117.86 55.3496 117.22 55.4196 116.59C55.9231 109.185 59.2152 102.247 64.632 97.1733C70.0489 92.0997 77.1878 89.2684 84.6096 89.25H116.85C120.865 89.2436 124.837 90.0781 128.51 91.7C133.726 93.9801 138.166 97.7273 141.291 102.485C144.416 107.244 146.09 112.808 146.11 118.5H146.14Z" fill="#EFEFEF"/>
<path d="M368.85 148.11C366.66 153.246 363.234 157.761 358.877 161.253C354.52 164.746 349.368 167.107 343.878 168.127C338.388 169.148 332.731 168.796 327.411 167.102C322.09 165.408 317.27 162.426 313.38 158.42C309.161 154.157 303.667 151.387 297.73 150.53C299.661 149.749 301.312 148.407 302.473 146.678C303.633 144.949 304.249 142.912 304.24 140.83C304.242 140.345 304.208 139.86 304.14 139.38C303.279 133.046 304.229 126.597 306.881 120.78C309.532 114.963 313.777 110.016 319.123 106.511C324.469 103.006 330.699 101.087 337.091 100.975C343.482 100.863 349.775 102.564 355.24 105.88C360.053 108.81 364.059 112.892 366.9 117.758C369.74 122.623 371.325 128.119 371.51 133.75C371.7 138.675 370.791 143.58 368.85 148.11Z" fill="#EFEFEF"/>
<path d="M225.329 63.0901C225.325 65.7025 226.266 68.2282 227.979 70.2001L221.329 67.9401C218.71 67.0956 215.865 67.2963 213.389 68.5001C207.792 71.1457 201.6 72.2803 195.428 71.791C189.257 71.3017 183.321 69.2056 178.21 65.711C173.1 62.2164 168.993 57.4451 166.298 51.8714C163.603 46.2977 162.414 40.1158 162.849 33.9401C162.977 32.0907 163.255 30.2547 163.679 28.4501C164.857 23.3569 167.146 18.587 170.383 14.4818C173.62 10.3766 177.724 7.03756 182.401 4.70365C187.079 2.36974 192.215 1.09865 197.441 0.981344C202.668 0.86404 207.855 1.90342 212.633 4.02511C217.411 6.14679 221.66 9.29833 225.078 13.2542C228.496 17.21 230.996 21.8724 232.402 26.9076C233.807 31.9429 234.082 37.2265 233.207 42.3804C232.331 47.5342 230.328 52.431 227.339 56.7201C226.03 58.5861 225.328 60.8106 225.329 63.0901Z" fill="#EFEFEF"/>
<path d="M274.47 148.94C275.71 148.11 282.66 154.6 279.92 156.36C277.02 158.2 273.46 149.6 274.47 148.94Z" fill="#55626F"/>
<path d="M285.85 134.8C286.73 133.52 294.92 136.37 293.43 139.12C291.94 141.87 284.66 136.48 285.85 134.8Z" fill="#55626F"/>
<path d="M293.22 116.79C292.04 118.55 301.36 120.01 302.07 117.68C302.78 115.35 294.13 115.44 293.22 116.79Z" fill="#55626F"/>
<path d="M1 388H403" stroke="#55626F" stroke-linecap="round" stroke-linejoin="round"/>
<circle cx="61.5" cy="215.5" r="17" fill="white" stroke="#55626F"/>
<ellipse cx="61.4993" cy="211.125" rx="4.08333" ry="4.375" fill="#F88C28"/>
<path d="M67.7609 223.667H55.2378C54.5746 223.667 54.1007 223.033 54.3592 222.422C55.3918 219.983 57.7192 216.667 61.4993 216.667C65.2795 216.667 67.6069 219.983 68.6395 222.422C68.898 223.033 68.4241 223.667 67.7609 223.667Z" fill="#F88C28" stroke="#F88C28"/>
<circle cx="100.5" cy="117.5" r="17" fill="white" stroke="#55626F"/>
<ellipse cx="100.499" cy="113.125" rx="4.08333" ry="4.375" fill="#F88C28"/>
<path d="M106.761 125.667H94.2378C93.5746 125.667 93.1007 125.033 93.3592 124.422C94.3918 121.983 96.7192 118.667 100.499 118.667C104.28 118.667 106.607 121.983 107.639 124.422C107.898 125.033 107.424 125.667 106.761 125.667Z" fill="#F88C28" stroke="#F88C28"/>
<circle cx="197.5" cy="36.5" r="17" fill="white" stroke="#55626F"/>
<ellipse cx="197.499" cy="32.125" rx="4.08333" ry="4.375" fill="#F88C28"/>
<path d="M203.761 44.6667H191.238C190.575 44.6667 190.101 44.0332 190.359 43.4225C191.392 40.9833 193.719 37.6667 197.499 37.6667C201.28 37.6667 203.607 40.9833 204.639 43.4225C204.898 44.0332 204.424 44.6667 203.761 44.6667Z" fill="#F88C28" stroke="#F88C28"/>
<circle cx="338.5" cy="135.5" r="17" fill="white" stroke="#55626F"/>
<ellipse cx="338.499" cy="131.125" rx="4.08333" ry="4.375" fill="#F88C28"/>
<path d="M344.761 143.667H332.238C331.575 143.667 331.101 143.033 331.359 142.422C332.392 139.983 334.719 136.667 338.499 136.667C342.28 136.667 344.607 139.983 345.639 142.422C345.898 143.033 345.424 143.667 344.761 143.667Z" fill="#F88C28" stroke="#F88C28"/>
<circle cx="261.5" cy="247.5" r="17" fill="white" stroke="#55626F"/>
<ellipse cx="261.499" cy="243.125" rx="4.08333" ry="4.375" fill="#F88C28"/>
<path d="M267.761 255.667H255.238C254.575 255.667 254.101 255.033 254.359 254.422C255.392 251.983 257.719 248.667 261.499 248.667C265.28 248.667 267.607 251.983 268.639 254.422C268.898 255.033 268.424 255.667 267.761 255.667Z" fill="#F88C28" stroke="#F88C28"/>
</svg>
