<svg width="377" height="29" viewBox="0 0 377 29" fill="none" xmlns="http://www.w3.org/2000/svg">
<path d="M1.14306 28.4791C0.878467 28.5581 0.599917 28.4077 0.520904 28.1431C0.441892 27.8785 0.592338 27.5999 0.856936 27.5209L1.14306 28.4791ZM376.424 21.8092C376.57 22.0436 376.499 22.352 376.264 22.4979L372.444 24.8758C372.209 25.0217 371.901 24.9499 371.755 24.7155C371.609 24.4811 371.681 24.1727 371.915 24.0268L375.311 21.9131L373.198 18.5172C373.052 18.2828 373.123 17.9744 373.358 17.8285C373.592 17.6826 373.901 17.7543 374.047 17.9888L376.424 21.8092ZM2.2606 27.1038C2.52541 27.0255 2.80355 27.1767 2.88185 27.4415C2.96015 27.7063 2.80895 27.9845 2.54414 28.0628L2.2606 27.1038ZM5.42851 27.2186C5.16328 27.2954 4.88597 27.1427 4.80912 26.8774C4.73228 26.6122 4.885 26.3349 5.15023 26.2581L5.42851 27.2186ZM8.05033 25.4264C8.31597 25.3509 8.59245 25.5052 8.66786 25.7708C8.74327 26.0365 8.58905 26.3129 8.3234 26.3883L8.05033 25.4264ZM11.2084 25.5777C10.9424 25.6517 10.6667 25.496 10.5927 25.2299C10.5187 24.9639 10.6744 24.6882 10.9405 24.6142L11.2084 25.5777ZM13.866 23.8089C14.1325 23.7363 14.4073 23.8934 14.4799 24.1599C14.5525 24.4263 14.3953 24.7011 14.1289 24.7737L13.866 23.8089ZM17.0051 23.998C16.7383 24.0693 16.4643 23.9107 16.393 23.6439C16.3218 23.3771 16.4804 23.1031 16.7472 23.0319L17.0051 23.998ZM19.7095 22.2494C19.9766 22.1796 20.2498 22.3395 20.3197 22.6067C20.3895 22.8739 20.2295 23.1471 19.9623 23.2169L19.7095 22.2494ZM22.8247 22.4764C22.5572 22.5449 22.2848 22.3836 22.2163 22.116C22.1478 21.8485 22.3091 21.5761 22.5766 21.5076L22.8247 22.4764ZM25.5144 20.7633C25.7822 20.6962 26.0538 20.8589 26.1209 21.1267C26.1881 21.3946 26.0254 21.6662 25.7575 21.7333L25.5144 20.7633ZM28.6735 21.01C28.4054 21.0758 28.1346 20.9117 28.0688 20.6435C28.0029 20.3754 28.167 20.1046 28.4352 20.0388L28.6735 21.01ZM31.3469 19.3317C31.6154 19.2672 31.8853 19.4325 31.9498 19.701C32.0143 19.9695 31.849 20.2395 31.5805 20.304L31.3469 19.3317ZM34.5501 19.5983C34.2813 19.6614 34.0121 19.4948 33.9489 19.2259C33.8857 18.9571 34.0524 18.688 34.3213 18.6248L34.5501 19.5983ZM37.2137 17.9522C37.4828 17.8902 37.7512 18.0582 37.8131 18.3273C37.875 18.5964 37.707 18.8648 37.4379 18.9267L37.2137 17.9522ZM40.3746 18.2585C40.1052 18.3192 39.8376 18.1499 39.777 17.8805C39.7164 17.6111 39.8857 17.3436 40.1551 17.2829L40.3746 18.2585ZM43.1205 16.6231C43.3902 16.5638 43.6569 16.7343 43.7162 17.004C43.7756 17.2737 43.605 17.5404 43.3354 17.5998L43.1205 16.6231ZM46.2405 16.9678C45.9705 17.0258 45.7046 16.8541 45.6465 16.5841C45.5884 16.3141 45.7602 16.0482 46.0302 15.9901L46.2405 16.9678ZM48.9899 15.3607C49.2602 15.3039 49.5253 15.4769 49.5821 15.7471C49.6389 16.0174 49.4659 16.2825 49.1956 16.3393L48.9899 15.3607ZM52.1522 15.725C51.8817 15.7805 51.6174 15.6063 51.5619 15.3358C51.5063 15.0653 51.6806 14.801 51.9511 14.7454L52.1522 15.725ZM54.876 14.1518C55.1467 14.0975 55.4102 14.2729 55.4646 14.5437C55.5189 14.8144 55.3434 15.0779 55.0727 15.1322L54.876 14.1518ZM58.0381 14.5445C57.7671 14.5975 57.5044 14.4209 57.4514 14.1499C57.3983 13.8789 57.575 13.6162 57.846 13.5631L58.0381 14.5445ZM60.8137 12.9891C61.0849 12.9372 61.3468 13.1151 61.3986 13.3863C61.4504 13.6576 61.2726 13.9195 61.0013 13.9713L60.8137 12.9891ZM63.9303 13.4185C63.6588 13.4691 63.3977 13.29 63.3471 13.0186C63.2965 12.7471 63.4756 12.486 63.747 12.4354L63.9303 13.4185ZM66.7213 11.8879C66.9929 11.8385 67.2532 12.0188 67.3026 12.2905C67.352 12.5622 67.1718 12.8224 66.9001 12.8718L66.7213 11.8879ZM69.8792 12.3373C69.6073 12.3855 69.3479 12.2041 69.2997 11.9321C69.2516 11.6602 69.433 11.4008 69.7049 11.3526L69.8792 12.3373ZM72.6417 10.8392C72.9138 10.7923 73.1724 10.9748 73.2194 11.2469C73.2663 11.5191 73.0838 11.7777 72.8117 11.8247L72.6417 10.8392ZM75.7813 11.3191C75.509 11.3648 75.2511 11.1811 75.2054 10.9088C75.1596 10.6365 75.3433 10.3786 75.6156 10.3329L75.7813 11.3191ZM78.6233 9.83461C78.8958 9.79008 79.1529 9.97492 79.1974 10.2474C79.2419 10.52 79.0571 10.777 78.7845 10.8215L78.6233 9.83461ZM81.7166 10.349C81.4439 10.3924 81.1877 10.2064 81.1443 9.93369C81.101 9.66097 81.287 9.40476 81.5597 9.36141L81.7166 10.349ZM84.5301 8.896C84.803 8.85385 85.0584 9.04092 85.1005 9.31382C85.1427 9.58673 84.9556 9.84213 84.6827 9.88428L84.5301 8.896ZM87.6826 9.42771C87.4095 9.46866 87.1549 9.28048 87.114 9.00739C87.073 8.7343 87.2612 8.47972 87.5343 8.43877L87.6826 9.42771ZM90.5017 8.00037C90.7749 7.96061 91.0287 8.14989 91.0685 8.42315C91.1082 8.69642 90.919 8.95018 90.6457 8.98995L90.5017 8.00037ZM93.6057 8.56568C93.3323 8.60427 93.0793 8.4139 93.0407 8.14046C93.0021 7.86703 93.1925 7.61409 93.4659 7.57549L93.6057 8.56568ZM96.4613 7.15933C96.7349 7.12193 96.987 7.31339 97.0244 7.58699C97.0618 7.86059 96.8704 8.11271 96.5968 8.15012L96.4613 7.15933ZM99.5998 7.74612C99.3261 7.78234 99.0748 7.58979 99.0386 7.31603C99.0023 7.04228 99.1949 6.79099 99.4686 6.75476L99.5998 7.74612ZM102.425 6.36994C102.699 6.33487 102.949 6.52849 102.984 6.8024C103.019 7.0763 102.826 7.32677 102.552 7.36184L102.425 6.36994ZM105.533 6.98671C105.258 7.02061 105.009 6.82592 104.975 6.55187C104.941 6.27781 105.136 6.02817 105.41 5.99427L105.533 6.98671ZM108.423 5.62808C108.697 5.59536 108.946 5.79111 108.979 6.06531C109.012 6.3395 108.816 6.58831 108.542 6.62104L108.423 5.62808ZM111.523 6.27164C111.248 6.30321 111 6.10641 110.969 5.83208C110.937 5.55774 111.134 5.30976 111.408 5.2782L111.523 6.27164ZM114.382 4.94242C114.656 4.912 114.903 5.10984 114.934 5.3843C114.964 5.65877 114.766 5.90592 114.492 5.93633L114.382 4.94242ZM117.487 5.6108C117.213 5.64006 116.966 5.44118 116.937 5.16659C116.908 4.892 117.107 4.64569 117.381 4.61643L117.487 5.6108ZM120.407 4.30054C120.682 4.27245 120.927 4.47238 120.955 4.74709C120.984 5.0218 120.784 5.26727 120.509 5.29536L120.407 4.30054ZM123.476 4.99814C123.202 5.02509 122.957 4.82414 122.93 4.54932C122.903 4.2745 123.104 4.02986 123.379 4.00291L123.476 4.99814ZM126.364 3.71646C126.639 3.69065 126.883 3.89261 126.909 4.16754C126.934 4.44247 126.732 4.68627 126.457 4.71208L126.364 3.71646ZM129.463 4.43633C129.188 4.46098 128.945 4.25801 128.92 3.98297C128.896 3.70793 129.098 3.46498 129.374 3.44032L129.463 4.43633ZM132.403 3.17515C132.678 3.15165 132.92 3.35564 132.944 3.63078C132.967 3.90593 132.763 4.14802 132.488 4.17153L132.403 3.17515ZM135.454 3.92429C135.179 3.94666 134.938 3.74168 134.915 3.46644C134.893 3.19121 135.098 2.94995 135.373 2.92757L135.454 3.92429ZM138.366 2.69049C138.641 2.66925 138.882 2.87523 138.903 3.15055C138.924 3.42587 138.718 3.66629 138.443 3.68753L138.366 2.69049ZM141.454 3.4615C141.179 3.4816 140.939 3.27463 140.919 2.99922C140.899 2.72381 141.106 2.48425 141.381 2.46415L141.454 3.4615ZM144.41 2.24944C144.685 2.23048 144.924 2.43844 144.943 2.71393C144.962 2.98942 144.754 3.22812 144.479 3.24708L144.41 2.24944ZM147.45 3.04865C147.175 3.06648 146.937 2.85755 146.919 2.58199C146.901 2.30642 147.11 2.06857 147.386 2.05074L147.45 3.04865ZM150.383 1.86289C150.658 1.84618 150.895 2.05608 150.912 2.33171C150.929 2.60735 150.719 2.84435 150.443 2.86106L150.383 1.86289ZM153.457 2.68454C153.182 2.70012 152.945 2.48925 152.93 2.21355C152.914 1.93785 153.125 1.70172 153.401 1.68613L153.457 2.68454ZM156.435 1.52094C156.711 1.50649 156.946 1.71834 156.96 1.9941C156.975 2.26986 156.763 2.50513 156.487 2.51957L156.435 1.52094ZM159.462 2.36976C159.186 2.3831 158.951 2.17031 158.938 1.89449C158.925 1.61867 159.138 1.38426 159.413 1.37093L159.462 2.36976ZM162.412 1.23207C162.687 1.21985 162.921 1.43358 162.933 1.70946C162.945 1.98533 162.732 2.21887 162.456 2.23109L162.412 1.23207ZM165.469 2.10376C165.193 2.11486 164.961 1.90018 164.95 1.62426C164.939 1.34834 165.153 1.11567 165.429 1.10457L165.469 2.10376ZM168.466 0.988642C168.742 0.978672 168.974 1.1943 168.984 1.47026C168.994 1.74623 168.778 1.97802 168.502 1.98799L168.466 0.988642ZM171.485 1.88623C171.209 1.89509 170.978 1.67853 170.969 1.40253C170.96 1.12653 171.177 0.895607 171.453 0.886742L171.485 1.88623ZM174.449 0.796511C174.725 0.788754 174.955 1.00624 174.963 1.28227C174.971 1.5583 174.753 1.78836 174.477 1.79612L174.449 0.796511ZM177.488 1.71757C177.212 1.72422 176.983 1.50581 176.976 1.22975C176.97 0.953688 177.188 0.724508 177.464 0.717863L177.488 1.71757ZM180.497 0.65099C180.773 0.64546 181.002 0.864792 181.007 1.14088C181.013 1.41697 180.793 1.64526 180.517 1.65079L180.497 0.65099ZM183.517 1.59671C183.241 1.60114 183.014 1.3809 183.009 1.10479C183.005 0.828684 183.225 0.601269 183.501 0.596842L183.517 1.59671ZM186.494 0.554823C186.77 0.551495 186.997 0.772638 187 1.04876C187.003 1.32488 186.782 1.55142 186.506 1.55475L186.494 0.554823ZM189.512 1.52452C189.236 1.52675 189.01 1.3047 189.008 1.02857C189.006 0.752436 189.228 0.526779 189.504 0.524555L189.512 1.52452ZM192.531 0.50622C192.807 0.5051 193.032 0.728048 193.033 1.00419C193.034 1.28033 192.811 1.50509 192.535 1.50621L192.531 0.50622ZM195.557 1.5C195.281 1.50002 195.057 1.27617 195.057 1.00003C195.057 0.723888 195.281 0.500017 195.557 0.500002L195.557 1.5ZM198.544 0.505716C198.82 0.506788 199.043 0.731512 199.042 1.00765C199.041 1.28379 198.816 1.50678 198.54 1.50571L198.544 0.505716ZM201.54 1.52328C201.264 1.52112 201.041 1.29552 201.044 1.01938C201.046 0.743248 201.271 0.521151 201.548 0.523314L201.54 1.52328ZM204.567 0.552965C204.843 0.556225 205.064 0.782709 205.061 1.05883C205.057 1.33496 204.831 1.55616 204.555 1.5529L204.567 0.552965ZM207.586 1.59471C207.31 1.59035 207.089 1.36299 207.094 1.08688C207.098 0.810774 207.325 0.590479 207.602 0.594837L207.586 1.59471ZM210.598 0.648027C210.874 0.653469 211.093 0.881697 211.088 1.15779C211.083 1.43387 210.854 1.65327 210.578 1.64783L210.598 0.648027ZM213.569 1.71266C213.293 1.70614 213.075 1.47705 213.081 1.20099C213.088 0.924923 213.317 0.706417 213.593 0.71294L213.569 1.71266ZM216.603 0.789993C216.879 0.797604 217.096 1.02754 217.089 1.30358C217.081 1.57962 216.851 1.79722 216.575 1.78961L216.603 0.789993ZM219.596 1.87885C219.32 1.87015 219.103 1.63935 219.112 1.36334C219.121 1.08734 219.351 0.870644 219.627 0.879341L219.596 1.87885ZM222.654 0.980703C222.93 0.990488 223.146 1.22214 223.136 1.49811C223.126 1.77408 222.895 1.98986 222.619 1.98008L222.654 0.980703ZM225.6 2.09158C225.324 2.08072 225.109 1.84824 225.12 1.57231C225.131 1.29638 225.363 1.0815 225.639 1.09236L225.6 2.09158ZM228.638 1.2162C228.914 1.22813 229.128 1.46145 229.116 1.73734C229.104 2.01322 228.871 2.2272 228.595 2.21527L228.638 1.2162ZM231.604 2.35128C231.328 2.33827 231.115 2.10412 231.128 1.82828C231.141 1.55244 231.375 1.33938 231.651 1.35239L231.604 2.35128ZM234.678 1.50106C234.954 1.51515 235.166 1.75014 235.152 2.02592C235.138 2.3017 234.903 2.51385 234.627 2.49976L234.678 1.50106ZM237.631 2.65908C237.355 2.64392 237.144 2.40811 237.159 2.13239C237.174 1.85666 237.41 1.64543 237.686 1.66059L237.631 2.65908ZM240.673 1.8306C240.949 1.84682 241.159 2.08345 241.143 2.35911C241.126 2.63478 240.89 2.8451 240.614 2.82887L240.673 1.8306ZM243.61 3.01101C243.335 2.99372 243.125 2.75629 243.143 2.48069C243.16 2.20509 243.397 1.99569 243.673 2.01298L243.61 3.01101ZM246.686 2.20785C246.961 2.22621 247.17 2.46445 247.151 2.73998C247.133 3.01551 246.895 3.224 246.619 3.20564L246.686 2.20785ZM249.641 3.41288C249.366 3.39345 249.158 3.1544 249.178 2.87894C249.197 2.60348 249.436 2.39593 249.711 2.41536L249.641 3.41288ZM252.705 2.63232C252.981 2.65281 253.187 2.89266 253.167 3.16804C253.146 3.44342 252.907 3.65005 252.631 3.62956L252.705 2.63232ZM255.613 3.85717C255.338 3.83562 255.132 3.59499 255.154 3.31968C255.175 3.04438 255.416 2.83867 255.691 2.86021L255.613 3.85717ZM258.689 3.1006C258.965 3.1232 259.169 3.36462 259.147 3.63984C259.124 3.91505 258.883 4.11984 258.608 4.09724L258.689 3.1006ZM261.614 4.34993C261.339 4.32627 261.135 4.08406 261.159 3.80893C261.182 3.5338 261.424 3.32995 261.7 3.35361L261.614 4.34993ZM264.722 3.61936C264.997 3.64408 265.2 3.88708 265.175 4.16211C265.15 4.43714 264.907 4.64006 264.632 4.61534L264.722 3.61936ZM267.613 4.88896C267.338 4.8632 267.136 4.61943 267.162 4.34449C267.188 4.06955 267.431 3.86756 267.706 3.89332L267.613 4.88896ZM270.688 4.17852C270.963 4.20533 271.164 4.44986 271.137 4.7247C271.111 4.99954 270.866 5.20061 270.591 5.17379L270.688 4.17852ZM273.581 5.4712C273.306 5.44334 273.106 5.19804 273.134 4.92331C273.162 4.64857 273.407 4.44844 273.682 4.4763L273.581 5.4712ZM276.687 4.78679C276.962 4.81569 277.161 5.06175 277.132 5.33638C277.103 5.611 276.857 5.8102 276.582 5.78129L276.687 4.78679ZM279.595 6.1042C279.32 6.07424 279.122 5.82742 279.152 5.55291C279.182 5.27839 279.429 5.08014 279.703 5.1101L279.595 6.1042ZM282.682 5.44091C282.957 5.47191 283.154 5.71947 283.123 5.99387C283.092 6.26827 282.845 6.46559 282.57 6.4346L282.682 5.44091ZM285.542 6.77599C285.268 6.74396 285.072 6.49565 285.104 6.22137C285.136 5.9471 285.384 5.75071 285.658 5.78274L285.542 6.77599ZM288.645 6.13721C288.919 6.17027 289.115 6.41932 289.082 6.69348C289.049 6.96763 288.8 7.16308 288.525 7.13002L288.645 6.13721ZM291.519 7.49679C291.245 7.46269 291.051 7.2129 291.085 6.93887C291.119 6.66484 291.368 6.47034 291.643 6.50444L291.519 7.49679ZM294.65 6.88455C294.924 6.91969 295.118 7.17021 295.083 7.44411C295.048 7.71801 294.797 7.91156 294.523 7.87642L294.65 6.88455ZM297.498 8.26371C297.224 8.22754 297.031 7.97629 297.068 7.70253C297.104 7.42876 297.355 7.23615 297.629 7.27232L297.498 8.26371ZM300.596 7.67002C300.87 7.70721 301.062 7.95918 301.025 8.23281C300.987 8.50643 300.735 8.6981 300.462 8.66092L300.596 7.67002ZM303.436 9.07079C303.162 9.03258 302.972 8.7799 303.01 8.50641C303.048 8.23293 303.301 8.0422 303.574 8.08041L303.436 9.07079ZM306.562 8.50358C306.835 8.54282 307.025 8.79622 306.986 9.06956C306.946 9.3429 306.693 9.53267 306.42 9.49344L306.562 8.50358ZM309.414 9.92897C309.14 9.8887 308.952 9.6346 308.992 9.3614C309.032 9.08821 309.286 8.89939 309.559 8.93966L309.414 9.92897ZM312.541 9.38473C312.814 9.42601 313.001 9.68082 312.96 9.95386C312.919 10.2269 312.664 10.4148 312.391 10.3735L312.541 9.38473ZM315.345 10.8257C315.072 10.7834 314.885 10.5279 314.927 10.255C314.969 9.98211 315.225 9.79519 315.498 9.83748L315.345 10.8257ZM318.464 10.3029C318.737 10.3462 318.923 10.6024 318.88 10.8752C318.837 11.1479 318.58 11.3339 318.308 11.2906L318.464 10.3029ZM321.28 11.7682C321.007 11.7239 320.822 11.467 320.867 11.1944C320.911 10.9219 321.168 10.7368 321.441 10.7812L321.28 11.7682ZM324.426 11.2723C324.698 11.3176 324.882 11.5752 324.837 11.8476C324.792 12.12 324.534 12.3041 324.262 12.2587L324.426 11.2723ZM327.246 12.7611C326.974 12.7147 326.79 12.4565 326.837 12.1842C326.883 11.912 327.141 11.7289 327.414 11.7752L327.246 12.7611ZM330.359 12.2822C330.631 12.3295 330.813 12.5884 330.765 12.8605C330.718 13.1325 330.459 13.3147 330.187 13.2674L330.359 12.2822ZM333.137 13.7863C332.865 13.738 332.684 13.4784 332.732 13.2065C332.781 12.9346 333.04 12.7534 333.312 12.8018L333.137 13.7863ZM336.275 13.3341C336.546 13.3835 336.727 13.6437 336.677 13.9154C336.628 14.1871 336.368 14.3674 336.096 14.318L336.275 13.3341ZM339.064 14.8626C338.792 14.8123 338.613 14.5513 338.663 14.2798C338.714 14.0083 338.975 13.829 339.246 13.8794L339.064 14.8626ZM342.226 14.4376C342.497 14.4889 342.676 14.7505 342.624 15.0218C342.573 15.2931 342.311 15.4715 342.04 15.4201L342.226 14.4376ZM344.985 15.983C344.714 15.9307 344.537 15.6684 344.589 15.3973C344.642 15.1262 344.904 14.9488 345.175 15.0011L344.985 15.983ZM348.114 15.5739C348.385 15.6272 348.561 15.8901 348.508 16.161C348.455 16.432 348.192 16.6084 347.921 16.5551L348.114 15.5739ZM350.865 17.1399C350.594 17.0856 350.418 16.8221 350.473 16.5513C350.527 16.2806 350.79 16.1051 351.061 16.1594L350.865 17.1399ZM354.017 16.7577C354.287 16.813 354.462 17.0771 354.406 17.3477C354.351 17.6182 354.087 17.7927 353.816 17.7375L354.017 16.7577ZM356.777 18.348C356.506 18.2917 356.333 18.0269 356.389 17.7566C356.445 17.4862 356.71 17.3127 356.98 17.3689L356.777 18.348ZM359.944 17.9914C360.214 18.0486 360.386 18.3141 360.329 18.5842C360.272 18.8543 360.007 19.0269 359.736 18.9697L359.944 17.9914ZM362.655 19.5938C362.386 19.5356 362.214 19.2696 362.272 18.9996C362.33 18.7297 362.596 18.5581 362.866 18.6163L362.655 19.5938ZM365.797 19.2539C366.066 19.3131 366.237 19.5797 366.178 19.8494C366.119 20.1192 365.852 20.2898 365.582 20.2306L365.797 19.2539ZM368.517 20.8802C368.247 20.82 368.078 20.5528 368.138 20.2833C368.198 20.0138 368.465 19.8441 368.735 19.9042L368.517 20.8802ZM371.681 20.5674C371.95 20.6285 372.119 20.8964 372.057 21.1657C371.996 21.435 371.728 21.6037 371.459 21.5426L371.681 20.5674ZM374.409 22.2179C374.14 22.1558 373.972 21.8873 374.034 21.6183C374.096 21.3492 374.365 21.1814 374.634 21.2435L374.409 22.2179ZM0.856936 27.5209C1.32023 27.3826 1.78813 27.2435 2.2606 27.1038L2.54414 28.0628C2.07254 28.2022 1.60551 28.341 1.14306 28.4791L0.856936 27.5209ZM5.15023 26.2581C6.09995 25.9829 7.06669 25.7056 8.05033 25.4264L8.3234 26.3883C7.34151 26.6671 6.37651 26.9439 5.42851 27.2186L5.15023 26.2581ZM10.9405 24.6142C11.9007 24.3472 12.8759 24.0786 13.866 23.8089L14.1289 24.7737C13.1405 25.043 12.167 25.3111 11.2084 25.5777L10.9405 24.6142ZM16.7472 23.0319C17.7211 22.7719 18.7086 22.511 19.7095 22.2494L19.9623 23.2169C18.9631 23.4781 17.9773 23.7385 17.0051 23.998L16.7472 23.0319ZM22.5766 21.5076C23.544 21.2599 24.5233 21.0118 25.5144 20.7633L25.7575 21.7333C24.7681 21.9813 23.7905 22.2291 22.8247 22.4764L22.5766 21.5076ZM28.4352 20.0388C29.3952 19.8031 30.3658 19.5674 31.3469 19.3317L31.5805 20.304C30.601 20.5393 29.632 20.7747 28.6735 21.01L28.4352 20.0388ZM34.3213 18.6248C35.276 18.4004 36.2402 18.1761 37.2137 17.9522L37.4379 18.9267C36.4659 19.1503 35.5033 19.3742 34.5501 19.5983L34.3213 18.6248ZM40.1551 17.2829C41.1345 17.0626 42.123 16.8426 43.1205 16.6231L43.3354 17.5998C42.3394 17.8189 41.3524 18.0385 40.3746 18.2585L40.1551 17.2829ZM46.0302 15.9901C47.0084 15.7797 47.995 15.5698 48.9899 15.3607L49.1956 16.3393C48.2023 16.5481 47.2172 16.7576 46.2405 16.9678L46.0302 15.9901ZM51.9511 14.7454C52.9185 14.5468 53.8935 14.3488 54.876 14.1518L55.0727 15.1322C54.0917 15.329 53.1182 15.5266 52.1522 15.725L51.9511 14.7454ZM57.846 13.5631C58.828 13.3708 59.8172 13.1794 60.8137 12.9891L61.0013 13.9713C60.0064 14.1614 59.0186 14.3525 58.0381 14.5445L57.846 13.5631ZM63.747 12.4354C64.7316 12.2519 65.7231 12.0693 66.7213 11.8879L66.9001 12.8718C65.9034 13.053 64.9134 13.2352 63.9303 13.4185L63.747 12.4354ZM69.7049 11.3526C70.6776 11.1804 71.6565 11.0092 72.6417 10.8392L72.8117 11.8247C71.828 11.9944 70.8505 12.1653 69.8792 12.3373L69.7049 11.3526ZM75.6156 10.3329C76.6121 10.1655 77.6146 9.99941 78.6233 9.83461L78.7845 10.8215C77.7773 10.9861 76.7762 11.152 75.7813 11.3191L75.6156 10.3329ZM81.5597 9.36141C82.5441 9.20496 83.5343 9.0498 84.5301 8.896L84.6827 9.88428C83.6884 10.0379 82.6997 10.1928 81.7166 10.349L81.5597 9.36141ZM87.5343 8.43877C88.5181 8.29125 89.5072 8.1451 90.5017 8.00037L90.6457 8.98995C89.6526 9.13447 88.6649 9.28041 87.6826 9.42771L87.5343 8.43877ZM93.4659 7.57549C94.4592 7.4353 95.4577 7.29656 96.4613 7.15933L96.5968 8.15012C95.5946 8.28715 94.5976 8.42569 93.6057 8.56568L93.4659 7.57549ZM99.4686 6.75476C100.449 6.625 101.435 6.4967 102.425 6.36994L102.552 7.36184C101.563 7.48843 100.579 7.61654 99.5998 7.74612L99.4686 6.75476ZM105.41 5.99427C106.409 5.87061 107.414 5.74853 108.423 5.62808L108.542 6.62104C107.534 6.74131 106.531 6.86322 105.533 6.98671L105.41 5.99427ZM111.408 5.2782C112.395 5.16467 113.386 5.05273 114.382 4.94242L114.492 5.93633C113.498 6.04649 112.508 6.15828 111.523 6.27164L111.408 5.2782ZM117.381 4.61643C118.386 4.50944 119.394 4.40413 120.407 4.30054L120.509 5.29536C119.497 5.39879 118.49 5.50396 117.487 5.6108L117.381 4.61643ZM123.379 4.00291C124.37 3.90574 125.365 3.81024 126.364 3.71646L126.457 4.71208C125.46 4.80573 124.466 4.9011 123.476 4.99814L123.379 4.00291ZM129.374 3.44032C130.379 3.35016 131.389 3.26175 132.403 3.17515L132.488 4.17153C131.476 4.25801 130.467 4.34629 129.463 4.43633L129.374 3.44032ZM135.373 2.92757C136.367 2.84678 137.364 2.76774 138.366 2.69049L138.443 3.68753C137.443 3.76467 136.447 3.84361 135.454 3.92429L135.373 2.92757ZM141.381 2.46415C142.387 2.39075 143.397 2.31916 144.41 2.24944L144.479 3.24708C143.467 3.31671 142.458 3.38819 141.454 3.4615L141.381 2.46415ZM147.386 2.05074C148.381 1.9863 149.38 1.92367 150.383 1.86289L150.443 2.86106C149.442 2.92175 148.445 2.9843 147.45 3.04865L147.386 2.05074ZM153.401 1.68613C154.409 1.62918 155.42 1.5741 156.435 1.52094L156.487 2.51957C155.474 2.57266 154.464 2.62766 153.457 2.68454L153.401 1.68613ZM159.413 1.37093C160.41 1.32277 161.409 1.27647 162.412 1.23207L162.456 2.23109C161.454 2.27543 160.456 2.32167 159.462 2.36976L159.413 1.37093ZM165.429 1.10457C166.438 1.06399 167.451 1.02533 168.466 0.988642L168.502 1.98799C167.488 2.02463 166.477 2.06323 165.469 2.10376L165.429 1.10457ZM171.453 0.886742C172.448 0.854755 173.447 0.824669 174.449 0.796511L174.477 1.79612C173.477 1.82424 172.479 1.85428 171.485 1.88623L171.453 0.886742ZM177.464 0.717863C178.472 0.693598 179.483 0.671297 180.497 0.65099L180.517 1.65079C179.505 1.67107 178.495 1.69334 177.488 1.71757L177.464 0.717863ZM183.501 0.596842C184.496 0.580896 185.494 0.566879 186.494 0.554823L186.506 1.55475C185.507 1.56679 184.511 1.58079 183.517 1.59671L183.501 0.596842ZM189.504 0.524555C190.51 0.516443 191.519 0.510323 192.531 0.50622L192.535 1.50621C191.525 1.51031 190.517 1.51642 189.512 1.52452L189.504 0.524555ZM195.557 0.500002C196.55 0.499945 197.546 0.501839 198.544 0.505716L198.54 1.50571C197.543 1.50184 196.549 1.49994 195.557 1.5L195.557 0.500002ZM201.548 0.523314C202.551 0.531179 203.558 0.541054 204.567 0.552965L204.555 1.5529C203.547 1.541 202.542 1.53114 201.54 1.52328L201.548 0.523314ZM207.602 0.594837C208.598 0.610565 209.597 0.628286 210.598 0.648027L210.578 1.64783C209.578 1.62812 208.581 1.61042 207.586 1.59471L207.602 0.594837ZM213.593 0.71294C214.594 0.736593 215.597 0.762268 216.603 0.789993L216.575 1.78961C215.571 1.76192 214.569 1.73628 213.569 1.71266L213.593 0.71294ZM219.627 0.879341C220.634 0.91106 221.643 0.944839 222.654 0.980703L222.619 1.98008C221.609 1.94426 220.601 1.91052 219.596 1.87885L219.627 0.879341ZM225.639 1.09236C226.637 1.1316 227.636 1.17287 228.638 1.2162L228.595 2.21527C227.595 2.17199 226.596 2.13077 225.6 2.09158L225.639 1.09236ZM231.651 1.35239C232.658 1.39986 233.667 1.44941 234.678 1.50106L234.627 2.49976C233.617 2.44817 232.609 2.39869 231.604 2.35128L231.651 1.35239ZM237.686 1.66059C238.679 1.71522 239.675 1.77188 240.673 1.8306L240.614 2.82887C239.618 2.77023 238.623 2.71364 237.631 2.65908L237.686 1.66059ZM243.673 2.01298C244.675 2.07584 245.679 2.14079 246.686 2.20785L246.619 3.20564C245.614 3.13867 244.611 3.0738 243.61 3.01101L243.673 2.01298ZM249.711 2.41536C250.707 2.4856 251.705 2.55792 252.705 2.63232L252.631 3.62956C251.632 3.55526 250.636 3.48304 249.641 3.41288L249.711 2.41536ZM255.691 2.86021C256.689 2.93825 257.688 3.01837 258.689 3.1006L258.608 4.09724C257.607 4.01512 256.609 3.9351 255.613 3.85717L255.691 2.86021ZM261.7 3.35361C262.705 3.44006 263.712 3.52863 264.722 3.61936L264.632 4.61534C263.624 4.52473 262.618 4.43627 261.614 4.34993L261.7 3.35361ZM267.706 3.89332C268.698 3.98631 269.692 4.08136 270.688 4.17852L270.591 5.17379C269.597 5.07676 268.604 4.98182 267.613 4.88896L267.706 3.89332ZM273.682 4.4763C274.682 4.57767 275.683 4.68116 276.687 4.78679L276.582 5.78129C275.58 5.6758 274.58 5.57244 273.581 5.4712L273.682 4.4763ZM279.703 5.1101C280.694 5.21827 281.687 5.32854 282.682 5.44091L282.57 6.4346C281.577 6.32236 280.585 6.21223 279.595 6.1042L279.703 5.1101ZM285.658 5.78274C286.652 5.89878 287.648 6.01693 288.645 6.13721L288.525 7.13002C287.529 7.00989 286.535 6.89189 285.542 6.77599L285.658 5.78274ZM291.643 6.50444C292.643 6.62899 293.646 6.75569 294.65 6.88455L294.523 7.87642C293.52 7.74772 292.519 7.62119 291.519 7.49679L291.643 6.50444ZM297.629 7.27232C298.616 7.40279 299.605 7.53535 300.596 7.67002L300.462 8.66092C299.472 8.52641 298.484 8.39401 297.498 8.26371L297.629 7.27232ZM303.574 8.08041C304.568 8.21933 305.564 8.36038 306.562 8.50358L306.42 9.49344C305.423 9.35041 304.429 9.20954 303.436 9.07079L303.574 8.08041ZM309.559 8.93966C310.552 9.08588 311.545 9.23423 312.541 9.38473L312.391 10.3735C311.397 10.2232 310.405 10.075 309.414 9.92897L309.559 8.93966ZM315.498 9.83748C316.485 9.99051 317.474 10.1457 318.464 10.3029L318.308 11.2906C317.318 11.1335 316.331 10.9785 315.345 10.8257L315.498 9.83748ZM321.441 10.7812C322.434 10.9427 323.429 11.1064 324.426 11.2723L324.262 12.2587C323.266 12.0931 322.272 11.9296 321.28 11.7682L321.441 10.7812ZM327.414 11.7752C328.394 11.9421 329.375 12.1111 330.359 12.2822L330.187 13.2674C329.205 13.0965 328.225 12.9277 327.246 12.7611L327.414 11.7752ZM333.312 12.8018C334.298 12.9771 335.286 13.1545 336.275 13.3341L336.096 14.318C335.108 14.1387 334.122 13.9614 333.137 13.7863L333.312 12.8018ZM339.246 13.8794C340.238 14.0633 341.231 14.2493 342.226 14.4376L342.04 15.4201C341.047 15.2321 340.054 15.0463 339.064 14.8626L339.246 13.8794ZM345.175 15.0011C346.153 15.1899 347.133 15.3808 348.114 15.5739L347.921 16.5551C346.941 16.3623 345.962 16.1716 344.985 15.983L345.175 15.0011ZM351.061 16.1594C352.045 16.3567 353.03 16.5561 354.017 16.7577L353.816 17.7375C352.831 17.5361 351.847 17.3369 350.865 17.1399L351.061 16.1594ZM356.98 17.3689C357.967 17.5743 358.955 17.7817 359.944 17.9914L359.736 18.9697C358.748 18.7603 357.762 18.553 356.777 18.348L356.98 17.3689ZM362.866 18.6163C363.842 18.8267 364.819 19.0392 365.797 19.2539L365.582 20.2306C364.605 20.0162 363.63 19.804 362.655 19.5938L362.866 18.6163ZM368.735 19.9042C369.715 20.1231 370.697 20.3442 371.681 20.5674L371.459 21.5426C370.477 21.3197 369.496 21.0989 368.517 20.8802L368.735 19.9042ZM374.634 21.2435C375.127 21.3573 375.62 21.4716 376.113 21.5864L375.887 22.5604C375.394 22.4457 374.901 22.3315 374.409 22.2179L374.634 21.2435Z" fill="#F88C28"/>
<path d="M233.646 24.3536C233.842 24.5488 234.158 24.5488 234.354 24.3536L237.536 21.1716C237.731 20.9763 237.731 20.6597 237.536 20.4645C237.34 20.2692 237.024 20.2692 236.828 20.4645L234 23.2929L231.172 20.4645C230.976 20.2692 230.66 20.2692 230.464 20.4645C230.269 20.6597 230.269 20.9763 230.464 21.1716L233.646 24.3536ZM234.5 2C234.5 1.72386 234.276 1.5 234 1.5C233.724 1.5 233.5 1.72386 233.5 2L234.5 2ZM234.5 22.625C234.5 22.3489 234.276 22.125 234 22.125C233.724 22.125 233.5 22.3489 233.5 22.625L234.5 22.625ZM233.5 19.875C233.5 20.1511 233.724 20.375 234 20.375C234.276 20.375 234.5 20.1511 234.5 19.875L233.5 19.875ZM234.5 17.125C234.5 16.8489 234.276 16.625 234 16.625C233.724 16.625 233.5 16.8489 233.5 17.125L234.5 17.125ZM233.5 14.375C233.5 14.6511 233.724 14.875 234 14.875C234.276 14.875 234.5 14.6511 234.5 14.375L233.5 14.375ZM234.5 11.625C234.5 11.3489 234.276 11.125 234 11.125C233.724 11.125 233.5 11.3489 233.5 11.625L234.5 11.625ZM233.5 8.875C233.5 9.15114 233.724 9.375 234 9.375C234.276 9.375 234.5 9.15114 234.5 8.875L233.5 8.875ZM234.5 6.125C234.5 5.84886 234.276 5.625 234 5.625C233.724 5.625 233.5 5.84886 233.5 6.125L234.5 6.125ZM233.5 3.375C233.5 3.65114 233.724 3.875 234 3.875C234.276 3.875 234.5 3.65114 234.5 3.375L233.5 3.375ZM234.5 24L234.5 22.625L233.5 22.625L233.5 24L234.5 24ZM234.5 19.875L234.5 17.125L233.5 17.125L233.5 19.875L234.5 19.875ZM234.5 14.375L234.5 11.625L233.5 11.625L233.5 14.375L234.5 14.375ZM234.5 8.875L234.5 6.125L233.5 6.125L233.5 8.875L234.5 8.875ZM234.5 3.375L234.5 2L233.5 2L233.5 3.375L234.5 3.375Z" fill="#F88C28"/>
<path d="M113.646 24.3536C113.842 24.5488 114.158 24.5488 114.354 24.3536L117.536 21.1716C117.731 20.9763 117.731 20.6597 117.536 20.4645C117.34 20.2692 117.024 20.2692 116.828 20.4645L114 23.2929L111.172 20.4645C110.976 20.2692 110.66 20.2692 110.464 20.4645C110.269 20.6597 110.269 20.9763 110.464 21.1716L113.646 24.3536ZM114.5 6C114.5 5.72386 114.276 5.5 114 5.5C113.724 5.5 113.5 5.72386 113.5 6L114.5 6ZM114.5 22.5C114.5 22.2239 114.276 22 114 22C113.724 22 113.5 22.2239 113.5 22.5L114.5 22.5ZM113.5 19.5C113.5 19.7761 113.724 20 114 20C114.276 20 114.5 19.7761 114.5 19.5L113.5 19.5ZM114.5 16.5C114.5 16.2239 114.276 16 114 16C113.724 16 113.5 16.2239 113.5 16.5L114.5 16.5ZM113.5 13.5C113.5 13.7761 113.724 14 114 14C114.276 14 114.5 13.7761 114.5 13.5L113.5 13.5ZM114.5 10.5C114.5 10.2239 114.276 10 114 10C113.724 10 113.5 10.2239 113.5 10.5L114.5 10.5ZM113.5 7.5C113.5 7.77614 113.724 8 114 8C114.276 8 114.5 7.77614 114.5 7.5L113.5 7.5ZM114.5 24L114.5 22.5L113.5 22.5L113.5 24L114.5 24ZM114.5 19.5L114.5 16.5L113.5 16.5L113.5 19.5L114.5 19.5ZM114.5 13.5L114.5 10.5L113.5 10.5L113.5 13.5L114.5 13.5ZM114.5 7.5L114.5 6L113.5 6L113.5 7.5L114.5 7.5Z" fill="#F88C28"/>
</svg>
