<svg width="290" height="295" viewBox="0 0 290 295" fill="none" xmlns="http://www.w3.org/2000/svg">
<rect width="290" height="295" rx="12" fill="white"/>
<rect x="20" y="20" width="194" height="60" rx="4" fill="#F6F7F8"/>
<path d="M35.98 45V34.92H37.009V39.68L41.608 34.92H42.924L38.227 39.785L43.309 45H41.965L37.009 39.96V45H35.98ZM43.032 45V44.097C43.312 44.1483 43.5243 44.1367 43.669 44.062C43.8183 43.9827 43.928 43.852 43.998 43.67C44.068 43.4833 44.1263 43.2523 44.173 42.977C44.2476 42.5197 44.3153 42.0157 44.376 41.465C44.4366 40.9143 44.4903 40.3077 44.537 39.645C44.5883 38.9777 44.6396 38.2427 44.691 37.44H49.829V45H48.807V38.427H45.643C45.6103 38.9217 45.573 39.414 45.531 39.904C45.489 40.394 45.4446 40.8653 45.398 41.318C45.356 41.766 45.3093 42.179 45.258 42.557C45.2066 42.935 45.153 43.2617 45.097 43.537C45.013 43.9523 44.901 44.2837 44.761 44.531C44.6256 44.7783 44.4226 44.9417 44.152 45.021C43.8813 45.1003 43.508 45.0933 43.032 45ZM57.7907 37.44V45H56.7897V39.113L52.6457 45H51.7777V37.44H52.7787V43.278L56.9297 37.44H57.7907ZM62.9544 45.21C62.2171 45.21 61.5777 45.0467 61.0364 44.72C60.4997 44.3933 60.0821 43.9337 59.7834 43.341C59.4847 42.7483 59.3354 42.053 59.3354 41.255C59.3354 40.429 59.4824 39.715 59.7764 39.113C60.0704 38.511 60.4834 38.0467 61.0154 37.72C61.5521 37.3933 62.1844 37.23 62.9124 37.23C63.6591 37.23 64.2961 37.4027 64.8234 37.748C65.3507 38.0887 65.7497 38.5787 66.0204 39.218C66.2911 39.8573 66.4147 40.6203 66.3914 41.507H65.3414V41.143C65.3227 40.163 65.1104 39.4233 64.7044 38.924C64.3031 38.4247 63.7151 38.175 62.9404 38.175C62.1284 38.175 61.5054 38.4387 61.0714 38.966C60.6421 39.4933 60.4274 40.2447 60.4274 41.22C60.4274 42.172 60.6421 42.9117 61.0714 43.439C61.5054 43.9617 62.1191 44.223 62.9124 44.223C63.4537 44.223 63.9251 44.0993 64.3264 43.852C64.7324 43.6 65.0521 43.2383 65.2854 42.767L66.2444 43.138C65.9457 43.796 65.5047 44.307 64.9214 44.671C64.3427 45.0303 63.6871 45.21 62.9544 45.21ZM60.0634 41.507V40.646H65.8384V41.507H60.0634ZM67.9378 45V37.44H68.9668V40.723H73.2298V37.44H74.2588V45H73.2298V41.71H68.9668V45H67.9378ZM78.2673 45V38.392H75.5863V37.44H81.9773V38.392H79.2963V45H78.2673ZM38.598 63.159V60.401H35.84V59.519H38.598V56.761H39.48V59.519H42.231V60.401H39.48V63.159H38.598ZM44.5854 65L48.2954 55.921H43.6264V54.92H49.3944V55.921L45.6914 65H44.5854ZM58.3145 65V63.047H53.5965V62.067L56.9705 54.92H58.1255L54.7515 62.067H58.3145V59.127H59.3505V62.067H60.4495V63.047H59.3505V65H58.3145ZM65.3156 54.717C65.9502 54.717 66.5242 54.871 67.0376 55.179C67.5556 55.4823 67.9662 55.8977 68.2696 56.425C68.5729 56.9477 68.7246 57.5357 68.7246 58.189V61.689C68.7246 62.361 68.5729 62.963 68.2696 63.495C67.9662 64.027 67.5509 64.447 67.0236 64.755C66.5009 65.0583 65.9059 65.21 65.2386 65.21C64.6646 65.21 64.1326 65.084 63.6426 64.832C63.1572 64.5753 62.7559 64.223 62.4386 63.775L63.2226 63.124C63.4372 63.4553 63.7219 63.7213 64.0766 63.922C64.4359 64.1227 64.8232 64.223 65.2386 64.223C65.7146 64.223 66.1346 64.111 66.4986 63.887C66.8672 63.6583 67.1566 63.3597 67.3666 62.991C67.5812 62.6177 67.6886 62.214 67.6886 61.78V59.582L67.9406 59.876C67.6512 60.338 67.2662 60.7113 66.7856 60.996C66.3096 61.2807 65.7869 61.423 65.2176 61.423C64.5969 61.423 64.0346 61.2737 63.5306 60.975C63.0312 60.6763 62.6346 60.275 62.3406 59.771C62.0512 59.267 61.9066 58.7047 61.9066 58.084C61.9066 57.4633 62.0606 56.8987 62.3686 56.39C62.6766 55.8767 63.0896 55.4707 63.6076 55.172C64.1256 54.8687 64.6949 54.717 65.3156 54.717ZM65.3156 55.711C64.8769 55.711 64.4779 55.8183 64.1186 56.033C63.7592 56.243 63.4722 56.5277 63.2576 56.887C63.0476 57.2463 62.9426 57.6453 62.9426 58.084C62.9426 58.5227 63.0476 58.9217 63.2576 59.281C63.4676 59.6403 63.7522 59.9273 64.1116 60.142C64.4709 60.352 64.8699 60.457 65.3086 60.457C65.7472 60.457 66.1462 60.352 66.5056 60.142C66.8696 59.9273 67.1566 59.6403 67.3666 59.281C67.5812 58.9217 67.6886 58.5227 67.6886 58.084C67.6886 57.65 67.5812 57.2533 67.3666 56.894C67.1566 56.5347 66.8719 56.2477 66.5126 56.033C66.1532 55.8183 65.7542 55.711 65.3156 55.711ZM73.6542 65.21C73.1316 65.21 72.6486 65.1027 72.2052 64.888C71.7619 64.6733 71.3839 64.377 71.0712 63.999C70.7586 63.621 70.5346 63.187 70.3992 62.697L71.3862 62.431C71.4749 62.795 71.6359 63.11 71.8692 63.376C72.1026 63.6373 72.3756 63.8403 72.6882 63.985C73.0056 64.1297 73.3369 64.202 73.6822 64.202C74.1302 64.202 74.5316 64.0947 74.8862 63.88C75.2456 63.6607 75.5302 63.3713 75.7402 63.012C75.9502 62.6527 76.0552 62.2583 76.0552 61.829C76.0552 61.3857 75.9456 60.9867 75.7262 60.632C75.5069 60.2727 75.2176 59.988 74.8582 59.778C74.4989 59.568 74.1069 59.463 73.6822 59.463C73.2062 59.463 72.7956 59.568 72.4502 59.778C72.1049 59.9833 71.8296 60.2423 71.6242 60.555L70.6862 60.163L70.9942 54.92H76.3772V55.907H71.4492L71.9602 55.424L71.6872 59.897L71.4282 59.554C71.7176 59.2227 72.0676 58.9637 72.4782 58.777C72.8889 58.5903 73.3206 58.497 73.7732 58.497C74.3939 58.497 74.9539 58.6463 75.4532 58.945C75.9526 59.239 76.3492 59.638 76.6432 60.142C76.9372 60.646 77.0842 61.2083 77.0842 61.829C77.0842 62.445 76.9279 63.0097 76.6152 63.523C76.3026 64.0317 75.8872 64.44 75.3692 64.748C74.8512 65.056 74.2796 65.21 73.6542 65.21ZM81.282 64.993L81.289 64.055L85.846 59.939C86.238 59.5843 86.497 59.2483 86.623 58.931C86.7537 58.609 86.819 58.273 86.819 57.923C86.819 57.5077 86.721 57.132 86.525 56.796C86.329 56.46 86.0654 56.194 85.734 55.998C85.4027 55.7973 85.0317 55.697 84.621 55.697C84.1917 55.697 83.809 55.7997 83.473 56.005C83.137 56.2103 82.871 56.481 82.675 56.817C82.4837 57.153 82.3904 57.5193 82.395 57.916H81.345C81.345 57.3047 81.4897 56.7563 81.779 56.271C82.0684 55.7857 82.4604 55.4053 82.955 55.13C83.4497 54.85 84.0097 54.71 84.635 54.71C85.2464 54.71 85.7947 54.8547 86.28 55.144C86.77 55.4287 87.155 55.816 87.435 56.306C87.7197 56.7913 87.862 57.3327 87.862 57.93C87.862 58.35 87.8107 58.721 87.708 59.043C87.61 59.3603 87.4537 59.6567 87.239 59.932C87.029 60.2027 86.7607 60.4827 86.434 60.772L82.388 64.426L82.227 64.006H87.862V64.993H81.282ZM92.6194 65.21C91.9894 65.21 91.4317 65.084 90.9464 64.832C90.4657 64.58 90.0877 64.2277 89.8124 63.775C89.5417 63.3177 89.4064 62.7833 89.4064 62.172C89.4064 61.5467 89.5581 60.9913 89.8614 60.506C90.1647 60.016 90.6267 59.645 91.2474 59.393L91.2334 59.799C90.7154 59.6077 90.3211 59.295 90.0504 58.861C89.7797 58.427 89.6444 57.9463 89.6444 57.419C89.6444 56.859 89.7727 56.3783 90.0294 55.977C90.2861 55.571 90.6361 55.2583 91.0794 55.039C91.5274 54.8197 92.0407 54.71 92.6194 54.71C93.1981 54.71 93.7114 54.8197 94.1594 55.039C94.6074 55.2583 94.9597 55.571 95.2164 55.977C95.4731 56.3783 95.6014 56.859 95.6014 57.419C95.6014 57.9463 95.4707 58.4247 95.2094 58.854C94.9527 59.2833 94.5584 59.5983 94.0264 59.799L93.9914 59.393C94.6121 59.6403 95.0764 60.009 95.3844 60.499C95.6971 60.989 95.8534 61.5467 95.8534 62.172C95.8534 62.7833 95.7157 63.3177 95.4404 63.775C95.1651 64.2277 94.7847 64.58 94.2994 64.832C93.8141 65.084 93.2541 65.21 92.6194 65.21ZM92.6194 64.223C93.2541 64.223 93.7697 64.048 94.1664 63.698C94.5631 63.3433 94.7614 62.8347 94.7614 62.172C94.7614 61.5 94.5654 60.9913 94.1734 60.646C93.7814 60.296 93.2634 60.121 92.6194 60.121C91.9754 60.121 91.4597 60.296 91.0724 60.646C90.6851 60.9913 90.4914 61.5 90.4914 62.172C90.4914 62.8347 90.6874 63.3433 91.0794 63.698C91.4714 64.048 91.9847 64.223 92.6194 64.223ZM92.6194 59.127C93.1794 59.127 93.6344 58.9847 93.9844 58.7C94.3344 58.4107 94.5094 57.9837 94.5094 57.419C94.5094 56.8543 94.3344 56.432 93.9844 56.152C93.6344 55.8673 93.1794 55.725 92.6194 55.725C92.0594 55.725 91.6044 55.8673 91.2544 56.152C90.9091 56.432 90.7364 56.8543 90.7364 57.419C90.7364 57.9837 90.9091 58.4107 91.2544 58.7C91.6044 58.9847 92.0594 59.127 92.6194 59.127ZM101.077 65.21C100.447 65.21 99.8725 65.0583 99.3545 64.755C98.8412 64.447 98.4305 64.0317 98.1225 63.509C97.8192 62.9817 97.6675 62.389 97.6675 61.731V58.238C97.6675 57.5613 97.8192 56.9593 98.1225 56.432C98.4258 55.9 98.8388 55.4823 99.3615 55.179C99.8888 54.871 100.486 54.717 101.154 54.717C101.728 54.717 102.26 54.843 102.75 55.095C103.244 55.347 103.648 55.6993 103.961 56.152L103.17 56.803C102.955 56.467 102.67 56.1987 102.316 55.998C101.961 55.7973 101.574 55.697 101.154 55.697C100.682 55.697 100.262 55.8113 99.8935 56.04C99.5248 56.2687 99.2355 56.5697 99.0255 56.943C98.8155 57.3117 98.7105 57.713 98.7105 58.147V60.345L98.4515 60.051C98.7455 59.589 99.1305 59.2157 99.6065 58.931C100.087 58.6463 100.61 58.504 101.175 58.504C101.8 58.504 102.362 58.6533 102.862 58.952C103.361 59.246 103.758 59.645 104.052 60.149C104.346 60.653 104.493 61.2177 104.493 61.843C104.493 62.4637 104.336 63.0283 104.024 63.537C103.716 64.0457 103.303 64.4517 102.785 64.755C102.271 65.0583 101.702 65.21 101.077 65.21ZM101.077 64.209C101.515 64.209 101.914 64.104 102.274 63.894C102.638 63.684 102.925 63.3993 103.135 63.04C103.349 62.6807 103.457 62.2817 103.457 61.843C103.457 61.4043 103.349 61.0053 103.135 60.646C102.925 60.282 102.64 59.995 102.281 59.785C101.921 59.5703 101.522 59.463 101.084 59.463C100.645 59.463 100.246 59.5703 99.8865 59.785C99.5272 59.995 99.2402 60.282 99.0255 60.646C98.8155 61.0053 98.7105 61.4043 98.7105 61.843C98.7105 62.277 98.8155 62.6737 99.0255 63.033C99.2355 63.3923 99.5202 63.6793 99.8795 63.894C100.239 64.104 100.638 64.209 101.077 64.209ZM106.209 60.401V59.519H110.409V60.401H106.209ZM115.518 65.21C114.897 65.21 114.337 65.0653 113.838 64.776C113.343 64.4867 112.951 64.0947 112.662 63.6C112.373 63.1007 112.228 62.5407 112.228 61.92V58C112.228 57.3793 112.373 56.8217 112.662 56.327C112.951 55.8277 113.343 55.4333 113.838 55.144C114.337 54.8547 114.897 54.71 115.518 54.71C116.139 54.71 116.696 54.8547 117.191 55.144C117.69 55.4333 118.085 55.8277 118.374 56.327C118.663 56.8217 118.808 57.3793 118.808 58V61.92C118.808 62.5407 118.663 63.1007 118.374 63.6C118.085 64.0947 117.69 64.4867 117.191 64.776C116.696 65.0653 116.139 65.21 115.518 65.21ZM115.518 64.216C115.933 64.216 116.311 64.1157 116.652 63.915C116.993 63.7097 117.263 63.4367 117.464 63.096C117.665 62.7553 117.765 62.3797 117.765 61.969V57.951C117.765 57.5357 117.665 57.1577 117.464 56.817C117.263 56.4763 116.993 56.2057 116.652 56.005C116.311 55.7997 115.933 55.697 115.518 55.697C115.103 55.697 114.725 55.7997 114.384 56.005C114.043 56.2057 113.773 56.4763 113.572 56.817C113.371 57.1577 113.271 57.5357 113.271 57.951V61.969C113.271 62.3797 113.371 62.7553 113.572 63.096C113.773 63.4367 114.043 63.7097 114.384 63.915C114.725 64.1157 115.103 64.216 115.518 64.216ZM122.53 65V56.068L120.633 57.209V56.054L122.53 54.92H123.573V65H122.53ZM126.088 60.401V59.519H130.288V60.401H126.088ZM135.397 65.21C134.776 65.21 134.216 65.0653 133.717 64.776C133.222 64.4867 132.83 64.0947 132.541 63.6C132.252 63.1007 132.107 62.5407 132.107 61.92V58C132.107 57.3793 132.252 56.8217 132.541 56.327C132.83 55.8277 133.222 55.4333 133.717 55.144C134.216 54.8547 134.776 54.71 135.397 54.71C136.018 54.71 136.575 54.8547 137.07 55.144C137.569 55.4333 137.964 55.8277 138.253 56.327C138.542 56.8217 138.687 57.3793 138.687 58V61.92C138.687 62.5407 138.542 63.1007 138.253 63.6C137.964 64.0947 137.569 64.4867 137.07 64.776C136.575 65.0653 136.018 65.21 135.397 65.21ZM135.397 64.216C135.812 64.216 136.19 64.1157 136.531 63.915C136.872 63.7097 137.142 63.4367 137.343 63.096C137.544 62.7553 137.644 62.3797 137.644 61.969V57.951C137.644 57.5357 137.544 57.1577 137.343 56.817C137.142 56.4763 136.872 56.2057 136.531 56.005C136.19 55.7997 135.812 55.697 135.397 55.697C134.982 55.697 134.604 55.7997 134.263 56.005C133.922 56.2057 133.652 56.4763 133.451 56.817C133.25 57.1577 133.15 57.5357 133.15 57.951V61.969C133.15 62.3797 133.25 62.7553 133.451 63.096C133.652 63.4367 133.922 63.7097 134.263 63.915C134.604 64.1157 134.982 64.216 135.397 64.216ZM143.942 65.21C143.321 65.21 142.761 65.0653 142.262 64.776C141.767 64.4867 141.375 64.0947 141.086 63.6C140.797 63.1007 140.652 62.5407 140.652 61.92V58C140.652 57.3793 140.797 56.8217 141.086 56.327C141.375 55.8277 141.767 55.4333 142.262 55.144C142.761 54.8547 143.321 54.71 143.942 54.71C144.563 54.71 145.12 54.8547 145.615 55.144C146.114 55.4333 146.509 55.8277 146.798 56.327C147.087 56.8217 147.232 57.3793 147.232 58V61.92C147.232 62.5407 147.087 63.1007 146.798 63.6C146.509 64.0947 146.114 64.4867 145.615 64.776C145.12 65.0653 144.563 65.21 143.942 65.21ZM143.942 64.216C144.357 64.216 144.735 64.1157 145.076 63.915C145.417 63.7097 145.687 63.4367 145.888 63.096C146.089 62.7553 146.189 62.3797 146.189 61.969V57.951C146.189 57.5357 146.089 57.1577 145.888 56.817C145.687 56.4763 145.417 56.2057 145.076 56.005C144.735 55.7997 144.357 55.697 143.942 55.697C143.527 55.697 143.149 55.7997 142.808 56.005C142.467 56.2057 142.197 56.4763 141.996 56.817C141.795 57.1577 141.695 57.5357 141.695 57.951V61.969C141.695 62.3797 141.795 62.7553 141.996 63.096C142.197 63.4367 142.467 63.7097 142.808 63.915C143.149 64.1157 143.527 64.216 143.942 64.216Z" fill="#344351"/>
<rect x="20" y="85" width="194" height="60" rx="4" fill="#F6F7F8"/>
<path d="M35.98 110V99.92H37.009V104.68L41.608 99.92H42.924L38.227 104.785L43.309 110H41.965L37.009 104.96V110H35.98ZM44.7416 113.36L46.2046 109.391L46.2256 110.567L42.9146 102.44H44.0066L46.7226 109.237H46.2746L48.7806 102.44H49.8306L45.7706 113.36H44.7416ZM50.213 111.68V109.118C50.6423 109.118 50.9503 108.98 51.137 108.705C51.3236 108.425 51.4753 107.979 51.592 107.368C51.6713 106.971 51.7366 106.544 51.788 106.087C51.8393 105.63 51.8836 105.107 51.921 104.519C51.9583 103.926 51.9933 103.233 52.026 102.44H57.024V109.118H57.752V111.68H56.758V110H51.2V111.68H50.213ZM51.956 109.118H56.002V103.322H52.978C52.964 103.677 52.943 104.052 52.915 104.449C52.8916 104.846 52.8613 105.242 52.824 105.639C52.7913 106.036 52.7516 106.409 52.705 106.759C52.663 107.104 52.6116 107.408 52.551 107.669C52.481 108.005 52.404 108.292 52.32 108.53C52.2406 108.768 52.1193 108.964 51.956 109.118ZM61.3168 110.21C60.7475 110.21 60.2692 110.107 59.8818 109.902C59.4992 109.697 59.2122 109.424 59.0208 109.083C58.8295 108.742 58.7338 108.371 58.7338 107.97C58.7338 107.559 58.8155 107.209 58.9788 106.92C59.1468 106.626 59.3732 106.386 59.6578 106.199C59.9472 106.012 60.2808 105.87 60.6588 105.772C61.0415 105.679 61.4638 105.597 61.9258 105.527C62.3925 105.452 62.8475 105.389 63.2908 105.338C63.7388 105.282 64.1308 105.228 64.4668 105.177L64.1028 105.401C64.1168 104.654 63.9722 104.101 63.6688 103.742C63.3655 103.383 62.8382 103.203 62.0868 103.203C61.5688 103.203 61.1302 103.32 60.7708 103.553C60.4162 103.786 60.1665 104.155 60.0218 104.659L59.0208 104.365C59.1935 103.688 59.5412 103.163 60.0638 102.79C60.5865 102.417 61.2655 102.23 62.1008 102.23C62.7915 102.23 63.3772 102.361 63.8578 102.622C64.3432 102.879 64.6862 103.252 64.8868 103.742C64.9802 103.961 65.0408 104.206 65.0688 104.477C65.0968 104.748 65.1108 105.023 65.1108 105.303V110H64.1938V108.103L64.4598 108.215C64.2032 108.864 63.8042 109.358 63.2628 109.699C62.7215 110.04 62.0728 110.21 61.3168 110.21ZM61.4358 109.321C61.9165 109.321 62.3365 109.235 62.6958 109.062C63.0552 108.889 63.3445 108.654 63.5638 108.355C63.7832 108.052 63.9255 107.711 63.9908 107.333C64.0468 107.09 64.0772 106.824 64.0818 106.535C64.0865 106.241 64.0888 106.022 64.0888 105.877L64.4808 106.08C64.1308 106.127 63.7505 106.173 63.3398 106.22C62.9338 106.267 62.5325 106.32 62.1358 106.381C61.7438 106.442 61.3892 106.514 61.0718 106.598C60.8572 106.659 60.6495 106.745 60.4488 106.857C60.2482 106.964 60.0825 107.109 59.9518 107.291C59.8258 107.473 59.7628 107.699 59.7628 107.97C59.7628 108.189 59.8165 108.402 59.9238 108.607C60.0358 108.812 60.2132 108.983 60.4558 109.118C60.7032 109.253 61.0298 109.321 61.4358 109.321ZM72.4589 110.21C71.6982 110.21 71.0332 110.044 70.4639 109.713C69.8992 109.377 69.4535 108.913 69.1269 108.32L69.9529 107.795C70.2282 108.262 70.5712 108.616 70.9819 108.859C71.3925 109.102 71.8639 109.223 72.3959 109.223C72.9512 109.223 73.3969 109.095 73.7329 108.838C74.0689 108.581 74.2369 108.229 74.2369 107.781C74.2369 107.473 74.1645 107.228 74.0199 107.046C73.8799 106.864 73.6652 106.733 73.3759 106.654C73.0912 106.575 72.7342 106.535 72.3049 106.535H71.4089V105.653H72.2909C72.8135 105.653 73.2335 105.56 73.5509 105.373C73.8729 105.182 74.0339 104.883 74.0339 104.477C74.0339 104.048 73.8729 103.73 73.5509 103.525C73.2335 103.315 72.8532 103.21 72.4099 103.21C71.9619 103.21 71.5372 103.303 71.1359 103.49C70.7392 103.672 70.4055 103.908 70.1349 104.197L69.4769 103.504C69.8549 103.089 70.2959 102.774 70.7999 102.559C71.3085 102.34 71.8709 102.23 72.4869 102.23C72.9722 102.23 73.4109 102.316 73.8029 102.489C74.1995 102.657 74.5122 102.904 74.7409 103.231C74.9742 103.558 75.0909 103.95 75.0909 104.407C75.0909 104.836 74.9859 105.207 74.7759 105.52C74.5705 105.833 74.2789 106.092 73.9009 106.297L73.8449 105.912C74.1715 105.973 74.4422 106.103 74.6569 106.304C74.8715 106.505 75.0302 106.745 75.1329 107.025C75.2355 107.305 75.2869 107.59 75.2869 107.879C75.2869 108.36 75.1609 108.775 74.9089 109.125C74.6615 109.47 74.3232 109.739 73.8939 109.93C73.4692 110.117 72.9909 110.21 72.4589 110.21ZM76.8246 110V102.44H79.9396C80.0982 102.44 80.2896 102.449 80.5136 102.468C80.7422 102.487 80.9546 102.522 81.1506 102.573C81.5752 102.685 81.9159 102.914 82.1726 103.259C82.4339 103.604 82.5646 104.02 82.5646 104.505C82.5646 104.776 82.5226 105.018 82.4386 105.233C82.3592 105.443 82.2449 105.625 82.0956 105.779C82.0256 105.858 81.9486 105.928 81.8646 105.989C81.7806 106.045 81.6989 106.092 81.6196 106.129C81.7689 106.157 81.9299 106.222 82.1026 106.325C82.3732 106.484 82.5786 106.698 82.7186 106.969C82.8586 107.235 82.9286 107.559 82.9286 107.942C82.9286 108.46 82.8049 108.882 82.5576 109.209C82.3102 109.536 81.9789 109.76 81.5636 109.881C81.3769 109.932 81.1739 109.965 80.9546 109.979C80.7399 109.993 80.5369 110 80.3456 110H76.8246ZM77.8606 109.125H80.2966C80.3946 109.125 80.5182 109.118 80.6676 109.104C80.8169 109.085 80.9499 109.062 81.0666 109.034C81.3419 108.964 81.5426 108.824 81.6686 108.614C81.7992 108.399 81.8646 108.166 81.8646 107.914C81.8646 107.583 81.7666 107.312 81.5706 107.102C81.3792 106.887 81.1226 106.757 80.8006 106.71C80.6932 106.687 80.5812 106.673 80.4646 106.668C80.3479 106.663 80.2429 106.661 80.1496 106.661H77.8606V109.125ZM77.8606 105.779H79.9746C80.0959 105.779 80.2312 105.772 80.3806 105.758C80.5346 105.739 80.6676 105.709 80.7796 105.667C81.0222 105.583 81.1996 105.438 81.3116 105.233C81.4282 105.028 81.4866 104.804 81.4866 104.561C81.4866 104.295 81.4236 104.062 81.2976 103.861C81.1762 103.66 80.9919 103.52 80.7446 103.441C80.5766 103.38 80.3946 103.345 80.1986 103.336C80.0072 103.327 79.8859 103.322 79.8346 103.322H77.8606V105.779ZM87.4808 110.21C86.7294 110.21 86.0878 110.04 85.5558 109.699C85.0238 109.358 84.6154 108.887 84.3308 108.285C84.0461 107.683 83.9038 106.992 83.9038 106.213C83.9038 105.42 84.0484 104.724 84.3378 104.127C84.6271 103.53 85.0378 103.065 85.5698 102.734C86.1064 102.398 86.7434 102.23 87.4808 102.23C88.2368 102.23 88.8808 102.4 89.4128 102.741C89.9494 103.077 90.3578 103.546 90.6378 104.148C90.9224 104.745 91.0648 105.434 91.0648 106.213C91.0648 107.006 90.9224 107.704 90.6378 108.306C90.3531 108.903 89.9424 109.37 89.4058 109.706C88.8691 110.042 88.2274 110.21 87.4808 110.21ZM87.4808 109.223C88.3208 109.223 88.9461 108.945 89.3568 108.39C89.7674 107.83 89.9728 107.104 89.9728 106.213C89.9728 105.298 89.7651 104.57 89.3498 104.029C88.9391 103.488 88.3161 103.217 87.4808 103.217C86.9161 103.217 86.4494 103.345 86.0808 103.602C85.7168 103.854 85.4438 104.206 85.2618 104.659C85.0844 105.107 84.9958 105.625 84.9958 106.213C84.9958 107.123 85.2058 107.853 85.6258 108.404C86.0458 108.95 86.6641 109.223 87.4808 109.223ZM92.6019 110V102.44H93.6309V105.723H97.8939V102.44H98.9229V110H97.8939V106.71H93.6309V110H92.6019ZM106.886 102.44V110H105.885V104.113L101.741 110H100.873V102.44H101.874V108.278L106.025 102.44H106.886ZM108.151 110V109.097C108.431 109.148 108.643 109.137 108.788 109.062C108.937 108.983 109.047 108.852 109.117 108.67C109.187 108.483 109.245 108.252 109.292 107.977C109.367 107.52 109.434 107.016 109.495 106.465C109.556 105.914 109.609 105.308 109.656 104.645C109.707 103.978 109.759 103.243 109.81 102.44H114.948V110H113.926V103.427H110.762C110.729 103.922 110.692 104.414 110.65 104.904C110.608 105.394 110.564 105.865 110.517 106.318C110.475 106.766 110.428 107.179 110.377 107.557C110.326 107.935 110.272 108.262 110.216 108.537C110.132 108.952 110.02 109.284 109.88 109.531C109.745 109.778 109.542 109.942 109.271 110.021C109 110.1 108.627 110.093 108.151 110ZM38.598 128.159V125.401H35.84V124.519H38.598V121.761H39.48V124.519H42.231V125.401H39.48V128.159H38.598ZM44.5854 130L48.2954 120.921H43.6264V119.92H49.3944V120.921L45.6914 130H44.5854ZM58.3145 130V128.047H53.5965V127.067L56.9705 119.92H58.1255L54.7515 127.067H58.3145V124.127H59.3505V127.067H60.4495V128.047H59.3505V130H58.3145ZM65.3156 119.717C65.9502 119.717 66.5242 119.871 67.0376 120.179C67.5556 120.482 67.9662 120.898 68.2696 121.425C68.5729 121.948 68.7246 122.536 68.7246 123.189V126.689C68.7246 127.361 68.5729 127.963 68.2696 128.495C67.9662 129.027 67.5509 129.447 67.0236 129.755C66.5009 130.058 65.9059 130.21 65.2386 130.21C64.6646 130.21 64.1326 130.084 63.6426 129.832C63.1572 129.575 62.7559 129.223 62.4386 128.775L63.2226 128.124C63.4372 128.455 63.7219 128.721 64.0766 128.922C64.4359 129.123 64.8232 129.223 65.2386 129.223C65.7146 129.223 66.1346 129.111 66.4986 128.887C66.8672 128.658 67.1566 128.36 67.3666 127.991C67.5812 127.618 67.6886 127.214 67.6886 126.78V124.582L67.9406 124.876C67.6512 125.338 67.2662 125.711 66.7856 125.996C66.3096 126.281 65.7869 126.423 65.2176 126.423C64.5969 126.423 64.0346 126.274 63.5306 125.975C63.0312 125.676 62.6346 125.275 62.3406 124.771C62.0512 124.267 61.9066 123.705 61.9066 123.084C61.9066 122.463 62.0606 121.899 62.3686 121.39C62.6766 120.877 63.0896 120.471 63.6076 120.172C64.1256 119.869 64.6949 119.717 65.3156 119.717ZM65.3156 120.711C64.8769 120.711 64.4779 120.818 64.1186 121.033C63.7592 121.243 63.4722 121.528 63.2576 121.887C63.0476 122.246 62.9426 122.645 62.9426 123.084C62.9426 123.523 63.0476 123.922 63.2576 124.281C63.4676 124.64 63.7522 124.927 64.1116 125.142C64.4709 125.352 64.8699 125.457 65.3086 125.457C65.7472 125.457 66.1462 125.352 66.5056 125.142C66.8696 124.927 67.1566 124.64 67.3666 124.281C67.5812 123.922 67.6886 123.523 67.6886 123.084C67.6886 122.65 67.5812 122.253 67.3666 121.894C67.1566 121.535 66.8719 121.248 66.5126 121.033C66.1532 120.818 65.7542 120.711 65.3156 120.711ZM73.6542 130.21C73.1316 130.21 72.6486 130.103 72.2052 129.888C71.7619 129.673 71.3839 129.377 71.0712 128.999C70.7586 128.621 70.5346 128.187 70.3992 127.697L71.3862 127.431C71.4749 127.795 71.6359 128.11 71.8692 128.376C72.1026 128.637 72.3756 128.84 72.6882 128.985C73.0056 129.13 73.3369 129.202 73.6822 129.202C74.1302 129.202 74.5316 129.095 74.8862 128.88C75.2456 128.661 75.5302 128.371 75.7402 128.012C75.9502 127.653 76.0552 127.258 76.0552 126.829C76.0552 126.386 75.9456 125.987 75.7262 125.632C75.5069 125.273 75.2176 124.988 74.8582 124.778C74.4989 124.568 74.1069 124.463 73.6822 124.463C73.2062 124.463 72.7956 124.568 72.4502 124.778C72.1049 124.983 71.8296 125.242 71.6242 125.555L70.6862 125.163L70.9942 119.92H76.3772V120.907H71.4492L71.9602 120.424L71.6872 124.897L71.4282 124.554C71.7176 124.223 72.0676 123.964 72.4782 123.777C72.8889 123.59 73.3206 123.497 73.7732 123.497C74.3939 123.497 74.9539 123.646 75.4532 123.945C75.9526 124.239 76.3492 124.638 76.6432 125.142C76.9372 125.646 77.0842 126.208 77.0842 126.829C77.0842 127.445 76.9279 128.01 76.6152 128.523C76.3026 129.032 75.8872 129.44 75.3692 129.748C74.8512 130.056 74.2796 130.21 73.6542 130.21ZM81.282 129.993L81.289 129.055L85.846 124.939C86.238 124.584 86.497 124.248 86.623 123.931C86.7537 123.609 86.819 123.273 86.819 122.923C86.819 122.508 86.721 122.132 86.525 121.796C86.329 121.46 86.0654 121.194 85.734 120.998C85.4027 120.797 85.0317 120.697 84.621 120.697C84.1917 120.697 83.809 120.8 83.473 121.005C83.137 121.21 82.871 121.481 82.675 121.817C82.4837 122.153 82.3904 122.519 82.395 122.916H81.345C81.345 122.305 81.4897 121.756 81.779 121.271C82.0684 120.786 82.4604 120.405 82.955 120.13C83.4497 119.85 84.0097 119.71 84.635 119.71C85.2464 119.71 85.7947 119.855 86.28 120.144C86.77 120.429 87.155 120.816 87.435 121.306C87.7197 121.791 87.862 122.333 87.862 122.93C87.862 123.35 87.8107 123.721 87.708 124.043C87.61 124.36 87.4537 124.657 87.239 124.932C87.029 125.203 86.7607 125.483 86.434 125.772L82.388 129.426L82.227 129.006H87.862V129.993H81.282ZM92.6194 130.21C91.9894 130.21 91.4317 130.084 90.9464 129.832C90.4657 129.58 90.0877 129.228 89.8124 128.775C89.5417 128.318 89.4064 127.783 89.4064 127.172C89.4064 126.547 89.5581 125.991 89.8614 125.506C90.1647 125.016 90.6267 124.645 91.2474 124.393L91.2334 124.799C90.7154 124.608 90.3211 124.295 90.0504 123.861C89.7797 123.427 89.6444 122.946 89.6444 122.419C89.6444 121.859 89.7727 121.378 90.0294 120.977C90.2861 120.571 90.6361 120.258 91.0794 120.039C91.5274 119.82 92.0407 119.71 92.6194 119.71C93.1981 119.71 93.7114 119.82 94.1594 120.039C94.6074 120.258 94.9597 120.571 95.2164 120.977C95.4731 121.378 95.6014 121.859 95.6014 122.419C95.6014 122.946 95.4707 123.425 95.2094 123.854C94.9527 124.283 94.5584 124.598 94.0264 124.799L93.9914 124.393C94.6121 124.64 95.0764 125.009 95.3844 125.499C95.6971 125.989 95.8534 126.547 95.8534 127.172C95.8534 127.783 95.7157 128.318 95.4404 128.775C95.1651 129.228 94.7847 129.58 94.2994 129.832C93.8141 130.084 93.2541 130.21 92.6194 130.21ZM92.6194 129.223C93.2541 129.223 93.7697 129.048 94.1664 128.698C94.5631 128.343 94.7614 127.835 94.7614 127.172C94.7614 126.5 94.5654 125.991 94.1734 125.646C93.7814 125.296 93.2634 125.121 92.6194 125.121C91.9754 125.121 91.4597 125.296 91.0724 125.646C90.6851 125.991 90.4914 126.5 90.4914 127.172C90.4914 127.835 90.6874 128.343 91.0794 128.698C91.4714 129.048 91.9847 129.223 92.6194 129.223ZM92.6194 124.127C93.1794 124.127 93.6344 123.985 93.9844 123.7C94.3344 123.411 94.5094 122.984 94.5094 122.419C94.5094 121.854 94.3344 121.432 93.9844 121.152C93.6344 120.867 93.1794 120.725 92.6194 120.725C92.0594 120.725 91.6044 120.867 91.2544 121.152C90.9091 121.432 90.7364 121.854 90.7364 122.419C90.7364 122.984 90.9091 123.411 91.2544 123.7C91.6044 123.985 92.0594 124.127 92.6194 124.127ZM101.077 130.21C100.447 130.21 99.8725 130.058 99.3545 129.755C98.8412 129.447 98.4305 129.032 98.1225 128.509C97.8192 127.982 97.6675 127.389 97.6675 126.731V123.238C97.6675 122.561 97.8192 121.959 98.1225 121.432C98.4258 120.9 98.8388 120.482 99.3615 120.179C99.8888 119.871 100.486 119.717 101.154 119.717C101.728 119.717 102.26 119.843 102.75 120.095C103.244 120.347 103.648 120.699 103.961 121.152L103.17 121.803C102.955 121.467 102.67 121.199 102.316 120.998C101.961 120.797 101.574 120.697 101.154 120.697C100.682 120.697 100.262 120.811 99.8935 121.04C99.5248 121.269 99.2355 121.57 99.0255 121.943C98.8155 122.312 98.7105 122.713 98.7105 123.147V125.345L98.4515 125.051C98.7455 124.589 99.1305 124.216 99.6065 123.931C100.087 123.646 100.61 123.504 101.175 123.504C101.8 123.504 102.362 123.653 102.862 123.952C103.361 124.246 103.758 124.645 104.052 125.149C104.346 125.653 104.493 126.218 104.493 126.843C104.493 127.464 104.336 128.028 104.024 128.537C103.716 129.046 103.303 129.452 102.785 129.755C102.271 130.058 101.702 130.21 101.077 130.21ZM101.077 129.209C101.515 129.209 101.914 129.104 102.274 128.894C102.638 128.684 102.925 128.399 103.135 128.04C103.349 127.681 103.457 127.282 103.457 126.843C103.457 126.404 103.349 126.005 103.135 125.646C102.925 125.282 102.64 124.995 102.281 124.785C101.921 124.57 101.522 124.463 101.084 124.463C100.645 124.463 100.246 124.57 99.8865 124.785C99.5272 124.995 99.2402 125.282 99.0255 125.646C98.8155 126.005 98.7105 126.404 98.7105 126.843C98.7105 127.277 98.8155 127.674 99.0255 128.033C99.2355 128.392 99.5202 128.679 99.8795 128.894C100.239 129.104 100.638 129.209 101.077 129.209ZM106.209 125.401V124.519H110.409V125.401H106.209ZM115.518 130.21C114.897 130.21 114.337 130.065 113.838 129.776C113.343 129.487 112.951 129.095 112.662 128.6C112.373 128.101 112.228 127.541 112.228 126.92V123C112.228 122.379 112.373 121.822 112.662 121.327C112.951 120.828 113.343 120.433 113.838 120.144C114.337 119.855 114.897 119.71 115.518 119.71C116.139 119.71 116.696 119.855 117.191 120.144C117.69 120.433 118.085 120.828 118.374 121.327C118.663 121.822 118.808 122.379 118.808 123V126.92C118.808 127.541 118.663 128.101 118.374 128.6C118.085 129.095 117.69 129.487 117.191 129.776C116.696 130.065 116.139 130.21 115.518 130.21ZM115.518 129.216C115.933 129.216 116.311 129.116 116.652 128.915C116.993 128.71 117.263 128.437 117.464 128.096C117.665 127.755 117.765 127.38 117.765 126.969V122.951C117.765 122.536 117.665 122.158 117.464 121.817C117.263 121.476 116.993 121.206 116.652 121.005C116.311 120.8 115.933 120.697 115.518 120.697C115.103 120.697 114.725 120.8 114.384 121.005C114.043 121.206 113.773 121.476 113.572 121.817C113.371 122.158 113.271 122.536 113.271 122.951V126.969C113.271 127.38 113.371 127.755 113.572 128.096C113.773 128.437 114.043 128.71 114.384 128.915C114.725 129.116 115.103 129.216 115.518 129.216ZM122.53 130V121.068L120.633 122.209V121.054L122.53 119.92H123.573V130H122.53ZM126.088 125.401V124.519H130.288V125.401H126.088ZM135.397 130.21C134.776 130.21 134.216 130.065 133.717 129.776C133.222 129.487 132.83 129.095 132.541 128.6C132.252 128.101 132.107 127.541 132.107 126.92V123C132.107 122.379 132.252 121.822 132.541 121.327C132.83 120.828 133.222 120.433 133.717 120.144C134.216 119.855 134.776 119.71 135.397 119.71C136.018 119.71 136.575 119.855 137.07 120.144C137.569 120.433 137.964 120.828 138.253 121.327C138.542 121.822 138.687 122.379 138.687 123V126.92C138.687 127.541 138.542 128.101 138.253 128.6C137.964 129.095 137.569 129.487 137.07 129.776C136.575 130.065 136.018 130.21 135.397 130.21ZM135.397 129.216C135.812 129.216 136.19 129.116 136.531 128.915C136.872 128.71 137.142 128.437 137.343 128.096C137.544 127.755 137.644 127.38 137.644 126.969V122.951C137.644 122.536 137.544 122.158 137.343 121.817C137.142 121.476 136.872 121.206 136.531 121.005C136.19 120.8 135.812 120.697 135.397 120.697C134.982 120.697 134.604 120.8 134.263 121.005C133.922 121.206 133.652 121.476 133.451 121.817C133.25 122.158 133.15 122.536 133.15 122.951V126.969C133.15 127.38 133.25 127.755 133.451 128.096C133.652 128.437 133.922 128.71 134.263 128.915C134.604 129.116 134.982 129.216 135.397 129.216ZM143.942 130.21C143.321 130.21 142.761 130.065 142.262 129.776C141.767 129.487 141.375 129.095 141.086 128.6C140.797 128.101 140.652 127.541 140.652 126.92V123C140.652 122.379 140.797 121.822 141.086 121.327C141.375 120.828 141.767 120.433 142.262 120.144C142.761 119.855 143.321 119.71 143.942 119.71C144.563 119.71 145.12 119.855 145.615 120.144C146.114 120.433 146.509 120.828 146.798 121.327C147.087 121.822 147.232 122.379 147.232 123V126.92C147.232 127.541 147.087 128.101 146.798 128.6C146.509 129.095 146.114 129.487 145.615 129.776C145.12 130.065 144.563 130.21 143.942 130.21ZM143.942 129.216C144.357 129.216 144.735 129.116 145.076 128.915C145.417 128.71 145.687 128.437 145.888 128.096C146.089 127.755 146.189 127.38 146.189 126.969V122.951C146.189 122.536 146.089 122.158 145.888 121.817C145.687 121.476 145.417 121.206 145.076 121.005C144.735 120.8 144.357 120.697 143.942 120.697C143.527 120.697 143.149 120.8 142.808 121.005C142.467 121.206 142.197 121.476 141.996 121.817C141.795 122.158 141.695 122.536 141.695 122.951V126.969C141.695 127.38 141.795 127.755 141.996 128.096C142.197 128.437 142.467 128.71 142.808 128.915C143.149 129.116 143.527 129.216 143.942 129.216Z" fill="#344351"/>
<rect x="20" y="150" width="194" height="60" rx="4" fill="#F6F7F8"/>
<path d="M35.98 175V164.92H43.701V175H42.672V165.907H37.009V175H35.98ZM48.8587 175.21C48.1214 175.21 47.482 175.047 46.9407 174.72C46.404 174.393 45.9864 173.934 45.6877 173.341C45.389 172.748 45.2397 172.053 45.2397 171.255C45.2397 170.429 45.3867 169.715 45.6807 169.113C45.9747 168.511 46.3877 168.047 46.9197 167.72C47.4564 167.393 48.0887 167.23 48.8167 167.23C49.5634 167.23 50.2004 167.403 50.7277 167.748C51.255 168.089 51.654 168.579 51.9247 169.218C52.1954 169.857 52.319 170.62 52.2957 171.507H51.2457V171.143C51.227 170.163 51.0147 169.423 50.6087 168.924C50.2074 168.425 49.6194 168.175 48.8447 168.175C48.0327 168.175 47.4097 168.439 46.9757 168.966C46.5464 169.493 46.3317 170.245 46.3317 171.22C46.3317 172.172 46.5464 172.912 46.9757 173.439C47.4097 173.962 48.0234 174.223 48.8167 174.223C49.358 174.223 49.8294 174.099 50.2307 173.852C50.6367 173.6 50.9564 173.238 51.1897 172.767L52.1487 173.138C51.85 173.796 51.409 174.307 50.8257 174.671C50.247 175.03 49.5914 175.21 48.8587 175.21ZM45.9677 171.507V170.646H51.7427V171.507H45.9677ZM57.2441 175.21C56.5488 175.21 55.9608 175.035 55.4801 174.685C54.9995 174.33 54.6355 173.852 54.3881 173.25C54.1408 172.643 54.0171 171.964 54.0171 171.213C54.0171 170.448 54.1408 169.766 54.3881 169.169C54.6401 168.567 55.0088 168.093 55.4941 167.748C55.9795 167.403 56.5768 167.23 57.2861 167.23C57.9768 167.23 58.5695 167.405 59.0641 167.755C59.5588 168.105 59.9368 168.581 60.1981 169.183C60.4641 169.785 60.5971 170.462 60.5971 171.213C60.5971 171.969 60.4641 172.648 60.1981 173.25C59.9321 173.852 59.5495 174.33 59.0501 174.685C58.5508 175.035 57.9488 175.21 57.2441 175.21ZM53.8421 178.36V167.44H54.7661V173.131H54.8781V178.36H53.8421ZM57.1391 174.251C57.6665 174.251 58.1051 174.118 58.4551 173.852C58.8051 173.586 59.0665 173.224 59.2391 172.767C59.4165 172.305 59.5051 171.787 59.5051 171.213C59.5051 170.644 59.4188 170.13 59.2461 169.673C59.0735 169.216 58.8098 168.854 58.4551 168.588C58.1051 168.322 57.6595 168.189 57.1181 168.189C56.5908 168.189 56.1521 168.317 55.8021 168.574C55.4568 168.831 55.1978 169.188 55.0251 169.645C54.8525 170.098 54.7661 170.62 54.7661 171.213C54.7661 171.796 54.8525 172.319 55.0251 172.781C55.1978 173.238 55.4591 173.598 55.8091 173.859C56.1591 174.12 56.6025 174.251 57.1391 174.251ZM65.3333 175.21C64.596 175.21 63.9566 175.047 63.4153 174.72C62.8786 174.393 62.461 173.934 62.1623 173.341C61.8636 172.748 61.7143 172.053 61.7143 171.255C61.7143 170.429 61.8613 169.715 62.1553 169.113C62.4493 168.511 62.8623 168.047 63.3943 167.72C63.931 167.393 64.5633 167.23 65.2913 167.23C66.038 167.23 66.675 167.403 67.2023 167.748C67.7296 168.089 68.1286 168.579 68.3993 169.218C68.67 169.857 68.7936 170.62 68.7703 171.507H67.7203V171.143C67.7016 170.163 67.4893 169.423 67.0833 168.924C66.682 168.425 66.094 168.175 65.3193 168.175C64.5073 168.175 63.8843 168.439 63.4503 168.966C63.021 169.493 62.8063 170.245 62.8063 171.22C62.8063 172.172 63.021 172.912 63.4503 173.439C63.8843 173.962 64.498 174.223 65.2913 174.223C65.8326 174.223 66.304 174.099 66.7053 173.852C67.1113 173.6 67.431 173.238 67.6643 172.767L68.6233 173.138C68.3246 173.796 67.8836 174.307 67.3003 174.671C66.7216 175.03 66.066 175.21 65.3333 175.21ZM62.4423 171.507V170.646H68.2173V171.507H62.4423ZM72.35 175.21C71.7807 175.21 71.3024 175.107 70.915 174.902C70.5324 174.697 70.2454 174.424 70.054 174.083C69.8627 173.742 69.767 173.371 69.767 172.97C69.767 172.559 69.8487 172.209 70.012 171.92C70.18 171.626 70.4064 171.386 70.691 171.199C70.9804 171.012 71.314 170.87 71.692 170.772C72.0747 170.679 72.497 170.597 72.959 170.527C73.4257 170.452 73.8807 170.389 74.324 170.338C74.772 170.282 75.164 170.228 75.5 170.177L75.136 170.401C75.15 169.654 75.0054 169.101 74.702 168.742C74.3987 168.383 73.8714 168.203 73.12 168.203C72.602 168.203 72.1634 168.32 71.804 168.553C71.4494 168.786 71.1997 169.155 71.055 169.659L70.054 169.365C70.2267 168.688 70.5744 168.163 71.097 167.79C71.6197 167.417 72.2987 167.23 73.134 167.23C73.8247 167.23 74.4104 167.361 74.891 167.622C75.3764 167.879 75.7194 168.252 75.92 168.742C76.0134 168.961 76.074 169.206 76.102 169.477C76.13 169.748 76.144 170.023 76.144 170.303V175H75.227V173.103L75.493 173.215C75.2364 173.864 74.8374 174.358 74.296 174.699C73.7547 175.04 73.106 175.21 72.35 175.21ZM72.469 174.321C72.9497 174.321 73.3697 174.235 73.729 174.062C74.0884 173.889 74.3777 173.654 74.597 173.355C74.8164 173.052 74.9587 172.711 75.024 172.333C75.08 172.09 75.1104 171.824 75.115 171.535C75.1197 171.241 75.122 171.022 75.122 170.877L75.514 171.08C75.164 171.127 74.7837 171.173 74.373 171.22C73.967 171.267 73.5657 171.32 73.169 171.381C72.777 171.442 72.4224 171.514 72.105 171.598C71.8904 171.659 71.6827 171.745 71.482 171.857C71.2814 171.964 71.1157 172.109 70.985 172.291C70.859 172.473 70.796 172.699 70.796 172.97C70.796 173.189 70.8497 173.402 70.957 173.607C71.069 173.812 71.2464 173.983 71.489 174.118C71.7364 174.253 72.063 174.321 72.469 174.321ZM77.4063 176.68V174.118C77.8357 174.118 78.1437 173.98 78.3303 173.705C78.517 173.425 78.6687 172.979 78.7853 172.368C78.8647 171.971 78.93 171.544 78.9813 171.087C79.0327 170.63 79.077 170.107 79.1143 169.519C79.1517 168.926 79.1867 168.233 79.2193 167.44H84.2173V174.118H84.9453V176.68H83.9513V175H78.3933V176.68H77.4063ZM79.1493 174.118H83.1953V168.322H80.1713C80.1573 168.677 80.1363 169.052 80.1083 169.449C80.085 169.846 80.0547 170.242 80.0173 170.639C79.9847 171.036 79.945 171.409 79.8983 171.759C79.8563 172.104 79.805 172.408 79.7443 172.669C79.6743 173.005 79.5973 173.292 79.5133 173.53C79.434 173.768 79.3127 173.964 79.1493 174.118ZM89.7422 175.21C89.0469 175.21 88.4589 175.035 87.9782 174.685C87.4975 174.33 87.1335 173.852 86.8862 173.25C86.6389 172.643 86.5152 171.964 86.5152 171.213C86.5152 170.448 86.6389 169.766 86.8862 169.169C87.1382 168.567 87.5069 168.093 87.9922 167.748C88.4775 167.403 89.0749 167.23 89.7842 167.23C90.4749 167.23 91.0675 167.405 91.5622 167.755C92.0569 168.105 92.4349 168.581 92.6962 169.183C92.9622 169.785 93.0952 170.462 93.0952 171.213C93.0952 171.969 92.9622 172.648 92.6962 173.25C92.4302 173.852 92.0475 174.33 91.5482 174.685C91.0489 175.035 90.4469 175.21 89.7422 175.21ZM86.3402 178.36V167.44H87.2642V173.131H87.3762V178.36H86.3402ZM89.6372 174.251C90.1645 174.251 90.6032 174.118 90.9532 173.852C91.3032 173.586 91.5645 173.224 91.7372 172.767C91.9145 172.305 92.0032 171.787 92.0032 171.213C92.0032 170.644 91.9169 170.13 91.7442 169.673C91.5715 169.216 91.3079 168.854 90.9532 168.588C90.6032 168.322 90.1575 168.189 89.6162 168.189C89.0889 168.189 88.6502 168.317 88.3002 168.574C87.9549 168.831 87.6959 169.188 87.5232 169.645C87.3505 170.098 87.2642 170.62 87.2642 171.213C87.2642 171.796 87.3505 172.319 87.5232 172.781C87.6959 173.238 87.9572 173.598 88.3072 173.859C88.6572 174.12 89.1005 174.251 89.6372 174.251ZM97.8313 175.21C97.094 175.21 96.4547 175.047 95.9133 174.72C95.3767 174.393 94.959 173.934 94.6603 173.341C94.3617 172.748 94.2123 172.053 94.2123 171.255C94.2123 170.429 94.3593 169.715 94.6533 169.113C94.9473 168.511 95.3603 168.047 95.8923 167.72C96.429 167.393 97.0613 167.23 97.7893 167.23C98.536 167.23 99.173 167.403 99.7003 167.748C100.228 168.089 100.627 168.579 100.897 169.218C101.168 169.857 101.292 170.62 101.268 171.507H100.218V171.143C100.2 170.163 99.9873 169.423 99.5813 168.924C99.18 168.425 98.592 168.175 97.8173 168.175C97.0053 168.175 96.3823 168.439 95.9483 168.966C95.519 169.493 95.3043 170.245 95.3043 171.22C95.3043 172.172 95.519 172.912 95.9483 173.439C96.3823 173.962 96.996 174.223 97.7893 174.223C98.3307 174.223 98.802 174.099 99.2033 173.852C99.6093 173.6 99.929 173.238 100.162 172.767L101.121 173.138C100.823 173.796 100.382 174.307 99.7983 174.671C99.2197 175.03 98.564 175.21 97.8313 175.21ZM94.9403 171.507V170.646H100.715V171.507H94.9403ZM104.848 175.21C104.279 175.21 103.8 175.107 103.413 174.902C103.03 174.697 102.743 174.424 102.552 174.083C102.361 173.742 102.265 173.371 102.265 172.97C102.265 172.559 102.347 172.209 102.51 171.92C102.678 171.626 102.904 171.386 103.189 171.199C103.478 171.012 103.812 170.87 104.19 170.772C104.573 170.679 104.995 170.597 105.457 170.527C105.924 170.452 106.379 170.389 106.822 170.338C107.27 170.282 107.662 170.228 107.998 170.177L107.634 170.401C107.648 169.654 107.503 169.101 107.2 168.742C106.897 168.383 106.369 168.203 105.618 168.203C105.1 168.203 104.661 168.32 104.302 168.553C103.947 168.786 103.698 169.155 103.553 169.659L102.552 169.365C102.725 168.688 103.072 168.163 103.595 167.79C104.118 167.417 104.797 167.23 105.632 167.23C106.323 167.23 106.908 167.361 107.389 167.622C107.874 167.879 108.217 168.252 108.418 168.742C108.511 168.961 108.572 169.206 108.6 169.477C108.628 169.748 108.642 170.023 108.642 170.303V175H107.725V173.103L107.991 173.215C107.734 173.864 107.335 174.358 106.794 174.699C106.253 175.04 105.604 175.21 104.848 175.21ZM104.967 174.321C105.448 174.321 105.868 174.235 106.227 174.062C106.586 173.889 106.876 173.654 107.095 173.355C107.314 173.052 107.457 172.711 107.522 172.333C107.578 172.09 107.608 171.824 107.613 171.535C107.618 171.241 107.62 171.022 107.62 170.877L108.012 171.08C107.662 171.127 107.282 171.173 106.871 171.22C106.465 171.267 106.064 171.32 105.667 171.381C105.275 171.442 104.92 171.514 104.603 171.598C104.388 171.659 104.181 171.745 103.98 171.857C103.779 171.964 103.614 172.109 103.483 172.291C103.357 172.473 103.294 172.699 103.294 172.97C103.294 173.189 103.348 173.402 103.455 173.607C103.567 173.812 103.744 173.983 103.987 174.118C104.234 174.253 104.561 174.321 104.967 174.321ZM113.6 175.21C112.84 175.21 112.196 175.04 111.668 174.699C111.141 174.358 110.74 173.889 110.464 173.292C110.194 172.69 110.054 171.999 110.044 171.22C110.054 170.427 110.198 169.731 110.478 169.134C110.758 168.532 111.162 168.065 111.689 167.734C112.217 167.398 112.856 167.23 113.607 167.23C114.373 167.23 115.038 167.417 115.602 167.79C116.172 168.163 116.561 168.674 116.771 169.323L115.763 169.645C115.586 169.192 115.304 168.842 114.916 168.595C114.534 168.343 114.095 168.217 113.6 168.217C113.045 168.217 112.585 168.345 112.221 168.602C111.857 168.854 111.587 169.206 111.409 169.659C111.232 170.112 111.141 170.632 111.136 171.22C111.146 172.125 111.356 172.853 111.766 173.404C112.177 173.95 112.788 174.223 113.6 174.223C114.114 174.223 114.55 174.106 114.909 173.873C115.273 173.635 115.549 173.29 115.735 172.837L116.771 173.145C116.491 173.817 116.081 174.33 115.539 174.685C114.998 175.035 114.352 175.21 113.6 175.21ZM120.338 175.21C119.769 175.21 119.291 175.107 118.903 174.902C118.521 174.697 118.234 174.424 118.042 174.083C117.851 173.742 117.755 173.371 117.755 172.97C117.755 172.559 117.837 172.209 118 171.92C118.168 171.626 118.395 171.386 118.679 171.199C118.969 171.012 119.302 170.87 119.68 170.772C120.063 170.679 120.485 170.597 120.947 170.527C121.414 170.452 121.869 170.389 122.312 170.338C122.76 170.282 123.152 170.228 123.488 170.177L123.124 170.401C123.138 169.654 122.994 169.101 122.69 168.742C122.387 168.383 121.86 168.203 121.108 168.203C120.59 168.203 120.152 168.32 119.792 168.553C119.438 168.786 119.188 169.155 119.043 169.659L118.042 169.365C118.215 168.688 118.563 168.163 119.085 167.79C119.608 167.417 120.287 167.23 121.122 167.23C121.813 167.23 122.399 167.361 122.879 167.622C123.365 167.879 123.708 168.252 123.908 168.742C124.002 168.961 124.062 169.206 124.09 169.477C124.118 169.748 124.132 170.023 124.132 170.303V175H123.215V173.103L123.481 173.215C123.225 173.864 122.826 174.358 122.284 174.699C121.743 175.04 121.094 175.21 120.338 175.21ZM120.457 174.321C120.938 174.321 121.358 174.235 121.717 174.062C122.077 173.889 122.366 173.654 122.585 173.355C122.805 173.052 122.947 172.711 123.012 172.333C123.068 172.09 123.099 171.824 123.103 171.535C123.108 171.241 123.11 171.022 123.11 170.877L123.502 171.08C123.152 171.127 122.772 171.173 122.361 171.22C121.955 171.267 121.554 171.32 121.157 171.381C120.765 171.442 120.411 171.514 120.093 171.598C119.879 171.659 119.671 171.745 119.47 171.857C119.27 171.964 119.104 172.109 118.973 172.291C118.847 172.473 118.784 172.699 118.784 172.97C118.784 173.189 118.838 173.402 118.945 173.607C119.057 173.812 119.235 173.983 119.477 174.118C119.725 174.253 120.051 174.321 120.457 174.321ZM132.451 176.309V175H125.948V167.44H126.977V174.013H130.932V167.44H131.961V174.048H133.48V176.309H132.451ZM140.601 167.44V175H139.6V169.113L135.456 175H134.588V167.44H135.589V173.278L139.74 167.44H140.601ZM147.305 175V172.151H145.541C145.336 172.151 145.123 172.144 144.904 172.13C144.689 172.111 144.489 172.086 144.302 172.053C143.77 171.95 143.317 171.717 142.944 171.353C142.575 170.984 142.391 170.476 142.391 169.827C142.391 169.192 142.564 168.684 142.909 168.301C143.254 167.914 143.672 167.662 144.162 167.545C144.386 167.494 144.612 167.463 144.841 167.454C145.074 167.445 145.275 167.44 145.443 167.44H148.334L148.341 175H147.305ZM142.146 175L144.253 171.829H145.394L143.273 175H142.146ZM145.485 171.269H147.305V168.322H145.485C145.373 168.322 145.217 168.327 145.016 168.336C144.815 168.345 144.626 168.376 144.449 168.427C144.295 168.474 144.141 168.555 143.987 168.672C143.838 168.784 143.712 168.936 143.609 169.127C143.506 169.314 143.455 169.542 143.455 169.813C143.455 170.191 143.558 170.494 143.763 170.723C143.973 170.947 144.234 171.101 144.547 171.185C144.715 171.222 144.883 171.246 145.051 171.255C145.219 171.264 145.364 171.269 145.485 171.269ZM38.598 193.159V190.401H35.84V189.519H38.598V186.761H39.48V189.519H42.231V190.401H39.48V193.159H38.598ZM44.5854 195L48.2954 185.921H43.6264V184.92H49.3944V185.921L45.6914 195H44.5854ZM58.3145 195V193.047H53.5965V192.067L56.9705 184.92H58.1255L54.7515 192.067H58.3145V189.127H59.3505V192.067H60.4495V193.047H59.3505V195H58.3145ZM65.3156 184.717C65.9502 184.717 66.5242 184.871 67.0376 185.179C67.5556 185.482 67.9662 185.898 68.2696 186.425C68.5729 186.948 68.7246 187.536 68.7246 188.189V191.689C68.7246 192.361 68.5729 192.963 68.2696 193.495C67.9662 194.027 67.5509 194.447 67.0236 194.755C66.5009 195.058 65.9059 195.21 65.2386 195.21C64.6646 195.21 64.1326 195.084 63.6426 194.832C63.1572 194.575 62.7559 194.223 62.4386 193.775L63.2226 193.124C63.4372 193.455 63.7219 193.721 64.0766 193.922C64.4359 194.123 64.8232 194.223 65.2386 194.223C65.7146 194.223 66.1346 194.111 66.4986 193.887C66.8672 193.658 67.1566 193.36 67.3666 192.991C67.5812 192.618 67.6886 192.214 67.6886 191.78V189.582L67.9406 189.876C67.6512 190.338 67.2662 190.711 66.7856 190.996C66.3096 191.281 65.7869 191.423 65.2176 191.423C64.5969 191.423 64.0346 191.274 63.5306 190.975C63.0312 190.676 62.6346 190.275 62.3406 189.771C62.0512 189.267 61.9066 188.705 61.9066 188.084C61.9066 187.463 62.0606 186.899 62.3686 186.39C62.6766 185.877 63.0896 185.471 63.6076 185.172C64.1256 184.869 64.6949 184.717 65.3156 184.717ZM65.3156 185.711C64.8769 185.711 64.4779 185.818 64.1186 186.033C63.7592 186.243 63.4722 186.528 63.2576 186.887C63.0476 187.246 62.9426 187.645 62.9426 188.084C62.9426 188.523 63.0476 188.922 63.2576 189.281C63.4676 189.64 63.7522 189.927 64.1116 190.142C64.4709 190.352 64.8699 190.457 65.3086 190.457C65.7472 190.457 66.1462 190.352 66.5056 190.142C66.8696 189.927 67.1566 189.64 67.3666 189.281C67.5812 188.922 67.6886 188.523 67.6886 188.084C67.6886 187.65 67.5812 187.253 67.3666 186.894C67.1566 186.535 66.8719 186.248 66.5126 186.033C66.1532 185.818 65.7542 185.711 65.3156 185.711ZM73.6542 195.21C73.1316 195.21 72.6486 195.103 72.2052 194.888C71.7619 194.673 71.3839 194.377 71.0712 193.999C70.7586 193.621 70.5346 193.187 70.3992 192.697L71.3862 192.431C71.4749 192.795 71.6359 193.11 71.8692 193.376C72.1026 193.637 72.3756 193.84 72.6882 193.985C73.0056 194.13 73.3369 194.202 73.6822 194.202C74.1302 194.202 74.5316 194.095 74.8862 193.88C75.2456 193.661 75.5302 193.371 75.7402 193.012C75.9502 192.653 76.0552 192.258 76.0552 191.829C76.0552 191.386 75.9456 190.987 75.7262 190.632C75.5069 190.273 75.2176 189.988 74.8582 189.778C74.4989 189.568 74.1069 189.463 73.6822 189.463C73.2062 189.463 72.7956 189.568 72.4502 189.778C72.1049 189.983 71.8296 190.242 71.6242 190.555L70.6862 190.163L70.9942 184.92H76.3772V185.907H71.4492L71.9602 185.424L71.6872 189.897L71.4282 189.554C71.7176 189.223 72.0676 188.964 72.4782 188.777C72.8889 188.59 73.3206 188.497 73.7732 188.497C74.3939 188.497 74.9539 188.646 75.4532 188.945C75.9526 189.239 76.3492 189.638 76.6432 190.142C76.9372 190.646 77.0842 191.208 77.0842 191.829C77.0842 192.445 76.9279 193.01 76.6152 193.523C76.3026 194.032 75.8872 194.44 75.3692 194.748C74.8512 195.056 74.2796 195.21 73.6542 195.21ZM81.282 194.993L81.289 194.055L85.846 189.939C86.238 189.584 86.497 189.248 86.623 188.931C86.7537 188.609 86.819 188.273 86.819 187.923C86.819 187.508 86.721 187.132 86.525 186.796C86.329 186.46 86.0654 186.194 85.734 185.998C85.4027 185.797 85.0317 185.697 84.621 185.697C84.1917 185.697 83.809 185.8 83.473 186.005C83.137 186.21 82.871 186.481 82.675 186.817C82.4837 187.153 82.3904 187.519 82.395 187.916H81.345C81.345 187.305 81.4897 186.756 81.779 186.271C82.0684 185.786 82.4604 185.405 82.955 185.13C83.4497 184.85 84.0097 184.71 84.635 184.71C85.2464 184.71 85.7947 184.855 86.28 185.144C86.77 185.429 87.155 185.816 87.435 186.306C87.7197 186.791 87.862 187.333 87.862 187.93C87.862 188.35 87.8107 188.721 87.708 189.043C87.61 189.36 87.4537 189.657 87.239 189.932C87.029 190.203 86.7607 190.483 86.434 190.772L82.388 194.426L82.227 194.006H87.862V194.993H81.282ZM92.6194 195.21C91.9894 195.21 91.4317 195.084 90.9464 194.832C90.4657 194.58 90.0877 194.228 89.8124 193.775C89.5417 193.318 89.4064 192.783 89.4064 192.172C89.4064 191.547 89.5581 190.991 89.8614 190.506C90.1647 190.016 90.6267 189.645 91.2474 189.393L91.2334 189.799C90.7154 189.608 90.3211 189.295 90.0504 188.861C89.7797 188.427 89.6444 187.946 89.6444 187.419C89.6444 186.859 89.7727 186.378 90.0294 185.977C90.2861 185.571 90.6361 185.258 91.0794 185.039C91.5274 184.82 92.0407 184.71 92.6194 184.71C93.1981 184.71 93.7114 184.82 94.1594 185.039C94.6074 185.258 94.9597 185.571 95.2164 185.977C95.4731 186.378 95.6014 186.859 95.6014 187.419C95.6014 187.946 95.4707 188.425 95.2094 188.854C94.9527 189.283 94.5584 189.598 94.0264 189.799L93.9914 189.393C94.6121 189.64 95.0764 190.009 95.3844 190.499C95.6971 190.989 95.8534 191.547 95.8534 192.172C95.8534 192.783 95.7157 193.318 95.4404 193.775C95.1651 194.228 94.7847 194.58 94.2994 194.832C93.8141 195.084 93.2541 195.21 92.6194 195.21ZM92.6194 194.223C93.2541 194.223 93.7697 194.048 94.1664 193.698C94.5631 193.343 94.7614 192.835 94.7614 192.172C94.7614 191.5 94.5654 190.991 94.1734 190.646C93.7814 190.296 93.2634 190.121 92.6194 190.121C91.9754 190.121 91.4597 190.296 91.0724 190.646C90.6851 190.991 90.4914 191.5 90.4914 192.172C90.4914 192.835 90.6874 193.343 91.0794 193.698C91.4714 194.048 91.9847 194.223 92.6194 194.223ZM92.6194 189.127C93.1794 189.127 93.6344 188.985 93.9844 188.7C94.3344 188.411 94.5094 187.984 94.5094 187.419C94.5094 186.854 94.3344 186.432 93.9844 186.152C93.6344 185.867 93.1794 185.725 92.6194 185.725C92.0594 185.725 91.6044 185.867 91.2544 186.152C90.9091 186.432 90.7364 186.854 90.7364 187.419C90.7364 187.984 90.9091 188.411 91.2544 188.7C91.6044 188.985 92.0594 189.127 92.6194 189.127ZM101.077 195.21C100.447 195.21 99.8725 195.058 99.3545 194.755C98.8412 194.447 98.4305 194.032 98.1225 193.509C97.8192 192.982 97.6675 192.389 97.6675 191.731V188.238C97.6675 187.561 97.8192 186.959 98.1225 186.432C98.4258 185.9 98.8388 185.482 99.3615 185.179C99.8888 184.871 100.486 184.717 101.154 184.717C101.728 184.717 102.26 184.843 102.75 185.095C103.244 185.347 103.648 185.699 103.961 186.152L103.17 186.803C102.955 186.467 102.67 186.199 102.316 185.998C101.961 185.797 101.574 185.697 101.154 185.697C100.682 185.697 100.262 185.811 99.8935 186.04C99.5248 186.269 99.2355 186.57 99.0255 186.943C98.8155 187.312 98.7105 187.713 98.7105 188.147V190.345L98.4515 190.051C98.7455 189.589 99.1305 189.216 99.6065 188.931C100.087 188.646 100.61 188.504 101.175 188.504C101.8 188.504 102.362 188.653 102.862 188.952C103.361 189.246 103.758 189.645 104.052 190.149C104.346 190.653 104.493 191.218 104.493 191.843C104.493 192.464 104.336 193.028 104.024 193.537C103.716 194.046 103.303 194.452 102.785 194.755C102.271 195.058 101.702 195.21 101.077 195.21ZM101.077 194.209C101.515 194.209 101.914 194.104 102.274 193.894C102.638 193.684 102.925 193.399 103.135 193.04C103.349 192.681 103.457 192.282 103.457 191.843C103.457 191.404 103.349 191.005 103.135 190.646C102.925 190.282 102.64 189.995 102.281 189.785C101.921 189.57 101.522 189.463 101.084 189.463C100.645 189.463 100.246 189.57 99.8865 189.785C99.5272 189.995 99.2402 190.282 99.0255 190.646C98.8155 191.005 98.7105 191.404 98.7105 191.843C98.7105 192.277 98.8155 192.674 99.0255 193.033C99.2355 193.392 99.5202 193.679 99.8795 193.894C100.239 194.104 100.638 194.209 101.077 194.209ZM106.209 190.401V189.519H110.409V190.401H106.209ZM115.518 195.21C114.897 195.21 114.337 195.065 113.838 194.776C113.343 194.487 112.951 194.095 112.662 193.6C112.373 193.101 112.228 192.541 112.228 191.92V188C112.228 187.379 112.373 186.822 112.662 186.327C112.951 185.828 113.343 185.433 113.838 185.144C114.337 184.855 114.897 184.71 115.518 184.71C116.139 184.71 116.696 184.855 117.191 185.144C117.69 185.433 118.085 185.828 118.374 186.327C118.663 186.822 118.808 187.379 118.808 188V191.92C118.808 192.541 118.663 193.101 118.374 193.6C118.085 194.095 117.69 194.487 117.191 194.776C116.696 195.065 116.139 195.21 115.518 195.21ZM115.518 194.216C115.933 194.216 116.311 194.116 116.652 193.915C116.993 193.71 117.263 193.437 117.464 193.096C117.665 192.755 117.765 192.38 117.765 191.969V187.951C117.765 187.536 117.665 187.158 117.464 186.817C117.263 186.476 116.993 186.206 116.652 186.005C116.311 185.8 115.933 185.697 115.518 185.697C115.103 185.697 114.725 185.8 114.384 186.005C114.043 186.206 113.773 186.476 113.572 186.817C113.371 187.158 113.271 187.536 113.271 187.951V191.969C113.271 192.38 113.371 192.755 113.572 193.096C113.773 193.437 114.043 193.71 114.384 193.915C114.725 194.116 115.103 194.216 115.518 194.216ZM122.53 195V186.068L120.633 187.209V186.054L122.53 184.92H123.573V195H122.53ZM126.088 190.401V189.519H130.288V190.401H126.088ZM135.397 195.21C134.776 195.21 134.216 195.065 133.717 194.776C133.222 194.487 132.83 194.095 132.541 193.6C132.252 193.101 132.107 192.541 132.107 191.92V188C132.107 187.379 132.252 186.822 132.541 186.327C132.83 185.828 133.222 185.433 133.717 185.144C134.216 184.855 134.776 184.71 135.397 184.71C136.018 184.71 136.575 184.855 137.07 185.144C137.569 185.433 137.964 185.828 138.253 186.327C138.542 186.822 138.687 187.379 138.687 188V191.92C138.687 192.541 138.542 193.101 138.253 193.6C137.964 194.095 137.569 194.487 137.07 194.776C136.575 195.065 136.018 195.21 135.397 195.21ZM135.397 194.216C135.812 194.216 136.19 194.116 136.531 193.915C136.872 193.71 137.142 193.437 137.343 193.096C137.544 192.755 137.644 192.38 137.644 191.969V187.951C137.644 187.536 137.544 187.158 137.343 186.817C137.142 186.476 136.872 186.206 136.531 186.005C136.19 185.8 135.812 185.697 135.397 185.697C134.982 185.697 134.604 185.8 134.263 186.005C133.922 186.206 133.652 186.476 133.451 186.817C133.25 187.158 133.15 187.536 133.15 187.951V191.969C133.15 192.38 133.25 192.755 133.451 193.096C133.652 193.437 133.922 193.71 134.263 193.915C134.604 194.116 134.982 194.216 135.397 194.216ZM143.942 195.21C143.321 195.21 142.761 195.065 142.262 194.776C141.767 194.487 141.375 194.095 141.086 193.6C140.797 193.101 140.652 192.541 140.652 191.92V188C140.652 187.379 140.797 186.822 141.086 186.327C141.375 185.828 141.767 185.433 142.262 185.144C142.761 184.855 143.321 184.71 143.942 184.71C144.563 184.71 145.12 184.855 145.615 185.144C146.114 185.433 146.509 185.828 146.798 186.327C147.087 186.822 147.232 187.379 147.232 188V191.92C147.232 192.541 147.087 193.101 146.798 193.6C146.509 194.095 146.114 194.487 145.615 194.776C145.12 195.065 144.563 195.21 143.942 195.21ZM143.942 194.216C144.357 194.216 144.735 194.116 145.076 193.915C145.417 193.71 145.687 193.437 145.888 193.096C146.089 192.755 146.189 192.38 146.189 191.969V187.951C146.189 187.536 146.089 187.158 145.888 186.817C145.687 186.476 145.417 186.206 145.076 186.005C144.735 185.8 144.357 185.697 143.942 185.697C143.527 185.697 143.149 185.8 142.808 186.005C142.467 186.206 142.197 186.476 141.996 186.817C141.795 187.158 141.695 187.536 141.695 187.951V191.969C141.695 192.38 141.795 192.755 141.996 193.096C142.197 193.437 142.467 193.71 142.808 193.915C143.149 194.116 143.527 194.216 143.942 194.216Z" fill="#344351"/>
<rect x="20" y="215" width="194" height="60" rx="4" fill="#F6F7F8"/>
<path d="M35.98 240V229.92H36.925L40.887 238.397L44.828 229.92H45.787V239.993H44.807V232.216L41.216 240H40.551L36.967 232.216V240H35.98ZM50.9505 240.21C50.2132 240.21 49.5738 240.047 49.0325 239.72C48.4958 239.393 48.0782 238.934 47.7795 238.341C47.4808 237.748 47.3315 237.053 47.3315 236.255C47.3315 235.429 47.4785 234.715 47.7725 234.113C48.0665 233.511 48.4795 233.047 49.0115 232.72C49.5482 232.393 50.1805 232.23 50.9085 232.23C51.6552 232.23 52.2922 232.403 52.8195 232.748C53.3468 233.089 53.7458 233.579 54.0165 234.218C54.2872 234.857 54.4108 235.62 54.3875 236.507H53.3375V236.143C53.3188 235.163 53.1065 234.423 52.7005 233.924C52.2992 233.425 51.7112 233.175 50.9365 233.175C50.1245 233.175 49.5015 233.439 49.0675 233.966C48.6382 234.493 48.4235 235.245 48.4235 236.22C48.4235 237.172 48.6382 237.912 49.0675 238.439C49.5015 238.962 50.1152 239.223 50.9085 239.223C51.4498 239.223 51.9212 239.099 52.3225 238.852C52.7285 238.6 53.0482 238.238 53.2815 237.767L54.2405 238.138C53.9418 238.796 53.5008 239.307 52.9175 239.671C52.3388 240.03 51.6832 240.21 50.9505 240.21ZM48.0595 236.507V235.646H53.8345V236.507H48.0595ZM55.9339 240V232.44H56.9629V235.723H61.2259V232.44H62.2549V240H61.2259V236.71H56.9629V240H55.9339ZM67.4114 240.21C66.6741 240.21 66.0348 240.047 65.4934 239.72C64.9568 239.393 64.5391 238.934 64.2404 238.341C63.9418 237.748 63.7924 237.053 63.7924 236.255C63.7924 235.429 63.9394 234.715 64.2334 234.113C64.5274 233.511 64.9404 233.047 65.4724 232.72C66.0091 232.393 66.6414 232.23 67.3694 232.23C68.1161 232.23 68.7531 232.403 69.2804 232.748C69.8078 233.089 70.2068 233.579 70.4774 234.218C70.7481 234.857 70.8718 235.62 70.8484 236.507H69.7984V236.143C69.7798 235.163 69.5674 234.423 69.1614 233.924C68.7601 233.425 68.1721 233.175 67.3974 233.175C66.5854 233.175 65.9624 233.439 65.5284 233.966C65.0991 234.493 64.8844 235.245 64.8844 236.22C64.8844 237.172 65.0991 237.912 65.5284 238.439C65.9624 238.962 66.5761 239.223 67.3694 239.223C67.9108 239.223 68.3821 239.099 68.7834 238.852C69.1894 238.6 69.5091 238.238 69.7424 237.767L70.7014 238.138C70.4028 238.796 69.9618 239.307 69.3784 239.671C68.7998 240.03 68.1441 240.21 67.4114 240.21ZM64.5204 236.507V235.646H70.2954V236.507H64.5204ZM71.8419 241.68V239.118C72.2712 239.118 72.5792 238.98 72.7659 238.705C72.9525 238.425 73.1042 237.979 73.2209 237.368C73.3002 236.971 73.3655 236.544 73.4169 236.087C73.4682 235.63 73.5125 235.107 73.5499 234.519C73.5872 233.926 73.6222 233.233 73.6549 232.44H78.6529V239.118H79.3809V241.68H78.3869V240H72.8289V241.68H71.8419ZM73.5849 239.118H77.6309V233.322H74.6069C74.5929 233.677 74.5719 234.052 74.5439 234.449C74.5205 234.846 74.4902 235.242 74.4529 235.639C74.4202 236.036 74.3805 236.409 74.3339 236.759C74.2919 237.104 74.2405 237.408 74.1799 237.669C74.1099 238.005 74.0329 238.292 73.9489 238.53C73.8695 238.768 73.7482 238.964 73.5849 239.118ZM79.9427 240L83.1347 236.22L80.0757 232.44H81.2377L84.2197 236.171V232.44H85.1717V236.171L88.1537 232.44H89.3087L86.2497 236.22L89.4417 240H88.2447L85.1717 236.269V240H84.2197V236.269L81.1397 240H79.9427ZM93.4837 240.21C92.7464 240.21 92.107 240.047 91.5657 239.72C91.029 239.393 90.6114 238.934 90.3127 238.341C90.014 237.748 89.8647 237.053 89.8647 236.255C89.8647 235.429 90.0117 234.715 90.3057 234.113C90.5997 233.511 91.0127 233.047 91.5447 232.72C92.0814 232.393 92.7137 232.23 93.4417 232.23C94.1884 232.23 94.8254 232.403 95.3527 232.748C95.88 233.089 96.279 233.579 96.5497 234.218C96.8204 234.857 96.944 235.62 96.9207 236.507H95.8707V236.143C95.852 235.163 95.6397 234.423 95.2337 233.924C94.8324 233.425 94.2444 233.175 93.4697 233.175C92.6577 233.175 92.0347 233.439 91.6007 233.966C91.1714 234.493 90.9567 235.245 90.9567 236.22C90.9567 237.172 91.1714 237.912 91.6007 238.439C92.0347 238.962 92.6484 239.223 93.4417 239.223C93.983 239.223 94.4544 239.099 94.8557 238.852C95.2617 238.6 95.5814 238.238 95.8147 237.767L96.7737 238.138C96.475 238.796 96.034 239.307 95.4507 239.671C94.872 240.03 94.2164 240.21 93.4837 240.21ZM90.5927 236.507V235.646H96.3677V236.507H90.5927ZM101.869 240.21C101.174 240.21 100.586 240.035 100.105 239.685C99.6245 239.33 99.2605 238.852 99.0131 238.25C98.7658 237.643 98.6421 236.964 98.6421 236.213C98.6421 235.448 98.7658 234.766 99.0131 234.169C99.2651 233.567 99.6338 233.093 100.119 232.748C100.604 232.403 101.202 232.23 101.911 232.23C102.602 232.23 103.194 232.405 103.689 232.755C104.184 233.105 104.562 233.581 104.823 234.183C105.089 234.785 105.222 235.462 105.222 236.213C105.222 236.969 105.089 237.648 104.823 238.25C104.557 238.852 104.174 239.33 103.675 239.685C103.176 240.035 102.574 240.21 101.869 240.21ZM98.4671 243.36V232.44H99.3911V238.131H99.5031V243.36H98.4671ZM101.764 239.251C102.291 239.251 102.73 239.118 103.08 238.852C103.43 238.586 103.691 238.224 103.864 237.767C104.041 237.305 104.13 236.787 104.13 236.213C104.13 235.644 104.044 235.13 103.871 234.673C103.698 234.216 103.435 233.854 103.08 233.588C102.73 233.322 102.284 233.189 101.743 233.189C101.216 233.189 100.777 233.317 100.427 233.574C100.082 233.831 99.8228 234.188 99.6501 234.645C99.4775 235.098 99.3911 235.62 99.3911 236.213C99.3911 236.796 99.4775 237.319 99.6501 237.781C99.8228 238.238 100.084 238.598 100.434 238.859C100.784 239.12 101.227 239.251 101.764 239.251ZM38.598 258.159V255.401H35.84V254.519H38.598V251.761H39.48V254.519H42.231V255.401H39.48V258.159H38.598ZM44.5854 260L48.2954 250.921H43.6264V249.92H49.3944V250.921L45.6914 260H44.5854ZM58.3145 260V258.047H53.5965V257.067L56.9705 249.92H58.1255L54.7515 257.067H58.3145V254.127H59.3505V257.067H60.4495V258.047H59.3505V260H58.3145ZM65.3156 249.717C65.9502 249.717 66.5242 249.871 67.0376 250.179C67.5556 250.482 67.9662 250.898 68.2696 251.425C68.5729 251.948 68.7246 252.536 68.7246 253.189V256.689C68.7246 257.361 68.5729 257.963 68.2696 258.495C67.9662 259.027 67.5509 259.447 67.0236 259.755C66.5009 260.058 65.9059 260.21 65.2386 260.21C64.6646 260.21 64.1326 260.084 63.6426 259.832C63.1572 259.575 62.7559 259.223 62.4386 258.775L63.2226 258.124C63.4372 258.455 63.7219 258.721 64.0766 258.922C64.4359 259.123 64.8232 259.223 65.2386 259.223C65.7146 259.223 66.1346 259.111 66.4986 258.887C66.8672 258.658 67.1566 258.36 67.3666 257.991C67.5812 257.618 67.6886 257.214 67.6886 256.78V254.582L67.9406 254.876C67.6512 255.338 67.2662 255.711 66.7856 255.996C66.3096 256.281 65.7869 256.423 65.2176 256.423C64.5969 256.423 64.0346 256.274 63.5306 255.975C63.0312 255.676 62.6346 255.275 62.3406 254.771C62.0512 254.267 61.9066 253.705 61.9066 253.084C61.9066 252.463 62.0606 251.899 62.3686 251.39C62.6766 250.877 63.0896 250.471 63.6076 250.172C64.1256 249.869 64.6949 249.717 65.3156 249.717ZM65.3156 250.711C64.8769 250.711 64.4779 250.818 64.1186 251.033C63.7592 251.243 63.4722 251.528 63.2576 251.887C63.0476 252.246 62.9426 252.645 62.9426 253.084C62.9426 253.523 63.0476 253.922 63.2576 254.281C63.4676 254.64 63.7522 254.927 64.1116 255.142C64.4709 255.352 64.8699 255.457 65.3086 255.457C65.7472 255.457 66.1462 255.352 66.5056 255.142C66.8696 254.927 67.1566 254.64 67.3666 254.281C67.5812 253.922 67.6886 253.523 67.6886 253.084C67.6886 252.65 67.5812 252.253 67.3666 251.894C67.1566 251.535 66.8719 251.248 66.5126 251.033C66.1532 250.818 65.7542 250.711 65.3156 250.711ZM73.6542 260.21C73.1316 260.21 72.6486 260.103 72.2052 259.888C71.7619 259.673 71.3839 259.377 71.0712 258.999C70.7586 258.621 70.5346 258.187 70.3992 257.697L71.3862 257.431C71.4749 257.795 71.6359 258.11 71.8692 258.376C72.1026 258.637 72.3756 258.84 72.6882 258.985C73.0056 259.13 73.3369 259.202 73.6822 259.202C74.1302 259.202 74.5316 259.095 74.8862 258.88C75.2456 258.661 75.5302 258.371 75.7402 258.012C75.9502 257.653 76.0552 257.258 76.0552 256.829C76.0552 256.386 75.9456 255.987 75.7262 255.632C75.5069 255.273 75.2176 254.988 74.8582 254.778C74.4989 254.568 74.1069 254.463 73.6822 254.463C73.2062 254.463 72.7956 254.568 72.4502 254.778C72.1049 254.983 71.8296 255.242 71.6242 255.555L70.6862 255.163L70.9942 249.92H76.3772V250.907H71.4492L71.9602 250.424L71.6872 254.897L71.4282 254.554C71.7176 254.223 72.0676 253.964 72.4782 253.777C72.8889 253.59 73.3206 253.497 73.7732 253.497C74.3939 253.497 74.9539 253.646 75.4532 253.945C75.9526 254.239 76.3492 254.638 76.6432 255.142C76.9372 255.646 77.0842 256.208 77.0842 256.829C77.0842 257.445 76.9279 258.01 76.6152 258.523C76.3026 259.032 75.8872 259.44 75.3692 259.748C74.8512 260.056 74.2796 260.21 73.6542 260.21ZM81.282 259.993L81.289 259.055L85.846 254.939C86.238 254.584 86.497 254.248 86.623 253.931C86.7537 253.609 86.819 253.273 86.819 252.923C86.819 252.508 86.721 252.132 86.525 251.796C86.329 251.46 86.0654 251.194 85.734 250.998C85.4027 250.797 85.0317 250.697 84.621 250.697C84.1917 250.697 83.809 250.8 83.473 251.005C83.137 251.21 82.871 251.481 82.675 251.817C82.4837 252.153 82.3904 252.519 82.395 252.916H81.345C81.345 252.305 81.4897 251.756 81.779 251.271C82.0684 250.786 82.4604 250.405 82.955 250.13C83.4497 249.85 84.0097 249.71 84.635 249.71C85.2464 249.71 85.7947 249.855 86.28 250.144C86.77 250.429 87.155 250.816 87.435 251.306C87.7197 251.791 87.862 252.333 87.862 252.93C87.862 253.35 87.8107 253.721 87.708 254.043C87.61 254.36 87.4537 254.657 87.239 254.932C87.029 255.203 86.7607 255.483 86.434 255.772L82.388 259.426L82.227 259.006H87.862V259.993H81.282ZM92.6194 260.21C91.9894 260.21 91.4317 260.084 90.9464 259.832C90.4657 259.58 90.0877 259.228 89.8124 258.775C89.5417 258.318 89.4064 257.783 89.4064 257.172C89.4064 256.547 89.5581 255.991 89.8614 255.506C90.1647 255.016 90.6267 254.645 91.2474 254.393L91.2334 254.799C90.7154 254.608 90.3211 254.295 90.0504 253.861C89.7797 253.427 89.6444 252.946 89.6444 252.419C89.6444 251.859 89.7727 251.378 90.0294 250.977C90.2861 250.571 90.6361 250.258 91.0794 250.039C91.5274 249.82 92.0407 249.71 92.6194 249.71C93.1981 249.71 93.7114 249.82 94.1594 250.039C94.6074 250.258 94.9597 250.571 95.2164 250.977C95.4731 251.378 95.6014 251.859 95.6014 252.419C95.6014 252.946 95.4707 253.425 95.2094 253.854C94.9527 254.283 94.5584 254.598 94.0264 254.799L93.9914 254.393C94.6121 254.64 95.0764 255.009 95.3844 255.499C95.6971 255.989 95.8534 256.547 95.8534 257.172C95.8534 257.783 95.7157 258.318 95.4404 258.775C95.1651 259.228 94.7847 259.58 94.2994 259.832C93.8141 260.084 93.2541 260.21 92.6194 260.21ZM92.6194 259.223C93.2541 259.223 93.7697 259.048 94.1664 258.698C94.5631 258.343 94.7614 257.835 94.7614 257.172C94.7614 256.5 94.5654 255.991 94.1734 255.646C93.7814 255.296 93.2634 255.121 92.6194 255.121C91.9754 255.121 91.4597 255.296 91.0724 255.646C90.6851 255.991 90.4914 256.5 90.4914 257.172C90.4914 257.835 90.6874 258.343 91.0794 258.698C91.4714 259.048 91.9847 259.223 92.6194 259.223ZM92.6194 254.127C93.1794 254.127 93.6344 253.985 93.9844 253.7C94.3344 253.411 94.5094 252.984 94.5094 252.419C94.5094 251.854 94.3344 251.432 93.9844 251.152C93.6344 250.867 93.1794 250.725 92.6194 250.725C92.0594 250.725 91.6044 250.867 91.2544 251.152C90.9091 251.432 90.7364 251.854 90.7364 252.419C90.7364 252.984 90.9091 253.411 91.2544 253.7C91.6044 253.985 92.0594 254.127 92.6194 254.127ZM101.077 260.21C100.447 260.21 99.8725 260.058 99.3545 259.755C98.8412 259.447 98.4305 259.032 98.1225 258.509C97.8192 257.982 97.6675 257.389 97.6675 256.731V253.238C97.6675 252.561 97.8192 251.959 98.1225 251.432C98.4258 250.9 98.8388 250.482 99.3615 250.179C99.8888 249.871 100.486 249.717 101.154 249.717C101.728 249.717 102.26 249.843 102.75 250.095C103.244 250.347 103.648 250.699 103.961 251.152L103.17 251.803C102.955 251.467 102.67 251.199 102.316 250.998C101.961 250.797 101.574 250.697 101.154 250.697C100.682 250.697 100.262 250.811 99.8935 251.04C99.5248 251.269 99.2355 251.57 99.0255 251.943C98.8155 252.312 98.7105 252.713 98.7105 253.147V255.345L98.4515 255.051C98.7455 254.589 99.1305 254.216 99.6065 253.931C100.087 253.646 100.61 253.504 101.175 253.504C101.8 253.504 102.362 253.653 102.862 253.952C103.361 254.246 103.758 254.645 104.052 255.149C104.346 255.653 104.493 256.218 104.493 256.843C104.493 257.464 104.336 258.028 104.024 258.537C103.716 259.046 103.303 259.452 102.785 259.755C102.271 260.058 101.702 260.21 101.077 260.21ZM101.077 259.209C101.515 259.209 101.914 259.104 102.274 258.894C102.638 258.684 102.925 258.399 103.135 258.04C103.349 257.681 103.457 257.282 103.457 256.843C103.457 256.404 103.349 256.005 103.135 255.646C102.925 255.282 102.64 254.995 102.281 254.785C101.921 254.57 101.522 254.463 101.084 254.463C100.645 254.463 100.246 254.57 99.8865 254.785C99.5272 254.995 99.2402 255.282 99.0255 255.646C98.8155 256.005 98.7105 256.404 98.7105 256.843C98.7105 257.277 98.8155 257.674 99.0255 258.033C99.2355 258.392 99.5202 258.679 99.8795 258.894C100.239 259.104 100.638 259.209 101.077 259.209ZM106.209 255.401V254.519H110.409V255.401H106.209ZM115.518 260.21C114.897 260.21 114.337 260.065 113.838 259.776C113.343 259.487 112.951 259.095 112.662 258.6C112.373 258.101 112.228 257.541 112.228 256.92V253C112.228 252.379 112.373 251.822 112.662 251.327C112.951 250.828 113.343 250.433 113.838 250.144C114.337 249.855 114.897 249.71 115.518 249.71C116.139 249.71 116.696 249.855 117.191 250.144C117.69 250.433 118.085 250.828 118.374 251.327C118.663 251.822 118.808 252.379 118.808 253V256.92C118.808 257.541 118.663 258.101 118.374 258.6C118.085 259.095 117.69 259.487 117.191 259.776C116.696 260.065 116.139 260.21 115.518 260.21ZM115.518 259.216C115.933 259.216 116.311 259.116 116.652 258.915C116.993 258.71 117.263 258.437 117.464 258.096C117.665 257.755 117.765 257.38 117.765 256.969V252.951C117.765 252.536 117.665 252.158 117.464 251.817C117.263 251.476 116.993 251.206 116.652 251.005C116.311 250.8 115.933 250.697 115.518 250.697C115.103 250.697 114.725 250.8 114.384 251.005C114.043 251.206 113.773 251.476 113.572 251.817C113.371 252.158 113.271 252.536 113.271 252.951V256.969C113.271 257.38 113.371 257.755 113.572 258.096C113.773 258.437 114.043 258.71 114.384 258.915C114.725 259.116 115.103 259.216 115.518 259.216ZM122.53 260V251.068L120.633 252.209V251.054L122.53 249.92H123.573V260H122.53ZM126.088 255.401V254.519H130.288V255.401H126.088ZM135.397 260.21C134.776 260.21 134.216 260.065 133.717 259.776C133.222 259.487 132.83 259.095 132.541 258.6C132.252 258.101 132.107 257.541 132.107 256.92V253C132.107 252.379 132.252 251.822 132.541 251.327C132.83 250.828 133.222 250.433 133.717 250.144C134.216 249.855 134.776 249.71 135.397 249.71C136.018 249.71 136.575 249.855 137.07 250.144C137.569 250.433 137.964 250.828 138.253 251.327C138.542 251.822 138.687 252.379 138.687 253V256.92C138.687 257.541 138.542 258.101 138.253 258.6C137.964 259.095 137.569 259.487 137.07 259.776C136.575 260.065 136.018 260.21 135.397 260.21ZM135.397 259.216C135.812 259.216 136.19 259.116 136.531 258.915C136.872 258.71 137.142 258.437 137.343 258.096C137.544 257.755 137.644 257.38 137.644 256.969V252.951C137.644 252.536 137.544 252.158 137.343 251.817C137.142 251.476 136.872 251.206 136.531 251.005C136.19 250.8 135.812 250.697 135.397 250.697C134.982 250.697 134.604 250.8 134.263 251.005C133.922 251.206 133.652 251.476 133.451 251.817C133.25 252.158 133.15 252.536 133.15 252.951V256.969C133.15 257.38 133.25 257.755 133.451 258.096C133.652 258.437 133.922 258.71 134.263 258.915C134.604 259.116 134.982 259.216 135.397 259.216ZM143.942 260.21C143.321 260.21 142.761 260.065 142.262 259.776C141.767 259.487 141.375 259.095 141.086 258.6C140.797 258.101 140.652 257.541 140.652 256.92V253C140.652 252.379 140.797 251.822 141.086 251.327C141.375 250.828 141.767 250.433 142.262 250.144C142.761 249.855 143.321 249.71 143.942 249.71C144.563 249.71 145.12 249.855 145.615 250.144C146.114 250.433 146.509 250.828 146.798 251.327C147.087 251.822 147.232 252.379 147.232 253V256.92C147.232 257.541 147.087 258.101 146.798 258.6C146.509 259.095 146.114 259.487 145.615 259.776C145.12 260.065 144.563 260.21 143.942 260.21ZM143.942 259.216C144.357 259.216 144.735 259.116 145.076 258.915C145.417 258.71 145.687 258.437 145.888 258.096C146.089 257.755 146.189 257.38 146.189 256.969V252.951C146.189 252.536 146.089 252.158 145.888 251.817C145.687 251.476 145.417 251.206 145.076 251.005C144.735 250.8 144.357 250.697 143.942 250.697C143.527 250.697 143.149 250.8 142.808 251.005C142.467 251.206 142.197 251.476 141.996 251.817C141.795 252.158 141.695 252.536 141.695 252.951V256.969C141.695 257.38 141.795 257.755 141.996 258.096C142.197 258.437 142.467 258.71 142.808 258.915C143.149 259.116 143.527 259.216 143.942 259.216Z" fill="#344351"/>
<path d="M213.727 40.4192C213.496 40.2687 213.43 39.959 213.581 39.7275C213.731 39.496 214.041 39.4303 214.273 39.5808L213.727 40.4192ZM216.862 98.4978C216.587 98.5235 216.343 98.3213 216.318 98.0464L215.9 93.5658C215.875 93.2908 216.077 93.0472 216.352 93.0216C216.627 92.9959 216.87 93.1981 216.896 93.473L217.267 97.4558L221.25 97.0847C221.525 97.0591 221.769 97.2612 221.794 97.5362C221.82 97.8111 221.618 98.0548 221.343 98.0804L216.862 98.4978ZM215.532 40.4431C215.756 40.6045 215.807 40.917 215.646 41.1411C215.484 41.3651 215.172 41.416 214.948 41.2547L215.532 40.4431ZM217.265 43.0939C217.057 42.9124 217.035 42.5965 217.217 42.3885C217.398 42.1804 217.714 42.1589 217.922 42.3405L217.265 43.0939ZM220.127 44.4504C220.317 44.6503 220.31 44.9668 220.11 45.1574C219.91 45.3479 219.594 45.3403 219.403 45.1405L220.127 44.4504ZM221.347 47.3743C221.175 47.158 221.211 46.8435 221.428 46.6718C221.644 46.5002 221.959 46.5364 222.13 46.7527L221.347 47.3743ZM223.917 49.2257C224.068 49.4566 224.004 49.7666 223.773 49.918C223.542 50.0695 223.232 50.0051 223.081 49.7742L223.917 49.2257ZM224.591 52.3197C224.461 52.0761 224.553 51.7732 224.796 51.6431C225.04 51.513 225.343 51.605 225.473 51.8486L224.591 52.3197ZM226.788 54.6021C226.895 54.8564 226.776 55.1498 226.522 55.2575C226.268 55.3651 225.974 55.2463 225.867 54.992L226.788 54.6021ZM226.898 57.7678C226.813 57.5049 226.958 57.2233 227.221 57.1389C227.484 57.0545 227.765 57.1992 227.85 57.4621L226.898 57.7678ZM228.651 60.4038C228.712 60.6732 228.542 60.9407 228.273 61.0013C228.004 61.062 227.736 60.8928 227.675 60.6234L228.651 60.4038ZM228.198 63.5415C228.161 63.2678 228.353 63.0162 228.627 62.9796C228.901 62.943 229.152 63.1351 229.189 63.4088L228.198 63.5415ZM229.461 66.4419C229.474 66.7177 229.261 66.9517 228.985 66.9646C228.709 66.9774 228.475 66.7642 228.462 66.4883L229.461 66.4419ZM228.474 69.4553C228.485 69.1793 228.717 68.9641 228.993 68.9746C229.269 68.9851 229.484 69.2173 229.474 69.4932L228.474 69.4553ZM229.234 72.5257C229.201 72.7998 228.952 72.9955 228.678 72.9626C228.404 72.9298 228.208 72.6809 228.241 72.4067L229.234 72.5257ZM227.772 75.3404C227.826 75.0696 228.09 74.894 228.36 74.9481C228.631 75.0022 228.807 75.2656 228.753 75.5364L227.772 75.3404ZM228.047 78.4922C227.973 78.7582 227.697 78.914 227.431 78.8401C227.165 78.7661 227.009 78.4905 227.083 78.2244L228.047 78.4922ZM226.188 81.0556C226.28 80.7953 226.566 80.6592 226.826 80.7515C227.086 80.8437 227.223 81.1295 227.13 81.3898L226.188 81.0556ZM226.019 84.2222C225.91 84.4759 225.616 84.5931 225.362 84.484C225.109 84.3749 224.992 84.0808 225.101 83.8271L226.019 84.2222ZM223.84 86.5249C223.965 86.2783 224.265 86.1793 224.512 86.3037C224.758 86.4281 224.857 86.7288 224.733 86.9753L223.84 86.5249ZM223.291 89.6397C223.153 89.8788 222.847 89.9606 222.608 89.8224C222.369 89.6843 222.287 89.3785 222.426 89.1394L223.291 89.6397ZM220.868 91.6765C221.018 91.445 221.328 91.3794 221.56 91.5299C221.791 91.6805 221.857 91.9902 221.706 92.2217L220.868 91.6765ZM219.992 94.7195C219.831 94.9434 219.518 94.9938 219.294 94.8321C219.07 94.6704 219.02 94.3579 219.182 94.134L219.992 94.7195ZM217.38 96.5114C217.552 96.2951 217.866 96.2589 218.082 96.4306C218.299 96.6022 218.335 96.9168 218.163 97.133L217.38 96.5114ZM214.273 39.5808C214.698 39.8574 215.118 40.1449 215.532 40.4431L214.948 41.2547C214.547 40.9657 214.14 40.6871 213.727 40.4192L214.273 39.5808ZM217.922 42.3405C218.685 43.0057 219.421 43.7098 220.127 44.4504L219.403 45.1405C218.718 44.4219 218.004 43.739 217.265 43.0939L217.922 42.3405ZM222.13 46.7527C222.759 47.5447 223.355 48.3697 223.917 49.2257L223.081 49.7742C222.536 48.9435 221.957 48.1429 221.347 47.3743L222.13 46.7527ZM225.473 51.8486C225.949 52.7396 226.388 53.658 226.788 54.6021L225.867 54.992C225.479 54.0757 225.053 53.1843 224.591 52.3197L225.473 51.8486ZM227.85 57.4621C228.157 58.421 228.426 59.4021 228.651 60.4038L227.675 60.6234C227.457 59.6509 227.196 58.6985 226.898 57.7678L227.85 57.4621ZM229.189 63.4088C229.322 64.4032 229.414 65.4147 229.461 66.4419L228.462 66.4883C228.416 65.49 228.327 64.5073 228.198 63.5415L229.189 63.4088ZM229.474 69.4932C229.436 70.4918 229.357 71.5031 229.234 72.5257L228.241 72.4067C228.36 71.4109 228.437 70.4267 228.474 69.4553L229.474 69.4932ZM228.753 75.5364C228.558 76.5131 228.323 77.4987 228.047 78.4922L227.083 78.2244C227.353 77.2545 227.582 76.2928 227.772 75.3404L228.753 75.5364ZM227.13 81.3898C226.798 82.3283 226.428 83.2727 226.019 84.2222L225.101 83.8271C225.501 82.8974 225.863 81.9733 226.188 81.0556L227.13 81.3898ZM224.733 86.9753C224.287 87.86 223.806 88.7483 223.291 89.6397L222.426 89.1394C222.931 88.2641 223.403 87.3924 223.84 86.5249L224.733 86.9753ZM221.706 92.2217C221.166 93.0524 220.595 93.8852 219.992 94.7195L219.182 94.134C219.775 93.3126 220.337 92.4933 220.868 91.6765L221.706 92.2217ZM218.163 97.133C217.85 97.5282 217.529 97.9236 217.201 98.3192L216.431 97.6808C216.754 97.2907 217.071 96.9008 217.38 96.5114L218.163 97.133Z" fill="#F88C28"/>
<path d="M213.727 105.419C213.496 105.269 213.43 104.959 213.581 104.727C213.731 104.496 214.041 104.43 214.273 104.581L213.727 105.419ZM216.862 163.498C216.587 163.523 216.343 163.321 216.318 163.046L215.9 158.566C215.875 158.291 216.077 158.047 216.352 158.022C216.627 157.996 216.87 158.198 216.896 158.473L217.267 162.456L221.25 162.085C221.525 162.059 221.769 162.261 221.794 162.536C221.82 162.811 221.618 163.055 221.343 163.08L216.862 163.498ZM215.532 105.443C215.756 105.604 215.807 105.917 215.646 106.141C215.484 106.365 215.172 106.416 214.948 106.255L215.532 105.443ZM217.265 108.094C217.057 107.912 217.035 107.597 217.217 107.388C217.398 107.18 217.714 107.159 217.922 107.34L217.265 108.094ZM220.127 109.45C220.317 109.65 220.31 109.967 220.11 110.157C219.91 110.348 219.594 110.34 219.403 110.14L220.127 109.45ZM221.347 112.374C221.175 112.158 221.211 111.843 221.428 111.672C221.644 111.5 221.959 111.536 222.13 111.753L221.347 112.374ZM223.917 114.226C224.068 114.457 224.004 114.767 223.773 114.918C223.542 115.069 223.232 115.005 223.081 114.774L223.917 114.226ZM224.591 117.32C224.461 117.076 224.553 116.773 224.796 116.643C225.04 116.513 225.343 116.605 225.473 116.849L224.591 117.32ZM226.788 119.602C226.895 119.856 226.776 120.15 226.522 120.257C226.268 120.365 225.974 120.246 225.867 119.992L226.788 119.602ZM226.898 122.768C226.813 122.505 226.958 122.223 227.221 122.139C227.484 122.054 227.765 122.199 227.85 122.462L226.898 122.768ZM228.651 125.404C228.712 125.673 228.542 125.941 228.273 126.001C228.004 126.062 227.736 125.893 227.675 125.623L228.651 125.404ZM228.198 128.541C228.161 128.268 228.353 128.016 228.627 127.98C228.901 127.943 229.152 128.135 229.189 128.409L228.198 128.541ZM229.461 131.442C229.474 131.718 229.261 131.952 228.985 131.965C228.709 131.977 228.475 131.764 228.462 131.488L229.461 131.442ZM228.474 134.455C228.485 134.179 228.717 133.964 228.993 133.975C229.269 133.985 229.484 134.217 229.474 134.493L228.474 134.455ZM229.234 137.526C229.201 137.8 228.952 137.995 228.678 137.963C228.404 137.93 228.208 137.681 228.241 137.407L229.234 137.526ZM227.772 140.34C227.826 140.07 228.09 139.894 228.36 139.948C228.631 140.002 228.807 140.266 228.753 140.536L227.772 140.34ZM228.047 143.492C227.973 143.758 227.697 143.914 227.431 143.84C227.165 143.766 227.009 143.49 227.083 143.224L228.047 143.492ZM226.188 146.056C226.28 145.795 226.566 145.659 226.826 145.751C227.086 145.844 227.223 146.13 227.13 146.39L226.188 146.056ZM226.019 149.222C225.91 149.476 225.616 149.593 225.362 149.484C225.109 149.375 224.992 149.081 225.101 148.827L226.019 149.222ZM223.84 151.525C223.965 151.278 224.265 151.179 224.512 151.304C224.758 151.428 224.857 151.729 224.733 151.975L223.84 151.525ZM223.291 154.64C223.153 154.879 222.847 154.961 222.608 154.822C222.369 154.684 222.287 154.378 222.426 154.139L223.291 154.64ZM220.868 156.676C221.018 156.445 221.328 156.379 221.56 156.53C221.791 156.68 221.857 156.99 221.706 157.222L220.868 156.676ZM219.992 159.72C219.831 159.943 219.518 159.994 219.294 159.832C219.07 159.67 219.02 159.358 219.182 159.134L219.992 159.72ZM217.38 161.511C217.552 161.295 217.866 161.259 218.082 161.431C218.299 161.602 218.335 161.917 218.163 162.133L217.38 161.511ZM214.273 104.581C214.698 104.857 215.118 105.145 215.532 105.443L214.948 106.255C214.547 105.966 214.14 105.687 213.727 105.419L214.273 104.581ZM217.922 107.34C218.685 108.006 219.421 108.71 220.127 109.45L219.403 110.14C218.718 109.422 218.004 108.739 217.265 108.094L217.922 107.34ZM222.13 111.753C222.759 112.545 223.355 113.37 223.917 114.226L223.081 114.774C222.536 113.943 221.957 113.143 221.347 112.374L222.13 111.753ZM225.473 116.849C225.949 117.74 226.388 118.658 226.788 119.602L225.867 119.992C225.479 119.076 225.053 118.184 224.591 117.32L225.473 116.849ZM227.85 122.462C228.157 123.421 228.426 124.402 228.651 125.404L227.675 125.623C227.457 124.651 227.196 123.699 226.898 122.768L227.85 122.462ZM229.189 128.409C229.322 129.403 229.414 130.415 229.461 131.442L228.462 131.488C228.416 130.49 228.327 129.507 228.198 128.541L229.189 128.409ZM229.474 134.493C229.436 135.492 229.357 136.503 229.234 137.526L228.241 137.407C228.36 136.411 228.437 135.427 228.474 134.455L229.474 134.493ZM228.753 140.536C228.558 141.513 228.323 142.499 228.047 143.492L227.083 143.224C227.353 142.254 227.582 141.293 227.772 140.34L228.753 140.536ZM227.13 146.39C226.798 147.328 226.428 148.273 226.019 149.222L225.101 148.827C225.501 147.897 225.863 146.973 226.188 146.056L227.13 146.39ZM224.733 151.975C224.287 152.86 223.806 153.748 223.291 154.64L222.426 154.139C222.931 153.264 223.403 152.392 223.84 151.525L224.733 151.975ZM221.706 157.222C221.166 158.052 220.595 158.885 219.992 159.72L219.182 159.134C219.775 158.313 220.337 157.493 220.868 156.676L221.706 157.222ZM218.163 162.133C217.85 162.528 217.529 162.924 217.201 163.319L216.431 162.681C216.754 162.291 217.071 161.901 217.38 161.511L218.163 162.133Z" fill="#F88C28"/>
<path d="M213.727 170.419C213.496 170.269 213.43 169.959 213.581 169.727C213.731 169.496 214.041 169.43 214.273 169.581L213.727 170.419ZM216.862 228.498C216.587 228.523 216.343 228.321 216.318 228.046L215.9 223.566C215.875 223.291 216.077 223.047 216.352 223.022C216.627 222.996 216.87 223.198 216.896 223.473L217.267 227.456L221.25 227.085C221.525 227.059 221.769 227.261 221.794 227.536C221.82 227.811 221.618 228.055 221.343 228.08L216.862 228.498ZM215.532 170.443C215.756 170.604 215.807 170.917 215.646 171.141C215.484 171.365 215.172 171.416 214.948 171.255L215.532 170.443ZM217.265 173.094C217.057 172.912 217.035 172.597 217.217 172.388C217.398 172.18 217.714 172.159 217.922 172.34L217.265 173.094ZM220.127 174.45C220.317 174.65 220.31 174.967 220.11 175.157C219.91 175.348 219.594 175.34 219.403 175.14L220.127 174.45ZM221.347 177.374C221.175 177.158 221.211 176.843 221.428 176.672C221.644 176.5 221.959 176.536 222.13 176.753L221.347 177.374ZM223.917 179.226C224.068 179.457 224.004 179.767 223.773 179.918C223.542 180.069 223.232 180.005 223.081 179.774L223.917 179.226ZM224.591 182.32C224.461 182.076 224.553 181.773 224.796 181.643C225.04 181.513 225.343 181.605 225.473 181.849L224.591 182.32ZM226.788 184.602C226.895 184.856 226.776 185.15 226.522 185.257C226.268 185.365 225.974 185.246 225.867 184.992L226.788 184.602ZM226.898 187.768C226.813 187.505 226.958 187.223 227.221 187.139C227.484 187.054 227.765 187.199 227.85 187.462L226.898 187.768ZM228.651 190.404C228.712 190.673 228.542 190.941 228.273 191.001C228.004 191.062 227.736 190.893 227.675 190.623L228.651 190.404ZM228.198 193.541C228.161 193.268 228.353 193.016 228.627 192.98C228.901 192.943 229.152 193.135 229.189 193.409L228.198 193.541ZM229.461 196.442C229.474 196.718 229.261 196.952 228.985 196.965C228.709 196.977 228.475 196.764 228.462 196.488L229.461 196.442ZM228.474 199.455C228.485 199.179 228.717 198.964 228.993 198.975C229.269 198.985 229.484 199.217 229.474 199.493L228.474 199.455ZM229.234 202.526C229.201 202.8 228.952 202.995 228.678 202.963C228.404 202.93 228.208 202.681 228.241 202.407L229.234 202.526ZM227.772 205.34C227.826 205.07 228.09 204.894 228.36 204.948C228.631 205.002 228.807 205.266 228.753 205.536L227.772 205.34ZM228.047 208.492C227.973 208.758 227.697 208.914 227.431 208.84C227.165 208.766 227.009 208.49 227.083 208.224L228.047 208.492ZM226.188 211.056C226.28 210.795 226.566 210.659 226.826 210.751C227.086 210.844 227.223 211.13 227.13 211.39L226.188 211.056ZM226.019 214.222C225.91 214.476 225.616 214.593 225.362 214.484C225.109 214.375 224.992 214.081 225.101 213.827L226.019 214.222ZM223.84 216.525C223.965 216.278 224.265 216.179 224.512 216.304C224.758 216.428 224.857 216.729 224.733 216.975L223.84 216.525ZM223.291 219.64C223.153 219.879 222.847 219.961 222.608 219.822C222.369 219.684 222.287 219.378 222.426 219.139L223.291 219.64ZM220.868 221.676C221.018 221.445 221.328 221.379 221.56 221.53C221.791 221.68 221.857 221.99 221.706 222.222L220.868 221.676ZM219.992 224.72C219.831 224.943 219.518 224.994 219.294 224.832C219.07 224.67 219.02 224.358 219.182 224.134L219.992 224.72ZM217.38 226.511C217.552 226.295 217.866 226.259 218.082 226.431C218.299 226.602 218.335 226.917 218.163 227.133L217.38 226.511ZM214.273 169.581C214.698 169.857 215.118 170.145 215.532 170.443L214.948 171.255C214.547 170.966 214.14 170.687 213.727 170.419L214.273 169.581ZM217.922 172.34C218.685 173.006 219.421 173.71 220.127 174.45L219.403 175.14C218.718 174.422 218.004 173.739 217.265 173.094L217.922 172.34ZM222.13 176.753C222.759 177.545 223.355 178.37 223.917 179.226L223.081 179.774C222.536 178.943 221.957 178.143 221.347 177.374L222.13 176.753ZM225.473 181.849C225.949 182.74 226.388 183.658 226.788 184.602L225.867 184.992C225.479 184.076 225.053 183.184 224.591 182.32L225.473 181.849ZM227.85 187.462C228.157 188.421 228.426 189.402 228.651 190.404L227.675 190.623C227.457 189.651 227.196 188.699 226.898 187.768L227.85 187.462ZM229.189 193.409C229.322 194.403 229.414 195.415 229.461 196.442L228.462 196.488C228.416 195.49 228.327 194.507 228.198 193.541L229.189 193.409ZM229.474 199.493C229.436 200.492 229.357 201.503 229.234 202.526L228.241 202.407C228.36 201.411 228.437 200.427 228.474 199.455L229.474 199.493ZM228.753 205.536C228.558 206.513 228.323 207.499 228.047 208.492L227.083 208.224C227.353 207.254 227.582 206.293 227.772 205.34L228.753 205.536ZM227.13 211.39C226.798 212.328 226.428 213.273 226.019 214.222L225.101 213.827C225.501 212.897 225.863 211.973 226.188 211.056L227.13 211.39ZM224.733 216.975C224.287 217.86 223.806 218.748 223.291 219.64L222.426 219.139C222.931 218.264 223.403 217.392 223.84 216.525L224.733 216.975ZM221.706 222.222C221.166 223.052 220.595 223.885 219.992 224.72L219.182 224.134C219.775 223.313 220.337 222.493 220.868 221.676L221.706 222.222ZM218.163 227.133C217.85 227.528 217.529 227.924 217.201 228.319L216.431 227.681C216.754 227.291 217.071 226.901 217.38 226.511L218.163 227.133Z" fill="#F88C28"/>
</svg>
