<svg width="583" height="346" viewBox="0 0 583 346" fill="none" xmlns="http://www.w3.org/2000/svg">
<g clip-path="url(#clip0_5708_28936)">
<path d="M298.556 256.353C298.556 257.957 298.081 259.526 297.191 260.86C296.301 262.195 295.035 263.235 293.555 263.849C292.074 264.463 290.445 264.624 288.873 264.311C287.302 263.998 285.858 263.225 284.725 262.09C283.592 260.955 282.82 259.51 282.507 257.936C282.195 256.362 282.355 254.73 282.968 253.248C283.582 251.765 284.62 250.498 285.953 249.606C287.285 248.715 288.851 248.239 290.454 248.239C292.602 248.242 294.661 249.098 296.18 250.619C297.699 252.14 298.553 254.202 298.556 256.353Z" fill="#55626F"/>
<path d="M290.454 265.077C288.731 265.079 287.045 264.57 285.611 263.612C284.177 262.655 283.058 261.293 282.397 259.7C281.736 258.106 281.562 256.351 281.896 254.658C282.231 252.965 283.06 251.409 284.278 250.188C285.496 248.967 287.048 248.135 288.738 247.797C290.429 247.459 292.181 247.631 293.773 248.291C295.366 248.951 296.727 250.07 297.685 251.504C298.643 252.939 299.154 254.627 299.154 256.353C299.154 258.664 298.238 260.882 296.607 262.517C294.976 264.153 292.763 265.074 290.454 265.077ZM290.454 248.837C288.967 248.835 287.512 249.275 286.274 250.101C285.036 250.927 284.07 252.102 283.5 253.478C282.93 254.854 282.78 256.369 283.069 257.83C283.359 259.291 284.075 260.634 285.127 261.687C286.179 262.741 287.52 263.458 288.979 263.748C290.438 264.038 291.95 263.888 293.324 263.317C294.698 262.746 295.872 261.779 296.697 260.539C297.522 259.299 297.961 257.842 297.959 256.353C297.956 254.36 297.164 252.451 295.757 251.042C294.351 249.633 292.444 248.84 290.454 248.837Z" fill="white"/>
<path d="M111.367 252.765H469.879C476.382 252.765 481.628 247.781 481.664 241.728C481.664 241.727 481.664 241.727 481.664 241.726M111.367 252.765L482.164 241.728M111.367 252.765C104.824 252.765 99.582 247.801 99.582 241.752V33.3888C99.582 27.3286 104.824 22.3762 111.367 22.3762H469.879C476.422 22.3762 481.664 27.3286 481.664 33.3888L481.664 241.726M111.367 252.765L481.664 241.726M481.664 241.726L482.164 241.728M482.164 241.728V33.3888C482.164 27.0222 476.667 21.8762 469.879 21.8762H111.367C104.579 21.8762 99.082 27.0222 99.082 33.3888V241.752C99.082 248.107 104.579 253.265 111.367 253.265H469.879C476.631 253.265 482.128 248.083 482.164 241.728Z" fill="#F6F7F8" stroke="#55626F"/>
<path d="M117.797 42.2288H459.125V240.309H117.797V42.2288Z" fill="white" stroke="#55626F"/>
<path d="M293.409 30.8536C293.411 31.4062 293.249 31.9469 292.944 32.4072C292.639 32.8676 292.204 33.2268 291.695 33.4395C291.187 33.6522 290.626 33.7089 290.085 33.6024C289.544 33.4959 289.047 33.231 288.656 32.8412C288.265 32.4513 287.999 31.954 287.89 31.4121C287.782 30.8703 287.836 30.3085 288.047 29.7978C288.258 29.2872 288.615 28.8507 289.074 28.5437C289.532 28.2366 290.071 28.0728 290.622 28.0728C291.359 28.0727 292.066 28.3652 292.589 28.8864C293.111 29.4075 293.406 30.1149 293.409 30.8536Z" fill="white" stroke="#55626F"/>
<path d="M335.685 269.756H331.275V269.086L289.664 269.421L248.053 269.086V269.756H243.631C242.902 280.407 239.699 323.801 235.051 335.804H344.277C339.617 323.801 336.426 280.407 335.685 269.756Z" fill="#F6F7F8"/>
<path d="M344.278 336.402H235.051C234.954 336.403 234.857 336.38 234.771 336.335C234.685 336.29 234.611 336.224 234.555 336.144C234.5 336.064 234.465 335.971 234.453 335.875C234.442 335.778 234.454 335.68 234.489 335.589C239.018 323.92 242.173 282.214 243.034 269.708C243.046 269.558 243.114 269.418 243.225 269.316C243.336 269.214 243.481 269.157 243.631 269.158H247.455V269.086C247.456 268.927 247.516 268.773 247.623 268.655C247.739 268.546 247.893 268.486 248.053 268.488L289.664 268.823L331.276 268.488C331.431 268.487 331.582 268.547 331.694 268.655C331.808 268.769 331.873 268.924 331.873 269.086V269.158H335.697C335.846 269.157 335.99 269.214 336.099 269.317C336.208 269.419 336.274 269.559 336.283 269.708C337.143 282.214 340.31 323.932 344.827 335.589C344.862 335.68 344.875 335.779 344.865 335.877C344.855 335.975 344.821 336.069 344.768 336.151C344.711 336.228 344.638 336.292 344.552 336.335C344.467 336.379 344.373 336.402 344.278 336.402ZM235.899 335.206H343.453C339.103 322.58 336.068 283.231 335.171 270.343H331.311C331.153 270.343 331.001 270.279 330.889 270.167C330.777 270.055 330.714 269.903 330.714 269.744V269.672L289.664 270.019L248.651 269.684V269.756C248.647 269.914 248.583 270.064 248.472 270.176C248.361 270.287 248.21 270.351 248.053 270.354H244.193C243.297 283.183 240.261 322.568 235.899 335.206Z" fill="#55626F"/>
<path d="M343.56 335.304H235.768C236.853 332.213 237.847 327.5 238.744 321.998C239.711 316.063 240.571 309.171 241.308 302.326C242.741 289.019 243.71 275.874 244.098 270.256H248.053H248.553V269.756V269.59L289.66 269.921V269.921L289.668 269.921L330.775 269.59V269.756V270.256H331.275H335.219C335.612 275.873 336.581 289.019 338.014 302.326C338.751 309.171 339.611 316.063 340.579 321.998C341.477 327.5 342.472 332.213 343.56 335.304Z" fill="#F6F7F8" stroke="#55626F"/>
<path d="M99.0508 239.94V265.044C99.0508 266.658 99.3688 268.255 99.9866 269.745C100.604 271.236 101.51 272.59 102.651 273.73C103.793 274.87 105.148 275.774 106.639 276.39C108.13 277.007 109.728 277.323 111.341 277.322H469.936C473.193 277.322 476.316 276.028 478.618 273.726C480.921 271.423 482.215 268.3 482.215 265.044V239.94H99.0508Z" fill="#55626F"/>
<path d="M298.056 256.353C298.056 257.859 297.61 259.331 296.775 260.583C295.939 261.835 294.752 262.811 293.363 263.387C291.974 263.963 290.446 264.114 288.971 263.82C287.496 263.527 286.142 262.801 285.079 261.737C284.015 260.672 283.291 259.315 282.998 257.838C282.704 256.361 282.855 254.83 283.43 253.439C284.006 252.047 284.98 250.858 286.231 250.022C287.481 249.185 288.95 248.739 290.454 248.739C292.469 248.742 294.401 249.545 295.826 250.972C297.251 252.399 298.053 254.335 298.056 256.353Z" fill="#55626F" stroke="white"/>
<path d="M214.259 327.582H366.638C371.354 327.582 375.877 329.458 379.212 332.798C382.547 336.137 384.42 340.667 384.42 345.39H196.477C196.477 340.667 198.35 336.137 201.685 332.798C205.02 329.458 209.543 327.582 214.259 327.582Z" fill="#55626F"/>
<path d="M384.432 346H196.476C196.319 345.997 196.169 345.933 196.057 345.821C195.946 345.71 195.882 345.559 195.879 345.402C195.882 340.518 197.821 335.835 201.269 332.382C204.718 328.929 209.394 326.987 214.271 326.984H366.638C371.516 326.99 376.192 328.934 379.64 332.39C383.088 335.845 385.027 340.529 385.03 345.414C385.024 345.569 384.958 345.717 384.847 345.826C384.736 345.935 384.588 345.997 384.432 346ZM197.086 344.803H383.835C383.674 340.345 381.794 336.122 378.589 333.022C375.385 329.922 371.105 328.187 366.65 328.181H214.271C209.815 328.187 205.536 329.922 202.331 333.022C199.127 336.122 197.247 340.345 197.086 344.803Z" fill="#55626F"/>
<path d="M336.928 328.082C336.806 330.129 335.94 332.067 334.485 333.525C332.911 335.101 330.777 335.986 328.552 335.986H252.38C250.155 335.986 248.02 335.101 246.447 333.525C244.991 332.067 244.125 330.129 244.004 328.082H336.928Z" fill="#F6F7F8" stroke="#55626F"/>
<path d="M66.084 209.776C76.4251 226.26 71.4649 248.016 55.0058 258.372C38.5467 268.727 16.8206 263.761 6.47943 247.277C-3.86176 230.794 1.09851 209.038 17.5576 198.682C34.0167 188.327 55.7428 193.293 66.084 209.776Z" fill="#F6F7F8" stroke="#55626F"/>
<path d="M105.914 197.437L107.231 193.799L110.864 195.118L109.546 198.756L105.914 197.437Z" fill="white" stroke="#55626F"/>
<path d="M105.999 197.342L67.7695 212.121" stroke="#55626F"/>
<path d="M111.829 66.1408L113.147 69.7795L109.514 71.0985L108.197 67.4598L111.829 66.1408Z" fill="white" stroke="#55626F"/>
<path d="M108.172 67.3743L71.2461 49.5527" stroke="#55626F"/>
<path d="M58.1573 7.06911C74.308 17.9005 78.633 39.7928 67.8165 55.9671C57.0001 72.1413 35.1387 76.4719 18.9879 65.6405C2.83717 54.809 -1.4878 32.9167 9.32865 16.7425C20.1451 0.568249 42.0065 -3.76232 58.1573 7.06911Z" fill="#F6F7F8" stroke="#55626F"/>
<path d="M51.2617 345.131H531.737" stroke="#55626F" stroke-linecap="round" stroke-linejoin="round"/>
<ellipse cx="36.4915" cy="220.814" rx="7.81967" ry="7.82412" fill="#F88C28"/>
<ellipse cx="39.097" cy="28.6884" rx="7.81967" ry="7.82412" fill="#F88C28"/>
<path d="M49.949 244.287H23.0373C22.3763 244.287 21.8982 243.659 22.1174 243.036C23.8287 238.166 28.4888 230.377 36.4931 230.377C44.4975 230.377 49.1576 238.166 50.8689 243.036C51.0881 243.659 50.61 244.287 49.949 244.287Z" fill="#F88C28" stroke="#F88C28"/>
<path d="M52.5544 52.1608H25.6428C24.9818 52.1608 24.5037 51.5337 24.7229 50.91C26.4342 46.0398 31.0943 38.2512 39.0986 38.2512C47.103 38.2512 51.7631 46.0398 53.4744 50.91C53.6935 51.5337 53.2155 52.1608 52.5544 52.1608Z" fill="#F88C28" stroke="#F88C28"/>
<path d="M464.569 212.095C469.03 222.29 460.545 230.945 455.655 226.728C450.765 222.511 455.308 218.821 458.329 221.797C461.349 224.773 462.964 231.861 459.776 236.499C456.588 241.136 450.764 239.606 447.847 236.373C444.931 233.14 448.178 229.035 451.492 233.081C454.806 237.127 452.598 243.404 449.616 245.674C446.635 247.945 438.416 261.267 435.499 256.457C432.581 251.648 431.591 248.22 433.973 252.435C436.356 256.651 442.067 251.329 435.5 252.135C428.932 252.94 425.299 259.671 425.328 256.458C425.357 253.244 428.736 248.142 429.238 252.135C429.74 256.127 422.56 251.165 415.862 245.478" stroke="#55626F" stroke-miterlimit="10"/>
<path d="M462.608 213.462L462.623 216.343L462.606 218.443C465.588 219.61 468.706 218.035 468.706 218.035C468.639 217.269 468.527 216.507 468.37 215.754C468.076 214.235 467.711 212.695 467.711 212.695C466.779 212.435 463.073 213.291 462.608 213.462Z" fill="#57A8F3"/>
<path d="M491.125 104.35C488.669 102.833 485.88 101.936 482.999 101.738C482.503 101.695 482.035 101.644 481.59 101.58C473.896 100.525 473.269 97.1104 473.855 91.4116C474.68 83.4201 479.504 65.9237 482.408 60.4839L491.125 104.35ZM491.125 104.35C495.818 107.385 498.552 113.203 496.977 122.932C494.616 137.497 489.23 151.573 483.031 161.264M491.125 104.35L483.031 161.264M474.352 91.463C474.059 94.3208 474.097 96.4373 475.043 97.9751C475.97 99.4801 477.861 100.564 481.658 101.085L481.661 101.085C482.093 101.147 482.551 101.197 483.038 101.24C485.998 101.444 488.864 102.366 491.388 103.925L491.388 103.925L491.397 103.93C496.306 107.105 499.067 113.154 497.471 123.012L497.471 123.012C495.1 137.637 489.692 151.779 483.452 161.534C480.497 166.158 477.162 168.271 473.82 168.761C470.498 169.248 467.274 168.116 464.554 166.461L464.55 166.458C464.192 166.234 463.838 166.008 463.488 165.767C460.834 163.939 458.609 163.366 456.643 164.108C454.643 164.863 452.731 167.039 450.878 171.181C447.173 179.465 444.225 192.176 443.206 198.781L443.206 198.781C442.416 203.885 444.243 208.386 448.314 211.167C449.434 211.922 450.65 212.527 451.928 212.964L451.932 212.966C452.464 213.153 453.006 213.323 453.549 213.475L453.552 213.476C456.499 214.321 459.551 214.745 462.617 214.733L462.621 214.733C463.582 214.738 464.555 214.71 465.538 214.65C466.407 214.579 467.281 214.476 468.153 214.342L468.153 214.342C482.592 212.148 497.074 201.398 504.883 184.369C510.308 172.537 515.589 155.484 519.555 139.465C523.524 123.438 526.162 108.512 526.325 100.927C526.489 93.3387 525.425 85.639 521.026 77.9981C516.626 70.3535 508.859 62.7195 495.533 55.3198C493.545 54.2204 491.927 53.7509 490.589 53.7045C489.263 53.6585 488.184 54.0276 487.26 54.6607C485.408 55.9292 484.167 58.2507 482.928 60.5709L482.849 60.7195C482.849 60.7196 482.848 60.7197 482.848 60.7198C481.426 63.3852 479.506 69.0695 477.834 75.1241C476.164 81.1696 474.761 87.5095 474.352 91.463ZM474.352 91.463L473.858 91.4119L474.352 91.4628C474.352 91.4629 474.352 91.4629 474.352 91.463ZM483.031 161.264C477.236 170.333 470.143 169.277 464.814 166.034M483.031 161.264L464.814 166.034M464.814 166.034C464.459 165.812 464.113 165.59 463.772 165.355C458.359 161.628 454.153 162.635 450.422 170.976C446.691 179.317 443.735 192.077 442.712 198.705L464.814 166.034Z" fill="#57A8F3" stroke="#55626F"/>
<path d="M443.206 198.781L443.206 198.781C442.415 203.885 444.243 208.385 448.313 211.166C449.434 211.922 450.649 212.527 451.928 212.964L451.932 212.966C452.161 213.046 452.392 213.124 452.624 213.198C451.862 210.579 451.811 206.799 452.241 202.491C452.729 197.605 453.845 191.95 455.337 186.349C455.535 185.603 455.744 184.869 455.948 184.151C455.965 184.09 455.982 184.03 456 183.97L456.001 183.966C457.43 179.099 459.072 174.917 460.588 171.763C461.346 170.187 462.075 168.862 462.733 167.835C463.186 167.126 463.617 166.541 464.013 166.11C463.839 165.997 463.666 165.882 463.493 165.763C460.832 163.932 458.606 163.36 456.64 164.104C454.641 164.86 452.731 167.039 450.878 171.181C447.173 179.465 444.225 192.176 443.206 198.781Z" fill="#57A8F3" stroke="#55626F"/>
<path d="M482.847 60.7199C481.425 63.3853 479.505 69.0696 477.833 75.1242C476.163 81.1696 474.76 87.5093 474.351 91.4629C474.057 94.3207 474.095 96.4374 475.042 97.9752C475.913 99.3905 477.638 100.433 480.998 100.986C480.83 99.4517 480.921 97.4021 481.164 95.1364C481.447 92.4988 481.944 89.5183 482.517 86.6193C483.66 80.8326 485.118 75.3158 485.814 73.4628L486.282 73.6387L485.814 73.4628C485.987 73.0023 486.21 72.368 486.476 71.6093C487.18 69.6005 488.19 66.7202 489.397 63.8894C490.232 61.9335 491.169 59.9791 492.18 58.3215C493.002 56.974 493.893 55.79 494.84 54.9653C493.161 54.1197 491.762 53.7477 490.582 53.7063C489.258 53.6598 488.18 54.0284 487.257 54.6613C485.406 55.9293 484.166 58.2507 482.927 60.5709C482.9 60.6205 482.874 60.6702 482.847 60.7199Z" fill="#57A8F3" stroke="#55626F"/>
<rect x="139.5" y="58.5" width="87" height="99" rx="7.5" fill="#F6F7F8" stroke="#55626F"/>
<rect x="244.5" y="58.5" width="87" height="99" rx="7.5" fill="#F6F7F8" stroke="#55626F"/>
<rect x="349.5" y="58.5" width="87" height="99" rx="7.5" fill="#F6F7F8" stroke="#55626F"/>
<rect x="139.516" y="175.239" width="297.016" height="47.6834" rx="7.5" fill="#F6F7F8" stroke="#55626F"/>
<path d="M155 136H165.536" stroke="#55626F" stroke-miterlimit="10"/>
<path d="M155 108H165.536" stroke="#55626F" stroke-miterlimit="10"/>
<path d="M155 122H165.536" stroke="#55626F" stroke-miterlimit="10"/>
<path d="M187 71H212" stroke="#55626F" stroke-miterlimit="10"/>
<path d="M187 85H212" stroke="#55626F" stroke-miterlimit="10"/>
<path d="M155 140.393H165.536" stroke="#55626F" stroke-miterlimit="10"/>
<path d="M155 112.393H165.536" stroke="#55626F" stroke-miterlimit="10"/>
<path d="M155 126.393H165.536" stroke="#55626F" stroke-miterlimit="10"/>
<path d="M187 75H212" stroke="#55626F" stroke-miterlimit="10"/>
<path d="M187 89H212" stroke="#55626F" stroke-miterlimit="10"/>
<path d="M155 144.774H165.536" stroke="#55626F" stroke-miterlimit="10"/>
<path d="M155 116.774H165.536" stroke="#55626F" stroke-miterlimit="10"/>
<path d="M155 130.774H165.536" stroke="#55626F" stroke-miterlimit="10"/>
<path d="M187 80H212" stroke="#55626F" stroke-miterlimit="10"/>
<path d="M187 94H212" stroke="#55626F" stroke-miterlimit="10"/>
<path d="M169.051 136H211.663" stroke="#55626F" stroke-miterlimit="10"/>
<path d="M169.051 108H211.663" stroke="#55626F" stroke-miterlimit="10"/>
<path d="M169.051 122H211.663" stroke="#55626F" stroke-miterlimit="10"/>
<path d="M169.051 140.393H211.663" stroke="#55626F" stroke-miterlimit="10"/>
<path d="M169.051 112.393H211.663" stroke="#55626F" stroke-miterlimit="10"/>
<path d="M169.051 126.393H211.663" stroke="#55626F" stroke-miterlimit="10"/>
<path d="M169.051 144.774H211.663" stroke="#55626F" stroke-miterlimit="10"/>
<path d="M169.051 116.774H211.663" stroke="#55626F" stroke-miterlimit="10"/>
<path d="M169.051 130.774H211.663" stroke="#55626F" stroke-miterlimit="10"/>
<path d="M260 136H270.536" stroke="#55626F" stroke-miterlimit="10"/>
<path d="M260 108H270.536" stroke="#55626F" stroke-miterlimit="10"/>
<path d="M260 122H270.536" stroke="#55626F" stroke-miterlimit="10"/>
<path d="M292 71H317" stroke="#55626F" stroke-miterlimit="10"/>
<path d="M292 85H317" stroke="#55626F" stroke-miterlimit="10"/>
<path d="M260 140.393H270.536" stroke="#55626F" stroke-miterlimit="10"/>
<path d="M260 112.393H270.536" stroke="#55626F" stroke-miterlimit="10"/>
<path d="M260 126.393H270.536" stroke="#55626F" stroke-miterlimit="10"/>
<path d="M292 75H317" stroke="#55626F" stroke-miterlimit="10"/>
<path d="M292 89H317" stroke="#55626F" stroke-miterlimit="10"/>
<path d="M260 144.774H270.536" stroke="#55626F" stroke-miterlimit="10"/>
<path d="M260 116.774H270.536" stroke="#55626F" stroke-miterlimit="10"/>
<path d="M260 130.774H270.536" stroke="#55626F" stroke-miterlimit="10"/>
<path d="M292 80H317" stroke="#55626F" stroke-miterlimit="10"/>
<path d="M292 94H317" stroke="#55626F" stroke-miterlimit="10"/>
<path d="M274.051 136H316.663" stroke="#55626F" stroke-miterlimit="10"/>
<path d="M274.051 108H316.663" stroke="#55626F" stroke-miterlimit="10"/>
<path d="M274.051 122H316.663" stroke="#55626F" stroke-miterlimit="10"/>
<path d="M274.051 140.393H316.663" stroke="#55626F" stroke-miterlimit="10"/>
<path d="M274.051 112.393H316.663" stroke="#55626F" stroke-miterlimit="10"/>
<path d="M274.051 126.393H316.663" stroke="#55626F" stroke-miterlimit="10"/>
<path d="M274.051 144.774H316.663" stroke="#55626F" stroke-miterlimit="10"/>
<path d="M274.051 116.774H316.663" stroke="#55626F" stroke-miterlimit="10"/>
<path d="M274.051 130.774H316.663" stroke="#55626F" stroke-miterlimit="10"/>
<path d="M365 136H375.536" stroke="#55626F" stroke-miterlimit="10"/>
<path d="M365 108H375.536" stroke="#55626F" stroke-miterlimit="10"/>
<path d="M365 122H375.536" stroke="#55626F" stroke-miterlimit="10"/>
<path d="M397 71H422" stroke="#55626F" stroke-miterlimit="10"/>
<path d="M397 85H422" stroke="#55626F" stroke-miterlimit="10"/>
<path d="M365 140.393H375.536" stroke="#55626F" stroke-miterlimit="10"/>
<path d="M365 112.393H375.536" stroke="#55626F" stroke-miterlimit="10"/>
<path d="M365 126.393H375.536" stroke="#55626F" stroke-miterlimit="10"/>
<path d="M397 75H422" stroke="#55626F" stroke-miterlimit="10"/>
<path d="M397 89H422" stroke="#55626F" stroke-miterlimit="10"/>
<path d="M365 144.774H375.536" stroke="#55626F" stroke-miterlimit="10"/>
<path d="M365 116.774H375.536" stroke="#55626F" stroke-miterlimit="10"/>
<path d="M365 130.774H375.536" stroke="#55626F" stroke-miterlimit="10"/>
<path d="M397 80H422" stroke="#55626F" stroke-miterlimit="10"/>
<path d="M397 94H422" stroke="#55626F" stroke-miterlimit="10"/>
<path d="M379.051 136H421.663" stroke="#55626F" stroke-miterlimit="10"/>
<path d="M379.051 108H421.663" stroke="#55626F" stroke-miterlimit="10"/>
<path d="M379.051 122H421.663" stroke="#55626F" stroke-miterlimit="10"/>
<path d="M379.051 140.393H421.663" stroke="#55626F" stroke-miterlimit="10"/>
<path d="M379.051 112.393H421.663" stroke="#55626F" stroke-miterlimit="10"/>
<path d="M379.051 126.393H421.663" stroke="#55626F" stroke-miterlimit="10"/>
<path d="M379.051 144.774H421.663" stroke="#55626F" stroke-miterlimit="10"/>
<path d="M379.051 116.774H421.663" stroke="#55626F" stroke-miterlimit="10"/>
<path d="M379.051 130.774H421.663" stroke="#55626F" stroke-miterlimit="10"/>
<rect x="149.074" y="182.193" width="279.639" height="14.6482" rx="7.32412" fill="white" stroke="#55626F"/>
<path d="M158 185V194L165 189.5L158 185Z" fill="#57A8F3"/>
<g clip-path="url(#clip1_5708_28936)">
<path d="M177.246 188.648H420.524C421.004 188.648 421.394 189.037 421.394 189.518V189.518C421.394 189.998 421.004 190.387 420.524 190.387H177.246V188.648Z" fill="#E7EAED"/>
<rect x="177.562" y="188.563" width="13.9529" height="1.90832" rx="0.954161" fill="#57A8F3"/>
</g>
<rect x="149.074" y="201.319" width="279.639" height="14.6482" rx="7.32412" fill="white" stroke="#55626F"/>
<g clip-path="url(#clip2_5708_28936)">
<path d="M177.246 207.774H420.524C421.004 207.774 421.394 208.163 421.394 208.643V208.643C421.394 209.123 421.004 209.513 420.524 209.513H177.246V207.774Z" fill="#E7EAED"/>
<rect x="177.562" y="207.689" width="13.9529" height="1.90832" rx="0.954161" fill="#57A8F3"/>
</g>
<path d="M158 204V213L165 208.5L158 204Z" fill="#57A8F3"/>
<circle cx="168.5" cy="82.5" r="14" fill="#57A8F3" stroke="#55626F"/>
<circle cx="273.5" cy="82.5" r="14" fill="#57A8F3" stroke="#55626F"/>
<circle cx="378.5" cy="82.5" r="14" fill="#57A8F3" stroke="#55626F"/>
</g>
<defs>
<clipPath id="clip0_5708_28936">
<rect width="583" height="346" fill="white"/>
</clipPath>
<clipPath id="clip1_5708_28936">
<rect x="177.246" y="187.779" width="244.148" height="3.47739" rx="1.73869" fill="white"/>
</clipPath>
<clipPath id="clip2_5708_28936">
<rect x="177.246" y="206.905" width="244.148" height="3.47739" rx="1.73869" fill="white"/>
</clipPath>
</defs>
</svg>
