<svg width="399" height="367" viewBox="0 0 399 367" fill="none" xmlns="http://www.w3.org/2000/svg">
<rect x="365" y="351" width="333" height="333" rx="166.5" transform="rotate(180 365 351)" stroke="url(#paint0_linear_6022_33666)" stroke-linecap="round" stroke-dasharray="5 5"/>
<path d="M375.703 136.277C401.927 233.611 343.848 333.657 245.982 359.738C148.115 385.818 47.5199 328.056 21.2966 230.723C-4.92672 133.389 53.1517 33.3427 151.018 7.26228C248.885 -18.8181 349.48 38.9438 375.703 136.277Z" stroke="url(#paint1_linear_6022_33666)" stroke-linecap="round" stroke-dasharray="5 5"/>
<rect x="46" y="33" width="302" height="303" rx="151" fill="#F6F7F8"/>
<path d="M81.5 222.5C81.5 296.996 81.4997 296.996 99.0001 296.996L153.5 296.995" stroke="#F88C28" stroke-linecap="round" stroke-dasharray="3 3"/>
<path d="M72 225.508L81.5077 216L91.0155 225.508" stroke="#F88C28" stroke-linecap="round" stroke-linejoin="round"/>
<path d="M317 222.5C317 296.996 317 296.996 299.5 296.996L245 296.995" stroke="#F88C28" stroke-linecap="round" stroke-dasharray="3 3"/>
<path d="M326.016 225.508L316.508 216L307 225.508" stroke="#F88C28" stroke-linecap="round" stroke-linejoin="round"/>
<path d="M0.5 27C0.5 22.8579 3.85786 19.5 8 19.5H157C161.142 19.5 164.5 22.8579 164.5 27V212.5H0.5V27Z" fill="white" stroke="#344351"/>
<path d="M0.5 27C0.5 22.8579 3.85786 19.5 8 19.5H157C161.142 19.5 164.5 22.8579 164.5 27V46.5H0.5V27Z" fill="#F6F7F8" stroke="#344351"/>
<circle cx="47.8717" cy="82.149" r="15.149" fill="#EFEFEF"/>
<path d="M44.8435 81.6034C45.6101 83.1705 46.8804 84.4351 48.451 85.1945C48.5659 85.249 48.693 85.2725 48.8198 85.263C48.9466 85.2534 49.0688 85.2109 49.1742 85.1398L51.4868 83.5977C51.5891 83.5295 51.7068 83.4879 51.8292 83.4766C51.9516 83.4654 52.0749 83.4848 52.1879 83.5333L56.5144 85.3875C56.6614 85.4499 56.7841 85.5584 56.864 85.6966C56.944 85.8349 56.9768 85.9953 56.9576 86.1539C56.8209 87.2239 56.2988 88.2075 55.4891 88.9203C54.6794 89.6331 53.6377 90.0264 52.5589 90.0265C49.227 90.0265 46.0316 88.7029 43.6757 86.3469C41.3197 83.9909 39.9961 80.7955 39.9961 77.4636C39.9962 76.3849 40.3894 75.3431 41.1023 74.5334C41.8151 73.7238 42.7986 73.2017 43.8687 73.0649C44.0272 73.0457 44.1877 73.0786 44.3259 73.1585C44.4641 73.2385 44.5726 73.3612 44.6351 73.5081L46.4909 77.8384C46.5389 77.9504 46.5585 78.0726 46.5478 78.194C46.5372 78.3153 46.4967 78.4322 46.43 78.5342L44.8932 80.8823C44.8233 80.9879 44.7819 81.1099 44.7732 81.2363C44.7645 81.3627 44.7887 81.4892 44.8435 81.6034Z" fill="#344351"/>
<path d="M79.0964 91.5294C82.0632 91.5294 84.1186 89.474 84.1186 86.5072V82.0085C84.1186 79.0417 82.0632 76.9863 79.0964 76.9863C76.1296 76.9863 74.0742 79.0417 74.0742 82.0085V86.5072C74.0742 89.474 76.1296 91.5294 79.0964 91.5294ZM79.0964 89.2994C77.6227 89.2994 76.4593 88.136 76.4593 86.6623V81.834C76.4593 80.3603 77.6227 79.1969 79.0964 79.1969C80.5701 79.1969 81.7336 80.3603 81.7336 81.834V86.6623C81.7336 88.136 80.5701 89.2994 79.0964 89.2994Z" fill="#344351"/>
<path d="M91.8595 91.5294C94.8262 91.5294 96.8817 89.474 96.8817 86.5072V82.0085C96.8817 79.0417 94.8262 76.9863 91.8595 76.9863C88.8927 76.9863 86.8373 79.0417 86.8373 82.0085V86.5072C86.8373 89.474 88.8927 91.5294 91.8595 91.5294ZM91.8595 89.2994C90.3858 89.2994 89.2223 88.136 89.2223 86.6623V81.834C89.2223 80.3603 90.3858 79.1969 91.8595 79.1969C93.3332 79.1969 94.4966 80.3603 94.4966 81.834V86.6623C94.4966 88.136 93.3332 89.2994 91.8595 89.2994Z" fill="#344351"/>
<path d="M102.024 91.2385H104.409V77.2772H102.024L99.4064 78.8478V81.4268L102.024 79.8174V91.2385Z" fill="#344351"/>
<path d="M114.909 85.8479C116.499 84.4518 117.333 83.6373 117.333 81.6401C117.333 78.9254 115.316 76.9863 112.621 76.9863C109.751 76.9863 107.734 78.8091 107.734 81.6013H110.139C110.1 80.3215 111.128 79.1969 112.582 79.1969C113.978 79.1969 114.928 80.2246 114.928 81.6207C114.928 82.3188 114.618 83.0362 113.687 83.8506L107.715 89.1831V91.2191H117.333V89.0086H111.341L114.909 85.8479Z" fill="#344351"/>
<path d="M125.044 82.5127L128.186 79.4877V77.2772H119.615V79.4877H125.374L121.36 82.9199L122.427 84.762C122.795 84.5681 123.222 84.4324 123.629 84.4324C125.044 84.4324 126.033 85.4989 126.033 86.8756C126.033 88.233 125.006 89.28 123.648 89.2994C122.601 89.2994 121.651 88.6789 121.341 87.5543L119.072 88.1748C119.673 90.2108 121.554 91.4906 123.648 91.4906C126.266 91.4906 128.418 89.5127 128.418 86.8756C128.418 84.762 127.177 82.9587 125.044 82.5127Z" fill="#344351"/>
<rect x="13" y="158" width="139" height="30" rx="2" fill="#EFEFEF"/>
<path d="M41.5351 177.285H43.0378L40.2868 168.559H38.1417L35.3906 177.285H36.8934L37.4872 175.394H40.9291L41.5351 177.285ZM37.9235 174.025L39.1961 169.965L40.4928 174.025H37.9235Z" fill="#344351"/>
<path d="M44.3697 177.285H45.824V173.213L49.5083 177.285H51.3625L47.351 172.837L51.108 168.559H49.3144L45.824 172.607V168.559H44.3697V177.285Z" fill="#344351"/>
<path d="M54.5554 177.285H56.0219V169.928H58.8456V168.559H51.7317V169.928H54.5554V177.285Z" fill="#344351"/>
<path d="M67.0676 177.285V168.559H65.589L61.5412 174.703V168.559H60.0627V177.285H61.5412L65.589 171.128V177.285H67.0676Z" fill="#344351"/>
<path d="M74.1546 172.691C74.6999 172.364 75.0393 171.758 75.0393 170.958C75.0393 169.783 74.2273 168.559 72.47 168.559H69.0039V177.285H72.8214C74.5424 177.285 75.4392 176.242 75.4392 174.691C75.4392 173.806 75.0029 173.043 74.1546 172.691ZM70.4824 169.928H72.4458C73.1366 169.928 73.5486 170.377 73.5486 170.983C73.5486 171.685 73.076 172.037 72.4458 172.037H70.4824V169.928ZM72.6397 175.903H70.4824V173.406H72.676C73.488 173.406 73.9607 173.94 73.9607 174.643C73.9607 175.418 73.4032 175.903 72.6397 175.903Z" fill="#344351"/>
<path d="M83.8967 177.285V168.559H82.4182L78.3703 174.703V168.559H76.8918V177.285H78.3703L82.4182 171.128V177.285H83.8967Z" fill="#344351"/>
<path d="M85.833 177.285H87.2873V174.243H89.4446C89.6021 174.243 89.9051 174.231 90.1353 174.194C91.6381 173.952 92.3653 172.837 92.3653 171.395C92.3653 169.952 91.6502 168.837 90.1353 168.607C89.9051 168.571 89.6142 168.559 89.4446 168.559H85.833V177.285ZM87.2873 172.873V169.928H89.384C89.5415 169.928 89.7597 169.94 89.9293 169.989C90.6565 170.171 90.8867 170.837 90.8867 171.395C90.8867 171.952 90.6565 172.631 89.9293 172.813C89.7597 172.861 89.5415 172.873 89.384 172.873H87.2873Z" fill="#344351"/>
<path d="M97.512 177.466C100.13 177.466 101.681 175.624 101.681 172.922C101.681 170.219 100.13 168.377 97.512 168.377C94.8942 168.377 93.3308 170.219 93.3308 172.922C93.3308 175.624 94.8942 177.466 97.512 177.466ZM97.512 176.085C95.7547 176.073 94.87 174.824 94.8821 172.922C94.8821 171.007 95.7547 169.734 97.512 169.759C99.2693 169.771 100.142 171.007 100.142 172.922C100.142 174.824 99.2693 176.109 97.512 176.085Z" fill="#344351"/>
<path d="M108.286 172.691C108.832 172.364 109.171 171.758 109.171 170.958C109.171 169.783 108.359 168.559 106.602 168.559H103.136V177.285H106.953C108.674 177.285 109.571 176.242 109.571 174.691C109.571 173.806 109.135 173.043 108.286 172.691ZM104.614 169.928H106.577C107.268 169.928 107.68 170.377 107.68 170.983C107.68 171.685 107.208 172.037 106.577 172.037H104.614V169.928ZM106.771 175.903H104.614V173.406H106.808C107.62 173.406 108.092 173.94 108.092 174.643C108.092 175.418 107.535 175.903 106.771 175.903Z" fill="#344351"/>
<path d="M116.562 177.285H118.065L115.314 168.559H113.169L110.417 177.285H111.92L112.514 175.394H115.956L116.562 177.285ZM112.95 174.025L114.223 169.965L115.52 174.025H112.95Z" fill="#344351"/>
<path d="M120.771 177.285H122.238V169.928H125.061V168.559H117.948V169.928H120.771V177.285Z" fill="#344351"/>
<path d="M126.266 177.285H129.878C130.048 177.285 130.351 177.272 130.569 177.236C132.084 177.006 132.799 175.879 132.799 174.449C132.799 173.006 132.071 171.892 130.569 171.649C130.351 171.613 130.035 171.601 129.878 171.601H127.733V168.559H126.266V177.285ZM127.733 175.915V172.97H129.817C129.975 172.97 130.193 172.982 130.363 173.031C131.09 173.213 131.32 173.891 131.32 174.449C131.32 175.006 131.09 175.673 130.363 175.855C130.193 175.903 129.975 175.915 129.817 175.915H127.733Z" fill="#344351"/>
<rect x="13.5" y="112.5" width="138" height="29" rx="1.5" fill="white" stroke="#EFEFEF"/>
<path d="M43.0898 120.741V133.239" stroke="#344351" stroke-width="2" stroke-linecap="round" stroke-linejoin="round"/>
<path d="M37.6797 123.865L48.5032 130.114" stroke="#344351" stroke-width="2" stroke-linecap="round" stroke-linejoin="round"/>
<path d="M37.6797 130.114L48.5032 123.865" stroke="#344351" stroke-width="2" stroke-linecap="round" stroke-linejoin="round"/>
<path d="M69.2695 120.741V133.239" stroke="#344351" stroke-width="2" stroke-linecap="round" stroke-linejoin="round"/>
<path d="M63.8555 123.865L74.679 130.114" stroke="#344351" stroke-width="2" stroke-linecap="round" stroke-linejoin="round"/>
<path d="M63.8555 130.114L74.679 123.865" stroke="#344351" stroke-width="2" stroke-linecap="round" stroke-linejoin="round"/>
<path d="M95.4492 120.741V133.239" stroke="#344351" stroke-width="2" stroke-linecap="round" stroke-linejoin="round"/>
<path d="M90.0391 123.865L100.863 130.114" stroke="#344351" stroke-width="2" stroke-linecap="round" stroke-linejoin="round"/>
<path d="M90.0391 130.114L100.863 123.865" stroke="#344351" stroke-width="2" stroke-linecap="round" stroke-linejoin="round"/>
<path d="M121.625 120.741V133.239" stroke="#344351" stroke-width="2" stroke-linecap="round" stroke-linejoin="round"/>
<path d="M116.215 123.865L127.038 130.114" stroke="#344351" stroke-width="2" stroke-linecap="round" stroke-linejoin="round"/>
<path d="M116.215 130.114L127.038 123.865" stroke="#344351" stroke-width="2" stroke-linecap="round" stroke-linejoin="round"/>
<path d="M234.5 27C234.5 22.8579 237.858 19.5 242 19.5H391C395.142 19.5 398.5 22.8579 398.5 27V212.5H234.5V27Z" fill="white" stroke="#344351"/>
<path d="M234.5 27C234.5 22.8579 237.858 19.5 242 19.5H391C395.142 19.5 398.5 22.8579 398.5 27V46.5H234.5V27Z" fill="#F6F7F8" stroke="#344351"/>
<circle cx="265" cy="170" r="18.5" stroke="#344351"/>
<path d="M254.508 177.882V165.048C254.508 162.983 254.508 162.983 256.868 162.983H273.685C276.046 162.983 276.046 162.983 276.046 165.048V177.882C276.046 179.948 276.046 179.948 273.685 179.948H256.868C254.508 179.948 254.508 179.948 254.508 177.882Z" fill="white" stroke="#344351"/>
<path d="M257.309 162.983V160.18" stroke="#344351"/>
<path d="M273.539 162.983V160.18" stroke="#344351"/>
<circle cx="257.309" cy="159.5" r="1.5" fill="#344351"/>
<path d="M252 171.539C252 172.761 252.991 173.752 254.213 173.752V169.326C252.991 169.326 252 170.317 252 171.539Z" fill="#344351"/>
<path d="M278.406 171.539C278.406 170.317 277.416 169.326 276.193 169.326L276.193 173.752C277.416 173.752 278.406 172.761 278.406 171.539Z" fill="#344351"/>
<circle cx="273.5" cy="159.5" r="1.5" fill="#344351"/>
<circle cx="260.5" cy="169.5" r="1.5" fill="#344351"/>
<circle cx="269.5" cy="169.5" r="1.5" fill="#344351"/>
<path d="M260.703 175C264.279 176.315 266.282 176.326 269.849 175" stroke="#344351" stroke-linecap="round"/>
<path d="M301.566 168.958L294.773 174.669C294.527 174.875 294.227 175.008 293.909 175.05C293.59 175.092 293.266 175.042 292.975 174.907C292.684 174.771 292.437 174.555 292.264 174.284C292.092 174.013 292 173.698 292 173.377V144.688C292 144.24 292.178 143.811 292.494 143.494C292.811 143.178 293.24 143 293.688 143H346.312C346.76 143 347.189 143.178 347.506 143.494C347.822 143.811 348 144.24 348 144.688V166.875C348 167.323 347.822 167.752 347.506 168.068C347.189 168.385 346.76 168.562 346.312 168.562H302.652C302.255 168.562 301.87 168.703 301.566 168.958Z" fill="#EFEFEF"/>
<path d="M310 158C311.105 158 312 157.105 312 156C312 154.895 311.105 154 310 154C308.895 154 308 154.895 308 156C308 157.105 308.895 158 310 158Z" fill="#344351"/>
<path d="M320.125 158C321.23 158 322.125 157.105 322.125 156C322.125 154.895 321.23 154 320.125 154C319.02 154 318.125 154.895 318.125 156C318.125 157.105 319.02 158 320.125 158Z" fill="#344351"/>
<path d="M330.25 158C331.355 158 332.25 157.105 332.25 156C332.25 154.895 331.355 154 330.25 154C329.145 154 328.25 154.895 328.25 156C328.25 157.105 329.145 158 330.25 158Z" fill="#344351"/>
<path d="M330.613 106.646L337.406 112.356C337.652 112.563 337.952 112.695 338.271 112.737C338.589 112.779 338.913 112.73 339.205 112.594C339.496 112.458 339.742 112.242 339.915 111.971C340.088 111.7 340.18 111.386 340.18 111.064V72.6875C340.18 72.2399 340.002 71.8107 339.685 71.4943C339.369 71.1778 338.94 71 338.492 71H247.686C247.238 71 246.809 71.1778 246.492 71.4943C246.176 71.8107 245.998 72.2399 245.998 72.6875V104.562C245.998 105.01 246.176 105.439 246.492 105.756C246.809 106.072 247.238 106.25 247.686 106.25H329.528C329.925 106.25 330.309 106.39 330.613 106.646Z" fill="#EFEFEF"/>
<path d="M263.027 86.9998H263.947L261.537 79.7998H260.297L257.887 86.9998H258.817L259.377 85.3098H262.457L263.027 86.9998ZM259.657 84.4798L260.907 80.7398L262.167 84.4798H259.657Z" fill="#344351"/>
<path d="M265.052 86.9998H265.952V84.3998L268.412 86.9998H269.652L266.992 84.2998L269.372 81.5998H268.222L265.952 84.1998V81.5998H265.052V86.9998Z" fill="#344351"/>
<path d="M271.779 86.9998H272.669V82.4098H274.549V81.5998H269.899V82.4098H271.779V86.9998Z" fill="#344351"/>
<path d="M280.116 81.5998H279.386L276.556 85.5198V81.5998H275.696V86.9998H276.426L279.256 83.0198V86.9998H280.116V81.5998Z" fill="#344351"/>
<path d="M281.716 86.9998H284.276C284.566 86.9998 284.896 86.9798 285.156 86.9098C285.776 86.7298 286.156 86.2398 286.156 85.5098C286.156 84.9298 285.916 84.5698 285.546 84.3598C285.426 84.2898 285.296 84.2398 285.186 84.2198C285.306 84.1798 285.426 84.0998 285.536 83.9898C285.756 83.7798 285.886 83.4798 285.886 83.0698C285.886 82.3498 285.466 81.8598 284.886 81.6998C284.626 81.6298 284.286 81.5998 284.016 81.5998H281.716V86.9998ZM282.616 83.9298V82.3298H283.876C283.946 82.3298 284.266 82.3298 284.486 82.4098C284.806 82.5098 284.966 82.7998 284.966 83.1398C284.966 83.4498 284.816 83.7398 284.516 83.8498C284.366 83.9098 284.136 83.9298 283.956 83.9298H282.616ZM282.616 86.2698V84.6698H284.146C284.266 84.6698 284.446 84.6698 284.586 84.7098C284.966 84.7798 285.236 85.0498 285.236 85.4798C285.236 85.7998 285.086 86.1098 284.736 86.1998C284.586 86.2498 284.366 86.2698 284.226 86.2698H282.616Z" fill="#344351"/>
<path d="M291.775 81.5998H291.045L288.215 85.5198V81.5998H287.355V86.9998H288.085L290.915 83.0198V86.9998H291.775V81.5998Z" fill="#344351"/>
<path d="M295.866 81.4498C295.126 81.4498 294.556 81.7298 294.166 82.1998V81.5998H293.376V89.3998H294.266V86.4998C294.656 86.9098 295.186 87.1498 295.856 87.1498C297.366 87.1498 298.276 85.9098 298.276 84.2898C298.276 82.6698 297.366 81.4498 295.866 81.4498ZM295.746 86.3298C294.656 86.3298 294.166 85.4798 294.166 84.2898C294.166 83.0998 294.666 82.2598 295.726 82.2598C296.826 82.2598 297.336 83.1498 297.336 84.2898C297.336 85.4398 296.816 86.3298 295.746 86.3298Z" fill="#344351"/>
<path d="M301.872 87.1498C303.482 87.1498 304.482 85.9898 304.482 84.2898C304.482 82.6198 303.492 81.4498 301.872 81.4498C300.292 81.4498 299.272 82.5998 299.272 84.2898C299.272 85.9698 300.262 87.1498 301.872 87.1498ZM301.872 86.2998C300.782 86.2998 300.222 85.5098 300.222 84.2898C300.222 83.1098 300.742 82.2898 301.872 82.2898C302.982 82.2898 303.532 83.0798 303.532 84.2898C303.532 85.4798 302.992 86.2998 301.872 86.2998Z" fill="#344351"/>
<path d="M305.778 86.9998H308.338C308.628 86.9998 308.958 86.9798 309.218 86.9098C309.838 86.7298 310.218 86.2398 310.218 85.5098C310.218 84.9298 309.978 84.5698 309.608 84.3598C309.488 84.2898 309.358 84.2398 309.248 84.2198C309.368 84.1798 309.488 84.0998 309.598 83.9898C309.818 83.7798 309.948 83.4798 309.948 83.0698C309.948 82.3498 309.528 81.8598 308.948 81.6998C308.688 81.6298 308.348 81.5998 308.078 81.5998H305.778V86.9998ZM306.678 83.9298V82.3298H307.938C308.008 82.3298 308.328 82.3298 308.548 82.4098C308.868 82.5098 309.028 82.7998 309.028 83.1398C309.028 83.4498 308.878 83.7398 308.578 83.8498C308.428 83.9098 308.198 83.9298 308.018 83.9298H306.678ZM306.678 86.2698V84.6698H308.208C308.328 84.6698 308.508 84.6698 308.648 84.7098C309.028 84.7798 309.298 85.0498 309.298 85.4798C309.298 85.7998 309.148 86.1098 308.798 86.1998C308.648 86.2498 308.428 86.2698 308.288 86.2698H306.678Z" fill="#344351"/>
<path d="M315.567 82.4998C315.257 81.7998 314.527 81.4498 313.547 81.4498C312.327 81.4498 311.577 82.0198 311.317 82.9698L312.167 83.2198C312.357 82.5598 312.887 82.2798 313.537 82.2798C314.477 82.2798 314.847 82.6898 314.867 83.5498C314.067 83.6598 313.127 83.7698 312.447 83.9498C311.627 84.1898 311.117 84.6898 311.117 85.5398C311.117 86.4098 311.747 87.1498 312.957 87.1498C313.857 87.1498 314.527 86.8098 314.957 86.1498V86.9998H315.747V83.6598C315.747 83.2298 315.717 82.8398 315.567 82.4998ZM313.087 86.3998C312.317 86.3998 312.007 85.9798 312.007 85.5298C312.007 85.0298 312.397 84.7798 312.847 84.6398C313.367 84.4898 314.097 84.4098 314.857 84.2998C314.857 84.5498 314.847 84.8998 314.767 85.1598C314.637 85.8298 314.047 86.3998 313.087 86.3998Z" fill="#344351"/>
<path d="M318.682 86.9998H319.572V82.4098H321.452V81.5998H316.802V82.4098H318.682V86.9998Z" fill="#344351"/>
<path d="M322.598 86.9998H324.708C325.008 86.9998 325.378 86.9898 325.648 86.9298C326.428 86.7498 326.958 86.2098 326.958 85.2798C326.958 84.2698 326.398 83.7698 325.558 83.6098C325.318 83.5598 324.968 83.5498 324.658 83.5498H323.488V81.5998H322.598V86.9998ZM323.488 86.2598V84.2898H324.718C324.908 84.2898 325.138 84.2998 325.328 84.3398C325.748 84.4398 326.048 84.7298 326.048 85.2798C326.048 85.8298 325.718 86.1098 325.388 86.1998C325.188 86.2598 324.918 86.2598 324.718 86.2598H323.488Z" fill="#344351"/>
<path d="M258.037 99.1998H258.927V97.9998H263.827V99.1998H264.717V97.1498H264.187V90.7998L259.667 90.7898C259.577 92.3398 259.527 93.4498 259.397 94.7498C259.277 95.9798 259.097 97.1498 258.037 97.1498V99.1998ZM259.597 97.1498C260.047 96.6998 260.157 96.0898 260.267 94.9698C260.387 93.7598 260.427 92.7998 260.487 91.6398H263.297V97.1498H259.597Z" fill="#344351"/>
<path d="M266.678 95.5498H270.808C270.898 93.6298 269.948 92.4498 268.318 92.4498C266.748 92.4498 265.718 93.5598 265.718 95.3298C265.718 97.0198 266.768 98.1498 268.358 98.1498C269.408 98.1498 270.298 97.5998 270.728 96.6498L269.868 96.3498C269.568 96.9698 269.028 97.2998 268.318 97.2998C267.328 97.2998 266.748 96.6698 266.678 95.5498ZM268.348 93.2498C269.268 93.2498 269.778 93.7698 269.898 94.8298H266.698C266.818 93.8098 267.388 93.2498 268.348 93.2498Z" fill="#344351"/>
<path d="M271.627 97.9998C272.717 98.2298 273.057 97.8398 273.247 96.8598C273.397 96.0998 273.527 94.6798 273.617 93.4398H275.697V97.9998H276.587V92.5998H272.807C272.717 94.1998 272.617 95.4898 272.447 96.4398C272.347 97.0398 272.227 97.3398 271.627 97.2298V97.9998Z" fill="#344351"/>
<path d="M280.486 98.1498C282.096 98.1498 283.096 96.9898 283.096 95.2898C283.096 93.6198 282.106 92.4498 280.486 92.4498C278.906 92.4498 277.886 93.5998 277.886 95.2898C277.886 96.9698 278.876 98.1498 280.486 98.1498ZM280.486 97.2998C279.396 97.2998 278.836 96.5098 278.836 95.2898C278.836 94.1098 279.356 93.2898 280.486 93.2898C281.596 93.2898 282.146 94.0798 282.146 95.2898C282.146 96.4798 281.606 97.2998 280.486 97.2998Z" fill="#344351"/>
<path d="M286.942 100.25H287.752V98.0998C289.332 98.3498 290.602 97.2898 290.602 95.2998C290.602 93.3198 289.332 92.2498 287.752 92.4998V90.8498H286.942V92.4998C285.362 92.2498 284.092 93.3198 284.092 95.2998C284.092 97.2898 285.362 98.3498 286.942 98.0998V100.25ZM286.942 97.2798C285.892 97.4598 285.012 96.7898 285.012 95.2998C285.012 93.8098 285.862 93.1398 286.942 93.3198V97.2798ZM287.752 97.2798V93.3198C288.832 93.1398 289.692 93.7998 289.692 95.2998C289.692 96.8098 288.812 97.4598 287.752 97.2798Z" fill="#344351"/>
<path d="M294.206 98.1498C295.816 98.1498 296.816 96.9898 296.816 95.2898C296.816 93.6198 295.826 92.4498 294.206 92.4498C292.626 92.4498 291.606 93.5998 291.606 95.2898C291.606 96.9698 292.596 98.1498 294.206 98.1498ZM294.206 97.2998C293.116 97.2998 292.556 96.5098 292.556 95.2898C292.556 94.1098 293.076 93.2898 294.206 93.2898C295.316 93.2898 295.866 94.0798 295.866 95.2898C295.866 96.4798 295.326 97.2998 294.206 97.2998Z" fill="#344351"/>
<path d="M298.112 97.9998H299.002V95.7198H301.842V97.9998H302.732V92.5998H301.842V94.8698H299.002V92.5998H298.112V97.9998Z" fill="#344351"/>
<path d="M368 120C376.837 120 384 112.837 384 104C384 95.1634 376.837 88 368 88C359.163 88 352 95.1634 352 104C352 112.837 359.163 120 368 120Z" fill="white" stroke="#344351" stroke-miterlimit="10"/>
<path d="M367.999 109.333C371.681 109.333 374.665 106.349 374.665 102.667C374.665 98.9848 371.681 96 367.999 96C364.317 96 361.332 98.9848 361.332 102.667C361.332 106.349 364.317 109.333 367.999 109.333Z" stroke="#344351" stroke-miterlimit="10"/>
<path d="M357.301 115.895C358.305 113.921 359.836 112.262 361.725 111.104C363.613 109.946 365.786 109.333 368.001 109.333C370.216 109.333 372.388 109.946 374.277 111.104C376.166 112.262 377.697 113.921 378.701 115.895" stroke="#344351" stroke-linecap="round" stroke-linejoin="round"/>
<path d="M348.507 30.0908V33.3309H345.23V30.0908H342.953V38.5378H345.23V35.1868H348.507V38.5378H350.783V30.0908H348.507Z" fill="#F88C28"/>
<path d="M338.388 30.1221C337.676 30.0033 336.946 30.0569 336.26 30.2782C335.259 30.6068 334.415 31.2818 333.886 32.1764C333.358 33.071 333.181 34.1235 333.39 35.1363C333.599 36.1491 334.179 37.0523 335.021 37.6762C335.863 38.3002 336.909 38.6018 337.962 38.5246C339.016 38.4473 340.004 37.9964 340.741 37.2566C341.479 36.5168 341.914 35.5391 341.967 34.5071C342.019 33.4752 341.684 32.4601 341.025 31.6526C340.366 30.8451 339.428 30.3009 338.388 30.1221ZM338.218 36.5502C337.618 36.6852 336.987 36.5869 336.459 36.2761C335.932 35.9652 335.548 35.466 335.39 34.8838C335.231 34.3016 335.309 33.6819 335.609 33.1553C335.908 32.6288 336.405 32.2365 336.994 32.0613C337.413 31.9486 337.856 31.9486 338.275 32.0613C338.787 32.1931 339.24 32.4887 339.561 32.9012C339.882 33.3137 340.053 33.8194 340.047 34.3378C340.04 34.8563 339.857 35.3577 339.525 35.7623C339.194 36.167 338.734 36.4516 338.218 36.571V36.5502Z" fill="#F88C28"/>
<path d="M317.568 29.6816V31.9434C318.106 32.2 318.54 32.6276 318.798 33.1565C319.057 33.6854 319.124 34.2842 318.989 34.8554C318.855 35.4265 318.526 35.9361 318.057 36.301C317.589 36.666 317.007 36.8646 316.408 36.8646C315.809 36.8646 315.227 36.666 314.758 36.301C314.29 35.9361 313.961 35.4265 313.826 34.8554C313.692 34.2842 313.759 33.6854 314.017 33.1565C314.276 32.6276 314.71 32.2 315.248 31.9434V29.6816C314.102 29.9588 313.099 30.6367 312.429 31.5876C311.758 32.5385 311.467 33.6966 311.61 34.8432C311.752 35.9898 312.319 37.0456 313.203 37.8114C314.087 38.5772 315.227 39.0001 316.408 39.0001C317.589 39.0001 318.729 38.5772 319.613 37.8114C320.497 37.0456 321.063 35.9898 321.206 34.8432C321.349 33.6966 321.058 32.5385 320.387 31.5876C319.717 30.6367 318.714 29.9588 317.568 29.6816Z" fill="#F88C28"/>
<path d="M314.936 34.5176C314.986 34.784 315.108 35.0322 315.291 35.236C315.473 35.4397 315.709 35.5914 315.972 35.6749C316.236 35.7585 316.517 35.7708 316.787 35.7105C317.057 35.6503 317.306 35.5198 317.506 35.3328C317.706 35.1458 317.851 34.9093 317.925 34.6483C317.999 34.3873 318 34.1115 317.927 33.8502C317.854 33.5889 317.71 33.3518 317.511 33.1639C317.311 32.9761 317.064 32.8445 316.794 32.7831V29.5396H316.085V32.7692C315.702 32.8588 315.369 33.0887 315.154 33.4114C314.94 33.7342 314.86 34.1252 314.932 34.5037L314.936 34.5176Z" fill="#F88C28"/>
<path d="M328.238 30.7187V30.0908H326.06V30.7187C325.872 30.7465 325.706 30.7777 325.507 30.8228C323.468 31.305 321.996 32.6614 321.996 34.2571C321.996 35.9916 323.737 37.4486 326.06 37.7989V38.5378H328.238V37.7989C330.561 37.452 332.302 35.9985 332.302 34.2571C332.302 32.5157 330.561 31.0725 328.238 30.7187ZM324.337 34.2571C324.337 33.4315 325.046 32.7273 326.071 32.4255V36.0922C325.042 35.7904 324.326 35.0827 324.326 34.2571H324.337ZM328.238 36.0922V32.4255C329.255 32.7273 329.972 33.4315 329.972 34.2571C329.972 35.0827 329.255 35.7904 328.238 36.0922Z" fill="#F88C28"/>
<path d="M289.458 27H284C284 27.9158 284.674 28.4223 285.546 28.6998V36.6785C284.67 36.9352 284 37.4556 284 38.5379H289.025C290.472 38.5379 291.479 38.3645 292.05 38.0106C292.937 37.459 293.153 36.623 293.153 35.5129V30.1845C293.153 28.0407 292.093 27 289.458 27ZM290.586 35.1799C290.586 36.0576 290.047 36.4981 288.958 36.4981C288.646 36.4981 288.249 36.4808 287.844 36.4738V29.0294C288.295 29.0467 288.699 29.0294 288.99 29.0294C290.08 29.0294 290.623 29.4919 290.621 30.417C290.621 31.3536 290.586 34.2849 290.586 35.1799Z" fill="#F88C28"/>
<path d="M298.449 30.1396C295.594 30.1396 294.285 32.391 294.285 34.4308C294.285 36.9458 295.885 38.5242 298.676 38.5242C299.692 38.5466 300.702 38.3745 301.651 38.0178V36.3214C300.805 36.5632 299.926 36.6801 299.044 36.6683C297.853 36.6683 296.792 36.1757 296.725 35.1385H302.03C302.088 34.812 302.116 34.4812 302.115 34.1498C302.115 32.1621 301.108 30.1396 298.449 30.1396ZM296.718 33.4283C296.785 32.7692 297.222 31.7978 298.3 31.7978C299.477 31.7978 299.747 32.8177 299.747 33.4283H296.718Z" fill="#F88C28"/>
<path d="M306.597 30.2437C305.533 30.5247 303.848 31.4648 303.848 33.2929V35.8079C303.848 36.9562 303.579 36.9527 303.118 37.3933C302.969 37.5317 302.852 37.7002 302.776 37.8871C302.7 38.074 302.667 38.2748 302.678 38.4756H304.969C305.816 38.4756 306.253 37.2823 306.253 35.8149V33.4733C306.252 33.0773 306.411 32.697 306.696 32.4153C307.037 32.1033 307.475 31.9137 307.941 31.8776H308.047V38.4687H310.501V30.1431H307.132C306.95 30.154 306.77 30.1878 306.597 30.2437Z" fill="#F88C28"/>
<path d="M113.507 30.0908V33.3309H110.23V30.0908H107.953V38.5378H110.23V35.1868H113.507V38.5378H115.783V30.0908H113.507Z" fill="#F88C28"/>
<path d="M103.388 30.1221C102.676 30.0033 101.946 30.0569 101.26 30.2782C100.259 30.6068 99.4146 31.2818 98.8861 32.1764C98.3576 33.071 98.1814 34.1235 98.3904 35.1363C98.5995 36.1491 99.1795 37.0523 100.021 37.6762C100.863 38.3002 101.909 38.6018 102.962 38.5246C104.016 38.4473 105.004 37.9964 105.741 37.2566C106.479 36.5168 106.914 35.5391 106.967 34.5071C107.019 33.4752 106.684 32.4601 106.025 31.6526C105.366 30.8451 104.428 30.3009 103.388 30.1221ZM103.218 36.5502C102.618 36.6852 101.987 36.5869 101.459 36.2761C100.932 35.9652 100.548 35.466 100.39 34.8838C100.231 34.3016 100.309 33.6819 100.609 33.1553C100.908 32.6288 101.405 32.2365 101.994 32.0613C102.413 31.9486 102.856 31.9486 103.275 32.0613C103.787 32.1931 104.24 32.4887 104.561 32.9012C104.882 33.3137 105.053 33.8194 105.047 34.3378C105.04 34.8563 104.857 35.3577 104.525 35.7623C104.194 36.167 103.734 36.4516 103.218 36.571V36.5502Z" fill="#F88C28"/>
<path d="M82.5676 29.6816V31.9434C83.1063 32.2 83.5402 32.6276 83.7984 33.1565C84.0566 33.6854 84.1239 34.2842 83.9893 34.8554C83.8548 35.4265 83.5262 35.9361 83.0574 36.301C82.5885 36.666 82.0071 36.8646 81.4079 36.8646C80.8087 36.8646 80.2273 36.666 79.7584 36.301C79.2896 35.9361 78.9611 35.4265 78.8265 34.8554C78.6919 34.2842 78.7592 33.6854 79.0174 33.1565C79.2757 32.6276 79.7095 32.2 80.2483 31.9434V29.6816C79.1019 29.9588 78.0989 30.6367 77.4286 31.5876C76.7583 32.5385 76.467 33.6966 76.6097 34.8432C76.7523 35.9898 77.3192 37.0456 78.2031 37.8114C79.0871 38.5772 80.2271 39.0001 81.4079 39.0001C82.5887 39.0001 83.7287 38.5772 84.6127 37.8114C85.4966 37.0456 86.0635 35.9898 86.2062 34.8432C86.3489 33.6966 86.0575 32.5385 85.3872 31.5876C84.7169 30.6367 83.7139 29.9588 82.5676 29.6816Z" fill="#F88C28"/>
<path d="M79.9355 34.5176C79.9856 34.784 80.1083 35.0322 80.2908 35.236C80.4733 35.4397 80.7087 35.5914 80.9722 35.6749C81.2356 35.7585 81.5172 35.7708 81.7872 35.7105C82.0572 35.6503 82.3055 35.5198 82.5059 35.3328C82.7062 35.1458 82.8511 34.9093 82.9253 34.6483C82.9994 34.3873 83 34.1115 82.9271 33.8502C82.8541 33.5889 82.7102 33.3518 82.5107 33.1639C82.3112 32.9761 82.0635 32.8445 81.7938 32.7831V29.5396H81.0845V32.7692C80.7018 32.8588 80.3688 33.0887 80.1543 33.4114C79.9399 33.7342 79.8603 34.1252 79.932 34.5037L79.9355 34.5176Z" fill="#F88C28"/>
<path d="M93.2377 30.7187V30.0908H91.0602V30.7187C90.8723 30.7465 90.7056 30.7777 90.507 30.8228C88.4678 31.305 86.9961 32.6614 86.9961 34.2571C86.9961 35.9916 88.7374 37.4486 91.0602 37.7989V38.5378H93.2377V37.7989C95.5605 37.452 97.3018 35.9985 97.3018 34.2571C97.3018 32.5157 95.5605 31.0725 93.2377 30.7187ZM89.3367 34.2571C89.3367 33.4315 90.046 32.7273 91.0709 32.4255V36.0922C90.0424 35.7904 89.326 35.0827 89.326 34.2571H89.3367ZM93.2377 36.0922V32.4255C94.2555 32.7273 94.9718 33.4315 94.9718 34.2571C94.9718 35.0827 94.2555 35.7904 93.2377 36.0922Z" fill="#F88C28"/>
<path d="M54.4578 27H49C49 27.9158 49.6738 28.4223 50.5462 28.6998V36.6785C49.6703 36.9352 49 37.4556 49 38.5379H54.0252C55.4721 38.5379 56.4792 38.3645 57.0502 38.0106C57.9368 37.459 58.1531 36.623 58.1531 35.5129V30.1845C58.1531 28.0407 57.0928 27 54.4578 27ZM55.5856 35.1799C55.5856 36.0576 55.0465 36.4981 53.9578 36.4981C53.6457 36.4981 53.2485 36.4808 52.8442 36.4738V29.0294C53.2946 29.0467 53.6989 29.0294 53.9897 29.0294C55.0796 29.0294 55.6234 29.4919 55.621 30.417C55.621 31.3536 55.5856 34.2849 55.5856 35.1799Z" fill="#F88C28"/>
<path d="M63.4486 30.1396C60.5938 30.1396 59.2852 32.391 59.2852 34.4308C59.2852 36.9458 60.8846 38.5242 63.6755 38.5242C64.6916 38.5466 65.7023 38.3745 66.6509 38.0178V36.3214C65.8045 36.5632 64.926 36.6801 64.0444 36.6683C62.8528 36.6683 61.7924 36.1757 61.725 35.1385H67.0304C67.088 34.812 67.1165 34.4812 67.1155 34.1498C67.1155 32.1621 66.1083 30.1396 63.4486 30.1396ZM61.718 33.4283C61.7853 32.7692 62.2215 31.7978 63.2996 31.7978C64.477 31.7978 64.7465 32.8177 64.7465 33.4283H61.718Z" fill="#F88C28"/>
<path d="M71.5966 30.2437C70.5327 30.5247 68.8482 31.4648 68.8482 33.2929V35.8079C68.8482 36.9562 68.5787 36.9527 68.1177 37.3933C67.9686 37.5317 67.852 37.7002 67.7761 37.8871C67.7001 38.074 67.6667 38.2748 67.6779 38.4756H69.9689C70.8164 38.4756 71.2526 37.2823 71.2526 35.8149V33.4733C71.252 33.0773 71.4113 32.697 71.6959 32.4153C72.0366 32.1033 72.4755 31.9137 72.9407 31.8776H73.0471V38.4687H75.5012V30.1431H72.1321C71.95 30.154 71.77 30.1878 71.5966 30.2437Z" fill="#F88C28"/>
<circle cx="198" cy="310" r="49.5" fill="white" stroke="#344351"/>
<ellipse cx="197.999" cy="297.5" rx="11.6667" ry="12.5" fill="#F88C28"/>
<path d="M218.344 333.333H177.654C176.991 333.333 176.512 332.701 176.724 332.073C179.069 325.123 185.952 313.333 197.999 313.333C210.046 313.333 216.928 325.123 219.274 332.073C219.486 332.701 219.007 333.333 218.344 333.333Z" fill="#F88C28"/>
<circle cx="231.782" cy="271.782" r="12.782" fill="#F88C28"/>
<path d="M237.423 268.022L230.155 276.293L226.145 271.782" stroke="white" stroke-linecap="round" stroke-linejoin="round"/>
<defs>
<linearGradient id="paint0_linear_6022_33666" x1="386.027" y1="608.045" x2="701.004" y2="445.407" gradientUnits="userSpaceOnUse">
<stop stop-color="#CED2D4"/>
<stop offset="1" stop-color="#E9EBED"/>
</linearGradient>
<linearGradient id="paint1_linear_6022_33666" x1="38.174" y1="282.746" x2="384.509" y2="102.936" gradientUnits="userSpaceOnUse">
<stop stop-color="#CED2D4"/>
<stop offset="1" stop-color="#E9EBED"/>
</linearGradient>
</defs>
</svg>
