<svg width="272" height="147" viewBox="0 0 272 147" fill="none" xmlns="http://www.w3.org/2000/svg">
<g clip-path="url(#clip0_6590_41136)">
<path d="M1 133.958H271" stroke="#55626F" stroke-width="0.7" stroke-linecap="round" stroke-linejoin="round"/>
<path d="M124.558 47.5605L124.558 47.5605C120.374 47.5557 116.273 48.7223 112.718 50.9283C109.163 53.1344 106.296 56.2918 104.442 60.0432L104.432 60.0634L104.42 60.0821L55.7374 133.183H225.468L238.96 60.0633C239.24 58.5381 239.182 56.9699 238.79 55.4696C238.398 53.9692 237.681 52.5733 236.691 51.3807C235.7 50.188 234.459 49.2276 233.056 48.5675C231.654 47.9074 230.123 47.5636 228.573 47.5605L124.558 47.5605Z" fill="#EFEFEF" stroke="#55626F" stroke-width="0.7"/>
<path d="M233.741 49.2753C232.537 48.6033 231.212 48.1735 229.843 48.0096C227.786 52.0104 217.259 73.0577 207.152 93.2921C202.002 103.604 196.961 113.703 193.208 121.225C191.332 124.985 189.777 128.101 188.692 130.277L187.434 132.799L187.242 133.183H225.461L238.963 60.3242C238.963 60.3241 238.963 60.324 238.963 60.3238C239.225 58.8946 239.186 57.4268 238.849 56.0133C238.512 54.5997 237.884 53.271 237.005 52.1112C236.126 50.9514 235.014 49.9857 233.741 49.2753Z" fill="#EFEFEF" stroke="#55626F" stroke-width="0.7"/>
<path d="M55.783 133.104L55.7318 133.183H97.8127L151.974 47.5604H124.489C115.947 47.5604 109.111 51.8506 104.371 58.9787L104.371 58.9787C97.7231 68.9746 85.4753 87.6604 74.8889 103.848C69.5958 111.942 64.7183 119.411 61.1641 124.857C59.387 127.579 57.9407 129.796 56.9387 131.332L55.783 133.104Z" fill="#EFEFEF" stroke="#55626F" stroke-width="0.7"/>
<path d="M238.347 128.355H37.9208C37.2011 128.355 36.4885 128.497 35.8236 128.773C35.1587 129.049 34.5545 129.453 34.0455 129.963C33.5366 130.473 33.1328 131.078 32.8573 131.744C32.5818 132.41 32.44 133.124 32.44 133.845V140.449C32.44 141.171 32.5818 141.885 32.8573 142.551C33.1328 143.217 33.5366 143.822 34.0455 144.332C34.5545 144.842 35.1587 145.246 35.8236 145.522C36.4885 145.798 37.2011 145.94 37.9208 145.94H238.347C239.573 145.94 240.749 145.452 241.616 144.584C242.483 143.715 242.97 142.537 242.97 141.309V132.986C242.97 131.758 242.483 130.58 241.616 129.711C240.749 128.843 239.573 128.355 238.347 128.355Z" fill="#EFEFEF" stroke="#55626F" stroke-width="0.7"/>
<path d="M169.049 12.8943L169.049 12.8942C169.726 11.8273 170.103 10.5984 170.143 9.33595C170.182 8.07347 169.881 6.82359 169.272 5.71677C168.663 4.60995 167.767 3.68676 166.679 3.0436C165.591 2.40045 164.349 2.06092 163.085 2.06045C163.085 2.06045 163.085 2.06045 163.085 2.06045L137.88 2.06045C136.278 2.0605 134.702 2.46525 133.298 3.23705C131.895 4.00886 130.709 5.12265 129.852 6.47487L129.852 6.47493L61.2178 114.695L60.9222 114.507L61.2178 114.695C60.5407 115.762 60.1629 116.992 60.1239 118.255C60.0849 119.518 60.3861 120.768 60.996 121.875C61.606 122.982 62.5023 123.905 63.5914 124.548C64.6806 125.19 65.9225 125.529 67.1875 125.529H67.1877H93.7488H93.7489C94.9401 125.529 96.112 125.229 97.1557 124.656C98.1994 124.082 99.081 123.255 99.7186 122.25C99.7186 122.25 99.7186 122.25 99.7187 122.249L169.049 12.8943Z" fill="#EFEFEF" stroke="#55626F" stroke-width="0.7"/>
<path d="M147.318 68.5473H213.728L221.031 53.9389H157.578L147.318 68.5473Z" fill="white" stroke="#55626F" stroke-width="0.7"/>
<path d="M206.162 73.0741H190.039L185.198 80.4536H202.966L206.162 73.0741Z" fill="white" stroke="#55626F" stroke-width="0.7"/>
<path d="M201.049 83.2797H184.93L180.085 90.6591H197.854L201.049 83.2797Z" fill="white" stroke="#55626F" stroke-width="0.7"/>
<path d="M195.928 93.9105H179.811L174.996 100.865H192.748L195.928 93.9105Z" fill="white" stroke="#55626F" stroke-width="0.7"/>
<path d="M190.831 104.117H174.713L169.867 111.496H187.64L190.831 104.117Z" fill="white" stroke="#55626F" stroke-width="0.7"/>
<path d="M185.725 114.322H169.924L165.176 121.702H182.59L185.725 114.322Z" fill="white" stroke="#55626F" stroke-width="0.7"/>
<path d="M185.669 73.0741H169.572L163.963 80.4536H181.705L185.669 73.0741Z" fill="white" stroke="#55626F" stroke-width="0.7"/>
<path d="M179.278 83.2797H163.183L157.572 90.6591H175.319L179.278 83.2797Z" fill="white" stroke="#55626F" stroke-width="0.7"/>
<path d="M173.302 93.9105H157.216L151.635 100.865H169.364L173.302 93.9105Z" fill="white" stroke="#55626F" stroke-width="0.7"/>
<path d="M167.356 104.117H151.261L145.65 111.496H163.397L167.356 104.117Z" fill="white" stroke="#55626F" stroke-width="0.7"/>
<path d="M160.966 114.322H144.864L139.259 121.702H157.007L160.966 114.322Z" fill="white" stroke="#55626F" stroke-width="0.7"/>
<path d="M162.67 73.0741H146.945L141.385 80.4536H158.719L162.67 73.0741Z" fill="white" stroke="#55626F" stroke-width="0.7"/>
<path d="M156.704 83.2797H140.677L135.006 90.6591H152.684L156.704 83.2797Z" fill="white" stroke="#55626F" stroke-width="0.7"/>
<path d="M150.301 93.9105H134.28L128.644 100.865H146.301L150.301 93.9105Z" fill="white" stroke="#55626F" stroke-width="0.7"/>
<path d="M144.352 104.117H128.32L122.654 111.496H140.326L144.352 104.117Z" fill="white" stroke="#55626F" stroke-width="0.7"/>
<path d="M137.965 114.322H121.933L116.268 121.702H133.94L137.965 114.322Z" fill="white" stroke="#55626F" stroke-width="0.7"/>
<path d="M241.732 127.93H183.592C182.13 127.93 180.729 128.501 179.697 129.516C178.665 130.53 178.086 131.905 178.086 133.338V140.531C178.086 141.964 178.665 143.339 179.697 144.354C180.729 145.369 182.13 145.94 183.592 145.94H241.732C242.965 145.94 244.148 145.458 245.018 144.602C245.889 143.746 246.377 142.586 246.377 141.378V132.491C246.377 131.283 245.889 130.124 245.018 129.268C244.148 128.412 242.965 127.93 241.732 127.93Z" fill="#EFEFEF" stroke="#55626F" stroke-width="0.7"/>
<path d="M86.2319 120.773H86.2317H60.668C61.1133 122.086 61.9393 123.241 63.0454 124.087C64.2738 125.027 65.7785 125.534 67.3249 125.529H67.3261H93.8485H93.8487C95.0379 125.529 96.208 125.229 97.2501 124.656C98.2922 124.083 99.1725 123.255 99.8092 122.25C99.8092 122.25 99.8092 122.25 99.8092 122.25L169.056 12.9193C169.056 12.9192 169.056 12.9192 169.056 12.9191C169.628 12.0147 169.986 10.9919 170.104 9.92837C170.221 8.86474 170.095 7.78832 169.734 6.78087C169.373 5.77341 168.788 4.86141 168.022 4.11412C167.321 3.43021 166.486 2.90071 165.571 2.55839L93.1046 116.985C93.1046 116.985 93.1045 116.985 93.1045 116.985C92.3709 118.145 91.3563 119.1 90.1548 119.762C88.9532 120.425 87.6038 120.772 86.2319 120.773Z" fill="#EFEFEF" stroke="#55626F" stroke-width="0.7"/>
<path d="M132.62 11.6368L132.62 11.6371L119.598 32.4024H138.227H138.227C139.19 32.4033 140.138 32.1579 140.983 31.6887C141.828 31.2196 142.542 30.5419 143.058 29.7183C143.058 29.7183 143.058 29.7183 143.058 29.7183L156.661 8.01358L139.133 8.01358L139.132 8.01358C137.833 8.01298 136.555 8.34469 135.416 8.97805C134.277 9.61143 133.315 10.526 132.62 11.6368Z" fill="white" stroke="#55626F" stroke-width="0.7"/>
<path d="M88.9439 106.751L88.9441 106.751L91.8855 102.07C92.3543 101.307 92.6136 100.431 92.6366 99.533C92.6597 98.6343 92.4453 97.7458 92.0157 96.9585C91.5861 96.1713 90.9569 95.5137 90.1928 95.053C89.4291 94.5925 88.5581 94.3451 87.6689 94.3358C85.8814 94.3354 84.1227 94.791 82.5565 95.6606C80.99 96.5303 79.6669 97.786 78.7109 99.3107C78.7108 99.3109 78.7107 99.3111 78.7106 99.3112L76.2055 103.335C76.2054 103.335 76.2052 103.335 76.2051 103.335C75.736 104.099 75.4766 104.975 75.4535 105.873C75.4305 106.772 75.6448 107.66 76.0744 108.448C76.504 109.235 77.1332 109.893 77.8974 110.353C78.6609 110.814 79.5319 111.061 80.421 111.07H81.1594H81.1598C82.713 111.072 84.2414 110.677 85.6025 109.922C86.9637 109.166 88.1133 108.076 88.9439 106.751Z" fill="#EFEFEF" stroke="#55626F" stroke-width="0.7"/>
<path d="M80.7161 100.419C81.4881 99.2299 82.5557 98.2503 83.8198 97.5717C85.0838 96.893 86.5032 96.5374 87.946 96.5377C88.6955 96.5326 89.4325 96.7252 90.0792 97.095C90.7259 97.4649 91.2582 97.9983 91.62 98.6389C91.9817 99.2796 92.1594 100.004 92.1344 100.735C92.1093 101.466 91.8825 102.177 91.4777 102.792L89.1767 106.331C88.5026 107.37 87.5701 108.226 86.4661 108.818C85.3621 109.41 84.1224 109.721 82.8624 109.72H82.2679C81.5188 109.724 80.7826 109.53 80.1368 109.16C79.4909 108.79 78.9595 108.256 78.5984 107.616C78.2374 106.976 78.0602 106.252 78.0855 105.521C78.1108 104.791 78.3376 104.08 78.7421 103.465L80.7161 100.419Z" fill="white"/>
<path d="M87.4317 102.694C87.5461 102.503 87.7055 102.345 87.8948 102.235C88.0841 102.125 88.2972 102.067 88.5142 102.066C88.6283 102.063 88.741 102.093 88.84 102.151C88.9391 102.21 89.0209 102.296 89.0765 102.399C89.1322 102.502 89.1596 102.619 89.1559 102.737C89.1522 102.855 89.1175 102.97 89.0555 103.07L88.7091 103.631C88.6091 103.8 88.4693 103.94 88.3027 104.039C88.136 104.137 87.9481 104.189 87.7564 104.192H87.6644C87.551 104.192 87.4395 104.162 87.3415 104.102C87.2435 104.043 87.1627 103.958 87.1073 103.855C87.052 103.753 87.0243 103.637 87.0271 103.519C87.0299 103.402 87.0631 103.287 87.1232 103.187L87.4317 102.694Z" fill="#55626F"/>
<path d="M83.5957 102.694C83.7106 102.503 83.87 102.346 84.0592 102.236C84.2485 102.126 84.4614 102.067 84.6783 102.066C84.7924 102.063 84.905 102.093 85.0041 102.151C85.1032 102.21 85.1849 102.296 85.2406 102.399C85.2962 102.502 85.3237 102.619 85.32 102.737C85.3163 102.855 85.2816 102.97 85.2196 103.07L84.8731 103.631C84.7732 103.8 84.6333 103.94 84.4667 104.039C84.3001 104.137 84.1121 104.189 83.9205 104.192H83.8285C83.7151 104.192 83.6036 104.162 83.5056 104.102C83.4076 104.043 83.3267 103.958 83.2714 103.855C83.2161 103.753 83.1884 103.637 83.1912 103.519C83.1939 103.402 83.2271 103.287 83.2872 103.187L83.5957 102.694Z" fill="#55626F"/>
<path d="M80.1984 102.694C80.3129 102.503 80.4719 102.345 80.6607 102.236C80.8494 102.126 81.0618 102.067 81.2782 102.065C81.3913 102.065 81.5025 102.095 81.6003 102.155C81.698 102.214 81.7787 102.299 81.8338 102.402C81.889 102.504 81.9166 102.62 81.9139 102.738C81.9111 102.855 81.878 102.97 81.8181 103.07L81.4671 103.63C81.3678 103.8 81.2284 103.941 81.0621 104.039C80.8958 104.137 80.7082 104.19 80.5169 104.191H80.4251C80.3113 104.194 80.199 104.164 80.1002 104.106C80.0013 104.047 79.9198 103.962 79.8643 103.858C79.8087 103.755 79.7814 103.638 79.7851 103.52C79.7888 103.402 79.8234 103.287 79.8852 103.187L80.1984 102.694Z" fill="#55626F"/>
<path d="M128.489 40.156C128.683 39.8412 128.951 39.582 129.268 39.4027C129.586 39.2234 129.943 39.1299 130.305 39.1309H135.148L131.433 45.1657C131.285 45.4015 131.082 45.5954 130.843 45.7297C130.603 45.864 130.335 45.9345 130.062 45.9346H124.928L128.489 40.156Z" fill="#55626F"/>
<path d="M120.821 40.156C121.015 39.8416 121.284 39.5827 121.601 39.4035C121.919 39.2243 122.276 39.1305 122.638 39.1309H127.484L123.767 45.1657C123.62 45.401 123.418 45.5947 123.179 45.729C122.94 45.8633 122.673 45.934 122.401 45.9346H117.264L120.821 40.156Z" fill="#55626F"/>
<path d="M112.731 40.156C112.925 39.8412 113.193 39.582 113.511 39.4027C113.828 39.2234 114.185 39.1299 114.547 39.1309H119.391L115.675 45.1657C115.527 45.4015 115.324 45.5954 115.085 45.7297C114.845 45.864 114.577 45.9345 114.304 45.9346H109.17L112.731 40.156Z" fill="#55626F"/>
<path d="M123.38 48.1764C123.573 47.8812 123.841 47.6379 124.159 47.469C124.476 47.3002 124.833 47.2112 125.196 47.2104H130.039L126.323 52.8631C126.178 53.0849 125.976 53.2677 125.738 53.3946C125.499 53.5214 125.231 53.5883 124.958 53.589H119.818L123.38 48.1764Z" fill="#55626F"/>
<path d="M115.286 48.1764C115.479 47.8808 115.747 47.6372 116.065 47.4683C116.382 47.2994 116.739 47.2107 117.102 47.2104H121.945L118.23 52.8631C118.083 53.0857 117.881 53.269 117.641 53.3959C117.401 53.5229 117.132 53.5893 116.859 53.589H111.724L115.286 48.1764Z" fill="#55626F"/>
<path d="M107.606 48.1721C107.8 47.8782 108.069 47.636 108.387 47.4679C108.706 47.2998 109.063 47.2112 109.427 47.2104H114.281L110.557 52.8379C110.417 53.0607 110.22 53.2463 109.985 53.3776C109.75 53.5088 109.484 53.5815 109.212 53.589H104.06L107.606 48.1721Z" fill="#55626F"/>
<path d="M117.864 55.8894C118.058 55.5746 118.326 55.3154 118.644 55.1361C118.961 54.9569 119.318 54.8633 119.68 54.8643H124.5L120.778 60.8991C120.633 61.136 120.432 61.3309 120.193 61.4654C119.954 61.5999 119.686 61.6696 119.413 61.668H114.279L117.864 55.8894Z" fill="#55626F"/>
<path d="M109.751 55.8894C109.945 55.575 110.213 55.3161 110.531 55.1369C110.848 54.9577 111.205 54.8639 111.567 54.8643H116.41L112.695 60.8991C112.548 61.1352 112.347 61.3295 112.108 61.4639C111.869 61.5983 111.602 61.6685 111.329 61.668H106.189L109.751 55.8894Z" fill="#55626F"/>
<path d="M102.087 55.8894C102.28 55.5746 102.548 55.3154 102.866 55.1361C103.184 54.9569 103.54 54.8633 103.903 54.8643H108.746L105.025 60.8991C104.88 61.1364 104.678 61.3316 104.439 61.4661C104.2 61.6007 103.932 61.6702 103.659 61.6679H98.5253L102.087 55.8894Z" fill="#55626F"/>
<path d="M112.305 63.9742C112.499 63.6593 112.767 63.3998 113.085 63.2197C113.402 63.0396 113.759 62.9447 114.122 62.9438H118.965L115.249 68.9733C115.103 69.2099 114.902 69.4049 114.663 69.5402C114.425 69.6756 114.157 69.7469 113.884 69.7476H108.744L112.305 63.9742Z" fill="#55626F"/>
<path d="M104.641 63.9742C104.835 63.6589 105.103 63.3991 105.42 63.2189C105.738 63.0387 106.095 62.9441 106.457 62.9438H111.301L107.579 68.9733C107.434 69.2107 107.233 69.4063 106.994 69.5417C106.755 69.6772 106.487 69.748 106.214 69.7476H101.08L104.641 63.9742Z" fill="#55626F"/>
<path d="M96.5475 63.9742C96.7413 63.6593 97.0094 63.3998 97.3269 63.2197C97.6444 63.0396 98.001 62.9447 98.3637 62.9438H103.207L99.4914 68.9733C99.3457 69.2099 99.1441 69.4049 98.9055 69.5402C98.6669 69.6756 98.3989 69.7469 98.1263 69.7476H92.9862L96.5475 63.9742Z" fill="#55626F"/>
<path d="M159.657 54.8643H219.469L212.936 67.6213H150.478L159.657 54.8643Z" fill="#F88C28"/>
<path d="M133.369 13.0006C133.991 12.0173 134.852 11.2074 135.871 10.646C136.89 10.0846 138.035 9.78999 139.198 9.78955H154.738L142.803 28.637C142.335 29.3771 141.688 29.9866 140.922 30.4088C140.155 30.831 139.294 31.052 138.419 31.0512H121.946L133.369 13.0006Z" fill="#57A8F3"/>
<path d="M235.302 144.473L235.302 144.473C235.305 144.97 235.233 145.464 235.089 145.94H205.841C205.966 145.46 206.029 144.967 206.029 144.471M235.302 144.473L205.679 144.471M235.302 144.473V144.471V142.874C235.302 140.413 233.683 138.56 231.808 138.56H207.491C206.982 138.579 206.483 138.699 206.026 138.915C205.652 139.091 205.312 139.327 205.02 139.613C205.688 140.562 206.042 141.694 206.029 142.853M235.302 144.473L205.679 142.851M206.029 144.471L205.679 144.471M206.029 144.471V144.471H205.679M206.029 144.471V142.853M205.679 144.471V142.851M206.029 142.853C206.029 142.853 206.029 142.854 206.029 142.855L205.679 142.851M206.029 142.853V142.851H205.679M205.369 146.29C205.409 146.174 205.446 146.058 205.479 145.94L205.369 146.29Z" fill="white" stroke="#55626F" stroke-width="0.7"/>
<path d="M231.649 144.418V142.546C231.649 139.991 230.254 137.949 228.413 137.36H229.525C231.733 137.36 233.523 139.662 233.523 142.505V144.271C233.526 144.958 233.417 145.641 233.202 146.29H231.361C231.544 145.684 231.641 145.053 231.649 144.418Z" fill="#55626F"/>
<path d="M227.645 144.418V142.546C227.645 139.991 226.141 137.949 224.155 137.36H225.373C227.761 137.36 229.691 139.662 229.691 142.505V144.271C229.692 144.958 229.574 145.64 229.344 146.29H227.353C227.544 145.683 227.643 145.052 227.645 144.418Z" fill="#55626F"/>
<path d="M223.391 144.418V142.546C223.391 139.991 221.885 137.949 219.897 137.36H221.117C223.501 137.36 225.434 139.662 225.434 142.505V144.271C225.437 144.958 225.319 145.641 225.086 146.29H223.098C223.29 145.683 223.389 145.052 223.391 144.418Z" fill="#55626F"/>
<path d="M219.283 144.418V142.546C219.283 139.991 217.894 137.949 216.061 137.36H217.186C219.384 137.36 221.172 139.662 221.172 142.505V144.271C221.172 144.958 221.064 145.64 220.851 146.29H219.013C219.19 145.683 219.281 145.052 219.283 144.418Z" fill="#55626F"/>
<path d="M215.303 144.418V142.546C215.303 139.991 213.797 137.949 211.804 137.36H213.023C215.407 137.36 217.34 139.662 217.34 142.505V144.271C217.34 144.958 217.223 145.64 216.992 146.29H215.005C215.199 145.683 215.299 145.053 215.303 144.418Z" fill="#55626F"/>
<path d="M211.039 144.418V142.546C211.039 139.991 209.533 137.949 207.546 137.36H208.765C211.149 137.36 213.082 139.662 213.082 142.505V144.271C213.085 144.958 212.968 145.641 212.734 146.29H210.747C210.939 145.683 211.037 145.052 211.039 144.418Z" fill="#55626F"/>
<path d="M206.953 144.418V142.546C206.953 139.991 205.557 137.949 203.714 137.36H204.816C207.032 137.36 208.824 139.662 208.824 142.505V144.271C208.824 144.958 208.715 145.64 208.502 146.29H206.653C206.844 145.685 206.945 145.054 206.953 144.418Z" fill="#55626F"/>
<path d="M83.3395 124.678L79.3994 121.976H66.434L70.3741 124.678H83.3395Z" fill="white" stroke="#55626F" stroke-width="0.7"/>
<path d="M44.4477 1.28516C49.8036 1.28463 55.0369 2.88594 59.4736 5.88282C63.9103 8.8797 67.347 13.1349 69.3412 18.1002C71.3354 23.0654 71.7956 28.5134 70.6625 33.7423C69.5294 38.9712 66.855 43.7414 62.9838 47.4385L66.8017 54.5552L57.4211 51.524C53.8386 53.5041 49.8498 54.6388 45.7604 54.8411C41.6709 55.0433 37.5895 54.3077 33.8286 52.6907C30.0678 51.0736 26.7275 48.6181 24.0636 45.5121C21.3998 42.4062 19.4831 38.7323 18.4604 34.772C17.4377 30.8117 17.3362 26.6702 18.1636 22.6646C18.9911 18.6591 20.7255 14.8959 23.234 11.6635C25.7425 8.43106 28.9586 5.81516 32.6356 4.01622C36.3127 2.21728 40.3533 1.28307 44.4477 1.28516Z" fill="white" stroke="#55626F" stroke-width="0.7" stroke-linecap="round" stroke-linejoin="round"/>
<path d="M47.7692 16.1685V22.4645C49.2168 23.1787 50.3827 24.369 51.0766 25.8412C51.7705 27.3134 51.9514 28.9805 51.5898 30.5703C51.2281 32.1601 50.3453 33.5787 49.0854 34.5946C47.8256 35.6104 46.2631 36.1635 44.653 36.1635C43.043 36.1635 41.4805 35.6104 40.2206 34.5946C38.9607 33.5787 38.0779 32.1601 37.7163 30.5703C37.3546 28.9805 37.5355 27.3134 38.2294 25.8412C38.9233 24.369 40.0892 23.1787 41.5368 22.4645V16.1685C38.4564 16.9398 35.7612 18.8271 33.9599 21.4741C32.1586 24.1211 31.3758 27.3446 31.7593 30.5364C32.1427 33.7281 33.6659 36.6672 36.0413 38.799C38.4167 40.9308 41.48 42.1077 44.653 42.1077C47.8261 42.1077 50.8894 40.9308 53.2648 38.799C55.6402 36.6672 57.1633 33.7281 57.5468 30.5364C57.9302 27.3446 57.1474 24.1211 55.3461 21.4741C53.5448 18.8271 50.8496 16.9398 47.7692 16.1685Z" fill="#2B8FEB"/>
<path d="M40.6824 29.7221C40.8141 30.4703 41.1372 31.1673 41.6174 31.7394C42.0976 32.3116 42.7171 32.7375 43.4102 32.9721C44.1033 33.2067 44.8444 33.2413 45.5548 33.0722C46.2652 32.903 46.9186 32.5365 47.4458 32.0114C47.973 31.4862 48.3543 30.8221 48.5494 30.0892C48.7445 29.3563 48.7462 28.5819 48.5541 27.8481C48.3621 27.1144 47.9836 26.4484 47.4586 25.9209C46.9337 25.3933 46.2818 25.0238 45.5721 24.8514V15.7432H43.7058V24.8124C42.6987 25.064 41.8226 25.7096 41.2583 26.6159C40.6939 27.5223 40.4844 28.6202 40.6731 29.6832L40.6824 29.7221Z" fill="#2B8FEB"/>
</g>
<defs>
<clipPath id="clip0_6590_41136">
<rect width="272" height="147" fill="white" transform="matrix(-1 0 0 1 272 0)"/>
</clipPath>
</defs>
</svg>
