<svg width="71" height="588" viewBox="0 0 71 588" fill="none" xmlns="http://www.w3.org/2000/svg">
<path fill-rule="evenodd" clip-rule="evenodd" d="M49.5508 0C50.0923 0 50.6291 0.0210105 51.1602 0.0622748L51.0828 1.05927C50.5774 1.02001 50.0665 1 49.5508 1H48.0024V0H49.5508ZM41.8087 0H44.9055V1H41.8087V0ZM35.615 0H38.7118V1H35.615V0ZM29.4213 0H32.5181V1H29.4213V0ZM23.2276 0H26.3245V1H23.2276V0ZM17.0339 0H20.1308V1H17.0339V0ZM10.8402 0H13.9371V1H10.8402V0ZM4.64656 0H7.7434V1H4.64656V0ZM0.001297 0H1.54972V1H0.001297V0ZM54.338 0.562103C55.392 0.814269 56.4144 1.14783 57.3981 1.55575L57.015 2.47947C56.0796 2.09159 55.1075 1.77443 54.1054 1.53465L54.338 0.562103ZM60.2636 3.01854C61.181 3.58187 62.0505 4.21534 62.8648 4.91146L62.215 5.67156C61.4402 5.00921 60.6129 4.40655 59.7403 3.87069L60.2636 3.01854ZM65.1393 7.18599C65.8354 8.00028 66.4689 8.86982 67.0322 9.78716L66.1801 10.3105C65.6442 9.43785 65.0416 8.61058 64.3792 7.83579L65.1393 7.18599ZM68.495 12.6527C68.903 13.6364 69.2365 14.6588 69.4887 15.7127L68.5161 15.9454C68.2764 14.9432 67.9592 13.9712 67.5713 13.0358L68.495 12.6527ZM69.9885 18.8905C70.0298 19.4217 70.0508 19.9584 70.0508 20.5V22.0021H69.0508V20.5C69.0508 19.9843 69.0308 19.4734 68.9915 18.968L69.9885 18.8905ZM70.0508 25.0063V28.0105H69.0508V25.0063H70.0508ZM70.0508 31.0148V34.019H69.0508V31.0148H70.0508ZM70.0508 37.0232V40.0274H69.0508V37.0232H70.0508ZM70.0508 43.0316V46.0359H69.0508V43.0316H70.0508ZM70.0508 49.0401V52.0443H69.0508V49.0401H70.0508ZM70.0508 55.0485V58.0527H69.0508V55.0485H70.0508ZM70.0508 61.057V64.0612H69.0508V61.057H70.0508ZM70.0508 67.0654V70.0696H69.0508V67.0654H70.0508ZM70.0508 73.0738V76.078H69.0508V73.0738H70.0508ZM70.0508 79.0823V82.0865H69.0508V79.0823H70.0508ZM70.0508 85.0907V88.0949H69.0508V85.0907H70.0508ZM70.0508 91.4798V94.1034H69.0508V91.8054H68.0145C67.7383 91.8054 67.5145 91.5816 67.5145 91.3054C67.5145 91.0293 67.7383 90.8054 68.0145 90.8054H69.582C69.7846 90.8054 69.9591 90.9259 70.0376 91.0991H70.0508V91.131C70.071 91.1853 70.082 91.2441 70.082 91.3054C70.082 91.3668 70.071 91.4255 70.0508 91.4798ZM70.0508 97.1076V100.112H69.0508V97.1076H70.0508ZM70.0508 103.116V106.12H69.0508V103.116H70.0508ZM70.0508 109.124V112.129H69.0508V109.124H70.0508ZM70.0508 115.133V118.137H69.0508V115.133H70.0508ZM70.0508 121.141V124.146H69.0508V121.141H70.0508ZM70.0508 127.15V130.154H69.0508V127.15H70.0508ZM70.0508 133.158V136.162H69.0508V133.158H70.0508ZM70.0508 139.167V142.171H69.0508V139.167H70.0508ZM70.0508 145.175V148.179H69.0508V145.175H70.0508ZM70.0508 151.184V154.188H69.0508V151.184H70.0508ZM70.0508 157.192V160.196H69.0508V157.192H70.0508ZM70.0508 163.2V166.205H69.0508V163.2H70.0508ZM70.0508 169.209V172.213H69.0508V169.209H70.0508ZM70.0508 175.217V178.221H69.0508V175.217H70.0508ZM70.0508 181.226V184.23H69.0508V181.226H70.0508ZM70.0508 187.234V190.238H69.0508V187.234H70.0508ZM70.0508 193.242V196.247H69.0508V193.242H70.0508ZM70.0508 199.251V202.255H69.0508V199.251H70.0508ZM70.0508 205.259V208.264H69.0508V205.259H70.0508ZM70.0508 211.268V214.272H69.0508V211.268H70.0508ZM70.0508 217.276V220.28H69.0508V217.276H70.0508ZM70.0508 223.285V226.289H69.0508V223.285H70.0508ZM70.0508 229.293V232.297H69.0508V229.293H70.0508ZM70.0508 237.48V238.306H69.0508V237.805H68.0145C67.7383 237.805 67.5145 237.582 67.5145 237.305C67.5145 237.029 67.7383 236.805 68.0145 236.805H69.0508V235.301H70.0508V237.131C70.071 237.185 70.082 237.244 70.082 237.305C70.082 237.367 70.071 237.426 70.0508 237.48ZM70.0508 241.31V244.314H69.0508V241.31H70.0508ZM70.0508 247.318V250.322H69.0508V247.318H70.0508ZM70.0508 253.327V256.331H69.0508V253.327H70.0508ZM70.0508 259.335V262.339H69.0508V259.335H70.0508ZM70.0508 265.344V268.348H69.0508V265.344H70.0508ZM70.0508 271.352V274.356H69.0508V271.352H70.0508ZM70.0508 277.36V280.365H69.0508V277.36H70.0508ZM70.0508 283.369V286.373H69.0508V283.369H70.0508ZM70.0508 289.377V292.381H69.0508V289.377H70.0508ZM70.0508 295.386V298.39H69.0508V295.386H70.0508ZM70.0508 301.394V304.398H69.0508V301.394H70.0508ZM70.0508 307.403V310.407H69.0508V307.403H70.0508ZM70.0508 313.411V316.415H69.0508V313.411H70.0508ZM70.0508 319.419V322.424H69.0508V319.419H70.0508ZM70.0508 325.428V328.432H69.0508V325.428H70.0508ZM70.0508 331.436V334.44H69.0508V331.436H70.0508ZM70.0508 337.445V340.449H69.0508V337.445H70.0508ZM70.0508 343.453V346.457H69.0508V343.453H70.0508ZM70.0508 349.461V352.466H69.0508V349.461H70.0508ZM70.0508 355.47V358.474H69.0508V355.47H70.0508ZM70.0508 361.478V364.483H69.0508V361.478H70.0508ZM70.0508 367.487V370.491H69.0508V367.487H70.0508ZM70.0508 373.495V376.499H69.0508V373.495H70.0508ZM70.0508 379.504V382.508H69.0508V379.504H70.0508ZM70.0508 385.512V388.516H69.0508V385.512H70.0508ZM70.0508 393.48V394.525H69.0508V393.805H68.0145C67.7383 393.805 67.5145 393.582 67.5145 393.305C67.5145 393.029 67.7383 392.805 68.0145 392.805H69.0508V391.52H70.0508V393.131C70.071 393.185 70.082 393.244 70.082 393.305C70.082 393.367 70.071 393.426 70.0508 393.48ZM70.0508 397.529V400.533H69.0508V397.529H70.0508ZM70.0508 403.537V406.542H69.0508V403.537H70.0508ZM70.0508 409.546V412.55H69.0508V409.546H70.0508ZM70.0508 415.554V418.558H69.0508V415.554H70.0508ZM70.0508 421.563V424.567H69.0508V421.563H70.0508ZM70.0508 427.571V430.575H69.0508V427.571H70.0508ZM70.0508 433.579V436.584H69.0508V433.579H70.0508ZM70.0508 439.588V442.592H69.0508V439.588H70.0508ZM70.0508 445.596V448.6H69.0508V445.596H70.0508ZM70.0508 451.605V454.609H69.0508V451.605H70.0508ZM70.0508 457.613V460.617H69.0508V457.613H70.0508ZM70.0508 463.622V466.626H69.0508V463.622H70.0508ZM70.0508 469.63V472.634H69.0508V469.63H70.0508ZM70.0508 475.638V478.643H69.0508V475.638H70.0508ZM70.0508 481.647V484.651H69.0508V481.647H70.0508ZM70.0508 487.655V490.659H69.0508V487.655H70.0508ZM70.0508 493.664V496.668H69.0508V493.664H70.0508ZM70.0508 499.672V502.676H69.0508V499.672H70.0508ZM70.0508 505.68V508.685H69.0508V505.68H70.0508ZM70.0508 511.689V514.693H69.0508V511.689H70.0508ZM70.0508 517.697V520.702H69.0508V517.697H70.0508ZM70.0508 523.706V526.71H69.0508V523.706H70.0508ZM70.0508 529.714V532.718H69.0508V529.714H70.0508ZM70.0508 535.723V538.727H69.0508V535.723H70.0508ZM70.0508 541.731V544.735H69.0508V541.731H70.0508ZM70.0508 547.739V550.744H69.0508V547.739H70.0508ZM70.0508 553.748V556.752H69.0508V553.748H70.0508ZM70.0508 559.756V562.76H69.0508V559.756H70.0508ZM70.0508 565.765V567.268C70.0508 567.809 70.0298 568.346 69.9885 568.877L68.9915 568.8C69.0308 568.294 69.0508 567.783 69.0508 567.268V565.765H70.0508ZM69.4887 572.055C69.2365 573.109 68.903 574.131 68.495 575.115L67.5713 574.732C67.9592 573.797 68.2764 572.825 68.5161 571.822L69.4887 572.055ZM67.0322 577.981C66.4689 578.898 65.8354 579.768 65.1393 580.582L64.3792 579.932C65.0416 579.157 65.6442 578.33 66.1801 577.457L67.0322 577.981ZM62.8648 582.856C62.0505 583.552 61.181 584.186 60.2636 584.749L59.7403 583.897C60.6129 583.361 61.4402 582.759 62.215 582.096L62.8648 582.856ZM57.3981 586.212C56.4144 586.62 55.392 586.953 54.338 587.206L54.1054 586.233C55.1075 585.993 56.0796 585.676 57.015 585.288L57.3981 586.212ZM51.1602 587.706C50.6291 587.747 50.0923 587.768 49.5508 587.768H48.0024V586.768H49.5508C50.0665 586.768 50.5774 586.748 51.0828 586.708L51.1602 587.706ZM44.9055 587.768H41.8087V586.768H44.9055V587.768ZM38.7118 587.768H35.615V586.768H38.7118V587.768ZM32.5181 587.768H29.4213V586.768H32.5181V587.768ZM26.3245 587.768H23.2276V586.768H26.3245V587.768ZM20.1308 587.768H17.0339V586.768H20.1308V587.768ZM13.9371 587.768H10.8402V586.768H13.9371V587.768ZM7.7434 587.768H4.64656V586.768H7.7434V587.768ZM1.54971 587.768H0.001297V586.768H1.54971V587.768ZM64.8793 90.8054C65.1555 90.8054 65.3793 91.0293 65.3793 91.3054C65.3793 91.5816 65.1555 91.8054 64.8793 91.8054H61.7442C61.4681 91.8054 61.2442 91.5816 61.2442 91.3054C61.2442 91.0293 61.4681 90.8054 61.7442 90.8054H64.8793ZM58.6091 90.8054C58.8852 90.8054 59.1091 91.0293 59.1091 91.3054C59.1091 91.5816 58.8852 91.8054 58.6091 91.8054H55.4739C55.1978 91.8054 54.9739 91.5816 54.9739 91.3054C54.9739 91.0293 55.1978 90.8054 55.4739 90.8054H58.6091ZM52.3388 90.8054C52.6149 90.8054 52.8388 91.0293 52.8388 91.3054C52.8388 91.5816 52.6149 91.8054 52.3388 91.8054H49.2037C48.9275 91.8054 48.7037 91.5816 48.7037 91.3054C48.7037 91.0293 48.9275 90.8054 49.2037 90.8054H52.3388ZM46.0685 90.8054C46.3447 90.8054 46.5685 91.0293 46.5685 91.3054C46.5685 91.5816 46.3447 91.8054 46.0685 91.8054H44.501C44.2248 91.8054 44.001 91.5816 44.001 91.3054C44.001 91.0293 44.2248 90.8054 44.501 90.8054H46.0685ZM64.8793 392.805C65.1555 392.805 65.3793 393.029 65.3793 393.305C65.3793 393.582 65.1555 393.805 64.8793 393.805H61.7442C61.4681 393.805 61.2442 393.582 61.2442 393.305C61.2442 393.029 61.4681 392.805 61.7442 392.805H64.8793ZM58.6091 392.805C58.8852 392.805 59.1091 393.029 59.1091 393.305C59.1091 393.582 58.8852 393.805 58.6091 393.805H55.4739C55.1978 393.805 54.9739 393.582 54.9739 393.305C54.9739 393.029 55.1978 392.805 55.4739 392.805H58.6091ZM52.3388 392.805C52.6149 392.805 52.8388 393.029 52.8388 393.305C52.8388 393.582 52.6149 393.805 52.3388 393.805H49.2037C48.9275 393.805 48.7037 393.582 48.7037 393.305C48.7037 393.029 48.9275 392.805 49.2037 392.805H52.3388ZM46.0685 392.805C46.3447 392.805 46.5685 393.029 46.5685 393.305C46.5685 393.582 46.3447 393.805 46.0685 393.805H44.501C44.2248 393.805 44.001 393.582 44.001 393.305C44.001 393.029 44.2248 392.805 44.501 392.805H46.0685ZM65.3793 237.305C65.3793 237.029 65.1555 236.805 64.8793 236.805H61.7442C61.4681 236.805 61.2442 237.029 61.2442 237.305C61.2442 237.582 61.4681 237.805 61.7442 237.805H64.8793C65.1555 237.805 65.3793 237.582 65.3793 237.305ZM59.1091 237.305C59.1091 237.029 58.8852 236.805 58.6091 236.805H55.4739C55.1978 236.805 54.9739 237.029 54.9739 237.305C54.9739 237.582 55.1978 237.805 55.4739 237.805H58.6091C58.8852 237.805 59.1091 237.582 59.1091 237.305ZM52.8388 237.305C52.8388 237.029 52.6149 236.805 52.3388 236.805H49.2037C48.9275 236.805 48.7037 237.029 48.7037 237.305C48.7037 237.582 48.9275 237.805 49.2037 237.805H52.3388C52.6149 237.805 52.8388 237.582 52.8388 237.305ZM46.5685 237.305C46.5685 237.029 46.3447 236.805 46.0685 236.805H44.501C44.2248 236.805 44.001 237.029 44.001 237.305C44.001 237.582 44.2248 237.805 44.501 237.805H46.0685C46.3447 237.805 46.5685 237.582 46.5685 237.305Z" fill="#F88C28"/>
</svg>
