<svg width="188" height="188" viewBox="0 0 188 188" fill="none" xmlns="http://www.w3.org/2000/svg">
<path d="M7.52002 0H0V7.52002H7.52002V0Z" fill="#344351"/>
<path d="M7.52002 7.52051H0V15.0405H7.52002V7.52051Z" fill="#344351"/>
<path d="M7.52002 15.04H0V22.5601H7.52002V15.04Z" fill="#344351"/>
<path d="M7.52002 22.5605H0V30.0806H7.52002V22.5605Z" fill="#344351"/>
<path d="M7.52002 30.0801H0V37.6001H7.52002V30.0801Z" fill="#344351"/>
<path d="M7.52002 37.6006H0V45.1206H7.52002V37.6006Z" fill="#344351"/>
<path d="M7.52002 45.1201H0V52.6401H7.52002V45.1201Z" fill="#344351"/>
<path d="M7.52002 60.1602H0V67.6802H7.52002V60.1602Z" fill="#344351"/>
<path d="M7.52002 82.7197H0V90.2397H7.52002V82.7197Z" fill="#344351"/>
<path d="M7.52002 90.2402H0V97.7603H7.52002V90.2402Z" fill="#344351"/>
<path d="M7.52002 97.7607H0V105.281H7.52002V97.7607Z" fill="#344351"/>
<path d="M7.52002 105.28H0V112.8H7.52002V105.28Z" fill="#344351"/>
<path d="M7.52002 120.32H0V127.84H7.52002V120.32Z" fill="#344351"/>
<path d="M7.52002 135.359H0V142.879H7.52002V135.359Z" fill="#344351"/>
<path d="M7.52002 142.88H0V150.4H7.52002V142.88Z" fill="#344351"/>
<path d="M7.52002 150.4H0V157.92H7.52002V150.4Z" fill="#344351"/>
<path d="M7.52002 157.92H0V165.44H7.52002V157.92Z" fill="#344351"/>
<path d="M7.52002 165.44H0V172.96H7.52002V165.44Z" fill="#344351"/>
<path d="M7.52002 172.961H0V180.481H7.52002V172.961Z" fill="#344351"/>
<path d="M7.52002 180.48H0V188H7.52002V180.48Z" fill="#344351"/>
<path d="M15.0415 0H7.52148V7.52002H15.0415V0Z" fill="#344351"/>
<path d="M15.0415 45.1201H7.52148V52.6401H15.0415V45.1201Z" fill="#344351"/>
<path d="M15.0415 60.1602H7.52148V67.6802H15.0415V60.1602Z" fill="#344351"/>
<path d="M15.0415 67.6797H7.52148V75.1997H15.0415V67.6797Z" fill="#344351"/>
<path d="M15.0415 75.2002H7.52148V82.7202H15.0415V75.2002Z" fill="#344351"/>
<path d="M15.0415 90.2402H7.52148V97.7603H15.0415V90.2402Z" fill="#344351"/>
<path d="M15.0415 112.801H7.52148V120.321H15.0415V112.801Z" fill="#344351"/>
<path d="M15.0415 120.32H7.52148V127.84H15.0415V120.32Z" fill="#344351"/>
<path d="M15.0415 135.359H7.52148V142.879H15.0415V135.359Z" fill="#344351"/>
<path d="M15.0415 180.48H7.52148V188H15.0415V180.48Z" fill="#344351"/>
<path d="M22.5591 0H15.0391V7.52002H22.5591V0Z" fill="#344351"/>
<path d="M22.5591 15.04H15.0391V22.5601H22.5591V15.04Z" fill="#344351"/>
<path d="M22.5591 22.5605H15.0391V30.0806H22.5591V22.5605Z" fill="#344351"/>
<path d="M22.5591 30.0801H15.0391V37.6001H22.5591V30.0801Z" fill="#344351"/>
<path d="M22.5591 45.1201H15.0391V52.6401H22.5591V45.1201Z" fill="#344351"/>
<path d="M22.5591 60.1602H15.0391V67.6802H22.5591V60.1602Z" fill="#344351"/>
<path d="M22.5591 105.28H15.0391V112.8H22.5591V105.28Z" fill="#344351"/>
<path d="M22.5591 120.32H15.0391V127.84H22.5591V120.32Z" fill="#344351"/>
<path d="M22.5591 135.359H15.0391V142.879H22.5591V135.359Z" fill="#344351"/>
<path d="M22.5591 150.4H15.0391V157.92H22.5591V150.4Z" fill="#344351"/>
<path d="M22.5591 157.92H15.0391V165.44H22.5591V157.92Z" fill="#344351"/>
<path d="M22.5591 165.44H15.0391V172.96H22.5591V165.44Z" fill="#344351"/>
<path d="M22.5591 180.48H15.0391V188H22.5591V180.48Z" fill="#344351"/>
<path d="M30.0806 0H22.5605V7.52002H30.0806V0Z" fill="#344351"/>
<path d="M30.0806 15.04H22.5605V22.5601H30.0806V15.04Z" fill="#344351"/>
<path d="M30.0806 22.5605H22.5605V30.0806H30.0806V22.5605Z" fill="#344351"/>
<path d="M30.0806 30.0801H22.5605V37.6001H30.0806V30.0801Z" fill="#344351"/>
<path d="M30.0806 45.1201H22.5605V52.6401H30.0806V45.1201Z" fill="#344351"/>
<path d="M30.0806 60.1602H22.5605V67.6802H30.0806V60.1602Z" fill="#344351"/>
<path d="M30.0806 67.6797H22.5605V75.1997H30.0806V67.6797Z" fill="#344351"/>
<path d="M30.0806 75.2002H22.5605V82.7202H30.0806V75.2002Z" fill="#344351"/>
<path d="M30.0806 90.2402H22.5605V97.7603H30.0806V90.2402Z" fill="#344351"/>
<path d="M30.0806 97.7598H22.5605V105.28H30.0806V97.7598Z" fill="#344351"/>
<path d="M30.0806 120.32H22.5605V127.84H30.0806V120.32Z" fill="#344351"/>
<path d="M30.0806 135.359H22.5605V142.879H30.0806V135.359Z" fill="#344351"/>
<path d="M30.0806 150.4H22.5605V157.92H30.0806V150.4Z" fill="#344351"/>
<path d="M30.0806 157.92H22.5605V165.44H30.0806V157.92Z" fill="#344351"/>
<path d="M30.0806 165.44H22.5605V172.96H30.0806V165.44Z" fill="#344351"/>
<path d="M30.0806 180.48H22.5605V188H30.0806V180.48Z" fill="#344351"/>
<path d="M37.5981 0H30.0781V7.52002H37.5981V0Z" fill="#344351"/>
<path d="M37.5981 15.04H30.0781V22.5601H37.5981V15.04Z" fill="#344351"/>
<path d="M37.5981 22.5605H30.0781V30.0806H37.5981V22.5605Z" fill="#344351"/>
<path d="M37.5981 30.0801H30.0781V37.6001H37.5981V30.0801Z" fill="#344351"/>
<path d="M37.5981 45.1201H30.0781V52.6401H37.5981V45.1201Z" fill="#344351"/>
<path d="M37.5981 67.6797H30.0781V75.1997H37.5981V67.6797Z" fill="#344351"/>
<path d="M37.5981 82.7197H30.0781V90.2397H37.5981V82.7197Z" fill="#344351"/>
<path d="M37.5981 105.28H30.0781V112.8H37.5981V105.28Z" fill="#344351"/>
<path d="M37.5981 112.801H30.0781V120.321H37.5981V112.801Z" fill="#344351"/>
<path d="M37.5981 135.359H30.0781V142.879H37.5981V135.359Z" fill="#344351"/>
<path d="M37.5981 150.4H30.0781V157.92H37.5981V150.4Z" fill="#344351"/>
<path d="M37.5981 157.92H30.0781V165.44H37.5981V157.92Z" fill="#344351"/>
<path d="M37.5981 165.44H30.0781V172.96H37.5981V165.44Z" fill="#344351"/>
<path d="M37.5981 180.48H30.0781V188H37.5981V180.48Z" fill="#344351"/>
<path d="M45.1216 0H37.6016V7.52002H45.1216V0Z" fill="#344351"/>
<path d="M45.1216 45.1201H37.6016V52.6401H45.1216V45.1201Z" fill="#344351"/>
<path d="M45.1216 97.7598H37.6016V105.28H45.1216V97.7598Z" fill="#344351"/>
<path d="M45.1216 135.359H37.6016V142.879H45.1216V135.359Z" fill="#344351"/>
<path d="M45.1216 180.48H37.6016V188H45.1216V180.48Z" fill="#344351"/>
<path d="M52.6392 0H45.1191V7.52002H52.6392V0Z" fill="#344351"/>
<path d="M52.6392 7.52051H45.1191V15.0405H52.6392V7.52051Z" fill="#344351"/>
<path d="M52.6392 15.04H45.1191V22.5601H52.6392V15.04Z" fill="#344351"/>
<path d="M52.6392 22.5605H45.1191V30.0806H52.6392V22.5605Z" fill="#344351"/>
<path d="M52.6392 30.0801H45.1191V37.6001H52.6392V30.0801Z" fill="#344351"/>
<path d="M52.6392 37.5996H45.1191V45.1196H52.6392V37.5996Z" fill="#344351"/>
<path d="M52.6392 45.1201H45.1191V52.6401H52.6392V45.1201Z" fill="#344351"/>
<path d="M52.6392 60.1602H45.1191V67.6802H52.6392V60.1602Z" fill="#344351"/>
<path d="M52.6392 75.2002H45.1191V82.7202H52.6392V75.2002Z" fill="#344351"/>
<path d="M52.6392 90.2402H45.1191V97.7603H52.6392V90.2402Z" fill="#344351"/>
<path d="M52.6392 105.28H45.1191V112.8H52.6392V105.28Z" fill="#344351"/>
<path d="M52.6392 120.32H45.1191V127.84H52.6392V120.32Z" fill="#344351"/>
<path d="M52.6392 135.359H45.1191V142.879H52.6392V135.359Z" fill="#344351"/>
<path d="M52.6392 142.88H45.1191V150.4H52.6392V142.88Z" fill="#344351"/>
<path d="M52.6392 150.4H45.1191V157.92H52.6392V150.4Z" fill="#344351"/>
<path d="M52.6392 157.92H45.1191V165.44H52.6392V157.92Z" fill="#344351"/>
<path d="M52.6392 165.44H45.1191V172.96H52.6392V165.44Z" fill="#344351"/>
<path d="M52.6392 172.961H45.1191V180.481H52.6392V172.961Z" fill="#344351"/>
<path d="M52.6392 180.48H45.1191V188H52.6392V180.48Z" fill="#344351"/>
<path d="M60.1587 67.6797H52.6387V75.1997H60.1587V67.6797Z" fill="#344351"/>
<path d="M60.1587 75.2002H52.6387V82.7202H60.1587V75.2002Z" fill="#344351"/>
<path d="M60.1587 90.2402H52.6387V97.7603H60.1587V90.2402Z" fill="#344351"/>
<path d="M60.1587 97.7598H52.6387V105.28H60.1587V97.7598Z" fill="#344351"/>
<path d="M60.1587 112.801H52.6387V120.321H60.1587V112.801Z" fill="#344351"/>
<path d="M67.6782 0H60.1582V7.52002H67.6782V0Z" fill="#344351"/>
<path d="M67.6782 15.04H60.1582V22.5601H67.6782V15.04Z" fill="#344351"/>
<path d="M67.6782 22.5605H60.1582V30.0806H67.6782V22.5605Z" fill="#344351"/>
<path d="M67.6782 30.0801H60.1582V37.6001H67.6782V30.0801Z" fill="#344351"/>
<path d="M67.6782 45.1201H60.1582V52.6401H67.6782V45.1201Z" fill="#344351"/>
<path d="M67.6782 60.1602H60.1582V67.6802H67.6782V60.1602Z" fill="#344351"/>
<path d="M67.6782 67.6797H60.1582V75.1997H67.6782V67.6797Z" fill="#344351"/>
<path d="M67.6782 75.2002H60.1582V82.7202H67.6782V75.2002Z" fill="#344351"/>
<path d="M67.6782 82.7197H60.1582V90.2397H67.6782V82.7197Z" fill="#344351"/>
<path d="M67.6782 90.2402H60.1582V97.7603H67.6782V90.2402Z" fill="#344351"/>
<path d="M67.6782 97.7598H60.1582V105.28H67.6782V97.7598Z" fill="#344351"/>
<path d="M67.6782 112.801H60.1582V120.321H67.6782V112.801Z" fill="#344351"/>
<path d="M67.6782 120.32H60.1582V127.84H67.6782V120.32Z" fill="#344351"/>
<path d="M67.6782 127.84H60.1582V135.36H67.6782V127.84Z" fill="#344351"/>
<path d="M67.6782 157.92H60.1582V165.44H67.6782V157.92Z" fill="#344351"/>
<path d="M67.6782 165.44H60.1582V172.96H67.6782V165.44Z" fill="#344351"/>
<path d="M67.6782 172.961H60.1582V180.481H67.6782V172.961Z" fill="#344351"/>
<path d="M67.6782 180.48H60.1582V188H67.6782V180.48Z" fill="#344351"/>
<path d="M75.1997 7.52051H67.6797V15.0405H75.1997V7.52051Z" fill="#344351"/>
<path d="M75.1997 15.04H67.6797V22.5601H75.1997V15.04Z" fill="#344351"/>
<path d="M75.1997 22.5605H67.6797V30.0806H75.1997V22.5605Z" fill="#344351"/>
<path d="M75.1997 75.2002H67.6797V82.7202H75.1997V75.2002Z" fill="#344351"/>
<path d="M75.1997 82.7197H67.6797V90.2397H75.1997V82.7197Z" fill="#344351"/>
<path d="M75.1997 90.2402H67.6797V97.7603H75.1997V90.2402Z" fill="#344351"/>
<path d="M75.1997 105.28H67.6797V112.8H75.1997V105.28Z" fill="#344351"/>
<path d="M75.1997 112.801H67.6797V120.321H75.1997V112.801Z" fill="#344351"/>
<path d="M75.1997 127.84H67.6797V135.36H75.1997V127.84Z" fill="#344351"/>
<path d="M75.1997 157.92H67.6797V165.44H75.1997V157.92Z" fill="#344351"/>
<path d="M75.1997 180.48H67.6797V188H75.1997V180.48Z" fill="#344351"/>
<path d="M82.7192 0H75.1992V7.52002H82.7192V0Z" fill="#344351"/>
<path d="M82.7192 7.52051H75.1992V15.0405H82.7192V7.52051Z" fill="#344351"/>
<path d="M82.7192 15.04H75.1992V22.5601H82.7192V15.04Z" fill="#344351"/>
<path d="M82.7192 22.5605H75.1992V30.0806H82.7192V22.5605Z" fill="#344351"/>
<path d="M82.7192 37.6006H75.1992V45.1206H82.7192V37.6006Z" fill="#344351"/>
<path d="M82.7192 45.1201H75.1992V52.6401H82.7192V45.1201Z" fill="#344351"/>
<path d="M82.7192 52.6406H75.1992V60.1606H82.7192V52.6406Z" fill="#344351"/>
<path d="M82.7192 60.1602H75.1992V67.6802H82.7192V60.1602Z" fill="#344351"/>
<path d="M82.7192 67.6797H75.1992V75.1997H82.7192V67.6797Z" fill="#344351"/>
<path d="M82.7192 75.2002H75.1992V82.7202H82.7192V75.2002Z" fill="#344351"/>
<path d="M82.7192 82.7197H75.1992V90.2397H82.7192V82.7197Z" fill="#344351"/>
<path d="M82.7192 90.2402H75.1992V97.7603H82.7192V90.2402Z" fill="#344351"/>
<path d="M82.7192 105.28H75.1992V112.8H82.7192V105.28Z" fill="#344351"/>
<path d="M82.7192 112.801H75.1992V120.321H82.7192V112.801Z" fill="#344351"/>
<path d="M82.7192 120.32H75.1992V127.84H82.7192V120.32Z" fill="#344351"/>
<path d="M82.7192 127.84H75.1992V135.36H82.7192V127.84Z" fill="#344351"/>
<path d="M82.7192 150.4H75.1992V157.92H82.7192V150.4Z" fill="#344351"/>
<path d="M82.7192 165.44H75.1992V172.96H82.7192V165.44Z" fill="#344351"/>
<path d="M90.2388 7.52051H82.7188V15.0405H90.2388V7.52051Z" fill="#344351"/>
<path d="M90.2388 30.0801H82.7188V37.6001H90.2388V30.0801Z" fill="#344351"/>
<path d="M90.2388 37.6006H82.7188V45.1206H90.2388V37.6006Z" fill="#344351"/>
<path d="M90.2388 60.1602H82.7188V67.6802H90.2388V60.1602Z" fill="#344351"/>
<path d="M90.2388 75.2002H82.7188V82.7202H90.2388V75.2002Z" fill="#344351"/>
<path d="M90.2388 97.7607H82.7188V105.281H90.2388V97.7607Z" fill="#344351"/>
<path d="M90.2388 105.28H82.7188V112.8H90.2388V105.28Z" fill="#344351"/>
<path d="M90.2388 112.801H82.7188V120.321H90.2388V112.801Z" fill="#344351"/>
<path d="M90.2388 142.88H82.7188V150.4H90.2388V142.88Z" fill="#344351"/>
<path d="M90.2388 157.92H82.7188V165.44H90.2388V157.92Z" fill="#344351"/>
<path d="M90.2388 165.44H82.7188V172.96H90.2388V165.44Z" fill="#344351"/>
<path d="M97.7603 0H90.2402V7.52002H97.7603V0Z" fill="#344351"/>
<path d="M97.7603 7.51953H90.2402V15.0395H97.7603V7.51953Z" fill="#344351"/>
<path d="M97.7603 22.5605H90.2402V30.0806H97.7603V22.5605Z" fill="#344351"/>
<path d="M97.7603 30.0801H90.2402V37.6001H97.7603V30.0801Z" fill="#344351"/>
<path d="M97.7603 45.1191H90.2402V52.6392H97.7603V45.1191Z" fill="#344351"/>
<path d="M97.7603 52.6406H90.2402V60.1606H97.7603V52.6406Z" fill="#344351"/>
<path d="M97.7603 60.1602H90.2402V67.6802H97.7603V60.1602Z" fill="#344351"/>
<path d="M97.7603 67.6797H90.2402V75.1997H97.7603V67.6797Z" fill="#344351"/>
<path d="M97.7603 75.1992H90.2402V82.7192H97.7603V75.1992Z" fill="#344351"/>
<path d="M97.7603 90.2402H90.2402V97.7603H97.7603V90.2402Z" fill="#344351"/>
<path d="M97.7603 97.7607H90.2402V105.281H97.7603V97.7607Z" fill="#344351"/>
<path d="M97.7603 150.4H90.2402V157.92H97.7603V150.4Z" fill="#344351"/>
<path d="M97.7603 157.92H90.2402V165.44H97.7603V157.92Z" fill="#344351"/>
<path d="M97.7603 165.44H90.2402V172.96H97.7603V165.44Z" fill="#344351"/>
<path d="M105.28 15.0391H97.7598V22.5591H105.28V15.0391Z" fill="#344351"/>
<path d="M105.28 22.5605H97.7598V30.0806H105.28V22.5605Z" fill="#344351"/>
<path d="M105.28 67.6797H97.7598V75.1997H105.28V67.6797Z" fill="#344351"/>
<path d="M105.28 82.7197H97.7598V90.2397H105.28V82.7197Z" fill="#344351"/>
<path d="M105.28 90.2402H97.7598V97.7603H105.28V90.2402Z" fill="#344351"/>
<path d="M105.28 120.32H97.7598V127.84H105.28V120.32Z" fill="#344351"/>
<path d="M105.28 127.84H97.7598V135.36H105.28V127.84Z" fill="#344351"/>
<path d="M105.28 172.961H97.7598V180.481H105.28V172.961Z" fill="#344351"/>
<path d="M105.28 180.48H97.7598V188H105.28V180.48Z" fill="#344351"/>
<path d="M112.801 0H105.281V7.52002H112.801V0Z" fill="#344351"/>
<path d="M112.801 15.0391H105.281V22.5591H112.801V15.0391Z" fill="#344351"/>
<path d="M112.801 45.1191H105.281V52.6392H112.801V45.1191Z" fill="#344351"/>
<path d="M112.801 52.6396H105.281V60.1597H112.801V52.6396Z" fill="#344351"/>
<path d="M112.801 67.6797H105.281V75.1997H112.801V67.6797Z" fill="#344351"/>
<path d="M112.801 75.1992H105.281V82.7192H112.801V75.1992Z" fill="#344351"/>
<path d="M112.801 105.28H105.281V112.8H112.801V105.28Z" fill="#344351"/>
<path d="M112.801 120.32H105.281V127.84H112.801V120.32Z" fill="#344351"/>
<path d="M112.801 127.84H105.281V135.36H112.801V127.84Z" fill="#344351"/>
<path d="M112.801 142.881H105.281V150.401H112.801V142.881Z" fill="#344351"/>
<path d="M112.801 157.92H105.281V165.44H112.801V157.92Z" fill="#344351"/>
<path d="M112.801 165.44H105.281V172.96H112.801V165.44Z" fill="#344351"/>
<path d="M112.801 172.961H105.281V180.481H112.801V172.961Z" fill="#344351"/>
<path d="M120.321 30.0801H112.801V37.6001H120.321V30.0801Z" fill="#344351"/>
<path d="M120.321 82.7197H112.801V90.2397H120.321V82.7197Z" fill="#344351"/>
<path d="M120.321 90.2402H112.801V97.7603H120.321V90.2402Z" fill="#344351"/>
<path d="M120.321 97.7598H112.801V105.28H120.321V97.7598Z" fill="#344351"/>
<path d="M120.321 120.32H112.801V127.84H120.321V120.32Z" fill="#344351"/>
<path d="M120.321 165.44H112.801V172.96H120.321V165.44Z" fill="#344351"/>
<path d="M127.84 7.51953H120.32V15.0395H127.84V7.51953Z" fill="#344351"/>
<path d="M127.84 15.0391H120.32V22.5591H127.84V15.0391Z" fill="#344351"/>
<path d="M127.84 22.5605H120.32V30.0806H127.84V22.5605Z" fill="#344351"/>
<path d="M127.84 37.5996H120.32V45.1196H127.84V37.5996Z" fill="#344351"/>
<path d="M127.84 45.1191H120.32V52.6392H127.84V45.1191Z" fill="#344351"/>
<path d="M127.84 52.6396H120.32V60.1597H127.84V52.6396Z" fill="#344351"/>
<path d="M127.84 75.1992H120.32V82.7192H127.84V75.1992Z" fill="#344351"/>
<path d="M127.84 90.2402H120.32V97.7603H127.84V90.2402Z" fill="#344351"/>
<path d="M127.84 112.801H120.32V120.321H127.84V112.801Z" fill="#344351"/>
<path d="M127.84 120.32H120.32V127.84H127.84V120.32Z" fill="#344351"/>
<path d="M127.84 127.84H120.32V135.36H127.84V127.84Z" fill="#344351"/>
<path d="M127.84 135.359H120.32V142.879H127.84V135.359Z" fill="#344351"/>
<path d="M127.84 142.881H120.32V150.401H127.84V142.881Z" fill="#344351"/>
<path d="M127.84 150.4H120.32V157.92H127.84V150.4Z" fill="#344351"/>
<path d="M135.36 60.1602H127.84V67.6802H135.36V60.1602Z" fill="#344351"/>
<path d="M135.36 75.1992H127.84V82.7192H135.36V75.1992Z" fill="#344351"/>
<path d="M135.36 82.7197H127.84V90.2397H135.36V82.7197Z" fill="#344351"/>
<path d="M135.36 97.7598H127.84V105.28H135.36V97.7598Z" fill="#344351"/>
<path d="M135.36 105.28H127.84V112.8H135.36V105.28Z" fill="#344351"/>
<path d="M135.36 120.32H127.84V127.84H135.36V120.32Z" fill="#344351"/>
<path d="M135.36 150.4H127.84V157.92H135.36V150.4Z" fill="#344351"/>
<path d="M135.36 157.92H127.84V165.44H135.36V157.92Z" fill="#344351"/>
<path d="M135.36 165.44H127.84V172.96H135.36V165.44Z" fill="#344351"/>
<path d="M135.36 172.961H127.84V180.481H135.36V172.961Z" fill="#344351"/>
<path d="M135.36 180.48H127.84V188H135.36V180.48Z" fill="#344351"/>
<path d="M142.877 0H135.357V7.52002H142.877V0Z" fill="#344351"/>
<path d="M142.877 7.51953H135.357V15.0395H142.877V7.51953Z" fill="#344351"/>
<path d="M142.877 15.0391H135.357V22.5591H142.877V15.0391Z" fill="#344351"/>
<path d="M142.877 22.5605H135.357V30.0806H142.877V22.5605Z" fill="#344351"/>
<path d="M142.877 30.0801H135.357V37.6001H142.877V30.0801Z" fill="#344351"/>
<path d="M142.877 37.5996H135.357V45.1196H142.877V37.5996Z" fill="#344351"/>
<path d="M142.877 45.1191H135.357V52.6392H142.877V45.1191Z" fill="#344351"/>
<path d="M142.877 90.2402H135.357V97.7603H142.877V90.2402Z" fill="#344351"/>
<path d="M142.877 97.7598H135.357V105.28H142.877V97.7598Z" fill="#344351"/>
<path d="M142.877 105.28H135.357V112.8H142.877V105.28Z" fill="#344351"/>
<path d="M142.877 120.32H135.357V127.84H142.877V120.32Z" fill="#344351"/>
<path d="M142.877 135.359H135.357V142.879H142.877V135.359Z" fill="#344351"/>
<path d="M142.877 150.4H135.357V157.92H142.877V150.4Z" fill="#344351"/>
<path d="M142.877 157.92H135.357V165.44H142.877V157.92Z" fill="#344351"/>
<path d="M142.877 165.44H135.357V172.96H142.877V165.44Z" fill="#344351"/>
<path d="M142.877 172.961H135.357V180.481H142.877V172.961Z" fill="#344351"/>
<path d="M142.877 180.48H135.357V188H142.877V180.48Z" fill="#344351"/>
<path d="M150.399 0H142.879V7.52002H150.399V0Z" fill="#344351"/>
<path d="M150.399 45.1191H142.879V52.6392H150.399V45.1191Z" fill="#344351"/>
<path d="M150.399 67.6797H142.879V75.1997H150.399V67.6797Z" fill="#344351"/>
<path d="M150.399 75.1992H142.879V82.7192H150.399V75.1992Z" fill="#344351"/>
<path d="M150.399 90.2402H142.879V97.7603H150.399V90.2402Z" fill="#344351"/>
<path d="M150.399 97.7598H142.879V105.28H150.399V97.7598Z" fill="#344351"/>
<path d="M150.399 112.801H142.879V120.321H150.399V112.801Z" fill="#344351"/>
<path d="M150.399 120.32H142.879V127.84H150.399V120.32Z" fill="#344351"/>
<path d="M150.399 150.4H142.879V157.92H150.399V150.4Z" fill="#344351"/>
<path d="M150.399 180.48H142.879V188H150.399V180.48Z" fill="#344351"/>
<path d="M157.918 0H150.398V7.52002H157.918V0Z" fill="#344351"/>
<path d="M157.918 15.0391H150.398V22.5591H157.918V15.0391Z" fill="#344351"/>
<path d="M157.918 22.5605H150.398V30.0806H157.918V22.5605Z" fill="#344351"/>
<path d="M157.918 30.0801H150.398V37.6001H157.918V30.0801Z" fill="#344351"/>
<path d="M157.918 45.1191H150.398V52.6392H157.918V45.1191Z" fill="#344351"/>
<path d="M157.918 60.1602H150.398V67.6802H157.918V60.1602Z" fill="#344351"/>
<path d="M157.918 90.2402H150.398V97.7603H157.918V90.2402Z" fill="#344351"/>
<path d="M157.918 97.7598H150.398V105.28H157.918V97.7598Z" fill="#344351"/>
<path d="M157.918 105.28H150.398V112.8H157.918V105.28Z" fill="#344351"/>
<path d="M157.918 112.801H150.398V120.321H157.918V112.801Z" fill="#344351"/>
<path d="M157.918 120.32H150.398V127.84H157.918V120.32Z" fill="#344351"/>
<path d="M157.918 127.84H150.398V135.36H157.918V127.84Z" fill="#344351"/>
<path d="M157.918 135.359H150.398V142.879H157.918V135.359Z" fill="#344351"/>
<path d="M157.918 142.881H150.398V150.401H157.918V142.881Z" fill="#344351"/>
<path d="M157.918 150.4H150.398V157.92H157.918V150.4Z" fill="#344351"/>
<path d="M157.918 157.92H150.398V165.44H157.918V157.92Z" fill="#344351"/>
<path d="M157.918 165.44H150.398V172.96H157.918V165.44Z" fill="#344351"/>
<path d="M157.918 172.961H150.398V180.481H157.918V172.961Z" fill="#344351"/>
<path d="M157.918 180.48H150.398V188H157.918V180.48Z" fill="#344351"/>
<path d="M165.442 0H157.922V7.52002H165.442V0Z" fill="#344351"/>
<path d="M165.442 15.0391H157.922V22.5591H165.442V15.0391Z" fill="#344351"/>
<path d="M165.442 22.5605H157.922V30.0806H165.442V22.5605Z" fill="#344351"/>
<path d="M165.442 30.0801H157.922V37.6001H165.442V30.0801Z" fill="#344351"/>
<path d="M165.442 45.1191H157.922V52.6392H165.442V45.1191Z" fill="#344351"/>
<path d="M165.442 60.1602H157.922V67.6802H165.442V60.1602Z" fill="#344351"/>
<path d="M165.442 82.7197H157.922V90.2397H165.442V82.7197Z" fill="#344351"/>
<path d="M165.442 120.32H157.922V127.84H165.442V120.32Z" fill="#344351"/>
<path d="M165.442 150.4H157.922V157.92H165.442V150.4Z" fill="#344351"/>
<path d="M165.442 157.92H157.922V165.44H165.442V157.92Z" fill="#344351"/>
<path d="M165.442 180.48H157.922V188H165.442V180.48Z" fill="#344351"/>
<path d="M172.959 0H165.439V7.52002H172.959V0Z" fill="#344351"/>
<path d="M172.959 15.0391H165.439V22.5591H172.959V15.0391Z" fill="#344351"/>
<path d="M172.959 22.5605H165.439V30.0806H172.959V22.5605Z" fill="#344351"/>
<path d="M172.959 30.0801H165.439V37.6001H172.959V30.0801Z" fill="#344351"/>
<path d="M172.959 45.1191H165.439V52.6392H172.959V45.1191Z" fill="#344351"/>
<path d="M172.959 60.1602H165.439V67.6802H172.959V60.1602Z" fill="#344351"/>
<path d="M172.959 82.7197H165.439V90.2397H172.959V82.7197Z" fill="#344351"/>
<path d="M172.959 90.2402H165.439V97.7603H172.959V90.2402Z" fill="#344351"/>
<path d="M172.959 105.28H165.439V112.8H172.959V105.28Z" fill="#344351"/>
<path d="M172.959 120.32H165.439V127.84H172.959V120.32Z" fill="#344351"/>
<path d="M172.959 127.84H165.439V135.36H172.959V127.84Z" fill="#344351"/>
<path d="M172.959 135.359H165.439V142.879H172.959V135.359Z" fill="#344351"/>
<path d="M172.959 157.92H165.439V165.44H172.959V157.92Z" fill="#344351"/>
<path d="M172.959 165.44H165.439V172.96H172.959V165.44Z" fill="#344351"/>
<path d="M172.959 172.961H165.439V180.481H172.959V172.961Z" fill="#344351"/>
<path d="M172.959 180.48H165.439V188H172.959V180.48Z" fill="#344351"/>
<path d="M180.481 0H172.961V7.52002H180.481V0Z" fill="#344351"/>
<path d="M180.481 45.1191H172.961V52.6392H180.481V45.1191Z" fill="#344351"/>
<path d="M180.481 67.6797H172.961V75.1997H180.481V67.6797Z" fill="#344351"/>
<path d="M180.481 90.2402H172.961V97.7603H180.481V90.2402Z" fill="#344351"/>
<path d="M180.481 105.28H172.961V112.8H180.481V105.28Z" fill="#344351"/>
<path d="M180.481 120.32H172.961V127.84H180.481V120.32Z" fill="#344351"/>
<path d="M180.481 135.359H172.961V142.879H180.481V135.359Z" fill="#344351"/>
<path d="M180.481 157.92H172.961V165.44H180.481V157.92Z" fill="#344351"/>
<path d="M180.481 165.44H172.961V172.96H180.481V165.44Z" fill="#344351"/>
<path d="M180.481 180.48H172.961V188H180.481V180.48Z" fill="#344351"/>
<path d="M187.999 0H180.479V7.52002H187.999V0Z" fill="#344351"/>
<path d="M187.999 7.52051H180.479V15.0405H187.999V7.52051Z" fill="#344351"/>
<path d="M187.999 15.0391H180.479V22.5591H187.999V15.0391Z" fill="#344351"/>
<path d="M187.999 22.5605H180.479V30.0806H187.999V22.5605Z" fill="#344351"/>
<path d="M187.999 30.0801H180.479V37.6001H187.999V30.0801Z" fill="#344351"/>
<path d="M187.999 37.5996H180.479V45.1196H187.999V37.5996Z" fill="#344351"/>
<path d="M187.999 45.1191H180.479V52.6392H187.999V45.1191Z" fill="#344351"/>
<path d="M187.999 60.1602H180.479V67.6802H187.999V60.1602Z" fill="#344351"/>
<path d="M187.999 90.2402H180.479V97.7603H187.999V90.2402Z" fill="#344351"/>
<path d="M187.999 97.7598H180.479V105.28H187.999V97.7598Z" fill="#344351"/>
<path d="M187.999 112.801H180.479V120.321H187.999V112.801Z" fill="#344351"/>
<path d="M187.999 120.32H180.479V127.84H187.999V120.32Z" fill="#344351"/>
<path d="M187.999 127.84H180.479V135.36H187.999V127.84Z" fill="#344351"/>
<path d="M187.999 135.359H180.479V142.879H187.999V135.359Z" fill="#344351"/>
<path d="M187.999 150.4H180.479V157.92H187.999V150.4Z" fill="#344351"/>
<path d="M187.999 157.92H180.479V165.44H187.999V157.92Z" fill="#344351"/>
<path d="M187.999 180.48H180.479V188H187.999V180.48Z" fill="#344351"/>
</svg>
