<svg width="290" height="441" viewBox="0 0 290 441" fill="none" xmlns="http://www.w3.org/2000/svg">
<rect x="0.5" y="0.5" width="289" height="91" rx="3.5" fill="white" stroke="#344351"/>
<g clip-path="url(#clip0_7265_45647)">
<path d="M203.704 54.1826V60.6631H197.522V54.1826H193.227V71.0777H197.522V64.3752H203.704V71.0777H208V54.1826H203.704Z" fill="#2B8FEB"/>
<path d="M184.61 54.2447C183.268 54.0072 181.889 54.1144 180.596 54.557C178.706 55.2141 177.114 56.5642 176.116 58.3535C175.119 60.1428 174.787 62.2481 175.181 64.2737C175.576 66.2994 176.67 68.1059 178.258 69.3539C179.847 70.6018 181.82 71.2052 183.807 71.0506C185.794 70.8961 187.659 69.9942 189.05 68.5146C190.441 67.0349 191.263 65.0793 191.362 63.0153C191.46 60.9513 190.829 58.9209 189.585 57.3059C188.342 55.6909 186.573 54.6023 184.61 54.2447ZM184.289 67.1016C183.156 67.3717 181.967 67.1752 180.972 66.5534C179.976 65.9316 179.252 64.9332 178.953 63.7687C178.654 62.6043 178.802 61.3647 179.367 60.3115C179.932 59.2583 180.869 58.4738 181.981 58.1233C182.771 57.898 183.606 57.898 184.396 58.1233C185.363 58.3869 186.218 58.9782 186.823 59.8032C187.429 60.6283 187.752 61.6397 187.739 62.6766C187.727 63.7136 187.381 64.7165 186.756 65.5258C186.13 66.3352 185.262 66.9045 184.289 67.1433V67.1016Z" fill="#2B8FEB"/>
<path d="M145.327 53.3633V57.8871C146.343 58.4003 147.162 59.2556 147.649 60.3134C148.136 61.3712 148.263 62.569 148.009 63.7113C147.755 64.8536 147.136 65.8729 146.251 66.6028C145.366 67.3328 144.269 67.7301 143.139 67.7301C142.009 67.7301 140.912 67.3328 140.027 66.6028C139.142 65.8729 138.523 64.8536 138.269 63.7113C138.015 62.569 138.142 61.3712 138.629 60.3134C139.116 59.2556 139.935 58.4003 140.951 57.8871V53.3633C138.788 53.9175 136.896 55.2736 135.631 57.1755C134.367 59.0774 133.817 61.3936 134.086 63.687C134.356 65.9803 135.425 68.0921 137.093 69.6238C138.761 71.1556 140.911 72.0012 143.139 72.0012C145.367 72.0012 147.518 71.1556 149.185 69.6238C150.853 68.0921 151.922 65.9803 152.192 63.687C152.461 61.3936 151.911 59.0774 150.647 57.1755C149.382 55.2736 147.49 53.9175 145.327 53.3633Z" fill="#2B8FEB"/>
<path d="M140.364 63.0352C140.458 63.5681 140.69 64.0646 141.034 64.4721C141.378 64.8796 141.823 65.183 142.32 65.3501C142.817 65.5172 143.348 65.5418 143.857 65.4213C144.367 65.3009 144.835 65.0398 145.213 64.6658C145.591 64.2918 145.865 63.8187 146.004 63.2967C146.144 62.7747 146.146 62.2231 146.008 61.7005C145.87 61.1778 145.599 60.7035 145.222 60.3278C144.846 59.952 144.379 59.6888 143.87 59.566V53.0786H142.532V59.5383C141.809 59.7174 141.181 60.1773 140.777 60.8228C140.372 61.4684 140.222 62.2504 140.357 63.0075L140.364 63.0352Z" fill="#2B8FEB"/>
<path d="M165.459 55.4385V54.1826H161.351V55.4385C160.997 55.494 160.682 55.5564 160.307 55.6466C156.46 56.6111 153.684 59.324 153.684 62.5157C153.684 65.9849 156.969 68.899 161.351 69.5998V71.0777H165.459V69.5998C169.842 68.9059 173.127 65.9987 173.127 62.5157C173.127 59.0326 169.842 56.1462 165.459 55.4385ZM158.099 62.5157C158.099 60.8643 159.438 59.4558 161.371 58.8522V66.1861C159.431 65.5824 158.079 64.167 158.079 62.5157H158.099ZM165.459 66.1861V58.8522C167.38 59.4558 168.731 60.8643 168.731 62.5157C168.731 64.167 167.38 65.5824 165.459 66.1861Z" fill="#2B8FEB"/>
<path d="M92.297 48H82C82 49.8317 83.2712 50.8448 84.9172 51.3998V67.3582C83.2645 67.8716 82 68.9124 82 71.0772H91.4808C94.2106 71.0772 96.1108 70.7303 97.188 70.0225C98.8607 68.9193 99.2688 67.2472 99.2688 65.0269V54.3695C99.2688 50.0815 97.2683 48 92.297 48ZM94.4247 64.3608C94.4247 66.1162 93.4077 66.9974 91.3537 66.9974C90.7649 66.9974 90.0155 66.9627 89.2528 66.9488V52.059C90.1025 52.0937 90.8652 52.059 91.4139 52.059C93.4702 52.059 94.4961 52.9841 94.4916 54.8343C94.4916 56.7077 94.4247 62.5707 94.4247 64.3608Z" fill="#2B8FEB"/>
<path d="M109.257 54.2793C103.871 54.2793 101.402 58.7823 101.402 62.8621C101.402 67.8925 104.42 71.0495 109.685 71.0495C111.602 71.0942 113.509 70.7501 115.299 70.0365V66.6436C113.702 67.1272 112.045 67.361 110.381 67.3374C108.133 67.3374 106.133 66.3521 106.006 64.2776H116.015C116.124 63.6245 116.177 62.9628 116.175 62.3001C116.175 58.3244 114.275 54.2793 109.257 54.2793ZM105.992 60.8569C106.119 59.5386 106.942 57.5959 108.976 57.5959C111.198 57.5959 111.706 59.6358 111.706 60.8569H105.992Z" fill="#2B8FEB"/>
<path d="M124.632 54.4873C122.624 55.0494 119.446 56.9297 119.446 60.5862V65.6166C119.446 67.9132 118.938 67.9063 118.068 68.7874C117.787 69.0644 117.567 69.4014 117.424 69.7752C117.28 70.149 117.217 70.5506 117.238 70.9522H121.561C123.16 70.9522 123.983 68.5654 123.983 65.6304V60.947C123.981 60.1549 124.282 59.3943 124.819 58.8308C125.462 58.2069 126.29 57.8277 127.167 57.7553H127.368V70.9383H131.998V54.2861H125.642C125.298 54.308 124.959 54.3756 124.632 54.4873Z" fill="#2B8FEB"/>
</g>
<path d="M112.09 36V26.907H108.569V25.92H116.64V26.907H113.119V36H112.09ZM119.977 36.21C119.24 36.21 118.6 36.0467 118.059 35.72C117.522 35.3933 117.105 34.9337 116.806 34.341C116.507 33.7483 116.358 33.053 116.358 32.255C116.358 31.429 116.505 30.715 116.799 30.113C117.093 29.511 117.506 29.0467 118.038 28.72C118.575 28.3933 119.207 28.23 119.935 28.23C120.682 28.23 121.319 28.4027 121.846 28.748C122.373 29.0887 122.772 29.5787 123.043 30.218C123.314 30.8573 123.437 31.6203 123.414 32.507H122.364V32.143C122.345 31.163 122.133 30.4233 121.727 29.924C121.326 29.4247 120.738 29.175 119.963 29.175C119.151 29.175 118.528 29.4387 118.094 29.966C117.665 30.4933 117.45 31.2447 117.45 32.22C117.45 33.172 117.665 33.9117 118.094 34.439C118.528 34.9617 119.142 35.223 119.935 35.223C120.476 35.223 120.948 35.0993 121.349 34.852C121.755 34.6 122.075 34.2383 122.308 33.767L123.267 34.138C122.968 34.796 122.527 35.307 121.944 35.671C121.365 36.0303 120.71 36.21 119.977 36.21ZM117.086 32.507V31.646H122.861V32.507H117.086ZM124.267 36V35.097C124.547 35.1483 124.76 35.1367 124.904 35.062C125.054 34.9827 125.163 34.852 125.233 34.67C125.303 34.4833 125.362 34.2523 125.408 33.977C125.483 33.5197 125.551 33.0157 125.611 32.465C125.672 31.9143 125.726 31.3077 125.772 30.645C125.824 29.9777 125.875 29.2427 125.926 28.44H131.064V36H130.042V29.427H126.878C126.846 29.9217 126.808 30.414 126.766 30.904C126.724 31.394 126.68 31.8653 126.633 32.318C126.591 32.766 126.545 33.179 126.493 33.557C126.442 33.935 126.388 34.2617 126.332 34.537C126.248 34.9523 126.136 35.2837 125.996 35.531C125.861 35.7783 125.658 35.9417 125.387 36.021C125.117 36.1003 124.743 36.0933 124.267 36ZM136.219 36.21C135.482 36.21 134.842 36.0467 134.301 35.72C133.764 35.3933 133.347 34.9337 133.048 34.341C132.749 33.7483 132.6 33.053 132.6 32.255C132.6 31.429 132.747 30.715 133.041 30.113C133.335 29.511 133.748 29.0467 134.28 28.72C134.817 28.3933 135.449 28.23 136.177 28.23C136.924 28.23 137.561 28.4027 138.088 28.748C138.615 29.0887 139.014 29.5787 139.285 30.218C139.556 30.8573 139.679 31.6203 139.656 32.507H138.606V32.143C138.587 31.163 138.375 30.4233 137.969 29.924C137.568 29.4247 136.98 29.175 136.205 29.175C135.393 29.175 134.77 29.4387 134.336 29.966C133.907 30.4933 133.692 31.2447 133.692 32.22C133.692 33.172 133.907 33.9117 134.336 34.439C134.77 34.9617 135.384 35.223 136.177 35.223C136.718 35.223 137.19 35.0993 137.591 34.852C137.997 34.6 138.317 34.2383 138.55 33.767L139.509 34.138C139.21 34.796 138.769 35.307 138.186 35.671C137.607 36.0303 136.952 36.21 136.219 36.21ZM133.328 32.507V31.646H139.103V32.507H133.328ZM144.793 39.15V36.147C144.056 36.2637 143.384 36.1843 142.777 35.909C142.171 35.629 141.688 35.1763 141.328 34.551C140.969 33.9257 140.789 33.151 140.789 32.227C140.789 31.303 140.969 30.5283 141.328 29.903C141.688 29.273 142.171 28.818 142.777 28.538C143.384 28.258 144.056 28.1763 144.793 28.293V25.976H145.745V28.293C146.483 28.1763 147.155 28.258 147.761 28.538C148.368 28.818 148.851 29.273 149.21 29.903C149.57 30.5283 149.749 31.303 149.749 32.227C149.749 33.151 149.57 33.9257 149.21 34.551C148.851 35.1763 148.368 35.629 147.761 35.909C147.155 36.1843 146.483 36.2637 145.745 36.147V39.15H144.793ZM144.793 35.188V29.259C144.415 29.1937 144.051 29.2053 143.701 29.294C143.351 29.378 143.036 29.5437 142.756 29.791C142.476 30.0337 142.255 30.358 142.091 30.764C141.933 31.1653 141.853 31.653 141.853 32.227C141.853 32.801 141.935 33.291 142.098 33.697C142.262 34.0983 142.483 34.4203 142.763 34.663C143.043 34.9057 143.358 35.069 143.708 35.153C144.058 35.237 144.42 35.2487 144.793 35.188ZM145.745 35.188C146.119 35.2487 146.48 35.237 146.83 35.153C147.18 35.069 147.495 34.908 147.775 34.67C148.055 34.4273 148.277 34.1053 148.44 33.704C148.604 33.298 148.685 32.8057 148.685 32.227C148.685 31.6483 148.604 31.1583 148.44 30.757C148.282 30.351 148.062 30.0267 147.782 29.784C147.502 29.5413 147.187 29.378 146.837 29.294C146.487 29.2053 146.123 29.1937 145.745 29.259V35.188ZM154.443 36.21C153.691 36.21 153.05 36.0397 152.518 35.699C151.986 35.3583 151.577 34.887 151.293 34.285C151.008 33.683 150.866 32.9923 150.866 32.213C150.866 31.4197 151.01 30.7243 151.3 30.127C151.589 29.5297 152 29.0653 152.532 28.734C153.068 28.398 153.705 28.23 154.443 28.23C155.199 28.23 155.843 28.4003 156.375 28.741C156.911 29.077 157.32 29.546 157.6 30.148C157.884 30.7453 158.027 31.4337 158.027 32.213C158.027 33.0063 157.884 33.704 157.6 34.306C157.315 34.9033 156.904 35.37 156.368 35.706C155.831 36.042 155.189 36.21 154.443 36.21ZM154.443 35.223C155.283 35.223 155.908 34.9453 156.319 34.39C156.729 33.83 156.935 33.1043 156.935 32.213C156.935 31.2983 156.727 30.5703 156.312 30.029C155.901 29.4877 155.278 29.217 154.443 29.217C153.878 29.217 153.411 29.3453 153.043 29.602C152.679 29.854 152.406 30.2063 152.224 30.659C152.046 31.107 151.958 31.625 151.958 32.213C151.958 33.123 152.168 33.8533 152.588 34.404C153.008 34.95 153.626 35.223 154.443 35.223ZM159.564 36V28.44H160.593V31.723H164.856V28.44H165.885V36H164.856V32.71H160.593V36H159.564ZM173.848 28.44V36H172.847V30.113L168.703 36H167.835V28.44H168.836V34.278L172.987 28.44H173.848ZM180.552 36V33.151H178.788C178.583 33.151 178.37 33.144 178.151 33.13C177.936 33.1113 177.736 33.0857 177.549 33.053C177.017 32.9503 176.564 32.717 176.191 32.353C175.822 31.9843 175.638 31.4757 175.638 30.827C175.638 30.1923 175.811 29.6837 176.156 29.301C176.501 28.9137 176.919 28.6617 177.409 28.545C177.633 28.4937 177.859 28.4633 178.088 28.454C178.321 28.4447 178.522 28.44 178.69 28.44H181.581L181.588 36H180.552ZM175.393 36L177.5 32.829H178.641L176.52 36H175.393ZM178.732 32.269H180.552V29.322H178.732C178.62 29.322 178.464 29.3267 178.263 29.336C178.062 29.3453 177.873 29.3757 177.696 29.427C177.542 29.4737 177.388 29.5553 177.234 29.672C177.085 29.784 176.959 29.9357 176.856 30.127C176.753 30.3137 176.702 30.5423 176.702 30.813C176.702 31.191 176.805 31.4943 177.01 31.723C177.22 31.947 177.481 32.101 177.794 32.185C177.962 32.2223 178.13 32.2457 178.298 32.255C178.466 32.2643 178.611 32.269 178.732 32.269Z" fill="#344351"/>
<path d="M145.252 106L145.252 92M145.252 106L177 106L177 126M145.252 106L113 106L113 126" stroke="#F88C28" stroke-dasharray="3 3"/>
<path d="M0 132C0 129.791 1.79086 128 4 128H286C288.209 128 290 129.791 290 132V194H0V132Z" fill="white"/>
<path d="M21.26 172V159.04H26.264C26.99 159.04 27.623 159.19 28.163 159.49C28.703 159.79 29.123 160.195 29.423 160.705C29.723 161.209 29.873 161.767 29.873 162.379C29.873 163.075 29.687 163.696 29.315 164.242C28.943 164.782 28.445 165.157 27.821 165.367L27.803 164.926C28.643 165.166 29.303 165.586 29.783 166.186C30.263 166.786 30.503 167.512 30.503 168.364C30.503 169.114 30.344 169.762 30.026 170.308C29.708 170.848 29.261 171.265 28.685 171.559C28.109 171.853 27.44 172 26.678 172H21.26ZM22.592 170.731H26.354C26.882 170.731 27.356 170.638 27.776 170.452C28.196 170.26 28.526 169.99 28.766 169.642C29.012 169.294 29.135 168.874 29.135 168.382C29.135 167.902 29.024 167.47 28.802 167.086C28.58 166.702 28.277 166.396 27.893 166.168C27.515 165.934 27.083 165.817 26.597 165.817H22.592V170.731ZM22.592 164.566H26.255C26.669 164.566 27.047 164.473 27.389 164.287C27.731 164.095 28.001 163.834 28.199 163.504C28.403 163.174 28.505 162.793 28.505 162.361C28.505 161.749 28.292 161.251 27.866 160.867C27.446 160.483 26.909 160.291 26.255 160.291H22.592V164.566ZM35.0801 172.27C34.3481 172.27 33.7331 172.138 33.2351 171.874C32.7431 171.61 32.3741 171.259 32.1281 170.821C31.8821 170.383 31.7591 169.906 31.7591 169.39C31.7591 168.862 31.8641 168.412 32.0741 168.04C32.2901 167.662 32.5811 167.353 32.9471 167.113C33.3191 166.873 33.7481 166.69 34.2341 166.564C34.7261 166.444 35.2691 166.339 35.8631 166.249C36.4631 166.153 37.0481 166.072 37.6181 166.006C38.1941 165.934 38.6981 165.865 39.1301 165.799L38.6621 166.087C38.6801 165.127 38.4941 164.416 38.1041 163.954C37.7141 163.492 37.0361 163.261 36.0701 163.261C35.4041 163.261 34.8401 163.411 34.3781 163.711C33.9221 164.011 33.6011 164.485 33.4151 165.133L32.1281 164.755C32.3501 163.885 32.7971 163.21 33.4691 162.73C34.1411 162.25 35.0141 162.01 36.0881 162.01C36.9761 162.01 37.7291 162.178 38.3471 162.514C38.9711 162.844 39.4121 163.324 39.6701 163.954C39.7901 164.236 39.8681 164.551 39.9041 164.899C39.9401 165.247 39.9581 165.601 39.9581 165.961V172H38.7791V169.561L39.1211 169.705C38.7911 170.539 38.2781 171.175 37.5821 171.613C36.8861 172.051 36.0521 172.27 35.0801 172.27ZM35.2331 171.127C35.8511 171.127 36.3911 171.016 36.8531 170.794C37.3151 170.572 37.6871 170.269 37.9691 169.885C38.2511 169.495 38.4341 169.057 38.5181 168.571C38.5901 168.259 38.6291 167.917 38.6351 167.545C38.6411 167.167 38.6441 166.885 38.6441 166.699L39.1481 166.96C38.6981 167.02 38.2091 167.08 37.6811 167.14C37.1591 167.2 36.6431 167.269 36.1331 167.347C35.6291 167.425 35.1731 167.518 34.7651 167.626C34.4891 167.704 34.2221 167.815 33.9641 167.959C33.7061 168.097 33.4931 168.283 33.3251 168.517C33.1631 168.751 33.0821 169.042 33.0821 169.39C33.0821 169.672 33.1511 169.945 33.2891 170.209C33.4331 170.473 33.6611 170.692 33.9731 170.866C34.2911 171.04 34.7111 171.127 35.2331 171.127ZM42.292 172V162.28H43.579V170.776H47.224V162.28H48.511V170.776H52.147V162.28H53.434V172H42.292ZM62.1997 172V163.504H58.7527V162.28H66.9697V163.504H63.5227V172H62.1997ZM72.7988 172.27C71.8508 172.27 71.0288 172.06 70.3328 171.64C69.6428 171.22 69.1058 170.629 68.7218 169.867C68.3378 169.105 68.1458 168.211 68.1458 167.185C68.1458 166.123 68.3348 165.205 68.7128 164.431C69.0908 163.657 69.6218 163.06 70.3058 162.64C70.9958 162.22 71.8088 162.01 72.7448 162.01C73.7048 162.01 74.5238 162.232 75.2018 162.676C75.8798 163.114 76.3928 163.744 76.7408 164.566C77.0888 165.388 77.2478 166.369 77.2178 167.509H75.8678V167.041C75.8438 165.781 75.5708 164.83 75.0488 164.188C74.5328 163.546 73.7768 163.225 72.7808 163.225C71.7368 163.225 70.9358 163.564 70.3778 164.242C69.8258 164.92 69.5498 165.886 69.5498 167.14C69.5498 168.364 69.8258 169.315 70.3778 169.993C70.9358 170.665 71.7248 171.001 72.7448 171.001C73.4408 171.001 74.0468 170.842 74.5628 170.524C75.0848 170.2 75.4958 169.735 75.7958 169.129L77.0288 169.606C76.6448 170.452 76.0778 171.109 75.3278 171.577C74.5838 172.039 73.7408 172.27 72.7988 172.27ZM69.0818 167.509V166.402H76.5068V167.509H69.0818ZM79.2061 172L79.2151 162.28H80.5471V166.96L84.8851 162.28H86.6491L82.0951 167.14L87.2431 172H85.3171L80.5471 167.32V172H79.2061ZM89.5308 176.32L91.4118 171.217L91.4388 172.729L87.1818 162.28H88.5858L92.0778 171.019H91.5018L94.7238 162.28H96.0738L90.8538 176.32H89.5308ZM108.716 173.683V172H97.628V162.28H98.915V170.776H102.56V162.28H103.847V170.776H107.483V162.28H108.77V170.776H110.039V173.683H108.716ZM119.193 162.28V172H117.906V164.431L112.578 172H111.462V162.28H112.749V169.786L118.086 162.28H119.193ZM125.751 161.128C125.325 161.128 124.935 161.023 124.581 160.813C124.227 160.603 123.945 160.324 123.735 159.976C123.531 159.622 123.429 159.232 123.429 158.806H124.527C124.527 159.142 124.647 159.43 124.887 159.67C125.127 159.91 125.415 160.03 125.751 160.03C126.093 160.03 126.381 159.91 126.615 159.67C126.855 159.43 126.975 159.142 126.975 158.806H128.073C128.073 159.232 127.968 159.622 127.758 159.976C127.554 160.324 127.275 160.603 126.921 160.813C126.567 161.023 126.177 161.128 125.751 161.128ZM129.441 162.28V172H128.154V164.431L122.826 172H121.71V162.28H122.997V169.786L128.334 162.28H129.441ZM135.562 172V162.28H136.885V166.501H142.366V162.28H143.689V172H142.366V167.77H136.885V172H135.562ZM150.264 172.27C149.298 172.27 148.473 172.051 147.789 171.613C147.105 171.175 146.58 170.569 146.214 169.795C145.848 169.021 145.665 168.133 145.665 167.131C145.665 166.111 145.851 165.217 146.223 164.449C146.595 163.681 147.123 163.084 147.807 162.658C148.497 162.226 149.316 162.01 150.264 162.01C151.236 162.01 152.064 162.229 152.748 162.667C153.438 163.099 153.963 163.702 154.323 164.476C154.689 165.244 154.872 166.129 154.872 167.131C154.872 168.151 154.689 169.048 154.323 169.822C153.957 170.59 153.429 171.19 152.739 171.622C152.049 172.054 151.224 172.27 150.264 172.27ZM150.264 171.001C151.344 171.001 152.148 170.644 152.676 169.93C153.204 169.21 153.468 168.277 153.468 167.131C153.468 165.955 153.201 165.019 152.667 164.323C152.139 163.627 151.338 163.279 150.264 163.279C149.538 163.279 148.938 163.444 148.464 163.774C147.996 164.098 147.645 164.551 147.411 165.133C147.183 165.709 147.069 166.375 147.069 167.131C147.069 168.301 147.339 169.24 147.879 169.948C148.419 170.65 149.214 171.001 150.264 171.001ZM156.849 172V162.28H158.028L161.817 170.236L165.615 162.28H166.785V172H165.507V165.106L162.24 172H161.403L158.136 165.106V172H156.849ZM173.416 172.27C172.468 172.27 171.646 172.06 170.95 171.64C170.26 171.22 169.723 170.629 169.339 169.867C168.955 169.105 168.763 168.211 168.763 167.185C168.763 166.123 168.952 165.205 169.33 164.431C169.708 163.657 170.239 163.06 170.923 162.64C171.613 162.22 172.426 162.01 173.362 162.01C174.322 162.01 175.141 162.232 175.819 162.676C176.497 163.114 177.01 163.744 177.358 164.566C177.706 165.388 177.865 166.369 177.835 167.509H176.485V167.041C176.461 165.781 176.188 164.83 175.666 164.188C175.15 163.546 174.394 163.225 173.398 163.225C172.354 163.225 171.553 163.564 170.995 164.242C170.443 164.92 170.167 165.886 170.167 167.14C170.167 168.364 170.443 169.315 170.995 169.993C171.553 170.665 172.342 171.001 173.362 171.001C174.058 171.001 174.664 170.842 175.18 170.524C175.702 170.2 176.113 169.735 176.413 169.129L177.646 169.606C177.262 170.452 176.695 171.109 175.945 171.577C175.201 172.039 174.358 172.27 173.416 172.27ZM169.699 167.509V166.402H177.124V167.509H169.699ZM184.197 172.27C183.303 172.27 182.547 172.045 181.929 171.595C181.311 171.139 180.843 170.524 180.525 169.75C180.207 168.97 180.048 168.097 180.048 167.131C180.048 166.147 180.207 165.271 180.525 164.503C180.849 163.729 181.323 163.12 181.947 162.676C182.571 162.232 183.339 162.01 184.251 162.01C185.139 162.01 185.901 162.235 186.537 162.685C187.173 163.135 187.659 163.747 187.995 164.521C188.337 165.295 188.508 166.165 188.508 167.131C188.508 168.103 188.337 168.976 187.995 169.75C187.653 170.524 187.161 171.139 186.519 171.595C185.877 172.045 185.103 172.27 184.197 172.27ZM179.823 176.32V162.28H181.011V169.597H181.155V176.32H179.823ZM184.062 171.037C184.74 171.037 185.304 170.866 185.754 170.524C186.204 170.182 186.54 169.717 186.762 169.129C186.99 168.535 187.104 167.869 187.104 167.131C187.104 166.399 186.993 165.739 186.771 165.151C186.549 164.563 186.21 164.098 185.754 163.756C185.304 163.414 184.731 163.243 184.035 163.243C183.357 163.243 182.793 163.408 182.343 163.738C181.899 164.068 181.566 164.527 181.344 165.115C181.122 165.697 181.011 166.369 181.011 167.131C181.011 167.881 181.122 168.553 181.344 169.147C181.566 169.735 181.902 170.197 182.352 170.533C182.802 170.869 183.372 171.037 184.062 171.037Z" fill="#344351"/>
<path d="M186.144 151.513C185.593 150.883 185.12 150.178 184.723 149.399C184.331 148.624 184.028 147.81 183.813 146.956C183.603 146.102 183.5 145.243 183.505 144.38C183.5 143.517 183.603 142.658 183.813 141.804C184.028 140.945 184.331 140.129 184.723 139.354C185.12 138.579 185.593 137.877 186.144 137.247L186.9 137.835C186.359 138.484 185.906 139.165 185.542 139.879C185.178 140.588 184.905 141.321 184.723 142.077C184.546 142.833 184.455 143.601 184.45 144.38C184.455 145.15 184.548 145.918 184.73 146.683C184.917 147.444 185.19 148.183 185.549 148.902C185.913 149.616 186.363 150.286 186.9 150.911L186.144 151.513ZM187.365 150.68V148.118C187.795 148.118 188.103 147.98 188.289 147.705C188.476 147.425 188.628 146.979 188.744 146.368C188.824 145.971 188.889 145.544 188.94 145.087C188.992 144.63 189.036 144.107 189.073 143.519C189.111 142.926 189.146 142.233 189.178 141.44H194.176V148.118H194.904V150.68H193.91V149H188.352V150.68H187.365ZM189.108 148.118H193.154V142.322H190.13C190.116 142.677 190.095 143.052 190.067 143.449C190.044 143.846 190.014 144.242 189.976 144.639C189.944 145.036 189.904 145.409 189.857 145.759C189.815 146.104 189.764 146.408 189.703 146.669C189.633 147.005 189.556 147.292 189.472 147.53C189.393 147.768 189.272 147.964 189.108 148.118ZM195.606 149V148.097C195.886 148.148 196.099 148.137 196.243 148.062C196.393 147.983 196.502 147.852 196.572 147.67C196.642 147.483 196.701 147.252 196.747 146.977C196.822 146.52 196.89 146.016 196.95 145.465C197.011 144.914 197.065 144.308 197.111 143.645C197.163 142.978 197.214 142.243 197.265 141.44H202.403V149H201.381V142.427H198.217C198.185 142.922 198.147 143.414 198.105 143.904C198.063 144.394 198.019 144.865 197.972 145.318C197.93 145.766 197.884 146.179 197.832 146.557C197.781 146.935 197.727 147.262 197.671 147.537C197.587 147.952 197.475 148.284 197.335 148.531C197.2 148.778 196.997 148.942 196.726 149.021C196.456 149.1 196.082 149.093 195.606 149ZM209.098 149V146.151H207.334C207.129 146.151 206.916 146.144 206.697 146.13C206.482 146.111 206.282 146.086 206.095 146.053C205.563 145.95 205.11 145.717 204.737 145.353C204.368 144.984 204.184 144.476 204.184 143.827C204.184 143.192 204.357 142.684 204.702 142.301C205.047 141.914 205.465 141.662 205.955 141.545C206.179 141.494 206.405 141.463 206.634 141.454C206.867 141.445 207.068 141.44 207.236 141.44H210.127L210.134 149H209.098ZM203.939 149L206.046 145.829H207.187L205.066 149H203.939ZM207.278 145.269H209.098V142.322H207.278C207.166 142.322 207.01 142.327 206.809 142.336C206.608 142.345 206.419 142.376 206.242 142.427C206.088 142.474 205.934 142.555 205.78 142.672C205.631 142.784 205.505 142.936 205.402 143.127C205.299 143.314 205.248 143.542 205.248 143.813C205.248 144.191 205.351 144.494 205.556 144.723C205.766 144.947 206.027 145.101 206.34 145.185C206.508 145.222 206.676 145.246 206.844 145.255C207.012 145.264 207.157 145.269 207.278 145.269ZM214.893 149V141.44H218.008C218.167 141.44 218.358 141.449 218.582 141.468C218.811 141.487 219.023 141.522 219.219 141.573C219.644 141.685 219.984 141.914 220.241 142.259C220.502 142.604 220.633 143.02 220.633 143.505C220.633 143.776 220.591 144.018 220.507 144.233C220.428 144.443 220.313 144.625 220.164 144.779C220.094 144.858 220.017 144.928 219.933 144.989C219.849 145.045 219.767 145.092 219.688 145.129C219.837 145.157 219.998 145.222 220.171 145.325C220.442 145.484 220.647 145.698 220.787 145.969C220.927 146.235 220.997 146.559 220.997 146.942C220.997 147.46 220.873 147.882 220.626 148.209C220.379 148.536 220.047 148.76 219.632 148.881C219.445 148.932 219.242 148.965 219.023 148.979C218.808 148.993 218.605 149 218.414 149H214.893ZM215.929 148.125H218.365C218.463 148.125 218.587 148.118 218.736 148.104C218.885 148.085 219.018 148.062 219.135 148.034C219.41 147.964 219.611 147.824 219.737 147.614C219.868 147.399 219.933 147.166 219.933 146.914C219.933 146.583 219.835 146.312 219.639 146.102C219.448 145.887 219.191 145.757 218.869 145.71C218.762 145.687 218.65 145.673 218.533 145.668C218.416 145.663 218.311 145.661 218.218 145.661H215.929V148.125ZM215.929 144.779H218.043C218.164 144.779 218.3 144.772 218.449 144.758C218.603 144.739 218.736 144.709 218.848 144.667C219.091 144.583 219.268 144.438 219.38 144.233C219.497 144.028 219.555 143.804 219.555 143.561C219.555 143.295 219.492 143.062 219.366 142.861C219.245 142.66 219.06 142.52 218.813 142.441C218.645 142.38 218.463 142.345 218.267 142.336C218.076 142.327 217.954 142.322 217.903 142.322H215.929V144.779ZM221.552 149L224.506 145.178L221.615 141.44H222.847L225.108 144.387L227.348 141.44H228.58L225.689 145.178L228.65 149H227.411L225.108 145.969L222.791 149H221.552ZM232.658 149.21C231.907 149.21 231.265 149.04 230.733 148.699C230.201 148.358 229.793 147.887 229.508 147.285C229.224 146.683 229.081 145.992 229.081 145.213C229.081 144.42 229.226 143.724 229.515 143.127C229.805 142.53 230.215 142.065 230.747 141.734C231.284 141.398 231.921 141.23 232.658 141.23C233.414 141.23 234.058 141.4 234.59 141.741C235.127 142.077 235.535 142.546 235.815 143.148C236.1 143.745 236.242 144.434 236.242 145.213C236.242 146.006 236.1 146.704 235.815 147.306C235.531 147.903 235.12 148.37 234.583 148.706C234.047 149.042 233.405 149.21 232.658 149.21ZM232.658 148.223C233.498 148.223 234.124 147.945 234.534 147.39C234.945 146.83 235.15 146.104 235.15 145.213C235.15 144.298 234.943 143.57 234.527 143.029C234.117 142.488 233.494 142.217 232.658 142.217C232.094 142.217 231.627 142.345 231.258 142.602C230.894 142.854 230.621 143.206 230.439 143.659C230.262 144.107 230.173 144.625 230.173 145.213C230.173 146.123 230.383 146.853 230.803 147.404C231.223 147.95 231.842 148.223 232.658 148.223ZM237.227 150.68V148.118C237.656 148.118 237.964 147.98 238.151 147.705C238.337 147.425 238.489 146.979 238.606 146.368C238.685 145.971 238.75 145.544 238.802 145.087C238.853 144.63 238.897 144.107 238.935 143.519C238.972 142.926 239.007 142.233 239.04 141.44H244.038V148.118H244.766V150.68H243.772V149H238.214V150.68H237.227ZM238.97 148.118H243.016V142.322H239.992C239.978 142.677 239.957 143.052 239.929 143.449C239.905 143.846 239.875 144.242 239.838 144.639C239.805 145.036 239.765 145.409 239.719 145.759C239.677 146.104 239.625 146.408 239.565 146.669C239.495 147.005 239.418 147.292 239.334 147.53C239.254 147.768 239.133 147.964 238.97 148.118ZM250.907 149V146.151H249.142C248.937 146.151 248.725 146.144 248.506 146.13C248.291 146.111 248.09 146.086 247.904 146.053C247.372 145.95 246.919 145.717 246.546 145.353C246.177 144.984 245.993 144.476 245.993 143.827C245.993 143.192 246.165 142.684 246.511 142.301C246.856 141.914 247.274 141.662 247.764 141.545C247.988 141.494 248.214 141.463 248.443 141.454C248.676 141.445 248.877 141.44 249.044 141.44H251.936L251.943 149H250.907ZM245.748 149L247.855 145.829H248.996L246.875 149H245.748ZM249.087 145.269H250.907V142.322H249.087C248.975 142.322 248.818 142.327 248.618 142.336C248.417 142.345 248.228 142.376 248.051 142.427C247.897 142.474 247.743 142.555 247.589 142.672C247.439 142.784 247.313 142.936 247.211 143.127C247.108 143.314 247.057 143.542 247.057 143.813C247.057 144.191 247.159 144.494 247.365 144.723C247.575 144.947 247.836 145.101 248.149 145.185C248.317 145.222 248.485 145.246 248.653 145.255C248.821 145.264 248.965 145.269 249.087 145.269ZM262.523 150.309V149H253.899V141.44H254.9V148.048H257.735V141.44H258.736V148.048H261.564V141.44H262.565V148.048H263.552V150.309H262.523ZM270.672 141.44V149H269.671V143.113L265.527 149H264.659V141.44H265.66V147.278L269.811 141.44H270.672ZM271.796 149L274.75 145.178L271.859 141.44H273.091L275.352 144.387L277.592 141.44H278.824L275.933 145.178L278.894 149H277.655L275.352 145.969L273.035 149H271.796ZM280.404 151.513L279.648 150.911C280.185 150.286 280.633 149.616 280.992 148.902C281.356 148.183 281.629 147.444 281.811 146.683C281.998 145.918 282.093 145.15 282.098 144.38C282.093 143.601 282 142.833 281.818 142.077C281.641 141.321 281.37 140.588 281.006 139.879C280.642 139.165 280.189 138.484 279.648 137.835L280.404 137.247C280.955 137.877 281.426 138.579 281.818 139.354C282.215 140.129 282.518 140.945 282.728 141.804C282.943 142.658 283.048 143.517 283.043 144.38C283.048 145.243 282.943 146.102 282.728 146.956C282.518 147.81 282.215 148.624 281.818 149.399C281.426 150.178 280.955 150.883 280.404 151.513Z" fill="#9CA5AC"/>
<path d="M0 193H290V255C290 257.209 288.209 259 286 259H4C1.79086 259 0 257.209 0 255V193Z" fill="#F6F7F8"/>
<path d="M21.26 237V224.04H22.583V229.881H29.747V224.04H31.061V237H29.747V231.15H22.583V237H21.26ZM37.6413 237.27C36.6753 237.27 35.8503 237.051 35.1663 236.613C34.4823 236.175 33.9573 235.569 33.5913 234.795C33.2253 234.021 33.0423 233.133 33.0423 232.131C33.0423 231.111 33.2283 230.217 33.6003 229.449C33.9723 228.681 34.5003 228.084 35.1843 227.658C35.8743 227.226 36.6933 227.01 37.6413 227.01C38.6133 227.01 39.4413 227.229 40.1253 227.667C40.8153 228.099 41.3403 228.702 41.7003 229.476C42.0663 230.244 42.2493 231.129 42.2493 232.131C42.2493 233.151 42.0663 234.048 41.7003 234.822C41.3343 235.59 40.8063 236.19 40.1163 236.622C39.4263 237.054 38.6013 237.27 37.6413 237.27ZM37.6413 236.001C38.7213 236.001 39.5253 235.644 40.0533 234.93C40.5813 234.21 40.8453 233.277 40.8453 232.131C40.8453 230.955 40.5783 230.019 40.0443 229.323C39.5163 228.627 38.7153 228.279 37.6413 228.279C36.9153 228.279 36.3153 228.444 35.8413 228.774C35.3733 229.098 35.0223 229.551 34.7883 230.133C34.5603 230.709 34.4463 231.375 34.4463 232.131C34.4463 233.301 34.7163 234.24 35.2563 234.948C35.7963 235.65 36.5913 236.001 37.6413 236.001ZM44.2256 237V227.28H45.4046L49.1936 235.236L52.9916 227.28H54.1616V237H52.8836V230.106L49.6166 237H48.7796L45.5126 230.106V237H44.2256ZM60.7929 237.27C59.8449 237.27 59.0229 237.06 58.3269 236.64C57.6369 236.22 57.0999 235.629 56.7159 234.867C56.3319 234.105 56.1399 233.211 56.1399 232.185C56.1399 231.123 56.3289 230.205 56.7069 229.431C57.0849 228.657 57.6159 228.06 58.2999 227.64C58.9899 227.22 59.8029 227.01 60.7389 227.01C61.6989 227.01 62.5179 227.232 63.1959 227.676C63.8739 228.114 64.3869 228.744 64.7349 229.566C65.0829 230.388 65.2419 231.369 65.2119 232.509H63.8619V232.041C63.8379 230.781 63.5649 229.83 63.0429 229.188C62.5269 228.546 61.7709 228.225 60.7749 228.225C59.7309 228.225 58.9299 228.564 58.3719 229.242C57.8199 229.92 57.5439 230.886 57.5439 232.14C57.5439 233.364 57.8199 234.315 58.3719 234.993C58.9299 235.665 59.7189 236.001 60.7389 236.001C61.4349 236.001 62.0409 235.842 62.5569 235.524C63.0789 235.2 63.4899 234.735 63.7899 234.129L65.0229 234.606C64.6389 235.452 64.0719 236.109 63.3219 236.577C62.5779 237.039 61.7349 237.27 60.7929 237.27ZM57.0759 232.509V231.402H64.5009V232.509H57.0759ZM71.5742 237.27C70.6802 237.27 69.9242 237.045 69.3062 236.595C68.6882 236.139 68.2202 235.524 67.9022 234.75C67.5842 233.97 67.4252 233.097 67.4252 232.131C67.4252 231.147 67.5842 230.271 67.9022 229.503C68.2262 228.729 68.7002 228.12 69.3242 227.676C69.9482 227.232 70.7162 227.01 71.6282 227.01C72.5162 227.01 73.2782 227.235 73.9142 227.685C74.5502 228.135 75.0362 228.747 75.3722 229.521C75.7142 230.295 75.8852 231.165 75.8852 232.131C75.8852 233.103 75.7142 233.976 75.3722 234.75C75.0302 235.524 74.5382 236.139 73.8962 236.595C73.2542 237.045 72.4802 237.27 71.5742 237.27ZM67.2002 241.32V227.28H68.3882V234.597H68.5322V241.32H67.2002ZM71.4392 236.037C72.1172 236.037 72.6812 235.866 73.1312 235.524C73.5812 235.182 73.9172 234.717 74.1392 234.129C74.3672 233.535 74.4812 232.869 74.4812 232.131C74.4812 231.399 74.3702 230.739 74.1482 230.151C73.9262 229.563 73.5872 229.098 73.1312 228.756C72.6812 228.414 72.1082 228.243 71.4122 228.243C70.7342 228.243 70.1702 228.408 69.7202 228.738C69.2762 229.068 68.9432 229.527 68.7212 230.115C68.4992 230.697 68.3882 231.369 68.3882 232.131C68.3882 232.881 68.4992 233.553 68.7212 234.147C68.9432 234.735 69.2792 235.197 69.7292 235.533C70.1792 235.869 70.7492 236.037 71.4392 236.037ZM80.8621 239.16V235.731C81.3661 235.731 81.7711 235.605 82.0771 235.353C82.3831 235.095 82.6171 234.753 82.7791 234.327C82.9411 233.901 83.0641 233.424 83.1481 232.896C83.2321 232.362 83.3041 231.822 83.3641 231.276C83.4481 230.478 83.5141 229.707 83.5621 228.963C83.6161 228.219 83.6611 227.448 83.6971 226.65C83.7391 225.852 83.7871 224.979 83.8411 224.031L91.8331 224.04V235.731H92.7601V239.16H91.4461V237H82.1851V239.16H80.8621ZM83.3911 235.731H90.5101V225.309L85.0741 225.3C85.0381 226.032 85.0021 226.74 84.9661 227.424C84.9301 228.108 84.8881 228.798 84.8401 229.494C84.7921 230.19 84.7291 230.916 84.6511 231.672C84.5851 232.362 84.5071 232.965 84.4171 233.481C84.3271 233.997 84.2011 234.438 84.0391 234.804C83.8831 235.17 83.6671 235.479 83.3911 235.731ZM98.8496 237.27C97.9016 237.27 97.0796 237.06 96.3836 236.64C95.6936 236.22 95.1566 235.629 94.7726 234.867C94.3886 234.105 94.1966 233.211 94.1966 232.185C94.1966 231.123 94.3856 230.205 94.7636 229.431C95.1416 228.657 95.6726 228.06 96.3566 227.64C97.0466 227.22 97.8596 227.01 98.7956 227.01C99.7556 227.01 100.575 227.232 101.253 227.676C101.931 228.114 102.444 228.744 102.792 229.566C103.14 230.388 103.299 231.369 103.269 232.509H101.919V232.041C101.895 230.781 101.622 229.83 101.1 229.188C100.584 228.546 99.8276 228.225 98.8316 228.225C97.7876 228.225 96.9866 228.564 96.4286 229.242C95.8766 229.92 95.6006 230.886 95.6006 232.14C95.6006 233.364 95.8766 234.315 96.4286 234.993C96.9866 235.665 97.7756 236.001 98.7956 236.001C99.4916 236.001 100.098 235.842 100.614 235.524C101.136 235.2 101.547 234.735 101.847 234.129L103.08 234.606C102.696 235.452 102.129 236.109 101.379 236.577C100.635 237.039 99.7916 237.27 98.8496 237.27ZM95.1326 232.509V231.402H102.558V232.509H95.1326ZM104.366 237V235.839C104.726 235.905 104.999 235.89 105.185 235.794C105.377 235.692 105.518 235.524 105.608 235.29C105.698 235.05 105.773 234.753 105.833 234.399C105.929 233.811 106.016 233.163 106.094 232.455C106.172 231.747 106.241 230.967 106.301 230.115C106.367 229.257 106.433 228.312 106.499 227.28H113.105V237H111.791V228.549H107.723C107.681 229.185 107.633 229.818 107.579 230.448C107.525 231.078 107.468 231.684 107.408 232.266C107.354 232.842 107.294 233.373 107.228 233.859C107.162 234.345 107.093 234.765 107.021 235.119C106.913 235.653 106.769 236.079 106.589 236.397C106.415 236.715 106.154 236.925 105.806 237.027C105.458 237.129 104.978 237.12 104.366 237ZM119.678 237.27C118.712 237.27 117.887 237.051 117.203 236.613C116.519 236.175 115.994 235.569 115.628 234.795C115.262 234.021 115.079 233.133 115.079 232.131C115.079 231.111 115.265 230.217 115.637 229.449C116.009 228.681 116.537 228.084 117.221 227.658C117.911 227.226 118.73 227.01 119.678 227.01C120.65 227.01 121.478 227.229 122.162 227.667C122.852 228.099 123.377 228.702 123.737 229.476C124.103 230.244 124.286 231.129 124.286 232.131C124.286 233.151 124.103 234.048 123.737 234.822C123.371 235.59 122.843 236.19 122.153 236.622C121.463 237.054 120.638 237.27 119.678 237.27ZM119.678 236.001C120.758 236.001 121.562 235.644 122.09 234.93C122.618 234.21 122.882 233.277 122.882 232.131C122.882 230.955 122.615 230.019 122.081 229.323C121.553 228.627 120.752 228.279 119.678 228.279C118.952 228.279 118.352 228.444 117.878 228.774C117.41 229.098 117.059 229.551 116.825 230.133C116.597 230.709 116.483 231.375 116.483 232.131C116.483 233.301 116.753 234.24 117.293 234.948C117.833 235.65 118.628 236.001 119.678 236.001ZM130.88 241.05V237.189C129.932 237.339 129.068 237.237 128.288 236.883C127.508 236.523 126.887 235.941 126.425 235.137C125.963 234.333 125.732 233.337 125.732 232.149C125.732 230.961 125.963 229.965 126.425 229.161C126.887 228.351 127.508 227.766 128.288 227.406C129.068 227.046 129.932 226.941 130.88 227.091V224.112H132.104V227.091C133.052 226.941 133.916 227.046 134.696 227.406C135.476 227.766 136.097 228.351 136.559 229.161C137.021 229.965 137.252 230.961 137.252 232.149C137.252 233.337 137.021 234.333 136.559 235.137C136.097 235.941 135.476 236.523 134.696 236.883C133.916 237.237 133.052 237.339 132.104 237.189V241.05H130.88ZM130.88 235.956V228.333C130.394 228.249 129.926 228.264 129.476 228.378C129.026 228.486 128.621 228.699 128.261 229.017C127.901 229.329 127.616 229.746 127.406 230.268C127.202 230.784 127.1 231.411 127.1 232.149C127.1 232.887 127.205 233.517 127.415 234.039C127.625 234.555 127.91 234.969 128.27 235.281C128.63 235.593 129.035 235.803 129.485 235.911C129.935 236.019 130.4 236.034 130.88 235.956ZM132.104 235.956C132.584 236.034 133.049 236.019 133.499 235.911C133.949 235.803 134.354 235.596 134.714 235.29C135.074 234.978 135.359 234.564 135.569 234.048C135.779 233.526 135.884 232.893 135.884 232.149C135.884 231.405 135.779 230.775 135.569 230.259C135.365 229.737 135.083 229.32 134.723 229.008C134.363 228.696 133.958 228.486 133.508 228.378C133.058 228.264 132.59 228.249 132.104 228.333V235.956ZM143.286 237.27C142.32 237.27 141.495 237.051 140.811 236.613C140.127 236.175 139.602 235.569 139.236 234.795C138.87 234.021 138.687 233.133 138.687 232.131C138.687 231.111 138.873 230.217 139.245 229.449C139.617 228.681 140.145 228.084 140.829 227.658C141.519 227.226 142.338 227.01 143.286 227.01C144.258 227.01 145.086 227.229 145.77 227.667C146.46 228.099 146.985 228.702 147.345 229.476C147.711 230.244 147.894 231.129 147.894 232.131C147.894 233.151 147.711 234.048 147.345 234.822C146.979 235.59 146.451 236.19 145.761 236.622C145.071 237.054 144.246 237.27 143.286 237.27ZM143.286 236.001C144.366 236.001 145.17 235.644 145.698 234.93C146.226 234.21 146.49 233.277 146.49 232.131C146.49 230.955 146.223 230.019 145.689 229.323C145.161 228.627 144.36 228.279 143.286 228.279C142.56 228.279 141.96 228.444 141.486 228.774C141.018 229.098 140.667 229.551 140.433 230.133C140.205 230.709 140.091 231.375 140.091 232.131C140.091 233.301 140.361 234.24 140.901 234.948C141.441 235.65 142.236 236.001 143.286 236.001ZM149.87 237V227.28H151.193V231.501H156.674V227.28H157.997V237H156.674V232.77H151.193V237H149.87Z" fill="#344351"/>
<path d="M177.913 216.513C177.363 215.883 176.889 215.178 176.492 214.399C176.1 213.624 175.797 212.81 175.582 211.956C175.372 211.102 175.27 210.243 175.274 209.38C175.27 208.517 175.372 207.658 175.582 206.804C175.797 205.945 176.1 205.129 176.492 204.354C176.889 203.579 177.363 202.877 177.913 202.247L178.669 202.835C178.128 203.484 177.675 204.165 177.311 204.879C176.947 205.588 176.674 206.321 176.492 207.077C176.315 207.833 176.224 208.601 176.219 209.38C176.224 210.15 176.317 210.918 176.499 211.683C176.686 212.444 176.959 213.183 177.318 213.902C177.682 214.616 178.133 215.286 178.669 215.911L177.913 216.513ZM179.135 215.68V213.118C179.564 213.118 179.872 212.98 180.059 212.705C180.246 212.425 180.397 211.979 180.514 211.368C180.593 210.971 180.659 210.544 180.71 210.087C180.761 209.63 180.806 209.107 180.843 208.519C180.88 207.926 180.915 207.233 180.948 206.44H185.946V213.118H186.674V215.68H185.68V214H180.122V215.68H179.135ZM180.878 213.118H184.924V207.322H181.9C181.886 207.677 181.865 208.052 181.837 208.449C181.814 208.846 181.783 209.242 181.746 209.639C181.713 210.036 181.674 210.409 181.627 210.759C181.585 211.104 181.534 211.408 181.473 211.669C181.403 212.005 181.326 212.292 181.242 212.53C181.163 212.768 181.041 212.964 180.878 213.118ZM187.376 214V213.097C187.656 213.148 187.868 213.137 188.013 213.062C188.162 212.983 188.272 212.852 188.342 212.67C188.412 212.483 188.47 212.252 188.517 211.977C188.591 211.52 188.659 211.016 188.72 210.465C188.78 209.914 188.834 209.308 188.881 208.645C188.932 207.978 188.983 207.243 189.035 206.44H194.173V214H193.151V207.427H189.987C189.954 207.922 189.917 208.414 189.875 208.904C189.833 209.394 189.788 209.865 189.742 210.318C189.7 210.766 189.653 211.179 189.602 211.557C189.55 211.935 189.497 212.262 189.441 212.537C189.357 212.952 189.245 213.284 189.105 213.531C188.969 213.778 188.766 213.942 188.496 214.021C188.225 214.1 187.852 214.093 187.376 214ZM200.867 214V211.151H199.103C198.898 211.151 198.686 211.144 198.466 211.13C198.252 211.111 198.051 211.086 197.864 211.053C197.332 210.95 196.88 210.717 196.506 210.353C196.138 209.984 195.953 209.476 195.953 208.827C195.953 208.192 196.126 207.684 196.471 207.301C196.817 206.914 197.234 206.662 197.724 206.545C197.948 206.494 198.175 206.463 198.403 206.454C198.637 206.445 198.837 206.44 199.005 206.44H201.896L201.903 214H200.867ZM195.708 214L197.815 210.829H198.956L196.835 214H195.708ZM199.047 210.269H200.867V207.322H199.047C198.935 207.322 198.779 207.327 198.578 207.336C198.378 207.345 198.189 207.376 198.011 207.427C197.857 207.474 197.703 207.555 197.549 207.672C197.4 207.784 197.274 207.936 197.171 208.127C197.069 208.314 197.017 208.542 197.017 208.813C197.017 209.191 197.12 209.494 197.325 209.723C197.535 209.947 197.797 210.101 198.109 210.185C198.277 210.222 198.445 210.246 198.613 210.255C198.781 210.264 198.926 210.269 199.047 210.269ZM212.675 206.44V214H211.674V208.113L207.53 214H206.662V206.44H207.663V212.278L211.814 206.44H212.675ZM217.776 214.21C217.015 214.21 216.371 214.04 215.844 213.699C215.317 213.358 214.915 212.889 214.64 212.292C214.369 211.69 214.229 210.999 214.22 210.22C214.229 209.427 214.374 208.731 214.654 208.134C214.934 207.532 215.338 207.065 215.865 206.734C216.392 206.398 217.032 206.23 217.783 206.23C218.548 206.23 219.213 206.417 219.778 206.79C220.347 207.163 220.737 207.674 220.947 208.323L219.939 208.645C219.762 208.192 219.479 207.842 219.092 207.595C218.709 207.343 218.271 207.217 217.776 207.217C217.221 207.217 216.761 207.345 216.397 207.602C216.033 207.854 215.762 208.206 215.585 208.659C215.408 209.112 215.317 209.632 215.312 210.22C215.321 211.125 215.531 211.853 215.942 212.404C216.353 212.95 216.964 213.223 217.776 213.223C218.289 213.223 218.726 213.106 219.085 212.873C219.449 212.635 219.724 212.29 219.911 211.837L220.947 212.145C220.667 212.817 220.256 213.33 219.715 213.685C219.174 214.035 218.527 214.21 217.776 214.21ZM221.552 214L224.506 210.178L221.615 206.44H222.847L225.108 209.387L227.348 206.44H228.58L225.689 210.178L228.65 214H227.411L225.108 210.969L222.791 214H221.552ZM232.658 214.21C231.907 214.21 231.265 214.04 230.733 213.699C230.201 213.358 229.793 212.887 229.508 212.285C229.224 211.683 229.081 210.992 229.081 210.213C229.081 209.42 229.226 208.724 229.515 208.127C229.805 207.53 230.215 207.065 230.747 206.734C231.284 206.398 231.921 206.23 232.658 206.23C233.414 206.23 234.058 206.4 234.59 206.741C235.127 207.077 235.535 207.546 235.815 208.148C236.1 208.745 236.242 209.434 236.242 210.213C236.242 211.006 236.1 211.704 235.815 212.306C235.531 212.903 235.12 213.37 234.583 213.706C234.047 214.042 233.405 214.21 232.658 214.21ZM232.658 213.223C233.498 213.223 234.124 212.945 234.534 212.39C234.945 211.83 235.15 211.104 235.15 210.213C235.15 209.298 234.943 208.57 234.527 208.029C234.117 207.488 233.494 207.217 232.658 207.217C232.094 207.217 231.627 207.345 231.258 207.602C230.894 207.854 230.621 208.206 230.439 208.659C230.262 209.107 230.173 209.625 230.173 210.213C230.173 211.123 230.383 211.853 230.803 212.404C231.223 212.95 231.842 213.223 232.658 213.223ZM237.227 215.68V213.118C237.656 213.118 237.964 212.98 238.151 212.705C238.337 212.425 238.489 211.979 238.606 211.368C238.685 210.971 238.75 210.544 238.802 210.087C238.853 209.63 238.897 209.107 238.935 208.519C238.972 207.926 239.007 207.233 239.04 206.44H244.038V213.118H244.766V215.68H243.772V214H238.214V215.68H237.227ZM238.97 213.118H243.016V207.322H239.992C239.978 207.677 239.957 208.052 239.929 208.449C239.905 208.846 239.875 209.242 239.838 209.639C239.805 210.036 239.765 210.409 239.719 210.759C239.677 211.104 239.625 211.408 239.565 211.669C239.495 212.005 239.418 212.292 239.334 212.53C239.254 212.768 239.133 212.964 238.97 213.118ZM250.907 214V211.151H249.142C248.937 211.151 248.725 211.144 248.506 211.13C248.291 211.111 248.09 211.086 247.904 211.053C247.372 210.95 246.919 210.717 246.546 210.353C246.177 209.984 245.993 209.476 245.993 208.827C245.993 208.192 246.165 207.684 246.511 207.301C246.856 206.914 247.274 206.662 247.764 206.545C247.988 206.494 248.214 206.463 248.443 206.454C248.676 206.445 248.877 206.44 249.044 206.44H251.936L251.943 214H250.907ZM245.748 214L247.855 210.829H248.996L246.875 214H245.748ZM249.087 210.269H250.907V207.322H249.087C248.975 207.322 248.818 207.327 248.618 207.336C248.417 207.345 248.228 207.376 248.051 207.427C247.897 207.474 247.743 207.555 247.589 207.672C247.439 207.784 247.313 207.936 247.211 208.127C247.108 208.314 247.057 208.542 247.057 208.813C247.057 209.191 247.159 209.494 247.365 209.723C247.575 209.947 247.836 210.101 248.149 210.185C248.317 210.222 248.485 210.246 248.653 210.255C248.821 210.264 248.965 210.269 249.087 210.269ZM262.523 215.309V214H253.899V206.44H254.9V213.048H257.735V206.44H258.736V213.048H261.564V206.44H262.565V213.048H263.552V215.309H262.523ZM270.672 206.44V214H269.671V208.113L265.527 214H264.659V206.44H265.66V212.278L269.811 206.44H270.672ZM271.796 214L274.75 210.178L271.859 206.44H273.091L275.352 209.387L277.592 206.44H278.824L275.933 210.178L278.894 214H277.655L275.352 210.969L273.035 214H271.796ZM280.404 216.513L279.648 215.911C280.185 215.286 280.633 214.616 280.992 213.902C281.356 213.183 281.629 212.444 281.811 211.683C281.998 210.918 282.093 210.15 282.098 209.38C282.093 208.601 282 207.833 281.818 207.077C281.641 206.321 281.37 205.588 281.006 204.879C280.642 204.165 280.189 203.484 279.648 202.835L280.404 202.247C280.955 202.877 281.426 203.579 281.818 204.354C282.215 205.129 282.518 205.945 282.728 206.804C282.943 207.658 283.048 208.517 283.043 209.38C283.048 210.243 282.943 211.102 282.728 211.956C282.518 212.81 282.215 213.624 281.818 214.399C281.426 215.178 280.955 215.883 280.404 216.513Z" fill="#9CA5AC"/>
<rect x="0.5" y="126.5" width="289" height="132" rx="3.5" stroke="#344351"/>
<path d="M154.5 264C154.5 263.724 154.276 263.5 154 263.5C153.724 263.5 153.5 263.724 153.5 264L154.5 264ZM153.646 303.354C153.842 303.549 154.158 303.549 154.354 303.354L157.536 300.172C157.731 299.976 157.731 299.66 157.536 299.464C157.34 299.269 157.024 299.269 156.828 299.464L154 302.293L151.172 299.464C150.976 299.269 150.66 299.269 150.464 299.464C150.269 299.66 150.269 299.976 150.464 300.172L153.646 303.354ZM153.5 264L153.5 303L154.5 303L154.5 264L153.5 264Z" fill="#F88C28"/>
<path d="M136.5 303C136.5 303.276 136.724 303.5 137 303.5C137.276 303.5 137.5 303.276 137.5 303L136.5 303ZM137.354 263.646C137.158 263.451 136.842 263.451 136.646 263.646L133.464 266.828C133.269 267.024 133.269 267.34 133.464 267.536C133.66 267.731 133.976 267.731 134.172 267.536L137 264.707L139.828 267.536C140.024 267.731 140.34 267.731 140.536 267.536C140.731 267.34 140.731 267.024 140.536 266.828L137.354 263.646ZM137.5 303L137.5 264L136.5 264L136.5 303L137.5 303Z" fill="#F88C28"/>
<rect x="0.5" y="308.5" width="289" height="132" rx="3.5" fill="white"/>
<path d="M34 375H256V437C256 439.209 254.209 441 252 441H38C35.7909 441 34 439.209 34 437V375Z" fill="white"/>
<path d="M57.65 415.5V401.1H59.12V407.9L65.69 401.1H67.57L60.86 408.05L68.12 415.5H66.2L59.12 408.3V415.5H57.65ZM67.7242 415.5V414.21C68.1242 414.283 68.4276 414.267 68.6342 414.16C68.8476 414.047 69.0042 413.86 69.1042 413.6C69.2042 413.333 69.2876 413.003 69.3542 412.61C69.4609 411.957 69.5576 411.237 69.6442 410.45C69.7309 409.663 69.8076 408.797 69.8742 407.85C69.9476 406.897 70.0209 405.847 70.0942 404.7H77.4342V415.5H75.9742V406.11H71.4542C71.4076 406.817 71.3542 407.52 71.2942 408.22C71.2342 408.92 71.1709 409.593 71.1042 410.24C71.0442 410.88 70.9776 411.47 70.9042 412.01C70.8309 412.55 70.7542 413.017 70.6742 413.41C70.5542 414.003 70.3942 414.477 70.1942 414.83C70.0009 415.183 69.7109 415.417 69.3242 415.53C68.9376 415.643 68.4042 415.633 67.7242 415.5ZM88.8081 404.7V415.5H87.3781V407.09L81.4581 415.5H80.2181V404.7H81.6481V413.04L87.5781 404.7H88.8081ZM96.1848 415.8C95.1315 415.8 94.2182 415.567 93.4448 415.1C92.6782 414.633 92.0815 413.977 91.6548 413.13C91.2282 412.283 91.0148 411.29 91.0148 410.15C91.0148 408.97 91.2248 407.95 91.6448 407.09C92.0648 406.23 92.6548 405.567 93.4148 405.1C94.1815 404.633 95.0848 404.4 96.1248 404.4C97.1915 404.4 98.1015 404.647 98.8548 405.14C99.6082 405.627 100.178 406.327 100.565 407.24C100.952 408.153 101.128 409.243 101.095 410.51H99.5948V409.99C99.5682 408.59 99.2648 407.533 98.6848 406.82C98.1115 406.107 97.2715 405.75 96.1648 405.75C95.0048 405.75 94.1148 406.127 93.4948 406.88C92.8815 407.633 92.5748 408.707 92.5748 410.1C92.5748 411.46 92.8815 412.517 93.4948 413.27C94.1148 414.017 94.9915 414.39 96.1248 414.39C96.8982 414.39 97.5715 414.213 98.1448 413.86C98.7248 413.5 99.1815 412.983 99.5148 412.31L100.885 412.84C100.458 413.78 99.8282 414.51 98.9948 415.03C98.1682 415.543 97.2315 415.8 96.1848 415.8ZM92.0548 410.51V409.28H100.305V410.51H92.0548ZM103.304 415.5V404.7H104.774V409.39H110.864V404.7H112.334V415.5H110.864V410.8H104.774V415.5H103.304ZM118.06 415.5V406.06H114.23V404.7H123.36V406.06H119.53V415.5H118.06ZM125.277 415.5L125.257 404.7H126.737V408.77H128.617C128.931 408.77 129.237 408.777 129.537 408.79C129.837 408.803 130.107 408.83 130.347 408.87C130.881 408.977 131.354 409.157 131.767 409.41C132.181 409.663 132.507 410.013 132.747 410.46C132.987 410.9 133.107 411.457 133.107 412.13C133.107 413.057 132.867 413.787 132.387 414.32C131.907 414.853 131.304 415.2 130.577 415.36C130.304 415.42 130.007 415.46 129.687 415.48C129.367 415.493 129.054 415.5 128.747 415.5H125.277ZM126.737 414.24H128.687C128.907 414.24 129.157 414.233 129.437 414.22C129.717 414.207 129.964 414.17 130.177 414.11C130.537 414.01 130.861 413.81 131.147 413.51C131.441 413.203 131.587 412.743 131.587 412.13C131.587 411.523 131.447 411.067 131.167 410.76C130.887 410.447 130.514 410.24 130.047 410.14C129.834 410.093 129.607 410.063 129.367 410.05C129.134 410.037 128.907 410.03 128.687 410.03H126.737V414.24ZM134.397 415.5V404.7H135.867V415.5H134.397ZM142.66 415.5L142.67 404.7H144.15V409.9L148.97 404.7H150.93L145.87 410.1L151.59 415.5H149.45L144.15 410.3V415.5H142.66ZM156.906 415.8C155.833 415.8 154.916 415.557 154.156 415.07C153.396 414.583 152.813 413.91 152.406 413.05C151.999 412.19 151.796 411.203 151.796 410.09C151.796 408.957 152.003 407.963 152.416 407.11C152.829 406.257 153.416 405.593 154.176 405.12C154.943 404.64 155.853 404.4 156.906 404.4C157.986 404.4 158.906 404.643 159.666 405.13C160.433 405.61 161.016 406.28 161.416 407.14C161.823 407.993 162.026 408.977 162.026 410.09C162.026 411.223 161.823 412.22 161.416 413.08C161.009 413.933 160.423 414.6 159.656 415.08C158.889 415.56 157.973 415.8 156.906 415.8ZM156.906 414.39C158.106 414.39 158.999 413.993 159.586 413.2C160.173 412.4 160.466 411.363 160.466 410.09C160.466 408.783 160.169 407.743 159.576 406.97C158.989 406.197 158.099 405.81 156.906 405.81C156.099 405.81 155.433 405.993 154.906 406.36C154.386 406.72 153.996 407.223 153.736 407.87C153.483 408.51 153.356 409.25 153.356 410.09C153.356 411.39 153.656 412.433 154.256 413.22C154.856 414 155.739 414.39 156.906 414.39ZM164.222 415.5V404.7H165.532L169.742 413.54L173.962 404.7H175.262V415.5H173.842V407.84L170.212 415.5H169.282L165.652 407.84V415.5H164.222ZM178.05 415.5V404.7H186.64V415.5H185.17V406.11H179.52V415.5H178.05ZM192.537 415.8C191.724 415.8 191.04 415.653 190.487 415.36C189.94 415.067 189.53 414.677 189.257 414.19C188.984 413.703 188.847 413.173 188.847 412.6C188.847 412.013 188.964 411.513 189.197 411.1C189.437 410.68 189.76 410.337 190.167 410.07C190.58 409.803 191.057 409.6 191.597 409.46C192.144 409.327 192.747 409.21 193.407 409.11C194.074 409.003 194.724 408.913 195.357 408.84C195.997 408.76 196.557 408.683 197.037 408.61L196.517 408.93C196.537 407.863 196.33 407.073 195.897 406.56C195.464 406.047 194.71 405.79 193.637 405.79C192.897 405.79 192.27 405.957 191.757 406.29C191.25 406.623 190.894 407.15 190.687 407.87L189.257 407.45C189.504 406.483 190 405.733 190.747 405.2C191.494 404.667 192.464 404.4 193.657 404.4C194.644 404.4 195.48 404.587 196.167 404.96C196.86 405.327 197.35 405.86 197.637 406.56C197.77 406.873 197.857 407.223 197.897 407.61C197.937 407.997 197.957 408.39 197.957 408.79V415.5H196.647V412.79L197.027 412.95C196.66 413.877 196.09 414.583 195.317 415.07C194.544 415.557 193.617 415.8 192.537 415.8ZM192.707 414.53C193.394 414.53 193.994 414.407 194.507 414.16C195.02 413.913 195.434 413.577 195.747 413.15C196.06 412.717 196.264 412.23 196.357 411.69C196.437 411.343 196.48 410.963 196.487 410.55C196.494 410.13 196.497 409.817 196.497 409.61L197.057 409.9C196.557 409.967 196.014 410.033 195.427 410.1C194.847 410.167 194.274 410.243 193.707 410.33C193.147 410.417 192.64 410.52 192.187 410.64C191.88 410.727 191.584 410.85 191.297 411.01C191.01 411.163 190.774 411.37 190.587 411.63C190.407 411.89 190.317 412.213 190.317 412.6C190.317 412.913 190.394 413.217 190.547 413.51C190.707 413.803 190.96 414.047 191.307 414.24C191.66 414.433 192.127 414.53 192.707 414.53ZM200.55 415.5V404.7H202.02V409.39H208.11V404.7H209.58V415.5H208.11V410.8H202.02V415.5H200.55ZM220.957 404.7V415.5H219.527V407.09L213.607 415.5H212.367V404.7H213.797V413.04L219.727 404.7H220.957ZM232.343 404.7V415.5H230.913V407.09L224.993 415.5H223.753V404.7H225.183V413.04L231.113 404.7H232.343Z" fill="#344351"/>
<circle cx="100" cy="356" r="29.5" fill="white" stroke="#344351"/>
<ellipse cx="100" cy="348.5" rx="7" ry="7.5" fill="#F88C28"/>
<path d="M111.678 370H88.3218C87.6586 370 87.1815 369.367 87.4115 368.745C88.9677 364.535 93.0526 358 100 358C106.947 358 111.032 364.535 112.589 368.745C112.818 369.367 112.341 370 111.678 370Z" fill="#F88C28" stroke="#F88C28"/>
<circle cx="145" cy="356" r="29.5" fill="white" stroke="#344351"/>
<ellipse cx="145" cy="348.5" rx="7" ry="7.5" fill="#F88C28"/>
<path d="M156.678 370H133.322C132.659 370 132.182 369.367 132.411 368.745C133.968 364.535 138.053 358 145 358C151.947 358 156.032 364.535 157.589 368.745C157.818 369.367 157.341 370 156.678 370Z" fill="#F88C28" stroke="#F88C28"/>
<circle cx="190" cy="356" r="29.5" fill="white" stroke="#344351"/>
<ellipse cx="190" cy="348.5" rx="7" ry="7.5" fill="#F88C28"/>
<path d="M201.678 370H178.322C177.659 370 177.182 369.367 177.411 368.745C178.968 364.535 183.053 358 190 358C196.947 358 201.032 364.535 202.589 368.745C202.818 369.367 202.341 370 201.678 370Z" fill="#F88C28" stroke="#F88C28"/>
<rect x="0.5" y="308.5" width="289" height="132" rx="3.5" stroke="#344351"/>
<defs>
<clipPath id="clip0_7265_45647">
<rect width="126" height="24" fill="white" transform="translate(82 48)"/>
</clipPath>
</defs>
</svg>
