<svg width="1110" height="133" viewBox="0 0 1110 133" fill="none" xmlns="http://www.w3.org/2000/svg">
<path d="M340 6C340 3.79086 341.791 2 344 2H616C618.209 2 620 3.79086 620 6V68H340V6Z" fill="white"/>
<path d="M361.26 46V33.04H366.264C366.99 33.04 367.623 33.19 368.163 33.49C368.703 33.79 369.123 34.195 369.423 34.705C369.723 35.209 369.873 35.767 369.873 36.379C369.873 37.075 369.687 37.696 369.315 38.242C368.943 38.782 368.445 39.157 367.821 39.367L367.803 38.926C368.643 39.166 369.303 39.586 369.783 40.186C370.263 40.786 370.503 41.512 370.503 42.364C370.503 43.114 370.344 43.762 370.026 44.308C369.708 44.848 369.261 45.265 368.685 45.559C368.109 45.853 367.44 46 366.678 46H361.26ZM362.592 44.731H366.354C366.882 44.731 367.356 44.638 367.776 44.452C368.196 44.26 368.526 43.99 368.766 43.642C369.012 43.294 369.135 42.874 369.135 42.382C369.135 41.902 369.024 41.47 368.802 41.086C368.58 40.702 368.277 40.396 367.893 40.168C367.515 39.934 367.083 39.817 366.597 39.817H362.592V44.731ZM362.592 38.566H366.255C366.669 38.566 367.047 38.473 367.389 38.287C367.731 38.095 368.001 37.834 368.199 37.504C368.403 37.174 368.505 36.793 368.505 36.361C368.505 35.749 368.292 35.251 367.866 34.867C367.446 34.483 366.909 34.291 366.255 34.291H362.592V38.566ZM375.08 46.27C374.348 46.27 373.733 46.138 373.235 45.874C372.743 45.61 372.374 45.259 372.128 44.821C371.882 44.383 371.759 43.906 371.759 43.39C371.759 42.862 371.864 42.412 372.074 42.04C372.29 41.662 372.581 41.353 372.947 41.113C373.319 40.873 373.748 40.69 374.234 40.564C374.726 40.444 375.269 40.339 375.863 40.249C376.463 40.153 377.048 40.072 377.618 40.006C378.194 39.934 378.698 39.865 379.13 39.799L378.662 40.087C378.68 39.127 378.494 38.416 378.104 37.954C377.714 37.492 377.036 37.261 376.07 37.261C375.404 37.261 374.84 37.411 374.378 37.711C373.922 38.011 373.601 38.485 373.415 39.133L372.128 38.755C372.35 37.885 372.797 37.21 373.469 36.73C374.141 36.25 375.014 36.01 376.088 36.01C376.976 36.01 377.729 36.178 378.347 36.514C378.971 36.844 379.412 37.324 379.67 37.954C379.79 38.236 379.868 38.551 379.904 38.899C379.94 39.247 379.958 39.601 379.958 39.961V46H378.779V43.561L379.121 43.705C378.791 44.539 378.278 45.175 377.582 45.613C376.886 46.051 376.052 46.27 375.08 46.27ZM375.233 45.127C375.851 45.127 376.391 45.016 376.853 44.794C377.315 44.572 377.687 44.269 377.969 43.885C378.251 43.495 378.434 43.057 378.518 42.571C378.59 42.259 378.629 41.917 378.635 41.545C378.641 41.167 378.644 40.885 378.644 40.699L379.148 40.96C378.698 41.02 378.209 41.08 377.681 41.14C377.159 41.2 376.643 41.269 376.133 41.347C375.629 41.425 375.173 41.518 374.765 41.626C374.489 41.704 374.222 41.815 373.964 41.959C373.706 42.097 373.493 42.283 373.325 42.517C373.163 42.751 373.082 43.042 373.082 43.39C373.082 43.672 373.151 43.945 373.289 44.209C373.433 44.473 373.661 44.692 373.973 44.866C374.291 45.04 374.711 45.127 375.233 45.127ZM382.292 46V36.28H383.579V44.776H387.224V36.28H388.511V44.776H392.147V36.28H393.434V46H382.292ZM402.2 46V37.504H398.753V36.28H406.97V37.504H403.523V46H402.2ZM412.799 46.27C411.851 46.27 411.029 46.06 410.333 45.64C409.643 45.22 409.106 44.629 408.722 43.867C408.338 43.105 408.146 42.211 408.146 41.185C408.146 40.123 408.335 39.205 408.713 38.431C409.091 37.657 409.622 37.06 410.306 36.64C410.996 36.22 411.809 36.01 412.745 36.01C413.705 36.01 414.524 36.232 415.202 36.676C415.88 37.114 416.393 37.744 416.741 38.566C417.089 39.388 417.248 40.369 417.218 41.509H415.868V41.041C415.844 39.781 415.571 38.83 415.049 38.188C414.533 37.546 413.777 37.225 412.781 37.225C411.737 37.225 410.936 37.564 410.378 38.242C409.826 38.92 409.55 39.886 409.55 41.14C409.55 42.364 409.826 43.315 410.378 43.993C410.936 44.665 411.725 45.001 412.745 45.001C413.441 45.001 414.047 44.842 414.563 44.524C415.085 44.2 415.496 43.735 415.796 43.129L417.029 43.606C416.645 44.452 416.078 45.109 415.328 45.577C414.584 46.039 413.741 46.27 412.799 46.27ZM409.082 41.509V40.402H416.507V41.509H409.082ZM419.206 46L419.215 36.28H420.547V40.96L424.885 36.28H426.649L422.095 41.14L427.243 46H425.317L420.547 41.32V46H419.206ZM429.531 50.32L431.412 45.217L431.439 46.729L427.182 36.28H428.586L432.078 45.019H431.502L434.724 36.28H436.074L430.854 50.32H429.531ZM448.716 47.683V46H437.628V36.28H438.915V44.776H442.56V36.28H443.847V44.776H447.483V36.28H448.77V44.776H450.039V47.683H448.716ZM459.193 36.28V46H457.906V38.431L452.578 46H451.462V36.28H452.749V43.786L458.086 36.28H459.193ZM465.751 35.128C465.325 35.128 464.935 35.023 464.581 34.813C464.227 34.603 463.945 34.324 463.735 33.976C463.531 33.622 463.429 33.232 463.429 32.806H464.527C464.527 33.142 464.647 33.43 464.887 33.67C465.127 33.91 465.415 34.03 465.751 34.03C466.093 34.03 466.381 33.91 466.615 33.67C466.855 33.43 466.975 33.142 466.975 32.806H468.073C468.073 33.232 467.968 33.622 467.758 33.976C467.554 34.324 467.275 34.603 466.921 34.813C466.567 35.023 466.177 35.128 465.751 35.128ZM469.441 36.28V46H468.154V38.431L462.826 46H461.71V36.28H462.997V43.786L468.334 36.28H469.441ZM475.562 46V36.28H476.885V40.501H482.366V36.28H483.689V46H482.366V41.77H476.885V46H475.562ZM490.264 46.27C489.298 46.27 488.473 46.051 487.789 45.613C487.105 45.175 486.58 44.569 486.214 43.795C485.848 43.021 485.665 42.133 485.665 41.131C485.665 40.111 485.851 39.217 486.223 38.449C486.595 37.681 487.123 37.084 487.807 36.658C488.497 36.226 489.316 36.01 490.264 36.01C491.236 36.01 492.064 36.229 492.748 36.667C493.438 37.099 493.963 37.702 494.323 38.476C494.689 39.244 494.872 40.129 494.872 41.131C494.872 42.151 494.689 43.048 494.323 43.822C493.957 44.59 493.429 45.19 492.739 45.622C492.049 46.054 491.224 46.27 490.264 46.27ZM490.264 45.001C491.344 45.001 492.148 44.644 492.676 43.93C493.204 43.21 493.468 42.277 493.468 41.131C493.468 39.955 493.201 39.019 492.667 38.323C492.139 37.627 491.338 37.279 490.264 37.279C489.538 37.279 488.938 37.444 488.464 37.774C487.996 38.098 487.645 38.551 487.411 39.133C487.183 39.709 487.069 40.375 487.069 41.131C487.069 42.301 487.339 43.24 487.879 43.948C488.419 44.65 489.214 45.001 490.264 45.001ZM496.849 46V36.28H498.028L501.817 44.236L505.615 36.28H506.785V46H505.507V39.106L502.24 46H501.403L498.136 39.106V46H496.849ZM513.416 46.27C512.468 46.27 511.646 46.06 510.95 45.64C510.26 45.22 509.723 44.629 509.339 43.867C508.955 43.105 508.763 42.211 508.763 41.185C508.763 40.123 508.952 39.205 509.33 38.431C509.708 37.657 510.239 37.06 510.923 36.64C511.613 36.22 512.426 36.01 513.362 36.01C514.322 36.01 515.141 36.232 515.819 36.676C516.497 37.114 517.01 37.744 517.358 38.566C517.706 39.388 517.865 40.369 517.835 41.509H516.485V41.041C516.461 39.781 516.188 38.83 515.666 38.188C515.15 37.546 514.394 37.225 513.398 37.225C512.354 37.225 511.553 37.564 510.995 38.242C510.443 38.92 510.167 39.886 510.167 41.14C510.167 42.364 510.443 43.315 510.995 43.993C511.553 44.665 512.342 45.001 513.362 45.001C514.058 45.001 514.664 44.842 515.18 44.524C515.702 44.2 516.113 43.735 516.413 43.129L517.646 43.606C517.262 44.452 516.695 45.109 515.945 45.577C515.201 46.039 514.358 46.27 513.416 46.27ZM509.699 41.509V40.402H517.124V41.509H509.699ZM524.197 46.27C523.303 46.27 522.547 46.045 521.929 45.595C521.311 45.139 520.843 44.524 520.525 43.75C520.207 42.97 520.048 42.097 520.048 41.131C520.048 40.147 520.207 39.271 520.525 38.503C520.849 37.729 521.323 37.12 521.947 36.676C522.571 36.232 523.339 36.01 524.251 36.01C525.139 36.01 525.901 36.235 526.537 36.685C527.173 37.135 527.659 37.747 527.995 38.521C528.337 39.295 528.508 40.165 528.508 41.131C528.508 42.103 528.337 42.976 527.995 43.75C527.653 44.524 527.161 45.139 526.519 45.595C525.877 46.045 525.103 46.27 524.197 46.27ZM519.823 50.32V36.28H521.011V43.597H521.155V50.32H519.823ZM524.062 45.037C524.74 45.037 525.304 44.866 525.754 44.524C526.204 44.182 526.54 43.717 526.762 43.129C526.99 42.535 527.104 41.869 527.104 41.131C527.104 40.399 526.993 39.739 526.771 39.151C526.549 38.563 526.21 38.098 525.754 37.756C525.304 37.414 524.731 37.243 524.035 37.243C523.357 37.243 522.793 37.408 522.343 37.738C521.899 38.068 521.566 38.527 521.344 39.115C521.122 39.697 521.011 40.369 521.011 41.131C521.011 41.881 521.122 42.553 521.344 43.147C521.566 43.735 521.902 44.197 522.352 44.533C522.802 44.869 523.372 45.037 524.062 45.037Z" fill="#344351"/>
<path d="M516.144 25.513C515.593 24.883 515.12 24.1783 514.723 23.399C514.331 22.6243 514.028 21.81 513.813 20.956C513.603 20.102 513.5 19.2433 513.505 18.38C513.5 17.5167 513.603 16.658 513.813 15.804C514.028 14.9453 514.331 14.1287 514.723 13.354C515.12 12.5793 515.593 11.877 516.144 11.247L516.9 11.835C516.359 12.4837 515.906 13.165 515.542 13.879C515.178 14.5883 514.905 15.321 514.723 16.077C514.546 16.833 514.455 17.6007 514.45 18.38C514.455 19.15 514.548 19.9177 514.73 20.683C514.917 21.4437 515.19 22.1833 515.549 22.902C515.913 23.616 516.363 24.2857 516.9 24.911L516.144 25.513ZM517.365 24.68V22.118C517.795 22.118 518.103 21.9803 518.289 21.705C518.476 21.425 518.628 20.9793 518.744 20.368C518.824 19.9713 518.889 19.5443 518.94 19.087C518.992 18.6297 519.036 18.107 519.073 17.519C519.111 16.9263 519.146 16.2333 519.178 15.44H524.176V22.118H524.904V24.68H523.91V23H518.352V24.68H517.365ZM519.108 22.118H523.154V16.322H520.13C520.116 16.6767 520.095 17.0523 520.067 17.449C520.044 17.8457 520.014 18.2423 519.976 18.639C519.944 19.0357 519.904 19.409 519.857 19.759C519.815 20.1043 519.764 20.4077 519.703 20.669C519.633 21.005 519.556 21.292 519.472 21.53C519.393 21.768 519.272 21.964 519.108 22.118ZM525.606 23V22.097C525.886 22.1483 526.099 22.1367 526.243 22.062C526.393 21.9827 526.502 21.852 526.572 21.67C526.642 21.4833 526.701 21.2523 526.747 20.977C526.822 20.5197 526.89 20.0157 526.95 19.465C527.011 18.9143 527.065 18.3077 527.111 17.645C527.163 16.9777 527.214 16.2427 527.265 15.44H532.403V23H531.381V16.427H528.217C528.185 16.9217 528.147 17.414 528.105 17.904C528.063 18.394 528.019 18.8653 527.972 19.318C527.93 19.766 527.884 20.179 527.832 20.557C527.781 20.935 527.727 21.2617 527.671 21.537C527.587 21.9523 527.475 22.2837 527.335 22.531C527.2 22.7783 526.997 22.9417 526.726 23.021C526.456 23.1003 526.082 23.0933 525.606 23ZM539.098 23V20.151H537.334C537.129 20.151 536.916 20.144 536.697 20.13C536.482 20.1113 536.282 20.0857 536.095 20.053C535.563 19.9503 535.11 19.717 534.737 19.353C534.368 18.9843 534.184 18.4757 534.184 17.827C534.184 17.1923 534.357 16.6837 534.702 16.301C535.047 15.9137 535.465 15.6617 535.955 15.545C536.179 15.4937 536.405 15.4633 536.634 15.454C536.867 15.4447 537.068 15.44 537.236 15.44H540.127L540.134 23H539.098ZM533.939 23L536.046 19.829H537.187L535.066 23H533.939ZM537.278 19.269H539.098V16.322H537.278C537.166 16.322 537.01 16.3267 536.809 16.336C536.608 16.3453 536.419 16.3757 536.242 16.427C536.088 16.4737 535.934 16.5553 535.78 16.672C535.631 16.784 535.505 16.9357 535.402 17.127C535.299 17.3137 535.248 17.5423 535.248 17.813C535.248 18.191 535.351 18.4943 535.556 18.723C535.766 18.947 536.027 19.101 536.34 19.185C536.508 19.2223 536.676 19.2457 536.844 19.255C537.012 19.2643 537.157 19.269 537.278 19.269ZM544.893 23V15.44H548.008C548.167 15.44 548.358 15.4493 548.582 15.468C548.811 15.4867 549.023 15.5217 549.219 15.573C549.644 15.685 549.984 15.9137 550.241 16.259C550.502 16.6043 550.633 17.0197 550.633 17.505C550.633 17.7757 550.591 18.0183 550.507 18.233C550.428 18.443 550.313 18.625 550.164 18.779C550.094 18.8583 550.017 18.9283 549.933 18.989C549.849 19.045 549.767 19.0917 549.688 19.129C549.837 19.157 549.998 19.2223 550.171 19.325C550.442 19.4837 550.647 19.6983 550.787 19.969C550.927 20.235 550.997 20.5593 550.997 20.942C550.997 21.46 550.873 21.8823 550.626 22.209C550.379 22.5357 550.047 22.7597 549.632 22.881C549.445 22.9323 549.242 22.965 549.023 22.979C548.808 22.993 548.605 23 548.414 23H544.893ZM545.929 22.125H548.365C548.463 22.125 548.587 22.118 548.736 22.104C548.885 22.0853 549.018 22.062 549.135 22.034C549.41 21.964 549.611 21.824 549.737 21.614C549.868 21.3993 549.933 21.166 549.933 20.914C549.933 20.5827 549.835 20.312 549.639 20.102C549.448 19.8873 549.191 19.7567 548.869 19.71C548.762 19.6867 548.65 19.6727 548.533 19.668C548.416 19.6633 548.311 19.661 548.218 19.661H545.929V22.125ZM545.929 18.779H548.043C548.164 18.779 548.3 18.772 548.449 18.758C548.603 18.7393 548.736 18.709 548.848 18.667C549.091 18.583 549.268 18.4383 549.38 18.233C549.497 18.0277 549.555 17.8037 549.555 17.561C549.555 17.295 549.492 17.0617 549.366 16.861C549.245 16.6603 549.06 16.5203 548.813 16.441C548.645 16.3803 548.463 16.3453 548.267 16.336C548.076 16.3267 547.954 16.322 547.903 16.322H545.929V18.779ZM551.552 23L554.506 19.178L551.615 15.44H552.847L555.108 18.387L557.348 15.44H558.58L555.689 19.178L558.65 23H557.411L555.108 19.969L552.791 23H551.552ZM562.658 23.21C561.907 23.21 561.265 23.0397 560.733 22.699C560.201 22.3583 559.793 21.887 559.508 21.285C559.224 20.683 559.081 19.9923 559.081 19.213C559.081 18.4197 559.226 17.7243 559.515 17.127C559.805 16.5297 560.215 16.0653 560.747 15.734C561.284 15.398 561.921 15.23 562.658 15.23C563.414 15.23 564.058 15.4003 564.59 15.741C565.127 16.077 565.535 16.546 565.815 17.148C566.1 17.7453 566.242 18.4337 566.242 19.213C566.242 20.0063 566.1 20.704 565.815 21.306C565.531 21.9033 565.12 22.37 564.583 22.706C564.047 23.042 563.405 23.21 562.658 23.21ZM562.658 22.223C563.498 22.223 564.124 21.9453 564.534 21.39C564.945 20.83 565.15 20.1043 565.15 19.213C565.15 18.2983 564.943 17.5703 564.527 17.029C564.117 16.4877 563.494 16.217 562.658 16.217C562.094 16.217 561.627 16.3453 561.258 16.602C560.894 16.854 560.621 17.2063 560.439 17.659C560.262 18.107 560.173 18.625 560.173 19.213C560.173 20.123 560.383 20.8533 560.803 21.404C561.223 21.95 561.842 22.223 562.658 22.223ZM567.227 24.68V22.118C567.656 22.118 567.964 21.9803 568.151 21.705C568.337 21.425 568.489 20.9793 568.606 20.368C568.685 19.9713 568.75 19.5443 568.802 19.087C568.853 18.6297 568.897 18.107 568.935 17.519C568.972 16.9263 569.007 16.2333 569.04 15.44H574.038V22.118H574.766V24.68H573.772V23H568.214V24.68H567.227ZM568.97 22.118H573.016V16.322H569.992C569.978 16.6767 569.957 17.0523 569.929 17.449C569.905 17.8457 569.875 18.2423 569.838 18.639C569.805 19.0357 569.765 19.409 569.719 19.759C569.677 20.1043 569.625 20.4077 569.565 20.669C569.495 21.005 569.418 21.292 569.334 21.53C569.254 21.768 569.133 21.964 568.97 22.118ZM580.907 23V20.151H579.142C578.937 20.151 578.725 20.144 578.506 20.13C578.291 20.1113 578.09 20.0857 577.904 20.053C577.372 19.9503 576.919 19.717 576.546 19.353C576.177 18.9843 575.993 18.4757 575.993 17.827C575.993 17.1923 576.165 16.6837 576.511 16.301C576.856 15.9137 577.274 15.6617 577.764 15.545C577.988 15.4937 578.214 15.4633 578.443 15.454C578.676 15.4447 578.877 15.44 579.044 15.44H581.936L581.943 23H580.907ZM575.748 23L577.855 19.829H578.996L576.875 23H575.748ZM579.087 19.269H580.907V16.322H579.087C578.975 16.322 578.818 16.3267 578.618 16.336C578.417 16.3453 578.228 16.3757 578.051 16.427C577.897 16.4737 577.743 16.5553 577.589 16.672C577.439 16.784 577.313 16.9357 577.211 17.127C577.108 17.3137 577.057 17.5423 577.057 17.813C577.057 18.191 577.159 18.4943 577.365 18.723C577.575 18.947 577.836 19.101 578.149 19.185C578.317 19.2223 578.485 19.2457 578.653 19.255C578.821 19.2643 578.965 19.269 579.087 19.269ZM592.523 24.309V23H583.899V15.44H584.9V22.048H587.735V15.44H588.736V22.048H591.564V15.44H592.565V22.048H593.552V24.309H592.523ZM600.672 15.44V23H599.671V17.113L595.527 23H594.659V15.44H595.66V21.278L599.811 15.44H600.672ZM601.796 23L604.75 19.178L601.859 15.44H603.091L605.352 18.387L607.592 15.44H608.824L605.933 19.178L608.894 23H607.655L605.352 19.969L603.035 23H601.796ZM610.404 25.513L609.648 24.911C610.185 24.2857 610.633 23.616 610.992 22.902C611.356 22.1833 611.629 21.4437 611.811 20.683C611.998 19.9177 612.093 19.15 612.098 18.38C612.093 17.6007 612 16.833 611.818 16.077C611.641 15.321 611.37 14.5883 611.006 13.879C610.642 13.165 610.189 12.4837 609.648 11.835L610.404 11.247C610.955 11.877 611.426 12.5793 611.818 13.354C612.215 14.1287 612.518 14.9453 612.728 15.804C612.943 16.658 613.048 17.5167 613.043 18.38C613.048 19.2433 612.943 20.102 612.728 20.956C612.518 21.81 612.215 22.6243 611.818 23.399C611.426 24.1783 610.955 24.883 610.404 25.513Z" fill="#9CA5AC"/>
<path d="M340 67H620V129C620 131.209 618.209 133 616 133H344C341.791 133 340 131.209 340 129V67Z" fill="#F6F7F8"/>
<path d="M361.26 111V98.04H362.583V103.881H369.747V98.04H371.061V111H369.747V105.15H362.583V111H361.26ZM377.641 111.27C376.675 111.27 375.85 111.051 375.166 110.613C374.482 110.175 373.957 109.569 373.591 108.795C373.225 108.021 373.042 107.133 373.042 106.131C373.042 105.111 373.228 104.217 373.6 103.449C373.972 102.681 374.5 102.084 375.184 101.658C375.874 101.226 376.693 101.01 377.641 101.01C378.613 101.01 379.441 101.229 380.125 101.667C380.815 102.099 381.34 102.702 381.7 103.476C382.066 104.244 382.249 105.129 382.249 106.131C382.249 107.151 382.066 108.048 381.7 108.822C381.334 109.59 380.806 110.19 380.116 110.622C379.426 111.054 378.601 111.27 377.641 111.27ZM377.641 110.001C378.721 110.001 379.525 109.644 380.053 108.93C380.581 108.21 380.845 107.277 380.845 106.131C380.845 104.955 380.578 104.019 380.044 103.323C379.516 102.627 378.715 102.279 377.641 102.279C376.915 102.279 376.315 102.444 375.841 102.774C375.373 103.098 375.022 103.551 374.788 104.133C374.56 104.709 374.446 105.375 374.446 106.131C374.446 107.301 374.716 108.24 375.256 108.948C375.796 109.65 376.591 110.001 377.641 110.001ZM384.226 111V101.28H385.405L389.194 109.236L392.992 101.28H394.162V111H392.884V104.106L389.617 111H388.78L385.513 104.106V111H384.226ZM400.793 111.27C399.845 111.27 399.023 111.06 398.327 110.64C397.637 110.22 397.1 109.629 396.716 108.867C396.332 108.105 396.14 107.211 396.14 106.185C396.14 105.123 396.329 104.205 396.707 103.431C397.085 102.657 397.616 102.06 398.3 101.64C398.99 101.22 399.803 101.01 400.739 101.01C401.699 101.01 402.518 101.232 403.196 101.676C403.874 102.114 404.387 102.744 404.735 103.566C405.083 104.388 405.242 105.369 405.212 106.509H403.862V106.041C403.838 104.781 403.565 103.83 403.043 103.188C402.527 102.546 401.771 102.225 400.775 102.225C399.731 102.225 398.93 102.564 398.372 103.242C397.82 103.92 397.544 104.886 397.544 106.14C397.544 107.364 397.82 108.315 398.372 108.993C398.93 109.665 399.719 110.001 400.739 110.001C401.435 110.001 402.041 109.842 402.557 109.524C403.079 109.2 403.49 108.735 403.79 108.129L405.023 108.606C404.639 109.452 404.072 110.109 403.322 110.577C402.578 111.039 401.735 111.27 400.793 111.27ZM397.076 106.509V105.402H404.501V106.509H397.076ZM411.574 111.27C410.68 111.27 409.924 111.045 409.306 110.595C408.688 110.139 408.22 109.524 407.902 108.75C407.584 107.97 407.425 107.097 407.425 106.131C407.425 105.147 407.584 104.271 407.902 103.503C408.226 102.729 408.7 102.12 409.324 101.676C409.948 101.232 410.716 101.01 411.628 101.01C412.516 101.01 413.278 101.235 413.914 101.685C414.55 102.135 415.036 102.747 415.372 103.521C415.714 104.295 415.885 105.165 415.885 106.131C415.885 107.103 415.714 107.976 415.372 108.75C415.03 109.524 414.538 110.139 413.896 110.595C413.254 111.045 412.48 111.27 411.574 111.27ZM407.2 115.32V101.28H408.388V108.597H408.532V115.32H407.2ZM411.439 110.037C412.117 110.037 412.681 109.866 413.131 109.524C413.581 109.182 413.917 108.717 414.139 108.129C414.367 107.535 414.481 106.869 414.481 106.131C414.481 105.399 414.37 104.739 414.148 104.151C413.926 103.563 413.587 103.098 413.131 102.756C412.681 102.414 412.108 102.243 411.412 102.243C410.734 102.243 410.17 102.408 409.72 102.738C409.276 103.068 408.943 103.527 408.721 104.115C408.499 104.697 408.388 105.369 408.388 106.131C408.388 106.881 408.499 107.553 408.721 108.147C408.943 108.735 409.279 109.197 409.729 109.533C410.179 109.869 410.749 110.037 411.439 110.037ZM420.862 113.16V109.731C421.366 109.731 421.771 109.605 422.077 109.353C422.383 109.095 422.617 108.753 422.779 108.327C422.941 107.901 423.064 107.424 423.148 106.896C423.232 106.362 423.304 105.822 423.364 105.276C423.448 104.478 423.514 103.707 423.562 102.963C423.616 102.219 423.661 101.448 423.697 100.65C423.739 99.852 423.787 98.979 423.841 98.031L431.833 98.04V109.731H432.76V113.16H431.446V111H422.185V113.16H420.862ZM423.391 109.731H430.51V99.309L425.074 99.3C425.038 100.032 425.002 100.74 424.966 101.424C424.93 102.108 424.888 102.798 424.84 103.494C424.792 104.19 424.729 104.916 424.651 105.672C424.585 106.362 424.507 106.965 424.417 107.481C424.327 107.997 424.201 108.438 424.039 108.804C423.883 109.17 423.667 109.479 423.391 109.731ZM438.85 111.27C437.902 111.27 437.08 111.06 436.384 110.64C435.694 110.22 435.157 109.629 434.773 108.867C434.389 108.105 434.197 107.211 434.197 106.185C434.197 105.123 434.386 104.205 434.764 103.431C435.142 102.657 435.673 102.06 436.357 101.64C437.047 101.22 437.86 101.01 438.796 101.01C439.756 101.01 440.575 101.232 441.253 101.676C441.931 102.114 442.444 102.744 442.792 103.566C443.14 104.388 443.299 105.369 443.269 106.509H441.919V106.041C441.895 104.781 441.622 103.83 441.1 103.188C440.584 102.546 439.828 102.225 438.832 102.225C437.788 102.225 436.987 102.564 436.429 103.242C435.877 103.92 435.601 104.886 435.601 106.14C435.601 107.364 435.877 108.315 436.429 108.993C436.987 109.665 437.776 110.001 438.796 110.001C439.492 110.001 440.098 109.842 440.614 109.524C441.136 109.2 441.547 108.735 441.847 108.129L443.08 108.606C442.696 109.452 442.129 110.109 441.379 110.577C440.635 111.039 439.792 111.27 438.85 111.27ZM435.133 106.509V105.402H442.558V106.509H435.133ZM444.366 111V109.839C444.726 109.905 444.999 109.89 445.185 109.794C445.377 109.692 445.518 109.524 445.608 109.29C445.698 109.05 445.773 108.753 445.833 108.399C445.929 107.811 446.016 107.163 446.094 106.455C446.172 105.747 446.241 104.967 446.301 104.115C446.367 103.257 446.433 102.312 446.499 101.28H453.105V111H451.791V102.549H447.723C447.681 103.185 447.633 103.818 447.579 104.448C447.525 105.078 447.468 105.684 447.408 106.266C447.354 106.842 447.294 107.373 447.228 107.859C447.162 108.345 447.093 108.765 447.021 109.119C446.913 109.653 446.769 110.079 446.589 110.397C446.415 110.715 446.154 110.925 445.806 111.027C445.458 111.129 444.978 111.12 444.366 111ZM459.678 111.27C458.712 111.27 457.887 111.051 457.203 110.613C456.519 110.175 455.994 109.569 455.628 108.795C455.262 108.021 455.079 107.133 455.079 106.131C455.079 105.111 455.265 104.217 455.637 103.449C456.009 102.681 456.537 102.084 457.221 101.658C457.911 101.226 458.73 101.01 459.678 101.01C460.65 101.01 461.478 101.229 462.162 101.667C462.852 102.099 463.377 102.702 463.737 103.476C464.103 104.244 464.286 105.129 464.286 106.131C464.286 107.151 464.103 108.048 463.737 108.822C463.371 109.59 462.843 110.19 462.153 110.622C461.463 111.054 460.638 111.27 459.678 111.27ZM459.678 110.001C460.758 110.001 461.562 109.644 462.09 108.93C462.618 108.21 462.882 107.277 462.882 106.131C462.882 104.955 462.615 104.019 462.081 103.323C461.553 102.627 460.752 102.279 459.678 102.279C458.952 102.279 458.352 102.444 457.878 102.774C457.41 103.098 457.059 103.551 456.825 104.133C456.597 104.709 456.483 105.375 456.483 106.131C456.483 107.301 456.753 108.24 457.293 108.948C457.833 109.65 458.628 110.001 459.678 110.001ZM470.88 115.05V111.189C469.932 111.339 469.068 111.237 468.288 110.883C467.508 110.523 466.887 109.941 466.425 109.137C465.963 108.333 465.732 107.337 465.732 106.149C465.732 104.961 465.963 103.965 466.425 103.161C466.887 102.351 467.508 101.766 468.288 101.406C469.068 101.046 469.932 100.941 470.88 101.091V98.112H472.104V101.091C473.052 100.941 473.916 101.046 474.696 101.406C475.476 101.766 476.097 102.351 476.559 103.161C477.021 103.965 477.252 104.961 477.252 106.149C477.252 107.337 477.021 108.333 476.559 109.137C476.097 109.941 475.476 110.523 474.696 110.883C473.916 111.237 473.052 111.339 472.104 111.189V115.05H470.88ZM470.88 109.956V102.333C470.394 102.249 469.926 102.264 469.476 102.378C469.026 102.486 468.621 102.699 468.261 103.017C467.901 103.329 467.616 103.746 467.406 104.268C467.202 104.784 467.1 105.411 467.1 106.149C467.1 106.887 467.205 107.517 467.415 108.039C467.625 108.555 467.91 108.969 468.27 109.281C468.63 109.593 469.035 109.803 469.485 109.911C469.935 110.019 470.4 110.034 470.88 109.956ZM472.104 109.956C472.584 110.034 473.049 110.019 473.499 109.911C473.949 109.803 474.354 109.596 474.714 109.29C475.074 108.978 475.359 108.564 475.569 108.048C475.779 107.526 475.884 106.893 475.884 106.149C475.884 105.405 475.779 104.775 475.569 104.259C475.365 103.737 475.083 103.32 474.723 103.008C474.363 102.696 473.958 102.486 473.508 102.378C473.058 102.264 472.59 102.249 472.104 102.333V109.956ZM483.286 111.27C482.32 111.27 481.495 111.051 480.811 110.613C480.127 110.175 479.602 109.569 479.236 108.795C478.87 108.021 478.687 107.133 478.687 106.131C478.687 105.111 478.873 104.217 479.245 103.449C479.617 102.681 480.145 102.084 480.829 101.658C481.519 101.226 482.338 101.01 483.286 101.01C484.258 101.01 485.086 101.229 485.77 101.667C486.46 102.099 486.985 102.702 487.345 103.476C487.711 104.244 487.894 105.129 487.894 106.131C487.894 107.151 487.711 108.048 487.345 108.822C486.979 109.59 486.451 110.19 485.761 110.622C485.071 111.054 484.246 111.27 483.286 111.27ZM483.286 110.001C484.366 110.001 485.17 109.644 485.698 108.93C486.226 108.21 486.49 107.277 486.49 106.131C486.49 104.955 486.223 104.019 485.689 103.323C485.161 102.627 484.36 102.279 483.286 102.279C482.56 102.279 481.96 102.444 481.486 102.774C481.018 103.098 480.667 103.551 480.433 104.133C480.205 104.709 480.091 105.375 480.091 106.131C480.091 107.301 480.361 108.24 480.901 108.948C481.441 109.65 482.236 110.001 483.286 110.001ZM489.87 111V101.28H491.193V105.501H496.674V101.28H497.997V111H496.674V106.77H491.193V111H489.87Z" fill="#344351"/>
<path d="M507.913 90.513C507.363 89.883 506.889 89.1783 506.492 88.399C506.1 87.6243 505.797 86.81 505.582 85.956C505.372 85.102 505.27 84.2433 505.274 83.38C505.27 82.5167 505.372 81.658 505.582 80.804C505.797 79.9453 506.1 79.1287 506.492 78.354C506.889 77.5793 507.363 76.877 507.913 76.247L508.669 76.835C508.128 77.4837 507.675 78.165 507.311 78.879C506.947 79.5883 506.674 80.321 506.492 81.077C506.315 81.833 506.224 82.6007 506.219 83.38C506.224 84.15 506.317 84.9177 506.499 85.683C506.686 86.4437 506.959 87.1833 507.318 87.902C507.682 88.616 508.133 89.2857 508.669 89.911L507.913 90.513ZM509.135 89.68V87.118C509.564 87.118 509.872 86.9803 510.059 86.705C510.246 86.425 510.397 85.9793 510.514 85.368C510.593 84.9713 510.659 84.5443 510.71 84.087C510.761 83.6297 510.806 83.107 510.843 82.519C510.88 81.9263 510.915 81.2333 510.948 80.44H515.946V87.118H516.674V89.68H515.68V88H510.122V89.68H509.135ZM510.878 87.118H514.924V81.322H511.9C511.886 81.6767 511.865 82.0523 511.837 82.449C511.814 82.8457 511.783 83.2423 511.746 83.639C511.713 84.0357 511.674 84.409 511.627 84.759C511.585 85.1043 511.534 85.4077 511.473 85.669C511.403 86.005 511.326 86.292 511.242 86.53C511.163 86.768 511.041 86.964 510.878 87.118ZM517.376 88V87.097C517.656 87.1483 517.868 87.1367 518.013 87.062C518.162 86.9827 518.272 86.852 518.342 86.67C518.412 86.4833 518.47 86.2523 518.517 85.977C518.591 85.5197 518.659 85.0157 518.72 84.465C518.78 83.9143 518.834 83.3077 518.881 82.645C518.932 81.9777 518.983 81.2427 519.035 80.44H524.173V88H523.151V81.427H519.987C519.954 81.9217 519.917 82.414 519.875 82.904C519.833 83.394 519.788 83.8653 519.742 84.318C519.7 84.766 519.653 85.179 519.602 85.557C519.55 85.935 519.497 86.2617 519.441 86.537C519.357 86.9523 519.245 87.2837 519.105 87.531C518.969 87.7783 518.766 87.9417 518.496 88.021C518.225 88.1003 517.852 88.0933 517.376 88ZM530.867 88V85.151H529.103C528.898 85.151 528.686 85.144 528.466 85.13C528.252 85.1113 528.051 85.0857 527.864 85.053C527.332 84.9503 526.88 84.717 526.506 84.353C526.138 83.9843 525.953 83.4757 525.953 82.827C525.953 82.1923 526.126 81.6837 526.471 81.301C526.817 80.9137 527.234 80.6617 527.724 80.545C527.948 80.4937 528.175 80.4633 528.403 80.454C528.637 80.4447 528.837 80.44 529.005 80.44H531.896L531.903 88H530.867ZM525.708 88L527.815 84.829H528.956L526.835 88H525.708ZM529.047 84.269H530.867V81.322H529.047C528.935 81.322 528.779 81.3267 528.578 81.336C528.378 81.3453 528.189 81.3757 528.011 81.427C527.857 81.4737 527.703 81.5553 527.549 81.672C527.4 81.784 527.274 81.9357 527.171 82.127C527.069 82.3137 527.017 82.5423 527.017 82.813C527.017 83.191 527.12 83.4943 527.325 83.723C527.535 83.947 527.797 84.101 528.109 84.185C528.277 84.2223 528.445 84.2457 528.613 84.255C528.781 84.2643 528.926 84.269 529.047 84.269ZM542.675 80.44V88H541.674V82.113L537.53 88H536.662V80.44H537.663V86.278L541.814 80.44H542.675ZM547.776 88.21C547.015 88.21 546.371 88.0397 545.844 87.699C545.317 87.3583 544.915 86.8893 544.64 86.292C544.369 85.69 544.229 84.9993 544.22 84.22C544.229 83.4267 544.374 82.7313 544.654 82.134C544.934 81.532 545.338 81.0653 545.865 80.734C546.392 80.398 547.032 80.23 547.783 80.23C548.548 80.23 549.213 80.4167 549.778 80.79C550.347 81.1633 550.737 81.6743 550.947 82.323L549.939 82.645C549.762 82.1923 549.479 81.8423 549.092 81.595C548.709 81.343 548.271 81.217 547.776 81.217C547.221 81.217 546.761 81.3453 546.397 81.602C546.033 81.854 545.762 82.2063 545.585 82.659C545.408 83.1117 545.317 83.632 545.312 84.22C545.321 85.1253 545.531 85.8533 545.942 86.404C546.353 86.95 546.964 87.223 547.776 87.223C548.289 87.223 548.726 87.1063 549.085 86.873C549.449 86.635 549.724 86.2897 549.911 85.837L550.947 86.145C550.667 86.817 550.256 87.3303 549.715 87.685C549.174 88.035 548.527 88.21 547.776 88.21ZM551.552 88L554.506 84.178L551.615 80.44H552.847L555.108 83.387L557.348 80.44H558.58L555.689 84.178L558.65 88H557.411L555.108 84.969L552.791 88H551.552ZM562.658 88.21C561.907 88.21 561.265 88.0397 560.733 87.699C560.201 87.3583 559.793 86.887 559.508 86.285C559.224 85.683 559.081 84.9923 559.081 84.213C559.081 83.4197 559.226 82.7243 559.515 82.127C559.805 81.5297 560.215 81.0653 560.747 80.734C561.284 80.398 561.921 80.23 562.658 80.23C563.414 80.23 564.058 80.4003 564.59 80.741C565.127 81.077 565.535 81.546 565.815 82.148C566.1 82.7453 566.242 83.4337 566.242 84.213C566.242 85.0063 566.1 85.704 565.815 86.306C565.531 86.9033 565.12 87.37 564.583 87.706C564.047 88.042 563.405 88.21 562.658 88.21ZM562.658 87.223C563.498 87.223 564.124 86.9453 564.534 86.39C564.945 85.83 565.15 85.1043 565.15 84.213C565.15 83.2983 564.943 82.5703 564.527 82.029C564.117 81.4877 563.494 81.217 562.658 81.217C562.094 81.217 561.627 81.3453 561.258 81.602C560.894 81.854 560.621 82.2063 560.439 82.659C560.262 83.107 560.173 83.625 560.173 84.213C560.173 85.123 560.383 85.8533 560.803 86.404C561.223 86.95 561.842 87.223 562.658 87.223ZM567.227 89.68V87.118C567.656 87.118 567.964 86.9803 568.151 86.705C568.337 86.425 568.489 85.9793 568.606 85.368C568.685 84.9713 568.75 84.5443 568.802 84.087C568.853 83.6297 568.897 83.107 568.935 82.519C568.972 81.9263 569.007 81.2333 569.04 80.44H574.038V87.118H574.766V89.68H573.772V88H568.214V89.68H567.227ZM568.97 87.118H573.016V81.322H569.992C569.978 81.6767 569.957 82.0523 569.929 82.449C569.905 82.8457 569.875 83.2423 569.838 83.639C569.805 84.0357 569.765 84.409 569.719 84.759C569.677 85.1043 569.625 85.4077 569.565 85.669C569.495 86.005 569.418 86.292 569.334 86.53C569.254 86.768 569.133 86.964 568.97 87.118ZM580.907 88V85.151H579.142C578.937 85.151 578.725 85.144 578.506 85.13C578.291 85.1113 578.09 85.0857 577.904 85.053C577.372 84.9503 576.919 84.717 576.546 84.353C576.177 83.9843 575.993 83.4757 575.993 82.827C575.993 82.1923 576.165 81.6837 576.511 81.301C576.856 80.9137 577.274 80.6617 577.764 80.545C577.988 80.4937 578.214 80.4633 578.443 80.454C578.676 80.4447 578.877 80.44 579.044 80.44H581.936L581.943 88H580.907ZM575.748 88L577.855 84.829H578.996L576.875 88H575.748ZM579.087 84.269H580.907V81.322H579.087C578.975 81.322 578.818 81.3267 578.618 81.336C578.417 81.3453 578.228 81.3757 578.051 81.427C577.897 81.4737 577.743 81.5553 577.589 81.672C577.439 81.784 577.313 81.9357 577.211 82.127C577.108 82.3137 577.057 82.5423 577.057 82.813C577.057 83.191 577.159 83.4943 577.365 83.723C577.575 83.947 577.836 84.101 578.149 84.185C578.317 84.2223 578.485 84.2457 578.653 84.255C578.821 84.2643 578.965 84.269 579.087 84.269ZM592.523 89.309V88H583.899V80.44H584.9V87.048H587.735V80.44H588.736V87.048H591.564V80.44H592.565V87.048H593.552V89.309H592.523ZM600.672 80.44V88H599.671V82.113L595.527 88H594.659V80.44H595.66V86.278L599.811 80.44H600.672ZM601.796 88L604.75 84.178L601.859 80.44H603.091L605.352 83.387L607.592 80.44H608.824L605.933 84.178L608.894 88H607.655L605.352 84.969L603.035 88H601.796ZM610.404 90.513L609.648 89.911C610.185 89.2857 610.633 88.616 610.992 87.902C611.356 87.1833 611.629 86.4437 611.811 85.683C611.998 84.9177 612.093 84.15 612.098 83.38C612.093 82.6007 612 81.833 611.818 81.077C611.641 80.321 611.37 79.5883 611.006 78.879C610.642 78.165 610.189 77.4837 609.648 76.835L610.404 76.247C610.955 76.877 611.426 77.5793 611.818 78.354C612.215 79.1287 612.518 79.9453 612.728 80.804C612.943 81.658 613.048 82.5167 613.043 83.38C613.048 84.2433 612.943 85.102 612.728 85.956C612.518 86.81 612.215 87.6243 611.818 88.399C611.426 89.1783 610.955 89.883 610.404 90.513Z" fill="#9CA5AC"/>
<rect x="340.5" y="0.5" width="279" height="132" rx="3.5" stroke="#344351"/>
<rect x="705.5" y="0.5" width="404" height="132" rx="3.5" fill="white"/>
<path d="M705 67H1110V129C1110 131.209 1108.21 133 1106 133H709C706.791 133 705 131.209 705 129V67Z" fill="white"/>
<path d="M820.65 107.5V93.1H822.12V99.9L828.69 93.1H830.57L823.86 100.05L831.12 107.5H829.2L822.12 100.3V107.5H820.65ZM830.724 107.5V106.21C831.124 106.283 831.428 106.267 831.634 106.16C831.848 106.047 832.004 105.86 832.104 105.6C832.204 105.333 832.288 105.003 832.354 104.61C832.461 103.957 832.558 103.237 832.644 102.45C832.731 101.663 832.808 100.797 832.874 99.85C832.948 98.8967 833.021 97.8467 833.094 96.7H840.434V107.5H838.974V98.11H834.454C834.408 98.8167 834.354 99.52 834.294 100.22C834.234 100.92 834.171 101.593 834.104 102.24C834.044 102.88 833.978 103.47 833.904 104.01C833.831 104.55 833.754 105.017 833.674 105.41C833.554 106.003 833.394 106.477 833.194 106.83C833.001 107.183 832.711 107.417 832.324 107.53C831.938 107.643 831.404 107.633 830.724 107.5ZM851.808 96.7V107.5H850.378V99.09L844.458 107.5H843.218V96.7H844.648V105.04L850.578 96.7H851.808ZM859.185 107.8C858.132 107.8 857.218 107.567 856.445 107.1C855.678 106.633 855.082 105.977 854.655 105.13C854.228 104.283 854.015 103.29 854.015 102.15C854.015 100.97 854.225 99.95 854.645 99.09C855.065 98.23 855.655 97.5667 856.415 97.1C857.182 96.6333 858.085 96.4 859.125 96.4C860.192 96.4 861.102 96.6467 861.855 97.14C862.608 97.6267 863.178 98.3267 863.565 99.24C863.952 100.153 864.128 101.243 864.095 102.51H862.595V101.99C862.568 100.59 862.265 99.5333 861.685 98.82C861.112 98.1067 860.272 97.75 859.165 97.75C858.005 97.75 857.115 98.1267 856.495 98.88C855.882 99.6333 855.575 100.707 855.575 102.1C855.575 103.46 855.882 104.517 856.495 105.27C857.115 106.017 857.992 106.39 859.125 106.39C859.898 106.39 860.572 106.213 861.145 105.86C861.725 105.5 862.182 104.983 862.515 104.31L863.885 104.84C863.458 105.78 862.828 106.51 861.995 107.03C861.168 107.543 860.232 107.8 859.185 107.8ZM855.055 102.51V101.28H863.305V102.51H855.055ZM866.304 107.5V96.7H867.774V101.39H873.864V96.7H875.334V107.5H873.864V102.8H867.774V107.5H866.304ZM881.06 107.5V98.06H877.23V96.7H886.36V98.06H882.53V107.5H881.06ZM888.277 107.5L888.257 96.7H889.737V100.77H891.617C891.931 100.77 892.237 100.777 892.537 100.79C892.837 100.803 893.107 100.83 893.347 100.87C893.881 100.977 894.354 101.157 894.767 101.41C895.181 101.663 895.507 102.013 895.747 102.46C895.987 102.9 896.107 103.457 896.107 104.13C896.107 105.057 895.867 105.787 895.387 106.32C894.907 106.853 894.304 107.2 893.577 107.36C893.304 107.42 893.007 107.46 892.687 107.48C892.367 107.493 892.054 107.5 891.747 107.5H888.277ZM889.737 106.24H891.687C891.907 106.24 892.157 106.233 892.437 106.22C892.717 106.207 892.964 106.17 893.177 106.11C893.537 106.01 893.861 105.81 894.147 105.51C894.441 105.203 894.587 104.743 894.587 104.13C894.587 103.523 894.447 103.067 894.167 102.76C893.887 102.447 893.514 102.24 893.047 102.14C892.834 102.093 892.607 102.063 892.367 102.05C892.134 102.037 891.907 102.03 891.687 102.03H889.737V106.24ZM897.397 107.5V96.7H898.867V107.5H897.397ZM905.66 107.5L905.67 96.7H907.15V101.9L911.97 96.7H913.93L908.87 102.1L914.59 107.5H912.45L907.15 102.3V107.5H905.66ZM919.906 107.8C918.833 107.8 917.916 107.557 917.156 107.07C916.396 106.583 915.813 105.91 915.406 105.05C914.999 104.19 914.796 103.203 914.796 102.09C914.796 100.957 915.003 99.9633 915.416 99.11C915.829 98.2567 916.416 97.5933 917.176 97.12C917.943 96.64 918.853 96.4 919.906 96.4C920.986 96.4 921.906 96.6433 922.666 97.13C923.433 97.61 924.016 98.28 924.416 99.14C924.823 99.9933 925.026 100.977 925.026 102.09C925.026 103.223 924.823 104.22 924.416 105.08C924.009 105.933 923.423 106.6 922.656 107.08C921.889 107.56 920.973 107.8 919.906 107.8ZM919.906 106.39C921.106 106.39 921.999 105.993 922.586 105.2C923.173 104.4 923.466 103.363 923.466 102.09C923.466 100.783 923.169 99.7433 922.576 98.97C921.989 98.1967 921.099 97.81 919.906 97.81C919.099 97.81 918.433 97.9933 917.906 98.36C917.386 98.72 916.996 99.2233 916.736 99.87C916.483 100.51 916.356 101.25 916.356 102.09C916.356 103.39 916.656 104.433 917.256 105.22C917.856 106 918.739 106.39 919.906 106.39ZM927.222 107.5V96.7H928.532L932.742 105.54L936.962 96.7H938.262V107.5H936.842V99.84L933.212 107.5H932.282L928.652 99.84V107.5H927.222ZM941.05 107.5V96.7H949.64V107.5H948.17V98.11H942.52V107.5H941.05ZM955.537 107.8C954.724 107.8 954.04 107.653 953.487 107.36C952.94 107.067 952.53 106.677 952.257 106.19C951.984 105.703 951.847 105.173 951.847 104.6C951.847 104.013 951.964 103.513 952.197 103.1C952.437 102.68 952.76 102.337 953.167 102.07C953.58 101.803 954.057 101.6 954.597 101.46C955.144 101.327 955.747 101.21 956.407 101.11C957.074 101.003 957.724 100.913 958.357 100.84C958.997 100.76 959.557 100.683 960.037 100.61L959.517 100.93C959.537 99.8633 959.33 99.0733 958.897 98.56C958.464 98.0467 957.71 97.79 956.637 97.79C955.897 97.79 955.27 97.9567 954.757 98.29C954.25 98.6233 953.894 99.15 953.687 99.87L952.257 99.45C952.504 98.4833 953 97.7333 953.747 97.2C954.494 96.6667 955.464 96.4 956.657 96.4C957.644 96.4 958.48 96.5867 959.167 96.96C959.86 97.3267 960.35 97.86 960.637 98.56C960.77 98.8733 960.857 99.2233 960.897 99.61C960.937 99.9967 960.957 100.39 960.957 100.79V107.5H959.647V104.79L960.027 104.95C959.66 105.877 959.09 106.583 958.317 107.07C957.544 107.557 956.617 107.8 955.537 107.8ZM955.707 106.53C956.394 106.53 956.994 106.407 957.507 106.16C958.02 105.913 958.434 105.577 958.747 105.15C959.06 104.717 959.264 104.23 959.357 103.69C959.437 103.343 959.48 102.963 959.487 102.55C959.494 102.13 959.497 101.817 959.497 101.61L960.057 101.9C959.557 101.967 959.014 102.033 958.427 102.1C957.847 102.167 957.274 102.243 956.707 102.33C956.147 102.417 955.64 102.52 955.187 102.64C954.88 102.727 954.584 102.85 954.297 103.01C954.01 103.163 953.774 103.37 953.587 103.63C953.407 103.89 953.317 104.213 953.317 104.6C953.317 104.913 953.394 105.217 953.547 105.51C953.707 105.803 953.96 106.047 954.307 106.24C954.66 106.433 955.127 106.53 955.707 106.53ZM963.55 107.5V96.7H965.02V101.39H971.11V96.7H972.58V107.5H971.11V102.8H965.02V107.5H963.55ZM983.957 96.7V107.5H982.527V99.09L976.607 107.5H975.367V96.7H976.797V105.04L982.727 96.7H983.957ZM995.343 96.7V107.5H993.913V99.09L987.993 107.5H986.753V96.7H988.183V105.04L994.113 96.7H995.343Z" fill="#344351"/>
<circle cx="818" cy="48" r="29.5" fill="white" stroke="#344351"/>
<ellipse cx="818" cy="40.5" rx="7" ry="7.5" fill="#F88C28"/>
<path d="M829.678 62H806.322C805.659 62 805.182 61.3671 805.411 60.745C806.968 56.5346 811.053 50 818 50C824.947 50 829.032 56.5346 830.589 60.745C830.818 61.3671 830.341 62 829.678 62Z" fill="#F88C28" stroke="#F88C28"/>
<circle cx="863" cy="48" r="29.5" fill="white" stroke="#344351"/>
<ellipse cx="863" cy="40.5" rx="7" ry="7.5" fill="#F88C28"/>
<path d="M874.678 62H851.322C850.659 62 850.182 61.3671 850.411 60.745C851.968 56.5346 856.053 50 863 50C869.947 50 874.032 56.5346 875.589 60.745C875.818 61.3671 875.341 62 874.678 62Z" fill="#F88C28" stroke="#F88C28"/>
<circle cx="908" cy="48" r="29.5" fill="white" stroke="#344351"/>
<ellipse cx="908" cy="40.5" rx="7" ry="7.5" fill="#F88C28"/>
<path d="M919.678 62H896.322C895.659 62 895.182 61.3671 895.411 60.745C896.968 56.5346 901.053 50 908 50C914.947 50 919.032 56.5346 920.589 60.745C920.818 61.3671 920.341 62 919.678 62Z" fill="#F88C28" stroke="#F88C28"/>
<circle cx="953" cy="48" r="29.5" fill="white" stroke="#344351"/>
<ellipse cx="953" cy="40.5" rx="7" ry="7.5" fill="#F88C28"/>
<path d="M964.678 62H941.322C940.659 62 940.182 61.3671 940.411 60.745C941.968 56.5346 946.053 50 953 50C959.947 50 964.032 56.5346 965.589 60.745C965.818 61.3671 965.341 62 964.678 62Z" fill="#F88C28" stroke="#F88C28"/>
<circle cx="998" cy="48" r="29.5" fill="white" stroke="#344351"/>
<ellipse cx="998" cy="40.5" rx="7" ry="7.5" fill="#F88C28"/>
<path d="M1009.68 62H986.322C985.659 62 985.182 61.3671 985.411 60.745C986.968 56.5346 991.053 50 998 50C1004.95 50 1009.03 56.5346 1010.59 60.745C1010.82 61.3671 1010.34 62 1009.68 62Z" fill="#F88C28" stroke="#F88C28"/>
<rect x="705.5" y="0.5" width="404" height="132" rx="3.5" stroke="#344351"/>
<path d="M625 57.5C624.724 57.5 624.5 57.7239 624.5 58C624.5 58.2761 624.724 58.5 625 58.5L625 57.5ZM700.354 58.3536C700.549 58.1583 700.549 57.8417 700.354 57.6465L697.172 54.4645C696.976 54.2692 696.66 54.2692 696.464 54.4645C696.269 54.6597 696.269 54.9763 696.464 55.1716L699.293 58L696.464 60.8284C696.269 61.0237 696.269 61.3403 696.464 61.5355C696.66 61.7308 696.976 61.7308 697.172 61.5355L700.354 58.3536ZM625 58.5L700 58.5L700 57.5L625 57.5L625 58.5Z" fill="#F88C28"/>
<path d="M700 75.5C700.276 75.5 700.5 75.2761 700.5 75C700.5 74.7239 700.276 74.5 700 74.5L700 75.5ZM624.646 74.6464C624.451 74.8417 624.451 75.1583 624.646 75.3535L627.828 78.5355C628.024 78.7308 628.34 78.7308 628.536 78.5355C628.731 78.3403 628.731 78.0237 628.536 77.8284L625.707 75L628.536 72.1716C628.731 71.9763 628.731 71.6597 628.536 71.4645C628.34 71.2692 628.024 71.2692 627.828 71.4645L624.646 74.6464ZM700 74.5L625 74.5L625 75.5L700 75.5L700 74.5Z" fill="#F88C28"/>
<rect x="0.5" y="0.5" width="254" height="132" rx="3.5" fill="white" stroke="#344351"/>
<g clip-path="url(#clip0_7265_46677)">
<path d="M186.704 74.1826V80.6631H180.522V74.1826H176.227V91.0777H180.522V84.3752H186.704V91.0777H191V74.1826H186.704Z" fill="#2B8FEB"/>
<path d="M167.61 74.2447C166.268 74.0072 164.889 74.1144 163.596 74.557C161.706 75.2141 160.114 76.5642 159.116 78.3535C158.119 80.1428 157.787 82.2481 158.181 84.2737C158.576 86.2994 159.67 88.1059 161.258 89.3539C162.847 90.6018 164.82 91.2052 166.807 91.0506C168.794 90.8961 170.659 89.9942 172.05 88.5146C173.441 87.0349 174.263 85.0793 174.362 83.0153C174.46 80.9513 173.829 78.9209 172.585 77.3059C171.342 75.6909 169.573 74.6023 167.61 74.2447ZM167.289 87.1016C166.156 87.3717 164.967 87.1752 163.972 86.5534C162.976 85.9316 162.252 84.9332 161.953 83.7687C161.654 82.6043 161.802 81.3647 162.367 80.3115C162.932 79.2583 163.869 78.4738 164.981 78.1233C165.771 77.898 166.606 77.898 167.396 78.1233C168.363 78.3869 169.218 78.9782 169.823 79.8032C170.429 80.6283 170.752 81.6397 170.739 82.6766C170.727 83.7136 170.381 84.7165 169.756 85.5258C169.13 86.3352 168.262 86.9045 167.289 87.1433V87.1016Z" fill="#2B8FEB"/>
<path d="M128.327 73.3633V77.8871C129.343 78.4003 130.162 79.2556 130.649 80.3134C131.136 81.3712 131.263 82.569 131.009 83.7113C130.755 84.8536 130.136 85.8729 129.251 86.6028C128.366 87.3328 127.269 87.7301 126.139 87.7301C125.009 87.7301 123.912 87.3328 123.027 86.6028C122.142 85.8729 121.523 84.8536 121.269 83.7113C121.015 82.569 121.142 81.3712 121.629 80.3134C122.116 79.2556 122.935 78.4003 123.951 77.8871V73.3633C121.788 73.9175 119.896 75.2736 118.631 77.1755C117.367 79.0774 116.817 81.3936 117.086 83.687C117.356 85.9803 118.425 88.0921 120.093 89.6238C121.761 91.1556 123.911 92.0012 126.139 92.0012C128.367 92.0012 130.518 91.1556 132.185 89.6238C133.853 88.0921 134.922 85.9803 135.192 83.687C135.461 81.3936 134.911 79.0774 133.647 77.1755C132.382 75.2736 130.49 73.9175 128.327 73.3633Z" fill="#2B8FEB"/>
<path d="M123.364 83.0352C123.458 83.5681 123.69 84.0646 124.034 84.4721C124.378 84.8796 124.823 85.183 125.32 85.3501C125.817 85.5172 126.348 85.5418 126.857 85.4213C127.367 85.3009 127.835 85.0398 128.213 84.6658C128.591 84.2918 128.865 83.8187 129.004 83.2967C129.144 82.7747 129.146 82.2231 129.008 81.7005C128.87 81.1778 128.599 80.7035 128.222 80.3278C127.846 79.952 127.379 79.6888 126.87 79.566V73.0786H125.532V79.5383C124.809 79.7174 124.181 80.1773 123.777 80.8228C123.372 81.4684 123.222 82.2504 123.357 83.0075L123.364 83.0352Z" fill="#2B8FEB"/>
<path d="M148.459 75.4385V74.1826H144.351V75.4385C143.997 75.494 143.682 75.5564 143.307 75.6466C139.46 76.6111 136.684 79.324 136.684 82.5157C136.684 85.9849 139.969 88.899 144.351 89.5998V91.0777H148.459V89.5998C152.842 88.9059 156.127 85.9987 156.127 82.5157C156.127 79.0326 152.842 76.1462 148.459 75.4385ZM141.099 82.5157C141.099 80.8643 142.438 79.4558 144.371 78.8522V86.1861C142.431 85.5824 141.079 84.167 141.079 82.5157H141.099ZM148.459 86.1861V78.8522C150.38 79.4558 151.731 80.8643 151.731 82.5157C151.731 84.167 150.38 85.5824 148.459 86.1861Z" fill="#2B8FEB"/>
<path d="M75.297 68H65C65 69.8317 66.2712 70.8448 67.9172 71.3998V87.3582C66.2645 87.8716 65 88.9124 65 91.0772H74.4808C77.2106 91.0772 79.1108 90.7303 80.188 90.0225C81.8607 88.9193 82.2688 87.2472 82.2688 85.0269V74.3695C82.2688 70.0815 80.2683 68 75.297 68ZM77.4247 84.3608C77.4247 86.1162 76.4077 86.9974 74.3537 86.9974C73.7649 86.9974 73.0155 86.9627 72.2528 86.9488V72.059C73.1025 72.0937 73.8652 72.059 74.4139 72.059C76.4702 72.059 77.4961 72.9841 77.4916 74.8343C77.4916 76.7077 77.4247 82.5707 77.4247 84.3608Z" fill="#2B8FEB"/>
<path d="M92.2573 74.2793C86.8712 74.2793 84.4023 78.7823 84.4023 82.8621C84.4023 87.8925 87.4199 91.0495 92.6855 91.0495C94.6024 91.0942 96.5093 90.7501 98.299 90.0365V86.6436C96.7022 87.1272 95.0447 87.361 93.3813 87.3374C91.1332 87.3374 89.1327 86.3521 89.0056 84.2776H99.0149C99.1236 83.6245 99.1773 82.9628 99.1755 82.3001C99.1755 78.3244 97.2753 74.2793 92.2573 74.2793ZM88.9922 80.8569C89.1193 79.5386 89.9423 77.5959 91.9763 77.5959C94.1976 77.5959 94.7061 79.6358 94.7061 80.8569H88.9922Z" fill="#2B8FEB"/>
<path d="M107.632 74.4873C105.624 75.0494 102.446 76.9297 102.446 80.5862V85.6166C102.446 87.9132 101.938 87.9063 101.068 88.7874C100.787 89.0644 100.567 89.4014 100.424 89.7752C100.28 90.149 100.217 90.5506 100.238 90.9522H104.561C106.16 90.9522 106.983 88.5654 106.983 85.6304V80.947C106.981 80.1549 107.282 79.3943 107.819 78.8308C108.462 78.2069 109.29 77.8277 110.167 77.7553H110.368V90.9383H114.998V74.2861H108.642C108.298 74.308 107.959 74.3756 107.632 74.4873Z" fill="#2B8FEB"/>
</g>
<path d="M95.0897 56V46.907H91.5687V45.92H99.6397V46.907H96.1187V56H95.0897ZM102.977 56.21C102.24 56.21 101.6 56.0467 101.059 55.72C100.522 55.3933 100.105 54.9337 99.8059 54.341C99.5072 53.7483 99.3579 53.053 99.3579 52.255C99.3579 51.429 99.5049 50.715 99.7989 50.113C100.093 49.511 100.506 49.0467 101.038 48.72C101.575 48.3933 102.207 48.23 102.935 48.23C103.682 48.23 104.319 48.4027 104.846 48.748C105.373 49.0887 105.772 49.5787 106.043 50.218C106.314 50.8573 106.437 51.6203 106.414 52.507H105.364V52.143C105.345 51.163 105.133 50.4233 104.727 49.924C104.326 49.4247 103.738 49.175 102.963 49.175C102.151 49.175 101.528 49.4387 101.094 49.966C100.665 50.4933 100.45 51.2447 100.45 52.22C100.45 53.172 100.665 53.9117 101.094 54.439C101.528 54.9617 102.142 55.223 102.935 55.223C103.476 55.223 103.948 55.0993 104.349 54.852C104.755 54.6 105.075 54.2383 105.308 53.767L106.267 54.138C105.968 54.796 105.527 55.307 104.944 55.671C104.365 56.0303 103.71 56.21 102.977 56.21ZM100.086 52.507V51.646H105.861V52.507H100.086ZM107.267 56V55.097C107.547 55.1483 107.76 55.1367 107.904 55.062C108.054 54.9827 108.163 54.852 108.233 54.67C108.303 54.4833 108.362 54.2523 108.408 53.977C108.483 53.5197 108.551 53.0157 108.611 52.465C108.672 51.9143 108.726 51.3077 108.772 50.645C108.824 49.9777 108.875 49.2427 108.926 48.44H114.064V56H113.042V49.427H109.878C109.846 49.9217 109.808 50.414 109.766 50.904C109.724 51.394 109.68 51.8653 109.633 52.318C109.591 52.766 109.545 53.179 109.493 53.557C109.442 53.935 109.388 54.2617 109.332 54.537C109.248 54.9523 109.136 55.2837 108.996 55.531C108.861 55.7783 108.658 55.9417 108.387 56.021C108.117 56.1003 107.743 56.0933 107.267 56ZM119.219 56.21C118.482 56.21 117.842 56.0467 117.301 55.72C116.764 55.3933 116.347 54.9337 116.048 54.341C115.749 53.7483 115.6 53.053 115.6 52.255C115.6 51.429 115.747 50.715 116.041 50.113C116.335 49.511 116.748 49.0467 117.28 48.72C117.817 48.3933 118.449 48.23 119.177 48.23C119.924 48.23 120.561 48.4027 121.088 48.748C121.615 49.0887 122.014 49.5787 122.285 50.218C122.556 50.8573 122.679 51.6203 122.656 52.507H121.606V52.143C121.587 51.163 121.375 50.4233 120.969 49.924C120.568 49.4247 119.98 49.175 119.205 49.175C118.393 49.175 117.77 49.4387 117.336 49.966C116.907 50.4933 116.692 51.2447 116.692 52.22C116.692 53.172 116.907 53.9117 117.336 54.439C117.77 54.9617 118.384 55.223 119.177 55.223C119.718 55.223 120.19 55.0993 120.591 54.852C120.997 54.6 121.317 54.2383 121.55 53.767L122.509 54.138C122.21 54.796 121.769 55.307 121.186 55.671C120.607 56.0303 119.952 56.21 119.219 56.21ZM116.328 52.507V51.646H122.103V52.507H116.328ZM127.793 59.15V56.147C127.056 56.2637 126.384 56.1843 125.777 55.909C125.171 55.629 124.688 55.1763 124.328 54.551C123.969 53.9257 123.789 53.151 123.789 52.227C123.789 51.303 123.969 50.5283 124.328 49.903C124.688 49.273 125.171 48.818 125.777 48.538C126.384 48.258 127.056 48.1763 127.793 48.293V45.976H128.745V48.293C129.483 48.1763 130.155 48.258 130.761 48.538C131.368 48.818 131.851 49.273 132.21 49.903C132.57 50.5283 132.749 51.303 132.749 52.227C132.749 53.151 132.57 53.9257 132.21 54.551C131.851 55.1763 131.368 55.629 130.761 55.909C130.155 56.1843 129.483 56.2637 128.745 56.147V59.15H127.793ZM127.793 55.188V49.259C127.415 49.1937 127.051 49.2053 126.701 49.294C126.351 49.378 126.036 49.5437 125.756 49.791C125.476 50.0337 125.255 50.358 125.091 50.764C124.933 51.1653 124.853 51.653 124.853 52.227C124.853 52.801 124.935 53.291 125.098 53.697C125.262 54.0983 125.483 54.4203 125.763 54.663C126.043 54.9057 126.358 55.069 126.708 55.153C127.058 55.237 127.42 55.2487 127.793 55.188ZM128.745 55.188C129.119 55.2487 129.48 55.237 129.83 55.153C130.18 55.069 130.495 54.908 130.775 54.67C131.055 54.4273 131.277 54.1053 131.44 53.704C131.604 53.298 131.685 52.8057 131.685 52.227C131.685 51.6483 131.604 51.1583 131.44 50.757C131.282 50.351 131.062 50.0267 130.782 49.784C130.502 49.5413 130.187 49.378 129.837 49.294C129.487 49.2053 129.123 49.1937 128.745 49.259V55.188ZM137.443 56.21C136.691 56.21 136.05 56.0397 135.518 55.699C134.986 55.3583 134.577 54.887 134.293 54.285C134.008 53.683 133.866 52.9923 133.866 52.213C133.866 51.4197 134.01 50.7243 134.3 50.127C134.589 49.5297 135 49.0653 135.532 48.734C136.068 48.398 136.705 48.23 137.443 48.23C138.199 48.23 138.843 48.4003 139.375 48.741C139.911 49.077 140.32 49.546 140.6 50.148C140.884 50.7453 141.027 51.4337 141.027 52.213C141.027 53.0063 140.884 53.704 140.6 54.306C140.315 54.9033 139.904 55.37 139.368 55.706C138.831 56.042 138.189 56.21 137.443 56.21ZM137.443 55.223C138.283 55.223 138.908 54.9453 139.319 54.39C139.729 53.83 139.935 53.1043 139.935 52.213C139.935 51.2983 139.727 50.5703 139.312 50.029C138.901 49.4877 138.278 49.217 137.443 49.217C136.878 49.217 136.411 49.3453 136.043 49.602C135.679 49.854 135.406 50.2063 135.224 50.659C135.046 51.107 134.958 51.625 134.958 52.213C134.958 53.123 135.168 53.8533 135.588 54.404C136.008 54.95 136.626 55.223 137.443 55.223ZM142.564 56V48.44H143.593V51.723H147.856V48.44H148.885V56H147.856V52.71H143.593V56H142.564ZM156.848 48.44V56H155.847V50.113L151.703 56H150.835V48.44H151.836V54.278L155.987 48.44H156.848ZM163.552 56V53.151H161.788C161.583 53.151 161.37 53.144 161.151 53.13C160.936 53.1113 160.736 53.0857 160.549 53.053C160.017 52.9503 159.564 52.717 159.191 52.353C158.822 51.9843 158.638 51.4757 158.638 50.827C158.638 50.1923 158.811 49.6837 159.156 49.301C159.501 48.9137 159.919 48.6617 160.409 48.545C160.633 48.4937 160.859 48.4633 161.088 48.454C161.321 48.4447 161.522 48.44 161.69 48.44H164.581L164.588 56H163.552ZM158.393 56L160.5 52.829H161.641L159.52 56H158.393ZM161.732 52.269H163.552V49.322H161.732C161.62 49.322 161.464 49.3267 161.263 49.336C161.062 49.3453 160.873 49.3757 160.696 49.427C160.542 49.4737 160.388 49.5553 160.234 49.672C160.085 49.784 159.959 49.9357 159.856 50.127C159.753 50.3137 159.702 50.5423 159.702 50.813C159.702 51.191 159.805 51.4943 160.01 51.723C160.22 51.947 160.481 52.101 160.794 52.185C160.962 52.2223 161.13 52.2457 161.298 52.255C161.466 52.2643 161.611 52.269 161.732 52.269Z" fill="#344351"/>
<path d="M290 66.748H255M290 66.748V35H340M290 66.748V99H340" stroke="#F88C28" stroke-dasharray="3 3"/>
<defs>
<clipPath id="clip0_7265_46677">
<rect width="126" height="24" fill="white" transform="translate(65 68)"/>
</clipPath>
</defs>
</svg>
