<svg width="492" height="357" viewBox="0 0 492 357" fill="none" xmlns="http://www.w3.org/2000/svg">
<g clip-path="url(#clip0_4559_21875)">
<path d="M50.5547 227.33C50.5547 227.33 184.74 142.685 357.102 250.208" stroke="#55626F" stroke-linecap="round" stroke-linejoin="round"/>
<path d="M211.307 236.921C202.106 229.38 229.517 200.329 229.517 200.329C217.52 198.193 219.148 198.62 219.148 198.62C219.148 198.62 187.956 228.611 187.634 245.701C187.313 262.79 235.184 278.704 235.184 278.704L253.147 270.843L268.84 265.043C268.84 265.043 220.519 244.462 211.307 236.921Z" fill="#EFEFEF" stroke="#55626F" stroke-linecap="round" stroke-linejoin="round"/>
<path d="M185.793 310.992C185.793 310.992 300.901 201.91 490.937 273.973" stroke="#55626F" stroke-linecap="round" stroke-linejoin="round"/>
<path d="M495.734 412.822C495.734 412.822 440.633 356.022 348.373 323.916C256.113 291.809 101.94 314.655 35.0664 360.957" stroke="#55626F" stroke-linecap="round" stroke-linejoin="round"/>
<path d="M141.786 386.687C130.581 390.617 120.641 394.003 111.793 396.93C143.521 411.723 183.668 421.57 234.228 426.889C245.389 428.064 255.822 428.887 265.602 429.378C330.129 382.383 359.662 327.911 359.662 327.911C361.857 328.626 323.724 311.889 280.706 310.416C280.674 310.426 226.869 356.877 141.786 386.687Z" fill="#EFEFEF"/>
<path d="M180.885 474.739C304.67 429.271 359.631 327.942 359.631 327.942C361.827 328.658 323.694 311.921 280.675 310.447C280.675 310.447 226.881 356.898 141.787 386.697C47.5246 419.722 42.1687 414.852 19.4492 414.852" stroke="#55626F" stroke-linecap="round" stroke-linejoin="round"/>
<path d="M386.131 338.912C406.184 346.997 428.732 327.387 427.125 306.496C425.572 286.202 400.078 275.212 384.075 268.504C341.624 250.721 313.945 253.786 313.945 253.786C313.945 253.786 356.996 245.818 401.91 251.33C440.783 256.104 481.241 279.559 497.694 316.194C506.542 335.889 506.895 357.763 505.192 378.922C503.285 402.858 495.723 412.823 495.723 412.823C495.723 412.823 441.564 369.373 386.131 338.912Z" fill="#EFEFEF" stroke="#55626F" stroke-linecap="round" stroke-linejoin="round"/>
<path d="M314.661 260.002L310.516 54.8247" stroke="#55626F" stroke-linecap="round" stroke-linejoin="round"/>
<path d="M336.88 80.875L356.108 91.7587L349.552 101.094L354.34 113.195L328.75 105.195L336.88 80.875Z" fill="#EFEFEF" stroke="#55626F" stroke-linecap="round" stroke-linejoin="round"/>
<path d="M335.916 102.514L328.75 105.195L336.88 80.875L335.916 102.514Z" fill="#55626F" stroke="#55626F" stroke-linecap="round" stroke-linejoin="round"/>
<path d="M310.258 58.104L338.226 69.9703L335.912 102.515L310.954 93.5107L310.258 58.104Z" fill="#EFEFEF" stroke="#55626F" stroke-linecap="round" stroke-linejoin="round"/>
<path d="M210.02 202.368L207.609 116.239" stroke="#55626F" stroke-linecap="round" stroke-linejoin="round"/>
<path d="M219.21 127.091L227.523 132.634L224.598 135.539L227.651 140.121L215.879 137.323L219.21 127.091Z" fill="#EFEFEF" stroke="#55626F" stroke-linecap="round" stroke-linejoin="round"/>
<path d="M218.878 136.18L215.879 137.323L219.21 127.091L218.878 136.18Z" fill="#55626F" stroke="#55626F" stroke-linecap="round" stroke-linejoin="round"/>
<path d="M207.965 117.617L219.844 122.754L218.88 136.18L208.372 132.474L207.965 117.617Z" fill="#EFEFEF" stroke="#55626F" stroke-linecap="round" stroke-linejoin="round"/>
<path d="M282.165 213.776L280.387 157.937" stroke="#55626F" stroke-linecap="round" stroke-linejoin="round"/>
<path d="M288.922 165.916L295.049 170.006L292.896 172.142L295.145 175.507L286.469 173.456L288.922 165.916Z" fill="#EFEFEF" stroke="#55626F" stroke-linecap="round" stroke-linejoin="round"/>
<path d="M288.686 172.612L286.469 173.456L288.922 165.916L288.686 172.612Z" fill="#EFEFEF" stroke="#55626F" stroke-linecap="round" stroke-linejoin="round"/>
<path d="M280.652 158.951L289.393 162.732L288.686 172.612L280.952 169.888L280.652 158.951Z" fill="#EFEFEF" stroke="#55626F" stroke-linecap="round" stroke-linejoin="round"/>
<path d="M364.855 343.654L367.255 1.92285" stroke="#55626F" stroke-linecap="round" stroke-linejoin="round"/>
<path d="M402.114 37.8745L428.1 56.5124L418.428 65.495L427.704 80.4694L394.723 76.2185L402.114 37.8745Z" fill="#EFEFEF" stroke="#55626F" stroke-linecap="round" stroke-linejoin="round"/>
<path d="M413.211 74.5202L394.723 76.2184L402.114 37.8745L413.211 74.5202Z" fill="#55626F" stroke="#55626F" stroke-linecap="round" stroke-linejoin="round"/>
<path d="M367.173 6.36621L416.65 31.0815L413.212 74.5202L366.852 53.9383L367.173 6.36621Z" fill="#EFEFEF" stroke="#55626F" stroke-linecap="round" stroke-linejoin="round"/>
<path d="M147.597 60.6667C148.816 63.8402 150.643 68.4239 151.378 71.7425C151.86 75.0321 153.241 76.8158 152.867 77.7878C152.492 78.7597 151.281 80.992 151.281 81.6863C152.114 84.6094 153.167 87.4657 154.43 90.2309C155.405 92.3029 151.013 94.1615 150.156 95.3792C149.3 96.5968 147.993 98.2523 147.597 101.788C147.2 105.323 150.05 106.936 149.203 108.762C148.357 110.588 144.03 109.371 141.705 108.762C140.44 108.479 139.027 109.602 138.042 108.762L137.313 111.817C133.713 109.035 129.82 106.653 125.702 104.714C120.631 102.698 115.445 100.986 110.17 99.5872L111.712 92.1747C111.712 92.1747 108.39 83.1495 105.819 75.0855C103.249 67.0215 104.739 59.3955 107.428 55.8601C110.116 52.3248 122.585 51.7055 129.387 51.588C136.189 51.4705 144.405 56.4799 145.99 53.8738C144.94 56.4799 149.086 52.2824 149.203 53.8738C149.159 55.1491 148.193 56.7607 147.597 57.8895C147.597 57.8895 150.649 56.2662 150.156 59.0646C149.664 61.8629 148.689 60.9764 147.597 60.6667Z" fill="#EFEFEF" stroke="#55626F" stroke-linecap="round" stroke-linejoin="round"/>
<path d="M149.696 83.7905C150.081 83.7905 150.393 82.858 150.393 81.7077C150.393 80.5575 150.081 79.625 149.696 79.625C149.312 79.625 149 80.5575 149 81.7077C149 82.858 149.312 83.7905 149.696 83.7905Z" fill="#55626F"/>
<path d="M151.699 77.1895C151.699 77.1895 150.724 75.6622 148.914 77.6061" stroke="#55626F" stroke-linecap="round" stroke-linejoin="round"/>
<path d="M150.155 108.987C151.001 107.16 149.909 105.206 150.273 101.67C150.637 98.1349 150.883 95.3365 151.74 94.1082C149.298 93.2644 144.242 96.9173 143.674 96.0628C143.107 95.2083 142.603 79.9669 142.935 77.6492C143.267 75.3314 146.481 75.3421 147.831 72.4156C149.18 69.4891 144.617 66.1887 144.403 64.2448C144.189 62.3009 148.441 61.9271 148.441 61.9271C149.512 62.2902 155.65 60.7095 156.143 57.9004C156.636 55.0914 151.376 57.5373 151.376 57.5373C151.973 56.4084 152.306 55.1597 152.351 53.8845C152.233 52.293 148.066 53.3931 147.584 53.265C147.102 53.1368 136.208 47.9246 129.374 48.0314C122.54 48.1382 109.194 50.8298 106.505 54.3651C103.816 57.9004 99.1674 67.0432 101.738 75.0965C103.881 81.9535 108.947 89.9427 110.383 92.1857C110.808 92.4886 111.273 92.7329 111.764 92.912C116.083 94.2071 120.641 94.4994 125.09 93.7664C131.206 92.6984 136.101 90.4768 135.244 88.7678C134.387 87.0589 133.895 79.9882 135.855 76.6986C137.815 73.4089 140.011 78.4075 139.518 84.378C139.026 90.3486 137.687 94.1296 137.322 97.9106C136.958 101.692 138.051 108.762 138.051 108.762C139.037 109.602 140.213 110.188 141.479 110.471C143.792 111.123 149.298 110.824 150.155 108.987Z" fill="#F88C28"/>
<path d="M138.875 110.674C138.875 110.674 139.432 108.175 129.685 103.593C119.937 99.0107 109.622 97.0561 108.368 97.6115C107.115 98.1669 105.723 100.816 105.723 100.816C112.231 101.969 118.556 103.98 124.532 106.797C133.027 111.069 140.268 114.85 140.268 114.85L138.875 110.674Z" fill="#EFEFEF" stroke="#55626F" stroke-linecap="round" stroke-linejoin="round"/>
<path d="M144.316 117.531C143.09 115.124 141.07 113.212 138.596 112.116C134.14 109.894 129.459 105.013 111.292 100.997C107.843 100.239 106.697 100.442 105.722 100.858C103.744 102.195 102.039 103.895 100.698 105.868L99.4023 107.758C99.4023 107.758 111.249 107.619 119.465 110.119C127.681 112.618 146.78 119.977 146.78 119.977L144.316 117.531Z" fill="#57A8F3" stroke="#55626F" stroke-linecap="round" stroke-linejoin="round"/>
<path d="M184.029 254.95C184.029 254.95 179.744 258.571 180.89 261.358C181.967 263.726 183.179 266.029 184.521 268.258L186.332 266.282C186.332 266.282 183.857 260.696 184.35 259.874C184.843 259.051 196.711 252.151 196.711 252.151L200.182 259.382L201.992 257.898C201.992 257.898 199.025 250.346 197.868 249.684C196.711 249.022 186.942 251.671 184.029 254.95Z" fill="#55626F" stroke="#55626F" stroke-linecap="round" stroke-linejoin="round"/>
<path d="M186.606 237.038L198.142 248.381C198.553 249.035 198.823 249.766 198.938 250.528C199.052 251.291 199.007 252.069 198.806 252.814C198.303 254.138 189.08 261.358 187.259 262.191C185.438 263.024 184.463 260.546 184.292 259.884C184.121 259.222 183.307 257.417 183.146 256.926C182.985 256.434 178.529 251.5 177.212 247.719C176.553 246.017 176.055 244.258 175.723 242.464L186.606 237.038Z" fill="#EFEFEF" stroke="#55626F" stroke-linecap="round" stroke-linejoin="round"/>
<path d="M56.6742 244.632C57.479 246.569 58.3946 248.459 59.4164 250.293C59.9413 250.805 64.9222 256.124 65.4364 257.491C65.9505 258.859 65.4364 263.494 67.3323 266.923C69.2283 270.351 68.0179 271.718 65.9505 271.035C63.8832 270.351 62.3407 266.239 62.3407 266.239C62.3407 266.239 64.2367 273.096 64.5794 274.292C64.9222 275.489 70.0852 276.866 69.2176 278.063C68.3499 279.259 59.245 279.782 57.1884 279.611C55.1317 279.44 51.3398 274.634 50.1401 273.951C48.9404 273.267 45.8554 260.236 44.977 257.833C44.0987 255.43 42.7383 245.016 42.7383 245.016L56.6742 244.632Z" fill="#EFEFEF" stroke="#55626F" stroke-linecap="round" stroke-linejoin="round"/>
<path d="M54.3811 256C54.3811 256 54.8952 261.34 53.8669 264.053C53.2312 265.93 52.9409 267.905 53.01 269.885C53.01 269.885 54.8952 274.681 55.5808 275.225" stroke="#55626F" stroke-linecap="round" stroke-linejoin="round"/>
<path d="M70.9102 251.564C70.9102 251.564 75.5697 268.472 81.3005 283.264C87.0313 298.057 94.433 320.241 94.433 320.241L99.7889 352.369C99.7889 352.369 100.635 368.39 103.602 380.257C106.569 392.123 118.02 427.946 118.02 427.946C120.971 429.037 124.109 429.534 127.254 429.409C132.545 429.196 140.172 425.393 140.172 425.393C140.172 425.393 140.815 420.534 140.386 418.419C139.958 416.304 137.419 415.215 136.787 413.559C136.155 411.904 128.089 362.484 128.089 362.484C128.089 362.484 125.551 327.408 124.704 320.647C123.858 313.886 121.737 256.83 121.737 256.83L70.9102 251.564Z" fill="#55626F" stroke="#55626F" stroke-linecap="round" stroke-linejoin="round"/>
<path d="M87.4396 256.21C87.4396 256.21 93.5881 264.242 94.2308 265.3C94.8735 266.357 99.3081 306.506 99.7366 310.522C99.9735 313.758 99.9735 317.006 99.7366 320.242C99.7366 320.242 84.8366 335.067 75.089 347.168C65.3413 359.269 33.6133 398.136 33.6133 398.136L47.5385 419.754C47.5385 419.754 64.945 405.869 77.4241 393.982C97.1765 375.216 115.761 355.371 117.057 354.313C118.354 353.256 126.901 344.199 127.533 341.667C128.165 339.136 134.967 303.601 137.303 292.194C139.638 280.787 142.808 249.93 142.808 249.93L84.526 251.404" fill="#55626F"/>
<path d="M87.4396 256.21C87.4396 256.21 93.5881 264.242 94.2308 265.3C94.8735 266.357 99.3081 306.506 99.7366 310.522C99.9735 313.758 99.9735 317.006 99.7366 320.242C99.7366 320.242 84.8366 335.067 75.089 347.168C65.3413 359.269 33.6133 398.136 33.6133 398.136L47.5385 419.754C47.5385 419.754 64.945 405.869 77.4241 393.982C97.1765 375.216 115.761 355.371 117.057 354.313C118.354 353.256 126.901 344.199 127.533 341.667C128.165 339.136 134.967 303.601 137.303 292.194C139.638 280.787 142.808 249.93 142.808 249.93L84.526 251.404" stroke="#55626F" stroke-linecap="round" stroke-linejoin="round"/>
<path d="M100.7 105.782C100.7 105.782 90.3949 111.197 84.9641 113.836C79.5332 116.474 61.3983 121.9 59.5988 124.815C57.7992 127.731 58.067 132.292 58.067 132.292C58.067 132.292 40.2856 181.103 39.8571 189.616C39.4286 198.128 41.1639 246.565 41.1639 246.565C41.1639 246.565 42.4815 248.52 49.4869 248.306C56.4924 248.093 59.331 246.779 59.331 246.779C59.331 246.779 62.8337 197.904 63.4871 195.063C63.9138 193.269 64.5018 191.518 65.2438 189.829L72.892 174.556C72.892 174.556 75.5271 190.267 75.5271 190.919C75.5271 191.57 61.077 250.485 61.077 250.485C61.077 250.485 61.077 254.416 86.6779 257.962C112.279 261.508 134.602 263.633 135.695 263.633C136.787 263.633 142.7 253.818 142.7 253.818C142.7 253.818 144.232 259.265 143.771 259.927C143.311 260.589 148.152 258.859 149.245 257.962L153.615 254.469C153.615 254.469 146.835 216.937 146.835 214.107C146.835 211.276 148.592 201.012 148.592 201.012L173.968 247.27C173.968 247.27 173.968 247.922 180.095 244.429C183.493 242.579 186.591 240.227 189.285 237.455L168.719 187.052C168.719 187.052 163.909 131.405 163.47 128.575C163.031 125.745 164.123 125.082 161.499 123.769C158.875 122.455 146.813 119.977 146.813 119.977C146.813 119.977 126.954 112.394 119.499 110.119C112.043 107.844 100.7 105.782 100.7 105.782Z" fill="#57A8F3" stroke="#55626F" stroke-linecap="round" stroke-linejoin="round"/>
<path d="M72.8916 174.609L65.6719 135.987L68.7354 182.032L72.8916 174.609Z" fill="#55626F" stroke="#55626F" stroke-linecap="round" stroke-linejoin="round"/>
<path d="M100.238 129.665C100.238 129.665 100.677 145.429 105.701 156.74" stroke="#55626F" stroke-linecap="round" stroke-linejoin="round"/>
<path d="M96.9609 142.321C98.1384 147.132 99.9767 151.758 102.424 156.067" stroke="#55626F" stroke-linecap="round" stroke-linejoin="round"/>
<path d="M97.1211 207.837C106.183 205.584 118.769 202.497 124.093 201.429C132.845 199.677 112.053 201.429 112.053 201.429" stroke="#55626F" stroke-linecap="round" stroke-linejoin="round"/>
<path d="M86.8906 210.39L91.5074 209.236" stroke="#55626F" stroke-linecap="round" stroke-linejoin="round"/>
<path d="M148.603 201.012C148.603 201.012 143.569 192.724 143.129 190.758C142.69 188.793 139.188 167.41 139.188 167.41C139.188 167.41 141.598 201.45 142.476 206.032C143.189 209.062 144.698 211.849 146.846 214.106L148.603 201.012Z" fill="#55626F" stroke="#55626F" stroke-linecap="round" stroke-linejoin="round"/>
<path d="M145.312 124.869C145.312 124.869 136.743 127.005 135.671 137.686C135.273 143.415 135.539 149.171 136.464 154.839" stroke="#55626F" stroke-linecap="round" stroke-linejoin="round"/>
<path d="M133.059 137.301C133.236 142.457 133.972 147.578 135.254 152.575" stroke="#55626F" stroke-linecap="round" stroke-linejoin="round"/>
<path d="M214.631 250.678C214.631 250.678 171.441 273.203 170.102 274.837C168.763 276.472 169.609 279.11 169.941 280.263C170.273 281.417 180.653 323.659 181.971 324.311C183.288 324.962 187.412 322.837 187.412 322.837C187.412 322.837 192.029 325.625 193.175 325.133C194.321 324.642 233.397 300.482 235.54 298.506C237.682 296.53 237.521 295.056 236.857 293.582C236.193 292.108 226.146 269.583 226.146 269.583C226.459 269.101 226.665 268.558 226.75 267.991C226.835 267.424 226.797 266.844 226.638 266.293C225.985 264.819 220.543 253.967 219.387 252.322C218.23 250.678 218.915 248.905 214.631 250.678Z" fill="#969696" stroke="#55626F" stroke-linecap="round" stroke-linejoin="round"/>
<path d="M169.961 280.263C170.282 281.417 180.672 323.659 181.99 324.311C183.307 324.962 187.431 322.837 187.431 322.837C187.431 322.837 191.812 325.486 193.098 325.155C189.884 316.717 177.405 283.617 175.231 278.159C173.388 273.503 171.45 273.962 170.582 274.496L170.228 274.774H170.175C168.804 276.482 169.629 279.11 169.961 280.263Z" fill="#55626F" stroke="#55626F" stroke-linecap="round" stroke-linejoin="round"/>
<path d="M183.148 297.192L225.181 270.896" stroke="#55626F" stroke-linecap="round" stroke-linejoin="round"/>
<path d="M202.602 282.73L205.569 287.825L209.853 284.706L207.047 279.932L202.602 282.73Z" fill="#EFEFEF" stroke="#55626F" stroke-linecap="round" stroke-linejoin="round"/>
</g>
<path d="M1 356H491" stroke="#55626F" stroke-linecap="round" stroke-linejoin="round"/>
<defs>
<clipPath id="clip0_4559_21875">
<rect width="481" height="356" fill="white" transform="translate(10)"/>
</clipPath>
</defs>
</svg>
