<svg width="540" height="476" viewBox="0 0 540 476" fill="none" xmlns="http://www.w3.org/2000/svg">
<rect width="540" height="476" rx="12" fill="#F6F7F8"/>
<path d="M171.798 435.24C170.928 435.24 170.192 435.045 169.59 434.656C168.987 434.267 168.528 433.731 168.214 433.048C167.904 432.36 167.744 431.571 167.734 430.68C167.744 429.773 167.91 428.979 168.23 428.296C168.55 427.608 169.011 427.075 169.614 426.696C170.216 426.312 170.947 426.12 171.806 426.12C172.68 426.12 173.44 426.333 174.086 426.76C174.736 427.187 175.182 427.771 175.422 428.512L174.27 428.88C174.067 428.363 173.744 427.963 173.302 427.68C172.864 427.392 172.363 427.248 171.798 427.248C171.163 427.248 170.638 427.395 170.222 427.688C169.806 427.976 169.496 428.379 169.294 428.896C169.091 429.413 168.987 430.008 168.982 430.68C168.992 431.715 169.232 432.547 169.702 433.176C170.171 433.8 170.87 434.112 171.798 434.112C172.384 434.112 172.883 433.979 173.294 433.712C173.71 433.44 174.024 433.045 174.238 432.528L175.422 432.88C175.102 433.648 174.632 434.235 174.014 434.64C173.395 435.04 172.656 435.24 171.798 435.24ZM180.447 435.24C179.588 435.24 178.855 435.045 178.247 434.656C177.639 434.267 177.172 433.728 176.847 433.04C176.521 432.352 176.359 431.563 176.359 430.672C176.359 429.765 176.524 428.971 176.855 428.288C177.185 427.605 177.655 427.075 178.263 426.696C178.876 426.312 179.604 426.12 180.447 426.12C181.311 426.12 182.047 426.315 182.655 426.704C183.268 427.088 183.735 427.624 184.055 428.312C184.38 428.995 184.543 429.781 184.543 430.672C184.543 431.579 184.38 432.376 184.055 433.064C183.729 433.747 183.26 434.28 182.647 434.664C182.033 435.048 181.3 435.24 180.447 435.24ZM180.447 434.112C181.407 434.112 182.121 433.795 182.591 433.16C183.06 432.52 183.295 431.691 183.295 430.672C183.295 429.627 183.057 428.795 182.583 428.176C182.113 427.557 181.401 427.248 180.447 427.248C179.801 427.248 179.268 427.395 178.847 427.688C178.431 427.976 178.119 428.379 177.911 428.896C177.708 429.408 177.607 430 177.607 430.672C177.607 431.712 177.847 432.547 178.327 433.176C178.807 433.8 179.513 434.112 180.447 434.112ZM186.3 435V426.36H189.86C190.041 426.36 190.26 426.371 190.516 426.392C190.777 426.413 191.02 426.453 191.244 426.512C191.729 426.64 192.118 426.901 192.412 427.296C192.71 427.691 192.86 428.165 192.86 428.72C192.86 429.029 192.812 429.307 192.716 429.552C192.625 429.792 192.494 430 192.324 430.176C192.244 430.267 192.156 430.347 192.06 430.416C191.964 430.48 191.87 430.533 191.78 430.576C191.95 430.608 192.134 430.683 192.332 430.8C192.641 430.981 192.876 431.227 193.036 431.536C193.196 431.84 193.276 432.211 193.276 432.648C193.276 433.24 193.134 433.723 192.852 434.096C192.569 434.469 192.19 434.725 191.716 434.864C191.502 434.923 191.27 434.96 191.02 434.976C190.774 434.992 190.542 435 190.324 435H186.3ZM187.484 434H190.268C190.38 434 190.521 433.992 190.692 433.976C190.862 433.955 191.014 433.928 191.148 433.896C191.462 433.816 191.692 433.656 191.836 433.416C191.985 433.171 192.06 432.904 192.06 432.616C192.06 432.237 191.948 431.928 191.724 431.688C191.505 431.443 191.212 431.293 190.844 431.24C190.721 431.213 190.593 431.197 190.46 431.192C190.326 431.187 190.206 431.184 190.1 431.184H187.484V434ZM187.484 430.176H189.9C190.038 430.176 190.193 430.168 190.364 430.152C190.54 430.131 190.692 430.096 190.82 430.048C191.097 429.952 191.3 429.787 191.428 429.552C191.561 429.317 191.628 429.061 191.628 428.784C191.628 428.48 191.556 428.213 191.412 427.984C191.273 427.755 191.062 427.595 190.78 427.504C190.588 427.435 190.38 427.395 190.156 427.384C189.937 427.373 189.798 427.368 189.74 427.368H187.484V430.176ZM194.862 435V426.36H195.91L199.278 433.432L202.654 426.36H203.694V435H202.558V428.872L199.654 435H198.91L196.006 428.872V435H194.862ZM209.589 435.24C208.746 435.24 208.015 435.053 207.397 434.68C206.783 434.307 206.306 433.781 205.965 433.104C205.623 432.427 205.453 431.632 205.453 430.72C205.453 429.776 205.621 428.96 205.957 428.272C206.293 427.584 206.765 427.053 207.373 426.68C207.986 426.307 208.709 426.12 209.541 426.12C210.394 426.12 211.122 426.317 211.725 426.712C212.327 427.101 212.783 427.661 213.093 428.392C213.402 429.123 213.543 429.995 213.517 431.008H212.317V430.592C212.295 429.472 212.053 428.627 211.589 428.056C211.13 427.485 210.458 427.2 209.573 427.2C208.645 427.2 207.933 427.501 207.437 428.104C206.946 428.707 206.701 429.565 206.701 430.68C206.701 431.768 206.946 432.613 207.437 433.216C207.933 433.813 208.634 434.112 209.541 434.112C210.159 434.112 210.698 433.971 211.157 433.688C211.621 433.4 211.986 432.987 212.253 432.448L213.349 432.872C213.007 433.624 212.503 434.208 211.837 434.624C211.175 435.035 210.426 435.24 209.589 435.24ZM206.285 431.008V430.024H212.885V431.008H206.285ZM218.876 435.24C218.007 435.24 217.271 435.045 216.668 434.656C216.065 434.267 215.607 433.731 215.292 433.048C214.983 432.36 214.823 431.571 214.812 430.68C214.823 429.773 214.988 428.979 215.308 428.296C215.628 427.608 216.089 427.075 216.692 426.696C217.295 426.312 218.025 426.12 218.884 426.12C219.759 426.12 220.519 426.333 221.164 426.76C221.815 427.187 222.26 427.771 222.5 428.512L221.348 428.88C221.145 428.363 220.823 427.963 220.38 427.68C219.943 427.392 219.441 427.248 218.876 427.248C218.241 427.248 217.716 427.395 217.3 427.688C216.884 427.976 216.575 428.379 216.372 428.896C216.169 429.413 216.065 430.008 216.06 430.68C216.071 431.715 216.311 432.547 216.78 433.176C217.249 433.8 217.948 434.112 218.876 434.112C219.463 434.112 219.961 433.979 220.372 433.712C220.788 433.44 221.103 433.045 221.316 432.528L222.5 432.88C222.18 433.648 221.711 434.235 221.092 434.64C220.473 435.04 219.735 435.24 218.876 435.24ZM226.292 435V427.448H223.228V426.36H230.532V427.448H227.468V435H226.292ZM238.922 426.36V435H237.778V428.272L233.042 435H232.05V426.36H233.194V433.032L237.938 426.36H238.922ZM241.159 435V426.36H242.207L245.575 433.432L248.951 426.36H249.991V435H248.855V428.872L245.951 435H245.207L242.303 428.872V435H241.159ZM255.837 435.24C254.979 435.24 254.245 435.045 253.637 434.656C253.029 434.267 252.563 433.728 252.237 433.04C251.912 432.352 251.749 431.563 251.749 430.672C251.749 429.765 251.915 428.971 252.245 428.288C252.576 427.605 253.045 427.075 253.653 426.696C254.267 426.312 254.995 426.12 255.837 426.12C256.701 426.12 257.437 426.315 258.045 426.704C258.659 427.088 259.125 427.624 259.445 428.312C259.771 428.995 259.933 429.781 259.933 430.672C259.933 431.579 259.771 432.376 259.445 433.064C259.12 433.747 258.651 434.28 258.037 434.664C257.424 435.048 256.691 435.24 255.837 435.24ZM255.837 434.112C256.797 434.112 257.512 433.795 257.981 433.16C258.451 432.52 258.685 431.691 258.685 430.672C258.685 429.627 258.448 428.795 257.973 428.176C257.504 427.557 256.792 427.248 255.837 427.248C255.192 427.248 254.659 427.395 254.237 427.688C253.821 427.976 253.509 428.379 253.301 428.896C253.099 429.408 252.997 430 252.997 430.672C252.997 431.712 253.237 432.547 253.717 433.176C254.197 433.8 254.904 434.112 255.837 434.112ZM268.485 435.24C267.616 435.24 266.88 435.045 266.277 434.656C265.675 434.267 265.216 433.731 264.901 433.048C264.592 432.36 264.432 431.571 264.421 430.68C264.432 429.773 264.597 428.979 264.917 428.296C265.237 427.608 265.699 427.075 266.301 426.696C266.904 426.312 267.635 426.12 268.493 426.12C269.368 426.12 270.128 426.333 270.773 426.76C271.424 427.187 271.869 427.771 272.109 428.512L270.957 428.88C270.755 428.363 270.432 427.963 269.989 427.68C269.552 427.392 269.051 427.248 268.485 427.248C267.851 427.248 267.325 427.395 266.909 427.688C266.493 427.976 266.184 428.379 265.981 428.896C265.779 429.413 265.675 430.008 265.669 430.68C265.68 431.715 265.92 432.547 266.389 433.176C266.859 433.8 267.557 434.112 268.485 434.112C269.072 434.112 269.571 433.979 269.981 433.712C270.397 433.44 270.712 433.045 270.925 432.528L272.109 432.88C271.789 433.648 271.32 434.235 270.701 434.64C270.083 435.04 269.344 435.24 268.485 435.24ZM276.164 435L280.132 423.48H281.692L285.66 435H284.436L280.668 424.136H281.132L277.388 435H276.164ZM277.932 432.208V431.104H283.884V432.208H277.932ZM293.344 435V430.592C293.344 430.112 293.299 429.672 293.208 429.272C293.118 428.867 292.971 428.515 292.768 428.216C292.571 427.912 292.312 427.677 291.992 427.512C291.678 427.347 291.294 427.264 290.84 427.264C290.424 427.264 290.056 427.336 289.736 427.48C289.422 427.624 289.155 427.832 288.936 428.104C288.723 428.371 288.56 428.696 288.448 429.08C288.336 429.464 288.28 429.901 288.28 430.392L287.448 430.208C287.448 429.323 287.603 428.579 287.912 427.976C288.222 427.373 288.648 426.917 289.192 426.608C289.736 426.299 290.36 426.144 291.064 426.144C291.582 426.144 292.032 426.224 292.416 426.384C292.806 426.544 293.134 426.76 293.4 427.032C293.672 427.304 293.891 427.616 294.056 427.968C294.222 428.315 294.342 428.685 294.416 429.08C294.491 429.469 294.528 429.859 294.528 430.248V435H293.344ZM287.096 435V426.36H288.16V428.488H288.28V435H287.096ZM299.91 435.24C299.104 435.24 298.416 435.04 297.846 434.64C297.275 434.235 296.838 433.688 296.534 433C296.23 432.312 296.078 431.536 296.078 430.672C296.078 429.813 296.227 429.04 296.526 428.352C296.83 427.664 297.264 427.12 297.83 426.72C298.395 426.32 299.072 426.12 299.862 426.12C300.672 426.12 301.355 426.317 301.91 426.712C302.464 427.107 302.883 427.648 303.166 428.336C303.454 429.019 303.598 429.797 303.598 430.672C303.598 431.531 303.456 432.307 303.174 433C302.891 433.688 302.475 434.235 301.926 434.64C301.376 435.04 300.704 435.24 299.91 435.24ZM300.03 434.144C300.643 434.144 301.15 433.995 301.55 433.696C301.95 433.397 302.248 432.987 302.446 432.464C302.643 431.936 302.742 431.339 302.742 430.672C302.742 429.995 302.643 429.397 302.446 428.88C302.248 428.357 301.95 427.949 301.55 427.656C301.155 427.363 300.656 427.216 300.054 427.216C299.435 427.216 298.923 427.368 298.518 427.672C298.112 427.976 297.811 428.389 297.614 428.912C297.422 429.435 297.326 430.021 297.326 430.672C297.326 431.328 297.424 431.92 297.622 432.448C297.824 432.971 298.126 433.384 298.526 433.688C298.926 433.992 299.427 434.144 300.03 434.144ZM302.742 435V428.496H302.614V423.48H303.798V435H302.742ZM306.042 435V426.36H307.098V428.44L306.89 428.168C306.986 427.912 307.111 427.677 307.266 427.464C307.421 427.245 307.589 427.067 307.77 426.928C307.994 426.731 308.255 426.581 308.554 426.48C308.853 426.373 309.154 426.312 309.458 426.296C309.762 426.275 310.039 426.296 310.29 426.36V427.464C309.975 427.384 309.631 427.365 309.258 427.408C308.885 427.451 308.541 427.6 308.226 427.856C307.938 428.08 307.722 428.349 307.578 428.664C307.434 428.973 307.338 429.304 307.29 429.656C307.242 430.003 307.218 430.347 307.218 430.688V435H306.042ZM315.259 435.24C314.401 435.24 313.667 435.045 313.059 434.656C312.451 434.267 311.985 433.728 311.659 433.04C311.334 432.352 311.171 431.563 311.171 430.672C311.171 429.765 311.337 428.971 311.667 428.288C311.998 427.605 312.467 427.075 313.075 426.696C313.689 426.312 314.417 426.12 315.259 426.12C316.123 426.12 316.859 426.315 317.467 426.704C318.081 427.088 318.547 427.624 318.867 428.312C319.193 428.995 319.355 429.781 319.355 430.672C319.355 431.579 319.193 432.376 318.867 433.064C318.542 433.747 318.073 434.28 317.459 434.664C316.846 435.048 316.113 435.24 315.259 435.24ZM315.259 434.112C316.219 434.112 316.934 433.795 317.403 433.16C317.873 432.52 318.107 431.691 318.107 430.672C318.107 429.627 317.87 428.795 317.395 428.176C316.926 427.557 316.214 427.248 315.259 427.248C314.614 427.248 314.081 427.395 313.659 427.688C313.243 427.976 312.931 428.379 312.723 428.896C312.521 429.408 312.419 430 312.419 430.672C312.419 431.712 312.659 432.547 313.139 433.176C313.619 433.8 314.326 434.112 315.259 434.112ZM321.28 424.72V423.4H322.456V424.72H321.28ZM321.28 435V426.36H322.456V435H321.28ZM328.206 435.24C327.401 435.24 326.713 435.04 326.142 434.64C325.572 434.235 325.134 433.688 324.83 433C324.526 432.312 324.374 431.536 324.374 430.672C324.374 429.813 324.524 429.04 324.822 428.352C325.126 427.664 325.561 427.12 326.126 426.72C326.692 426.32 327.369 426.12 328.158 426.12C328.969 426.12 329.652 426.317 330.206 426.712C330.761 427.107 331.18 427.648 331.462 428.336C331.75 429.019 331.894 429.797 331.894 430.672C331.894 431.531 331.753 432.307 331.47 433C331.188 433.688 330.772 434.235 330.222 434.64C329.673 435.04 329.001 435.24 328.206 435.24ZM328.326 434.144C328.94 434.144 329.446 433.995 329.846 433.696C330.246 433.397 330.545 432.987 330.742 432.464C330.94 431.936 331.038 431.339 331.038 430.672C331.038 429.995 330.94 429.397 330.742 428.88C330.545 428.357 330.246 427.949 329.846 427.656C329.452 427.363 328.953 427.216 328.35 427.216C327.732 427.216 327.22 427.368 326.814 427.672C326.409 427.976 326.108 428.389 325.91 428.912C325.718 429.435 325.622 430.021 325.622 430.672C325.622 431.328 325.721 431.92 325.918 432.448C326.121 432.971 326.422 433.384 326.822 433.688C327.222 433.992 327.724 434.144 328.326 434.144ZM331.038 435V428.496H330.91V423.48H332.094V435H331.038ZM344.406 426.36V435H343.262V428.272L338.526 435H337.534V426.36H338.678V433.032L343.422 426.36H344.406ZM350.014 424.72V423.4H351.19V424.72H350.014ZM350.014 435V426.36H351.19V435H350.014ZM358.253 435.24C357.106 435.24 356.138 434.987 355.349 434.48C354.559 433.968 353.962 433.261 353.557 432.36C353.151 431.459 352.949 430.419 352.949 429.24C352.949 428.061 353.151 427.021 353.557 426.12C353.962 425.219 354.559 424.515 355.349 424.008C356.138 423.496 357.106 423.24 358.253 423.24C359.405 423.24 360.373 423.496 361.157 424.008C361.946 424.515 362.543 425.219 362.949 426.12C363.359 427.021 363.565 428.061 363.565 429.24C363.565 430.419 363.359 431.459 362.949 432.36C362.543 433.261 361.946 433.968 361.157 434.48C360.373 434.987 359.405 435.24 358.253 435.24ZM358.253 434.112C359.154 434.112 359.906 433.907 360.509 433.496C361.111 433.085 361.562 432.515 361.861 431.784C362.165 431.048 362.317 430.2 362.317 429.24C362.317 428.28 362.165 427.435 361.861 426.704C361.562 425.973 361.111 425.403 360.509 424.992C359.906 424.581 359.154 424.373 358.253 424.368C357.351 424.368 356.602 424.573 356.005 424.984C355.407 425.395 354.957 425.968 354.653 426.704C354.354 427.435 354.202 428.28 354.197 429.24C354.191 430.2 354.338 431.045 354.637 431.776C354.941 432.501 355.394 433.072 355.997 433.488C356.599 433.899 357.351 434.107 358.253 434.112ZM369.167 435.24C368.362 435.24 367.636 435.107 366.991 434.84C366.351 434.568 365.82 434.184 365.399 433.688C364.983 433.192 364.711 432.603 364.583 431.92L365.783 431.72C365.975 432.467 366.38 433.053 366.999 433.48C367.618 433.901 368.356 434.112 369.215 434.112C369.78 434.112 370.287 434.024 370.735 433.848C371.183 433.667 371.535 433.411 371.791 433.08C372.047 432.749 372.175 432.357 372.175 431.904C372.175 431.605 372.122 431.352 372.015 431.144C371.908 430.931 371.767 430.755 371.591 430.616C371.415 430.477 371.223 430.363 371.015 430.272C370.807 430.176 370.604 430.099 370.407 430.04L367.487 429.168C367.135 429.067 366.81 428.939 366.511 428.784C366.212 428.624 365.951 428.435 365.727 428.216C365.508 427.992 365.338 427.731 365.215 427.432C365.092 427.133 365.031 426.792 365.031 426.408C365.031 425.757 365.202 425.195 365.543 424.72C365.884 424.245 366.351 423.88 366.943 423.624C367.535 423.368 368.21 423.243 368.967 423.248C369.735 423.248 370.42 423.384 371.023 423.656C371.631 423.928 372.132 424.317 372.527 424.824C372.922 425.325 373.183 425.92 373.311 426.608L372.079 426.832C371.999 426.331 371.815 425.896 371.527 425.528C371.239 425.16 370.871 424.877 370.423 424.68C369.98 424.477 369.492 424.373 368.959 424.368C368.442 424.368 367.98 424.456 367.575 424.632C367.175 424.803 366.858 425.037 366.623 425.336C366.388 425.635 366.271 425.976 366.271 426.36C366.271 426.749 366.378 427.061 366.591 427.296C366.81 427.531 367.076 427.715 367.391 427.848C367.711 427.981 368.02 428.091 368.319 428.176L370.575 428.84C370.81 428.904 371.084 428.997 371.399 429.12C371.719 429.237 372.028 429.408 372.327 429.632C372.631 429.851 372.882 430.139 373.079 430.496C373.276 430.853 373.375 431.307 373.375 431.856C373.375 432.389 373.268 432.867 373.055 433.288C372.847 433.709 372.551 434.064 372.167 434.352C371.788 434.64 371.343 434.859 370.831 435.008C370.324 435.163 369.77 435.24 369.167 435.24Z" fill="#5E6B77"/>
<path d="M39.184 54V43.608H35.16V42.48H44.384V43.608H40.36V54H39.184ZM48.1979 54.24C47.3552 54.24 46.6245 54.0533 46.0059 53.68C45.3925 53.3067 44.9152 52.7813 44.5739 52.104C44.2325 51.4267 44.0619 50.632 44.0619 49.72C44.0619 48.776 44.2299 47.96 44.5659 47.272C44.9019 46.584 45.3739 46.0533 45.9819 45.68C46.5952 45.3067 47.3179 45.12 48.1499 45.12C49.0032 45.12 49.7312 45.3173 50.3339 45.712C50.9365 46.1013 51.3925 46.6613 51.7019 47.392C52.0112 48.1227 52.1525 48.9947 52.1259 50.008H50.9259V49.592C50.9045 48.472 50.6619 47.6267 50.1979 47.056C49.7392 46.4853 49.0672 46.2 48.1819 46.2C47.2539 46.2 46.5419 46.5013 46.0459 47.104C45.5552 47.7067 45.3099 48.5653 45.3099 49.68C45.3099 50.768 45.5552 51.6133 46.0459 52.216C46.5419 52.8133 47.2432 53.112 48.1499 53.112C48.7685 53.112 49.3072 52.9707 49.7659 52.688C50.2299 52.4 50.5952 51.9867 50.8619 51.448L51.9579 51.872C51.6165 52.624 51.1125 53.208 50.4459 53.624C49.7845 54.0347 49.0352 54.24 48.1979 54.24ZM44.8939 50.008V49.024H51.4939V50.008H44.8939ZM53.1013 54V52.968C53.4213 53.0267 53.6639 53.0133 53.8293 52.928C53.9999 52.8373 54.1253 52.688 54.2053 52.48C54.2853 52.2667 54.3519 52.0027 54.4053 51.688C54.4906 51.1653 54.5679 50.5893 54.6373 49.96C54.7066 49.3307 54.7679 48.6373 54.8213 47.88C54.8799 47.1173 54.9386 46.2773 54.9973 45.36H60.8693V54H59.7013V46.488H56.0853C56.0479 47.0533 56.0053 47.616 55.9573 48.176C55.9093 48.736 55.8586 49.2747 55.8053 49.792C55.7573 50.304 55.7039 50.776 55.6453 51.208C55.5866 51.64 55.5253 52.0133 55.4613 52.328C55.3653 52.8027 55.2373 53.1813 55.0773 53.464C54.9226 53.7467 54.6906 53.9333 54.3813 54.024C54.0719 54.1147 53.6453 54.1067 53.1013 54ZM66.7604 54.24C65.9177 54.24 65.187 54.0533 64.5684 53.68C63.955 53.3067 63.4777 52.7813 63.1364 52.104C62.795 51.4267 62.6244 50.632 62.6244 49.72C62.6244 48.776 62.7924 47.96 63.1284 47.272C63.4644 46.584 63.9364 46.0533 64.5444 45.68C65.1577 45.3067 65.8804 45.12 66.7124 45.12C67.5657 45.12 68.2937 45.3173 68.8964 45.712C69.499 46.1013 69.955 46.6613 70.2644 47.392C70.5737 48.1227 70.715 48.9947 70.6884 50.008H69.4884V49.592C69.467 48.472 69.2244 47.6267 68.7604 47.056C68.3017 46.4853 67.6297 46.2 66.7444 46.2C65.8164 46.2 65.1044 46.5013 64.6084 47.104C64.1177 47.7067 63.8724 48.5653 63.8724 49.68C63.8724 50.768 64.1177 51.6133 64.6084 52.216C65.1044 52.8133 65.8057 53.112 66.7124 53.112C67.331 53.112 67.8697 52.9707 68.3284 52.688C68.7924 52.4 69.1577 51.9867 69.4244 51.448L70.5204 51.872C70.179 52.624 69.675 53.208 69.0084 53.624C68.347 54.0347 67.5977 54.24 66.7604 54.24ZM63.4564 50.008V49.024H70.0564V50.008H63.4564ZM76.5598 57.6V54.168C75.7171 54.3013 74.9491 54.2107 74.2558 53.896C73.5624 53.576 73.0104 53.0587 72.5998 52.344C72.1891 51.6293 71.9838 50.744 71.9838 49.688C71.9838 48.632 72.1891 47.7467 72.5998 47.032C73.0104 46.312 73.5624 45.792 74.2558 45.472C74.9491 45.152 75.7171 45.0587 76.5598 45.192V42.544H77.6478V45.192C78.4904 45.0587 79.2584 45.152 79.9518 45.472C80.6451 45.792 81.1971 46.312 81.6078 47.032C82.0184 47.7467 82.2238 48.632 82.2238 49.688C82.2238 50.744 82.0184 51.6293 81.6078 52.344C81.1971 53.0587 80.6451 53.576 79.9518 53.896C79.2584 54.2107 78.4904 54.3013 77.6478 54.168V57.6H76.5598ZM76.5598 53.072V46.296C76.1278 46.2213 75.7118 46.2347 75.3118 46.336C74.9118 46.432 74.5518 46.6213 74.2318 46.904C73.9118 47.1813 73.6584 47.552 73.4718 48.016C73.2904 48.4747 73.1998 49.032 73.1998 49.688C73.1998 50.344 73.2931 50.904 73.4798 51.368C73.6664 51.8267 73.9198 52.1947 74.2398 52.472C74.5598 52.7493 74.9198 52.936 75.3198 53.032C75.7198 53.128 76.1331 53.1413 76.5598 53.072ZM77.6478 53.072C78.0744 53.1413 78.4878 53.128 78.8878 53.032C79.2878 52.936 79.6478 52.752 79.9678 52.48C80.2878 52.2027 80.5411 51.8347 80.7278 51.376C80.9144 50.912 81.0078 50.3493 81.0078 49.688C81.0078 49.0267 80.9144 48.4667 80.7278 48.008C80.5464 47.544 80.2958 47.1733 79.9757 46.896C79.6558 46.6187 79.2958 46.432 78.8958 46.336C78.4958 46.2347 78.0798 46.2213 77.6478 46.296V53.072ZM87.5874 54.24C86.7287 54.24 85.9954 54.0453 85.3874 53.656C84.7794 53.2667 84.3127 52.728 83.9874 52.04C83.662 51.352 83.4994 50.5627 83.4994 49.672C83.4994 48.7653 83.6647 47.9707 83.9954 47.288C84.326 46.6053 84.7954 46.0747 85.4034 45.696C86.0167 45.312 86.7447 45.12 87.5874 45.12C88.4514 45.12 89.1874 45.3147 89.7954 45.704C90.4087 46.088 90.8754 46.624 91.1954 47.312C91.5207 47.9947 91.6834 48.7813 91.6834 49.672C91.6834 50.5787 91.5207 51.376 91.1954 52.064C90.87 52.7467 90.4007 53.28 89.7874 53.664C89.174 54.048 88.4407 54.24 87.5874 54.24ZM87.5874 53.112C88.5474 53.112 89.262 52.7947 89.7314 52.16C90.2007 51.52 90.4354 50.6907 90.4354 49.672C90.4354 48.6267 90.198 47.7947 89.7234 47.176C89.254 46.5573 88.542 46.248 87.5874 46.248C86.942 46.248 86.4087 46.3947 85.9874 46.688C85.5714 46.976 85.2594 47.3787 85.0514 47.896C84.8487 48.408 84.7474 49 84.7474 49.672C84.7474 50.712 84.9874 51.5467 85.4674 52.176C85.9474 52.8 86.654 53.112 87.5874 53.112ZM93.4401 54V45.36H94.6161V49.112H99.4881V45.36H100.664V54H99.4881V50.24H94.6161V54H93.4401Z" fill="#344351"/>
<path d="M126.832 54H125.648V44.552L119.304 54H118.12V42.48H119.304V51.92L125.648 42.48H126.832V54ZM132.657 54.24C131.788 54.24 131.052 54.0453 130.449 53.656C129.846 53.2667 129.388 52.7307 129.073 52.048C128.764 51.36 128.604 50.5707 128.593 49.68C128.604 48.7733 128.769 47.9787 129.089 47.296C129.409 46.608 129.87 46.0747 130.473 45.696C131.076 45.312 131.806 45.12 132.665 45.12C133.54 45.12 134.3 45.3333 134.945 45.76C135.596 46.1867 136.041 46.7707 136.281 47.512L135.129 47.88C134.926 47.3627 134.604 46.9627 134.161 46.68C133.724 46.392 133.222 46.248 132.657 46.248C132.022 46.248 131.497 46.3947 131.081 46.688C130.665 46.976 130.356 47.3787 130.153 47.896C129.95 48.4133 129.846 49.008 129.841 49.68C129.852 50.7147 130.092 51.5467 130.561 52.176C131.03 52.8 131.729 53.112 132.657 53.112C133.244 53.112 133.742 52.9787 134.153 52.712C134.569 52.44 134.884 52.0453 135.097 51.528L136.281 51.88C135.961 52.648 135.492 53.2347 134.873 53.64C134.254 54.04 133.516 54.24 132.657 54.24ZM140.073 54V46.448H137.009V45.36H144.313V46.448H141.249V54H140.073ZM149.291 54.24C148.432 54.24 147.699 54.0453 147.091 53.656C146.483 53.2667 146.016 52.728 145.691 52.04C145.365 51.352 145.203 50.5627 145.203 49.672C145.203 48.7653 145.368 47.9707 145.699 47.288C146.029 46.6053 146.499 46.0747 147.107 45.696C147.72 45.312 148.448 45.12 149.291 45.12C150.155 45.12 150.891 45.3147 151.499 45.704C152.112 46.088 152.579 46.624 152.899 47.312C153.224 47.9947 153.387 48.7813 153.387 49.672C153.387 50.5787 153.224 51.376 152.899 52.064C152.573 52.7467 152.104 53.28 151.491 53.664C150.877 54.048 150.144 54.24 149.291 54.24ZM149.291 53.112C150.251 53.112 150.965 52.7947 151.435 52.16C151.904 51.52 152.139 50.6907 152.139 49.672C152.139 48.6267 151.901 47.7947 151.427 47.176C150.957 46.5573 150.245 46.248 149.291 46.248C148.645 46.248 148.112 46.3947 147.691 46.688C147.275 46.976 146.963 47.3787 146.755 47.896C146.552 48.408 146.451 49 146.451 49.672C146.451 50.712 146.691 51.5467 147.171 52.176C147.651 52.8 148.357 53.112 149.291 53.112ZM159.031 54.24C158.237 54.24 157.565 54.04 157.015 53.64C156.466 53.2347 156.05 52.688 155.767 52C155.485 51.3067 155.343 50.5307 155.343 49.672C155.343 48.7973 155.485 48.0187 155.767 47.336C156.055 46.648 156.477 46.1067 157.031 45.712C157.586 45.3173 158.269 45.12 159.079 45.12C159.869 45.12 160.546 45.32 161.111 45.72C161.677 46.12 162.109 46.664 162.407 47.352C162.711 48.04 162.863 48.8133 162.863 49.672C162.863 50.536 162.711 51.312 162.407 52C162.103 52.688 161.666 53.2347 161.095 53.64C160.525 54.04 159.837 54.24 159.031 54.24ZM155.143 57.84V45.36H156.199V51.864H156.327V57.84H155.143ZM158.911 53.144C159.514 53.144 160.015 52.992 160.415 52.688C160.815 52.384 161.114 51.9707 161.311 51.448C161.514 50.92 161.615 50.328 161.615 49.672C161.615 49.0213 161.517 48.4347 161.319 47.912C161.122 47.3893 160.821 46.976 160.415 46.672C160.015 46.368 159.506 46.216 158.887 46.216C158.285 46.216 157.783 46.3627 157.383 46.656C156.989 46.9493 156.693 47.3573 156.495 47.88C156.298 48.3973 156.199 48.9947 156.199 49.672C156.199 50.3387 156.298 50.936 156.495 51.464C156.693 51.9867 156.991 52.3973 157.391 52.696C157.791 52.9947 158.298 53.144 158.911 53.144ZM171.484 45.36V54H170.34V47.272L165.604 54H164.612V45.36H165.756V52.032L170.5 45.36H171.484ZM179.145 54V50.744H177.129C176.895 50.744 176.652 50.736 176.401 50.72C176.156 50.6987 175.927 50.6693 175.713 50.632C175.105 50.5147 174.588 50.248 174.161 49.832C173.74 49.4107 173.529 48.8293 173.529 48.088C173.529 47.3627 173.727 46.7813 174.121 46.344C174.516 45.9013 174.993 45.6133 175.553 45.48C175.809 45.4213 176.068 45.3867 176.329 45.376C176.596 45.3653 176.825 45.36 177.017 45.36H180.321L180.329 54H179.145ZM173.249 54L175.657 50.376H176.961L174.537 54H173.249ZM177.065 49.736H179.145V46.368H177.065C176.937 46.368 176.759 46.3733 176.529 46.384C176.3 46.3947 176.084 46.4293 175.881 46.488C175.705 46.5413 175.529 46.6347 175.353 46.768C175.183 46.896 175.039 47.0693 174.921 47.288C174.804 47.5013 174.745 47.7627 174.745 48.072C174.745 48.504 174.863 48.8507 175.097 49.112C175.337 49.368 175.636 49.544 175.993 49.64C176.185 49.6827 176.377 49.7093 176.569 49.72C176.761 49.7307 176.927 49.736 177.065 49.736ZM188.888 54.24C188.019 54.24 187.259 54.0507 186.608 53.672C185.963 53.288 185.454 52.7573 185.08 52.08L186.024 51.48C186.339 52.0133 186.731 52.4187 187.2 52.696C187.67 52.9733 188.208 53.112 188.816 53.112C189.451 53.112 189.96 52.9653 190.344 52.672C190.728 52.3787 190.92 51.976 190.92 51.464C190.92 51.112 190.838 50.832 190.672 50.624C190.512 50.416 190.267 50.2667 189.936 50.176C189.611 50.0853 189.203 50.04 188.712 50.04H187.688V49.032H188.696C189.294 49.032 189.774 48.9253 190.136 48.712C190.504 48.4933 190.688 48.152 190.688 47.688C190.688 47.1973 190.504 46.8347 190.136 46.6C189.774 46.36 189.339 46.24 188.832 46.24C188.32 46.24 187.835 46.3467 187.376 46.56C186.923 46.768 186.542 47.0373 186.232 47.368L185.48 46.576C185.912 46.1013 186.416 45.7413 186.992 45.496C187.574 45.2453 188.216 45.12 188.92 45.12C189.475 45.12 189.976 45.2187 190.424 45.416C190.878 45.608 191.235 45.8907 191.496 46.264C191.763 46.6373 191.896 47.0853 191.896 47.608C191.896 48.0987 191.776 48.5227 191.536 48.88C191.302 49.2373 190.968 49.5333 190.536 49.768L190.472 49.328C190.846 49.3973 191.155 49.5467 191.4 49.776C191.646 50.0053 191.827 50.28 191.944 50.6C192.062 50.92 192.12 51.2453 192.12 51.576C192.12 52.1253 191.976 52.6 191.688 53C191.406 53.3947 191.019 53.7013 190.528 53.92C190.043 54.1333 189.496 54.24 188.888 54.24ZM193.878 54V45.36H197.438C197.619 45.36 197.838 45.3707 198.094 45.392C198.355 45.4133 198.598 45.4533 198.822 45.512C199.307 45.64 199.696 45.9013 199.99 46.296C200.288 46.6907 200.438 47.1653 200.438 47.72C200.438 48.0293 200.39 48.3067 200.294 48.552C200.203 48.792 200.072 49 199.902 49.176C199.822 49.2667 199.734 49.3467 199.638 49.416C199.542 49.48 199.448 49.5333 199.358 49.576C199.528 49.608 199.712 49.6827 199.91 49.8C200.219 49.9813 200.454 50.2267 200.614 50.536C200.774 50.84 200.854 51.2107 200.854 51.648C200.854 52.24 200.712 52.7227 200.43 53.096C200.147 53.4693 199.768 53.7253 199.294 53.864C199.08 53.9227 198.848 53.96 198.598 53.976C198.352 53.992 198.12 54 197.902 54H193.878ZM195.062 53H197.846C197.958 53 198.099 52.992 198.27 52.976C198.44 52.9547 198.592 52.928 198.726 52.896C199.04 52.816 199.27 52.656 199.414 52.416C199.563 52.1707 199.638 51.904 199.638 51.616C199.638 51.2373 199.526 50.928 199.302 50.688C199.083 50.4427 198.79 50.2933 198.422 50.24C198.299 50.2133 198.171 50.1973 198.038 50.192C197.904 50.1867 197.784 50.184 197.678 50.184H195.062V53ZM195.062 49.176H197.478C197.616 49.176 197.771 49.168 197.942 49.152C198.118 49.1307 198.27 49.096 198.398 49.048C198.675 48.952 198.878 48.7867 199.006 48.552C199.139 48.3173 199.206 48.0613 199.206 47.784C199.206 47.48 199.134 47.2133 198.99 46.984C198.851 46.7547 198.64 46.5947 198.358 46.504C198.166 46.4347 197.958 46.3947 197.734 46.384C197.515 46.3733 197.376 46.368 197.318 46.368H195.062V49.176ZM206.056 54.24C205.197 54.24 204.464 54.0453 203.856 53.656C203.248 53.2667 202.781 52.728 202.456 52.04C202.131 51.352 201.968 50.5627 201.968 49.672C201.968 48.7653 202.133 47.9707 202.464 47.288C202.795 46.6053 203.264 46.0747 203.872 45.696C204.485 45.312 205.213 45.12 206.056 45.12C206.92 45.12 207.656 45.3147 208.264 45.704C208.877 46.088 209.344 46.624 209.664 47.312C209.989 47.9947 210.152 48.7813 210.152 49.672C210.152 50.5787 209.989 51.376 209.664 52.064C209.339 52.7467 208.869 53.28 208.256 53.664C207.643 54.048 206.909 54.24 206.056 54.24ZM206.056 53.112C207.016 53.112 207.731 52.7947 208.2 52.16C208.669 51.52 208.904 50.6907 208.904 49.672C208.904 48.6267 208.667 47.7947 208.192 47.176C207.723 46.5573 207.011 46.248 206.056 46.248C205.411 46.248 204.877 46.3947 204.456 46.688C204.04 46.976 203.728 47.3787 203.52 47.896C203.317 48.408 203.216 49 203.216 49.672C203.216 50.712 203.456 51.5467 203.936 52.176C204.416 52.8 205.123 53.112 206.056 53.112ZM211.909 54V45.36H213.085V49.112H217.957V45.36H219.133V54H217.957V50.24H213.085V54H211.909ZM221.362 54L221.37 45.36H222.554V49.52L226.41 45.36H227.978L223.93 49.68L228.506 54H226.794L222.554 49.84V54H221.362ZM232.759 54.24C231.901 54.24 231.167 54.0453 230.559 53.656C229.951 53.2667 229.485 52.728 229.159 52.04C228.834 51.352 228.671 50.5627 228.671 49.672C228.671 48.7653 228.837 47.9707 229.167 47.288C229.498 46.6053 229.967 46.0747 230.575 45.696C231.189 45.312 231.917 45.12 232.759 45.12C233.623 45.12 234.359 45.3147 234.967 45.704C235.581 46.088 236.047 46.624 236.367 47.312C236.693 47.9947 236.855 48.7813 236.855 49.672C236.855 50.5787 236.693 51.376 236.367 52.064C236.042 52.7467 235.573 53.28 234.959 53.664C234.346 54.048 233.613 54.24 232.759 54.24ZM232.759 53.112C233.719 53.112 234.434 52.7947 234.903 52.16C235.373 51.52 235.607 50.6907 235.607 49.672C235.607 48.6267 235.37 47.7947 234.895 47.176C234.426 46.5573 233.714 46.248 232.759 46.248C232.114 46.248 231.581 46.3947 231.159 46.688C230.743 46.976 230.431 47.3787 230.223 47.896C230.021 48.408 229.919 49 229.919 49.672C229.919 50.712 230.159 51.5467 230.639 52.176C231.119 52.8 231.826 53.112 232.759 53.112ZM238.612 54V45.36H242.172C242.353 45.36 242.572 45.3707 242.828 45.392C243.089 45.4133 243.332 45.4533 243.556 45.512C244.041 45.64 244.431 45.9013 244.724 46.296C245.023 46.6907 245.172 47.1653 245.172 47.72C245.172 48.0293 245.124 48.3067 245.028 48.552C244.937 48.792 244.807 49 244.636 49.176C244.556 49.2667 244.468 49.3467 244.372 49.416C244.276 49.48 244.183 49.5333 244.092 49.576C244.263 49.608 244.447 49.6827 244.644 49.8C244.953 49.9813 245.188 50.2267 245.348 50.536C245.508 50.84 245.588 51.2107 245.588 51.648C245.588 52.24 245.447 52.7227 245.164 53.096C244.881 53.4693 244.503 53.7253 244.028 53.864C243.815 53.9227 243.583 53.96 243.332 53.976C243.087 53.992 242.855 54 242.636 54H238.612ZM239.796 53H242.58C242.692 53 242.833 52.992 243.004 52.976C243.175 52.9547 243.327 52.928 243.46 52.896C243.775 52.816 244.004 52.656 244.148 52.416C244.297 52.1707 244.372 51.904 244.372 51.616C244.372 51.2373 244.26 50.928 244.036 50.688C243.817 50.4427 243.524 50.2933 243.156 50.24C243.033 50.2133 242.905 50.1973 242.772 50.192C242.639 50.1867 242.519 50.184 242.412 50.184H239.796V53ZM239.796 49.176H242.212C242.351 49.176 242.505 49.168 242.676 49.152C242.852 49.1307 243.004 49.096 243.132 49.048C243.409 48.952 243.612 48.7867 243.74 48.552C243.873 48.3173 243.94 48.0613 243.94 47.784C243.94 47.48 243.868 47.2133 243.724 46.984C243.585 46.7547 243.375 46.5947 243.092 46.504C242.9 46.4347 242.692 46.3947 242.468 46.384C242.249 46.3733 242.111 46.368 242.052 46.368H239.796V49.176Z" fill="#9CA5AC"/>
<path d="M263.12 54V42.48H264.296V47.92L269.552 42.48H271.056L265.688 48.04L271.496 54H269.96L264.296 48.24V54H263.12ZM275.587 54.24C274.729 54.24 273.995 54.0453 273.387 53.656C272.779 53.2667 272.313 52.728 271.987 52.04C271.662 51.352 271.499 50.5627 271.499 49.672C271.499 48.7653 271.665 47.9707 271.995 47.288C272.326 46.6053 272.795 46.0747 273.403 45.696C274.017 45.312 274.745 45.12 275.587 45.12C276.451 45.12 277.187 45.3147 277.795 45.704C278.409 46.088 278.875 46.624 279.195 47.312C279.521 47.9947 279.683 48.7813 279.683 49.672C279.683 50.5787 279.521 51.376 279.195 52.064C278.87 52.7467 278.401 53.28 277.787 53.664C277.174 54.048 276.441 54.24 275.587 54.24ZM275.587 53.112C276.547 53.112 277.262 52.7947 277.731 52.16C278.201 51.52 278.435 50.6907 278.435 49.672C278.435 48.6267 278.198 47.7947 277.723 47.176C277.254 46.5573 276.542 46.248 275.587 46.248C274.942 46.248 274.409 46.3947 273.987 46.688C273.571 46.976 273.259 47.3787 273.051 47.896C272.849 48.408 272.747 49 272.747 49.672C272.747 50.712 272.987 51.5467 273.467 52.176C273.947 52.8 274.654 53.112 275.587 53.112ZM281.44 54V45.36H282.616V49.112H287.488V45.36H288.664V54H287.488V50.24H282.616V54H281.44ZM293.245 54V46.448H290.181V45.36H297.485V46.448H294.421V54H293.245ZM301.155 54.24C300.504 54.24 299.957 54.1227 299.515 53.888C299.077 53.6533 298.749 53.3413 298.531 52.952C298.312 52.5627 298.203 52.1387 298.203 51.68C298.203 51.2107 298.296 50.8107 298.483 50.48C298.675 50.144 298.933 49.8693 299.259 49.656C299.589 49.4427 299.971 49.28 300.403 49.168C300.84 49.0613 301.323 48.968 301.851 48.888C302.384 48.8027 302.904 48.7307 303.411 48.672C303.923 48.608 304.371 48.5467 304.755 48.488L304.339 48.744C304.355 47.8907 304.189 47.2587 303.843 46.848C303.496 46.4373 302.893 46.232 302.035 46.232C301.443 46.232 300.941 46.3653 300.531 46.632C300.125 46.8987 299.84 47.32 299.674 47.896L298.531 47.56C298.728 46.7867 299.125 46.1867 299.723 45.76C300.32 45.3333 301.096 45.12 302.051 45.12C302.84 45.12 303.509 45.2693 304.059 45.568C304.613 45.8613 305.005 46.288 305.235 46.848C305.341 47.0987 305.411 47.3787 305.443 47.688C305.475 47.9973 305.491 48.312 305.491 48.632V54H304.443V51.832L304.747 51.96C304.453 52.7013 303.997 53.2667 303.379 53.656C302.76 54.0453 302.019 54.24 301.155 54.24ZM301.291 53.224C301.84 53.224 302.32 53.1253 302.731 52.928C303.141 52.7307 303.472 52.4613 303.723 52.12C303.973 51.7733 304.136 51.384 304.211 50.952C304.275 50.6747 304.309 50.3707 304.315 50.04C304.32 49.704 304.323 49.4533 304.323 49.288L304.771 49.52C304.371 49.5733 303.936 49.6267 303.467 49.68C303.003 49.7333 302.544 49.7947 302.091 49.864C301.643 49.9333 301.237 50.016 300.875 50.112C300.629 50.1813 300.392 50.28 300.163 50.408C299.933 50.5307 299.744 50.696 299.595 50.904C299.451 51.112 299.379 51.3707 299.379 51.68C299.379 51.9307 299.44 52.1733 299.562 52.408C299.691 52.6427 299.893 52.8373 300.171 52.992C300.453 53.1467 300.827 53.224 301.291 53.224ZM307.565 54L307.573 45.36H308.757V49.52L312.613 45.36H314.181L310.133 49.68L314.709 54H312.997L308.757 49.84V54H307.565ZM317.855 54V46.448H314.791V45.36H322.095V46.448H319.031V54H317.855ZM323.628 54L323.612 45.36H324.796V48.616H326.3C326.551 48.616 326.796 48.6213 327.036 48.632C327.276 48.6427 327.492 48.664 327.684 48.696C328.111 48.7813 328.489 48.9253 328.82 49.128C329.151 49.3307 329.412 49.6107 329.604 49.968C329.796 50.32 329.892 50.7653 329.892 51.304C329.892 52.0453 329.7 52.6293 329.316 53.056C328.932 53.4827 328.449 53.76 327.868 53.888C327.649 53.936 327.412 53.968 327.156 53.984C326.9 53.9947 326.649 54 326.404 54H323.628ZM324.796 52.992H326.356C326.532 52.992 326.732 52.9867 326.956 52.976C327.18 52.9653 327.377 52.936 327.548 52.888C327.836 52.808 328.095 52.648 328.324 52.408C328.559 52.1627 328.676 51.7947 328.676 51.304C328.676 50.8187 328.564 50.4533 328.34 50.208C328.116 49.9573 327.817 49.792 327.444 49.712C327.273 49.6747 327.092 49.6507 326.9 49.64C326.713 49.6293 326.532 49.624 326.356 49.624H324.796V52.992ZM330.924 54V45.36H332.1V54H330.924Z" fill="#9CA5AC"/>
<path d="M35 118C35 115.239 37.2386 113 40 113H189.564V168H35V118Z" fill="white"/>
<path d="M111.909 147V136.792L109.741 138.096V136.776L111.909 135.48H113.101V147H111.909Z" fill="#5E6B77"/>
<rect width="154.564" height="55" transform="translate(35 171)" fill="white"/>
<path d="M113.473 205V202.768H108.081V201.648L111.937 193.48H113.257L109.401 201.648H113.473V198.288H114.657V201.648H115.913V202.768H114.657V205H113.473Z" fill="#5E6B77"/>
<rect width="154.564" height="55" transform="translate(35 229)" fill="white"/>
<path d="M109.517 263L113.757 252.624H108.421V251.48H115.013V252.624L110.781 263H109.517Z" fill="#5E6B77"/>
<path d="M35 287H189.564V342H40C37.2386 342 35 339.761 35 337V287Z" fill="white"/>
<path d="M110.861 314.768L109.981 314.128L111.245 312.496L109.269 311.896L109.605 310.864L111.549 311.552L111.501 309.48H112.589L112.541 311.552L114.477 310.864L114.813 311.896L112.845 312.496L114.093 314.128L113.213 314.768L112.045 313.072L110.861 314.768Z" fill="#5E6B77"/>
<rect width="154.564" height="55" transform="translate(192.719 113)" fill="white"/>
<path d="M265.8 146.992L265.808 145.92L271.016 141.216C271.464 140.811 271.76 140.427 271.904 140.064C272.053 139.696 272.128 139.312 272.128 138.912C272.128 138.437 272.016 138.008 271.792 137.624C271.568 137.24 271.267 136.936 270.888 136.712C270.509 136.483 270.085 136.368 269.616 136.368C269.125 136.368 268.688 136.485 268.304 136.72C267.92 136.955 267.616 137.264 267.392 137.648C267.173 138.032 267.067 138.451 267.072 138.904H265.872C265.872 138.205 266.037 137.579 266.368 137.024C266.699 136.469 267.147 136.035 267.712 135.72C268.277 135.4 268.917 135.24 269.632 135.24C270.331 135.24 270.957 135.405 271.512 135.736C272.072 136.061 272.512 136.504 272.832 137.064C273.157 137.619 273.32 138.237 273.32 138.92C273.32 139.4 273.261 139.824 273.144 140.192C273.032 140.555 272.853 140.893 272.608 141.208C272.368 141.517 272.061 141.837 271.688 142.168L267.064 146.344L266.88 145.864H273.32V146.992H265.8Z" fill="#5E6B77"/>
<rect width="154.564" height="55" transform="translate(192.719 171)" fill="white"/>
<path d="M269.52 205.24C268.923 205.24 268.371 205.117 267.864 204.872C267.357 204.627 266.925 204.288 266.568 203.856C266.211 203.424 265.955 202.928 265.8 202.368L266.928 202.064C267.029 202.48 267.213 202.84 267.48 203.144C267.747 203.443 268.059 203.675 268.416 203.84C268.779 204.005 269.157 204.088 269.552 204.088C270.064 204.088 270.523 203.965 270.928 203.72C271.339 203.469 271.664 203.139 271.904 202.728C272.144 202.317 272.264 201.867 272.264 201.376C272.264 200.869 272.139 200.413 271.888 200.008C271.637 199.597 271.307 199.272 270.896 199.032C270.485 198.792 270.037 198.672 269.552 198.672C269.008 198.672 268.539 198.792 268.144 199.032C267.749 199.267 267.435 199.563 267.2 199.92L266.128 199.472L266.48 193.48H272.632V194.608H267L267.584 194.056L267.272 199.168L266.976 198.776C267.307 198.397 267.707 198.101 268.176 197.888C268.645 197.675 269.139 197.568 269.656 197.568C270.365 197.568 271.005 197.739 271.576 198.08C272.147 198.416 272.6 198.872 272.936 199.448C273.272 200.024 273.44 200.667 273.44 201.376C273.44 202.08 273.261 202.725 272.904 203.312C272.547 203.893 272.072 204.36 271.48 204.712C270.888 205.064 270.235 205.24 269.52 205.24Z" fill="#5E6B77"/>
<rect width="154.564" height="55" transform="translate(192.719 229)" fill="white"/>
<path d="M269.632 263.24C268.912 263.24 268.275 263.096 267.72 262.808C267.171 262.52 266.739 262.117 266.424 261.6C266.115 261.077 265.96 260.467 265.96 259.768C265.96 259.053 266.133 258.419 266.48 257.864C266.827 257.304 267.355 256.88 268.064 256.592L268.048 257.056C267.456 256.837 267.005 256.48 266.696 255.984C266.387 255.488 266.232 254.939 266.232 254.336C266.232 253.696 266.379 253.147 266.672 252.688C266.965 252.224 267.365 251.867 267.872 251.616C268.384 251.365 268.971 251.24 269.632 251.24C270.293 251.24 270.88 251.365 271.392 251.616C271.904 251.867 272.307 252.224 272.6 252.688C272.893 253.147 273.04 253.696 273.04 254.336C273.04 254.939 272.891 255.485 272.592 255.976C272.299 256.467 271.848 256.827 271.24 257.056L271.2 256.592C271.909 256.875 272.44 257.296 272.792 257.856C273.149 258.416 273.328 259.053 273.328 259.768C273.328 260.467 273.171 261.077 272.856 261.6C272.541 262.117 272.107 262.52 271.552 262.808C270.997 263.096 270.357 263.24 269.632 263.24ZM269.632 262.112C270.357 262.112 270.947 261.912 271.4 261.512C271.853 261.107 272.08 260.525 272.08 259.768C272.08 259 271.856 258.419 271.408 258.024C270.96 257.624 270.368 257.424 269.632 257.424C268.896 257.424 268.307 257.624 267.864 258.024C267.421 258.419 267.2 259 267.2 259.768C267.2 260.525 267.424 261.107 267.872 261.512C268.32 261.912 268.907 262.112 269.632 262.112ZM269.632 256.288C270.272 256.288 270.792 256.125 271.192 255.8C271.592 255.469 271.792 254.981 271.792 254.336C271.792 253.691 271.592 253.208 271.192 252.888C270.792 252.563 270.272 252.4 269.632 252.4C268.992 252.4 268.472 252.563 268.072 252.888C267.677 253.208 267.48 253.691 267.48 254.336C267.48 254.981 267.677 255.469 268.072 255.8C268.472 256.125 268.992 256.288 269.632 256.288Z" fill="#5E6B77"/>
<rect width="154.564" height="55" transform="translate(192.719 287)" fill="white"/>
<path d="M269.88 321.24C269.171 321.24 268.531 321.075 267.96 320.744C267.395 320.413 266.947 319.965 266.616 319.4C266.285 318.829 266.12 318.189 266.12 317.48V313C266.12 312.291 266.285 311.653 266.616 311.088C266.947 310.517 267.395 310.067 267.96 309.736C268.531 309.405 269.171 309.24 269.88 309.24C270.589 309.24 271.227 309.405 271.792 309.736C272.363 310.067 272.813 310.517 273.144 311.088C273.475 311.653 273.64 312.291 273.64 313V317.48C273.64 318.189 273.475 318.829 273.144 319.4C272.813 319.965 272.363 320.413 271.792 320.744C271.227 321.075 270.589 321.24 269.88 321.24ZM269.88 320.104C270.355 320.104 270.787 319.989 271.176 319.76C271.565 319.525 271.875 319.213 272.104 318.824C272.333 318.435 272.448 318.005 272.448 317.536V312.944C272.448 312.469 272.333 312.037 272.104 311.648C271.875 311.259 271.565 310.949 271.176 310.72C270.787 310.485 270.355 310.368 269.88 310.368C269.405 310.368 268.973 310.485 268.584 310.72C268.195 310.949 267.885 311.259 267.656 311.648C267.427 312.037 267.312 312.469 267.312 312.944V317.536C267.312 318.005 267.427 318.435 267.656 318.824C267.885 319.213 268.195 319.525 268.584 319.76C268.973 319.989 269.405 320.104 269.88 320.104Z" fill="#5E6B77"/>
<path d="M350.436 113H499.999C502.761 113 504.999 115.239 504.999 118V168H350.436V113Z" fill="white"/>
<path d="M427.433 147.232C426.862 147.232 426.337 147.131 425.857 146.928C425.377 146.725 424.963 146.437 424.617 146.064C424.27 145.685 424.017 145.235 423.857 144.712L424.977 144.376C425.169 144.947 425.483 145.379 425.921 145.672C426.363 145.965 426.862 146.107 427.417 146.096C427.929 146.085 428.369 145.971 428.737 145.752C429.11 145.533 429.395 145.229 429.593 144.84C429.79 144.451 429.889 144 429.889 143.488C429.889 142.704 429.659 142.075 429.201 141.6C428.747 141.12 428.147 140.88 427.401 140.88C427.193 140.88 426.974 140.909 426.745 140.968C426.515 141.021 426.302 141.099 426.105 141.2L425.513 140.264L429.993 136.128L430.185 136.608H424.313V135.48H430.969V136.624L427.065 140.352L427.049 139.888C427.849 139.787 428.553 139.877 429.161 140.16C429.769 140.443 430.243 140.875 430.585 141.456C430.931 142.032 431.105 142.709 431.105 143.488C431.105 144.224 430.945 144.875 430.625 145.44C430.31 146 429.875 146.44 429.321 146.76C428.766 147.075 428.137 147.232 427.433 147.232Z" fill="#5E6B77"/>
<rect width="154.564" height="55" transform="translate(350.436 171)" fill="white"/>
<path d="M427.733 205.24C427.013 205.24 426.357 205.067 425.765 204.72C425.178 204.368 424.709 203.893 424.357 203.296C424.01 202.693 423.837 202.016 423.837 201.264V197.272C423.837 196.499 424.01 195.811 424.357 195.208C424.703 194.6 425.175 194.123 425.773 193.776C426.375 193.424 427.058 193.248 427.821 193.248C428.477 193.248 429.085 193.392 429.645 193.68C430.21 193.968 430.671 194.371 431.029 194.888L430.125 195.632C429.879 195.248 429.554 194.941 429.149 194.712C428.743 194.483 428.301 194.368 427.821 194.368C427.282 194.368 426.802 194.499 426.381 194.76C425.959 195.021 425.629 195.365 425.389 195.792C425.149 196.213 425.029 196.672 425.029 197.168V199.68L424.733 199.344C425.069 198.816 425.509 198.389 426.053 198.064C426.602 197.739 427.199 197.576 427.845 197.576C428.559 197.576 429.202 197.747 429.773 198.088C430.343 198.424 430.797 198.88 431.133 199.456C431.469 200.032 431.637 200.677 431.637 201.392C431.637 202.101 431.458 202.747 431.101 203.328C430.749 203.909 430.277 204.373 429.685 204.72C429.098 205.067 428.447 205.24 427.733 205.24ZM427.733 204.096C428.234 204.096 428.69 203.976 429.101 203.736C429.517 203.496 429.845 203.171 430.085 202.76C430.33 202.349 430.453 201.893 430.453 201.392C430.453 200.891 430.33 200.435 430.085 200.024C429.845 199.608 429.519 199.28 429.109 199.04C428.698 198.795 428.242 198.672 427.741 198.672C427.239 198.672 426.783 198.795 426.373 199.04C425.962 199.28 425.634 199.608 425.389 200.024C425.149 200.435 425.029 200.891 425.029 201.392C425.029 201.888 425.149 202.341 425.389 202.752C425.629 203.163 425.954 203.491 426.365 203.736C426.775 203.976 427.231 204.096 427.733 204.096Z" fill="#5E6B77"/>
<rect width="154.564" height="55" transform="translate(350.436 229)" fill="white"/>
<path d="M427.629 251.248C428.354 251.248 429.01 251.424 429.597 251.776C430.189 252.123 430.658 252.597 431.005 253.2C431.351 253.797 431.525 254.469 431.525 255.216V259.216C431.525 259.984 431.351 260.672 431.005 261.28C430.658 261.888 430.183 262.368 429.581 262.72C428.983 263.067 428.303 263.24 427.541 263.24C426.885 263.24 426.277 263.096 425.717 262.808C425.162 262.515 424.703 262.112 424.341 261.6L425.237 260.856C425.482 261.235 425.807 261.539 426.213 261.768C426.623 261.997 427.066 262.112 427.541 262.112C428.085 262.112 428.565 261.984 428.981 261.728C429.402 261.467 429.733 261.125 429.973 260.704C430.218 260.277 430.341 259.816 430.341 259.32V256.808L430.629 257.144C430.298 257.672 429.858 258.099 429.309 258.424C428.765 258.749 428.167 258.912 427.517 258.912C426.807 258.912 426.165 258.741 425.589 258.4C425.018 258.059 424.565 257.6 424.229 257.024C423.898 256.448 423.733 255.805 423.733 255.096C423.733 254.387 423.909 253.741 424.261 253.16C424.613 252.573 425.085 252.109 425.677 251.768C426.269 251.421 426.919 251.248 427.629 251.248ZM427.629 252.384C427.127 252.384 426.671 252.507 426.261 252.752C425.85 252.992 425.522 253.317 425.277 253.728C425.037 254.139 424.917 254.595 424.917 255.096C424.917 255.597 425.037 256.053 425.277 256.464C425.517 256.875 425.842 257.203 426.253 257.448C426.663 257.688 427.119 257.808 427.621 257.808C428.122 257.808 428.578 257.688 428.989 257.448C429.405 257.203 429.733 256.875 429.973 256.464C430.218 256.053 430.341 255.597 430.341 255.096C430.341 254.6 430.218 254.147 429.973 253.736C429.733 253.325 429.407 252.997 428.997 252.752C428.586 252.507 428.13 252.384 427.629 252.384Z" fill="#5E6B77"/>
<path d="M350.436 287H504.999V337C504.999 339.761 502.761 342 499.999 342H350.436V287Z" fill="white"/>
<path d="M423.505 320.992L424.433 317.528H421.177L421.473 316.4H424.737L425.417 313.832H422.161L422.465 312.704H425.729L426.585 309.48H427.761L426.889 312.704H429.569L430.425 309.48H431.601L430.729 312.704H433.985L433.681 313.832H430.433L429.737 316.4H432.993L432.689 317.528H429.441L428.513 320.992H427.345L428.265 317.528H425.601L424.673 320.992H423.505ZM425.905 316.4H428.577L429.257 313.832H426.593L425.905 316.4Z" fill="#5E6B77"/>
<rect x="35" y="67" width="470" height="41" rx="5" fill="white"/>
<path d="M46.44 94V82.48H47.616V94H46.44Z" fill="#5E6B77"/>
<path d="M491.5 85.875L485.5 91.5L479.5 85.875" stroke="#5E6B77" stroke-linecap="round"/>
<rect x="35" y="349" width="154.564" height="55" rx="5" fill="#9CA5AC"/>
<path d="M112.281 389C119.185 389 124.781 383.404 124.781 376.5C124.781 369.596 119.185 364 112.281 364C105.378 364 99.7812 369.596 99.7812 376.5C99.7812 383.404 105.378 389 112.281 389Z" fill="white"/>
<path d="M112.281 380.406C114.978 380.406 117.164 378.22 117.164 375.523C117.164 372.827 114.978 370.641 112.281 370.641C109.585 370.641 107.398 372.827 107.398 375.523C107.398 378.22 109.585 380.406 112.281 380.406Z" stroke="#9CA5AC" stroke-miterlimit="10"/>
<path d="M104.469 385.875C105.202 384.229 106.32 382.848 107.699 381.882C109.078 380.917 110.664 380.406 112.281 380.406C113.899 380.406 115.485 380.917 116.864 381.882C118.242 382.848 119.36 384.229 120.094 385.875" stroke="#9CA5AC" stroke-linecap="square" stroke-linejoin="bevel"/>
<rect x="193" y="349" width="312" height="55" rx="5" fill="#9CA5AC"/>
<path d="M309.12 383V371.48H317.944V383H316.768V372.608H310.296V383H309.12ZM323.791 383.24C322.932 383.24 322.199 383.045 321.591 382.656C320.983 382.267 320.516 381.728 320.191 381.04C319.865 380.352 319.703 379.563 319.703 378.672C319.703 377.765 319.868 376.971 320.199 376.288C320.529 375.605 320.999 375.075 321.607 374.696C322.22 374.312 322.948 374.12 323.791 374.12C324.655 374.12 325.391 374.315 325.999 374.704C326.612 375.088 327.079 375.624 327.399 376.312C327.724 376.995 327.887 377.781 327.887 378.672C327.887 379.579 327.724 380.376 327.399 381.064C327.073 381.747 326.604 382.28 325.991 382.664C325.377 383.048 324.644 383.24 323.791 383.24ZM323.791 382.112C324.751 382.112 325.465 381.795 325.935 381.16C326.404 380.52 326.639 379.691 326.639 378.672C326.639 377.627 326.401 376.795 325.927 376.176C325.457 375.557 324.745 375.248 323.791 375.248C323.145 375.248 322.612 375.395 322.191 375.688C321.775 375.976 321.463 376.379 321.255 376.896C321.052 377.408 320.951 378 320.951 378.672C320.951 379.712 321.191 380.547 321.671 381.176C322.151 381.8 322.857 382.112 323.791 382.112ZM332.607 383.24C331.738 383.24 330.978 383.051 330.327 382.672C329.682 382.288 329.172 381.757 328.799 381.08L329.743 380.48C330.058 381.013 330.45 381.419 330.919 381.696C331.388 381.973 331.927 382.112 332.535 382.112C333.17 382.112 333.679 381.965 334.063 381.672C334.447 381.379 334.639 380.976 334.639 380.464C334.639 380.112 334.556 379.832 334.391 379.624C334.231 379.416 333.986 379.267 333.655 379.176C333.33 379.085 332.922 379.04 332.431 379.04H331.407V378.032H332.415C333.012 378.032 333.492 377.925 333.855 377.712C334.223 377.493 334.407 377.152 334.407 376.688C334.407 376.197 334.223 375.835 333.855 375.6C333.492 375.36 333.058 375.24 332.551 375.24C332.039 375.24 331.554 375.347 331.095 375.56C330.642 375.768 330.26 376.037 329.951 376.368L329.199 375.576C329.631 375.101 330.135 374.741 330.711 374.496C331.292 374.245 331.935 374.12 332.639 374.12C333.194 374.12 333.695 374.219 334.143 374.416C334.596 374.608 334.954 374.891 335.215 375.264C335.482 375.637 335.615 376.085 335.615 376.608C335.615 377.099 335.495 377.523 335.255 377.88C335.02 378.237 334.687 378.533 334.255 378.768L334.191 378.328C334.564 378.397 334.874 378.547 335.119 378.776C335.364 379.005 335.546 379.28 335.663 379.6C335.78 379.92 335.839 380.245 335.839 380.576C335.839 381.125 335.695 381.6 335.407 382C335.124 382.395 334.738 382.701 334.247 382.92C333.762 383.133 333.215 383.24 332.607 383.24ZM337.596 383V374.36H341.156C341.338 374.36 341.556 374.371 341.812 374.392C342.074 374.413 342.316 374.453 342.54 374.512C343.026 374.64 343.415 374.901 343.708 375.296C344.007 375.691 344.156 376.165 344.156 376.72C344.156 377.029 344.108 377.307 344.012 377.552C343.922 377.792 343.791 378 343.62 378.176C343.54 378.267 343.452 378.347 343.356 378.416C343.26 378.48 343.167 378.533 343.076 378.576C343.247 378.608 343.431 378.683 343.628 378.8C343.938 378.981 344.172 379.227 344.332 379.536C344.492 379.84 344.572 380.211 344.572 380.648C344.572 381.24 344.431 381.723 344.148 382.096C343.866 382.469 343.487 382.725 343.012 382.864C342.799 382.923 342.567 382.96 342.316 382.976C342.071 382.992 341.839 383 341.62 383H337.596ZM338.78 382H341.564C341.676 382 341.818 381.992 341.988 381.976C342.159 381.955 342.311 381.928 342.444 381.896C342.759 381.816 342.988 381.656 343.132 381.416C343.282 381.171 343.356 380.904 343.356 380.616C343.356 380.237 343.244 379.928 343.02 379.688C342.802 379.443 342.508 379.293 342.14 379.24C342.018 379.213 341.89 379.197 341.756 379.192C341.623 379.187 341.503 379.184 341.396 379.184H338.78V382ZM338.78 378.176H341.196C341.335 378.176 341.49 378.168 341.66 378.152C341.836 378.131 341.988 378.096 342.116 378.048C342.394 377.952 342.596 377.787 342.724 377.552C342.858 377.317 342.924 377.061 342.924 376.784C342.924 376.48 342.852 376.213 342.708 375.984C342.57 375.755 342.359 375.595 342.076 375.504C341.884 375.435 341.676 375.395 341.452 375.384C341.234 375.373 341.095 375.368 341.036 375.368H338.78V378.176ZM349.775 383.24C348.916 383.24 348.183 383.045 347.575 382.656C346.967 382.267 346.5 381.728 346.175 381.04C345.85 380.352 345.687 379.563 345.687 378.672C345.687 377.765 345.852 376.971 346.183 376.288C346.514 375.605 346.983 375.075 347.591 374.696C348.204 374.312 348.932 374.12 349.775 374.12C350.639 374.12 351.375 374.315 351.983 374.704C352.596 375.088 353.063 375.624 353.383 376.312C353.708 376.995 353.871 377.781 353.871 378.672C353.871 379.579 353.708 380.376 353.383 381.064C353.058 381.747 352.588 382.28 351.975 382.664C351.362 383.048 350.628 383.24 349.775 383.24ZM349.775 382.112C350.735 382.112 351.45 381.795 351.919 381.16C352.388 380.52 352.623 379.691 352.623 378.672C352.623 377.627 352.386 376.795 351.911 376.176C351.442 375.557 350.73 375.248 349.775 375.248C349.13 375.248 348.596 375.395 348.175 375.688C347.759 375.976 347.447 376.379 347.239 376.896C347.036 377.408 346.935 378 346.935 378.672C346.935 379.712 347.175 380.547 347.655 381.176C348.135 381.8 348.842 382.112 349.775 382.112ZM355.628 383V374.36H356.804V378.112H361.676V374.36H362.852V383H361.676V379.24H356.804V383H355.628ZM371.953 374.36V383H370.809V376.272L366.073 383H365.081V374.36H366.225V381.032L370.969 374.36H371.953ZM376.542 383V375.448H373.478V374.36H380.782V375.448H377.718V383H376.542ZM382.316 383L382.3 374.36H383.484V377.616H385.508C385.758 377.616 386.004 377.621 386.244 377.632C386.489 377.643 386.705 377.664 386.892 377.696C387.318 377.776 387.697 377.917 388.028 378.12C388.364 378.323 388.625 378.603 388.812 378.96C389.004 379.317 389.1 379.765 389.1 380.304C389.1 381.045 388.908 381.629 388.524 382.056C388.145 382.483 387.665 382.76 387.084 382.888C386.865 382.936 386.628 382.968 386.372 382.984C386.116 382.995 385.862 383 385.612 383H382.316ZM383.484 381.992H385.564C385.745 381.992 385.948 381.987 386.172 381.976C386.396 381.965 386.593 381.936 386.764 381.888C387.046 381.808 387.302 381.648 387.532 381.408C387.766 381.163 387.884 380.795 387.884 380.304C387.884 379.819 387.772 379.453 387.548 379.208C387.324 378.957 387.025 378.792 386.652 378.712C386.486 378.675 386.308 378.651 386.116 378.64C385.924 378.629 385.74 378.624 385.564 378.624H383.484V381.992Z" fill="white"/>
</svg>
