<svg width="125" height="25" viewBox="0 0 125 25" fill="none" xmlns="http://www.w3.org/2000/svg">
<g clip-path="url(#clip0_2126_21576)">
<path d="M5.2707 13.0312L0.881653 14.5752C1.12892 15.1311 1.43801 15.6457 1.7677 16.1192C1.93255 16.3662 2.24164 16.7162 2.61254 17.1485L7.64037 15.3781C6.61008 14.8428 5.78585 14.0194 5.2707 13.0312Z" fill="#E75D5C"/>
<path d="M9.00039 12.9901C10.484 13.69 12.2561 13.0724 12.9567 11.5902C13.6573 10.108 13.0391 8.33755 11.5555 7.63762C10.0719 6.93768 8.29979 7.55527 7.5992 9.03749C6.8986 10.5197 7.51677 12.2901 9.00039 12.9901Z" fill="#E75D5C"/>
<path d="M10.4222 0H10.2367C5.43555 0.0205863 1.39681 3.33498 0.263489 7.80221L8.4234 4.92013C9.78339 4.46723 11.3082 4.5084 12.7094 5.16716C15.553 6.52586 16.7688 9.94318 15.4088 12.7841C14.7082 14.2663 13.4306 15.2956 11.9676 15.7691L3.93133 18.61C6.07434 20.8333 9.06218 23.6948 9.96884 24.58C10.1543 24.7447 10.2573 24.8477 10.2573 24.8477C10.2573 24.8477 10.3603 24.7447 10.5458 24.58C11.9058 23.2831 17.7166 17.6836 18.7881 16.1397C19.8596 14.5751 20.5808 12.6606 20.5808 10.3343C20.6221 4.67309 16.0476 0.0823452 10.4222 0Z" fill="#E75D5C"/>
<path d="M-0.0249862 9.81957C-0.0249862 9.98426 -0.0455933 10.149 -0.0455933 10.3136C-0.0455933 11.24 0.0780417 12.0841 0.263494 12.8869L4.65254 11.343C4.44648 10.2519 4.57011 9.11964 5.04404 8.02856L-0.0249862 9.81957Z" fill="#E75D5C"/>
<path d="M34.9287 24.3151C34.2562 24.3151 33.9199 24.005 33.9199 23.514C33.9199 22.8938 34.3855 22.7646 35.1357 22.6871C35.7306 22.6095 36.041 22.6354 36.041 22.3253C36.041 22.041 35.8082 21.9118 35.3426 21.9118C34.7994 21.9118 34.5407 22.0668 34.5149 22.4545H34.0234C34.0493 21.8343 34.489 21.5242 35.3167 21.5242C36.1962 21.5242 36.5324 21.7567 36.5324 22.4028V23.4882C36.5324 23.7724 36.5842 23.9016 36.7652 23.9016C36.817 23.9016 36.8428 23.9016 36.9204 23.9016V24.2893C36.7652 24.3151 36.6359 24.3151 36.5324 24.3151C36.2479 24.3151 36.1186 24.16 36.0668 23.8758C35.8082 24.1342 35.4202 24.3151 34.9287 24.3151ZM35.2391 23.0747C34.7218 23.1264 34.4373 23.1781 34.4373 23.514C34.4373 23.7724 34.6442 23.9275 35.0322 23.9275C35.653 23.9275 36.0668 23.6174 36.0668 23.2814V22.8938C35.9116 22.9713 35.6271 23.023 35.2391 23.0747Z" fill="#333333"/>
<path d="M40.206 21.5759V21.9894H38.473V24.2377H37.9815V21.5759H40.206V21.5759Z" fill="#333333"/>
<path d="M41.5766 23.0232C41.5766 23.5401 41.9646 23.876 42.5337 23.876C42.9476 23.876 43.2838 23.7209 43.3873 23.4108H43.9564C43.7753 23.9794 43.258 24.3153 42.5596 24.3153C41.6542 24.3153 41.111 23.7726 41.111 22.9198C41.111 22.0671 41.6801 21.4985 42.5596 21.4985C43.4649 21.4985 44.0081 22.0412 44.0081 22.9198V23.0232H41.5766ZM43.4649 22.6614C43.3873 22.2221 43.051 21.9378 42.5337 21.9378C42.0164 21.9378 41.6801 22.2221 41.6025 22.6614H43.4649Z" fill="#333333"/>
<path d="M45.6373 22.6354H47.2669V21.5759H47.7583V24.2377H47.2669V23.0489H45.6373V24.2377H45.1458V21.5759H45.6373V22.6354Z" fill="#333333"/>
<path d="M51.4314 21.5759V21.9894H50.345V24.2377H49.8535V21.9894H48.7671V21.5759H51.4314Z" fill="#333333"/>
<path d="M54.5357 22.4803C54.4322 22.1444 54.1477 21.9635 53.7597 21.9635C53.1389 21.9635 52.7768 22.3511 52.7768 22.9455C52.7768 23.5398 53.1648 23.9016 53.7338 23.9016C54.1735 23.9016 54.4839 23.6691 54.5615 23.2814H55.0789C54.9754 23.9533 54.4581 24.3409 53.7338 24.3409C52.8802 24.3409 52.3112 23.7983 52.3112 22.9455C52.3112 22.0927 52.9061 21.5242 53.7597 21.5242C54.4581 21.5242 54.9754 21.9118 55.0789 22.4803H54.5357V22.4803Z" fill="#333333"/>
<path d="M58.5709 21.5759V21.9894H57.4845V24.2377H56.9931V21.9894H55.9067V21.5759H58.5709Z" fill="#333333"/>
<path d="M59.6052 21.5759H61.0537C61.6228 21.5759 61.9331 21.8343 61.9331 22.2478C61.9331 22.5579 61.7262 22.7388 61.571 22.8163C61.9073 22.9197 62.0884 23.1523 62.0884 23.4882C62.0884 23.9792 61.6745 24.2377 61.0537 24.2377H59.6052V21.5759ZM60.0966 22.6871H61.002C61.3124 22.6871 61.4934 22.5838 61.4934 22.3512C61.4934 22.0928 61.39 22.0152 61.002 22.0152H60.0708V22.6871H60.0966ZM60.0966 23.85H61.1054C61.4676 23.85 61.6486 23.7208 61.6486 23.4624C61.6486 23.1781 61.4676 23.0748 61.0537 23.0748H60.0966V23.85Z" fill="#333333"/>
<path d="M66.1754 22.9198C66.1754 23.7726 65.6063 24.3153 64.701 24.3153C63.7957 24.3153 63.2007 23.7726 63.2007 22.9198C63.2007 22.0671 63.7698 21.4985 64.701 21.4985C65.6063 21.4985 66.1754 22.0671 66.1754 22.9198ZM63.7181 22.9198C63.7181 23.5142 64.0802 23.876 64.701 23.876C65.2959 23.876 65.6839 23.5142 65.6839 22.9198C65.6839 22.3255 65.3218 21.9637 64.701 21.9637C64.0802 21.9379 63.7181 22.2996 63.7181 22.9198Z" fill="#333333"/>
<path d="M70.1329 22.6354H71.7625V21.5759H72.254V24.2377H71.7625V23.0489H70.1329V24.2377H69.6415V21.5759H70.1329V22.6354Z" fill="#333333"/>
<path d="M73.9096 23.0232C73.9096 23.5401 74.2976 23.876 74.8667 23.876C75.2806 23.876 75.591 23.7209 75.7203 23.4108H76.2894C76.1083 23.9794 75.591 24.3153 74.8926 24.3153C73.9872 24.3153 73.444 23.7726 73.444 22.9198C73.444 22.0671 74.0131 21.4985 74.8926 21.4985C75.7979 21.4985 76.3411 22.0412 76.3411 22.9198V23.0232H73.9096ZM75.7979 22.6614C75.7203 22.2221 75.384 21.9378 74.8667 21.9378C74.3494 21.9378 74.0131 22.2221 73.9355 22.6614H75.7979Z" fill="#333333"/>
<path d="M80.1174 21.5761V23.8244H80.4019V25.0131H79.9363V24.2379H77.6859V25.0131H77.2203V23.8244H77.479C77.6859 23.566 77.8411 23.2042 77.8411 22.4806V21.5503H80.1174V21.5761ZM78.3326 21.9896V22.5323C78.3326 23.2042 78.2033 23.5143 78.0222 23.8244H79.6518V21.9638H78.3326V21.9896Z" fill="#333333"/>
<path d="M81.4884 21.5759H82.9369C83.506 21.5759 83.8164 21.8343 83.8164 22.2478C83.8164 22.5579 83.6095 22.7388 83.4543 22.8163C83.7905 22.9197 83.9716 23.1523 83.9716 23.4882C83.9716 23.9792 83.5577 24.2377 82.9369 24.2377H81.4884V21.5759ZM81.9799 22.6871H82.8852C83.1956 22.6871 83.3767 22.5838 83.3767 22.3512C83.3767 22.0928 83.2732 22.0152 82.8852 22.0152H81.954V22.6871H81.9799ZM81.9799 23.85H82.9887C83.3508 23.85 83.5319 23.7208 83.5319 23.4624C83.5319 23.1781 83.3508 23.0748 82.9369 23.0748H81.9799V23.85Z" fill="#333333"/>
<path d="M85.7303 23.6433L87.3599 21.5759H87.9031V24.2377H87.4116V22.1703L85.782 24.2377H85.2647V21.5759H85.7562V23.6433H85.7303Z" fill="#333333"/>
<path d="M91.5504 21.5759V22.7388L92.9471 21.5759H93.6714L92.4039 22.5838L93.749 24.2118H93.1023L92.0418 22.868L91.5504 23.2557V24.2118H91.0589V23.2557L90.5674 22.868L89.5069 24.2118H88.8602L90.2053 22.5838L88.9378 21.5759H89.6362L91.033 22.7388V21.5759H91.5504Z" fill="#333333"/>
<path d="M95.2238 23.6433L96.8534 21.5759H97.3966V24.2377H96.9052V22.1703L95.2756 24.2377H94.7582V21.5759H95.2497V23.6433H95.2238Z" fill="#333333"/>
<path d="M99.4141 21.5759L100.345 23.6691L101.276 21.5759H101.949V24.2377H101.483V22.4804L101.509 21.9894L100.552 24.186H100.138L99.1554 21.9894L99.1813 22.4804V24.2377H98.7416V21.5759H99.4141Z" fill="#333333"/>
<path d="M106.114 22.9198C106.114 23.7726 105.545 24.3153 104.639 24.3153C103.734 24.3153 103.139 23.7726 103.139 22.9198C103.139 22.0671 103.708 21.4985 104.639 21.4985C105.545 21.4985 106.114 22.0671 106.114 22.9198ZM103.656 22.9198C103.656 23.5142 104.018 23.876 104.639 23.876C105.234 23.876 105.622 23.5142 105.622 22.9198C105.622 22.3255 105.26 21.9637 104.639 21.9637C104.018 21.9379 103.656 22.2996 103.656 22.9198Z" fill="#333333"/>
<path d="M109.399 22.4803C109.295 22.1444 109.011 21.9635 108.623 21.9635C108.002 21.9635 107.64 22.3511 107.64 22.9455C107.64 23.5398 108.028 23.9016 108.597 23.9016C109.037 23.9016 109.347 23.6691 109.425 23.2814H109.942C109.838 23.9533 109.321 24.3409 108.597 24.3409C107.743 24.3409 107.174 23.7983 107.174 22.9455C107.174 22.0927 107.769 21.5242 108.623 21.5242C109.321 21.5242 109.838 21.9118 109.942 22.4803H109.399V22.4803Z" fill="#333333"/>
<path d="M113.408 21.5759V21.9894H112.321V24.2377H111.83V21.9894H110.743V21.5759H113.408Z" fill="#333333"/>
<path d="M114.934 23.6433L116.563 21.5759H117.107V24.2377H116.615V22.1703L114.986 24.2377H114.468V21.5759H114.96V23.6433H114.934Z" fill="#333333"/>
<path d="M36.9752 16.1653C36.1252 16.6206 35.0002 17 33.4752 17C30.9752 17 29.4752 16.14 28.2752 15.0017C26.6502 13.4081 26.0002 11.6121 26.0002 9.51265C26.0002 6.90725 27.0752 5.03541 28.2752 3.89713C29.7002 2.5312 31.4752 2 33.5002 2C34.5002 2 35.7002 2.17707 37.0002 2.88533V6.1484C35.7002 4.63069 34.0752 4.52951 33.5752 4.52951C30.7252 4.52951 28.8752 6.90725 28.8752 9.53794C28.8752 12.7251 31.3002 14.4452 33.6752 14.4452C35.0002 14.4452 36.1752 13.8634 37.0002 12.8769V16.1653H36.9752Z" fill="#333333"/>
<path d="M52.0002 2V17H49.0402V4.53521H42.9602V17H40.0002V2H52.0002V2Z" fill="#333333"/>
<path d="M57.2502 2L60.8781 9.55282L63.9518 2H67.0002L60.3743 17H57.3258L59.3161 12.8275L54.0002 2.02641H57.2502V2Z" fill="#333333"/>
<path d="M75.5303 4.51323V17H72.4975V4.51323H69.0002V2H79.0002V4.51323H75.5303V4.51323Z" fill="#333333"/>
<path d="M83.8834 7.80986H90.1171V2H93.0002V17H90.1171V10.3187H83.8834V17H81.0002V2H83.8834V7.80986V7.80986Z" fill="#333333"/>
<path d="M106.764 2L98.8862 12.088V2.02641H96.0002V17H98.2102L106.14 6.88556V17H109V2H106.764Z" fill="#333333"/>
<path d="M115.797 8.32689L121.11 2H124.67L118.568 8.90686L125 16.9736H121.288L116.153 10.2777L115.822 10.6204V17H113V2.02636H115.822V8.32689H115.797Z" fill="#333333"/>
</g>
<defs>
<clipPath id="clip0_2126_21576">
<rect width="125" height="25" fill="white"/>
</clipPath>
</defs>
</svg>
