<svg width="132" height="27" viewBox="0 0 132 27" fill="none" xmlns="http://www.w3.org/2000/svg">
<g clip-path="url(#clip0_4917_31846)">
<path fill-rule="evenodd" clip-rule="evenodd" d="M101.769 7.0603C104.112 7.46253 106.224 8.68503 107.708 10.4981C109.191 12.3112 109.945 14.5901 109.826 16.9066C109.708 19.2231 108.726 21.4178 107.065 23.0783C105.404 24.7389 103.179 25.7509 100.806 25.9244C98.4339 26.0979 96.0782 25.4208 94.1817 24.0204C92.2853 22.6199 90.9786 20.5926 90.5073 18.3192C90.036 16.0458 90.4324 13.6828 91.622 11.6743C92.8117 9.66571 94.7127 8.1498 96.968 7.41135C98.5134 6.90637 100.164 6.7857 101.769 7.0603ZM43.531 20.6266C43.531 24.184 41.0665 25.96 36.1373 25.9548H24.1984V6.96669H35.4011C38.0577 6.96669 39.9222 7.27093 41.0024 7.86383C41.7916 8.2625 42.4484 8.87164 42.896 9.62026C43.3437 10.3689 43.564 11.2261 43.531 12.0921C43.5451 12.9859 43.2964 13.8649 42.8143 14.6253C42.3322 15.3856 41.6368 15.9955 40.8104 16.3827C41.6557 16.7281 42.372 17.3179 42.8628 18.0726C43.3536 18.8273 43.5952 19.7105 43.5551 20.6032L43.531 20.6266ZM38.0257 12.6538C38.0257 11.4602 37.1695 10.8595 35.4491 10.8595H29.3436V14.5027H35.4491C37.1695 14.5027 38.0257 13.8864 38.0257 12.6538ZM38.0257 20.2131C38.0257 18.9728 37.1775 18.3565 35.4811 18.3565H29.3436V22.0698H35.5211C37.2175 22.0698 38.0657 21.4457 38.0657 20.2131H38.0257ZM88.0218 25.9548H82.9006V18.4267H75.5068V25.9548H70.3696V6.96669H75.5068V14.2452H82.9006V6.96669H88.0218V25.9548ZM131.984 25.9548H125.071L117.197 16.7416V25.9548H112.06V6.96669H117.197V16.0863L125.479 6.96669H132.032L122.982 16.2579L132.032 25.9548H131.984ZM101.497 11.4134C100.795 11.1978 100.055 11.1254 99.3237 11.2007C98.5919 11.2759 97.8839 11.4972 97.2437 11.8508C96.6034 12.2044 96.0447 12.6826 95.6023 13.2558C95.1598 13.829 94.8432 14.4849 94.672 15.1826C94.5008 15.8802 94.4787 16.6048 94.6072 17.3111C94.7356 18.0175 95.0118 18.6905 95.4186 19.2882C95.8254 19.886 96.3541 20.3957 96.9717 20.7857C97.5893 21.1757 98.2826 21.4375 99.0085 21.555C99.8029 21.7105 100.623 21.6918 101.409 21.5003C102.555 21.2183 103.574 20.5747 104.306 19.6699C105.038 18.765 105.443 17.6495 105.458 16.4971C105.472 15.3446 105.096 14.2197 104.387 13.2975C103.678 12.3753 102.676 11.7074 101.537 11.3978L101.497 11.4134ZM59.3109 11.1247C60.5264 11.7017 61.5054 12.6634 62.0881 13.8527C62.6707 15.042 62.8226 16.3888 62.5189 17.6732C62.2153 18.9575 61.474 20.1036 60.4161 20.9242C59.3582 21.7449 58.0462 22.1917 56.6942 22.1917C55.3423 22.1917 54.0303 21.7449 52.9724 20.9242C51.9145 20.1036 51.1732 18.9575 50.8695 17.6732C50.5659 16.3888 50.7178 15.042 51.3004 13.8527C51.8831 12.6634 52.8621 11.7017 54.0776 11.1247V6.04614C51.491 6.66932 49.2279 8.19401 47.7154 10.3324C46.2029 12.4708 45.5455 15.0751 45.8675 17.6536C46.1895 20.2321 47.4685 22.6065 49.463 24.3287C51.4576 26.0509 54.0299 27.0017 56.6942 27.0017C59.3586 27.0017 61.9308 26.0509 63.9254 24.3287C65.92 22.6065 67.199 20.2321 67.521 17.6536C67.8429 15.0751 67.1856 12.4708 65.6731 10.3324C64.1606 8.19401 61.8974 6.66932 59.3109 6.04614V11.1247Z" fill="#F88C28"/>
<path fill-rule="evenodd" clip-rule="evenodd" d="M21.2372 18.7229C21.2372 23.5181 18.2631 25.9182 12.315 25.9234H0C0 21.1179 8.234 21.3363 11.2587 21.3363C13.718 21.3363 14.945 20.2962 14.9396 18.2158C14.9396 16.1251 13.7153 15.0953 11.2587 15.0953H4.31305V10.555H11.2027C13.6593 10.555 14.8756 9.54869 14.8756 7.55157C14.8756 5.55446 13.6433 4.58711 11.2027 4.58711C7.69787 4.58711 0 5.46085 0 0H11.3387C14.6035 0 16.8788 0.392661 18.1644 1.17798C19.1305 1.76117 19.9185 2.58628 20.4463 3.56733C20.974 4.54837 21.2223 5.64946 21.1651 6.75585C21.2147 8.06687 20.86 9.36228 20.1468 10.4748C19.4336 11.5873 18.3947 12.4658 17.1642 12.9968C19.8688 14.1202 21.2185 16.0445 21.2131 18.7697L21.2372 18.7229Z" fill="#F88C28"/>
<path fill-rule="evenodd" clip-rule="evenodd" d="M57.4492 19.5808C56.5564 19.7573 55.6283 19.5832 54.8665 19.0962C54.1047 18.6092 53.5708 17.8487 53.381 16.9801C53.1913 16.1114 53.3608 15.2049 53.8529 14.4575C54.345 13.7101 55.1198 13.1822 56.0089 12.9887V5.71802H57.6093V12.9887C58.0153 13.0806 58.4005 13.2445 58.7455 13.4724C59.3147 13.846 59.7569 14.3763 60.0159 14.9957C60.2749 15.6151 60.339 16.2957 60.2 16.9507C60.0609 17.6057 59.7251 18.2056 59.2353 18.674C58.7454 19.1424 58.1237 19.458 57.4492 19.5808Z" fill="#F88C28"/>
</g>
<defs>
<clipPath id="clip0_4917_31846">
<rect width="132" height="27" fill="white"/>
</clipPath>
</defs>
</svg>
