<svg width="290" height="289" viewBox="0 0 290 289" fill="none" xmlns="http://www.w3.org/2000/svg">
<line x1="22.5" y1="93.5" x2="22.5" y2="32.5" stroke="#F88C28" stroke-linecap="round" stroke-dasharray="3 3"/>
<rect x="0.5" y="0.5" width="289" height="42" rx="3.5" fill="white"/>
<path d="M83.9777 27.225C83.2427 27.225 82.6052 27.1175 82.0652 26.9025C81.5302 26.6875 81.0902 26.405 80.7452 26.055C80.4002 25.7 80.1427 25.3175 79.9727 24.9075L80.9777 24.3225C81.0977 24.6625 81.2877 24.9725 81.5477 25.2525C81.8077 25.5325 82.1427 25.755 82.5527 25.92C82.9627 26.085 83.4502 26.1675 84.0152 26.1675C84.6002 26.1675 85.0952 26.075 85.5002 25.89C85.9102 25.705 86.2202 25.445 86.4302 25.11C86.6402 24.775 86.7452 24.385 86.7452 23.94C86.7452 23.45 86.6277 23.07 86.3927 22.8C86.1577 22.53 85.8427 22.34 85.4477 22.23C85.0527 22.115 84.6127 22.05 84.1277 22.035C83.7627 22.02 83.5027 22.01 83.3477 22.005C83.1927 22 83.0902 21.9975 83.0402 21.9975C82.9902 21.9975 82.9427 21.9975 82.8977 21.9975V20.9325C82.9327 20.9325 83.0252 20.9325 83.1752 20.9325C83.3252 20.9325 83.4852 20.9325 83.6552 20.9325C83.8252 20.9275 83.9602 20.9225 84.0602 20.9175C84.7752 20.8825 85.3377 20.695 85.7477 20.355C86.1577 20.015 86.3627 19.555 86.3627 18.975C86.3627 18.36 86.1452 17.8825 85.7102 17.5425C85.2802 17.2025 84.7227 17.0325 84.0377 17.0325C83.3927 17.0325 82.8477 17.1875 82.4027 17.4975C81.9627 17.8025 81.6027 18.2125 81.3227 18.7275L80.4227 18.06C80.7627 17.45 81.2427 16.95 81.8627 16.56C82.4827 16.17 83.2177 15.975 84.0677 15.975C84.5227 15.975 84.9577 16.0375 85.3727 16.1625C85.7927 16.2875 86.1627 16.4725 86.4827 16.7175C86.8077 16.9625 87.0627 17.2725 87.2477 17.6475C87.4377 18.0175 87.5327 18.4525 87.5327 18.9525C87.5327 19.5375 87.4027 20.0475 87.1427 20.4825C86.8877 20.9175 86.5577 21.245 86.1527 21.465C86.7027 21.63 87.1327 21.92 87.4427 22.335C87.7577 22.75 87.9152 23.2925 87.9152 23.9625C87.9152 24.6225 87.7527 25.1975 87.4277 25.6875C87.1027 26.1775 86.6427 26.5575 86.0477 26.8275C85.4577 27.0925 84.7677 27.225 83.9777 27.225ZM89.4629 27V18.9H92.8004C92.9704 18.9 93.1754 18.91 93.4154 18.93C93.6604 18.95 93.8879 18.9875 94.0979 19.0425C94.5529 19.1625 94.9179 19.4075 95.1929 19.7775C95.4729 20.1475 95.6129 20.5925 95.6129 21.1125C95.6129 21.4025 95.5679 21.6625 95.4779 21.8925C95.3929 22.1175 95.2704 22.3125 95.1104 22.4775C95.0354 22.5625 94.9529 22.6375 94.8629 22.7025C94.7729 22.7625 94.6854 22.8125 94.6004 22.8525C94.7604 22.8825 94.9329 22.9525 95.1179 23.0625C95.4079 23.2325 95.6279 23.4625 95.7779 23.7525C95.9279 24.0375 96.0029 24.385 96.0029 24.795C96.0029 25.35 95.8704 25.8025 95.6054 26.1525C95.3404 26.5025 94.9854 26.7425 94.5404 26.8725C94.3404 26.9275 94.1229 26.9625 93.8879 26.9775C93.6579 26.9925 93.4404 27 93.2354 27H89.4629ZM90.5729 26.0625H93.1829C93.2879 26.0625 93.4204 26.055 93.5804 26.04C93.7404 26.02 93.8829 25.995 94.0079 25.965C94.3029 25.89 94.5179 25.74 94.6529 25.515C94.7929 25.285 94.8629 25.035 94.8629 24.765C94.8629 24.41 94.7579 24.12 94.5479 23.895C94.3429 23.665 94.0679 23.525 93.7229 23.475C93.6079 23.45 93.4879 23.435 93.3629 23.43C93.2379 23.425 93.1254 23.4225 93.0254 23.4225H90.5729V26.0625ZM90.5729 22.4775H92.8379C92.9679 22.4775 93.1129 22.47 93.2729 22.455C93.4379 22.435 93.5804 22.4025 93.7004 22.3575C93.9604 22.2675 94.1504 22.1125 94.2704 21.8925C94.3954 21.6725 94.4579 21.4325 94.4579 21.1725C94.4579 20.8875 94.3904 20.6375 94.2554 20.4225C94.1254 20.2075 93.9279 20.0575 93.6629 19.9725C93.4829 19.9075 93.2879 19.87 93.0779 19.86C92.8729 19.85 92.7429 19.845 92.6879 19.845H90.5729V22.4775ZM100.88 27.225C100.075 27.225 99.3878 27.0425 98.8178 26.6775C98.2478 26.3125 97.8103 25.8075 97.5053 25.1625C97.2003 24.5175 97.0478 23.7775 97.0478 22.9425C97.0478 22.0925 97.2028 21.3475 97.5128 20.7075C97.8228 20.0675 98.2628 19.57 98.8328 19.215C99.4078 18.855 100.09 18.675 100.88 18.675C101.69 18.675 102.38 18.8575 102.95 19.2225C103.525 19.5825 103.963 20.085 104.263 20.73C104.568 21.37 104.72 22.1075 104.72 22.9425C104.72 23.7925 104.568 24.54 104.263 25.185C103.958 25.825 103.518 26.325 102.943 26.685C102.368 27.045 101.68 27.225 100.88 27.225ZM100.88 26.1675C101.78 26.1675 102.45 25.87 102.89 25.275C103.33 24.675 103.55 23.8975 103.55 22.9425C103.55 21.9625 103.328 21.1825 102.883 20.6025C102.443 20.0225 101.775 19.7325 100.88 19.7325C100.275 19.7325 99.7753 19.87 99.3803 20.145C98.9903 20.415 98.6978 20.7925 98.5028 21.2775C98.3128 21.7575 98.2178 22.3125 98.2178 22.9425C98.2178 23.9175 98.4428 24.7 98.8928 25.29C99.3428 25.875 100.005 26.1675 100.88 26.1675ZM106.367 27V18.9H107.47V22.4175H112.037V18.9H113.14V27H112.037V23.475H107.47V27H106.367ZM118.62 27.225C117.815 27.225 117.127 27.0425 116.557 26.6775C115.987 26.3125 115.55 25.8075 115.245 25.1625C114.94 24.5175 114.787 23.7775 114.787 22.9425C114.787 22.0925 114.942 21.3475 115.252 20.7075C115.562 20.0675 116.002 19.57 116.572 19.215C117.147 18.855 117.83 18.675 118.62 18.675C119.43 18.675 120.12 18.8575 120.69 19.2225C121.265 19.5825 121.702 20.085 122.002 20.73C122.307 21.37 122.46 22.1075 122.46 22.9425C122.46 23.7925 122.307 24.54 122.002 25.185C121.697 25.825 121.257 26.325 120.682 26.685C120.107 27.045 119.42 27.225 118.62 27.225ZM118.62 26.1675C119.52 26.1675 120.19 25.87 120.63 25.275C121.07 24.675 121.29 23.8975 121.29 22.9425C121.29 21.9625 121.067 21.1825 120.622 20.6025C120.182 20.0225 119.515 19.7325 118.62 19.7325C118.015 19.7325 117.515 19.87 117.12 20.145C116.73 20.415 116.437 20.7925 116.242 21.2775C116.052 21.7575 115.957 22.3125 115.957 22.9425C115.957 23.9175 116.182 24.7 116.632 25.29C117.082 25.875 117.745 26.1675 118.62 26.1675ZM124.106 27L124.114 18.9H125.224V22.8L128.839 18.9H130.309L126.514 22.95L130.804 27H129.199L125.224 23.1V27H124.106ZM137.941 27.225C137.136 27.225 136.448 27.0425 135.878 26.6775C135.308 26.3125 134.871 25.8075 134.566 25.1625C134.261 24.5175 134.108 23.7775 134.108 22.9425C134.108 22.0925 134.263 21.3475 134.573 20.7075C134.883 20.0675 135.323 19.57 135.893 19.215C136.468 18.855 137.151 18.675 137.941 18.675C138.751 18.675 139.441 18.8575 140.011 19.2225C140.586 19.5825 141.023 20.085 141.323 20.73C141.628 21.37 141.781 22.1075 141.781 22.9425C141.781 23.7925 141.628 24.54 141.323 25.185C141.018 25.825 140.578 26.325 140.003 26.685C139.428 27.045 138.741 27.225 137.941 27.225ZM137.941 26.1675C138.841 26.1675 139.511 25.87 139.951 25.275C140.391 24.675 140.611 23.8975 140.611 22.9425C140.611 21.9625 140.388 21.1825 139.943 20.6025C139.503 20.0225 138.836 19.7325 137.941 19.7325C137.336 19.7325 136.836 19.87 136.441 20.145C136.051 20.415 135.758 20.7925 135.563 21.2775C135.373 21.7575 135.278 22.3125 135.278 22.9425C135.278 23.9175 135.503 24.7 135.953 25.29C136.403 25.875 137.066 26.1675 137.941 26.1675ZM145.442 27V19.92H142.57V18.9H149.417V19.92H146.545V27H145.442ZM153.843 27L153.85 18.9H154.96V22.8L158.575 18.9H160.045L156.25 22.95L160.54 27H158.935L154.96 23.1V27H153.843ZM160.395 27V26.0325C160.695 26.0875 160.923 26.075 161.078 25.995C161.238 25.91 161.355 25.77 161.43 25.575C161.505 25.375 161.568 25.1275 161.618 24.8325C161.698 24.3425 161.77 23.8025 161.835 23.2125C161.9 22.6225 161.958 21.9725 162.008 21.2625C162.063 20.5475 162.118 19.76 162.173 18.9H167.678V27H166.583V19.9575H163.193C163.158 20.4875 163.118 21.015 163.073 21.54C163.028 22.065 162.98 22.57 162.93 23.055C162.885 23.535 162.835 23.9775 162.78 24.3825C162.725 24.7875 162.668 25.1375 162.608 25.4325C162.518 25.8775 162.398 26.2325 162.248 26.4975C162.103 26.7625 161.885 26.9375 161.595 27.0225C161.305 27.1075 160.905 27.1 160.395 27ZM176.208 18.9V27H175.136V20.6925L170.696 27H169.766V18.9H170.838V25.155L175.286 18.9H176.208ZM181.741 27.225C180.951 27.225 180.266 27.05 179.686 26.7C179.111 26.35 178.663 25.8575 178.343 25.2225C178.023 24.5875 177.863 23.8425 177.863 22.9875C177.863 22.1025 178.021 21.3375 178.336 20.6925C178.651 20.0475 179.093 19.55 179.663 19.2C180.238 18.85 180.916 18.675 181.696 18.675C182.496 18.675 183.178 18.86 183.743 19.23C184.308 19.595 184.736 20.12 185.026 20.805C185.316 21.49 185.448 22.3075 185.423 23.2575H184.298V22.8675C184.278 21.8175 184.051 21.025 183.616 20.49C183.186 19.955 182.556 19.6875 181.726 19.6875C180.856 19.6875 180.188 19.97 179.723 20.535C179.263 21.1 179.033 21.905 179.033 22.95C179.033 23.97 179.263 24.7625 179.723 25.3275C180.188 25.8875 180.846 26.1675 181.696 26.1675C182.276 26.1675 182.781 26.035 183.211 25.77C183.646 25.5 183.988 25.1125 184.238 24.6075L185.266 25.005C184.946 25.71 184.473 26.2575 183.848 26.6475C183.228 27.0325 182.526 27.225 181.741 27.225ZM178.643 23.2575V22.335H184.831V23.2575H178.643ZM187.08 27V18.9H188.183V22.4175H192.75V18.9H193.853V27H192.75V23.475H188.183V27H187.08ZM198.147 27V19.92H195.275V18.9H202.122V19.92H199.25V27H198.147ZM205.562 27.225C204.952 27.225 204.44 27.115 204.025 26.895C203.615 26.675 203.307 26.3825 203.102 26.0175C202.897 25.6525 202.795 25.255 202.795 24.825C202.795 24.385 202.882 24.01 203.057 23.7C203.237 23.385 203.48 23.1275 203.785 22.9275C204.095 22.7275 204.452 22.575 204.857 22.47C205.267 22.37 205.72 22.2825 206.215 22.2075C206.715 22.1275 207.202 22.06 207.677 22.005C208.157 21.945 208.577 21.8875 208.937 21.8325L208.547 22.0725C208.562 21.2725 208.407 20.68 208.082 20.295C207.757 19.91 207.192 19.7175 206.387 19.7175C205.832 19.7175 205.362 19.8425 204.977 20.0925C204.597 20.3425 204.33 20.7375 204.175 21.2775L203.102 20.9625C203.287 20.2375 203.66 19.675 204.22 19.275C204.78 18.875 205.507 18.675 206.402 18.675C207.142 18.675 207.77 18.815 208.285 19.095C208.805 19.37 209.172 19.77 209.387 20.295C209.487 20.53 209.552 20.7925 209.582 21.0825C209.612 21.3725 209.627 21.6675 209.627 21.9675V27H208.645V24.9675L208.93 25.0875C208.655 25.7825 208.227 26.3125 207.647 26.6775C207.067 27.0425 206.372 27.225 205.562 27.225ZM205.69 26.2725C206.205 26.2725 206.655 26.18 207.04 25.995C207.425 25.81 207.735 25.5575 207.97 25.2375C208.205 24.9125 208.357 24.5475 208.427 24.1425C208.487 23.8825 208.52 23.5975 208.525 23.2875C208.53 22.9725 208.532 22.7375 208.532 22.5825L208.952 22.8C208.577 22.85 208.17 22.9 207.73 22.95C207.295 23 206.865 23.0575 206.44 23.1225C206.02 23.1875 205.64 23.265 205.3 23.355C205.07 23.42 204.847 23.5125 204.632 23.6325C204.417 23.7475 204.24 23.9025 204.1 24.0975C203.965 24.2925 203.897 24.535 203.897 24.825C203.897 25.06 203.955 25.2875 204.07 25.5075C204.19 25.7275 204.38 25.91 204.64 26.055C204.905 26.2 205.255 26.2725 205.69 26.2725Z" fill="#344351"/>
<rect x="0.5" y="0.5" width="289" height="42" rx="3.5" stroke="#344351"/>
<rect x="0.5" y="63.5" width="289" height="42" rx="3.5" fill="white"/>
<path d="M83.4206 90V79.2H84.4331L88.6781 88.2825L92.9006 79.2H93.9281V89.9925H92.8781V81.66L89.0306 90H88.3181L84.4781 81.66V90H83.4206ZM99.4154 90.225C98.6104 90.225 97.9229 90.0425 97.3529 89.6775C96.7829 89.3125 96.3454 88.8075 96.0404 88.1625C95.7354 87.5175 95.5829 86.7775 95.5829 85.9425C95.5829 85.0925 95.7379 84.3475 96.0479 83.7075C96.3579 83.0675 96.7979 82.57 97.3679 82.215C97.9429 81.855 98.6254 81.675 99.4154 81.675C100.225 81.675 100.915 81.8575 101.485 82.2225C102.06 82.5825 102.498 83.085 102.798 83.73C103.103 84.37 103.255 85.1075 103.255 85.9425C103.255 86.7925 103.103 87.54 102.798 88.185C102.493 88.825 102.053 89.325 101.478 89.685C100.903 90.045 100.215 90.225 99.4154 90.225ZM99.4154 89.1675C100.315 89.1675 100.985 88.87 101.425 88.275C101.865 87.675 102.085 86.8975 102.085 85.9425C102.085 84.9625 101.863 84.1825 101.418 83.6025C100.978 83.0225 100.31 82.7325 99.4154 82.7325C98.8104 82.7325 98.3104 82.87 97.9154 83.145C97.5254 83.415 97.2329 83.7925 97.0379 84.2775C96.8479 84.7575 96.7529 85.3125 96.7529 85.9425C96.7529 86.9175 96.9779 87.7 97.4279 88.29C97.8779 88.875 98.5404 89.1675 99.4154 89.1675ZM108.157 90.2325C107.402 90.2275 106.755 90.0625 106.215 89.7375C105.675 89.4125 105.255 88.9275 104.955 88.2825C104.66 87.6375 104.5 86.8325 104.475 85.8675C104.46 85.4425 104.47 84.98 104.505 84.48C104.54 83.975 104.595 83.495 104.67 83.04C104.745 82.585 104.835 82.215 104.94 81.93C105.07 81.56 105.255 81.215 105.495 80.895C105.74 80.57 106.022 80.305 106.342 80.1C106.652 79.89 107.002 79.7275 107.392 79.6125C107.787 79.4925 108.197 79.4 108.622 79.335C109.052 79.27 109.477 79.2125 109.897 79.1625C110.322 79.1125 110.715 79.05 111.075 78.975L111.195 79.9725C110.92 80.0275 110.595 80.0775 110.22 80.1225C109.845 80.1675 109.452 80.2225 109.042 80.2875C108.632 80.3475 108.24 80.43 107.865 80.535C107.49 80.64 107.17 80.7775 106.905 80.9475C106.5 81.1925 106.187 81.5625 105.967 82.0575C105.752 82.5525 105.62 83.12 105.57 83.76C105.88 83.275 106.29 82.91 106.8 82.665C107.315 82.42 107.872 82.2975 108.472 82.2975C109.202 82.2975 109.83 82.465 110.355 82.8C110.885 83.135 111.292 83.6 111.577 84.195C111.862 84.79 112.005 85.4725 112.005 86.2425C112.005 87.0475 111.847 87.75 111.532 88.35C111.222 88.95 110.78 89.415 110.205 89.745C109.63 90.07 108.947 90.2325 108.157 90.2325ZM108.24 89.175C109.09 89.175 109.735 88.91 110.175 88.38C110.62 87.85 110.842 87.145 110.842 86.265C110.842 85.365 110.612 84.655 110.152 84.135C109.697 83.615 109.055 83.355 108.225 83.355C107.395 83.355 106.757 83.615 106.312 84.135C105.867 84.655 105.645 85.365 105.645 86.265C105.645 87.165 105.867 87.875 106.312 88.395C106.757 88.915 107.4 89.175 108.24 89.175ZM120.09 81.9V90H119.017V83.6925L114.577 90H113.647V81.9H114.72V88.155L119.167 81.9H120.09ZM121.445 90V89.0325C121.745 89.0875 121.973 89.075 122.128 88.995C122.288 88.91 122.405 88.77 122.48 88.575C122.555 88.375 122.618 88.1275 122.668 87.8325C122.748 87.3425 122.82 86.8025 122.885 86.2125C122.95 85.6225 123.008 84.9725 123.058 84.2625C123.113 83.5475 123.168 82.76 123.223 81.9H128.728V90H127.633V82.9575H124.243C124.208 83.4875 124.168 84.015 124.123 84.54C124.078 85.065 124.03 85.57 123.98 86.055C123.935 86.535 123.885 86.9775 123.83 87.3825C123.775 87.7875 123.718 88.1375 123.658 88.4325C123.568 88.8775 123.448 89.2325 123.298 89.4975C123.153 89.7625 122.935 89.9375 122.645 90.0225C122.355 90.1075 121.955 90.1 121.445 90ZM130.83 90L130.815 81.9H131.925V84.9525H133.823C134.058 84.9525 134.288 84.9575 134.513 84.9675C134.743 84.9775 134.945 84.9975 135.12 85.0275C135.52 85.1025 135.875 85.235 136.185 85.425C136.5 85.615 136.745 85.8775 136.92 86.2125C137.1 86.5475 137.19 86.9675 137.19 87.4725C137.19 88.1675 137.01 88.715 136.65 89.115C136.295 89.515 135.845 89.775 135.3 89.895C135.095 89.94 134.873 89.97 134.633 89.985C134.393 89.995 134.155 90 133.92 90H130.83ZM131.925 89.055H133.875C134.045 89.055 134.235 89.05 134.445 89.04C134.655 89.03 134.84 89.0025 135 88.9575C135.265 88.8825 135.505 88.7325 135.72 88.5075C135.94 88.2775 136.05 87.9325 136.05 87.4725C136.05 87.0175 135.945 86.675 135.735 86.445C135.525 86.21 135.245 86.055 134.895 85.98C134.74 85.945 134.573 85.9225 134.393 85.9125C134.213 85.9025 134.04 85.8975 133.875 85.8975H131.925V89.055ZM138.608 90V81.9H139.711V85.4175H144.278V81.9H145.381V90H144.278V86.475H139.711V90H138.608ZM153.913 81.9V90H152.841V83.6925L148.401 90H147.471V81.9H148.543V88.155L152.991 81.9H153.913ZM156.011 90L156.018 81.9H157.128V85.8L160.743 81.9H162.213L158.418 85.95L162.708 90H161.103L157.128 86.1V90H156.011ZM169.823 90.225C169.008 90.225 168.318 90.0425 167.753 89.6775C167.188 89.3125 166.758 88.81 166.463 88.17C166.173 87.525 166.023 86.785 166.013 85.95C166.023 85.1 166.178 84.355 166.478 83.715C166.778 83.07 167.21 82.57 167.775 82.215C168.34 81.855 169.025 81.675 169.83 81.675C170.65 81.675 171.363 81.875 171.968 82.275C172.578 82.675 172.995 83.2225 173.22 83.9175L172.14 84.2625C171.95 83.7775 171.648 83.4025 171.233 83.1375C170.823 82.8675 170.353 82.7325 169.823 82.7325C169.228 82.7325 168.735 82.87 168.345 83.145C167.955 83.415 167.665 83.7925 167.475 84.2775C167.285 84.7625 167.188 85.32 167.183 85.95C167.193 86.92 167.418 87.7 167.858 88.29C168.298 88.875 168.953 89.1675 169.823 89.1675C170.373 89.1675 170.84 89.0425 171.225 88.7925C171.615 88.5375 171.91 88.1675 172.11 87.6825L173.22 88.0125C172.92 88.7325 172.48 89.2825 171.9 89.6625C171.32 90.0375 170.628 90.225 169.823 90.225ZM177.771 90V79.2H183.974V80.3025H178.874V84.0525H183.074V85.1475H178.874V90H177.771ZM185.33 90V79.2H186.342L190.587 88.2825L194.81 79.2H195.837V89.9925H194.787V81.66L190.94 90H190.227L186.387 81.66V90H185.33ZM202.315 90.225C201.24 90.225 200.332 89.9875 199.592 89.5125C198.852 89.0325 198.292 88.37 197.912 87.525C197.532 86.68 197.342 85.705 197.342 84.6C197.342 83.495 197.532 82.52 197.912 81.675C198.292 80.83 198.852 80.17 199.592 79.695C200.332 79.215 201.24 78.975 202.315 78.975C203.57 78.975 204.595 79.2975 205.39 79.9425C206.185 80.5825 206.73 81.4425 207.025 82.5225L205.9 82.815C205.67 81.96 205.257 81.2825 204.662 80.7825C204.067 80.2825 203.285 80.0325 202.315 80.0325C201.47 80.0325 200.767 80.225 200.207 80.61C199.647 80.995 199.225 81.5325 198.94 82.2225C198.66 82.9075 198.515 83.7 198.505 84.6C198.5 85.5 198.637 86.2925 198.917 86.9775C199.202 87.6625 199.627 88.2 200.192 88.59C200.762 88.975 201.47 89.1675 202.315 89.1675C203.285 89.1675 204.067 88.9175 204.662 88.4175C205.257 87.9125 205.67 87.235 205.9 86.385L207.025 86.6775C206.73 87.7575 206.185 88.62 205.39 89.265C204.595 89.905 203.57 90.225 202.315 90.225Z" fill="#344351"/>
<rect x="0.5" y="63.5" width="289" height="42" rx="3.5" stroke="#344351"/>
<path d="M23 106L23 150.5M29 281L23 281L23 254M23 176.5L29 176.5M23 176.5L23 150.5M23 176.5L23 202.25M23 150.5L29 150.5M23 254L29 254M23 254L23 228M23 228L29 228M23 228L23 202.25M23 202.25L29 202.25" stroke="#9CA5AC" stroke-linecap="square"/>
<path d="M34.98 155V144.92H41.28V145.907H36.009V155H34.98ZM44.4397 155.21C43.6884 155.21 43.0467 155.04 42.5147 154.699C41.9827 154.358 41.5744 153.887 41.2897 153.285C41.0051 152.683 40.8627 151.992 40.8627 151.213C40.8627 150.42 41.0074 149.724 41.2967 149.127C41.5861 148.53 41.9967 148.065 42.5287 147.734C43.0654 147.398 43.7024 147.23 44.4397 147.23C45.1957 147.23 45.8397 147.4 46.3717 147.741C46.9084 148.077 47.3167 148.546 47.5967 149.148C47.8814 149.745 48.0237 150.434 48.0237 151.213C48.0237 152.006 47.8814 152.704 47.5967 153.306C47.3121 153.903 46.9014 154.37 46.3647 154.706C45.8281 155.042 45.1864 155.21 44.4397 155.21ZM44.4397 154.223C45.2797 154.223 45.9051 153.945 46.3157 153.39C46.7264 152.83 46.9317 152.104 46.9317 151.213C46.9317 150.298 46.7241 149.57 46.3087 149.029C45.8981 148.488 45.2751 148.217 44.4397 148.217C43.8751 148.217 43.4084 148.345 43.0397 148.602C42.6757 148.854 42.4027 149.206 42.2207 149.659C42.0434 150.107 41.9547 150.625 41.9547 151.213C41.9547 152.123 42.1647 152.853 42.5847 153.404C43.0047 153.95 43.6231 154.223 44.4397 154.223ZM48.8679 155V154.097C49.1479 154.148 49.3602 154.137 49.5049 154.062C49.6542 153.983 49.7639 153.852 49.8339 153.67C49.9039 153.483 49.9622 153.252 50.0089 152.977C50.0836 152.52 50.1512 152.016 50.2119 151.465C50.2726 150.914 50.3262 150.308 50.3729 149.645C50.4242 148.978 50.4756 148.243 50.5269 147.44H55.6649V155H54.6429V148.427H51.4789C51.4462 148.922 51.4089 149.414 51.3669 149.904C51.3249 150.394 51.2806 150.865 51.2339 151.318C51.1919 151.766 51.1452 152.179 51.0939 152.557C51.0426 152.935 50.9889 153.262 50.9329 153.537C50.8489 153.952 50.7369 154.284 50.5969 154.531C50.4616 154.778 50.2586 154.942 49.9879 155.021C49.7172 155.1 49.3439 155.093 48.8679 155ZM60.7776 155.21C60.0263 155.21 59.3846 155.04 58.8526 154.699C58.3206 154.358 57.9123 153.887 57.6276 153.285C57.343 152.683 57.2006 151.992 57.2006 151.213C57.2006 150.42 57.3453 149.724 57.6346 149.127C57.924 148.53 58.3346 148.065 58.8666 147.734C59.4033 147.398 60.0403 147.23 60.7776 147.23C61.5336 147.23 62.1776 147.4 62.7096 147.741C63.2463 148.077 63.6546 148.546 63.9346 149.148C64.2193 149.745 64.3616 150.434 64.3616 151.213C64.3616 152.006 64.2193 152.704 63.9346 153.306C63.65 153.903 63.2393 154.37 62.7026 154.706C62.166 155.042 61.5243 155.21 60.7776 155.21ZM60.7776 154.223C61.6176 154.223 62.243 153.945 62.6536 153.39C63.0643 152.83 63.2696 152.104 63.2696 151.213C63.2696 150.298 63.062 149.57 62.6466 149.029C62.236 148.488 61.613 148.217 60.7776 148.217C60.213 148.217 59.7463 148.345 59.3776 148.602C59.0136 148.854 58.7406 149.206 58.5586 149.659C58.3813 150.107 58.2926 150.625 58.2926 151.213C58.2926 152.123 58.5026 152.853 58.9226 153.404C59.3426 153.95 59.961 154.223 60.7776 154.223ZM69.0418 155.21C68.2811 155.21 67.6371 155.04 67.1098 154.699C66.5824 154.358 66.1811 153.889 65.9058 153.292C65.6351 152.69 65.4951 151.999 65.4858 151.22C65.4951 150.427 65.6398 149.731 65.9198 149.134C66.1998 148.532 66.6034 148.065 67.1308 147.734C67.6581 147.398 68.2974 147.23 69.0488 147.23C69.8141 147.23 70.4791 147.417 71.0438 147.79C71.6131 148.163 72.0028 148.674 72.2128 149.323L71.2048 149.645C71.0274 149.192 70.7451 148.842 70.3578 148.595C69.9751 148.343 69.5364 148.217 69.0418 148.217C68.4864 148.217 68.0268 148.345 67.6628 148.602C67.2988 148.854 67.0281 149.206 66.8508 149.659C66.6734 150.112 66.5824 150.632 66.5778 151.22C66.5871 152.125 66.7971 152.853 67.2078 153.404C67.6184 153.95 68.2298 154.223 69.0418 154.223C69.5551 154.223 69.9914 154.106 70.3508 153.873C70.7148 153.635 70.9901 153.29 71.1768 152.837L72.2128 153.145C71.9328 153.817 71.5221 154.33 70.9808 154.685C70.4394 155.035 69.7931 155.21 69.0418 155.21ZM76.6097 155.21C75.8583 155.21 75.2167 155.04 74.6847 154.699C74.1527 154.358 73.7443 153.887 73.4597 153.285C73.175 152.683 73.0327 151.992 73.0327 151.213C73.0327 150.42 73.1773 149.724 73.4667 149.127C73.756 148.53 74.1667 148.065 74.6987 147.734C75.2353 147.398 75.8723 147.23 76.6097 147.23C77.3657 147.23 78.0097 147.4 78.5417 147.741C79.0783 148.077 79.4867 148.546 79.7667 149.148C80.0513 149.745 80.1937 150.434 80.1937 151.213C80.1937 152.006 80.0513 152.704 79.7667 153.306C79.482 153.903 79.0713 154.37 78.5347 154.706C77.998 155.042 77.3563 155.21 76.6097 155.21ZM76.6097 154.223C77.4497 154.223 78.075 153.945 78.4857 153.39C78.8963 152.83 79.1017 152.104 79.1017 151.213C79.1017 150.298 78.894 149.57 78.4787 149.029C78.068 148.488 77.445 148.217 76.6097 148.217C76.045 148.217 75.5783 148.345 75.2097 148.602C74.8457 148.854 74.5727 149.206 74.3907 149.659C74.2133 150.107 74.1247 150.625 74.1247 151.213C74.1247 152.123 74.3347 152.853 74.7547 153.404C75.1747 153.95 75.793 154.223 76.6097 154.223ZM81.7308 155V147.44H84.8458C85.0045 147.44 85.1958 147.449 85.4198 147.468C85.6485 147.487 85.8608 147.522 86.0568 147.573C86.4815 147.685 86.8221 147.914 87.0788 148.259C87.3401 148.604 87.4708 149.02 87.4708 149.505C87.4708 149.776 87.4288 150.018 87.3448 150.233C87.2655 150.443 87.1511 150.625 87.0018 150.779C86.9318 150.858 86.8548 150.928 86.7708 150.989C86.6868 151.045 86.6051 151.092 86.5258 151.129C86.6751 151.157 86.8361 151.222 87.0088 151.325C87.2795 151.484 87.4848 151.698 87.6248 151.969C87.7648 152.235 87.8348 152.559 87.8348 152.942C87.8348 153.46 87.7111 153.882 87.4638 154.209C87.2165 154.536 86.8851 154.76 86.4698 154.881C86.2831 154.932 86.0801 154.965 85.8608 154.979C85.6461 154.993 85.4431 155 85.2518 155H81.7308ZM82.7668 154.125H85.2028C85.3008 154.125 85.4245 154.118 85.5738 154.104C85.7231 154.085 85.8561 154.062 85.9728 154.034C86.2481 153.964 86.4488 153.824 86.5748 153.614C86.7055 153.399 86.7708 153.166 86.7708 152.914C86.7708 152.583 86.6728 152.312 86.4768 152.102C86.2855 151.887 86.0288 151.757 85.7068 151.71C85.5995 151.687 85.4875 151.673 85.3708 151.668C85.2541 151.663 85.1491 151.661 85.0558 151.661H82.7668V154.125ZM82.7668 150.779H84.8808C85.0021 150.779 85.1375 150.772 85.2868 150.758C85.4408 150.739 85.5738 150.709 85.6858 150.667C85.9285 150.583 86.1058 150.438 86.2178 150.233C86.3345 150.028 86.3928 149.804 86.3928 149.561C86.3928 149.295 86.3298 149.062 86.2038 148.861C86.0825 148.66 85.8981 148.52 85.6508 148.441C85.4828 148.38 85.3008 148.345 85.1048 148.336C84.9135 148.327 84.7921 148.322 84.7408 148.322H82.7668V150.779ZM92.387 155.21C91.6357 155.21 90.994 155.04 90.462 154.699C89.93 154.358 89.5217 153.887 89.237 153.285C88.9523 152.683 88.81 151.992 88.81 151.213C88.81 150.42 88.9547 149.724 89.244 149.127C89.5333 148.53 89.944 148.065 90.476 147.734C91.0127 147.398 91.6497 147.23 92.387 147.23C93.143 147.23 93.787 147.4 94.319 147.741C94.8557 148.077 95.264 148.546 95.544 149.148C95.8287 149.745 95.971 150.434 95.971 151.213C95.971 152.006 95.8287 152.704 95.544 153.306C95.2593 153.903 94.8487 154.37 94.312 154.706C93.7753 155.042 93.1337 155.21 92.387 155.21ZM92.387 154.223C93.227 154.223 93.8523 153.945 94.263 153.39C94.6737 152.83 94.879 152.104 94.879 151.213C94.879 150.298 94.6713 149.57 94.256 149.029C93.8453 148.488 93.2223 148.217 92.387 148.217C91.8223 148.217 91.3557 148.345 90.987 148.602C90.623 148.854 90.35 149.206 90.168 149.659C89.9907 150.107 89.902 150.625 89.902 151.213C89.902 152.123 90.112 152.853 90.532 153.404C90.952 153.95 91.5703 154.223 92.387 154.223ZM100.714 155.21C99.9768 155.21 99.3375 155.047 98.7962 154.72C98.2595 154.393 97.8418 153.934 97.5432 153.341C97.2445 152.748 97.0952 152.053 97.0952 151.255C97.0952 150.429 97.2422 149.715 97.5362 149.113C97.8302 148.511 98.2432 148.047 98.7752 147.72C99.3118 147.393 99.9442 147.23 100.672 147.23C101.419 147.23 102.056 147.403 102.583 147.748C103.11 148.089 103.509 148.579 103.78 149.218C104.051 149.857 104.174 150.62 104.151 151.507H103.101V151.143C103.082 150.163 102.87 149.423 102.464 148.924C102.063 148.425 101.475 148.175 100.7 148.175C99.8882 148.175 99.2652 148.439 98.8312 148.966C98.4018 149.493 98.1872 150.245 98.1872 151.22C98.1872 152.172 98.4018 152.912 98.8312 153.439C99.2652 153.962 99.8788 154.223 100.672 154.223C101.213 154.223 101.685 154.099 102.086 153.852C102.492 153.6 102.812 153.238 103.045 152.767L104.004 153.138C103.705 153.796 103.264 154.307 102.681 154.671C102.102 155.03 101.447 155.21 100.714 155.21ZM97.8232 151.507V150.646H103.598V151.507H97.8232ZM108.5 155V147.44H109.417L112.364 153.628L115.318 147.44H116.228V155H115.234V149.638L112.693 155H112.042L109.501 149.638V155H108.5ZM121.386 155.21C120.649 155.21 120.009 155.047 119.468 154.72C118.931 154.393 118.514 153.934 118.215 153.341C117.916 152.748 117.767 152.053 117.767 151.255C117.767 150.429 117.914 149.715 118.208 149.113C118.502 148.511 118.915 148.047 119.447 147.72C119.984 147.393 120.616 147.23 121.344 147.23C122.091 147.23 122.728 147.403 123.255 147.748C123.782 148.089 124.181 148.579 124.452 149.218C124.723 149.857 124.846 150.62 124.823 151.507H123.773V151.143C123.754 150.163 123.542 149.423 123.136 148.924C122.735 148.425 122.147 148.175 121.372 148.175C120.56 148.175 119.937 148.439 119.503 148.966C119.074 149.493 118.859 150.245 118.859 151.22C118.859 152.172 119.074 152.912 119.503 153.439C119.937 153.962 120.551 154.223 121.344 154.223C121.885 154.223 122.357 154.099 122.758 153.852C123.164 153.6 123.484 153.238 123.717 152.767L124.676 153.138C124.377 153.796 123.936 154.307 123.353 154.671C122.774 155.03 122.119 155.21 121.386 155.21ZM118.495 151.507V150.646H124.27V151.507H118.495ZM126.369 155V147.44H127.398V150.723H131.661V147.44H132.69V155H131.661V151.71H127.398V155H126.369ZM140.598 155.21C139.931 155.21 139.35 155.068 138.855 154.783C138.36 154.494 137.966 154.09 137.672 153.572C137.383 153.049 137.208 152.436 137.147 151.731H135.67V155H134.641V147.44H135.67V150.709H137.14C137.201 149.995 137.378 149.379 137.672 148.861C137.971 148.338 138.367 147.937 138.862 147.657C139.361 147.372 139.942 147.23 140.605 147.23C141.356 147.23 141.998 147.4 142.53 147.741C143.067 148.082 143.475 148.551 143.755 149.148C144.04 149.745 144.182 150.431 144.182 151.206C144.182 151.999 144.037 152.697 143.748 153.299C143.463 153.901 143.053 154.37 142.516 154.706C141.984 155.042 141.345 155.21 140.598 155.21ZM140.577 154.223C141.426 154.223 142.056 153.948 142.467 153.397C142.882 152.842 143.09 152.114 143.09 151.213C143.09 150.294 142.88 149.566 142.46 149.029C142.045 148.488 141.419 148.217 140.584 148.217C139.786 148.217 139.175 148.483 138.75 149.015C138.325 149.542 138.113 150.273 138.113 151.206C138.113 152.121 138.321 152.853 138.736 153.404C139.156 153.95 139.77 154.223 140.577 154.223Z" fill="#5E6B77"/>
<path d="M42.603 233H41.567V224.733L36.016 233H34.98V222.92H36.016V231.18L41.567 222.92H42.603V233ZM44.557 233V225.44H45.586V228.723H49.849V225.44H50.878V233H49.849V229.71H45.586V233H44.557ZM54.8865 233V226.392H52.2055V225.44H58.5965V226.392H55.9155V233H54.8865ZM63.1302 233.21C62.3928 233.21 61.7535 233.047 61.2122 232.72C60.6755 232.393 60.2578 231.934 59.9592 231.341C59.6605 230.748 59.5112 230.053 59.5112 229.255C59.5112 228.429 59.6582 227.715 59.9522 227.113C60.2462 226.511 60.6592 226.047 61.1912 225.72C61.7278 225.393 62.3602 225.23 63.0882 225.23C63.8348 225.23 64.4718 225.403 64.9992 225.748C65.5265 226.089 65.9255 226.579 66.1962 227.218C66.4668 227.857 66.5905 228.62 66.5672 229.507H65.5172V229.143C65.4985 228.163 65.2862 227.423 64.8802 226.924C64.4788 226.425 63.8908 226.175 63.1162 226.175C62.3042 226.175 61.6812 226.439 61.2472 226.966C60.8178 227.493 60.6032 228.245 60.6032 229.22C60.6032 230.172 60.8178 230.912 61.2472 231.439C61.6812 231.962 62.2948 232.223 63.0882 232.223C63.6295 232.223 64.1008 232.099 64.5022 231.852C64.9082 231.6 65.2278 231.238 65.4612 230.767L66.4202 231.138C66.1215 231.796 65.6805 232.307 65.0972 232.671C64.5185 233.03 63.8628 233.21 63.1302 233.21ZM60.2392 229.507V228.646H66.0142V229.507H60.2392ZM68.1206 233V225.44H73.3006V226.427H69.1496V233H68.1206ZM78.0234 233.21C77.3281 233.21 76.7401 233.035 76.2594 232.685C75.7788 232.33 75.4148 231.852 75.1674 231.25C74.9201 230.643 74.7964 229.964 74.7964 229.213C74.7964 228.448 74.9201 227.766 75.1674 227.169C75.4194 226.567 75.7881 226.093 76.2734 225.748C76.7588 225.403 77.3561 225.23 78.0654 225.23C78.7561 225.23 79.3488 225.405 79.8434 225.755C80.3381 226.105 80.7161 226.581 80.9774 227.183C81.2434 227.785 81.3764 228.462 81.3764 229.213C81.3764 229.969 81.2434 230.648 80.9774 231.25C80.7114 231.852 80.3288 232.33 79.8294 232.685C79.3301 233.035 78.7281 233.21 78.0234 233.21ZM74.6214 236.36V225.44H75.5454V231.131H75.6574V236.36H74.6214ZM77.9184 232.251C78.4458 232.251 78.8844 232.118 79.2344 231.852C79.5844 231.586 79.8458 231.224 80.0184 230.767C80.1958 230.305 80.2844 229.787 80.2844 229.213C80.2844 228.644 80.1981 228.13 80.0254 227.673C79.8528 227.216 79.5891 226.854 79.2344 226.588C78.8844 226.322 78.4388 226.189 77.8974 226.189C77.3701 226.189 76.9314 226.317 76.5814 226.574C76.2361 226.831 75.9771 227.188 75.8044 227.645C75.6318 228.098 75.5454 228.62 75.5454 229.213C75.5454 229.796 75.6318 230.319 75.8044 230.781C75.9771 231.238 76.2384 231.598 76.5884 231.859C76.9384 232.12 77.3818 232.251 77.9184 232.251ZM85.0766 233.21C84.5073 233.21 84.0289 233.107 83.6416 232.902C83.2589 232.697 82.9719 232.424 82.7806 232.083C82.5893 231.742 82.4936 231.371 82.4936 230.97C82.4936 230.559 82.5753 230.209 82.7386 229.92C82.9066 229.626 83.1329 229.386 83.4176 229.199C83.7069 229.012 84.0406 228.87 84.4186 228.772C84.8013 228.679 85.2236 228.597 85.6856 228.527C86.1523 228.452 86.6073 228.389 87.0506 228.338C87.4986 228.282 87.8906 228.228 88.2266 228.177L87.8626 228.401C87.8766 227.654 87.7319 227.101 87.4286 226.742C87.1253 226.383 86.5979 226.203 85.8466 226.203C85.3286 226.203 84.8899 226.32 84.5306 226.553C84.1759 226.786 83.9263 227.155 83.7816 227.659L82.7806 227.365C82.9533 226.688 83.3009 226.163 83.8236 225.79C84.3463 225.417 85.0253 225.23 85.8606 225.23C86.5513 225.23 87.1369 225.361 87.6176 225.622C88.1029 225.879 88.4459 226.252 88.6466 226.742C88.7399 226.961 88.8006 227.206 88.8286 227.477C88.8566 227.748 88.8706 228.023 88.8706 228.303V233H87.9536V231.103L88.2196 231.215C87.9629 231.864 87.5639 232.358 87.0226 232.699C86.4813 233.04 85.8326 233.21 85.0766 233.21ZM85.1956 232.321C85.6763 232.321 86.0963 232.235 86.4556 232.062C86.8149 231.889 87.1043 231.654 87.3236 231.355C87.5429 231.052 87.6853 230.711 87.7506 230.333C87.8066 230.09 87.8369 229.824 87.8416 229.535C87.8463 229.241 87.8486 229.022 87.8486 228.877L88.2406 229.08C87.8906 229.127 87.5103 229.173 87.0996 229.22C86.6936 229.267 86.2923 229.32 85.8956 229.381C85.5036 229.442 85.1489 229.514 84.8316 229.598C84.6169 229.659 84.4093 229.745 84.2086 229.857C84.0079 229.964 83.8423 230.109 83.7116 230.291C83.5856 230.473 83.5226 230.699 83.5226 230.97C83.5226 231.189 83.5763 231.402 83.6836 231.607C83.7956 231.812 83.9729 231.983 84.2156 232.118C84.4629 232.253 84.7896 232.321 85.1956 232.321ZM97.1889 234.309V233H90.6859V225.44H91.7149V232.013H95.6699V225.44H96.6989V232.048H98.2179V234.309H97.1889ZM105.34 225.44V233H104.339V227.113L100.195 233H99.3265V225.44H100.328V231.278L104.479 225.44H105.34ZM112.043 233V230.151H110.279C110.074 230.151 109.862 230.144 109.642 230.13C109.428 230.111 109.227 230.086 109.04 230.053C108.508 229.95 108.056 229.717 107.682 229.353C107.314 228.984 107.129 228.476 107.129 227.827C107.129 227.192 107.302 226.684 107.647 226.301C107.993 225.914 108.41 225.662 108.9 225.545C109.124 225.494 109.351 225.463 109.579 225.454C109.813 225.445 110.013 225.44 110.181 225.44H113.072L113.079 233H112.043ZM106.884 233L108.991 229.829H110.132L108.011 233H106.884ZM110.223 229.269H112.043V226.322H110.223C110.111 226.322 109.955 226.327 109.754 226.336C109.554 226.345 109.365 226.376 109.187 226.427C109.033 226.474 108.879 226.555 108.725 226.672C108.576 226.784 108.45 226.936 108.347 227.127C108.245 227.314 108.193 227.542 108.193 227.813C108.193 228.191 108.296 228.494 108.501 228.723C108.711 228.947 108.973 229.101 109.285 229.185C109.453 229.222 109.621 229.246 109.789 229.255C109.957 229.264 110.102 229.269 110.223 229.269ZM120.981 233.21C120.221 233.21 119.577 233.04 119.049 232.699C118.522 232.358 118.121 231.889 117.845 231.292C117.575 230.69 117.435 229.999 117.425 229.22C117.435 228.427 117.579 227.731 117.859 227.134C118.139 226.532 118.543 226.065 119.07 225.734C119.598 225.398 120.237 225.23 120.988 225.23C121.754 225.23 122.419 225.417 122.983 225.79C123.553 226.163 123.942 226.674 124.152 227.323L123.144 227.645C122.967 227.192 122.685 226.842 122.297 226.595C121.915 226.343 121.476 226.217 120.981 226.217C120.426 226.217 119.966 226.345 119.602 226.602C119.238 226.854 118.968 227.206 118.79 227.659C118.613 228.112 118.522 228.632 118.517 229.22C118.527 230.125 118.737 230.853 119.147 231.404C119.558 231.95 120.169 232.223 120.981 232.223C121.495 232.223 121.931 232.106 122.29 231.873C122.654 231.635 122.93 231.29 123.116 230.837L124.152 231.145C123.872 231.817 123.462 232.33 122.92 232.685C122.379 233.035 121.733 233.21 120.981 233.21ZM132.481 233.21C131.478 233.21 130.631 232.988 129.94 232.545C129.249 232.097 128.727 231.479 128.372 230.69C128.017 229.901 127.84 228.991 127.84 227.96C127.84 226.929 128.017 226.019 128.372 225.23C128.727 224.441 129.249 223.825 129.94 223.382C130.631 222.934 131.478 222.71 132.481 222.71C133.652 222.71 134.609 223.011 135.351 223.613C136.093 224.21 136.602 225.013 136.877 226.021L135.827 226.294C135.612 225.496 135.227 224.864 134.672 224.397C134.117 223.93 133.386 223.697 132.481 223.697C131.692 223.697 131.037 223.877 130.514 224.236C129.991 224.595 129.597 225.097 129.331 225.741C129.07 226.38 128.934 227.12 128.925 227.96C128.92 228.8 129.049 229.54 129.31 230.179C129.576 230.818 129.973 231.32 130.5 231.684C131.032 232.043 131.692 232.223 132.481 232.223C133.386 232.223 134.117 231.99 134.672 231.523C135.227 231.052 135.612 230.419 135.827 229.626L136.877 229.899C136.602 230.907 136.093 231.712 135.351 232.314C134.609 232.911 133.652 233.21 132.481 233.21ZM138.421 233V222.92H142.313C142.411 222.92 142.521 222.925 142.642 222.934C142.768 222.939 142.894 222.953 143.02 222.976C143.548 223.055 143.993 223.24 144.357 223.529C144.726 223.814 145.004 224.173 145.19 224.607C145.382 225.041 145.477 225.522 145.477 226.049C145.477 226.81 145.277 227.47 144.875 228.03C144.474 228.59 143.9 228.942 143.153 229.087L142.796 229.171H139.45V233H138.421ZM144.525 233L142.537 228.898L143.524 228.52L145.708 233H144.525ZM139.45 228.191H142.285C142.369 228.191 142.467 228.186 142.579 228.177C142.691 228.168 142.801 228.151 142.908 228.128C143.254 228.053 143.536 227.911 143.755 227.701C143.979 227.491 144.145 227.241 144.252 226.952C144.364 226.663 144.42 226.362 144.42 226.049C144.42 225.736 144.364 225.435 144.252 225.146C144.145 224.852 143.979 224.6 143.755 224.39C143.536 224.18 143.254 224.038 142.908 223.963C142.801 223.94 142.691 223.926 142.579 223.921C142.467 223.912 142.369 223.907 142.285 223.907H139.45V228.191ZM147.253 233V222.92H148.198L152.16 231.397L156.101 222.92H157.06V232.993H156.08V225.216L152.489 233H151.824L148.24 225.216V233H147.253Z" fill="#5E6B77"/>
<path d="M38.207 181.21C37.521 181.21 36.926 181.11 36.422 180.909C35.9227 180.708 35.512 180.445 35.19 180.118C34.868 179.787 34.6277 179.43 34.469 179.047L35.407 178.501C35.519 178.818 35.6963 179.108 35.939 179.369C36.1817 179.63 36.4943 179.838 36.877 179.992C37.2597 180.146 37.7147 180.223 38.242 180.223C38.788 180.223 39.25 180.137 39.628 179.964C40.0107 179.791 40.3 179.549 40.496 179.236C40.692 178.923 40.79 178.559 40.79 178.144C40.79 177.687 40.6803 177.332 40.461 177.08C40.2417 176.828 39.9477 176.651 39.579 176.548C39.2103 176.441 38.7997 176.38 38.347 176.366C38.0063 176.352 37.7637 176.343 37.619 176.338C37.4743 176.333 37.3787 176.331 37.332 176.331C37.2853 176.331 37.241 176.331 37.199 176.331V175.337C37.2317 175.337 37.318 175.337 37.458 175.337C37.598 175.337 37.7473 175.337 37.906 175.337C38.0647 175.332 38.1907 175.328 38.284 175.323C38.9513 175.29 39.4763 175.115 39.859 174.798C40.2417 174.481 40.433 174.051 40.433 173.51C40.433 172.936 40.23 172.49 39.824 172.173C39.4227 171.856 38.9023 171.697 38.263 171.697C37.661 171.697 37.1523 171.842 36.737 172.131C36.3263 172.416 35.9903 172.798 35.729 173.279L34.889 172.656C35.2063 172.087 35.6543 171.62 36.233 171.256C36.8117 170.892 37.4977 170.71 38.291 170.71C38.7157 170.71 39.1217 170.768 39.509 170.885C39.901 171.002 40.2463 171.174 40.545 171.403C40.8483 171.632 41.0863 171.921 41.259 172.271C41.4363 172.616 41.525 173.022 41.525 173.489C41.525 174.035 41.4037 174.511 41.161 174.917C40.923 175.323 40.615 175.629 40.237 175.834C40.7503 175.988 41.1517 176.259 41.441 176.646C41.735 177.033 41.882 177.54 41.882 178.165C41.882 178.781 41.7303 179.318 41.427 179.775C41.1237 180.232 40.6943 180.587 40.139 180.839C39.5883 181.086 38.9443 181.21 38.207 181.21ZM45.4965 181.21C44.9272 181.21 44.4488 181.107 44.0615 180.902C43.6788 180.697 43.3918 180.424 43.2005 180.083C43.0092 179.742 42.9135 179.371 42.9135 178.97C42.9135 178.559 42.9952 178.209 43.1585 177.92C43.3265 177.626 43.5528 177.386 43.8375 177.199C44.1268 177.012 44.4605 176.87 44.8385 176.772C45.2212 176.679 45.6435 176.597 46.1055 176.527C46.5722 176.452 47.0272 176.389 47.4705 176.338C47.9185 176.282 48.3105 176.228 48.6465 176.177L48.2825 176.401C48.2965 175.654 48.1518 175.101 47.8485 174.742C47.5452 174.383 47.0178 174.203 46.2665 174.203C45.7485 174.203 45.3098 174.32 44.9505 174.553C44.5958 174.786 44.3462 175.155 44.2015 175.659L43.2005 175.365C43.3732 174.688 43.7208 174.163 44.2435 173.79C44.7662 173.417 45.4452 173.23 46.2805 173.23C46.9712 173.23 47.5568 173.361 48.0375 173.622C48.5228 173.879 48.8658 174.252 49.0665 174.742C49.1598 174.961 49.2205 175.206 49.2485 175.477C49.2765 175.748 49.2905 176.023 49.2905 176.303V181H48.3735V179.103L48.6395 179.215C48.3828 179.864 47.9838 180.358 47.4425 180.699C46.9012 181.04 46.2525 181.21 45.4965 181.21ZM45.6155 180.321C46.0962 180.321 46.5162 180.235 46.8755 180.062C47.2348 179.889 47.5242 179.654 47.7435 179.355C47.9628 179.052 48.1052 178.711 48.1705 178.333C48.2265 178.09 48.2568 177.824 48.2615 177.535C48.2662 177.241 48.2685 177.022 48.2685 176.877L48.6605 177.08C48.3105 177.127 47.9302 177.173 47.5195 177.22C47.1135 177.267 46.7122 177.32 46.3155 177.381C45.9235 177.442 45.5688 177.514 45.2515 177.598C45.0368 177.659 44.8292 177.745 44.6285 177.857C44.4278 177.964 44.2622 178.109 44.1315 178.291C44.0055 178.473 43.9425 178.699 43.9425 178.97C43.9425 179.189 43.9962 179.402 44.1035 179.607C44.2155 179.812 44.3928 179.983 44.6355 180.118C44.8828 180.253 45.2095 180.321 45.6155 180.321ZM51.1058 181V173.44H57.1188V181H56.0898V174.427H52.1348V181H51.1058ZM65.0895 173.44V181H64.0885V175.113L59.9445 181H59.0765V173.44H60.0775V179.278L64.2285 173.44H65.0895ZM70.1902 181.21C69.4296 181.21 68.7856 181.04 68.2582 180.699C67.7309 180.358 67.3296 179.889 67.0542 179.292C66.7836 178.69 66.6436 177.999 66.6342 177.22C66.6436 176.427 66.7882 175.731 67.0682 175.134C67.3482 174.532 67.7519 174.065 68.2792 173.734C68.8066 173.398 69.4459 173.23 70.1972 173.23C70.9626 173.23 71.6276 173.417 72.1922 173.79C72.7616 174.163 73.1512 174.674 73.3612 175.323L72.3532 175.645C72.1759 175.192 71.8936 174.842 71.5062 174.595C71.1236 174.343 70.6849 174.217 70.1902 174.217C69.6349 174.217 69.1752 174.345 68.8112 174.602C68.4472 174.854 68.1766 175.206 67.9992 175.659C67.8219 176.112 67.7309 176.632 67.7262 177.22C67.7356 178.125 67.9456 178.853 68.3562 179.404C68.7669 179.95 69.3782 180.223 70.1902 180.223C70.7036 180.223 71.1399 180.106 71.4992 179.873C71.8632 179.635 72.1386 179.29 72.3252 178.837L73.3612 179.145C73.0812 179.817 72.6706 180.33 72.1292 180.685C71.5879 181.035 70.9416 181.21 70.1902 181.21ZM80.8122 173.44V181H79.8112V175.113L75.6672 181H74.7992V173.44H75.8002V179.278L79.9512 173.44H80.8122ZM88.9746 181.21C88.2793 181.21 87.6913 181.035 87.2106 180.685C86.7299 180.33 86.3659 179.852 86.1186 179.25C85.8713 178.643 85.7476 177.964 85.7476 177.213C85.7476 176.448 85.8713 175.766 86.1186 175.169C86.3706 174.567 86.7393 174.093 87.2246 173.748C87.7099 173.403 88.3073 173.23 89.0166 173.23C89.7073 173.23 90.2999 173.405 90.7946 173.755C91.2893 174.105 91.6673 174.581 91.9286 175.183C92.1946 175.785 92.3276 176.462 92.3276 177.213C92.3276 177.969 92.1946 178.648 91.9286 179.25C91.6626 179.852 91.2799 180.33 90.7806 180.685C90.2813 181.035 89.6793 181.21 88.9746 181.21ZM85.5726 184.36V173.44H86.4966V179.131H86.6086V184.36H85.5726ZM88.8696 180.251C89.3969 180.251 89.8356 180.118 90.1856 179.852C90.5356 179.586 90.7969 179.224 90.9696 178.767C91.1469 178.305 91.2356 177.787 91.2356 177.213C91.2356 176.644 91.1493 176.13 90.9766 175.673C90.8039 175.216 90.5403 174.854 90.1856 174.588C89.8356 174.322 89.3899 174.189 88.8486 174.189C88.3213 174.189 87.8826 174.317 87.5326 174.574C87.1873 174.831 86.9283 175.188 86.7556 175.645C86.5829 176.098 86.4966 176.62 86.4966 177.213C86.4966 177.796 86.5829 178.319 86.7556 178.781C86.9283 179.238 87.1896 179.598 87.5396 179.859C87.8896 180.12 88.3329 180.251 88.8696 180.251ZM96.0278 181.21C95.4584 181.21 94.9801 181.107 94.5928 180.902C94.2101 180.697 93.9231 180.424 93.7318 180.083C93.5404 179.742 93.4448 179.371 93.4448 178.97C93.4448 178.559 93.5264 178.209 93.6898 177.92C93.8578 177.626 94.0841 177.386 94.3688 177.199C94.6581 177.012 94.9918 176.87 95.3698 176.772C95.7524 176.679 96.1748 176.597 96.6368 176.527C97.1034 176.452 97.5584 176.389 98.0018 176.338C98.4498 176.282 98.8418 176.228 99.1778 176.177L98.8138 176.401C98.8278 175.654 98.6831 175.101 98.3798 174.742C98.0764 174.383 97.5491 174.203 96.7978 174.203C96.2798 174.203 95.8411 174.32 95.4818 174.553C95.1271 174.786 94.8774 175.155 94.7328 175.659L93.7318 175.365C93.9044 174.688 94.2521 174.163 94.7748 173.79C95.2974 173.417 95.9764 173.23 96.8118 173.23C97.5024 173.23 98.0881 173.361 98.5688 173.622C99.0541 173.879 99.3971 174.252 99.5978 174.742C99.6911 174.961 99.7518 175.206 99.7798 175.477C99.8078 175.748 99.8218 176.023 99.8218 176.303V181H98.9048V179.103L99.1708 179.215C98.9141 179.864 98.5151 180.358 97.9738 180.699C97.4324 181.04 96.7838 181.21 96.0278 181.21ZM96.1468 180.321C96.6274 180.321 97.0474 180.235 97.4068 180.062C97.7661 179.889 98.0554 179.654 98.2748 179.355C98.4941 179.052 98.6364 178.711 98.7018 178.333C98.7578 178.09 98.7881 177.824 98.7928 177.535C98.7974 177.241 98.7998 177.022 98.7998 176.877L99.1918 177.08C98.8418 177.127 98.4614 177.173 98.0508 177.22C97.6448 177.267 97.2434 177.32 96.8468 177.381C96.4548 177.442 96.1001 177.514 95.7828 177.598C95.5681 177.659 95.3604 177.745 95.1598 177.857C94.9591 177.964 94.7934 178.109 94.6628 178.291C94.5368 178.473 94.4738 178.699 94.4738 178.97C94.4738 179.189 94.5274 179.402 94.6348 179.607C94.7468 179.812 94.9241 179.983 95.1668 180.118C95.4141 180.253 95.7408 180.321 96.1468 180.321ZM104.367 181.21C103.606 181.21 102.941 181.044 102.372 180.713C101.807 180.377 101.362 179.913 101.035 179.32L101.861 178.795C102.136 179.262 102.479 179.616 102.89 179.859C103.301 180.102 103.772 180.223 104.304 180.223C104.859 180.223 105.305 180.095 105.641 179.838C105.977 179.581 106.145 179.229 106.145 178.781C106.145 178.473 106.073 178.228 105.928 178.046C105.788 177.864 105.573 177.733 105.284 177.654C104.999 177.575 104.642 177.535 104.213 177.535H103.317V176.653H104.199C104.722 176.653 105.142 176.56 105.459 176.373C105.781 176.182 105.942 175.883 105.942 175.477C105.942 175.048 105.781 174.73 105.459 174.525C105.142 174.315 104.761 174.21 104.318 174.21C103.87 174.21 103.445 174.303 103.044 174.49C102.647 174.672 102.314 174.908 102.043 175.197L101.385 174.504C101.763 174.089 102.204 173.774 102.708 173.559C103.217 173.34 103.779 173.23 104.395 173.23C104.88 173.23 105.319 173.316 105.711 173.489C106.108 173.657 106.42 173.904 106.649 174.231C106.882 174.558 106.999 174.95 106.999 175.407C106.999 175.836 106.894 176.207 106.684 176.52C106.479 176.833 106.187 177.092 105.809 177.297L105.753 176.912C106.08 176.973 106.35 177.103 106.565 177.304C106.78 177.505 106.938 177.745 107.041 178.025C107.144 178.305 107.195 178.59 107.195 178.879C107.195 179.36 107.069 179.775 106.817 180.125C106.57 180.47 106.231 180.739 105.802 180.93C105.377 181.117 104.899 181.21 104.367 181.21ZM108.74 181V173.44H113.92V174.427H109.769V181H108.74ZM118.268 181.21C117.517 181.21 116.875 181.04 116.343 180.699C115.811 180.358 115.403 179.887 115.118 179.285C114.833 178.683 114.691 177.992 114.691 177.213C114.691 176.42 114.836 175.724 115.125 175.127C115.414 174.53 115.825 174.065 116.357 173.734C116.894 173.398 117.531 173.23 118.268 173.23C119.024 173.23 119.668 173.4 120.2 173.741C120.737 174.077 121.145 174.546 121.425 175.148C121.71 175.745 121.852 176.434 121.852 177.213C121.852 178.006 121.71 178.704 121.425 179.306C121.14 179.903 120.73 180.37 120.193 180.706C119.656 181.042 119.015 181.21 118.268 181.21ZM118.268 180.223C119.108 180.223 119.733 179.945 120.144 179.39C120.555 178.83 120.76 178.104 120.76 177.213C120.76 176.298 120.552 175.57 120.137 175.029C119.726 174.488 119.103 174.217 118.268 174.217C117.703 174.217 117.237 174.345 116.868 174.602C116.504 174.854 116.231 175.206 116.049 175.659C115.872 176.107 115.783 176.625 115.783 177.213C115.783 178.123 115.993 178.853 116.413 179.404C116.833 179.95 117.451 180.223 118.268 180.223ZM123.389 181V173.44H126.504C126.663 173.44 126.854 173.449 127.078 173.468C127.307 173.487 127.519 173.522 127.715 173.573C128.14 173.685 128.48 173.914 128.737 174.259C128.998 174.604 129.129 175.02 129.129 175.505C129.129 175.776 129.087 176.018 129.003 176.233C128.924 176.443 128.809 176.625 128.66 176.779C128.59 176.858 128.513 176.928 128.429 176.989C128.345 177.045 128.263 177.092 128.184 177.129C128.333 177.157 128.494 177.222 128.667 177.325C128.938 177.484 129.143 177.698 129.283 177.969C129.423 178.235 129.493 178.559 129.493 178.942C129.493 179.46 129.369 179.882 129.122 180.209C128.875 180.536 128.543 180.76 128.128 180.881C127.941 180.932 127.738 180.965 127.519 180.979C127.304 180.993 127.101 181 126.91 181H123.389ZM124.425 180.125H126.861C126.959 180.125 127.083 180.118 127.232 180.104C127.381 180.085 127.514 180.062 127.631 180.034C127.906 179.964 128.107 179.824 128.233 179.614C128.364 179.399 128.429 179.166 128.429 178.914C128.429 178.583 128.331 178.312 128.135 178.102C127.944 177.887 127.687 177.757 127.365 177.71C127.258 177.687 127.146 177.673 127.029 177.668C126.912 177.663 126.807 177.661 126.714 177.661H124.425V180.125ZM124.425 176.779H126.539C126.66 176.779 126.796 176.772 126.945 176.758C127.099 176.739 127.232 176.709 127.344 176.667C127.587 176.583 127.764 176.438 127.876 176.233C127.993 176.028 128.051 175.804 128.051 175.561C128.051 175.295 127.988 175.062 127.862 174.861C127.741 174.66 127.556 174.52 127.309 174.441C127.141 174.38 126.959 174.345 126.763 174.336C126.572 174.327 126.45 174.322 126.399 174.322H124.425V176.779ZM134.045 181.21C133.294 181.21 132.652 181.04 132.12 180.699C131.588 180.358 131.18 179.887 130.895 179.285C130.611 178.683 130.468 177.992 130.468 177.213C130.468 176.42 130.613 175.724 130.902 175.127C131.192 174.53 131.602 174.065 132.134 173.734C132.671 173.398 133.308 173.23 134.045 173.23C134.801 173.23 135.445 173.4 135.977 173.741C136.514 174.077 136.922 174.546 137.202 175.148C137.487 175.745 137.629 176.434 137.629 177.213C137.629 178.006 137.487 178.704 137.202 179.306C136.918 179.903 136.507 180.37 135.97 180.706C135.434 181.042 134.792 181.21 134.045 181.21ZM134.045 180.223C134.885 180.223 135.511 179.945 135.921 179.39C136.332 178.83 136.537 178.104 136.537 177.213C136.537 176.298 136.33 175.57 135.914 175.029C135.504 174.488 134.881 174.217 134.045 174.217C133.481 174.217 133.014 174.345 132.645 174.602C132.281 174.854 132.008 175.206 131.826 175.659C131.649 176.107 131.56 176.625 131.56 177.213C131.56 178.123 131.77 178.853 132.19 179.404C132.61 179.95 133.229 180.223 134.045 180.223ZM142.568 181.21C141.873 181.21 141.285 181.035 140.804 180.685C140.324 180.33 139.96 179.852 139.712 179.25C139.465 178.643 139.341 177.964 139.341 177.213C139.341 176.448 139.465 175.766 139.712 175.169C139.964 174.567 140.333 174.093 140.818 173.748C141.304 173.403 141.901 173.23 142.61 173.23C143.301 173.23 143.894 173.405 144.388 173.755C144.883 174.105 145.261 174.581 145.522 175.183C145.788 175.785 145.921 176.462 145.921 177.213C145.921 177.969 145.788 178.648 145.522 179.25C145.256 179.852 144.874 180.33 144.374 180.685C143.875 181.035 143.273 181.21 142.568 181.21ZM139.166 184.36V173.44H140.09V179.131H140.202V184.36H139.166ZM142.463 180.251C142.991 180.251 143.429 180.118 143.779 179.852C144.129 179.586 144.391 179.224 144.563 178.767C144.741 178.305 144.829 177.787 144.829 177.213C144.829 176.644 144.743 176.13 144.57 175.673C144.398 175.216 144.134 174.854 143.779 174.588C143.429 174.322 142.984 174.189 142.442 174.189C141.915 174.189 141.476 174.317 141.126 174.574C140.781 174.831 140.522 175.188 140.349 175.645C140.177 176.098 140.09 176.62 140.09 177.213C140.09 177.796 140.177 178.319 140.349 178.781C140.522 179.238 140.783 179.598 141.133 179.859C141.483 180.12 141.927 180.251 142.463 180.251ZM150.616 181.21C149.864 181.21 149.223 181.04 148.691 180.699C148.159 180.358 147.75 179.887 147.466 179.285C147.181 178.683 147.039 177.992 147.039 177.213C147.039 176.42 147.183 175.724 147.473 175.127C147.762 174.53 148.173 174.065 148.705 173.734C149.241 173.398 149.878 173.23 150.616 173.23C151.372 173.23 152.016 173.4 152.548 173.741C153.084 174.077 153.493 174.546 153.773 175.148C154.057 175.745 154.2 176.434 154.2 177.213C154.2 178.006 154.057 178.704 153.773 179.306C153.488 179.903 153.077 180.37 152.541 180.706C152.004 181.042 151.362 181.21 150.616 181.21ZM150.616 180.223C151.456 180.223 152.081 179.945 152.492 179.39C152.902 178.83 153.108 178.104 153.108 177.213C153.108 176.298 152.9 175.57 152.485 175.029C152.074 174.488 151.451 174.217 150.616 174.217C150.051 174.217 149.584 174.345 149.216 174.602C148.852 174.854 148.579 175.206 148.397 175.659C148.219 176.107 148.131 176.625 148.131 177.213C148.131 178.123 148.341 178.853 148.761 179.404C149.181 179.95 149.799 180.223 150.616 180.223ZM155.737 181V173.44H158.852C159.01 173.44 159.202 173.449 159.426 173.468C159.654 173.487 159.867 173.522 160.063 173.573C160.487 173.685 160.828 173.914 161.085 174.259C161.346 174.604 161.477 175.02 161.477 175.505C161.477 175.776 161.435 176.018 161.351 176.233C161.271 176.443 161.157 176.625 161.008 176.779C160.938 176.858 160.861 176.928 160.777 176.989C160.693 177.045 160.611 177.092 160.532 177.129C160.681 177.157 160.842 177.222 161.015 177.325C161.285 177.484 161.491 177.698 161.631 177.969C161.771 178.235 161.841 178.559 161.841 178.942C161.841 179.46 161.717 179.882 161.47 180.209C161.222 180.536 160.891 180.76 160.476 180.881C160.289 180.932 160.086 180.965 159.867 180.979C159.652 180.993 159.449 181 159.258 181H155.737ZM156.773 180.125H159.209C159.307 180.125 159.43 180.118 159.58 180.104C159.729 180.085 159.862 180.062 159.979 180.034C160.254 179.964 160.455 179.824 160.581 179.614C160.711 179.399 160.777 179.166 160.777 178.914C160.777 178.583 160.679 178.312 160.483 178.102C160.291 177.887 160.035 177.757 159.713 177.71C159.605 177.687 159.493 177.673 159.377 177.668C159.26 177.663 159.155 177.661 159.062 177.661H156.773V180.125ZM156.773 176.779H158.887C159.008 176.779 159.143 176.772 159.293 176.758C159.447 176.739 159.58 176.709 159.692 176.667C159.934 176.583 160.112 176.438 160.224 176.233C160.34 176.028 160.399 175.804 160.399 175.561C160.399 175.295 160.336 175.062 160.21 174.861C160.088 174.66 159.904 174.52 159.657 174.441C159.489 174.38 159.307 174.345 159.111 174.336C158.919 174.327 158.798 174.322 158.747 174.322H156.773V176.779Z" fill="#5E6B77"/>
<path d="M34.98 259V248.92H38.872C39.4367 248.92 39.929 249.037 40.349 249.27C40.769 249.503 41.0957 249.818 41.329 250.215C41.5623 250.607 41.679 251.041 41.679 251.517C41.679 252.058 41.5343 252.541 41.245 252.966C40.9557 253.386 40.5683 253.678 40.083 253.841L40.069 253.498C40.7223 253.685 41.2357 254.011 41.609 254.478C41.9823 254.945 42.169 255.509 42.169 256.172C42.169 256.755 42.0453 257.259 41.798 257.684C41.5507 258.104 41.203 258.428 40.755 258.657C40.307 258.886 39.7867 259 39.194 259H34.98ZM36.016 258.013H38.942C39.3527 258.013 39.7213 257.941 40.048 257.796C40.3747 257.647 40.6313 257.437 40.818 257.166C41.0093 256.895 41.105 256.569 41.105 256.186C41.105 255.813 41.0187 255.477 40.846 255.178C40.6733 254.879 40.4377 254.641 40.139 254.464C39.845 254.282 39.509 254.191 39.131 254.191H36.016V258.013ZM36.016 253.218H38.865C39.187 253.218 39.481 253.146 39.747 253.001C40.013 252.852 40.223 252.649 40.377 252.392C40.5357 252.135 40.615 251.839 40.615 251.503C40.615 251.027 40.4493 250.64 40.118 250.341C39.7913 250.042 39.3737 249.893 38.865 249.893H36.016V253.218ZM43.5589 259V251.44H44.5879V254.723H48.8509V251.44H49.8799V259H48.8509V255.71H44.5879V259H43.5589ZM52.9154 262.36L54.3784 258.391L54.3994 259.567L51.0884 251.44H52.1804L54.8964 258.237H54.4484L56.9544 251.44H58.0044L53.9444 262.36H52.9154ZM61.2712 259V252.392H58.5902V251.44H64.9812V252.392H62.3002V259H61.2712ZM69.7109 259.21C69.0156 259.21 68.4276 259.035 67.9469 258.685C67.4663 258.33 67.1023 257.852 66.8549 257.25C66.6076 256.643 66.4839 255.964 66.4839 255.213C66.4839 254.448 66.6076 253.766 66.8549 253.169C67.1069 252.567 67.4756 252.093 67.9609 251.748C68.4463 251.403 69.0436 251.23 69.7529 251.23C70.4436 251.23 71.0363 251.405 71.5309 251.755C72.0256 252.105 72.4036 252.581 72.6649 253.183C72.9309 253.785 73.0639 254.462 73.0639 255.213C73.0639 255.969 72.9309 256.648 72.6649 257.25C72.3989 257.852 72.0163 258.33 71.5169 258.685C71.0176 259.035 70.4156 259.21 69.7109 259.21ZM66.3089 262.36V251.44H67.2329V257.131H67.3449V262.36H66.3089ZM69.6059 258.251C70.1333 258.251 70.5719 258.118 70.9219 257.852C71.2719 257.586 71.5333 257.224 71.7059 256.767C71.8833 256.305 71.9719 255.787 71.9719 255.213C71.9719 254.644 71.8856 254.13 71.7129 253.673C71.5403 253.216 71.2766 252.854 70.9219 252.588C70.5719 252.322 70.1263 252.189 69.5849 252.189C69.0576 252.189 68.6189 252.317 68.2689 252.574C67.9236 252.831 67.6646 253.188 67.4919 253.645C67.3193 254.098 67.2329 254.62 67.2329 255.213C67.2329 255.796 67.3193 256.319 67.4919 256.781C67.6646 257.238 67.9259 257.598 68.2759 257.859C68.6259 258.12 69.0693 258.251 69.6059 258.251ZM77.8001 259.21C77.0628 259.21 76.4234 259.047 75.8821 258.72C75.3454 258.393 74.9278 257.934 74.6291 257.341C74.3304 256.748 74.1811 256.053 74.1811 255.255C74.1811 254.429 74.3281 253.715 74.6221 253.113C74.9161 252.511 75.3291 252.047 75.8611 251.72C76.3978 251.393 77.0301 251.23 77.7581 251.23C78.5048 251.23 79.1418 251.403 79.6691 251.748C80.1964 252.089 80.5954 252.579 80.8661 253.218C81.1368 253.857 81.2604 254.62 81.2371 255.507H80.1871V255.143C80.1684 254.163 79.9561 253.423 79.5501 252.924C79.1488 252.425 78.5608 252.175 77.7861 252.175C76.9741 252.175 76.3511 252.439 75.9171 252.966C75.4878 253.493 75.2731 254.245 75.2731 255.22C75.2731 256.172 75.4878 256.912 75.9171 257.439C76.3511 257.962 76.9648 258.223 77.7581 258.223C78.2994 258.223 78.7708 258.099 79.1721 257.852C79.5781 257.6 79.8978 257.238 80.1311 256.767L81.0901 257.138C80.7914 257.796 80.3504 258.307 79.7671 258.671C79.1884 259.03 78.5328 259.21 77.8001 259.21ZM74.9091 255.507V254.646H80.6841V255.507H74.9091ZM82.7835 259V251.44H83.8125V254.723H88.0755V251.44H89.1045V259H88.0755V255.71H83.8125V259H82.7835ZM91.055 259V251.44H92.084V254.723H96.347V251.44H97.376V259H96.347V255.71H92.084V259H91.055ZM105.34 251.44V259H104.339V253.113L100.195 259H99.3265V251.44H100.328V257.278L104.479 251.44H105.34ZM110.503 259.21C109.766 259.21 109.127 259.047 108.585 258.72C108.049 258.393 107.631 257.934 107.332 257.341C107.034 256.748 106.884 256.053 106.884 255.255C106.884 254.429 107.031 253.715 107.325 253.113C107.619 252.511 108.032 252.047 108.564 251.72C109.101 251.393 109.733 251.23 110.461 251.23C111.208 251.23 111.845 251.403 112.372 251.748C112.9 252.089 113.299 252.579 113.569 253.218C113.84 253.857 113.964 254.62 113.94 255.507H112.89V255.143C112.872 254.163 112.659 253.423 112.253 252.924C111.852 252.425 111.264 252.175 110.489 252.175C109.677 252.175 109.054 252.439 108.62 252.966C108.191 253.493 107.976 254.245 107.976 255.22C107.976 256.172 108.191 256.912 108.62 257.439C109.054 257.962 109.668 258.223 110.461 258.223C111.003 258.223 111.474 258.099 111.875 257.852C112.281 257.6 112.601 257.238 112.834 256.767L113.793 257.138C113.495 257.796 113.054 258.307 112.47 258.671C111.892 259.03 111.236 259.21 110.503 259.21ZM107.612 255.507V254.646H113.387V255.507H107.612ZM121.019 259.21C120.259 259.21 119.594 259.044 119.024 258.713C118.46 258.377 118.014 257.913 117.687 257.32L118.513 256.795C118.789 257.262 119.132 257.616 119.542 257.859C119.953 258.102 120.424 258.223 120.956 258.223C121.512 258.223 121.957 258.095 122.293 257.838C122.629 257.581 122.797 257.229 122.797 256.781C122.797 256.473 122.725 256.228 122.58 256.046C122.44 255.864 122.226 255.733 121.936 255.654C121.652 255.575 121.295 255.535 120.865 255.535H119.969V254.653H120.851C121.374 254.653 121.794 254.56 122.111 254.373C122.433 254.182 122.594 253.883 122.594 253.477C122.594 253.048 122.433 252.73 122.111 252.525C121.794 252.315 121.414 252.21 120.97 252.21C120.522 252.21 120.098 252.303 119.696 252.49C119.3 252.672 118.966 252.908 118.695 253.197L118.037 252.504C118.415 252.089 118.856 251.774 119.36 251.559C119.869 251.34 120.431 251.23 121.047 251.23C121.533 251.23 121.971 251.316 122.363 251.489C122.76 251.657 123.073 251.904 123.301 252.231C123.535 252.558 123.651 252.95 123.651 253.407C123.651 253.836 123.546 254.207 123.336 254.52C123.131 254.833 122.839 255.092 122.461 255.297L122.405 254.912C122.732 254.973 123.003 255.103 123.217 255.304C123.432 255.505 123.591 255.745 123.693 256.025C123.796 256.305 123.847 256.59 123.847 256.879C123.847 257.36 123.721 257.775 123.469 258.125C123.222 258.47 122.884 258.739 122.454 258.93C122.03 259.117 121.551 259.21 121.019 259.21ZM125.385 259V251.44H128.5C128.659 251.44 128.85 251.449 129.074 251.468C129.303 251.487 129.515 251.522 129.711 251.573C130.136 251.685 130.476 251.914 130.733 252.259C130.994 252.604 131.125 253.02 131.125 253.505C131.125 253.776 131.083 254.018 130.999 254.233C130.92 254.443 130.805 254.625 130.656 254.779C130.586 254.858 130.509 254.928 130.425 254.989C130.341 255.045 130.259 255.092 130.18 255.129C130.329 255.157 130.49 255.222 130.663 255.325C130.934 255.484 131.139 255.698 131.279 255.969C131.419 256.235 131.489 256.559 131.489 256.942C131.489 257.46 131.365 257.882 131.118 258.209C130.871 258.536 130.539 258.76 130.124 258.881C129.937 258.932 129.734 258.965 129.515 258.979C129.3 258.993 129.097 259 128.906 259H125.385ZM126.421 258.125H128.857C128.955 258.125 129.079 258.118 129.228 258.104C129.377 258.085 129.51 258.062 129.627 258.034C129.902 257.964 130.103 257.824 130.229 257.614C130.36 257.399 130.425 257.166 130.425 256.914C130.425 256.583 130.327 256.312 130.131 256.102C129.94 255.887 129.683 255.757 129.361 255.71C129.254 255.687 129.142 255.673 129.025 255.668C128.908 255.663 128.803 255.661 128.71 255.661H126.421V258.125ZM126.421 254.779H128.535C128.656 254.779 128.792 254.772 128.941 254.758C129.095 254.739 129.228 254.709 129.34 254.667C129.583 254.583 129.76 254.438 129.872 254.233C129.989 254.028 130.047 253.804 130.047 253.561C130.047 253.295 129.984 253.062 129.858 252.861C129.737 252.66 129.552 252.52 129.305 252.441C129.137 252.38 128.955 252.345 128.759 252.336C128.568 252.327 128.446 252.322 128.395 252.322H126.421V254.779ZM136.041 259.21C135.29 259.21 134.648 259.04 134.116 258.699C133.584 258.358 133.176 257.887 132.891 257.285C132.607 256.683 132.464 255.992 132.464 255.213C132.464 254.42 132.609 253.724 132.898 253.127C133.188 252.53 133.598 252.065 134.13 251.734C134.667 251.398 135.304 251.23 136.041 251.23C136.797 251.23 137.441 251.4 137.973 251.741C138.51 252.077 138.918 252.546 139.198 253.148C139.483 253.745 139.625 254.434 139.625 255.213C139.625 256.006 139.483 256.704 139.198 257.306C138.914 257.903 138.503 258.37 137.966 258.706C137.43 259.042 136.788 259.21 136.041 259.21ZM136.041 258.223C136.881 258.223 137.507 257.945 137.917 257.39C138.328 256.83 138.533 256.104 138.533 255.213C138.533 254.298 138.326 253.57 137.91 253.029C137.5 252.488 136.877 252.217 136.041 252.217C135.477 252.217 135.01 252.345 134.641 252.602C134.277 252.854 134.004 253.206 133.822 253.659C133.645 254.107 133.556 254.625 133.556 255.213C133.556 256.123 133.766 256.853 134.186 257.404C134.606 257.95 135.225 258.223 136.041 258.223ZM141.162 259V251.44H142.191V254.723H146.454V251.44H147.483V259H146.454V255.71H142.191V259H141.162ZM149.434 259L149.441 251.44H150.477V255.08L153.851 251.44H155.223L151.681 255.22L155.685 259H154.187L150.477 255.36V259H149.434ZM162.392 251.44V259H161.391V253.113L157.247 259H156.379V251.44H157.38V257.278L161.531 251.44H162.392Z" fill="#5E6B77"/>
<path d="M41.042 207V202.268L41.329 202.709C41.007 202.938 40.6127 203.124 40.146 203.269C39.6793 203.409 39.152 203.479 38.564 203.479C37.6913 203.479 36.9913 203.318 36.464 202.996C35.9413 202.674 35.5633 202.231 35.33 201.666C35.0967 201.097 34.98 200.446 34.98 199.713V196.92H36.016V199.356C36.016 199.823 36.0603 200.247 36.149 200.63C36.2377 201.013 36.3847 201.342 36.59 201.617C36.7953 201.892 37.0683 202.105 37.409 202.254C37.7497 202.399 38.1697 202.471 38.669 202.471C39.2897 202.471 39.824 202.378 40.272 202.191C40.72 202 41.049 201.794 41.259 201.575L41.042 202.401V196.92H42.071V207H41.042ZM47.2298 207.21C46.4924 207.21 45.8531 207.047 45.3118 206.72C44.7751 206.393 44.3574 205.934 44.0588 205.341C43.7601 204.748 43.6108 204.053 43.6108 203.255C43.6108 202.429 43.7578 201.715 44.0518 201.113C44.3458 200.511 44.7588 200.047 45.2908 199.72C45.8274 199.393 46.4598 199.23 47.1878 199.23C47.9344 199.23 48.5714 199.403 49.0988 199.748C49.6261 200.089 50.0251 200.579 50.2958 201.218C50.5664 201.857 50.6901 202.62 50.6668 203.507H49.6168V203.143C49.5981 202.163 49.3858 201.423 48.9798 200.924C48.5784 200.425 47.9904 200.175 47.2158 200.175C46.4038 200.175 45.7808 200.439 45.3468 200.966C44.9174 201.493 44.7028 202.245 44.7028 203.22C44.7028 204.172 44.9174 204.912 45.3468 205.439C45.7808 205.962 46.3944 206.223 47.1878 206.223C47.7291 206.223 48.2004 206.099 48.6018 205.852C49.0078 205.6 49.3274 205.238 49.5608 204.767L50.5198 205.138C50.2211 205.796 49.7801 206.307 49.1968 206.671C48.6181 207.03 47.9624 207.21 47.2298 207.21ZM44.3388 203.507V202.646H50.1138V203.507H44.3388ZM55.6152 207.21C54.9199 207.21 54.3319 207.035 53.8512 206.685C53.3706 206.33 53.0066 205.852 52.7592 205.25C52.5119 204.643 52.3882 203.964 52.3882 203.213C52.3882 202.448 52.5119 201.766 52.7592 201.169C53.0112 200.567 53.3799 200.093 53.8652 199.748C54.3506 199.403 54.9479 199.23 55.6572 199.23C56.3479 199.23 56.9406 199.405 57.4352 199.755C57.9299 200.105 58.3079 200.581 58.5692 201.183C58.8352 201.785 58.9682 202.462 58.9682 203.213C58.9682 203.969 58.8352 204.648 58.5692 205.25C58.3032 205.852 57.9206 206.33 57.4212 206.685C56.9219 207.035 56.3199 207.21 55.6152 207.21ZM52.2132 210.36V199.44H53.1372V205.131H53.2492V210.36H52.2132ZM55.5102 206.251C56.0376 206.251 56.4762 206.118 56.8262 205.852C57.1762 205.586 57.4376 205.224 57.6102 204.767C57.7876 204.305 57.8762 203.787 57.8762 203.213C57.8762 202.644 57.7899 202.13 57.6172 201.673C57.4446 201.216 57.1809 200.854 56.8262 200.588C56.4762 200.322 56.0306 200.189 55.4892 200.189C54.9619 200.189 54.5232 200.317 54.1732 200.574C53.8279 200.831 53.5689 201.188 53.3962 201.645C53.2236 202.098 53.1372 202.62 53.1372 203.213C53.1372 203.796 53.2236 204.319 53.3962 204.781C53.5689 205.238 53.8302 205.598 54.1802 205.859C54.5302 206.12 54.9736 206.251 55.5102 206.251ZM60.4984 207V199.44H61.5274V202.723H65.7904V199.44H66.8194V207H65.7904V203.71H61.5274V207H60.4984ZM68.7839 207L68.7699 199.44H69.8059V202.289H71.1219C71.3412 202.289 71.5559 202.294 71.7659 202.303C71.9759 202.312 72.1649 202.331 72.3329 202.359C72.7062 202.434 73.0375 202.56 73.3269 202.737C73.6162 202.914 73.8449 203.159 74.0129 203.472C74.1809 203.78 74.2649 204.17 74.2649 204.641C74.2649 205.29 74.0969 205.801 73.7609 206.174C73.4249 206.547 73.0025 206.79 72.4939 206.902C72.3025 206.944 72.0949 206.972 71.8709 206.986C71.6469 206.995 71.4275 207 71.2129 207H68.7839ZM69.8059 206.118H71.1709C71.3249 206.118 71.4999 206.113 71.6959 206.104C71.8919 206.095 72.0645 206.069 72.2139 206.027C72.4659 205.957 72.6922 205.817 72.8929 205.607C73.0982 205.392 73.2009 205.07 73.2009 204.641C73.2009 204.216 73.1029 203.897 72.9069 203.682C72.7109 203.463 72.4495 203.318 72.1229 203.248C71.9735 203.215 71.8149 203.194 71.6469 203.185C71.4835 203.176 71.3249 203.171 71.1709 203.171H69.8059V206.118ZM75.1679 207V199.44H76.1969V207H75.1679ZM81.2918 198.544C80.9604 198.544 80.6571 198.462 80.3818 198.299C80.1064 198.136 79.8871 197.919 79.7238 197.648C79.5651 197.373 79.4858 197.069 79.4858 196.738H80.3398C80.3398 196.999 80.4331 197.223 80.6198 197.41C80.8064 197.597 81.0304 197.69 81.2918 197.69C81.5578 197.69 81.7818 197.597 81.9638 197.41C82.1504 197.223 82.2438 196.999 82.2438 196.738H83.0978C83.0978 197.069 83.0161 197.373 82.8528 197.648C82.6941 197.919 82.4771 198.136 82.2018 198.299C81.9264 198.462 81.6231 198.544 81.2918 198.544ZM84.1618 199.44V207H83.1608V201.113L79.0168 207H78.1488V199.44H79.1498V205.278L83.3008 199.44H84.1618ZM92.0652 207.21C91.3046 207.21 90.6606 207.04 90.1332 206.699C89.6059 206.358 89.2046 205.889 88.9292 205.292C88.6586 204.69 88.5186 203.999 88.5092 203.22C88.5186 202.427 88.6632 201.731 88.9432 201.134C89.2232 200.532 89.6269 200.065 90.1542 199.734C90.6816 199.398 91.3209 199.23 92.0722 199.23C92.8376 199.23 93.5026 199.417 94.0672 199.79C94.6366 200.163 95.0262 200.674 95.2362 201.323L94.2282 201.645C94.0509 201.192 93.7686 200.842 93.3812 200.595C92.9986 200.343 92.5599 200.217 92.0652 200.217C91.5099 200.217 91.0502 200.345 90.6862 200.602C90.3222 200.854 90.0516 201.206 89.8742 201.659C89.6969 202.112 89.6059 202.632 89.6012 203.22C89.6106 204.125 89.8206 204.853 90.2312 205.404C90.6419 205.95 91.2532 206.223 92.0652 206.223C92.5786 206.223 93.0149 206.106 93.3742 205.873C93.7382 205.635 94.0136 205.29 94.2002 204.837L95.2362 205.145C94.9562 205.817 94.5456 206.33 94.0042 206.685C93.4629 207.035 92.8166 207.21 92.0652 207.21ZM96.6742 207V199.44H102.687V207H101.658V200.427H97.7032V207H96.6742ZM110.658 199.44V207H109.657V201.113L105.513 207H104.645V199.44H105.646V205.278L109.797 199.44H110.658ZM115.759 207.21C114.998 207.21 114.354 207.04 113.827 206.699C113.299 206.358 112.898 205.889 112.623 205.292C112.352 204.69 112.212 203.999 112.203 203.22C112.212 202.427 112.357 201.731 112.637 201.134C112.917 200.532 113.32 200.065 113.848 199.734C114.375 199.398 115.014 199.23 115.766 199.23C116.531 199.23 117.196 199.417 117.761 199.79C118.33 200.163 118.72 200.674 118.93 201.323L117.922 201.645C117.744 201.192 117.462 200.842 117.075 200.595C116.692 200.343 116.253 200.217 115.759 200.217C115.203 200.217 114.744 200.345 114.38 200.602C114.016 200.854 113.745 201.206 113.568 201.659C113.39 202.112 113.299 202.632 113.295 203.22C113.304 204.125 113.514 204.853 113.925 205.404C114.335 205.95 114.947 206.223 115.759 206.223C116.272 206.223 116.708 206.106 117.068 205.873C117.432 205.635 117.707 205.29 117.894 204.837L118.93 205.145C118.65 205.817 118.239 206.33 117.698 206.685C117.156 207.035 116.51 207.21 115.759 207.21ZM123.326 207.21C122.575 207.21 121.933 207.04 121.401 206.699C120.869 206.358 120.461 205.887 120.176 205.285C119.892 204.683 119.749 203.992 119.749 203.213C119.749 202.42 119.894 201.724 120.183 201.127C120.473 200.53 120.883 200.065 121.415 199.734C121.952 199.398 122.589 199.23 123.326 199.23C124.082 199.23 124.726 199.4 125.258 199.741C125.795 200.077 126.203 200.546 126.483 201.148C126.768 201.745 126.91 202.434 126.91 203.213C126.91 204.006 126.768 204.704 126.483 205.306C126.199 205.903 125.788 206.37 125.251 206.706C124.715 207.042 124.073 207.21 123.326 207.21ZM123.326 206.223C124.166 206.223 124.792 205.945 125.202 205.39C125.613 204.83 125.818 204.104 125.818 203.213C125.818 202.298 125.611 201.57 125.195 201.029C124.785 200.488 124.162 200.217 123.326 200.217C122.762 200.217 122.295 200.345 121.926 200.602C121.562 200.854 121.289 201.206 121.107 201.659C120.93 202.107 120.841 202.625 120.841 203.213C120.841 204.123 121.051 204.853 121.471 205.404C121.891 205.95 122.51 206.223 123.326 206.223ZM128.448 207L128.455 199.44H129.491V203.08L132.865 199.44H134.237L130.695 203.22L134.699 207H133.201L129.491 203.36V207H128.448ZM138.196 207V199.44H139.225V202.723H143.488V199.44H144.517V207H143.488V203.71H139.225V207H138.196ZM149.631 207.21C148.88 207.21 148.238 207.04 147.706 206.699C147.174 206.358 146.766 205.887 146.481 205.285C146.196 204.683 146.054 203.992 146.054 203.213C146.054 202.42 146.199 201.724 146.488 201.127C146.777 200.53 147.188 200.065 147.72 199.734C148.257 199.398 148.894 199.23 149.631 199.23C150.387 199.23 151.031 199.4 151.563 199.741C152.1 200.077 152.508 200.546 152.788 201.148C153.073 201.745 153.215 202.434 153.215 203.213C153.215 204.006 153.073 204.704 152.788 205.306C152.503 205.903 152.093 206.37 151.556 206.706C151.019 207.042 150.378 207.21 149.631 207.21ZM149.631 206.223C150.471 206.223 151.096 205.945 151.507 205.39C151.918 204.83 152.123 204.104 152.123 203.213C152.123 202.298 151.915 201.57 151.5 201.029C151.089 200.488 150.466 200.217 149.631 200.217C149.066 200.217 148.6 200.345 148.231 200.602C147.867 200.854 147.594 201.206 147.412 201.659C147.235 202.107 147.146 202.625 147.146 203.213C147.146 204.123 147.356 204.853 147.776 205.404C148.196 205.95 148.814 206.223 149.631 206.223ZM154.752 207V199.44H155.669L158.616 205.628L161.57 199.44H162.48V207H161.486V201.638L158.945 207H158.294L155.753 201.638V207H154.752ZM167.638 207.21C166.901 207.21 166.261 207.047 165.72 206.72C165.183 206.393 164.766 205.934 164.467 205.341C164.168 204.748 164.019 204.053 164.019 203.255C164.019 202.429 164.166 201.715 164.46 201.113C164.754 200.511 165.167 200.047 165.699 199.72C166.236 199.393 166.868 199.23 167.596 199.23C168.343 199.23 168.98 199.403 169.507 199.748C170.034 200.089 170.433 200.579 170.704 201.218C170.975 201.857 171.098 202.62 171.075 203.507H170.025V203.143C170.006 202.163 169.794 201.423 169.388 200.924C168.987 200.425 168.399 200.175 167.624 200.175C166.812 200.175 166.189 200.439 165.755 200.966C165.326 201.493 165.111 202.245 165.111 203.22C165.111 204.172 165.326 204.912 165.755 205.439C166.189 205.962 166.803 206.223 167.596 206.223C168.137 206.223 168.609 206.099 169.01 205.852C169.416 205.6 169.736 205.238 169.969 204.767L170.928 205.138C170.629 205.796 170.188 206.307 169.605 206.671C169.026 207.03 168.371 207.21 167.638 207.21ZM164.747 203.507V202.646H170.522V203.507H164.747ZM176.023 207.21C175.328 207.21 174.74 207.035 174.259 206.685C173.779 206.33 173.415 205.852 173.167 205.25C172.92 204.643 172.796 203.964 172.796 203.213C172.796 202.448 172.92 201.766 173.167 201.169C173.419 200.567 173.788 200.093 174.273 199.748C174.759 199.403 175.356 199.23 176.065 199.23C176.756 199.23 177.349 199.405 177.843 199.755C178.338 200.105 178.716 200.581 178.977 201.183C179.243 201.785 179.376 202.462 179.376 203.213C179.376 203.969 179.243 204.648 178.977 205.25C178.711 205.852 178.329 206.33 177.829 206.685C177.33 207.035 176.728 207.21 176.023 207.21ZM172.621 210.36V199.44H173.545V205.131H173.657V210.36H172.621ZM175.918 206.251C176.446 206.251 176.884 206.118 177.234 205.852C177.584 205.586 177.846 205.224 178.018 204.767C178.196 204.305 178.284 203.787 178.284 203.213C178.284 202.644 178.198 202.13 178.025 201.673C177.853 201.216 177.589 200.854 177.234 200.588C176.884 200.322 176.439 200.189 175.897 200.189C175.37 200.189 174.931 200.317 174.581 200.574C174.236 200.831 173.977 201.188 173.804 201.645C173.632 202.098 173.545 202.62 173.545 203.213C173.545 203.796 173.632 204.319 173.804 204.781C173.977 205.238 174.238 205.598 174.588 205.859C174.938 206.12 175.382 206.251 175.918 206.251ZM184.071 207.21C183.319 207.21 182.678 207.04 182.146 206.699C181.614 206.358 181.205 205.887 180.921 205.285C180.636 204.683 180.494 203.992 180.494 203.213C180.494 202.42 180.638 201.724 180.928 201.127C181.217 200.53 181.628 200.065 182.16 199.734C182.696 199.398 183.333 199.23 184.071 199.23C184.827 199.23 185.471 199.4 186.003 199.741C186.539 200.077 186.948 200.546 187.228 201.148C187.512 201.745 187.655 202.434 187.655 203.213C187.655 204.006 187.512 204.704 187.228 205.306C186.943 205.903 186.532 206.37 185.996 206.706C185.459 207.042 184.817 207.21 184.071 207.21ZM184.071 206.223C184.911 206.223 185.536 205.945 185.947 205.39C186.357 204.83 186.563 204.104 186.563 203.213C186.563 202.298 186.355 201.57 185.94 201.029C185.529 200.488 184.906 200.217 184.071 200.217C183.506 200.217 183.039 200.345 182.671 200.602C182.307 200.854 182.034 201.206 181.852 201.659C181.674 202.107 181.586 202.625 181.586 203.213C181.586 204.123 181.796 204.853 182.216 205.404C182.636 205.95 183.254 206.223 184.071 206.223ZM189.192 207V199.44H192.307C192.465 199.44 192.657 199.449 192.881 199.468C193.109 199.487 193.322 199.522 193.518 199.573C193.942 199.685 194.283 199.914 194.54 200.259C194.801 200.604 194.932 201.02 194.932 201.505C194.932 201.776 194.89 202.018 194.806 202.233C194.726 202.443 194.612 202.625 194.463 202.779C194.393 202.858 194.316 202.928 194.232 202.989C194.148 203.045 194.066 203.092 193.987 203.129C194.136 203.157 194.297 203.222 194.47 203.325C194.74 203.484 194.946 203.698 195.086 203.969C195.226 204.235 195.296 204.559 195.296 204.942C195.296 205.46 195.172 205.882 194.925 206.209C194.677 206.536 194.346 206.76 193.931 206.881C193.744 206.932 193.541 206.965 193.322 206.979C193.107 206.993 192.904 207 192.713 207H189.192ZM190.228 206.125H192.664C192.762 206.125 192.885 206.118 193.035 206.104C193.184 206.085 193.317 206.062 193.434 206.034C193.709 205.964 193.91 205.824 194.036 205.614C194.166 205.399 194.232 205.166 194.232 204.914C194.232 204.583 194.134 204.312 193.938 204.102C193.746 203.887 193.49 203.757 193.168 203.71C193.06 203.687 192.948 203.673 192.832 203.668C192.715 203.663 192.61 203.661 192.517 203.661H190.228V206.125ZM190.228 202.779H192.342C192.463 202.779 192.598 202.772 192.748 202.758C192.902 202.739 193.035 202.709 193.147 202.667C193.389 202.583 193.567 202.438 193.679 202.233C193.795 202.028 193.854 201.804 193.854 201.561C193.854 201.295 193.791 201.062 193.665 200.861C193.543 200.66 193.359 200.52 193.112 200.441C192.944 200.38 192.762 200.345 192.566 200.336C192.374 200.327 192.253 200.322 192.202 200.322H190.228V202.779Z" fill="#5E6B77"/>
<path d="M34.98 285V274.92H42.701V285H41.672V275.907H36.009V285H34.98ZM47.8587 285.21C47.1214 285.21 46.482 285.047 45.9407 284.72C45.404 284.393 44.9864 283.934 44.6877 283.341C44.389 282.748 44.2397 282.053 44.2397 281.255C44.2397 280.429 44.3867 279.715 44.6807 279.113C44.9747 278.511 45.3877 278.047 45.9197 277.72C46.4564 277.393 47.0887 277.23 47.8167 277.23C48.5634 277.23 49.2004 277.403 49.7277 277.748C50.255 278.089 50.654 278.579 50.9247 279.218C51.1954 279.857 51.319 280.62 51.2957 281.507H50.2457V281.143C50.227 280.163 50.0147 279.423 49.6087 278.924C49.2074 278.425 48.6194 278.175 47.8447 278.175C47.0327 278.175 46.4097 278.439 45.9757 278.966C45.5464 279.493 45.3317 280.245 45.3317 281.22C45.3317 282.172 45.5464 282.912 45.9757 283.439C46.4097 283.962 47.0234 284.223 47.8167 284.223C48.358 284.223 48.8294 284.099 49.2307 283.852C49.6367 283.6 49.9564 283.238 50.1897 282.767L51.1487 283.138C50.85 283.796 50.409 284.307 49.8257 284.671C49.247 285.03 48.5914 285.21 47.8587 285.21ZM44.9677 281.507V280.646H50.7427V281.507H44.9677ZM56.2441 285.21C55.5488 285.21 54.9608 285.035 54.4801 284.685C53.9995 284.33 53.6355 283.852 53.3881 283.25C53.1408 282.643 53.0171 281.964 53.0171 281.213C53.0171 280.448 53.1408 279.766 53.3881 279.169C53.6401 278.567 54.0088 278.093 54.4941 277.748C54.9795 277.403 55.5768 277.23 56.2861 277.23C56.9768 277.23 57.5695 277.405 58.0641 277.755C58.5588 278.105 58.9368 278.581 59.1981 279.183C59.4641 279.785 59.5971 280.462 59.5971 281.213C59.5971 281.969 59.4641 282.648 59.1981 283.25C58.9321 283.852 58.5495 284.33 58.0501 284.685C57.5508 285.035 56.9488 285.21 56.2441 285.21ZM52.8421 288.36V277.44H53.7661V283.131H53.8781V288.36H52.8421ZM56.1391 284.251C56.6665 284.251 57.1051 284.118 57.4551 283.852C57.8051 283.586 58.0665 283.224 58.2391 282.767C58.4165 282.305 58.5051 281.787 58.5051 281.213C58.5051 280.644 58.4188 280.13 58.2461 279.673C58.0735 279.216 57.8098 278.854 57.4551 278.588C57.1051 278.322 56.6595 278.189 56.1181 278.189C55.5908 278.189 55.1521 278.317 54.8021 278.574C54.4568 278.831 54.1978 279.188 54.0251 279.645C53.8525 280.098 53.7661 280.62 53.7661 281.213C53.7661 281.796 53.8525 282.319 54.0251 282.781C54.1978 283.238 54.4591 283.598 54.8091 283.859C55.1591 284.12 55.6025 284.251 56.1391 284.251ZM64.3333 285.21C63.596 285.21 62.9566 285.047 62.4153 284.72C61.8786 284.393 61.461 283.934 61.1623 283.341C60.8636 282.748 60.7143 282.053 60.7143 281.255C60.7143 280.429 60.8613 279.715 61.1553 279.113C61.4493 278.511 61.8623 278.047 62.3943 277.72C62.931 277.393 63.5633 277.23 64.2913 277.23C65.038 277.23 65.675 277.403 66.2023 277.748C66.7296 278.089 67.1286 278.579 67.3993 279.218C67.67 279.857 67.7936 280.62 67.7703 281.507H66.7203V281.143C66.7016 280.163 66.4893 279.423 66.0833 278.924C65.682 278.425 65.094 278.175 64.3193 278.175C63.5073 278.175 62.8843 278.439 62.4503 278.966C62.021 279.493 61.8063 280.245 61.8063 281.22C61.8063 282.172 62.021 282.912 62.4503 283.439C62.8843 283.962 63.498 284.223 64.2913 284.223C64.8326 284.223 65.304 284.099 65.7053 283.852C66.1113 283.6 66.431 283.238 66.6643 282.767L67.6233 283.138C67.3246 283.796 66.8836 284.307 66.3003 284.671C65.7216 285.03 65.066 285.21 64.3333 285.21ZM61.4423 281.507V280.646H67.2173V281.507H61.4423ZM71.35 285.21C70.7807 285.21 70.3024 285.107 69.915 284.902C69.5324 284.697 69.2454 284.424 69.054 284.083C68.8627 283.742 68.767 283.371 68.767 282.97C68.767 282.559 68.8487 282.209 69.012 281.92C69.18 281.626 69.4064 281.386 69.691 281.199C69.9804 281.012 70.314 280.87 70.692 280.772C71.0747 280.679 71.497 280.597 71.959 280.527C72.4257 280.452 72.8807 280.389 73.324 280.338C73.772 280.282 74.164 280.228 74.5 280.177L74.136 280.401C74.15 279.654 74.0054 279.101 73.702 278.742C73.3987 278.383 72.8714 278.203 72.12 278.203C71.602 278.203 71.1634 278.32 70.804 278.553C70.4494 278.786 70.1997 279.155 70.055 279.659L69.054 279.365C69.2267 278.688 69.5744 278.163 70.097 277.79C70.6197 277.417 71.2987 277.23 72.134 277.23C72.8247 277.23 73.4104 277.361 73.891 277.622C74.3764 277.879 74.7194 278.252 74.92 278.742C75.0134 278.961 75.074 279.206 75.102 279.477C75.13 279.748 75.144 280.023 75.144 280.303V285H74.227V283.103L74.493 283.215C74.2364 283.864 73.8374 284.358 73.296 284.699C72.7547 285.04 72.106 285.21 71.35 285.21ZM71.469 284.321C71.9497 284.321 72.3697 284.235 72.729 284.062C73.0884 283.889 73.3777 283.654 73.597 283.355C73.8164 283.052 73.9587 282.711 74.024 282.333C74.08 282.09 74.1104 281.824 74.115 281.535C74.1197 281.241 74.122 281.022 74.122 280.877L74.514 281.08C74.164 281.127 73.7837 281.173 73.373 281.22C72.967 281.267 72.5657 281.32 72.169 281.381C71.777 281.442 71.4224 281.514 71.105 281.598C70.8904 281.659 70.6827 281.745 70.482 281.857C70.2814 281.964 70.1157 282.109 69.985 282.291C69.859 282.473 69.796 282.699 69.796 282.97C69.796 283.189 69.8497 283.402 69.957 283.607C70.069 283.812 70.2464 283.983 70.489 284.118C70.7364 284.253 71.063 284.321 71.469 284.321ZM76.4063 286.68V284.118C76.8357 284.118 77.1437 283.98 77.3303 283.705C77.517 283.425 77.6687 282.979 77.7853 282.368C77.8647 281.971 77.93 281.544 77.9813 281.087C78.0327 280.63 78.077 280.107 78.1143 279.519C78.1517 278.926 78.1867 278.233 78.2193 277.44H83.2173V284.118H83.9453V286.68H82.9513V285H77.3933V286.68H76.4063ZM78.1493 284.118H82.1953V278.322H79.1713C79.1573 278.677 79.1363 279.052 79.1083 279.449C79.085 279.846 79.0547 280.242 79.0173 280.639C78.9847 281.036 78.945 281.409 78.8983 281.759C78.8563 282.104 78.805 282.408 78.7443 282.669C78.6743 283.005 78.5973 283.292 78.5133 283.53C78.434 283.768 78.3127 283.964 78.1493 284.118ZM88.7422 285.21C88.0469 285.21 87.4589 285.035 86.9782 284.685C86.4975 284.33 86.1335 283.852 85.8862 283.25C85.6389 282.643 85.5152 281.964 85.5152 281.213C85.5152 280.448 85.6389 279.766 85.8862 279.169C86.1382 278.567 86.5069 278.093 86.9922 277.748C87.4775 277.403 88.0749 277.23 88.7842 277.23C89.4749 277.23 90.0675 277.405 90.5622 277.755C91.0569 278.105 91.4349 278.581 91.6962 279.183C91.9622 279.785 92.0952 280.462 92.0952 281.213C92.0952 281.969 91.9622 282.648 91.6962 283.25C91.4302 283.852 91.0475 284.33 90.5482 284.685C90.0489 285.035 89.4469 285.21 88.7422 285.21ZM85.3402 288.36V277.44H86.2642V283.131H86.3762V288.36H85.3402ZM88.6372 284.251C89.1645 284.251 89.6032 284.118 89.9532 283.852C90.3032 283.586 90.5645 283.224 90.7372 282.767C90.9145 282.305 91.0032 281.787 91.0032 281.213C91.0032 280.644 90.9169 280.13 90.7442 279.673C90.5715 279.216 90.3079 278.854 89.9532 278.588C89.6032 278.322 89.1575 278.189 88.6162 278.189C88.0889 278.189 87.6502 278.317 87.3002 278.574C86.9549 278.831 86.6959 279.188 86.5232 279.645C86.3505 280.098 86.2642 280.62 86.2642 281.213C86.2642 281.796 86.3505 282.319 86.5232 282.781C86.6959 283.238 86.9572 283.598 87.3072 283.859C87.6572 284.12 88.1005 284.251 88.6372 284.251ZM96.8313 285.21C96.094 285.21 95.4547 285.047 94.9133 284.72C94.3767 284.393 93.959 283.934 93.6603 283.341C93.3617 282.748 93.2123 282.053 93.2123 281.255C93.2123 280.429 93.3593 279.715 93.6533 279.113C93.9473 278.511 94.3603 278.047 94.8923 277.72C95.429 277.393 96.0613 277.23 96.7893 277.23C97.536 277.23 98.173 277.403 98.7003 277.748C99.2277 278.089 99.6267 278.579 99.8973 279.218C100.168 279.857 100.292 280.62 100.268 281.507H99.2183V281.143C99.1997 280.163 98.9873 279.423 98.5813 278.924C98.18 278.425 97.592 278.175 96.8173 278.175C96.0053 278.175 95.3823 278.439 94.9483 278.966C94.519 279.493 94.3043 280.245 94.3043 281.22C94.3043 282.172 94.519 282.912 94.9483 283.439C95.3823 283.962 95.996 284.223 96.7893 284.223C97.3307 284.223 97.802 284.099 98.2033 283.852C98.6093 283.6 98.929 283.238 99.1623 282.767L100.121 283.138C99.8227 283.796 99.3817 284.307 98.7983 284.671C98.2197 285.03 97.564 285.21 96.8313 285.21ZM93.9403 281.507V280.646H99.7153V281.507H93.9403ZM104.958 285.21C104.197 285.21 103.553 285.04 103.026 284.699C102.498 284.358 102.097 283.889 101.822 283.292C101.551 282.69 101.411 281.999 101.402 281.22C101.411 280.427 101.556 279.731 101.836 279.134C102.116 278.532 102.519 278.065 103.047 277.734C103.574 277.398 104.213 277.23 104.965 277.23C105.73 277.23 106.395 277.417 106.96 277.79C107.529 278.163 107.919 278.674 108.129 279.323L107.121 279.645C106.943 279.192 106.661 278.842 106.274 278.595C105.891 278.343 105.452 278.217 104.958 278.217C104.402 278.217 103.943 278.345 103.579 278.602C103.215 278.854 102.944 279.206 102.767 279.659C102.589 280.112 102.498 280.632 102.494 281.22C102.503 282.125 102.713 282.853 103.124 283.404C103.534 283.95 104.146 284.223 104.958 284.223C105.471 284.223 105.907 284.106 106.267 283.873C106.631 283.635 106.906 283.29 107.093 282.837L108.129 283.145C107.849 283.817 107.438 284.33 106.897 284.685C106.355 285.035 105.709 285.21 104.958 285.21ZM111.696 285.21C111.126 285.21 110.648 285.107 110.261 284.902C109.878 284.697 109.591 284.424 109.4 284.083C109.208 283.742 109.113 283.371 109.113 282.97C109.113 282.559 109.194 282.209 109.358 281.92C109.526 281.626 109.752 281.386 110.037 281.199C110.326 281.012 110.66 280.87 111.038 280.772C111.42 280.679 111.843 280.597 112.305 280.527C112.771 280.452 113.226 280.389 113.67 280.338C114.118 280.282 114.51 280.228 114.846 280.177L114.482 280.401C114.496 279.654 114.351 279.101 114.048 278.742C113.744 278.383 113.217 278.203 112.466 278.203C111.948 278.203 111.509 278.32 111.15 278.553C110.795 278.786 110.545 279.155 110.401 279.659L109.4 279.365C109.572 278.688 109.92 278.163 110.443 277.79C110.965 277.417 111.644 277.23 112.48 277.23C113.17 277.23 113.756 277.361 114.237 277.622C114.722 277.879 115.065 278.252 115.266 278.742C115.359 278.961 115.42 279.206 115.448 279.477C115.476 279.748 115.49 280.023 115.49 280.303V285H114.573V283.103L114.839 283.215C114.582 283.864 114.183 284.358 113.642 284.699C113.1 285.04 112.452 285.21 111.696 285.21ZM111.815 284.321C112.295 284.321 112.715 284.235 113.075 284.062C113.434 283.889 113.723 283.654 113.943 283.355C114.162 283.052 114.304 282.711 114.37 282.333C114.426 282.09 114.456 281.824 114.461 281.535C114.465 281.241 114.468 281.022 114.468 280.877L114.86 281.08C114.51 281.127 114.129 281.173 113.719 281.22C113.313 281.267 112.911 281.32 112.515 281.381C112.123 281.442 111.768 281.514 111.451 281.598C111.236 281.659 111.028 281.745 110.828 281.857C110.627 281.964 110.461 282.109 110.331 282.291C110.205 282.473 110.142 282.699 110.142 282.97C110.142 283.189 110.195 283.402 110.303 283.607C110.415 283.812 110.592 283.983 110.835 284.118C111.082 284.253 111.409 284.321 111.815 284.321ZM123.808 286.309V285H117.305V277.44H118.334V284.013H122.289V277.44H123.318V284.048H124.837V286.309H123.808ZM131.959 277.44V285H130.958V279.113L126.814 285H125.946V277.44H126.947V283.278L131.098 277.44H131.959ZM138.662 285V282.151H136.898C136.693 282.151 136.481 282.144 136.261 282.13C136.047 282.111 135.846 282.086 135.659 282.053C135.127 281.95 134.675 281.717 134.301 281.353C133.933 280.984 133.748 280.476 133.748 279.827C133.748 279.192 133.921 278.684 134.266 278.301C134.612 277.914 135.029 277.662 135.519 277.545C135.743 277.494 135.97 277.463 136.198 277.454C136.432 277.445 136.632 277.44 136.8 277.44H139.691L139.698 285H138.662ZM133.503 285L135.61 281.829H136.751L134.63 285H133.503ZM136.842 281.269H138.662V278.322H136.842C136.73 278.322 136.574 278.327 136.373 278.336C136.173 278.345 135.984 278.376 135.806 278.427C135.652 278.474 135.498 278.555 135.344 278.672C135.195 278.784 135.069 278.936 134.966 279.127C134.864 279.314 134.812 279.542 134.812 279.813C134.812 280.191 134.915 280.494 135.12 280.723C135.33 280.947 135.592 281.101 135.904 281.185C136.072 281.222 136.24 281.246 136.408 281.255C136.576 281.264 136.721 281.269 136.842 281.269Z" fill="#5E6B77"/>
</svg>
