<svg width="323" height="240" viewBox="0 0 323 240" fill="none" xmlns="http://www.w3.org/2000/svg">
<line x1="177.5" y1="92.5" x2="177.5" y2="35.5" stroke="#F88C28" stroke-linecap="round" stroke-dasharray="3 3"/>
<path d="M177.5 230L183 230M177.5 230L177.5 204.5M177.5 230L172 230M177.5 134L177.5 178.5M177.5 204.5L183 204.5M177.5 204.5L177.5 178.5M177.5 204.5L172 204.5M177.5 178.5L183 178.5M177.5 178.5L172 178.5" stroke="#9CA5AC" stroke-linecap="square"/>
<rect x="69.5" y="0.5" width="216" height="50" rx="3.5" fill="white"/>
<path d="M96.137 33.3C95.157 33.3 94.307 33.1567 93.587 32.87C92.8736 32.5833 92.287 32.2067 91.827 31.74C91.367 31.2667 91.0236 30.7567 90.797 30.21L92.137 29.43C92.297 29.8833 92.5503 30.2967 92.897 30.67C93.2436 31.0433 93.6903 31.34 94.237 31.56C94.7836 31.78 95.4336 31.89 96.187 31.89C96.967 31.89 97.627 31.7667 98.167 31.52C98.7136 31.2733 99.127 30.9267 99.407 30.48C99.687 30.0333 99.827 29.5133 99.827 28.92C99.827 28.2667 99.6703 27.76 99.357 27.4C99.0436 27.04 98.6236 26.7867 98.097 26.64C97.5703 26.4867 96.9836 26.4 96.337 26.38C95.8503 26.36 95.5036 26.3467 95.297 26.34C95.0903 26.3333 94.9536 26.33 94.887 26.33C94.8203 26.33 94.757 26.33 94.697 26.33V24.91C94.7436 24.91 94.867 24.91 95.067 24.91C95.267 24.91 95.4803 24.91 95.707 24.91C95.9336 24.9033 96.1136 24.8967 96.247 24.89C97.2003 24.8433 97.9503 24.5933 98.497 24.14C99.0436 23.6867 99.317 23.0733 99.317 22.3C99.317 21.48 99.027 20.8433 98.447 20.39C97.8736 19.9367 97.1303 19.71 96.217 19.71C95.357 19.71 94.6303 19.9167 94.037 20.33C93.4503 20.7367 92.9703 21.2833 92.597 21.97L91.397 21.08C91.8503 20.2667 92.4903 19.6 93.317 19.08C94.1436 18.56 95.1236 18.3 96.257 18.3C96.8636 18.3 97.4436 18.3833 97.997 18.55C98.557 18.7167 99.0503 18.9633 99.477 19.29C99.9103 19.6167 100.25 20.03 100.497 20.53C100.75 21.0233 100.877 21.6033 100.877 22.27C100.877 23.05 100.704 23.73 100.357 24.31C100.017 24.89 99.577 25.3267 99.037 25.62C99.7703 25.84 100.344 26.2267 100.757 26.78C101.177 27.3333 101.387 28.0567 101.387 28.95C101.387 29.83 101.17 30.5967 100.737 31.25C100.304 31.9033 99.6903 32.41 98.897 32.77C98.1103 33.1233 97.1903 33.3 96.137 33.3ZM103.451 33V22.2H107.901C108.127 22.2 108.401 22.2133 108.721 22.24C109.047 22.2667 109.351 22.3167 109.631 22.39C110.237 22.55 110.724 22.8767 111.091 23.37C111.464 23.8633 111.651 24.4567 111.651 25.15C111.651 25.5367 111.591 25.8833 111.471 26.19C111.357 26.49 111.194 26.75 110.981 26.97C110.881 27.0833 110.771 27.1833 110.651 27.27C110.531 27.35 110.414 27.4167 110.301 27.47C110.514 27.51 110.744 27.6033 110.991 27.75C111.377 27.9767 111.671 28.2833 111.871 28.67C112.071 29.05 112.171 29.5133 112.171 30.06C112.171 30.8 111.994 31.4033 111.641 31.87C111.287 32.3367 110.814 32.6567 110.221 32.83C109.954 32.9033 109.664 32.95 109.351 32.97C109.044 32.99 108.754 33 108.481 33H103.451ZM104.931 31.75H108.411C108.551 31.75 108.727 31.74 108.941 31.72C109.154 31.6933 109.344 31.66 109.511 31.62C109.904 31.52 110.191 31.32 110.371 31.02C110.557 30.7133 110.651 30.38 110.651 30.02C110.651 29.5467 110.511 29.16 110.231 28.86C109.957 28.5533 109.591 28.3667 109.131 28.3C108.977 28.2667 108.817 28.2467 108.651 28.24C108.484 28.2333 108.334 28.23 108.201 28.23H104.931V31.75ZM104.931 26.97H107.951C108.124 26.97 108.317 26.96 108.531 26.94C108.751 26.9133 108.941 26.87 109.101 26.81C109.447 26.69 109.701 26.4833 109.861 26.19C110.027 25.8967 110.111 25.5767 110.111 25.23C110.111 24.85 110.021 24.5167 109.841 24.23C109.667 23.9433 109.404 23.7433 109.051 23.63C108.811 23.5433 108.551 23.4933 108.271 23.48C107.997 23.4667 107.824 23.46 107.751 23.46H104.931V26.97ZM118.674 33.3C117.6 33.3 116.684 33.0567 115.924 32.57C115.164 32.0833 114.58 31.41 114.174 30.55C113.767 29.69 113.564 28.7033 113.564 27.59C113.564 26.4567 113.77 25.4633 114.184 24.61C114.597 23.7567 115.184 23.0933 115.944 22.62C116.71 22.14 117.62 21.9 118.674 21.9C119.754 21.9 120.674 22.1433 121.434 22.63C122.2 23.11 122.784 23.78 123.184 24.64C123.59 25.4933 123.794 26.4767 123.794 27.59C123.794 28.7233 123.59 29.72 123.184 30.58C122.777 31.4333 122.19 32.1 121.424 32.58C120.657 33.06 119.74 33.3 118.674 33.3ZM118.674 31.89C119.874 31.89 120.767 31.4933 121.354 30.7C121.94 29.9 122.234 28.8633 122.234 27.59C122.234 26.2833 121.937 25.2433 121.344 24.47C120.757 23.6967 119.867 23.31 118.674 23.31C117.867 23.31 117.2 23.4933 116.674 23.86C116.154 24.22 115.764 24.7233 115.504 25.37C115.25 26.01 115.124 26.75 115.124 27.59C115.124 28.89 115.424 29.9333 116.024 30.72C116.624 31.5 117.507 31.89 118.674 31.89ZM125.99 33V22.2H127.46V26.89H133.55V22.2H135.02V33H133.55V28.3H127.46V33H125.99ZM142.326 33.3C141.253 33.3 140.336 33.0567 139.576 32.57C138.816 32.0833 138.233 31.41 137.826 30.55C137.419 29.69 137.216 28.7033 137.216 27.59C137.216 26.4567 137.423 25.4633 137.836 24.61C138.249 23.7567 138.836 23.0933 139.596 22.62C140.363 22.14 141.273 21.9 142.326 21.9C143.406 21.9 144.326 22.1433 145.086 22.63C145.853 23.11 146.436 23.78 146.836 24.64C147.243 25.4933 147.446 26.4767 147.446 27.59C147.446 28.7233 147.243 29.72 146.836 30.58C146.429 31.4333 145.843 32.1 145.076 32.58C144.309 33.06 143.393 33.3 142.326 33.3ZM142.326 31.89C143.526 31.89 144.419 31.4933 145.006 30.7C145.593 29.9 145.886 28.8633 145.886 27.59C145.886 26.2833 145.589 25.2433 144.996 24.47C144.409 23.6967 143.519 23.31 142.326 23.31C141.519 23.31 140.853 23.4933 140.326 23.86C139.806 24.22 139.416 24.7233 139.156 25.37C138.903 26.01 138.776 26.75 138.776 27.59C138.776 28.89 139.076 29.9333 139.676 30.72C140.276 31.5 141.159 31.89 142.326 31.89ZM149.642 33L149.652 22.2H151.132V27.4L155.952 22.2H157.912L152.852 27.6L158.572 33H156.432L151.132 27.8V33H149.642ZM168.088 33.3C167.014 33.3 166.098 33.0567 165.338 32.57C164.578 32.0833 163.994 31.41 163.588 30.55C163.181 29.69 162.978 28.7033 162.978 27.59C162.978 26.4567 163.184 25.4633 163.598 24.61C164.011 23.7567 164.598 23.0933 165.358 22.62C166.124 22.14 167.034 21.9 168.088 21.9C169.168 21.9 170.088 22.1433 170.848 22.63C171.614 23.11 172.198 23.78 172.598 24.64C173.004 25.4933 173.208 26.4767 173.208 27.59C173.208 28.7233 173.004 29.72 172.598 30.58C172.191 31.4333 171.604 32.1 170.838 32.58C170.071 33.06 169.154 33.3 168.088 33.3ZM168.088 31.89C169.288 31.89 170.181 31.4933 170.768 30.7C171.354 29.9 171.648 28.8633 171.648 27.59C171.648 26.2833 171.351 25.2433 170.758 24.47C170.171 23.6967 169.281 23.31 168.088 23.31C167.281 23.31 166.614 23.4933 166.088 23.86C165.568 24.22 165.178 24.7233 164.918 25.37C164.664 26.01 164.538 26.75 164.538 27.59C164.538 28.89 164.838 29.9333 165.438 30.72C166.038 31.5 166.921 31.89 168.088 31.89ZM178.09 33V23.56H174.26V22.2H183.39V23.56H179.56V33H178.09ZM189.29 33L189.3 22.2H190.78V27.4L195.6 22.2H197.56L192.5 27.6L198.22 33H196.08L190.78 27.8V33H189.29ZM198.027 33V31.71C198.427 31.7833 198.73 31.7667 198.937 31.66C199.15 31.5467 199.307 31.36 199.407 31.1C199.507 30.8333 199.59 30.5033 199.657 30.11C199.764 29.4567 199.86 28.7367 199.947 27.95C200.034 27.1633 200.11 26.2967 200.177 25.35C200.25 24.3967 200.324 23.3467 200.397 22.2H207.737V33H206.277V23.61H201.757C201.71 24.3167 201.657 25.02 201.597 25.72C201.537 26.42 201.474 27.0933 201.407 27.74C201.347 28.38 201.28 28.97 201.207 29.51C201.134 30.05 201.057 30.5167 200.977 30.91C200.857 31.5033 200.697 31.9767 200.497 32.33C200.304 32.6833 200.014 32.9167 199.627 33.03C199.24 33.1433 198.707 33.1333 198.027 33ZM219.111 22.2V33H217.681V24.59L211.761 33H210.521V22.2H211.951V30.54L217.881 22.2H219.111ZM226.488 33.3C225.434 33.3 224.521 33.0667 223.748 32.6C222.981 32.1333 222.384 31.4767 221.958 30.63C221.531 29.7833 221.318 28.79 221.318 27.65C221.318 26.47 221.528 25.45 221.948 24.59C222.368 23.73 222.958 23.0667 223.718 22.6C224.484 22.1333 225.388 21.9 226.428 21.9C227.494 21.9 228.404 22.1467 229.158 22.64C229.911 23.1267 230.481 23.8267 230.868 24.74C231.254 25.6533 231.431 26.7433 231.398 28.01H229.898V27.49C229.871 26.09 229.568 25.0333 228.988 24.32C228.414 23.6067 227.574 23.25 226.468 23.25C225.308 23.25 224.418 23.6267 223.798 24.38C223.184 25.1333 222.878 26.2067 222.878 27.6C222.878 28.96 223.184 30.0167 223.798 30.77C224.418 31.5167 225.294 31.89 226.428 31.89C227.201 31.89 227.874 31.7133 228.448 31.36C229.028 31 229.484 30.4833 229.818 29.81L231.188 30.34C230.761 31.28 230.131 32.01 229.298 32.53C228.471 33.0433 227.534 33.3 226.488 33.3ZM222.358 28.01V26.78H230.608V28.01H222.358ZM233.607 33V22.2H235.077V26.89H241.167V22.2H242.637V33H241.167V28.3H235.077V33H233.607ZM248.363 33V23.56H244.533V22.2H253.663V23.56H249.833V33H248.363ZM258.25 33.3C257.436 33.3 256.753 33.1533 256.2 32.86C255.653 32.5667 255.243 32.1767 254.97 31.69C254.696 31.2033 254.56 30.6733 254.56 30.1C254.56 29.5133 254.676 29.0133 254.91 28.6C255.15 28.18 255.473 27.8367 255.88 27.57C256.293 27.3033 256.77 27.1 257.31 26.96C257.856 26.8267 258.46 26.71 259.12 26.61C259.786 26.5033 260.436 26.4133 261.07 26.34C261.71 26.26 262.27 26.1833 262.75 26.11L262.23 26.43C262.25 25.3633 262.043 24.5733 261.61 24.06C261.176 23.5467 260.423 23.29 259.35 23.29C258.61 23.29 257.983 23.4567 257.47 23.79C256.963 24.1233 256.606 24.65 256.4 25.37L254.97 24.95C255.216 23.9833 255.713 23.2333 256.46 22.7C257.206 22.1667 258.176 21.9 259.37 21.9C260.356 21.9 261.193 22.0867 261.88 22.46C262.573 22.8267 263.063 23.36 263.35 24.06C263.483 24.3733 263.57 24.7233 263.61 25.11C263.65 25.4967 263.67 25.89 263.67 26.29V33H262.36V30.29L262.74 30.45C262.373 31.3767 261.803 32.0833 261.03 32.57C260.256 33.0567 259.33 33.3 258.25 33.3ZM258.42 32.03C259.106 32.03 259.706 31.9067 260.22 31.66C260.733 31.4133 261.146 31.0767 261.46 30.65C261.773 30.2167 261.976 29.73 262.07 29.19C262.15 28.8433 262.193 28.4633 262.2 28.05C262.206 27.63 262.21 27.3167 262.21 27.11L262.77 27.4C262.27 27.4667 261.726 27.5333 261.14 27.6C260.56 27.6667 259.986 27.7433 259.42 27.83C258.86 27.9167 258.353 28.02 257.9 28.14C257.593 28.2267 257.296 28.35 257.01 28.51C256.723 28.6633 256.486 28.87 256.3 29.13C256.12 29.39 256.03 29.7133 256.03 30.1C256.03 30.4133 256.106 30.7167 256.26 31.01C256.42 31.3033 256.673 31.5467 257.02 31.74C257.373 31.9333 257.84 32.03 258.42 32.03Z" fill="#344351"/>
<rect x="69.5" y="0.5" width="216" height="50" rx="3.5" stroke="#344351"/>
<rect x="69.5" y="83.5" width="216" height="50" rx="3.5" fill="white"/>
<path d="M95.3941 116V101.6H96.7441L102.404 113.71L108.034 101.6H109.404V115.99H108.004V104.88L102.874 116H101.924L96.8041 104.88V116H95.3941ZM116.721 116.3C115.647 116.3 114.731 116.057 113.971 115.57C113.211 115.083 112.627 114.41 112.221 113.55C111.814 112.69 111.611 111.703 111.611 110.59C111.611 109.457 111.817 108.463 112.231 107.61C112.644 106.757 113.231 106.093 113.991 105.62C114.757 105.14 115.667 104.9 116.721 104.9C117.801 104.9 118.721 105.143 119.481 105.63C120.247 106.11 120.831 106.78 121.231 107.64C121.637 108.493 121.841 109.477 121.841 110.59C121.841 111.723 121.637 112.72 121.231 113.58C120.824 114.433 120.237 115.1 119.471 115.58C118.704 116.06 117.787 116.3 116.721 116.3ZM116.721 114.89C117.921 114.89 118.814 114.493 119.401 113.7C119.987 112.9 120.281 111.863 120.281 110.59C120.281 109.283 119.984 108.243 119.391 107.47C118.804 106.697 117.914 106.31 116.721 106.31C115.914 106.31 115.247 106.493 114.721 106.86C114.201 107.22 113.811 107.723 113.551 108.37C113.297 109.01 113.171 109.75 113.171 110.59C113.171 111.89 113.471 112.933 114.071 113.72C114.671 114.5 115.554 114.89 116.721 114.89ZM128.376 116.31C127.37 116.303 126.506 116.083 125.786 115.65C125.066 115.217 124.506 114.57 124.106 113.71C123.713 112.85 123.5 111.777 123.466 110.49C123.446 109.923 123.46 109.307 123.506 108.64C123.553 107.967 123.626 107.327 123.726 106.72C123.826 106.113 123.946 105.62 124.086 105.24C124.26 104.747 124.506 104.287 124.826 103.86C125.153 103.427 125.53 103.073 125.956 102.8C126.37 102.52 126.836 102.303 127.356 102.15C127.883 101.99 128.43 101.867 128.996 101.78C129.57 101.693 130.136 101.617 130.696 101.55C131.263 101.483 131.786 101.4 132.266 101.3L132.426 102.63C132.06 102.703 131.626 102.77 131.126 102.83C130.626 102.89 130.103 102.963 129.556 103.05C129.01 103.13 128.486 103.24 127.986 103.38C127.486 103.52 127.06 103.703 126.706 103.93C126.166 104.257 125.75 104.75 125.456 105.41C125.17 106.07 124.993 106.827 124.926 107.68C125.34 107.033 125.886 106.547 126.566 106.22C127.253 105.893 127.996 105.73 128.796 105.73C129.77 105.73 130.606 105.953 131.306 106.4C132.013 106.847 132.556 107.467 132.936 108.26C133.316 109.053 133.506 109.963 133.506 110.99C133.506 112.063 133.296 113 132.876 113.8C132.463 114.6 131.873 115.22 131.106 115.66C130.34 116.093 129.43 116.31 128.376 116.31ZM128.486 114.9C129.62 114.9 130.48 114.547 131.066 113.84C131.66 113.133 131.956 112.193 131.956 111.02C131.956 109.82 131.65 108.873 131.036 108.18C130.43 107.487 129.573 107.14 128.466 107.14C127.36 107.14 126.51 107.487 125.916 108.18C125.323 108.873 125.026 109.82 125.026 111.02C125.026 112.22 125.323 113.167 125.916 113.86C126.51 114.553 127.366 114.9 128.486 114.9ZM144.287 105.2V116H142.857V107.59L136.937 116H135.697V105.2H137.127V113.54L143.057 105.2H144.287ZM146.093 116V114.71C146.493 114.783 146.797 114.767 147.003 114.66C147.217 114.547 147.373 114.36 147.473 114.1C147.573 113.833 147.657 113.503 147.723 113.11C147.83 112.457 147.927 111.737 148.013 110.95C148.1 110.163 148.177 109.297 148.243 108.35C148.317 107.397 148.39 106.347 148.463 105.2H155.803V116H154.343V106.61H149.823C149.777 107.317 149.723 108.02 149.663 108.72C149.603 109.42 149.54 110.093 149.473 110.74C149.413 111.38 149.347 111.97 149.273 112.51C149.2 113.05 149.123 113.517 149.043 113.91C148.923 114.503 148.763 114.977 148.563 115.33C148.37 115.683 148.08 115.917 147.693 116.03C147.307 116.143 146.773 116.133 146.093 116ZM158.607 116L158.587 105.2H160.067V109.27H162.597C162.911 109.27 163.217 109.277 163.517 109.29C163.824 109.303 164.094 109.33 164.327 109.37C164.861 109.47 165.334 109.647 165.747 109.9C166.167 110.153 166.494 110.503 166.727 110.95C166.967 111.397 167.087 111.957 167.087 112.63C167.087 113.557 166.847 114.287 166.367 114.82C165.894 115.353 165.294 115.7 164.567 115.86C164.294 115.92 163.997 115.96 163.677 115.98C163.357 115.993 163.041 116 162.727 116H158.607ZM160.067 114.74H162.667C162.894 114.74 163.147 114.733 163.427 114.72C163.707 114.707 163.954 114.67 164.167 114.61C164.521 114.51 164.841 114.31 165.127 114.01C165.421 113.703 165.567 113.243 165.567 112.63C165.567 112.023 165.427 111.567 165.147 111.26C164.867 110.947 164.494 110.74 164.027 110.64C163.821 110.593 163.597 110.563 163.357 110.55C163.117 110.537 162.887 110.53 162.667 110.53H160.067V114.74ZM168.978 116V105.2H170.448V109.89H176.538V105.2H178.008V116H176.538V111.3H170.448V116H168.978ZM189.384 105.2V116H187.954V107.59L182.034 116H180.794V105.2H182.224V113.54L188.154 105.2H189.384ZM192.181 116L192.191 105.2H193.671V110.4L198.491 105.2H200.451L195.391 110.6L201.111 116H198.971L193.671 110.8V116H192.181ZM210.597 116.3C209.51 116.3 208.59 116.057 207.837 115.57C207.083 115.083 206.51 114.413 206.117 113.56C205.73 112.7 205.53 111.713 205.517 110.6C205.53 109.467 205.737 108.473 206.137 107.62C206.537 106.76 207.113 106.093 207.867 105.62C208.62 105.14 209.533 104.9 210.607 104.9C211.7 104.9 212.65 105.167 213.457 105.7C214.27 106.233 214.827 106.963 215.127 107.89L213.687 108.35C213.433 107.703 213.03 107.203 212.477 106.85C211.93 106.49 211.303 106.31 210.597 106.31C209.803 106.31 209.147 106.493 208.627 106.86C208.107 107.22 207.72 107.723 207.467 108.37C207.213 109.017 207.083 109.76 207.077 110.6C207.09 111.893 207.39 112.933 207.977 113.72C208.563 114.5 209.437 114.89 210.597 114.89C211.33 114.89 211.953 114.723 212.467 114.39C212.987 114.05 213.38 113.557 213.647 112.91L215.127 113.35C214.727 114.31 214.14 115.043 213.367 115.55C212.593 116.05 211.67 116.3 210.597 116.3ZM221.195 116V101.6H229.465V103.07H222.665V108.07H228.265V109.53H222.665V116H221.195ZM231.273 116V101.6H232.623L238.283 113.71L243.913 101.6H245.283V115.99H243.883V104.88L238.753 116H237.803L232.683 104.88V116H231.273ZM253.919 116.3C252.486 116.3 251.276 115.983 250.289 115.35C249.303 114.71 248.556 113.827 248.049 112.7C247.543 111.573 247.289 110.273 247.289 108.8C247.289 107.327 247.543 106.027 248.049 104.9C248.556 103.773 249.303 102.893 250.289 102.26C251.276 101.62 252.486 101.3 253.919 101.3C255.593 101.3 256.959 101.73 258.019 102.59C259.079 103.443 259.806 104.59 260.199 106.03L258.699 106.42C258.393 105.28 257.843 104.377 257.049 103.71C256.256 103.043 255.213 102.71 253.919 102.71C252.793 102.71 251.856 102.967 251.109 103.48C250.363 103.993 249.799 104.71 249.419 105.63C249.046 106.543 248.853 107.6 248.839 108.8C248.833 110 249.016 111.057 249.389 111.97C249.769 112.883 250.336 113.6 251.089 114.12C251.849 114.633 252.793 114.89 253.919 114.89C255.213 114.89 256.256 114.557 257.049 113.89C257.843 113.217 258.393 112.313 258.699 111.18L260.199 111.57C259.806 113.01 259.079 114.16 258.019 115.02C256.959 115.873 255.593 116.3 253.919 116.3Z" fill="#344351"/>
<rect x="69.5" y="83.5" width="216" height="50" rx="3.5" stroke="#344351"/>
<path d="M52.2378 182.5V172.42H58.5378V173.407H53.2668V182.5H52.2378ZM61.6975 182.71C60.9462 182.71 60.3045 182.54 59.7725 182.199C59.2405 181.858 58.8322 181.387 58.5475 180.785C58.2629 180.183 58.1205 179.492 58.1205 178.713C58.1205 177.92 58.2652 177.224 58.5545 176.627C58.8439 176.03 59.2545 175.565 59.7865 175.234C60.3232 174.898 60.9602 174.73 61.6975 174.73C62.4535 174.73 63.0975 174.9 63.6295 175.241C64.1662 175.577 64.5745 176.046 64.8545 176.648C65.1392 177.245 65.2815 177.934 65.2815 178.713C65.2815 179.506 65.1392 180.204 64.8545 180.806C64.5699 181.403 64.1592 181.87 63.6225 182.206C63.0859 182.542 62.4442 182.71 61.6975 182.71ZM61.6975 181.723C62.5375 181.723 63.1629 181.445 63.5735 180.89C63.9842 180.33 64.1895 179.604 64.1895 178.713C64.1895 177.798 63.9819 177.07 63.5665 176.529C63.1559 175.988 62.5329 175.717 61.6975 175.717C61.1329 175.717 60.6662 175.845 60.2975 176.102C59.9335 176.354 59.6605 176.706 59.4785 177.159C59.3012 177.607 59.2125 178.125 59.2125 178.713C59.2125 179.623 59.4225 180.353 59.8425 180.904C60.2625 181.45 60.8809 181.723 61.6975 181.723ZM66.1257 182.5V181.597C66.4057 181.648 66.618 181.637 66.7627 181.562C66.912 181.483 67.0217 181.352 67.0917 181.17C67.1617 180.983 67.22 180.752 67.2667 180.477C67.3414 180.02 67.409 179.516 67.4697 178.965C67.5304 178.414 67.584 177.808 67.6307 177.145C67.682 176.478 67.7334 175.743 67.7847 174.94H72.9227V182.5H71.9007V175.927H68.7367C68.704 176.422 68.6667 176.914 68.6247 177.404C68.5827 177.894 68.5384 178.365 68.4917 178.818C68.4497 179.266 68.403 179.679 68.3517 180.057C68.3004 180.435 68.2467 180.762 68.1907 181.037C68.1067 181.452 67.9947 181.784 67.8547 182.031C67.7194 182.278 67.5164 182.442 67.2457 182.521C66.975 182.6 66.6017 182.593 66.1257 182.5ZM78.0354 182.71C77.2841 182.71 76.6424 182.54 76.1104 182.199C75.5784 181.858 75.1701 181.387 74.8854 180.785C74.6008 180.183 74.4584 179.492 74.4584 178.713C74.4584 177.92 74.6031 177.224 74.8924 176.627C75.1818 176.03 75.5924 175.565 76.1244 175.234C76.6611 174.898 77.2981 174.73 78.0354 174.73C78.7914 174.73 79.4354 174.9 79.9674 175.241C80.5041 175.577 80.9124 176.046 81.1924 176.648C81.4771 177.245 81.6194 177.934 81.6194 178.713C81.6194 179.506 81.4771 180.204 81.1924 180.806C80.9078 181.403 80.4971 181.87 79.9604 182.206C79.4238 182.542 78.7821 182.71 78.0354 182.71ZM78.0354 181.723C78.8754 181.723 79.5008 181.445 79.9114 180.89C80.3221 180.33 80.5274 179.604 80.5274 178.713C80.5274 177.798 80.3198 177.07 79.9044 176.529C79.4938 175.988 78.8708 175.717 78.0354 175.717C77.4708 175.717 77.0041 175.845 76.6354 176.102C76.2714 176.354 75.9984 176.706 75.8164 177.159C75.6391 177.607 75.5504 178.125 75.5504 178.713C75.5504 179.623 75.7604 180.353 76.1804 180.904C76.6004 181.45 77.2188 181.723 78.0354 181.723ZM86.2996 182.71C85.5389 182.71 84.8949 182.54 84.3676 182.199C83.8403 181.858 83.4389 181.389 83.1636 180.792C82.8929 180.19 82.7529 179.499 82.7436 178.72C82.7529 177.927 82.8976 177.231 83.1776 176.634C83.4576 176.032 83.8613 175.565 84.3886 175.234C84.9159 174.898 85.5553 174.73 86.3066 174.73C87.0719 174.73 87.7369 174.917 88.3016 175.29C88.8709 175.663 89.2606 176.174 89.4706 176.823L88.4626 177.145C88.2853 176.692 88.0029 176.342 87.6156 176.095C87.2329 175.843 86.7943 175.717 86.2996 175.717C85.7443 175.717 85.2846 175.845 84.9206 176.102C84.5566 176.354 84.2859 176.706 84.1086 177.159C83.9313 177.612 83.8403 178.132 83.8356 178.72C83.8449 179.625 84.0549 180.353 84.4656 180.904C84.8763 181.45 85.4876 181.723 86.2996 181.723C86.8129 181.723 87.2493 181.606 87.6086 181.373C87.9726 181.135 88.2479 180.79 88.4346 180.337L89.4706 180.645C89.1906 181.317 88.7799 181.83 88.2386 182.185C87.6973 182.535 87.0509 182.71 86.2996 182.71ZM93.8675 182.71C93.1161 182.71 92.4745 182.54 91.9425 182.199C91.4105 181.858 91.0021 181.387 90.7175 180.785C90.4328 180.183 90.2905 179.492 90.2905 178.713C90.2905 177.92 90.4351 177.224 90.7245 176.627C91.0138 176.03 91.4245 175.565 91.9565 175.234C92.4931 174.898 93.1301 174.73 93.8675 174.73C94.6235 174.73 95.2675 174.9 95.7995 175.241C96.3361 175.577 96.7445 176.046 97.0245 176.648C97.3091 177.245 97.4515 177.934 97.4515 178.713C97.4515 179.506 97.3091 180.204 97.0245 180.806C96.7398 181.403 96.3291 181.87 95.7925 182.206C95.2558 182.542 94.6141 182.71 93.8675 182.71ZM93.8675 181.723C94.7075 181.723 95.3328 181.445 95.7435 180.89C96.1541 180.33 96.3595 179.604 96.3595 178.713C96.3595 177.798 96.1518 177.07 95.7365 176.529C95.3258 175.988 94.7028 175.717 93.8675 175.717C93.3028 175.717 92.8361 175.845 92.4675 176.102C92.1035 176.354 91.8305 176.706 91.6485 177.159C91.4711 177.607 91.3825 178.125 91.3825 178.713C91.3825 179.623 91.5925 180.353 92.0125 180.904C92.4325 181.45 93.0508 181.723 93.8675 181.723ZM98.9886 182.5V174.94H102.104C102.262 174.94 102.454 174.949 102.678 174.968C102.906 174.987 103.119 175.022 103.315 175.073C103.739 175.185 104.08 175.414 104.337 175.759C104.598 176.104 104.729 176.52 104.729 177.005C104.729 177.276 104.687 177.518 104.603 177.733C104.523 177.943 104.409 178.125 104.26 178.279C104.19 178.358 104.113 178.428 104.029 178.489C103.945 178.545 103.863 178.592 103.784 178.629C103.933 178.657 104.094 178.722 104.267 178.825C104.537 178.984 104.743 179.198 104.883 179.469C105.023 179.735 105.093 180.059 105.093 180.442C105.093 180.96 104.969 181.382 104.722 181.709C104.474 182.036 104.143 182.26 103.728 182.381C103.541 182.432 103.338 182.465 103.119 182.479C102.904 182.493 102.701 182.5 102.51 182.5H98.9886ZM100.025 181.625H102.461C102.559 181.625 102.682 181.618 102.832 181.604C102.981 181.585 103.114 181.562 103.231 181.534C103.506 181.464 103.707 181.324 103.833 181.114C103.963 180.899 104.029 180.666 104.029 180.414C104.029 180.083 103.931 179.812 103.735 179.602C103.543 179.387 103.287 179.257 102.965 179.21C102.857 179.187 102.745 179.173 102.629 179.168C102.512 179.163 102.407 179.161 102.314 179.161H100.025V181.625ZM100.025 178.279H102.139C102.26 178.279 102.395 178.272 102.545 178.258C102.699 178.239 102.832 178.209 102.944 178.167C103.186 178.083 103.364 177.938 103.476 177.733C103.592 177.528 103.651 177.304 103.651 177.061C103.651 176.795 103.588 176.562 103.462 176.361C103.34 176.16 103.156 176.02 102.909 175.941C102.741 175.88 102.559 175.845 102.363 175.836C102.171 175.827 102.05 175.822 101.999 175.822H100.025V178.279ZM109.645 182.71C108.893 182.71 108.252 182.54 107.72 182.199C107.188 181.858 106.779 181.387 106.495 180.785C106.21 180.183 106.068 179.492 106.068 178.713C106.068 177.92 106.212 177.224 106.502 176.627C106.791 176.03 107.202 175.565 107.734 175.234C108.27 174.898 108.907 174.73 109.645 174.73C110.401 174.73 111.045 174.9 111.577 175.241C112.113 175.577 112.522 176.046 112.802 176.648C113.086 177.245 113.229 177.934 113.229 178.713C113.229 179.506 113.086 180.204 112.802 180.806C112.517 181.403 112.106 181.87 111.57 182.206C111.033 182.542 110.391 182.71 109.645 182.71ZM109.645 181.723C110.485 181.723 111.11 181.445 111.521 180.89C111.931 180.33 112.137 179.604 112.137 178.713C112.137 177.798 111.929 177.07 111.514 176.529C111.103 175.988 110.48 175.717 109.645 175.717C109.08 175.717 108.613 175.845 108.245 176.102C107.881 176.354 107.608 176.706 107.426 177.159C107.248 177.607 107.16 178.125 107.16 178.713C107.16 179.623 107.37 180.353 107.79 180.904C108.21 181.45 108.828 181.723 109.645 181.723ZM117.972 182.71C117.235 182.71 116.595 182.547 116.054 182.22C115.517 181.893 115.1 181.434 114.801 180.841C114.502 180.248 114.353 179.553 114.353 178.755C114.353 177.929 114.5 177.215 114.794 176.613C115.088 176.011 115.501 175.547 116.033 175.22C116.57 174.893 117.202 174.73 117.93 174.73C118.677 174.73 119.314 174.903 119.841 175.248C120.368 175.589 120.767 176.079 121.038 176.718C121.309 177.357 121.432 178.12 121.409 179.007H120.359V178.643C120.34 177.663 120.128 176.923 119.722 176.424C119.321 175.925 118.733 175.675 117.958 175.675C117.146 175.675 116.523 175.939 116.089 176.466C115.66 176.993 115.445 177.745 115.445 178.72C115.445 179.672 115.66 180.412 116.089 180.939C116.523 181.462 117.137 181.723 117.93 181.723C118.471 181.723 118.943 181.599 119.344 181.352C119.75 181.1 120.07 180.738 120.303 180.267L121.262 180.638C120.963 181.296 120.522 181.807 119.939 182.171C119.36 182.53 118.705 182.71 117.972 182.71ZM115.081 179.007V178.146H120.856V179.007H115.081ZM125.758 182.5V174.94H126.675L129.622 181.128L132.576 174.94H133.486V182.5H132.492V177.138L129.951 182.5H129.3L126.759 177.138V182.5H125.758ZM138.644 182.71C137.907 182.71 137.267 182.547 136.726 182.22C136.189 181.893 135.772 181.434 135.473 180.841C135.174 180.248 135.025 179.553 135.025 178.755C135.025 177.929 135.172 177.215 135.466 176.613C135.76 176.011 136.173 175.547 136.705 175.22C137.242 174.893 137.874 174.73 138.602 174.73C139.349 174.73 139.986 174.903 140.513 175.248C141.04 175.589 141.439 176.079 141.71 176.718C141.981 177.357 142.104 178.12 142.081 179.007H141.031V178.643C141.012 177.663 140.8 176.923 140.394 176.424C139.993 175.925 139.405 175.675 138.63 175.675C137.818 175.675 137.195 175.939 136.761 176.466C136.332 176.993 136.117 177.745 136.117 178.72C136.117 179.672 136.332 180.412 136.761 180.939C137.195 181.462 137.809 181.723 138.602 181.723C139.143 181.723 139.615 181.599 140.016 181.352C140.422 181.1 140.742 180.738 140.975 180.267L141.934 180.638C141.635 181.296 141.194 181.807 140.611 182.171C140.032 182.53 139.377 182.71 138.644 182.71ZM135.753 179.007V178.146H141.528V179.007H135.753ZM143.627 182.5V174.94H144.656V178.223H148.919V174.94H149.948V182.5H148.919V179.21H144.656V182.5H143.627ZM157.856 182.71C157.188 182.71 156.607 182.568 156.113 182.283C155.618 181.994 155.224 181.59 154.93 181.072C154.64 180.549 154.465 179.936 154.405 179.231H152.928V182.5H151.899V174.94H152.928V178.209H154.398C154.458 177.495 154.636 176.879 154.93 176.361C155.228 175.838 155.625 175.437 156.12 175.157C156.619 174.872 157.2 174.73 157.863 174.73C158.614 174.73 159.256 174.9 159.788 175.241C160.324 175.582 160.733 176.051 161.013 176.648C161.297 177.245 161.44 177.931 161.44 178.706C161.44 179.499 161.295 180.197 161.006 180.799C160.721 181.401 160.31 181.87 159.774 182.206C159.242 182.542 158.602 182.71 157.856 182.71ZM157.835 181.723C158.684 181.723 159.314 181.448 159.725 180.897C160.14 180.342 160.348 179.614 160.348 178.713C160.348 177.794 160.138 177.066 159.718 176.529C159.302 175.988 158.677 175.717 157.842 175.717C157.044 175.717 156.432 175.983 156.008 176.515C155.583 177.042 155.371 177.773 155.371 178.706C155.371 179.621 155.578 180.353 155.994 180.904C156.414 181.45 157.027 181.723 157.835 181.723Z" fill="#5E6B77"/>
<path d="M201.603 182.5H200.567V174.233L195.016 182.5H193.98V172.42H195.016V180.68L200.567 172.42H201.603V182.5ZM203.557 182.5V174.94H204.586V178.223H208.849V174.94H209.878V182.5H208.849V179.21H204.586V182.5H203.557ZM213.886 182.5V175.892H211.205V174.94H217.596V175.892H214.915V182.5H213.886ZM222.13 182.71C221.393 182.71 220.754 182.547 220.212 182.22C219.676 181.893 219.258 181.434 218.959 180.841C218.661 180.248 218.511 179.553 218.511 178.755C218.511 177.929 218.658 177.215 218.952 176.613C219.246 176.011 219.659 175.547 220.191 175.22C220.728 174.893 221.36 174.73 222.088 174.73C222.835 174.73 223.472 174.903 223.999 175.248C224.527 175.589 224.926 176.079 225.196 176.718C225.467 177.357 225.591 178.12 225.567 179.007H224.517V178.643C224.499 177.663 224.286 176.923 223.88 176.424C223.479 175.925 222.891 175.675 222.116 175.675C221.304 175.675 220.681 175.939 220.247 176.466C219.818 176.993 219.603 177.745 219.603 178.72C219.603 179.672 219.818 180.412 220.247 180.939C220.681 181.462 221.295 181.723 222.088 181.723C222.63 181.723 223.101 181.599 223.502 181.352C223.908 181.1 224.228 180.738 224.461 180.267L225.42 180.638C225.122 181.296 224.681 181.807 224.097 182.171C223.519 182.53 222.863 182.71 222.13 182.71ZM219.239 179.007V178.146H225.014V179.007H219.239ZM227.121 182.5V174.94H232.301V175.927H228.15V182.5H227.121ZM237.023 182.71C236.328 182.71 235.74 182.535 235.259 182.185C234.779 181.83 234.415 181.352 234.167 180.75C233.92 180.143 233.796 179.464 233.796 178.713C233.796 177.948 233.92 177.266 234.167 176.669C234.419 176.067 234.788 175.593 235.273 175.248C235.759 174.903 236.356 174.73 237.065 174.73C237.756 174.73 238.349 174.905 238.843 175.255C239.338 175.605 239.716 176.081 239.977 176.683C240.243 177.285 240.376 177.962 240.376 178.713C240.376 179.469 240.243 180.148 239.977 180.75C239.711 181.352 239.329 181.83 238.829 182.185C238.33 182.535 237.728 182.71 237.023 182.71ZM233.621 185.86V174.94H234.545V180.631H234.657V185.86H233.621ZM236.918 181.751C237.446 181.751 237.884 181.618 238.234 181.352C238.584 181.086 238.846 180.724 239.018 180.267C239.196 179.805 239.284 179.287 239.284 178.713C239.284 178.144 239.198 177.63 239.025 177.173C238.853 176.716 238.589 176.354 238.234 176.088C237.884 175.822 237.439 175.689 236.897 175.689C236.37 175.689 235.931 175.817 235.581 176.074C235.236 176.331 234.977 176.688 234.804 177.145C234.632 177.598 234.545 178.12 234.545 178.713C234.545 179.296 234.632 179.819 234.804 180.281C234.977 180.738 235.238 181.098 235.588 181.359C235.938 181.62 236.382 181.751 236.918 181.751ZM244.077 182.71C243.507 182.71 243.029 182.607 242.642 182.402C242.259 182.197 241.972 181.924 241.781 181.583C241.589 181.242 241.494 180.871 241.494 180.47C241.494 180.059 241.575 179.709 241.739 179.42C241.907 179.126 242.133 178.886 242.418 178.699C242.707 178.512 243.041 178.37 243.419 178.272C243.801 178.179 244.224 178.097 244.686 178.027C245.152 177.952 245.607 177.889 246.051 177.838C246.499 177.782 246.891 177.728 247.227 177.677L246.863 177.901C246.877 177.154 246.732 176.601 246.429 176.242C246.125 175.883 245.598 175.703 244.847 175.703C244.329 175.703 243.89 175.82 243.531 176.053C243.176 176.286 242.926 176.655 242.782 177.159L241.781 176.865C241.953 176.188 242.301 175.663 242.824 175.29C243.346 174.917 244.025 174.73 244.861 174.73C245.551 174.73 246.137 174.861 246.618 175.122C247.103 175.379 247.446 175.752 247.647 176.242C247.74 176.461 247.801 176.706 247.829 176.977C247.857 177.248 247.871 177.523 247.871 177.803V182.5H246.954V180.603L247.22 180.715C246.963 181.364 246.564 181.858 246.023 182.199C245.481 182.54 244.833 182.71 244.077 182.71ZM244.196 181.821C244.676 181.821 245.096 181.735 245.456 181.562C245.815 181.389 246.104 181.154 246.324 180.855C246.543 180.552 246.685 180.211 246.751 179.833C246.807 179.59 246.837 179.324 246.842 179.035C246.846 178.741 246.849 178.522 246.849 178.377L247.241 178.58C246.891 178.627 246.51 178.673 246.1 178.72C245.694 178.767 245.292 178.82 244.896 178.881C244.504 178.942 244.149 179.014 243.832 179.098C243.617 179.159 243.409 179.245 243.209 179.357C243.008 179.464 242.842 179.609 242.712 179.791C242.586 179.973 242.523 180.199 242.523 180.47C242.523 180.689 242.576 180.902 242.684 181.107C242.796 181.312 242.973 181.483 243.216 181.618C243.463 181.753 243.79 181.821 244.196 181.821ZM256.189 183.809V182.5H249.686V174.94H250.715V181.513H254.67V174.94H255.699V181.548H257.218V183.809H256.189ZM264.34 174.94V182.5H263.339V176.613L259.195 182.5H258.327V174.94H259.328V180.778L263.479 174.94H264.34ZM271.043 182.5V179.651H269.279C269.074 179.651 268.862 179.644 268.642 179.63C268.428 179.611 268.227 179.586 268.04 179.553C267.508 179.45 267.056 179.217 266.682 178.853C266.314 178.484 266.129 177.976 266.129 177.327C266.129 176.692 266.302 176.184 266.647 175.801C266.993 175.414 267.41 175.162 267.9 175.045C268.124 174.994 268.351 174.963 268.579 174.954C268.813 174.945 269.013 174.94 269.181 174.94H272.072L272.079 182.5H271.043ZM265.884 182.5L267.991 179.329H269.132L267.011 182.5H265.884ZM269.223 178.769H271.043V175.822H269.223C269.111 175.822 268.955 175.827 268.754 175.836C268.554 175.845 268.365 175.876 268.187 175.927C268.033 175.974 267.879 176.055 267.725 176.172C267.576 176.284 267.45 176.436 267.347 176.627C267.245 176.814 267.193 177.042 267.193 177.313C267.193 177.691 267.296 177.994 267.501 178.223C267.711 178.447 267.973 178.601 268.285 178.685C268.453 178.722 268.621 178.746 268.789 178.755C268.957 178.764 269.102 178.769 269.223 178.769ZM279.981 182.71C279.221 182.71 278.577 182.54 278.049 182.199C277.522 181.858 277.121 181.389 276.845 180.792C276.575 180.19 276.435 179.499 276.425 178.72C276.435 177.927 276.579 177.231 276.859 176.634C277.139 176.032 277.543 175.565 278.07 175.234C278.598 174.898 279.237 174.73 279.988 174.73C280.754 174.73 281.419 174.917 281.983 175.29C282.553 175.663 282.942 176.174 283.152 176.823L282.144 177.145C281.967 176.692 281.685 176.342 281.297 176.095C280.915 175.843 280.476 175.717 279.981 175.717C279.426 175.717 278.966 175.845 278.602 176.102C278.238 176.354 277.968 176.706 277.79 177.159C277.613 177.612 277.522 178.132 277.517 178.72C277.527 179.625 277.737 180.353 278.147 180.904C278.558 181.45 279.169 181.723 279.981 181.723C280.495 181.723 280.931 181.606 281.29 181.373C281.654 181.135 281.93 180.79 282.116 180.337L283.152 180.645C282.872 181.317 282.462 181.83 281.92 182.185C281.379 182.535 280.733 182.71 279.981 182.71ZM291.481 182.71C290.478 182.71 289.631 182.488 288.94 182.045C288.249 181.597 287.727 180.979 287.372 180.19C287.017 179.401 286.84 178.491 286.84 177.46C286.84 176.429 287.017 175.519 287.372 174.73C287.727 173.941 288.249 173.325 288.94 172.882C289.631 172.434 290.478 172.21 291.481 172.21C292.652 172.21 293.609 172.511 294.351 173.113C295.093 173.71 295.602 174.513 295.877 175.521L294.827 175.794C294.612 174.996 294.227 174.364 293.672 173.897C293.117 173.43 292.386 173.197 291.481 173.197C290.692 173.197 290.037 173.377 289.514 173.736C288.991 174.095 288.597 174.597 288.331 175.241C288.07 175.88 287.934 176.62 287.925 177.46C287.92 178.3 288.049 179.04 288.31 179.679C288.576 180.318 288.973 180.82 289.5 181.184C290.032 181.543 290.692 181.723 291.481 181.723C292.386 181.723 293.117 181.49 293.672 181.023C294.227 180.552 294.612 179.919 294.827 179.126L295.877 179.399C295.602 180.407 295.093 181.212 294.351 181.814C293.609 182.411 292.652 182.71 291.481 182.71ZM297.421 182.5V172.42H301.313C301.411 172.42 301.521 172.425 301.642 172.434C301.768 172.439 301.894 172.453 302.02 172.476C302.548 172.555 302.993 172.74 303.357 173.029C303.726 173.314 304.004 173.673 304.19 174.107C304.382 174.541 304.477 175.022 304.477 175.549C304.477 176.31 304.277 176.97 303.875 177.53C303.474 178.09 302.9 178.442 302.153 178.587L301.796 178.671H298.45V182.5H297.421ZM303.525 182.5L301.537 178.398L302.524 178.02L304.708 182.5H303.525ZM298.45 177.691H301.285C301.369 177.691 301.467 177.686 301.579 177.677C301.691 177.668 301.801 177.651 301.908 177.628C302.254 177.553 302.536 177.411 302.755 177.201C302.979 176.991 303.145 176.741 303.252 176.452C303.364 176.163 303.42 175.862 303.42 175.549C303.42 175.236 303.364 174.935 303.252 174.646C303.145 174.352 302.979 174.1 302.755 173.89C302.536 173.68 302.254 173.538 301.908 173.463C301.801 173.44 301.691 173.426 301.579 173.421C301.467 173.412 301.369 173.407 301.285 173.407H298.45V177.691ZM306.253 182.5V172.42H307.198L311.16 180.897L315.101 172.42H316.06V182.493H315.08V174.716L311.489 182.5H310.824L307.24 174.716V182.5H306.253Z" fill="#5E6B77"/>
<path d="M37.9511 208.71C37.2651 208.71 36.6701 208.61 36.1661 208.409C35.6668 208.208 35.2561 207.945 34.9341 207.618C34.6121 207.287 34.3718 206.93 34.2131 206.547L35.1511 206.001C35.2631 206.318 35.4405 206.608 35.6831 206.869C35.9258 207.13 36.2385 207.338 36.6211 207.492C37.0038 207.646 37.4588 207.723 37.9861 207.723C38.5321 207.723 38.9941 207.637 39.3721 207.464C39.7548 207.291 40.0441 207.049 40.2401 206.736C40.4361 206.423 40.5341 206.059 40.5341 205.644C40.5341 205.187 40.4245 204.832 40.2051 204.58C39.9858 204.328 39.6918 204.151 39.3231 204.048C38.9545 203.941 38.5438 203.88 38.0911 203.866C37.7505 203.852 37.5078 203.843 37.3631 203.838C37.2185 203.833 37.1228 203.831 37.0761 203.831C37.0295 203.831 36.9851 203.831 36.9431 203.831V202.837C36.9758 202.837 37.0621 202.837 37.2021 202.837C37.3421 202.837 37.4915 202.837 37.6501 202.837C37.8088 202.832 37.9348 202.828 38.0281 202.823C38.6955 202.79 39.2205 202.615 39.6031 202.298C39.9858 201.981 40.1771 201.551 40.1771 201.01C40.1771 200.436 39.9741 199.99 39.5681 199.673C39.1668 199.356 38.6465 199.197 38.0071 199.197C37.4051 199.197 36.8965 199.342 36.4811 199.631C36.0705 199.916 35.7345 200.298 35.4731 200.779L34.6331 200.156C34.9505 199.587 35.3985 199.12 35.9771 198.756C36.5558 198.392 37.2418 198.21 38.0351 198.21C38.4598 198.21 38.8658 198.268 39.2531 198.385C39.6451 198.502 39.9905 198.674 40.2891 198.903C40.5925 199.132 40.8305 199.421 41.0031 199.771C41.1805 200.116 41.2691 200.522 41.2691 200.989C41.2691 201.535 41.1478 202.011 40.9051 202.417C40.6671 202.823 40.3591 203.129 39.9811 203.334C40.4945 203.488 40.8958 203.759 41.1851 204.146C41.4791 204.533 41.6261 205.04 41.6261 205.665C41.6261 206.281 41.4745 206.818 41.1711 207.275C40.8678 207.732 40.4385 208.087 39.8831 208.339C39.3325 208.586 38.6885 208.71 37.9511 208.71ZM45.2407 208.71C44.6713 208.71 44.193 208.607 43.8057 208.402C43.423 208.197 43.136 207.924 42.9447 207.583C42.7533 207.242 42.6577 206.871 42.6577 206.47C42.6577 206.059 42.7393 205.709 42.9027 205.42C43.0707 205.126 43.297 204.886 43.5817 204.699C43.871 204.512 44.2047 204.37 44.5827 204.272C44.9653 204.179 45.3877 204.097 45.8497 204.027C46.3163 203.952 46.7713 203.889 47.2147 203.838C47.6627 203.782 48.0547 203.728 48.3907 203.677L48.0267 203.901C48.0407 203.154 47.896 202.601 47.5927 202.242C47.2893 201.883 46.762 201.703 46.0107 201.703C45.4927 201.703 45.054 201.82 44.6947 202.053C44.34 202.286 44.0903 202.655 43.9457 203.159L42.9447 202.865C43.1173 202.188 43.465 201.663 43.9877 201.29C44.5103 200.917 45.1893 200.73 46.0247 200.73C46.7153 200.73 47.301 200.861 47.7817 201.122C48.267 201.379 48.61 201.752 48.8107 202.242C48.904 202.461 48.9647 202.706 48.9927 202.977C49.0207 203.248 49.0347 203.523 49.0347 203.803V208.5H48.1177V206.603L48.3837 206.715C48.127 207.364 47.728 207.858 47.1867 208.199C46.6453 208.54 45.9967 208.71 45.2407 208.71ZM45.3597 207.821C45.8403 207.821 46.2603 207.735 46.6197 207.562C46.979 207.389 47.2683 207.154 47.4877 206.855C47.707 206.552 47.8493 206.211 47.9147 205.833C47.9707 205.59 48.001 205.324 48.0057 205.035C48.0103 204.741 48.0127 204.522 48.0127 204.377L48.4047 204.58C48.0547 204.627 47.6743 204.673 47.2637 204.72C46.8577 204.767 46.4563 204.82 46.0597 204.881C45.6677 204.942 45.313 205.014 44.9957 205.098C44.781 205.159 44.5733 205.245 44.3727 205.357C44.172 205.464 44.0063 205.609 43.8757 205.791C43.7497 205.973 43.6867 206.199 43.6867 206.47C43.6867 206.689 43.7403 206.902 43.8477 207.107C43.9597 207.312 44.137 207.483 44.3797 207.618C44.627 207.753 44.9537 207.821 45.3597 207.821ZM50.85 208.5V200.94H56.863V208.5H55.834V201.927H51.879V208.5H50.85ZM64.8337 200.94V208.5H63.8327V202.613L59.6887 208.5H58.8207V200.94H59.8217V206.778L63.9727 200.94H64.8337ZM69.9344 208.71C69.1737 208.71 68.5297 208.54 68.0024 208.199C67.475 207.858 67.0737 207.389 66.7984 206.792C66.5277 206.19 66.3877 205.499 66.3784 204.72C66.3877 203.927 66.5324 203.231 66.8124 202.634C67.0924 202.032 67.496 201.565 68.0234 201.234C68.5507 200.898 69.19 200.73 69.9414 200.73C70.7067 200.73 71.3717 200.917 71.9364 201.29C72.5057 201.663 72.8954 202.174 73.1054 202.823L72.0974 203.145C71.92 202.692 71.6377 202.342 71.2504 202.095C70.8677 201.843 70.429 201.717 69.9344 201.717C69.379 201.717 68.9194 201.845 68.5554 202.102C68.1914 202.354 67.9207 202.706 67.7434 203.159C67.566 203.612 67.475 204.132 67.4704 204.72C67.4797 205.625 67.6897 206.353 68.1004 206.904C68.511 207.45 69.1224 207.723 69.9344 207.723C70.4477 207.723 70.884 207.606 71.2434 207.373C71.6074 207.135 71.8827 206.79 72.0694 206.337L73.1054 206.645C72.8254 207.317 72.4147 207.83 71.8734 208.185C71.332 208.535 70.6857 208.71 69.9344 208.71ZM80.5563 200.94V208.5H79.5553V202.613L75.4113 208.5H74.5433V200.94H75.5443V206.778L79.6953 200.94H80.5563ZM88.7188 208.71C88.0234 208.71 87.4354 208.535 86.9548 208.185C86.4741 207.83 86.1101 207.352 85.8628 206.75C85.6154 206.143 85.4918 205.464 85.4918 204.713C85.4918 203.948 85.6154 203.266 85.8628 202.669C86.1148 202.067 86.4834 201.593 86.9688 201.248C87.4541 200.903 88.0514 200.73 88.7608 200.73C89.4514 200.73 90.0441 200.905 90.5388 201.255C91.0334 201.605 91.4114 202.081 91.6728 202.683C91.9388 203.285 92.0718 203.962 92.0718 204.713C92.0718 205.469 91.9388 206.148 91.6728 206.75C91.4068 207.352 91.0241 207.83 90.5248 208.185C90.0254 208.535 89.4234 208.71 88.7188 208.71ZM85.3168 211.86V200.94H86.2408V206.631H86.3528V211.86H85.3168ZM88.6138 207.751C89.1411 207.751 89.5798 207.618 89.9298 207.352C90.2798 207.086 90.5411 206.724 90.7138 206.267C90.8911 205.805 90.9798 205.287 90.9798 204.713C90.9798 204.144 90.8934 203.63 90.7208 203.173C90.5481 202.716 90.2844 202.354 89.9298 202.088C89.5798 201.822 89.1341 201.689 88.5928 201.689C88.0654 201.689 87.6268 201.817 87.2768 202.074C86.9314 202.331 86.6724 202.688 86.4998 203.145C86.3271 203.598 86.2408 204.12 86.2408 204.713C86.2408 205.296 86.3271 205.819 86.4998 206.281C86.6724 206.738 86.9338 207.098 87.2838 207.359C87.6338 207.62 88.0771 207.751 88.6138 207.751ZM95.7719 208.71C95.2026 208.71 94.7242 208.607 94.3369 208.402C93.9542 208.197 93.6672 207.924 93.4759 207.583C93.2846 207.242 93.1889 206.871 93.1889 206.47C93.1889 206.059 93.2706 205.709 93.4339 205.42C93.6019 205.126 93.8282 204.886 94.1129 204.699C94.4022 204.512 94.7359 204.37 95.1139 204.272C95.4966 204.179 95.9189 204.097 96.3809 204.027C96.8476 203.952 97.3026 203.889 97.7459 203.838C98.1939 203.782 98.5859 203.728 98.9219 203.677L98.5579 203.901C98.5719 203.154 98.4272 202.601 98.1239 202.242C97.8206 201.883 97.2932 201.703 96.5419 201.703C96.0239 201.703 95.5852 201.82 95.2259 202.053C94.8712 202.286 94.6216 202.655 94.4769 203.159L93.4759 202.865C93.6486 202.188 93.9962 201.663 94.5189 201.29C95.0416 200.917 95.7206 200.73 96.5559 200.73C97.2466 200.73 97.8322 200.861 98.3129 201.122C98.7982 201.379 99.1412 201.752 99.3419 202.242C99.4352 202.461 99.4959 202.706 99.5239 202.977C99.5519 203.248 99.5659 203.523 99.5659 203.803V208.5H98.6489V206.603L98.9149 206.715C98.6582 207.364 98.2592 207.858 97.7179 208.199C97.1766 208.54 96.5279 208.71 95.7719 208.71ZM95.8909 207.821C96.3716 207.821 96.7916 207.735 97.1509 207.562C97.5102 207.389 97.7996 207.154 98.0189 206.855C98.2382 206.552 98.3806 206.211 98.4459 205.833C98.5019 205.59 98.5322 205.324 98.5369 205.035C98.5416 204.741 98.5439 204.522 98.5439 204.377L98.9359 204.58C98.5859 204.627 98.2056 204.673 97.7949 204.72C97.3889 204.767 96.9876 204.82 96.5909 204.881C96.1989 204.942 95.8442 205.014 95.5269 205.098C95.3122 205.159 95.1046 205.245 94.9039 205.357C94.7032 205.464 94.5376 205.609 94.4069 205.791C94.2809 205.973 94.2179 206.199 94.2179 206.47C94.2179 206.689 94.2716 206.902 94.3789 207.107C94.4909 207.312 94.6682 207.483 94.9109 207.618C95.1582 207.753 95.4849 207.821 95.8909 207.821ZM104.111 208.71C103.351 208.71 102.686 208.544 102.116 208.213C101.552 207.877 101.106 207.413 100.779 206.82L101.605 206.295C101.881 206.762 102.224 207.116 102.634 207.359C103.045 207.602 103.516 207.723 104.048 207.723C104.604 207.723 105.049 207.595 105.385 207.338C105.721 207.081 105.889 206.729 105.889 206.281C105.889 205.973 105.817 205.728 105.672 205.546C105.532 205.364 105.318 205.233 105.028 205.154C104.744 205.075 104.387 205.035 103.957 205.035H103.061V204.153H103.943C104.466 204.153 104.886 204.06 105.203 203.873C105.525 203.682 105.686 203.383 105.686 202.977C105.686 202.548 105.525 202.23 105.203 202.025C104.886 201.815 104.506 201.71 104.062 201.71C103.614 201.71 103.19 201.803 102.788 201.99C102.392 202.172 102.058 202.408 101.787 202.697L101.129 202.004C101.507 201.589 101.948 201.274 102.452 201.059C102.961 200.84 103.523 200.73 104.139 200.73C104.625 200.73 105.063 200.816 105.455 200.989C105.852 201.157 106.165 201.404 106.393 201.731C106.627 202.058 106.743 202.45 106.743 202.907C106.743 203.336 106.638 203.707 106.428 204.02C106.223 204.333 105.931 204.592 105.553 204.797L105.497 204.412C105.824 204.473 106.095 204.603 106.309 204.804C106.524 205.005 106.683 205.245 106.785 205.525C106.888 205.805 106.939 206.09 106.939 206.379C106.939 206.86 106.813 207.275 106.561 207.625C106.314 207.97 105.976 208.239 105.546 208.43C105.122 208.617 104.643 208.71 104.111 208.71ZM108.484 208.5V200.94H113.664V201.927H109.513V208.5H108.484ZM118.012 208.71C117.261 208.71 116.619 208.54 116.087 208.199C115.555 207.858 115.147 207.387 114.862 206.785C114.577 206.183 114.435 205.492 114.435 204.713C114.435 203.92 114.58 203.224 114.869 202.627C115.158 202.03 115.569 201.565 116.101 201.234C116.638 200.898 117.275 200.73 118.012 200.73C118.768 200.73 119.412 200.9 119.944 201.241C120.481 201.577 120.889 202.046 121.169 202.648C121.454 203.245 121.596 203.934 121.596 204.713C121.596 205.506 121.454 206.204 121.169 206.806C120.884 207.403 120.474 207.87 119.937 208.206C119.4 208.542 118.759 208.71 118.012 208.71ZM118.012 207.723C118.852 207.723 119.477 207.445 119.888 206.89C120.299 206.33 120.504 205.604 120.504 204.713C120.504 203.798 120.296 203.07 119.881 202.529C119.47 201.988 118.847 201.717 118.012 201.717C117.447 201.717 116.981 201.845 116.612 202.102C116.248 202.354 115.975 202.706 115.793 203.159C115.616 203.607 115.527 204.125 115.527 204.713C115.527 205.623 115.737 206.353 116.157 206.904C116.577 207.45 117.195 207.723 118.012 207.723ZM123.133 208.5V200.94H126.248C126.407 200.94 126.598 200.949 126.822 200.968C127.051 200.987 127.263 201.022 127.459 201.073C127.884 201.185 128.224 201.414 128.481 201.759C128.742 202.104 128.873 202.52 128.873 203.005C128.873 203.276 128.831 203.518 128.747 203.733C128.668 203.943 128.553 204.125 128.404 204.279C128.334 204.358 128.257 204.428 128.173 204.489C128.089 204.545 128.007 204.592 127.928 204.629C128.077 204.657 128.238 204.722 128.411 204.825C128.682 204.984 128.887 205.198 129.027 205.469C129.167 205.735 129.237 206.059 129.237 206.442C129.237 206.96 129.113 207.382 128.866 207.709C128.619 208.036 128.287 208.26 127.872 208.381C127.685 208.432 127.482 208.465 127.263 208.479C127.048 208.493 126.845 208.5 126.654 208.5H123.133ZM124.169 207.625H126.605C126.703 207.625 126.827 207.618 126.976 207.604C127.125 207.585 127.258 207.562 127.375 207.534C127.65 207.464 127.851 207.324 127.977 207.114C128.108 206.899 128.173 206.666 128.173 206.414C128.173 206.083 128.075 205.812 127.879 205.602C127.688 205.387 127.431 205.257 127.109 205.21C127.002 205.187 126.89 205.173 126.773 205.168C126.656 205.163 126.551 205.161 126.458 205.161H124.169V207.625ZM124.169 204.279H126.283C126.404 204.279 126.54 204.272 126.689 204.258C126.843 204.239 126.976 204.209 127.088 204.167C127.331 204.083 127.508 203.938 127.62 203.733C127.737 203.528 127.795 203.304 127.795 203.061C127.795 202.795 127.732 202.562 127.606 202.361C127.485 202.16 127.3 202.02 127.053 201.941C126.885 201.88 126.703 201.845 126.507 201.836C126.316 201.827 126.194 201.822 126.143 201.822H124.169V204.279ZM133.789 208.71C133.038 208.71 132.396 208.54 131.864 208.199C131.332 207.858 130.924 207.387 130.639 206.785C130.355 206.183 130.212 205.492 130.212 204.713C130.212 203.92 130.357 203.224 130.646 202.627C130.936 202.03 131.346 201.565 131.878 201.234C132.415 200.898 133.052 200.73 133.789 200.73C134.545 200.73 135.189 200.9 135.721 201.241C136.258 201.577 136.666 202.046 136.946 202.648C137.231 203.245 137.373 203.934 137.373 204.713C137.373 205.506 137.231 206.204 136.946 206.806C136.662 207.403 136.251 207.87 135.714 208.206C135.178 208.542 134.536 208.71 133.789 208.71ZM133.789 207.723C134.629 207.723 135.255 207.445 135.665 206.89C136.076 206.33 136.281 205.604 136.281 204.713C136.281 203.798 136.074 203.07 135.658 202.529C135.248 201.988 134.625 201.717 133.789 201.717C133.225 201.717 132.758 201.845 132.389 202.102C132.025 202.354 131.752 202.706 131.57 203.159C131.393 203.607 131.304 204.125 131.304 204.713C131.304 205.623 131.514 206.353 131.934 206.904C132.354 207.45 132.973 207.723 133.789 207.723ZM142.312 208.71C141.617 208.71 141.029 208.535 140.549 208.185C140.068 207.83 139.704 207.352 139.457 206.75C139.209 206.143 139.086 205.464 139.086 204.713C139.086 203.948 139.209 203.266 139.457 202.669C139.709 202.067 140.077 201.593 140.563 201.248C141.048 200.903 141.645 200.73 142.355 200.73C143.045 200.73 143.638 200.905 144.133 201.255C144.627 201.605 145.005 202.081 145.267 202.683C145.533 203.285 145.666 203.962 145.666 204.713C145.666 205.469 145.533 206.148 145.267 206.75C145.001 207.352 144.618 207.83 144.119 208.185C143.619 208.535 143.017 208.71 142.312 208.71ZM138.911 211.86V200.94H139.835V206.631H139.947V211.86H138.911ZM142.208 207.751C142.735 207.751 143.174 207.618 143.524 207.352C143.874 207.086 144.135 206.724 144.308 206.267C144.485 205.805 144.574 205.287 144.574 204.713C144.574 204.144 144.487 203.63 144.315 203.173C144.142 202.716 143.878 202.354 143.524 202.088C143.174 201.822 142.728 201.689 142.187 201.689C141.659 201.689 141.221 201.817 140.871 202.074C140.525 202.331 140.266 202.688 140.094 203.145C139.921 203.598 139.835 204.12 139.835 204.713C139.835 205.296 139.921 205.819 140.094 206.281C140.266 206.738 140.528 207.098 140.878 207.359C141.228 207.62 141.671 207.751 142.208 207.751ZM150.36 208.71C149.608 208.71 148.967 208.54 148.435 208.199C147.903 207.858 147.494 207.387 147.21 206.785C146.925 206.183 146.783 205.492 146.783 204.713C146.783 203.92 146.927 203.224 147.217 202.627C147.506 202.03 147.917 201.565 148.449 201.234C148.985 200.898 149.622 200.73 150.36 200.73C151.116 200.73 151.76 200.9 152.292 201.241C152.828 201.577 153.237 202.046 153.517 202.648C153.801 203.245 153.944 203.934 153.944 204.713C153.944 205.506 153.801 206.204 153.517 206.806C153.232 207.403 152.821 207.87 152.285 208.206C151.748 208.542 151.106 208.71 150.36 208.71ZM150.36 207.723C151.2 207.723 151.825 207.445 152.236 206.89C152.646 206.33 152.852 205.604 152.852 204.713C152.852 203.798 152.644 203.07 152.229 202.529C151.818 201.988 151.195 201.717 150.36 201.717C149.795 201.717 149.328 201.845 148.96 202.102C148.596 202.354 148.323 202.706 148.141 203.159C147.963 203.607 147.875 204.125 147.875 204.713C147.875 205.623 148.085 206.353 148.505 206.904C148.925 207.45 149.543 207.723 150.36 207.723ZM155.481 208.5V200.94H158.596C158.754 200.94 158.946 200.949 159.17 200.968C159.398 200.987 159.611 201.022 159.807 201.073C160.231 201.185 160.572 201.414 160.829 201.759C161.09 202.104 161.221 202.52 161.221 203.005C161.221 203.276 161.179 203.518 161.095 203.733C161.015 203.943 160.901 204.125 160.752 204.279C160.682 204.358 160.605 204.428 160.521 204.489C160.437 204.545 160.355 204.592 160.276 204.629C160.425 204.657 160.586 204.722 160.759 204.825C161.029 204.984 161.235 205.198 161.375 205.469C161.515 205.735 161.585 206.059 161.585 206.442C161.585 206.96 161.461 207.382 161.214 207.709C160.966 208.036 160.635 208.26 160.22 208.381C160.033 208.432 159.83 208.465 159.611 208.479C159.396 208.493 159.193 208.5 159.002 208.5H155.481ZM156.517 207.625H158.953C159.051 207.625 159.174 207.618 159.324 207.604C159.473 207.585 159.606 207.562 159.723 207.534C159.998 207.464 160.199 207.324 160.325 207.114C160.455 206.899 160.521 206.666 160.521 206.414C160.521 206.083 160.423 205.812 160.227 205.602C160.035 205.387 159.779 205.257 159.457 205.21C159.349 205.187 159.237 205.173 159.121 205.168C159.004 205.163 158.899 205.161 158.806 205.161H156.517V207.625ZM156.517 204.279H158.631C158.752 204.279 158.887 204.272 159.037 204.258C159.191 204.239 159.324 204.209 159.436 204.167C159.678 204.083 159.856 203.938 159.968 203.733C160.084 203.528 160.143 203.304 160.143 203.061C160.143 202.795 160.08 202.562 159.954 202.361C159.832 202.16 159.648 202.02 159.401 201.941C159.233 201.88 159.051 201.845 158.855 201.836C158.663 201.827 158.542 201.822 158.491 201.822H156.517V204.279Z" fill="#5E6B77"/>
<path d="M193.98 208.5V198.42H197.872C198.437 198.42 198.929 198.537 199.349 198.77C199.769 199.003 200.096 199.318 200.329 199.715C200.562 200.107 200.679 200.541 200.679 201.017C200.679 201.558 200.534 202.041 200.245 202.466C199.956 202.886 199.568 203.178 199.083 203.341L199.069 202.998C199.722 203.185 200.236 203.511 200.609 203.978C200.982 204.445 201.169 205.009 201.169 205.672C201.169 206.255 201.045 206.759 200.798 207.184C200.551 207.604 200.203 207.928 199.755 208.157C199.307 208.386 198.787 208.5 198.194 208.5H193.98ZM195.016 207.513H197.942C198.353 207.513 198.721 207.441 199.048 207.296C199.375 207.147 199.631 206.937 199.818 206.666C200.009 206.395 200.105 206.069 200.105 205.686C200.105 205.313 200.019 204.977 199.846 204.678C199.673 204.379 199.438 204.141 199.139 203.964C198.845 203.782 198.509 203.691 198.131 203.691H195.016V207.513ZM195.016 202.718H197.865C198.187 202.718 198.481 202.646 198.747 202.501C199.013 202.352 199.223 202.149 199.377 201.892C199.536 201.635 199.615 201.339 199.615 201.003C199.615 200.527 199.449 200.14 199.118 199.841C198.791 199.542 198.374 199.393 197.865 199.393H195.016V202.718ZM202.559 208.5V200.94H203.588V204.223H207.851V200.94H208.88V208.5H207.851V205.21H203.588V208.5H202.559ZM211.915 211.86L213.378 207.891L213.399 209.067L210.088 200.94H211.18L213.896 207.737H213.448L215.954 200.94H217.004L212.944 211.86H211.915ZM220.271 208.5V201.892H217.59V200.94H223.981V201.892H221.3V208.5H220.271ZM228.711 208.71C228.016 208.71 227.428 208.535 226.947 208.185C226.466 207.83 226.102 207.352 225.855 206.75C225.608 206.143 225.484 205.464 225.484 204.713C225.484 203.948 225.608 203.266 225.855 202.669C226.107 202.067 226.476 201.593 226.961 201.248C227.446 200.903 228.044 200.73 228.753 200.73C229.444 200.73 230.036 200.905 230.531 201.255C231.026 201.605 231.404 202.081 231.665 202.683C231.931 203.285 232.064 203.962 232.064 204.713C232.064 205.469 231.931 206.148 231.665 206.75C231.399 207.352 231.016 207.83 230.517 208.185C230.018 208.535 229.416 208.71 228.711 208.71ZM225.309 211.86V200.94H226.233V206.631H226.345V211.86H225.309ZM228.606 207.751C229.133 207.751 229.572 207.618 229.922 207.352C230.272 207.086 230.533 206.724 230.706 206.267C230.883 205.805 230.972 205.287 230.972 204.713C230.972 204.144 230.886 203.63 230.713 203.173C230.54 202.716 230.277 202.354 229.922 202.088C229.572 201.822 229.126 201.689 228.585 201.689C228.058 201.689 227.619 201.817 227.269 202.074C226.924 202.331 226.665 202.688 226.492 203.145C226.319 203.598 226.233 204.12 226.233 204.713C226.233 205.296 226.319 205.819 226.492 206.281C226.665 206.738 226.926 207.098 227.276 207.359C227.626 207.62 228.069 207.751 228.606 207.751ZM236.8 208.71C236.063 208.71 235.423 208.547 234.882 208.22C234.345 207.893 233.928 207.434 233.629 206.841C233.33 206.248 233.181 205.553 233.181 204.755C233.181 203.929 233.328 203.215 233.622 202.613C233.916 202.011 234.329 201.547 234.861 201.22C235.398 200.893 236.03 200.73 236.758 200.73C237.505 200.73 238.142 200.903 238.669 201.248C239.196 201.589 239.595 202.079 239.866 202.718C240.137 203.357 240.26 204.12 240.237 205.007H239.187V204.643C239.168 203.663 238.956 202.923 238.55 202.424C238.149 201.925 237.561 201.675 236.786 201.675C235.974 201.675 235.351 201.939 234.917 202.466C234.488 202.993 234.273 203.745 234.273 204.72C234.273 205.672 234.488 206.412 234.917 206.939C235.351 207.462 235.965 207.723 236.758 207.723C237.299 207.723 237.771 207.599 238.172 207.352C238.578 207.1 238.898 206.738 239.131 206.267L240.09 206.638C239.791 207.296 239.35 207.807 238.767 208.171C238.188 208.53 237.533 208.71 236.8 208.71ZM233.909 205.007V204.146H239.684V205.007H233.909ZM241.784 208.5V200.94H242.813V204.223H247.076V200.94H248.105V208.5H247.076V205.21H242.813V208.5H241.784ZM250.055 208.5V200.94H251.084V204.223H255.347V200.94H256.376V208.5H255.347V205.21H251.084V208.5H250.055ZM264.34 200.94V208.5H263.339V202.613L259.195 208.5H258.327V200.94H259.328V206.778L263.479 200.94H264.34ZM269.503 208.71C268.766 208.71 268.127 208.547 267.585 208.22C267.049 207.893 266.631 207.434 266.332 206.841C266.034 206.248 265.884 205.553 265.884 204.755C265.884 203.929 266.031 203.215 266.325 202.613C266.619 202.011 267.032 201.547 267.564 201.22C268.101 200.893 268.733 200.73 269.461 200.73C270.208 200.73 270.845 200.903 271.372 201.248C271.9 201.589 272.299 202.079 272.569 202.718C272.84 203.357 272.964 204.12 272.94 205.007H271.89V204.643C271.872 203.663 271.659 202.923 271.253 202.424C270.852 201.925 270.264 201.675 269.489 201.675C268.677 201.675 268.054 201.939 267.62 202.466C267.191 202.993 266.976 203.745 266.976 204.72C266.976 205.672 267.191 206.412 267.62 206.939C268.054 207.462 268.668 207.723 269.461 207.723C270.003 207.723 270.474 207.599 270.875 207.352C271.281 207.1 271.601 206.738 271.834 206.267L272.793 206.638C272.495 207.296 272.054 207.807 271.47 208.171C270.892 208.53 270.236 208.71 269.503 208.71ZM266.612 205.007V204.146H272.387V205.007H266.612ZM280.019 208.71C279.259 208.71 278.594 208.544 278.024 208.213C277.46 207.877 277.014 207.413 276.687 206.82L277.513 206.295C277.789 206.762 278.132 207.116 278.542 207.359C278.953 207.602 279.424 207.723 279.956 207.723C280.512 207.723 280.957 207.595 281.293 207.338C281.629 207.081 281.797 206.729 281.797 206.281C281.797 205.973 281.725 205.728 281.58 205.546C281.44 205.364 281.226 205.233 280.936 205.154C280.652 205.075 280.295 205.035 279.865 205.035H278.969V204.153H279.851C280.374 204.153 280.794 204.06 281.111 203.873C281.433 203.682 281.594 203.383 281.594 202.977C281.594 202.548 281.433 202.23 281.111 202.025C280.794 201.815 280.414 201.71 279.97 201.71C279.522 201.71 279.098 201.803 278.696 201.99C278.3 202.172 277.966 202.408 277.695 202.697L277.037 202.004C277.415 201.589 277.856 201.274 278.36 201.059C278.869 200.84 279.431 200.73 280.047 200.73C280.533 200.73 280.971 200.816 281.363 200.989C281.76 201.157 282.073 201.404 282.301 201.731C282.535 202.058 282.651 202.45 282.651 202.907C282.651 203.336 282.546 203.707 282.336 204.02C282.131 204.333 281.839 204.592 281.461 204.797L281.405 204.412C281.732 204.473 282.003 204.603 282.217 204.804C282.432 205.005 282.591 205.245 282.693 205.525C282.796 205.805 282.847 206.09 282.847 206.379C282.847 206.86 282.721 207.275 282.469 207.625C282.222 207.97 281.884 208.239 281.454 208.43C281.03 208.617 280.551 208.71 280.019 208.71ZM284.385 208.5V200.94H287.5C287.659 200.94 287.85 200.949 288.074 200.968C288.303 200.987 288.515 201.022 288.711 201.073C289.136 201.185 289.476 201.414 289.733 201.759C289.994 202.104 290.125 202.52 290.125 203.005C290.125 203.276 290.083 203.518 289.999 203.733C289.92 203.943 289.805 204.125 289.656 204.279C289.586 204.358 289.509 204.428 289.425 204.489C289.341 204.545 289.259 204.592 289.18 204.629C289.329 204.657 289.49 204.722 289.663 204.825C289.934 204.984 290.139 205.198 290.279 205.469C290.419 205.735 290.489 206.059 290.489 206.442C290.489 206.96 290.365 207.382 290.118 207.709C289.871 208.036 289.539 208.26 289.124 208.381C288.937 208.432 288.734 208.465 288.515 208.479C288.3 208.493 288.097 208.5 287.906 208.5H284.385ZM285.421 207.625H287.857C287.955 207.625 288.079 207.618 288.228 207.604C288.377 207.585 288.51 207.562 288.627 207.534C288.902 207.464 289.103 207.324 289.229 207.114C289.36 206.899 289.425 206.666 289.425 206.414C289.425 206.083 289.327 205.812 289.131 205.602C288.94 205.387 288.683 205.257 288.361 205.21C288.254 205.187 288.142 205.173 288.025 205.168C287.908 205.163 287.803 205.161 287.71 205.161H285.421V207.625ZM285.421 204.279H287.535C287.656 204.279 287.792 204.272 287.941 204.258C288.095 204.239 288.228 204.209 288.34 204.167C288.583 204.083 288.76 203.938 288.872 203.733C288.989 203.528 289.047 203.304 289.047 203.061C289.047 202.795 288.984 202.562 288.858 202.361C288.737 202.16 288.552 202.02 288.305 201.941C288.137 201.88 287.955 201.845 287.759 201.836C287.568 201.827 287.446 201.822 287.395 201.822H285.421V204.279ZM295.041 208.71C294.29 208.71 293.648 208.54 293.116 208.199C292.584 207.858 292.176 207.387 291.891 206.785C291.607 206.183 291.464 205.492 291.464 204.713C291.464 203.92 291.609 203.224 291.898 202.627C292.188 202.03 292.598 201.565 293.13 201.234C293.667 200.898 294.304 200.73 295.041 200.73C295.797 200.73 296.441 200.9 296.973 201.241C297.51 201.577 297.918 202.046 298.198 202.648C298.483 203.245 298.625 203.934 298.625 204.713C298.625 205.506 298.483 206.204 298.198 206.806C297.914 207.403 297.503 207.87 296.966 208.206C296.43 208.542 295.788 208.71 295.041 208.71ZM295.041 207.723C295.881 207.723 296.507 207.445 296.917 206.89C297.328 206.33 297.533 205.604 297.533 204.713C297.533 203.798 297.326 203.07 296.91 202.529C296.5 201.988 295.877 201.717 295.041 201.717C294.477 201.717 294.01 201.845 293.641 202.102C293.277 202.354 293.004 202.706 292.822 203.159C292.645 203.607 292.556 204.125 292.556 204.713C292.556 205.623 292.766 206.353 293.186 206.904C293.606 207.45 294.225 207.723 295.041 207.723ZM300.162 208.5V200.94H301.191V204.223H305.454V200.94H306.483V208.5H305.454V205.21H301.191V208.5H300.162ZM308.434 208.5L308.441 200.94H309.477V204.58L312.851 200.94H314.223L310.681 204.72L314.685 208.5H313.187L309.477 204.86V208.5H308.434ZM321.392 200.94V208.5H320.391V202.613L316.247 208.5H315.379V200.94H316.38V206.778L320.531 200.94H321.392Z" fill="#5E6B77"/>
<path d="M7.33106 234.5V229.768L7.61806 230.209C7.29606 230.438 6.90173 230.624 6.43506 230.769C5.9684 230.909 5.44106 230.979 4.85306 230.979C3.9804 230.979 3.2804 230.818 2.75306 230.496C2.2304 230.174 1.8524 229.731 1.61906 229.166C1.38573 228.597 1.26906 227.946 1.26906 227.213V224.42H2.30506V226.856C2.30506 227.323 2.3494 227.747 2.43806 228.13C2.52673 228.513 2.67373 228.842 2.87906 229.117C3.0844 229.392 3.3574 229.605 3.69806 229.754C4.03873 229.899 4.45873 229.971 4.95806 229.971C5.57873 229.971 6.11306 229.878 6.56106 229.691C7.00906 229.5 7.33806 229.294 7.54806 229.075L7.33106 229.901V224.42H8.36006V234.5H7.33106ZM13.5188 234.71C12.7815 234.71 12.1422 234.547 11.6008 234.22C11.0642 233.893 10.6465 233.434 10.3478 232.841C10.0492 232.248 9.89984 231.553 9.89984 230.755C9.89984 229.929 10.0468 229.215 10.3408 228.613C10.6348 228.011 11.0478 227.547 11.5798 227.22C12.1165 226.893 12.7488 226.73 13.4768 226.73C14.2235 226.73 14.8605 226.903 15.3878 227.248C15.9152 227.589 16.3142 228.079 16.5848 228.718C16.8555 229.357 16.9792 230.12 16.9558 231.007H15.9058V230.643C15.8872 229.663 15.6748 228.923 15.2688 228.424C14.8675 227.925 14.2795 227.675 13.5048 227.675C12.6928 227.675 12.0698 227.939 11.6358 228.466C11.2065 228.993 10.9918 229.745 10.9918 230.72C10.9918 231.672 11.2065 232.412 11.6358 232.939C12.0698 233.462 12.6835 233.723 13.4768 233.723C14.0182 233.723 14.4895 233.599 14.8908 233.352C15.2968 233.1 15.6165 232.738 15.8498 232.267L16.8088 232.638C16.5102 233.296 16.0692 233.807 15.4858 234.171C14.9072 234.53 14.2515 234.71 13.5188 234.71ZM10.6278 231.007V230.146H16.4028V231.007H10.6278ZM21.9043 234.71C21.209 234.71 20.621 234.535 20.1403 234.185C19.6596 233.83 19.2956 233.352 19.0483 232.75C18.801 232.143 18.6773 231.464 18.6773 230.713C18.6773 229.948 18.801 229.266 19.0483 228.669C19.3003 228.067 19.669 227.593 20.1543 227.248C20.6396 226.903 21.237 226.73 21.9463 226.73C22.637 226.73 23.2296 226.905 23.7243 227.255C24.219 227.605 24.597 228.081 24.8583 228.683C25.1243 229.285 25.2573 229.962 25.2573 230.713C25.2573 231.469 25.1243 232.148 24.8583 232.75C24.5923 233.352 24.2096 233.83 23.7103 234.185C23.211 234.535 22.609 234.71 21.9043 234.71ZM18.5023 237.86V226.94H19.4263V232.631H19.5383V237.86H18.5023ZM21.7993 233.751C22.3266 233.751 22.7653 233.618 23.1153 233.352C23.4653 233.086 23.7266 232.724 23.8993 232.267C24.0766 231.805 24.1653 231.287 24.1653 230.713C24.1653 230.144 24.079 229.63 23.9063 229.173C23.7336 228.716 23.47 228.354 23.1153 228.088C22.7653 227.822 22.3196 227.689 21.7783 227.689C21.251 227.689 20.8123 227.817 20.4623 228.074C20.117 228.331 19.858 228.688 19.6853 229.145C19.5126 229.598 19.4263 230.12 19.4263 230.713C19.4263 231.296 19.5126 231.819 19.6853 232.281C19.858 232.738 20.1193 233.098 20.4693 233.359C20.8193 233.62 21.2626 233.751 21.7993 233.751ZM26.7875 234.5V226.94H27.8165V230.223H32.0795V226.94H33.1085V234.5H32.0795V231.21H27.8165V234.5H26.7875ZM35.0729 234.5L35.0589 226.94H36.0949V229.789H37.4109C37.6303 229.789 37.8449 229.794 38.0549 229.803C38.2649 229.812 38.4539 229.831 38.6219 229.859C38.9953 229.934 39.3266 230.06 39.6159 230.237C39.9053 230.414 40.1339 230.659 40.3019 230.972C40.4699 231.28 40.5539 231.67 40.5539 232.141C40.5539 232.79 40.3859 233.301 40.0499 233.674C39.7139 234.047 39.2916 234.29 38.7829 234.402C38.5916 234.444 38.3839 234.472 38.1599 234.486C37.9359 234.495 37.7166 234.5 37.5019 234.5H35.0729ZM36.0949 233.618H37.4599C37.6139 233.618 37.7889 233.613 37.9849 233.604C38.1809 233.595 38.3536 233.569 38.5029 233.527C38.7549 233.457 38.9813 233.317 39.1819 233.107C39.3873 232.892 39.4899 232.57 39.4899 232.141C39.4899 231.716 39.3919 231.397 39.1959 231.182C38.9999 230.963 38.7386 230.818 38.4119 230.748C38.2626 230.715 38.1039 230.694 37.9359 230.685C37.7726 230.676 37.6139 230.671 37.4599 230.671H36.0949V233.618ZM41.4569 234.5V226.94H42.4859V234.5H41.4569ZM47.5808 226.044C47.2495 226.044 46.9462 225.962 46.6708 225.799C46.3955 225.636 46.1762 225.419 46.0128 225.148C45.8542 224.873 45.7748 224.569 45.7748 224.238H46.6288C46.6288 224.499 46.7222 224.723 46.9088 224.91C47.0955 225.097 47.3195 225.19 47.5808 225.19C47.8468 225.19 48.0708 225.097 48.2528 224.91C48.4395 224.723 48.5328 224.499 48.5328 224.238H49.3868C49.3868 224.569 49.3052 224.873 49.1418 225.148C48.9832 225.419 48.7662 225.636 48.4908 225.799C48.2155 225.962 47.9122 226.044 47.5808 226.044ZM50.4508 226.94V234.5H49.4498V228.613L45.3058 234.5H44.4378V226.94H45.4388V232.778L49.5898 226.94H50.4508ZM58.3543 234.71C57.5936 234.71 56.9496 234.54 56.4223 234.199C55.8949 233.858 55.4936 233.389 55.2183 232.792C54.9476 232.19 54.8076 231.499 54.7983 230.72C54.8076 229.927 54.9523 229.231 55.2323 228.634C55.5123 228.032 55.9159 227.565 56.4433 227.234C56.9706 226.898 57.6099 226.73 58.3613 226.73C59.1266 226.73 59.7916 226.917 60.3563 227.29C60.9256 227.663 61.3153 228.174 61.5253 228.823L60.5173 229.145C60.3399 228.692 60.0576 228.342 59.6703 228.095C59.2876 227.843 58.8489 227.717 58.3543 227.717C57.7989 227.717 57.3393 227.845 56.9753 228.102C56.6113 228.354 56.3406 228.706 56.1633 229.159C55.9859 229.612 55.8949 230.132 55.8903 230.72C55.8996 231.625 56.1096 232.353 56.5203 232.904C56.9309 233.45 57.5423 233.723 58.3543 233.723C58.8676 233.723 59.3039 233.606 59.6633 233.373C60.0273 233.135 60.3026 232.79 60.4893 232.337L61.5253 232.645C61.2453 233.317 60.8346 233.83 60.2933 234.185C59.7519 234.535 59.1056 234.71 58.3543 234.71ZM62.9632 234.5V226.94H68.9762V234.5H67.9472V227.927H63.9922V234.5H62.9632ZM76.9469 226.94V234.5H75.9459V228.613L71.8019 234.5H70.9339V226.94H71.9349V232.778L76.0859 226.94H76.9469ZM82.0476 234.71C81.287 234.71 80.643 234.54 80.1156 234.199C79.5883 233.858 79.187 233.389 78.9116 232.792C78.641 232.19 78.501 231.499 78.4916 230.72C78.501 229.927 78.6456 229.231 78.9256 228.634C79.2056 228.032 79.6093 227.565 80.1366 227.234C80.664 226.898 81.3033 226.73 82.0546 226.73C82.82 226.73 83.485 226.917 84.0496 227.29C84.619 227.663 85.0086 228.174 85.2186 228.823L84.2106 229.145C84.0333 228.692 83.751 228.342 83.3636 228.095C82.981 227.843 82.5423 227.717 82.0476 227.717C81.4923 227.717 81.0326 227.845 80.6686 228.102C80.3046 228.354 80.034 228.706 79.8566 229.159C79.6793 229.612 79.5883 230.132 79.5836 230.72C79.593 231.625 79.803 232.353 80.2136 232.904C80.6243 233.45 81.2356 233.723 82.0476 233.723C82.561 233.723 82.9973 233.606 83.3566 233.373C83.7206 233.135 83.996 232.79 84.1826 232.337L85.2186 232.645C84.9386 233.317 84.528 233.83 83.9866 234.185C83.4453 234.535 82.799 234.71 82.0476 234.71ZM89.6155 234.71C88.8642 234.71 88.2225 234.54 87.6905 234.199C87.1585 233.858 86.7502 233.387 86.4655 232.785C86.1808 232.183 86.0385 231.492 86.0385 230.713C86.0385 229.92 86.1832 229.224 86.4725 228.627C86.7618 228.03 87.1725 227.565 87.7045 227.234C88.2412 226.898 88.8782 226.73 89.6155 226.73C90.3715 226.73 91.0155 226.9 91.5475 227.241C92.0842 227.577 92.4925 228.046 92.7725 228.648C93.0572 229.245 93.1995 229.934 93.1995 230.713C93.1995 231.506 93.0572 232.204 92.7725 232.806C92.4878 233.403 92.0772 233.87 91.5405 234.206C91.0038 234.542 90.3622 234.71 89.6155 234.71ZM89.6155 233.723C90.4555 233.723 91.0808 233.445 91.4915 232.89C91.9022 232.33 92.1075 231.604 92.1075 230.713C92.1075 229.798 91.8998 229.07 91.4845 228.529C91.0738 227.988 90.4508 227.717 89.6155 227.717C89.0508 227.717 88.5842 227.845 88.2155 228.102C87.8515 228.354 87.5785 228.706 87.3965 229.159C87.2192 229.607 87.1305 230.125 87.1305 230.713C87.1305 231.623 87.3405 232.353 87.7605 232.904C88.1805 233.45 88.7988 233.723 89.6155 233.723ZM94.7367 234.5L94.7437 226.94H95.7797V230.58L99.1537 226.94H100.526L96.9837 230.72L100.988 234.5H99.4897L95.7797 230.86V234.5H94.7367ZM104.485 234.5V226.94H105.514V230.223H109.777V226.94H110.806V234.5H109.777V231.21H105.514V234.5H104.485ZM115.92 234.71C115.169 234.71 114.527 234.54 113.995 234.199C113.463 233.858 113.055 233.387 112.77 232.785C112.486 232.183 112.343 231.492 112.343 230.713C112.343 229.92 112.488 229.224 112.777 228.627C113.067 228.03 113.477 227.565 114.009 227.234C114.546 226.898 115.183 226.73 115.92 226.73C116.676 226.73 117.32 226.9 117.852 227.241C118.389 227.577 118.797 228.046 119.077 228.648C119.362 229.245 119.504 229.934 119.504 230.713C119.504 231.506 119.362 232.204 119.077 232.806C118.793 233.403 118.382 233.87 117.845 234.206C117.309 234.542 116.667 234.71 115.92 234.71ZM115.92 233.723C116.76 233.723 117.386 233.445 117.796 232.89C118.207 232.33 118.412 231.604 118.412 230.713C118.412 229.798 118.205 229.07 117.789 228.529C117.379 227.988 116.756 227.717 115.92 227.717C115.356 227.717 114.889 227.845 114.52 228.102C114.156 228.354 113.883 228.706 113.701 229.159C113.524 229.607 113.435 230.125 113.435 230.713C113.435 231.623 113.645 232.353 114.065 232.904C114.485 233.45 115.104 233.723 115.92 233.723ZM121.041 234.5V226.94H121.958L124.905 233.128L127.859 226.94H128.769V234.5H127.775V229.138L125.234 234.5H124.583L122.042 229.138V234.5H121.041ZM133.927 234.71C133.19 234.71 132.55 234.547 132.009 234.22C131.472 233.893 131.055 233.434 130.756 232.841C130.457 232.248 130.308 231.553 130.308 230.755C130.308 229.929 130.455 229.215 130.749 228.613C131.043 228.011 131.456 227.547 131.988 227.22C132.525 226.893 133.157 226.73 133.885 226.73C134.632 226.73 135.269 226.903 135.796 227.248C136.323 227.589 136.722 228.079 136.993 228.718C137.264 229.357 137.387 230.12 137.364 231.007H136.314V230.643C136.295 229.663 136.083 228.923 135.677 228.424C135.276 227.925 134.688 227.675 133.913 227.675C133.101 227.675 132.478 227.939 132.044 228.466C131.615 228.993 131.4 229.745 131.4 230.72C131.4 231.672 131.615 232.412 132.044 232.939C132.478 233.462 133.092 233.723 133.885 233.723C134.426 233.723 134.898 233.599 135.299 233.352C135.705 233.1 136.025 232.738 136.258 232.267L137.217 232.638C136.918 233.296 136.477 233.807 135.894 234.171C135.315 234.53 134.66 234.71 133.927 234.71ZM131.036 231.007V230.146H136.811V231.007H131.036ZM142.312 234.71C141.617 234.71 141.029 234.535 140.549 234.185C140.068 233.83 139.704 233.352 139.457 232.75C139.209 232.143 139.086 231.464 139.086 230.713C139.086 229.948 139.209 229.266 139.457 228.669C139.709 228.067 140.077 227.593 140.563 227.248C141.048 226.903 141.645 226.73 142.355 226.73C143.045 226.73 143.638 226.905 144.133 227.255C144.627 227.605 145.005 228.081 145.267 228.683C145.533 229.285 145.666 229.962 145.666 230.713C145.666 231.469 145.533 232.148 145.267 232.75C145.001 233.352 144.618 233.83 144.119 234.185C143.619 234.535 143.017 234.71 142.312 234.71ZM138.911 237.86V226.94H139.835V232.631H139.947V237.86H138.911ZM142.208 233.751C142.735 233.751 143.174 233.618 143.524 233.352C143.874 233.086 144.135 232.724 144.308 232.267C144.485 231.805 144.574 231.287 144.574 230.713C144.574 230.144 144.487 229.63 144.315 229.173C144.142 228.716 143.878 228.354 143.524 228.088C143.174 227.822 142.728 227.689 142.187 227.689C141.659 227.689 141.221 227.817 140.871 228.074C140.525 228.331 140.266 228.688 140.094 229.145C139.921 229.598 139.835 230.12 139.835 230.713C139.835 231.296 139.921 231.819 140.094 232.281C140.266 232.738 140.528 233.098 140.878 233.359C141.228 233.62 141.671 233.751 142.208 233.751ZM150.36 234.71C149.608 234.71 148.967 234.54 148.435 234.199C147.903 233.858 147.494 233.387 147.21 232.785C146.925 232.183 146.783 231.492 146.783 230.713C146.783 229.92 146.927 229.224 147.217 228.627C147.506 228.03 147.917 227.565 148.449 227.234C148.985 226.898 149.622 226.73 150.36 226.73C151.116 226.73 151.76 226.9 152.292 227.241C152.828 227.577 153.237 228.046 153.517 228.648C153.801 229.245 153.944 229.934 153.944 230.713C153.944 231.506 153.801 232.204 153.517 232.806C153.232 233.403 152.821 233.87 152.285 234.206C151.748 234.542 151.106 234.71 150.36 234.71ZM150.36 233.723C151.2 233.723 151.825 233.445 152.236 232.89C152.646 232.33 152.852 231.604 152.852 230.713C152.852 229.798 152.644 229.07 152.229 228.529C151.818 227.988 151.195 227.717 150.36 227.717C149.795 227.717 149.328 227.845 148.96 228.102C148.596 228.354 148.323 228.706 148.141 229.159C147.963 229.607 147.875 230.125 147.875 230.713C147.875 231.623 148.085 232.353 148.505 232.904C148.925 233.45 149.543 233.723 150.36 233.723ZM155.481 234.5V226.94H158.596C158.754 226.94 158.946 226.949 159.17 226.968C159.398 226.987 159.611 227.022 159.807 227.073C160.231 227.185 160.572 227.414 160.829 227.759C161.09 228.104 161.221 228.52 161.221 229.005C161.221 229.276 161.179 229.518 161.095 229.733C161.015 229.943 160.901 230.125 160.752 230.279C160.682 230.358 160.605 230.428 160.521 230.489C160.437 230.545 160.355 230.592 160.276 230.629C160.425 230.657 160.586 230.722 160.759 230.825C161.029 230.984 161.235 231.198 161.375 231.469C161.515 231.735 161.585 232.059 161.585 232.442C161.585 232.96 161.461 233.382 161.214 233.709C160.966 234.036 160.635 234.26 160.22 234.381C160.033 234.432 159.83 234.465 159.611 234.479C159.396 234.493 159.193 234.5 159.002 234.5H155.481ZM156.517 233.625H158.953C159.051 233.625 159.174 233.618 159.324 233.604C159.473 233.585 159.606 233.562 159.723 233.534C159.998 233.464 160.199 233.324 160.325 233.114C160.455 232.899 160.521 232.666 160.521 232.414C160.521 232.083 160.423 231.812 160.227 231.602C160.035 231.387 159.779 231.257 159.457 231.21C159.349 231.187 159.237 231.173 159.121 231.168C159.004 231.163 158.899 231.161 158.806 231.161H156.517V233.625ZM156.517 230.279H158.631C158.752 230.279 158.887 230.272 159.037 230.258C159.191 230.239 159.324 230.209 159.436 230.167C159.678 230.083 159.856 229.938 159.968 229.733C160.084 229.528 160.143 229.304 160.143 229.061C160.143 228.795 160.08 228.562 159.954 228.361C159.832 228.16 159.648 228.02 159.401 227.941C159.233 227.88 159.051 227.845 158.855 227.836C158.663 227.827 158.542 227.822 158.491 227.822H156.517V230.279Z" fill="#5E6B77"/>
<path d="M193.98 234.5V224.42H201.701V234.5H200.672V225.407H195.009V234.5H193.98ZM206.859 234.71C206.121 234.71 205.482 234.547 204.941 234.22C204.404 233.893 203.986 233.434 203.688 232.841C203.389 232.248 203.24 231.553 203.24 230.755C203.24 229.929 203.387 229.215 203.681 228.613C203.975 228.011 204.388 227.547 204.92 227.22C205.456 226.893 206.089 226.73 206.817 226.73C207.563 226.73 208.2 226.903 208.728 227.248C209.255 227.589 209.654 228.079 209.925 228.718C210.195 229.357 210.319 230.12 210.296 231.007H209.246V230.643C209.227 229.663 209.015 228.923 208.609 228.424C208.207 227.925 207.619 227.675 206.845 227.675C206.033 227.675 205.41 227.939 204.976 228.466C204.546 228.993 204.332 229.745 204.332 230.72C204.332 231.672 204.546 232.412 204.976 232.939C205.41 233.462 206.023 233.723 206.817 233.723C207.358 233.723 207.829 233.599 208.231 233.352C208.637 233.1 208.956 232.738 209.19 232.267L210.149 232.638C209.85 233.296 209.409 233.807 208.826 234.171C208.247 234.53 207.591 234.71 206.859 234.71ZM203.968 231.007V230.146H209.743V231.007H203.968ZM215.244 234.71C214.549 234.71 213.961 234.535 213.48 234.185C212.999 233.83 212.635 233.352 212.388 232.75C212.141 232.143 212.017 231.464 212.017 230.713C212.017 229.948 212.141 229.266 212.388 228.669C212.64 228.067 213.009 227.593 213.494 227.248C213.979 226.903 214.577 226.73 215.286 226.73C215.977 226.73 216.569 226.905 217.064 227.255C217.559 227.605 217.937 228.081 218.198 228.683C218.464 229.285 218.597 229.962 218.597 230.713C218.597 231.469 218.464 232.148 218.198 232.75C217.932 233.352 217.549 233.83 217.05 234.185C216.551 234.535 215.949 234.71 215.244 234.71ZM211.842 237.86V226.94H212.766V232.631H212.878V237.86H211.842ZM215.139 233.751C215.666 233.751 216.105 233.618 216.455 233.352C216.805 233.086 217.066 232.724 217.239 232.267C217.416 231.805 217.505 231.287 217.505 230.713C217.505 230.144 217.419 229.63 217.246 229.173C217.073 228.716 216.81 228.354 216.455 228.088C216.105 227.822 215.659 227.689 215.118 227.689C214.591 227.689 214.152 227.817 213.802 228.074C213.457 228.331 213.198 228.688 213.025 229.145C212.852 229.598 212.766 230.12 212.766 230.713C212.766 231.296 212.852 231.819 213.025 232.281C213.198 232.738 213.459 233.098 213.809 233.359C214.159 233.62 214.602 233.751 215.139 233.751ZM223.333 234.71C222.596 234.71 221.957 234.547 221.415 234.22C220.879 233.893 220.461 233.434 220.162 232.841C219.864 232.248 219.714 231.553 219.714 230.755C219.714 229.929 219.861 229.215 220.155 228.613C220.449 228.011 220.862 227.547 221.394 227.22C221.931 226.893 222.563 226.73 223.291 226.73C224.038 226.73 224.675 226.903 225.202 227.248C225.73 227.589 226.129 228.079 226.399 228.718C226.67 229.357 226.794 230.12 226.77 231.007H225.72V230.643C225.702 229.663 225.489 228.923 225.083 228.424C224.682 227.925 224.094 227.675 223.319 227.675C222.507 227.675 221.884 227.939 221.45 228.466C221.021 228.993 220.806 229.745 220.806 230.72C220.806 231.672 221.021 232.412 221.45 232.939C221.884 233.462 222.498 233.723 223.291 233.723C223.833 233.723 224.304 233.599 224.705 233.352C225.111 233.1 225.431 232.738 225.664 232.267L226.623 232.638C226.325 233.296 225.884 233.807 225.3 234.171C224.722 234.53 224.066 234.71 223.333 234.71ZM220.442 231.007V230.146H226.217V231.007H220.442ZM230.35 234.71C229.781 234.71 229.302 234.607 228.915 234.402C228.532 234.197 228.245 233.924 228.054 233.583C227.863 233.242 227.767 232.871 227.767 232.47C227.767 232.059 227.849 231.709 228.012 231.42C228.18 231.126 228.406 230.886 228.691 230.699C228.98 230.512 229.314 230.37 229.692 230.272C230.075 230.179 230.497 230.097 230.959 230.027C231.426 229.952 231.881 229.889 232.324 229.838C232.772 229.782 233.164 229.728 233.5 229.677L233.136 229.901C233.15 229.154 233.005 228.601 232.702 228.242C232.399 227.883 231.871 227.703 231.12 227.703C230.602 227.703 230.163 227.82 229.804 228.053C229.449 228.286 229.2 228.655 229.055 229.159L228.054 228.865C228.227 228.188 228.574 227.663 229.097 227.29C229.62 226.917 230.299 226.73 231.134 226.73C231.825 226.73 232.41 226.861 232.891 227.122C233.376 227.379 233.719 227.752 233.92 228.242C234.013 228.461 234.074 228.706 234.102 228.977C234.13 229.248 234.144 229.523 234.144 229.803V234.5H233.227V232.603L233.493 232.715C233.236 233.364 232.837 233.858 232.296 234.199C231.755 234.54 231.106 234.71 230.35 234.71ZM230.469 233.821C230.95 233.821 231.37 233.735 231.729 233.562C232.088 233.389 232.378 233.154 232.597 232.855C232.816 232.552 232.959 232.211 233.024 231.833C233.08 231.59 233.11 231.324 233.115 231.035C233.12 230.741 233.122 230.522 233.122 230.377L233.514 230.58C233.164 230.627 232.784 230.673 232.373 230.72C231.967 230.767 231.566 230.82 231.169 230.881C230.777 230.942 230.422 231.014 230.105 231.098C229.89 231.159 229.683 231.245 229.482 231.357C229.281 231.464 229.116 231.609 228.985 231.791C228.859 231.973 228.796 232.199 228.796 232.47C228.796 232.689 228.85 232.902 228.957 233.107C229.069 233.312 229.246 233.483 229.489 233.618C229.736 233.753 230.063 233.821 230.469 233.821ZM235.406 236.18V233.618C235.836 233.618 236.144 233.48 236.33 233.205C236.517 232.925 236.669 232.479 236.785 231.868C236.865 231.471 236.93 231.044 236.981 230.587C237.033 230.13 237.077 229.607 237.114 229.019C237.152 228.426 237.187 227.733 237.219 226.94H242.217V233.618H242.945V236.18H241.951V234.5H236.393V236.18H235.406ZM237.149 233.618H241.195V227.822H238.171C238.157 228.177 238.136 228.552 238.108 228.949C238.085 229.346 238.055 229.742 238.017 230.139C237.985 230.536 237.945 230.909 237.898 231.259C237.856 231.604 237.805 231.908 237.744 232.169C237.674 232.505 237.597 232.792 237.513 233.03C237.434 233.268 237.313 233.464 237.149 233.618ZM247.742 234.71C247.047 234.71 246.459 234.535 245.978 234.185C245.498 233.83 245.134 233.352 244.886 232.75C244.639 232.143 244.515 231.464 244.515 230.713C244.515 229.948 244.639 229.266 244.886 228.669C245.138 228.067 245.507 227.593 245.992 227.248C246.478 226.903 247.075 226.73 247.784 226.73C248.475 226.73 249.068 226.905 249.562 227.255C250.057 227.605 250.435 228.081 250.696 228.683C250.962 229.285 251.095 229.962 251.095 230.713C251.095 231.469 250.962 232.148 250.696 232.75C250.43 233.352 250.048 233.83 249.548 234.185C249.049 234.535 248.447 234.71 247.742 234.71ZM244.34 237.86V226.94H245.264V232.631H245.376V237.86H244.34ZM247.637 233.751C248.165 233.751 248.603 233.618 248.953 233.352C249.303 233.086 249.565 232.724 249.737 232.267C249.915 231.805 250.003 231.287 250.003 230.713C250.003 230.144 249.917 229.63 249.744 229.173C249.572 228.716 249.308 228.354 248.953 228.088C248.603 227.822 248.158 227.689 247.616 227.689C247.089 227.689 246.65 227.817 246.3 228.074C245.955 228.331 245.696 228.688 245.523 229.145C245.351 229.598 245.264 230.12 245.264 230.713C245.264 231.296 245.351 231.819 245.523 232.281C245.696 232.738 245.957 233.098 246.307 233.359C246.657 233.62 247.101 233.751 247.637 233.751ZM255.831 234.71C255.094 234.71 254.455 234.547 253.913 234.22C253.377 233.893 252.959 233.434 252.66 232.841C252.362 232.248 252.212 231.553 252.212 230.755C252.212 229.929 252.359 229.215 252.653 228.613C252.947 228.011 253.36 227.547 253.892 227.22C254.429 226.893 255.061 226.73 255.789 226.73C256.536 226.73 257.173 226.903 257.7 227.248C258.228 227.589 258.627 228.079 258.897 228.718C259.168 229.357 259.292 230.12 259.268 231.007H258.218V230.643C258.2 229.663 257.987 228.923 257.581 228.424C257.18 227.925 256.592 227.675 255.817 227.675C255.005 227.675 254.382 227.939 253.948 228.466C253.519 228.993 253.304 229.745 253.304 230.72C253.304 231.672 253.519 232.412 253.948 232.939C254.382 233.462 254.996 233.723 255.789 233.723C256.331 233.723 256.802 233.599 257.203 233.352C257.609 233.1 257.929 232.738 258.162 232.267L259.121 232.638C258.823 233.296 258.382 233.807 257.798 234.171C257.22 234.53 256.564 234.71 255.831 234.71ZM252.94 231.007V230.146H258.715V231.007H252.94ZM263.958 234.71C263.197 234.71 262.553 234.54 262.026 234.199C261.498 233.858 261.097 233.389 260.822 232.792C260.551 232.19 260.411 231.499 260.402 230.72C260.411 229.927 260.556 229.231 260.836 228.634C261.116 228.032 261.519 227.565 262.047 227.234C262.574 226.898 263.213 226.73 263.965 226.73C264.73 226.73 265.395 226.917 265.96 227.29C266.529 227.663 266.919 228.174 267.129 228.823L266.121 229.145C265.943 228.692 265.661 228.342 265.274 228.095C264.891 227.843 264.452 227.717 263.958 227.717C263.402 227.717 262.943 227.845 262.579 228.102C262.215 228.354 261.944 228.706 261.767 229.159C261.589 229.612 261.498 230.132 261.494 230.72C261.503 231.625 261.713 232.353 262.124 232.904C262.534 233.45 263.146 233.723 263.958 233.723C264.471 233.723 264.907 233.606 265.267 233.373C265.631 233.135 265.906 232.79 266.093 232.337L267.129 232.645C266.849 233.317 266.438 233.83 265.897 234.185C265.355 234.535 264.709 234.71 263.958 234.71ZM270.696 234.71C270.126 234.71 269.648 234.607 269.261 234.402C268.878 234.197 268.591 233.924 268.4 233.583C268.208 233.242 268.113 232.871 268.113 232.47C268.113 232.059 268.194 231.709 268.358 231.42C268.526 231.126 268.752 230.886 269.037 230.699C269.326 230.512 269.66 230.37 270.038 230.272C270.42 230.179 270.843 230.097 271.305 230.027C271.771 229.952 272.226 229.889 272.67 229.838C273.118 229.782 273.51 229.728 273.846 229.677L273.482 229.901C273.496 229.154 273.351 228.601 273.048 228.242C272.744 227.883 272.217 227.703 271.466 227.703C270.948 227.703 270.509 227.82 270.15 228.053C269.795 228.286 269.545 228.655 269.401 229.159L268.4 228.865C268.572 228.188 268.92 227.663 269.443 227.29C269.965 226.917 270.644 226.73 271.48 226.73C272.17 226.73 272.756 226.861 273.237 227.122C273.722 227.379 274.065 227.752 274.266 228.242C274.359 228.461 274.42 228.706 274.448 228.977C274.476 229.248 274.49 229.523 274.49 229.803V234.5H273.573V232.603L273.839 232.715C273.582 233.364 273.183 233.858 272.642 234.199C272.1 234.54 271.452 234.71 270.696 234.71ZM270.815 233.821C271.295 233.821 271.715 233.735 272.075 233.562C272.434 233.389 272.723 233.154 272.943 232.855C273.162 232.552 273.304 232.211 273.37 231.833C273.426 231.59 273.456 231.324 273.461 231.035C273.465 230.741 273.468 230.522 273.468 230.377L273.86 230.58C273.51 230.627 273.129 230.673 272.719 230.72C272.313 230.767 271.911 230.82 271.515 230.881C271.123 230.942 270.768 231.014 270.451 231.098C270.236 231.159 270.028 231.245 269.828 231.357C269.627 231.464 269.461 231.609 269.331 231.791C269.205 231.973 269.142 232.199 269.142 232.47C269.142 232.689 269.195 232.902 269.303 233.107C269.415 233.312 269.592 233.483 269.835 233.618C270.082 233.753 270.409 233.821 270.815 233.821ZM282.808 235.809V234.5H276.305V226.94H277.334V233.513H281.289V226.94H282.318V233.548H283.837V235.809H282.808ZM290.959 226.94V234.5H289.958V228.613L285.814 234.5H284.946V226.94H285.947V232.778L290.098 226.94H290.959ZM297.662 234.5V231.651H295.898C295.693 231.651 295.481 231.644 295.261 231.63C295.047 231.611 294.846 231.586 294.659 231.553C294.127 231.45 293.675 231.217 293.301 230.853C292.933 230.484 292.748 229.976 292.748 229.327C292.748 228.692 292.921 228.184 293.266 227.801C293.612 227.414 294.029 227.162 294.519 227.045C294.743 226.994 294.97 226.963 295.198 226.954C295.432 226.945 295.632 226.94 295.8 226.94H298.691L298.698 234.5H297.662ZM292.503 234.5L294.61 231.329H295.751L293.63 234.5H292.503ZM295.842 230.769H297.662V227.822H295.842C295.73 227.822 295.574 227.827 295.373 227.836C295.173 227.845 294.984 227.876 294.806 227.927C294.652 227.974 294.498 228.055 294.344 228.172C294.195 228.284 294.069 228.436 293.966 228.627C293.864 228.814 293.812 229.042 293.812 229.313C293.812 229.691 293.915 229.994 294.12 230.223C294.33 230.447 294.592 230.601 294.904 230.685C295.072 230.722 295.24 230.746 295.408 230.755C295.576 230.764 295.721 230.769 295.842 230.769Z" fill="#5E6B77"/>
</svg>
