<svg width="60" height="60" viewBox="0 0 60 60" fill="none" xmlns="http://www.w3.org/2000/svg">
<path d="M25.7272 42.4542L17.5842 34.6889C17.3213 34.4382 17.2167 34.055 17.3125 33.7045C23.3713 11.5286 40.5428 8.83899 49.1025 10.3434C49.5303 10.4186 49.8468 10.7848 49.8816 11.2178C51.541 31.8424 35.4335 40.7003 26.6099 42.7059C26.2906 42.7785 25.9641 42.6801 25.7272 42.4542Z" fill="white" stroke="#F88C28" stroke-linecap="round"/>
<path d="M19.8428 27.0977L32.8162 40.1204" stroke="#F88C28" stroke-linecap="round"/>
<path d="M42.6048 22.1583C42.6048 24.86 40.4234 27.047 37.7365 27.047C35.0496 27.047 32.8682 24.86 32.8682 22.1583C32.8682 19.4565 35.0496 17.2695 37.7365 17.2695C40.4234 17.2695 42.6048 19.4565 42.6048 22.1583Z" stroke="#F88C28"/>
<path d="M38.6309 36.9771L38.2127 44.1149C38.1943 44.4275 38.0307 44.7134 37.7705 44.8875L31.4065 49.1464C30.806 49.5482 29.9905 49.2001 29.8654 48.4884L28.7891 42.3658" stroke="#F88C28" stroke-linecap="round"/>
<path d="M22.9893 21.2808L15.8816 21.6891C15.5679 21.7071 15.281 21.8715 15.1068 22.1329L10.8489 28.522C10.4494 29.1216 10.7958 29.9341 11.5051 30.0609L17.6053 31.1516" stroke="#F88C28" stroke-linecap="round"/>
<path d="M22.08 45.5088L17.6064 49.9994" stroke="#F88C28" stroke-linecap="round"/>
<path d="M14.4736 38.3242L10 42.8148" stroke="#F88C28" stroke-linecap="round"/>
<path d="M18.0525 41.9165L10 49.9996" stroke="#F88C28" stroke-linecap="round"/>
</svg>
