<svg width="235" height="381" viewBox="0 0 235 381" fill="none" xmlns="http://www.w3.org/2000/svg">
<path fill-rule="evenodd" clip-rule="evenodd" d="M1.50158 20C1.22543 20 1.00158 20.2239 1.00158 20.5C1.00158 20.7761 1.22543 21 1.50158 21L1.50158 21C1.22544 21 1.00158 21.2239 1.00158 21.5L1.00158 23.02C1.00158 23.2962 1.22544 23.52 1.50158 23.52C1.77772 23.52 2.00158 23.2962 2.00158 23.02L2.00158 21.5C2.00158 21.2239 1.77772 21 1.50158 21L3.05158 21C3.32772 21 3.55158 20.7761 3.55158 20.5C3.55158 20.2239 3.32772 20 3.05158 20H1.50158ZM6.15158 20C5.87543 20 5.65158 20.2239 5.65158 20.5C5.65158 20.7761 5.87543 21 6.15158 21L9.25158 21C9.52772 21 9.75158 20.7761 9.75158 20.5C9.75158 20.2239 9.52772 20 9.25158 20H6.15158ZM12.3516 20C12.0754 20 11.8516 20.2239 11.8516 20.5C11.8516 20.7761 12.0754 21 12.3516 21L15.4516 21C15.7277 21 15.9516 20.7761 15.9516 20.5C15.9516 20.2239 15.7277 20 15.4516 20H12.3516ZM18.5516 20C18.2754 20 18.0516 20.2239 18.0516 20.5C18.0516 20.7761 18.2754 21 18.5516 21L21.6516 21C21.9277 21 22.1516 20.7761 22.1516 20.5C22.1516 20.2239 21.9277 20 21.6516 20H18.5516ZM24.7516 20C24.4754 20 24.2516 20.2239 24.2516 20.5C24.2516 20.7761 24.4754 21 24.7516 21L27.8516 21C28.1277 21 28.3516 20.7761 28.3516 20.5C28.3516 20.2239 28.1277 20 27.8516 20L24.7516 20ZM30.9516 20C30.6754 20 30.4516 20.2239 30.4516 20.5C30.4516 20.7761 30.6754 21 30.9516 21L32.5016 21C32.7777 21 33.0016 20.7761 33.0016 20.5C33.0016 20.2239 32.7777 20 32.5016 20L30.9516 20ZM2.00158 173.315L3.03079 173.639C3.29417 173.722 3.44043 174.003 3.35747 174.266C3.27451 174.53 2.99374 174.676 2.73035 174.593L1.17804 174.104C0.914656 174.021 0.768395 173.74 0.851358 173.477C0.880344 173.385 0.933476 173.307 1.00158 173.249L1.00158 171.98C1.00158 171.704 1.22543 171.48 1.50158 171.48C1.77772 171.48 2.00158 171.704 2.00158 171.98L2.00158 173.315ZM1.00158 168.94C1.00158 169.216 1.22543 169.44 1.50158 169.44C1.77772 169.44 2.00158 169.216 2.00158 168.94L2.00158 165.9C2.00158 165.624 1.77772 165.4 1.50158 165.4C1.22543 165.4 1.00158 165.624 1.00158 165.9L1.00158 168.94ZM1.00158 162.86C1.00158 163.136 1.22543 163.36 1.50158 163.36C1.77772 163.36 2.00158 163.136 2.00158 162.86L2.00158 159.82C2.00158 159.544 1.77772 159.32 1.50158 159.32C1.22543 159.32 1.00158 159.544 1.00158 159.82L1.00158 162.86ZM1.00158 156.78C1.00158 157.056 1.22543 157.28 1.50158 157.28C1.77772 157.28 2.00158 157.056 2.00158 156.78L2.00158 153.74C2.00158 153.464 1.77772 153.24 1.50158 153.24C1.22543 153.24 1.00158 153.464 1.00158 153.74L1.00158 156.78ZM1.00158 150.7C1.00158 150.976 1.22543 151.2 1.50158 151.2C1.77772 151.2 2.00158 150.976 2.00158 150.7L2.00158 147.66C2.00158 147.384 1.77772 147.16 1.50158 147.16C1.22543 147.16 1.00158 147.384 1.00158 147.66L1.00158 150.7ZM1.00158 144.62C1.00158 144.896 1.22543 145.12 1.50158 145.12C1.77772 145.12 2.00158 144.896 2.00158 144.62L2.00158 141.58C2.00158 141.304 1.77772 141.08 1.50158 141.08C1.22543 141.08 1.00158 141.304 1.00158 141.58L1.00158 144.62ZM1.00158 138.54C1.00158 138.816 1.22543 139.04 1.50158 139.04C1.77772 139.04 2.00158 138.816 2.00158 138.54L2.00158 135.5C2.00158 135.224 1.77772 135 1.50158 135C1.22544 135 1.00158 135.224 1.00158 135.5L1.00158 138.54ZM1.00158 132.46C1.00158 132.736 1.22544 132.96 1.50158 132.96C1.77772 132.96 2.00158 132.736 2.00158 132.46L2.00158 129.42C2.00158 129.144 1.77772 128.92 1.50158 128.92C1.22544 128.92 1.00158 129.144 1.00158 129.42L1.00158 132.46ZM2.00158 126H3.05158C3.32772 126 3.55158 126.224 3.55158 126.5C3.55158 126.776 3.32772 127 3.05158 127H1.50158C1.22543 127 1.00158 126.776 1.00158 126.5C1.00158 126.48 1.00279 126.46 1.00514 126.44C1.00279 126.42 1.00158 126.4 1.00158 126.38L1.00158 123.34C1.00158 123.064 1.22544 122.84 1.50158 122.84C1.77772 122.84 2.00158 123.064 2.00158 123.34L2.00158 126ZM1.00158 120.3C1.00158 120.576 1.22544 120.8 1.50158 120.8C1.77772 120.8 2.00158 120.576 2.00158 120.3L2.00158 117.26C2.00158 116.984 1.77772 116.76 1.50158 116.76C1.22544 116.76 1.00158 116.984 1.00158 117.26L1.00158 120.3ZM1.00158 114.22C1.00158 114.496 1.22544 114.72 1.50158 114.72C1.77772 114.72 2.00158 114.496 2.00158 114.22L2.00158 111.18C2.00158 110.904 1.77772 110.68 1.50158 110.68C1.22544 110.68 1.00158 110.904 1.00158 111.18L1.00158 114.22ZM1.00158 108.14C1.00158 108.416 1.22544 108.64 1.50158 108.64C1.77772 108.64 2.00158 108.416 2.00158 108.14L2.00158 105.1C2.00158 104.824 1.77772 104.6 1.50158 104.6C1.22544 104.6 1.00158 104.824 1.00158 105.1L1.00158 108.14ZM1.00158 102.06C1.00158 102.336 1.22544 102.56 1.50158 102.56C1.77772 102.56 2.00158 102.336 2.00158 102.06L2.00158 99.02C2.00158 98.7439 1.77772 98.52 1.50158 98.52C1.22544 98.52 1.00158 98.7439 1.00158 99.02L1.00158 102.06ZM1.00158 95.98C1.00158 96.2561 1.22544 96.48 1.50158 96.48C1.77772 96.48 2.00158 96.2561 2.00158 95.98L2.00158 92.94C2.00158 92.6638 1.77772 92.44 1.50158 92.44C1.22544 92.44 1.00158 92.6638 1.00158 92.94L1.00158 95.98ZM1.00158 89.9C1.00158 90.1761 1.22544 90.4 1.50158 90.4C1.77772 90.4 2.00158 90.1761 2.00158 89.9L2.00158 86.86C2.00158 86.5838 1.77772 86.36 1.50158 86.36C1.22544 86.36 1.00158 86.5838 1.00158 86.86L1.00158 89.9ZM1.00158 83.82C1.00158 84.0961 1.22544 84.32 1.50158 84.32C1.77772 84.32 2.00158 84.0961 2.00158 83.82L2.00158 80.78C2.00158 80.5038 1.77772 80.28 1.50158 80.28C1.22544 80.28 1.00158 80.5038 1.00158 80.78L1.00158 83.82ZM1.00158 77.74C1.00158 78.0161 1.22544 78.24 1.50158 78.24C1.77772 78.24 2.00158 78.0161 2.00158 77.74L2.00158 74.7C2.00158 74.4238 1.77772 74.2 1.50158 74.2C1.22544 74.2 1.00158 74.4238 1.00158 74.7L1.00158 77.74ZM1.00158 71.66C1.00158 71.9361 1.22544 72.16 1.50158 72.16C1.77772 72.16 2.00158 71.9361 2.00158 71.66L2.00158 68.62C2.00158 68.3438 1.77772 68.12 1.50158 68.12C1.22544 68.12 1.00158 68.3438 1.00158 68.62L1.00158 71.66ZM1.00158 65.58C1.00158 65.8561 1.22544 66.08 1.50158 66.08C1.77772 66.08 2.00158 65.8561 2.00158 65.58L2.00158 62.54C2.00158 62.2638 1.77772 62.04 1.50158 62.04C1.22544 62.04 1.00158 62.2638 1.00158 62.54L1.00158 65.58ZM1.00158 59.5C1.00158 59.7761 1.22544 60 1.50158 60C1.77772 60 2.00158 59.7761 2.00158 59.5L2.00158 56.46C2.00158 56.1838 1.77772 55.96 1.50158 55.96C1.22544 55.96 1.00158 56.1838 1.00158 56.46L1.00158 59.5ZM1.00158 53.42C1.00158 53.6961 1.22544 53.92 1.50158 53.92C1.77772 53.92 2.00158 53.6961 2.00158 53.42L2.00158 50.38C2.00158 50.1038 1.77772 49.88 1.50158 49.88C1.22544 49.88 1.00158 50.1038 1.00158 50.38L1.00158 53.42ZM1.00158 47.34C1.00158 47.6161 1.22544 47.84 1.50158 47.84C1.77772 47.84 2.00158 47.6161 2.00158 47.34L2.00158 44.3C2.00158 44.0238 1.77772 43.8 1.50158 43.8C1.22544 43.8 1.00158 44.0238 1.00158 44.3L1.00158 47.34ZM1.00158 41.26C1.00158 41.5361 1.22544 41.76 1.50158 41.76C1.77772 41.76 2.00158 41.5361 2.00158 41.26L2.00158 38.22C2.00158 37.9438 1.77772 37.72 1.50158 37.72C1.22544 37.72 1.00158 37.9438 1.00158 38.22L1.00158 41.26ZM1.00158 35.18C1.00158 35.4561 1.22544 35.68 1.50158 35.68C1.77772 35.68 2.00158 35.4561 2.00158 35.18L2.00158 32.14C2.00158 31.8639 1.77772 31.64 1.50158 31.64C1.22544 31.64 1.00158 31.8639 1.00158 32.14L1.00158 35.18ZM1.00158 29.1C1.00158 29.3761 1.22544 29.6 1.50158 29.6C1.77772 29.6 2.00158 29.3761 2.00158 29.1L2.00158 26.06C2.00158 25.7839 1.77772 25.56 1.50158 25.56C1.22544 25.56 1.00158 25.7839 1.00158 26.06L1.00158 29.1ZM1.00158 358.5C1.00158 358.776 1.22543 359 1.50158 359H3.05158C3.32772 359 3.55158 358.776 3.55158 358.5C3.55158 358.224 3.32772 358 3.05158 358H2.00158L2.00158 356.98C2.00158 356.704 1.77772 356.48 1.50158 356.48C1.22543 356.48 1.00158 356.704 1.00158 356.98L1.00158 358.5ZM1.00158 353.94C1.00158 354.216 1.22543 354.44 1.50158 354.44C1.77772 354.44 2.00158 354.216 2.00158 353.94L2.00158 350.9C2.00158 350.624 1.77772 350.4 1.50158 350.4C1.22543 350.4 1.00158 350.624 1.00158 350.9L1.00158 353.94ZM1.00158 347.86C1.00158 348.136 1.22543 348.36 1.50158 348.36C1.77772 348.36 2.00158 348.136 2.00158 347.86L2.00158 344.82C2.00158 344.544 1.77772 344.32 1.50158 344.32C1.22543 344.32 1.00158 344.544 1.00158 344.82L1.00158 347.86ZM1.00158 341.78C1.00158 342.056 1.22543 342.28 1.50158 342.28C1.77772 342.28 2.00158 342.056 2.00158 341.78L2.00158 338.74C2.00158 338.464 1.77772 338.24 1.50158 338.24C1.22543 338.24 1.00158 338.464 1.00158 338.74L1.00158 341.78ZM1.00158 335.7C1.00158 335.976 1.22543 336.2 1.50158 336.2C1.77772 336.2 2.00158 335.976 2.00158 335.7L2.00158 332.66C2.00158 332.384 1.77772 332.16 1.50158 332.16C1.22543 332.16 1.00158 332.384 1.00158 332.66L1.00158 335.7ZM1.00158 329.62C1.00158 329.896 1.22543 330.12 1.50158 330.12C1.77772 330.12 2.00158 329.896 2.00158 329.62L2.00158 326.58C2.00158 326.304 1.77772 326.08 1.50158 326.08C1.22543 326.08 1.00158 326.304 1.00158 326.58L1.00158 329.62ZM1.00158 323.54C1.00158 323.816 1.22543 324.04 1.50158 324.04C1.77772 324.04 2.00158 323.816 2.00158 323.54L2.00158 320.5C2.00158 320.224 1.77772 320 1.50158 320C1.22544 320 1.00158 320.224 1.00158 320.5L1.00158 323.54ZM1.00158 317.46C1.00158 317.736 1.22544 317.96 1.50158 317.96C1.77772 317.96 2.00158 317.736 2.00158 317.46L2.00158 314.42C2.00158 314.144 1.77772 313.92 1.50158 313.92C1.22544 313.92 1.00158 314.144 1.00158 314.42L1.00158 317.46ZM1.00158 311.38C1.00158 311.656 1.22544 311.88 1.50158 311.88C1.77772 311.88 2.00158 311.656 2.00158 311.38L2.00158 308.34C2.00158 308.064 1.77772 307.84 1.50158 307.84C1.22544 307.84 1.00158 308.064 1.00158 308.34L1.00158 311.38ZM1.00158 305.3C1.00158 305.334 1.00502 305.368 1.01158 305.4C1.00502 305.432 1.00158 305.466 1.00158 305.5C1.00158 305.776 1.22543 306 1.50158 306H3.05158C3.32772 306 3.55158 305.776 3.55158 305.5C3.55158 305.224 3.32772 305 3.05158 305H2.00158L2.00158 302.26C2.00158 301.984 1.77772 301.76 1.50158 301.76C1.22544 301.76 1.00158 301.984 1.00158 302.26L1.00158 305.3ZM1.00158 299.22C1.00158 299.496 1.22544 299.72 1.50158 299.72C1.77772 299.72 2.00158 299.496 2.00158 299.22L2.00158 296.18C2.00158 295.904 1.77772 295.68 1.50158 295.68C1.22544 295.68 1.00158 295.904 1.00158 296.18L1.00158 299.22ZM1.00158 293.14C1.00158 293.416 1.22544 293.64 1.50158 293.64C1.77772 293.64 2.00158 293.416 2.00158 293.14L2.00158 290.1C2.00158 289.824 1.77772 289.6 1.50158 289.6C1.22544 289.6 1.00158 289.824 1.00158 290.1L1.00158 293.14ZM1.00158 287.06C1.00158 287.336 1.22544 287.56 1.50158 287.56C1.77772 287.56 2.00158 287.336 2.00158 287.06L2.00158 284.02C2.00158 283.744 1.77772 283.52 1.50158 283.52C1.22544 283.52 1.00158 283.744 1.00158 284.02L1.00158 287.06ZM1.00158 280.98C1.00158 281.256 1.22544 281.48 1.50158 281.48C1.77772 281.48 2.00158 281.256 2.00158 280.98L2.00158 277.94C2.00158 277.664 1.77772 277.44 1.50158 277.44C1.22544 277.44 1.00158 277.664 1.00158 277.94L1.00158 280.98ZM1.00158 274.9C1.00158 275.176 1.22544 275.4 1.50158 275.4C1.77772 275.4 2.00158 275.176 2.00158 274.9L2.00158 271.86C2.00158 271.584 1.77772 271.36 1.50158 271.36C1.22544 271.36 1.00158 271.584 1.00158 271.86L1.00158 274.9ZM1.00158 268.82C1.00158 269.096 1.22544 269.32 1.50158 269.32C1.77772 269.32 2.00158 269.096 2.00158 268.82L2.00158 265.78C2.00158 265.504 1.77772 265.28 1.50158 265.28C1.22544 265.28 1.00158 265.504 1.00158 265.78L1.00158 268.82ZM1.00158 262.74C1.00158 263.016 1.22544 263.24 1.50158 263.24C1.77772 263.24 2.00158 263.016 2.00158 262.74L2.00158 259.7C2.00158 259.424 1.77772 259.2 1.50158 259.2C1.22544 259.2 1.00158 259.424 1.00158 259.7L1.00158 262.74ZM1.00158 256.66C1.00158 256.936 1.22544 257.16 1.50158 257.16C1.77772 257.16 2.00158 256.936 2.00158 256.66L2.00158 253.62C2.00158 253.344 1.77772 253.12 1.50158 253.12C1.22544 253.12 1.00158 253.344 1.00158 253.62L1.00158 256.66ZM1.00158 250.58C1.00158 250.856 1.22544 251.08 1.50158 251.08C1.77772 251.08 2.00158 250.856 2.00158 250.58L2.00158 247.54C2.00158 247.264 1.77772 247.04 1.50158 247.04C1.22544 247.04 1.00158 247.264 1.00158 247.54L1.00158 250.58ZM1.00158 244.5C1.00158 244.776 1.22544 245 1.50158 245C1.77772 245 2.00158 244.776 2.00158 244.5L2.00158 241.46C2.00158 241.184 1.77772 240.96 1.50158 240.96C1.22544 240.96 1.00158 241.184 1.00158 241.46L1.00158 244.5ZM1.00158 238.42C1.00158 238.696 1.22544 238.92 1.50158 238.92C1.77772 238.92 2.00158 238.696 2.00158 238.42L2.00158 235.38C2.00158 235.104 1.77772 234.88 1.50158 234.88C1.22544 234.88 1.00158 235.104 1.00158 235.38L1.00158 238.42ZM1.00158 232.34C1.00158 232.616 1.22544 232.84 1.50158 232.84C1.77772 232.84 2.00158 232.616 2.00158 232.34L2.00158 229.3C2.00158 229.024 1.77772 228.8 1.50158 228.8C1.22544 228.8 1.00158 229.024 1.00158 229.3L1.00158 232.34ZM1.00158 226.26C1.00158 226.536 1.22544 226.76 1.50158 226.76C1.77772 226.76 2.00158 226.536 2.00158 226.26L2.00158 223.22C2.00158 222.944 1.77772 222.72 1.50158 222.72C1.22544 222.72 1.00158 222.944 1.00158 223.22L1.00158 226.26ZM1.00158 220.18C1.00158 220.456 1.22544 220.68 1.50158 220.68C1.77772 220.68 2.00158 220.456 2.00158 220.18L2.00158 217.14C2.00158 216.864 1.77772 216.64 1.50158 216.64C1.22544 216.64 1.00158 216.864 1.00158 217.14L1.00158 220.18ZM1.00158 214.1C1.00158 214.376 1.22544 214.6 1.50158 214.6C1.77772 214.6 2.00158 214.376 2.00158 214.1L2.00158 211.06C2.00158 210.784 1.77772 210.56 1.50158 210.56C1.22544 210.56 1.00158 210.784 1.00158 211.06L1.00158 214.1ZM1.00158 208.02C1.00158 208.296 1.22544 208.52 1.50158 208.52C1.77772 208.52 2.00158 208.296 2.00158 208.02L2.00158 206.765L3.03079 206.44C3.29417 206.357 3.44043 206.077 3.35747 205.813C3.27451 205.55 2.99374 205.404 2.73035 205.487L1.17804 205.976C0.914656 206.059 0.768395 206.339 0.851358 206.603C0.880345 206.695 0.933479 206.772 1.00158 206.831L1.00158 208.02ZM5.65158 358.5C5.65158 358.224 5.87543 358 6.15158 358H9.25158C9.52772 358 9.75158 358.224 9.75158 358.5C9.75158 358.776 9.52772 359 9.25158 359H6.15158C5.87543 359 5.65158 358.776 5.65158 358.5ZM11.8516 358.5C11.8516 358.224 12.0754 358 12.3516 358H15.4516C15.7277 358 15.9516 358.224 15.9516 358.5C15.9516 358.776 15.7277 359 15.4516 359H12.3516C12.0754 359 11.8516 358.776 11.8516 358.5ZM18.0516 358.5C18.0516 358.224 18.2754 358 18.5516 358H21.6516C21.9277 358 22.1516 358.224 22.1516 358.5C22.1516 358.776 21.9277 359 21.6516 359H18.5516C18.2754 359 18.0516 358.776 18.0516 358.5ZM24.2516 358.5C24.2516 358.224 24.4754 358 24.7516 358H27.8516C28.1277 358 28.3516 358.224 28.3516 358.5C28.3516 358.776 28.1277 359 27.8516 359H24.7516C24.4754 359 24.2516 358.776 24.2516 358.5ZM30.4516 358.5C30.4516 358.224 30.6754 358 30.9516 358H32.5016C32.7777 358 33.0016 358.224 33.0016 358.5C33.0016 358.776 32.7777 359 32.5016 359H30.9516C30.6754 359 30.4516 358.776 30.4516 358.5ZM6.15158 126C5.87543 126 5.65158 126.224 5.65158 126.5C5.65158 126.776 5.87543 127 6.15158 127H9.25158C9.52772 127 9.75158 126.776 9.75158 126.5C9.75158 126.224 9.52772 126 9.25158 126H6.15158ZM12.3516 126C12.0754 126 11.8516 126.224 11.8516 126.5C11.8516 126.776 12.0754 127 12.3516 127H15.4516C15.7277 127 15.9516 126.776 15.9516 126.5C15.9516 126.224 15.7277 126 15.4516 126H12.3516ZM18.5516 126C18.2754 126 18.0516 126.224 18.0516 126.5C18.0516 126.776 18.2754 127 18.5516 127H21.6516C21.9277 127 22.1516 126.776 22.1516 126.5C22.1516 126.224 21.9277 126 21.6516 126H18.5516ZM24.7516 126C24.4754 126 24.2516 126.224 24.2516 126.5C24.2516 126.776 24.4754 127 24.7516 127H27.8516C28.1277 127 28.3516 126.776 28.3516 126.5C28.3516 126.224 28.1277 126 27.8516 126H24.7516ZM30.9516 126C30.6754 126 30.4516 126.224 30.4516 126.5C30.4516 126.776 30.6754 127 30.9516 127H32.5016C32.7777 127 33.0016 126.776 33.0016 126.5C33.0016 126.224 32.7777 126 32.5016 126H30.9516ZM5.65158 305.5C5.65158 305.224 5.87543 305 6.15158 305H9.25158C9.52772 305 9.75158 305.224 9.75158 305.5C9.75158 305.776 9.52772 306 9.25158 306H6.15158C5.87543 306 5.65158 305.776 5.65158 305.5ZM11.8516 305.5C11.8516 305.224 12.0754 305 12.3516 305H15.4516C15.7277 305 15.9516 305.224 15.9516 305.5C15.9516 305.776 15.7277 306 15.4516 306H12.3516C12.0754 306 11.8516 305.776 11.8516 305.5ZM18.0516 305.5C18.0516 305.224 18.2754 305 18.5516 305H21.6516C21.9277 305 22.1516 305.224 22.1516 305.5C22.1516 305.776 21.9277 306 21.6516 306H18.5516C18.2754 306 18.0516 305.776 18.0516 305.5ZM24.2516 305.5C24.2516 305.224 24.4754 305 24.7516 305H27.8516C28.1277 305 28.3516 305.224 28.3516 305.5C28.3516 305.776 28.1277 306 27.8516 306H24.7516C24.4754 306 24.2516 305.776 24.2516 305.5ZM30.4516 305.5C30.4516 305.224 30.6754 305 30.9516 305H32.5016C32.7777 305 33.0016 305.224 33.0016 305.5C33.0016 305.776 32.7777 306 32.5016 306H30.9516C30.6754 306 30.4516 305.776 30.4516 305.5ZM1.50158 73C1.22543 73 1.00158 73.2239 1.00158 73.5C1.00158 73.7761 1.22543 74 1.50158 74H3.05158C3.32772 74 3.55158 73.7761 3.55158 73.5C3.55158 73.2239 3.32772 73 3.05158 73H1.50158ZM6.15158 73C5.87543 73 5.65158 73.2239 5.65158 73.5C5.65158 73.7761 5.87543 74 6.15158 74H9.25158C9.52772 74 9.75158 73.7761 9.75158 73.5C9.75158 73.2239 9.52772 73 9.25158 73H6.15158ZM12.3516 73C12.0754 73 11.8516 73.2239 11.8516 73.5C11.8516 73.7761 12.0754 74 12.3516 74H15.4516C15.7277 74 15.9516 73.7761 15.9516 73.5C15.9516 73.2239 15.7277 73 15.4516 73H12.3516ZM18.5516 73C18.2754 73 18.0516 73.2239 18.0516 73.5C18.0516 73.7761 18.2754 74 18.5516 74H21.6516C21.9277 74 22.1516 73.7761 22.1516 73.5C22.1516 73.2239 21.9277 73 21.6516 73H18.5516ZM24.7516 73C24.4754 73 24.2516 73.2239 24.2516 73.5C24.2516 73.7761 24.4754 74 24.7516 74H27.8516C28.1277 74 28.3516 73.7761 28.3516 73.5C28.3516 73.2239 28.1277 73 27.8516 73H24.7516ZM30.9516 73C30.6754 73 30.4516 73.2239 30.4516 73.5C30.4516 73.7761 30.6754 74 30.9516 74H32.5016C32.7777 74 33.0016 73.7761 33.0016 73.5C33.0016 73.2239 32.7777 73 32.5016 73H30.9516ZM1.00158 252.5C1.00158 252.224 1.22543 252 1.50158 252H3.05158C3.32772 252 3.55158 252.224 3.55158 252.5C3.55158 252.776 3.32772 253 3.05158 253H1.50158C1.22543 253 1.00158 252.776 1.00158 252.5ZM5.65158 252.5C5.65158 252.224 5.87543 252 6.15158 252H9.25158C9.52772 252 9.75158 252.224 9.75158 252.5C9.75158 252.776 9.52772 253 9.25158 253H6.15158C5.87543 253 5.65158 252.776 5.65158 252.5ZM11.8516 252.5C11.8516 252.224 12.0754 252 12.3516 252H15.4516C15.7277 252 15.9516 252.224 15.9516 252.5C15.9516 252.776 15.7277 253 15.4516 253H12.3516C12.0754 253 11.8516 252.776 11.8516 252.5ZM18.0516 252.5C18.0516 252.224 18.2754 252 18.5516 252H21.6516C21.9277 252 22.1516 252.224 22.1516 252.5C22.1516 252.776 21.9277 253 21.6516 253H18.5516C18.2754 253 18.0516 252.776 18.0516 252.5ZM24.2516 252.5C24.2516 252.224 24.4754 252 24.7516 252H27.8516C28.1277 252 28.3516 252.224 28.3516 252.5C28.3516 252.776 28.1277 253 27.8516 253H24.7516C24.4754 253 24.2516 252.776 24.2516 252.5ZM30.4516 252.5C30.4516 252.224 30.6754 252 30.9516 252H32.5016C32.7777 252 33.0016 252.224 33.0016 252.5C33.0016 252.776 32.7777 253 32.5016 253H30.9516C30.6754 253 30.4516 252.776 30.4516 252.5ZM5.50829 205.136C5.42532 204.872 5.57159 204.592 5.83497 204.509L8.93959 203.531C9.20298 203.448 9.48375 203.594 9.56671 203.857C9.64967 204.121 9.50341 204.402 9.24003 204.485L6.13541 205.462C5.87202 205.545 5.59125 205.399 5.50829 205.136ZM11.7175 203.18C11.6346 202.917 11.7808 202.636 12.0442 202.553L15.1488 201.575C15.4122 201.492 15.693 201.638 15.7759 201.902C15.8589 202.165 15.7127 202.446 15.4493 202.529L12.3446 203.507C12.0813 203.59 11.8005 203.443 11.7175 203.18ZM17.9268 201.224C17.8438 200.961 17.9901 200.68 18.2534 200.597L21.3581 199.619C21.6215 199.536 21.9022 199.682 21.9852 199.946C22.0682 200.209 21.9219 200.49 21.6585 200.573L18.5539 201.551C18.2905 201.634 18.0097 201.488 17.9268 201.224ZM24.136 199.268C24.053 199.005 24.1993 198.724 24.4627 198.641L27.5673 197.663C27.8307 197.58 28.1115 197.727 28.1944 197.99C28.2774 198.253 28.1311 198.534 27.8677 198.617L24.7631 199.595C24.4997 199.678 24.219 199.532 24.136 199.268ZM30.3452 197.312C30.2623 197.049 30.4085 196.768 30.6719 196.685L32.2242 196.196C32.4876 196.113 32.7684 196.26 32.8514 196.523C32.9343 196.786 32.7881 197.067 32.5247 197.15L30.9724 197.639C30.709 197.722 30.4282 197.576 30.3452 197.312ZM5.83497 175.571C5.57159 175.488 5.42532 175.207 5.50829 174.944C5.59125 174.68 5.87202 174.534 6.13541 174.617L9.24003 175.595C9.50341 175.678 9.64967 175.959 9.56671 176.222C9.48375 176.486 9.20298 176.632 8.93959 176.549L5.83497 175.571ZM12.0442 177.527C11.7808 177.444 11.6346 177.163 11.7175 176.9C11.8005 176.636 12.0813 176.49 12.3446 176.573L15.4493 177.551C15.7127 177.634 15.8589 177.915 15.7759 178.178C15.693 178.441 15.4122 178.588 15.1488 178.505L12.0442 177.527ZM18.2534 179.483C17.9901 179.4 17.8438 179.119 17.9268 178.855C18.0097 178.592 18.2905 178.446 18.5539 178.529L21.6585 179.507C21.9219 179.59 22.0682 179.87 21.9852 180.134C21.9022 180.397 21.6215 180.543 21.3581 180.46L18.2534 179.483ZM24.4627 181.438C24.1993 181.355 24.053 181.075 24.136 180.811C24.219 180.548 24.4997 180.402 24.7631 180.485L27.8677 181.462C28.1311 181.545 28.2774 181.826 28.1944 182.09C28.1115 182.353 27.8307 182.499 27.5673 182.416L24.4627 181.438ZM30.6719 183.394C30.4085 183.311 30.2623 183.03 30.3452 182.767C30.4282 182.504 30.709 182.357 30.9724 182.44L32.5247 182.929C32.7881 183.012 32.9343 183.293 32.8514 183.556C32.7684 183.82 32.4876 183.966 32.2242 183.883L30.6719 183.394Z" fill="#F88C28"/>
<rect x="33.5" y="169.5" width="201" height="42" rx="3.5" fill="white"/>
<path d="M96.2097 196V185.2H100.38C100.985 185.2 101.512 185.325 101.962 185.575C102.412 185.825 102.762 186.162 103.012 186.587C103.262 187.007 103.387 187.472 103.387 187.982C103.387 188.562 103.232 189.08 102.922 189.535C102.612 189.985 102.197 190.297 101.677 190.472L101.662 190.105C102.362 190.305 102.912 190.655 103.312 191.155C103.712 191.655 103.912 192.26 103.912 192.97C103.912 193.595 103.78 194.135 103.515 194.59C103.25 195.04 102.877 195.387 102.397 195.632C101.917 195.877 101.36 196 100.725 196H96.2097ZM97.3197 194.942H100.455C100.895 194.942 101.29 194.865 101.64 194.71C101.99 194.55 102.265 194.325 102.465 194.035C102.67 193.745 102.772 193.395 102.772 192.985C102.772 192.585 102.68 192.225 102.495 191.905C102.31 191.585 102.057 191.33 101.737 191.14C101.422 190.945 101.062 190.847 100.657 190.847H97.3197V194.942ZM97.3197 189.805H100.372C100.717 189.805 101.032 189.727 101.317 189.572C101.602 189.412 101.827 189.195 101.992 188.92C102.162 188.645 102.247 188.327 102.247 187.967C102.247 187.457 102.07 187.042 101.715 186.722C101.365 186.402 100.917 186.242 100.372 186.242H97.3197V189.805ZM107.726 196.225C107.116 196.225 106.604 196.115 106.189 195.895C105.779 195.675 105.471 195.382 105.266 195.017C105.061 194.652 104.959 194.255 104.959 193.825C104.959 193.385 105.046 193.01 105.221 192.7C105.401 192.385 105.644 192.127 105.949 191.927C106.259 191.727 106.616 191.575 107.021 191.47C107.431 191.37 107.884 191.282 108.379 191.207C108.879 191.127 109.366 191.06 109.841 191.005C110.321 190.945 110.741 190.887 111.101 190.832L110.711 191.072C110.726 190.272 110.571 189.68 110.246 189.295C109.921 188.91 109.356 188.717 108.551 188.717C107.996 188.717 107.526 188.842 107.141 189.092C106.761 189.342 106.494 189.737 106.339 190.277L105.266 189.962C105.451 189.237 105.824 188.675 106.384 188.275C106.944 187.875 107.671 187.675 108.566 187.675C109.306 187.675 109.934 187.815 110.449 188.095C110.969 188.37 111.336 188.77 111.551 189.295C111.651 189.53 111.716 189.792 111.746 190.082C111.776 190.372 111.791 190.667 111.791 190.967V196H110.809V193.967L111.094 194.087C110.819 194.782 110.391 195.312 109.811 195.677C109.231 196.043 108.536 196.225 107.726 196.225ZM107.854 195.272C108.369 195.272 108.819 195.18 109.204 194.995C109.589 194.81 109.899 194.557 110.134 194.237C110.369 193.912 110.521 193.547 110.591 193.142C110.651 192.882 110.684 192.597 110.689 192.287C110.694 191.972 110.696 191.737 110.696 191.582L111.116 191.8C110.741 191.85 110.334 191.9 109.894 191.95C109.459 192 109.029 192.057 108.604 192.122C108.184 192.187 107.804 192.265 107.464 192.355C107.234 192.42 107.011 192.512 106.796 192.632C106.581 192.747 106.404 192.902 106.264 193.097C106.129 193.292 106.061 193.535 106.061 193.825C106.061 194.06 106.119 194.287 106.234 194.507C106.354 194.727 106.544 194.91 106.804 195.055C107.069 195.2 107.419 195.272 107.854 195.272ZM113.736 196V187.9H114.809V194.98H117.846V187.9H118.919V194.98H121.949V187.9H123.021V196H113.736ZM128.121 196V187.9H129.224V191.417H133.791V187.9H134.894V196H133.791V192.475H129.224V196H128.121ZM140.373 196.225C139.568 196.225 138.881 196.043 138.311 195.677C137.741 195.312 137.303 194.807 136.998 194.162C136.693 193.517 136.541 192.777 136.541 191.942C136.541 191.092 136.696 190.347 137.006 189.707C137.316 189.067 137.756 188.57 138.326 188.215C138.901 187.855 139.583 187.675 140.373 187.675C141.183 187.675 141.873 187.857 142.443 188.222C143.018 188.582 143.456 189.085 143.756 189.73C144.061 190.37 144.213 191.107 144.213 191.942C144.213 192.792 144.061 193.54 143.756 194.185C143.451 194.825 143.011 195.325 142.436 195.685C141.861 196.045 141.173 196.225 140.373 196.225ZM140.373 195.167C141.273 195.167 141.943 194.87 142.383 194.275C142.823 193.675 143.043 192.897 143.043 191.942C143.043 190.962 142.821 190.182 142.376 189.602C141.936 189.022 141.268 188.732 140.373 188.732C139.768 188.732 139.268 188.87 138.873 189.145C138.483 189.415 138.191 189.792 137.996 190.277C137.806 190.757 137.711 191.312 137.711 191.942C137.711 192.917 137.936 193.7 138.386 194.29C138.836 194.875 139.498 195.167 140.373 195.167ZM145.86 196V187.9H146.843L150 194.53L153.165 187.9H154.14V196H153.075V190.255L150.353 196H149.655L146.933 190.255V196H145.86ZM159.666 196.225C158.876 196.225 158.191 196.05 157.611 195.7C157.036 195.35 156.589 194.857 156.269 194.222C155.949 193.587 155.789 192.842 155.789 191.987C155.789 191.102 155.946 190.337 156.261 189.692C156.576 189.047 157.019 188.55 157.589 188.2C158.164 187.85 158.841 187.675 159.621 187.675C160.421 187.675 161.104 187.86 161.669 188.23C162.234 188.595 162.661 189.12 162.951 189.805C163.241 190.49 163.374 191.307 163.349 192.257H162.224V191.868C162.204 190.817 161.976 190.025 161.541 189.49C161.111 188.955 160.481 188.687 159.651 188.687C158.781 188.687 158.114 188.97 157.649 189.535C157.189 190.1 156.959 190.905 156.959 191.95C156.959 192.97 157.189 193.762 157.649 194.327C158.114 194.887 158.771 195.167 159.621 195.167C160.201 195.167 160.706 195.035 161.136 194.77C161.571 194.5 161.914 194.112 162.164 193.607L163.191 194.005C162.871 194.71 162.399 195.257 161.774 195.647C161.154 196.033 160.451 196.225 159.666 196.225ZM156.569 192.257V191.335H162.756V192.257H156.569ZM168.651 196.225C167.906 196.225 167.276 196.038 166.761 195.662C166.246 195.282 165.856 194.77 165.591 194.125C165.326 193.475 165.193 192.747 165.193 191.942C165.193 191.122 165.326 190.392 165.591 189.752C165.861 189.107 166.256 188.6 166.776 188.23C167.296 187.86 167.936 187.675 168.696 187.675C169.436 187.675 170.071 187.862 170.601 188.237C171.131 188.612 171.536 189.122 171.816 189.767C172.101 190.412 172.243 191.137 172.243 191.942C172.243 192.752 172.101 193.48 171.816 194.125C171.531 194.77 171.121 195.282 170.586 195.662C170.051 196.038 169.406 196.225 168.651 196.225ZM165.006 199.6V187.9H165.996V193.997H166.116V199.6H165.006ZM168.538 195.197C169.103 195.197 169.573 195.055 169.948 194.77C170.323 194.485 170.603 194.097 170.788 193.607C170.978 193.112 171.073 192.557 171.073 191.942C171.073 191.332 170.981 190.782 170.796 190.292C170.611 189.802 170.328 189.415 169.948 189.13C169.573 188.845 169.096 188.702 168.516 188.702C167.951 188.702 167.481 188.84 167.106 189.115C166.736 189.39 166.458 189.772 166.273 190.262C166.088 190.747 165.996 191.307 165.996 191.942C165.996 192.567 166.088 193.127 166.273 193.622C166.458 194.112 166.738 194.497 167.113 194.777C167.488 195.057 167.963 195.197 168.538 195.197Z" fill="#344351"/>
<rect x="33.5" y="169.5" width="201" height="42" rx="3.5" stroke="#344351"/>
<rect x="33.5" y="232.5" width="158" height="42" rx="3.5" fill="white"/>
<path d="M66.2486 259V253.93L66.5561 254.402C66.2111 254.647 65.7886 254.847 65.2886 255.002C64.7886 255.152 64.2236 255.227 63.5936 255.227C62.6586 255.227 61.9086 255.055 61.3436 254.71C60.7836 254.365 60.3786 253.89 60.1286 253.285C59.8786 252.675 59.7536 251.977 59.7536 251.192V248.2H60.8636V250.81C60.8636 251.31 60.9111 251.765 61.0061 252.175C61.1011 252.585 61.2586 252.937 61.4786 253.232C61.6986 253.527 61.9911 253.755 62.3561 253.915C62.7211 254.07 63.1711 254.147 63.7061 254.147C64.3711 254.147 64.9436 254.047 65.4236 253.847C65.9036 253.642 66.2561 253.422 66.4811 253.187L66.2486 254.072V248.2H67.3511V259H66.2486ZM73.6659 249.317V248.117H74.8659V249.317H73.6659ZM70.8084 249.317V248.117H72.0084V249.317H70.8084ZM72.8784 259.225C72.0884 259.225 71.4034 259.05 70.8234 258.7C70.2484 258.35 69.8009 257.857 69.4809 257.222C69.1609 256.587 69.0009 255.842 69.0009 254.987C69.0009 254.102 69.1584 253.337 69.4734 252.692C69.7884 252.047 70.2309 251.55 70.8009 251.2C71.3759 250.85 72.0534 250.675 72.8334 250.675C73.6334 250.675 74.3159 250.86 74.8809 251.23C75.4459 251.595 75.8734 252.12 76.1634 252.805C76.4534 253.49 76.5859 254.307 76.5609 255.257H75.4359V254.868C75.4159 253.817 75.1884 253.025 74.7534 252.49C74.3234 251.955 73.6934 251.687 72.8634 251.687C71.9934 251.687 71.3259 251.97 70.8609 252.535C70.4009 253.1 70.1709 253.905 70.1709 254.95C70.1709 255.97 70.4009 256.762 70.8609 257.327C71.3259 257.887 71.9834 258.167 72.8334 258.167C73.4134 258.167 73.9184 258.035 74.3484 257.77C74.7834 257.5 75.1259 257.112 75.3759 256.607L76.4034 257.005C76.0834 257.71 75.6109 258.257 74.9859 258.647C74.3659 259.033 73.6634 259.225 72.8784 259.225ZM69.7809 255.257V254.335H75.9684V255.257H69.7809ZM81.8628 259.225C81.1178 259.225 80.4878 259.038 79.9728 258.662C79.4578 258.282 79.0678 257.77 78.8028 257.125C78.5378 256.475 78.4053 255.747 78.4053 254.942C78.4053 254.122 78.5378 253.392 78.8028 252.752C79.0728 252.107 79.4678 251.6 79.9878 251.23C80.5078 250.86 81.1478 250.675 81.9078 250.675C82.6478 250.675 83.2828 250.862 83.8128 251.237C84.3428 251.612 84.7478 252.122 85.0278 252.767C85.3128 253.412 85.4553 254.137 85.4553 254.942C85.4553 255.752 85.3128 256.48 85.0278 257.125C84.7428 257.77 84.3328 258.282 83.7978 258.662C83.2628 259.038 82.6178 259.225 81.8628 259.225ZM78.2178 262.6V250.9H79.2078V256.997H79.3278V262.6H78.2178ZM81.7503 258.197C82.3153 258.197 82.7853 258.055 83.1603 257.77C83.5353 257.485 83.8153 257.097 84.0003 256.607C84.1903 256.112 84.2853 255.557 84.2853 254.942C84.2853 254.332 84.1928 253.782 84.0078 253.292C83.8228 252.802 83.5403 252.415 83.1603 252.13C82.7853 251.845 82.3078 251.702 81.7278 251.702C81.1628 251.702 80.6928 251.84 80.3178 252.115C79.9478 252.39 79.6703 252.772 79.4853 253.262C79.3003 253.747 79.2078 254.307 79.2078 254.942C79.2078 255.567 79.3003 256.127 79.4853 256.622C79.6703 257.112 79.9503 257.497 80.3253 257.777C80.7003 258.057 81.1753 258.197 81.7503 258.197ZM87.0947 259V250.9H88.1972V254.417H92.7647V250.9H93.8672V259H92.7647V255.475H88.1972V259H87.0947ZM95.9721 259L95.9571 250.9H97.0671V253.952H98.4771C98.7121 253.952 98.9421 253.957 99.1671 253.967C99.3921 253.977 99.5946 253.997 99.7746 254.027C100.175 254.107 100.53 254.242 100.84 254.432C101.15 254.622 101.395 254.885 101.575 255.22C101.755 255.55 101.845 255.967 101.845 256.472C101.845 257.167 101.665 257.715 101.305 258.115C100.945 258.515 100.492 258.775 99.9471 258.895C99.7421 258.94 99.5196 258.97 99.2796 258.985C99.0396 258.995 98.8046 259 98.5746 259H95.9721ZM97.0671 258.055H98.5296C98.6946 258.055 98.8821 258.05 99.0921 258.04C99.3021 258.03 99.4871 258.002 99.6471 257.957C99.9171 257.882 100.16 257.732 100.375 257.507C100.595 257.277 100.705 256.932 100.705 256.472C100.705 256.017 100.6 255.675 100.39 255.445C100.18 255.21 99.8996 255.055 99.5496 254.98C99.3896 254.945 99.2196 254.922 99.0396 254.912C98.8646 254.902 98.6946 254.897 98.5296 254.897H97.0671V258.055ZM102.812 259V250.9H103.915V259H102.812ZM109.373 249.94C109.018 249.94 108.693 249.852 108.398 249.677C108.103 249.502 107.868 249.27 107.693 248.98C107.523 248.685 107.438 248.36 107.438 248.005H108.353C108.353 248.285 108.453 248.525 108.653 248.725C108.853 248.925 109.093 249.025 109.373 249.025C109.658 249.025 109.898 248.925 110.093 248.725C110.293 248.525 110.393 248.285 110.393 248.005H111.308C111.308 248.36 111.221 248.685 111.046 248.98C110.876 249.27 110.643 249.502 110.348 249.677C110.053 249.852 109.728 249.94 109.373 249.94ZM112.448 250.9V259H111.376V252.692L106.936 259H106.006V250.9H107.078V257.155L111.526 250.9H112.448ZM120.916 259.225C120.101 259.225 119.411 259.043 118.846 258.677C118.281 258.312 117.851 257.81 117.556 257.17C117.266 256.525 117.116 255.785 117.106 254.95C117.116 254.1 117.271 253.355 117.571 252.715C117.871 252.07 118.304 251.57 118.869 251.215C119.434 250.855 120.119 250.675 120.924 250.675C121.744 250.675 122.456 250.875 123.061 251.275C123.671 251.675 124.089 252.222 124.314 252.917L123.234 253.262C123.044 252.777 122.741 252.402 122.326 252.137C121.916 251.867 121.446 251.732 120.916 251.732C120.321 251.732 119.829 251.87 119.439 252.145C119.049 252.415 118.759 252.792 118.569 253.277C118.379 253.762 118.281 254.32 118.276 254.95C118.286 255.92 118.511 256.7 118.951 257.29C119.391 257.875 120.046 258.167 120.916 258.167C121.466 258.167 121.934 258.042 122.319 257.792C122.709 257.537 123.004 257.167 123.204 256.682L124.314 257.012C124.014 257.732 123.574 258.282 122.994 258.662C122.414 259.038 121.721 259.225 120.916 259.225ZM125.855 259V250.9H132.297V259H131.195V251.957H126.957V259H125.855ZM140.837 250.9V259H139.765V252.692L135.325 259H134.395V250.9H135.467V257.155L139.915 250.9H140.837ZM146.302 259.225C145.487 259.225 144.797 259.043 144.232 258.677C143.667 258.312 143.237 257.81 142.942 257.17C142.652 256.525 142.502 255.785 142.492 254.95C142.502 254.1 142.657 253.355 142.957 252.715C143.257 252.07 143.69 251.57 144.255 251.215C144.82 250.855 145.505 250.675 146.31 250.675C147.13 250.675 147.842 250.875 148.447 251.275C149.057 251.675 149.475 252.222 149.7 252.917L148.62 253.262C148.43 252.777 148.127 252.402 147.712 252.137C147.302 251.867 146.832 251.732 146.302 251.732C145.707 251.732 145.215 251.87 144.825 252.145C144.435 252.415 144.145 252.792 143.955 253.277C143.765 253.762 143.667 254.32 143.662 254.95C143.672 255.92 143.897 256.7 144.337 257.29C144.777 257.875 145.432 258.167 146.302 258.167C146.852 258.167 147.32 258.042 147.705 257.792C148.095 257.537 148.39 257.167 148.59 256.682L149.7 257.012C149.4 257.732 148.96 258.282 148.38 258.662C147.8 259.038 147.107 259.225 146.302 259.225ZM154.411 259.225C153.606 259.225 152.918 259.043 152.348 258.677C151.778 258.312 151.341 257.807 151.036 257.162C150.731 256.517 150.578 255.777 150.578 254.942C150.578 254.092 150.733 253.347 151.043 252.707C151.353 252.067 151.793 251.57 152.363 251.215C152.938 250.855 153.621 250.675 154.411 250.675C155.221 250.675 155.911 250.857 156.481 251.222C157.056 251.582 157.493 252.085 157.793 252.73C158.098 253.37 158.251 254.107 158.251 254.942C158.251 255.792 158.098 256.54 157.793 257.185C157.488 257.825 157.048 258.325 156.473 258.685C155.898 259.045 155.211 259.225 154.411 259.225ZM154.411 258.167C155.311 258.167 155.981 257.87 156.421 257.275C156.861 256.675 157.081 255.897 157.081 254.942C157.081 253.962 156.858 253.182 156.413 252.602C155.973 252.022 155.306 251.732 154.411 251.732C153.806 251.732 153.306 251.87 152.911 252.145C152.521 252.415 152.228 252.792 152.033 253.277C151.843 253.757 151.748 254.312 151.748 254.942C151.748 255.917 151.973 256.7 152.423 257.29C152.873 257.875 153.536 258.167 154.411 258.167ZM159.897 259L159.905 250.9H161.015V254.8L164.63 250.9H166.1L162.305 254.95L166.595 259H164.99L161.015 255.1V259H159.897Z" fill="#344351"/>
<rect x="33.5" y="232.5" width="158" height="42" rx="3.5" stroke="#344351"/>
<rect x="33.5" y="0.5" width="158" height="42" rx="3.5" fill="white"/>
<path d="M54.2238 27V16.2H60.9738V17.2575H55.3263V27H54.2238ZM64.3593 27.225C63.5543 27.225 62.8668 27.0425 62.2968 26.6775C61.7268 26.3125 61.2893 25.8075 60.9843 25.1625C60.6793 24.5175 60.5268 23.7775 60.5268 22.9425C60.5268 22.0925 60.6818 21.3475 60.9918 20.7075C61.3018 20.0675 61.7418 19.57 62.3118 19.215C62.8868 18.855 63.5693 18.675 64.3593 18.675C65.1693 18.675 65.8593 18.8575 66.4293 19.2225C67.0043 19.5825 67.4418 20.085 67.7418 20.73C68.0468 21.37 68.1993 22.1075 68.1993 22.9425C68.1993 23.7925 68.0468 24.54 67.7418 25.185C67.4368 25.825 66.9968 26.325 66.4218 26.685C65.8468 27.045 65.1593 27.225 64.3593 27.225ZM64.3593 26.1675C65.2593 26.1675 65.9293 25.87 66.3693 25.275C66.8093 24.675 67.0293 23.8975 67.0293 22.9425C67.0293 21.9625 66.8068 21.1825 66.3618 20.6025C65.9218 20.0225 65.2543 19.7325 64.3593 19.7325C63.7543 19.7325 63.2543 19.87 62.8593 20.145C62.4693 20.415 62.1768 20.7925 61.9818 21.2775C61.7918 21.7575 61.6968 22.3125 61.6968 22.9425C61.6968 23.9175 61.9218 24.7 62.3718 25.29C62.8218 25.875 63.4843 26.1675 64.3593 26.1675ZM69.1037 27V26.0325C69.4037 26.0875 69.6312 26.075 69.7862 25.995C69.9462 25.91 70.0637 25.77 70.1387 25.575C70.2137 25.375 70.2762 25.1275 70.3262 24.8325C70.4062 24.3425 70.4787 23.8025 70.5437 23.2125C70.6087 22.6225 70.6662 21.9725 70.7162 21.2625C70.7712 20.5475 70.8262 19.76 70.8812 18.9H76.3862V27H75.2912V19.9575H71.9012C71.8662 20.4875 71.8262 21.015 71.7812 21.54C71.7362 22.065 71.6887 22.57 71.6387 23.055C71.5937 23.535 71.5437 23.9775 71.4887 24.3825C71.4337 24.7875 71.3762 25.1375 71.3162 25.4325C71.2262 25.8775 71.1062 26.2325 70.9562 26.4975C70.8112 26.7625 70.5937 26.9375 70.3037 27.0225C70.0137 27.1075 69.6137 27.1 69.1037 27ZM81.8641 27.225C81.0591 27.225 80.3716 27.0425 79.8016 26.6775C79.2316 26.3125 78.7941 25.8075 78.4891 25.1625C78.1841 24.5175 78.0316 23.7775 78.0316 22.9425C78.0316 22.0925 78.1866 21.3475 78.4966 20.7075C78.8066 20.0675 79.2466 19.57 79.8166 19.215C80.3916 18.855 81.0741 18.675 81.8641 18.675C82.6741 18.675 83.3641 18.8575 83.9341 19.2225C84.5091 19.5825 84.9466 20.085 85.2466 20.73C85.5516 21.37 85.7041 22.1075 85.7041 22.9425C85.7041 23.7925 85.5516 24.54 85.2466 25.185C84.9416 25.825 84.5016 26.325 83.9266 26.685C83.3516 27.045 82.6641 27.225 81.8641 27.225ZM81.8641 26.1675C82.7641 26.1675 83.4341 25.87 83.8741 25.275C84.3141 24.675 84.5341 23.8975 84.5341 22.9425C84.5341 21.9625 84.3116 21.1825 83.8666 20.6025C83.4266 20.0225 82.7591 19.7325 81.8641 19.7325C81.2591 19.7325 80.7591 19.87 80.3641 20.145C79.9741 20.415 79.6816 20.7925 79.4866 21.2775C79.2966 21.7575 79.2016 22.3125 79.2016 22.9425C79.2016 23.9175 79.4266 24.7 79.8766 25.29C80.3266 25.875 80.9891 26.1675 81.8641 26.1675ZM90.7186 27.225C89.9036 27.225 89.2136 27.0425 88.6486 26.6775C88.0836 26.3125 87.6536 25.81 87.3586 25.17C87.0686 24.525 86.9186 23.785 86.9086 22.95C86.9186 22.1 87.0736 21.355 87.3736 20.715C87.6736 20.07 88.1061 19.57 88.6711 19.215C89.2361 18.855 89.9211 18.675 90.7261 18.675C91.5461 18.675 92.2586 18.875 92.8636 19.275C93.4736 19.675 93.8911 20.2225 94.1161 20.9175L93.0361 21.2625C92.8461 20.7775 92.5436 20.4025 92.1286 20.1375C91.7186 19.8675 91.2486 19.7325 90.7186 19.7325C90.1236 19.7325 89.6311 19.87 89.2411 20.145C88.8511 20.415 88.5611 20.7925 88.3711 21.2775C88.1811 21.7625 88.0836 22.32 88.0786 22.95C88.0886 23.92 88.3136 24.7 88.7536 25.29C89.1936 25.875 89.8486 26.1675 90.7186 26.1675C91.2686 26.1675 91.7361 26.0425 92.1211 25.7925C92.5111 25.5375 92.8061 25.1675 93.0061 24.6825L94.1161 25.0125C93.8161 25.7325 93.3761 26.2825 92.7961 26.6625C92.2161 27.0375 91.5236 27.225 90.7186 27.225ZM98.827 27.225C98.022 27.225 97.3345 27.0425 96.7645 26.6775C96.1945 26.3125 95.757 25.8075 95.452 25.1625C95.147 24.5175 94.9945 23.7775 94.9945 22.9425C94.9945 22.0925 95.1495 21.3475 95.4595 20.7075C95.7695 20.0675 96.2095 19.57 96.7795 19.215C97.3545 18.855 98.037 18.675 98.827 18.675C99.637 18.675 100.327 18.8575 100.897 19.2225C101.472 19.5825 101.91 20.085 102.21 20.73C102.515 21.37 102.667 22.1075 102.667 22.9425C102.667 23.7925 102.515 24.54 102.21 25.185C101.905 25.825 101.465 26.325 100.89 26.685C100.315 27.045 99.627 27.225 98.827 27.225ZM98.827 26.1675C99.727 26.1675 100.397 25.87 100.837 25.275C101.277 24.675 101.497 23.8975 101.497 22.9425C101.497 21.9625 101.275 21.1825 100.83 20.6025C100.39 20.0225 99.722 19.7325 98.827 19.7325C98.222 19.7325 97.722 19.87 97.327 20.145C96.937 20.415 96.6445 20.7925 96.4495 21.2775C96.2595 21.7575 96.1645 22.3125 96.1645 22.9425C96.1645 23.9175 96.3895 24.7 96.8395 25.29C97.2895 25.875 97.952 26.1675 98.827 26.1675ZM104.314 27V18.9H107.651C107.821 18.9 108.026 18.91 108.266 18.93C108.511 18.95 108.739 18.9875 108.949 19.0425C109.404 19.1625 109.769 19.4075 110.044 19.7775C110.324 20.1475 110.464 20.5925 110.464 21.1125C110.464 21.4025 110.419 21.6625 110.329 21.8925C110.244 22.1175 110.121 22.3125 109.961 22.4775C109.886 22.5625 109.804 22.6375 109.714 22.7025C109.624 22.7625 109.536 22.8125 109.451 22.8525C109.611 22.8825 109.784 22.9525 109.969 23.0625C110.259 23.2325 110.479 23.4625 110.629 23.7525C110.779 24.0375 110.854 24.385 110.854 24.795C110.854 25.35 110.721 25.8025 110.456 26.1525C110.191 26.5025 109.836 26.7425 109.391 26.8725C109.191 26.9275 108.974 26.9625 108.739 26.9775C108.509 26.9925 108.291 27 108.086 27H104.314ZM105.424 26.0625H108.034C108.139 26.0625 108.271 26.055 108.431 26.04C108.591 26.02 108.734 25.995 108.859 25.965C109.154 25.89 109.369 25.74 109.504 25.515C109.644 25.285 109.714 25.035 109.714 24.765C109.714 24.41 109.609 24.12 109.399 23.895C109.194 23.665 108.919 23.525 108.574 23.475C108.459 23.45 108.339 23.435 108.214 23.43C108.089 23.425 107.976 23.4225 107.876 23.4225H105.424V26.0625ZM105.424 22.4775H107.689C107.819 22.4775 107.964 22.47 108.124 22.455C108.289 22.435 108.431 22.4025 108.551 22.3575C108.811 22.2675 109.001 22.1125 109.121 21.8925C109.246 21.6725 109.309 21.4325 109.309 21.1725C109.309 20.8875 109.241 20.6375 109.106 20.4225C108.976 20.2075 108.779 20.0575 108.514 19.9725C108.334 19.9075 108.139 19.87 107.929 19.86C107.724 19.85 107.594 19.845 107.539 19.845H105.424V22.4775ZM115.731 27.225C114.926 27.225 114.239 27.0425 113.669 26.6775C113.099 26.3125 112.661 25.8075 112.356 25.1625C112.051 24.5175 111.899 23.7775 111.899 22.9425C111.899 22.0925 112.054 21.3475 112.364 20.7075C112.674 20.0675 113.114 19.57 113.684 19.215C114.259 18.855 114.941 18.675 115.731 18.675C116.541 18.675 117.231 18.8575 117.801 19.2225C118.376 19.5825 118.814 20.085 119.114 20.73C119.419 21.37 119.571 22.1075 119.571 22.9425C119.571 23.7925 119.419 24.54 119.114 25.185C118.809 25.825 118.369 26.325 117.794 26.685C117.219 27.045 116.531 27.225 115.731 27.225ZM115.731 26.1675C116.631 26.1675 117.301 25.87 117.741 25.275C118.181 24.675 118.401 23.8975 118.401 22.9425C118.401 21.9625 118.179 21.1825 117.734 20.6025C117.294 20.0225 116.626 19.7325 115.731 19.7325C115.126 19.7325 114.626 19.87 114.231 20.145C113.841 20.415 113.549 20.7925 113.354 21.2775C113.164 21.7575 113.069 22.3125 113.069 22.9425C113.069 23.9175 113.294 24.7 113.744 25.29C114.194 25.875 114.856 26.1675 115.731 26.1675ZM124.653 27.225C123.863 27.225 123.178 27.05 122.598 26.7C122.023 26.35 121.576 25.8575 121.256 25.2225C120.936 24.5875 120.776 23.8425 120.776 22.9875C120.776 22.1025 120.933 21.3375 121.248 20.6925C121.563 20.0475 122.006 19.55 122.576 19.2C123.151 18.85 123.828 18.675 124.608 18.675C125.408 18.675 126.091 18.86 126.656 19.23C127.221 19.595 127.648 20.12 127.938 20.805C128.228 21.49 128.361 22.3075 128.336 23.2575H127.211V22.8675C127.191 21.8175 126.963 21.025 126.528 20.49C126.098 19.955 125.468 19.6875 124.638 19.6875C123.768 19.6875 123.101 19.97 122.636 20.535C122.176 21.1 121.946 21.905 121.946 22.95C121.946 23.97 122.176 24.7625 122.636 25.3275C123.101 25.8875 123.758 26.1675 124.608 26.1675C125.188 26.1675 125.693 26.035 126.123 25.77C126.558 25.5 126.901 25.1125 127.151 24.6075L128.178 25.005C127.858 25.71 127.386 26.2575 126.761 26.6475C126.141 27.0325 125.438 27.225 124.653 27.225ZM121.556 23.2575V22.335H127.743V23.2575H121.556ZM132.996 27V18.9H133.978L137.136 25.53L140.301 18.9H141.276V27H140.211V21.255L137.488 27H136.791L134.068 21.255V27H132.996ZM146.802 27.225C146.012 27.225 145.327 27.05 144.747 26.7C144.172 26.35 143.724 25.8575 143.404 25.2225C143.084 24.5875 142.924 23.8425 142.924 22.9875C142.924 22.1025 143.082 21.3375 143.397 20.6925C143.712 20.0475 144.154 19.55 144.724 19.2C145.299 18.85 145.977 18.675 146.757 18.675C147.557 18.675 148.239 18.86 148.804 19.23C149.369 19.595 149.797 20.12 150.087 20.805C150.377 21.49 150.509 22.3075 150.484 23.2575H149.359V22.8675C149.339 21.8175 149.112 21.025 148.677 20.49C148.247 19.955 147.617 19.6875 146.787 19.6875C145.917 19.6875 145.249 19.97 144.784 20.535C144.324 21.1 144.094 21.905 144.094 22.95C144.094 23.97 144.324 24.7625 144.784 25.3275C145.249 25.8875 145.907 26.1675 146.757 26.1675C147.337 26.1675 147.842 26.035 148.272 25.77C148.707 25.5 149.049 25.1125 149.299 24.6075L150.327 25.005C150.007 25.71 149.534 26.2575 148.909 26.6475C148.289 27.0325 147.587 27.225 146.802 27.225ZM143.704 23.2575V22.335H149.892V23.2575H143.704ZM152.141 27V18.9H153.244V22.4175H157.811V18.9H158.914V27H157.811V23.475H153.244V27H152.141ZM167.386 27.225C166.671 27.225 166.048 27.0725 165.518 26.7675C164.988 26.4575 164.566 26.025 164.251 25.47C163.941 24.91 163.753 24.2525 163.688 23.4975H162.106V27H161.003V18.9H162.106V22.4025H163.681C163.746 21.6375 163.936 20.9775 164.251 20.4225C164.571 19.8625 164.996 19.4325 165.526 19.1325C166.061 18.8275 166.683 18.675 167.393 18.675C168.198 18.675 168.886 18.8575 169.456 19.2225C170.031 19.5875 170.468 20.09 170.768 20.73C171.073 21.37 171.226 22.105 171.226 22.935C171.226 23.785 171.071 24.5325 170.761 25.1775C170.456 25.8225 170.016 26.325 169.441 26.685C168.871 27.045 168.186 27.225 167.386 27.225ZM167.363 26.1675C168.273 26.1675 168.948 25.8725 169.388 25.2825C169.833 24.6875 170.056 23.9075 170.056 22.9425C170.056 21.9575 169.831 21.1775 169.381 20.6025C168.936 20.0225 168.266 19.7325 167.371 19.7325C166.516 19.7325 165.861 20.0175 165.406 20.5875C164.951 21.1525 164.723 21.935 164.723 22.935C164.723 23.915 164.946 24.7 165.391 25.29C165.841 25.875 166.498 26.1675 167.363 26.1675Z" fill="#344351"/>
<rect x="33.5" y="0.5" width="158" height="42" rx="3.5" stroke="#344351"/>
<rect x="33.5" y="285.5" width="158" height="42" rx="3.5" fill="white"/>
<path d="M54.9979 312.225C54.3229 312.225 53.7079 312.063 53.1529 311.737C52.6029 311.407 52.1629 310.962 51.8329 310.402C51.5079 309.837 51.3454 309.202 51.3454 308.497V304.755C51.3454 304.03 51.5079 303.385 51.8329 302.82C52.1579 302.25 52.6004 301.802 53.1604 301.477C53.7254 301.147 54.3654 300.982 55.0804 300.982C55.6954 300.982 56.2654 301.117 56.7904 301.387C57.3204 301.657 57.7529 302.035 58.0879 302.52L57.2404 303.217C57.0104 302.857 56.7054 302.57 56.3254 302.355C55.9454 302.14 55.5304 302.032 55.0804 302.032C54.5754 302.032 54.1254 302.155 53.7304 302.4C53.3354 302.645 53.0254 302.967 52.8004 303.367C52.5754 303.762 52.4629 304.192 52.4629 304.657V307.012L52.1854 306.697C52.5004 306.202 52.9129 305.802 53.4229 305.497C53.9379 305.192 54.4979 305.04 55.1029 305.04C55.7729 305.04 56.3754 305.2 56.9104 305.52C57.4454 305.835 57.8704 306.262 58.1854 306.802C58.5004 307.342 58.6579 307.947 58.6579 308.617C58.6579 309.282 58.4904 309.887 58.1554 310.432C57.8254 310.977 57.3829 311.412 56.8279 311.737C56.2779 312.063 55.6679 312.225 54.9979 312.225ZM54.9979 311.152C55.4679 311.152 55.8954 311.04 56.2804 310.815C56.6704 310.59 56.9779 310.285 57.2029 309.9C57.4329 309.515 57.5479 309.087 57.5479 308.617C57.5479 308.147 57.4329 307.72 57.2029 307.335C56.9779 306.945 56.6729 306.637 56.2879 306.412C55.9029 306.182 55.4754 306.067 55.0054 306.067C54.5354 306.067 54.1079 306.182 53.7229 306.412C53.3379 306.637 53.0304 306.945 52.8004 307.335C52.5754 307.72 52.4629 308.147 52.4629 308.617C52.4629 309.082 52.5754 309.507 52.8004 309.892C53.0254 310.277 53.3304 310.585 53.7154 310.815C54.1004 311.04 54.5279 311.152 54.9979 311.152ZM67.0101 312.225C66.1951 312.225 65.5051 312.043 64.9401 311.677C64.3751 311.312 63.9451 310.81 63.6501 310.17C63.3601 309.525 63.2101 308.785 63.2001 307.95C63.2101 307.1 63.3651 306.355 63.6651 305.715C63.9651 305.07 64.3976 304.57 64.9626 304.215C65.5276 303.855 66.2126 303.675 67.0176 303.675C67.8376 303.675 68.5501 303.875 69.1551 304.275C69.7651 304.675 70.1826 305.222 70.4076 305.917L69.3276 306.262C69.1376 305.777 68.8351 305.402 68.4201 305.137C68.0101 304.867 67.5401 304.732 67.0101 304.732C66.4151 304.732 65.9226 304.87 65.5326 305.145C65.1426 305.415 64.8526 305.792 64.6626 306.277C64.4726 306.762 64.3751 307.32 64.3701 307.95C64.3801 308.92 64.6051 309.7 65.0451 310.29C65.4851 310.875 66.1401 311.167 67.0101 311.167C67.5601 311.167 68.0276 311.042 68.4126 310.792C68.8026 310.537 69.0976 310.167 69.2976 309.682L70.4076 310.012C70.1076 310.732 69.6676 311.282 69.0876 311.662C68.5076 312.038 67.8151 312.225 67.0101 312.225ZM71.9483 312V303.9H78.3908V312H77.2883V304.957H73.0508V312H71.9483ZM83.8783 312.225C83.0733 312.225 82.3858 312.043 81.8158 311.677C81.2458 311.312 80.8083 310.807 80.5033 310.162C80.1983 309.517 80.0458 308.777 80.0458 307.942C80.0458 307.092 80.2008 306.347 80.5108 305.707C80.8208 305.067 81.2608 304.57 81.8308 304.215C82.4058 303.855 83.0883 303.675 83.8783 303.675C84.6883 303.675 85.3783 303.857 85.9483 304.222C86.5233 304.582 86.9608 305.085 87.2608 305.73C87.5658 306.37 87.7183 307.107 87.7183 307.942C87.7183 308.792 87.5658 309.54 87.2608 310.185C86.9558 310.825 86.5158 311.325 85.9408 311.685C85.3658 312.045 84.6783 312.225 83.8783 312.225ZM83.8783 311.167C84.7783 311.167 85.4483 310.87 85.8883 310.275C86.3283 309.675 86.5483 308.897 86.5483 307.942C86.5483 306.962 86.3258 306.182 85.8808 305.602C85.4408 305.022 84.7733 304.732 83.8783 304.732C83.2733 304.732 82.7733 304.87 82.3783 305.145C81.9883 305.415 81.6958 305.792 81.5008 306.277C81.3108 306.757 81.2158 307.312 81.2158 307.942C81.2158 308.917 81.4408 309.7 81.8908 310.29C82.3408 310.875 83.0033 311.167 83.8783 311.167ZM92.7328 312.225C91.9178 312.225 91.2278 312.043 90.6628 311.677C90.0978 311.312 89.6678 310.81 89.3728 310.17C89.0828 309.525 88.9328 308.785 88.9228 307.95C88.9328 307.1 89.0878 306.355 89.3878 305.715C89.6878 305.07 90.1203 304.57 90.6853 304.215C91.2503 303.855 91.9353 303.675 92.7403 303.675C93.5603 303.675 94.2728 303.875 94.8778 304.275C95.4878 304.675 95.9053 305.222 96.1303 305.917L95.0503 306.262C94.8603 305.777 94.5578 305.402 94.1428 305.137C93.7328 304.867 93.2628 304.732 92.7328 304.732C92.1378 304.732 91.6453 304.87 91.2553 305.145C90.8653 305.415 90.5753 305.792 90.3853 306.277C90.1953 306.762 90.0978 307.32 90.0928 307.95C90.1028 308.92 90.3278 309.7 90.7678 310.29C91.2078 310.875 91.8628 311.167 92.7328 311.167C93.2828 311.167 93.7503 311.042 94.1353 310.792C94.5253 310.537 94.8203 310.167 95.0203 309.682L96.1303 310.012C95.8303 310.732 95.3903 311.282 94.8103 311.662C94.2303 312.038 93.5378 312.225 92.7328 312.225ZM100.841 312.225C100.036 312.225 99.3487 312.043 98.7787 311.677C98.2087 311.312 97.7712 310.807 97.4662 310.162C97.1612 309.517 97.0087 308.777 97.0087 307.942C97.0087 307.092 97.1637 306.347 97.4737 305.707C97.7837 305.067 98.2237 304.57 98.7937 304.215C99.3687 303.855 100.051 303.675 100.841 303.675C101.651 303.675 102.341 303.857 102.911 304.222C103.486 304.582 103.924 305.085 104.224 305.73C104.529 306.37 104.681 307.107 104.681 307.942C104.681 308.792 104.529 309.54 104.224 310.185C103.919 310.825 103.479 311.325 102.904 311.685C102.329 312.045 101.641 312.225 100.841 312.225ZM100.841 311.167C101.741 311.167 102.411 310.87 102.851 310.275C103.291 309.675 103.511 308.897 103.511 307.942C103.511 306.962 103.289 306.182 102.844 305.602C102.404 305.022 101.736 304.732 100.841 304.732C100.236 304.732 99.7362 304.87 99.3412 305.145C98.9512 305.415 98.6587 305.792 98.4637 306.277C98.2737 306.757 98.1787 307.312 98.1787 307.942C98.1787 308.917 98.4037 309.7 98.8537 310.29C99.3037 310.875 99.9662 311.167 100.841 311.167ZM109.583 312.233C108.828 312.228 108.181 312.063 107.641 311.737C107.101 311.412 106.681 310.927 106.381 310.282C106.086 309.637 105.926 308.832 105.901 307.868C105.886 307.442 105.896 306.98 105.931 306.48C105.966 305.975 106.021 305.495 106.096 305.04C106.171 304.585 106.261 304.215 106.366 303.93C106.496 303.56 106.681 303.215 106.921 302.895C107.166 302.57 107.448 302.305 107.768 302.1C108.078 301.89 108.428 301.727 108.818 301.612C109.213 301.492 109.623 301.4 110.048 301.335C110.478 301.27 110.903 301.212 111.323 301.162C111.748 301.112 112.141 301.05 112.501 300.975L112.621 301.972C112.346 302.027 112.021 302.077 111.646 302.122C111.271 302.167 110.878 302.222 110.468 302.287C110.058 302.347 109.666 302.43 109.291 302.535C108.916 302.64 108.596 302.777 108.331 302.947C107.926 303.192 107.613 303.562 107.393 304.057C107.178 304.552 107.046 305.12 106.996 305.76C107.306 305.275 107.716 304.91 108.226 304.665C108.741 304.42 109.298 304.297 109.898 304.297C110.628 304.297 111.256 304.465 111.781 304.8C112.311 305.135 112.718 305.6 113.003 306.195C113.288 306.79 113.431 307.472 113.431 308.242C113.431 309.047 113.273 309.75 112.958 310.35C112.648 310.95 112.206 311.415 111.631 311.745C111.056 312.07 110.373 312.233 109.583 312.233ZM109.666 311.175C110.516 311.175 111.161 310.91 111.601 310.38C112.046 309.85 112.268 309.145 112.268 308.265C112.268 307.365 112.038 306.655 111.578 306.135C111.123 305.615 110.481 305.355 109.651 305.355C108.821 305.355 108.183 305.615 107.738 306.135C107.293 306.655 107.071 307.365 107.071 308.265C107.071 309.165 107.293 309.875 107.738 310.395C108.183 310.915 108.826 311.175 109.666 311.175ZM118.463 312.225C117.658 312.225 116.971 312.043 116.401 311.677C115.831 311.312 115.393 310.807 115.088 310.162C114.783 309.517 114.631 308.777 114.631 307.942C114.631 307.092 114.786 306.347 115.096 305.707C115.406 305.067 115.846 304.57 116.416 304.215C116.991 303.855 117.673 303.675 118.463 303.675C119.273 303.675 119.963 303.857 120.533 304.222C121.108 304.582 121.546 305.085 121.846 305.73C122.151 306.37 122.303 307.107 122.303 307.942C122.303 308.792 122.151 309.54 121.846 310.185C121.541 310.825 121.101 311.325 120.526 311.685C119.951 312.045 119.263 312.225 118.463 312.225ZM118.463 311.167C119.363 311.167 120.033 310.87 120.473 310.275C120.913 309.675 121.133 308.897 121.133 307.942C121.133 306.962 120.911 306.182 120.466 305.602C120.026 305.022 119.358 304.732 118.463 304.732C117.858 304.732 117.358 304.87 116.963 305.145C116.573 305.415 116.281 305.792 116.086 306.277C115.896 306.757 115.801 307.312 115.801 307.942C115.801 308.917 116.026 309.7 116.476 310.29C116.926 310.875 117.588 311.167 118.463 311.167ZM123.95 312V303.9H127.288C127.458 303.9 127.663 303.91 127.903 303.93C128.148 303.95 128.375 303.987 128.585 304.042C129.04 304.162 129.405 304.407 129.68 304.777C129.96 305.147 130.1 305.592 130.1 306.112C130.1 306.402 130.055 306.662 129.965 306.892C129.88 307.117 129.758 307.312 129.598 307.477C129.523 307.562 129.44 307.637 129.35 307.702C129.26 307.762 129.173 307.812 129.088 307.852C129.248 307.882 129.42 307.952 129.605 308.062C129.895 308.232 130.115 308.462 130.265 308.752C130.415 309.037 130.49 309.385 130.49 309.795C130.49 310.35 130.358 310.802 130.093 311.152C129.828 311.502 129.473 311.742 129.028 311.872C128.828 311.927 128.61 311.962 128.375 311.977C128.145 311.992 127.928 312 127.723 312H123.95ZM125.06 311.062H127.67C127.775 311.062 127.908 311.055 128.068 311.04C128.228 311.02 128.37 310.995 128.495 310.965C128.79 310.89 129.005 310.74 129.14 310.515C129.28 310.285 129.35 310.035 129.35 309.765C129.35 309.41 129.245 309.12 129.035 308.895C128.83 308.665 128.555 308.525 128.21 308.475C128.095 308.45 127.975 308.435 127.85 308.43C127.725 308.425 127.613 308.422 127.513 308.422H125.06V311.062ZM125.06 307.477H127.325C127.455 307.477 127.6 307.47 127.76 307.455C127.925 307.435 128.068 307.402 128.188 307.357C128.448 307.267 128.638 307.112 128.758 306.892C128.883 306.672 128.945 306.432 128.945 306.172C128.945 305.887 128.878 305.637 128.743 305.422C128.613 305.207 128.415 305.057 128.15 304.972C127.97 304.907 127.775 304.87 127.565 304.86C127.36 304.85 127.23 304.845 127.175 304.845H125.06V307.477ZM138.348 312.225C137.533 312.225 136.843 312.043 136.278 311.677C135.713 311.312 135.283 310.81 134.988 310.17C134.698 309.525 134.548 308.785 134.538 307.95C134.548 307.1 134.703 306.355 135.003 305.715C135.303 305.07 135.735 304.57 136.3 304.215C136.865 303.855 137.55 303.675 138.355 303.675C139.175 303.675 139.888 303.875 140.493 304.275C141.103 304.675 141.52 305.222 141.745 305.917L140.665 306.262C140.475 305.777 140.173 305.402 139.758 305.137C139.348 304.867 138.878 304.732 138.348 304.732C137.753 304.732 137.26 304.87 136.87 305.145C136.48 305.415 136.19 305.792 136 306.277C135.81 306.762 135.713 307.32 135.708 307.95C135.718 308.92 135.943 309.7 136.383 310.29C136.823 310.875 137.478 311.167 138.348 311.167C138.898 311.167 139.365 311.042 139.75 310.792C140.14 310.537 140.435 310.167 140.635 309.682L141.745 310.012C141.445 310.732 141.005 311.282 140.425 311.662C139.845 312.038 139.153 312.225 138.348 312.225ZM143.286 312V303.9H146.624C146.794 303.9 146.999 303.91 147.239 303.93C147.484 303.95 147.711 303.987 147.921 304.042C148.376 304.162 148.741 304.407 149.016 304.777C149.296 305.147 149.436 305.592 149.436 306.112C149.436 306.402 149.391 306.662 149.301 306.892C149.216 307.117 149.094 307.312 148.934 307.477C148.859 307.562 148.776 307.637 148.686 307.702C148.596 307.762 148.509 307.812 148.424 307.852C148.584 307.882 148.756 307.952 148.941 308.062C149.231 308.232 149.451 308.462 149.601 308.752C149.751 309.037 149.826 309.385 149.826 309.795C149.826 310.35 149.694 310.802 149.429 311.152C149.164 311.502 148.809 311.742 148.364 311.872C148.164 311.927 147.946 311.962 147.711 311.977C147.481 311.992 147.264 312 147.059 312H143.286ZM144.396 311.062H147.006C147.111 311.062 147.244 311.055 147.404 311.04C147.564 311.02 147.706 310.995 147.831 310.965C148.126 310.89 148.341 310.74 148.476 310.515C148.616 310.285 148.686 310.035 148.686 309.765C148.686 309.41 148.581 309.12 148.371 308.895C148.166 308.665 147.891 308.525 147.546 308.475C147.431 308.45 147.311 308.435 147.186 308.43C147.061 308.425 146.949 308.422 146.849 308.422H144.396V311.062ZM144.396 307.477H146.661C146.791 307.477 146.936 307.47 147.096 307.455C147.261 307.435 147.404 307.402 147.524 307.357C147.784 307.267 147.974 307.112 148.094 306.892C148.219 306.672 148.281 306.432 148.281 306.172C148.281 305.887 148.214 305.637 148.079 305.422C147.949 305.207 147.751 305.057 147.486 304.972C147.306 304.907 147.111 304.87 146.901 304.86C146.696 304.85 146.566 304.845 146.511 304.845H144.396V307.477ZM156.398 312V308.947H154.508C154.288 308.947 154.061 308.94 153.826 308.925C153.596 308.905 153.381 308.877 153.181 308.842C152.611 308.732 152.126 308.482 151.726 308.092C151.331 307.697 151.133 307.152 151.133 306.457C151.133 305.777 151.318 305.232 151.688 304.822C152.058 304.407 152.506 304.137 153.031 304.012C153.271 303.957 153.513 303.925 153.758 303.915C154.008 303.905 154.223 303.9 154.403 303.9H157.501L157.508 312H156.398ZM150.871 312L153.128 308.602H154.351L152.078 312H150.871ZM154.448 308.002H156.398V304.845H154.448C154.328 304.845 154.161 304.85 153.946 304.86C153.731 304.87 153.528 304.902 153.338 304.957C153.173 305.007 153.008 305.095 152.843 305.22C152.683 305.34 152.548 305.502 152.438 305.707C152.328 305.907 152.273 306.152 152.273 306.442C152.273 306.847 152.383 307.172 152.603 307.417C152.828 307.657 153.108 307.822 153.443 307.912C153.623 307.952 153.803 307.977 153.983 307.987C154.163 307.997 154.318 308.002 154.448 308.002ZM162.53 312.225C161.715 312.225 161.002 312.048 160.392 311.692C159.787 311.332 159.31 310.835 158.96 310.2L159.845 309.637C160.14 310.137 160.507 310.517 160.947 310.777C161.387 311.037 161.892 311.167 162.462 311.167C163.057 311.167 163.535 311.03 163.895 310.755C164.255 310.48 164.435 310.102 164.435 309.622C164.435 309.292 164.357 309.03 164.202 308.835C164.052 308.64 163.822 308.5 163.512 308.415C163.207 308.33 162.825 308.287 162.365 308.287H161.405V307.342H162.35C162.91 307.342 163.36 307.242 163.7 307.042C164.045 306.837 164.217 306.517 164.217 306.082C164.217 305.622 164.045 305.282 163.7 305.062C163.36 304.837 162.952 304.725 162.477 304.725C161.997 304.725 161.542 304.825 161.112 305.025C160.687 305.22 160.33 305.472 160.04 305.782L159.335 305.04C159.74 304.595 160.212 304.257 160.752 304.027C161.297 303.792 161.9 303.675 162.56 303.675C163.08 303.675 163.55 303.767 163.97 303.952C164.395 304.132 164.73 304.397 164.975 304.747C165.225 305.097 165.35 305.517 165.35 306.007C165.35 306.467 165.237 306.865 165.012 307.2C164.792 307.535 164.48 307.812 164.075 308.032L164.015 307.62C164.365 307.685 164.655 307.825 164.885 308.04C165.115 308.255 165.285 308.512 165.395 308.812C165.505 309.112 165.56 309.417 165.56 309.727C165.56 310.242 165.425 310.687 165.155 311.062C164.89 311.432 164.527 311.72 164.067 311.925C163.612 312.125 163.1 312.225 162.53 312.225ZM173.65 303.9V312H172.577V305.692L168.137 312H167.207V303.9H168.28V310.155L172.727 303.9H173.65Z" fill="#344351"/>
<rect x="33.5" y="285.5" width="158" height="42" rx="3.5" stroke="#344351"/>
<rect x="33.5" y="53.5" width="158" height="42" rx="3.5" fill="white"/>
<path d="M47.799 80.225C47.064 80.225 46.4265 80.1175 45.8865 79.9025C45.3515 79.6875 44.9115 79.405 44.5665 79.055C44.2215 78.7 43.964 78.3175 43.794 77.9075L44.799 77.3225C44.919 77.6625 45.109 77.9725 45.369 78.2525C45.629 78.5325 45.964 78.755 46.374 78.92C46.784 79.085 47.2715 79.1675 47.8365 79.1675C48.4215 79.1675 48.9165 79.075 49.3215 78.89C49.7315 78.705 50.0415 78.445 50.2515 78.11C50.4615 77.775 50.5665 77.385 50.5665 76.94C50.5665 76.45 50.449 76.07 50.214 75.8C49.979 75.53 49.664 75.34 49.269 75.23C48.874 75.115 48.434 75.05 47.949 75.035C47.584 75.02 47.324 75.01 47.169 75.005C47.014 75 46.9115 74.9975 46.8615 74.9975C46.8115 74.9975 46.764 74.9975 46.719 74.9975V73.9325C46.754 73.9325 46.8465 73.9325 46.9965 73.9325C47.1465 73.9325 47.3065 73.9325 47.4765 73.9325C47.6465 73.9275 47.7815 73.9225 47.8815 73.9175C48.5965 73.8825 49.159 73.695 49.569 73.355C49.979 73.015 50.184 72.555 50.184 71.975C50.184 71.36 49.9665 70.8825 49.5315 70.5425C49.1015 70.2025 48.544 70.0325 47.859 70.0325C47.214 70.0325 46.669 70.1875 46.224 70.4975C45.784 70.8025 45.424 71.2125 45.144 71.7275L44.244 71.06C44.584 70.45 45.064 69.95 45.684 69.56C46.304 69.17 47.039 68.975 47.889 68.975C48.344 68.975 48.779 69.0375 49.194 69.1625C49.614 69.2875 49.984 69.4725 50.304 69.7175C50.629 69.9625 50.884 70.2725 51.069 70.6475C51.259 71.0175 51.354 71.4525 51.354 71.9525C51.354 72.5375 51.224 73.0475 50.964 73.4825C50.709 73.9175 50.379 74.245 49.974 74.465C50.524 74.63 50.954 74.92 51.264 75.335C51.579 75.75 51.7365 76.2925 51.7365 76.9625C51.7365 77.6225 51.574 78.1975 51.249 78.6875C50.924 79.1775 50.464 79.5575 49.869 79.8275C49.279 80.0925 48.589 80.225 47.799 80.225ZM55.6092 80.225C54.9992 80.225 54.4867 80.115 54.0717 79.895C53.6617 79.675 53.3542 79.3825 53.1492 79.0175C52.9442 78.6525 52.8417 78.255 52.8417 77.825C52.8417 77.385 52.9292 77.01 53.1042 76.7C53.2842 76.385 53.5267 76.1275 53.8317 75.9275C54.1417 75.7275 54.4992 75.575 54.9042 75.47C55.3142 75.37 55.7667 75.2825 56.2617 75.2075C56.7617 75.1275 57.2492 75.06 57.7242 75.005C58.2042 74.945 58.6242 74.8875 58.9842 74.8325L58.5942 75.0725C58.6092 74.2725 58.4542 73.68 58.1292 73.295C57.8042 72.91 57.2392 72.7175 56.4342 72.7175C55.8792 72.7175 55.4092 72.8425 55.0242 73.0925C54.6442 73.3425 54.3767 73.7375 54.2217 74.2775L53.1492 73.9625C53.3342 73.2375 53.7067 72.675 54.2667 72.275C54.8267 71.875 55.5542 71.675 56.4492 71.675C57.1892 71.675 57.8167 71.815 58.3317 72.095C58.8517 72.37 59.2192 72.77 59.4342 73.295C59.5342 73.53 59.5992 73.7925 59.6292 74.0825C59.6592 74.3725 59.6742 74.6675 59.6742 74.9675V80H58.6917V77.9675L58.9767 78.0875C58.7017 78.7825 58.2742 79.3125 57.6942 79.6775C57.1142 80.0425 56.4192 80.225 55.6092 80.225ZM55.7367 79.2725C56.2517 79.2725 56.7017 79.18 57.0867 78.995C57.4717 78.81 57.7817 78.5575 58.0167 78.2375C58.2517 77.9125 58.4042 77.5475 58.4742 77.1425C58.5342 76.8825 58.5667 76.5975 58.5717 76.2875C58.5767 75.9725 58.5792 75.7375 58.5792 75.5825L58.9992 75.8C58.6242 75.85 58.2167 75.9 57.7767 75.95C57.3417 76 56.9117 76.0575 56.4867 76.1225C56.0667 76.1875 55.6867 76.265 55.3467 76.355C55.1167 76.42 54.8942 76.5125 54.6792 76.6325C54.4642 76.7475 54.2867 76.9025 54.1467 77.0975C54.0117 77.2925 53.9442 77.535 53.9442 77.825C53.9442 78.06 54.0017 78.2875 54.1167 78.5075C54.2367 78.7275 54.4267 78.91 54.6867 79.055C54.9517 79.2 55.3017 79.2725 55.7367 79.2725ZM61.6192 80V71.9H68.0617V80H66.9592V72.9575H62.7217V80H61.6192ZM76.6017 71.9V80H75.5292V73.6925L71.0892 80H70.1592V71.9H71.2317V78.155L75.6792 71.9H76.6017ZM82.0667 80.225C81.2517 80.225 80.5617 80.0425 79.9967 79.6775C79.4317 79.3125 79.0017 78.81 78.7067 78.17C78.4167 77.525 78.2667 76.785 78.2567 75.95C78.2667 75.1 78.4217 74.355 78.7217 73.715C79.0217 73.07 79.4542 72.57 80.0192 72.215C80.5842 71.855 81.2692 71.675 82.0742 71.675C82.8942 71.675 83.6067 71.875 84.2117 72.275C84.8217 72.675 85.2392 73.2225 85.4642 73.9175L84.3842 74.2625C84.1942 73.7775 83.8917 73.4025 83.4767 73.1375C83.0667 72.8675 82.5967 72.7325 82.0667 72.7325C81.4717 72.7325 80.9792 72.87 80.5892 73.145C80.1992 73.415 79.9092 73.7925 79.7192 74.2775C79.5292 74.7625 79.4317 75.32 79.4267 75.95C79.4367 76.92 79.6617 77.7 80.1017 78.29C80.5417 78.875 81.1967 79.1675 82.0667 79.1675C82.6167 79.1675 83.0842 79.0425 83.4692 78.7925C83.8592 78.5375 84.1542 78.1675 84.3542 77.6825L85.4642 78.0125C85.1642 78.7325 84.7242 79.2825 84.1442 79.6625C83.5642 80.0375 82.8717 80.225 82.0667 80.225ZM93.4474 71.9V80H92.3749V73.6925L87.9349 80H87.0049V71.9H88.0774V78.155L92.5249 71.9H93.4474ZM102.193 80.225C101.448 80.225 100.818 80.0375 100.303 79.6625C99.7879 79.2825 99.3979 78.77 99.1329 78.125C98.8679 77.475 98.7354 76.7475 98.7354 75.9425C98.7354 75.1225 98.8679 74.3925 99.1329 73.7525C99.4029 73.1075 99.7979 72.6 100.318 72.23C100.838 71.86 101.478 71.675 102.238 71.675C102.978 71.675 103.613 71.8625 104.143 72.2375C104.673 72.6125 105.078 73.1225 105.358 73.7675C105.643 74.4125 105.785 75.1375 105.785 75.9425C105.785 76.7525 105.643 77.48 105.358 78.125C105.073 78.77 104.663 79.2825 104.128 79.6625C103.593 80.0375 102.948 80.225 102.193 80.225ZM98.5479 83.6V71.9H99.5379V77.9975H99.6579V83.6H98.5479ZM102.08 79.1975C102.645 79.1975 103.115 79.055 103.49 78.77C103.865 78.485 104.145 78.0975 104.33 77.6075C104.52 77.1125 104.615 76.5575 104.615 75.9425C104.615 75.3325 104.523 74.7825 104.338 74.2925C104.153 73.8025 103.87 73.415 103.49 73.13C103.115 72.845 102.638 72.7025 102.058 72.7025C101.493 72.7025 101.023 72.84 100.648 73.115C100.278 73.39 100 73.7725 99.8154 74.2625C99.6304 74.7475 99.5379 75.3075 99.5379 75.9425C99.5379 76.5675 99.6304 77.1275 99.8154 77.6225C100 78.1125 100.28 78.4975 100.655 78.7775C101.03 79.0575 101.505 79.1975 102.08 79.1975ZM109.75 80.225C109.14 80.225 108.627 80.115 108.212 79.895C107.802 79.675 107.495 79.3825 107.29 79.0175C107.085 78.6525 106.982 78.255 106.982 77.825C106.982 77.385 107.07 77.01 107.245 76.7C107.425 76.385 107.667 76.1275 107.972 75.9275C108.282 75.7275 108.64 75.575 109.045 75.47C109.455 75.37 109.907 75.2825 110.402 75.2075C110.902 75.1275 111.39 75.06 111.865 75.005C112.345 74.945 112.765 74.8875 113.125 74.8325L112.735 75.0725C112.75 74.2725 112.595 73.68 112.27 73.295C111.945 72.91 111.38 72.7175 110.575 72.7175C110.02 72.7175 109.55 72.8425 109.165 73.0925C108.785 73.3425 108.517 73.7375 108.362 74.2775L107.29 73.9625C107.475 73.2375 107.847 72.675 108.407 72.275C108.967 71.875 109.695 71.675 110.59 71.675C111.33 71.675 111.957 71.815 112.472 72.095C112.992 72.37 113.36 72.77 113.575 73.295C113.675 73.53 113.74 73.7925 113.77 74.0825C113.8 74.3725 113.815 74.6675 113.815 74.9675V80H112.832V77.9675L113.117 78.0875C112.842 78.7825 112.415 79.3125 111.835 79.6775C111.255 80.0425 110.56 80.225 109.75 80.225ZM109.877 79.2725C110.392 79.2725 110.842 79.18 111.227 78.995C111.612 78.81 111.922 78.5575 112.157 78.2375C112.392 77.9125 112.545 77.5475 112.615 77.1425C112.675 76.8825 112.707 76.5975 112.712 76.2875C112.717 75.9725 112.72 75.7375 112.72 75.5825L113.14 75.8C112.765 75.85 112.357 75.9 111.917 75.95C111.482 76 111.052 76.0575 110.627 76.1225C110.207 76.1875 109.827 76.265 109.487 76.355C109.257 76.42 109.035 76.5125 108.82 76.6325C108.605 76.7475 108.427 76.9025 108.287 77.0975C108.152 77.2925 108.085 77.535 108.085 77.825C108.085 78.06 108.142 78.2875 108.257 78.5075C108.377 78.7275 108.567 78.91 108.827 79.055C109.092 79.2 109.442 79.2725 109.877 79.2725ZM118.685 80.225C117.87 80.225 117.157 80.0475 116.547 79.6925C115.942 79.3325 115.465 78.835 115.115 78.2L116 77.6375C116.295 78.1375 116.662 78.5175 117.102 78.7775C117.542 79.0375 118.047 79.1675 118.617 79.1675C119.212 79.1675 119.69 79.03 120.05 78.755C120.41 78.48 120.59 78.1025 120.59 77.6225C120.59 77.2925 120.512 77.03 120.357 76.835C120.207 76.64 119.977 76.5 119.667 76.415C119.362 76.33 118.98 76.2875 118.52 76.2875H117.56V75.3425H118.505C119.065 75.3425 119.515 75.2425 119.855 75.0425C120.2 74.8375 120.372 74.5175 120.372 74.0825C120.372 73.6225 120.2 73.2825 119.855 73.0625C119.515 72.8375 119.107 72.725 118.632 72.725C118.152 72.725 117.697 72.825 117.267 73.025C116.842 73.22 116.485 73.4725 116.195 73.7825L115.49 73.04C115.895 72.595 116.367 72.2575 116.907 72.0275C117.452 71.7925 118.055 71.675 118.715 71.675C119.235 71.675 119.705 71.7675 120.125 71.9525C120.55 72.1325 120.885 72.3975 121.13 72.7475C121.38 73.0975 121.505 73.5175 121.505 74.0075C121.505 74.4675 121.392 74.865 121.167 75.2C120.947 75.535 120.635 75.8125 120.23 76.0325L120.17 75.62C120.52 75.685 120.81 75.825 121.04 76.04C121.27 76.255 121.44 76.5125 121.55 76.8125C121.66 77.1125 121.715 77.4175 121.715 77.7275C121.715 78.2425 121.58 78.6875 121.31 79.0625C121.045 79.4325 120.682 79.72 120.222 79.925C119.767 80.125 119.255 80.225 118.685 80.225ZM123.37 80V71.9H128.92V72.9575H124.472V80H123.37ZM133.578 80.225C132.773 80.225 132.086 80.0425 131.516 79.6775C130.946 79.3125 130.508 78.8075 130.203 78.1625C129.898 77.5175 129.746 76.7775 129.746 75.9425C129.746 75.0925 129.901 74.3475 130.211 73.7075C130.521 73.0675 130.961 72.57 131.531 72.215C132.106 71.855 132.788 71.675 133.578 71.675C134.388 71.675 135.078 71.8575 135.648 72.2225C136.223 72.5825 136.661 73.085 136.961 73.73C137.266 74.37 137.418 75.1075 137.418 75.9425C137.418 76.7925 137.266 77.54 136.961 78.185C136.656 78.825 136.216 79.325 135.641 79.685C135.066 80.045 134.378 80.225 133.578 80.225ZM133.578 79.1675C134.478 79.1675 135.148 78.87 135.588 78.275C136.028 77.675 136.248 76.8975 136.248 75.9425C136.248 74.9625 136.026 74.1825 135.581 73.6025C135.141 73.0225 134.473 72.7325 133.578 72.7325C132.973 72.7325 132.473 72.87 132.078 73.145C131.688 73.415 131.396 73.7925 131.201 74.2775C131.011 74.7575 130.916 75.3125 130.916 75.9425C130.916 76.9175 131.141 77.7 131.591 78.29C132.041 78.875 132.703 79.1675 133.578 79.1675ZM139.065 80V71.9H142.403C142.573 71.9 142.778 71.91 143.018 71.93C143.263 71.95 143.49 71.9875 143.7 72.0425C144.155 72.1625 144.52 72.4075 144.795 72.7775C145.075 73.1475 145.215 73.5925 145.215 74.1125C145.215 74.4025 145.17 74.6625 145.08 74.8925C144.995 75.1175 144.873 75.3125 144.713 75.4775C144.638 75.5625 144.555 75.6375 144.465 75.7025C144.375 75.7625 144.288 75.8125 144.203 75.8525C144.363 75.8825 144.535 75.9525 144.72 76.0625C145.01 76.2325 145.23 76.4625 145.38 76.7525C145.53 77.0375 145.605 77.385 145.605 77.795C145.605 78.35 145.473 78.8025 145.208 79.1525C144.943 79.5025 144.588 79.7425 144.143 79.8725C143.943 79.9275 143.725 79.9625 143.49 79.9775C143.26 79.9925 143.043 80 142.838 80H139.065ZM140.175 79.0625H142.785C142.89 79.0625 143.023 79.055 143.183 79.04C143.343 79.02 143.485 78.995 143.61 78.965C143.905 78.89 144.12 78.74 144.255 78.515C144.395 78.285 144.465 78.035 144.465 77.765C144.465 77.41 144.36 77.12 144.15 76.895C143.945 76.665 143.67 76.525 143.325 76.475C143.21 76.45 143.09 76.435 142.965 76.43C142.84 76.425 142.728 76.4225 142.628 76.4225H140.175V79.0625ZM140.175 75.4775H142.44C142.57 75.4775 142.715 75.47 142.875 75.455C143.04 75.435 143.183 75.4025 143.303 75.3575C143.563 75.2675 143.753 75.1125 143.873 74.8925C143.998 74.6725 144.06 74.4325 144.06 74.1725C144.06 73.8875 143.993 73.6375 143.858 73.4225C143.728 73.2075 143.53 73.0575 143.265 72.9725C143.085 72.9075 142.89 72.87 142.68 72.86C142.475 72.85 142.345 72.845 142.29 72.845H140.175V75.4775ZM150.483 80.225C149.678 80.225 148.99 80.0425 148.42 79.6775C147.85 79.3125 147.413 78.8075 147.108 78.1625C146.803 77.5175 146.65 76.7775 146.65 75.9425C146.65 75.0925 146.805 74.3475 147.115 73.7075C147.425 73.0675 147.865 72.57 148.435 72.215C149.01 71.855 149.693 71.675 150.483 71.675C151.293 71.675 151.983 71.8575 152.553 72.2225C153.128 72.5825 153.565 73.085 153.865 73.73C154.17 74.37 154.323 75.1075 154.323 75.9425C154.323 76.7925 154.17 77.54 153.865 78.185C153.56 78.825 153.12 79.325 152.545 79.685C151.97 80.045 151.283 80.225 150.483 80.225ZM150.483 79.1675C151.383 79.1675 152.053 78.87 152.493 78.275C152.933 77.675 153.153 76.8975 153.153 75.9425C153.153 74.9625 152.93 74.1825 152.485 73.6025C152.045 73.0225 151.378 72.7325 150.483 72.7325C149.878 72.7325 149.378 72.87 148.983 73.145C148.593 73.415 148.3 73.7925 148.105 74.2775C147.915 74.7575 147.82 75.3125 147.82 75.9425C147.82 76.9175 148.045 77.7 148.495 78.29C148.945 78.875 149.608 79.1675 150.483 79.1675ZM159.615 80.225C158.87 80.225 158.24 80.0375 157.725 79.6625C157.21 79.2825 156.82 78.77 156.555 78.125C156.29 77.475 156.157 76.7475 156.157 75.9425C156.157 75.1225 156.29 74.3925 156.555 73.7525C156.825 73.1075 157.22 72.6 157.74 72.23C158.26 71.86 158.9 71.675 159.66 71.675C160.4 71.675 161.035 71.8625 161.565 72.2375C162.095 72.6125 162.5 73.1225 162.78 73.7675C163.065 74.4125 163.207 75.1375 163.207 75.9425C163.207 76.7525 163.065 77.48 162.78 78.125C162.495 78.77 162.085 79.2825 161.55 79.6625C161.015 80.0375 160.37 80.225 159.615 80.225ZM155.97 83.6V71.9H156.96V77.9975H157.08V83.6H155.97ZM159.502 79.1975C160.067 79.1975 160.537 79.055 160.912 78.77C161.287 78.485 161.567 78.0975 161.752 77.6075C161.942 77.1125 162.037 76.5575 162.037 75.9425C162.037 75.3325 161.945 74.7825 161.76 74.2925C161.575 73.8025 161.292 73.415 160.912 73.13C160.537 72.845 160.06 72.7025 159.48 72.7025C158.915 72.7025 158.445 72.84 158.07 73.115C157.7 73.39 157.422 73.7725 157.237 74.2625C157.052 74.7475 156.96 75.3075 156.96 75.9425C156.96 76.5675 157.052 77.1275 157.237 77.6225C157.422 78.1125 157.702 78.4975 158.077 78.7775C158.452 79.0575 158.927 79.1975 159.502 79.1975ZM168.237 80.225C167.432 80.225 166.744 80.0425 166.174 79.6775C165.604 79.3125 165.167 78.8075 164.862 78.1625C164.557 77.5175 164.404 76.7775 164.404 75.9425C164.404 75.0925 164.559 74.3475 164.869 73.7075C165.179 73.0675 165.619 72.57 166.189 72.215C166.764 71.855 167.447 71.675 168.237 71.675C169.047 71.675 169.737 71.8575 170.307 72.2225C170.882 72.5825 171.319 73.085 171.619 73.73C171.924 74.37 172.077 75.1075 172.077 75.9425C172.077 76.7925 171.924 77.54 171.619 78.185C171.314 78.825 170.874 79.325 170.299 79.685C169.724 80.045 169.037 80.225 168.237 80.225ZM168.237 79.1675C169.137 79.1675 169.807 78.87 170.247 78.275C170.687 77.675 170.907 76.8975 170.907 75.9425C170.907 74.9625 170.684 74.1825 170.239 73.6025C169.799 73.0225 169.132 72.7325 168.237 72.7325C167.632 72.7325 167.132 72.87 166.737 73.145C166.347 73.415 166.054 73.7925 165.859 74.2775C165.669 74.7575 165.574 75.3125 165.574 75.9425C165.574 76.9175 165.799 77.7 166.249 78.29C166.699 78.875 167.362 79.1675 168.237 79.1675ZM173.724 80V71.9H177.061C177.231 71.9 177.436 71.91 177.676 71.93C177.921 71.95 178.149 71.9875 178.359 72.0425C178.814 72.1625 179.179 72.4075 179.454 72.7775C179.734 73.1475 179.874 73.5925 179.874 74.1125C179.874 74.4025 179.829 74.6625 179.739 74.8925C179.654 75.1175 179.531 75.3125 179.371 75.4775C179.296 75.5625 179.214 75.6375 179.124 75.7025C179.034 75.7625 178.946 75.8125 178.861 75.8525C179.021 75.8825 179.194 75.9525 179.379 76.0625C179.669 76.2325 179.889 76.4625 180.039 76.7525C180.189 77.0375 180.264 77.385 180.264 77.795C180.264 78.35 180.131 78.8025 179.866 79.1525C179.601 79.5025 179.246 79.7425 178.801 79.8725C178.601 79.9275 178.384 79.9625 178.149 79.9775C177.919 79.9925 177.701 80 177.496 80H173.724ZM174.834 79.0625H177.444C177.549 79.0625 177.681 79.055 177.841 79.04C178.001 79.02 178.144 78.995 178.269 78.965C178.564 78.89 178.779 78.74 178.914 78.515C179.054 78.285 179.124 78.035 179.124 77.765C179.124 77.41 179.019 77.12 178.809 76.895C178.604 76.665 178.329 76.525 177.984 76.475C177.869 76.45 177.749 76.435 177.624 76.43C177.499 76.425 177.386 76.4225 177.286 76.4225H174.834V79.0625ZM174.834 75.4775H177.099C177.229 75.4775 177.374 75.47 177.534 75.455C177.699 75.435 177.841 75.4025 177.961 75.3575C178.221 75.2675 178.411 75.1125 178.531 74.8925C178.656 74.6725 178.719 74.4325 178.719 74.1725C178.719 73.8875 178.651 73.6375 178.516 73.4225C178.386 73.2075 178.189 73.0575 177.924 72.9725C177.744 72.9075 177.549 72.87 177.339 72.86C177.134 72.85 177.004 72.845 176.949 72.845H174.834V75.4775Z" fill="#344351"/>
<rect x="33.5" y="53.5" width="158" height="42" rx="3.5" stroke="#344351"/>
<rect x="33.5" y="338.5" width="158" height="42" rx="3.5" fill="white"/>
<path d="M47.9953 365L51.7153 354.2H53.1778L56.8978 365H55.7503L52.2178 354.815H52.6528L49.1428 365H47.9953ZM49.6528 362.382V361.347H55.2328V362.382H49.6528ZM58.2446 365V356.9H61.5821C61.7521 356.9 61.9571 356.91 62.1971 356.93C62.4421 356.95 62.6696 356.987 62.8796 357.042C63.3346 357.162 63.6996 357.407 63.9746 357.777C64.2546 358.147 64.3946 358.592 64.3946 359.112C64.3946 359.402 64.3496 359.662 64.2596 359.892C64.1746 360.117 64.0521 360.312 63.8921 360.477C63.8171 360.562 63.7346 360.637 63.6446 360.702C63.5546 360.762 63.4671 360.812 63.3821 360.852C63.5421 360.882 63.7146 360.952 63.8996 361.062C64.1896 361.232 64.4096 361.462 64.5596 361.752C64.7096 362.037 64.7846 362.385 64.7846 362.795C64.7846 363.35 64.6521 363.802 64.3871 364.152C64.1221 364.502 63.7671 364.742 63.3221 364.872C63.1221 364.927 62.9046 364.962 62.6696 364.977C62.4396 364.992 62.2221 365 62.0171 365H58.2446ZM59.3546 364.062H61.9646C62.0696 364.062 62.2021 364.055 62.3621 364.04C62.5221 364.02 62.6646 363.995 62.7896 363.965C63.0846 363.89 63.2996 363.74 63.4346 363.515C63.5746 363.285 63.6446 363.035 63.6446 362.765C63.6446 362.41 63.5396 362.12 63.3296 361.895C63.1246 361.665 62.8496 361.525 62.5046 361.475C62.3896 361.45 62.2696 361.435 62.1446 361.43C62.0196 361.425 61.9071 361.422 61.8071 361.422H59.3546V364.062ZM59.3546 360.477H61.6196C61.7496 360.477 61.8946 360.47 62.0546 360.455C62.2196 360.435 62.3621 360.402 62.4821 360.357C62.7421 360.267 62.9321 360.112 63.0521 359.892C63.1771 359.672 63.2396 359.432 63.2396 359.172C63.2396 358.887 63.1721 358.637 63.0371 358.422C62.9071 358.207 62.7096 358.057 62.4446 357.972C62.2646 357.907 62.0696 357.87 61.8596 357.86C61.6546 357.85 61.5246 357.845 61.4696 357.845H59.3546V360.477ZM68.477 365V357.92H65.6045V356.9H72.452V357.92H69.5795V365H68.477ZM77.118 365.225C76.313 365.225 75.6255 365.043 75.0555 364.677C74.4855 364.312 74.048 363.807 73.743 363.162C73.438 362.517 73.2855 361.777 73.2855 360.942C73.2855 360.092 73.4405 359.347 73.7505 358.707C74.0605 358.067 74.5005 357.57 75.0705 357.215C75.6455 356.855 76.328 356.675 77.118 356.675C77.928 356.675 78.618 356.857 79.188 357.222C79.763 357.582 80.2005 358.085 80.5005 358.73C80.8055 359.37 80.958 360.107 80.958 360.942C80.958 361.792 80.8055 362.54 80.5005 363.185C80.1955 363.825 79.7555 364.325 79.1805 364.685C78.6055 365.045 77.918 365.225 77.118 365.225ZM77.118 364.167C78.018 364.167 78.688 363.87 79.128 363.275C79.568 362.675 79.788 361.897 79.788 360.942C79.788 359.962 79.5655 359.182 79.1205 358.602C78.6805 358.022 78.013 357.732 77.118 357.732C76.513 357.732 76.013 357.87 75.618 358.145C75.228 358.415 74.9355 358.792 74.7405 359.277C74.5505 359.757 74.4555 360.312 74.4555 360.942C74.4555 361.917 74.6805 362.7 75.1305 363.29C75.5805 363.875 76.243 364.167 77.118 364.167ZM83.4745 368.6L85.042 364.347L85.0645 365.608L81.517 356.9H82.687L85.597 364.182H85.117L87.802 356.9H88.927L84.577 368.6H83.4745ZM90.2222 365V356.9H93.5597C93.7297 356.9 93.9347 356.91 94.1747 356.93C94.4197 356.95 94.6472 356.987 94.8572 357.042C95.3122 357.162 95.6772 357.407 95.9522 357.777C96.2322 358.147 96.3722 358.592 96.3722 359.112C96.3722 359.402 96.3272 359.662 96.2372 359.892C96.1522 360.117 96.0297 360.312 95.8697 360.477C95.7947 360.562 95.7122 360.637 95.6222 360.702C95.5322 360.762 95.4447 360.812 95.3597 360.852C95.5197 360.882 95.6922 360.952 95.8772 361.062C96.1672 361.232 96.3872 361.462 96.5372 361.752C96.6872 362.037 96.7622 362.385 96.7622 362.795C96.7622 363.35 96.6297 363.802 96.3647 364.152C96.0997 364.502 95.7447 364.742 95.2997 364.872C95.0997 364.927 94.8822 364.962 94.6472 364.977C94.4172 364.992 94.1997 365 93.9947 365H90.2222ZM91.3322 364.062H93.9422C94.0472 364.062 94.1797 364.055 94.3397 364.04C94.4997 364.02 94.6422 363.995 94.7672 363.965C95.0622 363.89 95.2772 363.74 95.4122 363.515C95.5522 363.285 95.6222 363.035 95.6222 362.765C95.6222 362.41 95.5172 362.12 95.3072 361.895C95.1022 361.665 94.8272 361.525 94.4822 361.475C94.3672 361.45 94.2472 361.435 94.1222 361.43C93.9972 361.425 93.8847 361.422 93.7847 361.422H91.3322V364.062ZM91.3322 360.477H93.5972C93.7272 360.477 93.8722 360.47 94.0322 360.455C94.1972 360.435 94.3397 360.402 94.4597 360.357C94.7197 360.267 94.9097 360.112 95.0297 359.892C95.1547 359.672 95.2172 359.432 95.2172 359.172C95.2172 358.887 95.1497 358.637 95.0147 358.422C94.8847 358.207 94.6872 358.057 94.4222 357.972C94.2422 357.907 94.0472 357.87 93.8372 357.86C93.6322 357.85 93.5022 357.845 93.4472 357.845H91.3322V360.477ZM101.685 365.225C100.895 365.225 100.21 365.05 99.6295 364.7C99.0545 364.35 98.607 363.857 98.287 363.222C97.967 362.587 97.807 361.842 97.807 360.987C97.807 360.102 97.9645 359.337 98.2795 358.692C98.5945 358.047 99.037 357.55 99.607 357.2C100.182 356.85 100.86 356.675 101.64 356.675C102.44 356.675 103.122 356.86 103.687 357.23C104.252 357.595 104.68 358.12 104.97 358.805C105.26 359.49 105.392 360.307 105.367 361.257H104.242V360.868C104.222 359.817 103.995 359.025 103.56 358.49C103.13 357.955 102.5 357.687 101.67 357.687C100.8 357.687 100.132 357.97 99.667 358.535C99.207 359.1 98.977 359.905 98.977 360.95C98.977 361.97 99.207 362.762 99.667 363.327C100.132 363.887 100.79 364.167 101.64 364.167C102.22 364.167 102.725 364.035 103.155 363.77C103.59 363.5 103.932 363.112 104.182 362.607L105.21 363.005C104.89 363.71 104.417 364.257 103.792 364.647C103.172 365.033 102.47 365.225 101.685 365.225ZM98.587 361.257V360.335H104.775V361.257H98.587ZM106.431 366.8V364.055C106.891 364.055 107.221 363.907 107.421 363.612C107.621 363.312 107.784 362.835 107.909 362.18C107.994 361.755 108.064 361.297 108.119 360.807C108.174 360.317 108.221 359.757 108.261 359.127C108.301 358.492 108.339 357.75 108.374 356.9H113.729V364.055H114.509V366.8H113.444V365H107.489V366.8H106.431ZM108.299 364.055H112.634V357.845H109.394C109.379 358.225 109.356 358.627 109.326 359.052C109.301 359.477 109.269 359.902 109.229 360.327C109.194 360.752 109.151 361.152 109.101 361.527C109.056 361.897 109.001 362.222 108.936 362.502C108.861 362.862 108.779 363.17 108.689 363.425C108.604 363.68 108.474 363.89 108.299 364.055ZM119.393 365.225C118.588 365.225 117.901 365.043 117.331 364.677C116.761 364.312 116.323 363.807 116.018 363.162C115.713 362.517 115.561 361.777 115.561 360.942C115.561 360.092 115.716 359.347 116.026 358.707C116.336 358.067 116.776 357.57 117.346 357.215C117.921 356.855 118.603 356.675 119.393 356.675C120.203 356.675 120.893 356.857 121.463 357.222C122.038 357.582 122.476 358.085 122.776 358.73C123.081 359.37 123.233 360.107 123.233 360.942C123.233 361.792 123.081 362.54 122.776 363.185C122.471 363.825 122.031 364.325 121.456 364.685C120.881 365.045 120.193 365.225 119.393 365.225ZM119.393 364.167C120.293 364.167 120.963 363.87 121.403 363.275C121.843 362.675 122.063 361.897 122.063 360.942C122.063 359.962 121.841 359.182 121.396 358.602C120.956 358.022 120.288 357.732 119.393 357.732C118.788 357.732 118.288 357.87 117.893 358.145C117.503 358.415 117.211 358.792 117.016 359.277C116.826 359.757 116.731 360.312 116.731 360.942C116.731 361.917 116.956 362.7 117.406 363.29C117.856 363.875 118.518 364.167 119.393 364.167ZM124.88 365V356.9H125.863L129.02 363.53L132.185 356.9H133.16V365H132.095V359.255L129.373 365H128.675L125.953 359.255V365H124.88ZM138.686 365.225C137.896 365.225 137.211 365.05 136.631 364.7C136.056 364.35 135.609 363.857 135.289 363.222C134.969 362.587 134.809 361.842 134.809 360.987C134.809 360.102 134.966 359.337 135.281 358.692C135.596 358.047 136.039 357.55 136.609 357.2C137.184 356.85 137.861 356.675 138.641 356.675C139.441 356.675 140.124 356.86 140.689 357.23C141.254 357.595 141.681 358.12 141.971 358.805C142.261 359.49 142.394 360.307 142.369 361.257H141.244V360.868C141.224 359.817 140.996 359.025 140.561 358.49C140.131 357.955 139.501 357.687 138.671 357.687C137.801 357.687 137.134 357.97 136.669 358.535C136.209 359.1 135.979 359.905 135.979 360.95C135.979 361.97 136.209 362.762 136.669 363.327C137.134 363.887 137.791 364.167 138.641 364.167C139.221 364.167 139.726 364.035 140.156 363.77C140.591 363.5 140.934 363.112 141.184 362.607L142.211 363.005C141.891 363.71 141.419 364.257 140.794 364.647C140.174 365.033 139.471 365.225 138.686 365.225ZM135.589 361.257V360.335H141.776V361.257H135.589ZM143.283 365V364.032C143.583 364.087 143.811 364.075 143.966 363.995C144.126 363.91 144.243 363.77 144.318 363.575C144.393 363.375 144.456 363.127 144.506 362.832C144.586 362.342 144.658 361.802 144.723 361.213C144.788 360.622 144.846 359.972 144.896 359.262C144.951 358.547 145.006 357.76 145.061 356.9H150.566V365H149.471V357.957H146.081C146.046 358.487 146.006 359.015 145.961 359.54C145.916 360.065 145.868 360.57 145.818 361.055C145.773 361.535 145.723 361.977 145.668 362.382C145.613 362.787 145.556 363.137 145.496 363.432C145.406 363.877 145.286 364.232 145.136 364.497C144.991 364.762 144.773 364.937 144.483 365.023C144.193 365.108 143.793 365.1 143.283 365ZM152.654 365V356.9H153.756V360.417H158.324V356.9H159.426V365H158.324V361.475H153.756V365H152.654ZM167.959 356.9V365H166.886V358.692L162.446 365H161.516V356.9H162.589V363.155L167.036 356.9H167.959ZM175.141 365V361.947H173.251C173.031 361.947 172.804 361.94 172.569 361.925C172.339 361.905 172.124 361.877 171.924 361.842C171.354 361.732 170.869 361.482 170.469 361.092C170.074 360.697 169.876 360.152 169.876 359.457C169.876 358.777 170.061 358.232 170.431 357.822C170.801 357.407 171.249 357.137 171.774 357.012C172.014 356.957 172.256 356.925 172.501 356.915C172.751 356.905 172.966 356.9 173.146 356.9H176.244L176.251 365H175.141ZM169.614 365L171.871 361.602H173.094L170.821 365H169.614ZM173.191 361.002H175.141V357.845H173.191C173.071 357.845 172.904 357.85 172.689 357.86C172.474 357.87 172.271 357.902 172.081 357.957C171.916 358.007 171.751 358.095 171.586 358.22C171.426 358.34 171.291 358.502 171.181 358.707C171.071 358.907 171.016 359.152 171.016 359.442C171.016 359.847 171.126 360.172 171.346 360.417C171.571 360.657 171.851 360.822 172.186 360.912C172.366 360.952 172.546 360.977 172.726 360.987C172.906 360.997 173.061 361.002 173.191 361.002Z" fill="#344351"/>
<rect x="33.5" y="338.5" width="158" height="42" rx="3.5" stroke="#344351"/>
<rect x="33.5" y="106.5" width="158" height="42" rx="3.5" fill="white"/>
<path d="M44.2409 133V122.2H48.4109C49.0159 122.2 49.5434 122.325 49.9934 122.575C50.4434 122.825 50.7934 123.162 51.0434 123.587C51.2934 124.007 51.4184 124.472 51.4184 124.982C51.4184 125.562 51.2634 126.08 50.9534 126.535C50.6434 126.985 50.2284 127.297 49.7084 127.472L49.6934 127.105C50.3934 127.305 50.9434 127.655 51.3434 128.155C51.7434 128.655 51.9434 129.26 51.9434 129.97C51.9434 130.595 51.8109 131.135 51.5459 131.59C51.2809 132.04 50.9084 132.387 50.4284 132.632C49.9484 132.877 49.3909 133 48.7559 133H44.2409ZM45.3509 131.942H48.4859C48.9259 131.942 49.3209 131.865 49.6709 131.71C50.0209 131.55 50.2959 131.325 50.4959 131.035C50.7009 130.745 50.8034 130.395 50.8034 129.985C50.8034 129.585 50.7109 129.225 50.5259 128.905C50.3409 128.585 50.0884 128.33 49.7684 128.14C49.4534 127.945 49.0934 127.847 48.6884 127.847H45.3509V131.942ZM45.3509 126.805H48.4034C48.7484 126.805 49.0634 126.727 49.3484 126.572C49.6334 126.412 49.8584 126.195 50.0234 125.92C50.1934 125.645 50.2784 125.327 50.2784 124.967C50.2784 124.457 50.1009 124.042 49.7459 123.722C49.3959 123.402 48.9484 123.242 48.4034 123.242H45.3509V126.805ZM53.4326 133V124.9H54.5351V128.417H59.1026V124.9H60.2051V133H59.1026V129.475H54.5351V133H53.4326ZM63.4574 136.6L65.0249 132.347L65.0474 133.608L61.4999 124.9H62.6699L65.5799 132.182H65.0999L67.7849 124.9H68.9099L64.5599 136.6H63.4574ZM72.4101 133V125.92H69.5376V124.9H76.3851V125.92H73.5126V133H72.4101ZM81.4526 133.225C80.7076 133.225 80.0776 133.038 79.5626 132.662C79.0476 132.282 78.6576 131.77 78.3926 131.125C78.1276 130.475 77.9951 129.747 77.9951 128.942C77.9951 128.122 78.1276 127.392 78.3926 126.752C78.6626 126.107 79.0576 125.6 79.5776 125.23C80.0976 124.86 80.7376 124.675 81.4976 124.675C82.2376 124.675 82.8726 124.862 83.4026 125.237C83.9326 125.612 84.3376 126.122 84.6176 126.767C84.9026 127.412 85.0451 128.137 85.0451 128.942C85.0451 129.752 84.9026 130.48 84.6176 131.125C84.3326 131.77 83.9226 132.282 83.3876 132.662C82.8526 133.038 82.2076 133.225 81.4526 133.225ZM77.8076 136.6V124.9H78.7976V130.997H78.9176V136.6H77.8076ZM81.3401 132.197C81.9051 132.197 82.3751 132.055 82.7501 131.77C83.1251 131.485 83.4051 131.097 83.5901 130.607C83.7801 130.112 83.8751 129.557 83.8751 128.942C83.8751 128.332 83.7826 127.782 83.5976 127.292C83.4126 126.802 83.1301 126.415 82.7501 126.13C82.3751 125.845 81.8976 125.702 81.3176 125.702C80.7526 125.702 80.2826 125.84 79.9076 126.115C79.5376 126.39 79.2601 126.772 79.0751 127.262C78.8901 127.747 78.7976 128.307 78.7976 128.942C78.7976 129.567 78.8901 130.127 79.0751 130.622C79.2601 131.112 79.5401 131.497 79.9151 131.777C80.2901 132.057 80.7651 132.197 81.3401 132.197ZM90.1196 133.225C89.3296 133.225 88.6446 133.05 88.0646 132.7C87.4896 132.35 87.0421 131.857 86.7221 131.222C86.4021 130.587 86.2421 129.842 86.2421 128.987C86.2421 128.102 86.3996 127.337 86.7146 126.692C87.0296 126.047 87.4721 125.55 88.0421 125.2C88.6171 124.85 89.2946 124.675 90.0746 124.675C90.8746 124.675 91.5571 124.86 92.1221 125.23C92.6871 125.595 93.1146 126.12 93.4046 126.805C93.6946 127.49 93.8271 128.307 93.8021 129.257H92.6771V128.868C92.6571 127.817 92.4296 127.025 91.9946 126.49C91.5646 125.955 90.9346 125.687 90.1046 125.687C89.2346 125.687 88.5671 125.97 88.1021 126.535C87.6421 127.1 87.4121 127.905 87.4121 128.95C87.4121 129.97 87.6421 130.762 88.1021 131.327C88.5671 131.887 89.2246 132.167 90.0746 132.167C90.6546 132.167 91.1596 132.035 91.5896 131.77C92.0246 131.5 92.3671 131.112 92.6171 130.607L93.6446 131.005C93.3246 131.71 92.8521 132.257 92.2271 132.647C91.6071 133.033 90.9046 133.225 90.1196 133.225ZM87.0221 129.257V128.335H93.2096V129.257H87.0221ZM95.459 133V124.9H96.5615V128.417H101.129V124.9H102.232V133H101.129V129.475H96.5615V133H95.459ZM104.321 133V124.9H105.424V128.417H109.991V124.9H111.094V133H109.991V129.475H105.424V133H104.321ZM119.626 124.9V133H118.554V126.692L114.114 133H113.184V124.9H114.256V131.155L118.704 124.9H119.626ZM125.159 133.225C124.369 133.225 123.684 133.05 123.104 132.7C122.529 132.35 122.081 131.857 121.761 131.222C121.441 130.587 121.281 129.842 121.281 128.987C121.281 128.102 121.439 127.337 121.754 126.692C122.069 126.047 122.511 125.55 123.081 125.2C123.656 124.85 124.334 124.675 125.114 124.675C125.914 124.675 126.596 124.86 127.161 125.23C127.726 125.595 128.154 126.12 128.444 126.805C128.734 127.49 128.866 128.307 128.841 129.257H127.716V128.868C127.696 127.817 127.469 127.025 127.034 126.49C126.604 125.955 125.974 125.687 125.144 125.687C124.274 125.687 123.606 125.97 123.141 126.535C122.681 127.1 122.451 127.905 122.451 128.95C122.451 129.97 122.681 130.762 123.141 131.327C123.606 131.887 124.264 132.167 125.114 132.167C125.694 132.167 126.199 132.035 126.629 131.77C127.064 131.5 127.406 131.112 127.656 130.607L128.684 131.005C128.364 131.71 127.891 132.257 127.266 132.647C126.646 133.033 125.944 133.225 125.159 133.225ZM122.061 129.257V128.335H128.249V129.257H122.061ZM136.426 133.225C135.611 133.225 134.898 133.048 134.288 132.692C133.683 132.332 133.206 131.835 132.856 131.2L133.741 130.637C134.036 131.137 134.403 131.517 134.843 131.777C135.283 132.037 135.788 132.167 136.358 132.167C136.953 132.167 137.431 132.03 137.791 131.755C138.151 131.48 138.331 131.102 138.331 130.622C138.331 130.292 138.253 130.03 138.098 129.835C137.948 129.64 137.718 129.5 137.408 129.415C137.103 129.33 136.721 129.287 136.261 129.287H135.301V128.342H136.246C136.806 128.342 137.256 128.242 137.596 128.042C137.941 127.837 138.113 127.517 138.113 127.082C138.113 126.622 137.941 126.282 137.596 126.062C137.256 125.837 136.848 125.725 136.373 125.725C135.893 125.725 135.438 125.825 135.008 126.025C134.583 126.22 134.226 126.472 133.936 126.782L133.231 126.04C133.636 125.595 134.108 125.257 134.648 125.027C135.193 124.792 135.796 124.675 136.456 124.675C136.976 124.675 137.446 124.767 137.866 124.952C138.291 125.132 138.626 125.397 138.871 125.747C139.121 126.097 139.246 126.517 139.246 127.007C139.246 127.467 139.133 127.865 138.908 128.2C138.688 128.535 138.376 128.812 137.971 129.032L137.911 128.62C138.261 128.685 138.551 128.825 138.781 129.04C139.011 129.255 139.181 129.512 139.291 129.812C139.401 130.112 139.456 130.417 139.456 130.727C139.456 131.242 139.321 131.687 139.051 132.062C138.786 132.432 138.423 132.72 137.963 132.925C137.508 133.125 136.996 133.225 136.426 133.225ZM141.104 133V124.9H144.441C144.611 124.9 144.816 124.91 145.056 124.93C145.301 124.95 145.529 124.987 145.739 125.042C146.194 125.162 146.559 125.407 146.834 125.777C147.114 126.147 147.254 126.592 147.254 127.112C147.254 127.402 147.209 127.662 147.119 127.892C147.034 128.117 146.911 128.312 146.751 128.477C146.676 128.562 146.594 128.637 146.504 128.702C146.414 128.762 146.326 128.812 146.241 128.852C146.401 128.882 146.574 128.952 146.759 129.062C147.049 129.232 147.269 129.462 147.419 129.752C147.569 130.037 147.644 130.385 147.644 130.795C147.644 131.35 147.511 131.802 147.246 132.152C146.981 132.502 146.626 132.742 146.181 132.872C145.981 132.927 145.764 132.962 145.529 132.977C145.299 132.992 145.081 133 144.876 133H141.104ZM142.214 132.062H144.824C144.929 132.062 145.061 132.055 145.221 132.04C145.381 132.02 145.524 131.995 145.649 131.965C145.944 131.89 146.159 131.74 146.294 131.515C146.434 131.285 146.504 131.035 146.504 130.765C146.504 130.41 146.399 130.12 146.189 129.895C145.984 129.665 145.709 129.525 145.364 129.475C145.249 129.45 145.129 129.435 145.004 129.43C144.879 129.425 144.766 129.422 144.666 129.422H142.214V132.062ZM142.214 128.477H144.479C144.609 128.477 144.754 128.47 144.914 128.455C145.079 128.435 145.221 128.402 145.341 128.357C145.601 128.267 145.791 128.112 145.911 127.892C146.036 127.672 146.099 127.432 146.099 127.172C146.099 126.887 146.031 126.637 145.896 126.422C145.766 126.207 145.569 126.057 145.304 125.972C145.124 125.907 144.929 125.87 144.719 125.86C144.514 125.85 144.384 125.845 144.329 125.845H142.214V128.477ZM152.521 133.225C151.716 133.225 151.028 133.043 150.458 132.677C149.888 132.312 149.451 131.807 149.146 131.162C148.841 130.517 148.688 129.777 148.688 128.942C148.688 128.092 148.843 127.347 149.153 126.707C149.463 126.067 149.903 125.57 150.473 125.215C151.048 124.855 151.731 124.675 152.521 124.675C153.331 124.675 154.021 124.857 154.591 125.222C155.166 125.582 155.603 126.085 155.903 126.73C156.208 127.37 156.361 128.107 156.361 128.942C156.361 129.792 156.208 130.54 155.903 131.185C155.598 131.825 155.158 132.325 154.583 132.685C154.008 133.045 153.321 133.225 152.521 133.225ZM152.521 132.167C153.421 132.167 154.091 131.87 154.531 131.275C154.971 130.675 155.191 129.897 155.191 128.942C155.191 127.962 154.968 127.182 154.523 126.602C154.083 126.022 153.416 125.732 152.521 125.732C151.916 125.732 151.416 125.87 151.021 126.145C150.631 126.415 150.338 126.792 150.143 127.277C149.953 127.757 149.858 128.312 149.858 128.942C149.858 129.917 150.083 130.7 150.533 131.29C150.983 131.875 151.646 132.167 152.521 132.167ZM158.008 133V124.9H159.11V128.417H163.678V124.9H164.78V133H163.678V129.475H159.11V133H158.008ZM166.87 133L166.878 124.9H167.988V128.8L171.603 124.9H173.073L169.278 128.95L173.568 133H171.963L167.988 129.1V133H166.87ZM180.754 124.9V133H179.682V126.692L175.242 133H174.312V124.9H175.384V131.155L179.832 124.9H180.754Z" fill="#344351"/>
<rect x="33.5" y="106.5" width="158" height="42" rx="3.5" stroke="#344351"/>
</svg>
