<svg width="524" height="165" viewBox="0 0 524 165" fill="none" xmlns="http://www.w3.org/2000/svg">
<line x1="218.5" y1="83.5" x2="165.5" y2="83.5" stroke="#F88C28" stroke-linecap="round" stroke-dasharray="3 3"/>
<path d="M189.027 83.1143L166.528 29" stroke="#F88C28" stroke-linecap="round" stroke-dasharray="3 3"/>
<path d="M189.027 83.8857L166.528 138" stroke="#F88C28" stroke-linecap="round" stroke-dasharray="3 3"/>
<line x1="0.5" y1="-0.5" x2="53.5" y2="-0.5" transform="matrix(1 -8.74228e-08 -8.74228e-08 -1 315 83)" stroke="#F88C28" stroke-linecap="round" stroke-dasharray="3 3"/>
<path d="M344.973 83.1143L367.472 29" stroke="#F88C28" stroke-linecap="round" stroke-dasharray="3 3"/>
<path d="M344.973 83.8857L367.472 138" stroke="#F88C28" stroke-linecap="round" stroke-dasharray="3 3"/>
<rect x="205.5" y="57.5" width="123" height="50" rx="3.5" fill="white"/>
<path d="M216.613 90V75.6H222.173C222.98 75.6 223.683 75.7667 224.283 76.1C224.883 76.4333 225.35 76.8833 225.683 77.45C226.016 78.01 226.183 78.63 226.183 79.31C226.183 80.0833 225.976 80.7733 225.563 81.38C225.15 81.98 224.596 82.3967 223.903 82.63L223.883 82.14C224.816 82.4067 225.55 82.8733 226.083 83.54C226.616 84.2067 226.883 85.0133 226.883 85.96C226.883 86.7933 226.706 87.5133 226.353 88.12C226 88.72 225.503 89.1833 224.863 89.51C224.223 89.8367 223.48 90 222.633 90H216.613ZM218.093 88.59H222.273C222.86 88.59 223.386 88.4867 223.853 88.28C224.32 88.0667 224.686 87.7667 224.953 87.38C225.226 86.9933 225.363 86.5267 225.363 85.98C225.363 85.4467 225.24 84.9667 224.993 84.54C224.746 84.1133 224.41 83.7733 223.983 83.52C223.563 83.26 223.083 83.13 222.543 83.13H218.093V88.59ZM218.093 81.74H222.163C222.623 81.74 223.043 81.6367 223.423 81.43C223.803 81.2167 224.103 80.9267 224.323 80.56C224.55 80.1933 224.663 79.77 224.663 79.29C224.663 78.61 224.426 78.0567 223.953 77.63C223.486 77.2033 222.89 76.99 222.163 76.99H218.093V81.74ZM231.969 90.3C231.155 90.3 230.472 90.1533 229.919 89.86C229.372 89.5667 228.962 89.1767 228.689 88.69C228.415 88.2033 228.279 87.6733 228.279 87.1C228.279 86.5133 228.395 86.0133 228.629 85.6C228.869 85.18 229.192 84.8367 229.599 84.57C230.012 84.3033 230.489 84.1 231.029 83.96C231.575 83.8267 232.179 83.71 232.839 83.61C233.505 83.5033 234.155 83.4133 234.789 83.34C235.429 83.26 235.989 83.1833 236.469 83.11L235.949 83.43C235.969 82.3633 235.762 81.5733 235.329 81.06C234.895 80.5467 234.142 80.29 233.069 80.29C232.329 80.29 231.702 80.4567 231.189 80.79C230.682 81.1233 230.325 81.65 230.119 82.37L228.689 81.95C228.935 80.9833 229.432 80.2333 230.179 79.7C230.925 79.1667 231.895 78.9 233.089 78.9C234.075 78.9 234.912 79.0867 235.599 79.46C236.292 79.8267 236.782 80.36 237.069 81.06C237.202 81.3733 237.289 81.7233 237.329 82.11C237.369 82.4967 237.389 82.89 237.389 83.29V90H236.079V87.29L236.459 87.45C236.092 88.3767 235.522 89.0833 234.749 89.57C233.975 90.0567 233.049 90.3 231.969 90.3ZM232.139 89.03C232.825 89.03 233.425 88.9067 233.939 88.66C234.452 88.4133 234.865 88.0767 235.179 87.65C235.492 87.2167 235.695 86.73 235.789 86.19C235.869 85.8433 235.912 85.4633 235.919 85.05C235.925 84.63 235.929 84.3167 235.929 84.11L236.489 84.4C235.989 84.4667 235.445 84.5333 234.859 84.6C234.279 84.6667 233.705 84.7433 233.139 84.83C232.579 84.9167 232.072 85.02 231.619 85.14C231.312 85.2267 231.015 85.35 230.729 85.51C230.442 85.6633 230.205 85.87 230.019 86.13C229.839 86.39 229.749 86.7133 229.749 87.1C229.749 87.4133 229.825 87.7167 229.979 88.01C230.139 88.3033 230.392 88.5467 230.739 88.74C231.092 88.9333 231.559 89.03 232.139 89.03ZM239.982 90V79.2H241.412V88.64H245.462V79.2H246.892V88.64H250.932V79.2H252.362V90H239.982ZM259.161 90V79.2H260.631V83.89H266.721V79.2H268.191V90H266.721V85.3H260.631V90H259.161ZM275.498 90.3C274.425 90.3 273.508 90.0567 272.748 89.57C271.988 89.0833 271.405 88.41 270.998 87.55C270.591 86.69 270.388 85.7033 270.388 84.59C270.388 83.4567 270.595 82.4633 271.008 81.61C271.421 80.7567 272.008 80.0933 272.768 79.62C273.535 79.14 274.445 78.9 275.498 78.9C276.578 78.9 277.498 79.1433 278.258 79.63C279.025 80.11 279.608 80.78 280.008 81.64C280.415 82.4933 280.618 83.4767 280.618 84.59C280.618 85.7233 280.415 86.72 280.008 87.58C279.601 88.4333 279.015 89.1 278.248 89.58C277.481 90.06 276.565 90.3 275.498 90.3ZM275.498 88.89C276.698 88.89 277.591 88.4933 278.178 87.7C278.765 86.9 279.058 85.8633 279.058 84.59C279.058 83.2833 278.761 82.2433 278.168 81.47C277.581 80.6967 276.691 80.31 275.498 80.31C274.691 80.31 274.025 80.4933 273.498 80.86C272.978 81.22 272.588 81.7233 272.328 82.37C272.075 83.01 271.948 83.75 271.948 84.59C271.948 85.89 272.248 86.9333 272.848 87.72C273.448 88.5 274.331 88.89 275.498 88.89ZM282.814 90V79.2H284.124L288.334 88.04L292.554 79.2H293.854V90H292.434V82.34L288.804 90H287.874L284.244 82.34V90H282.814ZM301.222 90.3C300.169 90.3 299.255 90.0667 298.482 89.6C297.715 89.1333 297.119 88.4767 296.692 87.63C296.265 86.7833 296.052 85.79 296.052 84.65C296.052 83.47 296.262 82.45 296.682 81.59C297.102 80.73 297.692 80.0667 298.452 79.6C299.219 79.1333 300.122 78.9 301.162 78.9C302.229 78.9 303.139 79.1467 303.892 79.64C304.645 80.1267 305.215 80.8267 305.602 81.74C305.989 82.6533 306.165 83.7433 306.132 85.01H304.632V84.49C304.605 83.09 304.302 82.0333 303.722 81.32C303.149 80.6067 302.309 80.25 301.202 80.25C300.042 80.25 299.152 80.6267 298.532 81.38C297.919 82.1333 297.612 83.2067 297.612 84.6C297.612 85.96 297.919 87.0167 298.532 87.77C299.152 88.5167 300.029 88.89 301.162 88.89C301.935 88.89 302.609 88.7133 303.182 88.36C303.762 88 304.219 87.4833 304.552 86.81L305.922 87.34C305.495 88.28 304.865 89.01 304.032 89.53C303.205 90.0433 302.269 90.3 301.222 90.3ZM297.092 85.01V83.78H305.342V85.01H297.092ZM313.201 90.3C312.208 90.3 311.368 90.05 310.681 89.55C309.995 89.0433 309.475 88.36 309.121 87.5C308.768 86.6333 308.591 85.6633 308.591 84.59C308.591 83.4967 308.768 82.5233 309.121 81.67C309.481 80.81 310.008 80.1333 310.701 79.64C311.395 79.1467 312.248 78.9 313.261 78.9C314.248 78.9 315.095 79.15 315.801 79.65C316.508 80.15 317.048 80.83 317.421 81.69C317.801 82.55 317.991 83.5167 317.991 84.59C317.991 85.67 317.801 86.64 317.421 87.5C317.041 88.36 316.495 89.0433 315.781 89.55C315.068 90.05 314.208 90.3 313.201 90.3ZM308.341 94.8V79.2H309.661V87.33H309.821V94.8H308.341ZM313.051 88.93C313.805 88.93 314.431 88.74 314.931 88.36C315.431 87.98 315.805 87.4633 316.051 86.81C316.305 86.15 316.431 85.41 316.431 84.59C316.431 83.7767 316.308 83.0433 316.061 82.39C315.815 81.7367 315.438 81.22 314.931 80.84C314.431 80.46 313.795 80.27 313.021 80.27C312.268 80.27 311.641 80.4533 311.141 80.82C310.648 81.1867 310.278 81.6967 310.031 82.35C309.785 82.9967 309.661 83.7433 309.661 84.59C309.661 85.4233 309.785 86.17 310.031 86.83C310.278 87.4833 310.651 87.9967 311.151 88.37C311.651 88.7433 312.285 88.93 313.051 88.93Z" fill="#344351"/>
<rect x="205.5" y="57.5" width="123" height="50" rx="3.5" stroke="#344351"/>
<rect x="0.5" y="0.5" width="167" height="44" rx="3.5" fill="white"/>
<path d="M21.8388 29V17.48H29.0388V18.608H23.0148V29H21.8388ZM32.6499 29.24C31.7912 29.24 31.0579 29.0453 30.4499 28.656C29.8419 28.2667 29.3752 27.728 29.0499 27.04C28.7245 26.352 28.5619 25.5627 28.5619 24.672C28.5619 23.7653 28.7272 22.9707 29.0579 22.288C29.3885 21.6053 29.8579 21.0747 30.4659 20.696C31.0792 20.312 31.8072 20.12 32.6499 20.12C33.5139 20.12 34.2499 20.3147 34.8579 20.704C35.4712 21.088 35.9379 21.624 36.2579 22.312C36.5832 22.9947 36.7459 23.7813 36.7459 24.672C36.7459 25.5787 36.5832 26.376 36.2579 27.064C35.9325 27.7467 35.4632 28.28 34.8499 28.664C34.2365 29.048 33.5032 29.24 32.6499 29.24ZM32.6499 28.112C33.6099 28.112 34.3245 27.7947 34.7939 27.16C35.2632 26.52 35.4979 25.6907 35.4979 24.672C35.4979 23.6267 35.2605 22.7947 34.7859 22.176C34.3165 21.5573 33.6045 21.248 32.6499 21.248C32.0045 21.248 31.4712 21.3947 31.0499 21.688C30.6339 21.976 30.3219 22.3787 30.1139 22.896C29.9112 23.408 29.8099 24 29.8099 24.672C29.8099 25.712 30.0499 26.5467 30.5299 27.176C31.0099 27.8 31.7165 28.112 32.6499 28.112ZM37.7106 29V27.968C38.0306 28.0267 38.2733 28.0133 38.4386 27.928C38.6093 27.8373 38.7346 27.688 38.8146 27.48C38.8946 27.2667 38.9613 27.0027 39.0146 26.688C39.1 26.1653 39.1773 25.5893 39.2466 24.96C39.316 24.3307 39.3773 23.6373 39.4306 22.88C39.4893 22.1173 39.548 21.2773 39.6066 20.36H45.4786V29H44.3106V21.488H40.6946C40.6573 22.0533 40.6146 22.616 40.5666 23.176C40.5186 23.736 40.468 24.2747 40.4146 24.792C40.3666 25.304 40.3133 25.776 40.2546 26.208C40.196 26.64 40.1346 27.0133 40.0706 27.328C39.9746 27.8027 39.8466 28.1813 39.6866 28.464C39.532 28.7467 39.3 28.9333 38.9906 29.024C38.6813 29.1147 38.2546 29.1067 37.7106 29ZM51.3218 29.24C50.4631 29.24 49.7298 29.0453 49.1218 28.656C48.5138 28.2667 48.0471 27.728 47.7218 27.04C47.3964 26.352 47.2338 25.5627 47.2338 24.672C47.2338 23.7653 47.3991 22.9707 47.7298 22.288C48.0604 21.6053 48.5298 21.0747 49.1378 20.696C49.7511 20.312 50.4791 20.12 51.3218 20.12C52.1858 20.12 52.9218 20.3147 53.5298 20.704C54.1431 21.088 54.6098 21.624 54.9298 22.312C55.2551 22.9947 55.4178 23.7813 55.4178 24.672C55.4178 25.5787 55.2551 26.376 54.9298 27.064C54.6044 27.7467 54.1351 28.28 53.5218 28.664C52.9084 29.048 52.1751 29.24 51.3218 29.24ZM51.3218 28.112C52.2818 28.112 52.9964 27.7947 53.4658 27.16C53.9351 26.52 54.1698 25.6907 54.1698 24.672C54.1698 23.6267 53.9324 22.7947 53.4578 22.176C52.9884 21.5573 52.2764 21.248 51.3218 21.248C50.6764 21.248 50.1431 21.3947 49.7218 21.688C49.3058 21.976 48.9938 22.3787 48.7858 22.896C48.5831 23.408 48.4818 24 48.4818 24.672C48.4818 25.712 48.7218 26.5467 49.2018 27.176C49.6818 27.8 50.3884 28.112 51.3218 28.112ZM60.7665 29.24C59.8972 29.24 59.1612 29.0453 58.5585 28.656C57.9558 28.2667 57.4972 27.7307 57.1825 27.048C56.8732 26.36 56.7132 25.5707 56.7025 24.68C56.7132 23.7733 56.8785 22.9787 57.1985 22.296C57.5185 21.608 57.9798 21.0747 58.5825 20.696C59.1852 20.312 59.9158 20.12 60.7745 20.12C61.6492 20.12 62.4092 20.3333 63.0545 20.76C63.7052 21.1867 64.1505 21.7707 64.3905 22.512L63.2385 22.88C63.0358 22.3627 62.7132 21.9627 62.2705 21.68C61.8332 21.392 61.3318 21.248 60.7665 21.248C60.1318 21.248 59.6065 21.3947 59.1905 21.688C58.7745 21.976 58.4652 22.3787 58.2625 22.896C58.0598 23.4133 57.9558 24.008 57.9505 24.68C57.9612 25.7147 58.2012 26.5467 58.6705 27.176C59.1398 27.8 59.8385 28.112 60.7665 28.112C61.3532 28.112 61.8518 27.9787 62.2625 27.712C62.6785 27.44 62.9932 27.0453 63.2065 26.528L64.3905 26.88C64.0705 27.648 63.6012 28.2347 62.9825 28.64C62.3638 29.04 61.6252 29.24 60.7665 29.24ZM69.4155 29.24C68.5568 29.24 67.8235 29.0453 67.2155 28.656C66.6075 28.2667 66.1408 27.728 65.8155 27.04C65.4902 26.352 65.3275 25.5627 65.3275 24.672C65.3275 23.7653 65.4928 22.9707 65.8235 22.288C66.1542 21.6053 66.6235 21.0747 67.2315 20.696C67.8448 20.312 68.5728 20.12 69.4155 20.12C70.2795 20.12 71.0155 20.3147 71.6235 20.704C72.2368 21.088 72.7035 21.624 73.0235 22.312C73.3488 22.9947 73.5115 23.7813 73.5115 24.672C73.5115 25.5787 73.3488 26.376 73.0235 27.064C72.6982 27.7467 72.2288 28.28 71.6155 28.664C71.0022 29.048 70.2688 29.24 69.4155 29.24ZM69.4155 28.112C70.3755 28.112 71.0902 27.7947 71.5595 27.16C72.0288 26.52 72.2635 25.6907 72.2635 24.672C72.2635 23.6267 72.0262 22.7947 71.5515 22.176C71.0822 21.5573 70.3702 21.248 69.4155 21.248C68.7702 21.248 68.2368 21.3947 67.8155 21.688C67.3995 21.976 67.0875 22.3787 66.8795 22.896C66.6768 23.408 66.5755 24 66.5755 24.672C66.5755 25.712 66.8155 26.5467 67.2955 27.176C67.7755 27.8 68.4822 28.112 69.4155 28.112ZM75.2683 29V20.36H78.8283C79.0096 20.36 79.2283 20.3707 79.4843 20.392C79.7456 20.4133 79.9883 20.4533 80.2123 20.512C80.6976 20.64 81.0869 20.9013 81.3803 21.296C81.6789 21.6907 81.8283 22.1653 81.8283 22.72C81.8283 23.0293 81.7803 23.3067 81.6843 23.552C81.5936 23.792 81.4629 24 81.2923 24.176C81.2123 24.2667 81.1243 24.3467 81.0283 24.416C80.9323 24.48 80.8389 24.5333 80.7483 24.576C80.9189 24.608 81.1029 24.6827 81.3003 24.8C81.6096 24.9813 81.8443 25.2267 82.0043 25.536C82.1643 25.84 82.2443 26.2107 82.2443 26.648C82.2443 27.24 82.1029 27.7227 81.8203 28.096C81.5376 28.4693 81.1589 28.7253 80.6843 28.864C80.4709 28.9227 80.2389 28.96 79.9883 28.976C79.7429 28.992 79.5109 29 79.2923 29H75.2683ZM76.4523 28H79.2363C79.3483 28 79.4896 27.992 79.6603 27.976C79.8309 27.9547 79.9829 27.928 80.1163 27.896C80.4309 27.816 80.6603 27.656 80.8043 27.416C80.9536 27.1707 81.0283 26.904 81.0283 26.616C81.0283 26.2373 80.9163 25.928 80.6923 25.688C80.4736 25.4427 80.1803 25.2933 79.8123 25.24C79.6896 25.2133 79.5616 25.1973 79.4283 25.192C79.2949 25.1867 79.1749 25.184 79.0683 25.184H76.4523V28ZM76.4523 24.176H78.8683C79.0069 24.176 79.1616 24.168 79.3323 24.152C79.5083 24.1307 79.6603 24.096 79.7883 24.048C80.0656 23.952 80.2683 23.7867 80.3963 23.552C80.5296 23.3173 80.5963 23.0613 80.5963 22.784C80.5963 22.48 80.5243 22.2133 80.3803 21.984C80.2416 21.7547 80.0309 21.5947 79.7483 21.504C79.5563 21.4347 79.3483 21.3947 79.1243 21.384C78.9056 21.3733 78.7669 21.368 78.7083 21.368H76.4523V24.176ZM87.4468 29.24C86.5881 29.24 85.8548 29.0453 85.2468 28.656C84.6388 28.2667 84.1721 27.728 83.8468 27.04C83.5214 26.352 83.3588 25.5627 83.3588 24.672C83.3588 23.7653 83.5241 22.9707 83.8548 22.288C84.1854 21.6053 84.6548 21.0747 85.2628 20.696C85.8761 20.312 86.6041 20.12 87.4468 20.12C88.3108 20.12 89.0468 20.3147 89.6548 20.704C90.2681 21.088 90.7348 21.624 91.0548 22.312C91.3801 22.9947 91.5428 23.7813 91.5428 24.672C91.5428 25.5787 91.3801 26.376 91.0548 27.064C90.7294 27.7467 90.2601 28.28 89.6468 28.664C89.0334 29.048 88.3001 29.24 87.4468 29.24ZM87.4468 28.112C88.4068 28.112 89.1214 27.7947 89.5908 27.16C90.0601 26.52 90.2948 25.6907 90.2948 24.672C90.2948 23.6267 90.0574 22.7947 89.5828 22.176C89.1134 21.5573 88.4014 21.248 87.4468 21.248C86.8014 21.248 86.2681 21.3947 85.8468 21.688C85.4308 21.976 85.1188 22.3787 84.9108 22.896C84.7081 23.408 84.6068 24 84.6068 24.672C84.6068 25.712 84.8468 26.5467 85.3268 27.176C85.8068 27.8 86.5134 28.112 87.4468 28.112ZM96.9635 29.24C96.1208 29.24 95.3902 29.0533 94.7715 28.68C94.1582 28.3067 93.6808 27.7813 93.3395 27.104C92.9982 26.4267 92.8275 25.632 92.8275 24.72C92.8275 23.776 92.9955 22.96 93.3315 22.272C93.6675 21.584 94.1395 21.0533 94.7475 20.68C95.3608 20.3067 96.0835 20.12 96.9155 20.12C97.7688 20.12 98.4968 20.3173 99.0995 20.712C99.7022 21.1013 100.158 21.6613 100.468 22.392C100.777 23.1227 100.918 23.9947 100.892 25.008H99.6915V24.592C99.6702 23.472 99.4275 22.6267 98.9635 22.056C98.5048 21.4853 97.8328 21.2 96.9475 21.2C96.0195 21.2 95.3075 21.5013 94.8115 22.104C94.3208 22.7067 94.0755 23.5653 94.0755 24.68C94.0755 25.768 94.3208 26.6133 94.8115 27.216C95.3075 27.8133 96.0088 28.112 96.9155 28.112C97.5342 28.112 98.0728 27.9707 98.5315 27.688C98.9955 27.4 99.3608 26.9867 99.6275 26.448L100.724 26.872C100.382 27.624 99.8782 28.208 99.2115 28.624C98.5502 29.0347 97.8008 29.24 96.9635 29.24ZM93.6595 25.008V24.024H100.26V25.008H93.6595ZM105.862 29V20.36H106.91L110.278 27.432L113.654 20.36H114.694V29H113.558V22.872L110.654 29H109.91L107.006 22.872V29H105.862ZM120.589 29.24C119.746 29.24 119.015 29.0533 118.397 28.68C117.783 28.3067 117.306 27.7813 116.965 27.104C116.623 26.4267 116.453 25.632 116.453 24.72C116.453 23.776 116.621 22.96 116.957 22.272C117.293 21.584 117.765 21.0533 118.373 20.68C118.986 20.3067 119.709 20.12 120.541 20.12C121.394 20.12 122.122 20.3173 122.725 20.712C123.327 21.1013 123.783 21.6613 124.093 22.392C124.402 23.1227 124.543 23.9947 124.517 25.008H123.317V24.592C123.295 23.472 123.053 22.6267 122.589 22.056C122.13 21.4853 121.458 21.2 120.573 21.2C119.645 21.2 118.933 21.5013 118.437 22.104C117.946 22.7067 117.701 23.5653 117.701 24.68C117.701 25.768 117.946 26.6133 118.437 27.216C118.933 27.8133 119.634 28.112 120.541 28.112C121.159 28.112 121.698 27.9707 122.157 27.688C122.621 27.4 122.986 26.9867 123.253 26.448L124.349 26.872C124.007 27.624 123.503 28.208 122.837 28.624C122.175 29.0347 121.426 29.24 120.589 29.24ZM117.285 25.008V24.024H123.885V25.008H117.285ZM126.284 29V20.36H127.46V24.112H132.332V20.36H133.508V29H132.332V25.24H127.46V29H126.284ZM142.545 29.24C141.782 29.24 141.118 29.0773 140.553 28.752C139.988 28.4213 139.537 27.96 139.201 27.368C138.87 26.7707 138.67 26.0693 138.601 25.264H136.913V29H135.737V20.36H136.913V24.096H138.593C138.662 23.28 138.865 22.576 139.201 21.984C139.542 21.3867 139.996 20.928 140.561 20.608C141.132 20.2827 141.796 20.12 142.553 20.12C143.412 20.12 144.145 20.3147 144.753 20.704C145.366 21.0933 145.833 21.6293 146.153 22.312C146.478 22.9947 146.641 23.7787 146.641 24.664C146.641 25.5707 146.476 26.368 146.145 27.056C145.82 27.744 145.35 28.28 144.737 28.664C144.129 29.048 143.398 29.24 142.545 29.24ZM142.521 28.112C143.492 28.112 144.212 27.7973 144.681 27.168C145.156 26.5333 145.393 25.7013 145.393 24.672C145.393 23.6213 145.153 22.7893 144.673 22.176C144.198 21.5573 143.484 21.248 142.529 21.248C141.617 21.248 140.918 21.552 140.433 22.16C139.948 22.7627 139.705 23.5973 139.705 24.664C139.705 25.7093 139.942 26.5467 140.417 27.176C140.897 27.8 141.598 28.112 142.521 28.112Z" fill="#344351"/>
<rect x="0.5" y="0.5" width="167" height="44" rx="3.5" stroke="#344351"/>
<rect x="0.5" y="60.5" width="167" height="44" rx="3.5" fill="white"/>
<path d="M15.5189 89.24C14.7349 89.24 14.0549 89.1253 13.4789 88.896C12.9083 88.6667 12.4389 88.3653 12.0709 87.992C11.7029 87.6133 11.4283 87.2053 11.2469 86.768L12.3189 86.144C12.4469 86.5067 12.6496 86.8373 12.9269 87.136C13.2043 87.4347 13.5616 87.672 13.9989 87.848C14.4363 88.024 14.9563 88.112 15.5589 88.112C16.1829 88.112 16.7109 88.0133 17.1429 87.816C17.5803 87.6187 17.9109 87.3413 18.1349 86.984C18.3589 86.6267 18.4709 86.2107 18.4709 85.736C18.4709 85.2133 18.3456 84.808 18.0949 84.52C17.8443 84.232 17.5083 84.0293 17.0869 83.912C16.6656 83.7893 16.1963 83.72 15.6789 83.704C15.2896 83.688 15.0123 83.6773 14.8469 83.672C14.6816 83.6667 14.5723 83.664 14.5189 83.664C14.4656 83.664 14.4149 83.664 14.3669 83.664V82.528C14.4043 82.528 14.5029 82.528 14.6629 82.528C14.8229 82.528 14.9936 82.528 15.1749 82.528C15.3563 82.5227 15.5003 82.5173 15.6069 82.512C16.3696 82.4747 16.9696 82.2747 17.4069 81.912C17.8443 81.5493 18.0629 81.0587 18.0629 80.44C18.0629 79.784 17.8309 79.2747 17.3669 78.912C16.9083 78.5493 16.3136 78.368 15.5829 78.368C14.8949 78.368 14.3136 78.5333 13.8389 78.864C13.3696 79.1893 12.9856 79.6267 12.6869 80.176L11.7269 79.464C12.0896 78.8133 12.6016 78.28 13.2629 77.864C13.9243 77.448 14.7083 77.24 15.6149 77.24C16.1003 77.24 16.5643 77.3067 17.0069 77.44C17.4549 77.5733 17.8496 77.7707 18.1909 78.032C18.5376 78.2933 18.8096 78.624 19.0069 79.024C19.2096 79.4187 19.3109 79.8827 19.3109 80.416C19.3109 81.04 19.1723 81.584 18.8949 82.048C18.6229 82.512 18.2709 82.8613 17.8389 83.096C18.4256 83.272 18.8843 83.5813 19.2149 84.024C19.5509 84.4667 19.7189 85.0453 19.7189 85.76C19.7189 86.464 19.5456 87.0773 19.1989 87.6C18.8523 88.1227 18.3616 88.528 17.7269 88.816C17.0976 89.0987 16.3616 89.24 15.5189 89.24ZM23.8498 89.24C23.1991 89.24 22.6525 89.1227 22.2098 88.888C21.7725 88.6533 21.4445 88.3413 21.2258 87.952C21.0071 87.5627 20.8978 87.1387 20.8978 86.68C20.8978 86.2107 20.9911 85.8107 21.1778 85.48C21.3698 85.144 21.6285 84.8693 21.9538 84.656C22.2845 84.4427 22.6658 84.28 23.0978 84.168C23.5351 84.0613 24.0178 83.968 24.5458 83.888C25.0791 83.8027 25.5991 83.7307 26.1058 83.672C26.6178 83.608 27.0658 83.5467 27.4498 83.488L27.0338 83.744C27.0498 82.8907 26.8845 82.2587 26.5378 81.848C26.1911 81.4373 25.5885 81.232 24.7298 81.232C24.1378 81.232 23.6365 81.3653 23.2258 81.632C22.8205 81.8987 22.5351 82.32 22.3698 82.896L21.2258 82.56C21.4231 81.7867 21.8205 81.1867 22.4178 80.76C23.0151 80.3333 23.7911 80.12 24.7458 80.12C25.5351 80.12 26.2045 80.2693 26.7538 80.568C27.3085 80.8613 27.7005 81.288 27.9298 81.848C28.0365 82.0987 28.1058 82.3787 28.1378 82.688C28.1698 82.9973 28.1858 83.312 28.1858 83.632V89H27.1378V86.832L27.4418 86.96C27.1485 87.7013 26.6925 88.2667 26.0738 88.656C25.4551 89.0453 24.7138 89.24 23.8498 89.24ZM23.9858 88.224C24.5351 88.224 25.0151 88.1253 25.4258 87.928C25.8365 87.7307 26.1671 87.4613 26.4178 87.12C26.6685 86.7733 26.8311 86.384 26.9058 85.952C26.9698 85.6747 27.0045 85.3707 27.0098 85.04C27.0151 84.704 27.0178 84.4533 27.0178 84.288L27.4658 84.52C27.0658 84.5733 26.6311 84.6267 26.1618 84.68C25.6978 84.7333 25.2391 84.7947 24.7858 84.864C24.3378 84.9333 23.9325 85.016 23.5698 85.112C23.3245 85.1813 23.0871 85.28 22.8578 85.408C22.6285 85.5307 22.4391 85.696 22.2898 85.904C22.1458 86.112 22.0738 86.3707 22.0738 86.68C22.0738 86.9307 22.1351 87.1733 22.2578 87.408C22.3858 87.6427 22.5885 87.8373 22.8658 87.992C23.1485 88.1467 23.5218 88.224 23.9858 88.224ZM30.2604 89V80.36H37.1324V89H35.9564V81.488H31.4364V89H30.2604ZM46.2418 80.36V89H45.0978V82.272L40.3618 89H39.3698V80.36H40.5138V87.032L45.2578 80.36H46.2418ZM52.0712 89.24C51.2019 89.24 50.4659 89.0453 49.8632 88.656C49.2605 88.2667 48.8019 87.7307 48.4872 87.048C48.1779 86.36 48.0179 85.5707 48.0072 84.68C48.0179 83.7733 48.1832 82.9787 48.5032 82.296C48.8232 81.608 49.2845 81.0747 49.8872 80.696C50.4899 80.312 51.2205 80.12 52.0792 80.12C52.9539 80.12 53.7139 80.3333 54.3592 80.76C55.0099 81.1867 55.4552 81.7707 55.6952 82.512L54.5432 82.88C54.3405 82.3627 54.0179 81.9627 53.5752 81.68C53.1379 81.392 52.6365 81.248 52.0712 81.248C51.4365 81.248 50.9112 81.3947 50.4952 81.688C50.0792 81.976 49.7699 82.3787 49.5672 82.896C49.3645 83.4133 49.2605 84.008 49.2552 84.68C49.2659 85.7147 49.5059 86.5467 49.9752 87.176C50.4445 87.8 51.1432 88.112 52.0712 88.112C52.6579 88.112 53.1565 87.9787 53.5672 87.712C53.9832 87.44 54.2979 87.0453 54.5112 86.528L55.6952 86.88C55.3752 87.648 54.9059 88.2347 54.2872 88.64C53.6685 89.04 52.9299 89.24 52.0712 89.24ZM64.2106 80.36V89H63.0666V82.272L58.3306 89H57.3386V80.36H58.4826V87.032L63.2266 80.36H64.2106ZM73.5391 89.24C72.7444 89.24 72.0724 89.04 71.5231 88.64C70.9737 88.2347 70.5577 87.688 70.2751 87C69.9924 86.3067 69.8511 85.5307 69.8511 84.672C69.8511 83.7973 69.9924 83.0187 70.2751 82.336C70.5631 81.648 70.9844 81.1067 71.5391 80.712C72.0937 80.3173 72.7764 80.12 73.5871 80.12C74.3764 80.12 75.0537 80.32 75.6191 80.72C76.1844 81.12 76.6164 81.664 76.9151 82.352C77.2191 83.04 77.3711 83.8133 77.3711 84.672C77.3711 85.536 77.2191 86.312 76.9151 87C76.6111 87.688 76.1737 88.2347 75.6031 88.64C75.0324 89.04 74.3444 89.24 73.5391 89.24ZM69.6511 92.84V80.36H70.7071V86.864H70.8351V92.84H69.6511ZM73.4191 88.144C74.0217 88.144 74.5231 87.992 74.9231 87.688C75.3231 87.384 75.6217 86.9707 75.8191 86.448C76.0217 85.92 76.1231 85.328 76.1231 84.672C76.1231 84.0213 76.0244 83.4347 75.8271 82.912C75.6297 82.3893 75.3284 81.976 74.9231 81.672C74.5231 81.368 74.0137 81.216 73.3951 81.216C72.7924 81.216 72.2911 81.3627 71.8911 81.656C71.4964 81.9493 71.2004 82.3573 71.0031 82.88C70.8057 83.3973 70.7071 83.9947 70.7071 84.672C70.7071 85.3387 70.8057 85.936 71.0031 86.464C71.2004 86.9867 71.4991 87.3973 71.8991 87.696C72.2991 87.9947 72.8057 88.144 73.4191 88.144ZM81.5998 89.24C80.9491 89.24 80.4025 89.1227 79.9598 88.888C79.5225 88.6533 79.1945 88.3413 78.9758 87.952C78.7571 87.5627 78.6478 87.1387 78.6478 86.68C78.6478 86.2107 78.7411 85.8107 78.9278 85.48C79.1198 85.144 79.3785 84.8693 79.7038 84.656C80.0345 84.4427 80.4158 84.28 80.8478 84.168C81.2851 84.0613 81.7678 83.968 82.2958 83.888C82.8291 83.8027 83.3491 83.7307 83.8558 83.672C84.3678 83.608 84.8158 83.5467 85.1998 83.488L84.7838 83.744C84.7998 82.8907 84.6345 82.2587 84.2878 81.848C83.9411 81.4373 83.3385 81.232 82.4798 81.232C81.8878 81.232 81.3865 81.3653 80.9758 81.632C80.5705 81.8987 80.2851 82.32 80.1198 82.896L78.9758 82.56C79.1731 81.7867 79.5705 81.1867 80.1678 80.76C80.7651 80.3333 81.5411 80.12 82.4958 80.12C83.2851 80.12 83.9545 80.2693 84.5038 80.568C85.0585 80.8613 85.4505 81.288 85.6798 81.848C85.7865 82.0987 85.8558 82.3787 85.8878 82.688C85.9198 82.9973 85.9358 83.312 85.9358 83.632V89H84.8878V86.832L85.1918 86.96C84.8985 87.7013 84.4425 88.2667 83.8238 88.656C83.2051 89.0453 82.4638 89.24 81.5998 89.24ZM81.7358 88.224C82.2851 88.224 82.7651 88.1253 83.1758 87.928C83.5865 87.7307 83.9171 87.4613 84.1678 87.12C84.4185 86.7733 84.5811 86.384 84.6558 85.952C84.7198 85.6747 84.7545 85.3707 84.7598 85.04C84.7651 84.704 84.7678 84.4533 84.7678 84.288L85.2158 84.52C84.8158 84.5733 84.3811 84.6267 83.9118 84.68C83.4478 84.7333 82.9891 84.7947 82.5358 84.864C82.0878 84.9333 81.6825 85.016 81.3198 85.112C81.0745 85.1813 80.8371 85.28 80.6078 85.408C80.3785 85.5307 80.1891 85.696 80.0398 85.904C79.8958 86.112 79.8238 86.3707 79.8238 86.68C79.8238 86.9307 79.8851 87.1733 80.0078 87.408C80.1358 87.6427 80.3385 87.8373 80.6158 87.992C80.8985 88.1467 81.2718 88.224 81.7358 88.224ZM91.1304 89.24C90.2611 89.24 89.5011 89.0507 88.8504 88.672C88.2051 88.288 87.6958 87.7573 87.3224 87.08L88.2664 86.48C88.5811 87.0133 88.9731 87.4187 89.4424 87.696C89.9118 87.9733 90.4504 88.112 91.0584 88.112C91.6931 88.112 92.2024 87.9653 92.5864 87.672C92.9704 87.3787 93.1624 86.976 93.1624 86.464C93.1624 86.112 93.0798 85.832 92.9144 85.624C92.7544 85.416 92.5091 85.2667 92.1784 85.176C91.8531 85.0853 91.4451 85.04 90.9544 85.04H89.9304V84.032H90.9384C91.5358 84.032 92.0158 83.9253 92.3784 83.712C92.7464 83.4933 92.9304 83.152 92.9304 82.688C92.9304 82.1973 92.7464 81.8347 92.3784 81.6C92.0158 81.36 91.5811 81.24 91.0744 81.24C90.5624 81.24 90.0771 81.3467 89.6184 81.56C89.1651 81.768 88.7838 82.0373 88.4744 82.368L87.7224 81.576C88.1544 81.1013 88.6584 80.7413 89.2344 80.496C89.8158 80.2453 90.4584 80.12 91.1624 80.12C91.7171 80.12 92.2184 80.2187 92.6664 80.416C93.1198 80.608 93.4771 80.8907 93.7384 81.264C94.0051 81.6373 94.1384 82.0853 94.1384 82.608C94.1384 83.0987 94.0184 83.5227 93.7784 83.88C93.5438 84.2373 93.2104 84.5333 92.7784 84.768L92.7144 84.328C93.0878 84.3973 93.3971 84.5467 93.6424 84.776C93.8878 85.0053 94.0691 85.28 94.1864 85.6C94.3038 85.92 94.3624 86.2453 94.3624 86.576C94.3624 87.1253 94.2184 87.6 93.9304 88C93.6478 88.3947 93.2611 88.7013 92.7704 88.92C92.2851 89.1333 91.7384 89.24 91.1304 89.24ZM96.1278 89V80.36H102.048V81.488H97.3038V89H96.1278ZM107.017 89.24C106.158 89.24 105.425 89.0453 104.817 88.656C104.209 88.2667 103.742 87.728 103.417 87.04C103.092 86.352 102.929 85.5627 102.929 84.672C102.929 83.7653 103.094 82.9707 103.425 82.288C103.756 81.6053 104.225 81.0747 104.833 80.696C105.446 80.312 106.174 80.12 107.017 80.12C107.881 80.12 108.617 80.3147 109.225 80.704C109.838 81.088 110.305 81.624 110.625 82.312C110.95 82.9947 111.113 83.7813 111.113 84.672C111.113 85.5787 110.95 86.376 110.625 87.064C110.3 87.7467 109.83 88.28 109.217 88.664C108.604 89.048 107.87 89.24 107.017 89.24ZM107.017 88.112C107.977 88.112 108.692 87.7947 109.161 87.16C109.63 86.52 109.865 85.6907 109.865 84.672C109.865 83.6267 109.628 82.7947 109.153 82.176C108.684 81.5573 107.972 81.248 107.017 81.248C106.372 81.248 105.838 81.3947 105.417 81.688C105.001 81.976 104.689 82.3787 104.481 82.896C104.278 83.408 104.177 84 104.177 84.672C104.177 85.712 104.417 86.5467 104.897 87.176C105.377 87.8 106.084 88.112 107.017 88.112ZM112.87 89V80.36H116.43C116.611 80.36 116.83 80.3707 117.086 80.392C117.347 80.4133 117.59 80.4533 117.814 80.512C118.299 80.64 118.688 80.9013 118.982 81.296C119.28 81.6907 119.43 82.1653 119.43 82.72C119.43 83.0293 119.382 83.3067 119.286 83.552C119.195 83.792 119.064 84 118.894 84.176C118.814 84.2667 118.726 84.3467 118.63 84.416C118.534 84.48 118.44 84.5333 118.35 84.576C118.52 84.608 118.704 84.6827 118.902 84.8C119.211 84.9813 119.446 85.2267 119.606 85.536C119.766 85.84 119.846 86.2107 119.846 86.648C119.846 87.24 119.704 87.7227 119.422 88.096C119.139 88.4693 118.76 88.7253 118.286 88.864C118.072 88.9227 117.84 88.96 117.59 88.976C117.344 88.992 117.112 89 116.894 89H112.87ZM114.054 88H116.838C116.95 88 117.091 87.992 117.262 87.976C117.432 87.9547 117.584 87.928 117.718 87.896C118.032 87.816 118.262 87.656 118.406 87.416C118.555 87.1707 118.63 86.904 118.63 86.616C118.63 86.2373 118.518 85.928 118.294 85.688C118.075 85.4427 117.782 85.2933 117.414 85.24C117.291 85.2133 117.163 85.1973 117.03 85.192C116.896 85.1867 116.776 85.184 116.67 85.184H114.054V88ZM114.054 84.176H116.47C116.608 84.176 116.763 84.168 116.934 84.152C117.11 84.1307 117.262 84.096 117.39 84.048C117.667 83.952 117.87 83.7867 117.998 83.552C118.131 83.3173 118.198 83.0613 118.198 82.784C118.198 82.48 118.126 82.2133 117.982 81.984C117.843 81.7547 117.632 81.5947 117.35 81.504C117.158 81.4347 116.95 81.3947 116.726 81.384C116.507 81.3733 116.368 81.368 116.31 81.368H114.054V84.176ZM125.048 89.24C124.19 89.24 123.456 89.0453 122.848 88.656C122.24 88.2667 121.774 87.728 121.448 87.04C121.123 86.352 120.96 85.5627 120.96 84.672C120.96 83.7653 121.126 82.9707 121.456 82.288C121.787 81.6053 122.256 81.0747 122.864 80.696C123.478 80.312 124.206 80.12 125.048 80.12C125.912 80.12 126.648 80.3147 127.256 80.704C127.87 81.088 128.336 81.624 128.656 82.312C128.982 82.9947 129.144 83.7813 129.144 84.672C129.144 85.5787 128.982 86.376 128.656 87.064C128.331 87.7467 127.862 88.28 127.248 88.664C126.635 89.048 125.902 89.24 125.048 89.24ZM125.048 88.112C126.008 88.112 126.723 87.7947 127.192 87.16C127.662 86.52 127.896 85.6907 127.896 84.672C127.896 83.6267 127.659 82.7947 127.184 82.176C126.715 81.5573 126.003 81.248 125.048 81.248C124.403 81.248 123.87 81.3947 123.448 81.688C123.032 81.976 122.72 82.3787 122.512 82.896C122.31 83.408 122.208 84 122.208 84.672C122.208 85.712 122.448 86.5467 122.928 87.176C123.408 87.8 124.115 88.112 125.048 88.112ZM134.789 89.24C133.994 89.24 133.322 89.04 132.773 88.64C132.224 88.2347 131.808 87.688 131.525 87C131.242 86.3067 131.101 85.5307 131.101 84.672C131.101 83.7973 131.242 83.0187 131.525 82.336C131.813 81.648 132.234 81.1067 132.789 80.712C133.344 80.3173 134.026 80.12 134.837 80.12C135.626 80.12 136.304 80.32 136.869 80.72C137.434 81.12 137.866 81.664 138.165 82.352C138.469 83.04 138.621 83.8133 138.621 84.672C138.621 85.536 138.469 86.312 138.165 87C137.861 87.688 137.424 88.2347 136.853 88.64C136.282 89.04 135.594 89.24 134.789 89.24ZM130.901 92.84V80.36H131.957V86.864H132.085V92.84H130.901ZM134.669 88.144C135.272 88.144 135.773 87.992 136.173 87.688C136.573 87.384 136.872 86.9707 137.069 86.448C137.272 85.92 137.373 85.328 137.373 84.672C137.373 84.0213 137.274 83.4347 137.077 82.912C136.88 82.3893 136.578 81.976 136.173 81.672C135.773 81.368 135.264 81.216 134.645 81.216C134.042 81.216 133.541 81.3627 133.141 81.656C132.746 81.9493 132.45 82.3573 132.253 82.88C132.056 83.3973 131.957 83.9947 131.957 84.672C131.957 85.3387 132.056 85.936 132.253 86.464C132.45 86.9867 132.749 87.3973 133.149 87.696C133.549 87.9947 134.056 88.144 134.669 88.144ZM143.986 89.24C143.127 89.24 142.394 89.0453 141.786 88.656C141.178 88.2667 140.711 87.728 140.386 87.04C140.06 86.352 139.898 85.5627 139.898 84.672C139.898 83.7653 140.063 82.9707 140.394 82.288C140.724 81.6053 141.194 81.0747 141.802 80.696C142.415 80.312 143.143 80.12 143.986 80.12C144.85 80.12 145.586 80.3147 146.194 80.704C146.807 81.088 147.274 81.624 147.594 82.312C147.919 82.9947 148.082 83.7813 148.082 84.672C148.082 85.5787 147.919 86.376 147.594 87.064C147.268 87.7467 146.799 88.28 146.186 88.664C145.572 89.048 144.839 89.24 143.986 89.24ZM143.986 88.112C144.946 88.112 145.66 87.7947 146.13 87.16C146.599 86.52 146.834 85.6907 146.834 84.672C146.834 83.6267 146.596 82.7947 146.122 82.176C145.652 81.5573 144.94 81.248 143.986 81.248C143.34 81.248 142.807 81.3947 142.386 81.688C141.97 81.976 141.658 82.3787 141.45 82.896C141.247 83.408 141.146 84 141.146 84.672C141.146 85.712 141.386 86.5467 141.866 87.176C142.346 87.8 143.052 88.112 143.986 88.112ZM149.839 89V80.36H153.399C153.58 80.36 153.799 80.3707 154.055 80.392C154.316 80.4133 154.559 80.4533 154.783 80.512C155.268 80.64 155.657 80.9013 155.951 81.296C156.249 81.6907 156.399 82.1653 156.399 82.72C156.399 83.0293 156.351 83.3067 156.255 83.552C156.164 83.792 156.033 84 155.863 84.176C155.783 84.2667 155.695 84.3467 155.599 84.416C155.503 84.48 155.409 84.5333 155.319 84.576C155.489 84.608 155.673 84.6827 155.871 84.8C156.18 84.9813 156.415 85.2267 156.575 85.536C156.735 85.84 156.815 86.2107 156.815 86.648C156.815 87.24 156.673 87.7227 156.391 88.096C156.108 88.4693 155.729 88.7253 155.255 88.864C155.041 88.9227 154.809 88.96 154.559 88.976C154.313 88.992 154.081 89 153.863 89H149.839ZM151.023 88H153.807C153.919 88 154.06 87.992 154.231 87.976C154.401 87.9547 154.553 87.928 154.687 87.896C155.001 87.816 155.231 87.656 155.375 87.416C155.524 87.1707 155.599 86.904 155.599 86.616C155.599 86.2373 155.487 85.928 155.263 85.688C155.044 85.4427 154.751 85.2933 154.383 85.24C154.26 85.2133 154.132 85.1973 153.999 85.192C153.865 85.1867 153.745 85.184 153.639 85.184H151.023V88ZM151.023 84.176H153.439C153.577 84.176 153.732 84.168 153.903 84.152C154.079 84.1307 154.231 84.096 154.359 84.048C154.636 83.952 154.839 83.7867 154.967 83.552C155.1 83.3173 155.167 83.0613 155.167 82.784C155.167 82.48 155.095 82.2133 154.951 81.984C154.812 81.7547 154.601 81.5947 154.319 81.504C154.127 81.4347 153.919 81.3947 153.695 81.384C153.476 81.3733 153.337 81.368 153.279 81.368H151.023V84.176Z" fill="#344351"/>
<rect x="0.5" y="60.5" width="167" height="44" rx="3.5" stroke="#344351"/>
<rect x="0.5" y="120.5" width="167" height="44" rx="3.5" fill="white"/>
<path d="M11.1903 149V137.48H15.6383C16.2836 137.48 16.8463 137.613 17.3263 137.88C17.8063 138.147 18.1796 138.507 18.4463 138.96C18.713 139.408 18.8463 139.904 18.8463 140.448C18.8463 141.067 18.681 141.619 18.3503 142.104C18.0196 142.584 17.577 142.917 17.0223 143.104L17.0063 142.712C17.753 142.925 18.3396 143.299 18.7663 143.832C19.193 144.365 19.4063 145.011 19.4063 145.768C19.4063 146.435 19.265 147.011 18.9823 147.496C18.6996 147.976 18.3023 148.347 17.7903 148.608C17.2783 148.869 16.6836 149 16.0063 149H11.1903ZM12.3743 147.872H15.7183C16.1876 147.872 16.609 147.789 16.9823 147.624C17.3556 147.453 17.649 147.213 17.8623 146.904C18.081 146.595 18.1903 146.221 18.1903 145.784C18.1903 145.357 18.0916 144.973 17.8943 144.632C17.697 144.291 17.4276 144.019 17.0863 143.816C16.7503 143.608 16.3663 143.504 15.9343 143.504H12.3743V147.872ZM12.3743 142.392H15.6303C15.9983 142.392 16.3343 142.309 16.6383 142.144C16.9423 141.973 17.1823 141.741 17.3583 141.448C17.5396 141.155 17.6303 140.816 17.6303 140.432C17.6303 139.888 17.441 139.445 17.0623 139.104C16.689 138.763 16.2116 138.592 15.6303 138.592H12.3743V142.392ZM20.9948 149V140.36H22.1708V144.112H27.0428V140.36H28.2188V149H27.0428V145.24H22.1708V149H20.9948ZM31.6879 152.84L33.3599 148.304L33.3839 149.648L29.5999 140.36H30.8479L33.9519 148.128H33.4399L36.3039 140.36H37.5039L32.8639 152.84H31.6879ZM41.2374 149V141.448H38.1734V140.36H45.4774V141.448H42.4134V149H41.2374ZM50.8828 149.24C50.0881 149.24 49.4161 149.04 48.8668 148.64C48.3175 148.235 47.9015 147.688 47.6188 147C47.3361 146.307 47.1948 145.531 47.1948 144.672C47.1948 143.797 47.3361 143.019 47.6188 142.336C47.9068 141.648 48.3281 141.107 48.8828 140.712C49.4375 140.317 50.1201 140.12 50.9308 140.12C51.7201 140.12 52.3975 140.32 52.9628 140.72C53.5281 141.12 53.9601 141.664 54.2588 142.352C54.5628 143.04 54.7148 143.813 54.7148 144.672C54.7148 145.536 54.5628 146.312 54.2588 147C53.9548 147.688 53.5175 148.235 52.9468 148.64C52.3761 149.04 51.6881 149.24 50.8828 149.24ZM46.9948 152.84V140.36H48.0508V146.864H48.1788V152.84H46.9948ZM50.7628 148.144C51.3655 148.144 51.8668 147.992 52.2668 147.688C52.6668 147.384 52.9655 146.971 53.1628 146.448C53.3655 145.92 53.4668 145.328 53.4668 144.672C53.4668 144.021 53.3681 143.435 53.1708 142.912C52.9735 142.389 52.6721 141.976 52.2668 141.672C51.8668 141.368 51.3575 141.216 50.7388 141.216C50.1361 141.216 49.6348 141.363 49.2348 141.656C48.8401 141.949 48.5441 142.357 48.3468 142.88C48.1495 143.397 48.0508 143.995 48.0508 144.672C48.0508 145.339 48.1495 145.936 48.3468 146.464C48.5441 146.987 48.8428 147.397 49.2428 147.696C49.6428 147.995 50.1495 148.144 50.7628 148.144ZM60.1276 149.24C59.2849 149.24 58.5542 149.053 57.9356 148.68C57.3222 148.307 56.8449 147.781 56.5036 147.104C56.1622 146.427 55.9916 145.632 55.9916 144.72C55.9916 143.776 56.1596 142.96 56.4956 142.272C56.8316 141.584 57.3036 141.053 57.9116 140.68C58.5249 140.307 59.2476 140.12 60.0796 140.12C60.9329 140.12 61.6609 140.317 62.2636 140.712C62.8662 141.101 63.3222 141.661 63.6316 142.392C63.9409 143.123 64.0822 143.995 64.0556 145.008H62.8556V144.592C62.8342 143.472 62.5916 142.627 62.1276 142.056C61.6689 141.485 60.9969 141.2 60.1116 141.2C59.1836 141.2 58.4716 141.501 57.9756 142.104C57.4849 142.707 57.2396 143.565 57.2396 144.68C57.2396 145.768 57.4849 146.613 57.9756 147.216C58.4716 147.813 59.1729 148.112 60.0796 148.112C60.6982 148.112 61.2369 147.971 61.6956 147.688C62.1596 147.4 62.5249 146.987 62.7916 146.448L63.8876 146.872C63.5462 147.624 63.0422 148.208 62.3756 148.624C61.7142 149.035 60.9649 149.24 60.1276 149.24ZM56.8236 145.008V144.024H63.4236V145.008H56.8236ZM65.8229 149V140.36H66.9989V144.112H71.8709V140.36H73.0469V149H71.8709V145.24H66.9989V149H65.8229ZM75.2761 149V140.36H76.4521V144.112H81.3241V140.36H82.5001V149H81.3241V145.24H76.4521V149H75.2761ZM91.6012 140.36V149H90.4572V142.272L85.7212 149H84.7292V140.36H85.8732V147.032L90.6172 140.36H91.6012ZM97.5026 149.24C96.6599 149.24 95.9292 149.053 95.3106 148.68C94.6972 148.307 94.2199 147.781 93.8786 147.104C93.5372 146.427 93.3666 145.632 93.3666 144.72C93.3666 143.776 93.5346 142.96 93.8706 142.272C94.2066 141.584 94.6786 141.053 95.2866 140.68C95.8999 140.307 96.6226 140.12 97.4546 140.12C98.3079 140.12 99.0359 140.317 99.6386 140.712C100.241 141.101 100.697 141.661 101.007 142.392C101.316 143.123 101.457 143.995 101.431 145.008H100.231V144.592C100.209 143.472 99.9666 142.627 99.5026 142.056C99.0439 141.485 98.3719 141.2 97.4866 141.2C96.5586 141.2 95.8466 141.501 95.3506 142.104C94.8599 142.707 94.6146 143.565 94.6146 144.68C94.6146 145.768 94.8599 146.613 95.3506 147.216C95.8466 147.813 96.5479 148.112 97.4546 148.112C98.0732 148.112 98.6119 147.971 99.0706 147.688C99.5346 147.4 99.8999 146.987 100.167 146.448L101.263 146.872C100.921 147.624 100.417 148.208 99.7506 148.624C99.0892 149.035 98.3399 149.24 97.5026 149.24ZM94.1986 145.008V144.024H100.799V145.008H94.1986ZM109.521 149.24C108.652 149.24 107.892 149.051 107.241 148.672C106.596 148.288 106.086 147.757 105.713 147.08L106.657 146.48C106.972 147.013 107.364 147.419 107.833 147.696C108.302 147.973 108.841 148.112 109.449 148.112C110.084 148.112 110.593 147.965 110.977 147.672C111.361 147.379 111.553 146.976 111.553 146.464C111.553 146.112 111.47 145.832 111.305 145.624C111.145 145.416 110.9 145.267 110.569 145.176C110.244 145.085 109.836 145.04 109.345 145.04H108.321V144.032H109.329C109.926 144.032 110.406 143.925 110.769 143.712C111.137 143.493 111.321 143.152 111.321 142.688C111.321 142.197 111.137 141.835 110.769 141.6C110.406 141.36 109.972 141.24 109.465 141.24C108.953 141.24 108.468 141.347 108.009 141.56C107.556 141.768 107.174 142.037 106.865 142.368L106.113 141.576C106.545 141.101 107.049 140.741 107.625 140.496C108.206 140.245 108.849 140.12 109.553 140.12C110.108 140.12 110.609 140.219 111.057 140.416C111.51 140.608 111.868 140.891 112.129 141.264C112.396 141.637 112.529 142.085 112.529 142.608C112.529 143.099 112.409 143.523 112.169 143.88C111.934 144.237 111.601 144.533 111.169 144.768L111.105 144.328C111.478 144.397 111.788 144.547 112.033 144.776C112.278 145.005 112.46 145.28 112.577 145.6C112.694 145.92 112.753 146.245 112.753 146.576C112.753 147.125 112.609 147.6 112.321 148C112.038 148.395 111.652 148.701 111.161 148.92C110.676 149.133 110.129 149.24 109.521 149.24ZM114.51 149V140.36H118.07C118.252 140.36 118.47 140.371 118.726 140.392C118.988 140.413 119.23 140.453 119.454 140.512C119.94 140.64 120.329 140.901 120.622 141.296C120.921 141.691 121.07 142.165 121.07 142.72C121.07 143.029 121.022 143.307 120.926 143.552C120.836 143.792 120.705 144 120.534 144.176C120.454 144.267 120.366 144.347 120.27 144.416C120.174 144.48 120.081 144.533 119.99 144.576C120.161 144.608 120.345 144.683 120.542 144.8C120.852 144.981 121.086 145.227 121.246 145.536C121.406 145.84 121.486 146.211 121.486 146.648C121.486 147.24 121.345 147.723 121.062 148.096C120.78 148.469 120.401 148.725 119.926 148.864C119.713 148.923 119.481 148.96 119.23 148.976C118.985 148.992 118.753 149 118.534 149H114.51ZM115.694 148H118.478C118.59 148 118.732 147.992 118.902 147.976C119.073 147.955 119.225 147.928 119.358 147.896C119.673 147.816 119.902 147.656 120.046 147.416C120.196 147.171 120.27 146.904 120.27 146.616C120.27 146.237 120.158 145.928 119.934 145.688C119.716 145.443 119.422 145.293 119.054 145.24C118.932 145.213 118.804 145.197 118.67 145.192C118.537 145.187 118.417 145.184 118.31 145.184H115.694V148ZM115.694 144.176H118.11C118.249 144.176 118.404 144.168 118.574 144.152C118.75 144.131 118.902 144.096 119.03 144.048C119.308 143.952 119.51 143.787 119.638 143.552C119.772 143.317 119.838 143.061 119.838 142.784C119.838 142.48 119.766 142.213 119.622 141.984C119.484 141.755 119.273 141.595 118.99 141.504C118.798 141.435 118.59 141.395 118.366 141.384C118.148 141.373 118.009 141.368 117.95 141.368H115.694V144.176ZM126.689 149.24C125.83 149.24 125.097 149.045 124.489 148.656C123.881 148.267 123.414 147.728 123.089 147.04C122.764 146.352 122.601 145.563 122.601 144.672C122.601 143.765 122.766 142.971 123.097 142.288C123.428 141.605 123.897 141.075 124.505 140.696C125.118 140.312 125.846 140.12 126.689 140.12C127.553 140.12 128.289 140.315 128.897 140.704C129.51 141.088 129.977 141.624 130.297 142.312C130.622 142.995 130.785 143.781 130.785 144.672C130.785 145.579 130.622 146.376 130.297 147.064C129.972 147.747 129.502 148.28 128.889 148.664C128.276 149.048 127.542 149.24 126.689 149.24ZM126.689 148.112C127.649 148.112 128.364 147.795 128.833 147.16C129.302 146.52 129.537 145.691 129.537 144.672C129.537 143.627 129.3 142.795 128.825 142.176C128.356 141.557 127.644 141.248 126.689 141.248C126.044 141.248 125.51 141.395 125.089 141.688C124.673 141.976 124.361 142.379 124.153 142.896C123.95 143.408 123.849 144 123.849 144.672C123.849 145.712 124.089 146.547 124.569 147.176C125.049 147.8 125.756 148.112 126.689 148.112ZM132.542 149V140.36H133.718V144.112H138.59V140.36H139.766V149H138.59V145.24H133.718V149H132.542ZM141.995 149L142.003 140.36H143.187V144.52L147.043 140.36H148.611L144.563 144.68L149.139 149H147.427L143.187 144.84V149H141.995ZM156.804 140.36V149H155.66V142.272L150.924 149H149.932V140.36H151.076V147.032L155.82 140.36H156.804Z" fill="#344351"/>
<rect x="0.5" y="120.5" width="167" height="44" rx="3.5" stroke="#344351"/>
<rect x="365.5" y="0.5" width="158" height="44" rx="3.5" fill="white"/>
<path d="M395.165 29V23.592L395.493 24.096C395.125 24.3573 394.675 24.5707 394.141 24.736C393.608 24.896 393.005 24.976 392.333 24.976C391.336 24.976 390.536 24.792 389.933 24.424C389.336 24.056 388.904 23.5493 388.637 22.904C388.371 22.2533 388.237 21.5093 388.237 20.672V17.48H389.421V20.264C389.421 20.7973 389.472 21.2827 389.573 21.72C389.675 22.1573 389.843 22.5333 390.077 22.848C390.312 23.1627 390.624 23.4053 391.013 23.576C391.403 23.7413 391.883 23.824 392.453 23.824C393.163 23.824 393.773 23.7173 394.285 23.504C394.797 23.2853 395.173 23.0507 395.413 22.8L395.165 23.744V17.48H396.341V29H395.165ZM403.077 18.672V17.392H404.357V18.672H403.077ZM400.029 18.672V17.392H401.309V18.672H400.029ZM402.237 29.24C401.394 29.24 400.664 29.0533 400.045 28.68C399.432 28.3067 398.954 27.7813 398.613 27.104C398.272 26.4267 398.101 25.632 398.101 24.72C398.101 23.776 398.269 22.96 398.605 22.272C398.941 21.584 399.413 21.0533 400.021 20.68C400.634 20.3067 401.357 20.12 402.189 20.12C403.042 20.12 403.77 20.3173 404.373 20.712C404.976 21.1013 405.432 21.6613 405.741 22.392C406.05 23.1227 406.192 23.9947 406.165 25.008H404.965V24.592C404.944 23.472 404.701 22.6267 404.237 22.056C403.778 21.4853 403.106 21.2 402.221 21.2C401.293 21.2 400.581 21.5013 400.085 22.104C399.594 22.7067 399.349 23.5653 399.349 24.68C399.349 25.768 399.594 26.6133 400.085 27.216C400.581 27.8133 401.282 28.112 402.189 28.112C402.808 28.112 403.346 27.9707 403.805 27.688C404.269 27.4 404.634 26.9867 404.901 26.448L405.997 26.872C405.656 27.624 405.152 28.208 404.485 28.624C403.824 29.0347 403.074 29.24 402.237 29.24ZM398.933 25.008V24.024H405.533V25.008H398.933ZM411.82 29.24C411.026 29.24 410.354 29.04 409.804 28.64C409.255 28.2347 408.839 27.688 408.556 27C408.274 26.3067 408.132 25.5307 408.132 24.672C408.132 23.7973 408.274 23.0187 408.556 22.336C408.844 21.648 409.266 21.1067 409.82 20.712C410.375 20.3173 411.058 20.12 411.868 20.12C412.658 20.12 413.335 20.32 413.9 20.72C414.466 21.12 414.898 21.664 415.196 22.352C415.5 23.04 415.652 23.8133 415.652 24.672C415.652 25.536 415.5 26.312 415.196 27C414.892 27.688 414.455 28.2347 413.884 28.64C413.314 29.04 412.626 29.24 411.82 29.24ZM407.932 32.84V20.36H408.988V26.864H409.116V32.84H407.932ZM411.7 28.144C412.303 28.144 412.804 27.992 413.204 27.688C413.604 27.384 413.903 26.9707 414.1 26.448C414.303 25.92 414.404 25.328 414.404 24.672C414.404 24.0213 414.306 23.4347 414.108 22.912C413.911 22.3893 413.61 21.976 413.204 21.672C412.804 21.368 412.295 21.216 411.676 21.216C411.074 21.216 410.572 21.3627 410.172 21.656C409.778 21.9493 409.482 22.3573 409.284 22.88C409.087 23.3973 408.988 23.9947 408.988 24.672C408.988 25.3387 409.087 25.936 409.284 26.464C409.482 26.9867 409.78 27.3973 410.18 27.696C410.58 27.9947 411.087 28.144 411.7 28.144ZM417.401 29V20.36H418.577V24.112H423.449V20.36H424.625V29H423.449V25.24H418.577V29H417.401ZM426.87 29L426.854 20.36H428.038V23.616H429.542C429.793 23.616 430.038 23.6213 430.278 23.632C430.518 23.6427 430.734 23.664 430.926 23.696C431.353 23.7813 431.732 23.9253 432.062 24.128C432.393 24.3307 432.654 24.6107 432.846 24.968C433.038 25.32 433.134 25.7653 433.134 26.304C433.134 27.0453 432.942 27.6293 432.558 28.056C432.174 28.4827 431.692 28.76 431.11 28.888C430.892 28.936 430.654 28.968 430.398 28.984C430.142 28.9947 429.892 29 429.646 29H426.87ZM428.038 27.992H429.598C429.774 27.992 429.974 27.9867 430.198 27.976C430.422 27.9653 430.62 27.936 430.79 27.888C431.078 27.808 431.337 27.648 431.566 27.408C431.801 27.1627 431.918 26.7947 431.918 26.304C431.918 25.8187 431.806 25.4533 431.582 25.208C431.358 24.9573 431.06 24.792 430.686 24.712C430.516 24.6747 430.334 24.6507 430.142 24.64C429.956 24.6293 429.774 24.624 429.598 24.624H428.038V27.992ZM434.166 29V20.36H435.342V29H434.166ZM441.165 19.336C440.786 19.336 440.44 19.2427 440.125 19.056C439.81 18.8693 439.56 18.6213 439.373 18.312C439.192 17.9973 439.101 17.6507 439.101 17.272H440.077C440.077 17.5707 440.184 17.8267 440.397 18.04C440.61 18.2533 440.866 18.36 441.165 18.36C441.469 18.36 441.725 18.2533 441.933 18.04C442.146 17.8267 442.253 17.5707 442.253 17.272H443.229C443.229 17.6507 443.136 17.9973 442.949 18.312C442.768 18.6213 442.52 18.8693 442.205 19.056C441.89 19.2427 441.544 19.336 441.165 19.336ZM444.445 20.36V29H443.301V22.272L438.565 29H437.573V20.36H438.717V27.032L443.461 20.36H444.445ZM453.477 29.24C452.608 29.24 451.872 29.0453 451.269 28.656C450.667 28.2667 450.208 27.7307 449.893 27.048C449.584 26.36 449.424 25.5707 449.413 24.68C449.424 23.7733 449.589 22.9787 449.909 22.296C450.229 21.608 450.691 21.0747 451.293 20.696C451.896 20.312 452.627 20.12 453.485 20.12C454.36 20.12 455.12 20.3333 455.765 20.76C456.416 21.1867 456.861 21.7707 457.101 22.512L455.949 22.88C455.747 22.3627 455.424 21.9627 454.981 21.68C454.544 21.392 454.043 21.248 453.477 21.248C452.843 21.248 452.317 21.3947 451.901 21.688C451.485 21.976 451.176 22.3787 450.973 22.896C450.771 23.4133 450.667 24.008 450.661 24.68C450.672 25.7147 450.912 26.5467 451.381 27.176C451.851 27.8 452.549 28.112 453.477 28.112C454.064 28.112 454.563 27.9787 454.973 27.712C455.389 27.44 455.704 27.0453 455.917 26.528L457.101 26.88C456.781 27.648 456.312 28.2347 455.693 28.64C455.075 29.04 454.336 29.24 453.477 29.24ZM458.745 29V20.36H465.617V29H464.441V21.488H459.921V29H458.745ZM474.726 20.36V29H473.582V22.272L468.846 29H467.854V20.36H468.998V27.032L473.742 20.36H474.726ZM480.556 29.24C479.686 29.24 478.95 29.0453 478.348 28.656C477.745 28.2667 477.286 27.7307 476.972 27.048C476.662 26.36 476.502 25.5707 476.492 24.68C476.502 23.7733 476.668 22.9787 476.988 22.296C477.308 21.608 477.769 21.0747 478.372 20.696C478.974 20.312 479.705 20.12 480.564 20.12C481.438 20.12 482.198 20.3333 482.844 20.76C483.494 21.1867 483.94 21.7707 484.18 22.512L483.028 22.88C482.825 22.3627 482.502 21.9627 482.06 21.68C481.622 21.392 481.121 21.248 480.556 21.248C479.921 21.248 479.396 21.3947 478.98 21.688C478.564 21.976 478.254 22.3787 478.052 22.896C477.849 23.4133 477.745 24.008 477.74 24.68C477.75 25.7147 477.99 26.5467 478.46 27.176C478.929 27.8 479.628 28.112 480.556 28.112C481.142 28.112 481.641 27.9787 482.052 27.712C482.468 27.44 482.782 27.0453 482.996 26.528L484.18 26.88C483.86 27.648 483.39 28.2347 482.772 28.64C482.153 29.04 481.414 29.24 480.556 29.24ZM489.205 29.24C488.346 29.24 487.613 29.0453 487.005 28.656C486.397 28.2667 485.93 27.728 485.605 27.04C485.279 26.352 485.117 25.5627 485.117 24.672C485.117 23.7653 485.282 22.9707 485.613 22.288C485.943 21.6053 486.413 21.0747 487.021 20.696C487.634 20.312 488.362 20.12 489.205 20.12C490.069 20.12 490.805 20.3147 491.413 20.704C492.026 21.088 492.493 21.624 492.813 22.312C493.138 22.9947 493.301 23.7813 493.301 24.672C493.301 25.5787 493.138 26.376 492.813 27.064C492.487 27.7467 492.018 28.28 491.405 28.664C490.791 29.048 490.058 29.24 489.205 29.24ZM489.205 28.112C490.165 28.112 490.879 27.7947 491.349 27.16C491.818 26.52 492.053 25.6907 492.053 24.672C492.053 23.6267 491.815 22.7947 491.341 22.176C490.871 21.5573 490.159 21.248 489.205 21.248C488.559 21.248 488.026 21.3947 487.605 21.688C487.189 21.976 486.877 22.3787 486.669 22.896C486.466 23.408 486.365 24 486.365 24.672C486.365 25.712 486.605 26.5467 487.085 27.176C487.565 27.8 488.271 28.112 489.205 28.112ZM495.057 29L495.065 20.36H496.249V24.52L500.105 20.36H501.673L497.625 24.68L502.201 29H500.489L496.249 24.84V29H495.057Z" fill="#344351"/>
<rect x="365.5" y="0.5" width="158" height="44" rx="3.5" stroke="#344351"/>
<rect x="365.5" y="60.5" width="158" height="44" rx="3.5" fill="white"/>
<path d="M383.164 89.24C382.444 89.24 381.788 89.0667 381.196 88.72C380.61 88.368 380.14 87.8933 379.788 87.296C379.442 86.6933 379.268 86.016 379.268 85.264V81.272C379.268 80.4987 379.442 79.8107 379.788 79.208C380.135 78.6 380.607 78.1227 381.204 77.776C381.807 77.424 382.49 77.248 383.252 77.248C383.908 77.248 384.516 77.392 385.076 77.68C385.642 77.968 386.103 78.3707 386.46 78.888L385.556 79.632C385.311 79.248 384.986 78.9413 384.58 78.712C384.175 78.4827 383.732 78.368 383.252 78.368C382.714 78.368 382.234 78.4987 381.812 78.76C381.391 79.0213 381.06 79.3653 380.82 79.792C380.58 80.2133 380.46 80.672 380.46 81.168V83.68L380.164 83.344C380.5 82.816 380.94 82.3893 381.484 82.064C382.034 81.7387 382.631 81.576 383.276 81.576C383.991 81.576 384.634 81.7467 385.204 82.088C385.775 82.424 386.228 82.88 386.564 83.456C386.9 84.032 387.068 84.6773 387.068 85.392C387.068 86.1013 386.89 86.7467 386.532 87.328C386.18 87.9093 385.708 88.3733 385.116 88.72C384.53 89.0667 383.879 89.24 383.164 89.24ZM383.164 88.096C383.666 88.096 384.122 87.976 384.532 87.736C384.948 87.496 385.276 87.1707 385.516 86.76C385.762 86.3493 385.884 85.8933 385.884 85.392C385.884 84.8907 385.762 84.4347 385.516 84.024C385.276 83.608 384.951 83.28 384.54 83.04C384.13 82.7947 383.674 82.672 383.172 82.672C382.671 82.672 382.215 82.7947 381.804 83.04C381.394 83.28 381.066 83.608 380.82 84.024C380.58 84.4347 380.46 84.8907 380.46 85.392C380.46 85.888 380.58 86.3413 380.82 86.752C381.06 87.1627 381.386 87.4907 381.796 87.736C382.207 87.976 382.663 88.096 383.164 88.096ZM395.977 89.24C395.108 89.24 394.372 89.0453 393.769 88.656C393.167 88.2667 392.708 87.7307 392.393 87.048C392.084 86.36 391.924 85.5707 391.913 84.68C391.924 83.7733 392.089 82.9787 392.409 82.296C392.729 81.608 393.191 81.0747 393.793 80.696C394.396 80.312 395.127 80.12 395.985 80.12C396.86 80.12 397.62 80.3333 398.265 80.76C398.916 81.1867 399.361 81.7707 399.601 82.512L398.449 82.88C398.247 82.3627 397.924 81.9627 397.481 81.68C397.044 81.392 396.543 81.248 395.977 81.248C395.343 81.248 394.817 81.3947 394.401 81.688C393.985 81.976 393.676 82.3787 393.473 82.896C393.271 83.4133 393.167 84.008 393.161 84.68C393.172 85.7147 393.412 86.5467 393.881 87.176C394.351 87.8 395.049 88.112 395.977 88.112C396.564 88.112 397.063 87.9787 397.473 87.712C397.889 87.44 398.204 87.0453 398.417 86.528L399.601 86.88C399.281 87.648 398.812 88.2347 398.193 88.64C397.575 89.04 396.836 89.24 395.977 89.24ZM401.245 89V80.36H408.117V89H406.941V81.488H402.421V89H401.245ZM413.97 89.24C413.112 89.24 412.378 89.0453 411.77 88.656C411.162 88.2667 410.696 87.728 410.37 87.04C410.045 86.352 409.882 85.5627 409.882 84.672C409.882 83.7653 410.048 82.9707 410.378 82.288C410.709 81.6053 411.178 81.0747 411.786 80.696C412.4 80.312 413.128 80.12 413.97 80.12C414.834 80.12 415.57 80.3147 416.178 80.704C416.792 81.088 417.258 81.624 417.578 82.312C417.904 82.9947 418.066 83.7813 418.066 84.672C418.066 85.5787 417.904 86.376 417.578 87.064C417.253 87.7467 416.784 88.28 416.17 88.664C415.557 89.048 414.824 89.24 413.97 89.24ZM413.97 88.112C414.93 88.112 415.645 87.7947 416.114 87.16C416.584 86.52 416.818 85.6907 416.818 84.672C416.818 83.6267 416.581 82.7947 416.106 82.176C415.637 81.5573 414.925 81.248 413.97 81.248C413.325 81.248 412.792 81.3947 412.37 81.688C411.954 81.976 411.642 82.3787 411.434 82.896C411.232 83.408 411.13 84 411.13 84.672C411.13 85.712 411.37 86.5467 411.85 87.176C412.33 87.8 413.037 88.112 413.97 88.112ZM423.415 89.24C422.546 89.24 421.81 89.0453 421.207 88.656C420.604 88.2667 420.146 87.7307 419.831 87.048C419.522 86.36 419.362 85.5707 419.351 84.68C419.362 83.7733 419.527 82.9787 419.847 82.296C420.167 81.608 420.628 81.0747 421.231 80.696C421.834 80.312 422.564 80.12 423.423 80.12C424.298 80.12 425.058 80.3333 425.703 80.76C426.354 81.1867 426.799 81.7707 427.039 82.512L425.887 82.88C425.684 82.3627 425.362 81.9627 424.919 81.68C424.482 81.392 423.98 81.248 423.415 81.248C422.78 81.248 422.255 81.3947 421.839 81.688C421.423 81.976 421.114 82.3787 420.911 82.896C420.708 83.4133 420.604 84.008 420.599 84.68C420.61 85.7147 420.85 86.5467 421.319 87.176C421.788 87.8 422.487 88.112 423.415 88.112C424.002 88.112 424.5 87.9787 424.911 87.712C425.327 87.44 425.642 87.0453 425.855 86.528L427.039 86.88C426.719 87.648 426.25 88.2347 425.631 88.64C425.012 89.04 424.274 89.24 423.415 89.24ZM432.064 89.24C431.205 89.24 430.472 89.0453 429.864 88.656C429.256 88.2667 428.789 87.728 428.464 87.04C428.139 86.352 427.976 85.5627 427.976 84.672C427.976 83.7653 428.141 82.9707 428.472 82.288C428.803 81.6053 429.272 81.0747 429.88 80.696C430.493 80.312 431.221 80.12 432.064 80.12C432.928 80.12 433.664 80.3147 434.272 80.704C434.885 81.088 435.352 81.624 435.672 82.312C435.997 82.9947 436.16 83.7813 436.16 84.672C436.16 85.5787 435.997 86.376 435.672 87.064C435.347 87.7467 434.877 88.28 434.264 88.664C433.651 89.048 432.917 89.24 432.064 89.24ZM432.064 88.112C433.024 88.112 433.739 87.7947 434.208 87.16C434.677 86.52 434.912 85.6907 434.912 84.672C434.912 83.6267 434.675 82.7947 434.2 82.176C433.731 81.5573 433.019 81.248 432.064 81.248C431.419 81.248 430.885 81.3947 430.464 81.688C430.048 81.976 429.736 82.3787 429.528 82.896C429.325 83.408 429.224 84 429.224 84.672C429.224 85.712 429.464 86.5467 429.944 87.176C430.424 87.8 431.131 88.112 432.064 88.112ZM441.389 89.248C440.583 89.2427 439.893 89.0667 439.317 88.72C438.741 88.3733 438.293 87.856 437.973 87.168C437.658 86.48 437.487 85.6213 437.461 84.592C437.445 84.1387 437.455 83.6453 437.493 83.112C437.53 82.5733 437.589 82.0613 437.669 81.576C437.749 81.0907 437.845 80.696 437.957 80.392C438.095 79.9973 438.293 79.6293 438.549 79.288C438.81 78.9413 439.111 78.6587 439.453 78.44C439.783 78.216 440.157 78.0427 440.573 77.92C440.994 77.792 441.431 77.6933 441.885 77.624C442.343 77.5547 442.797 77.4933 443.245 77.44C443.698 77.3867 444.117 77.32 444.501 77.24L444.629 78.304C444.335 78.3627 443.989 78.416 443.589 78.464C443.189 78.512 442.77 78.5707 442.333 78.64C441.895 78.704 441.477 78.792 441.077 78.904C440.677 79.016 440.335 79.1627 440.053 79.344C439.621 79.6053 439.287 80 439.053 80.528C438.823 81.056 438.682 81.6613 438.629 82.344C438.959 81.8267 439.397 81.4373 439.941 81.176C440.49 80.9147 441.085 80.784 441.725 80.784C442.503 80.784 443.173 80.9627 443.733 81.32C444.298 81.6773 444.733 82.1733 445.037 82.808C445.341 83.4427 445.493 84.1707 445.493 84.992C445.493 85.8507 445.325 86.6 444.989 87.24C444.658 87.88 444.186 88.376 443.573 88.728C442.959 89.0747 442.231 89.248 441.389 89.248ZM441.477 88.12C442.383 88.12 443.071 87.8373 443.541 87.272C444.015 86.7067 444.253 85.9547 444.253 85.016C444.253 84.056 444.007 83.2987 443.517 82.744C443.031 82.1893 442.346 81.912 441.461 81.912C440.575 81.912 439.895 82.1893 439.421 82.744C438.946 83.2987 438.709 84.056 438.709 85.016C438.709 85.976 438.946 86.7333 439.421 87.288C439.895 87.8427 440.581 88.12 441.477 88.12ZM450.861 89.24C450.002 89.24 449.269 89.0453 448.661 88.656C448.053 88.2667 447.586 87.728 447.261 87.04C446.935 86.352 446.773 85.5627 446.773 84.672C446.773 83.7653 446.938 82.9707 447.269 82.288C447.599 81.6053 448.069 81.0747 448.677 80.696C449.29 80.312 450.018 80.12 450.861 80.12C451.725 80.12 452.461 80.3147 453.069 80.704C453.682 81.088 454.149 81.624 454.469 82.312C454.794 82.9947 454.957 83.7813 454.957 84.672C454.957 85.5787 454.794 86.376 454.469 87.064C454.143 87.7467 453.674 88.28 453.061 88.664C452.447 89.048 451.714 89.24 450.861 89.24ZM450.861 88.112C451.821 88.112 452.535 87.7947 453.005 87.16C453.474 86.52 453.709 85.6907 453.709 84.672C453.709 83.6267 453.471 82.7947 452.997 82.176C452.527 81.5573 451.815 81.248 450.861 81.248C450.215 81.248 449.682 81.3947 449.261 81.688C448.845 81.976 448.533 82.3787 448.325 82.896C448.122 83.408 448.021 84 448.021 84.672C448.021 85.712 448.261 86.5467 448.741 87.176C449.221 87.8 449.927 88.112 450.861 88.112ZM456.714 89V80.36H460.274C460.455 80.36 460.674 80.3707 460.93 80.392C461.191 80.4133 461.434 80.4533 461.658 80.512C462.143 80.64 462.532 80.9013 462.826 81.296C463.124 81.6907 463.274 82.1653 463.274 82.72C463.274 83.0293 463.226 83.3067 463.13 83.552C463.039 83.792 462.908 84 462.738 84.176C462.658 84.2667 462.57 84.3467 462.474 84.416C462.378 84.48 462.284 84.5333 462.194 84.576C462.364 84.608 462.548 84.6827 462.746 84.8C463.055 84.9813 463.29 85.2267 463.45 85.536C463.61 85.84 463.69 86.2107 463.69 86.648C463.69 87.24 463.548 87.7227 463.266 88.096C462.983 88.4693 462.604 88.7253 462.13 88.864C461.916 88.9227 461.684 88.96 461.434 88.976C461.188 88.992 460.956 89 460.738 89H456.714ZM457.898 88H460.682C460.794 88 460.935 87.992 461.106 87.976C461.276 87.9547 461.428 87.928 461.562 87.896C461.876 87.816 462.106 87.656 462.25 87.416C462.399 87.1707 462.474 86.904 462.474 86.616C462.474 86.2373 462.362 85.928 462.138 85.688C461.919 85.4427 461.626 85.2933 461.258 85.24C461.135 85.2133 461.007 85.1973 460.874 85.192C460.74 85.1867 460.62 85.184 460.514 85.184H457.898V88ZM457.898 84.176H460.314C460.452 84.176 460.607 84.168 460.778 84.152C460.954 84.1307 461.106 84.096 461.234 84.048C461.511 83.952 461.714 83.7867 461.842 83.552C461.975 83.3173 462.042 83.0613 462.042 82.784C462.042 82.48 461.97 82.2133 461.826 81.984C461.687 81.7547 461.476 81.5947 461.194 81.504C461.002 81.4347 460.794 81.3947 460.57 81.384C460.351 81.3733 460.212 81.368 460.154 81.368H457.898V84.176ZM472.071 89.24C471.202 89.24 470.466 89.0453 469.863 88.656C469.261 88.2667 468.802 87.7307 468.487 87.048C468.178 86.36 468.018 85.5707 468.007 84.68C468.018 83.7733 468.183 82.9787 468.503 82.296C468.823 81.608 469.285 81.0747 469.887 80.696C470.49 80.312 471.221 80.12 472.079 80.12C472.954 80.12 473.714 80.3333 474.359 80.76C475.01 81.1867 475.455 81.7707 475.695 82.512L474.543 82.88C474.341 82.3627 474.018 81.9627 473.575 81.68C473.138 81.392 472.637 81.248 472.071 81.248C471.437 81.248 470.911 81.3947 470.495 81.688C470.079 81.976 469.77 82.3787 469.567 82.896C469.365 83.4133 469.261 84.008 469.255 84.68C469.266 85.7147 469.506 86.5467 469.975 87.176C470.445 87.8 471.143 88.112 472.071 88.112C472.658 88.112 473.157 87.9787 473.567 87.712C473.983 87.44 474.298 87.0453 474.511 86.528L475.695 86.88C475.375 87.648 474.906 88.2347 474.287 88.64C473.669 89.04 472.93 89.24 472.071 89.24ZM477.339 89V80.36H480.899C481.08 80.36 481.299 80.3707 481.555 80.392C481.816 80.4133 482.059 80.4533 482.283 80.512C482.768 80.64 483.157 80.9013 483.451 81.296C483.749 81.6907 483.899 82.1653 483.899 82.72C483.899 83.0293 483.851 83.3067 483.755 83.552C483.664 83.792 483.533 84 483.363 84.176C483.283 84.2667 483.195 84.3467 483.099 84.416C483.003 84.48 482.909 84.5333 482.819 84.576C482.989 84.608 483.173 84.6827 483.371 84.8C483.68 84.9813 483.915 85.2267 484.075 85.536C484.235 85.84 484.315 86.2107 484.315 86.648C484.315 87.24 484.173 87.7227 483.891 88.096C483.608 88.4693 483.229 88.7253 482.755 88.864C482.541 88.9227 482.309 88.96 482.059 88.976C481.813 88.992 481.581 89 481.363 89H477.339ZM478.523 88H481.307C481.419 88 481.56 87.992 481.731 87.976C481.901 87.9547 482.053 87.928 482.187 87.896C482.501 87.816 482.731 87.656 482.875 87.416C483.024 87.1707 483.099 86.904 483.099 86.616C483.099 86.2373 482.987 85.928 482.763 85.688C482.544 85.4427 482.251 85.2933 481.883 85.24C481.76 85.2133 481.632 85.1973 481.499 85.192C481.365 85.1867 481.245 85.184 481.139 85.184H478.523V88ZM478.523 84.176H480.939C481.077 84.176 481.232 84.168 481.403 84.152C481.579 84.1307 481.731 84.096 481.859 84.048C482.136 83.952 482.339 83.7867 482.467 83.552C482.6 83.3173 482.667 83.0613 482.667 82.784C482.667 82.48 482.595 82.2133 482.451 81.984C482.312 81.7547 482.101 81.5947 481.819 81.504C481.627 81.4347 481.419 81.3947 481.195 81.384C480.976 81.3733 480.837 81.368 480.779 81.368H478.523V84.176ZM491.325 89V85.744H489.309C489.074 85.744 488.832 85.736 488.581 85.72C488.336 85.6987 488.106 85.6693 487.893 85.632C487.285 85.5147 486.768 85.248 486.341 84.832C485.92 84.4107 485.709 83.8293 485.709 83.088C485.709 82.3627 485.906 81.7813 486.301 81.344C486.696 80.9013 487.173 80.6133 487.733 80.48C487.989 80.4213 488.248 80.3867 488.509 80.376C488.776 80.3653 489.005 80.36 489.197 80.36H492.501L492.509 89H491.325ZM485.429 89L487.837 85.376H489.141L486.717 89H485.429ZM489.245 84.736H491.325V81.368H489.245C489.117 81.368 488.938 81.3733 488.709 81.384C488.48 81.3947 488.264 81.4293 488.061 81.488C487.885 81.5413 487.709 81.6347 487.533 81.768C487.362 81.896 487.218 82.0693 487.101 82.288C486.984 82.5013 486.925 82.7627 486.925 83.072C486.925 83.504 487.042 83.8507 487.277 84.112C487.517 84.368 487.816 84.544 488.173 84.64C488.365 84.6827 488.557 84.7093 488.749 84.72C488.941 84.7307 489.106 84.736 489.245 84.736ZM497.865 89.24C496.995 89.24 496.235 89.0507 495.585 88.672C494.939 88.288 494.43 87.7573 494.057 87.08L495.001 86.48C495.315 87.0133 495.707 87.4187 496.177 87.696C496.646 87.9733 497.185 88.112 497.793 88.112C498.427 88.112 498.937 87.9653 499.321 87.672C499.705 87.3787 499.897 86.976 499.897 86.464C499.897 86.112 499.814 85.832 499.649 85.624C499.489 85.416 499.243 85.2667 498.913 85.176C498.587 85.0853 498.179 85.04 497.689 85.04H496.665V84.032H497.673C498.27 84.032 498.75 83.9253 499.113 83.712C499.481 83.4933 499.665 83.152 499.665 82.688C499.665 82.1973 499.481 81.8347 499.113 81.6C498.75 81.36 498.315 81.24 497.809 81.24C497.297 81.24 496.811 81.3467 496.353 81.56C495.899 81.768 495.518 82.0373 495.209 82.368L494.457 81.576C494.889 81.1013 495.393 80.7413 495.969 80.496C496.55 80.2453 497.193 80.12 497.897 80.12C498.451 80.12 498.953 80.2187 499.401 80.416C499.854 80.608 500.211 80.8907 500.473 81.264C500.739 81.6373 500.873 82.0853 500.873 82.608C500.873 83.0987 500.753 83.5227 500.513 83.88C500.278 84.2373 499.945 84.5333 499.513 84.768L499.449 84.328C499.822 84.3973 500.131 84.5467 500.377 84.776C500.622 85.0053 500.803 85.28 500.921 85.6C501.038 85.92 501.097 86.2453 501.097 86.576C501.097 87.1253 500.953 87.6 500.665 88C500.382 88.3947 499.995 88.7013 499.505 88.92C499.019 89.1333 498.473 89.24 497.865 89.24ZM509.726 80.36V89H508.582V82.272L503.846 89H502.854V80.36H503.998V87.032L508.742 80.36H509.726Z" fill="#344351"/>
<rect x="365.5" y="60.5" width="158" height="44" rx="3.5" stroke="#344351"/>
<rect x="365.5" y="120.5" width="158" height="44" rx="3.5" fill="white"/>
<path d="M375.695 149L379.663 137.48H381.223L385.191 149H383.967L380.199 138.136H380.663L376.919 149H375.695ZM377.463 146.208V145.104H383.415V146.208H377.463ZM386.628 149V140.36H390.188C390.369 140.36 390.588 140.371 390.844 140.392C391.105 140.413 391.348 140.453 391.572 140.512C392.057 140.64 392.446 140.901 392.74 141.296C393.038 141.691 393.188 142.165 393.188 142.72C393.188 143.029 393.14 143.307 393.044 143.552C392.953 143.792 392.822 144 392.652 144.176C392.572 144.267 392.484 144.347 392.388 144.416C392.292 144.48 392.198 144.533 392.108 144.576C392.278 144.608 392.462 144.683 392.66 144.8C392.969 144.981 393.204 145.227 393.364 145.536C393.524 145.84 393.604 146.211 393.604 146.648C393.604 147.24 393.462 147.723 393.18 148.096C392.897 148.469 392.518 148.725 392.044 148.864C391.83 148.923 391.598 148.96 391.348 148.976C391.102 148.992 390.87 149 390.652 149H386.628ZM387.812 148H390.596C390.708 148 390.849 147.992 391.02 147.976C391.19 147.955 391.342 147.928 391.476 147.896C391.79 147.816 392.02 147.656 392.164 147.416C392.313 147.171 392.388 146.904 392.388 146.616C392.388 146.237 392.276 145.928 392.052 145.688C391.833 145.443 391.54 145.293 391.172 145.24C391.049 145.213 390.921 145.197 390.788 145.192C390.654 145.187 390.534 145.184 390.428 145.184H387.812V148ZM387.812 144.176H390.228C390.366 144.176 390.521 144.168 390.692 144.152C390.868 144.131 391.02 144.096 391.148 144.048C391.425 143.952 391.628 143.787 391.756 143.552C391.889 143.317 391.956 143.061 391.956 142.784C391.956 142.48 391.884 142.213 391.74 141.984C391.601 141.755 391.39 141.595 391.108 141.504C390.916 141.435 390.708 141.395 390.484 141.384C390.265 141.373 390.126 141.368 390.068 141.368H387.812V144.176ZM397.542 149V141.448H394.478V140.36H401.782V141.448H398.718V149H397.542ZM406.759 149.24C405.901 149.24 405.167 149.045 404.559 148.656C403.951 148.267 403.485 147.728 403.159 147.04C402.834 146.352 402.671 145.563 402.671 144.672C402.671 143.765 402.837 142.971 403.167 142.288C403.498 141.605 403.967 141.075 404.575 140.696C405.189 140.312 405.917 140.12 406.759 140.12C407.623 140.12 408.359 140.315 408.967 140.704C409.581 141.088 410.047 141.624 410.367 142.312C410.693 142.995 410.855 143.781 410.855 144.672C410.855 145.579 410.693 146.376 410.367 147.064C410.042 147.747 409.573 148.28 408.959 148.664C408.346 149.048 407.613 149.24 406.759 149.24ZM406.759 148.112C407.719 148.112 408.434 147.795 408.903 147.16C409.373 146.52 409.607 145.691 409.607 144.672C409.607 143.627 409.37 142.795 408.895 142.176C408.426 141.557 407.714 141.248 406.759 141.248C406.114 141.248 405.581 141.395 405.159 141.688C404.743 141.976 404.431 142.379 404.223 142.896C404.021 143.408 403.919 144 403.919 144.672C403.919 145.712 404.159 146.547 404.639 147.176C405.119 147.8 405.826 148.112 406.759 148.112ZM413.539 152.84L415.212 148.304L415.236 149.648L411.451 140.36H412.7L415.804 148.128H415.292L418.156 140.36H419.356L414.716 152.84H413.539ZM420.737 149V140.36H424.297C424.478 140.36 424.697 140.371 424.953 140.392C425.214 140.413 425.457 140.453 425.681 140.512C426.166 140.64 426.556 140.901 426.849 141.296C427.148 141.691 427.297 142.165 427.297 142.72C427.297 143.029 427.249 143.307 427.153 143.552C427.062 143.792 426.932 144 426.761 144.176C426.681 144.267 426.593 144.347 426.497 144.416C426.401 144.48 426.308 144.533 426.217 144.576C426.388 144.608 426.572 144.683 426.769 144.8C427.078 144.981 427.313 145.227 427.473 145.536C427.633 145.84 427.713 146.211 427.713 146.648C427.713 147.24 427.572 147.723 427.289 148.096C427.006 148.469 426.628 148.725 426.153 148.864C425.94 148.923 425.708 148.96 425.457 148.976C425.212 148.992 424.98 149 424.761 149H420.737ZM421.921 148H424.705C424.817 148 424.958 147.992 425.129 147.976C425.3 147.955 425.452 147.928 425.585 147.896C425.9 147.816 426.129 147.656 426.273 147.416C426.422 147.171 426.497 146.904 426.497 146.616C426.497 146.237 426.385 145.928 426.161 145.688C425.942 145.443 425.649 145.293 425.281 145.24C425.158 145.213 425.03 145.197 424.897 145.192C424.764 145.187 424.644 145.184 424.537 145.184H421.921V148ZM421.921 144.176H424.337C424.476 144.176 424.63 144.168 424.801 144.152C424.977 144.131 425.129 144.096 425.257 144.048C425.534 143.952 425.737 143.787 425.865 143.552C425.998 143.317 426.065 143.061 426.065 142.784C426.065 142.48 425.993 142.213 425.849 141.984C425.71 141.755 425.5 141.595 425.217 141.504C425.025 141.435 424.817 141.395 424.593 141.384C424.374 141.373 424.236 141.368 424.177 141.368H421.921V144.176ZM432.964 149.24C432.121 149.24 431.39 149.053 430.772 148.68C430.158 148.307 429.681 147.781 429.34 147.104C428.998 146.427 428.828 145.632 428.828 144.72C428.828 143.776 428.996 142.96 429.332 142.272C429.668 141.584 430.14 141.053 430.748 140.68C431.361 140.307 432.084 140.12 432.916 140.12C433.769 140.12 434.497 140.317 435.1 140.712C435.702 141.101 436.158 141.661 436.468 142.392C436.777 143.123 436.918 143.995 436.892 145.008H435.692V144.592C435.67 143.472 435.428 142.627 434.964 142.056C434.505 141.485 433.833 141.2 432.948 141.2C432.02 141.2 431.308 141.501 430.812 142.104C430.321 142.707 430.076 143.565 430.076 144.68C430.076 145.768 430.321 146.613 430.812 147.216C431.308 147.813 432.009 148.112 432.916 148.112C433.534 148.112 434.073 147.971 434.532 147.688C434.996 147.4 435.361 146.987 435.628 146.448L436.724 146.872C436.382 147.624 435.878 148.208 435.212 148.624C434.55 149.035 433.801 149.24 432.964 149.24ZM429.66 145.008V144.024H436.26V145.008H429.66ZM438.027 150.92V147.992C438.518 147.992 438.87 147.835 439.083 147.52C439.296 147.2 439.47 146.691 439.603 145.992C439.694 145.539 439.768 145.051 439.827 144.528C439.886 144.005 439.936 143.408 439.979 142.736C440.022 142.059 440.062 141.267 440.099 140.36H445.811V147.992H446.643V150.92H445.507V149H439.155V150.92H438.027ZM440.019 147.992H444.643V141.368H441.187C441.171 141.773 441.147 142.203 441.115 142.656C441.088 143.109 441.054 143.563 441.011 144.016C440.974 144.469 440.928 144.896 440.875 145.296C440.827 145.691 440.768 146.037 440.699 146.336C440.619 146.72 440.531 147.048 440.435 147.32C440.344 147.592 440.206 147.816 440.019 147.992ZM451.853 149.24C450.994 149.24 450.261 149.045 449.653 148.656C449.045 148.267 448.578 147.728 448.253 147.04C447.928 146.352 447.765 145.563 447.765 144.672C447.765 143.765 447.93 142.971 448.261 142.288C448.592 141.605 449.061 141.075 449.669 140.696C450.282 140.312 451.01 140.12 451.853 140.12C452.717 140.12 453.453 140.315 454.061 140.704C454.674 141.088 455.141 141.624 455.461 142.312C455.786 142.995 455.949 143.781 455.949 144.672C455.949 145.579 455.786 146.376 455.461 147.064C455.136 147.747 454.666 148.28 454.053 148.664C453.44 149.048 452.706 149.24 451.853 149.24ZM451.853 148.112C452.813 148.112 453.528 147.795 453.997 147.16C454.466 146.52 454.701 145.691 454.701 144.672C454.701 143.627 454.464 142.795 453.989 142.176C453.52 141.557 452.808 141.248 451.853 141.248C451.208 141.248 450.674 141.395 450.253 141.688C449.837 141.976 449.525 142.379 449.317 142.896C449.114 143.408 449.013 144 449.013 144.672C449.013 145.712 449.253 146.547 449.733 147.176C450.213 147.8 450.92 148.112 451.853 148.112ZM457.706 149V140.36H458.754L462.122 147.432L465.498 140.36H466.538V149H465.402V142.872L462.498 149H461.754L458.85 142.872V149H457.706ZM472.432 149.24C471.59 149.24 470.859 149.053 470.24 148.68C469.627 148.307 469.15 147.781 468.808 147.104C468.467 146.427 468.296 145.632 468.296 144.72C468.296 143.776 468.464 142.96 468.8 142.272C469.136 141.584 469.608 141.053 470.216 140.68C470.83 140.307 471.552 140.12 472.384 140.12C473.238 140.12 473.966 140.317 474.568 140.712C475.171 141.101 475.627 141.661 475.936 142.392C476.246 143.123 476.387 143.995 476.36 145.008H475.16V144.592C475.139 143.472 474.896 142.627 474.432 142.056C473.974 141.485 473.302 141.2 472.416 141.2C471.488 141.2 470.776 141.501 470.28 142.104C469.79 142.707 469.544 143.565 469.544 144.68C469.544 145.768 469.79 146.613 470.28 147.216C470.776 147.813 471.478 148.112 472.384 148.112C473.003 148.112 473.542 147.971 474 147.688C474.464 147.4 474.83 146.987 475.096 146.448L476.192 146.872C475.851 147.624 475.347 148.208 474.68 148.624C474.019 149.035 473.27 149.24 472.432 149.24ZM469.128 145.008V144.024H475.728V145.008H469.128ZM477.336 149V147.968C477.656 148.027 477.898 148.013 478.064 147.928C478.234 147.837 478.36 147.688 478.44 147.48C478.52 147.267 478.586 147.003 478.64 146.688C478.725 146.165 478.802 145.589 478.872 144.96C478.941 144.331 479.002 143.637 479.056 142.88C479.114 142.117 479.173 141.277 479.232 140.36H485.104V149H483.936V141.488H480.32C480.282 142.053 480.24 142.616 480.192 143.176C480.144 143.736 480.093 144.275 480.04 144.792C479.992 145.304 479.938 145.776 479.88 146.208C479.821 146.64 479.76 147.013 479.696 147.328C479.6 147.803 479.472 148.181 479.312 148.464C479.157 148.747 478.925 148.933 478.616 149.024C478.306 149.115 477.88 149.107 477.336 149ZM487.331 149V140.36H488.507V144.112H493.379V140.36H494.555V149H493.379V145.24H488.507V149H487.331ZM503.656 140.36V149H502.512V142.272L497.776 149H496.784V140.36H497.928V147.032L502.672 140.36H503.656ZM511.317 149V145.744H509.301C509.067 145.744 508.824 145.736 508.573 145.72C508.328 145.699 508.099 145.669 507.885 145.632C507.277 145.515 506.76 145.248 506.333 144.832C505.912 144.411 505.701 143.829 505.701 143.088C505.701 142.363 505.899 141.781 506.293 141.344C506.688 140.901 507.165 140.613 507.725 140.48C507.981 140.421 508.24 140.387 508.501 140.376C508.768 140.365 508.997 140.36 509.189 140.36H512.493L512.501 149H511.317ZM505.421 149L507.829 145.376H509.133L506.709 149H505.421ZM509.237 144.736H511.317V141.368H509.237C509.109 141.368 508.931 141.373 508.701 141.384C508.472 141.395 508.256 141.429 508.053 141.488C507.877 141.541 507.701 141.635 507.525 141.768C507.355 141.896 507.211 142.069 507.093 142.288C506.976 142.501 506.917 142.763 506.917 143.072C506.917 143.504 507.035 143.851 507.269 144.112C507.509 144.368 507.808 144.544 508.165 144.64C508.357 144.683 508.549 144.709 508.741 144.72C508.933 144.731 509.099 144.736 509.237 144.736Z" fill="#344351"/>
<rect x="365.5" y="120.5" width="158" height="44" rx="3.5" stroke="#344351"/>
</svg>
