<svg width="497" height="354" viewBox="0 0 497 354" fill="none" xmlns="http://www.w3.org/2000/svg">
<path d="M382.441 214.041H452.949C452.949 214.041 414.78 308.659 421.979 350.919H350.523C350.523 350.919 363.856 242.86 382.441 214.041Z" fill="#EFEFEF" stroke="#55626F" stroke-linecap="round" stroke-linejoin="round"/>
<path d="M386.204 350.261C386.204 350.261 410.927 234.309 417.547 213.721C424.166 193.134 408.174 183.725 390.685 177.067C373.196 170.409 328.483 146.792 328.483 146.792L259.793 150.239C259.793 150.239 232.297 173.88 221.588 180.3C210.878 186.719 188.991 193.975 189.36 216.385C189.73 238.795 183.848 350.955 183.848 350.955" fill="#57A8F3"/>
<path d="M386.204 350.261C386.204 350.261 410.927 234.309 417.547 213.721C424.166 193.134 408.174 183.725 390.685 177.067C373.196 170.409 328.483 146.792 328.483 146.792L259.793 150.239C259.793 150.239 232.297 173.88 221.588 180.3C210.878 186.719 188.991 193.975 189.36 216.385C189.73 238.795 183.848 350.955 183.848 350.955" stroke="#55626F" stroke-linejoin="round"/>
<path d="M363.698 202.569L349.755 224.94" stroke="#55626F" stroke-linejoin="round"/>
<path d="M362.218 193.915C362.218 193.915 355.807 200.092 354.306 214.009" stroke="#55626F" stroke-linejoin="round"/>
<path d="M317.297 129.585L328.395 146.793C328.395 146.793 319.418 164.709 316.029 170.185C312.64 175.66 288.186 191.499 286.656 192.296C285.127 193.093 276.685 172.754 276.685 172.754C276.685 172.754 304.636 158.007 317.297 129.585Z" fill="white" stroke="#55626F" stroke-linejoin="round"/>
<path d="M208.205 266.978C206.246 294.726 202.904 337.384 200.052 349.436" stroke="#55626F" stroke-linejoin="round"/>
<path d="M209.859 242.236C209.859 242.236 209.522 247.765 208.943 256.35" stroke="#55626F" stroke-linejoin="round"/>
<path d="M269.649 167.845L261.066 185.772C257.7 183.452 254.861 180.446 252.736 176.952C250.611 173.458 249.247 169.555 248.734 165.497C246.963 151.617 258.751 140.978 258.751 140.978L269.649 167.845Z" fill="white" stroke="#55626F" stroke-linejoin="round"/>
<path d="M253.972 129.857C255.766 135.29 257.276 140.812 258.495 146.402C258.936 150.253 261.377 157.948 269.647 167.845C277.917 177.742 289.384 169.458 298.827 156.936C303.644 150.817 307.913 144.284 311.583 137.414L308.967 102.436C308.967 102.436 286.328 125.465 253.972 129.857Z" fill="#EFEFEF" stroke="#55626F" stroke-linejoin="round"/>
<path d="M244.61 39.112C244.61 39.112 236.809 54.5563 236.485 59.827C236.331 62.9133 236.382 66.0064 236.637 69.0859C236.684 71.915 232.071 85.2829 232.264 96.9766C232.456 108.67 235.138 124.748 237.633 129.475C240.127 134.202 248.633 136.548 255.467 135.218C262.301 133.888 274.702 129.258 285.924 125.849C297.145 122.44 314.176 104.425 314.176 104.425C314.176 104.425 323.009 102.667 328.062 92.1047C329.514 88.9224 330.205 85.4449 330.079 81.9488C329.953 78.4526 329.014 75.034 327.336 71.9645L318.752 64.8512C318.752 64.8512 307.798 60.5896 307.318 55.3666C306.837 50.1435 319.523 37.8259 304.463 28.7955C289.403 19.7651 253.641 24.4536 244.61 39.112Z" fill="#EFEFEF" stroke="#55626F" stroke-linejoin="round"/>
<path d="M309.73 79.9554C309.73 79.9554 302.502 81.2922 301.63 77.2761C300.758 73.2601 302.342 71.6218 300.685 68.8192C299.028 66.0166 286.494 62.6044 285.976 56.1642C285.459 49.724 299.465 42.6328 295.355 38.6701C291.245 34.7074 283.533 29.6035 267.839 33.0866C252.146 36.5696 253.082 41.3907 244.578 39.1126C236.073 36.8345 241.552 27.1569 241.552 27.1569C241.552 27.1569 231.988 33.3516 235.023 22.0163C238.059 10.681 254.874 1.38256 263.732 1.23655C269.714 1.25512 275.673 1.96843 281.49 3.36214C281.49 3.36214 300.738 -1.79164 314.106 6.46054C327.474 14.7127 324.848 22.7998 323.658 24.4315C322.818 25.8461 322.191 27.3762 321.796 28.9729C321.796 28.9729 336.311 29.9342 338.96 44.0057C341.609 58.0772 335.219 61.4068 333.634 62.9594C332.048 64.512 331.344 70.6464 331.344 70.6464L329.852 77.9258C329.852 77.9258 319.638 69.6388 315.677 73.7345L309.73 79.9554Z" fill="#FCA14D"/>
<path d="M244.644 66.1244C244.644 66.1244 246.679 66.8969 245.549 72.1466C244.418 77.3962 234.984 90.4663 236.655 94.0576C238.325 97.6489 252.695 100.139 256.688 98.0665C260.682 95.9941 261.095 89.8644 261.095 89.8644" stroke="#55626F" stroke-linejoin="round"/>
<path d="M237.633 129.526C235.473 125.342 233.156 112.655 232.461 101.724C234.774 99.5418 239.041 96.3672 239.041 96.3672C239.041 96.3672 247.379 97.9448 251.742 98.5418C254.359 98.834 256.985 98.0752 259.043 96.432C259.043 96.432 269.572 98.8311 273.41 103.93C276.581 108.114 275.212 122.766 273.836 129.769C267.798 131.915 261.648 133.734 255.415 135.218C248.633 136.599 240.129 134.321 237.633 129.526Z" fill="#FCA14D" stroke="#55626F" stroke-linejoin="round"/>
<path d="M247.409 99.7972C247.409 99.7972 266.852 102.255 269.06 104.191C271.269 106.127 270.406 114.082 269.511 119.036C268.615 123.991 257.196 128.947 254.991 127.199C252.785 125.452 253.436 117.123 252.43 116.351C251.423 115.578 246.061 113.677 245.301 116.468C244.542 119.259 246.074 126.952 244.686 126.975C243.298 126.998 239.858 122.115 237.346 114.233C234.834 106.35 236.183 102.949 239.128 101.717C241.816 100.797 244.591 100.153 247.409 99.7972Z" fill="#EFEFEF" stroke="#55626F" stroke-linejoin="round"/>
<path d="M264.952 105.528C264.952 105.528 251.843 110.889 239.924 106.283" stroke="#55626F" stroke-linejoin="round"/>
<path d="M261.085 76.8808C261.115 78.6983 262.064 80.1405 263.212 80.1216C264.36 80.1026 265.279 78.6297 265.249 76.8122C265.219 74.9947 264.253 73.57 263.105 73.5889C261.957 73.6078 261.054 75.029 261.085 76.8808Z" fill="#55626F"/>
<path d="M241.189 77.0205C242.334 77.0017 243.238 75.5201 243.208 73.7115C243.179 71.9028 242.226 70.4518 241.081 70.4707C239.936 70.4896 239.032 71.9711 239.062 73.7798C239.092 75.5885 240.044 77.0394 241.189 77.0205Z" fill="#55626F"/>
<path d="M253.635 68.7884C260.121 67.7526 266.726 67.7131 273.224 68.6714C280.252 69.739 282.974 71.6665 282.974 71.6665L281.476 84.7772C281.476 84.7772 279.534 86.5243 268.833 86.169C258.132 85.8137 255.945 85.198 253.73 82.8506C251.515 80.5031 253.635 68.7884 253.635 68.7884Z" stroke="#55626F" stroke-linejoin="round"/>
<path d="M245.514 68.9226C245.514 68.9226 245.817 65.4874 235.171 65.3713C228.075 65.3168 225.065 66.7899 225.065 66.7899L224.511 79.9709C224.511 79.9709 226.253 81.6573 236.771 83.3705C241.015 84.0552 241.864 80.4395 243.533 77.6679C246.566 72.4726 245.514 68.9226 245.514 68.9226Z" stroke="#55626F" stroke-linejoin="round"/>
<path d="M253.633 68.7885C253.633 68.7885 248.244 66.3047 245.511 68.9224" stroke="#55626F" stroke-linejoin="round"/>
<path d="M282.975 71.6664L314.093 74.3264L311.949 76.3512L291.363 76.2789L288.816 77.7101L282.473 77.626L282.975 71.6664Z" fill="#55626F" stroke="#55626F" stroke-linejoin="round"/>
<path d="M277.748 66.6073C275.263 63.8221 271.981 61.8701 268.349 61.0167C262.189 59.5403 257.071 61.0139 257.285 62.5882" stroke="#55626F" stroke-linejoin="round"/>
<path d="M245.619 62.9861C245.619 62.9861 242.764 58.2652 238.823 59.325" stroke="#55626F" stroke-linejoin="round"/>
<path d="M319.311 77.139L332.776 97.4981C333.338 98.348 333.561 99.3784 333.399 100.385C333.238 101.391 332.705 102.301 331.905 102.932L287.136 138.246C286.666 138.617 286.12 138.88 285.537 139.015C284.954 139.15 284.348 139.155 283.763 139.028C283.178 138.902 282.628 138.648 282.152 138.284C281.677 137.92 281.288 137.455 281.013 136.923L268.529 112.638C268.085 111.771 267.965 110.774 268.192 109.827C268.418 108.879 268.976 108.044 269.764 107.472L313.569 76.0674C314.013 75.7513 314.516 75.528 315.049 75.4106C315.581 75.2932 316.131 75.2843 316.667 75.3843C317.203 75.4843 317.713 75.6912 318.167 75.9926C318.622 76.2941 319.011 76.684 319.311 77.139Z" fill="#57A8F3" stroke="#55626F" stroke-linejoin="round"/>
<path d="M304.67 177.696C304.67 177.696 304.22 166.023 304.928 163.216C305.636 160.409 324.601 124.526 325.094 123.248C325.587 121.971 321.392 113.911 320.099 112.405C318.806 110.9 313.832 102.355 313.271 99.5691C312.711 96.7828 308.962 99.1256 309.017 102.435C309.071 105.744 311.758 114.841 313.051 116.329C314.127 118.044 314.927 119.918 315.422 121.881L310.386 128.327C310.386 128.327 304.994 113.169 304.789 112.16C304.584 111.152 295.8 106.46 293.749 104.71C291.697 102.96 291.179 102.729 289.667 103.508C288.605 104.266 287.822 105.351 287.438 106.598C286.904 106.537 286.363 106.594 285.853 106.766C285.344 106.937 284.878 107.218 284.489 107.59C282.985 108.884 283.305 110.645 283.065 111.678L283.242 114.042C282.587 113.909 281.913 113.913 281.26 114.053C280.608 114.194 279.991 114.468 279.45 114.859C278.203 116.149 278.199 115.892 278.199 115.892C277.993 116.135 277.843 116.42 277.759 116.727C277.675 117.034 277.659 117.356 277.711 117.67C277.763 117.984 277.884 118.283 278.063 118.546C278.242 118.809 278.477 119.029 278.75 119.193C280.814 120.685 284.655 122.851 285.854 125.936C287.053 129.02 281.2 144.072 278.561 153.497C275.923 162.922 274.027 171.615 276.39 175.641C278.753 179.666 284.219 188.975 284.219 188.975L304.67 177.696Z" fill="#EFEFEF" stroke="#55626F" stroke-linejoin="round"/>
<path d="M283.312 114.109C283.312 114.109 293.86 122.82 294.399 124.337C294.772 127.108 294.921 129.905 294.845 132.699" stroke="#55626F" stroke-linejoin="round"/>
<path d="M287.508 106.597C287.508 106.597 298.822 116.066 299.104 117.588C299.386 119.11 302.757 131.248 302.757 131.248" stroke="#55626F" stroke-linejoin="round"/>
<path d="M313.43 134.262L310.453 128.326" stroke="#55626F" stroke-linejoin="round"/>
<path d="M389.064 289.929C381.106 298.944 357.703 331.796 352.289 331.886C346.874 331.975 339.03 323.992 323.554 298.058C308.078 272.123 290.92 215.894 290.92 215.894L278.114 186.64L311.018 168.724C311.018 168.724 318.23 184.041 318.249 185.207C318.268 186.373 382.496 266.832 382.496 266.832" fill="#57A8F3"/>
<path d="M389.064 289.929C381.106 298.944 357.703 331.796 352.289 331.886C346.874 331.975 339.03 323.992 323.554 298.058C308.078 272.123 290.92 215.894 290.92 215.894L278.114 186.64L311.018 168.724C311.018 168.724 318.23 184.041 318.249 185.207C318.268 186.373 382.496 266.832 382.496 266.832" stroke="#55626F" stroke-linejoin="round"/>
<path d="M1 351H496" stroke="#55626F" stroke-linecap="round" stroke-linejoin="round"/>
<path d="M136.88 343.674L137.288 350.364L217.117 350.314V343.674H136.88Z" fill="white" stroke="#55626F"/>
<path d="M68.5554 350.865L166.023 350.836L130.47 246.631L33.0023 246.66L68.5554 350.865Z" fill="#55626F"/>
<path d="M91.6613 304.311C94.6494 309.093 100.232 311.053 104.49 308.955C104.739 308.836 104.98 308.701 105.212 308.55C109.543 305.837 110.499 299.525 107.341 294.469C104.184 289.412 98.1137 287.505 93.7724 290.229C92.4985 291.036 91.469 292.177 90.7952 293.528C89.2615 296.632 89.46 300.781 91.6613 304.311Z" fill="#EFEFEF"/>
</svg>
