<svg width="50" height="589" viewBox="0 0 50 589" fill="none" xmlns="http://www.w3.org/2000/svg">
<path fill-rule="evenodd" clip-rule="evenodd" d="M29 0.5C29.5416 0.5 30.0783 0.52101 30.6095 0.562275L30.532 1.55927C30.0266 1.52001 29.5157 1.5 29 1.5H27.55V0.5H29ZM21.75 0.5H24.65V1.5H21.75V0.5ZM15.95 0.5H18.85V1.5H15.95V0.5ZM10.15 0.5H13.05V1.5H10.15V0.5ZM4.35 0.5H7.25V1.5H4.35V0.5ZM0 0.5H1.45V1.5H0V0.5ZM33.7873 1.0621C34.8412 1.31427 35.8636 1.64783 36.8473 2.05575L36.4642 2.97947C35.5288 2.59159 34.5568 2.27443 33.5546 2.03465L33.7873 1.0621ZM39.7128 3.51854C40.6302 4.08187 41.4997 4.71534 42.314 5.41146L41.6642 6.17156C40.8894 5.50921 40.0622 4.90655 39.1895 4.37069L39.7128 3.51854ZM44.5885 7.68599C45.2847 8.50028 45.9181 9.36982 46.4815 10.2872L45.6293 10.8105C45.0934 9.93785 44.4908 9.11058 43.8284 8.33579L44.5885 7.68599ZM47.9443 13.1527C48.3522 14.1364 48.6857 15.1588 48.9379 16.2127L47.9653 16.4454C47.7256 15.4432 47.4084 14.4712 47.0205 13.5358L47.9443 13.1527ZM49.4377 19.3905C49.479 19.9217 49.5 20.4584 49.5 21V22.5027H48.5V21C48.5 20.4843 48.48 19.9734 48.4407 19.468L49.4377 19.3905ZM49.5 25.5082V28.5137H48.5V25.5082H49.5ZM49.5 31.5192V34.5247H48.5V31.5192H49.5ZM49.5 37.5302V40.5357H48.5V37.5302H49.5ZM49.5 43.5412V46.5467H48.5V43.5412H49.5ZM49.5 49.5522V52.5577H48.5V49.5522H49.5ZM49.5 55.5632V58.5687H48.5V55.5632H49.5ZM49.5 61.5742V64.5797H48.5V61.5742H49.5ZM49.5 67.5852V70.5907H48.5V67.5852H49.5ZM49.5 73.5962V76.6016H48.5V73.5962H49.5ZM49.5 79.6071V82.6126H48.5V79.6071H49.5ZM49.5 85.6181V88.6236H48.5V85.6181H49.5ZM49.5 91.6291V94.6346H48.5V92.8054H47.0145C46.7383 92.8054 46.5145 92.5816 46.5145 92.3054C46.5145 92.0293 46.7383 91.8054 47.0145 91.8054H48.5V91.6291H49.5ZM49.5 97.6401V100.646H48.5V97.6401H49.5ZM49.5 103.651V106.657H48.5V103.651H49.5ZM49.5 109.662V112.668H48.5V109.662H49.5ZM49.5 115.673V118.679H48.5V115.673H49.5ZM49.5 121.684V124.69H48.5V121.684H49.5ZM49.5 127.695V130.701H48.5V127.695H49.5ZM49.5 133.706V136.712H48.5V133.706H49.5ZM49.5 139.717V142.722H48.5V139.717H49.5ZM49.5 145.728V148.733H48.5V145.728H49.5ZM49.5 151.739V154.744H48.5V151.739H49.5ZM49.5 157.75V160.755H48.5V157.75H49.5ZM49.5 163.761V166.766H48.5V163.761H49.5ZM49.5 169.772V172.777H48.5V169.772H49.5ZM49.5 175.783V178.788H48.5V175.783H49.5ZM49.5 181.794V184.799H48.5V181.794H49.5ZM49.5 187.805V190.81H48.5V187.805H49.5ZM49.5 193.816V196.821H48.5V193.816H49.5ZM49.5 199.827V202.832H48.5V199.827H49.5ZM49.5 205.838V208.843H48.5V205.838H49.5ZM49.5 211.849V214.854H48.5V211.849H49.5ZM49.5 217.86V220.865H48.5V217.86H49.5ZM49.5 223.871V226.876H48.5V223.871H49.5ZM49.5 229.882V232.887H48.5V229.882H49.5ZM49.5 235.893V238.898H48.5V238.805H47.0145C46.7383 238.805 46.5145 238.582 46.5145 238.305C46.5145 238.029 46.7383 237.805 47.0145 237.805H48.5V235.893H49.5ZM49.5 241.904V244.909H48.5V241.904H49.5ZM49.5 247.915V250.92H48.5V247.915H49.5ZM49.5 253.926V256.931H48.5V253.926H49.5ZM49.5 259.937V262.942H48.5V259.937H49.5ZM49.5 265.948V268.953H48.5V265.948H49.5ZM49.5 271.959V274.964H48.5V271.959H49.5ZM49.5 277.97V280.975H48.5V277.97H49.5ZM49.5 283.981V286.986H48.5V283.981H49.5ZM49.5 289.992V292.997H48.5V289.992H49.5ZM49.5 296.003V299.008H48.5V296.003H49.5ZM49.5 302.014V305.019H48.5V302.014H49.5ZM49.5 308.025V311.03H48.5V308.025H49.5ZM49.5 314.036V317.041H48.5V314.036H49.5ZM49.5 320.047V323.052H48.5V320.047H49.5ZM49.5 326.058V329.063H48.5V326.058H49.5ZM49.5 332.069V335.074H48.5V332.069H49.5ZM49.5 338.08V341.085H48.5V338.08H49.5ZM49.5 344.091V347.096H48.5V344.091H49.5ZM49.5 350.102V353.107H48.5V350.102H49.5ZM49.5 356.113V359.118H48.5V356.113H49.5ZM49.5 362.124V365.129H48.5V362.124H49.5ZM49.5 368.134V371.14H48.5V368.134H49.5ZM49.5 374.145V377.151H48.5V374.145H49.5ZM49.5 380.156V383.162H48.5V380.156H49.5ZM49.5 386.167V389.173H48.5V386.167H49.5ZM49.5 392.178V395.184H48.5V394.805H47.0145C46.7383 394.805 46.5145 394.582 46.5145 394.305C46.5145 394.029 46.7383 393.805 47.0145 393.805H48.5V392.178H49.5ZM49.5 398.189V401.195H48.5V398.189H49.5ZM49.5 404.2V407.206H48.5V404.2H49.5ZM49.5 410.211V413.217H48.5V410.211H49.5ZM49.5 416.222V419.228H48.5V416.222H49.5ZM49.5 422.233V425.239H48.5V422.233H49.5ZM49.5 428.244V431.25H48.5V428.244H49.5ZM49.5 434.255V437.261H48.5V434.255H49.5ZM49.5 440.266V443.272H48.5V440.266H49.5ZM49.5 446.277V449.283H48.5V446.277H49.5ZM49.5 452.288V455.294H48.5V452.288H49.5ZM49.5 458.299V461.305H48.5V458.299H49.5ZM49.5 464.31V467.316H48.5V464.31H49.5ZM49.5 470.321V473.327H48.5V470.321H49.5ZM49.5 476.332V479.338H48.5V476.332H49.5ZM49.5 482.343V485.349H48.5V482.343H49.5ZM49.5 488.354V491.36H48.5V488.354H49.5ZM49.5 494.365V497.371H48.5V494.365H49.5ZM49.5 500.376V503.382H48.5V500.376H49.5ZM49.5 506.387V509.393H48.5V506.387H49.5ZM49.5 512.398V515.404H48.5V512.398H49.5ZM49.5 518.409V521.415H48.5V518.409H49.5ZM49.5 524.42V527.426H48.5V524.42H49.5ZM49.5 530.431V533.437H48.5V530.431H49.5ZM49.5 536.442V539.448H48.5V536.442H49.5ZM49.5 542.453V545.459H48.5V542.453H49.5ZM49.5 548.464V551.47H48.5V548.464H49.5ZM49.5 554.475V557.481H48.5V554.475H49.5ZM49.5 560.486V563.492H48.5V560.486H49.5ZM49.5 566.497V568C49.5 568.542 49.479 569.078 49.4377 569.609L48.4407 569.532C48.48 569.027 48.5 568.516 48.5 568V566.497H49.5ZM48.9379 572.787C48.6857 573.841 48.3522 574.864 47.9443 575.847L47.0205 575.464C47.4084 574.529 47.7256 573.557 47.9653 572.555L48.9379 572.787ZM46.4815 578.713C45.9181 579.63 45.2847 580.5 44.5885 581.314L43.8284 580.664C44.4908 579.889 45.0934 579.062 45.6293 578.19L46.4815 578.713ZM42.314 583.589C41.4997 584.285 40.6302 584.918 39.7128 585.481L39.1895 584.629C40.0622 584.093 40.8894 583.491 41.6642 582.828L42.314 583.589ZM36.8473 586.944C35.8636 587.352 34.8412 587.686 33.7873 587.938L33.5546 586.965C34.5568 586.726 35.5288 586.408 36.4642 586.021L36.8473 586.944ZM30.6095 588.438C30.0783 588.479 29.5416 588.5 29 588.5H27.55V587.5H29C29.5157 587.5 30.0266 587.48 30.532 587.441L30.6095 588.438ZM24.65 588.5H21.75V587.5H24.65V588.5ZM18.85 588.5H15.95V587.5H18.85V588.5ZM13.05 588.5H10.15V587.5H13.05V588.5ZM7.25 588.5H4.35V587.5H7.25V588.5ZM1.45 588.5H0V587.5H1.45V588.5ZM43.8793 91.8054C44.1555 91.8054 44.3793 92.0293 44.3793 92.3054C44.3793 92.5816 44.1555 92.8054 43.8793 92.8054H40.7442C40.4681 92.8054 40.2442 92.5816 40.2442 92.3054C40.2442 92.0293 40.4681 91.8054 40.7442 91.8054H43.8793ZM37.6091 91.8054C37.8852 91.8054 38.1091 92.0293 38.1091 92.3054C38.1091 92.5816 37.8852 92.8054 37.6091 92.8054H34.4739C34.1978 92.8054 33.9739 92.5816 33.9739 92.3054C33.9739 92.0293 34.1978 91.8054 34.4739 91.8054H37.6091ZM31.3388 91.8054C31.6149 91.8054 31.8388 92.0293 31.8388 92.3054C31.8388 92.5816 31.6149 92.8054 31.3388 92.8054H28.2037C27.9275 92.8054 27.7037 92.5816 27.7037 92.3054C27.7037 92.0293 27.9275 91.8054 28.2037 91.8054H31.3388ZM25.0685 91.8054C25.3447 91.8054 25.5685 92.0293 25.5685 92.3054C25.5685 92.5816 25.3447 92.8054 25.0685 92.8054H23.501C23.2248 92.8054 23.001 92.5816 23.001 92.3054C23.001 92.0293 23.2248 91.8054 23.501 91.8054H25.0685ZM43.8793 393.805C44.1555 393.805 44.3793 394.029 44.3793 394.305C44.3793 394.582 44.1555 394.805 43.8793 394.805H40.7442C40.4681 394.805 40.2442 394.582 40.2442 394.305C40.2442 394.029 40.4681 393.805 40.7442 393.805H43.8793ZM37.6091 393.805C37.8852 393.805 38.1091 394.029 38.1091 394.305C38.1091 394.582 37.8852 394.805 37.6091 394.805H34.4739C34.1978 394.805 33.9739 394.582 33.9739 394.305C33.9739 394.029 34.1978 393.805 34.4739 393.805H37.6091ZM31.3388 393.805C31.6149 393.805 31.8388 394.029 31.8388 394.305C31.8388 394.582 31.6149 394.805 31.3388 394.805H28.2037C27.9275 394.805 27.7037 394.582 27.7037 394.305C27.7037 394.029 27.9275 393.805 28.2037 393.805H31.3388ZM25.0685 393.805C25.3447 393.805 25.5685 394.029 25.5685 394.305C25.5685 394.582 25.3447 394.805 25.0685 394.805H23.501C23.2248 394.805 23.001 394.582 23.001 394.305C23.001 394.029 23.2248 393.805 23.501 393.805H25.0685ZM44.3793 238.305C44.3793 238.029 44.1555 237.805 43.8793 237.805H40.7442C40.4681 237.805 40.2442 238.029 40.2442 238.305C40.2442 238.582 40.4681 238.805 40.7442 238.805H43.8793C44.1555 238.805 44.3793 238.582 44.3793 238.305ZM38.1091 238.305C38.1091 238.029 37.8852 237.805 37.6091 237.805H34.4739C34.1978 237.805 33.9739 238.029 33.9739 238.305C33.9739 238.582 34.1978 238.805 34.4739 238.805H37.6091C37.8852 238.805 38.1091 238.582 38.1091 238.305ZM31.8388 238.305C31.8388 238.029 31.6149 237.805 31.3388 237.805H28.2037C27.9275 237.805 27.7037 238.029 27.7037 238.305C27.7037 238.582 27.9275 238.805 28.2037 238.805H31.3388C31.6149 238.805 31.8388 238.582 31.8388 238.305ZM25.5685 238.305C25.5685 238.029 25.3447 237.805 25.0685 237.805H23.501C23.2248 237.805 23.001 238.029 23.001 238.305C23.001 238.582 23.2248 238.805 23.501 238.805H25.0685C25.3447 238.805 25.5685 238.582 25.5685 238.305Z" fill="#F88C28"/>
</svg>
