<svg width="156" height="217" viewBox="0 0 156 217" fill="none" xmlns="http://www.w3.org/2000/svg">
<rect x="0.5" y="77.5" width="125" height="61" rx="3.5" fill="white"/>
<path d="M23.7059 104V92.48H30.9059V93.608H24.8819V104H23.7059ZM34.5171 104.24C33.6584 104.24 32.9251 104.045 32.3171 103.656C31.7091 103.267 31.2424 102.728 30.9171 102.04C30.5917 101.352 30.4291 100.563 30.4291 99.672C30.4291 98.7653 30.5944 97.9707 30.9251 97.288C31.2557 96.6053 31.7251 96.0747 32.3331 95.696C32.9464 95.312 33.6744 95.12 34.5171 95.12C35.3811 95.12 36.1171 95.3147 36.7251 95.704C37.3384 96.088 37.8051 96.624 38.1251 97.312C38.4504 97.9947 38.6131 98.7813 38.6131 99.672C38.6131 100.579 38.4504 101.376 38.1251 102.064C37.7997 102.747 37.3304 103.28 36.7171 103.664C36.1037 104.048 35.3704 104.24 34.5171 104.24ZM34.5171 103.112C35.4771 103.112 36.1917 102.795 36.6611 102.16C37.1304 101.52 37.3651 100.691 37.3651 99.672C37.3651 98.6267 37.1277 97.7947 36.6531 97.176C36.1837 96.5573 35.4717 96.248 34.5171 96.248C33.8717 96.248 33.3384 96.3947 32.9171 96.688C32.5011 96.976 32.1891 97.3787 31.9811 97.896C31.7784 98.408 31.6771 99 31.6771 99.672C31.6771 100.712 31.9171 101.547 32.3971 102.176C32.8771 102.8 33.5837 103.112 34.5171 103.112ZM39.5778 104V102.968C39.8978 103.027 40.1405 103.013 40.3058 102.928C40.4765 102.837 40.6018 102.688 40.6818 102.48C40.7618 102.267 40.8285 102.003 40.8818 101.688C40.9671 101.165 41.0445 100.589 41.1138 99.96C41.1831 99.3307 41.2445 98.6373 41.2978 97.88C41.3565 97.1173 41.4151 96.2773 41.4738 95.36H47.3458V104H46.1778V96.488H42.5618C42.5245 97.0533 42.4818 97.616 42.4338 98.176C42.3858 98.736 42.3351 99.2747 42.2818 99.792C42.2338 100.304 42.1805 100.776 42.1218 101.208C42.0631 101.64 42.0018 102.013 41.9378 102.328C41.8418 102.803 41.7138 103.181 41.5538 103.464C41.3991 103.747 41.1671 103.933 40.8578 104.024C40.5485 104.115 40.1218 104.107 39.5778 104ZM53.1889 104.24C52.3303 104.24 51.5969 104.045 50.9889 103.656C50.3809 103.267 49.9143 102.728 49.5889 102.04C49.2636 101.352 49.1009 100.563 49.1009 99.672C49.1009 98.7653 49.2663 97.9707 49.5969 97.288C49.9276 96.6053 50.3969 96.0747 51.0049 95.696C51.6183 95.312 52.3463 95.12 53.1889 95.12C54.0529 95.12 54.7889 95.3147 55.3969 95.704C56.0103 96.088 56.4769 96.624 56.7969 97.312C57.1223 97.9947 57.2849 98.7813 57.2849 99.672C57.2849 100.579 57.1223 101.376 56.7969 102.064C56.4716 102.747 56.0023 103.28 55.3889 103.664C54.7756 104.048 54.0423 104.24 53.1889 104.24ZM53.1889 103.112C54.1489 103.112 54.8636 102.795 55.3329 102.16C55.8023 101.52 56.0369 100.691 56.0369 99.672C56.0369 98.6267 55.7996 97.7947 55.3249 97.176C54.8556 96.5573 54.1436 96.248 53.1889 96.248C52.5436 96.248 52.0103 96.3947 51.5889 96.688C51.1729 96.976 50.8609 97.3787 50.6529 97.896C50.4503 98.408 50.3489 99 50.3489 99.672C50.3489 100.712 50.5889 101.547 51.0689 102.176C51.5489 102.8 52.2556 103.112 53.1889 103.112ZM62.6337 104.24C61.7644 104.24 61.0284 104.045 60.4257 103.656C59.823 103.267 59.3644 102.731 59.0497 102.048C58.7404 101.36 58.5804 100.571 58.5697 99.68C58.5804 98.7733 58.7457 97.9787 59.0657 97.296C59.3857 96.608 59.847 96.0747 60.4497 95.696C61.0524 95.312 61.783 95.12 62.6417 95.12C63.5164 95.12 64.2764 95.3333 64.9217 95.76C65.5724 96.1867 66.0177 96.7707 66.2577 97.512L65.1057 97.88C64.903 97.3627 64.5804 96.9627 64.1377 96.68C63.7004 96.392 63.199 96.248 62.6337 96.248C61.999 96.248 61.4737 96.3947 61.0577 96.688C60.6417 96.976 60.3324 97.3787 60.1297 97.896C59.927 98.4133 59.823 99.008 59.8177 99.68C59.8284 100.715 60.0684 101.547 60.5377 102.176C61.007 102.8 61.7057 103.112 62.6337 103.112C63.2204 103.112 63.719 102.979 64.1297 102.712C64.5457 102.44 64.8604 102.045 65.0737 101.528L66.2577 101.88C65.9377 102.648 65.4684 103.235 64.8497 103.64C64.231 104.04 63.4924 104.24 62.6337 104.24ZM71.2827 104.24C70.424 104.24 69.6907 104.045 69.0827 103.656C68.4747 103.267 68.008 102.728 67.6827 102.04C67.3574 101.352 67.1947 100.563 67.1947 99.672C67.1947 98.7653 67.36 97.9707 67.6907 97.288C68.0214 96.6053 68.4907 96.0747 69.0987 95.696C69.712 95.312 70.44 95.12 71.2827 95.12C72.1467 95.12 72.8827 95.3147 73.4907 95.704C74.104 96.088 74.5707 96.624 74.8907 97.312C75.216 97.9947 75.3787 98.7813 75.3787 99.672C75.3787 100.579 75.216 101.376 74.8907 102.064C74.5654 102.747 74.096 103.28 73.4827 103.664C72.8694 104.048 72.136 104.24 71.2827 104.24ZM71.2827 103.112C72.2427 103.112 72.9574 102.795 73.4267 102.16C73.896 101.52 74.1307 100.691 74.1307 99.672C74.1307 98.6267 73.8934 97.7947 73.4187 97.176C72.9494 96.5573 72.2374 96.248 71.2827 96.248C70.6374 96.248 70.104 96.3947 69.6827 96.688C69.2667 96.976 68.9547 97.3787 68.7467 97.896C68.544 98.408 68.4427 99 68.4427 99.672C68.4427 100.712 68.6827 101.547 69.1627 102.176C69.6427 102.8 70.3494 103.112 71.2827 103.112ZM77.1354 104V95.36H80.6954C80.8768 95.36 81.0954 95.3707 81.3514 95.392C81.6128 95.4133 81.8554 95.4533 82.0794 95.512C82.5648 95.64 82.9541 95.9013 83.2474 96.296C83.5461 96.6907 83.6954 97.1653 83.6954 97.72C83.6954 98.0293 83.6474 98.3067 83.5514 98.552C83.4608 98.792 83.3301 99 83.1594 99.176C83.0794 99.2667 82.9914 99.3467 82.8954 99.416C82.7994 99.48 82.7061 99.5333 82.6154 99.576C82.7861 99.608 82.9701 99.6827 83.1674 99.8C83.4768 99.9813 83.7114 100.227 83.8714 100.536C84.0314 100.84 84.1114 101.211 84.1114 101.648C84.1114 102.24 83.9701 102.723 83.6874 103.096C83.4048 103.469 83.0261 103.725 82.5514 103.864C82.3381 103.923 82.1061 103.96 81.8554 103.976C81.6101 103.992 81.3781 104 81.1594 104H77.1354ZM78.3194 103H81.1034C81.2154 103 81.3568 102.992 81.5274 102.976C81.6981 102.955 81.8501 102.928 81.9834 102.896C82.2981 102.816 82.5274 102.656 82.6714 102.416C82.8208 102.171 82.8954 101.904 82.8954 101.616C82.8954 101.237 82.7834 100.928 82.5594 100.688C82.3408 100.443 82.0474 100.293 81.6794 100.24C81.5568 100.213 81.4288 100.197 81.2954 100.192C81.1621 100.187 81.0421 100.184 80.9354 100.184H78.3194V103ZM78.3194 99.176H80.7354C80.8741 99.176 81.0288 99.168 81.1994 99.152C81.3754 99.1307 81.5274 99.096 81.6554 99.048C81.9328 98.952 82.1354 98.7867 82.2634 98.552C82.3968 98.3173 82.4634 98.0613 82.4634 97.784C82.4634 97.48 82.3914 97.2133 82.2474 96.984C82.1088 96.7547 81.8981 96.5947 81.6154 96.504C81.4234 96.4347 81.2154 96.3947 80.9914 96.384C80.7728 96.3733 80.6341 96.368 80.5754 96.368H78.3194V99.176ZM89.3139 104.24C88.4553 104.24 87.7219 104.045 87.1139 103.656C86.5059 103.267 86.0393 102.728 85.7139 102.04C85.3886 101.352 85.2259 100.563 85.2259 99.672C85.2259 98.7653 85.3913 97.9707 85.7219 97.288C86.0526 96.6053 86.5219 96.0747 87.1299 95.696C87.7433 95.312 88.4713 95.12 89.3139 95.12C90.1779 95.12 90.9139 95.3147 91.5219 95.704C92.1353 96.088 92.6019 96.624 92.9219 97.312C93.2473 97.9947 93.4099 98.7813 93.4099 99.672C93.4099 100.579 93.2473 101.376 92.9219 102.064C92.5966 102.747 92.1273 103.28 91.5139 103.664C90.9006 104.048 90.1673 104.24 89.3139 104.24ZM89.3139 103.112C90.2739 103.112 90.9886 102.795 91.4579 102.16C91.9273 101.52 92.1619 100.691 92.1619 99.672C92.1619 98.6267 91.9246 97.7947 91.4499 97.176C90.9806 96.5573 90.2686 96.248 89.3139 96.248C88.6686 96.248 88.1353 96.3947 87.7139 96.688C87.2979 96.976 86.9859 97.3787 86.7779 97.896C86.5753 98.408 86.4739 99 86.4739 99.672C86.4739 100.712 86.7139 101.547 87.1939 102.176C87.6739 102.8 88.3806 103.112 89.3139 103.112ZM98.8307 104.24C97.988 104.24 97.2574 104.053 96.6387 103.68C96.0254 103.307 95.548 102.781 95.2067 102.104C94.8654 101.427 94.6947 100.632 94.6947 99.72C94.6947 98.776 94.8627 97.96 95.1987 97.272C95.5347 96.584 96.0067 96.0533 96.6147 95.68C97.228 95.3067 97.9507 95.12 98.7827 95.12C99.636 95.12 100.364 95.3173 100.967 95.712C101.569 96.1013 102.025 96.6613 102.335 97.392C102.644 98.1227 102.785 98.9947 102.759 100.008H101.559V99.592C101.537 98.472 101.295 97.6267 100.831 97.056C100.372 96.4853 99.7 96.2 98.8147 96.2C97.8867 96.2 97.1747 96.5013 96.6787 97.104C96.188 97.7067 95.9427 98.5653 95.9427 99.68C95.9427 100.768 96.188 101.613 96.6787 102.216C97.1747 102.813 97.876 103.112 98.7827 103.112C99.4014 103.112 99.94 102.971 100.399 102.688C100.863 102.4 101.228 101.987 101.495 101.448L102.591 101.872C102.249 102.624 101.745 103.208 101.079 103.624C100.417 104.035 99.668 104.24 98.8307 104.24ZM95.5267 100.008V99.024H102.127V100.008H95.5267ZM15.487 125V116.36H22.359V125H21.183V117.488H16.663V125H15.487ZM28.4844 125.24C27.6897 125.24 27.0177 125.04 26.4684 124.64C25.919 124.235 25.503 123.688 25.2204 123C24.9377 122.307 24.7964 121.531 24.7964 120.672C24.7964 119.797 24.9377 119.019 25.2204 118.336C25.5084 117.648 25.9297 117.107 26.4844 116.712C27.039 116.317 27.7217 116.12 28.5324 116.12C29.3217 116.12 29.999 116.32 30.5644 116.72C31.1297 117.12 31.5617 117.664 31.8604 118.352C32.1644 119.04 32.3164 119.813 32.3164 120.672C32.3164 121.536 32.1644 122.312 31.8604 123C31.5564 123.688 31.119 124.235 30.5484 124.64C29.9777 125.04 29.2897 125.24 28.4844 125.24ZM24.5964 128.84V116.36H25.6524V122.864H25.7804V128.84H24.5964ZM28.3644 124.144C28.967 124.144 29.4684 123.992 29.8684 123.688C30.2684 123.384 30.567 122.971 30.7644 122.448C30.967 121.92 31.0684 121.328 31.0684 120.672C31.0684 120.021 30.9697 119.435 30.7724 118.912C30.575 118.389 30.2737 117.976 29.8684 117.672C29.4684 117.368 28.959 117.216 28.3404 117.216C27.7377 117.216 27.2364 117.363 26.8364 117.656C26.4417 117.949 26.1457 118.357 25.9484 118.88C25.751 119.397 25.6524 119.995 25.6524 120.672C25.6524 121.339 25.751 121.936 25.9484 122.464C26.1457 122.987 26.4444 123.397 26.8444 123.696C27.2444 123.995 27.751 124.144 28.3644 124.144ZM40.9371 116.36V125H39.7931V118.272L35.0571 125H34.0651V116.36H35.2091V123.032L39.9531 116.36H40.9371ZM43.1745 125V116.36H46.7345C46.9158 116.36 47.1345 116.371 47.3905 116.392C47.6518 116.413 47.8945 116.453 48.1185 116.512C48.6038 116.64 48.9932 116.901 49.2865 117.296C49.5852 117.691 49.7345 118.165 49.7345 118.72C49.7345 119.029 49.6865 119.307 49.5905 119.552C49.4998 119.792 49.3692 120 49.1985 120.176C49.1185 120.267 49.0305 120.347 48.9345 120.416C48.8385 120.48 48.7452 120.533 48.6545 120.576C48.8252 120.608 49.0092 120.683 49.2065 120.8C49.5158 120.981 49.7505 121.227 49.9105 121.536C50.0705 121.84 50.1505 122.211 50.1505 122.648C50.1505 123.24 50.0092 123.723 49.7265 124.096C49.4438 124.469 49.0652 124.725 48.5905 124.864C48.3772 124.923 48.1452 124.96 47.8945 124.976C47.6492 124.992 47.4172 125 47.1985 125H43.1745ZM44.3585 124H47.1425C47.2545 124 47.3958 123.992 47.5665 123.976C47.7372 123.955 47.8892 123.928 48.0225 123.896C48.3372 123.816 48.5665 123.656 48.7105 123.416C48.8598 123.171 48.9345 122.904 48.9345 122.616C48.9345 122.237 48.8225 121.928 48.5985 121.688C48.3798 121.443 48.0865 121.293 47.7185 121.24C47.5958 121.213 47.4678 121.197 47.3345 121.192C47.2012 121.187 47.0812 121.184 46.9745 121.184H44.3585V124ZM44.3585 120.176H46.7745C46.9132 120.176 47.0678 120.168 47.2385 120.152C47.4145 120.131 47.5665 120.096 47.6945 120.048C47.9718 119.952 48.1745 119.787 48.3025 119.552C48.4358 119.317 48.5025 119.061 48.5025 118.784C48.5025 118.48 48.4305 118.213 48.2865 117.984C48.1478 117.755 47.9372 117.595 47.6545 117.504C47.4625 117.435 47.2545 117.395 47.0305 117.384C46.8118 117.373 46.6732 117.368 46.6145 117.368H44.3585V120.176ZM55.401 125.24C54.5583 125.24 53.8277 125.053 53.209 124.68C52.5957 124.307 52.1183 123.781 51.777 123.104C51.4357 122.427 51.265 121.632 51.265 120.72C51.265 119.776 51.433 118.96 51.769 118.272C52.105 117.584 52.577 117.053 53.185 116.68C53.7983 116.307 54.521 116.12 55.353 116.12C56.2063 116.12 56.9343 116.317 57.537 116.712C58.1397 117.101 58.5957 117.661 58.905 118.392C59.2143 119.123 59.3557 119.995 59.329 121.008H58.129V120.592C58.1077 119.472 57.865 118.627 57.401 118.056C56.9423 117.485 56.2703 117.2 55.385 117.2C54.457 117.2 53.745 117.501 53.249 118.104C52.7583 118.707 52.513 119.565 52.513 120.68C52.513 121.768 52.7583 122.613 53.249 123.216C53.745 123.813 54.4463 124.112 55.353 124.112C55.9717 124.112 56.5103 123.971 56.969 123.688C57.433 123.4 57.7983 122.987 58.065 122.448L59.161 122.872C58.8197 123.624 58.3157 124.208 57.649 124.624C56.9877 125.035 56.2383 125.24 55.401 125.24ZM52.097 121.008V120.024H58.697V121.008H52.097ZM63.339 125V117.448H60.275V116.36H67.579V117.448H64.515V125H63.339ZM72.5321 125.24C71.6628 125.24 70.9268 125.045 70.3241 124.656C69.7215 124.267 69.2628 123.731 68.9481 123.048C68.6388 122.36 68.4788 121.571 68.4681 120.68C68.4788 119.773 68.6441 118.979 68.9641 118.296C69.2841 117.608 69.7455 117.075 70.3481 116.696C70.9508 116.312 71.6815 116.12 72.5401 116.12C73.4148 116.12 74.1748 116.333 74.8201 116.76C75.4708 117.187 75.9161 117.771 76.1561 118.512L75.0041 118.88C74.8015 118.363 74.4788 117.963 74.0361 117.68C73.5988 117.392 73.0975 117.248 72.5321 117.248C71.8975 117.248 71.3721 117.395 70.9561 117.688C70.5401 117.976 70.2308 118.379 70.0281 118.896C69.8255 119.413 69.7215 120.008 69.7161 120.68C69.7268 121.715 69.9668 122.547 70.4361 123.176C70.9055 123.8 71.6041 124.112 72.5321 124.112C73.1188 124.112 73.6175 123.979 74.0281 123.712C74.4441 123.44 74.7588 123.045 74.9721 122.528L76.1561 122.88C75.8361 123.648 75.3668 124.235 74.7481 124.64C74.1295 125.04 73.3908 125.24 72.5321 125.24ZM79.9484 125V117.448H76.8844V116.36H84.1884V117.448H81.1244V125H79.9484ZM85.7058 125V116.36H89.2658C89.4471 116.36 89.6658 116.371 89.9218 116.392C90.1831 116.413 90.4258 116.453 90.6498 116.512C91.1351 116.64 91.5244 116.901 91.8178 117.296C92.1164 117.691 92.2658 118.165 92.2658 118.72C92.2658 119.029 92.2178 119.307 92.1218 119.552C92.0311 119.792 91.9004 120 91.7298 120.176C91.6498 120.267 91.5618 120.347 91.4658 120.416C91.3698 120.48 91.2764 120.533 91.1858 120.576C91.3564 120.608 91.5404 120.683 91.7378 120.8C92.0471 120.981 92.2818 121.227 92.4418 121.536C92.6018 121.84 92.6818 122.211 92.6818 122.648C92.6818 123.24 92.5404 123.723 92.2578 124.096C91.9751 124.469 91.5964 124.725 91.1218 124.864C90.9084 124.923 90.6764 124.96 90.4258 124.976C90.1804 124.992 89.9484 125 89.7298 125H85.7058ZM86.8898 124H89.6738C89.7858 124 89.9271 123.992 90.0978 123.976C90.2684 123.955 90.4204 123.928 90.5538 123.896C90.8684 123.816 91.0978 123.656 91.2418 123.416C91.3911 123.171 91.4658 122.904 91.4658 122.616C91.4658 122.237 91.3538 121.928 91.1298 121.688C90.9111 121.443 90.6178 121.293 90.2498 121.24C90.1271 121.213 89.9991 121.197 89.8658 121.192C89.7324 121.187 89.6124 121.184 89.5058 121.184H86.8898V124ZM86.8898 120.176H89.3058C89.4444 120.176 89.5991 120.168 89.7698 120.152C89.9458 120.131 90.0978 120.096 90.2258 120.048C90.5031 119.952 90.7058 119.787 90.8338 119.552C90.9671 119.317 91.0338 119.061 91.0338 118.784C91.0338 118.48 90.9618 118.213 90.8178 117.984C90.6791 117.755 90.4684 117.595 90.1858 117.504C89.9938 117.435 89.7858 117.395 89.5618 117.384C89.3431 117.373 89.2044 117.368 89.1458 117.368H86.8898V120.176ZM101.14 116.36V125H99.9963V118.272L95.2603 125H94.2683V116.36H95.4123V123.032L100.156 116.36H101.14ZM107.042 125.24C106.199 125.24 105.468 125.053 104.85 124.68C104.236 124.307 103.759 123.781 103.418 123.104C103.076 122.427 102.906 121.632 102.906 120.72C102.906 119.776 103.074 118.96 103.41 118.272C103.746 117.584 104.218 117.053 104.826 116.68C105.439 116.307 106.162 116.12 106.994 116.12C107.847 116.12 108.575 116.317 109.178 116.712C109.78 117.101 110.236 117.661 110.546 118.392C110.855 119.123 110.996 119.995 110.97 121.008H109.77V120.592C109.748 119.472 109.506 118.627 109.042 118.056C108.583 117.485 107.911 117.2 107.026 117.2C106.098 117.2 105.386 117.501 104.89 118.104C104.399 118.707 104.154 119.565 104.154 120.68C104.154 121.768 104.399 122.613 104.89 123.216C105.386 123.813 106.087 124.112 106.994 124.112C107.612 124.112 108.151 123.971 108.61 123.688C109.074 123.4 109.439 122.987 109.706 122.448L110.802 122.872C110.46 123.624 109.956 124.208 109.29 124.624C108.628 125.035 107.879 125.24 107.042 125.24ZM103.738 121.008V120.024H110.338V121.008H103.738Z" fill="#344351"/>
<rect x="0.5" y="77.5" width="125" height="61" rx="3.5" stroke="#344351"/>
<path fill-rule="evenodd" clip-rule="evenodd" d="M156 0.5C155.504 0.5 155.014 0.524084 154.53 0.571173L154.627 1.56647C155.078 1.52251 155.536 1.5 156 1.5V0.5ZM151.644 1.14227C150.696 1.42977 149.786 1.80872 148.927 2.26881L149.4 3.15032C150.201 2.72099 151.049 2.36748 151.934 2.09931L151.644 1.14227ZM146.484 3.90459C145.725 4.52816 145.028 5.22479 144.405 5.98374L145.177 6.61857C145.759 5.90994 146.41 5.25947 147.119 4.67725L146.484 3.90459ZM142.769 8.42745C142.309 9.28644 141.93 10.1955 141.642 11.1445L142.599 11.4344C142.867 10.5493 143.221 9.70117 143.65 8.89961L142.769 8.42745ZM141.071 14.0298C141.024 14.5136 141 15.0041 141 15.5V17.004H142V15.5C142 15.0365 142.023 14.5783 142.066 14.1266L141.071 14.0298ZM141 20.0121V23.0202H142V20.0121H141ZM141 26.0282V29.0363H142V26.0282H141ZM141 32.0444V35.0524H142V32.0444H141ZM141 38.0605V41.0686H142V38.0605H141ZM141 44.0766V47.0847H142V44.0766H141ZM141 50.0927V53.1008H142V50.0927H141ZM141 56.1089V59.1169H142V56.1089H141ZM141 62.125V65.1331H142V62.125H141ZM141 68.1411V71.1492H142V68.1411H141ZM141 74.1573V77.1653H142V74.1573H141ZM141 80.1734V83.1814H142V80.1734H141ZM141 86.1895V89.1976H142V86.1895H141ZM141 92.2056V95.2137H142V92.2056H141ZM141 98.2218V101.23H142V98.2218H141ZM141 104.238V107.246H142V104.238H141ZM141 110.254V113.262H142V110.254H141ZM141 116.27V119.278H142V116.27H141ZM141 122.286V125.294H142V122.286H141ZM141 128.302V131.31H142V128.302H141ZM141 134.319V137.327H142V134.319H141ZM141 140.335V143.343H142V140.335H141ZM141 146.351V149.359H142V146.351H141ZM141 152.367V155.375H142V152.367H141ZM141 158.383V161.391H142V158.383H141ZM141 164.399V167.407H142V164.399H141ZM141 170.415V173.423H142V170.415H141ZM141 176.432V179.44H142V176.432H141ZM141 182.448V185.456H142V182.448H141ZM141 188.464V191.472H142V188.464H141ZM141 194.48V197.488H142V194.48H141ZM141 200.496V202C141 202.496 141.024 202.986 141.071 203.47L142.066 203.373C142.023 202.922 142 202.464 142 202V200.496H141ZM141.642 206.356C141.93 207.304 142.309 208.214 142.769 209.073L143.65 208.6C143.221 207.799 142.867 206.951 142.599 206.066L141.642 206.356ZM144.405 211.516C145.028 212.275 145.725 212.972 146.484 213.595L147.119 212.823C146.41 212.241 145.759 211.59 145.177 210.881L144.405 211.516ZM148.927 215.231C149.786 215.691 150.696 216.07 151.644 216.358L151.934 215.401C151.049 215.133 150.201 214.779 149.4 214.35L148.927 215.231ZM154.53 216.929C155.014 216.976 155.504 217 156 217V216C155.536 216 155.078 215.977 154.627 215.934L154.53 216.929ZM141.5 72C141.224 72 141 72.2239 141 72.5C141 72.7761 141.224 73 141.5 73H143.25C143.526 73 143.75 72.7761 143.75 72.5C143.75 72.2239 143.526 72 143.25 72H141.5ZM146.75 72C146.474 72 146.25 72.2239 146.25 72.5C146.25 72.7761 146.474 73 146.75 73H150.25C150.526 73 150.75 72.7761 150.75 72.5C150.75 72.2239 150.526 72 150.25 72H146.75ZM153.75 72C153.474 72 153.25 72.2239 153.25 72.5C153.25 72.7761 153.474 73 153.75 73H155.5C155.776 73 156 72.7761 156 72.5C156 72.2239 155.776 72 155.5 72H153.75ZM126.5 107C126.224 107 126 107.224 126 107.5C126 107.776 126.224 108 126.5 108H128.25C128.526 108 128.75 107.776 128.75 107.5C128.75 107.224 128.526 107 128.25 107H126.5ZM131.75 107C131.474 107 131.25 107.224 131.25 107.5C131.25 107.776 131.474 108 131.75 108H135.25C135.526 108 135.75 107.776 135.75 107.5C135.75 107.224 135.526 107 135.25 107H131.75ZM138.75 107C138.474 107 138.25 107.224 138.25 107.5C138.25 107.776 138.474 108 138.75 108H140.5C140.776 108 141 107.776 141 107.5C141 107.224 140.776 107 140.5 107H138.75ZM141 144.5C141 144.224 141.224 144 141.5 144H143.25C143.526 144 143.75 144.224 143.75 144.5C143.75 144.776 143.526 145 143.25 145H141.5C141.224 145 141 144.776 141 144.5ZM146.25 144.5C146.25 144.224 146.474 144 146.75 144H150.25C150.526 144 150.75 144.224 150.75 144.5C150.75 144.776 150.526 145 150.25 145H146.75C146.474 145 146.25 144.776 146.25 144.5ZM153.25 144.5C153.25 144.224 153.474 144 153.75 144H155.5C155.776 144 156 144.224 156 144.5C156 144.776 155.776 145 155.5 145H153.75C153.474 145 153.25 144.776 153.25 144.5Z" fill="#F88C28"/>
</svg>
