<svg width="30" height="217" viewBox="0 0 30 217" fill="none" xmlns="http://www.w3.org/2000/svg">
<path fill-rule="evenodd" clip-rule="evenodd" d="M30 0.5C29.5041 0.5 29.0136 0.524084 28.5298 0.571173L28.6266 1.56647C29.0783 1.52251 29.5365 1.5 30 1.5V0.5ZM25.6445 1.14227C24.6955 1.42977 23.7864 1.80872 22.9275 2.26881L23.3996 3.15032C24.2012 2.72099 25.0493 2.36748 25.9344 2.09931L25.6445 1.14227ZM20.4837 3.90459C19.7248 4.52816 19.0282 5.22479 18.4046 5.98374L19.1772 6.61857C19.7595 5.90994 20.4099 5.25947 21.1186 4.67725L20.4837 3.90459ZM16.7688 8.42745C16.3087 9.28644 15.9298 10.1955 15.6423 11.1445L16.5993 11.4344C16.8675 10.5493 17.221 9.70117 17.6503 8.89961L16.7688 8.42745ZM15.0712 14.0298C15.0241 14.5136 15 15.0041 15 15.5V17.004H16V15.5C16 15.0365 16.0225 14.5783 16.0665 14.1266L15.0712 14.0298ZM15 20.0121V23.0202H16V20.0121H15ZM15 26.0282V29.0363H16V26.0282H15ZM15 32.0444V35.0524H16V32.0444H15ZM15 38.0605V41.0686H16V38.0605H15ZM15 44.0766V47.0847H16V44.0766H15ZM15 50.0927V53.1008H16V50.0927H15ZM15 56.1089V59.1169H16V56.1089H15ZM15 62.125V65.1331H16V62.125H15ZM15 68.1411V71.1492H16V68.1411H15ZM15 74.1573V77.1653H16V74.1573H15ZM15 80.1734V83.1814H16V80.1734H15ZM15 86.1895V89.1976H16V86.1895H15ZM15 92.2056V95.2137H16V92.2056H15ZM15 98.2218V101.23H16V98.2218H15ZM15 104.238V107.246H16V104.238H15ZM15 110.254V113.262H16V110.254H15ZM15 116.27V119.278H16V116.27H15ZM15 122.286V125.294H16V122.286H15ZM15 128.302V131.31H16V128.302H15ZM15 134.319V137.327H16V134.319H15ZM15 140.335V143.343H16V140.335H15ZM15 146.351V149.359H16V146.351H15ZM15 152.367V155.375H16V152.367H15ZM15 158.383V161.391H16V158.383H15ZM15 164.399V167.407H16V164.399H15ZM15 170.415V173.423H16V170.415H15ZM15 176.432V179.44H16V176.432H15ZM15 182.448V185.456H16V182.448H15ZM15 188.464V191.472H16V188.464H15ZM15 194.48V197.488H16V194.48H15ZM15 200.496V202C15 202.496 15.0241 202.986 15.0712 203.47L16.0665 203.373C16.0225 202.922 16 202.464 16 202V200.496H15ZM15.6423 206.356C15.9298 207.304 16.3087 208.214 16.7688 209.073L17.6503 208.6C17.221 207.799 16.8675 206.951 16.5993 206.066L15.6423 206.356ZM18.4046 211.516C19.0282 212.275 19.7248 212.972 20.4837 213.595L21.1186 212.823C20.4099 212.241 19.7595 211.59 19.1772 210.881L18.4046 211.516ZM22.9275 215.231C23.7864 215.691 24.6955 216.07 25.6445 216.358L25.9344 215.401C25.0493 215.133 24.2012 214.779 23.3996 214.35L22.9275 215.231ZM28.5298 216.929C29.0136 216.976 29.5041 217 30 217V216C29.5365 216 29.0783 215.977 28.6266 215.934L28.5298 216.929ZM15.5 72C15.2239 72 15 72.2239 15 72.5C15 72.7761 15.2239 73 15.5 73H17.25C17.5261 73 17.75 72.7761 17.75 72.5C17.75 72.2239 17.5261 72 17.25 72H15.5ZM20.75 72C20.4739 72 20.25 72.2239 20.25 72.5C20.25 72.7761 20.4739 73 20.75 73H24.25C24.5261 73 24.75 72.7761 24.75 72.5C24.75 72.2239 24.5261 72 24.25 72H20.75ZM27.75 72C27.4739 72 27.25 72.2239 27.25 72.5C27.25 72.7761 27.4739 73 27.75 73H29.5C29.7761 73 30 72.7761 30 72.5C30 72.2239 29.7761 72 29.5 72H27.75ZM0.5 107C0.223858 107 0 107.224 0 107.5C0 107.776 0.223858 108 0.5 108H2.25C2.52614 108 2.75 107.776 2.75 107.5C2.75 107.224 2.52614 107 2.25 107H0.5ZM5.75 107C5.47386 107 5.25 107.224 5.25 107.5C5.25 107.776 5.47386 108 5.75 108H9.25C9.52614 108 9.75 107.776 9.75 107.5C9.75 107.224 9.52614 107 9.25 107H5.75ZM12.75 107C12.4739 107 12.25 107.224 12.25 107.5C12.25 107.776 12.4739 108 12.75 108H14.5C14.7761 108 15 107.776 15 107.5C15 107.224 14.7761 107 14.5 107H12.75ZM15 144.5C15 144.224 15.2239 144 15.5 144H17.25C17.5261 144 17.75 144.224 17.75 144.5C17.75 144.776 17.5261 145 17.25 145H15.5C15.2239 145 15 144.776 15 144.5ZM20.25 144.5C20.25 144.224 20.4739 144 20.75 144H24.25C24.5261 144 24.75 144.224 24.75 144.5C24.75 144.776 24.5261 145 24.25 145H20.75C20.4739 145 20.25 144.776 20.25 144.5ZM27.25 144.5C27.25 144.224 27.4739 144 27.75 144H29.5C29.7761 144 30 144.224 30 144.5C30 144.776 29.7761 145 29.5 145H27.75C27.4739 145 27.25 144.776 27.25 144.5Z" fill="#F88C28"/>
</svg>



