<svg width="528" height="532" viewBox="0 0 528 532" fill="none" xmlns="http://www.w3.org/2000/svg">
<line x1="0.5" y1="515.5" x2="527.5" y2="515.5" stroke="#55626F" stroke-linecap="round"/>
<path d="M401.587 75.9477C401.587 75.9477 423.445 63.4979 435.909 91.5832C448.374 119.669 444.441 165.149 395.463 157.468C346.484 149.787 367.754 122.561 367.754 122.561L401.587 75.9477Z" fill="#55626F"/>
<path d="M157.683 75.1977C157.683 75.1977 128.317 45.1654 111.621 76.5375C94.9259 107.91 138.202 156.617 138.202 156.617L172.088 155.112L157.683 75.1977Z" fill="#FCA14D"/>
<path d="M160.582 120.62L161.824 136.769C161.824 136.769 159.934 143.981 171.779 144.641C180.591 145.136 181.143 141.149 181.143 141.149L178.365 122.81L159.232 118.793L160.582 120.62Z" fill="#EFEFEF"/>
<path d="M155.621 116.855C155.73 117.525 157.783 119.399 158.098 119.999C165.551 128.073 164.665 129.192 180.032 133.369L178.365 122.81L155.621 116.855Z" fill="#55626F"/>
<path d="M184.037 76.8052C184.037 76.8052 195.284 101.849 191.466 115.969C187.648 130.088 174.73 128.027 166.991 125.368C162.617 124.001 158.691 121.489 155.62 118.092C153.432 118.758 151.09 118.718 148.926 117.978C146.762 117.237 144.887 115.835 143.568 113.969C138.677 107.332 141.504 99.5406 145.631 97.8092C149.759 96.0778 154.65 98.9429 154.65 98.9429L150.749 91.6667C150.749 91.6667 166.557 54.3376 184.037 76.8052Z" fill="#EFEFEF"/>
<path d="M183.19 108.754C183.037 108.752 182.888 108.706 182.76 108.622C182.632 108.538 182.53 108.42 182.468 108.28C182.427 108.187 182.406 108.086 182.405 107.985C182.403 107.883 182.423 107.782 182.461 107.688C182.5 107.594 182.556 107.509 182.628 107.437C182.7 107.365 182.786 107.308 182.88 107.27C183.169 107.169 183.428 106.997 183.634 106.77C183.839 106.543 183.985 106.269 184.057 105.971C184.593 103.684 181.58 99.5198 180.383 98.0976C180.245 97.9489 180.169 97.7539 180.169 97.5513C180.169 97.3488 180.245 97.1537 180.383 97.0051C180.53 96.8628 180.726 96.7832 180.93 96.7832C181.134 96.7832 181.331 96.8628 181.477 97.0051C181.972 97.5822 186.285 102.756 185.481 106.219C185.351 106.75 185.096 107.242 184.737 107.655C184.378 108.067 183.925 108.388 183.417 108.589C183.351 108.657 183.274 108.713 183.19 108.754Z" fill="#55626F"/>
<path d="M153.557 110.692C153.452 110.691 153.349 110.669 153.253 110.626C153.157 110.584 153.071 110.522 153 110.445L146.148 103.23C146.006 103.083 145.928 102.885 145.932 102.68C145.936 102.475 146.021 102.28 146.169 102.138C146.317 101.996 146.515 101.918 146.72 101.922C146.925 101.926 147.121 102.011 147.263 102.159L154.135 109.373C154.277 109.519 154.357 109.715 154.357 109.919C154.357 110.123 154.277 110.319 154.135 110.465C154.061 110.543 153.971 110.603 153.871 110.642C153.771 110.681 153.664 110.698 153.557 110.692Z" fill="#55626F"/>
<path d="M146.396 108.755C146.193 108.769 145.993 108.702 145.84 108.568C145.688 108.435 145.594 108.246 145.58 108.044C145.567 107.842 145.634 107.642 145.768 107.49C145.901 107.337 146.09 107.244 146.292 107.23L151.018 106.508C151.117 106.491 151.219 106.494 151.317 106.517C151.415 106.54 151.508 106.582 151.589 106.642C151.67 106.702 151.738 106.777 151.789 106.864C151.84 106.951 151.873 107.048 151.885 107.147C151.903 107.248 151.9 107.351 151.877 107.45C151.854 107.549 151.812 107.643 151.752 107.725C151.693 107.808 151.617 107.878 151.53 107.931C151.443 107.984 151.346 108.019 151.245 108.034L146.519 108.755H146.396Z" fill="#55626F"/>
<path d="M177.434 116.381C176.932 116.397 176.434 116.284 175.989 116.051C173.244 114.629 173.698 110.486 173.719 110.3C173.737 110.189 173.778 110.082 173.838 109.986C173.898 109.891 173.977 109.808 174.07 109.744C174.174 109.698 174.286 109.675 174.4 109.675C174.514 109.675 174.626 109.698 174.73 109.744L182.985 112.361C183.115 112.403 183.231 112.478 183.322 112.58C183.412 112.681 183.474 112.805 183.501 112.939C183.528 113.073 183.52 113.212 183.476 113.343C183.433 113.473 183.356 113.589 183.253 113.681C181.631 115.147 179.602 116.088 177.434 116.381ZM175.225 111.454C175.183 112.075 175.297 112.696 175.557 113.261C175.816 113.826 176.213 114.318 176.711 114.691C177.805 115.268 179.724 114.217 181.045 113.31L175.225 111.454Z" fill="#55626F"/>
<path d="M188.042 88.1623H187.897L183.44 87.379C183.339 87.364 183.242 87.329 183.155 87.2761C183.068 87.2231 182.992 87.1533 182.933 87.0707C182.873 86.988 182.831 86.8943 182.808 86.7951C182.785 86.6958 182.782 86.593 182.8 86.4927C182.84 86.2941 182.954 86.1179 183.118 85.9994C183.283 85.881 183.486 85.8289 183.687 85.8537L188.166 86.637C188.367 86.6723 188.546 86.7848 188.666 86.9503C188.785 87.1159 188.835 87.3214 188.805 87.5233C188.772 87.7017 188.678 87.8629 188.538 87.9794C188.399 88.096 188.224 88.1606 188.042 88.1623Z" fill="#55626F"/>
<path d="M169.446 91.0902C169.302 91.0913 169.162 91.051 169.041 90.9742C168.92 90.8974 168.824 90.7873 168.765 90.6573C168.718 90.568 168.69 90.4705 168.681 90.3703C168.673 90.2701 168.684 90.1692 168.715 90.0734C168.746 89.9776 168.795 89.8888 168.86 89.8121C168.925 89.7355 169.005 89.6724 169.095 89.6267L174.275 87.0089C174.458 86.9187 174.67 86.9049 174.863 86.9707C175.057 87.0364 175.216 87.1762 175.307 87.3593C175.397 87.5424 175.411 87.7539 175.345 87.9472C175.279 88.1405 175.139 88.2997 174.956 88.3899L169.796 91.0077C169.689 91.0662 169.568 91.0947 169.446 91.0902Z" fill="#55626F"/>
<path d="M154.176 99.3356L158.86 106.303L154.733 93.2962C154.733 93.2962 158.86 92.9664 166.661 87.6896C168.979 86.0389 170.942 83.9407 172.435 81.519C173.927 79.0974 174.918 76.4015 175.349 73.5907L186.122 81.8357C186.122 81.8357 184.203 61.9447 160.594 68.9117C136.985 75.8787 142.804 100.387 142.804 100.387C142.804 100.387 147.118 95.5842 154.176 99.3356Z" fill="#FCA14D"/>
<path d="M170.747 97.975C170.621 97.9786 170.497 97.9503 170.385 97.8926C170.273 97.8349 170.178 97.7498 170.108 97.6452C169.996 97.4748 169.955 97.2675 169.993 97.0674C170.032 96.8673 170.147 96.6901 170.314 96.5733C171.874 95.2456 173.88 94.5603 175.927 94.6564C176.201 94.6942 176.465 94.7867 176.703 94.9283C176.94 95.07 177.147 95.2579 177.31 95.4809C177.418 95.6562 177.453 95.8669 177.406 96.0675C177.36 96.2681 177.236 96.4424 177.062 96.5527C176.897 96.6571 176.697 96.6939 176.505 96.6555C176.313 96.6171 176.143 96.5065 176.031 96.3466C175.742 96.058 174.338 95.7282 171.181 97.8513C171.051 97.9329 170.901 97.9758 170.747 97.975Z" fill="#55626F"/>
<path d="M189.403 96.1394C189.237 96.1381 189.077 96.0798 188.949 95.9744C188.122 95.2172 187.037 94.8042 185.915 94.8202C185.489 94.8751 185.098 95.0885 184.822 95.4179C184.707 95.5874 184.529 95.7043 184.328 95.743C184.127 95.7816 183.918 95.7388 183.749 95.624C183.579 95.5092 183.462 95.3318 183.423 95.1308C183.384 94.9298 183.427 94.7217 183.542 94.5522C184.048 93.8891 184.784 93.4403 185.606 93.2948C186.374 93.2358 187.146 93.3353 187.874 93.5871C188.601 93.8388 189.27 94.2375 189.836 94.7583C189.97 94.854 190.068 94.9899 190.118 95.146C190.168 95.3021 190.166 95.47 190.113 95.6248C190.059 95.7797 189.958 95.9134 189.822 96.0061C189.687 96.0987 189.526 96.1455 189.362 96.1394H189.403Z" fill="#55626F"/>
<path d="M101.471 51.9415C101.471 51.9415 103.534 28.3669 108.584 15.7682C113.633 3.16946 117.602 0.272802 119.238 0.918443C120.874 1.56408 119.238 10.3064 119.238 10.3064C119.238 10.3064 124.202 -1.36747 127.773 0.13321C131.343 1.63389 127.901 12.4876 127.901 12.4876C127.901 12.4876 132.837 5.03658 134.814 8.28224C136.791 11.5279 129.124 30.7924 129.124 30.7924C129.124 30.7924 135.44 22.8877 137.005 25.3655C138.569 27.8434 133.776 42.5012 130.006 46.5146C126.822 49.5346 123.343 52.0552 119.65 54.018L101.471 51.9415Z" fill="#EFEFEF"/>
<path d="M130.318 27.9827H130.147L111.655 23.2364C111.587 23.2192 111.522 23.1857 111.465 23.1378C111.407 23.0899 111.358 23.0286 111.319 22.9573C111.281 22.886 111.255 22.8061 111.241 22.7223C111.228 22.6384 111.229 22.5522 111.243 22.4686C111.257 22.3849 111.284 22.3055 111.323 22.2348C111.362 22.1641 111.412 22.1035 111.47 22.0565C111.528 22.0095 111.594 21.9771 111.662 21.9609C111.73 21.9448 111.8 21.9453 111.869 21.9625L130.361 26.7089C130.5 26.7251 130.629 26.8086 130.718 26.9411C130.808 27.0737 130.851 27.2443 130.837 27.4156C130.824 27.5868 130.756 27.7446 130.648 27.8542C130.54 27.9639 130.401 28.0163 130.261 28.0001L130.318 27.9827Z" fill="#55626F"/>
<path d="M143.305 109.263C143.305 109.263 125.012 69.7396 124.685 44.6993C124.358 19.6589 105.24 42.5878 105.24 42.5878L101.47 51.9409C101.47 51.9409 100.276 107.588 115.809 127.463C134.884 151.91 143.305 109.263 143.305 109.263Z" fill="#EFEFEF"/>
<path d="M211.001 175.939C211.001 175.939 232.694 212.2 247.986 228.899C268.299 251.182 245.141 249.839 245.141 249.839H235.781C235.781 249.839 200.703 233.331 185.084 197.158C172.097 167.319 211.001 175.939 211.001 175.939Z" fill="#EFEFEF"/>
<path d="M116.126 378.434L85.0068 380.101L91.6753 405.663H117.793L116.126 378.434Z" fill="#EFEFEF"/>
<path d="M197.602 220.453C197.602 220.453 239.807 377.291 209.807 407.916C179.807 438.54 113.078 425.837 113.078 425.837L108.911 362.634L145.298 357.73L182.78 226.962L197.602 220.453Z" fill="#57A8F3"/>
<path d="M142.244 469.013L138.91 507.467L163.915 493.464L166.138 463.456L142.244 469.013Z" fill="#EFEFEF"/>
<path d="M135.938 226.962C135.938 226.962 131.671 262.28 132.837 284.773C134.003 307.266 144.302 361.831 143.904 370.818C143.506 379.804 129.793 474.818 129.793 474.818C139.27 477.977 149.034 479.659 158.854 479.826C166.739 479.99 174.62 479.319 182.41 477.819C182.41 477.819 203.491 386.383 202.083 353.385C200.675 320.388 192.126 226.962 192.126 226.962H135.938Z" fill="#57A8F3"/>
<path d="M200.316 527.029C200.579 526.959 200.81 526.769 200.962 526.495C201.115 526.222 201.177 525.887 201.136 525.559C200.674 522.216 199.034 512.863 194.775 508.896C189.519 504.018 178.5 502.067 174.494 498.815C170.489 495.563 166.01 487.719 163.623 489.202C161.236 490.685 156.726 497.514 150.218 496.538C143.71 495.563 140.755 493.612 138.947 495.563C137.139 497.514 136.192 524.83 136.949 526.443C137.706 528.056 146.864 526.573 147.663 526.834C148.462 527.094 150.712 520.603 152.215 521.63C153.719 522.658 155.548 525.65 157.767 527.055C159.828 528.303 193.745 528.108 200.316 527.029Z" fill="#FCA14D"/>
<path d="M60.7575 451.351C60.8206 451.663 60.9946 451.938 61.2438 452.12C61.4929 452.301 61.7984 452.375 62.0977 452.327C65.1456 451.789 73.6728 449.887 77.3137 444.82C81.7848 438.565 83.5993 425.479 86.588 420.725C89.5766 415.972 96.7399 410.717 95.3997 407.815C94.0596 404.912 87.8451 399.583 88.7583 391.839C89.6715 384.095 91.4623 380.58 89.6952 378.44C87.9281 376.301 63.0346 375.062 61.5403 375.938C60.046 376.814 61.3861 387.736 61.1489 388.686C60.9117 389.637 66.8179 392.339 65.8928 394.128C64.9677 395.917 62.2044 398.082 60.9236 400.709C59.6427 403.336 59.7969 443.544 60.7575 451.351Z" fill="#FCA14D"/>
<path d="M165.183 139.33C165.183 139.33 147.018 110.991 140.005 91.7441L108.525 125.789C121.328 155.977 129.863 171.507 129.863 171.507C129.863 171.507 130.346 236.071 131.072 237.362C131.797 238.654 151.569 243.941 173.746 242.423C195.922 240.905 200.773 237.066 201.996 236.158C203.22 235.251 192.736 150.55 192.736 150.55C192.736 150.55 182.608 139.609 165.183 139.33Z" fill="#5E6B77"/>
<path d="M182.239 143.325C181.88 141.518 181.365 139.763 180.703 138.09C179.935 136.572 175.966 138.09 170.589 137.06C165.212 136.031 162.581 132.297 161.642 132.175C160.703 132.052 160.077 136.171 160.077 136.171C160.077 136.171 163.064 140.795 163.534 141.405C164.003 142.016 182.239 143.325 182.239 143.325Z" fill="#5E6B77"/>
<path d="M233.008 199.392C233.008 199.392 225.455 190.824 213.634 175.834C201.813 160.845 192.738 150.55 192.738 150.55L180.462 174.299L195.384 225.654L233.008 199.392Z" fill="#5E6B77"/>
<path d="M200.916 221.657C200.78 221.658 200.649 221.595 200.549 221.482C200.448 221.369 200.387 221.213 200.376 221.047L199.835 211.17C199.822 211.101 199.822 211.029 199.835 210.961C199.835 210.664 206.009 180.371 194.43 167.703C194.332 167.579 194.277 167.413 194.277 167.24C194.277 167.068 194.332 166.902 194.43 166.778C194.533 166.661 194.667 166.597 194.807 166.597C194.947 166.597 195.081 166.661 195.184 166.778C207.019 179.726 201.4 208.937 200.874 211.24L201.414 221.012C201.422 221.185 201.375 221.355 201.281 221.485C201.188 221.616 201.057 221.696 200.916 221.71V221.657Z" fill="white"/>
<path d="M195.198 415.332C195.128 415.347 195.055 415.347 194.985 415.332C194.921 415.296 194.863 415.245 194.815 415.181C194.767 415.118 194.73 415.043 194.706 414.962C194.682 414.88 194.672 414.794 194.676 414.708C194.68 414.621 194.698 414.537 194.729 414.459C213.136 366.088 187.773 264.583 187.517 263.554C187.476 263.394 187.487 263.221 187.548 263.071C187.609 262.921 187.715 262.807 187.844 262.751L200.262 257.516C200.396 257.46 200.543 257.471 200.671 257.546C200.798 257.621 200.897 257.754 200.945 257.917C200.97 257.999 200.981 258.085 200.978 258.172C200.974 258.258 200.957 258.343 200.926 258.421C200.896 258.5 200.853 258.569 200.8 258.627C200.747 258.684 200.685 258.728 200.618 258.755L188.683 263.85C190.774 272.401 213.52 368.217 195.696 415.087C195.638 415.178 195.561 415.248 195.474 415.29C195.386 415.333 195.291 415.347 195.198 415.332Z" fill="#55626F"/>
<path d="M140.219 264.374C139.4 264.371 138.583 264.301 137.772 264.165C137.631 264.139 137.504 264.045 137.418 263.905C137.333 263.764 137.297 263.588 137.317 263.414C137.327 263.329 137.352 263.247 137.388 263.173C137.425 263.1 137.473 263.036 137.53 262.986C137.587 262.935 137.652 262.899 137.72 262.88C137.789 262.861 137.859 262.858 137.929 262.873C149.991 265.002 154.131 250.31 154.301 249.681C154.352 249.523 154.45 249.395 154.576 249.323C154.701 249.251 154.844 249.241 154.975 249.295C155.107 249.348 155.216 249.462 155.281 249.612C155.347 249.762 155.362 249.936 155.326 250.1C155.283 250.257 151.3 264.374 140.219 264.374Z" fill="#55626F"/>
<path d="M239.495 269.435C239.495 269.435 228.655 242.719 235 237.065C238.803 233.697 243.397 231.939 248.086 232.057C248.086 232.057 269.993 238.078 265.654 248.652C260.362 261.565 239.495 269.435 239.495 269.435Z" fill="#EFEFEF"/>
<path d="M255.952 270.761C255.952 270.761 261.642 281.231 264.373 275.245C267.105 269.26 260.803 247.744 254.985 248.652C249.167 249.559 255.952 270.761 255.952 270.761Z" fill="#EFEFEF"/>
<path d="M247.929 274.216C247.929 274.216 253.619 284.686 256.35 278.7C259.081 272.715 252.78 251.2 246.962 252.107C241.144 253.014 247.929 274.216 247.929 274.216Z" fill="#EFEFEF"/>
<path d="M239.408 274.862C239.408 274.862 243.05 285.087 246.208 280.324C249.366 275.56 246.464 255.684 241.286 255.405C236.108 255.126 239.408 274.862 239.408 274.862Z" fill="#EFEFEF"/>
<path d="M265.525 242.771C265.09 242.142 264.545 241.64 263.932 241.303C263.318 240.966 262.65 240.801 261.978 240.821C261.306 240.841 260.645 241.045 260.046 241.419C259.446 241.793 258.922 242.326 258.512 242.98C255.212 248.302 251.272 255.823 255.113 256.382C258.64 256.888 262.538 253.38 265.07 250.414C265.925 249.447 266.443 248.111 266.514 246.687C266.586 245.263 266.206 243.86 265.454 242.771H265.525Z" fill="#EFEFEF"/>
<path d="M255.013 258.337C254.377 258.367 253.75 258.133 253.235 257.674C252.125 256.54 252.068 254.184 253.05 250.694C251.087 250.328 245.255 248.949 241.67 245.128C241.575 245.002 241.522 244.837 241.522 244.665C241.522 244.494 241.575 244.329 241.67 244.203C241.719 244.141 241.778 244.092 241.843 244.059C241.907 244.025 241.977 244.008 242.047 244.008C242.117 244.008 242.187 244.025 242.252 244.059C242.316 244.092 242.375 244.141 242.424 244.203C246.478 248.495 253.804 249.577 253.918 249.577C253.999 249.59 254.077 249.625 254.146 249.68C254.214 249.734 254.273 249.806 254.316 249.891C254.351 249.981 254.37 250.08 254.37 250.179C254.37 250.279 254.351 250.378 254.316 250.467C253.32 253.748 253.192 255.981 253.96 256.749C255.098 257.883 258.384 256.173 260.191 254.83C260.251 254.785 260.317 254.755 260.386 254.742C260.455 254.729 260.526 254.732 260.594 254.753C260.662 254.773 260.726 254.809 260.783 254.86C260.839 254.911 260.887 254.975 260.923 255.048C260.96 255.121 260.984 255.203 260.995 255.287C261.006 255.372 261.003 255.459 260.986 255.542C260.97 255.626 260.94 255.704 260.899 255.774C260.857 255.843 260.805 255.902 260.746 255.947C259.006 257.264 257.046 258.081 255.013 258.337Z" fill="#55626F"/>
<path d="M247.929 274.879C247.814 274.881 247.701 274.835 247.608 274.75C247.516 274.665 247.448 274.545 247.417 274.408L244.501 262.193C244.43 260.902 244.003 257.674 242.794 256.487C242.596 256.295 242.366 256.158 242.12 256.089C241.874 256.02 241.618 256.019 241.372 256.086C238 256.836 238.882 263.834 238.897 263.904C238.917 264.074 238.883 264.248 238.8 264.389C238.718 264.529 238.594 264.624 238.456 264.654C238.386 264.669 238.315 264.667 238.247 264.647C238.178 264.628 238.114 264.592 238.057 264.542C238 264.491 237.952 264.427 237.915 264.354C237.878 264.28 237.854 264.198 237.844 264.113C237.844 263.781 236.777 255.772 241.187 254.812C241.578 254.712 241.983 254.719 242.371 254.834C242.76 254.949 243.123 255.168 243.434 255.475C245.283 257.22 245.525 261.775 245.54 261.967L248.384 274.094C248.424 274.263 248.407 274.444 248.338 274.598C248.269 274.752 248.152 274.866 248.015 274.914L247.929 274.879Z" fill="#55626F"/>
<path d="M257.147 273.361C257.035 273.365 256.925 273.324 256.833 273.246C256.741 273.167 256.671 273.055 256.635 272.925L252.652 258.598C252.652 258.598 250.959 252.718 248.612 253.625C244.473 255.231 245.497 261.565 245.54 261.827C245.565 261.995 245.537 262.169 245.46 262.313C245.383 262.456 245.264 262.557 245.127 262.594C245.059 262.612 244.989 262.613 244.92 262.597C244.852 262.582 244.786 262.549 244.728 262.502C244.67 262.455 244.62 262.394 244.581 262.323C244.542 262.252 244.515 262.172 244.501 262.088C244.032 259.419 244.245 253.939 248.299 252.386C251.671 251.078 253.577 257.9 253.662 258.18L257.645 272.506C257.667 272.586 257.677 272.671 257.673 272.756C257.668 272.84 257.65 272.923 257.62 272.999C257.59 273.075 257.547 273.143 257.495 273.199C257.444 273.256 257.383 273.299 257.318 273.326C257.264 273.355 257.206 273.367 257.147 273.361Z" fill="#55626F"/>
<path d="M102.482 67.6461C101.754 67.7341 101.019 67.602 100.342 67.2613C99.6655 66.9206 99.0669 66.3817 98.5989 65.6918C96.2376 61.7132 100.021 53.2152 100.164 52.8487C100.24 52.713 100.355 52.6171 100.486 52.5799C100.617 52.5427 100.755 52.5668 100.873 52.6475C100.99 52.7282 101.078 52.8598 101.121 53.0164C101.164 53.173 101.157 53.3435 101.102 53.4944C100.092 55.728 97.8307 62.2193 99.4666 64.924C100.277 66.3025 102.041 66.669 104.716 66.0408C115.853 63.4059 124.559 50.336 124.63 50.336C124.719 50.2018 124.847 50.1163 124.987 50.0983C125.127 50.0803 125.268 50.1313 125.377 50.24C125.486 50.3488 125.556 50.5064 125.571 50.6782C125.585 50.85 125.544 51.0219 125.455 51.1561C125.1 51.7145 116.422 64.6448 104.9 67.3844C104.103 67.5649 103.293 67.6525 102.482 67.6461Z" fill="#FCA14D"/>
<path d="M99.0104 63.8066C98.5316 63.8163 98.0536 63.7518 97.588 63.6146C97.2173 63.5363 96.8723 63.3309 96.5929 63.0221C96.3134 62.7133 96.111 62.3137 96.009 61.8696C95.2978 58.6065 100.461 52.2548 101.045 51.5394C101.145 51.4167 101.28 51.3478 101.422 51.3478C101.563 51.3478 101.699 51.4167 101.798 51.5394C101.898 51.662 101.955 51.8284 101.955 52.0018C101.955 52.1753 101.898 52.3416 101.798 52.4642C99.7359 54.9595 96.6207 59.6186 97.0474 61.5381C97.0474 61.7824 97.2466 62.1314 97.8582 62.3408C103.463 64.0858 124.53 50.126 124.743 50.126C124.805 50.0686 124.876 50.0282 124.952 50.0077C125.028 49.9872 125.107 49.987 125.183 50.0071C125.259 50.0272 125.33 50.0671 125.392 50.1242C125.454 50.1813 125.506 50.2541 125.543 50.3378C125.58 50.4214 125.602 50.5139 125.608 50.609C125.613 50.704 125.602 50.7994 125.575 50.8886C125.547 50.9778 125.505 51.0587 125.449 51.1259C125.394 51.193 125.328 51.2448 125.255 51.2776C124.458 51.7488 106.279 63.8066 99.0104 63.8066Z" fill="#57A8F3"/>
<path d="M137.004 424.947H136.904C136.765 424.913 136.642 424.814 136.563 424.67C136.483 424.526 136.452 424.35 136.477 424.179C136.477 423.795 142.352 386.243 142.893 375.704C143.248 369.835 143.205 363.94 142.765 358.079C142.752 357.909 142.795 357.739 142.882 357.606C142.97 357.473 143.096 357.386 143.234 357.364C143.303 357.352 143.374 357.357 143.441 357.378C143.509 357.4 143.573 357.438 143.628 357.49C143.684 357.542 143.73 357.607 143.765 357.681C143.8 357.755 143.823 357.837 143.831 357.922C144.272 363.859 144.315 369.829 143.96 375.774C143.419 386.418 137.587 424.04 137.53 424.423C137.506 424.573 137.441 424.707 137.345 424.803C137.248 424.899 137.128 424.95 137.004 424.947Z" fill="#55626F"/>
<path d="M143.903 371.481C143.807 371.481 143.712 371.449 143.629 371.387C143.546 371.326 143.479 371.237 143.434 371.132C143.382 371.03 143.355 370.912 143.355 370.792C143.355 370.671 143.382 370.554 143.434 370.451C146.051 365.723 155.966 362.337 159.352 362.808C160.248 362.931 160.774 363.297 160.987 363.908C161.063 364.27 161.055 364.651 160.965 365.009C160.874 365.366 160.705 365.686 160.475 365.932C157.019 370.87 144.43 371.446 143.889 371.481H143.903ZM158.598 364.065C155.07 364.065 148.029 366.804 145.141 370.085C148.413 369.806 157.147 368.724 159.693 365.077C159.977 364.658 160.034 364.431 160.02 364.379C160.006 364.327 159.849 364.117 158.882 364.065H158.598Z" fill="#55626F"/>
<path d="M115.255 44.4376C115.154 44.438 115.055 44.4015 114.971 44.3329C114.911 44.2869 114.86 44.2266 114.819 44.1556C114.779 44.0847 114.751 44.0045 114.736 43.9199C114.721 43.8352 114.721 43.7479 114.734 43.6629C114.748 43.578 114.775 43.4973 114.814 43.4255C121.386 30.6174 128.655 30.2335 128.954 30.2161C129.095 30.2113 129.232 30.2743 129.335 30.3917C129.439 30.509 129.501 30.6715 129.509 30.8443C129.509 31.0189 129.454 31.1869 129.356 31.3135C129.258 31.4402 129.124 31.5159 128.982 31.5248C128.911 31.5248 121.955 31.9436 115.711 44.1235C115.663 44.2188 115.596 44.2976 115.516 44.3525C115.436 44.4074 115.347 44.4367 115.255 44.4376Z" fill="#55626F"/>
<path d="M170.973 143.151H170.888C170.589 143.151 163.577 141.668 161.742 138.126C161.666 137.979 161.64 137.803 161.669 137.633C161.698 137.463 161.78 137.315 161.898 137.218C161.957 137.171 162.024 137.138 162.094 137.123C162.164 137.108 162.235 137.11 162.304 137.13C162.373 137.149 162.438 137.186 162.496 137.237C162.553 137.288 162.601 137.353 162.638 137.428C163.946 139.958 169.167 141.476 171.059 141.86C171.196 141.886 171.32 141.977 171.403 142.115C171.485 142.252 171.52 142.424 171.5 142.593C171.48 142.747 171.416 142.888 171.32 142.99C171.223 143.092 171.101 143.149 170.973 143.151Z" fill="white"/>
<path d="M317.804 107.209C317.804 107.209 312.553 106.337 308.038 98.6586C304.976 93.4237 306.415 70.3028 307.762 65.1726C309.109 60.0424 313.166 64.2128 313.166 64.2128C313.166 64.2128 311.528 58.3497 314.268 55.3658C317.008 52.3819 319.748 58.6464 319.748 58.6464C319.748 58.6464 320.299 51.841 324.631 54.9994C328.963 58.1578 333.203 72.7632 333.815 80.5458C334.428 88.3284 334.198 102.637 334.198 102.637L325.504 112.112L317.804 107.209Z" fill="#EFEFEF"/>
<path d="M301.226 90.3701C301.226 90.3701 288.261 137.031 303.277 166.085C318.294 195.138 367.997 195.453 367.997 195.453L373.323 144.133C373.323 144.133 350.47 145.372 341.178 130.749C334.274 119.79 337.841 104.574 337.841 104.574L301.226 90.3701Z" fill="#57A8F3"/>
<path d="M335.896 138.705C335.74 138.703 335.586 138.673 335.437 138.618C335.068 138.51 334.732 138.291 334.463 137.984C334.193 137.677 334.001 137.293 333.907 136.873C333.156 133.383 338.744 126.857 339.387 126.124C339.469 126.019 339.578 125.948 339.699 125.921C339.819 125.894 339.944 125.913 340.055 125.974C340.166 126.035 340.256 126.135 340.312 126.26C340.368 126.384 340.387 126.527 340.366 126.665C340.244 127.694 339.08 136.803 336.815 138.443C336.538 138.632 336.219 138.723 335.896 138.705ZM338.866 128.584C336.815 131.254 334.595 134.849 334.963 136.524C334.963 136.785 335.162 137.152 335.774 137.379C335.831 137.41 335.894 137.426 335.958 137.426C336.021 137.426 336.084 137.41 336.141 137.379C337.274 136.489 338.3 132.126 338.866 128.584Z" fill="white"/>
<path d="M454.742 108.901C454.742 108.901 449.492 109.826 443.201 103.997C438.93 100.019 434.016 88.6765 435.348 85.7275C436.68 82.7785 442.665 89.6886 442.665 89.6886C442.665 89.6886 434.368 77.4738 434.338 72.0644C434.307 66.655 439.267 69.3422 439.267 69.3422C439.267 69.3422 436.205 64.2818 438.042 60.5126C439.879 56.7435 444.165 61.8039 444.165 61.8039C444.165 61.8039 442.956 55.1207 447.9 56.6911C452.844 58.2616 460.666 70.808 463.207 78.0322C465.748 85.2564 469.33 98.9719 469.33 98.9719L463.452 110.925L454.742 108.901Z" fill="#EFEFEF"/>
<path d="M440.859 85.6931C440.75 85.6934 440.644 85.657 440.553 85.5884C440.424 85.495 440.332 85.3474 440.298 85.1776C440.264 85.0078 440.289 84.8294 440.369 84.681C442.732 80.4257 445.329 76.3458 448.146 72.4662C448.254 72.3457 448.4 72.2783 448.551 72.2783C448.703 72.2783 448.848 72.3457 448.957 72.4662C449.011 72.5263 449.054 72.5982 449.083 72.6776C449.113 72.7571 449.128 72.8424 449.128 72.9286C449.128 73.0148 449.113 73.1001 449.083 73.1795C449.054 73.2589 449.011 73.3308 448.957 73.391C446.177 77.1909 443.621 81.1956 441.303 85.379C441.257 85.4681 441.192 85.5432 441.115 85.5979C441.038 85.6525 440.95 85.6852 440.859 85.6931Z" fill="#55626F"/>
<path d="M454.881 98.2219C454.763 98.2219 454.647 98.1799 454.551 98.1017C454.455 98.0235 454.383 97.913 454.345 97.7857C452.431 91.3991 442.711 90.3521 442.604 90.3346C442.53 90.328 442.457 90.3047 442.39 90.266C442.324 90.2273 442.265 90.174 442.216 90.1091C442.168 90.0442 442.131 89.9691 442.109 89.888C442.086 89.8069 442.077 89.7215 442.084 89.6367C442.099 89.4637 442.174 89.3047 442.291 89.1937C442.408 89.0827 442.559 89.0287 442.711 89.0434C443.14 89.0434 453.273 90.1601 455.432 97.3669C455.475 97.5312 455.462 97.7085 455.393 97.8615C455.325 98.0145 455.207 98.1312 455.064 98.187C455.006 98.2157 454.943 98.2277 454.881 98.2219Z" fill="#55626F"/>
<path d="M473.801 91.1543C473.801 91.1543 486.767 137.797 471.75 166.869C456.734 195.94 406.495 191.089 406.495 191.089L401.704 144.9C401.704 144.9 424.557 146.156 433.849 131.533C440.753 120.557 437.186 105.358 437.186 105.358L473.801 91.1543Z" fill="#57A8F3"/>
<path d="M439.145 141.66C438.838 141.656 438.539 141.547 438.287 141.346C436.022 139.706 434.859 130.615 434.736 129.568C434.719 129.432 434.741 129.294 434.799 129.175C434.857 129.055 434.948 128.96 435.058 128.905C435.165 128.846 435.286 128.826 435.404 128.847C435.521 128.869 435.63 128.932 435.716 129.027C436.359 129.777 441.946 136.373 441.196 139.793C441.099 140.213 440.907 140.596 440.638 140.902C440.369 141.209 440.033 141.428 439.665 141.538C439.499 141.613 439.323 141.655 439.145 141.66ZM436.175 131.522C436.757 135.012 437.782 139.427 438.9 140.247C438.956 140.282 439.019 140.301 439.083 140.301C439.148 140.301 439.211 140.282 439.267 140.247C439.879 140.038 440.032 139.654 440.078 139.409C440.446 137.839 438.211 134.244 436.16 131.574L436.175 131.522Z" fill="white"/>
<path d="M348.881 489.006C348.881 489.006 328.307 505.085 322.692 513.339C317.076 521.594 317.407 526.47 318.478 528.714C319.548 530.957 365.209 520.485 365.209 520.485C365.209 520.485 363.752 505.968 368.783 506.031C373.813 506.094 372.876 519.502 372.876 519.502L386.754 516.906C386.754 516.906 385.452 502.452 383.687 496.995C381.977 492.301 379.933 487.774 377.575 483.461L348.881 489.006Z" fill="#57A8F3"/>
<path d="M361.518 358.303C361.518 358.303 358.076 387.021 373.544 420.124C391.307 458.083 403.057 476.793 403.057 476.793L426.764 462.869C426.764 462.869 398.593 383.314 395.782 349.74C392.971 316.167 361.518 358.303 361.518 358.303Z" fill="#EFEFEF"/>
<path d="M335.629 348.186C336.985 373.955 339.586 399.536 343.411 424.719C349.589 464.474 353.726 487.907 353.726 487.907L377.863 483.914C377.863 483.914 369.324 396.242 370.814 362.179C372.304 328.115 335.629 348.186 335.629 348.186Z" fill="#EFEFEF"/>
<path d="M401.507 481.984C401.507 481.984 386.731 505.076 383.842 515.023C380.954 524.969 382.731 529.469 384.387 531.175C386.042 532.882 426.293 505.455 426.293 505.455C426.293 505.455 420.627 492.297 425.416 490.427C430.204 488.556 433.281 501.575 433.281 501.575L445.658 493.789C445.658 493.789 440.158 480.632 436.87 476.157C433.637 472.075 430.202 468.205 426.582 464.567L401.507 481.984Z" fill="#57A8F3"/>
<path d="M351.922 484.617C351.922 484.617 333.387 506.822 337.277 507.785C341.167 508.747 362.127 504.113 367.915 499.284C373.703 494.454 377.862 483.547 377.862 483.547L362.912 476.793L351.922 484.617Z" fill="#EFEFEF"/>
<path d="M379.094 355.292C375.9 355.501 372.558 355.623 369.068 355.658C353.552 355.776 338.203 351.999 324.11 344.595C325.993 277.745 351.48 217.212 351.48 217.212L366.068 220.911L368.655 221.574L379.094 355.292Z" fill="#FCA14D"/>
<path d="M418.77 289.505C414.989 329.867 411.453 343.844 411.453 343.844C411.453 343.844 412.158 346.13 413.336 350.056C402.08 352.967 390.622 354.748 379.094 355.378C375.9 355.587 372.557 355.71 369.067 355.745C364.138 355.784 359.212 355.429 354.326 354.68C352.49 347.473 351.265 342.465 351.02 341.191C349.612 333.793 360.204 221.155 360.204 221.155L366.113 221.067L406.616 226.075C406.616 226.075 422.536 249.039 418.77 289.505Z" fill="#FCA14D"/>
<path d="M402.879 476.679C402.879 476.679 390.29 506.688 394.162 505.664C398.033 504.64 416.804 489.689 421.204 482.24C425.603 474.79 426.765 461.233 426.765 461.233L411.513 463.793L402.879 476.679Z" fill="#EFEFEF"/>
<path d="M372.164 417.793C372.08 417.784 372 417.753 371.93 417.703C371.859 417.653 371.8 417.585 371.758 417.504C361.462 397.865 361.304 368.924 361.298 368.641C361.298 368.554 361.312 368.467 361.341 368.385C361.37 368.304 361.412 368.228 361.466 368.164C361.52 368.1 361.584 368.048 361.655 368.011C361.726 367.974 361.802 367.953 361.878 367.95C362.029 367.95 362.172 368.015 362.278 368.132C362.385 368.249 362.447 368.409 362.452 368.579C362.412 368.856 362.618 397.469 372.757 416.803C372.843 416.941 372.878 417.114 372.853 417.284C372.828 417.455 372.746 417.611 372.624 417.718C372.481 417.805 372.318 417.831 372.164 417.793Z" fill="#55626F"/>
<path d="M350.898 344.071C350.777 344.064 350.661 344.015 350.566 343.931C350.47 343.846 350.399 343.731 350.362 343.6C346.459 314.162 358.873 251.431 360.036 245.655L351.311 238.308C351.189 238.207 351.108 238.054 351.085 237.884C351.062 237.713 351.099 237.54 351.189 237.401C351.278 237.262 351.412 237.169 351.561 237.143C351.711 237.117 351.863 237.16 351.985 237.261L361.016 244.869C361.109 244.94 361.18 245.042 361.221 245.16C361.262 245.279 361.271 245.409 361.245 245.533C361.108 246.213 347.469 312.941 351.51 343.391C351.532 343.564 351.493 343.741 351.401 343.881C351.309 344.022 351.172 344.115 351.02 344.141L350.898 344.071Z" fill="#55626F"/>
<path d="M373.324 144.132L360.634 146.139C360.634 146.139 349.322 160.098 349.016 175.803C348.71 191.508 351.603 198.628 351.603 198.628L347.194 223.197C347.194 223.197 358.323 233.754 377.304 236.005C389.115 237.3 401.035 235.912 412.373 231.922C412.373 231.922 409.556 154.741 409.556 148.163C409.556 143.678 373.324 144.132 373.324 144.132Z" fill="#57A8F3"/>
<path d="M408.346 344.526C405.285 344.526 401.841 344.211 401.244 342.781C401.119 342.491 401.083 342.161 401.141 341.845C401.199 341.529 401.349 341.244 401.565 341.036C404.121 337.79 410.979 342.571 411.76 343.13C411.864 343.201 411.945 343.31 411.989 343.44C412.034 343.569 412.039 343.712 412.005 343.845C411.975 343.979 411.909 344.099 411.815 344.187C411.721 344.275 411.606 344.327 411.484 344.334C410.673 344.473 409.556 344.526 408.346 344.526ZM404.091 341.315C403.786 341.287 403.48 341.334 403.192 341.451C402.905 341.568 402.642 341.754 402.422 341.995C402.362 342.071 402.315 342.16 402.285 342.257C402.56 342.868 405.683 343.252 409.357 343.199C407.735 342.161 405.942 341.519 404.091 341.315Z" fill="#55626F"/>
<path d="M349.476 188.524C349.367 188.528 349.259 188.496 349.167 188.431C349.074 188.366 349.001 188.27 348.955 188.158C342.832 173.866 354.267 155.003 354.757 154.2C354.801 154.129 354.857 154.069 354.922 154.023C354.986 153.976 355.058 153.945 355.134 153.93C355.209 153.916 355.286 153.918 355.361 153.938C355.435 153.957 355.506 153.993 355.568 154.043C355.69 154.145 355.772 154.296 355.798 154.465C355.823 154.635 355.79 154.809 355.706 154.951C355.583 155.143 344.118 173.988 349.981 187.582C350.015 187.66 350.036 187.745 350.041 187.831C350.046 187.918 350.037 188.006 350.013 188.088C349.988 188.171 349.95 188.247 349.9 188.313C349.85 188.379 349.789 188.433 349.721 188.472C349.642 188.506 349.559 188.524 349.476 188.524Z" fill="white"/>
<path d="M310.7 78.5553C310.563 78.5646 310.428 78.5168 310.319 78.4209C310.211 78.3251 310.137 78.1876 310.111 78.034C310.084 77.8805 310.108 77.7213 310.177 77.5861C310.246 77.4509 310.356 77.3488 310.486 77.2989L325.686 70.319C325.828 70.2602 325.985 70.2653 326.124 70.3333C326.264 70.4014 326.375 70.5273 326.436 70.6855C326.492 70.8476 326.489 71.0281 326.429 71.188C326.369 71.348 326.256 71.4746 326.114 71.5405L310.914 78.5204L310.7 78.5553Z" fill="#55626F"/>
<path d="M316.687 95.4817C313.319 89.3219 318.477 83.5635 318.477 83.5635C318.477 83.5635 316.641 70.8601 319.717 71.1393C322.794 71.4185 325.84 84.3139 325.84 89.8629L316.687 95.4817Z" fill="#EFEFEF"/>
<path d="M316.685 96.145C316.587 96.1475 316.489 96.1197 316.403 96.0644C316.317 96.0092 316.245 95.9285 316.196 95.8309C313.027 90.055 316.9 84.5758 317.864 83.3368C317.604 81.4174 316.624 73.3032 318.385 71.122C318.555 70.9011 318.768 70.729 319.007 70.6199C319.247 70.5107 319.505 70.4675 319.762 70.4938C323.497 70.8254 326.452 84.5758 326.452 89.8805C326.429 90.0357 326.359 90.1768 326.254 90.2786C326.149 90.3805 326.015 90.4364 325.878 90.4364C325.74 90.4364 325.606 90.3805 325.501 90.2786C325.396 90.1768 325.326 90.0357 325.303 89.8805C325.303 84.2093 322.15 72.0294 319.67 71.8025C319.587 71.7927 319.503 71.8067 319.425 71.8432C319.348 71.8798 319.279 71.9378 319.226 72.0119C318.078 73.4254 318.507 79.7945 319.043 83.4764C319.058 83.5781 319.051 83.6827 319.022 83.7804C318.992 83.878 318.942 83.9656 318.874 84.0348C318.675 84.2617 314.083 89.5315 317.175 95.1678C317.215 95.2399 317.241 95.3202 317.253 95.404C317.265 95.4878 317.263 95.5735 317.245 95.6562C317.228 95.7388 317.197 95.8169 317.154 95.8858C317.11 95.9547 317.055 96.0131 316.992 96.0577C316.899 96.1202 316.793 96.1505 316.685 96.145Z" fill="#55626F"/>
<path d="M361.335 106.848C361.335 106.848 350.358 88.4763 375.679 76.1242C400.999 63.772 417.613 83.9419 417.182 94.1442C416.752 104.346 410.607 108.763 410.607 108.763C410.607 108.763 411.507 131.083 390.276 128.308C384.051 127.401 378.149 124.966 373.098 121.221C368.047 117.476 364.005 112.537 361.335 106.848Z" fill="#55626F"/>
<path d="M392.489 124.79L391.804 142.732C391.804 142.732 388.379 147.755 377.852 148.224C370.025 148.576 367.305 146.699 367.305 146.699L368.753 137.65L370.142 128.836L389.279 125.376L392.489 124.79Z" fill="#EFEFEF"/>
<path d="M392.487 123.93C392.375 124.528 392.177 125.107 391.9 125.65C387.537 134.464 373.272 137.376 368.751 137.65L370.141 128.835L392.487 123.93Z" fill="#55626F"/>
<path d="M367.734 87.8119C367.734 87.8119 357.461 109.936 360.709 122.581C363.957 135.227 375.463 133.487 382.371 131.201C386.282 130.025 389.799 127.809 392.546 124.79C394.484 125.406 396.568 125.396 398.501 124.761C400.433 124.126 402.115 122.898 403.308 121.252C407.711 115.389 405.265 108.509 401.606 106.868C397.947 105.226 393.583 107.767 393.583 107.767L397.144 101.356C397.144 101.356 383.525 68.0329 367.734 87.8119Z" fill="#EFEFEF"/>
<path d="M366.658 103.33C366.499 103.331 366.344 103.281 366.216 103.185C366.089 103.09 365.997 102.955 365.954 102.802C365.792 102.311 365.459 101.895 365.014 101.629C364.707 101.491 364.373 101.42 364.036 101.42C363.699 101.42 363.365 101.491 363.058 101.629C362.873 101.68 362.677 101.661 362.506 101.574C362.336 101.487 362.205 101.339 362.138 101.16C362.081 100.974 362.098 100.772 362.186 100.598C362.273 100.423 362.424 100.289 362.608 100.222C363.102 100.037 363.63 99.953 364.158 99.9765C364.686 100 365.203 100.13 365.68 100.359C366.466 100.822 367.052 101.56 367.323 102.431C367.372 102.617 367.346 102.815 367.251 102.983C367.156 103.151 367 103.275 366.815 103.33H366.658Z" fill="#55626F"/>
<path d="M379.964 104.757C379.855 104.757 379.747 104.733 379.649 104.685C379.551 104.638 379.465 104.569 379.397 104.483C379.182 104.152 378.9 103.868 378.57 103.651C378.239 103.434 377.867 103.288 377.477 103.222C377.087 103.155 376.688 103.171 376.304 103.267C375.921 103.363 375.561 103.538 375.248 103.78C375.095 103.899 374.901 103.953 374.709 103.929C374.516 103.905 374.34 103.806 374.221 103.653C374.102 103.5 374.048 103.306 374.072 103.113C374.096 102.921 374.195 102.746 374.348 102.627C374.807 102.267 375.335 102.004 375.899 101.855C376.463 101.705 377.051 101.673 377.629 101.759C378.206 101.845 378.759 102.048 379.255 102.355C379.751 102.662 380.179 103.067 380.512 103.545C380.581 103.613 380.637 103.693 380.674 103.782C380.712 103.871 380.731 103.967 380.731 104.063C380.731 104.16 380.712 104.255 380.674 104.344C380.637 104.433 380.581 104.514 380.512 104.581C380.439 104.648 380.352 104.699 380.258 104.729C380.163 104.76 380.063 104.769 379.964 104.757Z" fill="#55626F"/>
<path d="M364.408 96.9189C364.206 96.9189 364.012 96.8386 363.868 96.6956C363.725 96.5527 363.645 96.3588 363.645 96.1566C363.645 95.9545 363.725 95.7606 363.868 95.6176C364.012 95.4747 364.206 95.3944 364.408 95.3944L368.791 94.7494C368.891 94.7328 368.992 94.7366 369.09 94.7604C369.188 94.7841 369.28 94.8275 369.36 94.8878C369.441 94.9481 369.508 95.0241 369.558 95.1112C369.608 95.1982 369.641 95.2946 369.652 95.3944C369.68 95.5939 369.628 95.7963 369.507 95.9574C369.386 96.1186 369.206 96.2253 369.007 96.2543L364.623 96.8993L364.408 96.9189Z" fill="#55626F"/>
<path d="M380.747 98.6981C380.651 98.7165 380.551 98.7165 380.454 98.6981L375.366 96.5677C375.199 96.4829 375.071 96.3384 375.006 96.163C374.941 95.9876 374.945 95.7943 375.017 95.6215C375.088 95.4488 375.222 95.3094 375.392 95.2312C375.562 95.153 375.756 95.1417 375.934 95.1996L381.021 97.3495C381.111 97.3858 381.192 97.4396 381.26 97.5077C381.328 97.5758 381.382 97.6568 381.419 97.746C381.455 97.8353 381.474 97.9309 381.473 98.0272C381.471 98.1236 381.451 98.2188 381.413 98.3072C381.348 98.4269 381.252 98.5267 381.135 98.5956C381.018 98.6645 380.884 98.7 380.747 98.6981Z" fill="#55626F"/>
<path d="M367.871 115.037C367.689 115.038 367.513 114.97 367.379 114.846C367.245 114.723 367.162 114.554 367.147 114.373C366.365 106.731 369.574 102.919 369.711 102.763C369.849 102.628 370.036 102.553 370.229 102.553C370.423 102.553 370.609 102.628 370.748 102.763C370.878 102.904 370.951 103.089 370.951 103.281C370.951 103.473 370.878 103.658 370.748 103.799C370.748 103.799 367.813 107.337 368.517 114.314C368.534 114.505 368.476 114.695 368.356 114.844C368.235 114.994 368.062 115.091 367.871 115.115V115.037Z" fill="#55626F"/>
<path d="M393.564 116.875C393.42 116.877 393.279 116.838 393.158 116.761C393.036 116.685 392.939 116.575 392.879 116.445C392.84 116.358 392.819 116.264 392.816 116.168C392.814 116.073 392.83 115.978 392.865 115.889C392.899 115.8 392.951 115.719 393.018 115.65C393.084 115.581 393.163 115.526 393.251 115.488L402.271 111.383C402.359 111.343 402.453 111.321 402.549 111.318C402.645 111.314 402.741 111.33 402.831 111.364C402.921 111.397 403.003 111.448 403.073 111.514C403.144 111.579 403.2 111.657 403.24 111.745C403.28 111.832 403.302 111.926 403.305 112.022C403.309 112.118 403.293 112.214 403.26 112.303C403.226 112.393 403.175 112.476 403.109 112.546C403.044 112.616 402.965 112.672 402.878 112.712L393.857 116.817C393.764 116.855 393.664 116.875 393.564 116.875Z" fill="#55626F"/>
<path d="M401.587 118.966C401.396 118.962 401.214 118.885 401.079 118.751L397.165 114.842C397.028 114.705 396.95 114.519 396.95 114.324C396.95 114.13 397.028 113.944 397.165 113.806C397.303 113.669 397.489 113.592 397.684 113.592C397.878 113.592 398.065 113.669 398.202 113.806L402.116 117.715C402.251 117.854 402.326 118.04 402.326 118.233C402.326 118.427 402.251 118.612 402.116 118.751C401.974 118.888 401.785 118.965 401.587 118.966Z" fill="#55626F"/>
<path d="M361.336 106.848C363.175 101.477 366.228 96.6016 370.259 92.6002L377.362 85.1733C377.362 85.1733 376.56 99.2453 382.881 105.324C389.201 111.402 393.584 107.767 393.584 107.767L405.658 97.1931L384.133 77.4337C384.133 77.4337 360.182 76.5151 361.336 106.848Z" fill="#55626F"/>
<path d="M368.243 141.188L360.635 142.816C360.635 142.816 359.613 153.665 375.639 154.486C392.35 155.346 403.979 145.039 403.979 145.039L390.374 141.188H368.243Z" fill="#EFEFEF"/>
<path d="M374.522 154.705C368.767 154.193 364.628 152.466 362.218 149.552C361.216 148.234 360.522 146.762 360.178 145.223C359.833 143.683 359.845 142.106 360.212 140.586C360.255 140.423 360.371 140.284 360.535 140.197C360.698 140.111 360.896 140.086 361.084 140.127C361.266 140.176 361.422 140.282 361.52 140.424C361.619 140.567 361.653 140.735 361.615 140.895C360.999 143.623 361.64 146.478 363.402 148.852C365.55 151.442 369.319 152.984 374.595 153.453C391.093 154.92 402.937 144.368 403.045 144.244C403.106 144.172 403.184 144.113 403.274 144.07C403.363 144.028 403.463 144.002 403.566 143.996C403.669 143.989 403.773 144.002 403.871 144.033C403.969 144.064 404.059 144.113 404.135 144.176C404.211 144.239 404.271 144.314 404.311 144.398C404.351 144.482 404.37 144.572 404.368 144.662C404.365 144.752 404.341 144.84 404.296 144.92C404.251 145 404.187 145.07 404.107 145.126C403.982 145.233 391.676 156.197 374.543 154.69L374.522 154.705Z" fill="white"/>
<path d="M373.037 121.819C372.879 121.817 372.725 121.765 372.598 121.671C372.471 121.576 372.378 121.443 372.333 121.291C372.306 121.199 372.298 121.102 372.309 121.007C372.32 120.911 372.351 120.819 372.398 120.735C372.445 120.651 372.509 120.578 372.585 120.519C372.661 120.46 372.748 120.417 372.841 120.392C374.431 119.816 375.8 118.757 376.755 117.363C376.808 117.282 376.877 117.213 376.957 117.16C377.037 117.106 377.128 117.069 377.222 117.051C377.317 117.033 377.415 117.034 377.509 117.054C377.604 117.074 377.693 117.112 377.772 117.167C377.931 117.278 378.04 117.446 378.077 117.636C378.113 117.826 378.074 118.022 377.968 118.184C376.825 119.879 375.153 121.15 373.213 121.799L373.037 121.819Z" fill="#55626F"/>
<path d="M416.518 99.5574C416.417 99.5551 416.317 99.5321 416.225 99.49C416.133 99.4479 416.051 99.3875 415.983 99.3125C415.915 99.2375 415.863 99.1494 415.831 99.0538C415.798 98.9581 415.786 98.8568 415.794 98.7561C417.457 81.2833 404.053 75.6936 403.466 75.4591C403.377 75.4245 403.296 75.3728 403.228 75.307C403.159 75.2411 403.104 75.1623 403.066 75.0752C403.027 74.988 403.007 74.8942 403.005 74.7991C403.003 74.704 403.02 74.6095 403.055 74.5209C403.129 74.3405 403.271 74.1964 403.45 74.1196C403.63 74.0428 403.832 74.0396 404.014 74.1105C404.151 74.1105 419.022 80.3061 417.242 98.8929C417.223 99.0727 417.139 99.2394 417.005 99.3617C416.872 99.4841 416.699 99.5536 416.518 99.5574Z" fill="#FCA14D"/>
<path d="M397.614 124.79C397.618 125.596 397.382 126.384 396.937 127.056C396.491 127.727 395.855 128.251 395.111 128.561C394.366 128.872 393.546 128.954 392.755 128.797C391.964 128.641 391.237 128.254 390.666 127.684C390.096 127.114 389.708 126.388 389.551 125.598C389.395 124.807 389.477 123.988 389.788 123.245C390.098 122.501 390.623 121.866 391.295 121.421C391.968 120.976 392.757 120.74 393.564 120.744C394.636 120.749 395.664 121.177 396.422 121.935C397.181 122.692 397.609 123.719 397.614 124.79Z" fill="white"/>
</svg>
