<svg width="274" height="276" viewBox="0 0 274 276" fill="none" xmlns="http://www.w3.org/2000/svg">
<line x1="0.5" y1="267.199" x2="273.5" y2="267.199" stroke="#55626F" stroke-linecap="round"/>
<g clip-path="url(#clip0_2126_20665)">
<path d="M208.399 39.402C208.399 39.402 219.741 32.9431 226.21 47.5137C232.678 62.0843 230.637 85.6792 205.22 81.6943C179.803 77.7094 190.841 63.5849 190.841 63.5849L208.399 39.402Z" fill="#55626F"/>
<path d="M81.8274 39.0124C81.8274 39.0124 66.5879 23.4317 57.924 39.7074C49.2601 55.9832 71.7177 81.2523 71.7177 81.2523L89.3026 80.4717L81.8274 39.0124Z" fill="#FCA14D"/>
<path d="M83.3317 62.577L83.9763 70.9546C83.9763 70.9546 82.9952 74.6966 89.1424 75.0388C93.7153 75.2954 94.0017 73.2269 94.0017 73.2269L92.5598 63.7131L82.6311 61.6289L83.3317 62.577Z" fill="#EFEFEF"/>
<path d="M80.7572 60.624C80.8136 60.9712 81.8792 61.9434 82.0426 62.2549C85.9103 66.4437 85.4503 67.0239 93.4249 69.191L92.5598 63.7134L80.7572 60.624Z" fill="#55626F"/>
<path d="M95.5032 39.8469C95.5032 39.8469 101.34 52.8397 99.3586 60.1649C97.3773 67.49 90.6733 66.4206 86.6572 65.0412C84.3877 64.3322 82.35 63.0287 80.7564 61.2663C79.621 61.6117 78.4056 61.591 77.2828 61.207C76.16 60.8231 75.1869 60.0954 74.5021 59.1276C71.9639 55.6842 73.4311 51.642 75.573 50.7437C77.7149 49.8455 80.253 51.3319 80.253 51.3319L78.2289 47.557C78.2289 47.557 86.4323 28.1908 95.5032 39.8469Z" fill="#EFEFEF"/>
<path d="M95.0632 56.4214C94.9838 56.4203 94.9064 56.3965 94.84 56.353C94.7737 56.3094 94.7211 56.2478 94.6885 56.1755C94.6675 56.1271 94.6564 56.075 94.6558 56.0223C94.6552 55.9696 94.6652 55.9173 94.6852 55.8685C94.7051 55.8197 94.7346 55.7753 94.772 55.7381C94.8093 55.7008 94.8537 55.6714 94.9026 55.6515C95.0525 55.5989 95.1869 55.5097 95.2934 55.3921C95.4 55.2744 95.4755 55.132 95.5129 54.9778C95.7913 53.7908 94.2281 51.6307 93.6072 50.8928C93.5357 50.8157 93.496 50.7145 93.496 50.6094C93.496 50.5044 93.5357 50.4032 93.6072 50.3261C93.6831 50.2522 93.7849 50.2109 93.8909 50.2109C93.9969 50.2109 94.0986 50.2522 94.1746 50.3261C94.4316 50.6255 96.6692 53.3096 96.2517 55.1061C96.1845 55.3816 96.0523 55.637 95.866 55.851C95.6797 56.0649 95.4448 56.2312 95.181 56.3359C95.1469 56.3709 95.1071 56.3999 95.0632 56.4214Z" fill="#55626F"/>
<path d="M79.6863 57.4269C79.6319 57.4265 79.5781 57.4149 79.5284 57.3928C79.4786 57.3708 79.4339 57.3387 79.3972 57.2986L75.8416 53.5558C75.7678 53.4792 75.7274 53.3765 75.7294 53.2702C75.7315 53.1639 75.7757 53.0628 75.8523 52.9891C75.929 52.9153 76.0319 52.875 76.1384 52.877C76.2448 52.879 76.3461 52.9232 76.4199 52.9997L79.9862 56.7425C80.0601 56.8184 80.1014 56.9201 80.1014 57.0259C80.1014 57.1318 80.0601 57.2334 79.9862 57.3093C79.9476 57.3493 79.9009 57.3806 79.8491 57.4009C79.7974 57.4212 79.7418 57.4301 79.6863 57.4269Z" fill="#55626F"/>
<path d="M75.9696 56.4215C75.8645 56.4286 75.7609 56.3937 75.6816 56.3245C75.6023 56.2553 75.5538 56.1575 75.5467 56.0526C75.5396 55.9476 75.5745 55.8442 75.6438 55.765C75.7131 55.6858 75.811 55.6373 75.9161 55.6302L78.3678 55.2559C78.4193 55.2468 78.4721 55.2482 78.523 55.2602C78.5739 55.2721 78.6219 55.2942 78.6639 55.3252C78.706 55.3562 78.7413 55.3955 78.7677 55.4406C78.7941 55.4856 78.8111 55.5356 78.8175 55.5874C78.8267 55.6394 78.8253 55.6928 78.8135 55.7443C78.8016 55.7958 78.7796 55.8444 78.7487 55.8873C78.7178 55.9301 78.6785 55.9663 78.6334 55.9938C78.5882 56.0213 78.5379 56.0395 78.4856 56.0472L76.0338 56.4215H75.9696Z" fill="#55626F"/>
<path d="M92.0765 60.3785C91.816 60.387 91.5577 60.3281 91.3268 60.2074C89.9025 59.4695 90.1381 57.3201 90.1488 57.2239C90.1582 57.166 90.1793 57.1107 90.2105 57.0611C90.2418 57.0115 90.2827 56.9687 90.3308 56.9351C90.3849 56.9116 90.4432 56.8994 90.5022 56.8994C90.5612 56.8994 90.6195 56.9116 90.6735 56.9351L94.9573 58.2932C95.0246 58.3148 95.085 58.3539 95.132 58.4065C95.1791 58.4592 95.2112 58.5234 95.225 58.5926C95.2393 58.6624 95.2349 58.7347 95.2124 58.8023C95.1898 58.8699 95.1499 58.9303 95.0965 58.9776C94.2546 59.7384 93.2017 60.2267 92.0765 60.3785ZM90.9306 57.8227C90.9088 58.1445 90.9679 58.4667 91.1026 58.7599C91.2373 59.0531 91.4432 59.3081 91.7016 59.5016C92.2692 59.801 93.2652 59.2557 93.9506 58.7851L90.9306 57.8227Z" fill="#55626F"/>
<path d="M97.5809 45.7389H97.506L95.1934 45.3325C95.141 45.3248 95.0908 45.3066 95.0456 45.2791C95.0004 45.2517 94.9612 45.2154 94.9303 45.1726C94.8993 45.1297 94.8773 45.0811 94.8655 45.0296C94.8537 44.9781 94.8523 44.9248 94.8615 44.8727C94.8822 44.7697 94.9412 44.6783 95.0266 44.6168C95.1119 44.5554 95.2174 44.5284 95.3218 44.5412L97.6451 44.9476C97.7495 44.9659 97.8426 45.0243 97.9046 45.1101C97.9666 45.196 97.9926 45.3027 97.977 45.4074C97.9596 45.4999 97.9107 45.5836 97.8384 45.644C97.7662 45.7045 97.6751 45.738 97.5809 45.7389Z" fill="#55626F"/>
<path d="M87.9314 47.2571C87.8571 47.2576 87.7842 47.2367 87.7215 47.1969C87.6588 47.1571 87.609 47.1 87.578 47.0325C87.5539 46.9862 87.5393 46.9356 87.5349 46.8836C87.5304 46.8316 87.5364 46.7793 87.5523 46.7296C87.5682 46.6799 87.5938 46.6338 87.6277 46.594C87.6615 46.5543 87.7028 46.5216 87.7493 46.4978L90.4367 45.1397C90.5318 45.0929 90.6416 45.0858 90.742 45.1199C90.8424 45.154 90.9251 45.2265 90.972 45.3215C91.0188 45.4165 91.026 45.5262 90.9919 45.6265C90.9577 45.7268 90.8851 45.8094 90.79 45.8562L88.1133 47.2143C88.0576 47.2446 87.9948 47.2594 87.9314 47.2571Z" fill="#55626F"/>
<path d="M80.0069 51.5351L82.438 55.1496L80.2961 48.4019C80.2961 48.4019 82.438 48.2308 86.4861 45.4932C87.6891 44.6368 88.7079 43.5482 89.4823 42.2919C90.2567 41.0356 90.771 39.6369 90.9948 38.1787L96.5851 42.4562C96.5851 42.4562 95.5891 32.1368 83.3376 35.7513C71.086 39.3657 74.106 52.0805 74.106 52.0805C74.106 52.0805 76.3443 49.5889 80.0069 51.5351Z" fill="#FCA14D"/>
<path d="M88.6067 50.8288C88.5414 50.8307 88.4767 50.8161 88.4186 50.7861C88.3605 50.7562 88.311 50.712 88.2747 50.6577C88.2166 50.5694 88.1953 50.4618 88.2153 50.358C88.2353 50.2542 88.2951 50.1622 88.3819 50.1017C89.1911 49.4129 90.2326 49.0573 91.2948 49.1072C91.437 49.1268 91.5738 49.1748 91.6971 49.2483C91.8204 49.3217 91.9276 49.4192 92.0124 49.5349C92.0684 49.6259 92.0863 49.7352 92.0623 49.8393C92.0382 49.9433 91.9742 50.0337 91.8838 50.091C91.7979 50.1451 91.6944 50.1642 91.5947 50.1443C91.495 50.1244 91.4069 50.067 91.3484 49.984C91.1984 49.8343 90.4702 49.6632 88.8317 50.7647C88.7643 50.807 88.6863 50.8293 88.6067 50.8288Z" fill="#55626F"/>
<path d="M98.2872 49.8769C98.2012 49.8762 98.1181 49.846 98.0517 49.7913C97.6228 49.3984 97.0598 49.1842 96.4778 49.1925C96.2564 49.221 96.0538 49.3317 95.9104 49.5026C95.8508 49.5905 95.7586 49.6512 95.6542 49.6712C95.5498 49.6913 95.4417 49.6691 95.3537 49.6095C95.2657 49.55 95.2049 49.4579 95.1848 49.3536C95.1647 49.2494 95.187 49.1414 95.2466 49.0535C95.5088 48.7095 95.891 48.4766 96.3173 48.4012C96.7157 48.3705 97.1161 48.4221 97.4937 48.5528C97.8713 48.6834 98.218 48.8902 98.5121 49.1604C98.5811 49.21 98.6323 49.2806 98.6581 49.3615C98.6839 49.4425 98.6829 49.5296 98.6553 49.6099C98.6277 49.6903 98.5749 49.7596 98.5048 49.8077C98.4346 49.8558 98.3508 49.88 98.2658 49.8769H98.2872Z" fill="#55626F"/>
<path d="M52.6565 26.9471C52.6565 26.9471 53.7269 14.7167 56.3474 8.18048C58.9679 1.6443 61.0274 0.141529 61.8763 0.476485C62.7253 0.811442 61.8763 5.34693 61.8763 5.34693C61.8763 5.34693 64.4526 -0.709439 66.3054 0.0691087C68.1582 0.847656 66.3719 6.47854 66.3719 6.47854C66.3719 6.47854 68.9333 2.61296 69.9594 4.2968C70.9855 5.98063 67.0067 15.975 67.0067 15.975C67.0067 15.975 70.2842 11.8741 71.0962 13.1596C71.9082 14.4451 69.4205 22.0495 67.4644 24.1316C65.8121 25.6984 64.0068 27.0061 62.0904 28.0244L52.6565 26.9471Z" fill="#EFEFEF"/>
<path d="M67.6264 14.5169H67.5378L57.9415 12.0545C57.9061 12.0456 57.8725 12.0282 57.8426 12.0033C57.8127 11.9785 57.7871 11.9467 57.7672 11.9097C57.7473 11.8727 57.7336 11.8313 57.7267 11.7878C57.7199 11.7443 57.7202 11.6995 57.7274 11.6562C57.7347 11.6128 57.7489 11.5715 57.7691 11.5349C57.7894 11.4982 57.8153 11.4668 57.8455 11.4424C57.8757 11.418 57.9094 11.4012 57.9449 11.3928C57.9804 11.3844 58.0168 11.3847 58.0522 11.3936L67.6485 13.856C67.721 13.8644 67.7877 13.9078 67.8341 13.9765C67.8805 14.0453 67.9027 14.1338 67.8958 14.2226C67.889 14.3115 67.8536 14.3933 67.7976 14.4502C67.7415 14.5071 67.6693 14.5343 67.5969 14.5259L67.6264 14.5169Z" fill="#55626F"/>
<path d="M74.3661 56.6859C74.3661 56.6859 64.8731 36.1811 64.7034 23.1902C64.5336 10.1994 54.6125 22.0948 54.6125 22.0948L52.6563 26.9472C52.6563 26.9472 52.0362 55.8168 60.0971 66.128C69.9961 78.8111 74.3661 56.6859 74.3661 56.6859Z" fill="#EFEFEF"/>
<path d="M109.496 91.2765C109.496 91.2765 120.753 110.088 128.689 118.752C139.23 130.312 127.212 129.615 127.212 129.615H122.355C122.355 129.615 104.152 121.051 96.0464 102.285C89.3068 86.8044 109.496 91.2765 109.496 91.2765Z" fill="#EFEFEF"/>
<path d="M60.2616 196.33L44.1125 197.195L47.5731 210.457H61.1267L60.2616 196.33Z" fill="#EFEFEF"/>
<path d="M102.543 114.37C102.543 114.37 124.444 195.737 108.876 211.625C93.3079 227.513 58.6799 220.922 58.6799 220.922L56.5171 188.133L75.3997 185.589L94.8507 117.747L102.543 114.37Z" fill="#57A8F3"/>
<path d="M73.815 243.322L72.0847 263.272L85.0611 256.007L86.2146 240.439L73.815 243.322Z" fill="#EFEFEF"/>
<path d="M70.5427 117.747C70.5427 117.747 68.3282 136.07 68.9335 147.739C69.5388 159.408 74.8832 187.717 74.6765 192.379C74.4698 197.041 67.3538 246.334 67.3538 246.334C72.2719 247.973 77.3388 248.846 82.4347 248.932C86.5263 249.017 90.6162 248.669 94.659 247.891C94.659 247.891 105.599 200.454 104.868 183.335C104.137 166.216 99.7007 117.747 99.7007 117.747H70.5427Z" fill="#57A8F3"/>
<path d="M103.951 273.421C104.087 273.385 104.207 273.286 104.286 273.145C104.365 273.003 104.398 272.829 104.377 272.659C104.136 270.924 103.285 266.072 101.076 264.014C98.3476 261.483 92.6297 260.471 90.551 258.784C88.4722 257.097 86.1479 253.028 84.9094 253.797C83.6709 254.566 81.3303 258.109 77.953 257.603C74.5757 257.097 73.0425 256.085 72.1041 257.097C71.1657 258.109 70.6746 272.281 71.0675 273.118C71.4603 273.954 76.2125 273.185 76.6272 273.32C77.0418 273.455 78.2094 270.088 78.9896 270.621C79.7698 271.154 80.7192 272.706 81.8704 273.435C82.9398 274.083 100.541 273.981 103.951 273.421Z" fill="#FCA14D"/>
<path d="M31.5286 234.16C31.5614 234.322 31.6516 234.465 31.7809 234.559C31.9102 234.653 32.0688 234.691 32.2241 234.666C33.8058 234.387 38.2308 233.4 40.1203 230.772C42.4405 227.527 43.3821 220.738 44.933 218.271C46.484 215.805 50.2013 213.079 49.5058 211.573C48.8104 210.068 45.5854 207.303 46.0593 203.285C46.5332 199.268 47.4625 197.444 46.5455 196.334C45.6285 195.224 32.7103 194.582 31.9348 195.036C31.1594 195.49 31.8548 201.156 31.7317 201.65C31.6086 202.143 34.6736 203.545 34.1935 204.473C33.7135 205.401 32.2795 206.524 31.6148 207.887C30.9501 209.25 31.0301 230.11 31.5286 234.16Z" fill="#FCA14D"/>
<path d="M85.7189 72.2839C85.7189 72.2839 76.2924 57.582 72.6531 47.5967L56.3173 65.2588C62.9609 80.9203 67.3899 88.9774 67.3899 88.9774C67.3899 88.9774 67.6409 122.473 68.0174 123.143C68.3939 123.813 78.6545 126.556 90.1627 125.768C101.671 124.981 104.188 122.989 104.823 122.518C105.458 122.048 100.017 78.1049 100.017 78.1049C100.017 78.1049 94.7616 72.4287 85.7189 72.2839Z" fill="#5E6B77"/>
<path d="M94.5703 74.3565C94.384 73.419 94.1167 72.5086 93.773 71.6406C93.3744 70.853 91.3149 71.6406 88.5246 71.1065C85.7343 70.5724 84.3687 68.6351 83.8815 68.5717C83.3943 68.5083 83.0695 70.6448 83.0695 70.6448C83.0695 70.6448 84.6196 73.0438 84.8632 73.3607C85.1068 73.6775 94.5703 74.3565 94.5703 74.3565Z" fill="#5E6B77"/>
<path d="M120.916 103.443C120.916 103.443 116.997 98.9985 110.862 91.2221C104.728 83.4457 100.018 78.1045 100.018 78.1045L93.6479 90.4255L101.391 117.068L120.916 103.443Z" fill="#5E6B77"/>
<path d="M104.262 114.995C104.192 114.995 104.124 114.963 104.072 114.904C104.02 114.845 103.988 114.765 103.982 114.678L103.701 109.554C103.694 109.519 103.694 109.481 103.701 109.446C103.701 109.292 106.905 93.5759 100.896 87.0035C100.845 86.9393 100.817 86.8532 100.817 86.7636C100.817 86.674 100.845 86.5879 100.896 86.5237C100.95 86.4633 101.019 86.4297 101.092 86.4297C101.165 86.4297 101.234 86.4633 101.288 86.5237C107.429 93.241 104.513 108.395 104.24 109.59L104.521 114.66C104.525 114.75 104.5 114.838 104.452 114.906C104.404 114.973 104.336 115.015 104.262 115.022V114.995Z" fill="white"/>
<path d="M101.295 215.473C101.259 215.481 101.221 215.481 101.185 215.473C101.151 215.454 101.121 215.428 101.096 215.395C101.072 215.362 101.052 215.323 101.04 215.281C101.028 215.239 101.022 215.194 101.024 215.149C101.026 215.104 101.036 215.06 101.052 215.02C110.604 189.926 97.442 137.265 97.3091 136.731C97.2878 136.648 97.2937 136.558 97.3254 136.481C97.357 136.403 97.4121 136.343 97.4789 136.314L103.923 133.599C103.993 133.569 104.069 133.575 104.135 133.614C104.201 133.653 104.252 133.722 104.277 133.807C104.29 133.849 104.296 133.894 104.294 133.939C104.293 133.984 104.284 134.028 104.268 134.068C104.252 134.109 104.23 134.145 104.202 134.175C104.175 134.204 104.143 134.227 104.108 134.241L97.9144 136.885C98.9995 141.321 110.803 191.03 101.554 215.346C101.523 215.393 101.483 215.429 101.438 215.451C101.393 215.474 101.344 215.481 101.295 215.473Z" fill="#55626F"/>
<path d="M72.7641 137.157C72.3394 137.155 71.9153 137.119 71.4945 137.048C71.4211 137.035 71.3551 136.987 71.3108 136.914C71.2666 136.841 71.2477 136.749 71.2582 136.659C71.2636 136.615 71.2761 136.572 71.2951 136.534C71.3141 136.496 71.3391 136.463 71.3687 136.437C71.3983 136.411 71.4318 136.392 71.4674 136.382C71.5029 136.372 71.5397 136.371 71.5757 136.379C77.8354 137.483 79.9835 129.861 80.0721 129.535C80.0984 129.453 80.1493 129.386 80.2144 129.349C80.2794 129.311 80.3537 129.306 80.4219 129.334C80.49 129.362 80.5469 129.421 80.5807 129.499C80.6145 129.576 80.6227 129.667 80.6036 129.752C80.5814 129.833 78.5145 137.157 72.7641 137.157Z" fill="#55626F"/>
<path d="M124.282 139.782C124.282 139.782 118.657 125.922 121.95 122.989C123.923 121.241 126.307 120.329 128.741 120.391C128.741 120.391 140.109 123.514 137.857 129C135.111 135.699 124.282 139.782 124.282 139.782Z" fill="#EFEFEF"/>
<path d="M132.823 140.47C132.823 140.47 135.776 145.902 137.193 142.796C138.61 139.691 135.34 128.529 132.321 129C129.302 129.471 132.823 140.47 132.823 140.47Z" fill="#EFEFEF"/>
<path d="M128.659 142.263C128.659 142.263 131.612 147.694 133.029 144.589C134.447 141.484 131.176 130.322 128.157 130.793C125.138 131.264 128.659 142.263 128.659 142.263Z" fill="#EFEFEF"/>
<path d="M124.238 142.597C124.238 142.597 126.127 147.902 127.766 145.431C129.405 142.96 127.899 132.648 125.212 132.503C122.525 132.359 124.238 142.597 124.238 142.597Z" fill="#EFEFEF"/>
<path d="M137.791 125.949C137.565 125.623 137.282 125.362 136.964 125.187C136.645 125.012 136.299 124.927 135.95 124.937C135.601 124.948 135.258 125.054 134.947 125.248C134.636 125.441 134.364 125.718 134.151 126.058C132.439 128.819 130.394 132.72 132.387 133.01C134.218 133.273 136.24 131.453 137.554 129.914C137.998 129.412 138.267 128.72 138.304 127.981C138.341 127.242 138.144 126.514 137.754 125.949H137.791Z" fill="#EFEFEF"/>
<path d="M132.335 134.025C132.005 134.04 131.68 133.919 131.413 133.681C130.837 133.092 130.807 131.87 131.317 130.06C130.298 129.87 127.271 129.154 125.411 127.172C125.362 127.107 125.335 127.021 125.335 126.932C125.335 126.843 125.362 126.757 125.411 126.692C125.437 126.66 125.467 126.635 125.501 126.617C125.534 126.6 125.57 126.591 125.607 126.591C125.643 126.591 125.679 126.6 125.713 126.617C125.747 126.635 125.777 126.66 125.802 126.692C127.906 128.919 131.708 129.48 131.767 129.48C131.809 129.487 131.849 129.505 131.885 129.533C131.921 129.562 131.951 129.599 131.974 129.643C131.992 129.69 132.001 129.741 132.001 129.793C132.001 129.844 131.992 129.895 131.974 129.942C131.457 131.644 131.391 132.803 131.789 133.201C132.38 133.789 134.085 132.902 135.022 132.205C135.053 132.182 135.088 132.167 135.124 132.16C135.16 132.153 135.196 132.155 135.232 132.165C135.267 132.176 135.3 132.195 135.329 132.221C135.359 132.247 135.384 132.28 135.403 132.318C135.421 132.356 135.434 132.399 135.44 132.443C135.445 132.487 135.444 132.532 135.435 132.575C135.427 132.618 135.411 132.659 135.39 132.695C135.368 132.731 135.341 132.761 135.31 132.785C134.408 133.468 133.391 133.892 132.335 134.025Z" fill="#55626F"/>
<path d="M128.659 142.606C128.599 142.607 128.541 142.584 128.493 142.539C128.445 142.495 128.41 142.433 128.394 142.362L126.881 136.025C126.844 135.355 126.622 133.68 125.995 133.065C125.892 132.965 125.773 132.894 125.645 132.858C125.517 132.822 125.384 132.821 125.257 132.856C123.507 133.246 123.965 136.876 123.972 136.912C123.983 137.001 123.965 137.091 123.922 137.164C123.879 137.236 123.815 137.286 123.743 137.301C123.707 137.309 123.67 137.308 123.635 137.298C123.599 137.288 123.566 137.269 123.536 137.243C123.507 137.217 123.482 137.184 123.463 137.146C123.444 137.107 123.431 137.065 123.426 137.021C123.426 136.849 122.872 132.693 125.161 132.195C125.364 132.143 125.574 132.147 125.775 132.207C125.977 132.266 126.165 132.38 126.327 132.54C127.287 133.445 127.412 135.808 127.419 135.907L128.896 142.199C128.916 142.287 128.908 142.381 128.872 142.46C128.836 142.54 128.775 142.599 128.704 142.624L128.659 142.606Z" fill="#55626F"/>
<path d="M133.443 141.819C133.385 141.82 133.328 141.8 133.28 141.759C133.232 141.718 133.196 141.66 133.177 141.592L131.11 134.16C131.11 134.16 130.232 131.109 129.014 131.58C126.866 132.413 127.397 135.699 127.42 135.835C127.433 135.922 127.418 136.012 127.378 136.087C127.338 136.161 127.276 136.213 127.205 136.233C127.17 136.242 127.133 136.243 127.098 136.234C127.062 136.226 127.028 136.209 126.998 136.185C126.968 136.161 126.942 136.129 126.922 136.092C126.902 136.055 126.888 136.014 126.881 135.97C126.637 134.585 126.748 131.743 128.852 130.937C130.601 130.258 131.59 133.798 131.634 133.943L133.701 141.375C133.713 141.417 133.718 141.461 133.716 141.505C133.713 141.548 133.704 141.591 133.688 141.631C133.673 141.67 133.651 141.706 133.624 141.735C133.597 141.764 133.566 141.786 133.532 141.8C133.504 141.815 133.473 141.822 133.443 141.819Z" fill="#55626F"/>
<path d="M53.1811 35.0939C52.8032 35.1395 52.422 35.071 52.0707 34.8942C51.7194 34.7175 51.4088 34.4379 51.1659 34.08C49.9405 32.0159 51.9041 27.6072 51.9779 27.4171C52.0176 27.3466 52.0773 27.2969 52.1454 27.2776C52.2134 27.2583 52.2849 27.2708 52.3458 27.3127C52.4067 27.3545 52.4527 27.4228 52.4747 27.504C52.4968 27.5853 52.4934 27.6737 52.4651 27.752C51.941 28.9108 50.7673 32.2785 51.6162 33.6817C52.0369 34.3968 52.9523 34.5869 54.3401 34.261C60.12 32.8941 64.6376 26.1134 64.6746 26.1134C64.7206 26.0438 64.7872 25.9995 64.8599 25.9901C64.9326 25.9808 65.0053 26.0072 65.0621 26.0637C65.1189 26.1201 65.155 26.2019 65.1627 26.291C65.1703 26.3801 65.1487 26.4693 65.1027 26.5389C64.9182 26.8286 60.4153 33.5368 54.436 34.9581C54.0221 35.0517 53.602 35.0972 53.1811 35.0939Z" fill="#FCA14D"/>
<path d="M51.3796 33.1024C51.1311 33.1074 50.8831 33.074 50.6414 33.0028C50.4491 32.9622 50.2701 32.8556 50.1251 32.6954C49.98 32.5352 49.875 32.3279 49.8221 32.0975C49.453 30.4046 52.1326 27.1094 52.4352 26.7382C52.4871 26.6746 52.5574 26.6389 52.6308 26.6389C52.7042 26.6389 52.7746 26.6746 52.8264 26.7382C52.8783 26.8019 52.9075 26.8882 52.9075 26.9781C52.9075 27.0681 52.8783 27.1544 52.8264 27.218C51.7561 28.5126 50.1395 30.9297 50.3609 31.9255C50.3609 32.0523 50.4643 32.2333 50.7817 32.342C53.6901 33.2472 64.6225 26.0049 64.7333 26.0049C64.7654 25.9752 64.8025 25.9542 64.8418 25.9436C64.8812 25.933 64.922 25.9329 64.9614 25.9433C65.0008 25.9537 65.0379 25.9744 65.0702 26.004C65.1025 26.0336 65.1292 26.0714 65.1485 26.1148C65.1678 26.1582 65.1792 26.2062 65.182 26.2555C65.1849 26.3048 65.179 26.3543 65.1648 26.4006C65.1506 26.4469 65.1284 26.4889 65.0998 26.5237C65.0712 26.5585 65.0368 26.5854 64.999 26.6024C64.5856 26.8469 55.1517 33.1024 51.3796 33.1024Z" fill="#57A8F3"/>
<path d="M71.0956 220.461H71.0439C70.9718 220.443 70.9082 220.392 70.8667 220.317C70.8253 220.243 70.8094 220.151 70.8224 220.062C70.8224 219.863 73.8711 200.381 74.1516 194.914C74.3361 191.869 74.3139 188.81 74.0852 185.77C74.0789 185.682 74.1007 185.594 74.1461 185.524C74.1915 185.455 74.257 185.41 74.3288 185.399C74.3647 185.393 74.4013 185.395 74.4364 185.406C74.4715 185.417 74.5045 185.437 74.5333 185.464C74.5622 185.491 74.5864 185.525 74.6045 185.563C74.6226 185.602 74.6343 185.644 74.6388 185.689C74.8673 188.768 74.8896 191.866 74.7053 194.95C74.4247 200.472 71.3982 219.99 71.3687 220.189C71.3565 220.267 71.3225 220.336 71.2725 220.386C71.2225 220.436 71.1599 220.462 71.0956 220.461Z" fill="#55626F"/>
<path d="M74.6763 192.723C74.6261 192.723 74.5767 192.707 74.5338 192.675C74.4908 192.643 74.4558 192.597 74.4327 192.542C74.4059 192.489 74.3917 192.428 74.3917 192.366C74.3917 192.303 74.4059 192.242 74.4327 192.189C75.791 189.736 80.9361 187.979 82.693 188.224C83.158 188.287 83.4311 188.477 83.5419 188.794C83.581 188.982 83.5769 189.18 83.53 189.365C83.4831 189.551 83.3952 189.717 83.2761 189.844C81.4823 192.406 74.9495 192.705 74.669 192.723H74.6763ZM82.3017 188.876C80.471 188.876 76.817 190.297 75.3185 191.999C77.0164 191.854 81.5488 191.293 82.8701 189.401C83.0178 189.183 83.0473 189.066 83.0399 189.039C83.0325 189.011 82.9513 188.903 82.4494 188.876H82.3017Z" fill="#55626F"/>
<path d="M59.8097 23.054C59.7572 23.0542 59.7059 23.0353 59.6621 22.9997C59.6311 22.9758 59.6044 22.9445 59.5834 22.9077C59.5625 22.8709 59.5478 22.8293 59.5402 22.7854C59.5326 22.7415 59.5323 22.6962 59.5393 22.6521C59.5463 22.608 59.5605 22.5662 59.5809 22.5289C62.9913 15.8841 66.7634 15.685 66.9184 15.6759C66.9916 15.6734 67.0626 15.7061 67.1164 15.767C67.1702 15.8279 67.2025 15.9122 67.2063 16.0018C67.2064 16.0924 67.1781 16.1796 67.1273 16.2453C67.0764 16.311 67.0069 16.3502 66.9332 16.3549C66.8962 16.3549 63.2866 16.5721 60.046 22.891C60.021 22.9405 59.9863 22.9813 59.945 23.0098C59.9037 23.0383 59.8571 23.0535 59.8097 23.054Z" fill="#55626F"/>
<path d="M88.7239 74.2663H88.6796C88.5246 74.2663 84.8854 73.4968 83.9331 71.6591C83.8938 71.5832 83.8803 71.4914 83.8955 71.4034C83.9107 71.3154 83.9533 71.2382 84.0144 71.1883C84.0452 71.1636 84.0797 71.1469 84.1159 71.139C84.1522 71.1311 84.1893 71.1322 84.2251 71.1424C84.261 71.1525 84.2948 71.1714 84.3245 71.198C84.3543 71.2246 84.3793 71.2582 84.3982 71.297C85.0773 72.6096 87.7864 73.3972 88.7682 73.5964C88.8396 73.6098 88.9037 73.6573 88.9466 73.7286C88.9895 73.7998 89.0077 73.889 88.9971 73.9766C88.9866 74.0566 88.9535 74.1295 88.9035 74.1825C88.8536 74.2355 88.79 74.2652 88.7239 74.2663Z" fill="white"/>
<path d="M164.92 55.6197C164.92 55.6197 162.195 55.167 159.852 51.1838C158.263 48.4679 159.01 36.4728 159.709 33.8113C160.408 31.1498 162.513 33.3134 162.513 33.3134C162.513 33.3134 161.663 30.2716 163.085 28.7236C164.507 27.1755 165.929 30.4255 165.929 30.4255C165.929 30.4255 166.215 26.8949 168.463 28.5335C170.711 30.172 172.911 37.7493 173.229 41.7869C173.547 45.8245 173.428 53.2478 173.428 53.2478L168.916 58.1635L164.92 55.6197Z" fill="#EFEFEF"/>
<path d="M156.317 46.8838C156.317 46.8838 149.589 71.0912 157.382 86.1642C165.174 101.237 190.967 101.4 190.967 101.4L193.731 74.7757C193.731 74.7757 181.872 75.4185 177.05 67.8322C173.467 62.1469 175.318 54.2528 175.318 54.2528L156.317 46.8838Z" fill="#57A8F3"/>
<path d="M174.309 71.9597C174.228 71.9585 174.147 71.9432 174.07 71.9144C173.879 71.8583 173.705 71.7447 173.565 71.5855C173.425 71.4263 173.326 71.2272 173.276 71.0091C172.887 69.1985 175.786 65.8128 176.119 65.4325C176.162 65.3784 176.219 65.3416 176.281 65.3276C176.344 65.3136 176.409 65.3231 176.466 65.3548C176.524 65.3865 176.57 65.4386 176.599 65.5032C176.629 65.5679 176.638 65.6416 176.628 65.7132C176.564 66.2473 175.961 70.9729 174.785 71.8239C174.642 71.9216 174.476 71.9689 174.309 71.9597ZM175.849 66.709C174.785 68.0941 173.634 69.959 173.824 70.8281C173.824 70.9639 173.928 71.154 174.245 71.2717C174.275 71.2878 174.308 71.2961 174.341 71.2961C174.373 71.2961 174.406 71.2878 174.436 71.2717C175.023 70.81 175.556 68.5467 175.849 66.709Z" fill="white"/>
<path d="M235.983 56.4973C235.983 56.4973 233.258 56.9771 229.993 53.9534C227.777 51.8894 225.227 46.005 225.918 44.4751C226.609 42.9452 229.715 46.5301 229.715 46.5301C229.715 46.5301 225.41 40.1931 225.394 37.3867C225.378 34.5803 227.952 35.9744 227.952 35.9744C227.952 35.9744 226.363 33.3491 227.316 31.3937C228.27 29.4383 230.494 32.0636 230.494 32.0636C230.494 32.0636 229.866 28.5963 232.432 29.4111C234.998 30.2259 239.057 36.7349 240.376 40.4828C241.694 44.2307 243.553 51.3462 243.553 51.3462L240.503 57.5474L235.983 56.4973Z" fill="#EFEFEF"/>
<path d="M228.778 44.4566C228.722 44.4568 228.667 44.4379 228.62 44.4023C228.553 44.3538 228.505 44.2773 228.487 44.1892C228.469 44.1011 228.483 44.0085 228.524 43.9315C229.75 41.7239 231.098 39.6073 232.56 37.5945C232.616 37.532 232.692 37.4971 232.77 37.4971C232.849 37.4971 232.924 37.532 232.981 37.5945C233.009 37.6257 233.031 37.663 233.046 37.7042C233.062 37.7454 233.069 37.7897 233.069 37.8344C233.069 37.8791 233.062 37.9234 233.046 37.9646C233.031 38.0058 233.009 38.0431 232.981 38.0743C231.538 40.0457 230.211 42.1233 229.009 44.2936C228.985 44.3399 228.951 44.3788 228.911 44.4072C228.871 44.4356 228.826 44.4525 228.778 44.4566Z" fill="#55626F"/>
<path d="M236.055 50.9574C235.993 50.9574 235.934 50.9356 235.884 50.895C235.834 50.8544 235.797 50.7971 235.777 50.731C234.784 47.4177 229.74 46.8745 229.684 46.8655C229.645 46.862 229.608 46.8499 229.573 46.8299C229.539 46.8098 229.508 46.7821 229.483 46.7485C229.458 46.7148 229.439 46.6758 229.427 46.6338C229.415 46.5917 229.411 46.5474 229.414 46.5034C229.422 46.4136 229.461 46.3311 229.521 46.2735C229.582 46.216 229.661 46.188 229.74 46.1956C229.962 46.1956 235.221 46.7749 236.341 50.5138C236.363 50.599 236.356 50.691 236.321 50.7704C236.285 50.8497 236.224 50.9103 236.15 50.9393C236.12 50.9541 236.087 50.9604 236.055 50.9574Z" fill="#55626F"/>
<path d="M245.873 47.291C245.873 47.291 252.602 71.4894 244.809 86.5714C237.016 101.654 210.945 99.1368 210.945 99.1368L208.459 75.1739C208.459 75.1739 220.319 75.8257 225.141 68.2394C228.723 62.5451 226.872 54.6601 226.872 54.6601L245.873 47.291Z" fill="#57A8F3"/>
<path d="M227.888 73.4936C227.729 73.4913 227.574 73.4345 227.443 73.3306C226.268 72.4796 225.664 67.7631 225.601 67.2199C225.592 67.1497 225.604 67.0781 225.634 67.016C225.664 66.9539 225.711 66.9047 225.768 66.8759C225.823 66.8453 225.886 66.8349 225.947 66.8463C226.008 66.8576 226.065 66.8901 226.109 66.9393C226.443 67.3285 229.341 70.7505 228.952 72.5249C228.902 72.7426 228.802 72.9412 228.663 73.1003C228.523 73.2594 228.349 73.3732 228.158 73.4302C228.072 73.4691 227.981 73.4905 227.888 73.4936ZM226.347 68.2338C226.649 70.0444 227.181 72.3348 227.761 72.7603C227.79 72.7785 227.823 72.7881 227.856 72.7881C227.89 72.7881 227.922 72.7785 227.952 72.7603C228.269 72.6516 228.349 72.4525 228.372 72.3257C228.563 71.511 227.404 69.6461 226.339 68.261L226.347 68.2338Z" fill="white"/>
<path d="M181.047 253.695C181.047 253.695 170.37 262.037 167.456 266.319C164.543 270.601 164.714 273.132 165.27 274.295C165.825 275.459 189.52 270.026 189.52 270.026C189.52 270.026 188.764 262.495 191.375 262.527C193.986 262.56 193.499 269.516 193.499 269.516L200.701 268.169C200.701 268.169 200.025 260.671 199.109 257.84C198.222 255.404 197.161 253.056 195.938 250.818L181.047 253.695Z" fill="#57A8F3"/>
<path d="M187.605 185.887C187.605 185.887 185.819 200.785 193.846 217.959C203.064 237.652 209.161 247.359 209.161 247.359L221.464 240.135C221.464 240.135 206.845 198.862 205.386 181.444C203.927 164.027 187.605 185.887 187.605 185.887Z" fill="#EFEFEF"/>
<path d="M174.17 180.638C174.874 194.007 176.224 207.278 178.209 220.343C181.414 240.968 183.562 253.125 183.562 253.125L196.087 251.053C196.087 251.053 191.656 205.569 192.429 187.897C193.202 170.225 174.17 180.638 174.17 180.638Z" fill="#EFEFEF"/>
<path d="M208.357 250.051C208.357 250.051 200.689 262.031 199.19 267.192C197.691 272.352 198.614 274.686 199.473 275.572C200.332 276.457 221.22 262.228 221.22 262.228C221.22 262.228 218.279 255.402 220.764 254.431C223.249 253.461 224.846 260.215 224.846 260.215L231.269 256.176C231.269 256.176 228.415 249.35 226.708 247.028C225.031 244.91 223.248 242.903 221.369 241.016L208.357 250.051Z" fill="#57A8F3"/>
<path d="M182.625 251.417C182.625 251.417 173.007 262.937 175.025 263.437C177.044 263.936 187.921 261.532 190.925 259.027C193.928 256.521 196.087 250.863 196.087 250.863L188.329 247.358L182.625 251.417Z" fill="#EFEFEF"/>
<path d="M196.726 184.324C195.069 184.433 193.334 184.496 191.523 184.514C183.471 184.575 175.506 182.616 168.193 178.774C169.17 144.093 182.396 112.688 182.396 112.688L189.966 114.608L191.309 114.952L196.726 184.324Z" fill="#FCA14D"/>
<path d="M217.316 150.195C215.354 171.134 213.519 178.386 213.519 178.386C213.519 178.386 213.884 179.571 214.496 181.608C208.655 183.119 202.709 184.043 196.726 184.369C195.068 184.478 193.334 184.541 191.523 184.56C188.965 184.58 186.409 184.396 183.873 184.007C182.92 180.268 182.284 177.67 182.157 177.009C181.426 173.171 186.923 114.735 186.923 114.735L189.99 114.689L211.008 117.288C211.008 117.288 219.27 129.201 217.316 150.195Z" fill="#FCA14D"/>
<path d="M209.069 247.299C209.069 247.299 202.536 262.868 204.545 262.337C206.554 261.805 216.295 254.049 218.578 250.184C220.861 246.319 221.464 239.286 221.464 239.286L213.55 240.614L209.069 247.299Z" fill="#EFEFEF"/>
<path d="M193.13 216.75C193.086 216.745 193.045 216.729 193.008 216.703C192.972 216.677 192.941 216.642 192.919 216.6C187.576 206.411 187.494 191.397 187.491 191.25C187.491 191.205 187.498 191.16 187.513 191.117C187.528 191.075 187.55 191.036 187.578 191.003C187.606 190.969 187.639 190.942 187.676 190.923C187.713 190.904 187.752 190.893 187.792 190.891C187.87 190.892 187.945 190.925 188 190.986C188.055 191.047 188.087 191.129 188.09 191.218C188.069 191.361 188.176 206.206 193.437 216.236C193.482 216.308 193.5 216.397 193.487 216.486C193.475 216.575 193.432 216.655 193.368 216.711C193.294 216.756 193.21 216.77 193.13 216.75Z" fill="#55626F"/>
<path d="M182.094 178.503C182.031 178.499 181.971 178.474 181.921 178.43C181.872 178.387 181.835 178.327 181.816 178.259C179.79 162.987 186.232 130.442 186.836 127.445L182.308 123.634C182.245 123.581 182.203 123.502 182.191 123.413C182.179 123.325 182.198 123.235 182.245 123.163C182.291 123.091 182.361 123.043 182.438 123.029C182.516 123.016 182.595 123.038 182.658 123.091L187.345 127.038C187.393 127.074 187.43 127.127 187.451 127.189C187.472 127.25 187.477 127.317 187.464 127.382C187.392 127.735 180.314 162.353 182.412 178.15C182.423 178.24 182.403 178.332 182.355 178.405C182.307 178.478 182.236 178.526 182.157 178.539L182.094 178.503Z" fill="#55626F"/>
<path d="M193.732 74.7752L187.147 75.8163C187.147 75.8163 181.276 83.0586 181.117 91.2062C180.958 99.3538 182.46 103.047 182.46 103.047L180.172 115.794C180.172 115.794 185.947 121.271 195.797 122.439C201.927 123.111 208.112 122.391 213.996 120.32C213.996 120.32 212.534 80.2794 212.534 76.8664C212.534 74.5398 193.732 74.7752 193.732 74.7752Z" fill="#57A8F3"/>
<path d="M211.906 178.739C210.317 178.739 208.53 178.576 208.22 177.833C208.156 177.683 208.137 177.512 208.167 177.348C208.197 177.184 208.275 177.036 208.387 176.928C209.714 175.244 213.272 177.725 213.678 178.014C213.732 178.052 213.774 178.108 213.797 178.175C213.82 178.242 213.823 178.316 213.805 178.386C213.789 178.455 213.755 178.517 213.706 178.563C213.658 178.609 213.598 178.635 213.535 178.639C213.114 178.711 212.534 178.739 211.906 178.739ZM209.698 177.073C209.54 177.059 209.381 177.083 209.232 177.143C209.082 177.204 208.946 177.301 208.832 177.426C208.8 177.465 208.776 177.511 208.761 177.562C208.904 177.879 210.524 178.078 212.43 178.051C211.589 177.512 210.658 177.179 209.698 177.073Z" fill="#55626F"/>
<path d="M181.356 97.8055C181.299 97.8078 181.244 97.7909 181.196 97.7571C181.148 97.7233 181.109 97.674 181.086 97.6154C177.908 90.2011 183.842 80.415 184.096 79.9985C184.119 79.9617 184.149 79.9303 184.182 79.9063C184.216 79.8822 184.253 79.8659 184.292 79.8584C184.331 79.8508 184.371 79.8521 184.41 79.8622C184.449 79.8722 184.485 79.8909 184.518 79.917C184.581 79.9697 184.623 80.0482 184.637 80.136C184.65 80.2238 184.633 80.3141 184.589 80.3878C184.525 80.4874 178.576 90.2645 181.618 97.3167C181.636 97.3571 181.646 97.4011 181.649 97.4462C181.652 97.4913 181.647 97.5365 181.635 97.5794C181.622 97.6223 181.602 97.6619 181.576 97.6961C181.55 97.7302 181.519 97.7582 181.483 97.7784C181.442 97.7962 181.399 97.8054 181.356 97.8055Z" fill="white"/>
<path d="M161.234 40.754C161.163 40.7588 161.092 40.7341 161.036 40.6843C160.98 40.6346 160.941 40.5633 160.928 40.4836C160.914 40.4039 160.926 40.3214 160.962 40.2512C160.998 40.1811 161.055 40.1281 161.122 40.1022L169.01 36.4811C169.084 36.4505 169.166 36.4532 169.238 36.4885C169.31 36.5238 169.368 36.5891 169.4 36.6712C169.429 36.7553 169.427 36.8489 169.396 36.9319C169.365 37.0149 169.306 37.0806 169.233 37.1148L161.345 40.7359L161.234 40.754Z" fill="#55626F"/>
<path d="M164.34 49.5354C162.593 46.3397 165.27 43.3523 165.27 43.3523C165.27 43.3523 164.317 36.7618 165.913 36.9066C167.51 37.0515 169.091 43.7416 169.091 46.6204L164.34 49.5354Z" fill="#EFEFEF"/>
<path d="M164.34 49.88C164.288 49.8813 164.238 49.8669 164.193 49.8382C164.148 49.8095 164.111 49.7677 164.086 49.717C162.441 46.7205 164.451 43.8779 164.951 43.2352C164.816 42.2393 164.308 38.0298 165.222 36.8981C165.31 36.7835 165.421 36.6943 165.545 36.6376C165.669 36.581 165.803 36.5586 165.936 36.5722C167.875 36.7442 169.408 43.8779 169.408 46.63C169.396 46.7105 169.36 46.7837 169.305 46.8366C169.251 46.8894 169.182 46.9184 169.11 46.9184C169.038 46.9184 168.969 46.8894 168.914 46.8366C168.86 46.7837 168.824 46.7105 168.812 46.63C168.812 43.6878 167.176 37.3689 165.889 37.2512C165.845 37.2461 165.802 37.2534 165.762 37.2723C165.721 37.2913 165.686 37.3214 165.658 37.3598C165.063 38.0931 165.285 41.3974 165.563 43.3076C165.571 43.3604 165.567 43.4146 165.552 43.4653C165.537 43.5159 165.511 43.5613 165.476 43.5973C165.372 43.715 162.989 46.4489 164.594 49.373C164.614 49.4104 164.628 49.4521 164.634 49.4956C164.641 49.5391 164.639 49.5835 164.63 49.6264C164.622 49.6693 164.605 49.7098 164.583 49.7455C164.56 49.7813 164.532 49.8116 164.499 49.8347C164.451 49.8671 164.395 49.8829 164.34 49.88Z" fill="#55626F"/>
<path d="M187.51 55.4324C187.51 55.4324 181.814 45.9012 194.954 39.493C208.094 33.0847 216.715 43.5488 216.491 48.8417C216.268 54.1346 213.08 56.4261 213.08 56.4261C213.08 56.4261 213.547 68.0056 202.529 66.5657C199.299 66.0955 196.236 64.8322 193.614 62.8891C190.993 60.9461 188.896 58.384 187.51 55.4324Z" fill="#55626F"/>
<path d="M203.677 64.7402L203.322 74.0484C203.322 74.0484 201.545 76.6543 196.081 76.8976C192.02 77.0801 190.608 76.1067 190.608 76.1067L191.36 71.4121L192.081 66.8391L202.012 65.0444L203.677 64.7402Z" fill="#EFEFEF"/>
<path d="M203.676 64.2949C203.618 64.6053 203.515 64.9058 203.372 65.1872C201.107 69.7602 193.705 71.271 191.359 71.4129L192.08 66.84L203.676 64.2949Z" fill="#55626F"/>
<path d="M190.831 45.5565C190.831 45.5565 185.5 57.0346 187.185 63.5949C188.871 70.1552 194.842 69.2528 198.426 68.0665C200.456 67.4565 202.281 66.3068 203.707 64.7407C204.713 65.0605 205.794 65.0553 206.797 64.7258C207.8 64.3962 208.673 63.7592 209.292 62.9054C211.577 59.8635 210.307 56.2944 208.408 55.4427C206.509 54.5909 204.245 55.9091 204.245 55.9091L206.093 52.5833C206.093 52.5833 199.025 35.2953 190.831 45.5565Z" fill="#EFEFEF"/>
<path d="M190.272 53.6069C190.189 53.6077 190.109 53.5813 190.043 53.5319C189.977 53.4824 189.929 53.4125 189.906 53.3331C189.822 53.0784 189.649 52.8624 189.419 52.7247C189.26 52.6531 189.087 52.6161 188.912 52.6161C188.737 52.6161 188.564 52.6531 188.404 52.7247C188.308 52.7513 188.206 52.741 188.118 52.6959C188.029 52.6508 187.961 52.5743 187.927 52.4814C187.897 52.3845 187.906 52.2801 187.951 52.1895C187.997 52.099 188.075 52.0292 188.17 51.9947C188.427 51.8984 188.701 51.855 188.975 51.8672C189.249 51.8794 189.517 51.9469 189.764 52.0656C190.172 52.3059 190.476 52.6889 190.617 53.1404C190.642 53.2372 190.629 53.3399 190.579 53.427C190.53 53.514 190.449 53.5785 190.353 53.6069H190.272Z" fill="#55626F"/>
<path d="M197.177 54.3474C197.12 54.3474 197.064 54.3347 197.013 54.3101C196.962 54.2855 196.917 54.2497 196.882 54.2054C196.771 54.0334 196.625 53.8864 196.453 53.7737C196.282 53.661 196.089 53.5851 195.886 53.5508C195.684 53.5165 195.477 53.5245 195.278 53.5744C195.079 53.6242 194.892 53.7148 194.73 53.8404C194.651 53.9022 194.55 53.9301 194.45 53.9177C194.35 53.9053 194.259 53.8538 194.197 53.7745C194.135 53.6952 194.107 53.5945 194.12 53.4947C194.132 53.3948 194.184 53.304 194.263 53.2422C194.501 53.0553 194.775 52.919 195.067 52.8416C195.36 52.7642 195.665 52.7473 195.965 52.7919C196.264 52.8365 196.551 52.9417 196.809 53.1011C197.066 53.2605 197.288 53.4706 197.461 53.7187C197.497 53.7537 197.525 53.7955 197.545 53.8416C197.564 53.8878 197.574 53.9373 197.574 53.9874C197.574 54.0375 197.564 54.0871 197.545 54.1332C197.525 54.1794 197.497 54.2212 197.461 54.2561C197.423 54.291 197.378 54.3173 197.329 54.333C197.28 54.3488 197.228 54.3537 197.177 54.3474Z" fill="#55626F"/>
<path d="M189.105 50.2812C189 50.2812 188.899 50.2395 188.825 50.1653C188.75 50.0912 188.709 49.9906 188.709 49.8857C188.709 49.7808 188.75 49.6803 188.825 49.6061C188.899 49.5319 189 49.4903 189.105 49.4903L191.379 49.1557C191.43 49.1471 191.483 49.149 191.534 49.1613C191.584 49.1737 191.632 49.1962 191.674 49.2275C191.716 49.2587 191.751 49.2982 191.777 49.3433C191.803 49.3885 191.819 49.4385 191.825 49.4903C191.84 49.5938 191.813 49.6988 191.75 49.7824C191.687 49.866 191.594 49.9213 191.49 49.9364L189.216 50.271L189.105 50.2812Z" fill="#55626F"/>
<path d="M197.583 51.204C197.533 51.2136 197.481 51.2136 197.431 51.204L194.791 50.0988C194.705 50.0548 194.638 49.9799 194.604 49.8889C194.571 49.7979 194.573 49.6976 194.61 49.608C194.647 49.5183 194.717 49.446 194.805 49.4054C194.893 49.3649 194.993 49.359 195.086 49.3891L197.725 50.5044C197.772 50.5233 197.814 50.5512 197.849 50.5865C197.885 50.6218 197.913 50.6639 197.931 50.7101C197.95 50.7564 197.96 50.806 197.959 50.856C197.959 50.906 197.948 50.9554 197.928 51.0013C197.895 51.0634 197.845 51.1151 197.784 51.1509C197.723 51.1866 197.654 51.205 197.583 51.204Z" fill="#55626F"/>
<path d="M190.902 59.6809C190.807 59.6812 190.716 59.6459 190.647 59.582C190.577 59.5181 190.534 59.4303 190.526 59.3362C190.12 55.3716 191.785 53.3944 191.856 53.3133C191.928 53.2433 192.025 53.2041 192.125 53.2041C192.226 53.2041 192.322 53.2433 192.394 53.3133C192.462 53.3864 192.5 53.4823 192.5 53.582C192.5 53.6816 192.462 53.7776 192.394 53.8507C192.394 53.8507 190.872 55.6859 191.237 59.3058C191.246 59.4048 191.216 59.5034 191.153 59.5809C191.091 59.6584 191.001 59.7088 190.902 59.7215V59.6809Z" fill="#55626F"/>
<path d="M204.235 60.6343C204.16 60.6354 204.087 60.6149 204.024 60.5753C203.961 60.5357 203.911 60.4787 203.88 60.4113C203.859 60.366 203.848 60.3172 203.847 60.2677C203.846 60.2182 203.854 60.1689 203.872 60.1227C203.89 60.0765 203.917 60.0343 203.951 59.9986C203.986 59.9628 204.027 59.9342 204.072 59.9144L208.754 57.7851C208.799 57.7645 208.848 57.753 208.898 57.7512C208.948 57.7495 208.997 57.7575 209.044 57.775C209.091 57.7924 209.133 57.8188 209.17 57.8527C209.206 57.8867 209.236 57.9274 209.256 57.9727C209.277 58.018 209.289 58.0669 209.29 58.1166C209.292 58.1663 209.284 58.2159 209.266 58.2625C209.249 58.3091 209.223 58.3518 209.189 58.3882C209.155 58.4246 209.114 58.454 209.068 58.4746L204.387 60.6039C204.339 60.6237 204.287 60.6341 204.235 60.6343Z" fill="#55626F"/>
<path d="M208.398 61.7198C208.299 61.7179 208.204 61.6779 208.134 61.6083L206.104 59.5803C206.032 59.5091 205.992 59.4124 205.992 59.3116C205.992 59.2109 206.032 59.1142 206.104 59.0429C206.175 58.9717 206.272 58.9316 206.373 58.9316C206.474 58.9316 206.57 58.9717 206.642 59.0429L208.672 61.0709C208.742 61.1428 208.781 61.2392 208.781 61.3396C208.781 61.4399 208.742 61.5363 208.672 61.6083C208.599 61.6794 208.5 61.7194 208.398 61.7198Z" fill="#55626F"/>
<path d="M187.511 55.4326C188.465 52.6461 190.05 50.1167 192.141 48.0408L195.827 44.1877C195.827 44.1877 195.411 51.4883 198.691 54.6417C201.971 57.7951 204.246 55.9091 204.246 55.9091L210.511 50.4236L199.341 40.1725C199.341 40.1725 186.912 39.6959 187.511 55.4326Z" fill="#55626F"/>
<path d="M191.095 73.248L187.147 74.0924C187.147 74.0924 186.616 79.7208 194.933 80.1466C203.605 80.5928 209.64 75.2456 209.64 75.2456L202.58 73.248H191.095Z" fill="#EFEFEF"/>
<path d="M194.353 80.2599C191.367 79.9944 189.219 79.0987 187.969 77.5868C187.448 76.9032 187.088 76.1394 186.91 75.3406C186.731 74.5417 186.737 73.7238 186.927 72.9351C186.95 72.8507 187.01 72.7782 187.095 72.7336C187.18 72.689 187.282 72.6758 187.38 72.6969C187.474 72.7222 187.555 72.7773 187.606 72.8513C187.658 72.9252 187.675 73.0124 187.656 73.0956C187.336 74.5105 187.669 75.992 188.583 77.2238C189.698 78.567 191.653 79.3673 194.391 79.6107C202.953 80.3718 209.099 74.8974 209.155 74.8328C209.187 74.7957 209.227 74.765 209.274 74.7429C209.32 74.7207 209.372 74.7075 209.426 74.7041C209.479 74.7008 209.533 74.7074 209.584 74.7234C209.635 74.7395 209.682 74.7647 209.721 74.7974C209.76 74.8301 209.791 74.8695 209.812 74.913C209.833 74.9565 209.843 75.0031 209.842 75.0497C209.84 75.0963 209.827 75.142 209.804 75.1835C209.781 75.2251 209.748 75.2616 209.706 75.2907C209.641 75.3459 203.255 81.0339 194.364 80.2522L194.353 80.2599Z" fill="white"/>
<path d="M193.583 63.1991C193.501 63.1983 193.421 63.1713 193.355 63.1221C193.289 63.0728 193.241 63.0039 193.217 62.9253C193.203 62.8774 193.199 62.8272 193.205 62.7776C193.211 62.7281 193.227 62.6802 193.251 62.6367C193.276 62.5933 193.309 62.5552 193.348 62.5247C193.388 62.4941 193.433 62.4718 193.481 62.4589C194.306 62.1601 195.016 61.6104 195.512 60.8873C195.539 60.8455 195.575 60.8097 195.616 60.7819C195.658 60.7541 195.705 60.7349 195.754 60.7255C195.803 60.7161 195.854 60.7165 195.903 60.7269C195.952 60.7373 195.998 60.7573 196.039 60.7859C196.122 60.8433 196.178 60.9305 196.197 61.0289C196.216 61.1274 196.196 61.2293 196.141 61.3131C195.548 62.1926 194.681 62.852 193.674 63.189L193.583 63.1991Z" fill="#55626F"/>
<path d="M216.147 51.6501C216.094 51.6489 216.043 51.637 215.995 51.6151C215.947 51.5933 215.904 51.5619 215.869 51.523C215.834 51.4841 215.807 51.4384 215.79 51.3888C215.773 51.3392 215.767 51.2866 215.771 51.2344C216.634 42.1695 209.678 39.2696 209.374 39.1479C209.328 39.13 209.286 39.1032 209.25 39.069C209.214 39.0348 209.186 38.994 209.166 38.9488C209.146 38.9036 209.135 38.8549 209.134 38.8055C209.133 38.7562 209.142 38.7072 209.16 38.6612C209.199 38.5676 209.272 38.4929 209.365 38.453C209.459 38.4132 209.564 38.4115 209.658 38.4483C209.729 38.4483 217.446 41.6626 216.522 51.3053C216.513 51.3986 216.469 51.4851 216.4 51.5486C216.331 51.612 216.241 51.6481 216.147 51.6501Z" fill="#FCA14D"/>
<path d="M206.337 64.7405C206.339 65.1585 206.216 65.5677 205.985 65.916C205.754 66.2644 205.424 66.5363 205.038 66.6972C204.651 66.8581 204.226 66.9007 203.815 66.8197C203.404 66.7386 203.027 66.5375 202.731 66.242C202.435 65.9464 202.234 65.5697 202.153 65.1596C202.071 64.7496 202.114 64.3247 202.275 63.9389C202.436 63.5531 202.709 63.2238 203.058 62.9928C203.406 62.7619 203.816 62.6396 204.235 62.6416C204.791 62.6443 205.325 62.8663 205.718 63.2593C206.112 63.6524 206.334 64.1847 206.337 64.7405Z" fill="white"/>
</g>
<defs>
<clipPath id="clip0_2126_20665">
<rect width="217.436" height="276" fill="white" transform="translate(31.1355)"/>
</clipPath>
</defs>
</svg>
