<svg width="533" height="282" viewBox="0 0 533 282" fill="none" xmlns="http://www.w3.org/2000/svg">
<g clip-path="url(#clip0_5271_27313)">
<path d="M198.703 155.827C200.646 155.827 202.222 154.254 202.222 152.313C202.222 150.373 200.646 148.8 198.703 148.8C196.759 148.8 195.184 150.373 195.184 152.313C195.184 154.254 196.759 155.827 198.703 155.827Z" fill="#55626F" stroke="#55626F" stroke-linecap="round" stroke-linejoin="round"/>
<path d="M209.855 155.827C211.799 155.827 213.374 154.254 213.374 152.313C213.374 150.373 211.799 148.8 209.855 148.8C207.912 148.8 206.336 150.373 206.336 152.313C206.336 154.254 207.912 155.827 209.855 155.827Z" fill="#55626F" stroke="#55626F" stroke-linecap="round" stroke-linejoin="round"/>
<path d="M221.019 155.827C222.963 155.827 224.538 154.254 224.538 152.313C224.538 150.373 222.963 148.8 221.019 148.8C219.076 148.8 217.5 150.373 217.5 152.313C217.5 154.254 219.076 155.827 221.019 155.827Z" fill="#55626F" stroke="#55626F" stroke-linecap="round" stroke-linejoin="round"/>
<path d="M115.1 175.197H79.5391V209.12H115.1V175.197Z" fill="#55626F" stroke="#55626F" stroke-miterlimit="10"/>
<path d="M126.961 179.144H220.226" stroke="#55626F" stroke-miterlimit="10"/>
<path d="M126.961 190.198H220.226" stroke="#55626F" stroke-miterlimit="10"/>
<path d="M126.961 201.238H220.226" stroke="#55626F" stroke-miterlimit="10"/>
<path d="M126.961 212.291H220.226" stroke="#55626F" stroke-miterlimit="10"/>
<path d="M59.5042 137.891H227.266C227.986 137.891 228.676 138.177 229.185 138.685C229.695 139.194 229.981 139.883 229.981 140.602V230.727C229.981 231.931 229.502 233.086 228.649 233.937C227.796 234.788 226.639 235.267 225.433 235.267H61.3363C60.1303 235.267 58.9737 234.788 58.1209 233.937C57.2681 233.086 56.7891 231.931 56.7891 230.727V140.602C56.7891 139.883 57.0751 139.194 57.5843 138.685C58.0935 138.177 58.7841 137.891 59.5042 137.891Z" fill="#F6F7F8" stroke="#55626F" stroke-linecap="round" stroke-linejoin="round"/>
<path d="M59.5042 137.891H227.266C227.986 137.891 228.676 138.177 229.185 138.685C229.695 139.194 229.981 139.883 229.981 140.602V153.761H56.7891V140.602C56.7891 139.883 57.0751 139.194 57.5843 138.685C58.0935 138.177 58.7841 137.891 59.5042 137.891Z" fill="#57A8F3" stroke="#55626F" stroke-linecap="round" stroke-linejoin="round"/>
<path d="M194.527 149.576C196.471 149.576 198.046 148.003 198.046 146.063C198.046 144.123 196.471 142.55 194.527 142.55C192.583 142.55 191.008 144.123 191.008 146.063C191.008 148.003 192.583 149.576 194.527 149.576Z" fill="white" stroke="#55626F" stroke-linecap="round" stroke-linejoin="round"/>
<path d="M205.687 149.576C207.631 149.576 209.206 148.003 209.206 146.063C209.206 144.123 207.631 142.55 205.687 142.55C203.744 142.55 202.168 144.123 202.168 146.063C202.168 148.003 203.744 149.576 205.687 149.576Z" fill="white" stroke="#55626F" stroke-linecap="round" stroke-linejoin="round"/>
<path d="M216.84 149.576C218.783 149.576 220.359 148.003 220.359 146.063C220.359 144.123 218.783 142.55 216.84 142.55C214.896 142.55 213.32 144.123 213.32 146.063C213.32 148.003 214.896 149.576 216.84 149.576Z" fill="white" stroke="#55626F" stroke-linecap="round" stroke-linejoin="round"/>
<path d="M110.936 168.946H75.375V202.869H110.936V168.946Z" stroke="#55626F" stroke-miterlimit="10"/>
<path d="M122.785 172.894H216.05" stroke="#55626F" stroke-miterlimit="10"/>
<path d="M122.785 183.934H216.05" stroke="#55626F" stroke-miterlimit="10"/>
<path d="M122.785 194.988H216.05" stroke="#55626F" stroke-miterlimit="10"/>
<path d="M122.785 206.028H216.05" stroke="#55626F" stroke-miterlimit="10"/>
<path d="M378.05 137.47H258.002C254.821 137.47 252.242 140.045 252.242 143.221V247.188C252.242 250.364 254.821 252.939 258.002 252.939H378.05C381.231 252.939 383.81 250.364 383.81 247.188V143.221C383.81 140.045 381.231 137.47 378.05 137.47Z" fill="#F6F7F8" stroke="#55626F" stroke-linecap="round" stroke-linejoin="round"/>
<path d="M281.135 183.71H268.996V239.727H281.135V183.71Z" fill="#55626F" stroke="#55626F" stroke-linecap="round" stroke-linejoin="round"/>
<path d="M298.323 192.79H286.184V239.727H298.323V192.79Z" fill="#57A8F3" stroke="#55626F" stroke-linecap="round" stroke-linejoin="round"/>
<path d="M315.51 200.356H303.371V239.727H315.51V200.356Z" fill="white" stroke="#55626F" stroke-linecap="round" stroke-linejoin="round"/>
<path d="M332.698 177.144H320.559V239.727H332.698V177.144Z" fill="#55626F" stroke="#55626F" stroke-linecap="round" stroke-linejoin="round"/>
<path d="M349.881 184.71H337.742V239.727H349.881V184.71Z" fill="#57A8F3" stroke="#55626F" stroke-linecap="round" stroke-linejoin="round"/>
<path d="M367.069 158.472H354.93V239.727H367.069V158.472Z" fill="white" stroke="#55626F" stroke-linecap="round" stroke-linejoin="round"/>
<path d="M269.812 152.629H281.939" stroke="#55626F" stroke-miterlimit="10"/>
<path d="M269.812 157.682H281.939" stroke="#55626F" stroke-miterlimit="10"/>
<path d="M269.812 162.722H281.939" stroke="#55626F" stroke-miterlimit="10"/>
<path d="M285.984 152.629H335.029" stroke="#55626F" stroke-miterlimit="10"/>
<path d="M285.984 157.682H335.029" stroke="#55626F" stroke-miterlimit="10"/>
<path d="M285.984 162.722H335.029" stroke="#55626F" stroke-miterlimit="10"/>
<path d="M378.05 0.657959H258.002C254.821 0.657959 252.242 3.2325 252.242 6.40836V110.376C252.242 113.552 254.821 116.127 258.002 116.127H378.05C381.231 116.127 383.81 113.552 383.81 110.376V6.40836C383.81 3.2325 381.231 0.657959 378.05 0.657959Z" fill="#F6F7F8" stroke="#55626F" stroke-linecap="round" stroke-linejoin="round"/>
<path d="M314.812 92.8617C335.194 92.8617 351.717 76.3658 351.717 56.0171C351.717 35.6683 335.194 19.1724 314.812 19.1724C294.429 19.1724 277.906 35.6683 277.906 56.0171C277.906 76.3658 294.429 92.8617 314.812 92.8617Z" fill="white" stroke="#55626F" stroke-linecap="round" stroke-linejoin="round"/>
<path d="M350.62 47.135C349.04 40.8008 345.802 34.9995 341.239 30.3246C336.675 25.6498 330.949 22.2694 324.648 20.5292C318.346 18.789 311.694 18.7515 305.373 20.4206C299.052 22.0897 293.288 25.4054 288.672 30.0285L314.769 56.083L350.62 47.135Z" fill="#55626F" stroke="#55626F" stroke-linecap="round" stroke-linejoin="round"/>
<path d="M350.623 47.135L314.811 56.0172L304.148 91.296C310.389 93.1756 317.018 93.3712 323.359 91.8631C329.701 90.3549 335.529 87.1968 340.251 82.7099C344.973 78.223 348.42 72.5676 350.242 66.3188C352.064 60.07 352.195 53.451 350.623 47.135Z" fill="#57A8F3" stroke="#55626F" stroke-linecap="round" stroke-linejoin="round"/>
<path d="M329.465 32.805L341.591 17.1592H349.183" stroke="#55626F" stroke-miterlimit="10"/>
<path d="M356.262 17.6592H368.388" stroke="#55626F" stroke-miterlimit="10"/>
<path d="M356.262 22.699H368.388" stroke="#55626F" stroke-miterlimit="10"/>
<path d="M356.262 27.752H368.388" stroke="#55626F" stroke-miterlimit="10"/>
<path d="M356.262 83.269H368.388" stroke="#55626F" stroke-miterlimit="10"/>
<path d="M356.262 88.322H368.388" stroke="#55626F" stroke-miterlimit="10"/>
<path d="M356.262 93.3618H368.388" stroke="#55626F" stroke-miterlimit="10"/>
<path d="M262.234 82.2559H274.36" stroke="#55626F" stroke-miterlimit="10"/>
<path d="M262.234 87.3088H274.36" stroke="#55626F" stroke-miterlimit="10"/>
<path d="M262.234 92.3486H274.36" stroke="#55626F" stroke-miterlimit="10"/>
<path d="M294.077 80.7424L289.53 92.3485H277.391" stroke="#55626F" stroke-miterlimit="10"/>
<path d="M343.109 66.6099H363.341V73.1761" stroke="#55626F" stroke-miterlimit="10"/>
<path d="M218.804 0.657959H98.756C95.5749 0.657959 92.9961 3.2325 92.9961 6.40836V110.376C92.9961 113.552 95.5749 116.127 98.756 116.127H218.804C221.985 116.127 224.564 113.552 224.564 110.376V6.40836C224.564 3.2325 221.985 0.657959 218.804 0.657959Z" fill="#F6F7F8" stroke="#55626F" stroke-linecap="round" stroke-linejoin="round"/>
<path d="M106.652 94.2698V98.7306" stroke="#55626F" stroke-miterlimit="10"/>
<path d="M117.367 94.2698V98.7306" stroke="#55626F" stroke-miterlimit="10"/>
<path d="M128.082 94.2698V98.7306" stroke="#55626F" stroke-miterlimit="10"/>
<path d="M138.797 94.2698V98.7306" stroke="#55626F" stroke-miterlimit="10"/>
<path d="M149.516 94.2698V98.7306" stroke="#55626F" stroke-miterlimit="10"/>
<path d="M160.23 94.2698V98.7306" stroke="#55626F" stroke-miterlimit="10"/>
<path d="M170.945 94.2698V98.7306" stroke="#55626F" stroke-miterlimit="10"/>
<path d="M181.66 94.2698V98.7306" stroke="#55626F" stroke-miterlimit="10"/>
<path d="M192.379 94.2698V98.7306" stroke="#55626F" stroke-miterlimit="10"/>
<path d="M203.094 94.2698V98.7306" stroke="#55626F" stroke-miterlimit="10"/>
<path d="M213.797 94.2698V98.7306" stroke="#55626F" stroke-miterlimit="10"/>
<path d="M209.341 31.8707L197.729 38.108L188.358 19.383L176.298 34.9894L165.582 25.6334L155.314 14.0405L144.598 26.5151L133.883 56.833L122.271 45.6875L110.672 54.1486V82.2295H209.341V31.8707Z" fill="#57A8F3" stroke="#55626F" stroke-linecap="round" stroke-linejoin="round"/>
<path d="M110.934 13.7905H123.06" stroke="#55626F" stroke-miterlimit="10"/>
<path d="M110.934 18.8303H123.06" stroke="#55626F" stroke-miterlimit="10"/>
<path d="M110.934 23.8833H123.06" stroke="#55626F" stroke-miterlimit="10"/>
<path d="M209.341 56.5433L197.729 60.8331L188.358 40.0159L176.298 54.5958L165.582 51.0298L155.314 73.3208L144.598 43.4503L133.883 73.3208L122.271 62.1753L110.672 76.8869V87.585H209.341V56.5433Z" fill="#55626F" stroke="#55626F" stroke-linecap="round" stroke-linejoin="round"/>
<path d="M445.731 64.5308C445.731 64.5308 441.355 52.9773 428.847 54.2274C416.339 55.4775 410.724 65.465 412.912 72.0181C413.812 75.0258 414.963 77.9529 416.352 80.7687C416.352 80.7687 412.279 78.887 413.531 85.4401C414.784 91.9932 424.168 90.7037 425.723 90.1247C427.279 89.5457 434.172 72.0181 445.731 64.5308Z" fill="#FCA14D"/>
<path d="M366.094 176.552L343.898 187.632C343.499 187.832 343.161 188.137 342.922 188.513C342.683 188.89 342.551 189.325 342.54 189.771C342.529 190.217 342.64 190.658 342.861 191.046C343.081 191.434 343.403 191.755 343.793 191.974L403.013 225.226C403.51 225.507 404.089 225.607 404.652 225.508C405.214 225.41 405.725 225.12 406.097 224.687L420.002 208.567C420.24 208.289 420.413 207.962 420.509 207.609C420.605 207.256 420.621 206.887 420.557 206.527C420.493 206.167 420.349 205.826 420.137 205.528C419.925 205.23 419.649 204.983 419.33 204.804L368.401 176.591C368.049 176.397 367.654 176.292 367.252 176.286C366.85 176.279 366.453 176.37 366.094 176.552Z" fill="#55626F" stroke="#55626F" stroke-linecap="round" stroke-linejoin="round"/>
<path d="M420.228 196.514L410.883 190.461C410.883 190.461 403.884 182.565 401.261 181.249C398.638 179.934 381.016 183.092 381.016 183.092L419.74 204.962L420.228 196.514Z" fill="#F6F7F8" stroke="#55626F" stroke-linecap="round" stroke-linejoin="round"/>
<path d="M401.141 186.961C401.141 186.961 394.261 187.263 390.017 185.46C385.773 183.658 383.334 184.5 385.549 188.092C387.763 191.685 394.63 191.342 394.63 191.342C394.63 191.342 400.627 198.632 407.903 195.777" fill="#F6F7F8"/>
<path d="M401.141 186.961C401.141 186.961 394.261 187.263 390.017 185.46C385.773 183.658 383.334 184.5 385.549 188.092C387.763 191.685 394.63 191.342 394.63 191.342C394.63 191.342 400.627 198.632 407.903 195.777" stroke="#55626F" stroke-linecap="round" stroke-linejoin="round"/>
<path d="M479.816 75.15C479.816 75.15 483.876 58.912 508.26 60.7806C532.644 62.6491 532.341 84.8744 532.341 84.8744L527.068 82.3742C527.068 82.3742 531.444 95.1777 526.436 104.534C521.427 113.89 508.616 119.206 500.18 117.692C491.745 116.179 482.637 108.231 481.319 103.863C480.001 99.4938 484.812 84.2033 479.816 75.15Z" fill="#FCA14D"/>
<path d="M431.351 73.2682C431.351 73.2682 429.479 76.4 425.723 82.9531C421.966 89.5062 423.535 95.4277 421.03 98.5595C418.526 101.691 411.659 101.362 412.595 104.481C413.531 107.6 417.59 109.744 417.59 109.744C417.59 109.744 417.59 127.219 419.475 129.404C421.36 131.588 435.727 127.838 435.727 127.838C435.727 127.838 438.547 132.22 436.662 141.891C434.778 151.563 417.907 178.407 415.719 191.829C413.531 205.251 420.991 238.648 420.991 238.648L414.97 280.932C428.321 280.932 437.934 280.932 451.82 280.932C473.717 280.932 487.069 280.932 487.069 280.932L473.871 229.621C473.871 229.621 475.123 189.671 472.316 167.512C469.508 145.352 462.312 140.049 462.312 131.983C462.312 123.917 472.619 119.495 479.183 111.692C482.792 106.858 484.995 101.123 485.549 95.1184C486.102 89.1142 484.985 83.074 482.32 77.6633C477.192 66.623 460.743 62.3727 449.487 62.0569C438.231 61.7411 431.351 73.2682 431.351 73.2682Z" fill="#F6F7F8" stroke="#55626F" stroke-linecap="round" stroke-linejoin="round"/>
<path d="M487.067 280.932L473.869 229.621C473.869 229.621 475.121 189.671 472.314 167.512C471.718 162.615 470.727 157.774 469.348 153.037C464.748 149.471 457.657 144.971 450.421 144.418C442.025 143.773 433.642 153.471 429.227 159.59C423.717 170.749 417.035 183.75 415.717 191.856C413.529 205.278 420.989 238.675 420.989 238.675L414.434 280.932C429.922 280.932 436.33 280.932 453.421 280.932C475.317 280.932 487.067 280.932 487.067 280.932Z" fill="#57A8F3" stroke="#55626F" stroke-linecap="round" stroke-linejoin="round"/>
<path d="M449.152 61.4202C437.896 61.1175 430.993 72.6359 430.993 72.6359C430.993 72.6359 428.323 74.7723 427.789 78.511C430.459 76.9087 437.467 68.3598 440.42 76.3999C442.146 81.0844 437.915 87.6244 440.103 89.8219C442.291 92.0194 446.694 96.9934 446.048 97.9277C445.572 98.9111 445.256 99.9638 445.112 101.046C445.112 101.046 450.74 92.9405 455.116 97.9277C459.492 102.915 453.547 112.284 453.547 112.284L449.804 113.534C449.804 113.534 461.996 127.272 464.184 127.272C464.79 127.272 466.242 124.615 468.912 122.307C472.482 119.221 476.503 115.848 479.594 112.284C483.203 107.45 485.983 101.072 486.537 95.068C487.09 89.0638 485.997 82.8538 483.332 77.443C478.205 66.4028 460.408 61.736 449.152 61.4202Z" fill="#FCA14D"/>
<path d="M428.2 97.7304C427.858 99.3226 427.027 100.507 426.355 100.362C425.683 100.217 425.406 98.8094 425.749 97.204C426.092 95.5986 426.922 94.4143 427.594 94.5722C428.266 94.7301 428.596 96.125 428.2 97.7304Z" fill="#55626F"/>
<path d="M425.723 90.1379C425.723 90.1379 429.163 86.4008 431.351 91.0722" stroke="#55626F" stroke-linecap="round" stroke-linejoin="round"/>
<path d="M420.094 113.534C420.094 113.534 420.726 114.784 424.167 113.534" stroke="#55626F" stroke-linecap="round" stroke-linejoin="round"/>
<path d="M440.734 161.301C440.734 161.301 436.042 167.88 434.144 180.026C432.246 192.171 433.827 231.832 433.827 231.832C433.827 231.832 407.256 224.345 398.49 219.989C394.532 218.11 390.674 216.028 386.931 213.752C386.931 213.752 384.111 207.172 381.923 204.699C379.735 202.225 373.803 201.58 371.615 200.014C369.427 198.448 367.859 193.435 365.025 195.329C364.552 195.574 364.151 195.938 363.862 196.384C363.572 196.83 363.404 197.344 363.373 197.875C363.343 198.406 363.451 198.936 363.687 199.412C363.924 199.889 364.28 200.296 364.722 200.593C365.974 201.54 370.653 206.212 370.653 206.212L358.791 200.948C358.791 200.948 357.855 205.633 359.41 207.199C360.966 208.765 364.103 211.567 364.103 211.567C364.103 211.567 368.795 218.147 371.615 219.673C374.431 220.98 377.361 222.029 380.367 222.805C383.162 223.739 385.982 226.121 388.487 227.634L404.422 237.306C412.675 242.259 421.41 246.363 430.493 249.557C436.187 251.557 450.118 257.663 455.061 251.544C457.196 248.912 456.537 241.017 457.091 237.727C460.584 216.792 465.092 195.724 465.092 174.42" fill="#57A8F3"/>
<path d="M440.734 161.301C440.734 161.301 436.042 167.88 434.144 180.026C432.246 192.171 433.827 231.832 433.827 231.832C433.827 231.832 407.256 224.345 398.49 219.989C394.532 218.11 390.674 216.028 386.931 213.752C386.931 213.752 384.111 207.172 381.923 204.699C379.735 202.225 373.803 201.58 371.615 200.014C369.427 198.448 367.859 193.435 365.025 195.329C364.552 195.574 364.151 195.938 363.862 196.384C363.572 196.83 363.404 197.344 363.373 197.875C363.343 198.406 363.451 198.936 363.687 199.412C363.924 199.889 364.28 200.296 364.722 200.593C365.974 201.54 370.653 206.212 370.653 206.212L358.791 200.948C358.791 200.948 357.855 205.633 359.41 207.199C360.966 208.765 364.103 211.567 364.103 211.567C364.103 211.567 368.795 218.147 371.615 219.673C374.431 220.98 377.361 222.029 380.367 222.805C383.162 223.739 385.982 226.121 388.487 227.634L404.422 237.306C412.675 242.259 421.41 246.363 430.493 249.557C436.187 251.557 450.118 257.663 455.061 251.544C457.196 248.912 456.537 241.017 457.091 237.727C460.584 216.792 465.092 195.724 465.092 174.42" stroke="#55626F" stroke-linecap="round" stroke-linejoin="round"/>
<path d="M424.378 229.056C415.85 226.424 403.869 222.647 398.518 219.976C394.56 218.097 390.701 216.015 386.959 213.739C386.959 213.739 384.138 207.159 381.95 204.685C379.762 202.212 373.831 201.567 371.643 200.001C369.455 198.435 367.886 193.421 365.053 195.316C364.58 195.561 364.179 195.925 363.889 196.371C363.6 196.817 363.431 197.331 363.401 197.862C363.37 198.393 363.478 198.923 363.715 199.399C363.951 199.876 364.308 200.282 364.749 200.58C366.002 201.527 370.681 206.199 370.681 206.199L358.818 200.935C358.818 200.935 357.882 205.62 359.438 207.186C360.993 208.751 364.13 211.554 364.13 211.554C364.13 211.554 368.822 218.134 371.643 219.66C374.459 220.967 377.388 222.015 380.395 222.792C383.189 223.726 386.01 226.108 388.514 227.621L404.449 237.293C409.581 240.376 414.904 243.132 420.384 245.544L424.378 229.056Z" fill="#F6F7F8" stroke="#55626F" stroke-linecap="round" stroke-linejoin="round"/>
<path d="M442.924 240.885L433.855 231.832L436.36 240.254" stroke="#55626F" stroke-linecap="round" stroke-linejoin="round"/>
<path d="M22.4308 280.932C20.2926 275.591 26.0255 258.018 26.0255 258.018L89.8586 263.663L92.3938 280.932H22.4308Z" fill="#55626F" stroke="#55626F" stroke-linecap="round" stroke-linejoin="round"/>
<path d="M30.5449 139.589C30.5449 139.589 17.7071 166.801 15.8486 185.487C13.9902 204.172 24.126 250.597 24.126 250.597C24.126 250.597 20.1718 262.334 23.0584 264.203C25.9449 266.071 91.4915 269.545 91.4915 269.545C91.4915 269.545 95.4457 269.006 95.4457 265.598C95.4457 262.19 94.378 259.729 93.8376 256.794C93.2972 253.86 94.6416 193.803 88.7631 180.473C82.8846 167.143 70.8508 150.853 70.8508 150.853L30.5449 139.589Z" fill="#FCA14D" stroke="#55626F" stroke-linecap="round" stroke-linejoin="round"/>
<path d="M42.1172 249.86C49.3796 240.306 60.2931 225.608 68.0432 213.686" stroke="#55626F" stroke-linecap="round" stroke-linejoin="round"/>
<path d="M85.3359 66.452C85.3359 66.452 89.6196 52.3063 90.4236 48.0297C91.0271 45.1558 92.0158 42.3762 93.3629 39.766V50.1746C93.3629 50.1746 96.5657 46.4375 100.045 41.8977C103.525 37.3579 106.728 37.6342 105.383 42.4372C104.039 47.2402 100.573 52.5695 100.309 53.3722C99.4745 56.823 98.4044 60.2127 97.1061 63.5176C95.5405 66.386 93.6571 69.0697 91.4912 71.5182L85.3359 66.452Z" fill="white" stroke="#55626F" stroke-linecap="round" stroke-linejoin="round"/>
<path d="M67.9648 77.137L85.3367 66.452C85.3367 66.452 90.1476 65.9125 91.492 71.5182C92.8364 77.1238 92.0192 73.9263 92.0192 73.9263L78.3906 93.1381L67.9648 77.137Z" fill="white" stroke="#55626F" stroke-linecap="round" stroke-linejoin="round"/>
<path d="M65.5667 70.2023C65.5667 70.2023 52.4653 56.5829 49.2624 57.662C46.0595 58.741 47.6544 64.3335 47.6544 64.3335C47.6544 64.3335 39.9042 61.3859 39.6275 63.5308L39.3638 65.6625C39.3638 65.6625 25.4716 73.9394 21.7283 82.769C17.9851 91.5985 17.4447 100.112 21.7283 104.915C26.012 109.718 36.4246 126.798 36.4246 126.798L36.6882 135.075L63.1546 141.747L65.5667 130.535C65.5667 130.535 78.1277 130.535 79.1953 128.667C80.2629 126.798 80.8033 106.297 80.8033 106.297L86.405 99.3491C86.405 99.3491 76.2561 87.6114 74.648 84.1375C72.0677 79.217 69.0271 74.5512 65.5667 70.2023Z" fill="#F6F7F8" stroke="#55626F" stroke-linecap="round" stroke-linejoin="round"/>
<path d="M79.1791 111.429C79.1791 111.429 77.8611 113.087 74.6055 109.771" stroke="#55626F" stroke-linecap="round" stroke-linejoin="round"/>
<path d="M65.5667 70.2023C65.5667 70.2023 52.4653 56.5829 49.2624 57.662C46.0595 58.741 47.6544 64.3335 47.6544 64.3335C47.6544 64.3335 39.9042 61.3859 39.6275 63.5308L39.3638 65.6625C39.3638 65.6625 25.4716 73.9394 21.7283 82.769C17.9851 91.5985 17.4447 100.112 21.7283 104.915C25.0366 108.626 32.0091 119.679 35.0011 124.496C36.8068 124.716 38.6343 124.685 40.4315 124.403C47.918 123.088 52.9925 114.521 52.9925 114.521C52.9925 114.521 47.918 112.929 47.7203 106.257C47.5226 99.586 51.6744 98.2438 51.6744 98.2438C51.6744 98.2438 55.4177 102.52 58.6205 100.652C61.8234 98.7833 54.6664 95.3093 53.5461 92.6381C52.4257 89.9669 55.1541 86.2429 55.6813 84.3744C56.2085 82.5058 50.6068 83.0585 48.4716 81.9663C46.3363 80.8741 57.8165 75.558 60.2286 73.9657C62.6406 72.3735 57.5925 73.4262 54.6137 71.8209C51.6349 70.2155 65.5667 70.2023 65.5667 70.2023Z" fill="#55626F" stroke="#55626F" stroke-linecap="round" stroke-linejoin="round"/>
<path d="M72.9732 90.4799C73.5004 91.9406 73.4082 93.2959 72.7887 93.5196C72.1692 93.7433 71.2334 92.7433 70.7062 91.2826C70.1789 89.822 70.2712 88.4666 70.9039 88.2429C71.5365 88.0192 72.4592 89.0193 72.9732 90.4799Z" fill="#55626F"/>
<path d="M66.8984 86.1903C66.8984 86.1903 67.966 78.7161 72.7769 81.9137" stroke="#55626F" stroke-linecap="round" stroke-linejoin="round"/>
<path d="M52.9922 114.495L58.0799 113.153L59.4111 117.153" stroke="#55626F" stroke-linecap="round" stroke-linejoin="round"/>
<path d="M29.7395 129.97C30.5435 129.97 72.2466 143.05 72.2466 143.05L73.0374 155.327L28.6719 141.984L29.7395 129.97Z" fill="#FCA14D" stroke="#55626F" stroke-linecap="round" stroke-linejoin="round"/>
<path d="M37.4928 188.948C37.4928 188.948 87.2097 210.568 100.851 211.897C114.493 213.226 176.231 149.195 176.231 149.195L169.008 139.852C169.008 139.852 118.487 165.735 112.332 167.867C106.176 169.999 55.1283 153.721 51.3851 152.932C47.6418 152.142 39.3513 153.458 36.1484 157.735" fill="#FCA14D"/>
<path d="M37.4928 188.948C37.4928 188.948 87.2097 210.568 100.851 211.897C114.493 213.226 176.231 149.195 176.231 149.195L169.008 139.852C169.008 139.852 118.487 165.735 112.332 167.867C106.176 169.999 55.1283 153.721 51.3851 152.932C47.6418 152.142 39.3513 153.458 36.1484 157.735" stroke="#55626F" stroke-linecap="round" stroke-linejoin="round"/>
<path d="M53.5306 195.882L34.0234 197.487" stroke="#55626F" stroke-linecap="round" stroke-linejoin="round"/>
<path d="M162.863 144.379L170.877 154.248" stroke="#55626F" stroke-linecap="round" stroke-linejoin="round"/>
<path d="M169.008 139.852L176.494 129.443L179.697 119.837C180.238 118.232 185.312 114.771 186.92 112.626C188.528 110.481 190.123 105.692 191.731 107.021C193.339 108.35 193.049 111.297 192.535 112.626C192.021 113.955 189.319 116.903 189.055 118.232C188.792 119.561 205.096 115.297 205.096 115.297C205.096 115.297 207.732 116.1 206.968 118.232C206.012 120.219 204.845 122.098 203.488 123.838C203.488 123.838 200.285 133.983 197.873 136.378C195.461 138.773 184.244 141.984 184.244 141.984L176.231 149.195L169.008 139.852Z" fill="#F6F7F8" stroke="#55626F" stroke-linecap="round" stroke-linejoin="round"/>
<path d="M1.06641 280.932L505.227 280.932" stroke="#55626F" stroke-linecap="round" stroke-linejoin="round"/>
</g>
<defs>
<clipPath id="clip0_5271_27313">
<rect width="533" height="282" fill="white"/>
</clipPath>
</defs>
</svg>
