<svg width="350" height="308" viewBox="0 0 350 308" fill="none" xmlns="http://www.w3.org/2000/svg">
<rect x="0.5" y="0.5" width="349" height="99" rx="3.5" fill="white"/>
<path d="M26.4 57V42.6H27.87V49.4L34.44 42.6H36.32L29.61 49.55L36.87 57H34.95L27.87 49.8V57H26.4ZM36.4742 57V55.71C36.8742 55.7833 37.1776 55.7667 37.3842 55.66C37.5976 55.5467 37.7542 55.36 37.8542 55.1C37.9542 54.8333 38.0376 54.5033 38.1042 54.11C38.2109 53.4567 38.3076 52.7367 38.3942 51.95C38.4809 51.1633 38.5576 50.2967 38.6242 49.35C38.6976 48.3967 38.7709 47.3467 38.8442 46.2H46.1842V57H44.7242V47.61H40.2042C40.1576 48.3167 40.1042 49.02 40.0442 49.72C39.9842 50.42 39.9209 51.0933 39.8542 51.74C39.7942 52.38 39.7276 52.97 39.6542 53.51C39.5809 54.05 39.5042 54.5167 39.4242 54.91C39.3042 55.5033 39.1442 55.9767 38.9442 56.33C38.7509 56.6833 38.4609 56.9167 38.0742 57.03C37.6876 57.1433 37.1542 57.1333 36.4742 57ZM57.5581 46.2V57H56.1281V48.59L50.2081 57H48.9681V46.2H50.3981V54.54L56.3281 46.2H57.5581ZM64.9348 57.3C63.8815 57.3 62.9682 57.0667 62.1948 56.6C61.4282 56.1333 60.8315 55.4767 60.4048 54.63C59.9782 53.7833 59.7648 52.79 59.7648 51.65C59.7648 50.47 59.9748 49.45 60.3948 48.59C60.8148 47.73 61.4048 47.0667 62.1648 46.6C62.9315 46.1333 63.8348 45.9 64.8748 45.9C65.9415 45.9 66.8515 46.1467 67.6048 46.64C68.3582 47.1267 68.9282 47.8267 69.3148 48.74C69.7015 49.6533 69.8782 50.7433 69.8448 52.01H68.3448V51.49C68.3182 50.09 68.0148 49.0333 67.4348 48.32C66.8615 47.6067 66.0215 47.25 64.9148 47.25C63.7548 47.25 62.8648 47.6267 62.2448 48.38C61.6315 49.1333 61.3248 50.2067 61.3248 51.6C61.3248 52.96 61.6315 54.0167 62.2448 54.77C62.8648 55.5167 63.7415 55.89 64.8748 55.89C65.6482 55.89 66.3215 55.7133 66.8948 55.36C67.4748 55 67.9315 54.4833 68.2648 53.81L69.6348 54.34C69.2082 55.28 68.5782 56.01 67.7448 56.53C66.9182 57.0433 65.9815 57.3 64.9348 57.3ZM60.8048 52.01V50.78H69.0548V52.01H60.8048ZM72.0541 57V46.2H73.5241V50.89H79.6141V46.2H81.0841V57H79.6141V52.3H73.5241V57H72.0541ZM86.8105 57V47.56H82.9805V46.2H92.1105V47.56H88.2805V57H86.8105ZM94.0272 57L94.0072 46.2H95.4872V50.27H97.3672C97.6805 50.27 97.9872 50.2767 98.2872 50.29C98.5872 50.3033 98.8572 50.33 99.0972 50.37C99.6305 50.4767 100.104 50.6567 100.517 50.91C100.931 51.1633 101.257 51.5133 101.497 51.96C101.737 52.4 101.857 52.9567 101.857 53.63C101.857 54.5567 101.617 55.2867 101.137 55.82C100.657 56.3533 100.054 56.7 99.3272 56.86C99.0539 56.92 98.7572 56.96 98.4372 56.98C98.1172 56.9933 97.8039 57 97.4972 57H94.0272ZM95.4872 55.74H97.4372C97.6572 55.74 97.9072 55.7333 98.1872 55.72C98.4672 55.7067 98.7139 55.67 98.9272 55.61C99.2872 55.51 99.6105 55.31 99.8972 55.01C100.191 54.7033 100.337 54.2433 100.337 53.63C100.337 53.0233 100.197 52.5667 99.9172 52.26C99.6372 51.9467 99.2639 51.74 98.7972 51.64C98.5839 51.5933 98.3572 51.5633 98.1172 51.55C97.8839 51.5367 97.6572 51.53 97.4372 51.53H95.4872V55.74ZM103.147 57V46.2H104.617V57H103.147Z" fill="#344351"/>
<circle cx="205" cy="50" r="29.5" fill="white" stroke="#344351"/>
<ellipse cx="205" cy="42.5" rx="7" ry="7.5" fill="#F88C28"/>
<path d="M216.678 64H193.322C192.659 64 192.182 63.3671 192.411 62.745C193.968 58.5346 198.053 52 205 52C211.947 52 216.032 58.5346 217.589 62.745C217.818 63.3671 217.341 64 216.678 64Z" fill="#F88C28" stroke="#F88C28"/>
<circle cx="250" cy="50" r="29.5" fill="white" stroke="#344351"/>
<ellipse cx="250" cy="42.5" rx="7" ry="7.5" fill="#F88C28"/>
<path d="M261.678 64H238.322C237.659 64 237.182 63.3671 237.411 62.745C238.968 58.5346 243.053 52 250 52C256.947 52 261.032 58.5346 262.589 62.745C262.818 63.3671 262.341 64 261.678 64Z" fill="#F88C28" stroke="#F88C28"/>
<circle cx="295" cy="50" r="29.5" fill="white" stroke="#344351"/>
<ellipse cx="295" cy="42.5" rx="7" ry="7.5" fill="#F88C28"/>
<path d="M306.678 64H283.322C282.659 64 282.182 63.3671 282.411 62.745C283.968 58.5346 288.053 52 295 52C301.947 52 306.032 58.5346 307.589 62.745C307.818 63.3671 307.341 64 306.678 64Z" fill="#F88C28" stroke="#F88C28"/>
<rect x="0.5" y="0.5" width="349" height="99" rx="3.5" stroke="#344351"/>
<rect x="0.5" y="208.5" width="349" height="99" rx="3.5" fill="white"/>
<path d="M32.23 265.3C30.7967 265.3 29.5867 264.983 28.6 264.35C27.6133 263.71 26.8667 262.827 26.36 261.7C25.8533 260.573 25.6 259.273 25.6 257.8C25.6 256.327 25.8533 255.027 26.36 253.9C26.8667 252.773 27.6133 251.893 28.6 251.26C29.5867 250.62 30.7967 250.3 32.23 250.3C33.9033 250.3 35.27 250.73 36.33 251.59C37.39 252.443 38.1167 253.59 38.51 255.03L37.01 255.42C36.7033 254.28 36.1533 253.377 35.36 252.71C34.5667 252.043 33.5233 251.71 32.23 251.71C31.1033 251.71 30.1667 251.967 29.42 252.48C28.6733 252.993 28.11 253.71 27.73 254.63C27.3567 255.543 27.1633 256.6 27.15 257.8C27.1433 259 27.3267 260.057 27.7 260.97C28.08 261.883 28.6467 262.6 29.4 263.12C30.16 263.633 31.1033 263.89 32.23 263.89C33.5233 263.89 34.5667 263.557 35.36 262.89C36.1533 262.217 36.7033 261.313 37.01 260.18L38.51 260.57C38.1167 262.01 37.39 263.16 36.33 264.02C35.27 264.873 33.9033 265.3 32.23 265.3ZM45.2264 265.3C44.1531 265.3 43.2364 265.057 42.4764 264.57C41.7164 264.083 41.1331 263.41 40.7264 262.55C40.3197 261.69 40.1164 260.703 40.1164 259.59C40.1164 258.457 40.3231 257.463 40.7364 256.61C41.1497 255.757 41.7364 255.093 42.4964 254.62C43.2631 254.14 44.1731 253.9 45.2264 253.9C46.3064 253.9 47.2264 254.143 47.9864 254.63C48.7531 255.11 49.3364 255.78 49.7364 256.64C50.1431 257.493 50.3464 258.477 50.3464 259.59C50.3464 260.723 50.1431 261.72 49.7364 262.58C49.3297 263.433 48.7431 264.1 47.9764 264.58C47.2097 265.06 46.2931 265.3 45.2264 265.3ZM45.2264 263.89C46.4264 263.89 47.3197 263.493 47.9064 262.7C48.4931 261.9 48.7864 260.863 48.7864 259.59C48.7864 258.283 48.4897 257.243 47.8964 256.47C47.3097 255.697 46.4197 255.31 45.2264 255.31C44.4197 255.31 43.7531 255.493 43.2264 255.86C42.7064 256.22 42.3164 256.723 42.0564 257.37C41.8031 258.01 41.6764 258.75 41.6764 259.59C41.6764 260.89 41.9764 261.933 42.5764 262.72C43.1764 263.5 44.0597 263.89 45.2264 263.89ZM55.2284 265V255.56H51.3984V254.2H60.5284V255.56H56.6984V265H55.2284ZM67.2852 265.3C66.2918 265.3 65.4518 265.05 64.7652 264.55C64.0785 264.043 63.5585 263.36 63.2052 262.5C62.8518 261.633 62.6752 260.663 62.6752 259.59C62.6752 258.497 62.8518 257.523 63.2052 256.67C63.5652 255.81 64.0918 255.133 64.7852 254.64C65.4785 254.147 66.3318 253.9 67.3452 253.9C68.3318 253.9 69.1785 254.15 69.8852 254.65C70.5918 255.15 71.1318 255.83 71.5052 256.69C71.8852 257.55 72.0752 258.517 72.0752 259.59C72.0752 260.67 71.8852 261.64 71.5052 262.5C71.1252 263.36 70.5785 264.043 69.8652 264.55C69.1518 265.05 68.2918 265.3 67.2852 265.3ZM62.4252 269.8V254.2H63.7452V262.33H63.9052V269.8H62.4252ZM67.1352 263.93C67.8885 263.93 68.5152 263.74 69.0152 263.36C69.5152 262.98 69.8885 262.463 70.1352 261.81C70.3885 261.15 70.5152 260.41 70.5152 259.59C70.5152 258.777 70.3918 258.043 70.1452 257.39C69.8985 256.737 69.5218 256.22 69.0152 255.84C68.5152 255.46 67.8785 255.27 67.1052 255.27C66.3518 255.27 65.7252 255.453 65.2252 255.82C64.7318 256.187 64.3618 256.697 64.1152 257.35C63.8685 257.997 63.7452 258.743 63.7452 259.59C63.7452 260.423 63.8685 261.17 64.1152 261.83C64.3618 262.483 64.7352 262.997 65.2352 263.37C65.7352 263.743 66.3685 263.93 67.1352 263.93ZM75.4205 269.8L77.5105 264.13L77.5405 265.81L72.8105 254.2H74.3705L78.2505 263.91H77.6105L81.1905 254.2H82.6905L76.8905 269.8H75.4205ZM83.2367 267.4V263.74C83.8501 263.74 84.2901 263.543 84.5567 263.15C84.8234 262.75 85.0401 262.113 85.2067 261.24C85.3201 260.673 85.4134 260.063 85.4867 259.41C85.5601 258.757 85.6234 258.01 85.6767 257.17C85.7301 256.323 85.7801 255.333 85.8267 254.2H92.9667V263.74H94.0067V267.4H92.5867V265H84.6467V267.4H83.2367ZM85.7267 263.74H91.5067V255.46H87.1867C87.1667 255.967 87.1367 256.503 87.0967 257.07C87.0634 257.637 87.0201 258.203 86.9667 258.77C86.9201 259.337 86.8634 259.87 86.7967 260.37C86.7367 260.863 86.6634 261.297 86.5767 261.67C86.4767 262.15 86.3667 262.56 86.2467 262.9C86.1334 263.24 85.9601 263.52 85.7267 263.74ZM95.9994 265V254.2H97.4694V258.89H103.559V254.2H105.029V265H103.559V260.3H97.4694V265H95.9994ZM116.406 254.2V265H114.976V256.59L109.056 265H107.816V254.2H109.246V262.54L115.176 254.2H116.406ZM119.203 265L119.213 254.2H120.693V259.4L125.513 254.2H127.473L122.413 259.6L128.133 265H125.993L120.693 259.8V265H119.203ZM137.714 254.2V265H136.284V256.59L130.364 265H129.124V254.2H130.554V262.54L136.484 254.2H137.714Z" fill="#344351"/>
<circle cx="205" cy="258" r="29.5" fill="white" stroke="#344351"/>
<ellipse cx="205" cy="250.5" rx="7" ry="7.5" fill="#F88C28"/>
<path d="M216.678 272H193.322C192.659 272 192.182 271.367 192.411 270.745C193.968 266.535 198.053 260 205 260C211.947 260 216.032 266.535 217.589 270.745C217.818 271.367 217.341 272 216.678 272Z" fill="#F88C28" stroke="#F88C28"/>
<circle cx="250" cy="258" r="29.5" fill="white" stroke="#344351"/>
<ellipse cx="250" cy="250.5" rx="7" ry="7.5" fill="#F88C28"/>
<path d="M261.678 272H238.322C237.659 272 237.182 271.367 237.411 270.745C238.968 266.535 243.053 260 250 260C256.947 260 261.032 266.535 262.589 270.745C262.818 271.367 262.341 272 261.678 272Z" fill="#F88C28" stroke="#F88C28"/>
<circle cx="295" cy="258" r="29.5" fill="white" stroke="#344351"/>
<ellipse cx="295" cy="250.5" rx="7" ry="7.5" fill="#F88C28"/>
<path d="M306.678 272H283.322C282.659 272 282.182 271.367 282.411 270.745C283.968 266.535 288.053 260 295 260C301.947 260 306.032 266.535 307.589 270.745C307.818 271.367 307.341 272 306.678 272Z" fill="#F88C28" stroke="#F88C28"/>
<rect x="0.5" y="208.5" width="349" height="99" rx="3.5" stroke="#344351"/>
<rect x="0.5" y="125.5" width="349" height="57" rx="3.5" fill="white" stroke="#344351"/>
<path d="M62.4566 161V146.6H63.8066L69.4666 158.71L75.0966 146.6H76.4666V160.99H75.0666V149.88L69.9366 161H68.9866L63.8666 149.88V161H62.4566ZM79.263 161V150.2H80.733V154.89H86.823V150.2H88.293V161H86.823V156.3H80.733V161H79.263ZM95.5995 161.3C94.5261 161.3 93.6095 161.057 92.8495 160.57C92.0895 160.083 91.5061 159.41 91.0995 158.55C90.6928 157.69 90.4895 156.703 90.4895 155.59C90.4895 154.457 90.6961 153.463 91.1095 152.61C91.5228 151.757 92.1095 151.093 92.8695 150.62C93.6361 150.14 94.5461 149.9 95.5995 149.9C96.6795 149.9 97.5995 150.143 98.3595 150.63C99.1261 151.11 99.7095 151.78 100.109 152.64C100.516 153.493 100.719 154.477 100.719 155.59C100.719 156.723 100.516 157.72 100.109 158.58C99.7028 159.433 99.1161 160.1 98.3495 160.58C97.5828 161.06 96.6661 161.3 95.5995 161.3ZM95.5995 159.89C96.7995 159.89 97.6928 159.493 98.2795 158.7C98.8661 157.9 99.1595 156.863 99.1595 155.59C99.1595 154.283 98.8628 153.243 98.2695 152.47C97.6828 151.697 96.7928 151.31 95.5995 151.31C94.7928 151.31 94.1261 151.493 93.5995 151.86C93.0795 152.22 92.6895 152.723 92.4295 153.37C92.1761 154.01 92.0495 154.75 92.0495 155.59C92.0495 156.89 92.3495 157.933 92.9495 158.72C93.5495 159.5 94.4328 159.89 95.5995 159.89ZM102.925 161V150.2H110.325V151.61H104.395V161H102.925ZM116.537 161.3C115.464 161.3 114.547 161.057 113.787 160.57C113.027 160.083 112.444 159.41 112.037 158.55C111.63 157.69 111.427 156.703 111.427 155.59C111.427 154.457 111.634 153.463 112.047 152.61C112.46 151.757 113.047 151.093 113.807 150.62C114.574 150.14 115.484 149.9 116.537 149.9C117.617 149.9 118.537 150.143 119.297 150.63C120.064 151.11 120.647 151.78 121.047 152.64C121.454 153.493 121.657 154.477 121.657 155.59C121.657 156.723 121.454 157.72 121.047 158.58C120.64 159.433 120.054 160.1 119.287 160.58C118.52 161.06 117.604 161.3 116.537 161.3ZM116.537 159.89C117.737 159.89 118.63 159.493 119.217 158.7C119.804 157.9 120.097 156.863 120.097 155.59C120.097 154.283 119.8 153.243 119.207 152.47C118.62 151.697 117.73 151.31 116.537 151.31C115.73 151.31 115.064 151.493 114.537 151.86C114.017 152.22 113.627 152.723 113.367 153.37C113.114 154.01 112.987 154.75 112.987 155.59C112.987 156.89 113.287 157.933 113.887 158.72C114.487 159.5 115.37 159.89 116.537 159.89ZM123.853 161L123.863 150.2H125.343V155.4L130.163 150.2H132.123L127.063 155.6L132.783 161H130.643L125.343 155.8V161H123.853ZM136.875 161.3C136.061 161.3 135.378 161.153 134.825 160.86C134.278 160.567 133.868 160.177 133.595 159.69C133.321 159.203 133.185 158.673 133.185 158.1C133.185 157.513 133.301 157.013 133.535 156.6C133.775 156.18 134.098 155.837 134.505 155.57C134.918 155.303 135.395 155.1 135.935 154.96C136.481 154.827 137.085 154.71 137.745 154.61C138.411 154.503 139.061 154.413 139.695 154.34C140.335 154.26 140.895 154.183 141.375 154.11L140.855 154.43C140.875 153.363 140.668 152.573 140.235 152.06C139.801 151.547 139.048 151.29 137.975 151.29C137.235 151.29 136.608 151.457 136.095 151.79C135.588 152.123 135.231 152.65 135.025 153.37L133.595 152.95C133.841 151.983 134.338 151.233 135.085 150.7C135.831 150.167 136.801 149.9 137.995 149.9C138.981 149.9 139.818 150.087 140.505 150.46C141.198 150.827 141.688 151.36 141.975 152.06C142.108 152.373 142.195 152.723 142.235 153.11C142.275 153.497 142.295 153.89 142.295 154.29V161H140.985V158.29L141.365 158.45C140.998 159.377 140.428 160.083 139.655 160.57C138.881 161.057 137.955 161.3 136.875 161.3ZM137.045 160.03C137.731 160.03 138.331 159.907 138.845 159.66C139.358 159.413 139.771 159.077 140.085 158.65C140.398 158.217 140.601 157.73 140.695 157.19C140.775 156.843 140.818 156.463 140.825 156.05C140.831 155.63 140.835 155.317 140.835 155.11L141.395 155.4C140.895 155.467 140.351 155.533 139.765 155.6C139.185 155.667 138.611 155.743 138.045 155.83C137.485 155.917 136.978 156.02 136.525 156.14C136.218 156.227 135.921 156.35 135.635 156.51C135.348 156.663 135.111 156.87 134.925 157.13C134.745 157.39 134.655 157.713 134.655 158.1C134.655 158.413 134.731 158.717 134.885 159.01C135.045 159.303 135.298 159.547 135.645 159.74C135.998 159.933 136.465 160.03 137.045 160.03ZM144.888 161V150.2H146.358V154.89H152.448V150.2H153.918V161H152.448V156.3H146.358V161H144.888ZM159.804 161.3C158.991 161.3 158.308 161.153 157.754 160.86C157.208 160.567 156.798 160.177 156.524 159.69C156.251 159.203 156.114 158.673 156.114 158.1C156.114 157.513 156.231 157.013 156.464 156.6C156.704 156.18 157.028 155.837 157.434 155.57C157.848 155.303 158.324 155.1 158.864 154.96C159.411 154.827 160.014 154.71 160.674 154.61C161.341 154.503 161.991 154.413 162.624 154.34C163.264 154.26 163.824 154.183 164.304 154.11L163.784 154.43C163.804 153.363 163.598 152.573 163.164 152.06C162.731 151.547 161.978 151.29 160.904 151.29C160.164 151.29 159.538 151.457 159.024 151.79C158.518 152.123 158.161 152.65 157.954 153.37L156.524 152.95C156.771 151.983 157.268 151.233 158.014 150.7C158.761 150.167 159.731 149.9 160.924 149.9C161.911 149.9 162.748 150.087 163.434 150.46C164.128 150.827 164.618 151.36 164.904 152.06C165.038 152.373 165.124 152.723 165.164 153.11C165.204 153.497 165.224 153.89 165.224 154.29V161H163.914V158.29L164.294 158.45C163.928 159.377 163.358 160.083 162.584 160.57C161.811 161.057 160.884 161.3 159.804 161.3ZM159.974 160.03C160.661 160.03 161.261 159.907 161.774 159.66C162.288 159.413 162.701 159.077 163.014 158.65C163.328 158.217 163.531 157.73 163.624 157.19C163.704 156.843 163.748 156.463 163.754 156.05C163.761 155.63 163.764 155.317 163.764 155.11L164.324 155.4C163.824 155.467 163.281 155.533 162.694 155.6C162.114 155.667 161.541 155.743 160.974 155.83C160.414 155.917 159.908 156.02 159.454 156.14C159.148 156.227 158.851 156.35 158.564 156.51C158.278 156.663 158.041 156.87 157.854 157.13C157.674 157.39 157.584 157.713 157.584 158.1C157.584 158.413 157.661 158.717 157.814 159.01C157.974 159.303 158.228 159.547 158.574 159.74C158.928 159.933 159.394 160.03 159.974 160.03ZM166.828 161V159.71C167.228 159.783 167.531 159.767 167.738 159.66C167.951 159.547 168.108 159.36 168.208 159.1C168.308 158.833 168.391 158.503 168.458 158.11C168.564 157.457 168.661 156.737 168.748 155.95C168.834 155.163 168.911 154.297 168.978 153.35C169.051 152.397 169.124 151.347 169.198 150.2H176.538V161H175.078V151.61H170.558C170.511 152.317 170.458 153.02 170.398 153.72C170.338 154.42 170.274 155.093 170.208 155.74C170.148 156.38 170.081 156.97 170.008 157.51C169.934 158.05 169.858 158.517 169.778 158.91C169.658 159.503 169.498 159.977 169.298 160.33C169.104 160.683 168.814 160.917 168.428 161.03C168.041 161.143 167.508 161.133 166.828 161ZM179.342 161L179.322 150.2H180.802V154.27H183.332C183.645 154.27 183.952 154.277 184.252 154.29C184.558 154.303 184.828 154.33 185.062 154.37C185.595 154.47 186.068 154.647 186.482 154.9C186.902 155.153 187.228 155.503 187.462 155.95C187.702 156.397 187.822 156.957 187.822 157.63C187.822 158.557 187.582 159.287 187.102 159.82C186.628 160.353 186.028 160.7 185.302 160.86C185.028 160.92 184.732 160.96 184.412 160.98C184.092 160.993 183.775 161 183.462 161H179.342ZM180.802 159.74H183.402C183.628 159.74 183.882 159.733 184.162 159.72C184.442 159.707 184.688 159.67 184.902 159.61C185.255 159.51 185.575 159.31 185.862 159.01C186.155 158.703 186.302 158.243 186.302 157.63C186.302 157.023 186.162 156.567 185.882 156.26C185.602 155.947 185.228 155.74 184.762 155.64C184.555 155.593 184.332 155.563 184.092 155.55C183.852 155.537 183.622 155.53 183.402 155.53H180.802V159.74ZM189.712 161V150.2H191.182V154.89H197.272V150.2H198.742V161H197.272V156.3H191.182V161H189.712ZM201.549 161L201.529 150.2H203.009V154.27H204.889C205.202 154.27 205.509 154.277 205.809 154.29C206.109 154.303 206.379 154.33 206.619 154.37C207.152 154.477 207.625 154.657 208.039 154.91C208.452 155.163 208.779 155.513 209.019 155.96C209.259 156.4 209.379 156.957 209.379 157.63C209.379 158.557 209.139 159.287 208.659 159.82C208.179 160.353 207.575 160.7 206.849 160.86C206.575 160.92 206.279 160.96 205.959 160.98C205.639 160.993 205.325 161 205.019 161H201.549ZM203.009 159.74H204.959C205.179 159.74 205.429 159.733 205.709 159.72C205.989 159.707 206.235 159.67 206.449 159.61C206.809 159.51 207.132 159.31 207.419 159.01C207.712 158.703 207.859 158.243 207.859 157.63C207.859 157.023 207.719 156.567 207.439 156.26C207.159 155.947 206.785 155.74 206.319 155.64C206.105 155.593 205.879 155.563 205.639 155.55C205.405 155.537 205.179 155.53 204.959 155.53H203.009V159.74ZM210.669 161V150.2H212.139V161H210.669ZM219.417 148.92C218.944 148.92 218.51 148.803 218.117 148.57C217.724 148.337 217.41 148.027 217.177 147.64C216.95 147.247 216.837 146.813 216.837 146.34H218.057C218.057 146.713 218.19 147.033 218.457 147.3C218.724 147.567 219.044 147.7 219.417 147.7C219.797 147.7 220.117 147.567 220.377 147.3C220.644 147.033 220.777 146.713 220.777 146.34H221.997C221.997 146.813 221.88 147.247 221.647 147.64C221.42 148.027 221.11 148.337 220.717 148.57C220.324 148.803 219.89 148.92 219.417 148.92ZM223.517 150.2V161H222.087V152.59L216.167 161H214.927V150.2H216.357V158.54L222.287 150.2H223.517ZM230.318 161V150.2H231.788V154.89H237.878V150.2H239.348V161H237.878V156.3H231.788V161H230.318ZM246.654 161.3C245.581 161.3 244.664 161.057 243.904 160.57C243.144 160.083 242.561 159.41 242.154 158.55C241.747 157.69 241.544 156.703 241.544 155.59C241.544 154.457 241.751 153.463 242.164 152.61C242.577 151.757 243.164 151.093 243.924 150.62C244.691 150.14 245.601 149.9 246.654 149.9C247.734 149.9 248.654 150.143 249.414 150.63C250.181 151.11 250.764 151.78 251.164 152.64C251.571 153.493 251.774 154.477 251.774 155.59C251.774 156.723 251.571 157.72 251.164 158.58C250.757 159.433 250.171 160.1 249.404 160.58C248.637 161.06 247.721 161.3 246.654 161.3ZM246.654 159.89C247.854 159.89 248.747 159.493 249.334 158.7C249.921 157.9 250.214 156.863 250.214 155.59C250.214 154.283 249.917 153.243 249.324 152.47C248.737 151.697 247.847 151.31 246.654 151.31C245.847 151.31 245.181 151.493 244.654 151.86C244.134 152.22 243.744 152.723 243.484 153.37C243.231 154.01 243.104 154.75 243.104 155.59C243.104 156.89 243.404 157.933 244.004 158.72C244.604 159.5 245.487 159.89 246.654 159.89ZM253.97 161V150.2H255.28L259.49 159.04L263.71 150.2H265.01V161H263.59V153.34L259.96 161H259.03L255.4 153.34V161H253.97ZM272.378 161.3C271.325 161.3 270.412 161.067 269.638 160.6C268.872 160.133 268.275 159.477 267.848 158.63C267.422 157.783 267.208 156.79 267.208 155.65C267.208 154.47 267.418 153.45 267.838 152.59C268.258 151.73 268.848 151.067 269.608 150.6C270.375 150.133 271.278 149.9 272.318 149.9C273.385 149.9 274.295 150.147 275.048 150.64C275.802 151.127 276.372 151.827 276.758 152.74C277.145 153.653 277.322 154.743 277.288 156.01H275.788V155.49C275.762 154.09 275.458 153.033 274.878 152.32C274.305 151.607 273.465 151.25 272.358 151.25C271.198 151.25 270.308 151.627 269.688 152.38C269.075 153.133 268.768 154.207 268.768 155.6C268.768 156.96 269.075 158.017 269.688 158.77C270.308 159.517 271.185 159.89 272.318 159.89C273.092 159.89 273.765 159.713 274.338 159.36C274.918 159 275.375 158.483 275.708 157.81L277.078 158.34C276.652 159.28 276.022 160.01 275.188 160.53C274.362 161.043 273.425 161.3 272.378 161.3ZM268.248 156.01V154.78H276.498V156.01H268.248ZM284.357 161.3C283.364 161.3 282.524 161.05 281.837 160.55C281.151 160.043 280.631 159.36 280.277 158.5C279.924 157.633 279.747 156.663 279.747 155.59C279.747 154.497 279.924 153.523 280.277 152.67C280.637 151.81 281.164 151.133 281.857 150.64C282.551 150.147 283.404 149.9 284.417 149.9C285.404 149.9 286.251 150.15 286.957 150.65C287.664 151.15 288.204 151.83 288.577 152.69C288.957 153.55 289.147 154.517 289.147 155.59C289.147 156.67 288.957 157.64 288.577 158.5C288.197 159.36 287.651 160.043 286.937 160.55C286.224 161.05 285.364 161.3 284.357 161.3ZM279.497 165.8V150.2H280.817V158.33H280.977V165.8H279.497ZM284.207 159.93C284.961 159.93 285.587 159.74 286.087 159.36C286.587 158.98 286.961 158.463 287.207 157.81C287.461 157.15 287.587 156.41 287.587 155.59C287.587 154.777 287.464 154.043 287.217 153.39C286.971 152.737 286.594 152.22 286.087 151.84C285.587 151.46 284.951 151.27 284.177 151.27C283.424 151.27 282.797 151.453 282.297 151.82C281.804 152.187 281.434 152.697 281.187 153.35C280.941 153.997 280.817 154.743 280.817 155.59C280.817 156.423 280.941 157.17 281.187 157.83C281.434 158.483 281.807 158.997 282.307 159.37C282.807 159.743 283.441 159.93 284.207 159.93Z" fill="#344351"/>
<line x1="175.676" y1="100" x2="175.676" y2="125" stroke="#F88C28" stroke-dasharray="3 3"/>
<path d="M200.029 100L200.029 112.5L175.559 112.5" stroke="#F88C28" stroke-dasharray="3 3"/>
<path d="M150.324 100L150.324 112.5L174.795 112.5" stroke="#F88C28" stroke-dasharray="3 3"/>
<path d="M224.883 100L224.883 112.5L200.412 112.5" stroke="#F88C28" stroke-dasharray="3 3"/>
<path d="M125.471 100L125.471 112.5L149.941 112.5" stroke="#F88C28" stroke-dasharray="3 3"/>
<path d="M249.352 100V100C249.352 106.904 243.755 112.5 236.852 112.5L224.881 112.5" stroke="#F88C28" stroke-dasharray="3 3"/>
<path d="M101 100V100C101 106.904 106.596 112.5 113.5 112.5L125.471 112.5" stroke="#F88C28" stroke-dasharray="3 3"/>
<line y1="-0.5" x2="25" y2="-0.5" transform="matrix(-4.37115e-08 -1 -1 4.37115e-08 175.176 208)" stroke="#F88C28" stroke-dasharray="3 3"/>
<path d="M200.029 208L200.029 195.5L175.559 195.5" stroke="#F88C28" stroke-dasharray="3 3"/>
<path d="M150.324 208L150.324 195.5L174.795 195.5" stroke="#F88C28" stroke-dasharray="3 3"/>
<path d="M224.883 208L224.883 195.5L200.412 195.5" stroke="#F88C28" stroke-dasharray="3 3"/>
<path d="M125.471 208L125.471 195.5L149.941 195.5" stroke="#F88C28" stroke-dasharray="3 3"/>
<path d="M249.352 208V208C249.352 201.096 243.755 195.5 236.852 195.5L224.881 195.5" stroke="#F88C28" stroke-dasharray="3 3"/>
<path d="M101 208V208C101 201.096 106.596 195.5 113.5 195.5L125.471 195.5" stroke="#F88C28" stroke-dasharray="3 3"/>
</svg>
