<svg width="290" height="288" viewBox="0 0 290 288" fill="none" xmlns="http://www.w3.org/2000/svg">
<rect x="0.5" y="0.5" width="289" height="89" rx="3.5" fill="white"/>
<path d="M21.12 51V39.48H22.296V44.92L27.552 39.48H29.056L23.688 45.04L29.496 51H27.96L22.296 45.24V51H21.12ZM29.1794 51V49.968C29.4994 50.0267 29.742 50.0133 29.9074 49.928C30.078 49.8373 30.2034 49.688 30.2834 49.48C30.3634 49.2667 30.43 49.0027 30.4834 48.688C30.5687 48.1653 30.646 47.5893 30.7154 46.96C30.7847 46.3307 30.846 45.6373 30.8994 44.88C30.958 44.1173 31.0167 43.2773 31.0754 42.36H36.9474V51H35.7794V43.488H32.1634C32.126 44.0533 32.0834 44.616 32.0354 45.176C31.9874 45.736 31.9367 46.2747 31.8834 46.792C31.8354 47.304 31.782 47.776 31.7234 48.208C31.6647 48.64 31.6034 49.0133 31.5394 49.328C31.4434 49.8027 31.3154 50.1813 31.1554 50.464C31.0007 50.7467 30.7687 50.9333 30.4594 51.024C30.15 51.1147 29.7234 51.1067 29.1794 51ZM46.0465 42.36V51H44.9025V44.272L40.1665 51H39.1745V42.36H40.3185V49.032L45.0625 42.36H46.0465ZM51.9479 51.24C51.1052 51.24 50.3745 51.0533 49.7559 50.68C49.1425 50.3067 48.6652 49.7813 48.3239 49.104C47.9825 48.4267 47.8119 47.632 47.8119 46.72C47.8119 45.776 47.9799 44.96 48.3159 44.272C48.6519 43.584 49.1239 43.0533 49.7319 42.68C50.3452 42.3067 51.0679 42.12 51.8999 42.12C52.7532 42.12 53.4812 42.3173 54.0839 42.712C54.6865 43.1013 55.1425 43.6613 55.4519 44.392C55.7612 45.1227 55.9025 45.9947 55.8759 47.008H54.6759V46.592C54.6545 45.472 54.4119 44.6267 53.9479 44.056C53.4892 43.4853 52.8172 43.2 51.9319 43.2C51.0039 43.2 50.2919 43.5013 49.7959 44.104C49.3052 44.7067 49.0599 45.5653 49.0599 46.68C49.0599 47.768 49.3052 48.6133 49.7959 49.216C50.2919 49.8133 50.9932 50.112 51.8999 50.112C52.5185 50.112 53.0572 49.9707 53.5159 49.688C53.9799 49.4 54.3452 48.9867 54.6119 48.448L55.7079 48.872C55.3665 49.624 54.8625 50.208 54.1959 50.624C53.5345 51.0347 52.7852 51.24 51.9479 51.24ZM48.6439 47.008V46.024H55.2439V47.008H48.6439ZM57.6433 51V42.36H58.8193V46.112H63.6913V42.36H64.8673V51H63.6913V47.24H58.8193V51H57.6433ZM69.4484 51V43.448H66.3844V42.36H73.6884V43.448H70.6244V51H69.4484ZM75.2218 51L75.2058 42.36H76.3898V45.616H77.8938C78.1444 45.616 78.3898 45.6213 78.6298 45.632C78.8698 45.6427 79.0858 45.664 79.2778 45.696C79.7044 45.7813 80.0831 45.9253 80.4138 46.128C80.7444 46.3307 81.0058 46.6107 81.1978 46.968C81.3898 47.32 81.4858 47.7653 81.4858 48.304C81.4858 49.0453 81.2938 49.6293 80.9098 50.056C80.5258 50.4827 80.0431 50.76 79.4618 50.888C79.2431 50.936 79.0058 50.968 78.7498 50.984C78.4938 50.9947 78.2431 51 77.9978 51H75.2218ZM76.3898 49.992H77.9498C78.1258 49.992 78.3258 49.9867 78.5498 49.976C78.7738 49.9653 78.9711 49.936 79.1418 49.888C79.4298 49.808 79.6884 49.648 79.9178 49.408C80.1524 49.1627 80.2698 48.7947 80.2698 48.304C80.2698 47.8187 80.1578 47.4533 79.9338 47.208C79.7098 46.9573 79.4111 46.792 79.0378 46.712C78.8671 46.6747 78.6858 46.6507 78.4938 46.64C78.3071 46.6293 78.1258 46.624 77.9498 46.624H76.3898V49.992ZM82.5178 51V42.36H83.6938V51H82.5178Z" fill="#344351"/>
<circle cx="170" cy="45" r="24.5" fill="white" stroke="#344351"/>
<ellipse cx="169.999" cy="38.75" rx="5.83333" ry="6.25" fill="#F88C28"/>
<path d="M179.511 56.6666H160.488C159.825 56.6666 159.348 56.0349 159.586 55.416C160.938 51.9044 164.321 46.6666 169.999 46.6666C175.677 46.6666 179.061 51.9044 180.413 55.416C180.651 56.0349 180.174 56.6666 179.511 56.6666Z" fill="#F88C28" stroke="#F88C28"/>
<circle cx="207.5" cy="45" r="24.5" fill="white" stroke="#344351"/>
<ellipse cx="207.499" cy="38.75" rx="5.83333" ry="6.25" fill="#F88C28"/>
<path d="M217.011 56.6666H197.988C197.325 56.6666 196.848 56.0349 197.086 55.416C198.438 51.9044 201.821 46.6666 207.499 46.6666C213.177 46.6666 216.561 51.9044 217.913 55.416C218.151 56.0349 217.674 56.6666 217.011 56.6666Z" fill="#F88C28" stroke="#F88C28"/>
<circle cx="245" cy="45" r="24.5" fill="white" stroke="#344351"/>
<ellipse cx="244.999" cy="38.75" rx="5.83333" ry="6.25" fill="#F88C28"/>
<path d="M254.511 56.6666H235.488C234.825 56.6666 234.348 56.0349 234.586 55.416C235.938 51.9044 239.321 46.6666 244.999 46.6666C250.677 46.6666 254.061 51.9044 255.413 55.416C255.651 56.0349 255.174 56.6666 254.511 56.6666Z" fill="#F88C28" stroke="#F88C28"/>
<rect x="0.5" y="0.5" width="289" height="89" rx="3.5" stroke="#344351"/>
<rect x="0.5" y="198.5" width="289" height="89" rx="3.5" fill="white"/>
<path d="M25.784 249.24C24.6373 249.24 23.6693 248.987 22.88 248.48C22.0907 247.968 21.4933 247.261 21.088 246.36C20.6827 245.459 20.48 244.419 20.48 243.24C20.48 242.061 20.6827 241.021 21.088 240.12C21.4933 239.219 22.0907 238.515 22.88 238.008C23.6693 237.496 24.6373 237.24 25.784 237.24C27.1227 237.24 28.216 237.584 29.064 238.272C29.912 238.955 30.4933 239.872 30.808 241.024L29.608 241.336C29.3627 240.424 28.9227 239.701 28.288 239.168C27.6533 238.635 26.8187 238.368 25.784 238.368C24.8827 238.368 24.1333 238.573 23.536 238.984C22.9387 239.395 22.488 239.968 22.184 240.704C21.8853 241.435 21.7307 242.28 21.72 243.24C21.7147 244.2 21.8613 245.045 22.16 245.776C22.464 246.507 22.9173 247.08 23.52 247.496C24.128 247.907 24.8827 248.112 25.784 248.112C26.8187 248.112 27.6533 247.845 28.288 247.312C28.9227 246.773 29.3627 246.051 29.608 245.144L30.808 245.456C30.4933 246.608 29.912 247.528 29.064 248.216C28.216 248.899 27.1227 249.24 25.784 249.24ZM36.1811 249.24C35.3225 249.24 34.5891 249.045 33.9811 248.656C33.3731 248.267 32.9065 247.728 32.5811 247.04C32.2558 246.352 32.0931 245.563 32.0931 244.672C32.0931 243.765 32.2585 242.971 32.5891 242.288C32.9198 241.605 33.3891 241.075 33.9971 240.696C34.6105 240.312 35.3385 240.12 36.1811 240.12C37.0451 240.12 37.7811 240.315 38.3891 240.704C39.0025 241.088 39.4691 241.624 39.7891 242.312C40.1145 242.995 40.2771 243.781 40.2771 244.672C40.2771 245.579 40.1145 246.376 39.7891 247.064C39.4638 247.747 38.9945 248.28 38.3811 248.664C37.7678 249.048 37.0345 249.24 36.1811 249.24ZM36.1811 248.112C37.1411 248.112 37.8558 247.795 38.3251 247.16C38.7945 246.52 39.0291 245.691 39.0291 244.672C39.0291 243.627 38.7918 242.795 38.3171 242.176C37.8478 241.557 37.1358 241.248 36.1811 241.248C35.5358 241.248 35.0025 241.395 34.5811 241.688C34.1651 241.976 33.8531 242.379 33.6451 242.896C33.4425 243.408 33.3411 244 33.3411 244.672C33.3411 245.712 33.5811 246.547 34.0611 247.176C34.5411 247.8 35.2478 248.112 36.1811 248.112ZM44.1828 249V241.448H41.1188V240.36H48.4228V241.448H45.3588V249H44.1828ZM53.8281 249.24C53.0335 249.24 52.3615 249.04 51.8121 248.64C51.2628 248.235 50.8468 247.688 50.5641 247C50.2815 246.307 50.1401 245.531 50.1401 244.672C50.1401 243.797 50.2815 243.019 50.5641 242.336C50.8521 241.648 51.2735 241.107 51.8281 240.712C52.3828 240.317 53.0655 240.12 53.8761 240.12C54.6655 240.12 55.3428 240.32 55.9081 240.72C56.4735 241.12 56.9055 241.664 57.2041 242.352C57.5081 243.04 57.6601 243.813 57.6601 244.672C57.6601 245.536 57.5081 246.312 57.2041 247C56.9001 247.688 56.4628 248.235 55.8921 248.64C55.3215 249.04 54.6335 249.24 53.8281 249.24ZM49.9401 252.84V240.36H50.9961V246.864H51.1241V252.84H49.9401ZM53.7081 248.144C54.3108 248.144 54.8121 247.992 55.2121 247.688C55.6121 247.384 55.9108 246.971 56.1081 246.448C56.3108 245.92 56.4121 245.328 56.4121 244.672C56.4121 244.021 56.3135 243.435 56.1161 242.912C55.9188 242.389 55.6175 241.976 55.2121 241.672C54.8121 241.368 54.3028 241.216 53.6841 241.216C53.0815 241.216 52.5801 241.363 52.1801 241.656C51.7855 241.949 51.4895 242.357 51.2921 242.88C51.0948 243.397 50.9961 243.995 50.9961 244.672C50.9961 245.339 51.0948 245.936 51.2921 246.464C51.4895 246.987 51.7881 247.397 52.1881 247.696C52.5881 247.995 53.0948 248.144 53.7081 248.144ZM60.3364 252.84L62.0084 248.304L62.0324 249.648L58.2484 240.36H59.4964L62.6004 248.128H62.0884L64.9524 240.36H66.1524L61.5124 252.84H60.3364ZM66.5894 250.92V247.992C67.08 247.992 67.432 247.835 67.6454 247.52C67.8587 247.2 68.032 246.691 68.1654 245.992C68.256 245.539 68.3307 245.051 68.3894 244.528C68.448 244.005 68.4987 243.408 68.5414 242.736C68.584 242.059 68.624 241.267 68.6614 240.36H74.3734V247.992H75.2054V250.92H74.0694V249H67.7174V250.92H66.5894ZM68.5814 247.992H73.2054V241.368H69.7494C69.7334 241.773 69.7094 242.203 69.6774 242.656C69.6507 243.109 69.616 243.563 69.5734 244.016C69.536 244.469 69.4907 244.896 69.4374 245.296C69.3894 245.691 69.3307 246.037 69.2614 246.336C69.1814 246.72 69.0934 247.048 68.9974 247.32C68.9067 247.592 68.768 247.816 68.5814 247.992ZM76.7995 249V240.36H77.9755V244.112H82.8475V240.36H84.0235V249H82.8475V245.24H77.9755V249H76.7995ZM93.1246 240.36V249H91.9806V242.272L87.2446 249H86.2526V240.36H87.3966V247.032L92.1406 240.36H93.1246ZM95.362 249L95.37 240.36H96.554V244.52L100.41 240.36H101.978L97.93 244.68L102.506 249H100.794L96.554 244.84V249H95.362ZM110.172 240.36V249H109.028V242.272L104.292 249H103.3V240.36H104.444V247.032L109.188 240.36H110.172Z" fill="#344351"/>
<circle cx="170" cy="243" r="24.5" fill="white" stroke="#344351"/>
<ellipse cx="169.999" cy="236.75" rx="5.83333" ry="6.25" fill="#F88C28"/>
<path d="M179.511 254.667H160.488C159.825 254.667 159.348 254.035 159.586 253.416C160.938 249.904 164.321 244.667 169.999 244.667C175.677 244.667 179.061 249.904 180.413 253.416C180.651 254.035 180.174 254.667 179.511 254.667Z" fill="#F88C28" stroke="#F88C28"/>
<circle cx="207.5" cy="243" r="24.5" fill="white" stroke="#344351"/>
<ellipse cx="207.499" cy="236.75" rx="5.83333" ry="6.25" fill="#F88C28"/>
<path d="M217.011 254.667H197.988C197.325 254.667 196.848 254.035 197.086 253.416C198.438 249.904 201.821 244.667 207.499 244.667C213.177 244.667 216.561 249.904 217.913 253.416C218.151 254.035 217.674 254.667 217.011 254.667Z" fill="#F88C28" stroke="#F88C28"/>
<circle cx="245" cy="243" r="24.5" fill="white" stroke="#344351"/>
<ellipse cx="244.999" cy="236.75" rx="5.83333" ry="6.25" fill="#F88C28"/>
<path d="M254.511 254.667H235.488C234.825 254.667 234.348 254.035 234.586 253.416C235.938 249.904 239.321 244.667 244.999 244.667C250.677 244.667 254.061 249.904 255.413 253.416C255.651 254.035 255.174 254.667 254.511 254.667Z" fill="#F88C28" stroke="#F88C28"/>
<rect x="0.5" y="198.5" width="289" height="89" rx="3.5" stroke="#344351"/>
<rect x="0.5" y="115.5" width="289" height="57" rx="3.5" fill="white" stroke="#344351"/>
<path d="M54.5653 150V138.48H55.6453L60.1733 148.168L64.6773 138.48H65.7733V149.992H64.6533V141.104L60.5493 150H59.7893L55.6933 141.104V150H54.5653ZM68.0104 150V141.36H69.1864V145.112H74.0584V141.36H75.2344V150H74.0584V146.24H69.1864V150H68.0104ZM81.0796 150.24C80.2209 150.24 79.4876 150.045 78.8796 149.656C78.2716 149.267 77.8049 148.728 77.4796 148.04C77.1542 147.352 76.9916 146.563 76.9916 145.672C76.9916 144.765 77.1569 143.971 77.4876 143.288C77.8182 142.605 78.2876 142.075 78.8956 141.696C79.5089 141.312 80.2369 141.12 81.0796 141.12C81.9436 141.12 82.6796 141.315 83.2876 141.704C83.9009 142.088 84.3676 142.624 84.6876 143.312C85.0129 143.995 85.1756 144.781 85.1756 145.672C85.1756 146.579 85.0129 147.376 84.6876 148.064C84.3622 148.747 83.8929 149.28 83.2796 149.664C82.6662 150.048 81.9329 150.24 81.0796 150.24ZM81.0796 149.112C82.0396 149.112 82.7542 148.795 83.2236 148.16C83.6929 147.52 83.9276 146.691 83.9276 145.672C83.9276 144.627 83.6902 143.795 83.2156 143.176C82.7462 142.557 82.0342 142.248 81.0796 142.248C80.4342 142.248 79.9009 142.395 79.4796 142.688C79.0636 142.976 78.7516 143.379 78.5436 143.896C78.3409 144.408 78.2396 145 78.2396 145.672C78.2396 146.712 78.4796 147.547 78.9596 148.176C79.4396 148.8 80.1462 149.112 81.0796 149.112ZM86.9403 150V141.36H92.8603V142.488H88.1163V150H86.9403ZM97.8296 150.24C96.9709 150.24 96.2376 150.045 95.6296 149.656C95.0216 149.267 94.5549 148.728 94.2296 148.04C93.9042 147.352 93.7416 146.563 93.7416 145.672C93.7416 144.765 93.9069 143.971 94.2376 143.288C94.5682 142.605 95.0376 142.075 95.6456 141.696C96.2589 141.312 96.9869 141.12 97.8296 141.12C98.6936 141.12 99.4296 141.315 100.038 141.704C100.651 142.088 101.118 142.624 101.438 143.312C101.763 143.995 101.926 144.781 101.926 145.672C101.926 146.579 101.763 147.376 101.438 148.064C101.112 148.747 100.643 149.28 100.03 149.664C99.4162 150.048 98.6829 150.24 97.8296 150.24ZM97.8296 149.112C98.7896 149.112 99.5042 148.795 99.9736 148.16C100.443 147.52 100.678 146.691 100.678 145.672C100.678 144.627 100.44 143.795 99.9656 143.176C99.4962 142.557 98.7842 142.248 97.8296 142.248C97.1842 142.248 96.6509 142.395 96.2296 142.688C95.8136 142.976 95.5016 143.379 95.2936 143.896C95.0909 144.408 94.9896 145 94.9896 145.672C94.9896 146.712 95.2296 147.547 95.7096 148.176C96.1896 148.8 96.8962 149.112 97.8296 149.112ZM103.682 150L103.69 141.36H104.874V145.52L108.73 141.36H110.298L106.25 145.68L110.826 150H109.114L104.874 145.84V150H103.682ZM114.1 150.24C113.449 150.24 112.902 150.123 112.46 149.888C112.022 149.653 111.694 149.341 111.476 148.952C111.257 148.563 111.148 148.139 111.148 147.68C111.148 147.211 111.241 146.811 111.428 146.48C111.62 146.144 111.878 145.869 112.204 145.656C112.534 145.443 112.916 145.28 113.348 145.168C113.785 145.061 114.268 144.968 114.796 144.888C115.329 144.803 115.849 144.731 116.356 144.672C116.868 144.608 117.316 144.547 117.7 144.488L117.284 144.744C117.3 143.891 117.134 143.259 116.788 142.848C116.441 142.437 115.838 142.232 114.98 142.232C114.388 142.232 113.886 142.365 113.476 142.632C113.07 142.899 112.785 143.32 112.62 143.896L111.476 143.56C111.673 142.787 112.07 142.187 112.668 141.76C113.265 141.333 114.041 141.12 114.996 141.12C115.785 141.12 116.454 141.269 117.004 141.568C117.558 141.861 117.95 142.288 118.18 142.848C118.286 143.099 118.356 143.379 118.388 143.688C118.42 143.997 118.436 144.312 118.436 144.632V150H117.388V147.832L117.692 147.96C117.398 148.701 116.942 149.267 116.324 149.656C115.705 150.045 114.964 150.24 114.1 150.24ZM114.236 149.224C114.785 149.224 115.265 149.125 115.676 148.928C116.086 148.731 116.417 148.461 116.668 148.12C116.918 147.773 117.081 147.384 117.156 146.952C117.22 146.675 117.254 146.371 117.26 146.04C117.265 145.704 117.268 145.453 117.268 145.288L117.716 145.52C117.316 145.573 116.881 145.627 116.412 145.68C115.948 145.733 115.489 145.795 115.036 145.864C114.588 145.933 114.182 146.016 113.82 146.112C113.574 146.181 113.337 146.28 113.108 146.408C112.878 146.531 112.689 146.696 112.54 146.904C112.396 147.112 112.324 147.371 112.324 147.68C112.324 147.931 112.385 148.173 112.508 148.408C112.636 148.643 112.838 148.837 113.116 148.992C113.398 149.147 113.772 149.224 114.236 149.224ZM120.51 150V141.36H121.686V145.112H126.558V141.36H127.734V150H126.558V146.24H121.686V150H120.51ZM132.444 150.24C131.793 150.24 131.246 150.123 130.804 149.888C130.366 149.653 130.038 149.341 129.82 148.952C129.601 148.563 129.492 148.139 129.492 147.68C129.492 147.211 129.585 146.811 129.772 146.48C129.964 146.144 130.222 145.869 130.548 145.656C130.878 145.443 131.26 145.28 131.692 145.168C132.129 145.061 132.612 144.968 133.14 144.888C133.673 144.803 134.193 144.731 134.7 144.672C135.212 144.608 135.66 144.547 136.044 144.488L135.628 144.744C135.644 143.891 135.478 143.259 135.132 142.848C134.785 142.437 134.182 142.232 133.324 142.232C132.732 142.232 132.23 142.365 131.82 142.632C131.414 142.899 131.129 143.32 130.964 143.896L129.82 143.56C130.017 142.787 130.414 142.187 131.012 141.76C131.609 141.333 132.385 141.12 133.34 141.12C134.129 141.12 134.798 141.269 135.348 141.568C135.902 141.861 136.294 142.288 136.524 142.848C136.63 143.099 136.7 143.379 136.732 143.688C136.764 143.997 136.78 144.312 136.78 144.632V150H135.732V147.832L136.036 147.96C135.742 148.701 135.286 149.267 134.668 149.656C134.049 150.045 133.308 150.24 132.444 150.24ZM132.58 149.224C133.129 149.224 133.609 149.125 134.02 148.928C134.43 148.731 134.761 148.461 135.012 148.12C135.262 147.773 135.425 147.384 135.5 146.952C135.564 146.675 135.598 146.371 135.604 146.04C135.609 145.704 135.612 145.453 135.612 145.288L136.06 145.52C135.66 145.573 135.225 145.627 134.756 145.68C134.292 145.733 133.833 145.795 133.38 145.864C132.932 145.933 132.526 146.016 132.164 146.112C131.918 146.181 131.681 146.28 131.452 146.408C131.222 146.531 131.033 146.696 130.884 146.904C130.74 147.112 130.668 147.371 130.668 147.68C130.668 147.931 130.729 148.173 130.852 148.408C130.98 148.643 131.182 148.837 131.46 148.992C131.742 149.147 132.116 149.224 132.58 149.224ZM138.062 150V148.968C138.382 149.027 138.625 149.013 138.79 148.928C138.961 148.837 139.086 148.688 139.166 148.48C139.246 148.267 139.313 148.003 139.366 147.688C139.452 147.165 139.529 146.589 139.598 145.96C139.668 145.331 139.729 144.637 139.782 143.88C139.841 143.117 139.9 142.277 139.958 141.36H145.83V150H144.662V142.488H141.046C141.009 143.053 140.966 143.616 140.918 144.176C140.87 144.736 140.82 145.275 140.766 145.792C140.718 146.304 140.665 146.776 140.606 147.208C140.548 147.64 140.486 148.013 140.422 148.328C140.326 148.803 140.198 149.181 140.038 149.464C139.884 149.747 139.652 149.933 139.342 150.024C139.033 150.115 138.606 150.107 138.062 150ZM148.073 150L148.057 141.36H149.241V144.616H151.265C151.516 144.616 151.761 144.621 152.001 144.632C152.247 144.643 152.463 144.664 152.649 144.696C153.076 144.776 153.455 144.917 153.785 145.12C154.121 145.323 154.383 145.603 154.569 145.96C154.761 146.317 154.857 146.765 154.857 147.304C154.857 148.045 154.665 148.629 154.281 149.056C153.903 149.483 153.423 149.76 152.841 149.888C152.623 149.936 152.385 149.968 152.129 149.984C151.873 149.995 151.62 150 151.369 150H148.073ZM149.241 148.992H151.321C151.503 148.992 151.705 148.987 151.929 148.976C152.153 148.965 152.351 148.936 152.521 148.888C152.804 148.808 153.06 148.648 153.289 148.408C153.524 148.163 153.641 147.795 153.641 147.304C153.641 146.819 153.529 146.453 153.305 146.208C153.081 145.957 152.783 145.792 152.409 145.712C152.244 145.675 152.065 145.651 151.873 145.64C151.681 145.629 151.497 145.624 151.321 145.624H149.241V148.992ZM156.37 150V141.36H157.546V145.112H162.418V141.36H163.594V150H162.418V146.24H157.546V150H156.37ZM165.839 150L165.823 141.36H167.007V144.616H168.511C168.762 144.616 169.007 144.621 169.247 144.632C169.487 144.643 169.703 144.664 169.895 144.696C170.322 144.781 170.7 144.925 171.031 145.128C171.362 145.331 171.623 145.611 171.815 145.968C172.007 146.32 172.103 146.765 172.103 147.304C172.103 148.045 171.911 148.629 171.527 149.056C171.143 149.483 170.66 149.76 170.079 149.888C169.86 149.936 169.623 149.968 169.367 149.984C169.111 149.995 168.86 150 168.615 150H165.839ZM167.007 148.992H168.567C168.743 148.992 168.943 148.987 169.167 148.976C169.391 148.965 169.588 148.936 169.759 148.888C170.047 148.808 170.306 148.648 170.535 148.408C170.77 148.163 170.887 147.795 170.887 147.304C170.887 146.819 170.775 146.453 170.551 146.208C170.327 145.957 170.028 145.792 169.655 145.712C169.484 145.675 169.303 145.651 169.111 145.64C168.924 145.629 168.743 145.624 168.567 145.624H167.007V148.992ZM173.135 150V141.36H174.311V150H173.135ZM180.134 140.336C179.755 140.336 179.408 140.243 179.094 140.056C178.779 139.869 178.528 139.621 178.342 139.312C178.16 138.997 178.07 138.651 178.07 138.272H179.046C179.046 138.571 179.152 138.827 179.366 139.04C179.579 139.253 179.835 139.36 180.134 139.36C180.438 139.36 180.694 139.253 180.902 139.04C181.115 138.827 181.222 138.571 181.222 138.272H182.198C182.198 138.651 182.104 138.997 181.918 139.312C181.736 139.621 181.488 139.869 181.174 140.056C180.859 140.243 180.512 140.336 180.134 140.336ZM183.414 141.36V150H182.27V143.272L177.534 150H176.542V141.36H177.686V148.032L182.43 141.36H183.414ZM188.854 150V141.36H190.03V145.112H194.902V141.36H196.078V150H194.902V146.24H190.03V150H188.854ZM201.923 150.24C201.065 150.24 200.331 150.045 199.723 149.656C199.115 149.267 198.649 148.728 198.323 148.04C197.998 147.352 197.835 146.563 197.835 145.672C197.835 144.765 198.001 143.971 198.331 143.288C198.662 142.605 199.131 142.075 199.739 141.696C200.353 141.312 201.081 141.12 201.923 141.12C202.787 141.12 203.523 141.315 204.131 141.704C204.745 142.088 205.211 142.624 205.531 143.312C205.857 143.995 206.019 144.781 206.019 145.672C206.019 146.579 205.857 147.376 205.531 148.064C205.206 148.747 204.737 149.28 204.123 149.664C203.51 150.048 202.777 150.24 201.923 150.24ZM201.923 149.112C202.883 149.112 203.598 148.795 204.067 148.16C204.537 147.52 204.771 146.691 204.771 145.672C204.771 144.627 204.534 143.795 204.059 143.176C203.59 142.557 202.878 142.248 201.923 142.248C201.278 142.248 200.745 142.395 200.323 142.688C199.907 142.976 199.595 143.379 199.387 143.896C199.185 144.408 199.083 145 199.083 145.672C199.083 146.712 199.323 147.547 199.803 148.176C200.283 148.8 200.99 149.112 201.923 149.112ZM207.776 150V141.36H208.824L212.192 148.432L215.568 141.36H216.608V150H215.472V143.872L212.568 150H211.824L208.92 143.872V150H207.776ZM222.503 150.24C221.66 150.24 220.929 150.053 220.311 149.68C219.697 149.307 219.22 148.781 218.879 148.104C218.537 147.427 218.367 146.632 218.367 145.72C218.367 144.776 218.535 143.96 218.871 143.272C219.207 142.584 219.679 142.053 220.287 141.68C220.9 141.307 221.623 141.12 222.455 141.12C223.308 141.12 224.036 141.317 224.639 141.712C225.241 142.101 225.697 142.661 226.007 143.392C226.316 144.123 226.457 144.995 226.431 146.008H225.231V145.592C225.209 144.472 224.967 143.627 224.503 143.056C224.044 142.485 223.372 142.2 222.487 142.2C221.559 142.2 220.847 142.501 220.351 143.104C219.86 143.707 219.615 144.565 219.615 145.68C219.615 146.768 219.86 147.613 220.351 148.216C220.847 148.813 221.548 149.112 222.455 149.112C223.073 149.112 223.612 148.971 224.071 148.688C224.535 148.4 224.9 147.987 225.167 147.448L226.263 147.872C225.921 148.624 225.417 149.208 224.751 149.624C224.089 150.035 223.34 150.24 222.503 150.24ZM219.199 146.008V145.024H225.799V146.008H219.199ZM232.086 150.24C231.291 150.24 230.619 150.04 230.07 149.64C229.521 149.235 229.105 148.688 228.822 148C228.539 147.307 228.398 146.531 228.398 145.672C228.398 144.797 228.539 144.019 228.822 143.336C229.11 142.648 229.531 142.107 230.086 141.712C230.641 141.317 231.323 141.12 232.134 141.12C232.923 141.12 233.601 141.32 234.166 141.72C234.731 142.12 235.163 142.664 235.462 143.352C235.766 144.04 235.918 144.813 235.918 145.672C235.918 146.536 235.766 147.312 235.462 148C235.158 148.688 234.721 149.235 234.15 149.64C233.579 150.04 232.891 150.24 232.086 150.24ZM228.198 153.84V141.36H229.254V147.864H229.382V153.84H228.198ZM231.966 149.144C232.569 149.144 233.07 148.992 233.47 148.688C233.87 148.384 234.169 147.971 234.366 147.448C234.569 146.92 234.67 146.328 234.67 145.672C234.67 145.021 234.571 144.435 234.374 143.912C234.177 143.389 233.875 142.976 233.47 142.672C233.07 142.368 232.561 142.216 231.942 142.216C231.339 142.216 230.838 142.363 230.438 142.656C230.043 142.949 229.747 143.357 229.55 143.88C229.353 144.397 229.254 144.995 229.254 145.672C229.254 146.339 229.353 146.936 229.55 147.464C229.747 147.987 230.046 148.397 230.446 148.696C230.846 148.995 231.353 149.144 231.966 149.144Z" fill="#344351"/>
<line x1="145.676" y1="90" x2="145.676" y2="115" stroke="#F88C28" stroke-dasharray="3 3"/>
<path d="M170.029 90L170.029 102.5L145.559 102.5" stroke="#F88C28" stroke-dasharray="3 3"/>
<path d="M120.324 90L120.324 102.5L144.795 102.5" stroke="#F88C28" stroke-dasharray="3 3"/>
<path d="M194.883 90L194.883 102.5L170.412 102.5" stroke="#F88C28" stroke-dasharray="3 3"/>
<path d="M95.4707 90L95.4707 102.5L119.941 102.5" stroke="#F88C28" stroke-dasharray="3 3"/>
<path d="M219.352 90V90C219.352 96.9036 213.755 102.5 206.852 102.5L194.881 102.5" stroke="#F88C28" stroke-dasharray="3 3"/>
<path d="M71 90V90C71 96.9036 76.5964 102.5 83.5 102.5L95.4706 102.5" stroke="#F88C28" stroke-dasharray="3 3"/>
<line y1="-0.5" x2="25" y2="-0.5" transform="matrix(-4.37115e-08 -1 -1 4.37115e-08 145.176 198)" stroke="#F88C28" stroke-dasharray="3 3"/>
<path d="M170.029 198L170.029 185.5L145.559 185.5" stroke="#F88C28" stroke-dasharray="3 3"/>
<path d="M120.324 198L120.324 185.5L144.795 185.5" stroke="#F88C28" stroke-dasharray="3 3"/>
<path d="M194.883 198L194.883 185.5L170.412 185.5" stroke="#F88C28" stroke-dasharray="3 3"/>
<path d="M95.4707 198L95.4707 185.5L119.941 185.5" stroke="#F88C28" stroke-dasharray="3 3"/>
<path d="M219.352 198V198C219.352 191.096 213.755 185.5 206.852 185.5L194.881 185.5" stroke="#F88C28" stroke-dasharray="3 3"/>
<path d="M71 198V198C71 191.096 76.5964 185.5 83.5 185.5L95.4706 185.5" stroke="#F88C28" stroke-dasharray="3 3"/>
</svg>
