<svg width="540" height="124" viewBox="0 0 540 124" fill="none" xmlns="http://www.w3.org/2000/svg">
<rect width="540" height="124" rx="12" fill="white"/>
<rect x="15" y="15" width="510" height="60" rx="4" fill="#F6F7F8"/>
<path d="M190.631 43H26.3689C25.6129 43 25 43.5095 25 44.1379V63.8621C25 64.4905 25.6129 65 26.3689 65H190.631C191.387 65 192 64.4905 192 63.8621V44.1379C192 43.5095 191.387 43 190.631 43Z" fill="white"/>
<path d="M253.623 43H208.377C208.169 43 208 43.5095 208 44.1379V63.8621C208 64.4905 208.169 65 208.377 65H253.623C253.831 65 254 64.4905 254 63.8621V44.1379C254 43.5095 253.831 43 253.623 43Z" fill="white"/>
<path d="M330.377 43H255.623C255.279 43 255 43.5095 255 44.1379V63.8621C255 64.4905 255.279 65 255.623 65H330.377C330.721 65 331 64.4905 331 63.8621V44.1379C331 43.5095 330.721 43 330.377 43Z" fill="white"/>
<path d="M427.213 43H332.787C332.352 43 332 43.5095 332 44.1379V63.8621C332 64.4905 332.352 65 332.787 65H427.213C427.648 65 428 64.4905 428 63.8621V44.1379C428 43.5095 427.648 43 427.213 43Z" fill="white" stroke="#F88C28" stroke-dasharray="3 3"/>
<path d="M321.672 90H282.328C282.147 90 282 90.5095 282 91.1379V110.862C282 111.491 282.147 112 282.328 112H321.672C321.853 112 322 111.491 322 110.862V91.1379C322 90.5095 321.853 90 321.672 90Z" fill="white" stroke="#F88C28" stroke-dasharray="3 3"/>
<path d="M430.402 90H358.598C358.268 90 358 90.5095 358 91.1379V110.862C358 111.491 358.268 112 358.598 112H430.402C430.732 112 431 111.491 431 110.862V91.1379C431 90.5095 430.732 90 430.402 90Z" fill="white" stroke="#F88C28" stroke-dasharray="3 3"/>
<path d="M505.369 43H429.631C429.283 43 429 43.5095 429 44.1379V63.8621C429 64.4905 429.283 65 429.631 65H505.369C505.717 65 506 64.4905 506 63.8621V44.1379C506 43.5095 505.717 43 505.369 43Z" fill="white"/>
<path d="M180.962 56.538C180.535 57.154 179.465 57.154 179.038 56.538L176.151 52.385C175.723 51.769 176.257 51 177.113 51H182.887C183.743 51 184.277 51.769 183.849 52.385L180.962 56.538Z" fill="#2B8FEB"/>
<path d="M25.6992 36V28.8H31.2142V36H30.4792V29.505H26.4342V36H25.6992Z" fill="#5E6B77"/>
<path d="M34.8983 36.15C34.3716 36.15 33.9149 36.0334 33.5283 35.8C33.1449 35.5667 32.8466 35.2384 32.6333 34.815C32.4199 34.3917 32.3133 33.895 32.3133 33.325C32.3133 32.735 32.4183 32.225 32.6283 31.795C32.8383 31.365 33.1333 31.0334 33.5133 30.8C33.8966 30.5667 34.3483 30.45 34.8683 30.45C35.4016 30.45 35.8566 30.5734 36.2333 30.82C36.6099 31.0634 36.8949 31.4134 37.0883 31.87C37.2816 32.3267 37.3699 32.8717 37.3533 33.505H36.6033V33.245C36.5899 32.545 36.4383 32.0167 36.1483 31.66C35.8616 31.3034 35.4416 31.125 34.8883 31.125C34.3083 31.125 33.8633 31.3134 33.5533 31.69C33.2466 32.0667 33.0933 32.6034 33.0933 33.3C33.0933 33.98 33.2466 34.5084 33.5533 34.885C33.8633 35.2584 34.3016 35.445 34.8683 35.445C35.2549 35.445 35.5916 35.3567 35.8783 35.18C36.1683 35 36.3966 34.7417 36.5633 34.405L37.2483 34.67C37.0349 35.14 36.7199 35.505 36.3033 35.765C35.8899 36.0217 35.4216 36.15 34.8983 36.15ZM32.8333 33.505V32.89H36.9583V33.505H32.8333Z" fill="#5E6B77"/>
<path d="M40.8879 36.15C40.3912 36.15 39.9712 36.025 39.6279 35.775C39.2846 35.5217 39.0246 35.18 38.8479 34.75C38.6712 34.3167 38.5829 33.8317 38.5829 33.295C38.5829 32.7484 38.6712 32.2617 38.8479 31.835C39.0279 31.405 39.2912 31.0667 39.6379 30.82C39.9846 30.5734 40.4112 30.45 40.9179 30.45C41.4112 30.45 41.8346 30.575 42.1879 30.825C42.5412 31.075 42.8112 31.415 42.9979 31.845C43.1879 32.275 43.2829 32.7584 43.2829 33.295C43.2829 33.835 43.1879 34.32 42.9979 34.75C42.8079 35.18 42.5346 35.5217 42.1779 35.775C41.8212 36.025 41.3912 36.15 40.8879 36.15ZM38.4579 38.4V30.6H39.1179V34.665H39.1979V38.4H38.4579ZM40.8129 35.465C41.1896 35.465 41.5029 35.37 41.7529 35.18C42.0029 34.99 42.1896 34.7317 42.3129 34.405C42.4396 34.075 42.5029 33.705 42.5029 33.295C42.5029 32.8884 42.4412 32.5217 42.3179 32.195C42.1946 31.8684 42.0062 31.61 41.7529 31.42C41.5029 31.23 41.1846 31.135 40.7979 31.135C40.4212 31.135 40.1079 31.2267 39.8579 31.41C39.6112 31.5934 39.4262 31.8484 39.3029 32.175C39.1796 32.4984 39.1179 32.8717 39.1179 33.295C39.1179 33.7117 39.1796 34.085 39.3029 34.415C39.4262 34.7417 39.6129 34.9984 39.8629 35.185C40.1129 35.3717 40.4296 35.465 40.8129 35.465Z" fill="#5E6B77"/>
<path d="M48.6709 30.6V36H47.9559V31.795L44.9959 36H44.3759V30.6H45.0909V34.77L48.0559 30.6H48.6709Z" fill="#5E6B77"/>
<path d="M52.3292 36.15C51.7926 36.15 51.3342 36.0284 50.9542 35.785C50.5742 35.5417 50.2826 35.205 50.0792 34.775C49.8759 34.345 49.7742 33.8517 49.7742 33.295C49.7742 32.7284 49.8776 32.2317 50.0842 31.805C50.2909 31.3784 50.5842 31.0467 50.9642 30.81C51.3476 30.57 51.8026 30.45 52.3292 30.45C52.8692 30.45 53.3292 30.5717 53.7092 30.815C54.0926 31.055 54.3842 31.39 54.5842 31.82C54.7876 32.2467 54.8892 32.7384 54.8892 33.295C54.8892 33.8617 54.7876 34.36 54.5842 34.79C54.3809 35.2167 54.0876 35.55 53.7042 35.79C53.3209 36.03 52.8626 36.15 52.3292 36.15ZM52.3292 35.445C52.9292 35.445 53.3759 35.2467 53.6692 34.85C53.9626 34.45 54.1092 33.9317 54.1092 33.295C54.1092 32.6417 53.9609 32.1217 53.6642 31.735C53.3709 31.3484 52.9259 31.155 52.3292 31.155C51.9259 31.155 51.5926 31.2467 51.3292 31.43C51.0692 31.61 50.8742 31.8617 50.7442 32.185C50.6176 32.505 50.5542 32.875 50.5542 33.295C50.5542 33.945 50.7042 34.4667 51.0042 34.86C51.3042 35.25 51.7459 35.445 52.3292 35.445Z" fill="#5E6B77"/>
<path d="M55.5922 37.2V35.37C55.8989 35.37 56.1189 35.2717 56.2522 35.075C56.3855 34.875 56.4939 34.5567 56.5772 34.12C56.6339 33.8367 56.6805 33.5317 56.7172 33.205C56.7539 32.8784 56.7855 32.505 56.8122 32.085C56.8389 31.6617 56.8639 31.1667 56.8872 30.6H60.4572V35.37H60.9772V37.2H60.2672V36H56.2972V37.2H55.5922ZM56.8372 35.37H59.7272V31.23H57.5672C57.5572 31.4834 57.5422 31.7517 57.5222 32.035C57.5055 32.3184 57.4839 32.6017 57.4572 32.885C57.4339 33.1684 57.4055 33.435 57.3722 33.685C57.3422 33.9317 57.3055 34.1484 57.2622 34.335C57.2122 34.575 57.1572 34.78 57.0972 34.95C57.0405 35.12 56.9539 35.26 56.8372 35.37Z" fill="#5E6B77"/>
<path d="M210.617 36V29.505H208.102V28.8H213.867V29.505H211.352V36H210.617Z" fill="#5E6B77"/>
<path d="M218.958 30.6V36H218.243V31.795L215.283 36H214.663V30.6H215.378V34.77L218.343 30.6H218.958Z" fill="#5E6B77"/>
<path d="M220.357 36V30.6H224.652V36H223.917V31.305H221.092V36H220.357Z" fill="#5E6B77"/>
<path d="M230.002 36.15C229.459 36.15 228.984 36.0317 228.577 35.795C228.174 35.555 227.855 35.2234 227.622 34.8L228.212 34.425C228.409 34.7584 228.654 35.0117 228.947 35.185C229.24 35.3584 229.577 35.445 229.957 35.445C230.354 35.445 230.672 35.3534 230.912 35.17C231.152 34.9867 231.272 34.735 231.272 34.415C231.272 34.195 231.22 34.02 231.117 33.89C231.017 33.76 230.864 33.6667 230.657 33.61C230.454 33.5534 230.199 33.525 229.892 33.525H229.252V32.895H229.882C230.255 32.895 230.555 32.8284 230.782 32.695C231.012 32.5584 231.127 32.345 231.127 32.055C231.127 31.7484 231.012 31.5217 230.782 31.375C230.555 31.225 230.284 31.15 229.967 31.15C229.647 31.15 229.344 31.2167 229.057 31.35C228.774 31.48 228.535 31.6484 228.342 31.855L227.872 31.36C228.142 31.0634 228.457 30.8384 228.817 30.685C229.18 30.5284 229.582 30.45 230.022 30.45C230.369 30.45 230.682 30.5117 230.962 30.635C231.245 30.755 231.469 30.9317 231.632 31.165C231.799 31.3984 231.882 31.6784 231.882 32.005C231.882 32.3117 231.807 32.5767 231.657 32.8C231.51 33.0234 231.302 33.2084 231.032 33.355L230.992 33.08C231.225 33.1234 231.419 33.2167 231.572 33.36C231.725 33.5034 231.839 33.675 231.912 33.875C231.985 34.075 232.022 34.2784 232.022 34.485C232.022 34.8284 231.932 35.125 231.752 35.375C231.575 35.6217 231.334 35.8134 231.027 35.95C230.724 36.0834 230.382 36.15 230.002 36.15Z" fill="#5E6B77"/>
<path d="M233.12 36V30.6H235.345C235.459 30.6 235.595 30.6067 235.755 30.62C235.919 30.6334 236.07 30.6584 236.21 30.695C236.514 30.775 236.757 30.9384 236.94 31.185C237.127 31.4317 237.22 31.7284 237.22 32.075C237.22 32.2684 237.19 32.4417 237.13 32.595C237.074 32.745 236.992 32.875 236.885 32.985C236.835 33.0417 236.78 33.0917 236.72 33.135C236.66 33.175 236.602 33.2084 236.545 33.235C236.652 33.255 236.767 33.3017 236.89 33.375C237.084 33.4884 237.23 33.6417 237.33 33.835C237.43 34.025 237.48 34.2567 237.48 34.53C237.48 34.9 237.392 35.2017 237.215 35.435C237.039 35.6684 236.802 35.8284 236.505 35.915C236.372 35.9517 236.227 35.975 236.07 35.985C235.917 35.995 235.772 36 235.635 36H233.12ZM233.86 35.375H235.6C235.67 35.375 235.759 35.37 235.865 35.36C235.972 35.3467 236.067 35.33 236.15 35.31C236.347 35.26 236.49 35.16 236.58 35.01C236.674 34.8567 236.72 34.69 236.72 34.51C236.72 34.2734 236.65 34.08 236.51 33.93C236.374 33.7767 236.19 33.6834 235.96 33.65C235.884 33.6334 235.804 33.6234 235.72 33.62C235.637 33.6167 235.562 33.615 235.495 33.615H233.86V35.375ZM233.86 32.985H235.37C235.457 32.985 235.554 32.98 235.66 32.97C235.77 32.9567 235.865 32.935 235.945 32.905C236.119 32.845 236.245 32.7417 236.325 32.595C236.409 32.4484 236.45 32.2884 236.45 32.115C236.45 31.925 236.405 31.7584 236.315 31.615C236.229 31.4717 236.097 31.3717 235.92 31.315C235.8 31.2717 235.67 31.2467 235.53 31.24C235.394 31.2334 235.307 31.23 235.27 31.23H233.86V32.985Z" fill="#5E6B77"/>
<path d="M240.732 36.15C240.195 36.15 239.737 36.0284 239.357 35.785C238.977 35.5417 238.685 35.205 238.482 34.775C238.279 34.345 238.177 33.8517 238.177 33.295C238.177 32.7284 238.28 32.2317 238.487 31.805C238.694 31.3784 238.987 31.0467 239.367 30.81C239.75 30.57 240.205 30.45 240.732 30.45C241.272 30.45 241.732 30.5717 242.112 30.815C242.495 31.055 242.787 31.39 242.987 31.82C243.19 32.2467 243.292 32.7384 243.292 33.295C243.292 33.8617 243.19 34.36 242.987 34.79C242.784 35.2167 242.49 35.55 242.107 35.79C241.724 36.03 241.265 36.15 240.732 36.15ZM240.732 35.445C241.332 35.445 241.779 35.2467 242.072 34.85C242.365 34.45 242.512 33.9317 242.512 33.295C242.512 32.6417 242.364 32.1217 242.067 31.735C241.774 31.3484 241.329 31.155 240.732 31.155C240.329 31.155 239.995 31.2467 239.732 31.43C239.472 31.61 239.277 31.8617 239.147 32.185C239.02 32.505 238.957 32.875 238.957 33.295C238.957 33.945 239.107 34.4667 239.407 34.86C239.707 35.25 240.149 35.445 240.732 35.445Z" fill="#5E6B77"/>
<path d="M244.39 36V30.6H245.125V32.945H248.17V30.6H248.905V36H248.17V33.65H245.125V36H244.39Z" fill="#5E6B77"/>
<path d="M250.298 36L250.303 30.6H251.043V33.2L253.453 30.6H254.433L251.903 33.3L254.763 36H253.693L251.043 33.4V36H250.298Z" fill="#5E6B77"/>
<path d="M256.809 36.15C256.402 36.15 256.061 36.0767 255.784 35.93C255.511 35.7834 255.306 35.5884 255.169 35.345C255.032 35.1017 254.964 34.8367 254.964 34.55C254.964 34.2567 255.022 34.0067 255.139 33.8C255.259 33.59 255.421 33.4184 255.624 33.285C255.831 33.1517 256.069 33.05 256.339 32.98C256.612 32.9134 256.914 32.855 257.244 32.805C257.577 32.7517 257.902 32.7067 258.219 32.67C258.539 32.63 258.819 32.5917 259.059 32.555L258.799 32.715C258.809 32.1817 258.706 31.7867 258.489 31.53C258.272 31.2734 257.896 31.145 257.359 31.145C256.989 31.145 256.676 31.2284 256.419 31.395C256.166 31.5617 255.987 31.825 255.884 32.185L255.169 31.975C255.292 31.4917 255.541 31.1167 255.914 30.85C256.287 30.5834 256.772 30.45 257.369 30.45C257.862 30.45 258.281 30.5434 258.624 30.73C258.971 30.9134 259.216 31.18 259.359 31.53C259.426 31.6867 259.469 31.8617 259.489 32.055C259.509 32.2484 259.519 32.445 259.519 32.645V36H258.864V34.645L259.054 34.725C258.871 35.1884 258.586 35.5417 258.199 35.785C257.812 36.0284 257.349 36.15 256.809 36.15ZM256.894 35.515C257.237 35.515 257.537 35.4534 257.794 35.33C258.051 35.2067 258.257 35.0384 258.414 34.825C258.571 34.6084 258.672 34.365 258.719 34.095C258.759 33.9217 258.781 33.7317 258.784 33.525C258.787 33.315 258.789 33.1584 258.789 33.055L259.069 33.2C258.819 33.2334 258.547 33.2667 258.254 33.3C257.964 33.3334 257.677 33.3717 257.394 33.415C257.114 33.4584 256.861 33.51 256.634 33.57C256.481 33.6134 256.332 33.675 256.189 33.755C256.046 33.8317 255.927 33.935 255.834 34.065C255.744 34.195 255.699 34.3567 255.699 34.55C255.699 34.7067 255.737 34.8584 255.814 35.005C255.894 35.1517 256.021 35.2734 256.194 35.37C256.371 35.4667 256.604 35.515 256.894 35.515Z" fill="#5E6B77"/>
<path d="M31.6992 57V49.8H37.2142V57H36.4792V50.505H32.4342V57H31.6992Z" fill="#344351"/>
<path d="M41.0383 57.15C40.5416 57.15 40.1216 57.025 39.7783 56.775C39.4349 56.5217 39.1749 56.18 38.9983 55.75C38.8216 55.3167 38.7333 54.8317 38.7333 54.295C38.7333 53.7484 38.8216 53.2617 38.9983 52.835C39.1783 52.405 39.4416 52.0667 39.7883 51.82C40.1349 51.5734 40.5616 51.45 41.0683 51.45C41.5616 51.45 41.9849 51.575 42.3383 51.825C42.6916 52.075 42.9616 52.415 43.1483 52.845C43.3383 53.275 43.4333 53.7584 43.4333 54.295C43.4333 54.835 43.3383 55.32 43.1483 55.75C42.9583 56.18 42.6849 56.5217 42.3283 56.775C41.9716 57.025 41.5416 57.15 41.0383 57.15ZM38.6083 59.4V51.6H39.2683V55.665H39.3483V59.4H38.6083ZM40.9633 56.465C41.3399 56.465 41.6533 56.37 41.9033 56.18C42.1533 55.99 42.3399 55.7317 42.4633 55.405C42.5899 55.075 42.6533 54.705 42.6533 54.295C42.6533 53.8884 42.5916 53.5217 42.4683 53.195C42.3449 52.8684 42.1566 52.61 41.9033 52.42C41.6533 52.23 41.3349 52.135 40.9483 52.135C40.5716 52.135 40.2583 52.2267 40.0083 52.41C39.7616 52.5934 39.5766 52.8484 39.4533 53.175C39.3299 53.4984 39.2683 53.8717 39.2683 54.295C39.2683 54.7117 39.3299 55.085 39.4533 55.415C39.5766 55.7417 39.7633 55.9984 40.0133 56.185C40.2633 56.3717 40.5799 56.465 40.9633 56.465Z" fill="#344351"/>
<path d="M46.7863 57.15C46.2496 57.15 45.7913 57.0284 45.4113 56.785C45.0312 56.5417 44.7396 56.205 44.5363 55.775C44.3329 55.345 44.2312 54.8517 44.2312 54.295C44.2312 53.7284 44.3346 53.2317 44.5413 52.805C44.7479 52.3784 45.0413 52.0467 45.4213 51.81C45.8046 51.57 46.2596 51.45 46.7863 51.45C47.3263 51.45 47.7863 51.5717 48.1663 51.815C48.5496 52.055 48.8412 52.39 49.0413 52.82C49.2446 53.2467 49.3463 53.7384 49.3463 54.295C49.3463 54.8617 49.2446 55.36 49.0413 55.79C48.8379 56.2167 48.5446 56.55 48.1613 56.79C47.7779 57.03 47.3196 57.15 46.7863 57.15ZM46.7863 56.445C47.3863 56.445 47.8329 56.2467 48.1262 55.85C48.4196 55.45 48.5662 54.9317 48.5662 54.295C48.5662 53.6417 48.4179 53.1217 48.1213 52.735C47.8279 52.3484 47.3829 52.155 46.7863 52.155C46.3829 52.155 46.0496 52.2467 45.7863 52.43C45.5262 52.61 45.3313 52.8617 45.2013 53.185C45.0746 53.505 45.0113 53.875 45.0113 54.295C45.0113 54.945 45.1613 55.4667 45.4613 55.86C45.7613 56.25 46.2029 56.445 46.7863 56.445Z" fill="#344351"/>
<path d="M50.4442 57V51.6H51.1592V56.32H53.1842V51.6H53.8992V56.32H55.9192V51.6H56.6342V57H50.4442Z" fill="#344351"/>
<path d="M57.5371 57V56.355C57.7371 56.3917 57.8888 56.3834 57.9921 56.33C58.0988 56.2734 58.1771 56.18 58.2271 56.05C58.2771 55.9167 58.3188 55.7517 58.3521 55.555C58.4054 55.2284 58.4538 54.8684 58.4971 54.475C58.5404 54.0817 58.5788 53.6484 58.6121 53.175C58.6488 52.6984 58.6854 52.1734 58.7221 51.6H62.3921V57H61.6621V52.305H59.4021C59.3788 52.6584 59.3521 53.01 59.3221 53.36C59.2921 53.71 59.2604 54.0467 59.2271 54.37C59.1971 54.69 59.1638 54.985 59.1271 55.255C59.0904 55.525 59.0521 55.7584 59.0121 55.955C58.9521 56.2517 58.8721 56.4884 58.7721 56.665C58.6754 56.8417 58.5304 56.9584 58.3371 57.015C58.1438 57.0717 57.8771 57.0667 57.5371 57Z" fill="#344351"/>
<path d="M65.3341 57.15C64.9274 57.15 64.5857 57.0767 64.3091 56.93C64.0357 56.7834 63.8307 56.5884 63.6941 56.345C63.5574 56.1017 63.4891 55.8367 63.4891 55.55C63.4891 55.2567 63.5474 55.0067 63.6641 54.8C63.7841 54.59 63.9457 54.4184 64.1491 54.285C64.3557 54.1517 64.5941 54.05 64.8641 53.98C65.1374 53.9134 65.4391 53.855 65.7691 53.805C66.1024 53.7517 66.4274 53.7067 66.7441 53.67C67.0641 53.63 67.3441 53.5917 67.5841 53.555L67.3241 53.715C67.3341 53.1817 67.2307 52.7867 67.0141 52.53C66.7974 52.2734 66.4207 52.145 65.8841 52.145C65.5141 52.145 65.2007 52.2284 64.9441 52.395C64.6907 52.5617 64.5124 52.825 64.4091 53.185L63.6941 52.975C63.8174 52.4917 64.0657 52.1167 64.4391 51.85C64.8124 51.5834 65.2974 51.45 65.8941 51.45C66.3874 51.45 66.8057 51.5434 67.1491 51.73C67.4957 51.9134 67.7407 52.18 67.8841 52.53C67.9507 52.6867 67.9941 52.8617 68.0141 53.055C68.0341 53.2484 68.0441 53.445 68.0441 53.645V57H67.3891V55.645L67.5791 55.725C67.3957 56.1884 67.1107 56.5417 66.7241 56.785C66.3374 57.0284 65.8741 57.15 65.3341 57.15ZM65.4191 56.515C65.7624 56.515 66.0624 56.4534 66.3191 56.33C66.5757 56.2067 66.7824 56.0384 66.9391 55.825C67.0957 55.6084 67.1974 55.365 67.2441 55.095C67.2841 54.9217 67.3057 54.7317 67.3091 54.525C67.3124 54.315 67.3141 54.1584 67.3141 54.055L67.5941 54.2C67.3441 54.2334 67.0724 54.2667 66.7791 54.3C66.4891 54.3334 66.2024 54.3717 65.9191 54.415C65.6391 54.4584 65.3857 54.51 65.1591 54.57C65.0057 54.6134 64.8574 54.675 64.7141 54.755C64.5707 54.8317 64.4524 54.935 64.3591 55.065C64.2691 55.195 64.2241 55.3567 64.2241 55.55C64.2241 55.7067 64.2624 55.8584 64.3391 56.005C64.4191 56.1517 64.5457 56.2734 64.7191 56.37C64.8957 56.4667 65.1291 56.515 65.4191 56.515Z" fill="#344351"/>
<path d="M72.7307 57V54.965H71.4707C71.324 54.965 71.1724 54.96 71.0157 54.95C70.8624 54.9367 70.719 54.9184 70.5857 54.895C70.2057 54.8217 69.8824 54.655 69.6157 54.395C69.3524 54.1317 69.2207 53.7684 69.2207 53.305C69.2207 52.8517 69.344 52.4884 69.5907 52.215C69.8374 51.9384 70.1357 51.7584 70.4857 51.675C70.6457 51.6384 70.8074 51.6167 70.9707 51.61C71.1374 51.6034 71.2807 51.6 71.4007 51.6H73.4657L73.4707 57H72.7307ZM69.0457 57L70.5507 54.735H71.3657L69.8507 57H69.0457ZM71.4307 54.335H72.7307V52.23H71.4307C71.3507 52.23 71.239 52.2334 71.0957 52.24C70.9524 52.2467 70.8174 52.2684 70.6907 52.305C70.5807 52.3384 70.4707 52.3967 70.3607 52.48C70.254 52.56 70.164 52.6684 70.0907 52.805C70.0174 52.9384 69.9807 53.1017 69.9807 53.295C69.9807 53.565 70.054 53.7817 70.2007 53.945C70.3507 54.105 70.5374 54.215 70.7607 54.275C70.8807 54.3017 71.0007 54.3184 71.1207 54.325C71.2407 54.3317 71.344 54.335 71.4307 54.335Z" fill="#344351"/>
<path d="M76.87 57V51.6H77.605V53.945H80.65V51.6H81.385V57H80.65V54.65H77.605V57H76.87Z" fill="#344351"/>
<path d="M85.0682 57.15C84.5415 57.15 84.0849 57.0334 83.6982 56.8C83.3149 56.5667 83.0165 56.2384 82.8032 55.815C82.5899 55.3917 82.4832 54.895 82.4832 54.325C82.4832 53.735 82.5882 53.225 82.7982 52.795C83.0082 52.365 83.3032 52.0334 83.6832 51.8C84.0665 51.5667 84.5182 51.45 85.0382 51.45C85.5715 51.45 86.0265 51.5734 86.4032 51.82C86.7799 52.0634 87.0649 52.4134 87.2582 52.87C87.4515 53.3267 87.5399 53.8717 87.5232 54.505H86.7732V54.245C86.7599 53.545 86.6082 53.0167 86.3182 52.66C86.0315 52.3034 85.6115 52.125 85.0582 52.125C84.4782 52.125 84.0332 52.3134 83.7232 52.69C83.4165 53.0667 83.2632 53.6034 83.2632 54.3C83.2632 54.98 83.4165 55.5084 83.7232 55.885C84.0332 56.2584 84.4715 56.445 85.0382 56.445C85.4249 56.445 85.7615 56.3567 86.0482 56.18C86.3382 56 86.5665 55.7417 86.7332 55.405L87.4182 55.67C87.2049 56.14 86.8899 56.505 86.4732 56.765C86.0599 57.0217 85.5915 57.15 85.0682 57.15ZM83.0032 54.505V53.89H87.1282V54.505H83.0032Z" fill="#344351"/>
<path d="M88.2328 58.2V56.37C88.5395 56.37 88.7595 56.2717 88.8928 56.075C89.0261 55.875 89.1345 55.5567 89.2178 55.12C89.2745 54.8367 89.3211 54.5317 89.3578 54.205C89.3945 53.8784 89.4261 53.505 89.4528 53.085C89.4795 52.6617 89.5045 52.1667 89.5278 51.6H93.0978V56.37H93.6178V58.2H92.9078V57H88.9378V58.2H88.2328ZM89.4778 56.37H92.3678V52.23H90.2078C90.1978 52.4834 90.1828 52.7517 90.1628 53.035C90.1461 53.3184 90.1245 53.6017 90.0978 53.885C90.0745 54.1684 90.0461 54.435 90.0128 54.685C89.9828 54.9317 89.9461 55.1484 89.9028 55.335C89.8528 55.575 89.7978 55.78 89.7378 55.95C89.6811 56.12 89.5945 56.26 89.4778 56.37Z" fill="#344351"/>
<path d="M96.9041 57.15C96.3775 57.15 95.9208 57.0334 95.5341 56.8C95.1508 56.5667 94.8525 56.2384 94.6391 55.815C94.4258 55.3917 94.3191 54.895 94.3191 54.325C94.3191 53.735 94.4241 53.225 94.6341 52.795C94.8441 52.365 95.1391 52.0334 95.5191 51.8C95.9025 51.5667 96.3541 51.45 96.8741 51.45C97.4075 51.45 97.8625 51.5734 98.2391 51.82C98.6158 52.0634 98.9008 52.4134 99.0941 52.87C99.2875 53.3267 99.3758 53.8717 99.3591 54.505H98.6091V54.245C98.5958 53.545 98.4441 53.0167 98.1541 52.66C97.8675 52.3034 97.4475 52.125 96.8941 52.125C96.3141 52.125 95.8691 52.3134 95.5591 52.69C95.2525 53.0667 95.0991 53.6034 95.0991 54.3C95.0991 54.98 95.2525 55.5084 95.5591 55.885C95.8691 56.2584 96.3075 56.445 96.8741 56.445C97.2608 56.445 97.5975 56.3567 97.8841 56.18C98.1741 56 98.4025 55.7417 98.5691 55.405L99.2541 55.67C99.0408 56.14 98.7258 56.505 98.3091 56.765C97.8958 57.0217 97.4275 57.15 96.9041 57.15ZM94.8391 54.505V53.89H98.9641V54.505H94.8391Z" fill="#344351"/>
<path d="M99.9688 57V56.355C100.169 56.3917 100.32 56.3834 100.424 56.33C100.53 56.2734 100.609 56.18 100.659 56.05C100.709 55.9167 100.75 55.7517 100.784 55.555C100.837 55.2284 100.885 54.8684 100.929 54.475C100.972 54.0817 101.01 53.6484 101.044 53.175C101.08 52.6984 101.117 52.1734 101.154 51.6H104.824V57H104.094V52.305H101.834C101.81 52.6584 101.784 53.01 101.754 53.36C101.724 53.71 101.692 54.0467 101.659 54.37C101.629 54.69 101.595 54.985 101.559 55.255C101.522 55.525 101.484 55.7584 101.444 55.955C101.384 56.2517 101.304 56.4884 101.204 56.665C101.107 56.8417 100.962 56.9584 100.769 57.015C100.575 57.0717 100.309 57.0667 99.9688 57Z" fill="#344351"/>
<path d="M109.606 57V54.965H108.346C108.199 54.965 108.047 54.96 107.891 54.95C107.737 54.9367 107.594 54.9184 107.461 54.895C107.081 54.8217 106.757 54.655 106.491 54.395C106.227 54.1317 106.096 53.7684 106.096 53.305C106.096 52.8517 106.219 52.4884 106.466 52.215C106.712 51.9384 107.011 51.7584 107.361 51.675C107.521 51.6384 107.682 51.6167 107.846 51.61C108.012 51.6034 108.156 51.6 108.276 51.6H110.341L110.346 57H109.606ZM105.921 57L107.426 54.735H108.241L106.726 57H105.921ZM108.306 54.335H109.606V52.23H108.306C108.226 52.23 108.114 52.2334 107.971 52.24C107.827 52.2467 107.692 52.2684 107.566 52.305C107.456 52.3384 107.346 52.3967 107.236 52.48C107.129 52.56 107.039 52.6684 106.966 52.805C106.892 52.9384 106.856 53.1017 106.856 53.295C106.856 53.565 106.929 53.7817 107.076 53.945C107.226 54.105 107.412 54.215 107.636 54.275C107.756 54.3017 107.876 54.3184 107.996 54.325C108.116 54.3317 108.219 54.335 108.306 54.335Z" fill="#344351"/>
<path d="M214.699 57V49.8H217.479C217.883 49.8 218.234 49.8834 218.534 50.05C218.834 50.2167 219.068 50.4417 219.234 50.725C219.401 51.005 219.484 51.315 219.484 51.655C219.484 52.0417 219.381 52.3867 219.174 52.69C218.968 52.99 218.691 53.1984 218.344 53.315L218.334 53.07C218.801 53.2034 219.168 53.4367 219.434 53.77C219.701 54.1034 219.834 54.5067 219.834 54.98C219.834 55.3967 219.746 55.7567 219.569 56.06C219.393 56.36 219.144 56.5917 218.824 56.755C218.504 56.9184 218.133 57 217.709 57H214.699ZM215.439 56.295H217.529C217.823 56.295 218.086 56.2434 218.319 56.14C218.553 56.0334 218.736 55.8834 218.869 55.69C219.006 55.4967 219.074 55.2634 219.074 54.99C219.074 54.7234 219.013 54.4834 218.889 54.27C218.766 54.0567 218.598 53.8867 218.384 53.76C218.174 53.63 217.934 53.565 217.664 53.565H215.439V56.295ZM215.439 52.87H217.474C217.704 52.87 217.914 52.8184 218.104 52.715C218.294 52.6084 218.444 52.4634 218.554 52.28C218.668 52.0967 218.724 51.885 218.724 51.645C218.724 51.305 218.606 51.0284 218.369 50.815C218.136 50.6017 217.838 50.495 217.474 50.495H215.439V52.87Z" fill="#5E6B77"/>
<path d="M223.072 57.15C222.529 57.15 222.069 57.0284 221.692 56.785C221.315 56.5417 221.029 56.2067 220.832 55.78C220.639 55.35 220.539 54.8567 220.532 54.3C220.539 53.7334 220.642 53.2367 220.842 52.81C221.042 52.38 221.33 52.0467 221.707 51.81C222.084 51.57 222.54 51.45 223.077 51.45C223.624 51.45 224.099 51.5834 224.502 51.85C224.909 52.1167 225.187 52.4817 225.337 52.945L224.617 53.175C224.49 52.8517 224.289 52.6017 224.012 52.425C223.739 52.245 223.425 52.155 223.072 52.155C222.675 52.155 222.347 52.2467 222.087 52.43C221.827 52.61 221.634 52.8617 221.507 53.185C221.38 53.5084 221.315 53.88 221.312 54.3C221.319 54.9467 221.469 55.4667 221.762 55.86C222.055 56.25 222.492 56.445 223.072 56.445C223.439 56.445 223.75 56.3617 224.007 56.195C224.267 56.025 224.464 55.7784 224.597 55.455L225.337 55.675C225.137 56.155 224.844 56.5217 224.457 56.775C224.07 57.025 223.609 57.15 223.072 57.15Z" fill="#5E6B77"/>
<path d="M228.654 57.15C228.127 57.15 227.671 57.0334 227.284 56.8C226.901 56.5667 226.602 56.2384 226.389 55.815C226.176 55.3917 226.069 54.895 226.069 54.325C226.069 53.735 226.174 53.225 226.384 52.795C226.594 52.365 226.889 52.0334 227.269 51.8C227.652 51.5667 228.104 51.45 228.624 51.45C229.157 51.45 229.612 51.5734 229.989 51.82C230.366 52.0634 230.651 52.4134 230.844 52.87C231.037 53.3267 231.126 53.8717 231.109 54.505H230.359V54.245C230.346 53.545 230.194 53.0167 229.904 52.66C229.617 52.3034 229.197 52.125 228.644 52.125C228.064 52.125 227.619 52.3134 227.309 52.69C227.002 53.0667 226.849 53.6034 226.849 54.3C226.849 54.98 227.002 55.5084 227.309 55.885C227.619 56.2584 228.057 56.445 228.624 56.445C229.011 56.445 229.347 56.3567 229.634 56.18C229.924 56 230.152 55.7417 230.319 55.405L231.004 55.67C230.791 56.14 230.476 56.505 230.059 56.765C229.646 57.0217 229.177 57.15 228.654 57.15ZM226.589 54.505V53.89H230.714V54.505H226.589Z" fill="#5E6B77"/>
<path d="M239.48 57V50.62L238.125 51.435V50.61L239.48 49.8H240.225V57H239.48Z" fill="#5E6B77"/>
<path d="M244.556 57.15C244.106 57.15 243.696 57.0417 243.326 56.825C242.959 56.605 242.666 56.3084 242.446 55.935C242.229 55.5584 242.121 55.135 242.121 54.665V52.17C242.121 51.6867 242.229 51.2567 242.446 50.88C242.663 50.5 242.958 50.2017 243.331 49.985C243.708 49.765 244.134 49.655 244.611 49.655C245.021 49.655 245.401 49.745 245.751 49.925C246.104 50.105 246.393 50.3567 246.616 50.68L246.051 51.145C245.898 50.905 245.694 50.7134 245.441 50.57C245.188 50.4267 244.911 50.355 244.611 50.355C244.274 50.355 243.974 50.4367 243.711 50.6C243.448 50.7634 243.241 50.9784 243.091 51.245C242.941 51.5084 242.866 51.795 242.866 52.105V53.675L242.681 53.465C242.891 53.135 243.166 52.8684 243.506 52.665C243.849 52.4617 244.223 52.36 244.626 52.36C245.073 52.36 245.474 52.4667 245.831 52.68C246.188 52.89 246.471 53.175 246.681 53.535C246.891 53.895 246.996 54.2984 246.996 54.745C246.996 55.1884 246.884 55.5917 246.661 55.955C246.441 56.3184 246.146 56.6084 245.776 56.825C245.409 57.0417 245.003 57.15 244.556 57.15ZM244.556 56.435C244.869 56.435 245.154 56.36 245.411 56.21C245.671 56.06 245.876 55.8567 246.026 55.6C246.179 55.3434 246.256 55.0584 246.256 54.745C246.256 54.4317 246.179 54.1467 246.026 53.89C245.876 53.63 245.673 53.425 245.416 53.275C245.159 53.1217 244.874 53.045 244.561 53.045C244.248 53.045 243.963 53.1217 243.706 53.275C243.449 53.425 243.244 53.63 243.091 53.89C242.941 54.1467 242.866 54.4317 242.866 54.745C242.866 55.055 242.941 55.3384 243.091 55.595C243.241 55.8517 243.444 56.0567 243.701 56.21C243.958 56.36 244.243 56.435 244.556 56.435Z" fill="#5E6B77"/>
<path d="M261.699 57V49.8H264.479C264.883 49.8 265.234 49.8834 265.534 50.05C265.834 50.2167 266.068 50.4417 266.234 50.725C266.401 51.005 266.484 51.315 266.484 51.655C266.484 52.0417 266.381 52.3867 266.174 52.69C265.968 52.99 265.691 53.1984 265.344 53.315L265.334 53.07C265.801 53.2034 266.168 53.4367 266.434 53.77C266.701 54.1034 266.834 54.5067 266.834 54.98C266.834 55.3967 266.746 55.7567 266.569 56.06C266.393 56.36 266.144 56.5917 265.824 56.755C265.504 56.9184 265.133 57 264.709 57H261.699ZM262.439 56.295H264.529C264.823 56.295 265.086 56.2434 265.319 56.14C265.553 56.0334 265.736 55.8834 265.869 55.69C266.006 55.4967 266.074 55.2634 266.074 54.99C266.074 54.7234 266.013 54.4834 265.889 54.27C265.766 54.0567 265.598 53.8867 265.384 53.76C265.174 53.63 264.934 53.565 264.664 53.565H262.439V56.295ZM262.439 52.87H264.474C264.704 52.87 264.914 52.8184 265.104 52.715C265.294 52.6084 265.444 52.4634 265.554 52.28C265.668 52.0967 265.724 51.885 265.724 51.645C265.724 51.305 265.606 51.0284 265.369 50.815C265.136 50.6017 264.838 50.495 264.474 50.495H262.439V52.87Z" fill="#5E6B77"/>
<path d="M267.232 57L269.342 54.27L267.277 51.6H268.157L269.772 53.705L271.372 51.6H272.252L270.187 54.27L272.302 57H271.417L269.772 54.835L268.117 57H267.232Z" fill="#5E6B77"/>
<path d="M275.165 57.15C274.628 57.15 274.17 57.0284 273.79 56.785C273.41 56.5417 273.118 56.205 272.915 55.775C272.712 55.345 272.61 54.8517 272.61 54.295C272.61 53.7284 272.713 53.2317 272.92 52.805C273.127 52.3784 273.42 52.0467 273.8 51.81C274.183 51.57 274.638 51.45 275.165 51.45C275.705 51.45 276.165 51.5717 276.545 51.815C276.928 52.055 277.22 52.39 277.42 52.82C277.623 53.2467 277.725 53.7384 277.725 54.295C277.725 54.8617 277.623 55.36 277.42 55.79C277.217 56.2167 276.923 56.55 276.54 56.79C276.157 57.03 275.698 57.15 275.165 57.15ZM275.165 56.445C275.765 56.445 276.212 56.2467 276.505 55.85C276.798 55.45 276.945 54.9317 276.945 54.295C276.945 53.6417 276.797 53.1217 276.5 52.735C276.207 52.3484 275.762 52.155 275.165 52.155C274.762 52.155 274.428 52.2467 274.165 52.43C273.905 52.61 273.71 52.8617 273.58 53.185C273.453 53.505 273.39 53.875 273.39 54.295C273.39 54.945 273.54 55.4667 273.84 55.86C274.14 56.25 274.582 56.445 275.165 56.445Z" fill="#5E6B77"/>
<path d="M278.428 58.2V56.37C278.735 56.37 278.955 56.2717 279.088 56.075C279.221 55.875 279.33 55.5567 279.413 55.12C279.47 54.8367 279.516 54.5317 279.553 54.205C279.59 53.8784 279.621 53.505 279.648 53.085C279.675 52.6617 279.7 52.1667 279.723 51.6H283.293V56.37H283.813V58.2H283.103V57H279.133V58.2H278.428ZM279.673 56.37H282.563V52.23H280.403C280.393 52.4834 280.378 52.7517 280.358 53.035C280.341 53.3184 280.32 53.6017 280.293 53.885C280.27 54.1684 280.241 54.435 280.208 54.685C280.178 54.9317 280.141 55.1484 280.098 55.335C280.048 55.575 279.993 55.78 279.933 55.95C279.876 56.12 279.79 56.26 279.673 56.37Z" fill="#5E6B77"/>
<path d="M288.199 57V54.965H286.939C286.793 54.965 286.641 54.96 286.484 54.95C286.331 54.9367 286.188 54.9184 286.054 54.895C285.674 54.8217 285.351 54.655 285.084 54.395C284.821 54.1317 284.689 53.7684 284.689 53.305C284.689 52.8517 284.813 52.4884 285.059 52.215C285.306 51.9384 285.604 51.7584 285.954 51.675C286.114 51.6384 286.276 51.6167 286.439 51.61C286.606 51.6034 286.749 51.6 286.869 51.6H288.934L288.939 57H288.199ZM284.514 57L286.019 54.735H286.834L285.319 57H284.514ZM286.899 54.335H288.199V52.23H286.899C286.819 52.23 286.708 52.2334 286.564 52.24C286.421 52.2467 286.286 52.2684 286.159 52.305C286.049 52.3384 285.939 52.3967 285.829 52.48C285.723 52.56 285.633 52.6684 285.559 52.805C285.486 52.9384 285.449 53.1017 285.449 53.295C285.449 53.565 285.523 53.7817 285.669 53.945C285.819 54.105 286.006 54.215 286.229 54.275C286.349 54.3017 286.469 54.3184 286.589 54.325C286.709 54.3317 286.813 54.335 286.899 54.335Z" fill="#5E6B77"/>
<path d="M296.497 57.935V57H290.337V51.6H291.052V56.32H293.077V51.6H293.792V56.32H295.812V51.6H296.527V56.32H297.232V57.935H296.497Z" fill="#5E6B77"/>
<path d="M302.317 51.6V57H301.602V52.795L298.642 57H298.022V51.6H298.737V55.77L301.702 51.6H302.317Z" fill="#5E6B77"/>
<path d="M306.006 57.15C305.479 57.15 305.022 57.0334 304.636 56.8C304.252 56.5667 303.954 56.2384 303.741 55.815C303.527 55.3917 303.421 54.895 303.421 54.325C303.421 53.735 303.526 53.225 303.736 52.795C303.946 52.365 304.241 52.0334 304.621 51.8C305.004 51.5667 305.456 51.45 305.976 51.45C306.509 51.45 306.964 51.5734 307.341 51.82C307.717 52.0634 308.002 52.4134 308.196 52.87C308.389 53.3267 308.477 53.8717 308.461 54.505H307.711V54.245C307.697 53.545 307.546 53.0167 307.256 52.66C306.969 52.3034 306.549 52.125 305.996 52.125C305.416 52.125 304.971 52.3134 304.661 52.69C304.354 53.0667 304.201 53.6034 304.201 54.3C304.201 54.98 304.354 55.5084 304.661 55.885C304.971 56.2584 305.409 56.445 305.976 56.445C306.362 56.445 306.699 56.3567 306.986 56.18C307.276 56 307.504 55.7417 307.671 55.405L308.356 55.67C308.142 56.14 307.827 56.505 307.411 56.765C306.997 57.0217 306.529 57.15 306.006 57.15ZM303.941 54.505V53.89H308.066V54.505H303.941Z" fill="#5E6B77"/>
<path d="M316.831 57V50.62L315.476 51.435V50.61L316.831 49.8H317.576V57H316.831Z" fill="#5E6B77"/>
<path d="M321.598 57.15C321.224 57.15 320.879 57.0734 320.563 56.92C320.246 56.7667 319.976 56.555 319.753 56.285C319.529 56.015 319.369 55.705 319.273 55.355L319.978 55.165C320.041 55.425 320.156 55.65 320.323 55.84C320.489 56.0267 320.684 56.1717 320.908 56.275C321.134 56.3784 321.371 56.43 321.618 56.43C321.938 56.43 322.224 56.3534 322.478 56.2C322.734 56.0434 322.938 55.8367 323.088 55.58C323.238 55.3234 323.313 55.0417 323.313 54.735C323.313 54.4184 323.234 54.1334 323.078 53.88C322.921 53.6234 322.714 53.42 322.458 53.27C322.201 53.12 321.921 53.045 321.618 53.045C321.278 53.045 320.984 53.12 320.738 53.27C320.491 53.4167 320.294 53.6017 320.148 53.825L319.478 53.545L319.698 49.8H323.543V50.505H320.023L320.388 50.16L320.193 53.355L320.008 53.11C320.214 52.8734 320.464 52.6884 320.758 52.555C321.051 52.4217 321.359 52.355 321.683 52.355C322.126 52.355 322.526 52.4617 322.883 52.675C323.239 52.885 323.523 53.17 323.733 53.53C323.943 53.89 324.048 54.2917 324.048 54.735C324.048 55.175 323.936 55.5784 323.713 55.945C323.489 56.3084 323.193 56.6 322.823 56.82C322.453 57.04 322.044 57.15 321.598 57.15Z" fill="#5E6B77"/>
<path d="M338.699 57V49.8H344.214V57H343.479V50.505H339.434V57H338.699Z" fill="#5E6B77"/>
<path d="M348.038 57.15C347.542 57.15 347.122 57.025 346.778 56.775C346.435 56.5217 346.175 56.18 345.998 55.75C345.822 55.3167 345.733 54.8317 345.733 54.295C345.733 53.7484 345.822 53.2617 345.998 52.835C346.178 52.405 346.442 52.0667 346.788 51.82C347.135 51.5734 347.562 51.45 348.068 51.45C348.562 51.45 348.985 51.575 349.338 51.825C349.692 52.075 349.962 52.415 350.148 52.845C350.338 53.275 350.433 53.7584 350.433 54.295C350.433 54.835 350.338 55.32 350.148 55.75C349.958 56.18 349.685 56.5217 349.328 56.775C348.972 57.025 348.542 57.15 348.038 57.15ZM345.608 59.4V51.6H346.268V55.665H346.348V59.4H345.608ZM347.963 56.465C348.34 56.465 348.653 56.37 348.903 56.18C349.153 55.99 349.34 55.7317 349.463 55.405C349.59 55.075 349.653 54.705 349.653 54.295C349.653 53.8884 349.592 53.5217 349.468 53.195C349.345 52.8684 349.157 52.61 348.903 52.42C348.653 52.23 348.335 52.135 347.948 52.135C347.572 52.135 347.258 52.2267 347.008 52.41C346.762 52.5934 346.577 52.8484 346.453 53.175C346.33 53.4984 346.268 53.8717 346.268 54.295C346.268 54.7117 346.33 55.085 346.453 55.415C346.577 55.7417 346.763 55.9984 347.013 56.185C347.263 56.3717 347.58 56.465 347.963 56.465Z" fill="#5E6B77"/>
<path d="M353.786 57.15C353.25 57.15 352.791 57.0284 352.411 56.785C352.031 56.5417 351.74 56.205 351.536 55.775C351.333 55.345 351.231 54.8517 351.231 54.295C351.231 53.7284 351.335 53.2317 351.541 52.805C351.748 52.3784 352.041 52.0467 352.421 51.81C352.805 51.57 353.26 51.45 353.786 51.45C354.326 51.45 354.786 51.5717 355.166 51.815C355.55 52.055 355.841 52.39 356.041 52.82C356.245 53.2467 356.346 53.7384 356.346 54.295C356.346 54.8617 356.245 55.36 356.041 55.79C355.838 56.2167 355.545 56.55 355.161 56.79C354.778 57.03 354.32 57.15 353.786 57.15ZM353.786 56.445C354.386 56.445 354.833 56.2467 355.126 55.85C355.42 55.45 355.566 54.9317 355.566 54.295C355.566 53.6417 355.418 53.1217 355.121 52.735C354.828 52.3484 354.383 52.155 353.786 52.155C353.383 52.155 353.05 52.2467 352.786 52.43C352.526 52.61 352.331 52.8617 352.201 53.185C352.075 53.505 352.011 53.875 352.011 54.295C352.011 54.945 352.161 55.4667 352.461 55.86C352.761 56.25 353.203 56.445 353.786 56.445Z" fill="#5E6B77"/>
<path d="M357.444 57V51.6H361.739V57H361.004V52.305H358.179V57H357.444Z" fill="#5E6B77"/>
<path d="M363.913 59.4L364.958 56.565L364.973 57.405L362.608 51.6H363.388L365.328 56.455H365.008L366.798 51.6H367.548L364.648 59.4H363.913Z" fill="#5E6B77"/>
<path d="M374.571 57.935V57H368.411V51.6H369.126V56.32H371.151V51.6H371.866V56.32H373.886V51.6H374.601V56.32H375.306V57.935H374.571Z" fill="#5E6B77"/>
<path d="M378.387 57.15C377.86 57.15 377.403 57.0334 377.017 56.8C376.633 56.5667 376.335 56.2384 376.122 55.815C375.908 55.3917 375.802 54.895 375.802 54.325C375.802 53.735 375.907 53.225 376.117 52.795C376.327 52.365 376.622 52.0334 377.002 51.8C377.385 51.5667 377.837 51.45 378.357 51.45C378.89 51.45 379.345 51.5734 379.722 51.82C380.098 52.0634 380.383 52.4134 380.577 52.87C380.77 53.3267 380.858 53.8717 380.842 54.505H380.092V54.245C380.078 53.545 379.927 53.0167 379.637 52.66C379.35 52.3034 378.93 52.125 378.377 52.125C377.797 52.125 377.352 52.3134 377.042 52.69C376.735 53.0667 376.582 53.6034 376.582 54.3C376.582 54.98 376.735 55.5084 377.042 55.885C377.352 56.2584 377.79 56.445 378.357 56.445C378.743 56.445 379.08 56.3567 379.367 56.18C379.657 56 379.885 55.7417 380.052 55.405L380.737 55.67C380.523 56.14 380.208 56.505 379.792 56.765C379.378 57.0217 378.91 57.15 378.387 57.15ZM376.322 54.505V53.89H380.447V54.505H376.322Z" fill="#5E6B77"/>
<path d="M381.946 57V51.6H382.681V53.945H385.726V51.6H386.461V57H385.726V54.65H382.681V57H381.946Z" fill="#5E6B77"/>
<path d="M387.854 57V51.6H388.589V53.945H391.634V51.6H392.369V57H391.634V54.65H388.589V57H387.854Z" fill="#5E6B77"/>
<path d="M393.773 57L393.763 51.6H394.503V53.635H395.443C395.599 53.635 395.753 53.6384 395.903 53.645C396.053 53.6517 396.188 53.665 396.308 53.685C396.574 53.7384 396.811 53.8284 397.018 53.955C397.224 54.0817 397.388 54.2567 397.508 54.48C397.628 54.7 397.688 54.9784 397.688 55.315C397.688 55.7784 397.568 56.1434 397.328 56.41C397.088 56.6767 396.786 56.85 396.423 56.93C396.286 56.96 396.138 56.98 395.978 56.99C395.818 56.9967 395.661 57 395.508 57H393.773ZM394.503 56.37H395.478C395.588 56.37 395.713 56.3667 395.853 56.36C395.993 56.3534 396.116 56.335 396.223 56.305C396.403 56.255 396.564 56.155 396.708 56.005C396.854 55.8517 396.928 55.6217 396.928 55.315C396.928 55.0117 396.858 54.7834 396.718 54.63C396.578 54.4734 396.391 54.37 396.158 54.32C396.051 54.2967 395.938 54.2817 395.818 54.275C395.701 54.2684 395.588 54.265 395.478 54.265H394.503V56.37ZM398.333 57V51.6H399.068V57H398.333Z" fill="#5E6B77"/>
<path d="M402.752 57.15C402.225 57.15 401.768 57.0334 401.382 56.8C400.998 56.5667 400.7 56.2384 400.487 55.815C400.273 55.3917 400.167 54.895 400.167 54.325C400.167 53.735 400.272 53.225 400.482 52.795C400.692 52.365 400.987 52.0334 401.367 51.8C401.75 51.5667 402.202 51.45 402.722 51.45C403.255 51.45 403.71 51.5734 404.087 51.82C404.463 52.0634 404.748 52.4134 404.942 52.87C405.135 53.3267 405.223 53.8717 405.207 54.505H404.457V54.245C404.443 53.545 404.292 53.0167 404.002 52.66C403.715 52.3034 403.295 52.125 402.742 52.125C402.162 52.125 401.717 52.3134 401.407 52.69C401.1 53.0667 400.947 53.6034 400.947 54.3C400.947 54.98 401.1 55.5084 401.407 55.885C401.717 56.2584 402.155 56.445 402.722 56.445C403.108 56.445 403.445 56.3567 403.732 56.18C404.022 56 404.25 55.7417 404.417 55.405L405.102 55.67C404.888 56.14 404.573 56.505 404.157 56.765C403.743 57.0217 403.275 57.15 402.752 57.15ZM400.687 54.505V53.89H404.812V54.505H400.687Z" fill="#5E6B77"/>
<path d="M413.577 57V50.62L412.222 51.435V50.61L413.577 49.8H414.322V57H413.577Z" fill="#5E6B77"/>
<path d="M418.569 57.15C418.125 57.15 417.725 57.0467 417.369 56.84C417.015 56.6334 416.735 56.3534 416.529 56C416.322 55.6434 416.219 55.2434 416.219 54.8V52C416.219 51.5567 416.322 51.1584 416.529 50.805C416.735 50.4484 417.015 50.1667 417.369 49.96C417.725 49.7534 418.125 49.65 418.569 49.65C419.012 49.65 419.41 49.7534 419.764 49.96C420.12 50.1667 420.402 50.4484 420.609 50.805C420.815 51.1584 420.919 51.5567 420.919 52V54.8C420.919 55.2434 420.815 55.6434 420.609 56C420.402 56.3534 420.12 56.6334 419.764 56.84C419.41 57.0467 419.012 57.15 418.569 57.15ZM418.569 56.44C418.865 56.44 419.135 56.3684 419.379 56.225C419.622 56.0784 419.815 55.8834 419.959 55.64C420.102 55.3967 420.174 55.1284 420.174 54.835V51.965C420.174 51.6684 420.102 51.3984 419.959 51.155C419.815 50.9117 419.622 50.7184 419.379 50.575C419.135 50.4284 418.865 50.355 418.569 50.355C418.272 50.355 418.002 50.4284 417.759 50.575C417.515 50.7184 417.322 50.9117 417.179 51.155C417.035 51.3984 416.964 51.6684 416.964 51.965V54.835C416.964 55.1284 417.035 55.3967 417.179 55.64C417.322 55.8834 417.515 56.0784 417.759 56.225C418.002 56.3684 418.272 56.44 418.569 56.44Z" fill="#5E6B77"/>
<path d="M441.144 57H440.404V51.095L436.439 57H435.699V49.8H436.439V55.7L440.404 49.8H441.144V57Z" fill="#5E6B77"/>
<path d="M444.785 57.15C444.242 57.15 443.782 57.0284 443.405 56.785C443.028 56.5417 442.742 56.2067 442.545 55.78C442.352 55.35 442.252 54.8567 442.245 54.3C442.252 53.7334 442.355 53.2367 442.555 52.81C442.755 52.38 443.043 52.0467 443.42 51.81C443.797 51.57 444.253 51.45 444.79 51.45C445.337 51.45 445.812 51.5834 446.215 51.85C446.622 52.1167 446.9 52.4817 447.05 52.945L446.33 53.175C446.203 52.8517 446.002 52.6017 445.725 52.425C445.452 52.245 445.138 52.155 444.785 52.155C444.388 52.155 444.06 52.2467 443.8 52.43C443.54 52.61 443.347 52.8617 443.22 53.185C443.093 53.5084 443.028 53.88 443.025 54.3C443.032 54.9467 443.182 55.4667 443.475 55.86C443.768 56.25 444.205 56.445 444.785 56.445C445.152 56.445 445.463 56.3617 445.72 56.195C445.98 56.025 446.177 55.7784 446.31 55.455L447.05 55.675C446.85 56.155 446.557 56.5217 446.17 56.775C445.783 57.025 445.322 57.15 444.785 57.15Z" fill="#5E6B77"/>
<path d="M447.482 57L449.592 54.27L447.527 51.6H448.407L450.022 53.705L451.622 51.6H452.502L450.437 54.27L452.552 57H451.667L450.022 54.835L448.367 57H447.482Z" fill="#5E6B77"/>
<path d="M455.415 57.15C454.878 57.15 454.42 57.0284 454.04 56.785C453.66 56.5417 453.368 56.205 453.165 55.775C452.962 55.345 452.86 54.8517 452.86 54.295C452.86 53.7284 452.963 53.2317 453.17 52.805C453.377 52.3784 453.67 52.0467 454.05 51.81C454.433 51.57 454.888 51.45 455.415 51.45C455.955 51.45 456.415 51.5717 456.795 51.815C457.178 52.055 457.47 52.39 457.67 52.82C457.873 53.2467 457.975 53.7384 457.975 54.295C457.975 54.8617 457.873 55.36 457.67 55.79C457.467 56.2167 457.173 56.55 456.79 56.79C456.407 57.03 455.948 57.15 455.415 57.15ZM455.415 56.445C456.015 56.445 456.462 56.2467 456.755 55.85C457.048 55.45 457.195 54.9317 457.195 54.295C457.195 53.6417 457.047 53.1217 456.75 52.735C456.457 52.3484 456.012 52.155 455.415 52.155C455.012 52.155 454.678 52.2467 454.415 52.43C454.155 52.61 453.96 52.8617 453.83 53.185C453.703 53.505 453.64 53.875 453.64 54.295C453.64 54.945 453.79 55.4667 454.09 55.86C454.39 56.25 454.832 56.445 455.415 56.445Z" fill="#5E6B77"/>
<path d="M458.678 58.2V56.37C458.985 56.37 459.205 56.2717 459.338 56.075C459.471 55.875 459.58 55.5567 459.663 55.12C459.72 54.8367 459.766 54.5317 459.803 54.205C459.84 53.8784 459.871 53.505 459.898 53.085C459.925 52.6617 459.95 52.1667 459.973 51.6H463.543V56.37H464.063V58.2H463.353V57H459.383V58.2H458.678ZM459.923 56.37H462.813V52.23H460.653C460.643 52.4834 460.628 52.7517 460.608 53.035C460.591 53.3184 460.57 53.6017 460.543 53.885C460.52 54.1684 460.491 54.435 460.458 54.685C460.428 54.9317 460.391 55.1484 460.348 55.335C460.298 55.575 460.243 55.78 460.183 55.95C460.126 56.12 460.04 56.26 459.923 56.37Z" fill="#5E6B77"/>
<path d="M468.449 57V54.965H467.189C467.043 54.965 466.891 54.96 466.734 54.95C466.581 54.9367 466.438 54.9184 466.304 54.895C465.924 54.8217 465.601 54.655 465.334 54.395C465.071 54.1317 464.939 53.7684 464.939 53.305C464.939 52.8517 465.063 52.4884 465.309 52.215C465.556 51.9384 465.854 51.7584 466.204 51.675C466.364 51.6384 466.526 51.6167 466.689 51.61C466.856 51.6034 466.999 51.6 467.119 51.6H469.184L469.189 57H468.449ZM464.764 57L466.269 54.735H467.084L465.569 57H464.764ZM467.149 54.335H468.449V52.23H467.149C467.069 52.23 466.958 52.2334 466.814 52.24C466.671 52.2467 466.536 52.2684 466.409 52.305C466.299 52.3384 466.189 52.3967 466.079 52.48C465.973 52.56 465.883 52.6684 465.809 52.805C465.736 52.9384 465.699 53.1017 465.699 53.295C465.699 53.565 465.773 53.7817 465.919 53.945C466.069 54.105 466.256 54.215 466.479 54.275C466.599 54.3017 466.719 54.3184 466.839 54.325C466.959 54.3317 467.063 54.335 467.149 54.335Z" fill="#5E6B77"/>
<path d="M476.747 57.935V57H470.587V51.6H471.302V56.32H473.327V51.6H474.042V56.32H476.062V51.6H476.777V56.32H477.482V57.935H476.747Z" fill="#5E6B77"/>
<path d="M482.567 51.6V57H481.852V52.795L478.892 57H478.272V51.6H478.987V55.77L481.952 51.6H482.567Z" fill="#5E6B77"/>
<path d="M486.256 57.15C485.729 57.15 485.272 57.0334 484.886 56.8C484.502 56.5667 484.204 56.2384 483.991 55.815C483.777 55.3917 483.671 54.895 483.671 54.325C483.671 53.735 483.776 53.225 483.986 52.795C484.196 52.365 484.491 52.0334 484.871 51.8C485.254 51.5667 485.706 51.45 486.226 51.45C486.759 51.45 487.214 51.5734 487.591 51.82C487.967 52.0634 488.252 52.4134 488.446 52.87C488.639 53.3267 488.727 53.8717 488.711 54.505H487.961V54.245C487.947 53.545 487.796 53.0167 487.506 52.66C487.219 52.3034 486.799 52.125 486.246 52.125C485.666 52.125 485.221 52.3134 484.911 52.69C484.604 53.0667 484.451 53.6034 484.451 54.3C484.451 54.98 484.604 55.5084 484.911 55.885C485.221 56.2584 485.659 56.445 486.226 56.445C486.612 56.445 486.949 56.3567 487.236 56.18C487.526 56 487.754 55.7417 487.921 55.405L488.606 55.67C488.392 56.14 488.077 56.505 487.661 56.765C487.247 57.0217 486.779 57.15 486.256 57.15ZM484.191 54.505V53.89H488.316V54.505H484.191Z" fill="#5E6B77"/>
<path d="M497.081 57V50.62L495.726 51.435V50.61L497.081 49.8H497.826V57H497.081Z" fill="#5E6B77"/>
<line x1="15" y1="85.5" x2="525" y2="85.5" stroke="#EFEFEF"/>
<path d="M25.1992 105L27.6792 97.8H28.6542L31.1342 105H30.3692L28.0142 98.21H28.3042L25.9642 105H25.1992ZM26.3042 103.255V102.565H30.0242V103.255H26.3042Z" fill="#5E6B77"/>
<path d="M31.5371 105V104.355C31.7371 104.392 31.8888 104.383 31.9921 104.33C32.0988 104.273 32.1771 104.18 32.2271 104.05C32.2771 103.917 32.3188 103.752 32.3521 103.555C32.4054 103.228 32.4538 102.868 32.4971 102.475C32.5404 102.082 32.5788 101.648 32.6121 101.175C32.6488 100.698 32.6854 100.173 32.7221 99.6H36.3921V105H35.6621V100.305H33.4021C33.3788 100.658 33.3521 101.01 33.3221 101.36C33.2921 101.71 33.2604 102.047 33.2271 102.37C33.1971 102.69 33.1638 102.985 33.1271 103.255C33.0904 103.525 33.0521 103.758 33.0121 103.955C32.9521 104.252 32.8721 104.488 32.7721 104.665C32.6754 104.842 32.5304 104.958 32.3371 105.015C32.1438 105.072 31.8771 105.067 31.5371 105Z" fill="#5E6B77"/>
<path d="M40.0741 105.15C39.5474 105.15 39.0907 105.033 38.7041 104.8C38.3207 104.567 38.0224 104.238 37.8091 103.815C37.5957 103.392 37.4891 102.895 37.4891 102.325C37.4891 101.735 37.5941 101.225 37.8041 100.795C38.0141 100.365 38.3091 100.033 38.6891 99.8C39.0724 99.5667 39.5241 99.45 40.0441 99.45C40.5774 99.45 41.0324 99.5734 41.4091 99.82C41.7857 100.063 42.0707 100.413 42.2641 100.87C42.4574 101.327 42.5457 101.872 42.5291 102.505H41.7791V102.245C41.7657 101.545 41.6141 101.017 41.3241 100.66C41.0374 100.303 40.6174 100.125 40.0641 100.125C39.4841 100.125 39.0391 100.313 38.7291 100.69C38.4224 101.067 38.2691 101.603 38.2691 102.3C38.2691 102.98 38.4224 103.508 38.7291 103.885C39.0391 104.258 39.4774 104.445 40.0441 104.445C40.4307 104.445 40.7674 104.357 41.0541 104.18C41.3441 104 41.5724 103.742 41.7391 103.405L42.4241 103.67C42.2107 104.14 41.8957 104.505 41.4791 104.765C41.0657 105.022 40.5974 105.15 40.0741 105.15ZM38.0091 102.505V101.89H42.1341V102.505H38.0091Z" fill="#5E6B77"/>
<path d="M43.6337 105L43.6387 99.6H44.3787V102.2L46.7887 99.6H47.7687L45.2387 102.3L48.0987 105H47.0287L44.3787 102.4V105H43.6337Z" fill="#5E6B77"/>
<path d="M50.742 105.15C50.1986 105.15 49.7386 105.028 49.362 104.785C48.9853 104.542 48.6986 104.207 48.502 103.78C48.3086 103.35 48.2086 102.857 48.202 102.3C48.2086 101.733 48.312 101.237 48.512 100.81C48.712 100.38 49.0003 100.047 49.377 99.81C49.7536 99.57 50.2103 99.45 50.747 99.45C51.2936 99.45 51.7686 99.5834 52.172 99.85C52.5786 100.117 52.857 100.482 53.007 100.945L52.287 101.175C52.1603 100.852 51.9586 100.602 51.682 100.425C51.4086 100.245 51.0953 100.155 50.742 100.155C50.3453 100.155 50.017 100.247 49.757 100.43C49.497 100.61 49.3036 100.862 49.177 101.185C49.0503 101.508 48.9853 101.88 48.982 102.3C48.9886 102.947 49.1386 103.467 49.432 103.86C49.7253 104.25 50.162 104.445 50.742 104.445C51.1086 104.445 51.4203 104.362 51.677 104.195C51.937 104.025 52.1336 103.778 52.267 103.455L53.007 103.675C52.807 104.155 52.5136 104.522 52.127 104.775C51.7403 105.025 51.2786 105.15 50.742 105.15Z" fill="#5E6B77"/>
<path d="M56.3241 105.15C55.7974 105.15 55.3407 105.033 54.9541 104.8C54.5707 104.567 54.2724 104.238 54.0591 103.815C53.8457 103.392 53.7391 102.895 53.7391 102.325C53.7391 101.735 53.8441 101.225 54.0541 100.795C54.2641 100.365 54.5591 100.033 54.9391 99.8C55.3224 99.5667 55.7741 99.45 56.2941 99.45C56.8274 99.45 57.2824 99.5734 57.6591 99.82C58.0357 100.063 58.3207 100.413 58.5141 100.87C58.7074 101.327 58.7957 101.872 58.7791 102.505H58.0291V102.245C58.0157 101.545 57.8641 101.017 57.5741 100.66C57.2874 100.303 56.8674 100.125 56.3141 100.125C55.7341 100.125 55.2891 100.313 54.9791 100.69C54.6724 101.067 54.5191 101.603 54.5191 102.3C54.5191 102.98 54.6724 103.508 54.9791 103.885C55.2891 104.258 55.7274 104.445 56.2941 104.445C56.6807 104.445 57.0174 104.357 57.3041 104.18C57.5941 104 57.8224 103.742 57.9891 103.405L58.6741 103.67C58.4607 104.14 58.1457 104.505 57.7291 104.765C57.3157 105.022 56.8474 105.15 56.3241 105.15ZM54.2591 102.505V101.89H58.3841V102.505H54.2591Z" fill="#5E6B77"/>
<path d="M62.1287 98.96C61.892 98.96 61.6753 98.9017 61.4787 98.785C61.282 98.6684 61.1253 98.5134 61.0087 98.32C60.8953 98.1234 60.8387 97.9067 60.8387 97.67H61.4487C61.4487 97.8567 61.5153 98.0167 61.6487 98.15C61.782 98.2834 61.942 98.35 62.1287 98.35C62.3187 98.35 62.4787 98.2834 62.6087 98.15C62.742 98.0167 62.8087 97.8567 62.8087 97.67H63.4187C63.4187 97.9067 63.3603 98.1234 63.2437 98.32C63.1303 98.5134 62.9753 98.6684 62.7787 98.785C62.582 98.9017 62.3653 98.96 62.1287 98.96ZM64.1787 99.6V105H63.4637V100.795L60.5037 105H59.8837V99.6H60.5987V103.77L63.5637 99.6H64.1787Z" fill="#5E6B77"/>
<path d="M228.957 105V98.62L227.602 99.435V98.61L228.957 97.8H229.702V105H228.957Z" fill="#5E6B77"/>
<path d="M231.983 105L234.633 98.515H231.298V97.8H235.418V98.515L232.773 105H231.983Z" fill="#5E6B77"/>
<path d="M237.018 104.2V103.345H237.873V104.2H237.018ZM237.023 101.255V100.4H237.878V101.255H237.023Z" fill="#5E6B77"/>
<path d="M241.731 105.15C241.358 105.15 241.013 105.073 240.696 104.92C240.379 104.767 240.109 104.555 239.886 104.285C239.663 104.015 239.503 103.705 239.406 103.355L240.111 103.165C240.174 103.425 240.289 103.65 240.456 103.84C240.623 104.027 240.818 104.172 241.041 104.275C241.268 104.378 241.504 104.43 241.751 104.43C242.071 104.43 242.358 104.353 242.611 104.2C242.868 104.043 243.071 103.837 243.221 103.58C243.371 103.323 243.446 103.042 243.446 102.735C243.446 102.418 243.368 102.133 243.211 101.88C243.054 101.623 242.848 101.42 242.591 101.27C242.334 101.12 242.054 101.045 241.751 101.045C241.411 101.045 241.118 101.12 240.871 101.27C240.624 101.417 240.428 101.602 240.281 101.825L239.611 101.545L239.831 97.8H243.676V98.505H240.156L240.521 98.16L240.326 101.355L240.141 101.11C240.348 100.873 240.598 100.688 240.891 100.555C241.184 100.422 241.493 100.355 241.816 100.355C242.259 100.355 242.659 100.462 243.016 100.675C243.373 100.885 243.656 101.17 243.866 101.53C244.076 101.89 244.181 102.292 244.181 102.735C244.181 103.175 244.069 103.578 243.846 103.945C243.623 104.308 243.326 104.6 242.956 104.82C242.586 105.04 242.178 105.15 241.731 105.15Z" fill="#5E6B77"/>
<path d="M247.572 105.15C247.122 105.15 246.724 105.06 246.377 104.88C246.034 104.7 245.764 104.448 245.567 104.125C245.374 103.798 245.277 103.417 245.277 102.98C245.277 102.533 245.386 102.137 245.602 101.79C245.819 101.44 246.149 101.175 246.592 100.995L246.582 101.285C246.212 101.148 245.931 100.925 245.737 100.615C245.544 100.305 245.447 99.9617 245.447 99.585C245.447 99.185 245.539 98.8417 245.722 98.555C245.906 98.265 246.156 98.0417 246.472 97.885C246.792 97.7284 247.159 97.65 247.572 97.65C247.986 97.65 248.352 97.7284 248.672 97.885C248.992 98.0417 249.244 98.265 249.427 98.555C249.611 98.8417 249.702 99.185 249.702 99.585C249.702 99.9617 249.609 100.303 249.422 100.61C249.239 100.917 248.957 101.142 248.577 101.285L248.552 100.995C248.996 101.172 249.327 101.435 249.547 101.785C249.771 102.135 249.882 102.533 249.882 102.98C249.882 103.417 249.784 103.798 249.587 104.125C249.391 104.448 249.119 104.7 248.772 104.88C248.426 105.06 248.026 105.15 247.572 105.15ZM247.572 104.445C248.026 104.445 248.394 104.32 248.677 104.07C248.961 103.817 249.102 103.453 249.102 102.98C249.102 102.5 248.962 102.137 248.682 101.89C248.402 101.64 248.032 101.515 247.572 101.515C247.112 101.515 246.744 101.64 246.467 101.89C246.191 102.137 246.052 102.5 246.052 102.98C246.052 103.453 246.192 103.817 246.472 104.07C246.752 104.32 247.119 104.445 247.572 104.445ZM247.572 100.805C247.972 100.805 248.297 100.703 248.547 100.5C248.797 100.293 248.922 99.9884 248.922 99.585C248.922 99.1817 248.797 98.88 248.547 98.68C248.297 98.4767 247.972 98.375 247.572 98.375C247.172 98.375 246.847 98.4767 246.597 98.68C246.351 98.88 246.227 99.1817 246.227 99.585C246.227 99.9884 246.351 100.293 246.597 100.5C246.847 100.703 247.172 100.805 247.572 100.805Z" fill="#5E6B77"/>
<path d="M291.049 105.15C290.606 105.15 290.206 105.047 289.849 104.84C289.496 104.633 289.216 104.353 289.009 104C288.803 103.643 288.699 103.243 288.699 102.8V100C288.699 99.5567 288.803 99.1584 289.009 98.805C289.216 98.4484 289.496 98.1667 289.849 97.96C290.206 97.7534 290.606 97.65 291.049 97.65C291.493 97.65 291.891 97.7534 292.244 97.96C292.601 98.1667 292.883 98.4484 293.089 98.805C293.296 99.1584 293.399 99.5567 293.399 100V102.8C293.399 103.243 293.296 103.643 293.089 104C292.883 104.353 292.601 104.633 292.244 104.84C291.891 105.047 291.493 105.15 291.049 105.15ZM291.049 104.44C291.346 104.44 291.616 104.368 291.859 104.225C292.103 104.078 292.296 103.883 292.439 103.64C292.583 103.397 292.654 103.128 292.654 102.835V99.965C292.654 99.6684 292.583 99.3984 292.439 99.155C292.296 98.9117 292.103 98.7184 291.859 98.575C291.616 98.4284 291.346 98.355 291.049 98.355C290.753 98.355 290.483 98.4284 290.239 98.575C289.996 98.7184 289.803 98.9117 289.659 99.155C289.516 99.3984 289.444 99.6684 289.444 99.965V102.835C289.444 103.128 289.516 103.397 289.659 103.64C289.803 103.883 289.996 104.078 290.239 104.225C290.483 104.368 290.753 104.44 291.049 104.44Z" fill="#5E6B77"/>
<path d="M297.153 105.15C296.709 105.15 296.309 105.047 295.953 104.84C295.599 104.633 295.319 104.353 295.113 104C294.906 103.643 294.803 103.243 294.803 102.8V100C294.803 99.5567 294.906 99.1584 295.113 98.805C295.319 98.4484 295.599 98.1667 295.953 97.96C296.309 97.7534 296.709 97.65 297.153 97.65C297.596 97.65 297.994 97.7534 298.348 97.96C298.704 98.1667 298.986 98.4484 299.193 98.805C299.399 99.1584 299.503 99.5567 299.503 100V102.8C299.503 103.243 299.399 103.643 299.193 104C298.986 104.353 298.704 104.633 298.348 104.84C297.994 105.047 297.596 105.15 297.153 105.15ZM297.153 104.44C297.449 104.44 297.719 104.368 297.963 104.225C298.206 104.078 298.399 103.883 298.543 103.64C298.686 103.397 298.758 103.128 298.758 102.835V99.965C298.758 99.6684 298.686 99.3984 298.543 99.155C298.399 98.9117 298.206 98.7184 297.963 98.575C297.719 98.4284 297.449 98.355 297.153 98.355C296.856 98.355 296.586 98.4284 296.343 98.575C296.099 98.7184 295.906 98.9117 295.763 99.155C295.619 99.3984 295.548 99.6684 295.548 99.965V102.835C295.548 103.128 295.619 103.397 295.763 103.64C295.906 103.883 296.099 104.078 296.343 104.225C296.586 104.368 296.856 104.44 297.153 104.44Z" fill="#5E6B77"/>
<path d="M301.306 104.2V103.345H302.161V104.2H301.306ZM301.311 101.255V100.4H302.166V101.255H301.311Z" fill="#5E6B77"/>
<path d="M306.245 105.15C305.801 105.15 305.401 105.047 305.045 104.84C304.691 104.633 304.411 104.353 304.205 104C303.998 103.643 303.895 103.243 303.895 102.8V100C303.895 99.5567 303.998 99.1584 304.205 98.805C304.411 98.4484 304.691 98.1667 305.045 97.96C305.401 97.7534 305.801 97.65 306.245 97.65C306.688 97.65 307.086 97.7534 307.44 97.96C307.796 98.1667 308.078 98.4484 308.285 98.805C308.491 99.1584 308.595 99.5567 308.595 100V102.8C308.595 103.243 308.491 103.643 308.285 104C308.078 104.353 307.796 104.633 307.44 104.84C307.086 105.047 306.688 105.15 306.245 105.15ZM306.245 104.44C306.541 104.44 306.811 104.368 307.055 104.225C307.298 104.078 307.491 103.883 307.635 103.64C307.778 103.397 307.85 103.128 307.85 102.835V99.965C307.85 99.6684 307.778 99.3984 307.635 99.155C307.491 98.9117 307.298 98.7184 307.055 98.575C306.811 98.4284 306.541 98.355 306.245 98.355C305.948 98.355 305.678 98.4284 305.435 98.575C305.191 98.7184 304.998 98.9117 304.855 99.155C304.711 99.3984 304.64 99.6684 304.64 99.965V102.835C304.64 103.128 304.711 103.397 304.855 103.64C304.998 103.883 305.191 104.078 305.435 104.225C305.678 104.368 305.948 104.44 306.245 104.44Z" fill="#5E6B77"/>
<path d="M312.368 97.655C312.821 97.655 313.231 97.765 313.598 97.985C313.968 98.2017 314.261 98.4984 314.478 98.875C314.695 99.2484 314.803 99.6684 314.803 100.135V102.635C314.803 103.115 314.695 103.545 314.478 103.925C314.261 104.305 313.965 104.605 313.588 104.825C313.215 105.042 312.79 105.15 312.313 105.15C311.903 105.15 311.523 105.06 311.173 104.88C310.826 104.697 310.54 104.445 310.313 104.125L310.873 103.66C311.026 103.897 311.23 104.087 311.483 104.23C311.74 104.373 312.016 104.445 312.313 104.445C312.653 104.445 312.953 104.365 313.213 104.205C313.476 104.042 313.683 103.828 313.833 103.565C313.986 103.298 314.063 103.01 314.063 102.7V101.13L314.243 101.34C314.036 101.67 313.761 101.937 313.418 102.14C313.078 102.343 312.705 102.445 312.298 102.445C311.855 102.445 311.453 102.338 311.093 102.125C310.736 101.912 310.453 101.625 310.243 101.265C310.036 100.905 309.933 100.503 309.933 100.06C309.933 99.6167 310.043 99.2134 310.263 98.85C310.483 98.4834 310.778 98.1934 311.148 97.98C311.518 97.7634 311.925 97.655 312.368 97.655ZM312.368 98.365C312.055 98.365 311.77 98.4417 311.513 98.595C311.256 98.745 311.051 98.9484 310.898 99.205C310.748 99.4617 310.673 99.7467 310.673 100.06C310.673 100.373 310.748 100.658 310.898 100.915C311.048 101.172 311.251 101.377 311.508 101.53C311.765 101.68 312.05 101.755 312.363 101.755C312.676 101.755 312.961 101.68 313.218 101.53C313.478 101.377 313.683 101.172 313.833 100.915C313.986 100.658 314.063 100.373 314.063 100.06C314.063 99.75 313.986 99.4667 313.833 99.21C313.683 98.9534 313.48 98.7484 313.223 98.595C312.966 98.4417 312.681 98.365 312.368 98.365Z" fill="#5E6B77"/>
<path d="M364.695 105V99.6H365.43V101.945H368.475V99.6H369.21V105H368.475V102.65H365.43V105H364.695Z" fill="#2B8FEB"/>
<path d="M372.894 105.15C372.367 105.15 371.91 105.033 371.524 104.8C371.14 104.567 370.842 104.238 370.629 103.815C370.415 103.392 370.309 102.895 370.309 102.325C370.309 101.735 370.414 101.225 370.624 100.795C370.834 100.365 371.129 100.033 371.509 99.8C371.892 99.5666 372.344 99.45 372.864 99.45C373.397 99.45 373.852 99.5733 374.229 99.82C374.605 100.063 374.89 100.413 375.084 100.87C375.277 101.327 375.365 101.872 375.349 102.505H374.599V102.245C374.585 101.545 374.434 101.017 374.144 100.66C373.857 100.303 373.437 100.125 372.884 100.125C372.304 100.125 371.859 100.313 371.549 100.69C371.242 101.067 371.089 101.603 371.089 102.3C371.089 102.98 371.242 103.508 371.549 103.885C371.859 104.258 372.297 104.445 372.864 104.445C373.25 104.445 373.587 104.357 373.874 104.18C374.164 104 374.392 103.742 374.559 103.405L375.244 103.67C375.03 104.14 374.715 104.505 374.299 104.765C373.885 105.022 373.417 105.15 372.894 105.15ZM370.829 102.505V101.89H374.954V102.505H370.829Z" fill="#2B8FEB"/>
<path d="M378.06 106.2V104.37C378.367 104.37 378.587 104.272 378.72 104.075C378.853 103.875 378.962 103.557 379.045 103.12C379.102 102.837 379.148 102.532 379.185 102.205C379.222 101.878 379.253 101.505 379.28 101.085C379.307 100.662 379.332 100.167 379.355 99.6H382.925V104.37H383.445V106.2H382.735V105H378.765V106.2H378.06ZM379.305 104.37H382.195V100.23H380.035C380.025 100.483 380.01 100.752 379.99 101.035C379.973 101.318 379.952 101.602 379.925 101.885C379.902 102.168 379.873 102.435 379.84 102.685C379.81 102.932 379.773 103.148 379.73 103.335C379.68 103.575 379.625 103.78 379.565 103.95C379.508 104.12 379.422 104.26 379.305 104.37Z" fill="#2B8FEB"/>
<path d="M386.701 105.15C386.165 105.15 385.706 105.028 385.326 104.785C384.946 104.542 384.655 104.205 384.451 103.775C384.248 103.345 384.146 102.852 384.146 102.295C384.146 101.728 384.25 101.232 384.456 100.805C384.663 100.378 384.956 100.047 385.336 99.81C385.72 99.57 386.175 99.45 386.701 99.45C387.241 99.45 387.701 99.5716 388.081 99.815C388.465 100.055 388.756 100.39 388.956 100.82C389.16 101.247 389.261 101.738 389.261 102.295C389.261 102.862 389.16 103.36 388.956 103.79C388.753 104.217 388.46 104.55 388.076 104.79C387.693 105.03 387.235 105.15 386.701 105.15ZM386.701 104.445C387.301 104.445 387.748 104.247 388.041 103.85C388.335 103.45 388.481 102.932 388.481 102.295C388.481 101.642 388.333 101.122 388.036 100.735C387.743 100.348 387.298 100.155 386.701 100.155C386.298 100.155 385.965 100.247 385.701 100.43C385.441 100.61 385.246 100.862 385.116 101.185C384.99 101.505 384.926 101.875 384.926 102.295C384.926 102.945 385.076 103.467 385.376 103.86C385.676 104.25 386.118 104.445 386.701 104.445Z" fill="#2B8FEB"/>
<path d="M389.667 105L391.947 102.3L389.762 99.6H390.592L392.722 102.265V99.6H393.402V102.265L395.532 99.6H396.357L394.172 102.3L396.452 105H395.597L393.402 102.335V105H392.722V102.335L390.522 105H389.667Z" fill="#2B8FEB"/>
<path d="M396.654 106.2V104.37C396.96 104.37 397.18 104.272 397.314 104.075C397.447 103.875 397.555 103.557 397.639 103.12C397.695 102.837 397.742 102.532 397.779 102.205C397.815 101.878 397.847 101.505 397.874 101.085C397.9 100.662 397.925 100.167 397.949 99.6H401.519V104.37H402.039V106.2H401.329V105H397.359V106.2H396.654ZM397.899 104.37H400.789V100.23H398.629C398.619 100.483 398.604 100.752 398.584 101.035C398.567 101.318 398.545 101.602 398.519 101.885C398.495 102.168 398.467 102.435 398.434 102.685C398.404 102.932 398.367 103.148 398.324 103.335C398.274 103.575 398.219 103.78 398.159 103.95C398.102 104.12 398.015 104.26 397.899 104.37Z" fill="#2B8FEB"/>
<path d="M404.585 105.15C404.178 105.15 403.837 105.077 403.56 104.93C403.287 104.783 403.082 104.588 402.945 104.345C402.808 104.102 402.74 103.837 402.74 103.55C402.74 103.257 402.798 103.007 402.915 102.8C403.035 102.59 403.197 102.418 403.4 102.285C403.607 102.152 403.845 102.05 404.115 101.98C404.388 101.913 404.69 101.855 405.02 101.805C405.353 101.752 405.678 101.707 405.995 101.67C406.315 101.63 406.595 101.592 406.835 101.555L406.575 101.715C406.585 101.182 406.482 100.787 406.265 100.53C406.048 100.273 405.672 100.145 405.135 100.145C404.765 100.145 404.452 100.228 404.195 100.395C403.942 100.562 403.763 100.825 403.66 101.185L402.945 100.975C403.068 100.492 403.317 100.117 403.69 99.85C404.063 99.5833 404.548 99.45 405.145 99.45C405.638 99.45 406.057 99.5433 406.4 99.73C406.747 99.9133 406.992 100.18 407.135 100.53C407.202 100.687 407.245 100.862 407.265 101.055C407.285 101.248 407.295 101.445 407.295 101.645V105H406.64V103.645L406.83 103.725C406.647 104.188 406.362 104.542 405.975 104.785C405.588 105.028 405.125 105.15 404.585 105.15ZM404.67 104.515C405.013 104.515 405.313 104.453 405.57 104.33C405.827 104.207 406.033 104.038 406.19 103.825C406.347 103.608 406.448 103.365 406.495 103.095C406.535 102.922 406.557 102.732 406.56 102.525C406.563 102.315 406.565 102.158 406.565 102.055L406.845 102.2C406.595 102.233 406.323 102.267 406.03 102.3C405.74 102.333 405.453 102.372 405.17 102.415C404.89 102.458 404.637 102.51 404.41 102.57C404.257 102.613 404.108 102.675 403.965 102.755C403.822 102.832 403.703 102.935 403.61 103.065C403.52 103.195 403.475 103.357 403.475 103.55C403.475 103.707 403.513 103.858 403.59 104.005C403.67 104.152 403.797 104.273 403.97 104.37C404.147 104.467 404.38 104.515 404.67 104.515Z" fill="#2B8FEB"/>
<path d="M408.097 105V104.355C408.297 104.392 408.448 104.383 408.552 104.33C408.658 104.273 408.737 104.18 408.787 104.05C408.837 103.917 408.878 103.752 408.912 103.555C408.965 103.228 409.013 102.868 409.057 102.475C409.1 102.082 409.138 101.648 409.172 101.175C409.208 100.698 409.245 100.173 409.282 99.6H412.952V105H412.222V100.305H409.962C409.938 100.658 409.912 101.01 409.882 101.36C409.852 101.71 409.82 102.047 409.787 102.37C409.757 102.69 409.723 102.985 409.687 103.255C409.65 103.525 409.612 103.758 409.572 103.955C409.512 104.252 409.432 104.488 409.332 104.665C409.235 104.842 409.09 104.958 408.897 105.015C408.703 105.072 408.437 105.067 408.097 105Z" fill="#2B8FEB"/>
<path d="M416.589 105.15C416.045 105.15 415.585 105.028 415.209 104.785C414.832 104.542 414.545 104.207 414.349 103.78C414.155 103.35 414.055 102.857 414.049 102.3C414.055 101.733 414.159 101.237 414.359 100.81C414.559 100.38 414.847 100.047 415.224 99.81C415.6 99.57 416.057 99.45 416.594 99.45C417.14 99.45 417.615 99.5833 418.019 99.85C418.425 100.117 418.704 100.482 418.854 100.945L418.134 101.175C418.007 100.852 417.805 100.602 417.529 100.425C417.255 100.245 416.942 100.155 416.589 100.155C416.192 100.155 415.864 100.247 415.604 100.43C415.344 100.61 415.15 100.862 415.024 101.185C414.897 101.508 414.832 101.88 414.829 102.3C414.835 102.947 414.985 103.467 415.279 103.86C415.572 104.25 416.009 104.445 416.589 104.445C416.955 104.445 417.267 104.362 417.524 104.195C417.784 104.025 417.98 103.778 418.114 103.455L418.854 103.675C418.654 104.155 418.36 104.522 417.974 104.775C417.587 105.025 417.125 105.15 416.589 105.15Z" fill="#2B8FEB"/>
<path d="M423.242 105V102.965H421.982C421.835 102.965 421.683 102.96 421.527 102.95C421.373 102.937 421.23 102.918 421.097 102.895C420.717 102.822 420.393 102.655 420.127 102.395C419.863 102.132 419.732 101.768 419.732 101.305C419.732 100.852 419.855 100.488 420.102 100.215C420.348 99.9383 420.647 99.7583 420.997 99.675C421.157 99.6383 421.318 99.6166 421.482 99.61C421.648 99.6033 421.792 99.6 421.912 99.6H423.977L423.982 105H423.242ZM419.557 105L421.062 102.735H421.877L420.362 105H419.557ZM421.942 102.335H423.242V100.23H421.942C421.862 100.23 421.75 100.233 421.607 100.24C421.463 100.247 421.328 100.268 421.202 100.305C421.092 100.338 420.982 100.397 420.872 100.48C420.765 100.56 420.675 100.668 420.602 100.805C420.528 100.938 420.492 101.102 420.492 101.295C420.492 101.565 420.565 101.782 420.712 101.945C420.862 102.105 421.048 102.215 421.272 102.275C421.392 102.302 421.512 102.318 421.632 102.325C421.752 102.332 421.855 102.335 421.942 102.335Z" fill="#2B8FEB"/>
</svg>
