<svg width="290" height="138" viewBox="0 0 290 138" fill="none" xmlns="http://www.w3.org/2000/svg">
<rect width="290" height="138" rx="12" fill="white"/>
<path d="M265 20H25C22.2386 20 20 22.2386 20 25V91C20 93.7614 22.2386 96 25 96H265C267.761 96 270 93.7614 270 91V25C270 22.2386 267.761 20 265 20Z" fill="#F6F7F8"/>
<path d="M156.992 39H36.0082C35.4514 39 35 39.3705 35 39.8276V54.1724C35 54.6295 35.4514 55 36.0082 55H156.992C157.549 55 158 54.6295 158 54.1724V39.8276C158 39.3705 157.549 39 156.992 39Z" fill="white"/>
<path d="M149.722 48.692C149.401 49.1027 148.599 49.1027 148.278 48.692L146.113 45.9233C145.792 45.5127 146.193 45 146.835 45H151.165C151.807 45 152.208 45.5127 151.887 45.9233L149.722 48.692Z" fill="#2B8FEB"/>
<path d="M36 33.25V28H39.9082V33.25H39.3874V28.5141H36.5209V33.25H36Z" fill="#5E6B77"/>
<path d="M42.519 33.3594C42.1458 33.3594 41.8221 33.2743 41.5481 33.1042C41.2765 32.934 41.0651 32.6946 40.9139 32.3859C40.7627 32.0773 40.6871 31.7151 40.6871 31.2995C40.6871 30.8693 40.7615 30.4974 40.9103 30.1839C41.0592 29.8703 41.2682 29.6285 41.5375 29.4583C41.8091 29.2882 42.1292 29.2031 42.4977 29.2031C42.8757 29.2031 43.1981 29.2931 43.465 29.4729C43.732 29.6503 43.9339 29.9056 44.0709 30.2385C44.208 30.5715 44.2706 30.9689 44.2587 31.4307H43.7272V31.2411C43.7178 30.7307 43.6103 30.3455 43.4048 30.0854C43.2017 29.8253 42.904 29.6953 42.5119 29.6953C42.1009 29.6953 41.7855 29.8326 41.5658 30.1073C41.3485 30.3819 41.2399 30.7733 41.2399 31.2812C41.2399 31.7771 41.3485 32.1623 41.5658 32.437C41.7855 32.7092 42.0962 32.8453 42.4977 32.8453C42.7717 32.8453 43.0103 32.7809 43.2135 32.6521C43.419 32.5208 43.5808 32.3325 43.6989 32.087L44.1843 32.2802C44.0332 32.6229 43.8099 32.8891 43.5146 33.0786C43.2217 33.2658 42.8898 33.3594 42.519 33.3594ZM41.0556 31.4307V30.9823H43.9788V31.4307H41.0556Z" fill="#5E6B77"/>
<path d="M46.7636 33.3594C46.4116 33.3594 46.114 33.2682 45.8707 33.0859C45.6274 32.9012 45.4431 32.6521 45.3179 32.3385C45.1927 32.0226 45.1301 31.6689 45.1301 31.2776C45.1301 30.879 45.1927 30.5241 45.3179 30.213C45.4455 29.8995 45.6321 29.6528 45.8777 29.4729C46.1234 29.2931 46.4258 29.2031 46.7848 29.2031C47.1344 29.2031 47.4344 29.2943 47.6848 29.4766C47.9352 29.6589 48.1266 29.9068 48.2588 30.2203C48.3935 30.5339 48.4608 30.8863 48.4608 31.2776C48.4608 31.6714 48.3935 32.025 48.2588 32.3385C48.1242 32.6521 47.9305 32.9012 47.6777 33.0859C47.425 33.2682 47.1203 33.3594 46.7636 33.3594ZM45.0415 35V29.3125H45.5092V32.2766H45.5659V35H45.0415ZM46.7104 32.8599C46.9773 32.8599 47.1994 32.7906 47.3766 32.6521C47.5537 32.5135 47.686 32.3252 47.7734 32.087C47.8632 31.8464 47.908 31.5766 47.908 31.2776C47.908 30.9811 47.8643 30.7137 47.7769 30.4755C47.6895 30.2373 47.5561 30.049 47.3766 29.9104C47.1994 29.7719 46.9738 29.7026 46.6998 29.7026C46.4329 29.7026 46.2108 29.7694 46.0337 29.9031C45.8588 30.0368 45.7277 30.2227 45.6403 30.4609C45.5529 30.6967 45.5092 30.9689 45.5092 31.2776C45.5092 31.5814 45.5529 31.8536 45.6403 32.0943C45.7277 32.3325 45.86 32.5196 46.0372 32.6557C46.2144 32.7918 46.4388 32.8599 46.7104 32.8599Z" fill="#5E6B77"/>
<path d="M52.279 29.3125V33.25H51.7723V30.1839L49.6747 33.25H49.2353V29.3125H49.742V32.3531L51.8432 29.3125H52.279Z" fill="#5E6B77"/>
<path d="M54.8715 33.3594C54.4912 33.3594 54.1664 33.2707 53.8971 33.0932C53.6279 32.9158 53.4212 32.6703 53.2771 32.3568C53.133 32.0432 53.0609 31.6835 53.0609 31.2776C53.0609 30.8644 53.1342 30.5023 53.2806 30.1911C53.4271 29.88 53.6349 29.6382 53.9042 29.4656C54.1759 29.2906 54.4983 29.2031 54.8715 29.2031C55.2542 29.2031 55.5802 29.2918 55.8495 29.4693C56.1212 29.6443 56.3278 29.8885 56.4696 30.2021C56.6137 30.5132 56.6857 30.8717 56.6857 31.2776C56.6857 31.6908 56.6137 32.0542 56.4696 32.3677C56.3255 32.6788 56.1176 32.9219 55.846 33.0969C55.5743 33.2719 55.2495 33.3594 54.8715 33.3594ZM54.8715 32.8453C55.2967 32.8453 55.6133 32.7007 55.8212 32.4115C56.029 32.1198 56.133 31.7418 56.133 31.2776C56.133 30.8012 56.0278 30.422 55.8176 30.1401C55.6097 29.8582 55.2944 29.7172 54.8715 29.7172C54.5857 29.7172 54.3495 29.784 54.1629 29.9177C53.9786 30.049 53.8405 30.2325 53.7483 30.4682C53.6586 30.7016 53.6137 30.9714 53.6137 31.2776C53.6137 31.7516 53.72 32.1319 53.9326 32.4188C54.1452 32.7031 54.4582 32.8453 54.8715 32.8453Z" fill="#5E6B77"/>
<path d="M57.1839 34.125V32.7906C57.4012 32.7906 57.5571 32.7189 57.6516 32.5755C57.7461 32.4297 57.8229 32.1976 57.8819 31.8792C57.9221 31.6726 57.9551 31.4502 57.9811 31.212C58.0071 30.9738 58.0295 30.7016 58.0484 30.3953C58.0673 30.0866 58.0851 29.7257 58.1016 29.3125H60.6315V32.7906H61V34.125H60.4969V33.25H57.6835V34.125H57.1839ZM58.0662 32.7906H60.1142V29.7719H58.5835C58.5764 29.9566 58.5658 30.1523 58.5516 30.3589C58.5398 30.5655 58.5244 30.772 58.5055 30.9786C58.489 31.1852 58.4689 31.3797 58.4453 31.562C58.424 31.7418 58.398 31.8998 58.3673 32.0359C58.3319 32.2109 58.2929 32.3604 58.2504 32.4844C58.2103 32.6083 58.1488 32.7104 58.0662 32.7906Z" fill="#5E6B77"/>
<path d="M40 49.25V44H44.0672V49.25H43.5251V44.5141H40.542V49.25H40Z" fill="#344351"/>
<path d="M46.8873 49.3594C46.5211 49.3594 46.2113 49.2682 45.9581 49.0859C45.7049 48.9012 45.5132 48.6521 45.3829 48.3385C45.2526 48.0226 45.1875 47.6689 45.1875 47.2776C45.1875 46.879 45.2526 46.5241 45.3829 46.213C45.5156 45.8995 45.7098 45.6528 45.9655 45.4729C46.2212 45.2931 46.5358 45.2031 46.9095 45.2031C47.2733 45.2031 47.5855 45.2943 47.8461 45.4766C48.1066 45.6589 48.3058 45.9068 48.4434 46.2203C48.5835 46.5339 48.6536 46.8863 48.6536 47.2776C48.6536 47.6714 48.5835 48.025 48.4434 48.3385C48.3033 48.6521 48.1017 48.9012 47.8387 49.0859C47.5757 49.2682 47.2585 49.3594 46.8873 49.3594ZM45.0953 51V45.3125H45.582V48.2766H45.641V51H45.0953ZM46.832 48.8599C47.1098 48.8599 47.3409 48.7906 47.5253 48.6521C47.7096 48.5135 47.8473 48.3252 47.9383 48.087C48.0317 47.8464 48.0784 47.5766 48.0784 47.2776C48.0784 46.9811 48.0329 46.7137 47.9419 46.4755C47.851 46.2373 47.7121 46.049 47.5253 45.9104C47.3409 45.7719 47.1061 45.7026 46.821 45.7026C46.5432 45.7026 46.3121 45.7694 46.1277 45.9031C45.9458 46.0368 45.8094 46.2227 45.7184 46.4609C45.6275 46.6967 45.582 46.9689 45.582 47.2776C45.582 47.5814 45.6275 47.8536 45.7184 48.0943C45.8094 48.3325 45.9471 48.5196 46.1314 48.6557C46.3158 48.7918 46.5493 48.8599 46.832 48.8599Z" fill="#344351"/>
<path d="M51.1263 49.3594C50.7306 49.3594 50.3926 49.2707 50.1123 49.0932C49.8321 48.9158 49.617 48.6703 49.467 48.3568C49.3171 48.0432 49.2421 47.6835 49.2421 47.2776C49.2421 46.8644 49.3183 46.5023 49.4707 46.1911C49.6231 45.88 49.8394 45.6382 50.1197 45.4656C50.4024 45.2906 50.7379 45.2031 51.1263 45.2031C51.5246 45.2031 51.8638 45.2918 52.1441 45.4693C52.4268 45.6443 52.6419 45.8885 52.7894 46.2021C52.9393 46.5132 53.0143 46.8717 53.0143 47.2776C53.0143 47.6908 52.9393 48.0542 52.7894 48.3677C52.6394 48.6788 52.4231 48.9219 52.1404 49.0969C51.8577 49.2719 51.5197 49.3594 51.1263 49.3594ZM51.1263 48.8453C51.5688 48.8453 51.8982 48.7007 52.1146 48.4115C52.3309 48.1198 52.4391 47.7418 52.4391 47.2776C52.4391 46.8012 52.3297 46.422 52.1109 46.1401C51.8945 45.8582 51.5664 45.7172 51.1263 45.7172C50.8289 45.7172 50.5831 45.784 50.3889 45.9177C50.1971 46.049 50.0533 46.2325 49.9574 46.4682C49.864 46.7016 49.8173 46.9714 49.8173 47.2776C49.8173 47.7516 49.9279 48.1319 50.1492 48.4188C50.3704 48.7031 50.6961 48.8453 51.1263 48.8453Z" fill="#344351"/>
<path d="M53.824 49.25V45.3125H54.3513V48.7542H55.8447V45.3125H56.372V48.7542H57.8617V45.3125H58.389V49.25H53.824Z" fill="#344351"/>
<path d="M59.0549 49.25V48.7797C59.2024 48.8064 59.3142 48.8003 59.3904 48.7615C59.4691 48.7201 59.5268 48.6521 59.5637 48.5573C59.6006 48.4601 59.6313 48.3398 59.6559 48.1964C59.6952 47.9582 59.7309 47.6957 59.7628 47.4089C59.7948 47.122 59.8231 46.8061 59.8476 46.4609C59.8747 46.1134 59.9017 45.7306 59.9288 45.3125H62.6353V49.25H62.097V45.8266H60.4303C60.413 46.0842 60.3934 46.3406 60.3713 46.5958C60.3491 46.851 60.3258 47.0965 60.3012 47.3323C60.2791 47.5656 60.2545 47.7807 60.2274 47.9776C60.2004 48.1745 60.1721 48.3446 60.1426 48.488C60.0984 48.7043 60.0394 48.8769 59.9656 49.0057C59.8944 49.1345 59.7874 49.2196 59.6448 49.2609C59.5023 49.3023 59.3056 49.2986 59.0549 49.25Z" fill="#344351"/>
<path d="M64.8049 49.3594C64.505 49.3594 64.2531 49.3059 64.049 49.199C63.8474 49.092 63.6963 48.9498 63.5955 48.7724C63.4947 48.595 63.4443 48.4017 63.4443 48.1927C63.4443 47.9788 63.4873 47.7965 63.5733 47.6458C63.6618 47.4927 63.7811 47.3675 63.931 47.2703C64.0834 47.1731 64.2592 47.099 64.4583 47.0479C64.6599 46.9993 64.8824 46.9568 65.1257 46.9203C65.3716 46.8814 65.6112 46.8486 65.8448 46.8219C66.0808 46.7927 66.2873 46.7648 66.4643 46.738L66.2725 46.8547C66.2799 46.4658 66.2037 46.1778 66.0439 45.9906C65.8841 45.8035 65.6063 45.7099 65.2105 45.7099C64.9377 45.7099 64.7066 45.7707 64.5173 45.8922C64.3305 46.0137 64.199 46.2057 64.1228 46.4682L63.5955 46.3151C63.6864 45.9627 63.8696 45.6892 64.1449 45.4948C64.4202 45.3003 64.7779 45.2031 65.2179 45.2031C65.5817 45.2031 65.8903 45.2712 66.1435 45.4073C66.3991 45.541 66.5798 45.7354 66.6855 45.9906C66.7347 46.1049 66.7666 46.2325 66.7814 46.3734C66.7961 46.5144 66.8035 46.6578 66.8035 46.8036V49.25H66.3204V48.262L66.4606 48.3203C66.3254 48.6582 66.1152 48.9158 65.83 49.0932C65.5449 49.2707 65.2032 49.3594 64.8049 49.3594ZM64.8676 48.8964C65.1208 48.8964 65.3421 48.8514 65.5314 48.7615C65.7206 48.6715 65.8731 48.5488 65.9886 48.3932C66.1041 48.2352 66.1791 48.0578 66.2135 47.8609C66.243 47.7345 66.259 47.596 66.2615 47.4453C66.2639 47.2922 66.2651 47.178 66.2651 47.1026L66.4716 47.2083C66.2873 47.2326 66.0869 47.2569 65.8706 47.2812C65.6567 47.3056 65.4453 47.3335 65.2364 47.3651C65.0299 47.3967 64.843 47.4344 64.6759 47.4781C64.5628 47.5097 64.4534 47.5547 64.3477 47.613C64.242 47.6689 64.1547 47.7443 64.0859 47.8391C64.0195 47.9339 63.9863 48.0517 63.9863 48.1927C63.9863 48.3069 64.0146 48.4175 64.0711 48.5245C64.1301 48.6314 64.2236 48.7201 64.3514 48.7906C64.4817 48.8611 64.6538 48.8964 64.8676 48.8964Z" fill="#344351"/>
<path d="M70.2598 49.25V47.7661H69.3306C69.2224 47.7661 69.1106 47.7625 68.995 47.7552C68.8819 47.7455 68.7762 47.7321 68.6779 47.7151C68.3977 47.6616 68.1592 47.5401 67.9625 47.3505C67.7683 47.1585 67.6712 46.8936 67.6712 46.5557C67.6712 46.2252 67.7622 45.9602 67.9441 45.7609C68.126 45.5592 68.346 45.428 68.6042 45.3672C68.7222 45.3405 68.8414 45.3247 68.9618 45.3198C69.0847 45.3149 69.1904 45.3125 69.2789 45.3125H70.8018L70.8055 49.25H70.2598ZM67.5422 49.25L68.6521 47.5984H69.2531L68.1359 49.25H67.5422ZM69.3011 47.3068H70.2598V45.7719H69.3011C69.2421 45.7719 69.1597 45.7743 69.054 45.7792C68.9483 45.784 68.8488 45.7998 68.7553 45.8266C68.6742 45.8509 68.5931 45.8934 68.512 45.9542C68.4333 46.0125 68.3669 46.0915 68.3128 46.1911C68.2588 46.2884 68.2317 46.4075 68.2317 46.5484C68.2317 46.7453 68.2858 46.9033 68.394 47.0224C68.5046 47.1391 68.6423 47.2193 68.807 47.263C68.8955 47.2825 68.984 47.2946 69.0725 47.2995C69.161 47.3043 69.2372 47.3068 69.3011 47.3068Z" fill="#344351"/>
<path d="M73.3124 49.25V45.3125H73.8545V47.0224H76.1001V45.3125H76.6421V49.25H76.1001V47.5365H73.8545V49.25H73.3124Z" fill="#344351"/>
<path d="M79.3584 49.3594C78.97 49.3594 78.6332 49.2743 78.3481 49.1042C78.0654 48.934 77.8454 48.6946 77.688 48.3859C77.5307 48.0773 77.452 47.7151 77.452 47.2995C77.452 46.8693 77.5295 46.4974 77.6843 46.1839C77.8392 45.8703 78.0568 45.6285 78.337 45.4583C78.6197 45.2882 78.9528 45.2031 79.3363 45.2031C79.7296 45.2031 80.0652 45.2931 80.3429 45.4729C80.6207 45.6503 80.8309 45.9056 80.9735 46.2385C81.1161 46.5715 81.1812 46.9689 81.1689 47.4307H80.6158V47.2411C80.606 46.7307 80.4941 46.3455 80.2803 46.0854C80.0689 45.8253 79.7591 45.6953 79.351 45.6953C78.9233 45.6953 78.5951 45.8326 78.3665 46.1073C78.1404 46.3819 78.0273 46.7733 78.0273 47.2812C78.0273 47.7771 78.1404 48.1623 78.3665 48.437C78.5951 48.7092 78.9184 48.8453 79.3363 48.8453C79.6215 48.8453 79.8697 48.7809 80.0811 48.6521C80.295 48.5208 80.4634 48.3325 80.5863 48.087L81.0915 48.2802C80.9342 48.6229 80.7019 48.8891 80.3946 49.0786C80.0897 49.2658 79.7444 49.3594 79.3584 49.3594ZM77.8355 47.4307V46.9823H80.8776V47.4307H77.8355Z" fill="#344351"/>
<path d="M81.6922 50.125V48.7906C81.9184 48.7906 82.0807 48.7189 82.179 48.5755C82.2773 48.4297 82.3572 48.1976 82.4187 47.8792C82.4604 47.6726 82.4949 47.4502 82.5219 47.212C82.5489 46.9738 82.5723 46.7016 82.592 46.3953C82.6116 46.0866 82.6301 45.7257 82.6473 45.3125H85.2801V48.7906H85.6636V50.125H85.14V49.25H82.2122V50.125H81.6922ZM82.6104 48.7906H84.7417V45.7719H83.1488C83.1414 45.9566 83.1303 46.1523 83.1156 46.3589C83.1033 46.5655 83.0873 46.772 83.0676 46.9786C83.0504 47.1852 83.0295 47.3797 83.005 47.562C82.9828 47.7418 82.9558 47.8998 82.9238 48.0359C82.887 48.2109 82.8464 48.3604 82.8021 48.4844C82.7604 48.6083 82.6964 48.7104 82.6104 48.7906Z" fill="#344351"/>
<path d="M88.0872 49.3594C87.6988 49.3594 87.362 49.2743 87.0768 49.1042C86.7941 48.934 86.5741 48.6946 86.4168 48.3859C86.2594 48.0773 86.1808 47.7151 86.1808 47.2995C86.1808 46.8693 86.2582 46.4974 86.4131 46.1839C86.568 45.8703 86.7855 45.6285 87.0658 45.4583C87.3484 45.2882 87.6815 45.2031 88.065 45.2031C88.4583 45.2031 88.7939 45.2931 89.0717 45.4729C89.3495 45.6503 89.5597 45.9056 89.7022 46.2385C89.8448 46.5715 89.91 46.9689 89.8977 47.4307H89.3446V47.2411C89.3347 46.7307 89.2229 46.3455 89.009 46.0854C88.7976 45.8253 88.4879 45.6953 88.0798 45.6953C87.652 45.6953 87.3239 45.8326 87.0952 46.1073C86.8691 46.3819 86.756 46.7733 86.756 47.2812C86.756 47.7771 86.8691 48.1623 87.0952 48.437C87.3239 48.7092 87.6471 48.8453 88.065 48.8453C88.3502 48.8453 88.5985 48.7809 88.8099 48.6521C89.0238 48.5208 89.1921 48.3325 89.3151 48.087L89.8202 48.2802C89.6629 48.6229 89.4306 48.8891 89.1233 49.0786C88.8185 49.2658 88.4731 49.3594 88.0872 49.3594ZM86.5643 47.4307V46.9823H89.6064V47.4307H86.5643Z" fill="#344351"/>
<path d="M90.3472 49.25V48.7797C90.4947 48.8064 90.6066 48.8003 90.6828 48.7615C90.7615 48.7201 90.8192 48.6521 90.8561 48.5573C90.893 48.4601 90.9237 48.3398 90.9483 48.1964C90.9876 47.9582 91.0233 47.6957 91.0552 47.4089C91.0872 47.122 91.1154 46.8061 91.14 46.4609C91.1671 46.1134 91.1941 45.7306 91.2211 45.3125H93.9277V49.25H93.3893V45.8266H91.7226C91.7054 46.0842 91.6858 46.3406 91.6636 46.5958C91.6415 46.851 91.6182 47.0965 91.5936 47.3323C91.5714 47.5656 91.5469 47.7807 91.5198 47.9776C91.4928 48.1745 91.4645 48.3446 91.435 48.488C91.3908 48.7043 91.3318 48.8769 91.258 49.0057C91.1867 49.1345 91.0798 49.2196 90.9372 49.2609C90.7946 49.3023 90.598 49.2986 90.3472 49.25Z" fill="#344351"/>
<path d="M97.4543 49.25V47.7661H96.525C96.4169 47.7661 96.305 47.7625 96.1895 47.7552C96.0764 47.7455 95.9707 47.7321 95.8724 47.7151C95.5921 47.6616 95.3537 47.5401 95.157 47.3505C94.9628 47.1585 94.8657 46.8936 94.8657 46.5557C94.8657 46.2252 94.9567 45.9602 95.1386 45.7609C95.3205 45.5592 95.5405 45.428 95.7986 45.3672C95.9166 45.3405 96.0359 45.3247 96.1563 45.3198C96.2792 45.3149 96.3849 45.3125 96.4734 45.3125H97.9963L98 49.25H97.4543ZM94.7367 49.25L95.8466 47.5984H96.4476L95.3303 49.25H94.7367ZM96.4955 47.3068H97.4543V45.7719H96.4955C96.4366 45.7719 96.3542 45.7743 96.2485 45.7792C96.1428 45.784 96.0432 45.7998 95.9498 45.8266C95.8687 45.8509 95.7876 45.8934 95.7064 45.9542C95.6278 46.0125 95.5614 46.0915 95.5073 46.1911C95.4532 46.2884 95.4262 46.4075 95.4262 46.5484C95.4262 46.7453 95.4803 46.9033 95.5885 47.0224C95.6991 47.1391 95.8367 47.2193 96.0014 47.263C96.0899 47.2825 96.1784 47.2946 96.2669 47.2995C96.3554 47.3043 96.4316 47.3068 96.4955 47.3068Z" fill="#344351"/>
<path d="M66.7377 73H35.2623C35.1174 73 35 73.3474 35 73.7759V87.2241C35 87.6526 35.1174 88 35.2623 88H66.7377C66.8826 88 67 87.6526 67 87.2241V73.7759C67 73.3474 66.8826 73 66.7377 73Z" fill="white"/>
<path d="M120.566 73H68.4344C68.1945 73 68 73.3474 68 73.7759V87.2241C68 87.6526 68.1945 88 68.4344 88H120.566C120.806 88 121 87.6526 121 87.2241V73.7759C121 73.3474 120.806 73 120.566 73Z" fill="white"/>
<path d="M187.459 73H122.541C122.242 73 122 73.3474 122 73.7759V87.2241C122 87.6526 122.242 88 122.541 88H187.459C187.758 88 188 87.6526 188 87.2241V73.7759C188 73.3474 187.758 73 187.459 73Z" fill="white" stroke="#F88C28" stroke-dasharray="3 3"/>
<path d="M183.566 109H131.434C131.194 109 131 109.278 131 109.621V120.379C131 120.722 131.194 121 131.434 121H183.566C183.806 121 184 120.722 184 120.379V109.621C184 109.278 183.806 109 183.566 109Z" fill="white" stroke="#F88C28" stroke-dasharray="3 3"/>
<path d="M241.566 73H189.434C189.194 73 189 73.3474 189 73.7759V87.2241C189 87.6526 189.194 88 189.434 88H241.566C241.806 88 242 87.6526 242 87.2241V73.7759C242 73.3474 241.806 73 241.566 73Z" fill="white"/>
<path d="M36.712 67.898V63.4796H35V63H38.9242V63.4796H37.2123V67.898H36.712Z" fill="#5E6B77"/>
<path d="M42.3902 64.2245V67.898H41.9035V65.0374L39.8887 67.898H39.4666V64.2245H39.9533V67.0612L41.9716 64.2245H42.3902Z" fill="#5E6B77"/>
<path d="M43.3421 67.898V64.2245H46.2657V67.898H45.7654V64.7041H43.8424V67.898H43.3421Z" fill="#5E6B77"/>
<path d="M49.9077 68C49.5378 68 49.2145 67.9195 48.9377 67.7585C48.6631 67.5952 48.4465 67.3696 48.2876 67.0816L48.6892 66.8265C48.8231 67.0533 48.9899 67.2256 49.1896 67.3435C49.3892 67.4615 49.6184 67.5204 49.8771 67.5204C50.1471 67.5204 50.3638 67.4581 50.5271 67.3333C50.6905 67.2086 50.7722 67.0374 50.7722 66.8197C50.7722 66.6701 50.737 66.551 50.6667 66.4626C50.5986 66.3741 50.4942 66.3107 50.3536 66.2721C50.2151 66.2336 50.0416 66.2143 49.8328 66.2143H49.3972V65.7857H49.826C50.0801 65.7857 50.2844 65.7404 50.4386 65.6497C50.5952 65.5567 50.6735 65.4116 50.6735 65.2143C50.6735 65.0057 50.5952 64.8515 50.4386 64.7517C50.2844 64.6497 50.0994 64.5986 49.8839 64.5986C49.666 64.5986 49.4596 64.644 49.2644 64.7347C49.0716 64.8231 48.9093 64.9376 48.7777 65.0782L48.4578 64.7415C48.6416 64.5397 48.856 64.3866 49.1011 64.2823C49.3484 64.1757 49.6218 64.1224 49.9213 64.1224C50.1573 64.1224 50.3706 64.1644 50.5612 64.2483C50.754 64.3299 50.9061 64.4501 51.0172 64.6088C51.1307 64.7676 51.1874 64.9581 51.1874 65.1803C51.1874 65.3889 51.1364 65.5692 51.0343 65.7211C50.9344 65.873 50.7926 65.9989 50.6088 66.0986L50.5816 65.9116C50.7404 65.941 50.872 66.0045 50.9764 66.102C51.0808 66.1995 51.1579 66.3163 51.2078 66.4524C51.2578 66.5884 51.2827 66.7268 51.2827 66.8673C51.2827 67.1009 51.2215 67.3027 51.0989 67.4728C50.9787 67.6406 50.8142 67.771 50.6054 67.8639C50.3989 67.9546 50.1664 68 49.9077 68Z" fill="#5E6B77"/>
<path d="M52.0304 67.898V64.2245H53.5449C53.6221 64.2245 53.7151 64.229 53.824 64.2381C53.9352 64.2472 54.0384 64.2642 54.1337 64.2891C54.3402 64.3435 54.5059 64.4546 54.6307 64.6224C54.7577 64.7902 54.8212 64.9921 54.8212 65.2279C54.8212 65.3594 54.8008 65.4773 54.76 65.5816C54.7214 65.6837 54.6658 65.7721 54.5932 65.8469C54.5592 65.8855 54.5217 65.9195 54.4809 65.949C54.4401 65.9762 54.4003 65.9989 54.3618 66.017C54.4344 66.0306 54.5127 66.0624 54.5966 66.1122C54.7282 66.1893 54.8281 66.2937 54.8961 66.4252C54.9642 66.5544 54.9982 66.712 54.9982 66.898C54.9982 67.1497 54.9381 67.3549 54.8178 67.5136C54.6976 67.6723 54.5365 67.7812 54.3345 67.8401C54.2438 67.8651 54.1451 67.881 54.0384 67.8878C53.9341 67.8946 53.8354 67.898 53.7423 67.898H52.0304ZM52.5341 67.4728H53.7185C53.7662 67.4728 53.8263 67.4694 53.8989 67.4626C53.9715 67.4535 54.0362 67.4422 54.0929 67.4286C54.2268 67.3946 54.3243 67.3265 54.3856 67.2245C54.4491 67.1202 54.4809 67.0068 54.4809 66.8844C54.4809 66.7234 54.4332 66.5918 54.3379 66.4898C54.2449 66.3855 54.1201 66.322 53.9636 66.2993C53.9114 66.288 53.8569 66.2812 53.8002 66.2789C53.7435 66.2766 53.6924 66.2755 53.647 66.2755H52.5341V67.4728ZM52.5341 65.8469H53.5619C53.6209 65.8469 53.6867 65.8435 53.7594 65.8367C53.8342 65.8277 53.8989 65.8129 53.9534 65.7925C54.0713 65.7517 54.1576 65.6814 54.212 65.5816C54.2687 65.4819 54.2971 65.373 54.2971 65.2551C54.2971 65.1259 54.2665 65.0125 54.2052 64.915C54.1462 64.8175 54.0566 64.7494 53.9363 64.7109C53.8547 64.6814 53.7662 64.6644 53.6709 64.6599C53.5778 64.6553 53.5188 64.6531 53.4939 64.6531H52.5341V65.8469Z" fill="#5E6B77"/>
<path d="M57.2116 68C56.8463 68 56.5343 67.9172 56.2756 67.7517C56.0169 67.5862 55.8184 67.3571 55.68 67.0646C55.5416 66.7721 55.4724 66.4365 55.4724 66.0578C55.4724 65.6723 55.5427 65.3345 55.6834 65.0442C55.8241 64.754 56.0238 64.5283 56.2824 64.3673C56.5434 64.2041 56.8531 64.1224 57.2116 64.1224C57.5792 64.1224 57.8923 64.2052 58.1509 64.3707C58.4119 64.534 58.6104 64.7619 58.7466 65.0544C58.885 65.3447 58.9542 65.6791 58.9542 66.0578C58.9542 66.4433 58.885 66.7823 58.7466 67.0748C58.6081 67.3651 58.4085 67.5918 58.1475 67.7551C57.8866 67.9184 57.5746 68 57.2116 68ZM57.2116 67.5204C57.62 67.5204 57.924 67.3855 58.1237 67.1156C58.3234 66.8435 58.4232 66.4909 58.4232 66.0578C58.4232 65.6134 58.3223 65.2596 58.1203 64.9966C57.9206 64.7336 57.6177 64.602 57.2116 64.602C56.937 64.602 56.7101 64.6644 56.5309 64.7891C56.3539 64.9116 56.2212 65.0828 56.1327 65.3027C56.0464 65.5204 56.0033 65.7721 56.0033 66.0578C56.0033 66.5 56.1054 66.8549 56.3096 67.1224C56.5139 67.3878 56.8145 67.5204 57.2116 67.5204Z" fill="#5E6B77"/>
<path d="M59.7016 67.898V64.2245H60.2019V65.8197H62.2746V64.2245H62.7749V67.898H62.2746V66.2993H60.2019V67.898H59.7016Z" fill="#5E6B77"/>
<path d="M63.7233 67.898L63.7267 64.2245H64.2304V65.9932L65.8709 64.2245H66.538L64.8158 66.0612L66.7626 67.898H66.0343L64.2304 66.1293V67.898H63.7233Z" fill="#5E6B77"/>
<path d="M68.1553 68C67.8785 68 67.6459 67.9501 67.4576 67.8503C67.2715 67.7506 67.132 67.6179 67.0389 67.4524C66.9459 67.2868 66.8994 67.1066 66.8994 66.9116C66.8994 66.712 66.9391 66.5419 67.0185 66.4014C67.1002 66.2585 67.2103 66.1417 67.3487 66.051C67.4893 65.9603 67.6516 65.8912 67.8354 65.8435C68.0214 65.7982 68.2268 65.7585 68.4514 65.7245C68.6783 65.6882 68.8995 65.6576 69.1151 65.6327C69.3329 65.6054 69.5235 65.5794 69.6869 65.5544L69.5099 65.6633C69.5167 65.3005 69.4464 65.0317 69.2989 64.8571C69.1514 64.6825 68.895 64.5952 68.5297 64.5952C68.2778 64.5952 68.0645 64.6519 67.8898 64.7653C67.7174 64.8787 67.596 65.0578 67.5257 65.3027L67.0389 65.1599C67.1229 64.8311 67.2919 64.576 67.5461 64.3946C67.8002 64.2132 68.1303 64.1224 68.5365 64.1224C68.8723 64.1224 69.1571 64.1859 69.3908 64.3129C69.6267 64.4376 69.7935 64.619 69.8911 64.8571C69.9365 64.9637 69.966 65.0828 69.9796 65.2143C69.9932 65.3458 70 65.4796 70 65.6156V67.898H69.5541V66.9762L69.6835 67.0306C69.5587 67.3458 69.3647 67.5862 69.1015 67.7517C68.8383 67.9172 68.5229 68 68.1553 68ZM68.2132 67.568C68.4469 67.568 68.6511 67.5261 68.8258 67.4422C69.0005 67.3583 69.1412 67.2438 69.2478 67.0986C69.3545 66.9512 69.4237 66.7857 69.4554 66.602C69.4827 66.4841 69.4974 66.3549 69.4997 66.2143C69.502 66.0714 69.5031 65.9649 69.5031 65.8946L69.6937 65.9932C69.5235 66.0159 69.3386 66.0385 69.1389 66.0612C68.9415 66.0839 68.7464 66.11 68.5535 66.1395C68.3629 66.1689 68.1905 66.2041 68.0362 66.2449C67.9318 66.2744 67.8308 66.3163 67.7333 66.3707C67.6357 66.4229 67.5551 66.4932 67.4916 66.5816C67.4303 66.6701 67.3997 66.78 67.3997 66.9116C67.3997 67.0181 67.4258 67.1213 67.478 67.2211C67.5325 67.3209 67.6187 67.4036 67.7367 67.4694C67.8569 67.5351 68.0158 67.568 68.2132 67.568Z" fill="#5E6B77"/>
<path d="M40 82.8999V78.0967H41.8937C42.1684 78.0967 42.408 78.1523 42.6123 78.2635C42.8167 78.3747 42.9756 78.5248 43.0892 78.7138C43.2027 78.9006 43.2594 79.1074 43.2594 79.3342C43.2594 79.5922 43.1891 79.8223 43.0483 80.0247C42.9075 80.2248 42.719 80.3638 42.4829 80.4416L42.4761 80.2782C42.794 80.3671 43.0437 80.5228 43.2254 80.7452C43.407 80.9675 43.4979 81.2366 43.4979 81.5524C43.4979 81.8303 43.4377 82.0705 43.3173 82.2728C43.197 82.473 43.0278 82.6275 42.8099 82.7365C42.5919 82.8455 42.3387 82.8999 42.0504 82.8999H40ZM40.5041 82.4296H41.9277C42.1276 82.4296 42.3069 82.3952 42.4659 82.3262C42.6248 82.2551 42.7497 82.155 42.8405 82.026C42.9336 81.897 42.9802 81.7414 42.9802 81.559C42.9802 81.3811 42.9382 81.221 42.8541 81.0787C42.7701 80.9364 42.6555 80.823 42.5102 80.7385C42.3671 80.6518 42.2036 80.6084 42.0197 80.6084H40.5041V82.4296ZM40.5041 80.1448H41.8903C42.0469 80.1448 42.19 80.1103 42.3194 80.0414C42.4488 79.9702 42.551 79.8735 42.626 79.7512C42.7032 79.6289 42.7418 79.4877 42.7418 79.3276C42.7418 79.1007 42.6611 78.9162 42.4999 78.7738C42.341 78.6315 42.1378 78.5604 41.8903 78.5604H40.5041V80.1448Z" fill="#5E6B77"/>
<path d="M45.7034 83C45.3333 83 45.0199 82.9188 44.7634 82.7565C44.5068 82.5942 44.3115 82.3707 44.1776 82.0861C44.0459 81.7992 43.9777 81.4701 43.9732 81.0987C43.9777 80.7207 44.0481 80.3894 44.1844 80.1047C44.3206 79.8179 44.517 79.5955 44.7736 79.4376C45.0302 79.2775 45.3412 79.1975 45.7068 79.1975C46.0792 79.1975 46.4027 79.2864 46.6775 79.4643C46.9545 79.6422 47.1441 79.8857 47.2463 80.1948L46.7558 80.3482C46.6695 80.1325 46.5322 79.9658 46.3437 79.8479C46.1575 79.7278 45.9441 79.6678 45.7034 79.6678C45.4332 79.6678 45.2095 79.7289 45.0324 79.8512C44.8553 79.9713 44.7236 80.1392 44.6373 80.3549C44.5511 80.5706 44.5068 80.8185 44.5045 81.0987C44.5091 81.5301 44.6112 81.877 44.811 82.1394C45.0109 82.3996 45.3083 82.5297 45.7034 82.5297C45.9532 82.5297 46.1655 82.4741 46.3403 82.3629C46.5174 82.2495 46.6514 82.0849 46.7422 81.8692L47.2463 82.016C47.11 82.3362 46.9102 82.5808 46.6468 82.7498C46.3834 82.9166 46.069 83 45.7034 83Z" fill="#5E6B77"/>
<path d="M49.5058 83C49.1471 83 48.836 82.9222 48.5726 82.7665C48.3115 82.6109 48.1083 82.3918 47.9629 82.1094C47.8176 81.827 47.745 81.4957 47.745 81.1154C47.745 80.7218 47.8165 80.3816 47.9595 80.0947C48.1026 79.8079 48.3035 79.5866 48.5624 79.431C48.8235 79.2753 49.1312 79.1975 49.4854 79.1975C49.8487 79.1975 50.1586 79.2797 50.4152 79.4443C50.6718 79.6066 50.8659 79.8401 50.9976 80.1448C51.1293 80.4494 51.1895 80.813 51.1781 81.2355H50.6672V81.062C50.6582 80.5951 50.5548 80.2426 50.3573 80.0047C50.162 79.7667 49.8759 79.6478 49.499 79.6478C49.1039 79.6478 48.8008 79.7734 48.5896 80.0247C48.3807 80.276 48.2763 80.634 48.2763 81.0987C48.2763 81.5524 48.3807 81.9048 48.5896 82.1561C48.8008 82.4052 49.0994 82.5297 49.4854 82.5297C49.7488 82.5297 49.9781 82.4708 50.1734 82.3529C50.3709 82.2328 50.5265 82.0605 50.64 81.8359L51.1066 82.0127C50.9613 82.3262 50.7467 82.5697 50.4629 82.7432C50.1813 82.9144 49.8623 83 49.5058 83ZM48.0992 81.2355V80.8252H50.9091V81.2355H48.0992Z" fill="#5E6B77"/>
<path d="M56.8799 82.8999V78.6438L55.9569 79.1875V78.6371L56.8799 78.0967H57.3874V82.8999H56.8799Z" fill="#5E6B77"/>
<path d="M60.3379 83C60.0314 83 59.7521 82.9277 59.5001 82.7832C59.2503 82.6364 59.0505 82.4385 58.9006 82.1895C58.753 81.9382 58.6792 81.6558 58.6792 81.3422V79.6778C58.6792 79.3553 58.753 79.0685 58.9006 78.8172C59.0482 78.5637 59.2492 78.3647 59.5035 78.2201C59.7601 78.0734 60.0507 78 60.3754 78C60.6547 78 60.9135 78.06 61.1519 78.1801C61.3926 78.3002 61.589 78.4681 61.7412 78.6838L61.3563 78.994C61.2518 78.8339 61.1133 78.706 60.9408 78.6104C60.7682 78.5148 60.5797 78.467 60.3754 78.467C60.1461 78.467 59.9417 78.5215 59.7623 78.6304C59.5829 78.7394 59.4422 78.8828 59.34 79.0607C59.2378 79.2364 59.1867 79.4276 59.1867 79.6344V80.6818L59.0607 80.5417C59.2038 80.3215 59.3911 80.1437 59.6227 80.008C59.8566 79.8724 60.1109 79.8045 60.3856 79.8045C60.6899 79.8045 60.9635 79.8757 61.2064 80.018C61.4494 80.1581 61.6424 80.3482 61.7854 80.5884C61.9285 80.8286 62 81.0976 62 81.3956C62 81.6913 61.9239 81.9604 61.7718 82.2028C61.6219 82.4452 61.421 82.6386 61.169 82.7832C60.9192 82.9277 60.6422 83 60.3379 83ZM60.3379 82.523C60.5514 82.523 60.7455 82.473 60.9203 82.3729C61.0974 82.2728 61.2371 82.1372 61.3393 81.966C61.4437 81.7948 61.4959 81.6046 61.4959 81.3956C61.4959 81.1866 61.4437 80.9964 61.3393 80.8252C61.2371 80.6518 61.0986 80.515 60.9237 80.4149C60.7489 80.3127 60.5548 80.2615 60.3413 80.2615C60.1279 80.2615 59.9338 80.3127 59.7589 80.4149C59.5841 80.515 59.4444 80.6518 59.34 80.8252C59.2378 80.9964 59.1867 81.1866 59.1867 81.3956C59.1867 81.6024 59.2378 81.7914 59.34 81.9626C59.4422 82.1339 59.5807 82.2706 59.7555 82.3729C59.9303 82.473 60.1245 82.523 60.3379 82.523Z" fill="#5E6B77"/>
<path d="M73 83.1429V78H74.9173C75.1955 78 75.438 78.0595 75.6449 78.1786C75.8518 78.2976 76.0127 78.4583 76.1277 78.6607C76.2426 78.8607 76.3001 79.0821 76.3001 79.325C76.3001 79.6012 76.2288 79.8476 76.0863 80.0643C75.9438 80.2786 75.7529 80.4274 75.5139 80.5107L75.507 80.3357C75.8288 80.431 76.0817 80.5976 76.2656 80.8357C76.4495 81.0738 76.5415 81.3619 76.5415 81.7C76.5415 81.9976 76.4805 82.2548 76.3587 82.4714C76.2369 82.6857 76.0656 82.8512 75.8449 82.9679C75.6242 83.0845 75.3679 83.1429 75.0759 83.1429H73ZM73.5104 82.6393H74.9518C75.1541 82.6393 75.3357 82.6024 75.4966 82.5286C75.6575 82.4524 75.784 82.3452 75.8759 82.2071C75.9702 82.069 76.0173 81.9024 76.0173 81.7071C76.0173 81.5167 75.9748 81.3452 75.8897 81.1929C75.8047 81.0405 75.6886 80.919 75.5414 80.8286C75.3966 80.7357 75.2311 80.6893 75.0449 80.6893H73.5104V82.6393ZM73.5104 80.1929H74.9138C75.0725 80.1929 75.2173 80.156 75.3483 80.0821C75.4794 80.006 75.5828 79.9024 75.6587 79.7714C75.7369 79.6405 75.7759 79.4893 75.7759 79.3179C75.7759 79.075 75.6943 78.8774 75.5311 78.725C75.3702 78.5726 75.1644 78.4964 74.9138 78.4964H73.5104V80.1929Z" fill="#5E6B77"/>
<path d="M76.8158 83.1429L78.271 81.1929L76.8469 79.2857H77.4538L78.5676 80.7893L79.6711 79.2857H80.278L78.8538 81.1929L80.3125 83.1429H79.7021L78.5676 81.5964L77.4262 83.1429H76.8158Z" fill="#5E6B77"/>
<path d="M82.2871 83.25C81.917 83.25 81.6009 83.1631 81.3388 82.9893C81.0767 82.8155 80.8756 82.575 80.7353 82.2679C80.5951 81.9607 80.525 81.6083 80.525 81.2107C80.525 80.806 80.5962 80.4512 80.7388 80.1464C80.8813 79.8417 81.0836 79.6048 81.3457 79.4357C81.6101 79.2643 81.9239 79.1786 82.2871 79.1786C82.6595 79.1786 82.9768 79.2655 83.2388 79.4393C83.5032 79.6107 83.7044 79.85 83.8423 80.1571C83.9825 80.4619 84.0526 80.8131 84.0526 81.2107C84.0526 81.6155 83.9825 81.9714 83.8423 82.2786C83.7021 82.5833 83.4998 82.8214 83.2354 82.9929C82.971 83.1643 82.6549 83.25 82.2871 83.25ZM82.2871 82.7464C82.7009 82.7464 83.0089 82.6048 83.2112 82.3214C83.4136 82.0357 83.5147 81.6655 83.5147 81.2107C83.5147 80.744 83.4124 80.3726 83.2078 80.0964C83.0055 79.8202 82.6986 79.6821 82.2871 79.6821C82.0089 79.6821 81.779 79.7476 81.5974 79.8786C81.4181 80.0071 81.2836 80.1869 81.194 80.4179C81.1066 80.6464 81.0629 80.9107 81.0629 81.2107C81.0629 81.675 81.1664 82.0476 81.3733 82.3286C81.5802 82.6071 81.8848 82.7464 82.2871 82.7464Z" fill="#5E6B77"/>
<path d="M84.5375 84V82.6929C84.749 82.6929 84.9007 82.6226 84.9927 82.4821C85.0846 82.3393 85.1593 82.1119 85.2168 81.8C85.2559 81.5976 85.2881 81.3798 85.3133 81.1464C85.3386 80.9131 85.3605 80.6464 85.3789 80.3464C85.3973 80.044 85.4145 79.6905 85.4306 79.2857H87.8927V82.6929H88.2514V84H87.7617V83.1429H85.0237V84H84.5375ZM85.3961 82.6929H87.3893V79.7357H85.8996C85.8927 79.9167 85.8823 80.1083 85.8685 80.3107C85.857 80.5131 85.8421 80.7155 85.8237 80.9179C85.8076 81.1202 85.7881 81.3107 85.7651 81.4893C85.7444 81.6655 85.7191 81.8202 85.6892 81.9536C85.6547 82.125 85.6168 82.2714 85.5754 82.3929C85.5363 82.5143 85.4766 82.6143 85.3961 82.6929Z" fill="#5E6B77"/>
<path d="M91.2765 83.1429V81.6893H90.4075C90.3063 81.6893 90.2017 81.6857 90.0937 81.6786C89.9879 81.669 89.8891 81.656 89.7971 81.6393C89.5351 81.5869 89.3121 81.4679 89.1282 81.2821C88.9465 81.094 88.8557 80.8345 88.8557 80.5036C88.8557 80.1798 88.9408 79.9202 89.1109 79.725C89.281 79.5274 89.4868 79.3988 89.7282 79.3393C89.8385 79.3131 89.95 79.2976 90.0627 79.2929C90.1776 79.2881 90.2765 79.2857 90.3592 79.2857H91.7834L91.7868 83.1429H91.2765ZM88.735 83.1429L89.773 81.525H90.3351L89.2902 83.1429H88.735ZM90.3799 81.2393H91.2765V79.7357H90.3799C90.3247 79.7357 90.2477 79.7381 90.1489 79.7429C90.05 79.7476 89.9569 79.7631 89.8696 79.7893C89.7937 79.8131 89.7178 79.8548 89.642 79.9143C89.5684 79.9714 89.5063 80.0488 89.4557 80.1464C89.4052 80.2417 89.3799 80.3583 89.3799 80.4964C89.3799 80.6893 89.4305 80.844 89.5316 80.9607C89.6351 81.075 89.7638 81.1536 89.9178 81.1964C90.0006 81.2155 90.0833 81.2274 90.1661 81.2321C90.2489 81.2369 90.3201 81.2393 90.3799 81.2393Z" fill="#5E6B77"/>
<path d="M96.9989 83.8107V83.1429H92.7505V79.2857H93.2437V82.6571H94.6403V79.2857H95.1334V82.6571H96.5265V79.2857H97.0196V82.6571H97.5058V83.8107H96.9989Z" fill="#5E6B77"/>
<path d="M101.013 79.2857V83.1429H100.52V80.1393L98.4787 83.1429H98.0511V79.2857H98.5442V82.2643L100.589 79.2857H101.013Z" fill="#5E6B77"/>
<path d="M103.557 83.25C103.194 83.25 102.879 83.1667 102.612 83C102.348 82.8333 102.142 82.5988 101.995 82.2964C101.848 81.994 101.774 81.6393 101.774 81.2321C101.774 80.8107 101.847 80.4464 101.991 80.1393C102.136 79.8321 102.34 79.5952 102.602 79.4286C102.866 79.2619 103.178 79.1786 103.536 79.1786C103.904 79.1786 104.218 79.2667 104.478 79.4429C104.737 79.6167 104.934 79.8667 105.067 80.1929C105.201 80.519 105.262 80.9083 105.25 81.3607H104.733V81.175C104.724 80.675 104.619 80.2976 104.419 80.0429C104.221 79.7881 103.932 79.6607 103.55 79.6607C103.15 79.6607 102.843 79.7952 102.629 80.0643C102.418 80.3333 102.312 80.7167 102.312 81.2143C102.312 81.7 102.418 82.0774 102.629 82.3464C102.843 82.6131 103.145 82.7464 103.536 82.7464C103.803 82.7464 104.035 82.6833 104.233 82.5571C104.433 82.4286 104.59 82.244 104.705 82.0036L105.178 82.1929C105.031 82.5286 104.813 82.7893 104.526 82.975C104.241 83.1583 103.918 83.25 103.557 83.25ZM102.133 81.3607V80.9214H104.978V81.3607H102.133Z" fill="#5E6B77"/>
<path d="M111.023 83.1429V78.5857L110.088 79.1679V78.5786L111.023 78H111.537V83.1429H111.023Z" fill="#5E6B77"/>
<path d="M114.31 83.25C114.053 83.25 113.815 83.1952 113.596 83.0857C113.378 82.9762 113.192 82.825 113.038 82.6321C112.884 82.4393 112.773 82.2179 112.707 81.9679L113.193 81.8321C113.237 82.0179 113.316 82.1786 113.431 82.3143C113.546 82.4476 113.68 82.5512 113.834 82.625C113.991 82.6988 114.154 82.7357 114.324 82.7357C114.545 82.7357 114.743 82.681 114.917 82.5714C115.094 82.4595 115.234 82.3119 115.338 82.1286C115.441 81.9452 115.493 81.744 115.493 81.525C115.493 81.2988 115.439 81.0952 115.331 80.9143C115.223 80.731 115.08 80.5857 114.903 80.4786C114.726 80.3714 114.533 80.3179 114.324 80.3179C114.09 80.3179 113.887 80.3714 113.717 80.4786C113.547 80.5833 113.411 80.7155 113.31 80.875L112.848 80.675L113 78H115.652V78.5036H113.224L113.476 78.2571L113.341 80.5393L113.214 80.3643C113.356 80.1952 113.529 80.0631 113.731 79.9679C113.933 79.8726 114.146 79.825 114.369 79.825C114.675 79.825 114.951 79.9012 115.197 80.0536C115.443 80.2036 115.638 80.4071 115.783 80.6643C115.928 80.9214 116 81.2083 116 81.525C116 81.8393 115.923 82.1274 115.769 82.3893C115.615 82.6488 115.41 82.8571 115.155 83.0143C114.9 83.1714 114.618 83.25 114.31 83.25Z" fill="#5E6B77"/>
<path d="M127 83.2769V78.1077H130.689V83.2769H130.198V78.6138H127.492V83.2769H127Z" fill="#5E6B77"/>
<path d="M133.247 83.3846C132.915 83.3846 132.634 83.2949 132.404 83.1154C132.175 82.9335 132.001 82.6882 131.883 82.3795C131.764 82.0684 131.705 81.7202 131.705 81.3349C131.705 80.9424 131.764 80.593 131.883 80.2867C132.003 79.9779 132.179 79.735 132.411 79.5579C132.643 79.3809 132.928 79.2923 133.267 79.2923C133.597 79.2923 133.881 79.3821 134.117 79.5615C134.353 79.741 134.534 79.9851 134.659 80.2938C134.786 80.6026 134.849 80.9496 134.849 81.3349C134.849 81.7226 134.786 82.0708 134.659 82.3795C134.532 82.6882 134.349 82.9335 134.11 83.1154C133.872 83.2949 133.584 83.3846 133.247 83.3846ZM131.622 85V79.4H132.063V82.3185H132.117V85H131.622ZM133.197 82.8928C133.449 82.8928 133.659 82.8246 133.826 82.6882C133.993 82.5518 134.118 82.3663 134.201 82.1318C134.285 81.8949 134.328 81.6292 134.328 81.3349C134.328 81.0429 134.286 80.7797 134.204 80.5451C134.121 80.3106 133.995 80.1251 133.826 79.9887C133.659 79.8523 133.446 79.7841 133.187 79.7841C132.935 79.7841 132.726 79.8499 132.558 79.9815C132.393 80.1132 132.27 80.2962 132.187 80.5308C132.105 80.7629 132.063 81.0309 132.063 81.3349C132.063 81.634 132.105 81.9021 132.187 82.139C132.27 82.3735 132.394 82.5578 132.562 82.6918C132.729 82.8258 132.941 82.8928 133.197 82.8928Z" fill="#5E6B77"/>
<path d="M137.092 83.3846C136.733 83.3846 136.427 83.2973 136.173 83.1226C135.918 82.9479 135.723 82.7062 135.587 82.3974C135.451 82.0887 135.383 81.7345 135.383 81.3349C135.383 80.928 135.452 80.5715 135.591 80.2651C135.729 79.9588 135.925 79.7207 136.179 79.5508C136.436 79.3785 136.74 79.2923 137.092 79.2923C137.454 79.2923 137.761 79.3797 138.015 79.5544C138.272 79.7267 138.467 79.9672 138.601 80.2759C138.737 80.5822 138.805 80.9352 138.805 81.3349C138.805 81.7417 138.737 82.0995 138.601 82.4082C138.465 82.7145 138.269 82.9538 138.012 83.1262C137.756 83.2985 137.449 83.3846 137.092 83.3846ZM137.092 82.8785C137.494 82.8785 137.792 82.7361 137.989 82.4513C138.185 82.1641 138.283 81.792 138.283 81.3349C138.283 80.8658 138.184 80.4925 137.985 80.2149C137.789 79.9373 137.491 79.7985 137.092 79.7985C136.823 79.7985 136.6 79.8643 136.423 79.9959C136.249 80.1251 136.119 80.3058 136.032 80.5379C135.947 80.7677 135.905 81.0333 135.905 81.3349C135.905 81.8015 136.005 82.1761 136.206 82.4585C136.407 82.7385 136.702 82.8785 137.092 82.8785Z" fill="#5E6B77"/>
<path d="M139.539 83.2769V79.4H142.412V83.2769H141.921V79.9062H140.031V83.2769H139.539Z" fill="#5E6B77"/>
<path d="M143.866 85L144.565 82.9646L144.575 83.5677L142.993 79.4H143.515L144.813 82.8856H144.599L145.796 79.4H146.298L144.358 85H143.866Z" fill="#5E6B77"/>
<path d="M150.996 83.9482V83.2769H146.875V79.4H147.354V82.7887H148.708V79.4H149.187V82.7887H150.538V79.4H151.016V82.7887H151.488V83.9482H150.996Z" fill="#5E6B77"/>
<path d="M153.548 83.3846C153.196 83.3846 152.891 83.3009 152.632 83.1333C152.376 82.9658 152.176 82.7301 152.033 82.4262C151.891 82.1222 151.819 81.7656 151.819 81.3564C151.819 80.9328 151.89 80.5667 152.03 80.2579C152.17 79.9492 152.368 79.7111 152.622 79.5436C152.878 79.3761 153.181 79.2923 153.528 79.2923C153.885 79.2923 154.19 79.3809 154.442 79.5579C154.693 79.7326 154.884 79.9839 155.013 80.3118C155.143 80.6397 155.202 81.0309 155.191 81.4856H154.689V81.299C154.68 80.7964 154.579 80.4171 154.385 80.161C154.193 79.905 153.912 79.7769 153.542 79.7769C153.154 79.7769 152.856 79.9121 152.649 80.1826C152.444 80.453 152.341 80.8383 152.341 81.3385C152.341 81.8267 152.444 82.206 152.649 82.4764C152.856 82.7444 153.149 82.8785 153.528 82.8785C153.787 82.8785 154.012 82.815 154.204 82.6882C154.398 82.559 154.551 82.3735 154.662 82.1318L155.12 82.3221C154.978 82.6595 154.767 82.9215 154.488 83.1082C154.212 83.2925 153.899 83.3846 153.548 83.3846ZM152.167 81.4856V81.0441H154.927V81.4856H152.167Z" fill="#5E6B77"/>
<path d="M155.93 83.2769V79.4H156.421V81.0836H158.458V79.4H158.95V83.2769H158.458V81.5897H156.421V83.2769H155.93Z" fill="#5E6B77"/>
<path d="M159.882 83.2769V79.4H160.374V81.0836H162.41V79.4H162.902V83.2769H162.41V81.5897H160.374V83.2769H159.882Z" fill="#5E6B77"/>
<path d="M163.841 83.2769L163.834 79.4H164.329V80.861H164.958C165.063 80.861 165.165 80.8634 165.266 80.8682C165.366 80.873 165.456 80.8826 165.537 80.8969C165.715 80.9352 165.873 80.9998 166.012 81.0908C166.15 81.1817 166.259 81.3074 166.339 81.4677C166.42 81.6256 166.46 81.8255 166.46 82.0672C166.46 82.3998 166.379 82.6619 166.219 82.8533C166.058 83.0448 165.857 83.1692 165.614 83.2267C165.522 83.2482 165.423 83.2626 165.316 83.2697C165.209 83.2745 165.104 83.2769 165.001 83.2769H163.841ZM164.329 82.8246H164.981C165.055 82.8246 165.139 82.8222 165.232 82.8174C165.326 82.8126 165.408 82.7995 165.48 82.7779C165.6 82.7421 165.708 82.6703 165.804 82.5626C165.902 82.4525 165.951 82.2874 165.951 82.0672C165.951 81.8494 165.905 81.6855 165.811 81.5754C165.717 81.4629 165.592 81.3887 165.436 81.3528C165.365 81.3361 165.289 81.3253 165.209 81.3205C165.131 81.3157 165.055 81.3133 164.981 81.3133H164.329V82.8246ZM166.891 83.2769V79.4H167.383V83.2769H166.891Z" fill="#5E6B77"/>
<path d="M169.847 83.3846C169.495 83.3846 169.19 83.3009 168.931 83.1333C168.675 82.9658 168.475 82.7301 168.332 82.4262C168.19 82.1222 168.118 81.7656 168.118 81.3564C168.118 80.9328 168.188 80.5667 168.329 80.2579C168.469 79.9492 168.667 79.7111 168.921 79.5436C169.177 79.3761 169.479 79.2923 169.827 79.2923C170.184 79.2923 170.488 79.3809 170.74 79.5579C170.992 79.7326 171.183 79.9839 171.312 80.3118C171.442 80.6397 171.501 81.0309 171.49 81.4856H170.988V81.299C170.979 80.7964 170.878 80.4171 170.684 80.161C170.492 79.905 170.211 79.7769 169.841 79.7769C169.453 79.7769 169.155 79.9121 168.948 80.1826C168.743 80.453 168.64 80.8383 168.64 81.3385C168.64 81.8267 168.743 82.206 168.948 82.4764C169.155 82.7444 169.448 82.8785 169.827 82.8785C170.086 82.8785 170.311 82.815 170.503 82.6882C170.697 82.559 170.85 82.3735 170.961 82.1318L171.419 82.3221C171.277 82.6595 171.066 82.9215 170.787 83.1082C170.511 83.2925 170.197 83.3846 169.847 83.3846ZM168.466 81.4856V81.0441H171.225V81.4856H168.466Z" fill="#5E6B77"/>
<path d="M177.089 83.2769V78.6964L176.183 79.2815V78.6892L177.089 78.1077H177.587V83.2769H177.089Z" fill="#5E6B77"/>
<path d="M180.428 83.3846C180.131 83.3846 179.864 83.3104 179.625 83.1621C179.389 83.0137 179.202 82.8126 179.063 82.559C178.925 82.3029 178.856 82.0157 178.856 81.6974V79.6872C178.856 79.3689 178.925 79.0829 179.063 78.8292C179.202 78.5732 179.389 78.3709 179.625 78.2226C179.864 78.0742 180.131 78 180.428 78C180.725 78 180.991 78.0742 181.227 78.2226C181.466 78.3709 181.654 78.5732 181.793 78.8292C181.931 79.0829 182 79.3689 182 79.6872V81.6974C182 82.0157 181.931 82.3029 181.793 82.559C181.654 82.8126 181.466 83.0137 181.227 83.1621C180.991 83.3104 180.725 83.3846 180.428 83.3846ZM180.428 82.8749C180.626 82.8749 180.807 82.8234 180.97 82.7205C181.133 82.6152 181.262 82.4752 181.358 82.3005C181.454 82.1258 181.502 81.9332 181.502 81.7226V79.6621C181.502 79.4491 181.454 79.2552 181.358 79.0805C181.262 78.9058 181.133 78.767 180.97 78.6641C180.807 78.5588 180.626 78.5062 180.428 78.5062C180.23 78.5062 180.049 78.5588 179.886 78.6641C179.723 78.767 179.594 78.9058 179.498 79.0805C179.402 79.2552 179.354 79.4491 179.354 79.6621V81.7226C179.354 81.9332 179.402 82.1258 179.498 82.3005C179.594 82.4752 179.723 82.6152 179.886 82.7205C180.049 82.8234 180.23 82.8749 180.428 82.8749Z" fill="#5E6B77"/>
<path d="M197.681 83.1429H197.181V78.925L194.5 83.1429H194V78H194.5V82.2143L197.181 78H197.681V83.1429Z" fill="#5E6B77"/>
<path d="M200.142 83.25C199.775 83.25 199.464 83.1631 199.209 82.9893C198.955 82.8155 198.761 82.5762 198.628 82.2714C198.497 81.9643 198.43 81.6119 198.425 81.2143C198.43 80.8095 198.499 80.4548 198.635 80.15C198.77 79.8429 198.965 79.6048 199.219 79.4357C199.474 79.2643 199.783 79.1786 200.146 79.1786C200.515 79.1786 200.836 79.2738 201.109 79.4643C201.384 79.6548 201.572 79.9155 201.673 80.2464L201.187 80.4107C201.101 80.1798 200.965 80.0012 200.778 79.875C200.593 79.7464 200.381 79.6821 200.142 79.6821C199.874 79.6821 199.652 79.7476 199.476 79.8786C199.301 80.0071 199.17 80.1869 199.084 80.4179C198.999 80.6488 198.955 80.9143 198.952 81.2143C198.957 81.6762 199.058 82.0476 199.257 82.3286C199.455 82.6071 199.75 82.7464 200.142 82.7464C200.39 82.7464 200.601 82.6869 200.774 82.5679C200.95 82.4464 201.083 82.2702 201.173 82.0393L201.673 82.1964C201.538 82.5393 201.34 82.8012 201.079 82.9821C200.817 83.1607 200.505 83.25 200.142 83.25Z" fill="#5E6B77"/>
<path d="M201.966 83.1429L203.392 81.1929L201.996 79.2857H202.591L203.683 80.7893L204.764 79.2857H205.359L203.963 81.1929L205.393 83.1429H204.795L203.683 81.5964L202.564 83.1429H201.966Z" fill="#5E6B77"/>
<path d="M207.329 83.25C206.966 83.25 206.656 83.1631 206.399 82.9893C206.142 82.8155 205.945 82.575 205.808 82.2679C205.67 81.9607 205.601 81.6083 205.601 81.2107C205.601 80.806 205.671 80.4512 205.811 80.1464C205.951 79.8417 206.149 79.6048 206.406 79.4357C206.665 79.2643 206.973 79.1786 207.329 79.1786C207.694 79.1786 208.005 79.2655 208.262 79.4393C208.521 79.6107 208.718 79.85 208.853 80.1571C208.991 80.4619 209.059 80.8131 209.059 81.2107C209.059 81.6155 208.991 81.9714 208.853 82.2786C208.716 82.5833 208.517 82.8214 208.258 82.9929C207.999 83.1643 207.689 83.25 207.329 83.25ZM207.329 82.7464C207.734 82.7464 208.036 82.6048 208.235 82.3214C208.433 82.0357 208.532 81.6655 208.532 81.2107C208.532 80.744 208.432 80.3726 208.231 80.0964C208.033 79.8202 207.732 79.6821 207.329 79.6821C207.056 79.6821 206.831 79.7476 206.653 79.8786C206.477 80.0071 206.345 80.1869 206.257 80.4179C206.172 80.6464 206.129 80.9107 206.129 81.2107C206.129 81.675 206.23 82.0476 206.433 82.3286C206.636 82.6071 206.934 82.7464 207.329 82.7464Z" fill="#5E6B77"/>
<path d="M209.535 84V82.6929C209.742 82.6929 209.891 82.6226 209.981 82.4821C210.071 82.3393 210.144 82.1119 210.2 81.8C210.239 81.5976 210.27 81.3798 210.295 81.1464C210.32 80.9131 210.341 80.6464 210.359 80.3464C210.377 80.044 210.394 79.6905 210.41 79.2857H212.823V82.6929H213.175V84H212.695V83.1429H210.011V84H209.535ZM210.376 82.6929H212.33V79.7357H210.87C210.863 79.9167 210.853 80.1083 210.839 80.3107C210.828 80.5131 210.813 80.7155 210.795 80.9179C210.78 81.1202 210.76 81.3107 210.738 81.4893C210.718 81.6655 210.693 81.8202 210.664 81.9536C210.63 82.125 210.593 82.2714 210.552 82.3929C210.514 82.5143 210.455 82.6143 210.376 82.6929Z" fill="#5E6B77"/>
<path d="M216.14 83.1429V81.6893H215.289C215.189 81.6893 215.087 81.6857 214.981 81.6786C214.877 81.669 214.78 81.656 214.69 81.6393C214.433 81.5869 214.215 81.4679 214.034 81.2821C213.856 81.094 213.767 80.8345 213.767 80.5036C213.767 80.1798 213.851 79.9202 214.018 79.725C214.184 79.5274 214.386 79.3988 214.623 79.3393C214.731 79.3131 214.84 79.2976 214.95 79.2929C215.063 79.2881 215.16 79.2857 215.241 79.2857H216.637L216.641 83.1429H216.14ZM213.649 83.1429L214.667 81.525H215.218L214.193 83.1429H213.649ZM215.261 81.2393H216.14V79.7357H215.261C215.207 79.7357 215.132 79.7381 215.035 79.7429C214.938 79.7476 214.847 79.7631 214.761 79.7893C214.687 79.8131 214.612 79.8548 214.538 79.9143C214.466 79.9714 214.405 80.0488 214.356 80.1464C214.306 80.2417 214.281 80.3583 214.281 80.4964C214.281 80.6893 214.331 80.844 214.43 80.9607C214.531 81.075 214.658 81.1536 214.809 81.1964C214.89 81.2155 214.971 81.2274 215.052 81.2321C215.133 81.2369 215.203 81.2393 215.261 81.2393Z" fill="#5E6B77"/>
<path d="M221.75 83.8107V83.1429H217.585V79.2857H218.069V82.6571H219.438V79.2857H219.921V82.6571H221.287V79.2857H221.77V82.6571H222.246V83.8107H221.75Z" fill="#5E6B77"/>
<path d="M225.684 79.2857V83.1429H225.201V80.1393L223.2 83.1429H222.781V79.2857H223.264V82.2643L225.269 79.2857H225.684Z" fill="#5E6B77"/>
<path d="M228.178 83.25C227.822 83.25 227.513 83.1667 227.252 83C226.993 82.8333 226.791 82.5988 226.647 82.2964C226.503 81.994 226.43 81.6393 226.43 81.2321C226.43 80.8107 226.501 80.4464 226.643 80.1393C226.785 79.8321 226.985 79.5952 227.242 79.4286C227.501 79.2619 227.806 79.1786 228.158 79.1786C228.518 79.1786 228.826 79.2667 229.08 79.4429C229.335 79.6167 229.528 79.8667 229.658 80.1929C229.789 80.519 229.849 80.9083 229.838 81.3607H229.331V81.175C229.322 80.675 229.219 80.2976 229.023 80.0429C228.829 79.7881 228.545 79.6607 228.171 79.6607C227.779 79.6607 227.478 79.7952 227.269 80.0643C227.061 80.3333 226.958 80.7167 226.958 81.2143C226.958 81.7 227.061 82.0774 227.269 82.3464C227.478 82.6131 227.775 82.7464 228.158 82.7464C228.419 82.7464 228.647 82.6833 228.84 82.5571C229.037 82.4286 229.191 82.244 229.304 82.0036L229.767 82.1929C229.622 82.5286 229.409 82.7893 229.128 82.975C228.848 83.1583 228.532 83.25 228.178 83.25ZM226.782 81.3607V80.9214H229.571V81.3607H226.782Z" fill="#5E6B77"/>
<path d="M235.496 83.1429V78.5857L234.58 79.1679V78.5786L235.496 78H236V83.1429H235.496Z" fill="#5E6B77"/>
<line x1="20" y1="105.5" x2="270" y2="105.5" stroke="#EFEFEF"/>
<path d="M36.8009 116.166V114.787H35.4219V114.346H36.8009V112.967H37.2419V114.346H38.6174V114.787H37.2419V116.166H36.8009Z" fill="#5E6B77"/>
<path d="M39.7946 117.087L41.6496 112.547H39.3151V112.047H42.1991V112.547L40.3476 117.087H39.7946Z" fill="#5E6B77"/>
<path d="M46.2496 118.133C45.9743 117.818 45.7375 117.467 45.5391 117.08C45.3431 116.69 45.1915 116.282 45.0841 115.855C44.9791 115.428 44.9278 114.998 44.9301 114.567C44.9278 114.135 44.9791 113.706 45.0841 113.279C45.1915 112.849 45.3431 112.441 45.5391 112.053C45.7375 111.666 45.9743 111.315 46.2496 111L46.6276 111.294C46.3569 111.618 46.1306 111.959 45.9486 112.316C45.7666 112.671 45.6301 113.037 45.5391 113.415C45.4504 113.793 45.405 114.177 45.4026 114.567C45.405 114.952 45.4516 115.335 45.5426 115.718C45.636 116.098 45.7725 116.468 45.9521 116.828C46.1341 117.185 46.3593 117.519 46.6276 117.832L46.2496 118.133Z" fill="#5E6B77"/>
<path d="M49.6396 117.087V116.11H47.2806V115.62L48.9676 112.047H49.5451L47.8581 115.62H49.6396V114.15H50.1576V115.62H50.7071V116.11H50.1576V117.087H49.6396Z" fill="#5E6B77"/>
<path d="M53.1401 111.945C53.4575 111.945 53.7445 112.022 54.0011 112.176C54.2601 112.328 54.4655 112.535 54.6171 112.799C54.7688 113.06 54.8446 113.354 54.8446 113.681V115.431C54.8446 115.767 54.7688 116.068 54.6171 116.334C54.4655 116.6 54.2578 116.81 53.9941 116.964C53.7328 117.116 53.4353 117.192 53.1016 117.192C52.8146 117.192 52.5486 117.128 52.3036 117.003C52.061 116.874 51.8603 116.698 51.7016 116.474L52.0936 116.149C52.201 116.314 52.3433 116.447 52.5206 116.548C52.7003 116.648 52.894 116.698 53.1016 116.698C53.3396 116.698 53.5496 116.642 53.7316 116.53C53.916 116.416 54.0606 116.266 54.1656 116.082C54.273 115.895 54.3266 115.694 54.3266 115.477V114.378L54.4526 114.525C54.308 114.756 54.1155 114.942 53.8751 115.085C53.6371 115.227 53.3758 115.298 53.0911 115.298C52.7808 115.298 52.4996 115.223 52.2476 115.074C51.998 114.925 51.7996 114.724 51.6526 114.472C51.508 114.22 51.4356 113.939 51.4356 113.629C51.4356 113.318 51.5126 113.036 51.6666 112.782C51.8206 112.525 52.0271 112.322 52.2861 112.173C52.5451 112.021 52.8298 111.945 53.1401 111.945ZM53.1401 112.442C52.9208 112.442 52.7213 112.496 52.5416 112.603C52.362 112.708 52.2185 112.85 52.1111 113.03C52.0061 113.21 51.9536 113.409 51.9536 113.629C51.9536 113.848 52.0061 114.047 52.1111 114.227C52.2161 114.407 52.3585 114.55 52.5381 114.658C52.7178 114.763 52.9173 114.815 53.1366 114.815C53.356 114.815 53.5555 114.763 53.7351 114.658C53.9171 114.55 54.0606 114.407 54.1656 114.227C54.273 114.047 54.3266 113.848 54.3266 113.629C54.3266 113.411 54.273 113.213 54.1656 113.033C54.0606 112.854 53.9183 112.71 53.7386 112.603C53.559 112.496 53.3595 112.442 53.1401 112.442Z" fill="#5E6B77"/>
<path d="M57.3095 117.192C57.0481 117.192 56.8066 117.138 56.585 117.031C56.3633 116.923 56.1743 116.775 56.018 116.586C55.8616 116.397 55.7496 116.18 55.682 115.935L56.1755 115.802C56.2198 115.984 56.3003 116.142 56.417 116.275C56.5336 116.405 56.6701 116.507 56.8265 116.579C56.9851 116.651 57.1508 116.688 57.3235 116.688C57.5475 116.688 57.7481 116.634 57.9255 116.527C58.1051 116.417 58.2475 116.272 58.3525 116.093C58.4575 115.913 58.51 115.716 58.51 115.501C58.51 115.279 58.4551 115.08 58.3455 114.903C58.2358 114.723 58.0911 114.581 57.9115 114.476C57.7318 114.371 57.5358 114.318 57.3235 114.318C57.0855 114.318 56.8801 114.371 56.7075 114.476C56.5348 114.578 56.3971 114.708 56.2945 114.864L55.8255 114.668L55.9795 112.047H58.671V112.54H56.207L56.4625 112.299L56.326 114.535L56.1965 114.364C56.3411 114.198 56.5161 114.068 56.7215 113.975C56.9268 113.882 57.1426 113.835 57.369 113.835C57.6793 113.835 57.9593 113.91 58.209 114.059C58.4586 114.206 58.657 114.406 58.804 114.658C58.951 114.91 59.0245 115.191 59.0245 115.501C59.0245 115.809 58.9463 116.091 58.79 116.348C58.6336 116.602 58.426 116.807 58.167 116.961C57.908 117.115 57.6221 117.192 57.3095 117.192Z" fill="#5E6B77"/>
<path d="M60.0545 118.133L59.6765 117.832C59.9448 117.519 60.1688 117.185 60.3485 116.828C60.5305 116.468 60.667 116.098 60.758 115.718C60.8513 115.335 60.8992 114.952 60.9015 114.567C60.8992 114.177 60.8525 113.793 60.7615 113.415C60.6728 113.037 60.5375 112.671 60.3555 112.316C60.1735 111.959 59.9472 111.618 59.6765 111.294L60.0545 111C60.3298 111.315 60.5655 111.666 60.7615 112.053C60.9598 112.441 61.1115 112.849 61.2165 113.279C61.3238 113.706 61.3763 114.135 61.374 114.567C61.3763 114.998 61.3238 115.428 61.2165 115.855C61.1115 116.282 60.9598 116.69 60.7615 117.08C60.5655 117.467 60.3298 117.818 60.0545 118.133Z" fill="#5E6B77"/>
<path d="M62.9405 117.087V116.488H63.539V117.087H62.9405Z" fill="#5E6B77"/>
<path d="M64.7178 117.087V116.488H65.3163V117.087H64.7178Z" fill="#5E6B77"/>
<path d="M66.4951 117.087V116.488H67.0936V117.087H66.4951Z" fill="#5E6B77"/>
<path d="M86.1406 117.086L87.8766 112.046H88.5591L90.2951 117.086H89.7596L88.1111 112.333H88.3141L86.6761 117.086H86.1406ZM86.9141 115.865V115.382H89.5181V115.865H86.9141Z" fill="#5E6B77"/>
<path d="M90.5771 117.086V116.635C90.7171 116.66 90.8233 116.655 90.8956 116.617C90.9703 116.578 91.0251 116.512 91.0601 116.421C91.0951 116.328 91.1243 116.212 91.1476 116.075C91.185 115.846 91.2188 115.594 91.2491 115.319C91.2795 115.043 91.3063 114.74 91.3296 114.409C91.3553 114.075 91.381 113.708 91.4066 113.306H93.9756V117.086H93.4646V113.8H91.8826C91.8663 114.047 91.8476 114.293 91.8266 114.538C91.8056 114.783 91.7835 115.019 91.7601 115.245C91.7391 115.469 91.7158 115.676 91.6901 115.865C91.6645 116.054 91.6376 116.217 91.6096 116.355C91.5676 116.562 91.5116 116.728 91.4416 116.852C91.374 116.975 91.2725 117.057 91.1371 117.097C91.0018 117.136 90.8151 117.133 90.5771 117.086Z" fill="#5E6B77"/>
<path d="M96.553 117.191C96.1843 117.191 95.8647 117.11 95.594 116.946C95.3257 116.783 95.1168 116.553 94.9675 116.257C94.8182 115.96 94.7435 115.613 94.7435 115.214C94.7435 114.801 94.817 114.444 94.964 114.143C95.111 113.842 95.3175 113.61 95.5835 113.446C95.8518 113.283 96.168 113.201 96.532 113.201C96.9053 113.201 97.2238 113.288 97.4875 113.46C97.7512 113.631 97.9507 113.876 98.086 114.195C98.2213 114.515 98.2832 114.896 98.2715 115.34H97.7465V115.158C97.7372 114.668 97.631 114.298 97.428 114.048C97.2273 113.799 96.9333 113.674 96.546 113.674C96.14 113.674 95.8285 113.806 95.6115 114.069C95.3968 114.333 95.2895 114.709 95.2895 115.196C95.2895 115.672 95.3968 116.042 95.6115 116.306C95.8285 116.567 96.1353 116.698 96.532 116.698C96.8027 116.698 97.0383 116.636 97.239 116.512C97.442 116.386 97.6018 116.205 97.7185 115.97L98.198 116.155C98.0487 116.484 97.8282 116.74 97.5365 116.922C97.2472 117.101 96.9193 117.191 96.553 117.191ZM95.1075 115.34V114.909H97.995V115.34H95.1075Z" fill="#5E6B77"/>
<path d="M99.0447 117.086L99.0482 113.306H99.5662V115.126L101.253 113.306H101.939L100.168 115.196L102.17 117.086H101.421L99.5662 115.266V117.086H99.0447Z" fill="#5E6B77"/>
<path d="M104.021 117.191C103.64 117.191 103.318 117.106 103.055 116.936C102.791 116.765 102.59 116.531 102.453 116.232C102.317 115.931 102.247 115.586 102.243 115.196C102.247 114.8 102.32 114.452 102.46 114.153C102.6 113.852 102.801 113.619 103.065 113.453C103.329 113.285 103.648 113.201 104.024 113.201C104.407 113.201 104.739 113.295 105.022 113.481C105.306 113.668 105.501 113.923 105.606 114.248L105.102 114.409C105.013 114.182 104.872 114.007 104.679 113.884C104.487 113.758 104.268 113.695 104.021 113.695C103.743 113.695 103.513 113.759 103.331 113.887C103.149 114.013 103.014 114.189 102.925 114.416C102.836 114.642 102.791 114.902 102.789 115.196C102.793 115.649 102.898 116.013 103.104 116.288C103.309 116.561 103.615 116.698 104.021 116.698C104.277 116.698 104.495 116.639 104.675 116.523C104.857 116.404 104.995 116.231 105.088 116.005L105.606 116.159C105.466 116.495 105.261 116.751 104.99 116.929C104.719 117.104 104.396 117.191 104.021 117.191Z" fill="#5E6B77"/>
<path d="M107.928 117.191C107.559 117.191 107.24 117.11 106.969 116.946C106.701 116.783 106.492 116.553 106.343 116.257C106.193 115.96 106.119 115.613 106.119 115.214C106.119 114.801 106.192 114.444 106.339 114.143C106.486 113.842 106.693 113.61 106.959 113.446C107.227 113.283 107.543 113.201 107.907 113.201C108.28 113.201 108.599 113.288 108.863 113.46C109.126 113.631 109.326 113.876 109.461 114.195C109.596 114.515 109.658 114.896 109.647 115.34H109.122V115.158C109.112 114.668 109.006 114.298 108.803 114.048C108.602 113.799 108.308 113.674 107.921 113.674C107.515 113.674 107.204 113.806 106.987 114.069C106.772 114.333 106.665 114.709 106.665 115.196C106.665 115.672 106.772 116.042 106.987 116.306C107.204 116.567 107.51 116.698 107.907 116.698C108.178 116.698 108.413 116.636 108.614 116.512C108.817 116.386 108.977 116.205 109.094 115.97L109.573 116.155C109.424 116.484 109.203 116.74 108.912 116.922C108.622 117.101 108.294 117.191 107.928 117.191ZM106.483 115.34V114.909H109.37V115.34H106.483Z" fill="#5E6B77"/>
<path d="M111.991 112.858C111.826 112.858 111.674 112.817 111.536 112.736C111.399 112.654 111.289 112.546 111.207 112.41C111.128 112.273 111.088 112.121 111.088 111.955H111.515C111.515 112.086 111.562 112.198 111.655 112.291C111.749 112.385 111.861 112.431 111.991 112.431C112.124 112.431 112.236 112.385 112.327 112.291C112.421 112.198 112.467 112.086 112.467 111.955H112.894C112.894 112.121 112.853 112.273 112.772 112.41C112.692 112.546 112.584 112.654 112.446 112.736C112.309 112.817 112.157 112.858 111.991 112.858ZM113.426 113.306V117.086H112.926V114.143L110.854 117.086H110.42V113.306H110.92V116.225L112.996 113.306H113.426Z" fill="#5E6B77"/>
<path d="M136.484 117.086V113.306H136.999V114.948H139.13V113.306H139.645V117.086H139.13V115.441H136.999V117.086H136.484Z" fill="#2B8FEB"/>
<path d="M142.223 117.191C141.854 117.191 141.535 117.11 141.264 116.946C140.996 116.783 140.787 116.553 140.638 116.257C140.488 115.961 140.414 115.613 140.414 115.214C140.414 114.801 140.487 114.444 140.634 114.143C140.781 113.842 140.988 113.61 141.254 113.446C141.522 113.283 141.838 113.201 142.202 113.201C142.575 113.201 142.894 113.288 143.158 113.46C143.421 113.631 143.621 113.876 143.756 114.195C143.891 114.515 143.953 114.897 143.942 115.34H143.417V115.158C143.407 114.668 143.301 114.298 143.098 114.048C142.897 113.799 142.603 113.674 142.216 113.674C141.81 113.674 141.499 113.806 141.282 114.069C141.067 114.333 140.96 114.709 140.96 115.196C140.96 115.672 141.067 116.042 141.282 116.306C141.499 116.567 141.805 116.698 142.202 116.698C142.473 116.698 142.708 116.636 142.909 116.512C143.112 116.386 143.272 116.206 143.389 115.97L143.868 116.155C143.719 116.484 143.498 116.74 143.207 116.922C142.917 117.102 142.589 117.191 142.223 117.191ZM140.778 115.34V114.909H143.665V115.34H140.778Z" fill="#2B8FEB"/>
<path d="M145.84 117.926V116.645C146.054 116.645 146.208 116.577 146.302 116.439C146.395 116.299 146.471 116.076 146.529 115.77C146.569 115.572 146.602 115.359 146.627 115.13C146.653 114.901 146.675 114.64 146.694 114.346C146.712 114.05 146.73 113.703 146.746 113.306H149.245V116.645H149.609V117.926H149.112V117.086H146.333V117.926H145.84ZM146.711 116.645H148.734V113.747H147.222C147.215 113.925 147.205 114.113 147.191 114.311C147.179 114.509 147.164 114.708 147.145 114.906C147.129 115.104 147.109 115.291 147.086 115.466C147.065 115.639 147.039 115.79 147.009 115.921C146.974 116.089 146.935 116.232 146.893 116.351C146.854 116.47 146.793 116.568 146.711 116.645Z" fill="#2B8FEB"/>
<path d="M151.889 117.191C151.513 117.191 151.192 117.106 150.926 116.936C150.66 116.766 150.456 116.53 150.314 116.229C150.171 115.928 150.1 115.583 150.1 115.193C150.1 114.796 150.172 114.449 150.317 114.15C150.462 113.851 150.667 113.619 150.933 113.453C151.201 113.285 151.52 113.201 151.889 113.201C152.267 113.201 152.589 113.287 152.855 113.457C153.123 113.625 153.327 113.859 153.467 114.16C153.609 114.459 153.681 114.803 153.681 115.193C153.681 115.59 153.609 115.938 153.467 116.239C153.325 116.538 153.119 116.771 152.851 116.939C152.583 117.107 152.262 117.191 151.889 117.191ZM151.889 116.698C152.309 116.698 152.621 116.559 152.827 116.281C153.032 116.001 153.135 115.639 153.135 115.193C153.135 114.736 153.031 114.372 152.823 114.101C152.618 113.83 152.306 113.695 151.889 113.695C151.606 113.695 151.373 113.759 151.189 113.887C151.007 114.013 150.87 114.19 150.779 114.416C150.69 114.64 150.646 114.899 150.646 115.193C150.646 115.648 150.751 116.013 150.961 116.288C151.171 116.561 151.48 116.698 151.889 116.698Z" fill="#2B8FEB"/>
<path d="M153.964 117.086L155.56 115.196L154.031 113.306H154.612L156.103 115.172V113.306H156.579V115.172L158.07 113.306H158.647L157.118 115.196L158.714 117.086H158.115L156.579 115.221V117.086H156.103V115.221L154.563 117.086H153.964Z" fill="#2B8FEB"/>
<path d="M158.855 117.926V116.645C159.07 116.645 159.224 116.577 159.317 116.439C159.411 116.299 159.487 116.076 159.545 115.77C159.585 115.572 159.617 115.359 159.643 115.13C159.669 114.901 159.691 114.64 159.709 114.346C159.728 114.05 159.746 113.703 159.762 113.306H162.261V116.645H162.625V117.926H162.128V117.086H159.349V117.926H158.855ZM159.727 116.645H161.75V113.747H160.238C160.231 113.925 160.22 114.113 160.206 114.311C160.195 114.509 160.18 114.708 160.161 114.906C160.145 115.104 160.125 115.291 160.101 115.466C160.08 115.639 160.055 115.79 160.024 115.921C159.989 116.089 159.951 116.232 159.909 116.351C159.869 116.47 159.809 116.568 159.727 116.645Z" fill="#2B8FEB"/>
<path d="M164.407 117.191C164.123 117.191 163.883 117.14 163.69 117.037C163.498 116.935 163.355 116.798 163.259 116.628C163.164 116.458 163.116 116.272 163.116 116.071C163.116 115.866 163.157 115.691 163.238 115.546C163.322 115.399 163.435 115.279 163.578 115.186C163.722 115.093 163.889 115.021 164.078 114.972C164.27 114.926 164.481 114.885 164.712 114.85C164.945 114.813 165.173 114.781 165.394 114.755C165.618 114.727 165.814 114.701 165.982 114.675L165.8 114.787C165.807 114.414 165.735 114.137 165.583 113.957C165.432 113.778 165.168 113.688 164.792 113.688C164.533 113.688 164.314 113.746 164.134 113.863C163.957 113.98 163.832 114.164 163.76 114.416L163.259 114.269C163.346 113.931 163.519 113.668 163.781 113.481C164.042 113.295 164.382 113.201 164.799 113.201C165.145 113.201 165.437 113.267 165.678 113.397C165.92 113.526 166.092 113.712 166.192 113.957C166.239 114.067 166.269 114.19 166.283 114.325C166.297 114.46 166.304 114.598 166.304 114.738V117.086H165.846V116.138L165.979 116.194C165.85 116.518 165.651 116.766 165.38 116.936C165.11 117.106 164.785 117.191 164.407 117.191ZM164.467 116.747C164.707 116.747 164.917 116.704 165.097 116.617C165.276 116.531 165.421 116.413 165.531 116.264C165.64 116.112 165.712 115.942 165.744 115.753C165.772 115.632 165.787 115.499 165.79 115.354C165.792 115.207 165.793 115.097 165.793 115.025L165.989 115.126C165.814 115.15 165.624 115.173 165.419 115.196C165.216 115.22 165.015 115.247 164.817 115.277C164.621 115.307 164.443 115.343 164.285 115.385C164.177 115.416 164.074 115.459 163.973 115.515C163.873 115.569 163.79 115.641 163.725 115.732C163.662 115.823 163.63 115.936 163.63 116.071C163.63 116.181 163.657 116.287 163.711 116.39C163.767 116.493 163.855 116.578 163.977 116.645C164.1 116.713 164.264 116.747 164.467 116.747Z" fill="#2B8FEB"/>
<path d="M166.865 117.086V116.635C167.005 116.661 167.112 116.655 167.184 116.617C167.259 116.578 167.313 116.512 167.348 116.421C167.383 116.328 167.413 116.213 167.436 116.075C167.473 115.846 167.507 115.594 167.537 115.319C167.568 115.044 167.595 114.74 167.618 114.409C167.644 114.075 167.669 113.708 167.695 113.306H170.264V117.086H169.753V113.8H168.171C168.155 114.047 168.136 114.293 168.115 114.538C168.094 114.783 168.072 115.019 168.048 115.245C168.027 115.469 168.004 115.676 167.978 115.865C167.953 116.054 167.926 116.217 167.898 116.355C167.856 116.563 167.8 116.728 167.73 116.852C167.662 116.976 167.561 117.057 167.425 117.097C167.29 117.137 167.103 117.133 166.865 117.086Z" fill="#2B8FEB"/>
<path d="M172.81 117.191C172.429 117.191 172.107 117.106 171.844 116.936C171.58 116.766 171.379 116.531 171.242 116.232C171.106 115.931 171.036 115.586 171.032 115.196C171.036 114.8 171.109 114.452 171.249 114.153C171.389 113.852 171.591 113.619 171.854 113.453C172.118 113.285 172.438 113.201 172.813 113.201C173.196 113.201 173.528 113.295 173.811 113.481C174.095 113.668 174.29 113.924 174.395 114.248L173.891 114.409C173.803 114.183 173.661 114.008 173.468 113.884C173.276 113.758 173.057 113.695 172.81 113.695C172.532 113.695 172.302 113.759 172.12 113.887C171.938 114.013 171.803 114.19 171.714 114.416C171.626 114.642 171.58 114.902 171.578 115.196C171.582 115.649 171.687 116.013 171.893 116.288C172.098 116.561 172.404 116.698 172.81 116.698C173.066 116.698 173.285 116.64 173.464 116.523C173.646 116.404 173.784 116.231 173.877 116.005L174.395 116.159C174.255 116.495 174.05 116.752 173.779 116.929C173.509 117.104 173.185 117.191 172.81 117.191Z" fill="#2B8FEB"/>
<path d="M177.467 117.086V115.662H176.585C176.482 115.662 176.376 115.658 176.266 115.651C176.159 115.642 176.059 115.629 175.965 115.613C175.699 115.562 175.473 115.445 175.286 115.263C175.102 115.079 175.01 114.824 175.01 114.5C175.01 114.183 175.096 113.928 175.269 113.737C175.441 113.543 175.65 113.417 175.895 113.359C176.007 113.333 176.12 113.318 176.235 113.313C176.351 113.309 176.452 113.306 176.536 113.306H177.981L177.985 117.086H177.467ZM174.887 117.086L175.941 115.501H176.511L175.451 117.086H174.887ZM176.557 115.221H177.467V113.747H176.557C176.501 113.747 176.423 113.75 176.322 113.754C176.222 113.759 176.127 113.774 176.039 113.8C175.962 113.823 175.885 113.864 175.808 113.922C175.733 113.978 175.67 114.054 175.619 114.15C175.567 114.243 175.542 114.358 175.542 114.493C175.542 114.682 175.593 114.834 175.696 114.948C175.801 115.06 175.931 115.137 176.088 115.179C176.172 115.198 176.256 115.209 176.34 115.214C176.424 115.219 176.496 115.221 176.557 115.221Z" fill="#2B8FEB"/>
</svg>
