<svg width="290" height="109" viewBox="0 0 290 109" fill="none" xmlns="http://www.w3.org/2000/svg">
<rect width="290" height="109" rx="12" fill="white"/>
<line x1="20" y1="32.5" x2="270" y2="32.5" stroke="#EFEFEF"/>
<line x1="20" y1="53.5" x2="270" y2="53.5" stroke="#EFEFEF"/>
<line x1="20" y1="74.5" x2="270" y2="74.5" stroke="#EFEFEF"/>
<path d="M20.4922 25.145V20.105H21.0067V22.485L23.3062 20.105H23.9642L21.6157 22.5375L24.1567 25.145H23.4847L21.0067 22.625V25.145H20.4922Z" fill="#5E6B77"/>
<path d="M24.0182 25.145V24.6935C24.1582 24.7191 24.2643 24.7133 24.3367 24.676C24.4113 24.6363 24.4662 24.571 24.5012 24.48C24.5362 24.3866 24.5653 24.2711 24.5887 24.1335C24.626 23.9048 24.6598 23.6528 24.6902 23.3775C24.7205 23.1021 24.7473 22.7988 24.7707 22.4675C24.7963 22.1338 24.822 21.7663 24.8477 21.365H27.4167V25.145H26.9057V21.8585H25.3237C25.3073 22.1058 25.2887 22.352 25.2677 22.597C25.2467 22.842 25.2245 23.0776 25.2012 23.304C25.1802 23.528 25.1568 23.7345 25.1312 23.9235C25.1055 24.1125 25.0787 24.2758 25.0507 24.4135C25.0087 24.6211 24.9527 24.7868 24.8827 24.9105C24.815 25.0341 24.7135 25.1158 24.5782 25.1555C24.4428 25.1951 24.2562 25.1916 24.0182 25.145Z" fill="#5E6B77"/>
<path d="M31.3975 21.365V25.145H30.897V22.2015L28.825 25.145H28.391V21.365H28.8915V24.284L30.967 21.365H31.3975Z" fill="#5E6B77"/>
<path d="M33.9794 25.25C33.6107 25.25 33.291 25.1683 33.0204 25.005C32.752 24.8416 32.5432 24.6118 32.3939 24.3155C32.2445 24.0191 32.1699 23.6715 32.1699 23.2725C32.1699 22.8595 32.2434 22.5025 32.3904 22.2015C32.5374 21.9005 32.7439 21.6683 33.0099 21.505C33.2782 21.3416 33.5944 21.26 33.9584 21.26C34.3317 21.26 34.6502 21.3463 34.9139 21.519C35.1776 21.6893 35.3771 21.9343 35.5124 22.254C35.6477 22.5736 35.7095 22.9551 35.6979 23.3985H35.1729V23.2165C35.1635 22.7265 35.0574 22.3566 34.8544 22.107C34.6537 21.8573 34.3597 21.7325 33.9724 21.7325C33.5664 21.7325 33.2549 21.8643 33.0379 22.128C32.8232 22.3916 32.7159 22.7673 32.7159 23.255C32.7159 23.731 32.8232 24.1008 33.0379 24.3645C33.2549 24.6258 33.5617 24.7565 33.9584 24.7565C34.229 24.7565 34.4647 24.6946 34.6654 24.571C34.8684 24.445 35.0282 24.2641 35.1449 24.0285L35.6244 24.214C35.475 24.543 35.2545 24.7985 34.9629 24.9805C34.6735 25.1601 34.3457 25.25 33.9794 25.25ZM32.5339 23.3985V22.968H35.4214V23.3985H32.5339Z" fill="#5E6B77"/>
<path d="M36.4711 25.145V21.365H36.9856V23.0065H39.1171V21.365H39.6316V25.145H39.1171V23.5H36.9856V25.145H36.4711Z" fill="#5E6B77"/>
<path d="M41.6359 25.145V21.841H40.2954V21.365H43.4909V21.841H42.1504V25.145H41.6359Z" fill="#5E6B77"/>
<path d="M21.8009 45.2246V43.8456H20.4219V43.4046H21.8009V42.0256H22.2419V43.4046H23.6174V43.8456H22.2419V45.2246H21.8009Z" fill="#5E6B77"/>
<path d="M24.7946 46.1451L26.6496 41.6056H24.3151V41.1051H27.1991V41.6056L25.3476 46.1451H24.7946Z" fill="#5E6B77"/>
<path d="M31.2496 47.1916C30.9743 46.8766 30.7375 46.5254 30.5391 46.1381C30.3431 45.7484 30.1915 45.3401 30.0841 44.9131C29.9791 44.4861 29.9278 44.0568 29.9301 43.6251C29.9278 43.1934 29.9791 42.7641 30.0841 42.3371C30.1915 41.9078 30.3431 41.4994 30.5391 41.1121C30.7375 40.7248 30.9743 40.3736 31.2496 40.0586L31.6276 40.3526C31.3569 40.6769 31.1306 41.0176 30.9486 41.3746C30.7666 41.7293 30.6301 42.0956 30.5391 42.4736C30.4504 42.8516 30.405 43.2354 30.4026 43.6251C30.405 44.0101 30.4516 44.3939 30.5426 44.7766C30.636 45.1569 30.7725 45.5268 30.9521 45.8861C31.1341 46.2431 31.3593 46.5779 31.6276 46.8906L31.2496 47.1916Z" fill="#5E6B77"/>
<path d="M34.6396 46.1451V45.1686H32.2806V44.6786L33.9676 41.1051H34.5451L32.8581 44.6786H34.6396V43.2086H35.1576V44.6786H35.7071V45.1686H35.1576V46.1451H34.6396Z" fill="#5E6B77"/>
<path d="M38.1401 41.0036C38.4575 41.0036 38.7445 41.0806 39.0011 41.2346C39.2601 41.3863 39.4655 41.5939 39.6171 41.8576C39.7688 42.1189 39.8446 42.4129 39.8446 42.7396V44.4896C39.8446 44.8256 39.7688 45.1266 39.6171 45.3926C39.4655 45.6586 39.2578 45.8686 38.9941 46.0226C38.7328 46.1743 38.4353 46.2501 38.1016 46.2501C37.8146 46.2501 37.5486 46.1871 37.3036 46.0611C37.061 45.9328 36.8603 45.7566 36.7016 45.5326L37.0936 45.2071C37.201 45.3728 37.3433 45.5058 37.5206 45.6061C37.7003 45.7064 37.894 45.7566 38.1016 45.7566C38.3396 45.7566 38.5496 45.7006 38.7316 45.5886C38.916 45.4743 39.0606 45.3249 39.1656 45.1406C39.273 44.9539 39.3266 44.7521 39.3266 44.5351V43.4361L39.4526 43.5831C39.308 43.8141 39.1155 44.0008 38.8751 44.1431C38.6371 44.2854 38.3758 44.3566 38.0911 44.3566C37.7808 44.3566 37.4996 44.2819 37.2476 44.1326C36.998 43.9833 36.7996 43.7826 36.6526 43.5306C36.508 43.2786 36.4356 42.9974 36.4356 42.6871C36.4356 42.3768 36.5126 42.0944 36.6666 41.8401C36.8206 41.5834 37.0271 41.3804 37.2861 41.2311C37.5451 41.0794 37.8298 41.0036 38.1401 41.0036ZM38.1401 41.5006C37.9208 41.5006 37.7213 41.5543 37.5416 41.6616C37.362 41.7666 37.2185 41.9089 37.1111 42.0886C37.0061 42.2683 36.9536 42.4678 36.9536 42.6871C36.9536 42.9064 37.0061 43.1059 37.1111 43.2856C37.2161 43.4653 37.3585 43.6088 37.5381 43.7161C37.7178 43.8211 37.9173 43.8736 38.1366 43.8736C38.356 43.8736 38.5555 43.8211 38.7351 43.7161C38.9171 43.6088 39.0606 43.4653 39.1656 43.2856C39.273 43.1059 39.3266 42.9064 39.3266 42.6871C39.3266 42.4701 39.273 42.2718 39.1656 42.0921C39.0606 41.9124 38.9183 41.7689 38.7386 41.6616C38.559 41.5543 38.3595 41.5006 38.1401 41.5006Z" fill="#5E6B77"/>
<path d="M42.3095 46.2501C42.0481 46.2501 41.8066 46.1964 41.585 46.0891C41.3633 45.9818 41.1743 45.8336 41.018 45.6446C40.8616 45.4556 40.7496 45.2386 40.682 44.9936L41.1755 44.8606C41.2198 45.0426 41.3003 45.2001 41.417 45.3331C41.5336 45.4638 41.6701 45.5653 41.8265 45.6376C41.9851 45.7099 42.1508 45.7461 42.3235 45.7461C42.5475 45.7461 42.7481 45.6924 42.9255 45.5851C43.1051 45.4754 43.2475 45.3308 43.3525 45.1511C43.4575 44.9714 43.51 44.7743 43.51 44.5596C43.51 44.3379 43.4551 44.1384 43.3455 43.9611C43.2358 43.7814 43.0911 43.6391 42.9115 43.5341C42.7318 43.4291 42.5358 43.3766 42.3235 43.3766C42.0855 43.3766 41.8801 43.4291 41.7075 43.5341C41.5348 43.6368 41.3971 43.7663 41.2945 43.9226L40.8255 43.7266L40.9795 41.1051H43.671V41.5986H41.207L41.4625 41.3571L41.326 43.5936L41.1965 43.4221C41.3411 43.2564 41.5161 43.1269 41.7215 43.0336C41.9268 42.9403 42.1426 42.8936 42.369 42.8936C42.6793 42.8936 42.9593 42.9683 43.209 43.1176C43.4586 43.2646 43.657 43.4641 43.804 43.7161C43.951 43.9681 44.0245 44.2493 44.0245 44.5596C44.0245 44.8676 43.9463 45.1499 43.79 45.4066C43.6336 45.6609 43.426 45.8651 43.167 46.0191C42.908 46.1731 42.6221 46.2501 42.3095 46.2501Z" fill="#5E6B77"/>
<path d="M45.0545 47.1916L44.6765 46.8906C44.9448 46.5779 45.1688 46.2431 45.3485 45.8861C45.5305 45.5268 45.667 45.1569 45.758 44.7766C45.8513 44.3939 45.8992 44.0101 45.9015 43.6251C45.8992 43.2354 45.8525 42.8516 45.7615 42.4736C45.6728 42.0956 45.5375 41.7293 45.3555 41.3746C45.1735 41.0176 44.9472 40.6769 44.6765 40.3526L45.0545 40.0586C45.3298 40.3736 45.5655 40.7248 45.7615 41.1121C45.9598 41.4994 46.1115 41.9078 46.2165 42.3371C46.3238 42.7641 46.3763 43.1934 46.374 43.6251C46.3763 44.0568 46.3238 44.4861 46.2165 44.9131C46.1115 45.3401 45.9598 45.7484 45.7615 46.1381C45.5655 46.5254 45.3298 46.8766 45.0545 47.1916Z" fill="#5E6B77"/>
<path d="M47.9405 46.1451V45.5466H48.539V46.1451H47.9405Z" fill="#5E6B77"/>
<path d="M49.7178 46.1451V45.5466H50.3163V46.1451H49.7178Z" fill="#5E6B77"/>
<path d="M51.4951 46.1451V45.5466H52.0936V46.1451H51.4951Z" fill="#5E6B77"/>
<path d="M21.8009 66.2246V64.8456H20.4219V64.4046H21.8009V63.0256H22.2419V64.4046H23.6174V64.8456H22.2419V66.2246H21.8009Z" fill="#5E6B77"/>
<path d="M24.7946 67.1451L26.6496 62.6056H24.3151V62.1051H27.1991V62.6056L25.3476 67.1451H24.7946Z" fill="#5E6B77"/>
<path d="M31.2496 68.1916C30.9743 67.8766 30.7375 67.5254 30.5391 67.1381C30.3431 66.7484 30.1915 66.3401 30.0841 65.9131C29.9791 65.4861 29.9278 65.0568 29.9301 64.6251C29.9278 64.1934 29.9791 63.7641 30.0841 63.3371C30.1915 62.9078 30.3431 62.4994 30.5391 62.1121C30.7375 61.7248 30.9743 61.3736 31.2496 61.0586L31.6276 61.3526C31.3569 61.6769 31.1306 62.0176 30.9486 62.3746C30.7666 62.7293 30.6301 63.0956 30.5391 63.4736C30.4504 63.8516 30.405 64.2354 30.4026 64.6251C30.405 65.0101 30.4516 65.3939 30.5426 65.7766C30.636 66.1569 30.7725 66.5268 30.9521 66.8861C31.1341 67.2431 31.3593 67.5779 31.6276 67.8906L31.2496 68.1916Z" fill="#5E6B77"/>
<path d="M34.6396 67.1451V66.1686H32.2806V65.6786L33.9676 62.1051H34.5451L32.8581 65.6786H34.6396V64.2086H35.1576V65.6786H35.7071V66.1686H35.1576V67.1451H34.6396Z" fill="#5E6B77"/>
<path d="M38.1401 62.0036C38.4575 62.0036 38.7445 62.0806 39.0011 62.2346C39.2601 62.3863 39.4655 62.5939 39.6171 62.8576C39.7688 63.1189 39.8446 63.4129 39.8446 63.7396V65.4896C39.8446 65.8256 39.7688 66.1266 39.6171 66.3926C39.4655 66.6586 39.2578 66.8686 38.9941 67.0226C38.7328 67.1743 38.4353 67.2501 38.1016 67.2501C37.8146 67.2501 37.5486 67.1871 37.3036 67.0611C37.061 66.9328 36.8603 66.7566 36.7016 66.5326L37.0936 66.2071C37.201 66.3728 37.3433 66.5058 37.5206 66.6061C37.7003 66.7064 37.894 66.7566 38.1016 66.7566C38.3396 66.7566 38.5496 66.7006 38.7316 66.5886C38.916 66.4743 39.0606 66.3249 39.1656 66.1406C39.273 65.9539 39.3266 65.7521 39.3266 65.5351V64.4361L39.4526 64.5831C39.308 64.8141 39.1155 65.0008 38.8751 65.1431C38.6371 65.2854 38.3758 65.3566 38.0911 65.3566C37.7808 65.3566 37.4996 65.2819 37.2476 65.1326C36.998 64.9833 36.7996 64.7826 36.6526 64.5306C36.508 64.2786 36.4356 63.9974 36.4356 63.6871C36.4356 63.3768 36.5126 63.0944 36.6666 62.8401C36.8206 62.5834 37.0271 62.3804 37.2861 62.2311C37.5451 62.0794 37.8298 62.0036 38.1401 62.0036ZM38.1401 62.5006C37.9208 62.5006 37.7213 62.5543 37.5416 62.6616C37.362 62.7666 37.2185 62.9089 37.1111 63.0886C37.0061 63.2683 36.9536 63.4678 36.9536 63.6871C36.9536 63.9064 37.0061 64.1059 37.1111 64.2856C37.2161 64.4653 37.3585 64.6088 37.5381 64.7161C37.7178 64.8211 37.9173 64.8736 38.1366 64.8736C38.356 64.8736 38.5555 64.8211 38.7351 64.7161C38.9171 64.6088 39.0606 64.4653 39.1656 64.2856C39.273 64.1059 39.3266 63.9064 39.3266 63.6871C39.3266 63.4701 39.273 63.2718 39.1656 63.0921C39.0606 62.9124 38.9183 62.7689 38.7386 62.6616C38.559 62.5543 38.3595 62.5006 38.1401 62.5006Z" fill="#5E6B77"/>
<path d="M42.3095 67.2501C42.0481 67.2501 41.8066 67.1964 41.585 67.0891C41.3633 66.9818 41.1743 66.8336 41.018 66.6446C40.8616 66.4556 40.7496 66.2386 40.682 65.9936L41.1755 65.8606C41.2198 66.0426 41.3003 66.2001 41.417 66.3331C41.5336 66.4638 41.6701 66.5653 41.8265 66.6376C41.9851 66.7099 42.1508 66.7461 42.3235 66.7461C42.5475 66.7461 42.7481 66.6924 42.9255 66.5851C43.1051 66.4754 43.2475 66.3308 43.3525 66.1511C43.4575 65.9714 43.51 65.7743 43.51 65.5596C43.51 65.3379 43.4551 65.1384 43.3455 64.9611C43.2358 64.7814 43.0911 64.6391 42.9115 64.5341C42.7318 64.4291 42.5358 64.3766 42.3235 64.3766C42.0855 64.3766 41.8801 64.4291 41.7075 64.5341C41.5348 64.6368 41.3971 64.7663 41.2945 64.9226L40.8255 64.7266L40.9795 62.1051H43.671V62.5986H41.207L41.4625 62.3571L41.326 64.5936L41.1965 64.4221C41.3411 64.2564 41.5161 64.1269 41.7215 64.0336C41.9268 63.9403 42.1426 63.8936 42.369 63.8936C42.6793 63.8936 42.9593 63.9683 43.209 64.1176C43.4586 64.2646 43.657 64.4641 43.804 64.7161C43.951 64.9681 44.0245 65.2493 44.0245 65.5596C44.0245 65.8676 43.9463 66.1499 43.79 66.4066C43.6336 66.6609 43.426 66.8651 43.167 67.0191C42.908 67.1731 42.6221 67.2501 42.3095 67.2501Z" fill="#5E6B77"/>
<path d="M45.0545 68.1916L44.6765 67.8906C44.9448 67.5779 45.1688 67.2431 45.3485 66.8861C45.5305 66.5268 45.667 66.1569 45.758 65.7766C45.8513 65.3939 45.8992 65.0101 45.9015 64.6251C45.8992 64.2354 45.8525 63.8516 45.7615 63.4736C45.6728 63.0956 45.5375 62.7293 45.3555 62.3746C45.1735 62.0176 44.9472 61.6769 44.6765 61.3526L45.0545 61.0586C45.3298 61.3736 45.5655 61.7248 45.7615 62.1121C45.9598 62.4994 46.1115 62.9078 46.2165 63.3371C46.3238 63.7641 46.3763 64.1934 46.374 64.6251C46.3763 65.0568 46.3238 65.4861 46.2165 65.9131C46.1115 66.3401 45.9598 66.7484 45.7615 67.1381C45.5655 67.5254 45.3298 67.8766 45.0545 68.1916Z" fill="#5E6B77"/>
<path d="M47.9405 67.1451V66.5466H48.539V67.1451H47.9405Z" fill="#5E6B77"/>
<path d="M49.7178 67.1451V66.5466H50.3163V67.1451H49.7178Z" fill="#5E6B77"/>
<path d="M51.4951 67.1451V66.5466H52.0936V67.1451H51.4951Z" fill="#5E6B77"/>
<path d="M21.8009 87.2246V85.8456H20.4219V85.4046H21.8009V84.0256H22.2419V85.4046H23.6174V85.8456H22.2419V87.2246H21.8009Z" fill="#5E6B77"/>
<path d="M24.7946 88.1451L26.6496 83.6056H24.3151V83.1051H27.1991V83.6056L25.3476 88.1451H24.7946Z" fill="#5E6B77"/>
<path d="M31.2496 89.1916C30.9743 88.8766 30.7375 88.5254 30.5391 88.1381C30.3431 87.7484 30.1915 87.3401 30.0841 86.9131C29.9791 86.4861 29.9278 86.0568 29.9301 85.6251C29.9278 85.1934 29.9791 84.7641 30.0841 84.3371C30.1915 83.9078 30.3431 83.4994 30.5391 83.1121C30.7375 82.7248 30.9743 82.3736 31.2496 82.0586L31.6276 82.3526C31.3569 82.6769 31.1306 83.0176 30.9486 83.3746C30.7666 83.7293 30.6301 84.0956 30.5391 84.4736C30.4504 84.8516 30.405 85.2354 30.4026 85.6251C30.405 86.0101 30.4516 86.3939 30.5426 86.7766C30.636 87.1569 30.7725 87.5268 30.9521 87.8861C31.1341 88.2431 31.3593 88.5779 31.6276 88.8906L31.2496 89.1916Z" fill="#5E6B77"/>
<path d="M34.6396 88.1451V87.1686H32.2806V86.6786L33.9676 83.1051H34.5451L32.8581 86.6786H34.6396V85.2086H35.1576V86.6786H35.7071V87.1686H35.1576V88.1451H34.6396Z" fill="#5E6B77"/>
<path d="M38.1401 83.0036C38.4575 83.0036 38.7445 83.0806 39.0011 83.2346C39.2601 83.3863 39.4655 83.5939 39.6171 83.8576C39.7688 84.1189 39.8446 84.4129 39.8446 84.7396V86.4896C39.8446 86.8256 39.7688 87.1266 39.6171 87.3926C39.4655 87.6586 39.2578 87.8686 38.9941 88.0226C38.7328 88.1743 38.4353 88.2501 38.1016 88.2501C37.8146 88.2501 37.5486 88.1871 37.3036 88.0611C37.061 87.9328 36.8603 87.7566 36.7016 87.5326L37.0936 87.2071C37.201 87.3728 37.3433 87.5058 37.5206 87.6061C37.7003 87.7064 37.894 87.7566 38.1016 87.7566C38.3396 87.7566 38.5496 87.7006 38.7316 87.5886C38.916 87.4743 39.0606 87.3249 39.1656 87.1406C39.273 86.9539 39.3266 86.7521 39.3266 86.5351V85.4361L39.4526 85.5831C39.308 85.8141 39.1155 86.0008 38.8751 86.1431C38.6371 86.2854 38.3758 86.3566 38.0911 86.3566C37.7808 86.3566 37.4996 86.2819 37.2476 86.1326C36.998 85.9833 36.7996 85.7826 36.6526 85.5306C36.508 85.2786 36.4356 84.9974 36.4356 84.6871C36.4356 84.3768 36.5126 84.0944 36.6666 83.8401C36.8206 83.5834 37.0271 83.3804 37.2861 83.2311C37.5451 83.0794 37.8298 83.0036 38.1401 83.0036ZM38.1401 83.5006C37.9208 83.5006 37.7213 83.5543 37.5416 83.6616C37.362 83.7666 37.2185 83.9089 37.1111 84.0886C37.0061 84.2683 36.9536 84.4678 36.9536 84.6871C36.9536 84.9064 37.0061 85.1059 37.1111 85.2856C37.2161 85.4653 37.3585 85.6088 37.5381 85.7161C37.7178 85.8211 37.9173 85.8736 38.1366 85.8736C38.356 85.8736 38.5555 85.8211 38.7351 85.7161C38.9171 85.6088 39.0606 85.4653 39.1656 85.2856C39.273 85.1059 39.3266 84.9064 39.3266 84.6871C39.3266 84.4701 39.273 84.2718 39.1656 84.0921C39.0606 83.9124 38.9183 83.7689 38.7386 83.6616C38.559 83.5543 38.3595 83.5006 38.1401 83.5006Z" fill="#5E6B77"/>
<path d="M42.3095 88.2501C42.0481 88.2501 41.8066 88.1964 41.585 88.0891C41.3633 87.9818 41.1743 87.8336 41.018 87.6446C40.8616 87.4556 40.7496 87.2386 40.682 86.9936L41.1755 86.8606C41.2198 87.0426 41.3003 87.2001 41.417 87.3331C41.5336 87.4638 41.6701 87.5653 41.8265 87.6376C41.9851 87.7099 42.1508 87.7461 42.3235 87.7461C42.5475 87.7461 42.7481 87.6924 42.9255 87.5851C43.1051 87.4754 43.2475 87.3308 43.3525 87.1511C43.4575 86.9714 43.51 86.7743 43.51 86.5596C43.51 86.3379 43.4551 86.1384 43.3455 85.9611C43.2358 85.7814 43.0911 85.6391 42.9115 85.5341C42.7318 85.4291 42.5358 85.3766 42.3235 85.3766C42.0855 85.3766 41.8801 85.4291 41.7075 85.5341C41.5348 85.6368 41.3971 85.7663 41.2945 85.9226L40.8255 85.7266L40.9795 83.1051H43.671V83.5986H41.207L41.4625 83.3571L41.326 85.5936L41.1965 85.4221C41.3411 85.2564 41.5161 85.1269 41.7215 85.0336C41.9268 84.9403 42.1426 84.8936 42.369 84.8936C42.6793 84.8936 42.9593 84.9683 43.209 85.1176C43.4586 85.2646 43.657 85.4641 43.804 85.7161C43.951 85.9681 44.0245 86.2493 44.0245 86.5596C44.0245 86.8676 43.9463 87.1499 43.79 87.4066C43.6336 87.6609 43.426 87.8651 43.167 88.0191C42.908 88.1731 42.6221 88.2501 42.3095 88.2501Z" fill="#5E6B77"/>
<path d="M45.0545 89.1916L44.6765 88.8906C44.9448 88.5779 45.1688 88.2431 45.3485 87.8861C45.5305 87.5268 45.667 87.1569 45.758 86.7766C45.8513 86.3939 45.8992 86.0101 45.9015 85.6251C45.8992 85.2354 45.8525 84.8516 45.7615 84.4736C45.6728 84.0956 45.5375 83.7293 45.3555 83.3746C45.1735 83.0176 44.9472 82.6769 44.6765 82.3526L45.0545 82.0586C45.3298 82.3736 45.5655 82.7248 45.7615 83.1121C45.9598 83.4994 46.1115 83.9078 46.2165 84.3371C46.3238 84.7641 46.3763 85.1934 46.374 85.6251C46.3763 86.0568 46.3238 86.4861 46.2165 86.9131C46.1115 87.3401 45.9598 87.7484 45.7615 88.1381C45.5655 88.5254 45.3298 88.8766 45.0545 89.1916Z" fill="#5E6B77"/>
<path d="M47.9405 88.1451V87.5466H48.539V88.1451H47.9405Z" fill="#5E6B77"/>
<path d="M49.7178 88.1451V87.5466H50.3163V88.1451H49.7178Z" fill="#5E6B77"/>
<path d="M51.4951 88.1451V87.5466H52.0936V88.1451H51.4951Z" fill="#5E6B77"/>
<path d="M73.5314 25.25C73.0298 25.25 72.6063 25.1392 72.2609 24.9175C71.9156 24.6935 71.6543 24.3843 71.4769 23.99C71.2996 23.5957 71.2109 23.1407 71.2109 22.625C71.2109 22.1093 71.2996 21.6543 71.4769 21.26C71.6543 20.8657 71.9156 20.5577 72.2609 20.336C72.6063 20.112 73.0298 20 73.5314 20C74.1171 20 74.5954 20.1505 74.9664 20.4515C75.3374 20.7502 75.5918 21.1515 75.7294 21.6555L75.2044 21.792C75.0971 21.393 74.9046 21.0768 74.6269 20.8435C74.3493 20.6102 73.9841 20.4935 73.5314 20.4935C73.1371 20.4935 72.8093 20.5833 72.5479 20.763C72.2866 20.9427 72.0894 21.1935 71.9564 21.5155C71.8258 21.8352 71.7581 22.205 71.7534 22.625C71.7511 23.045 71.8153 23.4148 71.9459 23.7345C72.0789 24.0542 72.2773 24.305 72.5409 24.487C72.8069 24.6667 73.1371 24.7565 73.5314 24.7565C73.9841 24.7565 74.3493 24.6398 74.6269 24.4065C74.9046 24.1708 75.0971 23.8547 75.2044 23.458L75.7294 23.5945C75.5918 24.0985 75.3374 24.501 74.9664 24.802C74.5954 25.1007 74.1171 25.25 73.5314 25.25Z" fill="#5E6B77"/>
<path d="M78.0802 25.25C77.7045 25.25 77.3837 25.1648 77.1177 24.9945C76.8517 24.8242 76.6475 24.5885 76.5052 24.2875C76.3628 23.9865 76.2917 23.6412 76.2917 23.2515C76.2917 22.8548 76.364 22.5072 76.5087 22.2085C76.6533 21.9098 76.8587 21.6777 77.1247 21.512C77.393 21.344 77.7115 21.26 78.0802 21.26C78.4582 21.26 78.7802 21.3452 79.0462 21.5155C79.3145 21.6835 79.5187 21.918 79.6587 22.219C79.801 22.5177 79.8722 22.8618 79.8722 23.2515C79.8722 23.6482 79.801 23.997 79.6587 24.298C79.5163 24.5967 79.311 24.83 79.0427 24.998C78.7743 25.166 78.4535 25.25 78.0802 25.25ZM78.0802 24.7565C78.5002 24.7565 78.8128 24.6177 79.0182 24.34C79.2235 24.06 79.3262 23.6972 79.3262 23.2515C79.3262 22.7942 79.2223 22.4302 79.0147 22.1595C78.8093 21.8888 78.4978 21.7535 78.0802 21.7535C77.7978 21.7535 77.5645 21.8177 77.3802 21.946C77.1982 22.072 77.0617 22.2482 76.9707 22.4745C76.882 22.6985 76.8377 22.9575 76.8377 23.2515C76.8377 23.7065 76.9427 24.0717 77.1527 24.347C77.3627 24.62 77.6718 24.7565 78.0802 24.7565Z" fill="#5E6B77"/>
<path d="M81.5809 25.145V21.841H80.2404V21.365H83.4359V21.841H82.0954V25.145H81.5809Z" fill="#5E6B77"/>
<path d="M85.8007 25.25C85.4531 25.25 85.1591 25.1625 84.9187 24.9875C84.6784 24.8102 84.4964 24.571 84.3727 24.27C84.2491 23.9667 84.1872 23.6272 84.1872 23.2515C84.1872 22.8688 84.2491 22.5282 84.3727 22.2295C84.4987 21.9285 84.6831 21.6917 84.9257 21.519C85.1684 21.3463 85.4671 21.26 85.8217 21.26C86.1671 21.26 86.4634 21.3475 86.7107 21.5225C86.9581 21.6975 87.1471 21.9355 87.2777 22.2365C87.4107 22.5375 87.4772 22.8758 87.4772 23.2515C87.4772 23.6295 87.4107 23.969 87.2777 24.27C87.1447 24.571 86.9534 24.8102 86.7037 24.9875C86.4541 25.1625 86.1531 25.25 85.8007 25.25ZM84.0997 26.825V21.365H84.5617V24.2105H84.6177V26.825H84.0997ZM85.7482 24.7705C86.0119 24.7705 86.2312 24.704 86.4062 24.571C86.5812 24.438 86.7119 24.2572 86.7982 24.0285C86.8869 23.7975 86.9312 23.5385 86.9312 23.2515C86.9312 22.9668 86.8881 22.7102 86.8017 22.4815C86.7154 22.2528 86.5836 22.072 86.4062 21.939C86.2312 21.806 86.0084 21.7395 85.7377 21.7395C85.4741 21.7395 85.2547 21.8037 85.0797 21.932C84.9071 22.0603 84.7776 22.2388 84.6912 22.4675C84.6049 22.6938 84.5617 22.9552 84.5617 23.2515C84.5617 23.5432 84.6049 23.8045 84.6912 24.0355C84.7776 24.2642 84.9082 24.4438 85.0832 24.5745C85.2582 24.7052 85.4799 24.7705 85.7482 24.7705Z" fill="#5E6B77"/>
<path d="M88.6481 26.825L89.3796 24.8405L89.3901 25.4285L87.7346 21.365H88.2806L89.6386 24.7635H89.4146L90.6676 21.365H91.1926L89.1626 26.825H88.6481Z" fill="#5E6B77"/>
<path d="M91.3838 25.985V24.704C91.5985 24.704 91.7525 24.6352 91.8458 24.4975C91.9391 24.3575 92.015 24.1347 92.0733 23.829C92.113 23.6307 92.1456 23.4172 92.1713 23.1885C92.197 22.9598 92.2191 22.6985 92.2378 22.4045C92.2565 22.1082 92.274 21.7617 92.2903 21.365H94.7893V24.704H95.1533V25.985H94.6563V25.145H91.8773V25.985H91.3838ZM92.2553 24.704H94.2783V21.806H92.7663C92.7593 21.9833 92.7488 22.1712 92.7348 22.3695C92.7231 22.5678 92.708 22.7662 92.6893 22.9645C92.673 23.1628 92.6531 23.3495 92.6298 23.5245C92.6088 23.6972 92.5831 23.8488 92.5528 23.9795C92.5178 24.1475 92.4793 24.291 92.4373 24.41C92.3976 24.529 92.337 24.627 92.2553 24.704Z" fill="#5E6B77"/>
<path d="M95.8507 25.145V21.365H96.3652V23.0065H98.4967V21.365H99.0112V25.145H98.4967V23.5H96.3652V25.145H95.8507Z" fill="#5E6B77"/>
<path d="M102.993 21.365V25.145H102.492V22.2015L100.42 25.145H99.9865V21.365H100.487V24.284L102.562 21.365H102.993Z" fill="#5E6B77"/>
<path d="M103.972 25.145L103.975 21.365H104.493V23.185L106.18 21.365H106.866L105.095 23.255L107.097 25.145H106.348L104.493 23.325V25.145H103.972Z" fill="#5E6B77"/>
<path d="M124 25.9851V24.6516C124.196 24.6516 124.354 24.6026 124.472 24.5046C124.591 24.4042 124.683 24.2712 124.746 24.1056C124.809 23.9399 124.856 23.7544 124.889 23.5491C124.922 23.3414 124.95 23.1314 124.973 22.9191C125.006 22.6087 125.031 22.3089 125.05 22.0196C125.071 21.7302 125.089 21.4304 125.102 21.1201C125.119 20.8097 125.138 20.4702 125.159 20.1016L128.266 20.1051V24.6516H128.627V25.9851H128.116V25.1451H124.515V25.9851H124ZM124.984 24.6516H127.752V20.5986L125.638 20.5951C125.624 20.8797 125.61 21.1551 125.596 21.4211C125.582 21.6871 125.566 21.9554 125.547 22.2261C125.528 22.4967 125.504 22.7791 125.474 23.0731C125.448 23.3414 125.418 23.5759 125.383 23.7766C125.347 23.9772 125.299 24.1487 125.236 24.2911C125.175 24.4334 125.091 24.5536 124.984 24.6516Z" fill="#5E6B77"/>
<path d="M129.046 25.1451V24.6936C129.186 24.7192 129.292 24.7134 129.364 24.6761C129.439 24.6364 129.494 24.5711 129.529 24.4801C129.564 24.3867 129.593 24.2712 129.616 24.1336C129.653 23.9049 129.687 23.6529 129.718 23.3776C129.748 23.1022 129.775 22.7989 129.798 22.4676C129.824 22.1339 129.849 21.7664 129.875 21.3651H132.444V25.1451H131.933V21.8586H130.351C130.335 22.1059 130.316 22.3521 130.295 22.5971C130.274 22.8421 130.252 23.0777 130.229 23.3041C130.208 23.5281 130.184 23.7346 130.159 23.9236C130.133 24.1126 130.106 24.2759 130.078 24.4136C130.036 24.6212 129.98 24.7869 129.91 24.9106C129.842 25.0342 129.741 25.1159 129.606 25.1556C129.47 25.1952 129.284 25.1917 129.046 25.1451Z" fill="#5E6B77"/>
<path d="M136.425 21.3651V25.1451H135.925V22.2016L133.852 25.1451H133.418V21.3651H133.919V24.2841L135.995 21.3651H136.425Z" fill="#5E6B77"/>
<path d="M138.433 25.1451V21.8411H137.092V21.3651H140.288V21.8411H138.947V25.1451H138.433Z" fill="#5E6B77"/>
<path d="M142.555 25.2501C142.186 25.2501 141.866 25.1684 141.596 25.0051C141.327 24.8417 141.119 24.6119 140.969 24.3156C140.82 24.0192 140.745 23.6716 140.745 23.2726C140.745 22.8596 140.819 22.5026 140.966 22.2016C141.113 21.9006 141.319 21.6684 141.585 21.5051C141.854 21.3417 142.17 21.2601 142.534 21.2601C142.907 21.2601 143.226 21.3464 143.489 21.5191C143.753 21.6894 143.952 21.9344 144.088 22.2541C144.223 22.5737 144.285 22.9552 144.273 23.3986H143.748V23.2166C143.739 22.7266 143.633 22.3567 143.43 22.1071C143.229 21.8574 142.935 21.7326 142.548 21.7326C142.142 21.7326 141.83 21.8644 141.613 22.1281C141.399 22.3917 141.291 22.7674 141.291 23.2551C141.291 23.7311 141.399 24.1009 141.613 24.3646C141.83 24.6259 142.137 24.7566 142.534 24.7566C142.804 24.7566 143.04 24.6947 143.241 24.5711C143.444 24.4451 143.604 24.2642 143.72 24.0286L144.2 24.2141C144.05 24.5431 143.83 24.7986 143.538 24.9806C143.249 25.1602 142.921 25.2501 142.555 25.2501ZM141.109 23.3986V22.9681H143.997V23.3986H141.109Z" fill="#5E6B77"/>
<path d="M144.7 25.1451V24.6936C144.84 24.7192 144.946 24.7134 145.018 24.6761C145.093 24.6364 145.148 24.5711 145.183 24.4801C145.218 24.3867 145.247 24.2712 145.27 24.1336C145.308 23.9049 145.342 23.6529 145.372 23.3776C145.402 23.1022 145.429 22.7989 145.452 22.4676C145.478 22.1339 145.504 21.7664 145.529 21.3651H148.098V25.1451H147.587V21.8586H146.005C145.989 22.1059 145.97 22.3521 145.949 22.5971C145.928 22.8421 145.906 23.0777 145.883 23.3041C145.862 23.5281 145.839 23.7346 145.813 23.9236C145.787 24.1126 145.76 24.2759 145.732 24.4136C145.69 24.6212 145.634 24.7869 145.564 24.9106C145.497 25.0342 145.395 25.1159 145.26 25.1556C145.125 25.1952 144.938 25.1917 144.7 25.1451Z" fill="#5E6B77"/>
<path d="M149.08 25.1451L149.073 21.3651H149.591V22.7896H150.476C150.586 22.7896 150.693 22.7919 150.798 22.7966C150.906 22.8012 151 22.8106 151.082 22.8246C151.268 22.8596 151.434 22.9214 151.579 23.0101C151.726 23.0987 151.84 23.2212 151.922 23.3776C152.006 23.5339 152.048 23.7299 152.048 23.9656C152.048 24.2899 151.964 24.5454 151.796 24.7321C151.63 24.9187 151.42 25.0401 151.166 25.0961C151.07 25.1171 150.966 25.1311 150.854 25.1381C150.742 25.1427 150.631 25.1451 150.522 25.1451H149.08ZM149.591 24.7041H150.501C150.58 24.7041 150.669 24.7017 150.767 24.6971C150.865 24.6924 150.951 24.6796 151.026 24.6586C151.149 24.6236 151.261 24.5536 151.362 24.4486C151.464 24.3412 151.516 24.1802 151.516 23.9656C151.516 23.7532 151.467 23.5934 151.369 23.4861C151.271 23.3764 151.14 23.3041 150.977 23.2691C150.904 23.2527 150.826 23.2422 150.742 23.2376C150.658 23.2329 150.578 23.2306 150.501 23.2306H149.591V24.7041Z" fill="#5E6B77"/>
<path d="M152.71 25.1451V21.3651H153.224V23.0066H155.356V21.3651H155.87V25.1451H155.356V23.5001H153.224V25.1451H152.71Z" fill="#5E6B77"/>
<path d="M158.427 25.2501C158.052 25.2501 157.731 25.1649 157.465 24.9946C157.199 24.8242 156.995 24.5886 156.852 24.2876C156.71 23.9866 156.639 23.6412 156.639 23.2516C156.639 22.8549 156.711 22.5072 156.856 22.2086C157 21.9099 157.206 21.6777 157.472 21.5121C157.74 21.3441 158.059 21.2601 158.427 21.2601C158.805 21.2601 159.127 21.3452 159.393 21.5156C159.662 21.6836 159.866 21.9181 160.006 22.2191C160.148 22.5177 160.219 22.8619 160.219 23.2516C160.219 23.6482 160.148 23.9971 160.006 24.2981C159.863 24.5967 159.658 24.8301 159.39 24.9981C159.121 25.1661 158.801 25.2501 158.427 25.2501ZM158.427 24.7566C158.847 24.7566 159.16 24.6177 159.365 24.3401C159.571 24.0601 159.673 23.6972 159.673 23.2516C159.673 22.7942 159.569 22.4302 159.362 22.1596C159.156 21.8889 158.845 21.7536 158.427 21.7536C158.145 21.7536 157.912 21.8177 157.727 21.9461C157.545 22.0721 157.409 22.2482 157.318 22.4746C157.229 22.6986 157.185 22.9576 157.185 23.2516C157.185 23.7066 157.29 24.0717 157.5 24.3471C157.71 24.6201 158.019 24.7566 158.427 24.7566Z" fill="#5E6B77"/>
<path d="M162.559 25.2501C162.179 25.2501 161.857 25.1649 161.593 24.9946C161.33 24.8242 161.129 24.5897 160.991 24.2911C160.856 23.9901 160.786 23.6447 160.781 23.2551C160.786 22.8584 160.858 22.5107 160.998 22.2121C161.138 21.9111 161.34 21.6777 161.604 21.5121C161.868 21.3441 162.187 21.2601 162.563 21.2601C162.946 21.2601 163.278 21.3534 163.56 21.5401C163.845 21.7267 164.04 21.9822 164.145 22.3066L163.641 22.4676C163.552 22.2412 163.411 22.0662 163.217 21.9426C163.026 21.8166 162.807 21.7536 162.559 21.7536C162.282 21.7536 162.052 21.8177 161.87 21.9461C161.688 22.0721 161.553 22.2482 161.464 22.4746C161.375 22.7009 161.33 22.9611 161.327 23.2551C161.332 23.7077 161.437 24.0717 161.642 24.3471C161.848 24.6201 162.153 24.7566 162.559 24.7566C162.816 24.7566 163.034 24.6982 163.214 24.5816C163.396 24.4626 163.534 24.2899 163.627 24.0636L164.145 24.2176C164.005 24.5536 163.8 24.8102 163.529 24.9876C163.258 25.1626 162.935 25.2501 162.559 25.2501Z" fill="#5E6B77"/>
<path d="M165.804 25.1451V21.8411H164.463V21.3651H167.659V21.8411H166.318V25.1451H165.804Z" fill="#5E6B77"/>
<path d="M168.33 25.1451L168.323 21.3651H168.841V22.7896H169.726C169.836 22.7896 169.943 22.7919 170.048 22.7966C170.156 22.8012 170.25 22.8106 170.332 22.8246C170.518 22.8596 170.684 22.9214 170.829 23.0101C170.976 23.0987 171.09 23.2212 171.172 23.3776C171.256 23.5339 171.298 23.7299 171.298 23.9656C171.298 24.2899 171.214 24.5454 171.046 24.7321C170.88 24.9187 170.67 25.0401 170.416 25.0961C170.32 25.1171 170.216 25.1311 170.104 25.1381C169.992 25.1427 169.881 25.1451 169.772 25.1451H168.33ZM168.841 24.7041H169.751C169.83 24.7041 169.919 24.7017 170.017 24.6971C170.115 24.6924 170.201 24.6796 170.276 24.6586C170.399 24.6236 170.511 24.5536 170.612 24.4486C170.714 24.3412 170.766 24.1802 170.766 23.9656C170.766 23.7532 170.717 23.5934 170.619 23.4861C170.521 23.3764 170.39 23.3041 170.227 23.2691C170.154 23.2527 170.076 23.2422 169.992 23.2376C169.908 23.2329 169.828 23.2306 169.751 23.2306H168.841V24.7041Z" fill="#5E6B77"/>
<path d="M125.879 46.25C125.569 46.25 125.289 46.1777 125.039 46.033C124.792 45.8883 124.596 45.6923 124.451 45.445C124.307 45.1953 124.234 44.9153 124.234 44.605V42.645C124.234 42.3347 124.307 42.0558 124.451 41.8085C124.596 41.5588 124.792 41.3617 125.039 41.217C125.289 41.0723 125.569 41 125.879 41C126.19 41 126.469 41.0723 126.716 41.217C126.966 41.3617 127.163 41.5588 127.307 41.8085C127.452 42.0558 127.524 42.3347 127.524 42.645V44.605C127.524 44.9153 127.452 45.1953 127.307 45.445C127.163 45.6923 126.966 45.8883 126.716 46.033C126.469 46.1777 126.19 46.25 125.879 46.25ZM125.879 45.753C126.087 45.753 126.276 45.7028 126.446 45.6025C126.617 45.4998 126.752 45.3633 126.852 45.193C126.953 45.0227 127.003 44.8348 127.003 44.6295V42.6205C127.003 42.4128 126.953 42.2238 126.852 42.0535C126.752 41.8832 126.617 41.7478 126.446 41.6475C126.276 41.5448 126.087 41.4935 125.879 41.4935C125.672 41.4935 125.483 41.5448 125.312 41.6475C125.142 41.7478 125.007 41.8832 124.906 42.0535C124.806 42.2238 124.756 42.4128 124.756 42.6205V44.6295C124.756 44.8348 124.806 45.0227 124.906 45.193C125.007 45.3633 125.142 45.4998 125.312 45.6025C125.483 45.7028 125.672 45.753 125.879 45.753Z" fill="#5E6B77"/>
<path d="M128.367 46.1415L128.37 45.6725L130.649 43.6145C130.845 43.4372 130.974 43.2692 131.037 43.1105C131.103 42.9495 131.135 42.7815 131.135 42.6065C131.135 42.3988 131.086 42.211 130.988 42.043C130.89 41.875 130.759 41.742 130.593 41.644C130.427 41.5437 130.242 41.4935 130.036 41.4935C129.822 41.4935 129.63 41.5448 129.462 41.6475C129.294 41.7502 129.161 41.8855 129.063 42.0535C128.968 42.2215 128.921 42.4047 128.923 42.603H128.398C128.398 42.2973 128.471 42.0232 128.615 41.7805C128.76 41.5378 128.956 41.3477 129.203 41.21C129.451 41.07 129.731 41 130.043 41C130.349 41 130.623 41.0723 130.866 41.217C131.111 41.3593 131.303 41.553 131.443 41.798C131.586 42.0407 131.657 42.3113 131.657 42.61C131.657 42.82 131.631 43.0055 131.58 43.1665C131.531 43.3252 131.453 43.4733 131.345 43.611C131.24 43.7463 131.106 43.8863 130.943 44.031L128.92 45.858L128.839 45.648H131.657V46.1415H128.367Z" fill="#5E6B77"/>
<path d="M132.779 45.585V44.9865H133.378V45.585H132.779ZM132.783 43.5235V42.925H133.381V43.5235H132.783Z" fill="#5E6B77"/>
<path d="M135.945 46.2465C135.696 46.2465 135.466 46.2022 135.256 46.1135C135.046 46.0248 134.865 45.8988 134.713 45.7355C134.562 45.5698 134.451 45.3727 134.381 45.144L134.871 44.997C134.955 45.2467 135.092 45.4357 135.284 45.564C135.477 45.6923 135.696 45.7542 135.938 45.7495C136.162 45.7448 136.355 45.6947 136.516 45.599C136.679 45.5033 136.804 45.3703 136.89 45.2C136.977 45.0297 137.02 44.8325 137.02 44.6085C137.02 44.2655 136.919 43.9902 136.719 43.7825C136.52 43.5725 136.258 43.4675 135.931 43.4675C135.84 43.4675 135.745 43.4803 135.644 43.506C135.544 43.5293 135.451 43.5632 135.364 43.6075L135.105 43.198L137.065 41.3885L137.149 41.5985H134.58V41.105H137.492V41.6055L135.784 43.2365L135.777 43.0335C136.127 42.9892 136.435 43.0288 136.701 43.1525C136.967 43.2762 137.175 43.4652 137.324 43.7195C137.476 43.9715 137.552 44.2678 137.552 44.6085C137.552 44.9305 137.482 45.2152 137.342 45.4625C137.204 45.7075 137.014 45.9 136.771 46.04C136.529 46.1777 136.253 46.2465 135.945 46.2465Z" fill="#5E6B77"/>
<path d="M139.947 46.25C139.686 46.25 139.445 46.1963 139.223 46.089C139.001 45.9817 138.812 45.8335 138.656 45.6445C138.5 45.4555 138.388 45.2385 138.32 44.9935L138.813 44.8605C138.858 45.0425 138.938 45.2 139.055 45.333C139.172 45.4637 139.308 45.5652 139.464 45.6375C139.623 45.7098 139.789 45.746 139.961 45.746C140.185 45.746 140.386 45.6923 140.563 45.585C140.743 45.4753 140.885 45.3307 140.99 45.151C141.095 44.9713 141.148 44.7742 141.148 44.5595C141.148 44.3378 141.093 44.1383 140.983 43.961C140.874 43.7813 140.729 43.639 140.549 43.534C140.37 43.429 140.174 43.3765 139.961 43.3765C139.723 43.3765 139.518 43.429 139.345 43.534C139.173 43.6367 139.035 43.7662 138.932 43.9225L138.463 43.7265L138.617 41.105H141.309V41.5985H138.845L139.1 41.357L138.964 43.5935L138.834 43.422C138.979 43.2563 139.154 43.1268 139.359 43.0335C139.565 42.9402 139.781 42.8935 140.007 42.8935C140.317 42.8935 140.597 42.9682 140.847 43.1175C141.097 43.2645 141.295 43.464 141.442 43.716C141.589 43.968 141.662 44.2492 141.662 44.5595C141.662 44.8675 141.584 45.1498 141.428 45.4065C141.272 45.6608 141.064 45.865 140.805 46.019C140.546 46.173 140.26 46.25 139.947 46.25Z" fill="#5E6B77"/>
<path d="M125.113 67.145V62.679L124.164 63.2495V62.672L125.113 62.105H125.634V67.145H125.113Z" fill="#5E6B77"/>
<path d="M128.498 67.25C128.183 67.25 127.904 67.187 127.662 67.061C127.421 66.935 127.232 66.7588 127.095 66.5325C126.959 66.3038 126.892 66.0367 126.892 65.731C126.892 65.4183 126.967 65.1407 127.119 64.898C127.271 64.653 127.502 64.4675 127.812 64.3415L127.805 64.5445C127.546 64.4488 127.349 64.2925 127.214 64.0755C127.078 63.8585 127.011 63.6182 127.011 63.3545C127.011 63.0745 127.075 62.8342 127.203 62.6335C127.331 62.4305 127.506 62.2742 127.728 62.1645C127.952 62.0548 128.209 62 128.498 62C128.787 62 129.044 62.0548 129.268 62.1645C129.492 62.2742 129.668 62.4305 129.797 62.6335C129.925 62.8342 129.989 63.0745 129.989 63.3545C129.989 63.6182 129.924 63.8573 129.793 64.072C129.665 64.2867 129.468 64.4442 129.202 64.5445L129.184 64.3415C129.494 64.4652 129.727 64.6495 129.881 64.8945C130.037 65.1395 130.115 65.4183 130.115 65.731C130.115 66.0367 130.046 66.3038 129.909 66.5325C129.771 66.7588 129.581 66.935 129.338 67.061C129.095 67.187 128.815 67.25 128.498 67.25ZM128.498 66.7565C128.815 66.7565 129.073 66.669 129.272 66.494C129.47 66.3167 129.569 66.0623 129.569 65.731C129.569 65.395 129.471 65.1407 129.275 64.968C129.079 64.793 128.82 64.7055 128.498 64.7055C128.176 64.7055 127.918 64.793 127.725 64.968C127.531 65.1407 127.434 65.395 127.434 65.731C127.434 66.0623 127.532 66.3167 127.728 66.494C127.924 66.669 128.181 66.7565 128.498 66.7565ZM128.498 64.2085C128.778 64.2085 129.006 64.1373 129.181 63.995C129.356 63.8503 129.443 63.6368 129.443 63.3545C129.443 63.0722 129.356 62.861 129.181 62.721C129.006 62.5787 128.778 62.5075 128.498 62.5075C128.218 62.5075 127.991 62.5787 127.816 62.721C127.643 62.861 127.557 63.0722 127.557 63.3545C127.557 63.6368 127.643 63.8503 127.816 63.995C127.991 64.1373 128.218 64.2085 128.498 64.2085Z" fill="#5E6B77"/>
<path d="M131.302 66.585V65.9865H131.901V66.585H131.302ZM131.306 64.5235V63.925H131.904V64.5235H131.306Z" fill="#5E6B77"/>
<path d="M134.468 67.2465C134.219 67.2465 133.989 67.2022 133.779 67.1135C133.569 67.0248 133.388 66.8988 133.236 66.7355C133.085 66.5698 132.974 66.3727 132.904 66.144L133.394 65.997C133.478 66.2467 133.616 66.4357 133.807 66.564C134.001 66.6923 134.219 66.7542 134.461 66.7495C134.685 66.7448 134.878 66.6947 135.039 66.599C135.202 66.5033 135.327 66.3703 135.413 66.2C135.5 66.0297 135.543 65.8325 135.543 65.6085C135.543 65.2655 135.443 64.9902 135.242 64.7825C135.044 64.5725 134.781 64.4675 134.454 64.4675C134.363 64.4675 134.268 64.4803 134.167 64.506C134.067 64.5293 133.974 64.5632 133.887 64.6075L133.628 64.198L135.588 62.3885L135.672 62.5985H133.103V62.105H136.015V62.6055L134.307 64.2365L134.3 64.0335C134.65 63.9892 134.958 64.0288 135.224 64.1525C135.49 64.2762 135.698 64.4652 135.847 64.7195C135.999 64.9715 136.075 65.2678 136.075 65.6085C136.075 65.9305 136.005 66.2152 135.865 66.4625C135.727 66.7075 135.537 66.9 135.294 67.04C135.052 67.1777 134.776 67.2465 134.468 67.2465Z" fill="#5E6B77"/>
<path d="M138.338 67.2465C138.088 67.2465 137.858 67.2022 137.648 67.1135C137.438 67.0248 137.257 66.8988 137.106 66.7355C136.954 66.5698 136.843 66.3727 136.773 66.144L137.263 65.997C137.347 66.2467 137.485 66.4357 137.676 66.564C137.87 66.6923 138.088 66.7542 138.331 66.7495C138.555 66.7448 138.747 66.6947 138.908 66.599C139.071 66.5033 139.196 66.3703 139.283 66.2C139.369 66.0297 139.412 65.8325 139.412 65.6085C139.412 65.2655 139.312 64.9902 139.111 64.7825C138.913 64.5725 138.65 64.4675 138.324 64.4675C138.233 64.4675 138.137 64.4803 138.037 64.506C137.936 64.5293 137.843 64.5632 137.757 64.6075L137.498 64.198L139.458 62.3885L139.542 62.5985H136.973V62.105H139.885V62.6055L138.177 64.2365L138.17 64.0335C138.52 63.9892 138.828 64.0288 139.094 64.1525C139.36 64.2762 139.567 64.4652 139.717 64.7195C139.868 64.9715 139.944 65.2678 139.944 65.6085C139.944 65.9305 139.874 66.2152 139.734 66.4625C139.596 66.7075 139.406 66.9 139.164 67.04C138.921 67.1777 138.646 67.2465 138.338 67.2465Z" fill="#5E6B77"/>
<path d="M124.23 88.145V84.365H124.745V86.0065H126.876V84.365H127.391V88.145H126.876V86.5H124.745V88.145H124.23Z" fill="#2B8FEB"/>
<path d="M129.969 88.25C129.601 88.25 129.281 88.1683 129.01 88.005C128.742 87.8417 128.533 87.6118 128.384 87.3155C128.234 87.0192 128.16 86.6715 128.16 86.2725C128.16 85.8595 128.233 85.5025 128.38 85.2015C128.527 84.9005 128.734 84.6683 129 84.505C129.268 84.3417 129.584 84.26 129.948 84.26C130.322 84.26 130.64 84.3463 130.904 84.519C131.167 84.6893 131.367 84.9343 131.502 85.254C131.638 85.5737 131.699 85.9552 131.688 86.3985H131.163V86.2165C131.153 85.7265 131.047 85.3567 130.844 85.107C130.644 84.8573 130.35 84.7325 129.962 84.7325C129.556 84.7325 129.245 84.8643 129.028 85.128C128.813 85.3917 128.706 85.7673 128.706 86.255C128.706 86.731 128.813 87.1008 129.028 87.3645C129.245 87.6258 129.552 87.7565 129.948 87.7565C130.219 87.7565 130.455 87.6947 130.655 87.571C130.858 87.445 131.018 87.2642 131.135 87.0285L131.614 87.214C131.465 87.543 131.244 87.7985 130.953 87.9805C130.663 88.1602 130.336 88.25 129.969 88.25ZM128.524 86.3985V85.968H131.411V86.3985H128.524Z" fill="#2B8FEB"/>
<path d="M133.586 88.985V87.704C133.8 87.704 133.954 87.6352 134.048 87.4975C134.141 87.3575 134.217 87.1347 134.275 86.829C134.315 86.6307 134.348 86.4172 134.373 86.1885C134.399 85.9598 134.421 85.6985 134.44 85.4045C134.458 85.1082 134.476 84.7617 134.492 84.365H136.991V87.704H137.355V88.985H136.858V88.145H134.079V88.985H133.586ZM134.457 87.704H136.48V84.806H134.968C134.961 84.9833 134.951 85.1712 134.937 85.3695C134.925 85.5678 134.91 85.7662 134.891 85.9645C134.875 86.1628 134.855 86.3495 134.832 86.5245C134.811 86.6972 134.785 86.8488 134.755 86.9795C134.72 87.1475 134.681 87.291 134.639 87.41C134.6 87.529 134.539 87.627 134.457 87.704Z" fill="#2B8FEB"/>
<path d="M139.635 88.25C139.259 88.25 138.938 88.1648 138.672 87.9945C138.406 87.8242 138.202 87.5885 138.06 87.2875C137.917 86.9865 137.846 86.6412 137.846 86.2515C137.846 85.8548 137.919 85.5072 138.063 85.2085C138.208 84.9098 138.413 84.6777 138.679 84.512C138.948 84.344 139.266 84.26 139.635 84.26C140.013 84.26 140.335 84.3452 140.601 84.5155C140.869 84.6835 141.073 84.918 141.213 85.219C141.356 85.5177 141.427 85.8618 141.427 86.2515C141.427 86.6482 141.356 86.997 141.213 87.298C141.071 87.5967 140.866 87.83 140.597 87.998C140.329 88.166 140.008 88.25 139.635 88.25ZM139.635 87.7565C140.055 87.7565 140.367 87.6177 140.573 87.34C140.778 87.06 140.881 86.6972 140.881 86.2515C140.881 85.7942 140.777 85.4302 140.569 85.1595C140.364 84.8888 140.052 84.7535 139.635 84.7535C139.352 84.7535 139.119 84.8177 138.935 84.946C138.753 85.072 138.616 85.2482 138.525 85.4745C138.437 85.6985 138.392 85.9575 138.392 86.2515C138.392 86.7065 138.497 87.0717 138.707 87.347C138.917 87.62 139.226 87.7565 139.635 87.7565Z" fill="#2B8FEB"/>
<path d="M141.71 88.145L143.306 86.255L141.777 84.365H142.358L143.849 86.2305V84.365H144.325V86.2305L145.816 84.365H146.393L144.864 86.255L146.46 88.145H145.861L144.325 86.2795V88.145H143.849V86.2795L142.309 88.145H141.71Z" fill="#2B8FEB"/>
<path d="M146.601 88.985V87.704C146.816 87.704 146.97 87.6352 147.063 87.4975C147.157 87.3575 147.233 87.1347 147.291 86.829C147.331 86.6307 147.363 86.4172 147.389 86.1885C147.415 85.9598 147.437 85.6985 147.455 85.4045C147.474 85.1082 147.492 84.7617 147.508 84.365H150.007V87.704H150.371V88.985H149.874V88.145H147.095V88.985H146.601ZM147.473 87.704H149.496V84.806H147.984C147.977 84.9833 147.966 85.1712 147.952 85.3695C147.941 85.5678 147.926 85.7662 147.907 85.9645C147.891 86.1628 147.871 86.3495 147.847 86.5245C147.826 86.6972 147.801 86.8488 147.77 86.9795C147.735 87.1475 147.697 87.291 147.655 87.41C147.615 87.529 147.555 87.627 147.473 87.704Z" fill="#2B8FEB"/>
<path d="M152.153 88.25C151.869 88.25 151.63 88.1987 151.436 88.096C151.245 87.9933 151.101 87.8568 151.005 87.6865C150.91 87.5162 150.862 87.3307 150.862 87.13C150.862 86.9247 150.903 86.7497 150.984 86.605C151.068 86.458 151.182 86.3378 151.324 86.2445C151.469 86.1512 151.635 86.08 151.824 86.031C152.016 85.9843 152.227 85.9435 152.458 85.9085C152.691 85.8712 152.919 85.8397 153.14 85.814C153.364 85.786 153.56 85.7592 153.728 85.7335L153.546 85.8455C153.553 85.4722 153.481 85.1957 153.329 85.016C153.178 84.8363 152.914 84.7465 152.538 84.7465C152.279 84.7465 152.06 84.8048 151.88 84.9215C151.703 85.0382 151.578 85.2225 151.506 85.4745L151.005 85.3275C151.092 84.9892 151.266 84.7267 151.527 84.54C151.788 84.3533 152.128 84.26 152.545 84.26C152.891 84.26 153.184 84.3253 153.424 84.456C153.667 84.5843 153.838 84.771 153.938 85.016C153.985 85.1257 154.015 85.2482 154.029 85.3835C154.043 85.5188 154.05 85.6565 154.05 85.7965V88.145H153.592V87.1965L153.725 87.2525C153.597 87.5768 153.397 87.8242 153.126 87.9945C152.856 88.1648 152.531 88.25 152.153 88.25ZM152.213 87.8055C152.453 87.8055 152.663 87.7623 152.843 87.676C153.023 87.5897 153.167 87.4718 153.277 87.3225C153.387 87.1708 153.458 87.0005 153.49 86.8115C153.518 86.6902 153.534 86.5572 153.536 86.4125C153.538 86.2655 153.539 86.1558 153.539 86.0835L153.735 86.185C153.56 86.2083 153.37 86.2317 153.165 86.255C152.962 86.2783 152.761 86.3052 152.563 86.3355C152.367 86.3658 152.19 86.402 152.031 86.444C151.924 86.4743 151.82 86.5175 151.719 86.5735C151.619 86.6272 151.536 86.6995 151.471 86.7905C151.408 86.8815 151.376 86.9947 151.376 87.13C151.376 87.2397 151.403 87.3458 151.457 87.4485C151.513 87.5512 151.602 87.6363 151.723 87.704C151.847 87.7717 152.01 87.8055 152.213 87.8055Z" fill="#2B8FEB"/>
<path d="M154.612 88.145V87.6935C154.752 87.7192 154.858 87.7133 154.93 87.676C155.005 87.6363 155.06 87.571 155.095 87.48C155.13 87.3867 155.159 87.2712 155.182 87.1335C155.219 86.9048 155.253 86.6528 155.284 86.3775C155.314 86.1022 155.341 85.7988 155.364 85.4675C155.39 85.1338 155.415 84.7663 155.441 84.365H158.01V88.145H157.499V84.8585H155.917C155.901 85.1058 155.882 85.352 155.861 85.597C155.84 85.842 155.818 86.0777 155.795 86.304C155.774 86.528 155.75 86.7345 155.725 86.9235C155.699 87.1125 155.672 87.2758 155.644 87.4135C155.602 87.6212 155.546 87.7868 155.476 87.9105C155.408 88.0342 155.307 88.1158 155.172 88.1555C155.036 88.1952 154.85 88.1917 154.612 88.145Z" fill="#2B8FEB"/>
<path d="M160.556 88.25C160.176 88.25 159.854 88.1648 159.59 87.9945C159.326 87.8242 159.126 87.5897 158.988 87.291C158.853 86.99 158.783 86.6447 158.778 86.255C158.783 85.8583 158.855 85.5107 158.995 85.212C159.135 84.911 159.337 84.6777 159.6 84.512C159.864 84.344 160.184 84.26 160.559 84.26C160.942 84.26 161.275 84.3533 161.557 84.54C161.842 84.7267 162.036 84.9822 162.141 85.3065L161.637 85.4675C161.549 85.2412 161.408 85.0662 161.214 84.9425C161.023 84.8165 160.803 84.7535 160.556 84.7535C160.278 84.7535 160.048 84.8177 159.866 84.946C159.684 85.072 159.549 85.2482 159.46 85.4745C159.372 85.7008 159.326 85.961 159.324 86.255C159.329 86.7077 159.434 87.0717 159.639 87.347C159.844 87.62 160.15 87.7565 160.556 87.7565C160.813 87.7565 161.031 87.6982 161.21 87.5815C161.392 87.4625 161.53 87.2898 161.623 87.0635L162.141 87.2175C162.001 87.5535 161.796 87.8102 161.525 87.9875C161.255 88.1625 160.932 88.25 160.556 88.25Z" fill="#2B8FEB"/>
<path d="M165.213 88.145V86.7205H164.331C164.228 86.7205 164.122 86.717 164.012 86.71C163.905 86.7007 163.805 86.6878 163.711 86.6715C163.445 86.6202 163.219 86.5035 163.032 86.3215C162.848 86.1372 162.756 85.8828 162.756 85.5585C162.756 85.2412 162.842 84.9868 163.015 84.7955C163.188 84.6018 163.396 84.4758 163.641 84.4175C163.753 84.3918 163.867 84.3767 163.981 84.372C164.098 84.3673 164.198 84.365 164.282 84.365H165.727L165.731 88.145H165.213ZM162.633 88.145L163.687 86.5595H164.257L163.197 88.145H162.633ZM164.303 86.2795H165.213V84.806H164.303C164.247 84.806 164.169 84.8083 164.068 84.813C163.968 84.8177 163.874 84.8328 163.785 84.8585C163.708 84.8818 163.631 84.9227 163.554 84.981C163.479 85.037 163.416 85.1128 163.365 85.2085C163.314 85.3018 163.288 85.4162 163.288 85.5515C163.288 85.7405 163.339 85.8922 163.442 86.0065C163.547 86.1185 163.678 86.1955 163.834 86.2375C163.918 86.2562 164.002 86.2678 164.086 86.2725C164.17 86.2772 164.242 86.2795 164.303 86.2795Z" fill="#2B8FEB"/>
<path d="M191.103 25.25C190.76 25.25 190.463 25.1998 190.211 25.0995C189.961 24.9992 189.756 24.8673 189.595 24.704C189.434 24.5383 189.314 24.3598 189.234 24.1685L189.703 23.8955C189.759 24.0542 189.848 24.1988 189.969 24.3295C190.091 24.4602 190.247 24.564 190.438 24.641C190.63 24.718 190.857 24.7565 191.121 24.7565C191.394 24.7565 191.625 24.7133 191.814 24.627C192.005 24.5407 192.15 24.4193 192.248 24.263C192.346 24.1067 192.395 23.9247 192.395 23.717C192.395 23.4883 192.34 23.311 192.23 23.185C192.121 23.059 191.974 22.9703 191.789 22.919C191.605 22.8653 191.4 22.835 191.173 22.828C191.003 22.821 190.882 22.8163 190.809 22.814C190.737 22.8117 190.689 22.8105 190.666 22.8105C190.643 22.8105 190.62 22.8105 190.599 22.8105V22.3135C190.616 22.3135 190.659 22.3135 190.729 22.3135C190.799 22.3135 190.874 22.3135 190.953 22.3135C191.032 22.3112 191.095 22.3088 191.142 22.3065C191.476 22.2902 191.738 22.2027 191.929 22.044C192.121 21.8853 192.216 21.6707 192.216 21.4C192.216 21.113 192.115 20.8902 191.912 20.7315C191.711 20.5728 191.451 20.4935 191.131 20.4935C190.83 20.4935 190.576 20.5658 190.368 20.7105C190.163 20.8528 189.995 21.0442 189.864 21.2845L189.444 20.973C189.603 20.6883 189.827 20.455 190.116 20.273C190.406 20.091 190.749 20 191.145 20C191.358 20 191.561 20.0292 191.754 20.0875C191.95 20.1458 192.123 20.2322 192.272 20.3465C192.424 20.4608 192.543 20.6055 192.629 20.7805C192.718 20.9532 192.762 21.1562 192.762 21.3895C192.762 21.6625 192.702 21.9005 192.58 22.1035C192.461 22.3065 192.307 22.4593 192.118 22.562C192.375 22.639 192.576 22.7743 192.72 22.968C192.867 23.1617 192.941 23.4148 192.941 23.7275C192.941 24.0355 192.865 24.3038 192.713 24.5325C192.562 24.7612 192.347 24.9385 192.069 25.0645C191.794 25.1882 191.472 25.25 191.103 25.25Z" fill="#5E6B77"/>
<path d="M194.748 25.25C194.463 25.25 194.224 25.1987 194.031 25.096C193.839 24.9933 193.696 24.8568 193.6 24.6865C193.504 24.5162 193.457 24.3307 193.457 24.13C193.457 23.9247 193.497 23.7497 193.579 23.605C193.663 23.458 193.776 23.3378 193.919 23.2445C194.063 23.1512 194.23 23.08 194.419 23.031C194.61 22.9843 194.822 22.9435 195.053 22.9085C195.286 22.8712 195.513 22.8397 195.735 22.814C195.959 22.786 196.155 22.7592 196.323 22.7335L196.141 22.8455C196.148 22.4722 196.076 22.1957 195.924 22.016C195.772 21.8363 195.509 21.7465 195.133 21.7465C194.874 21.7465 194.655 21.8048 194.475 21.9215C194.298 22.0382 194.173 22.2225 194.101 22.4745L193.6 22.3275C193.686 21.9892 193.86 21.7267 194.122 21.54C194.383 21.3533 194.722 21.26 195.14 21.26C195.485 21.26 195.778 21.3253 196.019 21.456C196.261 21.5843 196.433 21.771 196.533 22.016C196.58 22.1257 196.61 22.2482 196.624 22.3835C196.638 22.5188 196.645 22.6565 196.645 22.7965V25.145H196.187V24.1965L196.32 24.2525C196.191 24.5768 195.992 24.8242 195.721 24.9945C195.45 25.1648 195.126 25.25 194.748 25.25ZM194.808 24.8055C195.048 24.8055 195.258 24.7623 195.438 24.676C195.617 24.5897 195.762 24.4718 195.872 24.3225C195.981 24.1708 196.052 24.0005 196.085 23.8115C196.113 23.6902 196.128 23.5572 196.131 23.4125C196.133 23.2655 196.134 23.1558 196.134 23.0835L196.33 23.185C196.155 23.2083 195.965 23.2317 195.76 23.255C195.557 23.2783 195.356 23.3052 195.158 23.3355C194.962 23.3658 194.784 23.402 194.626 23.444C194.518 23.4743 194.414 23.5175 194.314 23.5735C194.214 23.6272 194.131 23.6995 194.066 23.7905C194.003 23.8815 193.971 23.9947 193.971 24.13C193.971 24.2397 193.998 24.3458 194.052 24.4485C194.108 24.5512 194.196 24.6363 194.318 24.704C194.441 24.7717 194.605 24.8055 194.808 24.8055Z" fill="#5E6B77"/>
<path d="M197.553 25.145V21.365H200.559V25.145H200.045V21.8585H198.067V25.145H197.553Z" fill="#5E6B77"/>
<path d="M204.545 21.365V25.145H204.044V22.2015L201.972 25.145H201.538V21.365H202.039V24.284L204.114 21.365H204.545Z" fill="#5E6B77"/>
<path d="M207.095 25.25C206.715 25.25 206.393 25.1648 206.129 24.9945C205.865 24.8242 205.665 24.5897 205.527 24.291C205.392 23.99 205.322 23.6447 205.317 23.255C205.322 22.8583 205.394 22.5107 205.534 22.212C205.674 21.911 205.876 21.6777 206.139 21.512C206.403 21.344 206.723 21.26 207.098 21.26C207.481 21.26 207.814 21.3533 208.096 21.54C208.381 21.7267 208.575 21.9822 208.68 22.3065L208.176 22.4675C208.088 22.2412 207.947 22.0662 207.753 21.9425C207.562 21.8165 207.342 21.7535 207.095 21.7535C206.817 21.7535 206.587 21.8177 206.405 21.946C206.223 22.072 206.088 22.2482 205.999 22.4745C205.911 22.7008 205.865 22.961 205.863 23.255C205.868 23.7077 205.973 24.0717 206.178 24.347C206.383 24.62 206.689 24.7565 207.095 24.7565C207.352 24.7565 207.57 24.6982 207.749 24.5815C207.931 24.4625 208.069 24.2898 208.162 24.0635L208.68 24.2175C208.54 24.5535 208.335 24.8102 208.064 24.9875C207.794 25.1625 207.471 25.25 207.095 25.25Z" fill="#5E6B77"/>
<path d="M209.406 25.145L209.399 21.365H209.917V22.7895H210.803C210.913 22.7895 211.02 22.7918 211.125 22.7965C211.232 22.8012 211.327 22.8105 211.408 22.8245C211.595 22.8595 211.761 22.9213 211.905 23.01C212.052 23.0987 212.167 23.2212 212.248 23.3775C212.332 23.5338 212.374 23.7298 212.374 23.9655C212.374 24.2898 212.29 24.5453 212.122 24.732C211.957 24.9187 211.747 25.04 211.492 25.096C211.397 25.117 211.293 25.131 211.181 25.138C211.069 25.1427 210.958 25.145 210.848 25.145H209.406ZM209.917 24.704H210.827C210.907 24.704 210.995 24.7017 211.093 24.697C211.191 24.6923 211.278 24.6795 211.352 24.6585C211.476 24.6235 211.588 24.5535 211.688 24.4485C211.791 24.3412 211.842 24.1802 211.842 23.9655C211.842 23.7532 211.793 23.5933 211.695 23.486C211.597 23.3763 211.467 23.304 211.303 23.269C211.231 23.2527 211.153 23.2422 211.069 23.2375C210.985 23.2328 210.904 23.2305 210.827 23.2305H209.917V24.704Z" fill="#5E6B77"/>
<path d="M235.321 25.25C234.819 25.25 234.395 25.1392 234.05 24.9175C233.705 24.6935 233.443 24.3843 233.266 23.99C233.089 23.5957 233 23.1407 233 22.625C233 22.1093 233.089 21.6543 233.266 21.26C233.443 20.8657 233.705 20.5577 234.05 20.336C234.395 20.112 234.819 20 235.321 20C235.906 20 236.385 20.1505 236.756 20.4515C237.127 20.7502 237.381 21.1515 237.519 21.6555L236.994 21.792C236.886 21.393 236.694 21.0768 236.416 20.8435C236.138 20.6102 235.773 20.4935 235.321 20.4935C234.926 20.4935 234.598 20.5833 234.337 20.763C234.076 20.9427 233.878 21.1935 233.745 21.5155C233.615 21.8352 233.547 22.205 233.543 22.625C233.54 23.045 233.604 23.4148 233.735 23.7345C233.868 24.0542 234.066 24.305 234.33 24.487C234.596 24.6667 234.926 24.7565 235.321 24.7565C235.773 24.7565 236.138 24.6398 236.416 24.4065C236.694 24.1708 236.886 23.8547 236.994 23.458L237.519 23.5945C237.381 24.0985 237.127 24.501 236.756 24.802C236.385 25.1007 235.906 25.25 235.321 25.25Z" fill="#5E6B77"/>
<path d="M239.316 25.145V21.841H237.976V21.365H241.171V21.841H239.831V25.145H239.316Z" fill="#5E6B77"/>
<path d="M243.349 25.25C242.973 25.25 242.652 25.1648 242.386 24.9945C242.12 24.8242 241.916 24.5885 241.774 24.2875C241.631 23.9865 241.56 23.6412 241.56 23.2515C241.56 22.8548 241.633 22.5072 241.777 22.2085C241.922 21.9098 242.127 21.6777 242.393 21.512C242.662 21.344 242.98 21.26 243.349 21.26C243.727 21.26 244.049 21.3452 244.315 21.5155C244.583 21.6835 244.787 21.918 244.927 22.219C245.07 22.5177 245.141 22.8618 245.141 23.2515C245.141 23.6482 245.07 23.997 244.927 24.298C244.785 24.5967 244.58 24.83 244.311 24.998C244.043 25.166 243.722 25.25 243.349 25.25ZM243.349 24.7565C243.769 24.7565 244.081 24.6177 244.287 24.34C244.492 24.06 244.595 23.6972 244.595 23.2515C244.595 22.7942 244.491 22.4302 244.283 22.1595C244.078 21.8888 243.766 21.7535 243.349 21.7535C243.066 21.7535 242.833 21.8177 242.649 21.946C242.467 22.072 242.33 22.2482 242.239 22.4745C242.151 22.6985 242.106 22.9575 242.106 23.2515C242.106 23.7065 242.211 24.0717 242.421 24.347C242.631 24.62 242.94 24.7565 243.349 24.7565Z" fill="#5E6B77"/>
<path d="M248.916 21.365V25.145H248.415V22.2015L246.343 25.145H245.909V21.365H246.41V24.284L248.485 21.365H248.916Z" fill="#5E6B77"/>
<path d="M249.895 25.145V21.365H250.353L251.827 24.459L253.304 21.365H253.759V25.145H253.262V22.464L251.991 25.145H251.666L250.395 22.464V25.145H249.895Z" fill="#5E6B77"/>
<path d="M256.317 25.25C255.941 25.25 255.62 25.1648 255.354 24.9945C255.088 24.8242 254.884 24.5885 254.742 24.2875C254.599 23.9865 254.528 23.6412 254.528 23.2515C254.528 22.8548 254.6 22.5072 254.745 22.2085C254.89 21.9098 255.095 21.6777 255.361 21.512C255.629 21.344 255.948 21.26 256.317 21.26C256.695 21.26 257.017 21.3452 257.283 21.5155C257.551 21.6835 257.755 21.918 257.895 22.219C258.037 22.5177 258.109 22.8618 258.109 23.2515C258.109 23.6482 258.037 23.997 257.895 24.298C257.753 24.5967 257.547 24.83 257.279 24.998C257.011 25.166 256.69 25.25 256.317 25.25ZM256.317 24.7565C256.737 24.7565 257.049 24.6177 257.255 24.34C257.46 24.06 257.563 23.6972 257.563 23.2515C257.563 22.7942 257.459 22.4302 257.251 22.1595C257.046 21.8888 256.734 21.7535 256.317 21.7535C256.034 21.7535 255.801 21.8177 255.617 21.946C255.435 22.072 255.298 22.2482 255.207 22.4745C255.118 22.6985 255.074 22.9575 255.074 23.2515C255.074 23.7065 255.179 24.0717 255.389 24.347C255.599 24.62 255.908 24.7565 256.317 24.7565Z" fill="#5E6B77"/>
<path d="M260.449 25.25C260.068 25.25 259.746 25.1648 259.483 24.9945C259.219 24.8242 259.018 24.5897 258.881 24.291C258.745 23.99 258.675 23.6447 258.671 23.255C258.675 22.8583 258.748 22.5107 258.888 22.212C259.028 21.911 259.229 21.6777 259.493 21.512C259.757 21.344 260.076 21.26 260.452 21.26C260.835 21.26 261.167 21.3533 261.45 21.54C261.734 21.7267 261.929 21.9822 262.034 22.3065L261.53 22.4675C261.441 22.2412 261.3 22.0662 261.107 21.9425C260.915 21.8165 260.696 21.7535 260.449 21.7535C260.171 21.7535 259.941 21.8177 259.759 21.946C259.577 22.072 259.442 22.2482 259.353 22.4745C259.264 22.7008 259.219 22.961 259.217 23.255C259.221 23.7077 259.326 24.0717 259.532 24.347C259.737 24.62 260.043 24.7565 260.449 24.7565C260.705 24.7565 260.923 24.6982 261.103 24.5815C261.285 24.4625 261.423 24.2898 261.516 24.0635L262.034 24.2175C261.894 24.5535 261.689 24.8102 261.418 24.9875C261.147 25.1625 260.824 25.25 260.449 25.25Z" fill="#5E6B77"/>
<path d="M263.693 25.145V21.841H262.353V21.365H265.548V21.841H264.208V25.145H263.693Z" fill="#5E6B77"/>
<path d="M266.219 25.145L266.212 21.365H266.73V22.7895H267.616C267.725 22.7895 267.833 22.7918 267.938 22.7965C268.045 22.8012 268.139 22.8105 268.221 22.8245C268.408 22.8595 268.573 22.9213 268.718 23.01C268.865 23.0987 268.979 23.2212 269.061 23.3775C269.145 23.5338 269.187 23.7298 269.187 23.9655C269.187 24.2898 269.103 24.5453 268.935 24.732C268.769 24.9187 268.559 25.04 268.305 25.096C268.209 25.117 268.106 25.131 267.994 25.138C267.882 25.1427 267.771 25.145 267.661 25.145H266.219ZM266.73 24.704H267.64C267.719 24.704 267.808 24.7017 267.906 24.697C268.004 24.6923 268.09 24.6795 268.165 24.6585C268.289 24.6235 268.401 24.5535 268.501 24.4485C268.604 24.3412 268.655 24.1802 268.655 23.9655C268.655 23.7532 268.606 23.5933 268.508 23.486C268.41 23.3763 268.279 23.304 268.116 23.269C268.044 23.2527 267.966 23.2422 267.882 23.2375C267.798 23.2328 267.717 23.2305 267.64 23.2305H266.73V24.704Z" fill="#5E6B77"/>
<path d="M233.141 46.1415L233.144 45.6725L235.423 43.6145C235.619 43.4372 235.748 43.2692 235.811 43.1105C235.876 42.9495 235.909 42.7815 235.909 42.6065C235.909 42.3988 235.86 42.211 235.762 42.043C235.664 41.875 235.532 41.742 235.367 41.644C235.201 41.5437 235.015 41.4935 234.81 41.4935C234.595 41.4935 234.404 41.5448 234.236 41.6475C234.068 41.7502 233.935 41.8855 233.837 42.0535C233.741 42.2215 233.695 42.4047 233.697 42.603H233.172C233.172 42.2973 233.244 42.0232 233.389 41.7805C233.534 41.5378 233.73 41.3477 233.977 41.21C234.224 41.07 234.504 41 234.817 41C235.123 41 235.397 41.0723 235.64 41.217C235.885 41.3593 236.077 41.553 236.217 41.798C236.359 42.0407 236.431 42.3113 236.431 42.61C236.431 42.82 236.405 43.0055 236.354 43.1665C236.305 43.3252 236.226 43.4733 236.119 43.611C236.014 43.7463 235.88 43.8863 235.717 44.031L233.694 45.858L233.613 45.648H236.431V46.1415H233.141Z" fill="#5E6B77"/>
<path d="M237.371 46.145V45.5465H237.969V46.145H237.371Z" fill="#5E6B77"/>
<path d="M240.587 46.25C240.272 46.25 239.993 46.187 239.75 46.061C239.51 45.935 239.321 45.7588 239.183 45.5325C239.048 45.3038 238.98 45.0367 238.98 44.731C238.98 44.4183 239.056 44.1407 239.208 43.898C239.359 43.653 239.59 43.4675 239.901 43.3415L239.894 43.5445C239.635 43.4488 239.437 43.2925 239.302 43.0755C239.167 42.8585 239.099 42.6182 239.099 42.3545C239.099 42.0745 239.163 41.8342 239.292 41.6335C239.42 41.4305 239.595 41.2742 239.817 41.1645C240.041 41.0548 240.297 41 240.587 41C240.876 41 241.133 41.0548 241.357 41.1645C241.581 41.2742 241.757 41.4305 241.885 41.6335C242.013 41.8342 242.078 42.0745 242.078 42.3545C242.078 42.6182 242.012 42.8573 241.882 43.072C241.753 43.2867 241.556 43.4442 241.29 43.5445L241.273 43.3415C241.583 43.4652 241.815 43.6495 241.969 43.8945C242.125 44.1395 242.204 44.4183 242.204 44.731C242.204 45.0367 242.135 45.3038 241.997 45.5325C241.859 45.7588 241.669 45.935 241.427 46.061C241.184 46.187 240.904 46.25 240.587 46.25ZM240.587 45.7565C240.904 45.7565 241.162 45.669 241.36 45.494C241.558 45.3167 241.658 45.0623 241.658 44.731C241.658 44.395 241.56 44.1407 241.364 43.968C241.168 43.793 240.909 43.7055 240.587 43.7055C240.265 43.7055 240.007 43.793 239.813 43.968C239.619 44.1407 239.523 44.395 239.523 44.731C239.523 45.0623 239.621 45.3167 239.817 45.494C240.013 45.669 240.269 45.7565 240.587 45.7565ZM240.587 43.2085C240.867 43.2085 241.094 43.1373 241.269 42.995C241.444 42.8503 241.532 42.6368 241.532 42.3545C241.532 42.0722 241.444 41.861 241.269 41.721C241.094 41.5787 240.867 41.5075 240.587 41.5075C240.307 41.5075 240.079 41.5787 239.904 41.721C239.731 41.861 239.645 42.0722 239.645 42.3545C239.645 42.6368 239.731 42.8503 239.904 42.995C240.079 43.1373 240.307 43.2085 240.587 43.2085Z" fill="#5E6B77"/>
<path d="M234.159 67.145V62.679L233.211 63.2495V62.672L234.159 62.105H234.681V67.145H234.159Z" fill="#5E6B77"/>
<path d="M235.826 67.145V66.5465H236.425V67.145H235.826Z" fill="#5E6B77"/>
<path d="M239.725 67.145V66.1685H237.366V65.6785L239.053 62.105H239.63L237.943 65.6785H239.725V64.2085H240.243V65.6785H240.792V66.1685H240.243V67.145H239.725Z" fill="#5E6B77"/>
<path d="M194.5 49.145C197.537 49.145 200 46.6825 200 43.645C200 40.6076 197.537 38.145 194.5 38.145C191.463 38.145 189 40.6076 189 43.645C189 46.6825 191.463 49.145 194.5 49.145Z" fill="white" stroke="#5E6B77" stroke-width="0.5" stroke-linecap="round" stroke-linejoin="round"/>
<path d="M196.332 43.6446L193.398 41.8116V45.4783L196.332 43.6446Z" fill="#5E6B77"/>
<path d="M194.5 70.145C197.537 70.145 200 67.6825 200 64.645C200 61.6076 197.537 59.145 194.5 59.145C191.463 59.145 189 61.6076 189 64.645C189 67.6825 191.463 70.145 194.5 70.145Z" fill="white" stroke="#5E6B77" stroke-width="0.5" stroke-linecap="round" stroke-linejoin="round"/>
<path d="M196.332 64.6446L193.398 62.8116V66.4783L196.332 64.6446Z" fill="#5E6B77"/>
<path d="M106.648 38H64.3525C64.1578 38 64 39.2737 64 40.8448V90.1552C64 91.7263 64.1578 93 64.3525 93H106.648C106.842 93 107 91.7263 107 90.1552V40.8448C107 39.2737 106.842 38 106.648 38Z" stroke="#F88C28" stroke-dasharray="3 3"/>
<path d="M71.1406 46.1452L72.8766 41.1052H73.5591L75.2951 46.1452H74.7596L73.1111 41.3922H73.3141L71.6761 46.1452H71.1406ZM71.9141 44.9237V44.4407H74.5181V44.9237H71.9141Z" fill="#5E6B77"/>
<path d="M75.5771 46.1452V45.6937C75.7171 45.7193 75.8233 45.7135 75.8956 45.6762C75.9703 45.6365 76.0251 45.5712 76.0601 45.4802C76.0951 45.3868 76.1243 45.2713 76.1476 45.1337C76.185 44.905 76.2188 44.653 76.2491 44.3777C76.2795 44.1023 76.3063 43.799 76.3296 43.4677C76.3553 43.134 76.381 42.7665 76.4066 42.3652H78.9756V46.1452H78.4646V42.8587H76.8826C76.8663 43.106 76.8476 43.3522 76.8266 43.5972C76.8056 43.8422 76.7835 44.0778 76.7601 44.3042C76.7391 44.5282 76.7158 44.7347 76.6901 44.9237C76.6645 45.1127 76.6376 45.276 76.6096 45.4137C76.5676 45.6213 76.5116 45.787 76.4416 45.9107C76.374 46.0343 76.2725 46.116 76.1371 46.1557C76.0018 46.1953 75.8151 46.1918 75.5771 46.1452Z" fill="#5E6B77"/>
<path d="M81.553 46.2502C81.1843 46.2502 80.8647 46.1685 80.594 46.0052C80.3257 45.8418 80.1168 45.612 79.9675 45.3157C79.8182 45.0193 79.7435 44.6717 79.7435 44.2727C79.7435 43.8597 79.817 43.5027 79.964 43.2017C80.111 42.9007 80.3175 42.6685 80.5835 42.5052C80.8518 42.3418 81.168 42.2602 81.532 42.2602C81.9053 42.2602 82.2238 42.3465 82.4875 42.5192C82.7512 42.6895 82.9507 42.9345 83.086 43.2542C83.2213 43.5738 83.2832 43.9553 83.2715 44.3987H82.7465V44.2167C82.7372 43.7267 82.631 43.3568 82.428 43.1072C82.2273 42.8575 81.9333 42.7327 81.546 42.7327C81.14 42.7327 80.8285 42.8645 80.6115 43.1282C80.3968 43.3918 80.2895 43.7675 80.2895 44.2552C80.2895 44.7312 80.3968 45.101 80.6115 45.3647C80.8285 45.626 81.1353 45.7567 81.532 45.7567C81.8027 45.7567 82.0383 45.6948 82.239 45.5712C82.442 45.4452 82.6018 45.2643 82.7185 45.0287L83.198 45.2142C83.0487 45.5432 82.8282 45.7987 82.5365 45.9807C82.2472 46.1603 81.9193 46.2502 81.553 46.2502ZM80.1075 44.3987V43.9682H82.995V44.3987H80.1075Z" fill="#5E6B77"/>
<path d="M84.0447 46.1452L84.0482 42.3652H84.5662V44.1852L86.2532 42.3652H86.9392L85.1682 44.2552L87.1702 46.1452H86.4212L84.5662 44.3252V46.1452H84.0447Z" fill="#5E6B77"/>
<path d="M89.0205 46.2502C88.6402 46.2502 88.3182 46.165 88.0545 45.9947C87.7909 45.8243 87.5902 45.5898 87.4525 45.2912C87.3172 44.9902 87.2472 44.6448 87.2425 44.2552C87.2472 43.8585 87.3195 43.5108 87.4595 43.2122C87.5995 42.9112 87.8014 42.6778 88.065 42.5122C88.3287 42.3442 88.6484 42.2602 89.024 42.2602C89.4067 42.2602 89.7392 42.3535 90.0215 42.5402C90.3062 42.7268 90.501 42.9823 90.606 43.3067L90.102 43.4677C90.0134 43.2413 89.8722 43.0663 89.6785 42.9427C89.4872 42.8167 89.2679 42.7537 89.0205 42.7537C88.7429 42.7537 88.513 42.8178 88.331 42.9462C88.149 43.0722 88.0137 43.2483 87.925 43.4747C87.8364 43.701 87.7909 43.9612 87.7885 44.2552C87.7932 44.7078 87.8982 45.0718 88.1035 45.3472C88.3089 45.6202 88.6145 45.7567 89.0205 45.7567C89.2772 45.7567 89.4954 45.6983 89.675 45.5817C89.857 45.4627 89.9947 45.29 90.088 45.0637L90.606 45.2177C90.466 45.5537 90.2607 45.8103 89.99 45.9877C89.7194 46.1627 89.3962 46.2502 89.0205 46.2502Z" fill="#5E6B77"/>
<path d="M92.928 46.2502C92.5593 46.2502 92.2397 46.1685 91.969 46.0052C91.7007 45.8418 91.4918 45.612 91.3425 45.3157C91.1932 45.0193 91.1185 44.6717 91.1185 44.2727C91.1185 43.8597 91.192 43.5027 91.339 43.2017C91.486 42.9007 91.6925 42.6685 91.9585 42.5052C92.2268 42.3418 92.543 42.2602 92.907 42.2602C93.2803 42.2602 93.5989 42.3465 93.8625 42.5192C94.1262 42.6895 94.3257 42.9345 94.461 43.2542C94.5963 43.5738 94.6582 43.9553 94.6465 44.3987H94.1215V44.2167C94.1122 43.7267 94.006 43.3568 93.803 43.1072C93.6024 42.8575 93.3083 42.7327 92.921 42.7327C92.515 42.7327 92.2035 42.8645 91.9865 43.1282C91.7718 43.3918 91.6645 43.7675 91.6645 44.2552C91.6645 44.7312 91.7718 45.101 91.9865 45.3647C92.2035 45.626 92.5103 45.7567 92.907 45.7567C93.1777 45.7567 93.4133 45.6948 93.614 45.5712C93.817 45.4452 93.9768 45.2643 94.0935 45.0287L94.573 45.2142C94.4237 45.5432 94.2032 45.7987 93.9115 45.9807C93.6222 46.1603 93.2943 46.2502 92.928 46.2502ZM91.4825 44.3987V43.9682H94.37V44.3987H91.4825Z" fill="#5E6B77"/>
<path d="M96.9912 41.9172C96.8256 41.9172 96.6739 41.8763 96.5362 41.7947C96.3986 41.713 96.2889 41.6045 96.2072 41.4692C96.1279 41.3315 96.0882 41.1798 96.0882 41.0142H96.5152C96.5152 41.1448 96.5619 41.2568 96.6552 41.3502C96.7486 41.4435 96.8606 41.4902 96.9912 41.4902C97.1242 41.4902 97.2362 41.4435 97.3272 41.3502C97.4206 41.2568 97.4672 41.1448 97.4672 41.0142H97.8942C97.8942 41.1798 97.8534 41.3315 97.7717 41.4692C97.6924 41.6045 97.5839 41.713 97.4462 41.7947C97.3086 41.8763 97.1569 41.9172 96.9912 41.9172ZM98.4262 42.3652V46.1452H97.9257V43.2017L95.8537 46.1452H95.4197V42.3652H95.9202V45.2842L97.9957 42.3652H98.4262Z" fill="#5E6B77"/>
<path d="M71.1406 67.145L72.8766 62.105H73.5591L75.2951 67.145H74.7596L73.1111 62.392H73.3141L71.6761 67.145H71.1406ZM71.9141 65.9235V65.4405H74.5181V65.9235H71.9141Z" fill="#5E6B77"/>
<path d="M77.6246 67.25C77.277 67.25 76.983 67.1625 76.7426 66.9875C76.5023 66.8101 76.3203 66.571 76.1966 66.27C76.073 65.9666 76.0111 65.6271 76.0111 65.2515C76.0111 64.8688 76.073 64.5281 76.1966 64.2295C76.3226 63.9285 76.507 63.6916 76.7496 63.519C76.9923 63.3463 77.291 63.26 77.6456 63.26C77.991 63.26 78.2873 63.3475 78.5346 63.5225C78.782 63.6975 78.971 63.9355 79.1016 64.2365C79.2346 64.5375 79.3011 64.8758 79.3011 65.2515C79.3011 65.6295 79.2346 65.969 79.1016 66.27C78.9686 66.571 78.7773 66.8101 78.5276 66.9875C78.278 67.1625 77.977 67.25 77.6246 67.25ZM75.9236 68.825V63.365H76.3856V66.2105H76.4416V68.825H75.9236ZM77.5721 66.7705C77.8358 66.7705 78.0551 66.704 78.2301 66.571C78.4051 66.438 78.5358 66.2571 78.6221 66.0285C78.7108 65.7975 78.7551 65.5385 78.7551 65.2515C78.7551 64.9668 78.712 64.7101 78.6256 64.4815C78.5393 64.2528 78.4075 64.072 78.2301 63.939C78.0551 63.806 77.8323 63.7395 77.5616 63.7395C77.298 63.7395 77.0786 63.8036 76.9036 63.932C76.731 64.0603 76.6015 64.2388 76.5151 64.4675C76.4288 64.6938 76.3856 64.9551 76.3856 65.2515C76.3856 65.5431 76.4288 65.8045 76.5151 66.0355C76.6015 66.2641 76.7321 66.4438 76.9071 66.5745C77.0821 66.7051 77.3038 66.7705 77.5721 66.7705Z" fill="#5E6B77"/>
<path d="M81.0952 67.145V63.841H79.7547V63.365H82.9502V63.841H81.6097V67.145H81.0952Z" fill="#5E6B77"/>
<path d="M85.2171 67.25C84.8484 67.25 84.5287 67.1683 84.2581 67.005C83.9897 66.8416 83.7809 66.6118 83.6316 66.3155C83.4822 66.0191 83.4076 65.6715 83.4076 65.2725C83.4076 64.8595 83.4811 64.5025 83.6281 64.2015C83.7751 63.9005 83.9816 63.6683 84.2476 63.505C84.5159 63.3416 84.8321 63.26 85.1961 63.26C85.5694 63.26 85.8879 63.3463 86.1516 63.519C86.4152 63.6893 86.6147 63.9343 86.7501 64.254C86.8854 64.5736 86.9472 64.9551 86.9356 65.3985H86.4106V65.2165C86.4012 64.7265 86.2951 64.3566 86.0921 64.107C85.8914 63.8573 85.5974 63.7325 85.2101 63.7325C84.8041 63.7325 84.4926 63.8643 84.2756 64.128C84.0609 64.3916 83.9536 64.7673 83.9536 65.255C83.9536 65.731 84.0609 66.1008 84.2756 66.3645C84.4926 66.6258 84.7994 66.7565 85.1961 66.7565C85.4667 66.7565 85.7024 66.6946 85.9031 66.571C86.1061 66.445 86.2659 66.2641 86.3826 66.0285L86.8621 66.214C86.7127 66.543 86.4922 66.7985 86.2006 66.9805C85.9112 67.1601 85.5834 67.25 85.2171 67.25ZM83.7716 65.3985V64.968H86.6591V65.3985H83.7716Z" fill="#5E6B77"/>
<path d="M87.6063 67.145V63.365H88.0648L89.5383 66.459L91.0153 63.365H91.4703V67.145H90.9733V64.464L89.7028 67.145H89.3773L88.1068 64.464V67.145H87.6063Z" fill="#5E6B77"/>
<path d="M71.1406 88.1452L72.8766 83.1052H73.5591L75.2951 88.1452H74.7596L73.1111 83.3922H73.3141L71.6761 88.1452H71.1406ZM71.9141 86.9237V86.4407H74.5181V86.9237H71.9141Z" fill="#5E6B77"/>
<path d="M75.5771 88.1452V87.6937C75.7171 87.7193 75.8233 87.7135 75.8956 87.6762C75.9703 87.6365 76.0251 87.5712 76.0601 87.4802C76.0951 87.3868 76.1243 87.2713 76.1476 87.1337C76.185 86.905 76.2188 86.653 76.2491 86.3777C76.2795 86.1023 76.3063 85.799 76.3296 85.4677C76.3553 85.134 76.381 84.7665 76.4066 84.3652H78.9756V88.1452H78.4646V84.8587H76.8826C76.8663 85.106 76.8476 85.3522 76.8266 85.5972C76.8056 85.8422 76.7835 86.0778 76.7601 86.3042C76.7391 86.5282 76.7158 86.7347 76.6901 86.9237C76.6645 87.1127 76.6376 87.276 76.6096 87.4137C76.5676 87.6213 76.5116 87.787 76.4416 87.9107C76.374 88.0343 76.2725 88.116 76.1371 88.1557C76.0018 88.1953 75.8151 88.1918 75.5771 88.1452Z" fill="#5E6B77"/>
<path d="M81.553 88.2502C81.1843 88.2502 80.8647 88.1685 80.594 88.0052C80.3257 87.8418 80.1168 87.612 79.9675 87.3157C79.8182 87.0193 79.7435 86.6717 79.7435 86.2727C79.7435 85.8597 79.817 85.5027 79.964 85.2017C80.111 84.9007 80.3175 84.6685 80.5835 84.5052C80.8518 84.3418 81.168 84.2602 81.532 84.2602C81.9053 84.2602 82.2238 84.3465 82.4875 84.5192C82.7512 84.6895 82.9507 84.9345 83.086 85.2542C83.2213 85.5738 83.2832 85.9553 83.2715 86.3987H82.7465V86.2167C82.7372 85.7267 82.631 85.3568 82.428 85.1072C82.2273 84.8575 81.9333 84.7327 81.546 84.7327C81.14 84.7327 80.8285 84.8645 80.6115 85.1282C80.3968 85.3918 80.2895 85.7675 80.2895 86.2552C80.2895 86.7312 80.3968 87.101 80.6115 87.3647C80.8285 87.626 81.1353 87.7567 81.532 87.7567C81.8027 87.7567 82.0383 87.6948 82.239 87.5712C82.442 87.4452 82.6018 87.2643 82.7185 87.0287L83.198 87.2142C83.0487 87.5432 82.8282 87.7987 82.5365 87.9807C82.2472 88.1603 81.9193 88.2502 81.553 88.2502ZM80.1075 86.3987V85.9682H82.995V86.3987H80.1075Z" fill="#5E6B77"/>
<path d="M84.0447 88.1452L84.0482 84.3652H84.5662V86.1852L86.2532 84.3652H86.9392L85.1682 86.2552L87.1702 88.1452H86.4212L84.5662 86.3252V88.1452H84.0447Z" fill="#5E6B77"/>
<path d="M89.0205 88.2502C88.6402 88.2502 88.3182 88.165 88.0545 87.9947C87.7909 87.8243 87.5902 87.5898 87.4525 87.2912C87.3172 86.9902 87.2472 86.6448 87.2425 86.2552C87.2472 85.8585 87.3195 85.5108 87.4595 85.2122C87.5995 84.9112 87.8014 84.6778 88.065 84.5122C88.3287 84.3442 88.6484 84.2602 89.024 84.2602C89.4067 84.2602 89.7392 84.3535 90.0215 84.5402C90.3062 84.7268 90.501 84.9823 90.606 85.3067L90.102 85.4677C90.0134 85.2413 89.8722 85.0663 89.6785 84.9427C89.4872 84.8167 89.2679 84.7537 89.0205 84.7537C88.7429 84.7537 88.513 84.8178 88.331 84.9462C88.149 85.0722 88.0137 85.2483 87.925 85.4747C87.8364 85.701 87.7909 85.9612 87.7885 86.2552C87.7932 86.7078 87.8982 87.0718 88.1035 87.3472C88.3089 87.6202 88.6145 87.7567 89.0205 87.7567C89.2772 87.7567 89.4954 87.6983 89.675 87.5817C89.857 87.4627 89.9947 87.29 90.088 87.0637L90.606 87.2177C90.466 87.5537 90.2607 87.8103 89.99 87.9877C89.7194 88.1627 89.3962 88.2502 89.0205 88.2502Z" fill="#5E6B77"/>
<path d="M92.928 88.2502C92.5593 88.2502 92.2397 88.1685 91.969 88.0052C91.7007 87.8418 91.4918 87.612 91.3425 87.3157C91.1932 87.0193 91.1185 86.6717 91.1185 86.2727C91.1185 85.8597 91.192 85.5027 91.339 85.2017C91.486 84.9007 91.6925 84.6685 91.9585 84.5052C92.2268 84.3418 92.543 84.2602 92.907 84.2602C93.2803 84.2602 93.5989 84.3465 93.8625 84.5192C94.1262 84.6895 94.3257 84.9345 94.461 85.2542C94.5963 85.5738 94.6582 85.9553 94.6465 86.3987H94.1215V86.2167C94.1122 85.7267 94.006 85.3568 93.803 85.1072C93.6024 84.8575 93.3083 84.7327 92.921 84.7327C92.515 84.7327 92.2035 84.8645 91.9865 85.1282C91.7718 85.3918 91.6645 85.7675 91.6645 86.2552C91.6645 86.7312 91.7718 87.101 91.9865 87.3647C92.2035 87.626 92.5103 87.7567 92.907 87.7567C93.1777 87.7567 93.4133 87.6948 93.614 87.5712C93.817 87.4452 93.9768 87.2643 94.0935 87.0287L94.573 87.2142C94.4237 87.5432 94.2032 87.7987 93.9115 87.9807C93.6222 88.1603 93.2943 88.2502 92.928 88.2502ZM91.4825 86.3987V85.9682H94.37V86.3987H91.4825Z" fill="#5E6B77"/>
<path d="M96.9912 83.9172C96.8256 83.9172 96.6739 83.8763 96.5362 83.7947C96.3986 83.713 96.2889 83.6045 96.2072 83.4692C96.1279 83.3315 96.0882 83.1798 96.0882 83.0142H96.5152C96.5152 83.1448 96.5619 83.2568 96.6552 83.3502C96.7486 83.4435 96.8606 83.4902 96.9912 83.4902C97.1242 83.4902 97.2362 83.4435 97.3272 83.3502C97.4206 83.2568 97.4672 83.1448 97.4672 83.0142H97.8942C97.8942 83.1798 97.8534 83.3315 97.7717 83.4692C97.6924 83.6045 97.5839 83.713 97.4462 83.7947C97.3086 83.8763 97.1569 83.9172 96.9912 83.9172ZM98.4262 84.3652V88.1452H97.9257V85.2017L95.8537 88.1452H95.4197V84.3652H95.9202V87.2842L97.9957 84.3652H98.4262Z" fill="#5E6B77"/>
</svg>
