<svg width="247" height="199" viewBox="0 0 247 199" fill="none" xmlns="http://www.w3.org/2000/svg">
<g clip-path="url(#clip0_6450_39501)">
<path d="M0.855469 144.282H245.835" stroke="#55626F" stroke-width="0.7" stroke-linecap="round" stroke-linejoin="round"/>
<path d="M50.7834 40.0825H199.217C200.362 40.0825 201.46 40.5382 202.27 41.3494C203.079 42.1606 203.534 43.2608 203.534 44.408V147.906H46.5098V44.3918C46.514 43.2549 46.9647 42.1653 47.7645 41.3588C48.5643 40.5524 49.6488 40.0939 50.7834 40.0825Z" fill="#55626F" stroke="#55626F" stroke-width="0.7" stroke-linecap="round" stroke-linejoin="round"/>
<path d="M227.088 195.568H22.9297L46.4833 147.906H203.529L227.088 195.568Z" fill="#F6F7F8" stroke="#55626F" stroke-width="0.7" stroke-linecap="round" stroke-linejoin="round"/>
<path d="M194.016 48.6201H55.9961V139.369H194.016V48.6201Z" fill="white" stroke="#55626F" stroke-width="0.7" stroke-linecap="round" stroke-linejoin="round"/>
<path d="M118.455 162.992L118.73 157.185H110.431L109.881 162.992H118.455Z" fill="#55626F" stroke="#F6F7F8" stroke-width="0.7" stroke-linecap="round" stroke-linejoin="round"/>
<path d="M135.61 162.992L135.324 157.185H127.025L127.031 162.992H135.61Z" fill="#55626F" stroke="#F6F7F8" stroke-width="0.7" stroke-linecap="round" stroke-linejoin="round"/>
<path d="M180.272 169.204H189.143L187.061 162.991H178.486L180.272 169.204Z" fill="#55626F" stroke="#F6F7F8" stroke-width="0.7" stroke-linecap="round" stroke-linejoin="round"/>
<path d="M109.881 162.992L110.431 157.185H102.132L101.307 162.992H109.881Z" fill="#55626F" stroke="#F6F7F8" stroke-width="0.7" stroke-linecap="round" stroke-linejoin="round"/>
<path d="M92.732 162.992L93.8328 157.185H85.5337L84.1523 162.992H92.732Z" fill="#55626F" stroke="#F6F7F8" stroke-width="0.7" stroke-linecap="round" stroke-linejoin="round"/>
<path d="M169.912 162.992L168.514 157.185H160.221L161.332 162.992H169.912Z" fill="#55626F" stroke="#F6F7F8" stroke-width="0.7" stroke-linecap="round" stroke-linejoin="round"/>
<path d="M178.486 162.992L176.813 157.185H168.514L169.911 162.992H178.486Z" fill="#55626F" stroke="#F6F7F8" stroke-width="0.7" stroke-linecap="round" stroke-linejoin="round"/>
<path d="M84.1524 162.992L85.5338 157.185H77.2401L75.5781 162.992H84.1524Z" fill="#55626F" stroke="#F6F7F8" stroke-width="0.7" stroke-linecap="round" stroke-linejoin="round"/>
<path d="M144.185 162.992L143.623 157.185H135.324L135.61 162.992H144.185Z" fill="#55626F" stroke="#F6F7F8" stroke-width="0.7" stroke-linecap="round" stroke-linejoin="round"/>
<path d="M187.062 162.992L185.114 157.185H176.814L178.487 162.992H187.062Z" fill="#55626F" stroke="#F6F7F8" stroke-width="0.7" stroke-linecap="round" stroke-linejoin="round"/>
<path d="M161.333 162.992L160.221 157.185H151.922L152.758 162.992H161.333Z" fill="#55626F" stroke="#F6F7F8" stroke-width="0.7" stroke-linecap="round" stroke-linejoin="round"/>
<path d="M152.759 162.992L151.922 157.185H143.623L144.184 162.992H152.759Z" fill="#55626F" stroke="#F6F7F8" stroke-width="0.7" stroke-linecap="round" stroke-linejoin="round"/>
<path d="M127.029 162.992L127.024 157.185H118.73L118.455 162.992H127.029Z" fill="#55626F" stroke="#F6F7F8" stroke-width="0.7" stroke-linecap="round" stroke-linejoin="round"/>
<path d="M67.0037 162.991H58.4294L56.0605 169.204H64.9316L67.0037 162.991Z" fill="#55626F" stroke="#F6F7F8" stroke-width="0.7" stroke-linecap="round" stroke-linejoin="round"/>
<path d="M68.9412 157.185H60.6421L58.4297 162.992H67.004L68.9412 157.185Z" fill="#55626F" stroke="#F6F7F8" stroke-width="0.7" stroke-linecap="round" stroke-linejoin="round"/>
<path d="M75.5782 162.992L77.2402 157.185H68.9411L67.0039 162.992H75.5782Z" fill="#55626F" stroke="#F6F7F8" stroke-width="0.7" stroke-linecap="round" stroke-linejoin="round"/>
<path d="M53.5253 175.86L50.7949 183.008H60.3297L62.7147 175.86H53.5253Z" fill="#55626F" stroke="#F6F7F8" stroke-width="0.7" stroke-linecap="round" stroke-linejoin="round"/>
<path d="M64.9326 169.204H56.0615L53.5254 175.86H62.7148L64.9326 169.204Z" fill="#55626F" stroke="#F6F7F8" stroke-width="0.7" stroke-linecap="round" stroke-linejoin="round"/>
<path d="M62.7151 175.86L60.3301 183.008H69.8595L71.9046 175.86H62.7151Z" fill="#55626F" stroke="#F6F7F8" stroke-width="0.7" stroke-linecap="round" stroke-linejoin="round"/>
<path d="M101.307 162.992L102.132 157.185H93.8332L92.7324 162.992H101.307Z" fill="#55626F" stroke="#F6F7F8" stroke-width="0.7" stroke-linecap="round" stroke-linejoin="round"/>
<path d="M100.422 169.204L101.307 162.991H92.7325L91.5508 169.204H100.422Z" fill="#55626F" stroke="#F6F7F8" stroke-width="0.7" stroke-linecap="round" stroke-linejoin="round"/>
<path d="M91.5503 169.204L92.732 162.991H84.1523L82.6738 169.204H91.5503Z" fill="#55626F" stroke="#F6F7F8" stroke-width="0.7" stroke-linecap="round" stroke-linejoin="round"/>
<path d="M109.293 169.204L109.881 162.991H101.307L100.422 169.204H109.293Z" fill="#55626F" stroke="#F6F7F8" stroke-width="0.7" stroke-linecap="round" stroke-linejoin="round"/>
<path d="M75.578 162.991H67.0037L64.9316 169.204H73.8027L75.578 162.991Z" fill="#55626F" stroke="#F6F7F8" stroke-width="0.7" stroke-linecap="round" stroke-linejoin="round"/>
<path d="M182.182 175.86H191.371L189.143 169.204H180.271L182.182 175.86Z" fill="#55626F" stroke="#F6F7F8" stroke-width="0.7" stroke-linecap="round" stroke-linejoin="round"/>
<path d="M82.6738 169.204L84.1523 162.991H75.578L73.8027 169.204H82.6738Z" fill="#55626F" stroke="#F6F7F8" stroke-width="0.7" stroke-linecap="round" stroke-linejoin="round"/>
<path d="M64.9326 169.204L62.7148 175.86H71.9043L73.8037 169.204H64.9326Z" fill="#55626F" stroke="#F6F7F8" stroke-width="0.7" stroke-linecap="round" stroke-linejoin="round"/>
<path d="M162.525 169.204L161.332 162.991H152.758L153.654 169.204H162.525Z" fill="#55626F" stroke="#F6F7F8" stroke-width="0.7" stroke-linecap="round" stroke-linejoin="round"/>
<path d="M153.654 169.204L152.758 162.991H144.184L144.783 169.204H153.654Z" fill="#55626F" stroke="#F6F7F8" stroke-width="0.7" stroke-linecap="round" stroke-linejoin="round"/>
<path d="M180.272 169.204L178.486 162.991H169.912L171.396 169.204H180.272Z" fill="#55626F" stroke="#F6F7F8" stroke-width="0.7" stroke-linecap="round" stroke-linejoin="round"/>
<path d="M127.035 169.204L127.03 162.991H118.455L118.164 169.204H127.035Z" fill="#55626F" stroke="#F6F7F8" stroke-width="0.7" stroke-linecap="round" stroke-linejoin="round"/>
<path d="M144.783 169.204L144.184 162.991H135.609L135.912 169.204H144.783Z" fill="#55626F" stroke="#F6F7F8" stroke-width="0.7" stroke-linecap="round" stroke-linejoin="round"/>
<path d="M135.911 169.204L135.609 162.991H127.029L127.035 169.204H135.911Z" fill="#55626F" stroke="#F6F7F8" stroke-width="0.7" stroke-linecap="round" stroke-linejoin="round"/>
<path d="M118.164 169.204L118.455 162.991H109.881L109.293 169.204H118.164Z" fill="#55626F" stroke="#F6F7F8" stroke-width="0.7" stroke-linecap="round" stroke-linejoin="round"/>
<path d="M144.783 169.204L145.425 175.86H154.615L153.654 169.204H144.783Z" fill="#55626F" stroke="#F6F7F8" stroke-width="0.7" stroke-linecap="round" stroke-linejoin="round"/>
<path d="M153.654 169.204L154.615 175.86H163.804L162.525 169.204H153.654Z" fill="#55626F" stroke="#F6F7F8" stroke-width="0.7" stroke-linecap="round" stroke-linejoin="round"/>
<path d="M73.8037 169.204L71.9043 175.86H81.0937L82.6748 169.204H73.8037Z" fill="#55626F" stroke="#F6F7F8" stroke-width="0.7" stroke-linecap="round" stroke-linejoin="round"/>
<path d="M162.525 169.204L163.804 175.86H172.994L171.396 169.204H162.525Z" fill="#55626F" stroke="#F6F7F8" stroke-width="0.7" stroke-linecap="round" stroke-linejoin="round"/>
<path d="M127.035 169.204L127.046 175.86H136.235L135.912 169.204H127.035Z" fill="#55626F" stroke="#F6F7F8" stroke-width="0.7" stroke-linecap="round" stroke-linejoin="round"/>
<path d="M171.396 169.204L172.994 175.86H182.183L180.273 169.204H171.396Z" fill="#55626F" stroke="#F6F7F8" stroke-width="0.7" stroke-linecap="round" stroke-linejoin="round"/>
<path d="M135.912 169.204L136.236 175.86H145.425L144.783 169.204H135.912Z" fill="#55626F" stroke="#F6F7F8" stroke-width="0.7" stroke-linecap="round" stroke-linejoin="round"/>
<path d="M91.5513 169.204L90.2832 175.86H99.4726L100.422 169.204H91.5513Z" fill="#55626F" stroke="#F6F7F8" stroke-width="0.7" stroke-linecap="round" stroke-linejoin="round"/>
<path d="M82.6748 169.204L81.0938 175.86H90.2832L91.5513 169.204H82.6748Z" fill="#55626F" stroke="#F6F7F8" stroke-width="0.7" stroke-linecap="round" stroke-linejoin="round"/>
<path d="M118.165 169.204L117.852 175.86H127.046L127.036 169.204H118.165Z" fill="#55626F" stroke="#F6F7F8" stroke-width="0.7" stroke-linecap="round" stroke-linejoin="round"/>
<path d="M109.293 169.204L108.662 175.86H117.852L118.165 169.204H109.293Z" fill="#55626F" stroke="#F6F7F8" stroke-width="0.7" stroke-linecap="round" stroke-linejoin="round"/>
<path d="M100.422 169.204L99.4727 175.86H108.662L109.293 169.204H100.422Z" fill="#55626F" stroke="#F6F7F8" stroke-width="0.7" stroke-linecap="round" stroke-linejoin="round"/>
<path d="M171.396 169.204L169.912 162.991H161.332L162.525 169.204H171.396Z" fill="#55626F" stroke="#F6F7F8" stroke-width="0.7" stroke-linecap="round" stroke-linejoin="round"/>
<path d="M68.9417 157.184L70.922 151.237H62.9089L60.6426 157.184H68.9417Z" fill="#55626F" stroke="#F6F7F8" stroke-width="0.7" stroke-linecap="round" stroke-linejoin="round"/>
<path d="M60.642 157.185H52.9851L50.5137 162.992H58.4296L60.642 157.185Z" fill="#55626F" stroke="#F6F7F8" stroke-width="0.7" stroke-linecap="round" stroke-linejoin="round"/>
<path d="M62.9096 151.237H55.5117L52.9863 157.184H60.6433L62.9096 151.237Z" fill="#55626F" stroke="#F6F7F8" stroke-width="0.7" stroke-linecap="round" stroke-linejoin="round"/>
<path d="M58.4311 162.991H50.5151L47.8711 169.204H56.0623L58.4311 162.991Z" fill="#55626F" stroke="#F6F7F8" stroke-width="0.7" stroke-linecap="round" stroke-linejoin="round"/>
<path d="M56.0612 169.204H47.87L45.0371 175.86H53.5251L56.0612 169.204Z" fill="#55626F" stroke="#F6F7F8" stroke-width="0.7" stroke-linecap="round" stroke-linejoin="round"/>
<path d="M53.5259 175.86H45.038L42 183.008H50.7955L53.5259 175.86Z" fill="#55626F" stroke="#F6F7F8" stroke-width="0.7" stroke-linecap="round" stroke-linejoin="round"/>
<path d="M195.635 162.991L198.014 169.204H205.866L203.222 162.991H195.635Z" fill="#55626F" stroke="#F6F7F8" stroke-width="0.7" stroke-linecap="round" stroke-linejoin="round"/>
<path d="M200.566 175.86H208.692L205.865 169.204H198.014L200.566 175.86Z" fill="#55626F" stroke="#F6F7F8" stroke-width="0.7" stroke-linecap="round" stroke-linejoin="round"/>
<path d="M203.302 183.008H211.736L208.693 175.86H200.566L203.302 183.008Z" fill="#55626F" stroke="#F6F7F8" stroke-width="0.7" stroke-linecap="round" stroke-linejoin="round"/>
<path d="M135.324 157.184L135.038 151.237H127.02L127.025 157.184H135.324Z" fill="#55626F" stroke="#F6F7F8" stroke-width="0.7" stroke-linecap="round" stroke-linejoin="round"/>
<path d="M195.635 162.992H203.222L200.751 157.185H193.412L195.635 162.992Z" fill="#55626F" stroke="#F6F7F8" stroke-width="0.7" stroke-linecap="round" stroke-linejoin="round"/>
<path d="M191.371 175.86H200.566L198.014 169.204H189.143L191.371 175.86Z" fill="#55626F" stroke="#F6F7F8" stroke-width="0.7" stroke-linecap="round" stroke-linejoin="round"/>
<path d="M77.2405 157.184L78.9348 151.237H70.9217L68.9414 157.184H77.2405Z" fill="#55626F" stroke="#F6F7F8" stroke-width="0.7" stroke-linecap="round" stroke-linejoin="round"/>
<path d="M185.113 157.185L187.061 162.992H195.636L193.412 157.185H185.113Z" fill="#55626F" stroke="#F6F7F8" stroke-width="0.7" stroke-linecap="round" stroke-linejoin="round"/>
<path d="M200.75 157.184L198.22 151.237H191.135L193.412 157.184H200.75Z" fill="#55626F" stroke="#F6F7F8" stroke-width="0.7" stroke-linecap="round" stroke-linejoin="round"/>
<path d="M193.411 157.184L191.134 151.237H183.121L185.112 157.184H193.411Z" fill="#55626F" stroke="#F6F7F8" stroke-width="0.7" stroke-linecap="round" stroke-linejoin="round"/>
<path d="M163.805 175.86L165.181 183.008H174.71L172.994 175.86H163.805Z" fill="#55626F" stroke="#F6F7F8" stroke-width="0.7" stroke-linecap="round" stroke-linejoin="round"/>
<path d="M193.772 183.008H203.302L200.566 175.86H191.371L193.772 183.008Z" fill="#55626F" stroke="#F6F7F8" stroke-width="0.7" stroke-linecap="round" stroke-linejoin="round"/>
<path d="M185.113 157.184L183.122 151.237H175.104L176.814 157.184H185.113Z" fill="#55626F" stroke="#F6F7F8" stroke-width="0.7" stroke-linecap="round" stroke-linejoin="round"/>
<path d="M182.182 175.86L184.238 183.008H193.772L191.371 175.86H182.182Z" fill="#55626F" stroke="#F6F7F8" stroke-width="0.7" stroke-linecap="round" stroke-linejoin="round"/>
<path d="M172.994 175.86L174.71 183.008H184.239L182.184 175.86H172.994Z" fill="#55626F" stroke="#F6F7F8" stroke-width="0.7" stroke-linecap="round" stroke-linejoin="round"/>
<path d="M189.143 169.204H198.014L195.635 162.991H187.061L189.143 169.204Z" fill="#55626F" stroke="#F6F7F8" stroke-width="0.7" stroke-linecap="round" stroke-linejoin="round"/>
<path d="M110.432 157.184L110.993 151.237H102.98L102.133 157.184H110.432Z" fill="#55626F" stroke="#F6F7F8" stroke-width="0.7" stroke-linecap="round" stroke-linejoin="round"/>
<path d="M176.813 157.184L175.103 151.237H167.09L168.514 157.184H176.813Z" fill="#55626F" stroke="#F6F7F8" stroke-width="0.7" stroke-linecap="round" stroke-linejoin="round"/>
<path d="M102.133 157.184L102.98 151.237H94.9672L93.834 157.184H102.133Z" fill="#55626F" stroke="#F6F7F8" stroke-width="0.7" stroke-linecap="round" stroke-linejoin="round"/>
<path d="M127.024 157.184L127.019 151.237H119.006L118.73 157.184H127.024Z" fill="#55626F" stroke="#F6F7F8" stroke-width="0.7" stroke-linecap="round" stroke-linejoin="round"/>
<path d="M93.8342 157.184L94.9674 151.237H86.9543L85.5352 157.184H93.8342Z" fill="#55626F" stroke="#F6F7F8" stroke-width="0.7" stroke-linecap="round" stroke-linejoin="round"/>
<path d="M85.5339 157.184L86.9531 151.237H78.9346L77.2402 157.184H85.5339Z" fill="#55626F" stroke="#F6F7F8" stroke-width="0.7" stroke-linecap="round" stroke-linejoin="round"/>
<path d="M118.731 157.184L119.006 151.237H110.993L110.432 157.184H118.731Z" fill="#55626F" stroke="#F6F7F8" stroke-width="0.7" stroke-linecap="round" stroke-linejoin="round"/>
<path d="M168.514 157.184L167.089 151.237H159.076L160.22 157.184H168.514Z" fill="#55626F" stroke="#F6F7F8" stroke-width="0.7" stroke-linecap="round" stroke-linejoin="round"/>
<path d="M160.222 157.184L159.078 151.237H151.064L151.922 157.184H160.222Z" fill="#55626F" stroke="#F6F7F8" stroke-width="0.7" stroke-linecap="round" stroke-linejoin="round"/>
<path d="M143.622 157.184L143.05 151.237H135.037L135.323 157.184H143.622Z" fill="#55626F" stroke="#F6F7F8" stroke-width="0.7" stroke-linecap="round" stroke-linejoin="round"/>
<path d="M163.804 175.86H154.615H145.425H136.236H127.046H117.852H108.662H99.4728H90.2833H81.0939H71.9045L69.8594 183.008H79.3942H88.9235H98.4529H107.988H117.517H127.052H136.581H146.116H155.645H165.18L163.804 175.86Z" fill="#55626F" stroke="#F6F7F8" stroke-width="0.7" stroke-linecap="round" stroke-linejoin="round"/>
<path d="M151.922 157.184L151.064 151.237H143.051L143.623 157.184H151.922Z" fill="#55626F" stroke="#F6F7F8" stroke-width="0.7" stroke-linecap="round" stroke-linejoin="round"/>
<path d="M227.18 195.568H22.9297V198.471H227.18V195.568Z" fill="#55626F" stroke="#55626F" stroke-width="0.7" stroke-linecap="round" stroke-linejoin="round"/>
<path d="M192.053 1.27051C185.891 1.2699 179.87 3.11789 174.766 6.57642C169.662 10.0349 165.708 14.9456 163.414 20.6758C161.12 26.4059 160.59 32.6932 161.894 38.7275C163.197 44.7619 166.274 50.2669 170.728 54.5336L166.335 62.7466L177.127 59.2483C181.249 61.5336 185.838 62.843 190.543 63.0764C195.247 63.3098 199.943 62.4609 204.27 60.5948C208.596 58.7286 212.439 55.8948 215.504 52.3104C218.569 48.726 220.774 44.4862 221.95 39.9159C223.127 35.3455 223.244 30.5659 222.292 25.9434C221.34 21.3208 219.344 16.978 216.458 13.2476C213.572 9.51721 209.873 6.49833 205.642 4.42228C201.412 2.34623 196.763 1.2681 192.053 1.27051Z" fill="#F6F7F8" stroke="#55626F" stroke-width="0.7" stroke-linecap="round" stroke-linejoin="round"/>
<path d="M194.867 22.9041L194.868 22.9049C194.969 22.9452 195.077 22.9846 195.195 23.0244C195.965 23.2701 196.664 23.6997 197.231 24.2761L197.231 24.2761L197.236 24.2814C198.361 25.4724 198.675 27.279 197.641 29.7353L197.641 29.7354C196.128 33.3248 193.87 36.6053 191.664 38.7185C190.597 39.7417 189.562 40.107 188.607 40.0176C187.665 39.9295 186.874 39.406 186.267 38.7981L186.264 38.7952C186.186 38.7154 186.108 38.6335 186.031 38.5472L186.031 38.5472C185.49 37.9396 185.028 37.7209 184.59 37.7747C184.128 37.8315 183.557 38.2043 182.841 39.1296C181.408 40.9814 179.887 44.0052 179.225 45.6091L179.225 45.6093C178.74 46.7832 178.917 47.9469 179.715 48.8365C179.939 49.0831 180.195 49.2991 180.475 49.4787L180.478 49.4803C180.597 49.5579 180.719 49.632 180.844 49.7021L180.846 49.7031C181.522 50.0895 182.249 50.3778 183.006 50.5596L183.009 50.5603C183.247 50.6195 183.489 50.6714 183.737 50.7161C183.955 50.7506 184.177 50.7779 184.4 50.7973L184.401 50.7973C188.111 51.1254 192.373 49.331 195.36 45.5433C197.451 42.8914 199.833 38.904 201.823 35.0889C203.816 31.2683 205.394 27.6617 205.896 25.7723C206.399 23.8811 206.598 21.9044 205.97 19.7442C205.341 17.5809 203.872 15.1961 200.973 12.5133C200.554 12.1267 200.203 11.9302 199.91 11.848C199.625 11.7678 199.377 11.7909 199.145 11.8788C198.648 12.0671 198.222 12.545 197.744 13.0801L197.74 13.0846C197.234 13.6527 196.407 14.9568 195.61 16.3907C194.816 17.8187 194.077 19.328 193.736 20.2885C193.484 20.9991 193.391 21.4725 193.511 21.8427C193.622 22.1874 193.957 22.5454 194.867 22.9041Z" fill="#57A8F3" stroke="#55626F" stroke-width="0.7"/>
<path d="M179.225 45.6091L179.225 45.609C179.887 44.0051 181.408 40.9813 182.841 39.1295C183.557 38.204 184.128 37.8305 184.59 37.7733C185.013 37.7209 185.461 37.9241 185.982 38.4901C185.898 38.5588 185.812 38.6362 185.725 38.7198C185.487 38.9476 185.214 39.2459 184.921 39.604C184.335 40.3206 183.654 41.2904 182.987 42.4465L182.985 42.4492L182.985 42.4492C182.977 42.4635 182.969 42.4778 182.961 42.4921C182.865 42.6613 182.766 42.8364 182.669 43.0155C182.669 43.0155 182.669 43.0156 182.669 43.0156L182.976 43.1826L179.225 45.6091ZM179.225 45.6091C178.74 46.7831 178.917 47.9469 179.715 48.8365M179.225 45.6091L179.715 48.8365M179.715 48.8365C179.893 49.0324 180.091 49.2089 180.305 49.3632C180.351 48.6711 180.565 47.8363 180.875 46.9527L179.715 48.8365Z" fill="#57A8F3" stroke="#55626F" stroke-width="0.7"/>
<path d="M194.457 22.724C194.533 22.3563 194.663 21.9336 194.821 21.494C195.059 20.834 195.371 20.102 195.697 19.3983C196.344 17.9982 197.06 16.6746 197.361 16.2318L197.361 16.2318C197.43 16.1309 197.522 15.9879 197.634 15.8153C197.937 15.3487 198.379 14.6661 198.864 14.0159C199.199 13.5668 199.565 13.1194 199.933 12.7508C200.142 12.5423 200.361 12.3494 200.585 12.1954C200.331 12.0114 200.106 11.9033 199.908 11.8477C199.624 11.7675 199.376 11.7906 199.144 11.8785C198.648 12.0667 198.222 12.5446 197.744 13.0797L197.74 13.0842C197.74 13.0843 197.74 13.0843 197.74 13.0844C197.233 13.6526 196.407 14.9565 195.61 16.3903C194.816 17.8183 194.077 19.3276 193.736 20.2881C193.484 20.9987 193.391 21.4721 193.511 21.8423C193.604 22.1294 193.852 22.4258 194.457 22.724Z" fill="#57A8F3" stroke="#55626F" stroke-width="0.7"/>
<path d="M141.136 75.8624C141.136 84.7073 133.978 91.8762 125.149 91.8762C116.321 91.8762 109.162 84.7073 109.162 75.8624C109.162 67.0175 116.321 59.8486 125.149 59.8486C133.978 59.8486 141.136 67.0175 141.136 75.8624Z" fill="white" stroke="#55626F"/>
<ellipse cx="125.15" cy="71.7339" rx="3.84698" ry="4.12844" fill="#FCA14D"/>
<path d="M130.972 83.5689H119.325C118.662 83.5689 118.188 82.9364 118.45 82.3273C119.437 80.0324 121.622 76.9634 125.148 76.9634C128.675 76.9634 130.86 80.0324 131.846 82.3273C132.108 82.9364 131.635 83.5689 130.972 83.5689Z" fill="#FCA14D" stroke="#FCA14D"/>
<ellipse cx="116.082" cy="124.578" rx="6.32004" ry="6.33028" fill="#57A8F3"/>
<ellipse cx="133.668" cy="124.578" rx="6.32004" ry="6.33028" fill="#57A8F3"/>
<path d="M119.356 124.007C119.395 124.063 119.435 124.118 119.47 124.176C119.587 124.365 119.637 124.572 119.63 124.794C119.625 124.95 119.625 125.106 119.62 125.261C119.613 125.481 119.461 125.63 119.242 125.631C118.81 125.633 118.378 125.633 117.946 125.632C117.725 125.632 117.57 125.477 117.568 125.257C117.567 125.143 117.569 125.029 117.568 124.915C117.566 124.648 117.412 124.443 117.157 124.367C116.436 124.154 115.716 124.154 114.995 124.369C114.74 124.445 114.585 124.651 114.583 124.918C114.582 125.03 114.583 125.142 114.582 125.254C114.58 125.479 114.427 125.635 114.203 125.636C113.771 125.637 113.339 125.638 112.907 125.637C112.691 125.636 112.537 125.488 112.53 125.273C112.525 125.085 112.523 124.897 112.524 124.709C112.526 124.462 112.622 124.249 112.769 124.055C112.779 124.042 112.787 124.027 112.796 124.013L112.989 123.819C113.057 123.77 113.122 123.719 113.191 123.673C113.519 123.453 113.881 123.308 114.26 123.21C115.425 122.908 116.594 122.901 117.764 123.172C118.171 123.267 118.56 123.411 118.915 123.637C118.998 123.69 119.076 123.749 119.156 123.805L119.356 124.007Z" fill="white"/>
<path d="M132.161 125.407C131.959 125.046 131.863 124.635 131.884 124.222C131.884 124.003 131.884 123.783 131.884 123.563C131.884 123.37 131.975 123.263 132.131 123.263C132.287 123.263 132.378 123.363 132.381 123.563C132.387 123.914 132.381 124.263 132.405 124.617C132.425 124.758 132.458 124.896 132.505 125.031L132.545 125.044C132.664 124.919 132.785 124.794 132.904 124.667C132.917 124.648 132.923 124.625 132.921 124.602C132.915 124.378 132.902 124.155 132.901 123.932C132.901 123.304 132.901 122.677 132.901 122.048C132.901 121.911 132.927 121.775 132.979 121.648C133.031 121.521 133.108 121.406 133.205 121.308C133.301 121.211 133.416 121.134 133.543 121.081C133.669 121.028 133.805 121 133.942 121C134.079 121 134.215 121.026 134.341 121.078C134.468 121.131 134.584 121.207 134.681 121.304C134.778 121.401 134.855 121.516 134.908 121.643C134.961 121.769 134.988 121.905 134.989 122.042V122.574C135.035 122.53 135.064 122.505 135.088 122.474C135.467 122.095 135.846 121.717 136.224 121.338C136.256 121.297 136.299 121.265 136.348 121.247C136.397 121.229 136.45 121.226 136.501 121.238C136.545 121.249 136.585 121.271 136.618 121.303C136.65 121.336 136.672 121.376 136.683 121.421C136.693 121.465 136.691 121.511 136.676 121.555C136.662 121.598 136.636 121.636 136.601 121.665C136.264 122.006 135.923 122.344 135.585 122.683L131.712 126.556C131.681 126.587 131.65 126.619 131.618 126.649C131.594 126.673 131.567 126.691 131.536 126.704C131.506 126.716 131.473 126.723 131.44 126.723C131.407 126.723 131.375 126.716 131.344 126.704C131.314 126.691 131.286 126.673 131.263 126.649C131.24 126.626 131.222 126.597 131.21 126.567C131.198 126.536 131.192 126.503 131.193 126.47C131.195 126.437 131.202 126.404 131.216 126.374C131.23 126.344 131.25 126.317 131.274 126.295C131.546 126.019 131.82 125.746 132.094 125.471C132.117 125.455 132.135 125.434 132.161 125.407Z" fill="white"/>
<path d="M134.197 127.635H134.944C135.137 127.635 135.259 127.736 135.256 127.889C135.253 128.042 135.137 128.135 134.95 128.135C134.276 128.135 133.601 128.135 132.925 128.135C132.711 128.135 132.583 127.948 132.675 127.772C132.7 127.725 132.738 127.688 132.784 127.663C132.83 127.639 132.882 127.629 132.934 127.634C133.185 127.634 133.434 127.634 133.701 127.634V127.294C133.701 127.046 133.701 126.794 133.701 126.55C133.701 126.459 133.684 126.419 133.584 126.404C133.299 126.358 133.028 126.247 132.793 126.08C132.913 125.97 133.021 125.866 133.137 125.771C133.158 125.753 133.217 125.764 133.25 125.78C133.573 125.941 133.942 125.985 134.294 125.904C134.646 125.824 134.959 125.624 135.181 125.339C135.396 125.067 135.513 124.729 135.511 124.382C135.511 124.095 135.511 123.807 135.511 123.519C135.506 123.46 135.523 123.402 135.559 123.355C135.594 123.308 135.645 123.275 135.703 123.264C135.758 123.251 135.816 123.257 135.866 123.282C135.917 123.307 135.957 123.349 135.981 123.401C135.993 123.426 136 123.453 136.001 123.481C135.995 123.888 136.022 124.3 135.972 124.702C135.911 125.125 135.718 125.518 135.42 125.823C135.122 126.129 134.735 126.332 134.315 126.403C134.215 126.42 134.194 126.456 134.195 126.548C134.2 126.904 134.197 127.26 134.197 127.635Z" fill="white"/>
<path d="M133.576 125.353L134.984 123.941C135.006 124.362 135.032 124.783 134.691 125.114C134.556 125.255 134.384 125.354 134.194 125.4C134.005 125.447 133.807 125.438 133.622 125.375C133.606 125.37 133.591 125.362 133.576 125.353Z" fill="white"/>
<path d="M97.702 106.041C97.3694 106.041 97.0745 105.978 96.8174 105.851C96.5626 105.723 96.3621 105.544 96.2158 105.316C96.0719 105.088 96 104.824 96 104.523C96 104.243 96.0684 103.987 96.2052 103.754C96.342 103.521 96.5461 103.338 96.8174 103.205L96.8032 103.449C96.5862 103.32 96.4187 103.16 96.3008 102.968C96.1852 102.774 96.1274 102.557 96.1274 102.318C96.1274 102.04 96.1946 101.799 96.3291 101.596C96.4635 101.393 96.6487 101.236 96.8846 101.125C97.1229 101.014 97.3953 100.959 97.702 100.959C98.0086 100.959 98.2799 101.014 98.5158 101.125C98.7517 101.236 98.9369 101.393 99.0713 101.596C99.2058 101.799 99.273 102.04 99.273 102.318C99.273 102.557 99.2176 102.773 99.1067 102.965C98.9958 103.157 98.826 103.318 98.5972 103.449L98.5866 103.212C98.8555 103.338 99.0595 103.519 99.1987 103.754C99.3379 103.987 99.4075 104.243 99.4075 104.523C99.4075 104.824 99.3343 105.088 99.1881 105.316C99.0418 105.544 98.8402 105.723 98.583 105.851C98.3259 105.978 98.0322 106.041 97.702 106.041ZM97.702 105.367C97.9756 105.367 98.1973 105.296 98.3672 105.153C98.537 105.009 98.622 104.799 98.622 104.523C98.622 104.248 98.537 104.038 98.3672 103.893C98.1997 103.746 97.978 103.673 97.702 103.673C97.426 103.673 97.2031 103.746 97.0332 103.893C96.8657 104.038 96.782 104.248 96.782 104.523C96.782 104.799 96.8669 105.009 97.0367 105.153C97.2066 105.296 97.4283 105.367 97.702 105.367ZM97.702 102.995C97.9355 102.995 98.1242 102.94 98.2681 102.829C98.4144 102.716 98.4875 102.546 98.4875 102.318C98.4875 102.089 98.4144 101.919 98.2681 101.806C98.1242 101.691 97.9355 101.633 97.702 101.633C97.4684 101.633 97.2785 101.691 97.1323 101.806C96.986 101.919 96.9129 102.089 96.9129 102.318C96.9129 102.546 96.986 102.716 97.1323 102.829C97.2785 102.94 97.4684 102.995 97.702 102.995Z" fill="#55626F"/>
<path d="M103.546 107C103.272 106.695 103.036 106.351 102.838 105.967C102.64 105.585 102.489 105.184 102.385 104.764C102.281 104.341 102.233 103.92 102.24 103.5C102.233 103.08 102.281 102.66 102.385 102.24C102.489 101.817 102.64 101.415 102.838 101.033C103.036 100.649 103.272 100.305 103.546 100L104.098 100.393C103.815 100.714 103.587 101.044 103.415 101.382C103.243 101.719 103.116 102.065 103.036 102.419C102.956 102.772 102.916 103.132 102.916 103.5C102.916 103.866 102.956 104.226 103.036 104.581C103.116 104.935 103.243 105.282 103.415 105.621C103.589 105.96 103.817 106.288 104.098 106.607L103.546 107Z" fill="#55626F"/>
<path d="M107.048 105.939V105.089H104.748V104.418L106.404 101.061H107.249L105.593 104.418H107.048V103.097H107.798V104.418H108.304V105.089H107.798V105.939H107.048Z" fill="#55626F"/>
<path d="M110.671 100.962C110.999 100.962 111.295 101.038 111.559 101.189C111.823 101.338 112.033 101.544 112.189 101.806C112.345 102.068 112.422 102.367 112.422 102.704V104.256C112.422 104.612 112.345 104.925 112.189 105.194C112.036 105.461 111.821 105.668 111.545 105.818C111.271 105.967 110.955 106.041 110.597 106.041C110.328 106.041 110.075 105.993 109.839 105.895C109.603 105.798 109.398 105.654 109.224 105.462L109.769 104.977C109.865 105.097 109.987 105.193 110.133 105.265C110.279 105.338 110.434 105.374 110.597 105.374C110.807 105.374 110.992 105.325 111.152 105.228C111.315 105.131 111.441 105.004 111.531 104.848C111.62 104.693 111.665 104.525 111.665 104.347V103.453L111.814 103.608C111.668 103.791 111.486 103.936 111.269 104.042C111.052 104.148 110.82 104.201 110.572 104.201C110.253 104.201 109.97 104.131 109.723 103.991C109.475 103.851 109.279 103.66 109.135 103.419C108.991 103.177 108.919 102.904 108.919 102.599C108.919 102.294 109 102.018 109.16 101.772C109.32 101.526 109.533 101.329 109.797 101.182C110.061 101.036 110.352 100.962 110.671 100.962ZM110.671 101.647C110.487 101.647 110.318 101.69 110.165 101.775C110.014 101.859 109.894 101.973 109.804 102.118C109.714 102.262 109.67 102.423 109.67 102.599C109.67 102.775 109.714 102.936 109.804 103.083C109.894 103.228 110.014 103.343 110.165 103.429C110.316 103.515 110.483 103.558 110.667 103.558C110.851 103.558 111.019 103.515 111.17 103.429C111.321 103.343 111.441 103.228 111.531 103.083C111.62 102.936 111.665 102.775 111.665 102.599C111.665 102.425 111.62 102.266 111.531 102.121C111.443 101.976 111.324 101.861 111.173 101.775C111.022 101.69 110.855 101.647 110.671 101.647Z" fill="#55626F"/>
<path d="M114.921 106.041C114.659 106.041 114.415 105.99 114.189 105.889C113.965 105.785 113.772 105.642 113.612 105.462C113.452 105.279 113.337 105.069 113.269 104.832L113.98 104.649C114.02 104.793 114.088 104.919 114.185 105.025C114.284 105.131 114.4 105.213 114.532 105.272C114.664 105.328 114.801 105.357 114.942 105.357C115.129 105.357 115.297 105.314 115.448 105.228C115.602 105.142 115.722 105.027 115.809 104.882C115.899 104.738 115.944 104.579 115.944 104.405C115.944 104.226 115.898 104.065 115.806 103.92C115.716 103.776 115.595 103.662 115.441 103.578C115.29 103.492 115.124 103.449 114.942 103.449C114.735 103.449 114.559 103.489 114.415 103.568C114.271 103.647 114.159 103.738 114.079 103.842L113.435 103.625L113.591 101.061H116.34V101.728H113.969L114.27 101.46L114.146 103.381L114.001 103.202C114.136 103.073 114.296 102.975 114.482 102.907C114.669 102.839 114.854 102.805 115.038 102.805C115.354 102.805 115.636 102.875 115.884 103.015C116.134 103.156 116.331 103.346 116.475 103.588C116.618 103.828 116.69 104.1 116.69 104.405C116.69 104.707 116.609 104.983 116.446 105.231C116.283 105.478 116.068 105.674 115.799 105.821C115.53 105.968 115.237 106.041 114.921 106.041Z" fill="#55626F"/>
<path d="M117.886 107L117.334 106.607C117.615 106.288 117.842 105.96 118.014 105.621C118.188 105.282 118.316 104.935 118.396 104.581C118.476 104.226 118.516 103.866 118.516 103.5C118.516 103.132 118.476 102.772 118.396 102.419C118.316 102.065 118.19 101.719 118.017 101.382C117.845 101.044 117.617 100.714 117.334 100.393L117.886 100C118.16 100.305 118.396 100.649 118.594 101.033C118.792 101.415 118.943 101.817 119.047 102.24C119.151 102.66 119.199 103.08 119.192 103.5C119.199 103.92 119.151 104.341 119.047 104.764C118.943 105.184 118.792 105.585 118.594 105.967C118.396 106.351 118.16 106.695 117.886 107Z" fill="#55626F"/>
<path d="M121.956 105.936L121.959 105.306L124.178 103.402C124.357 103.25 124.479 103.106 124.542 102.968C124.608 102.83 124.641 102.692 124.641 102.555C124.641 102.381 124.601 102.225 124.521 102.087C124.441 101.947 124.33 101.836 124.189 101.755C124.047 101.674 123.884 101.633 123.7 101.633C123.511 101.633 123.343 101.676 123.194 101.762C123.048 101.845 122.934 101.957 122.851 102.097C122.768 102.237 122.728 102.389 122.731 102.551H121.973C121.973 102.235 122.048 101.958 122.196 101.721C122.347 101.482 122.554 101.295 122.816 101.162C123.077 101.027 123.377 100.959 123.714 100.959C124.035 100.959 124.323 101.029 124.578 101.169C124.832 101.307 125.033 101.496 125.179 101.738C125.328 101.98 125.402 102.255 125.402 102.565C125.402 102.788 125.372 102.978 125.31 103.134C125.249 103.29 125.157 103.434 125.034 103.568C124.912 103.701 124.758 103.846 124.574 104.001L122.862 105.465L122.78 105.262H125.402V105.936H121.956Z" fill="#55626F"/>
<path d="M127.882 106.041C127.549 106.041 127.255 105.978 126.997 105.851C126.743 105.723 126.542 105.544 126.396 105.316C126.252 105.088 126.18 104.824 126.18 104.523C126.18 104.243 126.248 103.987 126.385 103.754C126.522 103.521 126.726 103.338 126.997 103.205L126.983 103.449C126.766 103.32 126.599 103.16 126.481 102.968C126.365 102.774 126.307 102.557 126.307 102.318C126.307 102.04 126.375 101.799 126.509 101.596C126.644 101.393 126.829 101.236 127.065 101.125C127.303 101.014 127.575 100.959 127.882 100.959C128.189 100.959 128.46 101.014 128.696 101.125C128.932 101.236 129.117 101.393 129.251 101.596C129.386 101.799 129.453 102.04 129.453 102.318C129.453 102.557 129.398 102.773 129.287 102.965C129.176 103.157 129.006 103.318 128.777 103.449L128.767 103.212C129.035 103.338 129.24 103.519 129.379 103.754C129.518 103.987 129.587 104.243 129.587 104.523C129.587 104.824 129.514 105.088 129.368 105.316C129.222 105.544 129.02 105.723 128.763 105.851C128.506 105.978 128.212 106.041 127.882 106.041ZM127.882 105.367C128.156 105.367 128.377 105.296 128.547 105.153C128.717 105.009 128.802 104.799 128.802 104.523C128.802 104.248 128.717 104.038 128.547 103.893C128.38 103.746 128.158 103.673 127.882 103.673C127.606 103.673 127.383 103.746 127.213 103.893C127.046 104.038 126.962 104.248 126.962 104.523C126.962 104.799 127.047 105.009 127.217 105.153C127.387 105.296 127.608 105.367 127.882 105.367ZM127.882 102.995C128.116 102.995 128.304 102.94 128.448 102.829C128.594 102.716 128.668 102.546 128.668 102.318C128.668 102.089 128.594 101.919 128.448 101.806C128.304 101.691 128.116 101.633 127.882 101.633C127.648 101.633 127.459 101.691 127.312 101.806C127.166 101.919 127.093 102.089 127.093 102.318C127.093 102.546 127.166 102.716 127.312 102.829C127.459 102.94 127.648 102.995 127.882 102.995Z" fill="#55626F"/>
<path d="M132.259 106.041C131.929 106.041 131.632 105.967 131.368 105.818C131.104 105.666 130.894 105.46 130.738 105.197C130.585 104.935 130.508 104.637 130.508 104.303V102.748C130.508 102.393 130.585 102.081 130.738 101.813C130.894 101.544 131.108 101.335 131.382 101.186C131.658 101.037 131.975 100.962 132.334 100.962C132.603 100.962 132.855 101.011 133.091 101.108C133.327 101.205 133.531 101.35 133.703 101.542L133.162 102.026C133.065 101.906 132.944 101.812 132.797 101.742C132.653 101.669 132.499 101.633 132.334 101.633C132.121 101.633 131.935 101.682 131.775 101.779C131.614 101.874 131.488 101.999 131.396 102.155C131.306 102.311 131.262 102.478 131.262 102.656V103.551L131.117 103.395C131.263 103.212 131.444 103.067 131.661 102.961C131.878 102.855 132.111 102.802 132.358 102.802C132.675 102.802 132.956 102.873 133.204 103.015C133.454 103.156 133.65 103.346 133.792 103.588C133.935 103.83 134.007 104.102 134.007 104.405C134.007 104.71 133.927 104.986 133.767 105.235C133.609 105.481 133.396 105.677 133.13 105.824C132.866 105.969 132.576 106.041 132.259 106.041ZM132.259 105.36C132.443 105.36 132.611 105.317 132.762 105.231C132.913 105.146 133.033 105.03 133.123 104.886C133.212 104.741 133.257 104.581 133.257 104.405C133.257 104.228 133.212 104.068 133.123 103.924C133.036 103.779 132.916 103.664 132.765 103.578C132.614 103.492 132.447 103.449 132.263 103.449C132.079 103.449 131.91 103.492 131.757 103.578C131.606 103.664 131.486 103.779 131.396 103.924C131.306 104.068 131.262 104.228 131.262 104.405C131.262 104.579 131.306 104.738 131.396 104.882C131.486 105.027 131.606 105.143 131.757 105.231C131.908 105.317 132.075 105.36 132.259 105.36Z" fill="#55626F"/>
<path d="M134.832 103.781V103.212H136.956V103.781H134.832Z" fill="#55626F"/>
<path d="M139.651 106.041C139.304 106.041 138.998 105.969 138.731 105.824C138.465 105.677 138.255 105.476 138.101 105.221C137.95 104.966 137.875 104.672 137.875 104.34V102.66C137.875 102.328 137.95 102.034 138.101 101.779C138.255 101.524 138.465 101.324 138.731 101.179C138.998 101.032 139.304 100.959 139.651 100.959C139.998 100.959 140.305 101.032 140.571 101.179C140.838 101.324 141.047 101.524 141.198 101.779C141.351 102.034 141.428 102.328 141.428 102.66V104.34C141.428 104.672 141.351 104.966 141.198 105.221C141.047 105.476 140.838 105.677 140.571 105.824C140.305 105.969 139.998 106.041 139.651 106.041ZM139.651 105.364C139.84 105.364 140.011 105.321 140.164 105.235C140.32 105.147 140.444 105.029 140.536 104.882C140.628 104.733 140.674 104.567 140.674 104.384V102.609C140.674 102.428 140.628 102.264 140.536 102.118C140.444 101.969 140.32 101.851 140.164 101.765C140.011 101.677 139.84 101.633 139.651 101.633C139.463 101.633 139.29 101.677 139.135 101.765C138.981 101.851 138.859 101.969 138.767 102.118C138.675 102.264 138.629 102.428 138.629 102.609V104.384C138.629 104.567 138.675 104.733 138.767 104.882C138.859 105.029 138.981 105.147 139.135 105.235C139.29 105.321 139.463 105.364 139.651 105.364Z" fill="#55626F"/>
<path d="M143.304 105.939V101.84L142.345 102.399V101.609L143.304 101.061H144.057V105.939H143.304Z" fill="#55626F"/>
<path d="M145.33 103.781V103.212H147.453V103.781H145.33Z" fill="#55626F"/>
<path d="M149.261 105.939V101.84L148.302 102.399V101.609L149.261 101.061H150.014V105.939H149.261Z" fill="#55626F"/>
<path d="M152.246 105.939V101.84L151.287 102.399V101.609L152.246 101.061H153V105.939H152.246Z" fill="#55626F"/>
</g>
<defs>
<clipPath id="clip0_6450_39501">
<rect width="247" height="199" fill="white"/>
</clipPath>
</defs>
</svg>
