<svg width="464" height="436" viewBox="0 0 464 436" fill="none" xmlns="http://www.w3.org/2000/svg">
<g clip-path="url(#clip0_6360_37538)">
<path d="M8.83667 260.295H454.603" stroke="#55626F" stroke-linecap="round" stroke-linejoin="round"/>
<path d="M99.6838 71H369.775C371.859 71 373.856 71.8279 375.33 73.3016C376.803 74.7752 377.63 76.7739 377.63 78.858V266.88H91.9075V78.8285C91.9151 76.7631 92.7353 74.7837 94.1906 73.3187C95.6459 71.8536 97.6193 71.0206 99.6838 71Z" fill="#55626F" stroke="#55626F" stroke-linecap="round" stroke-linejoin="round"/>
<path d="M420.489 353.465H49L91.8584 266.88H377.62L420.489 353.465Z" fill="#F6F7F8" stroke="#55626F" stroke-linecap="round" stroke-linejoin="round"/>
<path d="M360.31 86.5098H109.169V251.37H360.31V86.5098Z" fill="white" stroke="#55626F" stroke-linecap="round" stroke-linejoin="round"/>
<path d="M222.82 294.285L223.32 283.735H208.219L207.218 294.285H222.82Z" fill="#55626F" stroke="#F6F7F8" stroke-linecap="round" stroke-linejoin="round"/>
<path d="M254.033 294.285L253.513 283.735H238.412L238.421 294.285H254.033Z" fill="#55626F" stroke="#F6F7F8" stroke-linecap="round" stroke-linejoin="round"/>
<path d="M335.302 305.571H351.444L347.654 294.285H332.052L335.302 305.571Z" fill="#55626F" stroke="#F6F7F8" stroke-linecap="round" stroke-linejoin="round"/>
<path d="M207.218 294.285L208.219 283.735H193.118L191.616 294.285H207.218Z" fill="#55626F" stroke="#F6F7F8" stroke-linecap="round" stroke-linejoin="round"/>
<path d="M176.014 294.285L178.017 283.735H162.916L160.402 294.285H176.014Z" fill="#55626F" stroke="#F6F7F8" stroke-linecap="round" stroke-linejoin="round"/>
<path d="M316.45 294.285L313.907 283.735H298.816L300.839 294.285H316.45Z" fill="#55626F" stroke="#F6F7F8" stroke-linecap="round" stroke-linejoin="round"/>
<path d="M332.052 294.285L329.008 283.735H313.907L316.45 294.285H332.052Z" fill="#55626F" stroke="#F6F7F8" stroke-linecap="round" stroke-linejoin="round"/>
<path d="M160.402 294.285L162.916 283.735H147.825L144.801 294.285H160.402Z" fill="#55626F" stroke="#F6F7F8" stroke-linecap="round" stroke-linejoin="round"/>
<path d="M269.635 294.285L268.614 283.735H253.513L254.033 294.285H269.635Z" fill="#55626F" stroke="#F6F7F8" stroke-linecap="round" stroke-linejoin="round"/>
<path d="M347.654 294.285L344.109 283.735H329.008L332.052 294.285H347.654Z" fill="#55626F" stroke="#F6F7F8" stroke-linecap="round" stroke-linejoin="round"/>
<path d="M300.839 294.285L298.816 283.735H283.715L285.237 294.285H300.839Z" fill="#55626F" stroke="#F6F7F8" stroke-linecap="round" stroke-linejoin="round"/>
<path d="M285.237 294.285L283.715 283.735H268.614L269.635 294.285H285.237Z" fill="#55626F" stroke="#F6F7F8" stroke-linecap="round" stroke-linejoin="round"/>
<path d="M238.421 294.285L238.412 283.735H223.32L222.82 294.285H238.421Z" fill="#55626F" stroke="#F6F7F8" stroke-linecap="round" stroke-linejoin="round"/>
<path d="M129.199 294.285H113.597L109.286 305.571H125.428L129.199 294.285Z" fill="#55626F" stroke="#F6F7F8" stroke-linecap="round" stroke-linejoin="round"/>
<path d="M132.724 283.735H117.623L113.597 294.285H129.199L132.724 283.735Z" fill="#55626F" stroke="#F6F7F8" stroke-linecap="round" stroke-linejoin="round"/>
<path d="M144.801 294.285L147.825 283.735H132.724L129.199 294.285H144.801Z" fill="#55626F" stroke="#F6F7F8" stroke-linecap="round" stroke-linejoin="round"/>
<path d="M104.672 317.662L99.7035 330.647H117.053L121.393 317.662H104.672Z" fill="#55626F" stroke="#F6F7F8" stroke-linecap="round" stroke-linejoin="round"/>
<path d="M125.428 305.57H109.287L104.672 317.662H121.393L125.428 305.57Z" fill="#55626F" stroke="#F6F7F8" stroke-linecap="round" stroke-linejoin="round"/>
<path d="M121.393 317.662L117.053 330.647H134.393L138.114 317.662H121.393Z" fill="#55626F" stroke="#F6F7F8" stroke-linecap="round" stroke-linejoin="round"/>
<path d="M191.616 294.285L193.118 283.735H178.017L176.014 294.285H191.616Z" fill="#55626F" stroke="#F6F7F8" stroke-linecap="round" stroke-linejoin="round"/>
<path d="M190.006 305.571L191.616 294.285H176.014L173.864 305.571H190.006Z" fill="#55626F" stroke="#F6F7F8" stroke-linecap="round" stroke-linejoin="round"/>
<path d="M173.864 305.571L176.014 294.285H160.402L157.712 305.571H173.864Z" fill="#55626F" stroke="#F6F7F8" stroke-linecap="round" stroke-linejoin="round"/>
<path d="M206.147 305.571L207.218 294.285H191.616L190.006 305.571H206.147Z" fill="#55626F" stroke="#F6F7F8" stroke-linecap="round" stroke-linejoin="round"/>
<path d="M144.801 294.285H129.199L125.428 305.571H141.57L144.801 294.285Z" fill="#55626F" stroke="#F6F7F8" stroke-linecap="round" stroke-linejoin="round"/>
<path d="M338.778 317.662H355.499L351.444 305.57H335.302L338.778 317.662Z" fill="#55626F" stroke="#F6F7F8" stroke-linecap="round" stroke-linejoin="round"/>
<path d="M157.712 305.571L160.402 294.285H144.801L141.57 305.571H157.712Z" fill="#55626F" stroke="#F6F7F8" stroke-linecap="round" stroke-linejoin="round"/>
<path d="M125.428 305.57L121.393 317.662H138.114L141.57 305.57H125.428Z" fill="#55626F" stroke="#F6F7F8" stroke-linecap="round" stroke-linejoin="round"/>
<path d="M303.008 305.571L300.839 294.285H285.237L286.867 305.571H303.008Z" fill="#55626F" stroke="#F6F7F8" stroke-linecap="round" stroke-linejoin="round"/>
<path d="M286.867 305.571L285.237 294.285H269.635L270.725 305.571H286.867Z" fill="#55626F" stroke="#F6F7F8" stroke-linecap="round" stroke-linejoin="round"/>
<path d="M335.302 305.571L332.052 294.285H316.45L319.15 305.571H335.302Z" fill="#55626F" stroke="#F6F7F8" stroke-linecap="round" stroke-linejoin="round"/>
<path d="M238.431 305.571L238.421 294.285H222.82L222.289 305.571H238.431Z" fill="#55626F" stroke="#F6F7F8" stroke-linecap="round" stroke-linejoin="round"/>
<path d="M270.725 305.571L269.635 294.285H254.033L254.583 305.571H270.725Z" fill="#55626F" stroke="#F6F7F8" stroke-linecap="round" stroke-linejoin="round"/>
<path d="M254.583 305.571L254.033 294.285H238.421L238.431 305.571H254.583Z" fill="#55626F" stroke="#F6F7F8" stroke-linecap="round" stroke-linejoin="round"/>
<path d="M222.289 305.571L222.82 294.285H207.218L206.147 305.571H222.289Z" fill="#55626F" stroke="#F6F7F8" stroke-linecap="round" stroke-linejoin="round"/>
<path d="M270.725 305.57L271.893 317.662H288.614L286.867 305.57H270.725Z" fill="#55626F" stroke="#F6F7F8" stroke-linecap="round" stroke-linejoin="round"/>
<path d="M286.867 305.57L288.614 317.662H305.336L303.009 305.57H286.867Z" fill="#55626F" stroke="#F6F7F8" stroke-linecap="round" stroke-linejoin="round"/>
<path d="M141.57 305.57L138.114 317.662H154.835L157.712 305.57H141.57Z" fill="#55626F" stroke="#F6F7F8" stroke-linecap="round" stroke-linejoin="round"/>
<path d="M303.009 305.57L305.336 317.662H322.057L319.15 305.57H303.009Z" fill="#55626F" stroke="#F6F7F8" stroke-linecap="round" stroke-linejoin="round"/>
<path d="M238.431 305.57L238.451 317.662H255.172L254.583 305.57H238.431Z" fill="#55626F" stroke="#F6F7F8" stroke-linecap="round" stroke-linejoin="round"/>
<path d="M319.15 305.57L322.057 317.662H338.778L335.302 305.57H319.15Z" fill="#55626F" stroke="#F6F7F8" stroke-linecap="round" stroke-linejoin="round"/>
<path d="M254.583 305.57L255.172 317.662H271.893L270.725 305.57H254.583Z" fill="#55626F" stroke="#F6F7F8" stroke-linecap="round" stroke-linejoin="round"/>
<path d="M173.864 305.57L171.556 317.662H188.278L190.006 305.57H173.864Z" fill="#55626F" stroke="#F6F7F8" stroke-linecap="round" stroke-linejoin="round"/>
<path d="M157.712 305.57L154.835 317.662H171.556L173.864 305.57H157.712Z" fill="#55626F" stroke="#F6F7F8" stroke-linecap="round" stroke-linejoin="round"/>
<path d="M222.289 305.57L221.72 317.662H238.451L238.431 305.57H222.289Z" fill="#55626F" stroke="#F6F7F8" stroke-linecap="round" stroke-linejoin="round"/>
<path d="M206.148 305.57L204.999 317.662H221.72L222.289 305.57H206.148Z" fill="#55626F" stroke="#F6F7F8" stroke-linecap="round" stroke-linejoin="round"/>
<path d="M190.006 305.57L188.278 317.662H204.999L206.148 305.57H190.006Z" fill="#55626F" stroke="#F6F7F8" stroke-linecap="round" stroke-linejoin="round"/>
<path d="M319.15 305.571L316.45 294.285H300.839L303.009 305.571H319.15Z" fill="#55626F" stroke="#F6F7F8" stroke-linecap="round" stroke-linejoin="round"/>
<path d="M132.724 283.735L136.327 272.931H121.746L117.623 283.735H132.724Z" fill="#55626F" stroke="#F6F7F8" stroke-linecap="round" stroke-linejoin="round"/>
<path d="M117.623 283.735H103.69L99.193 294.285H113.597L117.623 283.735Z" fill="#55626F" stroke="#F6F7F8" stroke-linecap="round" stroke-linejoin="round"/>
<path d="M121.746 272.931H108.285L103.69 283.735H117.623L121.746 272.931Z" fill="#55626F" stroke="#F6F7F8" stroke-linecap="round" stroke-linejoin="round"/>
<path d="M113.597 294.285H99.193L94.3818 305.571H109.287L113.597 294.285Z" fill="#55626F" stroke="#F6F7F8" stroke-linecap="round" stroke-linejoin="round"/>
<path d="M109.287 305.57H94.3818L89.2271 317.662H104.672L109.287 305.57Z" fill="#55626F" stroke="#F6F7F8" stroke-linecap="round" stroke-linejoin="round"/>
<path d="M104.672 317.662H89.227L83.6991 330.647H99.7035L104.672 317.662Z" fill="#55626F" stroke="#F6F7F8" stroke-linecap="round" stroke-linejoin="round"/>
<path d="M363.256 294.285L367.586 305.571H381.872L377.061 294.285H363.256Z" fill="#55626F" stroke="#F6F7F8" stroke-linecap="round" stroke-linejoin="round"/>
<path d="M372.23 317.662H387.017L381.872 305.57H367.586L372.23 317.662Z" fill="#55626F" stroke="#F6F7F8" stroke-linecap="round" stroke-linejoin="round"/>
<path d="M377.208 330.647H392.555L387.017 317.662H372.23L377.208 330.647Z" fill="#55626F" stroke="#F6F7F8" stroke-linecap="round" stroke-linejoin="round"/>
<path d="M253.513 283.735L252.992 272.931H238.402L238.412 283.735H253.513Z" fill="#55626F" stroke="#F6F7F8" stroke-linecap="round" stroke-linejoin="round"/>
<path d="M363.256 294.285H377.061L372.564 283.735H359.21L363.256 294.285Z" fill="#55626F" stroke="#F6F7F8" stroke-linecap="round" stroke-linejoin="round"/>
<path d="M355.499 317.662H372.23L367.586 305.57H351.444L355.499 317.662Z" fill="#55626F" stroke="#F6F7F8" stroke-linecap="round" stroke-linejoin="round"/>
<path d="M147.825 283.735L150.908 272.931H136.327L132.724 283.735H147.825Z" fill="#55626F" stroke="#F6F7F8" stroke-linecap="round" stroke-linejoin="round"/>
<path d="M344.109 283.735L347.654 294.285H363.256L359.21 283.735H344.109Z" fill="#55626F" stroke="#F6F7F8" stroke-linecap="round" stroke-linejoin="round"/>
<path d="M372.564 283.735L367.959 272.931H355.067L359.21 283.735H372.564Z" fill="#55626F" stroke="#F6F7F8" stroke-linecap="round" stroke-linejoin="round"/>
<path d="M359.21 283.735L355.067 272.931H340.486L344.109 283.735H359.21Z" fill="#55626F" stroke="#F6F7F8" stroke-linecap="round" stroke-linejoin="round"/>
<path d="M305.336 317.662L307.839 330.647H325.179L322.057 317.662H305.336Z" fill="#55626F" stroke="#F6F7F8" stroke-linecap="round" stroke-linejoin="round"/>
<path d="M359.868 330.647H377.208L372.23 317.662H355.499L359.868 330.647Z" fill="#55626F" stroke="#F6F7F8" stroke-linecap="round" stroke-linejoin="round"/>
<path d="M344.109 283.735L340.486 272.931H325.896L329.008 283.735H344.109Z" fill="#55626F" stroke="#F6F7F8" stroke-linecap="round" stroke-linejoin="round"/>
<path d="M338.778 317.662L342.519 330.647H359.868L355.499 317.662H338.778Z" fill="#55626F" stroke="#F6F7F8" stroke-linecap="round" stroke-linejoin="round"/>
<path d="M322.057 317.662L325.179 330.647H342.519L338.778 317.662H322.057Z" fill="#55626F" stroke="#F6F7F8" stroke-linecap="round" stroke-linejoin="round"/>
<path d="M351.444 305.571H367.586L363.256 294.285H347.654L351.444 305.571Z" fill="#55626F" stroke="#F6F7F8" stroke-linecap="round" stroke-linejoin="round"/>
<path d="M208.219 283.735L209.24 272.931H194.66L193.118 283.735H208.219Z" fill="#55626F" stroke="#F6F7F8" stroke-linecap="round" stroke-linejoin="round"/>
<path d="M329.008 283.735L325.896 272.931H311.315L313.907 283.735H329.008Z" fill="#55626F" stroke="#F6F7F8" stroke-linecap="round" stroke-linejoin="round"/>
<path d="M193.118 283.735L194.66 272.931H180.079L178.017 283.735H193.118Z" fill="#55626F" stroke="#F6F7F8" stroke-linecap="round" stroke-linejoin="round"/>
<path d="M238.412 283.735L238.402 272.931H223.821L223.32 283.735H238.412Z" fill="#55626F" stroke="#F6F7F8" stroke-linecap="round" stroke-linejoin="round"/>
<path d="M178.017 283.735L180.079 272.931H165.498L162.916 283.735H178.017Z" fill="#55626F" stroke="#F6F7F8" stroke-linecap="round" stroke-linejoin="round"/>
<path d="M162.916 283.735L165.498 272.931H150.908L147.825 283.735H162.916Z" fill="#55626F" stroke="#F6F7F8" stroke-linecap="round" stroke-linejoin="round"/>
<path d="M223.32 283.735L223.821 272.931H209.24L208.219 283.735H223.32Z" fill="#55626F" stroke="#F6F7F8" stroke-linecap="round" stroke-linejoin="round"/>
<path d="M313.907 283.735L311.315 272.931H296.734L298.816 283.735H313.907Z" fill="#55626F" stroke="#F6F7F8" stroke-linecap="round" stroke-linejoin="round"/>
<path d="M298.816 283.735L296.734 272.931H282.154L283.715 283.735H298.816Z" fill="#55626F" stroke="#F6F7F8" stroke-linecap="round" stroke-linejoin="round"/>
<path d="M268.614 283.735L267.573 272.931H252.992L253.513 283.735H268.614Z" fill="#55626F" stroke="#F6F7F8" stroke-linecap="round" stroke-linejoin="round"/>
<path d="M305.336 317.662H288.614H271.893H255.172H238.451H221.72H204.999H188.278H171.556H154.835H138.114L134.393 330.647H151.742H169.082H186.422H203.771H221.111H238.461H255.8H273.15H290.49H307.839L305.336 317.662Z" fill="#55626F" stroke="#F6F7F8" stroke-linecap="round" stroke-linejoin="round"/>
<path d="M283.715 283.735L282.154 272.931H267.573L268.614 283.735H283.715Z" fill="#55626F" stroke="#F6F7F8" stroke-linecap="round" stroke-linejoin="round"/>
<path d="M420.656 353.465H49V358.74H420.656V353.465Z" fill="#55626F" stroke="#55626F" stroke-linecap="round" stroke-linejoin="round"/>
<path d="M356.741 0.491218C345.529 0.490109 334.574 3.84729 325.286 10.1303C315.998 16.4133 308.804 25.3343 304.629 35.7441C300.455 46.1539 299.491 57.5757 301.863 68.5381C304.235 79.5005 309.834 89.5014 317.938 97.2524L309.945 112.173L329.583 105.818C337.082 109.969 345.432 112.348 353.993 112.772C362.554 113.196 371.098 111.654 378.971 108.264C386.844 104.873 393.836 99.7254 399.413 93.2137C404.989 86.7021 409.002 78.9997 411.143 70.6969C413.284 62.3941 413.496 53.7112 411.764 45.3136C410.032 36.9159 406.401 29.0264 401.15 22.2496C395.898 15.4727 389.166 9.98842 381.468 6.21693C373.771 2.44543 365.312 0.486835 356.741 0.491218Z" fill="#F6F7F8" stroke="#55626F" stroke-linecap="round" stroke-linejoin="round"/>
<path d="M361.81 39.919L361.812 39.92C361.999 39.9945 362.198 40.0671 362.414 40.1402C363.795 40.5797 365.048 41.3486 366.066 42.3805L366.066 42.3804L366.073 42.388C368.072 44.5009 368.651 47.7205 366.782 52.1498L366.782 52.1499C364.036 58.6555 359.938 64.5991 355.939 68.4236C354.018 70.2622 352.171 70.9038 350.483 70.746C348.813 70.59 347.401 69.6619 346.309 68.5698L346.309 68.5698L346.305 68.5656C346.164 68.4213 346.024 68.2742 345.886 68.1196L345.886 68.1196C344.889 67.0033 344.007 66.5659 343.145 66.6718C342.248 66.7821 341.178 67.4976 339.871 69.1855C337.253 72.5629 334.479 78.0685 333.273 80.988L333.273 80.9883C332.372 83.1659 332.699 85.3364 334.189 86.9942C334.605 87.4512 335.079 87.8513 335.6 88.1842L335.603 88.1865C335.822 88.3291 336.048 88.4653 336.277 88.594L336.279 88.5955C337.521 89.3037 338.857 89.8323 340.247 90.1655L340.251 90.1665C340.687 90.2749 341.132 90.37 341.585 90.4516C341.986 90.5149 342.394 90.565 342.803 90.6005L342.804 90.6005C349.606 91.201 357.404 87.9171 362.865 81.0042C366.678 76.1768 371.016 68.9244 374.639 61.9906C378.265 55.0489 381.144 48.4855 382.062 45.0373C382.981 41.5865 383.346 37.9689 382.194 34.0131C381.041 30.0531 378.352 25.7007 373.065 20.8155C372.292 20.1038 371.634 19.7327 371.075 19.5758C370.526 19.4217 370.045 19.4661 369.597 19.6356C368.662 19.9895 367.867 20.8789 367.012 21.835L366.987 21.8629C366.987 21.863 366.987 21.8631 366.987 21.8631C366.054 22.908 364.544 25.2893 363.094 27.8937C361.648 30.4897 360.298 33.2396 359.674 34.9954C359.216 36.2842 359.031 37.1851 359.264 37.9063C359.485 38.591 360.143 39.2623 361.81 39.919Z" fill="#57A8F3" stroke="#55626F"/>
<path d="M333.273 80.9884L333.273 80.9881C334.479 78.0686 337.254 72.563 339.871 69.1855C341.179 67.4974 342.247 66.7806 343.145 66.6697C344.007 66.5632 344.89 66.9999 345.889 68.1183L333.273 80.9884ZM333.273 80.9884C332.372 83.1661 332.699 85.3367 334.189 86.9946C334.575 87.4187 335.012 87.7939 335.489 88.1117M333.273 80.9884L335.489 88.1117M335.489 88.1117C335.532 86.8323 335.928 85.2373 336.53 83.5255C337.309 81.3107 338.465 78.816 339.785 76.3927C339.962 76.0686 340.141 75.7516 340.316 75.444C340.33 75.418 340.345 75.392 340.36 75.3662L340.36 75.3661L340.362 75.3624C341.573 73.2679 342.807 71.5123 343.87 70.2166C344.4 69.5691 344.892 69.0317 345.32 68.6226C345.519 68.4333 345.711 68.2641 345.892 68.1224C345.891 68.1211 345.89 68.1197 345.889 68.1184L335.489 88.1117Z" fill="#57A8F3" stroke="#55626F"/>
<path d="M366.511 27.7478L366.511 27.7478C366.638 27.5612 366.808 27.2987 367.013 26.983C367.563 26.1356 368.363 24.9043 369.243 23.727C369.85 22.9139 370.51 22.107 371.175 21.4438C371.603 21.0167 372.05 20.6318 372.501 20.3449C371.964 19.9321 371.49 19.6936 371.071 19.5758C370.523 19.4218 370.042 19.4661 369.595 19.6355C368.661 19.9894 367.866 20.8788 367.011 21.8349L366.986 21.8629C366.053 22.9077 364.543 25.2891 363.092 27.8936C361.646 30.4896 360.297 33.2395 359.673 34.9953C359.215 36.2841 359.029 37.1851 359.263 37.9063C359.456 38.5028 359.979 39.0893 361.214 39.6647C361.342 38.9702 361.592 38.1458 361.905 37.2768C362.335 36.0829 362.902 34.757 363.493 33.4807C364.671 30.9385 365.969 28.5425 366.511 27.7478Z" fill="#57A8F3" stroke="#55626F"/>
<circle cx="235" cy="136" r="29.5" fill="white" stroke="#55626F"/>
<ellipse cx="235" cy="128.5" rx="7" ry="7.5" fill="#FCA14D"/>
<path d="M246.678 150H223.322C222.659 150 222.182 149.367 222.411 148.745C223.968 144.535 228.053 138 235 138C241.947 138 246.032 144.535 247.589 148.745C247.818 149.367 247.341 150 246.678 150Z" fill="#FCA14D" stroke="#FCA14D"/>
<path d="M171.682 190.21C171.024 190.21 170.44 190.079 169.932 189.818C169.428 189.552 169.031 189.183 168.742 188.712C168.457 188.241 168.315 187.695 168.315 187.074C168.315 186.495 168.45 185.966 168.721 185.485C168.991 185.004 169.395 184.626 169.932 184.351L169.904 184.855C169.474 184.589 169.143 184.258 168.91 183.861C168.681 183.46 168.567 183.012 168.567 182.517C168.567 181.943 168.7 181.446 168.966 181.026C169.232 180.606 169.598 180.282 170.065 180.053C170.536 179.824 171.075 179.71 171.682 179.71C172.288 179.71 172.825 179.824 173.292 180.053C173.758 180.282 174.125 180.606 174.391 181.026C174.657 181.446 174.79 181.943 174.79 182.517C174.79 183.012 174.68 183.457 174.461 183.854C174.241 184.251 173.905 184.584 173.453 184.855L173.432 184.365C173.964 184.626 174.367 185 174.643 185.485C174.918 185.966 175.056 186.495 175.056 187.074C175.056 187.695 174.911 188.241 174.622 188.712C174.332 189.183 173.933 189.552 173.425 189.818C172.916 190.079 172.335 190.21 171.682 190.21ZM171.682 188.817C172.223 188.817 172.662 188.67 172.998 188.376C173.334 188.077 173.502 187.643 173.502 187.074C173.502 186.505 173.334 186.071 172.998 185.772C172.666 185.469 172.228 185.317 171.682 185.317C171.136 185.317 170.695 185.469 170.359 185.772C170.027 186.071 169.862 186.505 169.862 187.074C169.862 187.643 170.03 188.077 170.366 188.376C170.702 188.67 171.14 188.817 171.682 188.817ZM171.682 183.917C172.144 183.917 172.517 183.803 172.802 183.574C173.091 183.341 173.236 182.988 173.236 182.517C173.236 182.046 173.091 181.693 172.802 181.46C172.517 181.222 172.144 181.103 171.682 181.103C171.22 181.103 170.844 181.222 170.555 181.46C170.265 181.693 170.121 182.046 170.121 182.517C170.121 182.988 170.265 183.341 170.555 183.574C170.844 183.803 171.22 183.917 171.682 183.917ZM183.242 192.191C182.701 191.561 182.234 190.849 181.842 190.056C181.45 189.267 181.152 188.439 180.946 187.571C180.741 186.698 180.645 185.828 180.659 184.96C180.645 184.092 180.741 183.224 180.946 182.356C181.152 181.483 181.45 180.653 181.842 179.864C182.234 179.071 182.701 178.359 183.242 177.729L184.334 178.541C183.774 179.204 183.324 179.885 182.983 180.585C182.643 181.28 182.393 181.994 182.234 182.727C182.076 183.455 181.996 184.199 181.996 184.96C181.996 185.716 182.076 186.46 182.234 187.193C182.393 187.926 182.643 188.642 182.983 189.342C183.329 190.042 183.779 190.721 184.334 191.379L183.242 192.191ZM189.414 190.21C188.728 190.21 188.121 190.061 187.594 189.762C187.067 189.459 186.651 189.043 186.348 188.516C186.049 187.989 185.9 187.382 185.9 186.696V183.224C185.9 182.538 186.049 181.931 186.348 181.404C186.651 180.877 187.067 180.464 187.594 180.165C188.121 179.862 188.728 179.71 189.414 179.71C190.1 179.71 190.707 179.862 191.234 180.165C191.761 180.464 192.174 180.877 192.473 181.404C192.776 181.931 192.928 182.538 192.928 183.224V186.696C192.928 187.382 192.776 187.989 192.473 188.516C192.174 189.043 191.761 189.459 191.234 189.762C190.707 190.061 190.1 190.21 189.414 190.21ZM189.414 188.81C189.787 188.81 190.126 188.721 190.429 188.544C190.737 188.362 190.982 188.119 191.164 187.816C191.346 187.508 191.437 187.165 191.437 186.787V183.119C191.437 182.746 191.346 182.407 191.164 182.104C190.982 181.796 190.737 181.553 190.429 181.376C190.126 181.194 189.787 181.103 189.414 181.103C189.041 181.103 188.7 181.194 188.392 181.376C188.089 181.553 187.846 181.796 187.664 182.104C187.482 182.407 187.391 182.746 187.391 183.119V186.787C187.391 187.165 187.482 187.508 187.664 187.816C187.846 188.119 188.089 188.362 188.392 188.544C188.7 188.721 189.041 188.81 189.414 188.81ZM198.396 190.21C197.71 190.21 197.104 190.061 196.576 189.762C196.049 189.459 195.634 189.043 195.33 188.516C195.032 187.989 194.882 187.382 194.882 186.696V183.224C194.882 182.538 195.032 181.931 195.33 181.404C195.634 180.877 196.049 180.464 196.576 180.165C197.104 179.862 197.71 179.71 198.396 179.71C199.082 179.71 199.689 179.862 200.216 180.165C200.744 180.464 201.157 180.877 201.455 181.404C201.759 181.931 201.91 182.538 201.91 183.224V186.696C201.91 187.382 201.759 187.989 201.455 188.516C201.157 189.043 200.744 189.459 200.216 189.762C199.689 190.061 199.082 190.21 198.396 190.21ZM198.396 188.81C198.77 188.81 199.108 188.721 199.411 188.544C199.719 188.362 199.964 188.119 200.146 187.816C200.328 187.508 200.419 187.165 200.419 186.787V183.119C200.419 182.746 200.328 182.407 200.146 182.104C199.964 181.796 199.719 181.553 199.411 181.376C199.108 181.194 198.77 181.103 198.396 181.103C198.023 181.103 197.682 181.194 197.374 181.376C197.071 181.553 196.828 181.796 196.646 182.104C196.464 182.407 196.373 182.746 196.373 183.119V186.787C196.373 187.165 196.464 187.508 196.646 187.816C196.828 188.119 197.071 188.362 197.374 188.544C197.682 188.721 198.023 188.81 198.396 188.81ZM207.379 190.21C206.693 190.21 206.086 190.061 205.559 189.762C205.031 189.459 204.616 189.043 204.313 188.516C204.014 187.989 203.865 187.382 203.865 186.696V183.224C203.865 182.538 204.014 181.931 204.313 181.404C204.616 180.877 205.031 180.464 205.559 180.165C206.086 179.862 206.693 179.71 207.379 179.71C208.065 179.71 208.671 179.862 209.199 180.165C209.726 180.464 210.139 180.877 210.438 181.404C210.741 181.931 210.893 182.538 210.893 183.224V186.696C210.893 187.382 210.741 187.989 210.438 188.516C210.139 189.043 209.726 189.459 209.199 189.762C208.671 190.061 208.065 190.21 207.379 190.21ZM207.379 188.81C207.752 188.81 208.09 188.721 208.394 188.544C208.702 188.362 208.947 188.119 209.129 187.816C209.311 187.508 209.402 187.165 209.402 186.787V183.119C209.402 182.746 209.311 182.407 209.129 182.104C208.947 181.796 208.702 181.553 208.394 181.376C208.09 181.194 207.752 181.103 207.379 181.103C207.005 181.103 206.665 181.194 206.357 181.376C206.053 181.553 205.811 181.796 205.629 182.104C205.447 182.407 205.356 182.746 205.356 183.119V186.787C205.356 187.165 205.447 187.508 205.629 187.816C205.811 188.119 206.053 188.362 206.357 188.544C206.665 188.721 207.005 188.81 207.379 188.81ZM213.54 192.191L212.448 191.379C213.004 190.721 213.452 190.042 213.792 189.342C214.138 188.642 214.39 187.926 214.548 187.193C214.707 186.46 214.786 185.716 214.786 184.96C214.786 184.199 214.707 183.455 214.548 182.727C214.39 181.994 214.14 181.28 213.799 180.585C213.459 179.885 213.008 179.204 212.448 178.541L213.54 177.729C214.082 178.359 214.548 179.071 214.94 179.864C215.332 180.653 215.631 181.483 215.836 182.356C216.042 183.224 216.137 184.092 216.123 184.96C216.137 185.828 216.042 186.698 215.836 187.571C215.631 188.439 215.332 189.267 214.94 190.056C214.548 190.849 214.082 191.561 213.54 192.191ZM225.385 190.21C224.699 190.21 224.092 190.061 223.565 189.762C223.037 189.459 222.622 189.043 222.319 188.516C222.02 187.989 221.871 187.382 221.871 186.696V183.224C221.871 182.538 222.02 181.931 222.319 181.404C222.622 180.877 223.037 180.464 223.565 180.165C224.092 179.862 224.699 179.71 225.385 179.71C226.071 179.71 226.677 179.862 227.205 180.165C227.732 180.464 228.145 180.877 228.444 181.404C228.747 181.931 228.899 182.538 228.899 183.224V186.696C228.899 187.382 228.747 187.989 228.444 188.516C228.145 189.043 227.732 189.459 227.205 189.762C226.677 190.061 226.071 190.21 225.385 190.21ZM225.385 188.81C225.758 188.81 226.096 188.721 226.4 188.544C226.708 188.362 226.953 188.119 227.135 187.816C227.317 187.508 227.408 187.165 227.408 186.787V183.119C227.408 182.746 227.317 182.407 227.135 182.104C226.953 181.796 226.708 181.553 226.4 181.376C226.096 181.194 225.758 181.103 225.385 181.103C225.011 181.103 224.671 181.194 224.363 181.376C224.059 181.553 223.817 181.796 223.635 182.104C223.453 182.407 223.362 182.746 223.362 183.119V186.787C223.362 187.165 223.453 187.508 223.635 187.816C223.817 188.119 224.059 188.362 224.363 188.544C224.671 188.721 225.011 188.81 225.385 188.81ZM234.367 190.21C233.681 190.21 233.074 190.061 232.547 189.762C232.02 189.459 231.604 189.043 231.301 188.516C231.002 187.989 230.853 187.382 230.853 186.696V183.224C230.853 182.538 231.002 181.931 231.301 181.404C231.604 180.877 232.02 180.464 232.547 180.165C233.074 179.862 233.681 179.71 234.367 179.71C235.053 179.71 235.66 179.862 236.187 180.165C236.714 180.464 237.127 180.877 237.426 181.404C237.729 181.931 237.881 182.538 237.881 183.224V186.696C237.881 187.382 237.729 187.989 237.426 188.516C237.127 189.043 236.714 189.459 236.187 189.762C235.66 190.061 235.053 190.21 234.367 190.21ZM234.367 188.81C234.74 188.81 235.079 188.721 235.382 188.544C235.69 188.362 235.935 188.119 236.117 187.816C236.299 187.508 236.39 187.165 236.39 186.787V183.119C236.39 182.746 236.299 182.407 236.117 182.104C235.935 181.796 235.69 181.553 235.382 181.376C235.079 181.194 234.74 181.103 234.367 181.103C233.994 181.103 233.653 181.194 233.345 181.376C233.042 181.553 232.799 181.796 232.617 182.104C232.435 182.407 232.344 182.746 232.344 183.119V186.787C232.344 187.165 232.435 187.508 232.617 187.816C232.799 188.119 233.042 188.362 233.345 188.544C233.653 188.721 233.994 188.81 234.367 188.81ZM243.349 190.21C242.663 190.21 242.057 190.061 241.529 189.762C241.002 189.459 240.587 189.043 240.283 188.516C239.985 187.989 239.835 187.382 239.835 186.696V183.224C239.835 182.538 239.985 181.931 240.283 181.404C240.587 180.877 241.002 180.464 241.529 180.165C242.057 179.862 242.663 179.71 243.349 179.71C244.035 179.71 244.642 179.862 245.169 180.165C245.697 180.464 246.11 180.877 246.408 181.404C246.712 181.931 246.863 182.538 246.863 183.224V186.696C246.863 187.382 246.712 187.989 246.408 188.516C246.11 189.043 245.697 189.459 245.169 189.762C244.642 190.061 244.035 190.21 243.349 190.21ZM243.349 188.81C243.723 188.81 244.061 188.721 244.364 188.544C244.672 188.362 244.917 188.119 245.099 187.816C245.281 187.508 245.372 187.165 245.372 186.787V183.119C245.372 182.746 245.281 182.407 245.099 182.104C244.917 181.796 244.672 181.553 244.364 181.376C244.061 181.194 243.723 181.103 243.349 181.103C242.976 181.103 242.635 181.194 242.327 181.376C242.024 181.553 241.781 181.796 241.599 182.104C241.417 182.407 241.326 182.746 241.326 183.119V186.787C241.326 187.165 241.417 187.508 241.599 187.816C241.781 188.119 242.024 188.362 242.327 188.544C242.635 188.721 242.976 188.81 243.349 188.81ZM248.678 185.541V184.365H252.878V185.541H248.678ZM258.211 190.21C257.525 190.21 256.918 190.061 256.391 189.762C255.863 189.459 255.448 189.043 255.145 188.516C254.846 187.989 254.697 187.382 254.697 186.696V183.224C254.697 182.538 254.846 181.931 255.145 181.404C255.448 180.877 255.863 180.464 256.391 180.165C256.918 179.862 257.525 179.71 258.211 179.71C258.897 179.71 259.503 179.862 260.031 180.165C260.558 180.464 260.971 180.877 261.27 181.404C261.573 181.931 261.725 182.538 261.725 183.224V186.696C261.725 187.382 261.573 187.989 261.27 188.516C260.971 189.043 260.558 189.459 260.031 189.762C259.503 190.061 258.897 190.21 258.211 190.21ZM258.211 188.81C258.584 188.81 258.922 188.721 259.226 188.544C259.534 188.362 259.779 188.119 259.961 187.816C260.143 187.508 260.234 187.165 260.234 186.787V183.119C260.234 182.746 260.143 182.407 259.961 182.104C259.779 181.796 259.534 181.553 259.226 181.376C258.922 181.194 258.584 181.103 258.211 181.103C257.837 181.103 257.497 181.194 257.189 181.376C256.885 181.553 256.643 181.796 256.461 182.104C256.279 182.407 256.188 182.746 256.188 183.119V186.787C256.188 187.165 256.279 187.508 256.461 187.816C256.643 188.119 256.885 188.362 257.189 188.544C257.497 188.721 257.837 188.81 258.211 188.81ZM267.193 190.21C266.507 190.21 265.901 190.061 265.373 189.762C264.846 189.459 264.431 189.043 264.127 188.516C263.829 187.989 263.679 187.382 263.679 186.696V183.224C263.679 182.538 263.829 181.931 264.127 181.404C264.431 180.877 264.846 180.464 265.373 180.165C265.901 179.862 266.507 179.71 267.193 179.71C267.879 179.71 268.486 179.862 269.013 180.165C269.541 180.464 269.954 180.877 270.252 181.404C270.556 181.931 270.707 182.538 270.707 183.224V186.696C270.707 187.382 270.556 187.989 270.252 188.516C269.954 189.043 269.541 189.459 269.013 189.762C268.486 190.061 267.879 190.21 267.193 190.21ZM267.193 188.81C267.567 188.81 267.905 188.721 268.208 188.544C268.516 188.362 268.761 188.119 268.943 187.816C269.125 187.508 269.216 187.165 269.216 186.787V183.119C269.216 182.746 269.125 182.407 268.943 182.104C268.761 181.796 268.516 181.553 268.208 181.376C267.905 181.194 267.567 181.103 267.193 181.103C266.82 181.103 266.479 181.194 266.171 181.376C265.868 181.553 265.625 181.796 265.443 182.104C265.261 182.407 265.17 182.746 265.17 183.119V186.787C265.17 187.165 265.261 187.508 265.443 187.816C265.625 188.119 265.868 188.362 266.171 188.544C266.479 188.721 266.82 188.81 267.193 188.81ZM272.522 185.541V184.365H276.722V185.541H272.522ZM282.055 190.21C281.369 190.21 280.762 190.061 280.235 189.762C279.707 189.459 279.292 189.043 278.989 188.516C278.69 187.989 278.541 187.382 278.541 186.696V183.224C278.541 182.538 278.69 181.931 278.989 181.404C279.292 180.877 279.707 180.464 280.235 180.165C280.762 179.862 281.369 179.71 282.055 179.71C282.741 179.71 283.347 179.862 283.875 180.165C284.402 180.464 284.815 180.877 285.114 181.404C285.417 181.931 285.569 182.538 285.569 183.224V186.696C285.569 187.382 285.417 187.989 285.114 188.516C284.815 189.043 284.402 189.459 283.875 189.762C283.347 190.061 282.741 190.21 282.055 190.21ZM282.055 188.81C282.428 188.81 282.766 188.721 283.07 188.544C283.378 188.362 283.623 188.119 283.805 187.816C283.987 187.508 284.078 187.165 284.078 186.787V183.119C284.078 182.746 283.987 182.407 283.805 182.104C283.623 181.796 283.378 181.553 283.07 181.376C282.766 181.194 282.428 181.103 282.055 181.103C281.681 181.103 281.341 181.194 281.033 181.376C280.729 181.553 280.487 181.796 280.305 182.104C280.123 182.407 280.032 182.746 280.032 183.119V186.787C280.032 187.165 280.123 187.508 280.305 187.816C280.487 188.119 280.729 188.362 281.033 188.544C281.341 188.721 281.681 188.81 282.055 188.81ZM291.037 190.21C290.351 190.21 289.744 190.061 289.217 189.762C288.69 189.459 288.274 189.043 287.971 188.516C287.672 187.989 287.523 187.382 287.523 186.696V183.224C287.523 182.538 287.672 181.931 287.971 181.404C288.274 180.877 288.69 180.464 289.217 180.165C289.744 179.862 290.351 179.71 291.037 179.71C291.723 179.71 292.33 179.862 292.857 180.165C293.384 180.464 293.797 180.877 294.096 181.404C294.399 181.931 294.551 182.538 294.551 183.224V186.696C294.551 187.382 294.399 187.989 294.096 188.516C293.797 189.043 293.384 189.459 292.857 189.762C292.33 190.061 291.723 190.21 291.037 190.21ZM291.037 188.81C291.41 188.81 291.749 188.721 292.052 188.544C292.36 188.362 292.605 188.119 292.787 187.816C292.969 187.508 293.06 187.165 293.06 186.787V183.119C293.06 182.746 292.969 182.407 292.787 182.104C292.605 181.796 292.36 181.553 292.052 181.376C291.749 181.194 291.41 181.103 291.037 181.103C290.664 181.103 290.323 181.194 290.015 181.376C289.712 181.553 289.469 181.796 289.287 182.104C289.105 182.407 289.014 182.746 289.014 183.119V186.787C289.014 187.165 289.105 187.508 289.287 187.816C289.469 188.119 289.712 188.362 290.015 188.544C290.323 188.721 290.664 188.81 291.037 188.81Z" fill="#55626F"/>
<circle cx="218.5" cy="224.5" r="11.5" fill="#57A8F3"/>
<circle cx="250.5" cy="224.5" r="11.5" fill="#57A8F3"/>
<path d="M224.461 223.463C224.53 223.566 224.603 223.665 224.668 223.77C224.88 224.114 224.971 224.49 224.959 224.893C224.95 225.176 224.95 225.459 224.941 225.741C224.928 226.14 224.651 226.412 224.252 226.413C223.466 226.416 222.68 226.417 221.894 226.416C221.493 226.415 221.211 226.134 221.207 225.733C221.205 225.527 221.209 225.32 221.207 225.113C221.204 224.628 220.923 224.255 220.458 224.117C219.148 223.729 217.837 223.73 216.525 224.121C216.062 224.259 215.78 224.632 215.775 225.119C215.773 225.322 215.775 225.525 215.774 225.729C215.77 226.136 215.491 226.42 215.084 226.422C214.298 226.425 213.512 226.425 212.726 226.424C212.332 226.423 212.052 226.154 212.04 225.762C212.031 225.421 212.027 225.08 212.029 224.739C212.032 224.29 212.207 223.902 212.475 223.55C212.493 223.526 212.507 223.499 212.523 223.473L212.875 223.121C212.998 223.033 213.118 222.94 213.243 222.856C213.839 222.456 214.498 222.194 215.187 222.015C217.307 221.466 219.434 221.454 221.562 221.947C222.303 222.118 223.012 222.379 223.658 222.791C223.808 222.886 223.951 222.994 224.095 223.095L224.461 223.463Z" fill="white"/>
<path d="M247.761 226.006C247.393 225.35 247.218 224.604 247.257 223.854C247.257 223.456 247.257 223.056 247.257 222.656C247.257 222.305 247.423 222.111 247.706 222.111C247.99 222.111 248.155 222.293 248.161 222.656C248.171 223.294 248.161 223.928 248.204 224.572C248.241 224.827 248.302 225.078 248.386 225.322L248.459 225.346C248.677 225.119 248.897 224.893 249.113 224.663C249.136 224.628 249.147 224.586 249.144 224.544C249.133 224.137 249.109 223.732 249.107 223.327C249.107 222.185 249.107 221.046 249.107 219.905C249.107 219.655 249.155 219.408 249.25 219.177C249.345 218.947 249.484 218.737 249.66 218.56C249.836 218.383 250.045 218.243 250.275 218.147C250.505 218.051 250.752 218.001 251.001 218C251.251 217.999 251.498 218.048 251.728 218.142C251.959 218.237 252.169 218.377 252.346 218.552C252.522 218.728 252.663 218.937 252.759 219.167C252.855 219.397 252.905 219.644 252.906 219.894V220.859C252.991 220.779 253.044 220.733 253.087 220.677C253.777 219.99 254.466 219.302 255.154 218.614C255.211 218.539 255.289 218.481 255.379 218.449C255.468 218.417 255.565 218.411 255.657 218.433C255.738 218.452 255.811 218.493 255.87 218.551C255.928 218.61 255.969 218.684 255.988 218.764C256.007 218.845 256.003 218.929 255.977 219.008C255.95 219.086 255.903 219.156 255.839 219.209C255.227 219.828 254.607 220.441 253.991 221.057L246.943 228.094C246.887 228.15 246.83 228.208 246.772 228.263C246.73 228.305 246.679 228.339 246.624 228.362C246.569 228.385 246.509 228.396 246.449 228.396C246.39 228.396 246.33 228.385 246.275 228.362C246.22 228.339 246.169 228.305 246.127 228.263C246.085 228.22 246.052 228.169 246.03 228.113C246.009 228.057 245.998 227.997 246 227.937C246.002 227.877 246.016 227.818 246.041 227.763C246.066 227.709 246.102 227.66 246.147 227.619C246.641 227.118 247.141 226.622 247.639 226.122C247.681 226.093 247.713 226.055 247.761 226.006Z" fill="white"/>
<path d="M251.465 230.055H252.824C253.175 230.055 253.397 230.236 253.391 230.515C253.386 230.793 253.175 230.962 252.835 230.962C251.609 230.962 250.381 230.962 249.151 230.962C248.76 230.962 248.528 230.622 248.695 230.302C248.74 230.218 248.809 230.15 248.893 230.106C248.978 230.061 249.073 230.043 249.168 230.053C249.624 230.053 250.076 230.053 250.563 230.053V229.435C250.563 228.984 250.563 228.526 250.563 228.083C250.563 227.917 250.532 227.845 250.349 227.818C249.83 227.734 249.338 227.533 248.909 227.229C249.129 227.029 249.326 226.84 249.536 226.667C249.575 226.634 249.682 226.654 249.742 226.683C250.33 226.976 251.001 227.056 251.641 226.91C252.282 226.764 252.852 226.401 253.255 225.882C253.647 225.388 253.859 224.775 253.856 224.145C253.856 223.623 253.856 223.1 253.856 222.576C253.848 222.47 253.878 222.364 253.943 222.278C254.007 222.193 254.1 222.134 254.205 222.113C254.305 222.089 254.41 222.101 254.503 222.147C254.595 222.192 254.668 222.268 254.711 222.362C254.733 222.407 254.746 222.457 254.747 222.507C254.736 223.247 254.785 223.996 254.694 224.726C254.584 225.494 254.232 226.207 253.69 226.762C253.148 227.318 252.444 227.687 251.679 227.816C251.497 227.847 251.459 227.912 251.461 228.079C251.47 228.726 251.465 229.373 251.465 230.055Z" fill="white"/>
<path d="M250.334 225.909L252.897 223.343C252.937 224.108 252.984 224.873 252.362 225.475C252.117 225.73 251.803 225.91 251.459 225.994C251.115 226.078 250.753 226.062 250.418 225.949C250.389 225.938 250.361 225.925 250.334 225.909Z" fill="white"/>
</g>
<defs>
<clipPath id="clip0_6360_37538">
<rect width="464" height="436" fill="white"/>
</clipPath>
</defs>
</svg>
