<svg width="540" height="147" viewBox="0 0 540 147" fill="none" xmlns="http://www.w3.org/2000/svg">
<path d="M1.94595 0.5H538.054C538.532 0.5 538.94 0.596337 539.209 0.729107C539.477 0.860918 539.499 0.963191 539.5 0.962915V146.037C539.499 146.037 539.477 146.139 539.209 146.271C538.94 146.404 538.532 146.5 538.054 146.5H1.94595C1.46829 146.5 1.06052 146.404 0.790732 146.271C0.52289 146.139 0.501459 146.037 0.500037 146.037C0.500023 146.037 0.50001 146.037 0.5 146.037V0.962876C0.50001 0.9629 0.500023 0.962913 0.500037 0.962916C0.501459 0.963194 0.522891 0.86092 0.790732 0.729108C1.06052 0.596338 1.46829 0.5 1.94595 0.5Z" fill="white" stroke="#9CA5AC"/>
<path d="M20.511 86.68V84.013C20.903 84.013 21.218 83.915 21.456 83.719C21.694 83.5183 21.876 83.2523 22.002 82.921C22.128 82.5897 22.2237 82.2187 22.289 81.808C22.3543 81.3927 22.4103 80.9727 22.457 80.548C22.5223 79.9273 22.5737 79.3277 22.611 78.749C22.653 78.1703 22.688 77.5707 22.716 76.95C22.7487 76.3293 22.786 75.6503 22.828 74.913L29.044 74.92V84.013H29.765V86.68H28.743V85H21.54V86.68H20.511ZM22.478 84.013H28.015V75.907L23.787 75.9C23.759 76.4693 23.731 77.02 23.703 77.552C23.675 78.084 23.6423 78.6207 23.605 79.162C23.5677 79.7033 23.5187 80.268 23.458 80.856C23.4067 81.3927 23.346 81.8617 23.276 82.263C23.206 82.6643 23.108 83.0073 22.982 83.292C22.8607 83.5767 22.6927 83.817 22.478 84.013ZM34.4593 85.21C33.7079 85.21 33.0663 85.0397 32.5343 84.699C32.0023 84.3583 31.5939 83.887 31.3093 83.285C31.0246 82.683 30.8823 81.9923 30.8823 81.213C30.8823 80.4197 31.0269 79.7243 31.3163 79.127C31.6056 78.5297 32.0163 78.0653 32.5483 77.734C33.0849 77.398 33.7219 77.23 34.4593 77.23C35.2153 77.23 35.8593 77.4003 36.3913 77.741C36.9279 78.077 37.3363 78.546 37.6163 79.148C37.9009 79.7453 38.0433 80.4337 38.0433 81.213C38.0433 82.0063 37.9009 82.704 37.6163 83.306C37.3316 83.9033 36.9209 84.37 36.3843 84.706C35.8476 85.042 35.2059 85.21 34.4593 85.21ZM34.4593 84.223C35.2993 84.223 35.9246 83.9453 36.3353 83.39C36.7459 82.83 36.9513 82.1043 36.9513 81.213C36.9513 80.2983 36.7436 79.5703 36.3283 79.029C35.9176 78.4877 35.2946 78.217 34.4593 78.217C33.8946 78.217 33.4279 78.3453 33.0593 78.602C32.6953 78.854 32.4223 79.2063 32.2403 79.659C32.0629 80.107 31.9743 80.625 31.9743 81.213C31.9743 82.123 32.1843 82.8533 32.6043 83.404C33.0243 83.95 33.6426 84.223 34.4593 84.223ZM42.6184 85.217C41.9138 85.2123 41.3094 85.0583 40.8054 84.755C40.3014 84.4517 39.9094 83.999 39.6294 83.397C39.3541 82.795 39.2048 82.0437 39.1814 81.143C39.1674 80.7463 39.1768 80.3147 39.2094 79.848C39.2421 79.3767 39.2934 78.9287 39.3634 78.504C39.4334 78.0793 39.5174 77.734 39.6154 77.468C39.7368 77.1227 39.9094 76.8007 40.1334 76.502C40.3621 76.1987 40.6258 75.9513 40.9244 75.76C41.2138 75.564 41.5404 75.4123 41.9044 75.305C42.2731 75.193 42.6558 75.1067 43.0524 75.046C43.4538 74.9853 43.8504 74.9317 44.2424 74.885C44.6391 74.8383 45.0054 74.78 45.3414 74.71L45.4534 75.641C45.1968 75.6923 44.8934 75.739 44.5434 75.781C44.1934 75.823 43.8271 75.8743 43.4444 75.935C43.0618 75.991 42.6954 76.068 42.3454 76.166C41.9954 76.264 41.6968 76.3923 41.4494 76.551C41.0714 76.7797 40.7798 77.125 40.5744 77.587C40.3738 78.049 40.2501 78.5787 40.2034 79.176C40.4928 78.7233 40.8754 78.3827 41.3514 78.154C41.8321 77.9253 42.3524 77.811 42.9124 77.811C43.5938 77.811 44.1794 77.9673 44.6694 78.28C45.1641 78.5927 45.5444 79.0267 45.8104 79.582C46.0764 80.1373 46.2094 80.7743 46.2094 81.493C46.2094 82.2443 46.0624 82.9 45.7684 83.46C45.4791 84.02 45.0661 84.454 44.5294 84.762C43.9928 85.0653 43.3558 85.217 42.6184 85.217ZM42.6954 84.23C43.4888 84.23 44.0908 83.9827 44.5014 83.488C44.9168 82.9933 45.1244 82.3353 45.1244 81.514C45.1244 80.674 44.9098 80.0113 44.4804 79.526C44.0558 79.0407 43.4561 78.798 42.6814 78.798C41.9068 78.798 41.3118 79.0407 40.8964 79.526C40.4811 80.0113 40.2734 80.674 40.2734 81.514C40.2734 82.354 40.4811 83.0167 40.8964 83.502C41.3118 83.9873 41.9114 84.23 42.6954 84.23ZM49.9125 85.21C49.3432 85.21 48.8649 85.1073 48.4775 84.902C48.0949 84.6967 47.8079 84.4237 47.6165 84.083C47.4252 83.7423 47.3295 83.3713 47.3295 82.97C47.3295 82.5593 47.4112 82.2093 47.5745 81.92C47.7425 81.626 47.9689 81.3857 48.2535 81.199C48.5429 81.0123 48.8765 80.87 49.2545 80.772C49.6372 80.6787 50.0595 80.597 50.5215 80.527C50.9882 80.4523 51.4432 80.3893 51.8865 80.338C52.3345 80.282 52.7265 80.2283 53.0625 80.177L52.6985 80.401C52.7125 79.6543 52.5679 79.1013 52.2645 78.742C51.9612 78.3827 51.4339 78.203 50.6825 78.203C50.1645 78.203 49.7259 78.3197 49.3665 78.553C49.0119 78.7863 48.7622 79.155 48.6175 79.659L47.6165 79.365C47.7892 78.6883 48.1369 78.1633 48.6595 77.79C49.1822 77.4167 49.8612 77.23 50.6965 77.23C51.3872 77.23 51.9729 77.3607 52.4535 77.622C52.9389 77.8787 53.2819 78.252 53.4825 78.742C53.5759 78.9613 53.6365 79.2063 53.6645 79.477C53.6925 79.7477 53.7065 80.023 53.7065 80.303V85H52.7895V83.103L53.0555 83.215C52.7989 83.8637 52.3999 84.3583 51.8585 84.699C51.3172 85.0397 50.6685 85.21 49.9125 85.21ZM50.0315 84.321C50.5122 84.321 50.9322 84.2347 51.2915 84.062C51.6509 83.8893 51.9402 83.6537 52.1595 83.355C52.3789 83.0517 52.5212 82.711 52.5865 82.333C52.6425 82.0903 52.6729 81.8243 52.6775 81.535C52.6822 81.241 52.6845 81.0217 52.6845 80.877L53.0765 81.08C52.7265 81.1267 52.3462 81.1733 51.9355 81.22C51.5295 81.2667 51.1282 81.3203 50.7315 81.381C50.3395 81.4417 49.9849 81.514 49.6675 81.598C49.4529 81.6587 49.2452 81.745 49.0445 81.857C48.8439 81.9643 48.6782 82.109 48.5475 82.291C48.4215 82.473 48.3585 82.6993 48.3585 82.97C48.3585 83.1893 48.4122 83.4017 48.5195 83.607C48.6315 83.8123 48.8089 83.9827 49.0515 84.118C49.2989 84.2533 49.6255 84.321 50.0315 84.321ZM55.5218 85V77.44H58.6368C58.7955 77.44 58.9868 77.4493 59.2108 77.468C59.4395 77.4867 59.6518 77.5217 59.8478 77.573C60.2725 77.685 60.6132 77.9137 60.8698 78.259C61.1312 78.6043 61.2618 79.0197 61.2618 79.505C61.2618 79.7757 61.2198 80.0183 61.1358 80.233C61.0565 80.443 60.9422 80.625 60.7928 80.779C60.7228 80.8583 60.6458 80.9283 60.5618 80.989C60.4778 81.045 60.3962 81.0917 60.3168 81.129C60.4662 81.157 60.6272 81.2223 60.7998 81.325C61.0705 81.4837 61.2758 81.6983 61.4158 81.969C61.5558 82.235 61.6258 82.5593 61.6258 82.942C61.6258 83.46 61.5022 83.8823 61.2548 84.209C61.0075 84.5357 60.6762 84.7597 60.2608 84.881C60.0742 84.9323 59.8712 84.965 59.6518 84.979C59.4372 84.993 59.2342 85 59.0428 85H55.5218ZM56.5578 84.125H58.9938C59.0918 84.125 59.2155 84.118 59.3648 84.104C59.5142 84.0853 59.6472 84.062 59.7638 84.034C60.0392 83.964 60.2398 83.824 60.3658 83.614C60.4965 83.3993 60.5618 83.166 60.5618 82.914C60.5618 82.5827 60.4638 82.312 60.2678 82.102C60.0765 81.8873 59.8198 81.7567 59.4978 81.71C59.3905 81.6867 59.2785 81.6727 59.1618 81.668C59.0452 81.6633 58.9402 81.661 58.8468 81.661H56.5578V84.125ZM56.5578 80.779H58.6718C58.7932 80.779 58.9285 80.772 59.0778 80.758C59.2318 80.7393 59.3648 80.709 59.4768 80.667C59.7195 80.583 59.8968 80.4383 60.0088 80.233C60.1255 80.0277 60.1838 79.8037 60.1838 79.561C60.1838 79.295 60.1208 79.0617 59.9948 78.861C59.8735 78.6603 59.6892 78.5203 59.4418 78.441C59.2738 78.3803 59.0918 78.3453 58.8958 78.336C58.7045 78.3267 58.5832 78.322 58.5318 78.322H56.5578V80.779ZM66.178 85.21C65.4267 85.21 64.785 85.0397 64.253 84.699C63.721 84.3583 63.3127 83.887 63.028 83.285C62.7433 82.683 62.601 81.9923 62.601 81.213C62.601 80.4197 62.7457 79.7243 63.035 79.127C63.3243 78.5297 63.735 78.0653 64.267 77.734C64.8037 77.398 65.4407 77.23 66.178 77.23C66.934 77.23 67.578 77.4003 68.11 77.741C68.6467 78.077 69.055 78.546 69.335 79.148C69.6197 79.7453 69.762 80.4337 69.762 81.213C69.762 82.0063 69.6197 82.704 69.335 83.306C69.0503 83.9033 68.6397 84.37 68.103 84.706C67.5663 85.042 66.9247 85.21 66.178 85.21ZM66.178 84.223C67.018 84.223 67.6433 83.9453 68.054 83.39C68.4647 82.83 68.67 82.1043 68.67 81.213C68.67 80.2983 68.4623 79.5703 68.047 79.029C67.6363 78.4877 67.0133 78.217 66.178 78.217C65.6133 78.217 65.1467 78.3453 64.778 78.602C64.414 78.854 64.141 79.2063 63.959 79.659C63.7817 80.107 63.693 80.625 63.693 81.213C63.693 82.123 63.903 82.8533 64.323 83.404C64.743 83.95 65.3613 84.223 66.178 84.223ZM75.9332 85V82.186C75.6812 82.312 75.3708 82.4217 75.0022 82.515C74.6335 82.6083 74.2368 82.655 73.8122 82.655C73.0468 82.655 72.4262 82.4847 71.9502 82.144C71.4742 81.8033 71.1638 81.311 71.0192 80.667C70.9725 80.4757 70.9398 80.2727 70.9212 80.058C70.9072 79.8433 70.8978 79.6497 70.8932 79.477C70.8885 79.3043 70.8862 79.1807 70.8862 79.106V77.44H71.9222V79.106C71.9222 79.26 71.9268 79.435 71.9362 79.631C71.9455 79.827 71.9665 80.0183 71.9992 80.205C72.0925 80.7137 72.3025 81.0987 72.6292 81.36C72.9605 81.6213 73.4248 81.752 74.0222 81.752C74.3955 81.752 74.7478 81.7053 75.0792 81.612C75.4152 81.514 75.6998 81.3833 75.9332 81.22V77.44H76.9622V85H75.9332ZM78.9144 85V77.44H79.9434V80.723H84.2064V77.44H85.2354V85H84.2064V81.71H79.9434V85H78.9144ZM87.1999 85L87.1859 77.44H88.2219V80.289H89.5379C89.7572 80.289 89.9719 80.2937 90.1819 80.303C90.3919 80.3123 90.5809 80.331 90.7489 80.359C91.1222 80.4337 91.4536 80.5597 91.7429 80.737C92.0322 80.9143 92.2609 81.1593 92.4289 81.472C92.5969 81.78 92.6809 82.1697 92.6809 82.641C92.6809 83.2897 92.5129 83.8007 92.1769 84.174C91.8409 84.5473 91.4186 84.79 90.9099 84.902C90.7186 84.944 90.5109 84.972 90.2869 84.986C90.0629 84.9953 89.8436 85 89.6289 85H87.1999ZM88.2219 84.118H89.5869C89.7409 84.118 89.9159 84.1133 90.1119 84.104C90.3079 84.0947 90.4806 84.069 90.6299 84.027C90.8819 83.957 91.1082 83.817 91.3089 83.607C91.5142 83.3923 91.6169 83.0703 91.6169 82.641C91.6169 82.2163 91.5189 81.8967 91.3229 81.682C91.1269 81.4627 90.8656 81.318 90.5389 81.248C90.3896 81.2153 90.2309 81.1943 90.0629 81.185C89.8996 81.1757 89.7409 81.171 89.5869 81.171H88.2219V84.118ZM93.5839 85V77.44H94.6129V85H93.5839ZM99.7078 76.544C99.3765 76.544 99.0731 76.4623 98.7978 76.299C98.5225 76.1357 98.3031 75.9187 98.1398 75.648C97.9811 75.3727 97.9018 75.0693 97.9018 74.738H98.7558C98.7558 74.9993 98.8491 75.2233 99.0358 75.41C99.2225 75.5967 99.4465 75.69 99.7078 75.69C99.9738 75.69 100.198 75.5967 100.38 75.41C100.566 75.2233 100.66 74.9993 100.66 74.738H101.514C101.514 75.0693 101.432 75.3727 101.269 75.648C101.11 75.9187 100.893 76.1357 100.618 76.299C100.342 76.4623 100.039 76.544 99.7078 76.544ZM102.578 77.44V85H101.577V79.113L97.4328 85H96.5648V77.44H97.5658V83.278L101.717 77.44H102.578ZM107.338 85V77.44H108.367V80.723H112.63V77.44H113.659V85H112.63V81.71H108.367V85H107.338ZM118.774 85.21C118.022 85.21 117.381 85.0397 116.849 84.699C116.317 84.3583 115.908 83.887 115.624 83.285C115.339 82.683 115.197 81.9923 115.197 81.213C115.197 80.4197 115.341 79.7243 115.631 79.127C115.92 78.5297 116.331 78.0653 116.863 77.734C117.399 77.398 118.036 77.23 118.774 77.23C119.53 77.23 120.174 77.4003 120.706 77.741C121.242 78.077 121.651 78.546 121.931 79.148C122.215 79.7453 122.358 80.4337 122.358 81.213C122.358 82.0063 122.215 82.704 121.931 83.306C121.646 83.9033 121.235 84.37 120.699 84.706C120.162 85.042 119.52 85.21 118.774 85.21ZM118.774 84.223C119.614 84.223 120.239 83.9453 120.65 83.39C121.06 82.83 121.266 82.1043 121.266 81.213C121.266 80.2983 121.058 79.5703 120.643 79.029C120.232 78.4877 119.609 78.217 118.774 78.217C118.209 78.217 117.742 78.3453 117.374 78.602C117.01 78.854 116.737 79.2063 116.555 79.659C116.377 80.107 116.289 80.625 116.289 81.213C116.289 82.123 116.499 82.8533 116.919 83.404C117.339 83.95 117.957 84.223 118.774 84.223ZM123.895 85V77.44H124.812L127.759 83.628L130.713 77.44H131.623V85H130.629V79.638L128.088 85H127.437L124.896 79.638V85H123.895ZM136.781 85.21C136.043 85.21 135.404 85.0467 134.863 84.72C134.326 84.3933 133.908 83.9337 133.61 83.341C133.311 82.7483 133.162 82.053 133.162 81.255C133.162 80.429 133.309 79.715 133.603 79.113C133.897 78.511 134.31 78.0467 134.842 77.72C135.378 77.3933 136.011 77.23 136.739 77.23C137.485 77.23 138.122 77.4027 138.65 77.748C139.177 78.0887 139.576 78.5787 139.847 79.218C140.117 79.8573 140.241 80.6203 140.218 81.507H139.168V81.143C139.149 80.163 138.937 79.4233 138.531 78.924C138.129 78.4247 137.541 78.175 136.767 78.175C135.955 78.175 135.332 78.4387 134.898 78.966C134.468 79.4933 134.254 80.2447 134.254 81.22C134.254 82.172 134.468 82.9117 134.898 83.439C135.332 83.9617 135.945 84.223 136.739 84.223C137.28 84.223 137.751 84.0993 138.153 83.852C138.559 83.6 138.878 83.2383 139.112 82.767L140.071 83.138C139.772 83.796 139.331 84.307 138.748 84.671C138.169 85.0303 137.513 85.21 136.781 85.21ZM133.89 81.507V80.646H139.665V81.507H133.89ZM145.166 85.21C144.471 85.21 143.883 85.035 143.402 84.685C142.921 84.3303 142.557 83.852 142.31 83.25C142.063 82.6433 141.939 81.9643 141.939 81.213C141.939 80.4477 142.063 79.7663 142.31 79.169C142.562 78.567 142.931 78.0933 143.416 77.748C143.901 77.4027 144.499 77.23 145.208 77.23C145.899 77.23 146.491 77.405 146.986 77.755C147.481 78.105 147.859 78.581 148.12 79.183C148.386 79.785 148.519 80.4617 148.519 81.213C148.519 81.969 148.386 82.648 148.12 83.25C147.854 83.852 147.471 84.3303 146.972 84.685C146.473 85.035 145.871 85.21 145.166 85.21ZM141.764 88.36V77.44H142.688V83.131H142.8V88.36H141.764ZM145.061 84.251C145.588 84.251 146.027 84.118 146.377 83.852C146.727 83.586 146.988 83.2243 147.161 82.767C147.338 82.305 147.427 81.787 147.427 81.213C147.427 80.6437 147.341 80.1303 147.168 79.673C146.995 79.2157 146.732 78.854 146.377 78.588C146.027 78.322 145.581 78.189 145.04 78.189C144.513 78.189 144.074 78.3173 143.724 78.574C143.379 78.8307 143.12 79.1877 142.947 79.645C142.774 80.0977 142.688 80.6203 142.688 81.213C142.688 81.7963 142.774 82.319 142.947 82.781C143.12 83.2383 143.381 83.5977 143.731 83.859C144.081 84.1203 144.524 84.251 145.061 84.251Z" fill="#5E6B77"/>
<path d="M25.061 123.21C24.0577 123.21 23.2107 122.988 22.52 122.545C21.8293 122.097 21.3067 121.479 20.952 120.69C20.5973 119.901 20.42 118.991 20.42 117.96C20.42 116.929 20.5973 116.019 20.952 115.23C21.3067 114.441 21.8293 113.825 22.52 113.382C23.2107 112.934 24.0577 112.71 25.061 112.71C26.069 112.71 26.916 112.934 27.602 113.382C28.2927 113.825 28.8153 114.441 29.17 115.23C29.5293 116.019 29.709 116.929 29.709 117.96C29.709 118.991 29.5293 119.901 29.17 120.69C28.8153 121.479 28.2927 122.097 27.602 122.545C26.916 122.988 26.069 123.21 25.061 123.21ZM25.061 122.223C25.8497 122.223 26.5077 122.043 27.035 121.684C27.5623 121.325 27.9567 120.825 28.218 120.186C28.484 119.542 28.617 118.8 28.617 117.96C28.617 117.12 28.484 116.38 28.218 115.741C27.9567 115.102 27.5623 114.602 27.035 114.243C26.5077 113.884 25.8497 113.702 25.061 113.697C24.2723 113.697 23.6167 113.877 23.094 114.236C22.5713 114.595 22.177 115.097 21.911 115.741C21.6497 116.38 21.5167 117.12 21.512 117.96C21.5073 118.8 21.6357 119.54 21.897 120.179C22.163 120.814 22.5597 121.313 23.087 121.677C23.6143 122.036 24.2723 122.218 25.061 122.223ZM31.1039 123V115.44H37.1169V123H36.0879V116.427H32.1329V123H31.1039ZM45.0876 115.44V123H44.0866V117.113L39.9426 123H39.0746V115.44H40.0756V121.278L44.2266 115.44H45.0876ZM50.1883 123.21C49.4276 123.21 48.7836 123.04 48.2563 122.699C47.7289 122.358 47.3276 121.889 47.0523 121.292C46.7816 120.69 46.6416 119.999 46.6323 119.22C46.6416 118.427 46.7863 117.731 47.0663 117.134C47.3463 116.532 47.7499 116.065 48.2773 115.734C48.8046 115.398 49.4439 115.23 50.1953 115.23C50.9606 115.23 51.6256 115.417 52.1903 115.79C52.7596 116.163 53.1493 116.674 53.3593 117.323L52.3513 117.645C52.1739 117.192 51.8916 116.842 51.5043 116.595C51.1216 116.343 50.6829 116.217 50.1883 116.217C49.6329 116.217 49.1733 116.345 48.8093 116.602C48.4453 116.854 48.1746 117.206 47.9973 117.659C47.8199 118.112 47.7289 118.632 47.7243 119.22C47.7336 120.125 47.9436 120.853 48.3543 121.404C48.7649 121.95 49.3763 122.223 50.1883 122.223C50.7016 122.223 51.1379 122.106 51.4973 121.873C51.8613 121.635 52.1366 121.29 52.3233 120.837L53.3593 121.145C53.0793 121.817 52.6686 122.33 52.1273 122.685C51.5859 123.035 50.9396 123.21 50.1883 123.21ZM56.9262 123.21C56.3569 123.21 55.8785 123.107 55.4912 122.902C55.1085 122.697 54.8215 122.424 54.6302 122.083C54.4389 121.742 54.3432 121.371 54.3432 120.97C54.3432 120.559 54.4249 120.209 54.5882 119.92C54.7562 119.626 54.9825 119.386 55.2672 119.199C55.5565 119.012 55.8902 118.87 56.2682 118.772C56.6509 118.679 57.0732 118.597 57.5352 118.527C58.0019 118.452 58.4569 118.389 58.9002 118.338C59.3482 118.282 59.7402 118.228 60.0762 118.177L59.7122 118.401C59.7262 117.654 59.5815 117.101 59.2782 116.742C58.9749 116.383 58.4475 116.203 57.6962 116.203C57.1782 116.203 56.7395 116.32 56.3802 116.553C56.0255 116.786 55.7759 117.155 55.6312 117.659L54.6302 117.365C54.8029 116.688 55.1505 116.163 55.6732 115.79C56.1959 115.417 56.8749 115.23 57.7102 115.23C58.4009 115.23 58.9865 115.361 59.4672 115.622C59.9525 115.879 60.2955 116.252 60.4962 116.742C60.5895 116.961 60.6502 117.206 60.6782 117.477C60.7062 117.748 60.7202 118.023 60.7202 118.303V123H59.8032V121.103L60.0692 121.215C59.8125 121.864 59.4135 122.358 58.8722 122.699C58.3309 123.04 57.6822 123.21 56.9262 123.21ZM57.0452 122.321C57.5259 122.321 57.9459 122.235 58.3052 122.062C58.6645 121.889 58.9539 121.654 59.1732 121.355C59.3925 121.052 59.5349 120.711 59.6002 120.333C59.6562 120.09 59.6865 119.824 59.6912 119.535C59.6959 119.241 59.6982 119.022 59.6982 118.877L60.0902 119.08C59.7402 119.127 59.3599 119.173 58.9492 119.22C58.5432 119.267 58.1419 119.32 57.7452 119.381C57.3532 119.442 56.9985 119.514 56.6812 119.598C56.4665 119.659 56.2589 119.745 56.0582 119.857C55.8575 119.964 55.6919 120.109 55.5612 120.291C55.4352 120.473 55.3722 120.699 55.3722 120.97C55.3722 121.189 55.4259 121.402 55.5332 121.607C55.6452 121.812 55.8225 121.983 56.0652 122.118C56.3125 122.253 56.6392 122.321 57.0452 122.321ZM62.5355 123V115.44H63.5645V118.723H67.8275V115.44H68.8565V123H67.8275V119.71H63.5645V123H62.5355ZM76.82 115.44V123H75.819V117.113L71.675 123H70.807V115.44H71.808V121.278L75.959 115.44H76.82ZM81.9837 123.21C81.2464 123.21 80.607 123.047 80.0657 122.72C79.529 122.393 79.1114 121.934 78.8127 121.341C78.514 120.748 78.3647 120.053 78.3647 119.255C78.3647 118.429 78.5117 117.715 78.8057 117.113C79.0997 116.511 79.5127 116.047 80.0447 115.72C80.5814 115.393 81.2137 115.23 81.9417 115.23C82.6884 115.23 83.3254 115.403 83.8527 115.748C84.38 116.089 84.779 116.579 85.0497 117.218C85.3204 117.857 85.444 118.62 85.4207 119.507H84.3707V119.143C84.352 118.163 84.1397 117.423 83.7337 116.924C83.3324 116.425 82.7444 116.175 81.9697 116.175C81.1577 116.175 80.5347 116.439 80.1007 116.966C79.6714 117.493 79.4567 118.245 79.4567 119.22C79.4567 120.172 79.6714 120.912 80.1007 121.439C80.5347 121.962 81.1484 122.223 81.9417 122.223C82.483 122.223 82.9544 122.099 83.3557 121.852C83.7617 121.6 84.0814 121.238 84.3147 120.767L85.2737 121.138C84.975 121.796 84.534 122.307 83.9507 122.671C83.372 123.03 82.7164 123.21 81.9837 123.21ZM79.0927 119.507V118.646H84.8677V119.507H79.0927Z" fill="#5E6B77"/>
<path d="M517.492 66H216.508C215.123 66 214 66.6484 214 67.4483V92.5517C214 93.3516 215.123 94 216.508 94H517.492C518.877 94 520 93.3516 520 92.5517V67.4483C520 66.6484 518.877 66 517.492 66Z" fill="#F6F7F8"/>
<path d="M517.492 104H216.508C215.123 104 214 104.648 214 105.448V130.552C214 131.352 215.123 132 216.508 132H517.492C518.877 132 520 131.352 520 130.552V105.448C520 104.648 518.877 104 517.492 104Z" fill="#F6F7F8"/>
<path d="M236.737 85V76.068L234.84 77.209V76.054L236.737 74.92H237.78V85H236.737ZM243.725 85.21C243.104 85.21 242.544 85.0653 242.045 84.776C241.55 84.4867 241.158 84.0947 240.869 83.6C240.58 83.1007 240.435 82.5407 240.435 81.92V78C240.435 77.3793 240.58 76.8217 240.869 76.327C241.158 75.8277 241.55 75.4333 242.045 75.144C242.544 74.8547 243.104 74.71 243.725 74.71C244.346 74.71 244.903 74.8547 245.398 75.144C245.897 75.4333 246.292 75.8277 246.581 76.327C246.87 76.8217 247.015 77.3793 247.015 78V81.92C247.015 82.5407 246.87 83.1007 246.581 83.6C246.292 84.0947 245.897 84.4867 245.398 84.776C244.903 85.0653 244.346 85.21 243.725 85.21ZM243.725 84.216C244.14 84.216 244.518 84.1157 244.859 83.915C245.2 83.7097 245.47 83.4367 245.671 83.096C245.872 82.7553 245.972 82.3797 245.972 81.969V77.951C245.972 77.5357 245.872 77.1577 245.671 76.817C245.47 76.4763 245.2 76.2057 244.859 76.005C244.518 75.7997 244.14 75.697 243.725 75.697C243.31 75.697 242.932 75.7997 242.591 76.005C242.25 76.2057 241.98 76.4763 241.779 76.817C241.578 77.1577 241.478 77.5357 241.478 77.951V81.969C241.478 82.3797 241.578 82.7553 241.779 83.096C241.98 83.4367 242.25 83.7097 242.591 83.915C242.932 84.1157 243.31 84.216 243.725 84.216ZM252.27 85.21C251.649 85.21 251.089 85.0653 250.59 84.776C250.095 84.4867 249.703 84.0947 249.414 83.6C249.125 83.1007 248.98 82.5407 248.98 81.92V78C248.98 77.3793 249.125 76.8217 249.414 76.327C249.703 75.8277 250.095 75.4333 250.59 75.144C251.089 74.8547 251.649 74.71 252.27 74.71C252.891 74.71 253.448 74.8547 253.943 75.144C254.442 75.4333 254.837 75.8277 255.126 76.327C255.415 76.8217 255.56 77.3793 255.56 78V81.92C255.56 82.5407 255.415 83.1007 255.126 83.6C254.837 84.0947 254.442 84.4867 253.943 84.776C253.448 85.0653 252.891 85.21 252.27 85.21ZM252.27 84.216C252.685 84.216 253.063 84.1157 253.404 83.915C253.745 83.7097 254.015 83.4367 254.216 83.096C254.417 82.7553 254.517 82.3797 254.517 81.969V77.951C254.517 77.5357 254.417 77.1577 254.216 76.817C254.015 76.4763 253.745 76.2057 253.404 76.005C253.063 75.7997 252.685 75.697 252.27 75.697C251.855 75.697 251.477 75.7997 251.136 76.005C250.795 76.2057 250.525 76.4763 250.324 76.817C250.123 77.1577 250.023 77.5357 250.023 77.951V81.969C250.023 82.3797 250.123 82.7553 250.324 83.096C250.525 83.4367 250.795 83.7097 251.136 83.915C251.477 84.1157 251.855 84.216 252.27 84.216Z" fill="#5E6B77"/>
<path d="M239.061 123.21C238.058 123.21 237.211 122.988 236.52 122.545C235.829 122.097 235.307 121.479 234.952 120.69C234.597 119.901 234.42 118.991 234.42 117.96C234.42 116.929 234.597 116.019 234.952 115.23C235.307 114.441 235.829 113.825 236.52 113.382C237.211 112.934 238.058 112.71 239.061 112.71C240.069 112.71 240.916 112.934 241.602 113.382C242.293 113.825 242.815 114.441 243.17 115.23C243.529 116.019 243.709 116.929 243.709 117.96C243.709 118.991 243.529 119.901 243.17 120.69C242.815 121.479 242.293 122.097 241.602 122.545C240.916 122.988 240.069 123.21 239.061 123.21ZM239.061 122.223C239.85 122.223 240.508 122.043 241.035 121.684C241.562 121.325 241.957 120.825 242.218 120.186C242.484 119.542 242.617 118.8 242.617 117.96C242.617 117.12 242.484 116.38 242.218 115.741C241.957 115.102 241.562 114.602 241.035 114.243C240.508 113.884 239.85 113.702 239.061 113.697C238.272 113.697 237.617 113.877 237.094 114.236C236.571 114.595 236.177 115.097 235.911 115.741C235.65 116.38 235.517 117.12 235.512 117.96C235.507 118.8 235.636 119.54 235.897 120.179C236.163 120.814 236.56 121.313 237.087 121.677C237.614 122.036 238.272 122.218 239.061 122.223ZM247.162 123V116.392H244.481V115.44H250.872V116.392H248.191V123H247.162ZM251.51 124.68V122.118C251.939 122.118 252.247 121.98 252.434 121.705C252.621 121.425 252.772 120.979 252.889 120.368C252.968 119.971 253.034 119.544 253.085 119.087C253.136 118.63 253.181 118.107 253.218 117.519C253.255 116.926 253.29 116.233 253.323 115.44H258.321V122.118H259.049V124.68H258.055V123H252.497V124.68H251.51ZM253.253 122.118H257.299V116.322H254.275C254.261 116.677 254.24 117.052 254.212 117.449C254.189 117.846 254.158 118.242 254.121 118.639C254.088 119.036 254.049 119.409 254.002 119.759C253.96 120.104 253.909 120.408 253.848 120.669C253.778 121.005 253.701 121.292 253.617 121.53C253.538 121.768 253.416 121.964 253.253 122.118ZM263.65 123.21C262.912 123.21 262.273 123.047 261.732 122.72C261.195 122.393 260.777 121.934 260.479 121.341C260.18 120.748 260.031 120.053 260.031 119.255C260.031 118.429 260.178 117.715 260.472 117.113C260.766 116.511 261.179 116.047 261.711 115.72C262.247 115.393 262.88 115.23 263.608 115.23C264.354 115.23 264.991 115.403 265.519 115.748C266.046 116.089 266.445 116.579 266.716 117.218C266.986 117.857 267.11 118.62 267.087 119.507H266.037V119.143C266.018 118.163 265.806 117.423 265.4 116.924C264.998 116.425 264.41 116.175 263.636 116.175C262.824 116.175 262.201 116.439 261.767 116.966C261.337 117.493 261.123 118.245 261.123 119.22C261.123 120.172 261.337 120.912 261.767 121.439C262.201 121.962 262.814 122.223 263.608 122.223C264.149 122.223 264.62 122.099 265.022 121.852C265.428 121.6 265.747 121.238 265.981 120.767L266.94 121.138C266.641 121.796 266.2 122.307 265.617 122.671C265.038 123.03 264.382 123.21 263.65 123.21ZM260.759 119.507V118.646H266.534V119.507H260.759ZM267.94 123V122.097C268.22 122.148 268.432 122.137 268.577 122.062C268.726 121.983 268.836 121.852 268.906 121.67C268.976 121.483 269.034 121.252 269.081 120.977C269.156 120.52 269.223 120.016 269.284 119.465C269.345 118.914 269.398 118.308 269.445 117.645C269.496 116.978 269.548 116.243 269.599 115.44H274.737V123H273.715V116.427H270.551C270.518 116.922 270.481 117.414 270.439 117.904C270.397 118.394 270.353 118.865 270.306 119.318C270.264 119.766 270.217 120.179 270.166 120.557C270.115 120.935 270.061 121.262 270.005 121.537C269.921 121.952 269.809 122.284 269.669 122.531C269.534 122.778 269.331 122.942 269.06 123.021C268.789 123.1 268.416 123.093 267.94 123ZM279.356 119.031V118.149H285.236V119.031H279.356ZM289.859 123V112.92H290.888V117.68L295.487 112.92H296.803L292.106 117.785L297.188 123H295.844L290.888 117.96V123H289.859ZM300.334 123.21C299.765 123.21 299.287 123.107 298.899 122.902C298.517 122.697 298.23 122.424 298.038 122.083C297.847 121.742 297.751 121.371 297.751 120.97C297.751 120.559 297.833 120.209 297.996 119.92C298.164 119.626 298.391 119.386 298.675 119.199C298.965 119.012 299.298 118.87 299.676 118.772C300.059 118.679 300.481 118.597 300.943 118.527C301.41 118.452 301.865 118.389 302.308 118.338C302.756 118.282 303.148 118.228 303.484 118.177L303.12 118.401C303.134 117.654 302.99 117.101 302.686 116.742C302.383 116.383 301.856 116.203 301.104 116.203C300.586 116.203 300.148 116.32 299.788 116.553C299.434 116.786 299.184 117.155 299.039 117.659L298.038 117.365C298.211 116.688 298.559 116.163 299.081 115.79C299.604 115.417 300.283 115.23 301.118 115.23C301.809 115.23 302.395 115.361 302.875 115.622C303.361 115.879 303.704 116.252 303.904 116.742C303.998 116.961 304.058 117.206 304.086 117.477C304.114 117.748 304.128 118.023 304.128 118.303V123H303.211V121.103L303.477 121.215C303.221 121.864 302.822 122.358 302.28 122.699C301.739 123.04 301.09 123.21 300.334 123.21ZM300.453 122.321C300.934 122.321 301.354 122.235 301.713 122.062C302.073 121.889 302.362 121.654 302.581 121.355C302.801 121.052 302.943 120.711 303.008 120.333C303.064 120.09 303.095 119.824 303.099 119.535C303.104 119.241 303.106 119.022 303.106 118.877L303.498 119.08C303.148 119.127 302.768 119.173 302.357 119.22C301.951 119.267 301.55 119.32 301.153 119.381C300.761 119.442 300.407 119.514 300.089 119.598C299.875 119.659 299.667 119.745 299.466 119.857C299.266 119.964 299.1 120.109 298.969 120.291C298.843 120.473 298.78 120.699 298.78 120.97C298.78 121.189 298.834 121.402 298.941 121.607C299.053 121.812 299.231 121.983 299.473 122.118C299.721 122.253 300.047 122.321 300.453 122.321ZM305.251 123V122.783L310.13 116.399H305.615V115.44H311.824V115.678L306.952 122.041H311.558V123H305.251ZM315.1 123.21C314.531 123.21 314.052 123.107 313.665 122.902C313.282 122.697 312.995 122.424 312.804 122.083C312.613 121.742 312.517 121.371 312.517 120.97C312.517 120.559 312.599 120.209 312.762 119.92C312.93 119.626 313.156 119.386 313.441 119.199C313.73 119.012 314.064 118.87 314.442 118.772C314.825 118.679 315.247 118.597 315.709 118.527C316.176 118.452 316.631 118.389 317.074 118.338C317.522 118.282 317.914 118.228 318.25 118.177L317.886 118.401C317.9 117.654 317.755 117.101 317.452 116.742C317.149 116.383 316.621 116.203 315.87 116.203C315.352 116.203 314.913 116.32 314.554 116.553C314.199 116.786 313.95 117.155 313.805 117.659L312.804 117.365C312.977 116.688 313.324 116.163 313.847 115.79C314.37 115.417 315.049 115.23 315.884 115.23C316.575 115.23 317.16 115.361 317.641 115.622C318.126 115.879 318.469 116.252 318.67 116.742C318.763 116.961 318.824 117.206 318.852 117.477C318.88 117.748 318.894 118.023 318.894 118.303V123H317.977V121.103L318.243 121.215C317.986 121.864 317.587 122.358 317.046 122.699C316.505 123.04 315.856 123.21 315.1 123.21ZM315.219 122.321C315.7 122.321 316.12 122.235 316.479 122.062C316.838 121.889 317.128 121.654 317.347 121.355C317.566 121.052 317.709 120.711 317.774 120.333C317.83 120.09 317.86 119.824 317.865 119.535C317.87 119.241 317.872 119.022 317.872 118.877L318.264 119.08C317.914 119.127 317.534 119.173 317.123 119.22C316.717 119.267 316.316 119.32 315.919 119.381C315.527 119.442 315.172 119.514 314.855 119.598C314.64 119.659 314.433 119.745 314.232 119.857C314.031 119.964 313.866 120.109 313.735 120.291C313.609 120.473 313.546 120.699 313.546 120.97C313.546 121.189 313.6 121.402 313.707 121.607C313.819 121.812 313.996 121.983 314.239 122.118C314.486 122.253 314.813 122.321 315.219 122.321ZM326.176 123V119.143C326.176 118.723 326.137 118.338 326.057 117.988C325.978 117.633 325.85 117.325 325.672 117.064C325.5 116.798 325.273 116.593 324.993 116.448C324.718 116.303 324.382 116.231 323.985 116.231C323.621 116.231 323.299 116.294 323.019 116.42C322.744 116.546 322.511 116.728 322.319 116.966C322.133 117.199 321.99 117.484 321.892 117.82C321.794 118.156 321.745 118.539 321.745 118.968L321.017 118.807C321.017 118.032 321.153 117.381 321.423 116.854C321.694 116.327 322.067 115.928 322.543 115.657C323.019 115.386 323.565 115.251 324.181 115.251C324.634 115.251 325.028 115.321 325.364 115.461C325.705 115.601 325.992 115.79 326.225 116.028C326.463 116.266 326.655 116.539 326.799 116.847C326.944 117.15 327.049 117.475 327.114 117.82C327.18 118.161 327.212 118.501 327.212 118.842V123H326.176ZM320.709 123V115.44H321.64V117.302H321.745V123H320.709ZM331.972 123V112.92H333.001V123H331.972ZM337.661 123L334.189 112.92H335.26L338.333 121.831L341.427 112.92H342.498L339.026 123H337.661ZM343.548 123V112.92H347.44C347.538 112.92 347.648 112.925 347.769 112.934C347.895 112.939 348.021 112.953 348.147 112.976C348.675 113.055 349.12 113.24 349.484 113.529C349.853 113.814 350.131 114.173 350.317 114.607C350.509 115.041 350.604 115.522 350.604 116.049C350.604 116.81 350.404 117.47 350.002 118.03C349.601 118.59 349.027 118.942 348.28 119.087L347.923 119.171H344.577V123H343.548ZM349.652 123L347.664 118.898L348.651 118.52L350.835 123H349.652ZM344.577 118.191H347.412C347.496 118.191 347.594 118.186 347.706 118.177C347.818 118.168 347.928 118.151 348.035 118.128C348.381 118.053 348.663 117.911 348.882 117.701C349.106 117.491 349.272 117.241 349.379 116.952C349.491 116.663 349.547 116.362 349.547 116.049C349.547 115.736 349.491 115.435 349.379 115.146C349.272 114.852 349.106 114.6 348.882 114.39C348.663 114.18 348.381 114.038 348.035 113.963C347.928 113.94 347.818 113.926 347.706 113.921C347.594 113.912 347.496 113.907 347.412 113.907H344.577V118.191ZM358.802 125.513C358.251 124.883 357.778 124.178 357.381 123.399C356.989 122.624 356.686 121.81 356.471 120.956C356.261 120.102 356.158 119.243 356.163 118.38C356.158 117.517 356.261 116.658 356.471 115.804C356.686 114.945 356.989 114.129 357.381 113.354C357.778 112.579 358.251 111.877 358.802 111.247L359.558 111.835C359.017 112.484 358.564 113.165 358.2 113.879C357.836 114.588 357.563 115.321 357.381 116.077C357.204 116.833 357.113 117.601 357.108 118.38C357.113 119.15 357.206 119.918 357.388 120.683C357.575 121.444 357.848 122.183 358.207 122.902C358.571 123.616 359.021 124.286 359.558 124.911L358.802 125.513ZM364.539 123.21C363.844 123.21 363.256 123.035 362.775 122.685C362.294 122.33 361.93 121.852 361.683 121.25C361.436 120.643 361.312 119.964 361.312 119.213C361.312 118.448 361.436 117.766 361.683 117.169C361.935 116.567 362.304 116.093 362.789 115.748C363.274 115.403 363.872 115.23 364.581 115.23C365.272 115.23 365.864 115.405 366.359 115.755C366.854 116.105 367.232 116.581 367.493 117.183C367.759 117.785 367.892 118.462 367.892 119.213C367.892 119.969 367.759 120.648 367.493 121.25C367.227 121.852 366.844 122.33 366.345 122.685C365.846 123.035 365.244 123.21 364.539 123.21ZM361.137 123V112.92H362.173V117.309H362.061V123H361.137ZM364.434 122.251C364.961 122.251 365.4 122.118 365.75 121.852C366.1 121.586 366.361 121.224 366.534 120.767C366.711 120.305 366.8 119.787 366.8 119.213C366.8 118.644 366.714 118.13 366.541 117.673C366.368 117.216 366.105 116.854 365.75 116.588C365.4 116.322 364.954 116.189 364.413 116.189C363.886 116.189 363.447 116.317 363.097 116.574C362.752 116.831 362.493 117.188 362.32 117.645C362.147 118.098 362.061 118.62 362.061 119.213C362.061 119.796 362.147 120.319 362.32 120.781C362.493 121.238 362.754 121.598 363.104 121.859C363.454 122.12 363.897 122.251 364.434 122.251ZM372.32 123.189C371.868 123.189 371.471 123.119 371.13 122.979C370.794 122.839 370.507 122.65 370.269 122.412C370.036 122.174 369.847 121.903 369.702 121.6C369.558 121.292 369.453 120.968 369.387 120.627C369.322 120.282 369.289 119.939 369.289 119.598V115.44H370.325V119.297C370.325 119.712 370.365 120.097 370.444 120.452C370.524 120.807 370.65 121.117 370.822 121.383C371 121.644 371.226 121.847 371.501 121.992C371.781 122.137 372.12 122.209 372.516 122.209C372.88 122.209 373.2 122.146 373.475 122.02C373.755 121.894 373.989 121.714 374.175 121.481C374.367 121.243 374.511 120.956 374.609 120.62C374.707 120.279 374.756 119.897 374.756 119.472L375.484 119.633C375.484 120.408 375.349 121.059 375.078 121.586C374.808 122.113 374.434 122.512 373.958 122.783C373.482 123.054 372.936 123.189 372.32 123.189ZM374.861 123V121.138H374.756V115.44H375.785V123H374.861ZM381.858 123C381.433 123.089 381.013 123.124 380.598 123.105C380.187 123.086 379.818 122.998 379.492 122.839C379.17 122.68 378.925 122.433 378.757 122.097C378.621 121.817 378.547 121.535 378.533 121.25C378.523 120.961 378.519 120.632 378.519 120.263V113.34H379.541V120.221C379.541 120.538 379.543 120.804 379.548 121.019C379.557 121.229 379.606 121.416 379.695 121.579C379.863 121.892 380.129 122.078 380.493 122.139C380.861 122.2 381.316 122.186 381.858 122.097V123ZM376.902 116.322V115.44H381.858V116.322H376.902ZM386.625 123C386.2 123.089 385.78 123.124 385.365 123.105C384.954 123.086 384.585 122.998 384.259 122.839C383.937 122.68 383.692 122.433 383.524 122.097C383.388 121.817 383.314 121.535 383.3 121.25C383.29 120.961 383.286 120.632 383.286 120.263V113.34H384.308V120.221C384.308 120.538 384.31 120.804 384.315 121.019C384.324 121.229 384.373 121.416 384.462 121.579C384.63 121.892 384.896 122.078 385.26 122.139C385.628 122.2 386.083 122.186 386.625 122.097V123ZM381.669 116.322V115.44H386.625V116.322H381.669ZM391.276 123.21C390.524 123.21 389.883 123.04 389.351 122.699C388.819 122.358 388.41 121.887 388.126 121.285C387.841 120.683 387.699 119.992 387.699 119.213C387.699 118.42 387.843 117.724 388.133 117.127C388.422 116.53 388.833 116.065 389.365 115.734C389.901 115.398 390.538 115.23 391.276 115.23C392.032 115.23 392.676 115.4 393.208 115.741C393.744 116.077 394.153 116.546 394.433 117.148C394.717 117.745 394.86 118.434 394.86 119.213C394.86 120.006 394.717 120.704 394.433 121.306C394.148 121.903 393.737 122.37 393.201 122.706C392.664 123.042 392.022 123.21 391.276 123.21ZM391.276 122.223C392.116 122.223 392.741 121.945 393.152 121.39C393.562 120.83 393.768 120.104 393.768 119.213C393.768 118.298 393.56 117.57 393.145 117.029C392.734 116.488 392.111 116.217 391.276 116.217C390.711 116.217 390.244 116.345 389.876 116.602C389.512 116.854 389.239 117.206 389.057 117.659C388.879 118.107 388.791 118.625 388.791 119.213C388.791 120.123 389.001 120.853 389.421 121.404C389.841 121.95 390.459 122.223 391.276 122.223ZM401.864 123V119.143C401.864 118.723 401.824 118.338 401.745 117.988C401.665 117.633 401.537 117.325 401.36 117.064C401.187 116.798 400.961 116.593 400.681 116.448C400.405 116.303 400.069 116.231 399.673 116.231C399.309 116.231 398.987 116.294 398.707 116.42C398.431 116.546 398.198 116.728 398.007 116.966C397.82 117.199 397.678 117.484 397.58 117.82C397.482 118.156 397.433 118.539 397.433 118.968L396.705 118.807C396.705 118.032 396.84 117.381 397.111 116.854C397.381 116.327 397.755 115.928 398.231 115.657C398.707 115.386 399.253 115.251 399.869 115.251C400.321 115.251 400.716 115.321 401.052 115.461C401.392 115.601 401.679 115.79 401.913 116.028C402.151 116.266 402.342 116.539 402.487 116.847C402.631 117.15 402.736 117.475 402.802 117.82C402.867 118.161 402.9 118.501 402.9 118.842V123H401.864ZM396.397 123V115.44H397.328V117.302H397.433V123H396.397ZM410.809 123.21C410.188 123.21 409.628 123.065 409.129 122.776C408.634 122.487 408.242 122.095 407.953 121.6C407.664 121.101 407.519 120.541 407.519 119.92V116C407.519 115.379 407.664 114.822 407.953 114.327C408.242 113.828 408.634 113.433 409.129 113.144C409.628 112.855 410.188 112.71 410.809 112.71C411.43 112.71 411.987 112.855 412.482 113.144C412.981 113.433 413.376 113.828 413.665 114.327C413.954 114.822 414.099 115.379 414.099 116V119.92C414.099 120.541 413.954 121.101 413.665 121.6C413.376 122.095 412.981 122.487 412.482 122.776C411.987 123.065 411.43 123.21 410.809 123.21ZM410.809 122.216C411.224 122.216 411.602 122.116 411.943 121.915C412.284 121.71 412.554 121.437 412.755 121.096C412.956 120.755 413.056 120.38 413.056 119.969V115.951C413.056 115.536 412.956 115.158 412.755 114.817C412.554 114.476 412.284 114.206 411.943 114.005C411.602 113.8 411.224 113.697 410.809 113.697C410.394 113.697 410.016 113.8 409.675 114.005C409.334 114.206 409.064 114.476 408.863 114.817C408.662 115.158 408.562 115.536 408.562 115.951V119.969C408.562 120.38 408.662 120.755 408.863 121.096C409.064 121.437 409.334 121.71 409.675 121.915C410.016 122.116 410.394 122.216 410.809 122.216ZM416.449 125.093L415.693 124.491C416.23 123.866 416.678 123.196 417.037 122.482C417.401 121.763 417.674 121.024 417.856 120.263C418.043 119.498 418.138 118.73 418.143 117.96C418.138 117.181 418.045 116.413 417.863 115.657C417.686 114.901 417.415 114.168 417.051 113.459C416.687 112.745 416.234 112.064 415.693 111.415L416.449 110.827C417 111.457 417.471 112.159 417.863 112.934C418.26 113.709 418.563 114.525 418.773 115.384C418.988 116.238 419.093 117.097 419.088 117.96C419.093 118.823 418.988 119.682 418.773 120.536C418.563 121.39 418.26 122.207 417.863 122.986C417.471 123.761 417 124.463 416.449 125.093Z" fill="#5E6B77"/>
<path d="M21.12 32V20.48H22.296V25.672H28.664V20.48H29.832V32H28.664V26.8H22.296V32H21.12ZM34.5451 32.24C33.8945 32.24 33.3478 32.1227 32.9051 31.888C32.4678 31.6533 32.1398 31.3413 31.9211 30.952C31.7025 30.5627 31.5931 30.1387 31.5931 29.68C31.5931 29.2107 31.6865 28.8107 31.8731 28.48C32.0651 28.144 32.3238 27.8693 32.6491 27.656C32.9798 27.4427 33.3611 27.28 33.7931 27.168C34.2305 27.0613 34.7131 26.968 35.2411 26.888C35.7745 26.8027 36.2945 26.7307 36.8011 26.672C37.3131 26.608 37.7611 26.5467 38.1451 26.488L37.7291 26.744C37.7451 25.8907 37.5798 25.2587 37.2331 24.848C36.8865 24.4373 36.2838 24.232 35.4251 24.232C34.8331 24.232 34.3318 24.3653 33.9211 24.632C33.5158 24.8987 33.2305 25.32 33.0651 25.896L31.9211 25.56C32.1185 24.7867 32.5158 24.1867 33.1131 23.76C33.7105 23.3333 34.4865 23.12 35.4411 23.12C36.2305 23.12 36.8998 23.2693 37.4491 23.568C38.0038 23.8613 38.3958 24.288 38.6251 24.848C38.7318 25.0987 38.8011 25.3787 38.8331 25.688C38.8651 25.9973 38.8811 26.312 38.8811 26.632V32H37.8331V29.832L38.1371 29.96C37.8438 30.7013 37.3878 31.2667 36.7691 31.656C36.1505 32.0453 35.4091 32.24 34.5451 32.24ZM34.6811 31.224C35.2305 31.224 35.7105 31.1253 36.1211 30.928C36.5318 30.7307 36.8625 30.4613 37.1131 30.12C37.3638 29.7733 37.5265 29.384 37.6011 28.952C37.6651 28.6747 37.6998 28.3707 37.7051 28.04C37.7105 27.704 37.7131 27.4533 37.7131 27.288L38.1611 27.52C37.7611 27.5733 37.3265 27.6267 36.8571 27.68C36.3931 27.7333 35.9345 27.7947 35.4811 27.864C35.0331 27.9333 34.6278 28.016 34.2651 28.112C34.0198 28.1813 33.7825 28.28 33.5531 28.408C33.3238 28.5307 33.1345 28.696 32.9851 28.904C32.8411 29.112 32.7691 29.3707 32.7691 29.68C32.7691 29.9307 32.8305 30.1733 32.9531 30.408C33.0811 30.6427 33.2838 30.8373 33.5611 30.992C33.8438 31.1467 34.2171 31.224 34.6811 31.224ZM44.5477 32.24C43.6784 32.24 42.9424 32.0453 42.3398 31.656C41.7371 31.2667 41.2784 30.7307 40.9638 30.048C40.6544 29.36 40.4944 28.5707 40.4838 27.68C40.4944 26.7733 40.6598 25.9787 40.9798 25.296C41.2998 24.608 41.7611 24.0747 42.3638 23.696C42.9664 23.312 43.6971 23.12 44.5558 23.12C45.4304 23.12 46.1904 23.3333 46.8358 23.76C47.4864 24.1867 47.9318 24.7707 48.1718 25.512L47.0198 25.88C46.8171 25.3627 46.4944 24.9627 46.0518 24.68C45.6144 24.392 45.1131 24.248 44.5477 24.248C43.9131 24.248 43.3878 24.3947 42.9718 24.688C42.5558 24.976 42.2464 25.3787 42.0438 25.896C41.8411 26.4133 41.7371 27.008 41.7318 27.68C41.7424 28.7147 41.9824 29.5467 42.4518 30.176C42.9211 30.8 43.6198 31.112 44.5477 31.112C45.1344 31.112 45.6331 30.9787 46.0438 30.712C46.4598 30.44 46.7744 30.0453 46.9878 29.528L48.1718 29.88C47.8518 30.648 47.3824 31.2347 46.7638 31.64C46.1451 32.04 45.4064 32.24 44.5477 32.24ZM51.964 32V24.448H48.9V23.36H56.204V24.448H53.14V32H51.964ZM61.6094 32.24C60.8147 32.24 60.1427 32.04 59.5934 31.64C59.044 31.2347 58.628 30.688 58.3454 30C58.0627 29.3067 57.9214 28.5307 57.9214 27.672C57.9214 26.7973 58.0627 26.0187 58.3454 25.336C58.6334 24.648 59.0547 24.1067 59.6094 23.712C60.164 23.3173 60.8467 23.12 61.6574 23.12C62.4467 23.12 63.124 23.32 63.6894 23.72C64.2547 24.12 64.6867 24.664 64.9854 25.352C65.2894 26.04 65.4414 26.8133 65.4414 27.672C65.4414 28.536 65.2894 29.312 64.9854 30C64.6814 30.688 64.244 31.2347 63.6734 31.64C63.1027 32.04 62.4147 32.24 61.6094 32.24ZM57.7214 35.84V23.36H58.7774V29.864H58.9054V35.84H57.7214ZM61.4894 31.144C62.092 31.144 62.5934 30.992 62.9934 30.688C63.3934 30.384 63.692 29.9707 63.8894 29.448C64.092 28.92 64.1934 28.328 64.1934 27.672C64.1934 27.0213 64.0947 26.4347 63.8974 25.912C63.7 25.3893 63.3987 24.976 62.9934 24.672C62.5934 24.368 62.084 24.216 61.4654 24.216C60.8627 24.216 60.3614 24.3627 59.9614 24.656C59.5667 24.9493 59.2707 25.3573 59.0734 25.88C58.876 26.3973 58.7774 26.9947 58.7774 27.672C58.7774 28.3387 58.876 28.936 59.0734 29.464C59.2707 29.9867 59.5694 30.3973 59.9694 30.696C60.3694 30.9947 60.876 31.144 61.4894 31.144ZM70.8061 32.24C69.9475 32.24 69.2141 32.0453 68.6061 31.656C67.9981 31.2667 67.5315 30.728 67.2061 30.04C66.8808 29.352 66.7181 28.5627 66.7181 27.672C66.7181 26.7653 66.8835 25.9707 67.2141 25.288C67.5448 24.6053 68.0141 24.0747 68.6221 23.696C69.2355 23.312 69.9635 23.12 70.8061 23.12C71.6701 23.12 72.4061 23.3147 73.0141 23.704C73.6275 24.088 74.0941 24.624 74.4141 25.312C74.7395 25.9947 74.9021 26.7813 74.9021 27.672C74.9021 28.5787 74.7395 29.376 74.4141 30.064C74.0888 30.7467 73.6195 31.28 73.0061 31.664C72.3928 32.048 71.6595 32.24 70.8061 32.24ZM70.8061 31.112C71.7661 31.112 72.4808 30.7947 72.9501 30.16C73.4195 29.52 73.6541 28.6907 73.6541 27.672C73.6541 26.6267 73.4168 25.7947 72.9421 25.176C72.4728 24.5573 71.7608 24.248 70.8061 24.248C70.1608 24.248 69.6275 24.3947 69.2061 24.688C68.7901 24.976 68.4781 25.3787 68.2701 25.896C68.0675 26.408 67.9661 27 67.9661 27.672C67.9661 28.712 68.2061 29.5467 68.6861 30.176C69.1661 30.8 69.8728 31.112 70.8061 31.112ZM80.2509 22.336C79.8722 22.336 79.5255 22.2427 79.2109 22.056C78.8962 21.8693 78.6455 21.6213 78.4589 21.312C78.2775 20.9973 78.1869 20.6507 78.1869 20.272H79.1629C79.1629 20.5707 79.2695 20.8267 79.4829 21.04C79.6962 21.2533 79.9522 21.36 80.2509 21.36C80.5549 21.36 80.8109 21.2533 81.0189 21.04C81.2322 20.8267 81.3389 20.5707 81.3389 20.272H82.3149C82.3149 20.6507 82.2215 20.9973 82.0349 21.312C81.8535 21.6213 81.6055 21.8693 81.2909 22.056C80.9762 22.2427 80.6295 22.336 80.2509 22.336ZM83.5309 23.36V32H82.3869V25.272L77.6509 32H76.6589V23.36H77.8029V30.032L82.5469 23.36H83.5309ZM85.7683 32L85.7763 23.36H86.9603V27.52L90.8163 23.36H92.3843L88.3363 27.68L92.9123 32H91.2003L86.9603 27.84V32H85.7683ZM100.578 23.36V32H99.4338V25.272L94.6978 32H93.7058V23.36H94.8498V30.032L99.5938 23.36H100.578ZM109.634 32.24C108.776 32.24 108.042 32.0453 107.434 31.656C106.826 31.2667 106.36 30.728 106.034 30.04C105.709 29.352 105.546 28.5627 105.546 27.672C105.546 26.7653 105.712 25.9707 106.042 25.288C106.373 24.6053 106.842 24.0747 107.45 23.696C108.064 23.312 108.792 23.12 109.634 23.12C110.498 23.12 111.234 23.3147 111.842 23.704C112.456 24.088 112.922 24.624 113.242 25.312C113.568 25.9947 113.73 26.7813 113.73 27.672C113.73 28.5787 113.568 29.376 113.242 30.064C112.917 30.7467 112.448 31.28 111.834 31.664C111.221 32.048 110.488 32.24 109.634 32.24ZM109.634 31.112C110.594 31.112 111.309 30.7947 111.778 30.16C112.248 29.52 112.482 28.6907 112.482 27.672C112.482 26.6267 112.245 25.7947 111.77 25.176C111.301 24.5573 110.589 24.248 109.634 24.248C108.989 24.248 108.456 24.3947 108.034 24.688C107.618 24.976 107.306 25.3787 107.098 25.896C106.896 26.408 106.794 27 106.794 27.672C106.794 28.712 107.034 29.5467 107.514 30.176C107.994 30.8 108.701 31.112 109.634 31.112ZM117.636 32V24.448H114.572V23.36H121.876V24.448H118.812V32H117.636ZM122.605 33.92V30.992C123.096 30.992 123.448 30.8347 123.661 30.52C123.874 30.2 124.048 29.6907 124.181 28.992C124.272 28.5387 124.346 28.0507 124.405 27.528C124.464 27.0053 124.514 26.408 124.557 25.736C124.6 25.0587 124.64 24.2667 124.677 23.36H130.389V30.992H131.221V33.92H130.085V32H123.733V33.92H122.605ZM124.597 30.992H129.221V24.368H125.765C125.749 24.7733 125.725 25.2027 125.693 25.656C125.666 26.1093 125.632 26.5627 125.589 27.016C125.552 27.4693 125.506 27.896 125.453 28.296C125.405 28.6907 125.346 29.0373 125.277 29.336C125.197 29.72 125.109 30.048 125.013 30.32C124.922 30.592 124.784 30.816 124.597 30.992ZM136.479 32.24C135.636 32.24 134.906 32.0533 134.287 31.68C133.674 31.3067 133.196 30.7813 132.855 30.104C132.514 29.4267 132.343 28.632 132.343 27.72C132.343 26.776 132.511 25.96 132.847 25.272C133.183 24.584 133.655 24.0533 134.263 23.68C134.876 23.3067 135.599 23.12 136.431 23.12C137.284 23.12 138.012 23.3173 138.615 23.712C139.218 24.1013 139.674 24.6613 139.983 25.392C140.292 26.1227 140.434 26.9947 140.407 28.008H139.207V27.592C139.186 26.472 138.943 25.6267 138.479 25.056C138.02 24.4853 137.348 24.2 136.463 24.2C135.535 24.2 134.823 24.5013 134.327 25.104C133.836 25.7067 133.591 26.5653 133.591 27.68C133.591 28.768 133.836 29.6133 134.327 30.216C134.823 30.8133 135.524 31.112 136.431 31.112C137.05 31.112 137.588 30.9707 138.047 30.688C138.511 30.4 138.876 29.9867 139.143 29.448L140.239 29.872C139.898 30.624 139.394 31.208 138.727 31.624C138.066 32.0347 137.316 32.24 136.479 32.24ZM133.175 28.008V27.024H139.775V28.008H133.175ZM141.383 32V30.968C141.703 31.0267 141.945 31.0133 142.111 30.928C142.281 30.8373 142.407 30.688 142.487 30.48C142.567 30.2667 142.633 30.0027 142.687 29.688C142.772 29.1653 142.849 28.5893 142.919 27.96C142.988 27.3307 143.049 26.6373 143.103 25.88C143.161 25.1173 143.22 24.2773 143.279 23.36H149.151V32H147.983V24.488H144.367C144.329 25.0533 144.287 25.616 144.239 26.176C144.191 26.736 144.14 27.2747 144.087 27.792C144.039 28.304 143.985 28.776 143.927 29.208C143.868 29.64 143.807 30.0133 143.743 30.328C143.647 30.8027 143.519 31.1813 143.359 31.464C143.204 31.7467 142.972 31.9333 142.663 32.024C142.353 32.1147 141.927 32.1067 141.383 32ZM153.858 32.24C153.207 32.24 152.66 32.1227 152.218 31.888C151.78 31.6533 151.452 31.3413 151.234 30.952C151.015 30.5627 150.906 30.1387 150.906 29.68C150.906 29.2107 150.999 28.8107 151.186 28.48C151.378 28.144 151.636 27.8693 151.962 27.656C152.292 27.4427 152.674 27.28 153.106 27.168C153.543 27.0613 154.026 26.968 154.554 26.888C155.087 26.8027 155.607 26.7307 156.114 26.672C156.626 26.608 157.074 26.5467 157.458 26.488L157.042 26.744C157.058 25.8907 156.892 25.2587 156.546 24.848C156.199 24.4373 155.596 24.232 154.738 24.232C154.146 24.232 153.644 24.3653 153.234 24.632C152.828 24.8987 152.543 25.32 152.378 25.896L151.234 25.56C151.431 24.7867 151.828 24.1867 152.426 23.76C153.023 23.3333 153.799 23.12 154.754 23.12C155.543 23.12 156.212 23.2693 156.762 23.568C157.316 23.8613 157.708 24.288 157.938 24.848C158.044 25.0987 158.114 25.3787 158.146 25.688C158.178 25.9973 158.194 26.312 158.194 26.632V32H157.146V29.832L157.45 29.96C157.156 30.7013 156.7 31.2667 156.082 31.656C155.463 32.0453 154.722 32.24 153.858 32.24ZM153.994 31.224C154.543 31.224 155.023 31.1253 155.434 30.928C155.844 30.7307 156.175 30.4613 156.426 30.12C156.676 29.7733 156.839 29.384 156.914 28.952C156.978 28.6747 157.012 28.3707 157.018 28.04C157.023 27.704 157.026 27.4533 157.026 27.288L157.474 27.52C157.074 27.5733 156.639 27.6267 156.17 27.68C155.706 27.7333 155.247 27.7947 154.794 27.864C154.346 27.9333 153.94 28.016 153.578 28.112C153.332 28.1813 153.095 28.28 152.866 28.408C152.636 28.5307 152.447 28.696 152.298 28.904C152.154 29.112 152.082 29.3707 152.082 29.68C152.082 29.9307 152.143 30.1733 152.266 30.408C152.394 30.6427 152.596 30.8373 152.874 30.992C153.156 31.1467 153.53 31.224 153.994 31.224Z" fill="#5E6B77"/>
<line y1="50.5" x2="540" y2="50.5" stroke="#9CA5AC"/>
</svg>
