<svg width="548" height="300" viewBox="0 0 548 300" fill="none" xmlns="http://www.w3.org/2000/svg">
<path d="M38.3888 242.372L22.918 293.289H64.8197L80.7605 242.654L38.3888 242.372Z" fill="#55626F" stroke="#55626F" stroke-linecap="round" stroke-linejoin="round"/>
<path d="M136.266 294.474H49.1275L38.7656 242.853H125.893L136.266 294.474Z" fill="#EFEFEF" stroke="#55626F" stroke-linecap="round" stroke-linejoin="round"/>
<path d="M127.091 284.607H54.2592L48.8203 258.011H121.652L127.091 284.607Z" stroke="#55626F" stroke-linecap="round" stroke-linejoin="round"/>
<path d="M55.082 258.117L60.4739 284.502" stroke="#55626F" stroke-linecap="round" stroke-linejoin="round"/>
<path d="M61.7656 258.117L67.1575 284.502" stroke="#55626F" stroke-linecap="round" stroke-linejoin="round"/>
<path d="M68.4492 258.117L73.8411 284.502" stroke="#55626F" stroke-linecap="round" stroke-linejoin="round"/>
<path d="M75.1211 258.117L80.513 284.502" stroke="#55626F" stroke-linecap="round" stroke-linejoin="round"/>
<path d="M81.8047 258.117L87.1966 284.502" stroke="#55626F" stroke-linecap="round" stroke-linejoin="round"/>
<path d="M88.4883 258.117L93.8802 284.502" stroke="#55626F" stroke-linecap="round" stroke-linejoin="round"/>
<path d="M95.1641 258.117L100.556 284.502" stroke="#55626F" stroke-linecap="round" stroke-linejoin="round"/>
<path d="M101.848 258.117L107.24 284.502" stroke="#55626F" stroke-linecap="round" stroke-linejoin="round"/>
<path d="M108.531 258.117L113.923 284.502" stroke="#55626F" stroke-linecap="round" stroke-linejoin="round"/>
<path d="M115.203 258.117L120.595 284.502" stroke="#55626F" stroke-linecap="round" stroke-linejoin="round"/>
<path d="M50.0664 263.267H122.487" stroke="#55626F" stroke-linecap="round" stroke-linejoin="round"/>
<path d="M51.1562 268.582H123.565" stroke="#55626F" stroke-linecap="round" stroke-linejoin="round"/>
<path d="M52.2383 273.884H124.647" stroke="#55626F" stroke-linecap="round" stroke-linejoin="round"/>
<path d="M53.3203 279.187H125.741" stroke="#55626F" stroke-linecap="round" stroke-linejoin="round"/>
<path d="M80.5479 253.412H48.22L47.6914 250.843H80.0193L80.5479 253.412Z" fill="#55626F"/>
<path d="M521.568 163.075H416.048C411.082 163.192 406.322 165.065 402.627 168.356C398.933 171.647 396.546 176.139 395.899 181.021L382.953 294.474H506.528L521.568 163.075Z" fill="#EFEFEF" stroke="#55626F" stroke-linecap="round" stroke-linejoin="round"/>
<path d="M522.213 163.079C518.093 163.175 514.143 164.731 511.077 167.466C508.012 170.201 506.033 173.934 505.498 177.991L492.203 294.474H522.225L535.531 177.991C535.805 176.113 535.664 174.199 535.116 172.381C534.568 170.563 533.627 168.886 532.359 167.466C531.091 166.047 529.526 164.919 527.774 164.161C526.022 163.403 524.124 163.034 522.213 163.079Z" fill="#55626F" stroke="#55626F" stroke-linecap="round" stroke-linejoin="round"/>
<path d="M381.967 128.555C374.561 133.893 366.557 138.33 358.12 141.773C343.158 148.061 337.141 149.959 337.141 149.959L341.289 294.474H449.912C449.912 294.474 435.985 203.862 435.985 173.452C435.985 143.042 437.231 137.11 437.231 137.11L401.501 127.879L381.967 128.555Z" fill="white" stroke="#55626F" stroke-linecap="round" stroke-linejoin="round"/>
<path d="M370.783 134.918C367.384 159.296 365.367 183.846 364.743 208.451C364.118 245.323 371.208 294.474 371.208 294.474H291.328C301.261 275.704 308.365 255.572 312.41 234.729C318.309 204.88 323.028 154.28 324.278 153.655C325.529 153.031 367.869 137.37 370.783 134.918Z" fill="#57A8F3" stroke="#55626F" stroke-linecap="round" stroke-linejoin="round"/>
<path d="M334.452 293.841C334.452 293.841 326.346 239.087 326.757 226.229C327.168 213.371 329.212 169.821 329.212 169.821" stroke="#55626F" stroke-linecap="round" stroke-linejoin="round"/>
<path d="M415.055 131.398C415.055 131.398 404.917 178.134 404.086 216.573C403.255 255.012 400.574 294.474 400.574 294.474H464.667C464.667 294.474 465.498 259.36 464.667 247.315C463.836 235.27 463.836 237.761 463.836 237.761L488.677 244.201C488.677 244.201 472.733 167.123 469.841 158.615C466.95 150.107 468.39 147.392 466.528 145.935C464.667 144.478 415.055 131.398 415.055 131.398Z" fill="#57A8F3" stroke="#55626F" stroke-linecap="round" stroke-linejoin="round"/>
<path d="M299.06 262.117C300.737 264.684 302.708 267.047 304.934 269.156C307.788 271.597 313.908 270.33 317.162 273.662C320.416 276.993 316.857 287.165 312.745 290.72C305.697 296.785 309.433 278.378 309.433 278.378C306.947 280.079 304.202 281.367 301.304 282.191C297.31 283.106 287.031 279.985 283.589 279.844C280.147 279.703 275.366 279.047 273.534 275.222C271.701 271.397 283.072 266.787 288.124 264.956C291.691 263.733 295.347 262.784 299.06 262.117Z" fill="#EFEFEF" stroke="#55626F" stroke-linecap="round" stroke-linejoin="round"/>
<path d="M277.303 267.514C276.216 267.225 275.069 267.259 274.002 267.614C272.936 267.968 271.996 268.627 271.3 269.508C268.951 272.594 264.252 286.532 265.626 289.218C267.001 291.905 270.56 288.139 272.251 283.716C272.973 281.584 273.934 279.542 275.118 277.627C275.118 277.627 276.974 278.53 278.278 276.114C279.582 273.697 280.897 270.072 277.303 267.514Z" fill="#EFEFEF" stroke="#55626F" stroke-linecap="round" stroke-linejoin="round"/>
<path d="M283.953 265.086C282.815 264.431 281.485 264.191 280.189 264.405C278.894 264.618 277.712 265.274 276.846 266.259C273.545 269.778 275.812 284.572 277.562 289.101C279.313 293.63 282.625 293.066 283.119 290.274C283.612 287.482 284.176 273.556 284.352 270.33C284.498 268.572 284.363 266.801 283.953 265.086Z" fill="#EFEFEF" stroke="#55626F" stroke-linecap="round" stroke-linejoin="round"/>
<path d="M291 263.49C289.876 262.783 288.533 262.513 287.223 262.729C285.914 262.945 284.729 263.633 283.893 264.663C280.615 268.382 283.035 284.032 284.833 288.843C286.63 293.653 289.943 293.09 290.412 290.098C290.882 287.106 291.305 272.406 291.446 268.98C291.566 267.138 291.416 265.288 291 263.49Z" fill="#EFEFEF" stroke="#55626F" stroke-linecap="round" stroke-linejoin="round"/>
<path d="M301.314 265.39C301.314 265.39 298.577 259.278 294.113 260.287C289.65 261.296 288.24 267.326 289.062 276.477C289.884 285.628 291.6 292.902 294.09 293.16C296.58 293.418 299.294 287.892 299.787 280.747C300.281 273.603 301.021 269.332 301.021 269.332" fill="#EFEFEF"/>
<path d="M301.314 265.39C301.314 265.39 298.577 259.278 294.113 260.287C289.65 261.296 288.24 267.326 289.062 276.477C289.884 285.628 291.6 292.902 294.09 293.16C296.58 293.418 299.294 287.892 299.787 280.747C300.281 273.603 301.021 269.332 301.021 269.332" stroke="#55626F" stroke-linecap="round" stroke-linejoin="round"/>
<path d="M358.711 201.439H331.023V243.885H358.711V201.439Z" fill="#FCA14D" stroke="#55626F" stroke-linecap="round" stroke-linejoin="round"/>
<path d="M346.797 189.073H341.699V208.713H346.797V189.073Z" fill="white" stroke="#55626F" stroke-linecap="round" stroke-linejoin="round"/>
<path d="M349.724 213.324H337.824V228.845H349.724V213.324Z" fill="white" stroke="#55626F" stroke-linecap="round" stroke-linejoin="round"/>
<path d="M335.875 233.456H352.145" stroke="#55626F" stroke-linecap="round" stroke-linejoin="round"/>
<path d="M333.441 236.846H354.328" stroke="#55626F" stroke-linecap="round" stroke-linejoin="round"/>
<path d="M379.514 122.952C379.514 122.952 370.575 128.958 368.942 133.733C367.309 138.508 360.425 158.828 357.723 166.501C355.022 174.174 339.657 180.814 341.736 182.269C343.815 183.724 363.961 185.577 363.961 185.577C363.961 185.577 368.531 203.422 369.565 207.985C370.598 212.549 376.836 226.44 376.836 226.44C376.836 226.44 395.314 204.243 398.227 198.283C400.229 194.253 402.518 190.371 405.076 186.668C405.076 186.668 412.97 188.534 417.998 189.367C423.025 190.2 436.687 191.432 436.065 189.155C435.442 186.879 428.593 176.919 425.892 167.17C423.19 157.42 424.846 136.056 421.533 127.762C418.221 119.467 410.961 118.224 408.447 117.602C405.933 116.98 383.25 119.42 379.514 122.952Z" fill="white" stroke="#55626F" stroke-linecap="round" stroke-linejoin="round"/>
<path d="M376.599 116.523C376.599 116.523 379.3 131.657 378.948 143.893C378.596 156.13 374.167 183.512 374.378 197.614C374.589 206.982 375.35 216.329 376.657 225.607C376.657 225.607 397.015 197.614 404.486 174.796C411.957 151.977 414.036 132.49 414.036 131.035C414.036 129.58 414.448 95.7803 414.448 95.7803C414.448 95.7803 392.798 118.388 376.599 116.523Z" fill="#EFEFEF" stroke="#55626F" stroke-linecap="round" stroke-linejoin="round"/>
<path d="M414.227 110.129C414.31 102.526 414.392 95.7803 414.392 95.7803C414.392 95.7803 392.801 118.388 376.602 116.523C376.602 116.523 377.365 120.781 378.011 126.612C380.13 128.062 382.482 129.137 384.965 129.791C392.46 131.293 400.859 127.105 406.557 119.913C408.659 117.262 411.443 113.648 414.227 110.129Z" fill="#55626F" stroke="#55626F" stroke-linecap="round" stroke-linejoin="round"/>
<path d="M429.038 41.4374C440.45 41.4374 449.701 32.2926 449.701 21.0119C449.701 9.73123 440.45 0.586426 429.038 0.586426C417.626 0.586426 408.375 9.73123 408.375 21.0119C408.375 32.2926 417.626 41.4374 429.038 41.4374Z" fill="#FCA14D" stroke="#FCA14D" stroke-linecap="round" stroke-linejoin="round"/>
<path d="M343.566 52.8059C343.566 52.8059 344.745 69.2189 346.268 79.1561C347.712 88.5767 353.763 101.33 357.663 104.967C361.563 108.604 374.461 120.84 381.956 122.342C389.45 123.843 397.85 119.643 403.547 112.452C409.244 105.26 420.345 90.8881 420.345 90.8881C422.82 91.1634 425.314 90.566 427.395 89.1991C429.476 87.8323 431.013 85.782 431.74 83.4031C434.747 74.7096 433.243 64.8313 428.145 63.6346C423.047 62.4379 419.452 68.4213 419.452 68.4213C419.452 68.4213 415.247 52.2545 409.855 44.1594L402.055 32.4274L412.005 20.0031C412.113 19.8682 412.193 19.7123 412.239 19.5453C412.285 19.3783 412.297 19.2037 412.272 19.0322C412.248 18.8606 412.189 18.6959 412.098 18.5481C412.008 18.4003 411.888 18.2726 411.746 18.1729C411.479 17.9815 411.148 17.9002 410.822 17.9461C410.496 17.992 410.2 18.1615 409.996 18.4193L400.258 30.9374C400.258 30.9374 381.063 27.6407 364.265 36.0291C347.466 44.4175 343.566 52.8059 343.566 52.8059Z" fill="#EFEFEF" stroke="#55626F" stroke-linecap="round" stroke-linejoin="round"/>
<path d="M372.108 103.996C375.486 107.341 384.317 110.907 392.614 98.4123" stroke="#55626F" stroke-linecap="round"/>
<path d="M367.206 75.8009C367.498 78.6147 366.18 81.0557 364.258 81.2558C362.336 81.456 360.542 79.3385 360.251 76.5247C359.959 73.7108 361.276 71.2699 363.199 71.0698C365.121 70.8696 366.899 72.9935 367.206 75.8009Z" fill="#55626F"/>
<path d="M397.494 72.6605C397.79 75.4738 396.468 77.9152 394.545 78.1112C392.622 78.3072 390.834 76.1933 390.538 73.3801C390.242 70.5668 391.564 68.1295 393.486 67.9293C395.409 67.7292 397.202 69.8467 397.494 72.6605Z" fill="#55626F"/>
<path d="M378.022 72.1003C376.989 76.4235 373.776 84.6844 371.012 88.3402C368.554 91.5921 375.711 93.3182 380.014 94.172" stroke="#55626F" stroke-linecap="round"/>
<path d="M355.637 68.1342C357.509 64.6027 363.341 59.2109 371.698 65.8957" stroke="#55626F" stroke-linecap="round"/>
<path d="M385.688 64.4637C387.559 60.9322 393.392 55.5405 401.749 62.2253" stroke="#55626F" stroke-linecap="round"/>
<path d="M432.67 152.399C432.67 152.399 426.855 137.886 425.622 135.188C424.388 132.49 434.549 116.522 436.194 114.235C437.839 111.947 440.963 107.195 440.963 106.151C440.963 105.107 429.134 93.4924 426.632 91.627C424.13 89.7616 419.995 93.9734 419.995 93.9734C419.995 93.9734 409.199 108.287 409.199 109.941C409.199 111.595 414.38 116.781 414.38 116.781C414.38 116.781 406.286 128.395 407.331 132.959C408.377 137.523 412.524 141.465 412.524 141.465L418.338 163.861L432.67 152.399Z" fill="#EFEFEF" stroke="#55626F" stroke-linecap="round" stroke-linejoin="round"/>
<path d="M414.391 116.722C414.391 116.722 421.439 111.126 420.828 109.472C420.586 108.98 420.197 108.577 419.715 108.316C419.233 108.055 418.682 107.951 418.138 108.017" stroke="#55626F" stroke-linecap="round" stroke-linejoin="round"/>
<path d="M419.383 95.7803C420.005 95.7803 438.272 107.806 437.861 109.859C437.498 111.374 436.941 112.837 436.205 114.211" stroke="#55626F" stroke-linecap="round" stroke-linejoin="round"/>
<path d="M421.461 93.915C421.461 93.915 438.694 104.697 439.082 106.562C439.159 107.175 439.086 107.797 438.869 108.376C438.652 108.954 438.298 109.471 437.836 109.882" stroke="#55626F" stroke-linecap="round" stroke-linejoin="round"/>
<path d="M423.332 92.0493C423.332 92.0493 441.399 104.286 440.953 106.128C440.457 107.638 439.685 109.042 438.674 110.269" stroke="#55626F" stroke-linecap="round" stroke-linejoin="round"/>
<path d="M435.161 150.745L407.332 166.747C407.332 166.747 443.466 252.602 450.115 264.217C456.764 275.832 474.619 278.53 483.97 275.421C493.32 272.312 497.878 253.646 494.765 245.762C491.652 237.879 469.216 203.421 458.432 186.199C447.648 168.976 435.161 150.745 435.161 150.745Z" fill="#57A8F3" stroke="#55626F" stroke-linecap="round" stroke-linejoin="round"/>
<path d="M420.453 196.078C420.453 196.078 450.995 254.738 458.819 266.47" stroke="#55626F" stroke-linecap="round" stroke-linejoin="round"/>
<path d="M437.672 157.702L480.748 223.401" stroke="#55626F" stroke-linecap="round" stroke-linejoin="round"/>
<path d="M345.364 56.7007C345.364 56.7007 334.275 53.6973 332.442 47.7139C330.609 41.7306 337.247 20.7302 358.838 9.97195C380.429 -0.786332 400.234 5.17356 408.927 7.56689C417.62 9.96023 423.928 14.4653 429.625 30.3388C435.323 46.2122 435.616 58.4957 433.819 64.479C432.75 68.0567 431.448 71.5604 429.919 74.9675C429.919 74.9675 418.83 76.1407 415.823 71.6708C412.815 67.2009 414.025 44.6871 401.127 39.3255C388.229 33.964 363.642 36.9791 357.663 42.3172C351.684 47.6553 345.364 56.7007 345.364 56.7007Z" fill="#FCA14D" stroke="#FCA14D" stroke-linecap="round" stroke-linejoin="round"/>
<path d="M427.101 44.9922C427.101 44.9922 428.135 58.4723 425.645 68.6322L429.592 69.8758C429.592 69.8758 432.704 54.3192 431.248 45.614L427.101 44.9922Z" fill="#EFEFEF" stroke="#55626F" stroke-linecap="round" stroke-linejoin="round"/>
<path d="M400.27 5.56104C404.612 7.72512 408.482 10.7275 411.656 14.3945C414.83 18.0615 417.244 22.3204 418.759 26.9251C423.529 42.2706 422.906 47.0455 425.808 48.6997C428.709 50.354 434.324 51.3981 434.524 47.6673C434.724 43.9365 433.431 27.2888 425.126 16.9646C418.9 9.10411 405.462 5.77221 400.27 5.56104Z" fill="#EFEFEF" stroke="#55626F" stroke-linecap="round" stroke-linejoin="round"/>
<path d="M428.745 65.6639C422.765 63.8337 416.199 68.0103 414.061 74.9439C412.087 81.3614 414.601 87.9078 419.699 90.3246C415.956 99.8237 410.389 108.5 403.312 115.865C401.935 115.696 400.543 116.047 399.412 116.851C397.274 118.294 396.335 120.652 397.333 122.13C398.332 123.608 400.857 123.632 403.007 122.201C405.157 120.769 405.92 118.681 405.239 117.25C412.475 109.706 418.152 100.812 421.943 91.0755C427.652 92.2487 433.69 88.1659 435.699 81.5608C437.837 74.6154 434.724 67.4941 428.745 65.6639Z" fill="#EFEFEF" stroke="#55626F" stroke-linecap="round" stroke-linejoin="round"/>
<path d="M433.822 79.2265C432.811 83.6612 428.806 86.5473 424.87 85.6556C420.935 84.764 418.562 80.4349 419.573 76.0002C420.583 71.5655 424.589 68.6794 428.524 69.5593C432.459 70.4392 434.832 74.78 433.822 79.2265Z" fill="#55626F" stroke="#55626F" stroke-linecap="round" stroke-linejoin="round"/>
<path d="M152.713 294.474H346.539V286.262H152.713V294.474Z" fill="#EFEFEF" stroke="#55626F" stroke-linecap="round" stroke-linejoin="round"/>
<path d="M123.346 294.474H292.504V286.262H123.346V294.474Z" fill="#EFEFEF" stroke="#55626F" stroke-linecap="round" stroke-linejoin="round"/>
<path d="M119.62 271.984H281.636L264.168 148.457H102.152L119.62 271.984Z" fill="#EFEFEF" stroke="#55626F" stroke-linecap="round" stroke-linejoin="round"/>
<path d="M112.913 271.984H274.929L257.461 148.457H95.4453L112.913 271.984Z" fill="#55626F" stroke="#55626F" stroke-linecap="round" stroke-linejoin="round"/>
<path d="M162.956 214.696L146.84 294.474H188.284L204.4 214.696H162.956ZM191.067 238.341C191 238.676 190.82 238.977 190.559 239.192C190.298 239.408 189.971 239.525 189.635 239.523L166.159 239.287C165.939 239.284 165.723 239.231 165.526 239.132C165.329 239.033 165.156 238.89 165.021 238.714C164.886 238.538 164.791 238.334 164.744 238.116C164.697 237.898 164.699 237.672 164.75 237.455L166.869 228.505C166.936 228.17 167.116 227.869 167.377 227.654C167.638 227.438 167.965 227.321 168.301 227.323L191.789 227.547C192.008 227.552 192.223 227.606 192.418 227.706C192.614 227.806 192.785 227.949 192.919 228.125C193.053 228.3 193.146 228.504 193.193 228.721C193.239 228.939 193.237 229.164 193.186 229.38L191.067 238.341Z" fill="#EFEFEF" stroke="#55626F" stroke-linecap="round" stroke-linejoin="round"/>
<path d="M547.414 294.474L1.17614 294.474V294.474L547.414 294.474V294.474Z" stroke="#55626F" stroke-linecap="round" stroke-linejoin="round"/>
</svg>
