<svg width="289" height="165" viewBox="0 0 289 165" fill="none" xmlns="http://www.w3.org/2000/svg">
<g clip-path="url(#clip0_4559_19291)">
<path d="M15.0875 135.124L6.58984 163.299H29.6052L38.361 135.279L15.0875 135.124Z" fill="#55626F" stroke="#55626F" stroke-width="0.7" stroke-linecap="round" stroke-linejoin="round"/>
<path d="M68.8471 163.954H20.9845L15.293 135.39H63.1492L68.8471 163.954Z" fill="#EFEFEF" stroke="#55626F" stroke-width="0.7" stroke-linecap="round" stroke-linejoin="round"/>
<path d="M63.8081 158.495H23.8038L20.8164 143.777H60.8207L63.8081 158.495Z" stroke="#55626F" stroke-width="0.7" stroke-linecap="round" stroke-linejoin="round"/>
<path d="M24.2578 143.836L27.2194 158.436" stroke="#55626F" stroke-width="0.7" stroke-linecap="round" stroke-linejoin="round"/>
<path d="M27.9258 143.836L30.8874 158.436" stroke="#55626F" stroke-width="0.7" stroke-linecap="round" stroke-linejoin="round"/>
<path d="M31.5977 143.836L34.5593 158.436" stroke="#55626F" stroke-width="0.7" stroke-linecap="round" stroke-linejoin="round"/>
<path d="M35.2656 143.836L38.2272 158.436" stroke="#55626F" stroke-width="0.7" stroke-linecap="round" stroke-linejoin="round"/>
<path d="M38.9336 143.836L41.8952 158.436" stroke="#55626F" stroke-width="0.7" stroke-linecap="round" stroke-linejoin="round"/>
<path d="M42.6055 143.836L45.5671 158.436" stroke="#55626F" stroke-width="0.7" stroke-linecap="round" stroke-linejoin="round"/>
<path d="M46.2734 143.836L49.235 158.436" stroke="#55626F" stroke-width="0.7" stroke-linecap="round" stroke-linejoin="round"/>
<path d="M49.9414 143.836L52.903 158.436" stroke="#55626F" stroke-width="0.7" stroke-linecap="round" stroke-linejoin="round"/>
<path d="M53.6133 143.836L56.5749 158.436" stroke="#55626F" stroke-width="0.7" stroke-linecap="round" stroke-linejoin="round"/>
<path d="M57.2773 143.836L60.239 158.436" stroke="#55626F" stroke-width="0.7" stroke-linecap="round" stroke-linejoin="round"/>
<path d="M21.5 146.686H61.2785" stroke="#55626F" stroke-width="0.7" stroke-linecap="round" stroke-linejoin="round"/>
<path d="M22.1016 149.626H61.8736" stroke="#55626F" stroke-width="0.7" stroke-linecap="round" stroke-linejoin="round"/>
<path d="M22.6953 152.561H62.4673" stroke="#55626F" stroke-width="0.7" stroke-linecap="round" stroke-linejoin="round"/>
<path d="M23.2891 155.495H63.0675" stroke="#55626F" stroke-width="0.7" stroke-linecap="round" stroke-linejoin="round"/>
<path d="M38.2463 141.232H20.4896L20.1992 139.811H37.956L38.2463 141.232Z" fill="#55626F"/>
<path d="M280.485 91.2441H222.525C219.798 91.3087 217.184 92.3451 215.154 94.1661C213.125 95.9872 211.814 98.473 211.458 101.175L204.348 163.954H272.223L280.485 91.2441Z" fill="#EFEFEF" stroke="#55626F" stroke-width="0.7" stroke-linecap="round" stroke-linejoin="round"/>
<path d="M280.835 91.2462C278.572 91.2995 276.402 92.1606 274.718 93.6739C273.035 95.1872 271.948 97.2529 271.654 99.4977L264.352 163.954H280.842L288.15 99.4977C288.301 98.4587 288.223 97.3993 287.922 96.3935C287.621 95.3877 287.105 94.4596 286.408 93.674C285.712 92.8884 284.852 92.2642 283.89 91.8449C282.927 91.4255 281.885 91.2212 280.835 91.2462Z" fill="#55626F" stroke="#55626F" stroke-width="0.7" stroke-linecap="round" stroke-linejoin="round"/>
<path d="M203.806 72.1428C199.738 75.0967 195.341 77.5517 190.707 79.4567C182.489 82.9364 179.184 83.9869 179.184 83.9869L181.462 163.954H241.126C241.126 163.954 233.476 113.814 233.476 96.9866C233.476 80.1592 234.16 76.8765 234.16 76.8765L214.535 71.7686L203.806 72.1428Z" fill="white" stroke="#55626F" stroke-width="0.7" stroke-linecap="round" stroke-linejoin="round"/>
<path d="M197.662 75.6636C195.795 89.1529 194.687 102.738 194.344 116.353C194.001 136.756 197.895 163.954 197.895 163.954H154.02C159.476 153.568 163.378 142.428 165.599 130.894C168.839 114.377 171.431 86.3771 172.118 86.0315C172.805 85.6859 196.061 77.0199 197.662 75.6636Z" fill="#57A8F3" stroke="#55626F" stroke-width="0.7" stroke-linecap="round" stroke-linejoin="round"/>
<path d="M177.707 163.604C177.707 163.604 173.255 133.306 173.481 126.19C173.707 119.075 174.829 94.9771 174.829 94.9771" stroke="#55626F" stroke-width="0.7" stroke-linecap="round" stroke-linejoin="round"/>
<path d="M221.977 73.7158C221.977 73.7158 216.409 99.5772 215.952 120.848C215.496 142.118 214.023 163.954 214.023 163.954H249.228C249.228 163.954 249.684 144.524 249.228 137.859C248.771 131.193 248.771 132.572 248.771 132.572L262.416 136.136C262.416 136.136 253.658 93.4841 252.07 88.7761C250.482 84.0682 251.273 82.566 250.25 81.7597C249.228 80.9534 221.977 73.7158 221.977 73.7158Z" fill="#57A8F3" stroke="#55626F" stroke-width="0.7" stroke-linecap="round" stroke-linejoin="round"/>
<path d="M158.266 146.049C159.187 147.47 160.27 148.777 161.492 149.944C163.06 151.295 166.422 150.594 168.209 152.437C169.997 154.281 168.041 159.91 165.783 161.877C161.912 165.233 163.964 155.047 163.964 155.047C162.598 155.989 161.091 156.701 159.499 157.157C157.305 157.663 151.659 155.937 149.769 155.859C147.878 155.781 145.252 155.417 144.245 153.301C143.239 151.184 149.485 148.633 152.259 147.62C154.219 146.943 156.227 146.418 158.266 146.049Z" fill="#EFEFEF" stroke="#55626F" stroke-width="0.7" stroke-linecap="round" stroke-linejoin="round"/>
<path d="M146.315 149.036C145.718 148.876 145.088 148.895 144.502 149.091C143.916 149.287 143.4 149.651 143.018 150.139C141.727 151.847 139.146 159.559 139.901 161.046C140.656 162.532 142.611 160.449 143.54 158.001C143.937 156.822 144.465 155.691 145.115 154.632C145.115 154.632 146.134 155.132 146.851 153.794C147.567 152.457 148.289 150.451 146.315 149.036Z" fill="#EFEFEF" stroke="#55626F" stroke-width="0.7" stroke-linecap="round" stroke-linejoin="round"/>
<path d="M149.966 147.692C149.341 147.33 148.611 147.197 147.899 147.315C147.188 147.433 146.539 147.796 146.062 148.341C144.249 150.289 145.495 158.475 146.456 160.981C147.417 163.487 149.237 163.175 149.508 161.63C149.779 160.085 150.089 152.379 150.186 150.594C150.266 149.621 150.192 148.641 149.966 147.692Z" fill="#EFEFEF" stroke="#55626F" stroke-width="0.7" stroke-linecap="round" stroke-linejoin="round"/>
<path d="M153.84 146.809C153.223 146.418 152.485 146.269 151.766 146.388C151.046 146.508 150.396 146.889 149.936 147.458C148.136 149.516 149.465 158.177 150.453 160.838C151.44 163.5 153.259 163.189 153.517 161.533C153.775 159.878 154.008 151.743 154.085 149.848C154.151 148.828 154.068 147.805 153.84 146.809Z" fill="#EFEFEF" stroke="#55626F" stroke-width="0.7" stroke-linecap="round" stroke-linejoin="round"/>
<path d="M159.504 147.861C159.504 147.861 158.001 144.479 155.549 145.037C153.097 145.595 152.323 148.932 152.774 153.996C153.226 159.059 154.168 163.084 155.536 163.227C156.904 163.37 158.394 160.312 158.665 156.359C158.936 152.405 159.343 150.042 159.343 150.042" fill="#EFEFEF"/>
<path d="M159.504 147.861C159.504 147.861 158.001 144.479 155.549 145.037C153.097 145.595 152.323 148.932 152.774 153.996C153.226 159.059 154.168 163.084 155.536 163.227C156.904 163.37 158.394 160.312 158.665 156.359C158.936 152.405 159.343 150.042 159.343 150.042" stroke="#55626F" stroke-width="0.7" stroke-linecap="round" stroke-linejoin="round"/>
<path d="M191.028 112.473H175.82V135.961H191.028V112.473Z" fill="#FCA14D" stroke="#55626F" stroke-width="0.7" stroke-linecap="round" stroke-linejoin="round"/>
<path d="M184.488 105.63H181.688V116.498H184.488V105.63Z" fill="white" stroke="#55626F" stroke-width="0.7" stroke-linecap="round" stroke-linejoin="round"/>
<path d="M186.095 119.049H179.559V127.638H186.095V119.049Z" fill="white" stroke="#55626F" stroke-width="0.7" stroke-linecap="round" stroke-linejoin="round"/>
<path d="M178.484 130.189H187.421" stroke="#55626F" stroke-width="0.7" stroke-linecap="round" stroke-linejoin="round"/>
<path d="M177.152 132.066H188.625" stroke="#55626F" stroke-width="0.7" stroke-linecap="round" stroke-linejoin="round"/>
<path d="M202.458 69.0418C202.458 69.0418 197.548 72.3657 196.651 75.0079C195.754 77.6501 191.973 88.8942 190.489 93.14C189.005 97.3857 180.565 101.06 181.707 101.865C182.85 102.67 193.915 103.696 193.915 103.696C193.915 103.696 196.425 113.57 196.993 116.096C197.561 118.621 200.987 126.307 200.987 126.307C200.987 126.307 211.136 114.025 212.737 110.727C213.836 108.497 215.093 106.349 216.498 104.3C216.498 104.3 220.834 105.332 223.596 105.793C226.357 106.254 233.861 106.935 233.519 105.676C233.177 104.417 229.416 98.9048 227.932 93.51C226.448 88.1152 227.358 76.2933 225.538 71.7035C223.718 67.1137 219.731 66.4255 218.35 66.0814C216.969 65.7374 204.51 67.0877 202.458 69.0418Z" fill="white" stroke="#55626F" stroke-width="0.7" stroke-linecap="round" stroke-linejoin="round"/>
<path d="M200.856 65.4841C200.856 65.4841 202.34 73.8588 202.147 80.6299C201.953 87.401 199.521 102.553 199.637 110.357C199.752 115.54 200.17 120.712 200.889 125.846C200.889 125.846 212.07 110.357 216.174 97.7297C220.278 85.1029 221.42 74.3197 221.42 73.5147C221.42 72.7097 221.646 54.0063 221.646 54.0063C221.646 54.0063 209.754 66.5164 200.856 65.4841Z" fill="#EFEFEF" stroke="#55626F" stroke-width="0.7" stroke-linecap="round" stroke-linejoin="round"/>
<path d="M221.522 61.946C221.567 57.7392 221.613 54.0063 221.613 54.0063C221.613 54.0063 209.753 66.5164 200.855 65.4841C200.855 65.4841 201.275 67.8407 201.63 71.0672C202.793 71.8694 204.086 72.4645 205.45 72.8266C209.566 73.6575 214.179 71.3399 217.309 67.3603C218.464 65.8931 219.993 63.8936 221.522 61.946Z" fill="#55626F" stroke="#55626F" stroke-width="0.7" stroke-linecap="round" stroke-linejoin="round"/>
<path d="M229.658 23.9356C235.926 23.9356 241.008 18.8753 241.008 12.6331C241.008 6.39087 235.926 1.33057 229.658 1.33057C223.39 1.33057 218.309 6.39087 218.309 12.6331C218.309 18.8753 223.39 23.9356 229.658 23.9356Z" fill="#FCA14D" stroke="#FCA14D" stroke-width="0.7" stroke-linecap="round" stroke-linejoin="round"/>
<path d="M182.711 30.2264C182.711 30.2264 183.358 39.3086 184.195 44.8074C184.988 50.0203 188.312 57.0772 190.454 59.0897C192.596 61.1022 199.68 67.8733 203.797 68.7043C207.914 69.5353 212.527 67.2112 215.656 63.2316C218.786 59.252 224.883 51.2993 224.883 51.2993C226.243 51.4517 227.612 51.1211 228.755 50.3647C229.898 49.6084 230.743 48.4739 231.142 47.1575C232.794 42.3469 231.968 36.8807 229.168 36.2185C226.367 35.5563 224.393 38.8672 224.393 38.8672C224.393 38.8672 222.083 29.9213 219.121 25.4418L214.837 18.9499L220.302 12.0749C220.362 12.0002 220.406 11.914 220.431 11.8216C220.456 11.7291 220.462 11.6325 220.449 11.5376C220.436 11.4427 220.403 11.3515 220.354 11.2697C220.304 11.188 220.238 11.1173 220.16 11.0621C220.013 10.9562 219.831 10.9112 219.652 10.9366C219.473 10.962 219.311 11.0558 219.199 11.1985L213.85 18.1254C213.85 18.1254 203.307 16.3012 194.08 20.9429C184.853 25.5847 182.711 30.2264 182.711 30.2264Z" fill="#EFEFEF" stroke="#55626F" stroke-width="0.7" stroke-linecap="round" stroke-linejoin="round"/>
<path d="M198.389 58.5526C200.244 60.4035 205.095 62.3769 209.652 55.463" stroke="#55626F" stroke-width="0.7" stroke-linecap="round"/>
<path d="M195.697 42.9508C195.857 44.5079 195.134 45.8586 194.078 45.9693C193.022 46.0801 192.037 44.9084 191.877 43.3513C191.717 41.7943 192.44 40.4436 193.496 40.3328C194.552 40.2221 195.528 41.3974 195.697 42.9508Z" fill="#55626F"/>
<path d="M212.333 41.2132C212.496 42.7699 211.77 44.1209 210.714 44.2293C209.657 44.3378 208.675 43.1681 208.512 41.6113C208.35 40.0546 209.076 38.7059 210.132 38.5951C211.188 38.4844 212.173 39.6561 212.333 41.2132Z" fill="#55626F"/>
<path d="M201.636 40.9027C201.068 43.2949 199.303 47.8662 197.785 49.8891C196.435 51.6885 200.366 52.6437 202.73 53.1162" stroke="#55626F" stroke-width="0.7" stroke-linecap="round"/>
<path d="M189.342 38.7085C190.37 36.7543 193.574 33.7707 198.164 37.4698" stroke="#55626F" stroke-width="0.7" stroke-linecap="round"/>
<path d="M205.846 36.6772C206.874 34.723 210.078 31.7395 214.668 35.4385" stroke="#55626F" stroke-width="0.7" stroke-linecap="round"/>
<path d="M231.652 85.3365C231.652 85.3365 228.459 77.3059 227.781 75.8128C227.104 74.3196 232.685 65.484 233.588 64.2181C234.491 62.9522 236.208 60.3229 236.208 59.7451C236.208 59.1674 229.71 52.7403 228.336 51.7081C226.962 50.6759 224.69 53.0065 224.69 53.0065C224.69 53.0065 218.761 60.9267 218.761 61.842C218.761 62.7574 221.606 65.6269 221.606 65.6269C221.606 65.6269 217.161 72.0539 217.735 74.5793C218.309 77.1047 220.587 79.286 220.587 79.286L223.781 91.6791L231.652 85.3365Z" fill="#EFEFEF" stroke="#55626F" stroke-width="0.7" stroke-linecap="round" stroke-linejoin="round"/>
<path d="M221.613 65.5948C221.613 65.5948 225.485 62.4981 225.149 61.5827C225.016 61.311 224.803 61.0875 224.538 60.9433C224.273 60.7991 223.97 60.7412 223.672 60.7777" stroke="#55626F" stroke-width="0.7" stroke-linecap="round" stroke-linejoin="round"/>
<path d="M224.355 54.0063C224.697 54.0063 234.731 60.6606 234.505 61.7967C234.305 62.6354 234 63.4449 233.595 64.2052" stroke="#55626F" stroke-width="0.7" stroke-linecap="round" stroke-linejoin="round"/>
<path d="M225.496 52.9741C225.496 52.9741 234.962 58.9402 235.175 59.9725C235.217 60.3115 235.177 60.6559 235.058 60.9759C234.939 61.2959 234.744 61.5821 234.491 61.8097" stroke="#55626F" stroke-width="0.7" stroke-linecap="round" stroke-linejoin="round"/>
<path d="M226.523 51.9419C226.523 51.9419 236.447 58.713 236.202 59.7322C235.93 60.5678 235.505 61.345 234.95 62.0239" stroke="#55626F" stroke-width="0.7" stroke-linecap="round" stroke-linejoin="round"/>
<path d="M233.02 84.4214L217.734 93.2764C217.734 93.2764 237.582 140.785 241.234 147.212C244.886 153.639 254.693 155.132 259.829 153.412C264.965 151.691 267.469 141.362 265.759 137C264.049 132.637 251.725 113.57 245.802 104.04C239.879 94.5099 233.02 84.4214 233.02 84.4214Z" fill="#57A8F3" stroke="#55626F" stroke-width="0.7" stroke-linecap="round" stroke-linejoin="round"/>
<path d="M224.941 109.506C224.941 109.506 241.717 141.966 246.015 148.458" stroke="#55626F" stroke-width="0.7" stroke-linecap="round" stroke-linejoin="round"/>
<path d="M234.402 88.271L258.063 124.626" stroke="#55626F" stroke-width="0.7" stroke-linecap="round" stroke-linejoin="round"/>
<path d="M183.698 32.3818C183.698 32.3818 177.607 30.7199 176.6 27.409C175.594 24.0981 179.239 12.4775 191.099 6.52432C202.958 0.571191 213.837 3.86912 218.611 5.19348C223.386 6.51784 226.851 9.01075 229.98 17.7944C233.11 26.578 233.271 33.3751 232.284 36.686C231.697 38.6657 230.981 40.6045 230.142 42.4898C230.142 42.4898 224.051 43.139 222.399 40.6656C220.747 38.1921 221.412 25.7341 214.327 22.7672C207.242 19.8004 193.738 21.4688 190.454 24.4227C187.169 27.3765 183.698 32.3818 183.698 32.3818Z" fill="#FCA14D" stroke="#FCA14D" stroke-width="0.7" stroke-linecap="round" stroke-linejoin="round"/>
<path d="M228.593 25.9028C228.593 25.9028 229.161 33.3621 227.793 38.9841L229.961 39.6723C229.961 39.6723 231.671 31.0639 230.871 26.2469L228.593 25.9028Z" fill="#EFEFEF" stroke="#55626F" stroke-width="0.7" stroke-linecap="round" stroke-linejoin="round"/>
<path d="M213.859 4.08301C216.245 5.28051 218.37 6.94187 220.114 8.97102C221.857 11.0002 223.183 13.3569 224.015 15.9049C226.635 24.3964 226.293 27.0386 227.887 27.954C229.48 28.8693 232.565 29.4471 232.674 27.3827C232.784 25.3182 232.074 16.1061 227.512 10.3932C224.093 6.04358 216.711 4.19986 213.859 4.08301Z" fill="#EFEFEF" stroke="#55626F" stroke-width="0.7" stroke-linecap="round" stroke-linejoin="round"/>
<path d="M229.496 37.3417C226.212 36.329 222.605 38.6401 221.431 42.4769C220.347 46.028 221.728 49.6505 224.528 50.9879C222.472 56.2442 219.414 61.0453 215.527 65.1209C214.77 65.027 214.006 65.2216 213.385 65.6662C212.211 66.4647 211.694 67.7696 212.243 68.5876C212.791 69.4056 214.179 69.4185 215.359 68.6265C216.54 67.8345 216.959 66.6789 216.585 65.8869C220.56 61.7127 223.678 56.791 225.76 51.4033C228.896 52.0525 232.213 49.7933 233.316 46.1383C234.49 42.2951 232.781 38.3545 229.496 37.3417Z" fill="#EFEFEF" stroke="#55626F" stroke-width="0.7" stroke-linecap="round" stroke-linejoin="round"/>
<path d="M232.286 44.8464C231.732 47.3004 229.531 48.8974 227.37 48.404C225.208 47.9106 223.905 45.5151 224.46 43.0611C225.015 40.6072 227.215 39.0102 229.377 39.4971C231.538 39.984 232.841 42.386 232.286 44.8464Z" fill="#55626F" stroke="#55626F" stroke-width="0.7" stroke-linecap="round" stroke-linejoin="round"/>
<path d="M77.8807 163.954H184.344V159.41H77.8807V163.954Z" fill="#EFEFEF" stroke="#55626F" stroke-width="0.7" stroke-linecap="round" stroke-linejoin="round"/>
<path d="M61.7509 163.954H154.664V159.41H61.7509V163.954Z" fill="#EFEFEF" stroke="#55626F" stroke-width="0.7" stroke-linecap="round" stroke-linejoin="round"/>
<path d="M59.704 151.509H148.694L139.1 83.1553H50.1094L59.704 151.509Z" fill="#EFEFEF" stroke="#55626F" stroke-width="0.7" stroke-linecap="round" stroke-linejoin="round"/>
<path d="M56.0204 151.509H145.011L135.416 83.1553H46.4258L56.0204 151.509Z" fill="#55626F" stroke="#55626F" stroke-width="0.7" stroke-linecap="round" stroke-linejoin="round"/>
<path d="M83.5086 119.809L74.6562 163.954H97.4202L106.273 119.809H83.5086ZM98.9489 132.893C98.912 133.078 98.8134 133.245 98.6699 133.364C98.5265 133.483 98.3471 133.548 98.1622 133.547L85.2675 133.416C85.1468 133.415 85.0279 133.386 84.9198 133.331C84.8116 133.276 84.7169 133.197 84.6426 133.099C84.5683 133.002 84.5163 132.889 84.4905 132.768C84.4647 132.648 84.4658 132.523 84.4936 132.402L85.6577 127.45C85.6946 127.265 85.7932 127.098 85.9367 126.979C86.0801 126.86 86.2595 126.795 86.4444 126.796L99.3455 126.92C99.4657 126.923 99.5838 126.953 99.6912 127.008C99.7985 127.063 99.8925 127.142 99.966 127.24C100.04 127.337 100.091 127.45 100.116 127.57C100.142 127.69 100.141 127.815 100.113 127.934L98.9489 132.893Z" fill="#EFEFEF" stroke="#55626F" stroke-width="0.7" stroke-linecap="round" stroke-linejoin="round"/>
<path d="M288 163.994L1.00001 163.994V163.994L288 163.994V163.994Z" stroke="#55626F" stroke-linecap="round" stroke-linejoin="round"/>
</g>
<defs>
<clipPath id="clip0_4559_19291">
<rect width="289" height="165" fill="white"/>
</clipPath>
</defs>
</svg>
